{"title":"Piano Sonata Hob. XVI:35: II","artist":"Haydn","durationMs":392795,"midiSha256":"2ddd96c99b215a4257145ac828aa72a2cbd93d4eef3f50e31276058c2ff827ab","midiObject":[{"NoteNumber":41,"Velocity":45,"Duration":413636,"SoundDuration":413636,"Delta":0},{"NoteNumber":45,"Velocity":48,"Duration":375757,"SoundDuration":375757,"Delta":37879},{"NoteNumber":48,"Velocity":51,"Duration":337878,"SoundDuration":337878,"Delta":75758},{"NoteNumber":57,"Velocity":51,"Duration":299999,"SoundDuration":299999,"Delta":113637},{"NoteNumber":65,"Velocity":60,"Duration":899999,"SoundDuration":899999,"Delta":113637},{"NoteNumber":60,"Velocity":51,"Duration":299999,"SoundDuration":299999,"Delta":113637},{"NoteNumber":53,"Velocity":53,"Duration":299999,"SoundDuration":299999,"Delta":113637},{"NoteNumber":60,"Velocity":56,"Duration":300000,"SoundDuration":300000,"Delta":1013636},{"NoteNumber":70,"Velocity":60,"Duration":297029,"SoundDuration":297029,"Delta":1313637},{"NoteNumber":69,"Velocity":54,"Duration":295573,"SoundDuration":295573,"Delta":1610666},{"NoteNumber":67,"Velocity":54,"Duration":294117,"SoundDuration":294117,"Delta":1906240},{"NoteNumber":65,"Velocity":54,"Duration":312500,"SoundDuration":312500,"Delta":2200358},{"NoteNumber":64,"Velocity":60,"Duration":299999,"SoundDuration":299999,"Delta":2512858},{"NoteNumber":55,"Velocity":42,"Duration":299999,"SoundDuration":299999,"Delta":2512858},{"NoteNumber":48,"Velocity":42,"Duration":299999,"SoundDuration":299999,"Delta":2512858},{"NoteNumber":58,"Velocity":50,"Duration":299999,"SoundDuration":299999,"Delta":2512858},{"NoteNumber":65,"Velocity":57,"Duration":300000,"SoundDuration":300000,"Delta":3112858},{"NoteNumber":67,"Velocity":60,"Duration":299999,"SoundDuration":299999,"Delta":3712858},{"NoteNumber":69,"Velocity":55,"Duration":315789,"SoundDuration":315789,"Delta":4312858},{"NoteNumber":52,"Velocity":45,"Duration":421451,"SoundDuration":421451,"Delta":4826016},{"NoteNumber":55,"Velocity":48,"Duration":381977,"SoundDuration":381977,"Delta":4865489},{"NoteNumber":58,"Velocity":51,"Duration":342503,"SoundDuration":342503,"Delta":4904963},{"NoteNumber":67,"Velocity":51,"Duration":303030,"SoundDuration":303030,"Delta":4944437},{"NoteNumber":64,"Velocity":51,"Duration":303030,"SoundDuration":303030,"Delta":4944437},{"NoteNumber":70,"Velocity":60,"Duration":909090,"SoundDuration":909090,"Delta":4944437},{"NoteNumber":60,"Velocity":53,"Duration":303030,"SoundDuration":303030,"Delta":4944437},{"NoteNumber":67,"Velocity":56,"Duration":303030,"SoundDuration":303030,"Delta":5853528},{"NoteNumber":76,"Velocity":60,"Duration":297029,"SoundDuration":297029,"Delta":6156558},{"NoteNumber":74,"Velocity":54,"Duration":298514,"SoundDuration":298514,"Delta":6453588},{"NoteNumber":72,"Velocity":54,"Duration":299999,"SoundDuration":299999,"Delta":6752102},{"NoteNumber":70,"Velocity":54,"Duration":312500,"SoundDuration":312500,"Delta":7052102},{"NoteNumber":69,"Velocity":60,"Duration":303030,"SoundDuration":303030,"Delta":7364602},{"NoteNumber":60,"Velocity":50,"Duration":303030,"SoundDuration":303030,"Delta":7364602},{"NoteNumber":53,"Velocity":42,"Duration":303030,"SoundDuration":303030,"Delta":7364602},{"NoteNumber":70,"Velocity":57,"Duration":303030,"SoundDuration":303030,"Delta":7970663},{"NoteNumber":72,"Velocity":60,"Duration":303030,"SoundDuration":303030,"Delta":8576723},{"NoteNumber":73,"Velocity":61,"Duration":312500,"SoundDuration":312500,"Delta":9182784},{"NoteNumber":74,"Velocity":55,"Duration":900000,"SoundDuration":900000,"Delta":9807784},{"NoteNumber":65,"Velocity":44,"Duration":3025000,"SoundDuration":3025000,"Delta":9807784},{"NoteNumber":58,"Velocity":44,"Duration":2400000,"SoundDuration":2400000,"Delta":9807784},{"NoteNumber":76,"Velocity":48,"Duration":299999,"SoundDuration":299999,"Delta":10707784},{"NoteNumber":79,"Velocity":55,"Duration":300000,"SoundDuration":300000,"Delta":11007784},{"NoteNumber":77,"Velocity":51,"Duration":300000,"SoundDuration":300000,"Delta":11307784},{"NoteNumber":76,"Velocity":51,"Duration":299999,"SoundDuration":299999,"Delta":11607784},{"NoteNumber":74,"Velocity":51,"Duration":300000,"SoundDuration":300000,"Delta":11907784},{"NoteNumber":72,"Velocity":55,"Duration":468750,"SoundDuration":468750,"Delta":12207784},{"NoteNumber":57,"Velocity":44,"Duration":625000,"SoundDuration":625000,"Delta":12207784},{"NoteNumber":72,"Velocity":49,"Duration":599999,"SoundDuration":599999,"Delta":12832784},{"NoteNumber":70,"Velocity":49,"Duration":74999,"SoundDuration":74999,"Delta":13432784},{"NoteNumber":72,"Velocity":44,"Duration":75000,"SoundDuration":75000,"Delta":13507784},{"NoteNumber":70,"Velocity":49,"Duration":74999,"SoundDuration":74999,"Delta":13582784},{"NoteNumber":72,"Velocity":42,"Duration":74999,"SoundDuration":74999,"Delta":13657784},{"NoteNumber":70,"Velocity":49,"Duration":100000,"SoundDuration":100000,"Delta":13732784},{"NoteNumber":72,"Velocity":45,"Duration":99999,"SoundDuration":99999,"Delta":13832784},{"NoteNumber":70,"Velocity":45,"Duration":100000,"SoundDuration":100000,"Delta":13932784},{"NoteNumber":69,"Velocity":49,"Duration":631578,"SoundDuration":631578,"Delta":14032784},{"NoteNumber":67,"Velocity":54,"Duration":449999,"SoundDuration":449999,"Delta":14664363},{"NoteNumber":58,"Velocity":43,"Duration":2431578,"SoundDuration":2431578,"Delta":14664363},{"NoteNumber":46,"Velocity":43,"Duration":2431578,"SoundDuration":2431578,"Delta":14664363},{"NoteNumber":69,"Velocity":49,"Duration":149999,"SoundDuration":149999,"Delta":15264363},{"NoteNumber":67,"Velocity":43,"Duration":149999,"SoundDuration":149999,"Delta":15414363},{"NoteNumber":66,"Velocity":44,"Duration":150000,"SoundDuration":150000,"Delta":15564363},{"NoteNumber":67,"Velocity":44,"Duration":149999,"SoundDuration":149999,"Delta":15714363},{"NoteNumber":70,"Velocity":49,"Duration":600000,"SoundDuration":600000,"Delta":15864363},{"NoteNumber":74,"Velocity":44,"Duration":631578,"SoundDuration":631578,"Delta":16464363},{"NoteNumber":65,"Velocity":44,"Duration":1818181,"SoundDuration":1818181,"Delta":17095942},{"NoteNumber":48,"Velocity":37,"Duration":2302052,"SoundDuration":2302052,"Delta":17095942},{"NoteNumber":57,"Velocity":37,"Duration":1212120,"SoundDuration":1212120,"Delta":17095942},{"NoteNumber":55,"Velocity":33,"Duration":1089931,"SoundDuration":1089931,"Delta":18308063},{"NoteNumber":64,"Velocity":42,"Duration":161290,"SoundDuration":161290,"Delta":18914123},{"NoteNumber":65,"Velocity":38,"Duration":161290,"SoundDuration":161290,"Delta":19075414},{"NoteNumber":64,"Velocity":42,"Duration":322580,"SoundDuration":322580,"Delta":19236704},{"NoteNumber":41,"Velocity":45,"Duration":427090,"SoundDuration":427090,"Delta":19438317},{"NoteNumber":45,"Velocity":48,"Duration":386767,"SoundDuration":386767,"Delta":19478640},{"NoteNumber":48,"Velocity":51,"Duration":346445,"SoundDuration":346445,"Delta":19518962},{"NoteNumber":65,"Velocity":60,"Duration":918367,"SoundDuration":918367,"Delta":19559285},{"NoteNumber":57,"Velocity":51,"Duration":306122,"SoundDuration":306122,"Delta":19559285},{"NoteNumber":60,"Velocity":51,"Duration":306122,"SoundDuration":306122,"Delta":19559285},{"NoteNumber":53,"Velocity":53,"Duration":306122,"SoundDuration":306122,"Delta":19559285},{"NoteNumber":60,"Velocity":56,"Duration":306122,"SoundDuration":306122,"Delta":20477652},{"NoteNumber":70,"Velocity":60,"Duration":297029,"SoundDuration":297029,"Delta":20783775},{"NoteNumber":69,"Velocity":54,"Duration":297029,"SoundDuration":297029,"Delta":21080805},{"NoteNumber":67,"Velocity":54,"Duration":297029,"SoundDuration":297029,"Delta":21377834},{"NoteNumber":65,"Velocity":54,"Duration":315789,"SoundDuration":315789,"Delta":21674864},{"NoteNumber":64,"Velocity":60,"Duration":441176,"SoundDuration":441176,"Delta":21990654},{"NoteNumber":58,"Velocity":50,"Duration":599071,"SoundDuration":599071,"Delta":21990654},{"NoteNumber":48,"Velocity":42,"Duration":4792501,"SoundDuration":4792501,"Delta":21990654},{"NoteNumber":60,"Velocity":53,"Duration":157894,"SoundDuration":157894,"Delta":22431830},{"NoteNumber":65,"Velocity":57,"Duration":441176,"SoundDuration":441176,"Delta":22589725},{"NoteNumber":57,"Velocity":50,"Duration":600751,"SoundDuration":600751,"Delta":22589725},{"NoteNumber":60,"Velocity":53,"Duration":159574,"SoundDuration":159574,"Delta":23030902},{"NoteNumber":67,"Velocity":60,"Duration":441176,"SoundDuration":441176,"Delta":23190476},{"NoteNumber":55,"Velocity":50,"Duration":599071,"SoundDuration":599071,"Delta":23190476},{"NoteNumber":60,"Velocity":53,"Duration":157894,"SoundDuration":157894,"Delta":23631653},{"NoteNumber":69,"Velocity":55,"Duration":445632,"SoundDuration":445632,"Delta":23789548},{"NoteNumber":53,"Velocity":50,"Duration":610468,"SoundDuration":610468,"Delta":23789548},{"NoteNumber":60,"Velocity":53,"Duration":164835,"SoundDuration":164835,"Delta":24235180},{"NoteNumber":70,"Velocity":60,"Duration":891089,"SoundDuration":891089,"Delta":24400016},{"NoteNumber":55,"Velocity":53,"Duration":2383140,"SoundDuration":2383140,"Delta":24400016},{"NoteNumber":52,"Velocity":48,"Duration":2383140,"SoundDuration":2383140,"Delta":24400016},{"NoteNumber":67,"Velocity":56,"Duration":297029,"SoundDuration":297029,"Delta":25291105},{"NoteNumber":76,"Velocity":60,"Duration":297029,"SoundDuration":297029,"Delta":25588135},{"NoteNumber":74,"Velocity":54,"Duration":297029,"SoundDuration":297029,"Delta":25885164},{"NoteNumber":72,"Velocity":54,"Duration":288461,"SoundDuration":288461,"Delta":26182194},{"NoteNumber":70,"Velocity":54,"Duration":312500,"SoundDuration":312500,"Delta":26470656},{"NoteNumber":69,"Velocity":60,"Duration":600000,"SoundDuration":600000,"Delta":26783156},{"NoteNumber":53,"Velocity":50,"Duration":300000,"SoundDuration":300000,"Delta":26783156},{"NoteNumber":41,"Velocity":42,"Duration":300000,"SoundDuration":300000,"Delta":26783156},{"NoteNumber":70,"Velocity":57,"Duration":599999,"SoundDuration":599999,"Delta":27383156},{"NoteNumber":72,"Velocity":60,"Duration":600000,"SoundDuration":600000,"Delta":27983156},{"NoteNumber":73,"Velocity":61,"Duration":625000,"SoundDuration":625000,"Delta":28583156},{"NoteNumber":58,"Velocity":44,"Duration":1200000,"SoundDuration":1200000,"Delta":29208156},{"NoteNumber":46,"Velocity":44,"Duration":1200000,"SoundDuration":1200000,"Delta":29208156},{"NoteNumber":73,"Velocity":55,"Duration":300000,"SoundDuration":300000,"Delta":29508156},{"NoteNumber":74,"Velocity":58,"Duration":299999,"SoundDuration":299999,"Delta":29808156},{"NoteNumber":76,"Velocity":55,"Duration":300000,"SoundDuration":300000,"Delta":30108156},{"NoteNumber":77,"Velocity":57,"Duration":299999,"SoundDuration":299999,"Delta":30408156},{"NoteNumber":78,"Velocity":59,"Duration":299999,"SoundDuration":299999,"Delta":30708156},{"NoteNumber":79,"Velocity":61,"Duration":300000,"SoundDuration":300000,"Delta":31008156},{"NoteNumber":81,"Velocity":63,"Duration":299999,"SoundDuration":299999,"Delta":31308156},{"NoteNumber":82,"Velocity":65,"Duration":296447,"SoundDuration":296447,"Delta":31608156},{"NoteNumber":83,"Velocity":68,"Duration":292523,"SoundDuration":292523,"Delta":31904603},{"NoteNumber":84,"Velocity":70,"Duration":288694,"SoundDuration":288694,"Delta":32197126},{"NoteNumber":85,"Velocity":68,"Duration":311498,"SoundDuration":311498,"Delta":32485821},{"NoteNumber":86,"Velocity":75,"Duration":288461,"SoundDuration":288461,"Delta":32797320},{"NoteNumber":58,"Velocity":30,"Duration":1214221,"SoundDuration":1214221,"Delta":32797320},{"NoteNumber":70,"Velocity":36,"Duration":1214221,"SoundDuration":1214221,"Delta":32797320},{"NoteNumber":81,"Velocity":63,"Duration":288461,"SoundDuration":288461,"Delta":33085781},{"NoteNumber":82,"Velocity":66,"Duration":288461,"SoundDuration":288461,"Delta":33374243},{"NoteNumber":79,"Velocity":61,"Duration":348837,"SoundDuration":348837,"Delta":33662704},{"NoteNumber":77,"Velocity":71,"Duration":1836734,"SoundDuration":1836734,"Delta":34011541},{"NoteNumber":69,"Velocity":40,"Duration":2525759,"SoundDuration":2525759,"Delta":34011541},{"NoteNumber":60,"Velocity":34,"Duration":3788917,"SoundDuration":3788917,"Delta":34011541},{"NoteNumber":79,"Velocity":41,"Duration":309278,"SoundDuration":309278,"Delta":35848276},{"NoteNumber":77,"Velocity":35,"Duration":379746,"SoundDuration":379746,"Delta":36157555},{"NoteNumber":76,"Velocity":39,"Duration":1263157,"SoundDuration":1263157,"Delta":36537301},{"NoteNumber":67,"Velocity":32,"Duration":1263157,"SoundDuration":1263157,"Delta":36537301},{"NoteNumber":79,"Velocity":60,"Duration":1188119,"SoundDuration":1188119,"Delta":39000459},{"NoteNumber":60,"Velocity":40,"Duration":297029,"SoundDuration":297029,"Delta":39000459},{"NoteNumber":67,"Velocity":32,"Duration":297029,"SoundDuration":297029,"Delta":39297489},{"NoteNumber":64,"Velocity":32,"Duration":297029,"SoundDuration":297029,"Delta":39594519},{"NoteNumber":67,"Velocity":32,"Duration":297029,"SoundDuration":297029,"Delta":39891549},{"NoteNumber":77,"Velocity":55,"Duration":294117,"SoundDuration":294117,"Delta":40188578},{"NoteNumber":60,"Velocity":40,"Duration":294117,"SoundDuration":294117,"Delta":40188578},{"NoteNumber":76,"Velocity":50,"Duration":294117,"SoundDuration":294117,"Delta":40482696},{"NoteNumber":67,"Velocity":31,"Duration":294117,"SoundDuration":294117,"Delta":40482696},{"NoteNumber":74,"Velocity":55,"Duration":294117,"SoundDuration":294117,"Delta":40776814},{"NoteNumber":64,"Velocity":31,"Duration":294117,"SoundDuration":294117,"Delta":40776814},{"NoteNumber":72,"Velocity":49,"Duration":239361,"SoundDuration":239361,"Delta":41070932},{"NoteNumber":67,"Velocity":31,"Duration":319149,"SoundDuration":319149,"Delta":41070932},{"NoteNumber":72,"Velocity":55,"Duration":1176470,"SoundDuration":1176470,"Delta":41390081},{"NoteNumber":62,"Velocity":40,"Duration":294117,"SoundDuration":294117,"Delta":41390081},{"NoteNumber":67,"Velocity":30,"Duration":294117,"SoundDuration":294117,"Delta":41684198},{"NoteNumber":65,"Velocity":30,"Duration":294117,"SoundDuration":294117,"Delta":41978316},{"NoteNumber":67,"Velocity":30,"Duration":294117,"SoundDuration":294117,"Delta":42272434},{"NoteNumber":71,"Velocity":55,"Duration":138888,"SoundDuration":138888,"Delta":42566552},{"NoteNumber":62,"Velocity":40,"Duration":277777,"SoundDuration":277777,"Delta":42566552},{"NoteNumber":72,"Velocity":51,"Duration":138888,"SoundDuration":138888,"Delta":42705440},{"NoteNumber":71,"Velocity":57,"Duration":588235,"SoundDuration":588235,"Delta":42844329},{"NoteNumber":67,"Velocity":33,"Duration":294117,"SoundDuration":294117,"Delta":42844329},{"NoteNumber":65,"Velocity":33,"Duration":294117,"SoundDuration":294117,"Delta":43138447},{"NoteNumber":71,"Velocity":51,"Duration":294117,"SoundDuration":294117,"Delta":43432565},{"NoteNumber":67,"Velocity":33,"Duration":294117,"SoundDuration":294117,"Delta":43432565},{"NoteNumber":72,"Velocity":55,"Duration":291262,"SoundDuration":291262,"Delta":43726683},{"NoteNumber":60,"Velocity":40,"Duration":291262,"SoundDuration":291262,"Delta":43726683},{"NoteNumber":74,"Velocity":52,"Duration":291262,"SoundDuration":291262,"Delta":44017945},{"NoteNumber":67,"Velocity":32,"Duration":291262,"SoundDuration":291262,"Delta":44017945},{"NoteNumber":76,"Velocity":54,"Duration":291262,"SoundDuration":291262,"Delta":44309207},{"NoteNumber":64,"Velocity":32,"Duration":291262,"SoundDuration":291262,"Delta":44309207},{"NoteNumber":77,"Velocity":55,"Duration":291262,"SoundDuration":291262,"Delta":44600469},{"NoteNumber":67,"Velocity":32,"Duration":291262,"SoundDuration":291262,"Delta":44600469},{"NoteNumber":79,"Velocity":59,"Duration":288461,"SoundDuration":288461,"Delta":44891732},{"NoteNumber":60,"Velocity":40,"Duration":288461,"SoundDuration":288461,"Delta":44891732},{"NoteNumber":81,"Velocity":61,"Duration":288461,"SoundDuration":288461,"Delta":45180193},{"NoteNumber":67,"Velocity":33,"Duration":288461,"SoundDuration":288461,"Delta":45180193},{"NoteNumber":83,"Velocity":64,"Duration":288461,"SoundDuration":288461,"Delta":45468655},{"NoteNumber":64,"Velocity":35,"Duration":288461,"SoundDuration":288461,"Delta":45468655},{"NoteNumber":84,"Velocity":66,"Duration":231958,"SoundDuration":231958,"Delta":45757116},{"NoteNumber":67,"Velocity":37,"Duration":309278,"SoundDuration":309278,"Delta":45757116},{"NoteNumber":84,"Velocity":66,"Duration":288461,"SoundDuration":288461,"Delta":46066394},{"NoteNumber":62,"Velocity":47,"Duration":288461,"SoundDuration":288461,"Delta":46066394},{"NoteNumber":83,"Velocity":64,"Duration":288461,"SoundDuration":288461,"Delta":46354856},{"NoteNumber":67,"Velocity":35,"Duration":288461,"SoundDuration":288461,"Delta":46354856},{"NoteNumber":81,"Velocity":61,"Duration":141509,"SoundDuration":141509,"Delta":46643317},{"NoteNumber":65,"Velocity":35,"Duration":141509,"SoundDuration":141509,"Delta":46643317},{"NoteNumber":79,"Velocity":59,"Duration":141509,"SoundDuration":141509,"Delta":46926336},{"NoteNumber":67,"Velocity":35,"Duration":141509,"SoundDuration":141509,"Delta":46926336},{"NoteNumber":79,"Velocity":57,"Duration":283018,"SoundDuration":283018,"Delta":47209355},{"NoteNumber":62,"Velocity":44,"Duration":283018,"SoundDuration":283018,"Delta":47209355},{"NoteNumber":77,"Velocity":55,"Duration":283018,"SoundDuration":283018,"Delta":47492374},{"NoteNumber":67,"Velocity":33,"Duration":283018,"SoundDuration":283018,"Delta":47492374},{"NoteNumber":76,"Velocity":52,"Duration":141509,"SoundDuration":141509,"Delta":47775392},{"NoteNumber":65,"Velocity":33,"Duration":141509,"SoundDuration":141509,"Delta":47775392},{"NoteNumber":74,"Velocity":50,"Duration":159574,"SoundDuration":159574,"Delta":48058411},{"NoteNumber":67,"Velocity":33,"Duration":159574,"SoundDuration":159574,"Delta":48058411},{"NoteNumber":79,"Velocity":64,"Duration":865384,"SoundDuration":865384,"Delta":48377560},{"NoteNumber":60,"Velocity":40,"Duration":288461,"SoundDuration":288461,"Delta":48377560},{"NoteNumber":67,"Velocity":32,"Duration":288461,"SoundDuration":288461,"Delta":48666022},{"NoteNumber":64,"Velocity":32,"Duration":288461,"SoundDuration":288461,"Delta":48954483},{"NoteNumber":81,"Velocity":59,"Duration":144230,"SoundDuration":144230,"Delta":49242945},{"NoteNumber":67,"Velocity":32,"Duration":288461,"SoundDuration":288461,"Delta":49242945},{"NoteNumber":79,"Velocity":55,"Duration":144230,"SoundDuration":144230,"Delta":49387175},{"NoteNumber":77,"Velocity":62,"Duration":285714,"SoundDuration":285714,"Delta":49531406},{"NoteNumber":60,"Velocity":40,"Duration":285714,"SoundDuration":285714,"Delta":49531406},{"NoteNumber":76,"Velocity":55,"Duration":285714,"SoundDuration":285714,"Delta":49817120},{"NoteNumber":67,"Velocity":31,"Duration":285714,"SoundDuration":285714,"Delta":49817120},{"NoteNumber":74,"Velocity":57,"Duration":285714,"SoundDuration":285714,"Delta":50102835},{"NoteNumber":64,"Velocity":31,"Duration":285714,"SoundDuration":285714,"Delta":50102835},{"NoteNumber":72,"Velocity":55,"Duration":234375,"SoundDuration":234375,"Delta":50388549},{"NoteNumber":67,"Velocity":31,"Duration":312500,"SoundDuration":312500,"Delta":50388549},{"NoteNumber":72,"Velocity":61,"Duration":1153846,"SoundDuration":1153846,"Delta":50701049},{"NoteNumber":62,"Velocity":40,"Duration":288461,"SoundDuration":288461,"Delta":50701049},{"NoteNumber":67,"Velocity":30,"Duration":288461,"SoundDuration":288461,"Delta":50989510},{"NoteNumber":65,"Velocity":30,"Duration":288461,"SoundDuration":288461,"Delta":51277972},{"NoteNumber":67,"Velocity":30,"Duration":288461,"SoundDuration":288461,"Delta":51566433},{"NoteNumber":71,"Velocity":55,"Duration":135135,"SoundDuration":135135,"Delta":51854895},{"NoteNumber":62,"Velocity":40,"Duration":270270,"SoundDuration":270270,"Delta":51854895},{"NoteNumber":72,"Velocity":51,"Duration":135135,"SoundDuration":135135,"Delta":51990030},{"NoteNumber":71,"Velocity":55,"Duration":566037,"SoundDuration":566037,"Delta":52125165},{"NoteNumber":67,"Velocity":33,"Duration":283018,"SoundDuration":283018,"Delta":52125165},{"NoteNumber":65,"Velocity":33,"Duration":283018,"SoundDuration":283018,"Delta":52408184},{"NoteNumber":77,"Velocity":52,"Duration":283018,"SoundDuration":283018,"Delta":52691203},{"NoteNumber":67,"Velocity":33,"Duration":283018,"SoundDuration":283018,"Delta":52691203},{"NoteNumber":76,"Velocity":60,"Duration":140186,"SoundDuration":140186,"Delta":52974221},{"NoteNumber":60,"Velocity":40,"Duration":140186,"SoundDuration":140186,"Delta":52974221},{"NoteNumber":77,"Velocity":55,"Duration":140186,"SoundDuration":140186,"Delta":53254595},{"NoteNumber":67,"Velocity":32,"Duration":140186,"SoundDuration":140186,"Delta":53254595},{"NoteNumber":79,"Velocity":60,"Duration":141509,"SoundDuration":141509,"Delta":53534969},{"NoteNumber":64,"Velocity":32,"Duration":141509,"SoundDuration":141509,"Delta":53534969},{"NoteNumber":81,"Velocity":61,"Duration":140186,"SoundDuration":140186,"Delta":53817988},{"NoteNumber":67,"Velocity":32,"Duration":140186,"SoundDuration":140186,"Delta":53817988},{"NoteNumber":83,"Velocity":70,"Duration":138888,"SoundDuration":138888,"Delta":54098361},{"NoteNumber":60,"Velocity":46,"Duration":138888,"SoundDuration":138888,"Delta":54098361},{"NoteNumber":84,"Velocity":65,"Duration":140186,"SoundDuration":140186,"Delta":54376139},{"NoteNumber":67,"Velocity":35,"Duration":140186,"SoundDuration":140186,"Delta":54376139},{"NoteNumber":83,"Velocity":68,"Duration":141509,"SoundDuration":141509,"Delta":54656513},{"NoteNumber":64,"Velocity":36,"Duration":141509,"SoundDuration":141509,"Delta":54656513},{"NoteNumber":84,"Velocity":66,"Duration":149999,"SoundDuration":149999,"Delta":54939532},{"NoteNumber":67,"Velocity":38,"Duration":149999,"SoundDuration":149999,"Delta":54939532},{"NoteNumber":84,"Velocity":73,"Duration":285714,"SoundDuration":285714,"Delta":55239532},{"NoteNumber":62,"Velocity":49,"Duration":285714,"SoundDuration":285714,"Delta":55239532},{"NoteNumber":83,"Velocity":66,"Duration":285714,"SoundDuration":285714,"Delta":55525246},{"NoteNumber":67,"Velocity":39,"Duration":285714,"SoundDuration":285714,"Delta":55525246},{"NoteNumber":81,"Velocity":67,"Duration":285714,"SoundDuration":285714,"Delta":55810960},{"NoteNumber":65,"Velocity":39,"Duration":285714,"SoundDuration":285714,"Delta":55810960},{"NoteNumber":79,"Velocity":64,"Duration":214285,"SoundDuration":214285,"Delta":56096674},{"NoteNumber":67,"Velocity":39,"Duration":285714,"SoundDuration":285714,"Delta":56096674},{"NoteNumber":79,"Velocity":69,"Duration":285714,"SoundDuration":285714,"Delta":56382389},{"NoteNumber":62,"Velocity":50,"Duration":285714,"SoundDuration":285714,"Delta":56382389},{"NoteNumber":77,"Velocity":64,"Duration":285714,"SoundDuration":285714,"Delta":56668103},{"NoteNumber":67,"Velocity":40,"Duration":285714,"SoundDuration":285714,"Delta":56668103},{"NoteNumber":76,"Velocity":62,"Duration":285714,"SoundDuration":285714,"Delta":56953817},{"NoteNumber":65,"Velocity":40,"Duration":285714,"SoundDuration":285714,"Delta":56953817},{"NoteNumber":74,"Velocity":61,"Duration":306122,"SoundDuration":306122,"Delta":57239531},{"NoteNumber":67,"Velocity":40,"Duration":306122,"SoundDuration":306122,"Delta":57239531},{"NoteNumber":76,"Velocity":62,"Duration":285714,"SoundDuration":285714,"Delta":57545654},{"NoteNumber":60,"Velocity":48,"Duration":285714,"SoundDuration":285714,"Delta":57545654},{"NoteNumber":77,"Velocity":62,"Duration":288461,"SoundDuration":288461,"Delta":57831368},{"NoteNumber":67,"Velocity":32,"Duration":288461,"SoundDuration":288461,"Delta":57831368},{"NoteNumber":76,"Velocity":69,"Duration":288461,"SoundDuration":288461,"Delta":58119830},{"NoteNumber":64,"Velocity":32,"Duration":288461,"SoundDuration":288461,"Delta":58119830},{"NoteNumber":77,"Velocity":68,"Duration":285714,"SoundDuration":285714,"Delta":58408291},{"NoteNumber":67,"Velocity":32,"Duration":285714,"SoundDuration":285714,"Delta":58408291},{"NoteNumber":79,"Velocity":76,"Duration":288461,"SoundDuration":288461,"Delta":58694005},{"NoteNumber":60,"Velocity":52,"Duration":288461,"SoundDuration":288461,"Delta":58694005},{"NoteNumber":81,"Velocity":74,"Duration":297029,"SoundDuration":297029,"Delta":58982467},{"NoteNumber":67,"Velocity":39,"Duration":297029,"SoundDuration":297029,"Delta":58982467},{"NoteNumber":79,"Velocity":83,"Duration":288461,"SoundDuration":288461,"Delta":59279497},{"NoteNumber":64,"Velocity":42,"Duration":288461,"SoundDuration":288461,"Delta":59279497},{"NoteNumber":81,"Velocity":78,"Duration":326087,"SoundDuration":326087,"Delta":59567958},{"NoteNumber":67,"Velocity":45,"Duration":326087,"SoundDuration":326087,"Delta":59567958},{"NoteNumber":82,"Velocity":89,"Duration":2331730,"SoundDuration":2331730,"Delta":59894045},{"NoteNumber":70,"Velocity":75,"Duration":2331730,"SoundDuration":2331730,"Delta":59894045},{"NoteNumber":52,"Velocity":65,"Duration":288461,"SoundDuration":288461,"Delta":59894045},{"NoteNumber":60,"Velocity":55,"Duration":288461,"SoundDuration":288461,"Delta":60182507},{"NoteNumber":55,"Velocity":55,"Duration":288461,"SoundDuration":288461,"Delta":60470968},{"NoteNumber":60,"Velocity":55,"Duration":288461,"SoundDuration":288461,"Delta":60759430},{"NoteNumber":52,"Velocity":63,"Duration":288461,"SoundDuration":288461,"Delta":61047891},{"NoteNumber":60,"Velocity":51,"Duration":288461,"SoundDuration":288461,"Delta":61336353},{"NoteNumber":55,"Velocity":51,"Duration":288461,"SoundDuration":288461,"Delta":61624814},{"NoteNumber":60,"Velocity":51,"Duration":312500,"SoundDuration":312500,"Delta":61913276},{"NoteNumber":53,"Velocity":58,"Duration":291262,"SoundDuration":291262,"Delta":62225776},{"NoteNumber":81,"Velocity":70,"Duration":285714,"SoundDuration":285714,"Delta":62517038},{"NoteNumber":60,"Velocity":45,"Duration":285714,"SoundDuration":285714,"Delta":62517038},{"NoteNumber":80,"Velocity":75,"Duration":285714,"SoundDuration":285714,"Delta":62802752},{"NoteNumber":57,"Velocity":45,"Duration":285714,"SoundDuration":285714,"Delta":62802752},{"NoteNumber":81,"Velocity":68,"Duration":285714,"SoundDuration":285714,"Delta":63088466},{"NoteNumber":60,"Velocity":45,"Duration":285714,"SoundDuration":285714,"Delta":63088466},{"NoteNumber":52,"Velocity":51,"Duration":285714,"SoundDuration":285714,"Delta":63374181},{"NoteNumber":79,"Velocity":67,"Duration":285714,"SoundDuration":285714,"Delta":63659895},{"NoteNumber":61,"Velocity":44,"Duration":285714,"SoundDuration":285714,"Delta":63659895},{"NoteNumber":78,"Velocity":76,"Duration":285714,"SoundDuration":285714,"Delta":63945609},{"NoteNumber":55,"Velocity":44,"Duration":285714,"SoundDuration":285714,"Delta":63945609},{"NoteNumber":79,"Velocity":67,"Duration":297029,"SoundDuration":297029,"Delta":64231323},{"NoteNumber":61,"Velocity":44,"Duration":297029,"SoundDuration":297029,"Delta":64231323},{"NoteNumber":50,"Velocity":51,"Duration":285714,"SoundDuration":285714,"Delta":64528353},{"NoteNumber":78,"Velocity":70,"Duration":285714,"SoundDuration":285714,"Delta":64814067},{"NoteNumber":60,"Velocity":43,"Duration":285714,"SoundDuration":285714,"Delta":64814067},{"NoteNumber":78,"Velocity":69,"Duration":136363,"SoundDuration":136363,"Delta":65099782},{"NoteNumber":57,"Velocity":43,"Duration":272727,"SoundDuration":272727,"Delta":65099782},{"NoteNumber":79,"Velocity":63,"Duration":136363,"SoundDuration":136363,"Delta":65236145},{"NoteNumber":78,"Velocity":68,"Duration":291262,"SoundDuration":291262,"Delta":65372509},{"NoteNumber":60,"Velocity":43,"Duration":291262,"SoundDuration":291262,"Delta":65372509},{"NoteNumber":55,"Velocity":51,"Duration":283018,"SoundDuration":283018,"Delta":65663771},{"NoteNumber":77,"Velocity":72,"Duration":283018,"SoundDuration":283018,"Delta":65946790},{"NoteNumber":62,"Velocity":43,"Duration":283018,"SoundDuration":283018,"Delta":65946790},{"NoteNumber":77,"Velocity":72,"Duration":136363,"SoundDuration":136363,"Delta":66229809},{"NoteNumber":59,"Velocity":43,"Duration":272727,"SoundDuration":272727,"Delta":66229809},{"NoteNumber":79,"Velocity":65,"Duration":136363,"SoundDuration":136363,"Delta":66366172},{"NoteNumber":77,"Velocity":75,"Duration":297029,"SoundDuration":297029,"Delta":66502536},{"NoteNumber":62,"Velocity":43,"Duration":297029,"SoundDuration":297029,"Delta":66502536},{"NoteNumber":48,"Velocity":47,"Duration":283018,"SoundDuration":283018,"Delta":66799566},{"NoteNumber":76,"Velocity":67,"Duration":283018,"SoundDuration":283018,"Delta":67082584},{"NoteNumber":60,"Velocity":41,"Duration":283018,"SoundDuration":283018,"Delta":67082584},{"NoteNumber":77,"Velocity":70,"Duration":283018,"SoundDuration":283018,"Delta":67365603},{"NoteNumber":52,"Velocity":41,"Duration":283018,"SoundDuration":283018,"Delta":67365603},{"NoteNumber":79,"Velocity":72,"Duration":227272,"SoundDuration":227272,"Delta":67648622},{"NoteNumber":60,"Velocity":41,"Duration":303030,"SoundDuration":303030,"Delta":67648622},{"NoteNumber":79,"Velocity":72,"Duration":285714,"SoundDuration":285714,"Delta":67951652},{"NoteNumber":53,"Velocity":47,"Duration":285714,"SoundDuration":285714,"Delta":67951652},{"NoteNumber":69,"Velocity":66,"Duration":285714,"SoundDuration":285714,"Delta":68237366},{"NoteNumber":62,"Velocity":41,"Duration":285714,"SoundDuration":285714,"Delta":68237366},{"NoteNumber":77,"Velocity":72,"Duration":285714,"SoundDuration":285714,"Delta":68523081},{"NoteNumber":57,"Velocity":41,"Duration":285714,"SoundDuration":285714,"Delta":68523081},{"NoteNumber":74,"Velocity":65,"Duration":285714,"SoundDuration":285714,"Delta":68808795},{"NoteNumber":62,"Velocity":41,"Duration":285714,"SoundDuration":285714,"Delta":68808795},{"NoteNumber":72,"Velocity":72,"Duration":1143735,"SoundDuration":1143735,"Delta":69094509},{"NoteNumber":55,"Velocity":47,"Duration":285714,"SoundDuration":285714,"Delta":69094509},{"NoteNumber":64,"Velocity":40,"Duration":285714,"SoundDuration":285714,"Delta":69380223},{"NoteNumber":60,"Velocity":40,"Duration":285714,"SoundDuration":285714,"Delta":69665938},{"NoteNumber":64,"Velocity":40,"Duration":286592,"SoundDuration":286592,"Delta":69951652},{"NoteNumber":71,"Velocity":68,"Duration":96760,"SoundDuration":96760,"Delta":70238245},{"NoteNumber":55,"Velocity":47,"Duration":286751,"SoundDuration":286751,"Delta":70238245},{"NoteNumber":72,"Velocity":60,"Duration":95604,"SoundDuration":95604,"Delta":70335005},{"NoteNumber":71,"Velocity":68,"Duration":94386,"SoundDuration":94386,"Delta":70430610},{"NoteNumber":72,"Velocity":61,"Duration":93155,"SoundDuration":93155,"Delta":70524996},{"NoteNumber":65,"Velocity":42,"Duration":278426,"SoundDuration":278426,"Delta":70524996},{"NoteNumber":71,"Velocity":68,"Duration":92592,"SoundDuration":92592,"Delta":70618151},{"NoteNumber":72,"Velocity":61,"Duration":92679,"SoundDuration":92679,"Delta":70710743},{"NoteNumber":71,"Velocity":68,"Duration":567018,"SoundDuration":567018,"Delta":70803422},{"NoteNumber":62,"Velocity":42,"Duration":281453,"SoundDuration":281453,"Delta":70803422},{"NoteNumber":65,"Velocity":42,"Duration":285565,"SoundDuration":285565,"Delta":71084876},{"NoteNumber":52,"Velocity":47,"Duration":283018,"SoundDuration":283018,"Delta":71370441},{"NoteNumber":84,"Velocity":72,"Duration":283018,"SoundDuration":283018,"Delta":71653460},{"NoteNumber":60,"Velocity":41,"Duration":283018,"SoundDuration":283018,"Delta":71653460},{"NoteNumber":88,"Velocity":78,"Duration":283018,"SoundDuration":283018,"Delta":71936479},{"NoteNumber":55,"Velocity":41,"Duration":283018,"SoundDuration":283018,"Delta":71936479},{"NoteNumber":84,"Velocity":72,"Duration":299999,"SoundDuration":299999,"Delta":72219498},{"NoteNumber":60,"Velocity":41,"Duration":299999,"SoundDuration":299999,"Delta":72219498},{"NoteNumber":83,"Velocity":77,"Duration":283018,"SoundDuration":283018,"Delta":72519498},{"NoteNumber":53,"Velocity":47,"Duration":283018,"SoundDuration":283018,"Delta":72519498},{"NoteNumber":81,"Velocity":69,"Duration":283018,"SoundDuration":283018,"Delta":72802516},{"NoteNumber":60,"Velocity":41,"Duration":283018,"SoundDuration":283018,"Delta":72802516},{"NoteNumber":79,"Velocity":76,"Duration":283018,"SoundDuration":283018,"Delta":73085535},{"NoteNumber":57,"Velocity":41,"Duration":283018,"SoundDuration":283018,"Delta":73085535},{"NoteNumber":77,"Velocity":67,"Duration":283018,"SoundDuration":283018,"Delta":73368554},{"NoteNumber":60,"Velocity":41,"Duration":283018,"SoundDuration":283018,"Delta":73368554},{"NoteNumber":76,"Velocity":75,"Duration":1132075,"SoundDuration":1132075,"Delta":73651573},{"NoteNumber":55,"Velocity":47,"Duration":283018,"SoundDuration":283018,"Delta":73651573},{"NoteNumber":64,"Velocity":40,"Duration":283018,"SoundDuration":283018,"Delta":73934591},{"NoteNumber":60,"Velocity":40,"Duration":283018,"SoundDuration":283018,"Delta":74217610},{"NoteNumber":64,"Velocity":40,"Duration":283018,"SoundDuration":283018,"Delta":74500629},{"NoteNumber":74,"Velocity":68,"Duration":96331,"SoundDuration":96331,"Delta":74783648},{"NoteNumber":55,"Velocity":47,"Duration":288577,"SoundDuration":288577,"Delta":74783648},{"NoteNumber":76,"Velocity":60,"Duration":96527,"SoundDuration":96527,"Delta":74879980},{"NoteNumber":74,"Velocity":68,"Duration":95718,"SoundDuration":95718,"Delta":74976507},{"NoteNumber":76,"Velocity":61,"Duration":94923,"SoundDuration":94923,"Delta":75072226},{"NoteNumber":65,"Velocity":42,"Duration":282192,"SoundDuration":282192,"Delta":75072226},{"NoteNumber":74,"Velocity":68,"Duration":93810,"SoundDuration":93810,"Delta":75167149},{"NoteNumber":76,"Velocity":61,"Duration":93457,"SoundDuration":93457,"Delta":75260960},{"NoteNumber":74,"Velocity":68,"Duration":93457,"SoundDuration":93457,"Delta":75340399},{"NoteNumber":62,"Velocity":42,"Duration":282115,"SoundDuration":282115,"Delta":75354418},{"NoteNumber":76,"Velocity":60,"Duration":94207,"SoundDuration":94207,"Delta":75436193},{"NoteNumber":74,"Velocity":68,"Duration":94339,"SoundDuration":94339,"Delta":75528042},{"NoteNumber":72,"Velocity":63,"Duration":144794,"SoundDuration":144794,"Delta":75629457},{"NoteNumber":65,"Velocity":42,"Duration":302281,"SoundDuration":302281,"Delta":75636533},{"NoteNumber":74,"Velocity":62,"Duration":156497,"SoundDuration":156497,"Delta":75774252},{"NoteNumber":72,"Velocity":68,"Duration":285714,"SoundDuration":285714,"Delta":75938814},{"NoteNumber":64,"Velocity":47,"Duration":1142857,"SoundDuration":1142857,"Delta":75938814},{"NoteNumber":60,"Velocity":39,"Duration":1142857,"SoundDuration":1142857,"Delta":75938814},{"NoteNumber":76,"Velocity":48,"Duration":285714,"SoundDuration":285714,"Delta":76510243},{"NoteNumber":72,"Velocity":40,"Duration":285714,"SoundDuration":285714,"Delta":76510243},{"NoteNumber":76,"Velocity":48,"Duration":285714,"SoundDuration":285714,"Delta":77081671},{"NoteNumber":72,"Velocity":40,"Duration":285714,"SoundDuration":285714,"Delta":77081671},{"NoteNumber":76,"Velocity":48,"Duration":285714,"SoundDuration":285714,"Delta":77653100},{"NoteNumber":72,"Velocity":40,"Duration":285714,"SoundDuration":285714,"Delta":77653100},{"NoteNumber":77,"Velocity":52,"Duration":132743,"SoundDuration":132743,"Delta":78224528},{"NoteNumber":72,"Velocity":44,"Duration":545860,"SoundDuration":545860,"Delta":78224528},{"NoteNumber":76,"Velocity":47,"Duration":132743,"SoundDuration":132743,"Delta":78357272},{"NoteNumber":74,"Velocity":47,"Duration":140186,"SoundDuration":140186,"Delta":78490015},{"NoteNumber":76,"Velocity":48,"Duration":140186,"SoundDuration":140186,"Delta":78630202},{"NoteNumber":79,"Velocity":52,"Duration":560747,"SoundDuration":560747,"Delta":78770389},{"NoteNumber":76,"Velocity":44,"Duration":560747,"SoundDuration":560747,"Delta":78770389},{"NoteNumber":72,"Velocity":51,"Duration":560747,"SoundDuration":560747,"Delta":79331136},{"NoteNumber":76,"Velocity":60,"Duration":560747,"SoundDuration":560747,"Delta":79331136},{"NoteNumber":72,"Velocity":66,"Duration":638298,"SoundDuration":638298,"Delta":79891884},{"NoteNumber":69,"Velocity":55,"Duration":638298,"SoundDuration":638298,"Delta":79891884},{"NoteNumber":69,"Velocity":72,"Duration":1399272,"SoundDuration":1399272,"Delta":80530182},{"NoteNumber":65,"Velocity":60,"Duration":1399272,"SoundDuration":1399272,"Delta":80530182},{"NoteNumber":53,"Velocity":70,"Duration":277777,"SoundDuration":277777,"Delta":81651677},{"NoteNumber":41,"Velocity":59,"Duration":277777,"SoundDuration":277777,"Delta":81651677},{"NoteNumber":65,"Velocity":49,"Duration":277777,"SoundDuration":277777,"Delta":81929455},{"NoteNumber":69,"Velocity":58,"Duration":277777,"SoundDuration":277777,"Delta":81929455},{"NoteNumber":67,"Velocity":49,"Duration":277777,"SoundDuration":277777,"Delta":82207232},{"NoteNumber":71,"Velocity":58,"Duration":277777,"SoundDuration":277777,"Delta":82207232},{"NoteNumber":69,"Velocity":49,"Duration":272727,"SoundDuration":272727,"Delta":82485010},{"NoteNumber":72,"Velocity":58,"Duration":272727,"SoundDuration":272727,"Delta":82485010},{"NoteNumber":69,"Velocity":53,"Duration":277777,"SoundDuration":277777,"Delta":82788040},{"NoteNumber":72,"Velocity":63,"Duration":277777,"SoundDuration":277777,"Delta":82788040},{"NoteNumber":55,"Velocity":63,"Duration":277777,"SoundDuration":277777,"Delta":82788040},{"NoteNumber":43,"Velocity":53,"Duration":277777,"SoundDuration":277777,"Delta":82788040},{"NoteNumber":67,"Velocity":50,"Duration":277777,"SoundDuration":277777,"Delta":83065818},{"NoteNumber":71,"Velocity":59,"Duration":277777,"SoundDuration":277777,"Delta":83065818},{"NoteNumber":69,"Velocity":59,"Duration":277777,"SoundDuration":277777,"Delta":83343596},{"NoteNumber":65,"Velocity":50,"Duration":277777,"SoundDuration":277777,"Delta":83343596},{"NoteNumber":64,"Velocity":50,"Duration":262136,"SoundDuration":262136,"Delta":83621374},{"NoteNumber":67,"Velocity":59,"Duration":262136,"SoundDuration":262136,"Delta":83621374},{"NoteNumber":64,"Velocity":53,"Duration":283018,"SoundDuration":283018,"Delta":83912636},{"NoteNumber":67,"Velocity":63,"Duration":283018,"SoundDuration":283018,"Delta":83912636},{"NoteNumber":43,"Velocity":53,"Duration":283018,"SoundDuration":283018,"Delta":83912636},{"NoteNumber":55,"Velocity":63,"Duration":283018,"SoundDuration":283018,"Delta":83912636},{"NoteNumber":62,"Velocity":45,"Duration":283018,"SoundDuration":283018,"Delta":84195655},{"NoteNumber":65,"Velocity":53,"Duration":283018,"SoundDuration":283018,"Delta":84195655},{"NoteNumber":60,"Velocity":45,"Duration":283018,"SoundDuration":283018,"Delta":84478673},{"NoteNumber":64,"Velocity":53,"Duration":283018,"SoundDuration":283018,"Delta":84478673},{"NoteNumber":62,"Velocity":53,"Duration":284210,"SoundDuration":284210,"Delta":84761692},{"NoteNumber":59,"Velocity":45,"Duration":284210,"SoundDuration":284210,"Delta":84761692},{"NoteNumber":36,"Velocity":63,"Duration":1142857,"SoundDuration":1142857,"Delta":85077482},{"NoteNumber":48,"Velocity":63,"Duration":1142857,"SoundDuration":1142857,"Delta":85077482},{"NoteNumber":72,"Velocity":63,"Duration":190476,"SoundDuration":190476,"Delta":85648910},{"NoteNumber":76,"Velocity":57,"Duration":190476,"SoundDuration":190476,"Delta":85839386},{"NoteNumber":84,"Velocity":57,"Duration":190476,"SoundDuration":190476,"Delta":86029863},{"NoteNumber":72,"Velocity":63,"Duration":188679,"SoundDuration":188679,"Delta":86220339},{"NoteNumber":76,"Velocity":55,"Duration":188679,"SoundDuration":188679,"Delta":86409018},{"NoteNumber":84,"Velocity":55,"Duration":188679,"SoundDuration":188679,"Delta":86597697},{"NoteNumber":72,"Velocity":63,"Duration":188679,"SoundDuration":188679,"Delta":86786376},{"NoteNumber":76,"Velocity":55,"Duration":188679,"SoundDuration":188679,"Delta":86975055},{"NoteNumber":84,"Velocity":55,"Duration":188679,"SoundDuration":188679,"Delta":87163735},{"NoteNumber":72,"Velocity":69,"Duration":185185,"SoundDuration":185185,"Delta":87352414},{"NoteNumber":76,"Velocity":59,"Duration":185185,"SoundDuration":185185,"Delta":87537599},{"NoteNumber":84,"Velocity":61,"Duration":185185,"SoundDuration":185185,"Delta":87722784},{"NoteNumber":76,"Velocity":72,"Duration":185185,"SoundDuration":185185,"Delta":87907969},{"NoteNumber":79,"Velocity":64,"Duration":185185,"SoundDuration":185185,"Delta":88093154},{"NoteNumber":88,"Velocity":66,"Duration":185185,"SoundDuration":185185,"Delta":88278340},{"NoteNumber":72,"Velocity":75,"Duration":183486,"SoundDuration":183486,"Delta":88463525},{"NoteNumber":76,"Velocity":66,"Duration":183486,"SoundDuration":183486,"Delta":88647011},{"NoteNumber":84,"Velocity":69,"Duration":183486,"SoundDuration":183486,"Delta":88830497},{"NoteNumber":69,"Velocity":80,"Duration":183486,"SoundDuration":183486,"Delta":89013983},{"NoteNumber":72,"Velocity":69,"Duration":183486,"SoundDuration":183486,"Delta":89197469},{"NoteNumber":81,"Velocity":71,"Duration":273972,"SoundDuration":273972,"Delta":89380956},{"NoteNumber":65,"Velocity":81,"Duration":1415093,"SoundDuration":1415093,"Delta":89654928},{"NoteNumber":53,"Velocity":70,"Duration":283018,"SoundDuration":283018,"Delta":90787003},{"NoteNumber":41,"Velocity":59,"Duration":283018,"SoundDuration":283018,"Delta":90787003},{"NoteNumber":72,"Velocity":66,"Duration":291262,"SoundDuration":291262,"Delta":91070022},{"NoteNumber":69,"Velocity":56,"Duration":291262,"SoundDuration":291262,"Delta":91070022},{"NoteNumber":71,"Velocity":68,"Duration":291262,"SoundDuration":291262,"Delta":91361284},{"NoteNumber":67,"Velocity":57,"Duration":291262,"SoundDuration":291262,"Delta":91361284},{"NoteNumber":65,"Velocity":53,"Duration":278350,"SoundDuration":278350,"Delta":91652546},{"NoteNumber":69,"Velocity":63,"Duration":278350,"SoundDuration":278350,"Delta":91652546},{"NoteNumber":65,"Velocity":56,"Duration":299999,"SoundDuration":299999,"Delta":91961825},{"NoteNumber":69,"Velocity":67,"Duration":299999,"SoundDuration":299999,"Delta":91961825},{"NoteNumber":55,"Velocity":63,"Duration":299999,"SoundDuration":299999,"Delta":91961825},{"NoteNumber":43,"Velocity":53,"Duration":299999,"SoundDuration":299999,"Delta":91961825},{"NoteNumber":67,"Velocity":65,"Duration":299999,"SoundDuration":299999,"Delta":92261825},{"NoteNumber":64,"Velocity":55,"Duration":299999,"SoundDuration":299999,"Delta":92261825},{"NoteNumber":62,"Velocity":53,"Duration":300000,"SoundDuration":300000,"Delta":92561825},{"NoteNumber":65,"Velocity":63,"Duration":300000,"SoundDuration":300000,"Delta":92561825},{"NoteNumber":64,"Velocity":61,"Duration":269999,"SoundDuration":269999,"Delta":92861825},{"NoteNumber":60,"Velocity":51,"Duration":269999,"SoundDuration":269999,"Delta":92861825},{"NoteNumber":64,"Velocity":63,"Duration":299999,"SoundDuration":299999,"Delta":93161825},{"NoteNumber":53,"Velocity":63,"Duration":599999,"SoundDuration":599999,"Delta":93161825},{"NoteNumber":43,"Velocity":53,"Duration":599999,"SoundDuration":599999,"Delta":93176825},{"NoteNumber":62,"Velocity":56,"Duration":299999,"SoundDuration":299999,"Delta":93461825},{"NoteNumber":60,"Velocity":56,"Duration":299999,"SoundDuration":299999,"Delta":93761825},{"NoteNumber":53,"Velocity":47,"Duration":397058,"SoundDuration":397058,"Delta":94061825},{"NoteNumber":59,"Velocity":56,"Duration":397058,"SoundDuration":397058,"Delta":94061825},{"NoteNumber":53,"Velocity":59,"Duration":2459678,"SoundDuration":2459678,"Delta":94503001},{"NoteNumber":59,"Velocity":59,"Duration":2459678,"SoundDuration":2459678,"Delta":94503001},{"NoteNumber":48,"Velocity":56,"Duration":2459678,"SoundDuration":2459678,"Delta":94503001},{"NoteNumber":36,"Velocity":49,"Duration":766129,"SoundDuration":766129,"Delta":96962679},{"NoteNumber":40,"Velocity":53,"Duration":672043,"SoundDuration":672043,"Delta":97003002},{"NoteNumber":43,"Velocity":56,"Duration":685484,"SoundDuration":685484,"Delta":97043325},{"NoteNumber":55,"Velocity":52,"Duration":645161,"SoundDuration":645161,"Delta":97083647},{"NoteNumber":52,"Velocity":52,"Duration":645161,"SoundDuration":645161,"Delta":97083647},{"NoteNumber":60,"Velocity":52,"Duration":645161,"SoundDuration":645161,"Delta":97083647},{"NoteNumber":48,"Velocity":60,"Duration":645161,"SoundDuration":645161,"Delta":97083647},{"NoteNumber":41,"Velocity":45,"Duration":413636,"SoundDuration":413636,"Delta":99531106},{"NoteNumber":45,"Velocity":48,"Duration":375757,"SoundDuration":375757,"Delta":99568985},{"NoteNumber":48,"Velocity":51,"Duration":337878,"SoundDuration":337878,"Delta":99606864},{"NoteNumber":60,"Velocity":51,"Duration":299999,"SoundDuration":299999,"Delta":99644743},{"NoteNumber":65,"Velocity":60,"Duration":900000,"SoundDuration":900000,"Delta":99644743},{"NoteNumber":57,"Velocity":51,"Duration":299999,"SoundDuration":299999,"Delta":99644743},{"NoteNumber":53,"Velocity":53,"Duration":299999,"SoundDuration":299999,"Delta":99644743},{"NoteNumber":60,"Velocity":56,"Duration":299999,"SoundDuration":299999,"Delta":100544743},{"NoteNumber":70,"Velocity":60,"Duration":297029,"SoundDuration":297029,"Delta":100844743},{"NoteNumber":69,"Velocity":54,"Duration":295573,"SoundDuration":295573,"Delta":101141772},{"NoteNumber":67,"Velocity":54,"Duration":294117,"SoundDuration":294117,"Delta":101437346},{"NoteNumber":65,"Velocity":54,"Duration":312500,"SoundDuration":312500,"Delta":101731464},{"NoteNumber":64,"Velocity":60,"Duration":299999,"SoundDuration":299999,"Delta":102043964},{"NoteNumber":55,"Velocity":42,"Duration":299999,"SoundDuration":299999,"Delta":102043964},{"NoteNumber":58,"Velocity":50,"Duration":299999,"SoundDuration":299999,"Delta":102043964},{"NoteNumber":48,"Velocity":42,"Duration":299999,"SoundDuration":299999,"Delta":102043964},{"NoteNumber":65,"Velocity":57,"Duration":300000,"SoundDuration":300000,"Delta":102643964},{"NoteNumber":67,"Velocity":60,"Duration":299999,"SoundDuration":299999,"Delta":103243964},{"NoteNumber":69,"Velocity":55,"Duration":315789,"SoundDuration":315789,"Delta":103843964},{"NoteNumber":52,"Velocity":45,"Duration":421451,"SoundDuration":421451,"Delta":104357122},{"NoteNumber":55,"Velocity":48,"Duration":381977,"SoundDuration":381977,"Delta":104396596},{"NoteNumber":58,"Velocity":51,"Duration":342503,"SoundDuration":342503,"Delta":104436069},{"NoteNumber":67,"Velocity":51,"Duration":303030,"SoundDuration":303030,"Delta":104475543},{"NoteNumber":64,"Velocity":51,"Duration":303030,"SoundDuration":303030,"Delta":104475543},{"NoteNumber":70,"Velocity":60,"Duration":909090,"SoundDuration":909090,"Delta":104475543},{"NoteNumber":60,"Velocity":53,"Duration":303030,"SoundDuration":303030,"Delta":104475543},{"NoteNumber":67,"Velocity":56,"Duration":303030,"SoundDuration":303030,"Delta":105384634},{"NoteNumber":76,"Velocity":60,"Duration":297029,"SoundDuration":297029,"Delta":105687664},{"NoteNumber":74,"Velocity":54,"Duration":298514,"SoundDuration":298514,"Delta":105984694},{"NoteNumber":72,"Velocity":54,"Duration":299999,"SoundDuration":299999,"Delta":106283209},{"NoteNumber":70,"Velocity":54,"Duration":312500,"SoundDuration":312500,"Delta":106583209},{"NoteNumber":69,"Velocity":60,"Duration":303030,"SoundDuration":303030,"Delta":106895709},{"NoteNumber":60,"Velocity":50,"Duration":303030,"SoundDuration":303030,"Delta":106895709},{"NoteNumber":53,"Velocity":42,"Duration":303030,"SoundDuration":303030,"Delta":106895709},{"NoteNumber":70,"Velocity":57,"Duration":303030,"SoundDuration":303030,"Delta":107501769},{"NoteNumber":72,"Velocity":60,"Duration":303030,"SoundDuration":303030,"Delta":108107830},{"NoteNumber":73,"Velocity":61,"Duration":312500,"SoundDuration":312500,"Delta":108713890},{"NoteNumber":74,"Velocity":55,"Duration":900000,"SoundDuration":900000,"Delta":109338890},{"NoteNumber":58,"Velocity":44,"Duration":2400000,"SoundDuration":2400000,"Delta":109338890},{"NoteNumber":65,"Velocity":44,"Duration":3025000,"SoundDuration":3025000,"Delta":109338890},{"NoteNumber":76,"Velocity":48,"Duration":299999,"SoundDuration":299999,"Delta":110238890},{"NoteNumber":79,"Velocity":55,"Duration":299999,"SoundDuration":299999,"Delta":110538890},{"NoteNumber":77,"Velocity":51,"Duration":299999,"SoundDuration":299999,"Delta":110838890},{"NoteNumber":76,"Velocity":51,"Duration":299999,"SoundDuration":299999,"Delta":111138890},{"NoteNumber":74,"Velocity":51,"Duration":300000,"SoundDuration":300000,"Delta":111438890},{"NoteNumber":72,"Velocity":55,"Duration":468750,"SoundDuration":468750,"Delta":111738890},{"NoteNumber":57,"Velocity":44,"Duration":625000,"SoundDuration":625000,"Delta":111738890},{"NoteNumber":72,"Velocity":49,"Duration":599999,"SoundDuration":599999,"Delta":112363890},{"NoteNumber":70,"Velocity":49,"Duration":75000,"SoundDuration":75000,"Delta":112963890},{"NoteNumber":72,"Velocity":44,"Duration":75000,"SoundDuration":75000,"Delta":113038890},{"NoteNumber":70,"Velocity":49,"Duration":75000,"SoundDuration":75000,"Delta":113113890},{"NoteNumber":72,"Velocity":42,"Duration":75000,"SoundDuration":75000,"Delta":113188890},{"NoteNumber":70,"Velocity":49,"Duration":99999,"SoundDuration":99999,"Delta":113263890},{"NoteNumber":72,"Velocity":45,"Duration":99999,"SoundDuration":99999,"Delta":113363890},{"NoteNumber":70,"Velocity":45,"Duration":100000,"SoundDuration":100000,"Delta":113463890},{"NoteNumber":69,"Velocity":49,"Duration":631579,"SoundDuration":631579,"Delta":113563890},{"NoteNumber":67,"Velocity":54,"Duration":450000,"SoundDuration":450000,"Delta":114195469},{"NoteNumber":46,"Velocity":43,"Duration":2431578,"SoundDuration":2431578,"Delta":114195469},{"NoteNumber":58,"Velocity":43,"Duration":2431578,"SoundDuration":2431578,"Delta":114195469},{"NoteNumber":69,"Velocity":49,"Duration":150000,"SoundDuration":150000,"Delta":114795469},{"NoteNumber":67,"Velocity":43,"Duration":150000,"SoundDuration":150000,"Delta":114945469},{"NoteNumber":66,"Velocity":44,"Duration":149999,"SoundDuration":149999,"Delta":115095469},{"NoteNumber":67,"Velocity":44,"Duration":150000,"SoundDuration":150000,"Delta":115245469},{"NoteNumber":70,"Velocity":49,"Duration":599999,"SoundDuration":599999,"Delta":115395469},{"NoteNumber":74,"Velocity":44,"Duration":631579,"SoundDuration":631579,"Delta":115995469},{"NoteNumber":65,"Velocity":44,"Duration":1818181,"SoundDuration":1818181,"Delta":116627048},{"NoteNumber":57,"Velocity":37,"Duration":1212120,"SoundDuration":1212120,"Delta":116627048},{"NoteNumber":48,"Velocity":37,"Duration":2302052,"SoundDuration":2302052,"Delta":116627048},{"NoteNumber":55,"Velocity":33,"Duration":1089931,"SoundDuration":1089931,"Delta":117839169},{"NoteNumber":64,"Velocity":42,"Duration":161290,"SoundDuration":161290,"Delta":118445230},{"NoteNumber":65,"Velocity":38,"Duration":161290,"SoundDuration":161290,"Delta":118606520},{"NoteNumber":64,"Velocity":42,"Duration":322580,"SoundDuration":322580,"Delta":118767810},{"NoteNumber":41,"Velocity":45,"Duration":427090,"SoundDuration":427090,"Delta":118969423},{"NoteNumber":45,"Velocity":48,"Duration":386767,"SoundDuration":386767,"Delta":119009746},{"NoteNumber":48,"Velocity":51,"Duration":346445,"SoundDuration":346445,"Delta":119050069},{"NoteNumber":60,"Velocity":51,"Duration":306122,"SoundDuration":306122,"Delta":119090391},{"NoteNumber":65,"Velocity":60,"Duration":918367,"SoundDuration":918367,"Delta":119090391},{"NoteNumber":57,"Velocity":51,"Duration":306122,"SoundDuration":306122,"Delta":119090391},{"NoteNumber":53,"Velocity":53,"Duration":306122,"SoundDuration":306122,"Delta":119090391},{"NoteNumber":60,"Velocity":56,"Duration":306122,"SoundDuration":306122,"Delta":120008759},{"NoteNumber":70,"Velocity":60,"Duration":297029,"SoundDuration":297029,"Delta":120314881},{"NoteNumber":69,"Velocity":54,"Duration":297029,"SoundDuration":297029,"Delta":120611911},{"NoteNumber":67,"Velocity":54,"Duration":297029,"SoundDuration":297029,"Delta":120908941},{"NoteNumber":65,"Velocity":54,"Duration":315789,"SoundDuration":315789,"Delta":121205970},{"NoteNumber":64,"Velocity":60,"Duration":441176,"SoundDuration":441176,"Delta":121521760},{"NoteNumber":58,"Velocity":50,"Duration":599071,"SoundDuration":599071,"Delta":121521760},{"NoteNumber":48,"Velocity":42,"Duration":4792501,"SoundDuration":4792501,"Delta":121521760},{"NoteNumber":60,"Velocity":53,"Duration":157894,"SoundDuration":157894,"Delta":121962936},{"NoteNumber":65,"Velocity":57,"Duration":441176,"SoundDuration":441176,"Delta":122120831},{"NoteNumber":57,"Velocity":50,"Duration":600751,"SoundDuration":600751,"Delta":122120831},{"NoteNumber":60,"Velocity":53,"Duration":159574,"SoundDuration":159574,"Delta":122562008},{"NoteNumber":67,"Velocity":60,"Duration":441176,"SoundDuration":441176,"Delta":122721582},{"NoteNumber":55,"Velocity":50,"Duration":599071,"SoundDuration":599071,"Delta":122721582},{"NoteNumber":60,"Velocity":53,"Duration":157894,"SoundDuration":157894,"Delta":123162759},{"NoteNumber":69,"Velocity":55,"Duration":445632,"SoundDuration":445632,"Delta":123320654},{"NoteNumber":53,"Velocity":50,"Duration":610467,"SoundDuration":610467,"Delta":123320654},{"NoteNumber":60,"Velocity":53,"Duration":164835,"SoundDuration":164835,"Delta":123766287},{"NoteNumber":70,"Velocity":60,"Duration":891089,"SoundDuration":891089,"Delta":123931122},{"NoteNumber":55,"Velocity":53,"Duration":2383139,"SoundDuration":2383139,"Delta":123931122},{"NoteNumber":52,"Velocity":48,"Duration":2383139,"SoundDuration":2383139,"Delta":123931122},{"NoteNumber":67,"Velocity":56,"Duration":297029,"SoundDuration":297029,"Delta":124822211},{"NoteNumber":76,"Velocity":60,"Duration":297029,"SoundDuration":297029,"Delta":125119241},{"NoteNumber":74,"Velocity":54,"Duration":297029,"SoundDuration":297029,"Delta":125416270},{"NoteNumber":72,"Velocity":54,"Duration":288461,"SoundDuration":288461,"Delta":125713300},{"NoteNumber":70,"Velocity":54,"Duration":312500,"SoundDuration":312500,"Delta":126001762},{"NoteNumber":69,"Velocity":60,"Duration":599999,"SoundDuration":599999,"Delta":126314262},{"NoteNumber":53,"Velocity":50,"Duration":300000,"SoundDuration":300000,"Delta":126314262},{"NoteNumber":41,"Velocity":42,"Duration":300000,"SoundDuration":300000,"Delta":126314262},{"NoteNumber":70,"Velocity":57,"Duration":599999,"SoundDuration":599999,"Delta":126914262},{"NoteNumber":72,"Velocity":60,"Duration":600000,"SoundDuration":600000,"Delta":127514262},{"NoteNumber":73,"Velocity":61,"Duration":625000,"SoundDuration":625000,"Delta":128114262},{"NoteNumber":58,"Velocity":44,"Duration":1199999,"SoundDuration":1199999,"Delta":128739262},{"NoteNumber":46,"Velocity":44,"Duration":1199999,"SoundDuration":1199999,"Delta":128739262},{"NoteNumber":73,"Velocity":55,"Duration":299999,"SoundDuration":299999,"Delta":129039262},{"NoteNumber":74,"Velocity":58,"Duration":300000,"SoundDuration":300000,"Delta":129339262},{"NoteNumber":76,"Velocity":55,"Duration":299999,"SoundDuration":299999,"Delta":129639262},{"NoteNumber":77,"Velocity":57,"Duration":300000,"SoundDuration":300000,"Delta":129939262},{"NoteNumber":78,"Velocity":59,"Duration":300000,"SoundDuration":300000,"Delta":130239262},{"NoteNumber":79,"Velocity":61,"Duration":299999,"SoundDuration":299999,"Delta":130539262},{"NoteNumber":81,"Velocity":63,"Duration":300000,"SoundDuration":300000,"Delta":130839262},{"NoteNumber":82,"Velocity":65,"Duration":296447,"SoundDuration":296447,"Delta":131139262},{"NoteNumber":83,"Velocity":68,"Duration":292523,"SoundDuration":292523,"Delta":131435709},{"NoteNumber":84,"Velocity":70,"Duration":288694,"SoundDuration":288694,"Delta":131728233},{"NoteNumber":85,"Velocity":68,"Duration":311498,"SoundDuration":311498,"Delta":132016927},{"NoteNumber":86,"Velocity":75,"Duration":288461,"SoundDuration":288461,"Delta":132328426},{"NoteNumber":70,"Velocity":36,"Duration":1214221,"SoundDuration":1214221,"Delta":132328426},{"NoteNumber":58,"Velocity":30,"Duration":1214221,"SoundDuration":1214221,"Delta":132328426},{"NoteNumber":81,"Velocity":63,"Duration":288461,"SoundDuration":288461,"Delta":132616887},{"NoteNumber":82,"Velocity":66,"Duration":288461,"SoundDuration":288461,"Delta":132905349},{"NoteNumber":79,"Velocity":61,"Duration":348837,"SoundDuration":348837,"Delta":133193810},{"NoteNumber":77,"Velocity":71,"Duration":1836735,"SoundDuration":1836735,"Delta":133542648},{"NoteNumber":69,"Velocity":40,"Duration":2525760,"SoundDuration":2525760,"Delta":133542648},{"NoteNumber":60,"Velocity":34,"Duration":3788918,"SoundDuration":3788918,"Delta":133542648},{"NoteNumber":79,"Velocity":41,"Duration":309278,"SoundDuration":309278,"Delta":135379383},{"NoteNumber":77,"Velocity":35,"Duration":379746,"SoundDuration":379746,"Delta":135688661},{"NoteNumber":76,"Velocity":39,"Duration":1263158,"SoundDuration":1263158,"Delta":136068408},{"NoteNumber":67,"Velocity":32,"Duration":1263158,"SoundDuration":1263158,"Delta":136068408},{"NoteNumber":79,"Velocity":60,"Duration":1188119,"SoundDuration":1188119,"Delta":138531566},{"NoteNumber":60,"Velocity":40,"Duration":297029,"SoundDuration":297029,"Delta":138531566},{"NoteNumber":67,"Velocity":32,"Duration":297029,"SoundDuration":297029,"Delta":138828595},{"NoteNumber":64,"Velocity":32,"Duration":297029,"SoundDuration":297029,"Delta":139125625},{"NoteNumber":67,"Velocity":32,"Duration":297029,"SoundDuration":297029,"Delta":139422655},{"NoteNumber":77,"Velocity":55,"Duration":294117,"SoundDuration":294117,"Delta":139719685},{"NoteNumber":60,"Velocity":40,"Duration":294117,"SoundDuration":294117,"Delta":139719685},{"NoteNumber":76,"Velocity":50,"Duration":294117,"SoundDuration":294117,"Delta":140013802},{"NoteNumber":67,"Velocity":31,"Duration":294117,"SoundDuration":294117,"Delta":140013802},{"NoteNumber":74,"Velocity":55,"Duration":294117,"SoundDuration":294117,"Delta":140307920},{"NoteNumber":64,"Velocity":31,"Duration":294117,"SoundDuration":294117,"Delta":140307920},{"NoteNumber":72,"Velocity":49,"Duration":239361,"SoundDuration":239361,"Delta":140602038},{"NoteNumber":67,"Velocity":31,"Duration":319149,"SoundDuration":319149,"Delta":140602038},{"NoteNumber":72,"Velocity":55,"Duration":1176470,"SoundDuration":1176470,"Delta":140921187},{"NoteNumber":62,"Velocity":40,"Duration":294117,"SoundDuration":294117,"Delta":140921187},{"NoteNumber":67,"Velocity":30,"Duration":294117,"SoundDuration":294117,"Delta":141215305},{"NoteNumber":65,"Velocity":30,"Duration":294117,"SoundDuration":294117,"Delta":141509422},{"NoteNumber":67,"Velocity":30,"Duration":294117,"SoundDuration":294117,"Delta":141803540},{"NoteNumber":71,"Velocity":55,"Duration":138888,"SoundDuration":138888,"Delta":142097658},{"NoteNumber":62,"Velocity":40,"Duration":277777,"SoundDuration":277777,"Delta":142097658},{"NoteNumber":72,"Velocity":51,"Duration":138888,"SoundDuration":138888,"Delta":142236547},{"NoteNumber":71,"Velocity":57,"Duration":588235,"SoundDuration":588235,"Delta":142375436},{"NoteNumber":67,"Velocity":33,"Duration":294117,"SoundDuration":294117,"Delta":142375436},{"NoteNumber":65,"Velocity":33,"Duration":294117,"SoundDuration":294117,"Delta":142669553},{"NoteNumber":71,"Velocity":51,"Duration":294117,"SoundDuration":294117,"Delta":142963671},{"NoteNumber":67,"Velocity":33,"Duration":294117,"SoundDuration":294117,"Delta":142963671},{"NoteNumber":72,"Velocity":55,"Duration":291262,"SoundDuration":291262,"Delta":143257789},{"NoteNumber":60,"Velocity":40,"Duration":291262,"SoundDuration":291262,"Delta":143257789},{"NoteNumber":74,"Velocity":52,"Duration":291262,"SoundDuration":291262,"Delta":143549051},{"NoteNumber":67,"Velocity":32,"Duration":291262,"SoundDuration":291262,"Delta":143549051},{"NoteNumber":76,"Velocity":54,"Duration":291262,"SoundDuration":291262,"Delta":143840313},{"NoteNumber":64,"Velocity":32,"Duration":291262,"SoundDuration":291262,"Delta":143840313},{"NoteNumber":77,"Velocity":55,"Duration":291262,"SoundDuration":291262,"Delta":144131576},{"NoteNumber":67,"Velocity":32,"Duration":291262,"SoundDuration":291262,"Delta":144131576},{"NoteNumber":79,"Velocity":59,"Duration":288461,"SoundDuration":288461,"Delta":144422838},{"NoteNumber":60,"Velocity":40,"Duration":288461,"SoundDuration":288461,"Delta":144422838},{"NoteNumber":81,"Velocity":61,"Duration":288461,"SoundDuration":288461,"Delta":144711299},{"NoteNumber":67,"Velocity":33,"Duration":288461,"SoundDuration":288461,"Delta":144711299},{"NoteNumber":83,"Velocity":64,"Duration":288461,"SoundDuration":288461,"Delta":144999761},{"NoteNumber":64,"Velocity":35,"Duration":288461,"SoundDuration":288461,"Delta":144999761},{"NoteNumber":84,"Velocity":66,"Duration":231958,"SoundDuration":231958,"Delta":145288222},{"NoteNumber":67,"Velocity":37,"Duration":309278,"SoundDuration":309278,"Delta":145288222},{"NoteNumber":84,"Velocity":66,"Duration":288461,"SoundDuration":288461,"Delta":145597501},{"NoteNumber":62,"Velocity":47,"Duration":288461,"SoundDuration":288461,"Delta":145597501},{"NoteNumber":83,"Velocity":64,"Duration":288461,"SoundDuration":288461,"Delta":145885962},{"NoteNumber":67,"Velocity":35,"Duration":288461,"SoundDuration":288461,"Delta":145885962},{"NoteNumber":81,"Velocity":61,"Duration":141509,"SoundDuration":141509,"Delta":146174424},{"NoteNumber":65,"Velocity":35,"Duration":141509,"SoundDuration":141509,"Delta":146174424},{"NoteNumber":79,"Velocity":59,"Duration":141509,"SoundDuration":141509,"Delta":146457442},{"NoteNumber":67,"Velocity":35,"Duration":141509,"SoundDuration":141509,"Delta":146457442},{"NoteNumber":79,"Velocity":57,"Duration":283018,"SoundDuration":283018,"Delta":146740461},{"NoteNumber":62,"Velocity":44,"Duration":283018,"SoundDuration":283018,"Delta":146740461},{"NoteNumber":77,"Velocity":55,"Duration":283018,"SoundDuration":283018,"Delta":147023480},{"NoteNumber":67,"Velocity":33,"Duration":283018,"SoundDuration":283018,"Delta":147023480},{"NoteNumber":76,"Velocity":52,"Duration":141509,"SoundDuration":141509,"Delta":147306499},{"NoteNumber":65,"Velocity":33,"Duration":141509,"SoundDuration":141509,"Delta":147306499},{"NoteNumber":74,"Velocity":50,"Duration":159574,"SoundDuration":159574,"Delta":147589517},{"NoteNumber":67,"Velocity":33,"Duration":159574,"SoundDuration":159574,"Delta":147589517},{"NoteNumber":79,"Velocity":64,"Duration":865384,"SoundDuration":865384,"Delta":147908666},{"NoteNumber":60,"Velocity":40,"Duration":288461,"SoundDuration":288461,"Delta":147908666},{"NoteNumber":67,"Velocity":32,"Duration":288461,"SoundDuration":288461,"Delta":148197128},{"NoteNumber":64,"Velocity":32,"Duration":288461,"SoundDuration":288461,"Delta":148485589},{"NoteNumber":81,"Velocity":59,"Duration":144230,"SoundDuration":144230,"Delta":148774051},{"NoteNumber":67,"Velocity":32,"Duration":288461,"SoundDuration":288461,"Delta":148774051},{"NoteNumber":79,"Velocity":55,"Duration":144230,"SoundDuration":144230,"Delta":148918282},{"NoteNumber":77,"Velocity":62,"Duration":285714,"SoundDuration":285714,"Delta":149062512},{"NoteNumber":60,"Velocity":40,"Duration":285714,"SoundDuration":285714,"Delta":149062512},{"NoteNumber":76,"Velocity":55,"Duration":285714,"SoundDuration":285714,"Delta":149348227},{"NoteNumber":67,"Velocity":31,"Duration":285714,"SoundDuration":285714,"Delta":149348227},{"NoteNumber":74,"Velocity":57,"Duration":285714,"SoundDuration":285714,"Delta":149633941},{"NoteNumber":64,"Velocity":31,"Duration":285714,"SoundDuration":285714,"Delta":149633941},{"NoteNumber":72,"Velocity":55,"Duration":234375,"SoundDuration":234375,"Delta":149919655},{"NoteNumber":67,"Velocity":31,"Duration":312500,"SoundDuration":312500,"Delta":149919655},{"NoteNumber":72,"Velocity":61,"Duration":1153845,"SoundDuration":1153845,"Delta":150232155},{"NoteNumber":62,"Velocity":40,"Duration":288461,"SoundDuration":288461,"Delta":150232155},{"NoteNumber":67,"Velocity":30,"Duration":288461,"SoundDuration":288461,"Delta":150520617},{"NoteNumber":65,"Velocity":30,"Duration":288461,"SoundDuration":288461,"Delta":150809078},{"NoteNumber":67,"Velocity":30,"Duration":288461,"SoundDuration":288461,"Delta":151097540},{"NoteNumber":71,"Velocity":55,"Duration":135135,"SoundDuration":135135,"Delta":151386001},{"NoteNumber":62,"Velocity":40,"Duration":270270,"SoundDuration":270270,"Delta":151386001},{"NoteNumber":72,"Velocity":51,"Duration":135135,"SoundDuration":135135,"Delta":151521136},{"NoteNumber":71,"Velocity":55,"Duration":566037,"SoundDuration":566037,"Delta":151656271},{"NoteNumber":67,"Velocity":33,"Duration":283018,"SoundDuration":283018,"Delta":151656271},{"NoteNumber":65,"Velocity":33,"Duration":283018,"SoundDuration":283018,"Delta":151939290},{"NoteNumber":77,"Velocity":52,"Duration":283018,"SoundDuration":283018,"Delta":152222309},{"NoteNumber":67,"Velocity":33,"Duration":283018,"SoundDuration":283018,"Delta":152222309},{"NoteNumber":76,"Velocity":60,"Duration":140186,"SoundDuration":140186,"Delta":152505328},{"NoteNumber":60,"Velocity":40,"Duration":140186,"SoundDuration":140186,"Delta":152505328},{"NoteNumber":77,"Velocity":55,"Duration":140186,"SoundDuration":140186,"Delta":152785701},{"NoteNumber":67,"Velocity":32,"Duration":140186,"SoundDuration":140186,"Delta":152785701},{"NoteNumber":79,"Velocity":60,"Duration":141509,"SoundDuration":141509,"Delta":153066075},{"NoteNumber":64,"Velocity":32,"Duration":141509,"SoundDuration":141509,"Delta":153066075},{"NoteNumber":81,"Velocity":61,"Duration":140186,"SoundDuration":140186,"Delta":153349094},{"NoteNumber":67,"Velocity":32,"Duration":140186,"SoundDuration":140186,"Delta":153349094},{"NoteNumber":83,"Velocity":70,"Duration":138888,"SoundDuration":138888,"Delta":153629468},{"NoteNumber":60,"Velocity":46,"Duration":138888,"SoundDuration":138888,"Delta":153629468},{"NoteNumber":84,"Velocity":65,"Duration":140186,"SoundDuration":140186,"Delta":153907245},{"NoteNumber":67,"Velocity":35,"Duration":140186,"SoundDuration":140186,"Delta":153907245},{"NoteNumber":83,"Velocity":68,"Duration":141509,"SoundDuration":141509,"Delta":154187619},{"NoteNumber":64,"Velocity":36,"Duration":141509,"SoundDuration":141509,"Delta":154187619},{"NoteNumber":84,"Velocity":66,"Duration":150000,"SoundDuration":150000,"Delta":154470638},{"NoteNumber":67,"Velocity":38,"Duration":150000,"SoundDuration":150000,"Delta":154470638},{"NoteNumber":84,"Velocity":73,"Duration":285714,"SoundDuration":285714,"Delta":154770638},{"NoteNumber":62,"Velocity":49,"Duration":285714,"SoundDuration":285714,"Delta":154770638},{"NoteNumber":83,"Velocity":66,"Duration":285714,"SoundDuration":285714,"Delta":155056352},{"NoteNumber":67,"Velocity":39,"Duration":285714,"SoundDuration":285714,"Delta":155056352},{"NoteNumber":81,"Velocity":67,"Duration":285714,"SoundDuration":285714,"Delta":155342066},{"NoteNumber":65,"Velocity":39,"Duration":285714,"SoundDuration":285714,"Delta":155342066},{"NoteNumber":79,"Velocity":64,"Duration":214285,"SoundDuration":214285,"Delta":155627781},{"NoteNumber":67,"Velocity":39,"Duration":285714,"SoundDuration":285714,"Delta":155627781},{"NoteNumber":79,"Velocity":69,"Duration":285714,"SoundDuration":285714,"Delta":155913495},{"NoteNumber":62,"Velocity":50,"Duration":285714,"SoundDuration":285714,"Delta":155913495},{"NoteNumber":77,"Velocity":64,"Duration":285714,"SoundDuration":285714,"Delta":156199209},{"NoteNumber":67,"Velocity":40,"Duration":285714,"SoundDuration":285714,"Delta":156199209},{"NoteNumber":76,"Velocity":62,"Duration":285714,"SoundDuration":285714,"Delta":156484923},{"NoteNumber":65,"Velocity":40,"Duration":285714,"SoundDuration":285714,"Delta":156484923},{"NoteNumber":74,"Velocity":61,"Duration":306122,"SoundDuration":306122,"Delta":156770638},{"NoteNumber":67,"Velocity":40,"Duration":306122,"SoundDuration":306122,"Delta":156770638},{"NoteNumber":76,"Velocity":62,"Duration":285714,"SoundDuration":285714,"Delta":157076760},{"NoteNumber":60,"Velocity":48,"Duration":285714,"SoundDuration":285714,"Delta":157076760},{"NoteNumber":77,"Velocity":62,"Duration":288461,"SoundDuration":288461,"Delta":157362474},{"NoteNumber":67,"Velocity":32,"Duration":288461,"SoundDuration":288461,"Delta":157362474},{"NoteNumber":76,"Velocity":69,"Duration":288461,"SoundDuration":288461,"Delta":157650936},{"NoteNumber":64,"Velocity":32,"Duration":288461,"SoundDuration":288461,"Delta":157650936},{"NoteNumber":77,"Velocity":68,"Duration":285714,"SoundDuration":285714,"Delta":157939397},{"NoteNumber":67,"Velocity":32,"Duration":285714,"SoundDuration":285714,"Delta":157939397},{"NoteNumber":79,"Velocity":76,"Duration":288461,"SoundDuration":288461,"Delta":158225112},{"NoteNumber":60,"Velocity":52,"Duration":288461,"SoundDuration":288461,"Delta":158225112},{"NoteNumber":81,"Velocity":74,"Duration":297029,"SoundDuration":297029,"Delta":158513573},{"NoteNumber":67,"Velocity":39,"Duration":297029,"SoundDuration":297029,"Delta":158513573},{"NoteNumber":79,"Velocity":83,"Duration":288461,"SoundDuration":288461,"Delta":158810603},{"NoteNumber":64,"Velocity":42,"Duration":288461,"SoundDuration":288461,"Delta":158810603},{"NoteNumber":81,"Velocity":78,"Duration":326087,"SoundDuration":326087,"Delta":159099064},{"NoteNumber":67,"Velocity":45,"Duration":326087,"SoundDuration":326087,"Delta":159099064},{"NoteNumber":70,"Velocity":75,"Duration":2331730,"SoundDuration":2331730,"Delta":159425151},{"NoteNumber":82,"Velocity":89,"Duration":2331730,"SoundDuration":2331730,"Delta":159425151},{"NoteNumber":52,"Velocity":65,"Duration":288461,"SoundDuration":288461,"Delta":159425151},{"NoteNumber":60,"Velocity":55,"Duration":288461,"SoundDuration":288461,"Delta":159713613},{"NoteNumber":55,"Velocity":55,"Duration":288461,"SoundDuration":288461,"Delta":160002074},{"NoteNumber":60,"Velocity":55,"Duration":288461,"SoundDuration":288461,"Delta":160290536},{"NoteNumber":52,"Velocity":63,"Duration":288461,"SoundDuration":288461,"Delta":160578997},{"NoteNumber":60,"Velocity":51,"Duration":288461,"SoundDuration":288461,"Delta":160867459},{"NoteNumber":55,"Velocity":51,"Duration":288461,"SoundDuration":288461,"Delta":161155920},{"NoteNumber":60,"Velocity":51,"Duration":312500,"SoundDuration":312500,"Delta":161444382},{"NoteNumber":53,"Velocity":58,"Duration":291262,"SoundDuration":291262,"Delta":161756882},{"NoteNumber":81,"Velocity":70,"Duration":285714,"SoundDuration":285714,"Delta":162048144},{"NoteNumber":60,"Velocity":45,"Duration":285714,"SoundDuration":285714,"Delta":162048144},{"NoteNumber":80,"Velocity":75,"Duration":285714,"SoundDuration":285714,"Delta":162333858},{"NoteNumber":57,"Velocity":45,"Duration":285714,"SoundDuration":285714,"Delta":162333858},{"NoteNumber":81,"Velocity":68,"Duration":285714,"SoundDuration":285714,"Delta":162619573},{"NoteNumber":60,"Velocity":45,"Duration":285714,"SoundDuration":285714,"Delta":162619573},{"NoteNumber":52,"Velocity":51,"Duration":285714,"SoundDuration":285714,"Delta":162905287},{"NoteNumber":79,"Velocity":67,"Duration":285714,"SoundDuration":285714,"Delta":163191001},{"NoteNumber":61,"Velocity":44,"Duration":285714,"SoundDuration":285714,"Delta":163191001},{"NoteNumber":78,"Velocity":76,"Duration":285714,"SoundDuration":285714,"Delta":163476715},{"NoteNumber":55,"Velocity":44,"Duration":285714,"SoundDuration":285714,"Delta":163476715},{"NoteNumber":79,"Velocity":67,"Duration":297029,"SoundDuration":297029,"Delta":163762430},{"NoteNumber":61,"Velocity":44,"Duration":297029,"SoundDuration":297029,"Delta":163762430},{"NoteNumber":50,"Velocity":51,"Duration":285714,"SoundDuration":285714,"Delta":164059459},{"NoteNumber":78,"Velocity":70,"Duration":285714,"SoundDuration":285714,"Delta":164345174},{"NoteNumber":60,"Velocity":43,"Duration":285714,"SoundDuration":285714,"Delta":164345174},{"NoteNumber":78,"Velocity":69,"Duration":136363,"SoundDuration":136363,"Delta":164630888},{"NoteNumber":57,"Velocity":43,"Duration":272727,"SoundDuration":272727,"Delta":164630888},{"NoteNumber":79,"Velocity":63,"Duration":136363,"SoundDuration":136363,"Delta":164767251},{"NoteNumber":78,"Velocity":68,"Duration":291262,"SoundDuration":291262,"Delta":164903615},{"NoteNumber":60,"Velocity":43,"Duration":291262,"SoundDuration":291262,"Delta":164903615},{"NoteNumber":55,"Velocity":51,"Duration":283018,"SoundDuration":283018,"Delta":165194877},{"NoteNumber":77,"Velocity":72,"Duration":283018,"SoundDuration":283018,"Delta":165477896},{"NoteNumber":62,"Velocity":43,"Duration":283018,"SoundDuration":283018,"Delta":165477896},{"NoteNumber":77,"Velocity":72,"Duration":136363,"SoundDuration":136363,"Delta":165760915},{"NoteNumber":59,"Velocity":43,"Duration":272727,"SoundDuration":272727,"Delta":165760915},{"NoteNumber":79,"Velocity":65,"Duration":136363,"SoundDuration":136363,"Delta":165897278},{"NoteNumber":77,"Velocity":75,"Duration":297029,"SoundDuration":297029,"Delta":166033642},{"NoteNumber":62,"Velocity":43,"Duration":297029,"SoundDuration":297029,"Delta":166033642},{"NoteNumber":48,"Velocity":47,"Duration":283018,"SoundDuration":283018,"Delta":166330672},{"NoteNumber":76,"Velocity":67,"Duration":283018,"SoundDuration":283018,"Delta":166613691},{"NoteNumber":60,"Velocity":41,"Duration":283018,"SoundDuration":283018,"Delta":166613691},{"NoteNumber":77,"Velocity":70,"Duration":283018,"SoundDuration":283018,"Delta":166896709},{"NoteNumber":52,"Velocity":41,"Duration":283018,"SoundDuration":283018,"Delta":166896709},{"NoteNumber":79,"Velocity":72,"Duration":227272,"SoundDuration":227272,"Delta":167179728},{"NoteNumber":60,"Velocity":41,"Duration":303030,"SoundDuration":303030,"Delta":167179728},{"NoteNumber":79,"Velocity":72,"Duration":285714,"SoundDuration":285714,"Delta":167482758},{"NoteNumber":53,"Velocity":47,"Duration":285714,"SoundDuration":285714,"Delta":167482758},{"NoteNumber":69,"Velocity":66,"Duration":285714,"SoundDuration":285714,"Delta":167768473},{"NoteNumber":62,"Velocity":41,"Duration":285714,"SoundDuration":285714,"Delta":167768473},{"NoteNumber":77,"Velocity":72,"Duration":285714,"SoundDuration":285714,"Delta":168054187},{"NoteNumber":57,"Velocity":41,"Duration":285714,"SoundDuration":285714,"Delta":168054187},{"NoteNumber":74,"Velocity":65,"Duration":285714,"SoundDuration":285714,"Delta":168339901},{"NoteNumber":62,"Velocity":41,"Duration":285714,"SoundDuration":285714,"Delta":168339901},{"NoteNumber":72,"Velocity":72,"Duration":1143735,"SoundDuration":1143735,"Delta":168625615},{"NoteNumber":55,"Velocity":47,"Duration":285714,"SoundDuration":285714,"Delta":168625615},{"NoteNumber":64,"Velocity":40,"Duration":285714,"SoundDuration":285714,"Delta":168911330},{"NoteNumber":60,"Velocity":40,"Duration":285714,"SoundDuration":285714,"Delta":169197044},{"NoteNumber":64,"Velocity":40,"Duration":286592,"SoundDuration":286592,"Delta":169482758},{"NoteNumber":71,"Velocity":68,"Duration":96760,"SoundDuration":96760,"Delta":169769351},{"NoteNumber":55,"Velocity":47,"Duration":286751,"SoundDuration":286751,"Delta":169769351},{"NoteNumber":72,"Velocity":60,"Duration":95604,"SoundDuration":95604,"Delta":169866111},{"NoteNumber":71,"Velocity":68,"Duration":94386,"SoundDuration":94386,"Delta":169961716},{"NoteNumber":72,"Velocity":61,"Duration":93155,"SoundDuration":93155,"Delta":170056102},{"NoteNumber":65,"Velocity":42,"Duration":278426,"SoundDuration":278426,"Delta":170056102},{"NoteNumber":71,"Velocity":68,"Duration":92592,"SoundDuration":92592,"Delta":170149257},{"NoteNumber":72,"Velocity":61,"Duration":92679,"SoundDuration":92679,"Delta":170241850},{"NoteNumber":71,"Velocity":68,"Duration":567018,"SoundDuration":567018,"Delta":170334529},{"NoteNumber":62,"Velocity":42,"Duration":281453,"SoundDuration":281453,"Delta":170334529},{"NoteNumber":65,"Velocity":42,"Duration":285565,"SoundDuration":285565,"Delta":170615983},{"NoteNumber":52,"Velocity":47,"Duration":283018,"SoundDuration":283018,"Delta":170901548},{"NoteNumber":84,"Velocity":72,"Duration":283018,"SoundDuration":283018,"Delta":171184566},{"NoteNumber":60,"Velocity":41,"Duration":283018,"SoundDuration":283018,"Delta":171184566},{"NoteNumber":88,"Velocity":78,"Duration":283018,"SoundDuration":283018,"Delta":171467585},{"NoteNumber":55,"Velocity":41,"Duration":283018,"SoundDuration":283018,"Delta":171467585},{"NoteNumber":84,"Velocity":72,"Duration":300000,"SoundDuration":300000,"Delta":171750604},{"NoteNumber":60,"Velocity":41,"Duration":300000,"SoundDuration":300000,"Delta":171750604},{"NoteNumber":83,"Velocity":77,"Duration":283018,"SoundDuration":283018,"Delta":172050604},{"NoteNumber":53,"Velocity":47,"Duration":283018,"SoundDuration":283018,"Delta":172050604},{"NoteNumber":81,"Velocity":69,"Duration":283018,"SoundDuration":283018,"Delta":172333623},{"NoteNumber":60,"Velocity":41,"Duration":283018,"SoundDuration":283018,"Delta":172333623},{"NoteNumber":79,"Velocity":76,"Duration":283018,"SoundDuration":283018,"Delta":172616641},{"NoteNumber":57,"Velocity":41,"Duration":283018,"SoundDuration":283018,"Delta":172616641},{"NoteNumber":77,"Velocity":67,"Duration":283018,"SoundDuration":283018,"Delta":172899660},{"NoteNumber":60,"Velocity":41,"Duration":283018,"SoundDuration":283018,"Delta":172899660},{"NoteNumber":76,"Velocity":75,"Duration":1132075,"SoundDuration":1132075,"Delta":173182679},{"NoteNumber":55,"Velocity":47,"Duration":283018,"SoundDuration":283018,"Delta":173182679},{"NoteNumber":64,"Velocity":40,"Duration":283018,"SoundDuration":283018,"Delta":173465698},{"NoteNumber":60,"Velocity":40,"Duration":283018,"SoundDuration":283018,"Delta":173748716},{"NoteNumber":64,"Velocity":40,"Duration":283018,"SoundDuration":283018,"Delta":174031735},{"NoteNumber":74,"Velocity":68,"Duration":96331,"SoundDuration":96331,"Delta":174314754},{"NoteNumber":55,"Velocity":47,"Duration":288577,"SoundDuration":288577,"Delta":174314754},{"NoteNumber":76,"Velocity":60,"Duration":96527,"SoundDuration":96527,"Delta":174411086},{"NoteNumber":74,"Velocity":68,"Duration":95718,"SoundDuration":95718,"Delta":174507613},{"NoteNumber":76,"Velocity":61,"Duration":94923,"SoundDuration":94923,"Delta":174603332},{"NoteNumber":65,"Velocity":42,"Duration":282192,"SoundDuration":282192,"Delta":174603332},{"NoteNumber":74,"Velocity":68,"Duration":93810,"SoundDuration":93810,"Delta":174698255},{"NoteNumber":76,"Velocity":61,"Duration":93457,"SoundDuration":93457,"Delta":174792066},{"NoteNumber":74,"Velocity":68,"Duration":93457,"SoundDuration":93457,"Delta":174871505},{"NoteNumber":62,"Velocity":42,"Duration":282115,"SoundDuration":282115,"Delta":174885524},{"NoteNumber":76,"Velocity":60,"Duration":94207,"SoundDuration":94207,"Delta":174967300},{"NoteNumber":74,"Velocity":68,"Duration":94339,"SoundDuration":94339,"Delta":175059148},{"NoteNumber":72,"Velocity":63,"Duration":144794,"SoundDuration":144794,"Delta":175160564},{"NoteNumber":65,"Velocity":42,"Duration":302281,"SoundDuration":302281,"Delta":175167639},{"NoteNumber":74,"Velocity":62,"Duration":156497,"SoundDuration":156497,"Delta":175305358},{"NoteNumber":72,"Velocity":68,"Duration":285714,"SoundDuration":285714,"Delta":175469921},{"NoteNumber":60,"Velocity":39,"Duration":1142856,"SoundDuration":1142856,"Delta":175469921},{"NoteNumber":64,"Velocity":47,"Duration":1142856,"SoundDuration":1142856,"Delta":175469921},{"NoteNumber":76,"Velocity":48,"Duration":285714,"SoundDuration":285714,"Delta":176041349},{"NoteNumber":72,"Velocity":40,"Duration":285714,"SoundDuration":285714,"Delta":176041349},{"NoteNumber":76,"Velocity":48,"Duration":285714,"SoundDuration":285714,"Delta":176612778},{"NoteNumber":72,"Velocity":40,"Duration":285714,"SoundDuration":285714,"Delta":176612778},{"NoteNumber":76,"Velocity":48,"Duration":285714,"SoundDuration":285714,"Delta":177184206},{"NoteNumber":72,"Velocity":40,"Duration":285714,"SoundDuration":285714,"Delta":177184206},{"NoteNumber":77,"Velocity":52,"Duration":132743,"SoundDuration":132743,"Delta":177755635},{"NoteNumber":72,"Velocity":44,"Duration":545860,"SoundDuration":545860,"Delta":177755635},{"NoteNumber":76,"Velocity":47,"Duration":132743,"SoundDuration":132743,"Delta":177888378},{"NoteNumber":74,"Velocity":47,"Duration":140186,"SoundDuration":140186,"Delta":178021121},{"NoteNumber":76,"Velocity":48,"Duration":140186,"SoundDuration":140186,"Delta":178161308},{"NoteNumber":76,"Velocity":44,"Duration":560747,"SoundDuration":560747,"Delta":178301495},{"NoteNumber":79,"Velocity":52,"Duration":560747,"SoundDuration":560747,"Delta":178301495},{"NoteNumber":76,"Velocity":60,"Duration":560747,"SoundDuration":560747,"Delta":178862243},{"NoteNumber":72,"Velocity":51,"Duration":560747,"SoundDuration":560747,"Delta":178862243},{"NoteNumber":72,"Velocity":66,"Duration":638297,"SoundDuration":638297,"Delta":179422990},{"NoteNumber":69,"Velocity":55,"Duration":638297,"SoundDuration":638297,"Delta":179422990},{"NoteNumber":65,"Velocity":60,"Duration":1399272,"SoundDuration":1399272,"Delta":180061288},{"NoteNumber":69,"Velocity":72,"Duration":1399272,"SoundDuration":1399272,"Delta":180061288},{"NoteNumber":41,"Velocity":59,"Duration":277777,"SoundDuration":277777,"Delta":181182783},{"NoteNumber":53,"Velocity":70,"Duration":277777,"SoundDuration":277777,"Delta":181182783},{"NoteNumber":69,"Velocity":58,"Duration":277777,"SoundDuration":277777,"Delta":181460561},{"NoteNumber":65,"Velocity":49,"Duration":277777,"SoundDuration":277777,"Delta":181460561},{"NoteNumber":67,"Velocity":49,"Duration":277777,"SoundDuration":277777,"Delta":181738339},{"NoteNumber":71,"Velocity":58,"Duration":277777,"SoundDuration":277777,"Delta":181738339},{"NoteNumber":69,"Velocity":49,"Duration":272727,"SoundDuration":272727,"Delta":182016116},{"NoteNumber":72,"Velocity":58,"Duration":272727,"SoundDuration":272727,"Delta":182016116},{"NoteNumber":72,"Velocity":63,"Duration":277777,"SoundDuration":277777,"Delta":182319147},{"NoteNumber":69,"Velocity":53,"Duration":277777,"SoundDuration":277777,"Delta":182319147},{"NoteNumber":55,"Velocity":63,"Duration":277777,"SoundDuration":277777,"Delta":182319147},{"NoteNumber":43,"Velocity":53,"Duration":277777,"SoundDuration":277777,"Delta":182319147},{"NoteNumber":67,"Velocity":50,"Duration":277777,"SoundDuration":277777,"Delta":182596924},{"NoteNumber":71,"Velocity":59,"Duration":277777,"SoundDuration":277777,"Delta":182596924},{"NoteNumber":65,"Velocity":50,"Duration":277777,"SoundDuration":277777,"Delta":182874702},{"NoteNumber":69,"Velocity":59,"Duration":277777,"SoundDuration":277777,"Delta":182874702},{"NoteNumber":64,"Velocity":50,"Duration":262136,"SoundDuration":262136,"Delta":183152480},{"NoteNumber":67,"Velocity":59,"Duration":262136,"SoundDuration":262136,"Delta":183152480},{"NoteNumber":64,"Velocity":53,"Duration":283018,"SoundDuration":283018,"Delta":183443742},{"NoteNumber":67,"Velocity":63,"Duration":283018,"SoundDuration":283018,"Delta":183443742},{"NoteNumber":43,"Velocity":53,"Duration":283018,"SoundDuration":283018,"Delta":183443742},{"NoteNumber":55,"Velocity":63,"Duration":283018,"SoundDuration":283018,"Delta":183443742},{"NoteNumber":65,"Velocity":53,"Duration":283018,"SoundDuration":283018,"Delta":183726761},{"NoteNumber":62,"Velocity":45,"Duration":283018,"SoundDuration":283018,"Delta":183726761},{"NoteNumber":64,"Velocity":53,"Duration":283018,"SoundDuration":283018,"Delta":184009780},{"NoteNumber":60,"Velocity":45,"Duration":283018,"SoundDuration":283018,"Delta":184009780},{"NoteNumber":59,"Velocity":45,"Duration":284210,"SoundDuration":284210,"Delta":184292798},{"NoteNumber":62,"Velocity":53,"Duration":284210,"SoundDuration":284210,"Delta":184292798},{"NoteNumber":36,"Velocity":63,"Duration":1142856,"SoundDuration":1142856,"Delta":184608588},{"NoteNumber":48,"Velocity":63,"Duration":1142856,"SoundDuration":1142856,"Delta":184608588},{"NoteNumber":72,"Velocity":63,"Duration":190476,"SoundDuration":190476,"Delta":185180016},{"NoteNumber":76,"Velocity":57,"Duration":190476,"SoundDuration":190476,"Delta":185370493},{"NoteNumber":84,"Velocity":57,"Duration":190476,"SoundDuration":190476,"Delta":185560969},{"NoteNumber":72,"Velocity":63,"Duration":188679,"SoundDuration":188679,"Delta":185751445},{"NoteNumber":76,"Velocity":55,"Duration":188679,"SoundDuration":188679,"Delta":185940124},{"NoteNumber":84,"Velocity":55,"Duration":188679,"SoundDuration":188679,"Delta":186128803},{"NoteNumber":72,"Velocity":63,"Duration":188679,"SoundDuration":188679,"Delta":186317482},{"NoteNumber":76,"Velocity":55,"Duration":188679,"SoundDuration":188679,"Delta":186506162},{"NoteNumber":84,"Velocity":55,"Duration":188679,"SoundDuration":188679,"Delta":186694841},{"NoteNumber":72,"Velocity":69,"Duration":185185,"SoundDuration":185185,"Delta":186883520},{"NoteNumber":76,"Velocity":59,"Duration":185185,"SoundDuration":185185,"Delta":187068705},{"NoteNumber":84,"Velocity":61,"Duration":185185,"SoundDuration":185185,"Delta":187253890},{"NoteNumber":76,"Velocity":72,"Duration":185185,"SoundDuration":185185,"Delta":187439075},{"NoteNumber":79,"Velocity":64,"Duration":185185,"SoundDuration":185185,"Delta":187624261},{"NoteNumber":88,"Velocity":66,"Duration":185185,"SoundDuration":185185,"Delta":187809446},{"NoteNumber":72,"Velocity":75,"Duration":183486,"SoundDuration":183486,"Delta":187994631},{"NoteNumber":76,"Velocity":66,"Duration":183486,"SoundDuration":183486,"Delta":188178117},{"NoteNumber":84,"Velocity":69,"Duration":183486,"SoundDuration":183486,"Delta":188361603},{"NoteNumber":69,"Velocity":80,"Duration":183486,"SoundDuration":183486,"Delta":188545089},{"NoteNumber":72,"Velocity":69,"Duration":183486,"SoundDuration":183486,"Delta":188728576},{"NoteNumber":81,"Velocity":71,"Duration":273972,"SoundDuration":273972,"Delta":188912062},{"NoteNumber":65,"Velocity":81,"Duration":1415093,"SoundDuration":1415093,"Delta":189186034},{"NoteNumber":41,"Velocity":59,"Duration":283018,"SoundDuration":283018,"Delta":190318109},{"NoteNumber":53,"Velocity":70,"Duration":283018,"SoundDuration":283018,"Delta":190318109},{"NoteNumber":72,"Velocity":66,"Duration":291262,"SoundDuration":291262,"Delta":190601128},{"NoteNumber":69,"Velocity":56,"Duration":291262,"SoundDuration":291262,"Delta":190601128},{"NoteNumber":67,"Velocity":57,"Duration":291262,"SoundDuration":291262,"Delta":190892390},{"NoteNumber":71,"Velocity":68,"Duration":291262,"SoundDuration":291262,"Delta":190892390},{"NoteNumber":69,"Velocity":63,"Duration":278350,"SoundDuration":278350,"Delta":191183653},{"NoteNumber":65,"Velocity":53,"Duration":278350,"SoundDuration":278350,"Delta":191183653},{"NoteNumber":69,"Velocity":67,"Duration":300000,"SoundDuration":300000,"Delta":191492931},{"NoteNumber":65,"Velocity":56,"Duration":300000,"SoundDuration":300000,"Delta":191492931},{"NoteNumber":55,"Velocity":63,"Duration":300000,"SoundDuration":300000,"Delta":191492931},{"NoteNumber":43,"Velocity":53,"Duration":300000,"SoundDuration":300000,"Delta":191492931},{"NoteNumber":67,"Velocity":65,"Duration":299999,"SoundDuration":299999,"Delta":191792931},{"NoteNumber":64,"Velocity":55,"Duration":299999,"SoundDuration":299999,"Delta":191792931},{"NoteNumber":62,"Velocity":53,"Duration":300000,"SoundDuration":300000,"Delta":192092931},{"NoteNumber":65,"Velocity":63,"Duration":300000,"SoundDuration":300000,"Delta":192092931},{"NoteNumber":60,"Velocity":51,"Duration":269999,"SoundDuration":269999,"Delta":192392931},{"NoteNumber":64,"Velocity":61,"Duration":269999,"SoundDuration":269999,"Delta":192392931},{"NoteNumber":64,"Velocity":63,"Duration":300000,"SoundDuration":300000,"Delta":192692931},{"NoteNumber":53,"Velocity":63,"Duration":600000,"SoundDuration":600000,"Delta":192692931},{"NoteNumber":43,"Velocity":53,"Duration":599999,"SoundDuration":599999,"Delta":192707931},{"NoteNumber":62,"Velocity":56,"Duration":300000,"SoundDuration":300000,"Delta":192992931},{"NoteNumber":60,"Velocity":56,"Duration":299999,"SoundDuration":299999,"Delta":193292931},{"NoteNumber":59,"Velocity":56,"Duration":397058,"SoundDuration":397058,"Delta":193592931},{"NoteNumber":53,"Velocity":47,"Duration":397058,"SoundDuration":397058,"Delta":193592931},{"NoteNumber":59,"Velocity":59,"Duration":2459678,"SoundDuration":2459678,"Delta":194034107},{"NoteNumber":53,"Velocity":59,"Duration":2459678,"SoundDuration":2459678,"Delta":194034107},{"NoteNumber":48,"Velocity":56,"Duration":2459678,"SoundDuration":2459678,"Delta":194034107},{"NoteNumber":36,"Velocity":49,"Duration":766129,"SoundDuration":766129,"Delta":196493786},{"NoteNumber":40,"Velocity":53,"Duration":672043,"SoundDuration":672043,"Delta":196534108},{"NoteNumber":43,"Velocity":56,"Duration":685484,"SoundDuration":685484,"Delta":196574431},{"NoteNumber":55,"Velocity":52,"Duration":645161,"SoundDuration":645161,"Delta":196614753},{"NoteNumber":52,"Velocity":52,"Duration":645161,"SoundDuration":645161,"Delta":196614753},{"NoteNumber":60,"Velocity":52,"Duration":645161,"SoundDuration":645161,"Delta":196614753},{"NoteNumber":48,"Velocity":60,"Duration":645161,"SoundDuration":645161,"Delta":196614753},{"NoteNumber":48,"Velocity":45,"Duration":413636,"SoundDuration":413636,"Delta":199071988},{"NoteNumber":52,"Velocity":48,"Duration":375757,"SoundDuration":375757,"Delta":199109867},{"NoteNumber":55,"Velocity":51,"Duration":337878,"SoundDuration":337878,"Delta":199147745},{"NoteNumber":72,"Velocity":60,"Duration":900000,"SoundDuration":900000,"Delta":199185624},{"NoteNumber":67,"Velocity":51,"Duration":300000,"SoundDuration":300000,"Delta":199185624},{"NoteNumber":64,"Velocity":51,"Duration":300000,"SoundDuration":300000,"Delta":199185624},{"NoteNumber":60,"Velocity":53,"Duration":300000,"SoundDuration":300000,"Delta":199185624},{"NoteNumber":67,"Velocity":56,"Duration":299999,"SoundDuration":299999,"Delta":200085624},{"NoteNumber":77,"Velocity":60,"Duration":297029,"SoundDuration":297029,"Delta":200385624},{"NoteNumber":76,"Velocity":54,"Duration":295573,"SoundDuration":295573,"Delta":200682654},{"NoteNumber":74,"Velocity":54,"Duration":294117,"SoundDuration":294117,"Delta":200978228},{"NoteNumber":72,"Velocity":54,"Duration":312500,"SoundDuration":312500,"Delta":201272345},{"NoteNumber":79,"Velocity":60,"Duration":291262,"SoundDuration":291262,"Delta":201584845},{"NoteNumber":60,"Velocity":44,"Duration":291262,"SoundDuration":291262,"Delta":201584845},{"NoteNumber":70,"Velocity":37,"Duration":291262,"SoundDuration":291262,"Delta":201876108},{"NoteNumber":67,"Velocity":37,"Duration":291262,"SoundDuration":291262,"Delta":202167370},{"NoteNumber":70,"Velocity":37,"Duration":291262,"SoundDuration":291262,"Delta":202458632},{"NoteNumber":60,"Velocity":44,"Duration":291262,"SoundDuration":291262,"Delta":202749894},{"NoteNumber":70,"Velocity":39,"Duration":291262,"SoundDuration":291262,"Delta":203041157},{"NoteNumber":67,"Velocity":39,"Duration":291262,"SoundDuration":291262,"Delta":203332419},{"NoteNumber":70,"Velocity":39,"Duration":306122,"SoundDuration":306122,"Delta":203623681},{"NoteNumber":77,"Velocity":60,"Duration":865384,"SoundDuration":865384,"Delta":203929804},{"NoteNumber":60,"Velocity":44,"Duration":288461,"SoundDuration":288461,"Delta":203929804},{"NoteNumber":69,"Velocity":37,"Duration":288461,"SoundDuration":288461,"Delta":204218265},{"NoteNumber":65,"Velocity":37,"Duration":288461,"SoundDuration":288461,"Delta":204506727},{"NoteNumber":72,"Velocity":56,"Duration":288461,"SoundDuration":288461,"Delta":204795188},{"NoteNumber":69,"Velocity":37,"Duration":288461,"SoundDuration":288461,"Delta":204795188},{"NoteNumber":82,"Velocity":60,"Duration":288461,"SoundDuration":288461,"Delta":205083650},{"NoteNumber":60,"Velocity":44,"Duration":288461,"SoundDuration":288461,"Delta":205083650},{"NoteNumber":81,"Velocity":54,"Duration":288568,"SoundDuration":288568,"Delta":205372111},{"NoteNumber":69,"Velocity":39,"Duration":288568,"SoundDuration":288568,"Delta":205372111},{"NoteNumber":79,"Velocity":54,"Duration":294117,"SoundDuration":294117,"Delta":205660679},{"NoteNumber":65,"Velocity":39,"Duration":294117,"SoundDuration":294117,"Delta":205660679},{"NoteNumber":77,"Velocity":54,"Duration":306122,"SoundDuration":306122,"Delta":205954797},{"NoteNumber":69,"Velocity":39,"Duration":306122,"SoundDuration":306122,"Delta":205954797},{"NoteNumber":84,"Velocity":60,"Duration":294117,"SoundDuration":294117,"Delta":206260920},{"NoteNumber":60,"Velocity":44,"Duration":294117,"SoundDuration":294117,"Delta":206260920},{"NoteNumber":67,"Velocity":37,"Duration":294117,"SoundDuration":294117,"Delta":206555037},{"NoteNumber":64,"Velocity":37,"Duration":291262,"SoundDuration":291262,"Delta":206849155},{"NoteNumber":67,"Velocity":37,"Duration":291262,"SoundDuration":291262,"Delta":207140417},{"NoteNumber":60,"Velocity":44,"Duration":291262,"SoundDuration":291262,"Delta":207431680},{"NoteNumber":67,"Velocity":39,"Duration":291262,"SoundDuration":291262,"Delta":207722942},{"NoteNumber":64,"Velocity":39,"Duration":291262,"SoundDuration":291262,"Delta":208014204},{"NoteNumber":83,"Velocity":60,"Duration":97087,"SoundDuration":97087,"Delta":208305466},{"NoteNumber":67,"Velocity":39,"Duration":291262,"SoundDuration":291262,"Delta":208305466},{"NoteNumber":84,"Velocity":62,"Duration":97087,"SoundDuration":97087,"Delta":208402554},{"NoteNumber":86,"Velocity":64,"Duration":97041,"SoundDuration":97041,"Delta":208502068},{"NoteNumber":84,"Velocity":67,"Duration":1999999,"SoundDuration":1999999,"Delta":208596729},{"NoteNumber":57,"Velocity":44,"Duration":285714,"SoundDuration":285714,"Delta":208596729},{"NoteNumber":63,"Velocity":39,"Duration":285714,"SoundDuration":285714,"Delta":208882443},{"NoteNumber":60,"Velocity":39,"Duration":285714,"SoundDuration":285714,"Delta":209168157},{"NoteNumber":63,"Velocity":39,"Duration":285714,"SoundDuration":285714,"Delta":209453871},{"NoteNumber":57,"Velocity":44,"Duration":285714,"SoundDuration":285714,"Delta":209739586},{"NoteNumber":63,"Velocity":39,"Duration":285714,"SoundDuration":285714,"Delta":210025300},{"NoteNumber":60,"Velocity":39,"Duration":285714,"SoundDuration":285714,"Delta":210311014},{"NoteNumber":82,"Velocity":60,"Duration":95238,"SoundDuration":95238,"Delta":210596728},{"NoteNumber":63,"Velocity":39,"Duration":285714,"SoundDuration":285714,"Delta":210596728},{"NoteNumber":81,"Velocity":60,"Duration":95238,"SoundDuration":95238,"Delta":210691967},{"NoteNumber":79,"Velocity":60,"Duration":95238,"SoundDuration":95238,"Delta":210789586},{"NoteNumber":78,"Velocity":68,"Duration":285714,"SoundDuration":285714,"Delta":210882443},{"NoteNumber":57,"Velocity":44,"Duration":285714,"SoundDuration":285714,"Delta":210882443},{"NoteNumber":75,"Velocity":63,"Duration":285714,"SoundDuration":285714,"Delta":211168157},{"NoteNumber":63,"Velocity":40,"Duration":285714,"SoundDuration":285714,"Delta":211168157},{"NoteNumber":74,"Velocity":63,"Duration":285714,"SoundDuration":285714,"Delta":211453871},{"NoteNumber":60,"Velocity":41,"Duration":285714,"SoundDuration":285714,"Delta":211453871},{"NoteNumber":72,"Velocity":64,"Duration":285714,"SoundDuration":285714,"Delta":211739585},{"NoteNumber":63,"Velocity":42,"Duration":285714,"SoundDuration":285714,"Delta":211739585},{"NoteNumber":70,"Velocity":68,"Duration":285714,"SoundDuration":285714,"Delta":212025300},{"NoteNumber":57,"Velocity":49,"Duration":285714,"SoundDuration":285714,"Delta":212025300},{"NoteNumber":69,"Velocity":70,"Duration":285714,"SoundDuration":285714,"Delta":212311014},{"NoteNumber":63,"Velocity":45,"Duration":285714,"SoundDuration":285714,"Delta":212311014},{"NoteNumber":67,"Velocity":71,"Duration":285714,"SoundDuration":285714,"Delta":212596728},{"NoteNumber":60,"Velocity":46,"Duration":285714,"SoundDuration":285714,"Delta":212596728},{"NoteNumber":66,"Velocity":73,"Duration":315789,"SoundDuration":315789,"Delta":212882442},{"NoteNumber":63,"Velocity":47,"Duration":315789,"SoundDuration":315789,"Delta":212882442},{"NoteNumber":67,"Velocity":74,"Duration":268348,"SoundDuration":268348,"Delta":213198232},{"NoteNumber":58,"Velocity":55,"Duration":275229,"SoundDuration":275229,"Delta":213198232},{"NoteNumber":67,"Velocity":48,"Duration":275229,"SoundDuration":275229,"Delta":213473461},{"NoteNumber":70,"Velocity":77,"Duration":285714,"SoundDuration":285714,"Delta":213748690},{"NoteNumber":62,"Velocity":48,"Duration":285714,"SoundDuration":285714,"Delta":213748690},{"NoteNumber":67,"Velocity":48,"Duration":285714,"SoundDuration":285714,"Delta":214034405},{"NoteNumber":74,"Velocity":82,"Duration":275229,"SoundDuration":275229,"Delta":214320119},{"NoteNumber":58,"Velocity":55,"Duration":275229,"SoundDuration":275229,"Delta":214320119},{"NoteNumber":67,"Velocity":48,"Duration":275229,"SoundDuration":275229,"Delta":214595348},{"NoteNumber":79,"Velocity":84,"Duration":280373,"SoundDuration":280373,"Delta":214870577},{"NoteNumber":62,"Velocity":48,"Duration":280373,"SoundDuration":280373,"Delta":214870577},{"NoteNumber":67,"Velocity":48,"Duration":312500,"SoundDuration":312500,"Delta":215150951},{"NoteNumber":82,"Velocity":86,"Duration":280373,"SoundDuration":280373,"Delta":215463451},{"NoteNumber":58,"Velocity":55,"Duration":280373,"SoundDuration":280373,"Delta":215463451},{"NoteNumber":67,"Velocity":48,"Duration":280373,"SoundDuration":280373,"Delta":215743825},{"NoteNumber":62,"Velocity":48,"Duration":280373,"SoundDuration":280373,"Delta":216024199},{"NoteNumber":67,"Velocity":48,"Duration":280373,"SoundDuration":280373,"Delta":216304572},{"NoteNumber":58,"Velocity":55,"Duration":280373,"SoundDuration":280373,"Delta":216584946},{"NoteNumber":67,"Velocity":48,"Duration":280373,"SoundDuration":280373,"Delta":216865320},{"NoteNumber":62,"Velocity":48,"Duration":280373,"SoundDuration":280373,"Delta":217145694},{"NoteNumber":67,"Velocity":48,"Duration":280373,"SoundDuration":280373,"Delta":217426067},{"NoteNumber":86,"Velocity":90,"Duration":285714,"SoundDuration":285714,"Delta":217706441},{"NoteNumber":58,"Velocity":55,"Duration":285714,"SoundDuration":285714,"Delta":217706441},{"NoteNumber":67,"Velocity":45,"Duration":285714,"SoundDuration":285714,"Delta":217992155},{"NoteNumber":86,"Velocity":90,"Duration":1137465,"SoundDuration":1137465,"Delta":218277870},{"NoteNumber":64,"Velocity":45,"Duration":285714,"SoundDuration":285714,"Delta":218277870},{"NoteNumber":67,"Velocity":45,"Duration":285714,"SoundDuration":285714,"Delta":218563584},{"NoteNumber":58,"Velocity":52,"Duration":283018,"SoundDuration":283018,"Delta":218849298},{"NoteNumber":67,"Velocity":42,"Duration":283018,"SoundDuration":283018,"Delta":219132317},{"NoteNumber":84,"Velocity":72,"Duration":141509,"SoundDuration":141509,"Delta":219415336},{"NoteNumber":64,"Velocity":42,"Duration":283018,"SoundDuration":283018,"Delta":219415336},{"NoteNumber":82,"Velocity":73,"Duration":141509,"SoundDuration":141509,"Delta":219556845},{"NoteNumber":81,"Velocity":74,"Duration":156250,"SoundDuration":156250,"Delta":219698354},{"NoteNumber":67,"Velocity":42,"Duration":312500,"SoundDuration":312500,"Delta":219698354},{"NoteNumber":79,"Velocity":74,"Duration":156250,"SoundDuration":156250,"Delta":219854604},{"NoteNumber":84,"Velocity":84,"Duration":280373,"SoundDuration":280373,"Delta":220010854},{"NoteNumber":57,"Velocity":55,"Duration":280373,"SoundDuration":280373,"Delta":220010854},{"NoteNumber":65,"Velocity":46,"Duration":280373,"SoundDuration":280373,"Delta":220291228},{"NoteNumber":84,"Velocity":84,"Duration":1121495,"SoundDuration":1121495,"Delta":220571602},{"NoteNumber":60,"Velocity":46,"Duration":280373,"SoundDuration":280373,"Delta":220571602},{"NoteNumber":65,"Velocity":46,"Duration":280373,"SoundDuration":280373,"Delta":220851976},{"NoteNumber":57,"Velocity":55,"Duration":280373,"SoundDuration":280373,"Delta":221132349},{"NoteNumber":65,"Velocity":48,"Duration":280373,"SoundDuration":280373,"Delta":221412723},{"NoteNumber":82,"Velocity":70,"Duration":140186,"SoundDuration":140186,"Delta":221693097},{"NoteNumber":60,"Velocity":48,"Duration":280373,"SoundDuration":280373,"Delta":221693097},{"NoteNumber":81,"Velocity":72,"Duration":140186,"SoundDuration":140186,"Delta":221833284},{"NoteNumber":79,"Velocity":73,"Duration":153061,"SoundDuration":153061,"Delta":221973471},{"NoteNumber":65,"Velocity":43,"Duration":306122,"SoundDuration":306122,"Delta":221973471},{"NoteNumber":77,"Velocity":75,"Duration":153061,"SoundDuration":153061,"Delta":222126532},{"NoteNumber":84,"Velocity":77,"Duration":280373,"SoundDuration":280373,"Delta":222279593},{"NoteNumber":52,"Velocity":50,"Duration":280373,"SoundDuration":280373,"Delta":222279593},{"NoteNumber":82,"Velocity":68,"Duration":210280,"SoundDuration":210280,"Delta":222559967},{"NoteNumber":60,"Velocity":38,"Duration":280373,"SoundDuration":280373,"Delta":222559967},{"NoteNumber":82,"Velocity":72,"Duration":280373,"SoundDuration":280373,"Delta":222840341},{"NoteNumber":55,"Velocity":38,"Duration":280373,"SoundDuration":280373,"Delta":222840341},{"NoteNumber":81,"Velocity":67,"Duration":210280,"SoundDuration":210280,"Delta":223120714},{"NoteNumber":60,"Velocity":38,"Duration":280373,"SoundDuration":280373,"Delta":223120714},{"NoteNumber":81,"Velocity":72,"Duration":560747,"SoundDuration":560747,"Delta":223401088},{"NoteNumber":53,"Velocity":48,"Duration":280373,"SoundDuration":280373,"Delta":223401088},{"NoteNumber":60,"Velocity":40,"Duration":280373,"SoundDuration":280373,"Delta":223681462},{"NoteNumber":57,"Velocity":40,"Duration":280373,"SoundDuration":280373,"Delta":223961836},{"NoteNumber":60,"Velocity":34,"Duration":294117,"SoundDuration":294117,"Delta":224242209},{"NoteNumber":84,"Velocity":61,"Duration":277777,"SoundDuration":277777,"Delta":224536327},{"NoteNumber":52,"Velocity":40,"Duration":277777,"SoundDuration":277777,"Delta":224536327},{"NoteNumber":82,"Velocity":57,"Duration":208333,"SoundDuration":208333,"Delta":224814105},{"NoteNumber":60,"Velocity":31,"Duration":277777,"SoundDuration":277777,"Delta":224814105},{"NoteNumber":82,"Velocity":61,"Duration":277777,"SoundDuration":277777,"Delta":225091883},{"NoteNumber":55,"Velocity":31,"Duration":277777,"SoundDuration":277777,"Delta":225091883},{"NoteNumber":81,"Velocity":54,"Duration":208333,"SoundDuration":208333,"Delta":225369660},{"NoteNumber":60,"Velocity":31,"Duration":277777,"SoundDuration":277777,"Delta":225369660},{"NoteNumber":81,"Velocity":60,"Duration":555555,"SoundDuration":555555,"Delta":225647438},{"NoteNumber":53,"Velocity":34,"Duration":277777,"SoundDuration":277777,"Delta":225647438},{"NoteNumber":60,"Velocity":27,"Duration":277777,"SoundDuration":277777,"Delta":225925216},{"NoteNumber":57,"Velocity":27,"Duration":277777,"SoundDuration":277777,"Delta":226202994},{"NoteNumber":60,"Velocity":27,"Duration":277777,"SoundDuration":277777,"Delta":226480771},{"NoteNumber":84,"Velocity":69,"Duration":70093,"SoundDuration":70093,"Delta":226758549},{"NoteNumber":52,"Velocity":53,"Duration":280373,"SoundDuration":280373,"Delta":226758549},{"NoteNumber":86,"Velocity":63,"Duration":70093,"SoundDuration":70093,"Delta":226828643},{"NoteNumber":84,"Velocity":69,"Duration":70093,"SoundDuration":70093,"Delta":226898736},{"NoteNumber":86,"Velocity":61,"Duration":70093,"SoundDuration":70093,"Delta":226968830},{"NoteNumber":82,"Velocity":68,"Duration":210280,"SoundDuration":210280,"Delta":227038923},{"NoteNumber":60,"Velocity":40,"Duration":280373,"SoundDuration":280373,"Delta":227038923},{"NoteNumber":82,"Velocity":68,"Duration":70093,"SoundDuration":70093,"Delta":227319297},{"NoteNumber":55,"Velocity":40,"Duration":280373,"SoundDuration":280373,"Delta":227319297},{"NoteNumber":84,"Velocity":61,"Duration":70093,"SoundDuration":70093,"Delta":227389390},{"NoteNumber":82,"Velocity":68,"Duration":70093,"SoundDuration":70093,"Delta":227459484},{"NoteNumber":84,"Velocity":62,"Duration":70093,"SoundDuration":70093,"Delta":227529577},{"NoteNumber":81,"Velocity":67,"Duration":210280,"SoundDuration":210280,"Delta":227599670},{"NoteNumber":60,"Velocity":40,"Duration":280373,"SoundDuration":280373,"Delta":227599670},{"NoteNumber":81,"Velocity":72,"Duration":560747,"SoundDuration":560747,"Delta":227880044},{"NoteNumber":53,"Velocity":48,"Duration":280373,"SoundDuration":280373,"Delta":227880044},{"NoteNumber":60,"Velocity":40,"Duration":280373,"SoundDuration":280373,"Delta":228160418},{"NoteNumber":57,"Velocity":40,"Duration":280373,"SoundDuration":280373,"Delta":228440792},{"NoteNumber":60,"Velocity":34,"Duration":294117,"SoundDuration":294117,"Delta":228721165},{"NoteNumber":82,"Velocity":62,"Duration":73529,"SoundDuration":73529,"Delta":228941754},{"NoteNumber":81,"Velocity":70,"Duration":277777,"SoundDuration":277777,"Delta":229015283},{"NoteNumber":58,"Velocity":46,"Duration":277777,"SoundDuration":277777,"Delta":229015283},{"NoteNumber":79,"Velocity":65,"Duration":208333,"SoundDuration":208333,"Delta":229293061},{"NoteNumber":67,"Velocity":35,"Duration":277777,"SoundDuration":277777,"Delta":229293061},{"NoteNumber":81,"Velocity":62,"Duration":69444,"SoundDuration":69444,"Delta":229501394},{"NoteNumber":79,"Velocity":70,"Duration":277777,"SoundDuration":277777,"Delta":229570839},{"NoteNumber":62,"Velocity":35,"Duration":277777,"SoundDuration":277777,"Delta":229570839},{"NoteNumber":77,"Velocity":62,"Duration":277777,"SoundDuration":277777,"Delta":229848616},{"NoteNumber":67,"Velocity":35,"Duration":277777,"SoundDuration":277777,"Delta":229848616},{"NoteNumber":77,"Velocity":69,"Duration":555555,"SoundDuration":555555,"Delta":230126394},{"NoteNumber":59,"Velocity":45,"Duration":277777,"SoundDuration":277777,"Delta":230126394},{"NoteNumber":67,"Velocity":36,"Duration":277777,"SoundDuration":277777,"Delta":230404172},{"NoteNumber":62,"Velocity":36,"Duration":277777,"SoundDuration":277777,"Delta":230681950},{"NoteNumber":67,"Velocity":36,"Duration":277777,"SoundDuration":277777,"Delta":230959727},{"NoteNumber":77,"Velocity":65,"Duration":285714,"SoundDuration":285714,"Delta":231237505},{"NoteNumber":60,"Velocity":43,"Duration":285714,"SoundDuration":285714,"Delta":231237505},{"NoteNumber":76,"Velocity":57,"Duration":285714,"SoundDuration":285714,"Delta":231523219},{"NoteNumber":67,"Velocity":34,"Duration":285714,"SoundDuration":285714,"Delta":231523219},{"NoteNumber":74,"Velocity":61,"Duration":285714,"SoundDuration":285714,"Delta":231808934},{"NoteNumber":64,"Velocity":34,"Duration":285714,"SoundDuration":285714,"Delta":231808934},{"NoteNumber":72,"Velocity":54,"Duration":214285,"SoundDuration":214285,"Delta":232094648},{"NoteNumber":67,"Velocity":34,"Duration":285714,"SoundDuration":285714,"Delta":232094648},{"NoteNumber":72,"Velocity":60,"Duration":566037,"SoundDuration":566037,"Delta":232380362},{"NoteNumber":60,"Velocity":42,"Duration":283018,"SoundDuration":283018,"Delta":232380362},{"NoteNumber":67,"Velocity":32,"Duration":283018,"SoundDuration":283018,"Delta":232663381},{"NoteNumber":72,"Velocity":54,"Duration":566037,"SoundDuration":566037,"Delta":232946400},{"NoteNumber":64,"Velocity":32,"Duration":283018,"SoundDuration":283018,"Delta":232946400},{"NoteNumber":67,"Velocity":32,"Duration":283018,"SoundDuration":283018,"Delta":233229418},{"NoteNumber":74,"Velocity":54,"Duration":145631,"SoundDuration":145631,"Delta":233512437},{"NoteNumber":60,"Velocity":37,"Duration":291262,"SoundDuration":291262,"Delta":233512437},{"NoteNumber":72,"Velocity":54,"Duration":145631,"SoundDuration":145631,"Delta":233658068},{"NoteNumber":71,"Velocity":54,"Duration":145631,"SoundDuration":145631,"Delta":233803699},{"NoteNumber":62,"Velocity":29,"Duration":291262,"SoundDuration":291262,"Delta":233803699},{"NoteNumber":72,"Velocity":60,"Duration":485437,"SoundDuration":485437,"Delta":233949331},{"NoteNumber":58,"Velocity":38,"Duration":291262,"SoundDuration":291262,"Delta":234094962},{"NoteNumber":60,"Velocity":32,"Duration":291262,"SoundDuration":291262,"Delta":234386224},{"NoteNumber":57,"Velocity":34,"Duration":294151,"SoundDuration":294151,"Delta":234677486},{"NoteNumber":58,"Velocity":27,"Duration":298840,"SoundDuration":298840,"Delta":234971638},{"NoteNumber":55,"Velocity":34,"Duration":304344,"SoundDuration":304344,"Delta":235270479},{"NoteNumber":57,"Velocity":28,"Duration":307396,"SoundDuration":307396,"Delta":235574823},{"NoteNumber":72,"Velocity":60,"Duration":1188119,"SoundDuration":1188119,"Delta":235882219},{"NoteNumber":53,"Velocity":37,"Duration":297029,"SoundDuration":297029,"Delta":235882219},{"NoteNumber":60,"Velocity":31,"Duration":297029,"SoundDuration":297029,"Delta":236179249},{"NoteNumber":57,"Velocity":28,"Duration":297029,"SoundDuration":297029,"Delta":236476279},{"NoteNumber":60,"Velocity":28,"Duration":297029,"SoundDuration":297029,"Delta":236773309},{"NoteNumber":70,"Velocity":55,"Duration":294117,"SoundDuration":294117,"Delta":237070338},{"NoteNumber":53,"Velocity":40,"Duration":294117,"SoundDuration":294117,"Delta":237070338},{"NoteNumber":69,"Velocity":50,"Duration":294117,"SoundDuration":294117,"Delta":237364456},{"NoteNumber":60,"Velocity":31,"Duration":294117,"SoundDuration":294117,"Delta":237364456},{"NoteNumber":67,"Velocity":55,"Duration":294117,"SoundDuration":294117,"Delta":237658574},{"NoteNumber":57,"Velocity":31,"Duration":294117,"SoundDuration":294117,"Delta":237658574},{"NoteNumber":65,"Velocity":49,"Duration":239361,"SoundDuration":239361,"Delta":237952692},{"NoteNumber":60,"Velocity":31,"Duration":319149,"SoundDuration":319149,"Delta":237952692},{"NoteNumber":65,"Velocity":55,"Duration":1176470,"SoundDuration":1176470,"Delta":238271841},{"NoteNumber":55,"Velocity":40,"Duration":294117,"SoundDuration":294117,"Delta":238271841},{"NoteNumber":60,"Velocity":30,"Duration":294117,"SoundDuration":294117,"Delta":238565958},{"NoteNumber":58,"Velocity":30,"Duration":294117,"SoundDuration":294117,"Delta":238860076},{"NoteNumber":60,"Velocity":30,"Duration":294117,"SoundDuration":294117,"Delta":239154194},{"NoteNumber":64,"Velocity":55,"Duration":138888,"SoundDuration":138888,"Delta":239448312},{"NoteNumber":55,"Velocity":40,"Duration":277777,"SoundDuration":277777,"Delta":239448312},{"NoteNumber":65,"Velocity":51,"Duration":138888,"SoundDuration":138888,"Delta":239587201},{"NoteNumber":64,"Velocity":57,"Duration":588235,"SoundDuration":588235,"Delta":239726089},{"NoteNumber":60,"Velocity":33,"Duration":294117,"SoundDuration":294117,"Delta":239726089},{"NoteNumber":58,"Velocity":33,"Duration":294117,"SoundDuration":294117,"Delta":240020207},{"NoteNumber":64,"Velocity":51,"Duration":294117,"SoundDuration":294117,"Delta":240314325},{"NoteNumber":60,"Velocity":33,"Duration":294117,"SoundDuration":294117,"Delta":240314325},{"NoteNumber":65,"Velocity":55,"Duration":291262,"SoundDuration":291262,"Delta":240608443},{"NoteNumber":53,"Velocity":40,"Duration":291262,"SoundDuration":291262,"Delta":240608443},{"NoteNumber":67,"Velocity":52,"Duration":291262,"SoundDuration":291262,"Delta":240899705},{"NoteNumber":60,"Velocity":32,"Duration":291262,"SoundDuration":291262,"Delta":240899705},{"NoteNumber":69,"Velocity":54,"Duration":291262,"SoundDuration":291262,"Delta":241190967},{"NoteNumber":57,"Velocity":32,"Duration":291262,"SoundDuration":291262,"Delta":241190967},{"NoteNumber":70,"Velocity":55,"Duration":291262,"SoundDuration":291262,"Delta":241482229},{"NoteNumber":60,"Velocity":32,"Duration":291262,"SoundDuration":291262,"Delta":241482229},{"NoteNumber":72,"Velocity":59,"Duration":288461,"SoundDuration":288461,"Delta":241773492},{"NoteNumber":53,"Velocity":40,"Duration":288461,"SoundDuration":288461,"Delta":241773492},{"NoteNumber":74,"Velocity":61,"Duration":288461,"SoundDuration":288461,"Delta":242061953},{"NoteNumber":60,"Velocity":33,"Duration":288461,"SoundDuration":288461,"Delta":242061953},{"NoteNumber":76,"Velocity":64,"Duration":288461,"SoundDuration":288461,"Delta":242350415},{"NoteNumber":57,"Velocity":35,"Duration":288461,"SoundDuration":288461,"Delta":242350415},{"NoteNumber":77,"Velocity":66,"Duration":231958,"SoundDuration":231958,"Delta":242638876},{"NoteNumber":60,"Velocity":37,"Duration":309278,"SoundDuration":309278,"Delta":242638876},{"NoteNumber":77,"Velocity":66,"Duration":288461,"SoundDuration":288461,"Delta":242948154},{"NoteNumber":55,"Velocity":47,"Duration":288461,"SoundDuration":288461,"Delta":242948154},{"NoteNumber":76,"Velocity":64,"Duration":288461,"SoundDuration":288461,"Delta":243236616},{"NoteNumber":60,"Velocity":35,"Duration":288461,"SoundDuration":288461,"Delta":243236616},{"NoteNumber":74,"Velocity":61,"Duration":141509,"SoundDuration":141509,"Delta":243525077},{"NoteNumber":58,"Velocity":35,"Duration":141509,"SoundDuration":141509,"Delta":243525077},{"NoteNumber":72,"Velocity":59,"Duration":141509,"SoundDuration":141509,"Delta":243808096},{"NoteNumber":60,"Velocity":35,"Duration":141509,"SoundDuration":141509,"Delta":243808096},{"NoteNumber":72,"Velocity":57,"Duration":283018,"SoundDuration":283018,"Delta":244091115},{"NoteNumber":55,"Velocity":44,"Duration":283018,"SoundDuration":283018,"Delta":244091115},{"NoteNumber":70,"Velocity":55,"Duration":283018,"SoundDuration":283018,"Delta":244374134},{"NoteNumber":60,"Velocity":33,"Duration":283018,"SoundDuration":283018,"Delta":244374134},{"NoteNumber":69,"Velocity":52,"Duration":141509,"SoundDuration":141509,"Delta":244657152},{"NoteNumber":58,"Velocity":33,"Duration":141509,"SoundDuration":141509,"Delta":244657152},{"NoteNumber":67,"Velocity":50,"Duration":174418,"SoundDuration":174418,"Delta":244940171},{"NoteNumber":60,"Velocity":33,"Duration":174418,"SoundDuration":174418,"Delta":244940171},{"NoteNumber":84,"Velocity":72,"Duration":865384,"SoundDuration":865384,"Delta":245289008},{"NoteNumber":53,"Velocity":40,"Duration":288461,"SoundDuration":288461,"Delta":245289008},{"NoteNumber":60,"Velocity":32,"Duration":288461,"SoundDuration":288461,"Delta":245577470},{"NoteNumber":57,"Velocity":32,"Duration":288461,"SoundDuration":288461,"Delta":245865931},{"NoteNumber":86,"Velocity":64,"Duration":144230,"SoundDuration":144230,"Delta":246154393},{"NoteNumber":60,"Velocity":32,"Duration":288461,"SoundDuration":288461,"Delta":246154393},{"NoteNumber":84,"Velocity":60,"Duration":144230,"SoundDuration":144230,"Delta":246298624},{"NoteNumber":82,"Velocity":68,"Duration":285714,"SoundDuration":285714,"Delta":246442854},{"NoteNumber":53,"Velocity":40,"Duration":285714,"SoundDuration":285714,"Delta":246442854},{"NoteNumber":81,"Velocity":60,"Duration":285714,"SoundDuration":285714,"Delta":246728569},{"NoteNumber":60,"Velocity":31,"Duration":285714,"SoundDuration":285714,"Delta":246728569},{"NoteNumber":79,"Velocity":62,"Duration":285714,"SoundDuration":285714,"Delta":247014283},{"NoteNumber":57,"Velocity":31,"Duration":285714,"SoundDuration":285714,"Delta":247014283},{"NoteNumber":77,"Velocity":60,"Duration":234375,"SoundDuration":234375,"Delta":247299997},{"NoteNumber":60,"Velocity":31,"Duration":312500,"SoundDuration":312500,"Delta":247299997},{"NoteNumber":77,"Velocity":70,"Duration":1153845,"SoundDuration":1153845,"Delta":247612497},{"NoteNumber":55,"Velocity":40,"Duration":288461,"SoundDuration":288461,"Delta":247612497},{"NoteNumber":60,"Velocity":30,"Duration":288461,"SoundDuration":288461,"Delta":247900959},{"NoteNumber":58,"Velocity":30,"Duration":288461,"SoundDuration":288461,"Delta":248189420},{"NoteNumber":60,"Velocity":30,"Duration":288461,"SoundDuration":288461,"Delta":248477882},{"NoteNumber":76,"Velocity":60,"Duration":135135,"SoundDuration":135135,"Delta":248766343},{"NoteNumber":55,"Velocity":40,"Duration":270270,"SoundDuration":270270,"Delta":248766343},{"NoteNumber":77,"Velocity":56,"Duration":135135,"SoundDuration":135135,"Delta":248901478},{"NoteNumber":76,"Velocity":60,"Duration":566037,"SoundDuration":566037,"Delta":249036613},{"NoteNumber":60,"Velocity":33,"Duration":283018,"SoundDuration":283018,"Delta":249036613},{"NoteNumber":58,"Velocity":33,"Duration":283018,"SoundDuration":283018,"Delta":249319632},{"NoteNumber":82,"Velocity":57,"Duration":283018,"SoundDuration":283018,"Delta":249602651},{"NoteNumber":60,"Velocity":33,"Duration":283018,"SoundDuration":283018,"Delta":249602651},{"NoteNumber":81,"Velocity":66,"Duration":140186,"SoundDuration":140186,"Delta":249885670},{"NoteNumber":53,"Velocity":40,"Duration":140186,"SoundDuration":140186,"Delta":249885670},{"NoteNumber":82,"Velocity":60,"Duration":140186,"SoundDuration":140186,"Delta":250166043},{"NoteNumber":60,"Velocity":32,"Duration":140186,"SoundDuration":140186,"Delta":250166043},{"NoteNumber":84,"Velocity":66,"Duration":141509,"SoundDuration":141509,"Delta":250446417},{"NoteNumber":57,"Velocity":32,"Duration":141509,"SoundDuration":141509,"Delta":250446417},{"NoteNumber":86,"Velocity":67,"Duration":140186,"SoundDuration":140186,"Delta":250729436},{"NoteNumber":60,"Velocity":32,"Duration":140186,"SoundDuration":140186,"Delta":250729436},{"NoteNumber":88,"Velocity":77,"Duration":138888,"SoundDuration":138888,"Delta":251009810},{"NoteNumber":53,"Velocity":46,"Duration":138888,"SoundDuration":138888,"Delta":251009810},{"NoteNumber":89,"Velocity":71,"Duration":140186,"SoundDuration":140186,"Delta":251287587},{"NoteNumber":60,"Velocity":35,"Duration":140186,"SoundDuration":140186,"Delta":251287587},{"NoteNumber":88,"Velocity":74,"Duration":141509,"SoundDuration":141509,"Delta":251567961},{"NoteNumber":57,"Velocity":36,"Duration":141509,"SoundDuration":141509,"Delta":251567961},{"NoteNumber":89,"Velocity":72,"Duration":150000,"SoundDuration":150000,"Delta":251850980},{"NoteNumber":60,"Velocity":38,"Duration":150000,"SoundDuration":150000,"Delta":251850980},{"NoteNumber":89,"Velocity":80,"Duration":285714,"SoundDuration":285714,"Delta":252150980},{"NoteNumber":55,"Velocity":49,"Duration":285714,"SoundDuration":285714,"Delta":252150980},{"NoteNumber":88,"Velocity":72,"Duration":285714,"SoundDuration":285714,"Delta":252436694},{"NoteNumber":60,"Velocity":39,"Duration":285714,"SoundDuration":285714,"Delta":252436694},{"NoteNumber":86,"Velocity":73,"Duration":285714,"SoundDuration":285714,"Delta":252722408},{"NoteNumber":58,"Velocity":39,"Duration":285714,"SoundDuration":285714,"Delta":252722408},{"NoteNumber":84,"Velocity":70,"Duration":214285,"SoundDuration":214285,"Delta":253008123},{"NoteNumber":60,"Velocity":39,"Duration":285714,"SoundDuration":285714,"Delta":253008123},{"NoteNumber":84,"Velocity":75,"Duration":285714,"SoundDuration":285714,"Delta":253293837},{"NoteNumber":55,"Velocity":50,"Duration":285714,"SoundDuration":285714,"Delta":253293837},{"NoteNumber":82,"Velocity":70,"Duration":285714,"SoundDuration":285714,"Delta":253579551},{"NoteNumber":60,"Velocity":40,"Duration":285714,"SoundDuration":285714,"Delta":253579551},{"NoteNumber":81,"Velocity":68,"Duration":285714,"SoundDuration":285714,"Delta":253865265},{"NoteNumber":58,"Velocity":40,"Duration":285714,"SoundDuration":285714,"Delta":253865265},{"NoteNumber":79,"Velocity":67,"Duration":306122,"SoundDuration":306122,"Delta":254150980},{"NoteNumber":60,"Velocity":40,"Duration":306122,"SoundDuration":306122,"Delta":254150980},{"NoteNumber":81,"Velocity":68,"Duration":285714,"SoundDuration":285714,"Delta":254457102},{"NoteNumber":53,"Velocity":48,"Duration":285714,"SoundDuration":285714,"Delta":254457102},{"NoteNumber":82,"Velocity":68,"Duration":288461,"SoundDuration":288461,"Delta":254742816},{"NoteNumber":60,"Velocity":32,"Duration":288461,"SoundDuration":288461,"Delta":254742816},{"NoteNumber":81,"Velocity":75,"Duration":288461,"SoundDuration":288461,"Delta":255031278},{"NoteNumber":57,"Velocity":32,"Duration":288461,"SoundDuration":288461,"Delta":255031278},{"NoteNumber":82,"Velocity":74,"Duration":285714,"SoundDuration":285714,"Delta":255319739},{"NoteNumber":60,"Velocity":32,"Duration":285714,"SoundDuration":285714,"Delta":255319739},{"NoteNumber":84,"Velocity":83,"Duration":288461,"SoundDuration":288461,"Delta":255605454},{"NoteNumber":53,"Velocity":52,"Duration":288461,"SoundDuration":288461,"Delta":255605454},{"NoteNumber":86,"Velocity":81,"Duration":297029,"SoundDuration":297029,"Delta":255893915},{"NoteNumber":60,"Velocity":39,"Duration":297029,"SoundDuration":297029,"Delta":255893915},{"NoteNumber":84,"Velocity":91,"Duration":288461,"SoundDuration":288461,"Delta":256190945},{"NoteNumber":57,"Velocity":42,"Duration":288461,"SoundDuration":288461,"Delta":256190945},{"NoteNumber":86,"Velocity":85,"Duration":326086,"SoundDuration":326086,"Delta":256479406},{"NoteNumber":60,"Velocity":45,"Duration":326086,"SoundDuration":326086,"Delta":256479406},{"NoteNumber":87,"Velocity":97,"Duration":2331730,"SoundDuration":2331730,"Delta":256805493},{"NoteNumber":75,"Velocity":82,"Duration":2331730,"SoundDuration":2331730,"Delta":256805493},{"NoteNumber":57,"Velocity":65,"Duration":288461,"SoundDuration":288461,"Delta":256805493},{"NoteNumber":65,"Velocity":55,"Duration":288461,"SoundDuration":288461,"Delta":257093955},{"NoteNumber":60,"Velocity":55,"Duration":288461,"SoundDuration":288461,"Delta":257382416},{"NoteNumber":65,"Velocity":55,"Duration":288461,"SoundDuration":288461,"Delta":257670878},{"NoteNumber":57,"Velocity":63,"Duration":288461,"SoundDuration":288461,"Delta":257959339},{"NoteNumber":65,"Velocity":51,"Duration":288461,"SoundDuration":288461,"Delta":258247801},{"NoteNumber":60,"Velocity":51,"Duration":288461,"SoundDuration":288461,"Delta":258536262},{"NoteNumber":65,"Velocity":51,"Duration":312500,"SoundDuration":312500,"Delta":258824724},{"NoteNumber":58,"Velocity":58,"Duration":291262,"SoundDuration":291262,"Delta":259137224},{"NoteNumber":86,"Velocity":70,"Duration":285714,"SoundDuration":285714,"Delta":259428486},{"NoteNumber":65,"Velocity":45,"Duration":285714,"SoundDuration":285714,"Delta":259428486},{"NoteNumber":85,"Velocity":75,"Duration":285714,"SoundDuration":285714,"Delta":259714200},{"NoteNumber":62,"Velocity":45,"Duration":285714,"SoundDuration":285714,"Delta":259714200},{"NoteNumber":86,"Velocity":68,"Duration":285714,"SoundDuration":285714,"Delta":259999915},{"NoteNumber":65,"Velocity":45,"Duration":285714,"SoundDuration":285714,"Delta":259999915},{"NoteNumber":57,"Velocity":51,"Duration":285714,"SoundDuration":285714,"Delta":260285629},{"NoteNumber":84,"Velocity":67,"Duration":285714,"SoundDuration":285714,"Delta":260571343},{"NoteNumber":66,"Velocity":44,"Duration":285714,"SoundDuration":285714,"Delta":260571343},{"NoteNumber":83,"Velocity":76,"Duration":285714,"SoundDuration":285714,"Delta":260857057},{"NoteNumber":60,"Velocity":44,"Duration":285714,"SoundDuration":285714,"Delta":260857057},{"NoteNumber":84,"Velocity":67,"Duration":297029,"SoundDuration":297029,"Delta":261142772},{"NoteNumber":66,"Velocity":44,"Duration":297029,"SoundDuration":297029,"Delta":261142772},{"NoteNumber":55,"Velocity":51,"Duration":285714,"SoundDuration":285714,"Delta":261439801},{"NoteNumber":83,"Velocity":70,"Duration":285714,"SoundDuration":285714,"Delta":261725516},{"NoteNumber":65,"Velocity":43,"Duration":285714,"SoundDuration":285714,"Delta":261725516},{"NoteNumber":83,"Velocity":69,"Duration":136363,"SoundDuration":136363,"Delta":262011230},{"NoteNumber":62,"Velocity":43,"Duration":272727,"SoundDuration":272727,"Delta":262011230},{"NoteNumber":84,"Velocity":63,"Duration":136363,"SoundDuration":136363,"Delta":262147594},{"NoteNumber":83,"Velocity":68,"Duration":291262,"SoundDuration":291262,"Delta":262283957},{"NoteNumber":65,"Velocity":43,"Duration":291262,"SoundDuration":291262,"Delta":262283957},{"NoteNumber":60,"Velocity":51,"Duration":283018,"SoundDuration":283018,"Delta":262575219},{"NoteNumber":82,"Velocity":72,"Duration":283018,"SoundDuration":283018,"Delta":262858238},{"NoteNumber":67,"Velocity":43,"Duration":283018,"SoundDuration":283018,"Delta":262858238},{"NoteNumber":82,"Velocity":72,"Duration":136363,"SoundDuration":136363,"Delta":263141257},{"NoteNumber":64,"Velocity":43,"Duration":272727,"SoundDuration":272727,"Delta":263141257},{"NoteNumber":84,"Velocity":65,"Duration":136363,"SoundDuration":136363,"Delta":263277621},{"NoteNumber":82,"Velocity":75,"Duration":297029,"SoundDuration":297029,"Delta":263413984},{"NoteNumber":67,"Velocity":43,"Duration":297029,"SoundDuration":297029,"Delta":263413984},{"NoteNumber":53,"Velocity":47,"Duration":283018,"SoundDuration":283018,"Delta":263711014},{"NoteNumber":81,"Velocity":67,"Duration":283018,"SoundDuration":283018,"Delta":263994033},{"NoteNumber":65,"Velocity":41,"Duration":283018,"SoundDuration":283018,"Delta":263994033},{"NoteNumber":82,"Velocity":70,"Duration":283018,"SoundDuration":283018,"Delta":264277051},{"NoteNumber":57,"Velocity":41,"Duration":283018,"SoundDuration":283018,"Delta":264277051},{"NoteNumber":84,"Velocity":72,"Duration":227272,"SoundDuration":227272,"Delta":264560070},{"NoteNumber":65,"Velocity":41,"Duration":303030,"SoundDuration":303030,"Delta":264560070},{"NoteNumber":84,"Velocity":72,"Duration":285714,"SoundDuration":285714,"Delta":264863100},{"NoteNumber":58,"Velocity":47,"Duration":285714,"SoundDuration":285714,"Delta":264863100},{"NoteNumber":74,"Velocity":66,"Duration":285714,"SoundDuration":285714,"Delta":265148815},{"NoteNumber":67,"Velocity":41,"Duration":285714,"SoundDuration":285714,"Delta":265148815},{"NoteNumber":82,"Velocity":72,"Duration":285714,"SoundDuration":285714,"Delta":265434529},{"NoteNumber":62,"Velocity":41,"Duration":285714,"SoundDuration":285714,"Delta":265434529},{"NoteNumber":79,"Velocity":65,"Duration":285714,"SoundDuration":285714,"Delta":265720243},{"NoteNumber":67,"Velocity":41,"Duration":285714,"SoundDuration":285714,"Delta":265720243},{"NoteNumber":77,"Velocity":72,"Duration":1143735,"SoundDuration":1143735,"Delta":266005957},{"NoteNumber":60,"Velocity":47,"Duration":285714,"SoundDuration":285714,"Delta":266005957},{"NoteNumber":69,"Velocity":40,"Duration":285714,"SoundDuration":285714,"Delta":266291672},{"NoteNumber":65,"Velocity":40,"Duration":285714,"SoundDuration":285714,"Delta":266577386},{"NoteNumber":69,"Velocity":40,"Duration":286592,"SoundDuration":286592,"Delta":266863100},{"NoteNumber":76,"Velocity":68,"Duration":96760,"SoundDuration":96760,"Delta":267149693},{"NoteNumber":60,"Velocity":47,"Duration":286751,"SoundDuration":286751,"Delta":267149693},{"NoteNumber":77,"Velocity":60,"Duration":95604,"SoundDuration":95604,"Delta":267246454},{"NoteNumber":76,"Velocity":68,"Duration":94386,"SoundDuration":94386,"Delta":267342058},{"NoteNumber":77,"Velocity":61,"Duration":93155,"SoundDuration":93155,"Delta":267436444},{"NoteNumber":67,"Velocity":42,"Duration":278426,"SoundDuration":278426,"Delta":267436444},{"NoteNumber":76,"Velocity":68,"Duration":92592,"SoundDuration":92592,"Delta":267529599},{"NoteNumber":77,"Velocity":61,"Duration":92679,"SoundDuration":92679,"Delta":267622192},{"NoteNumber":76,"Velocity":68,"Duration":567018,"SoundDuration":567018,"Delta":267714871},{"NoteNumber":64,"Velocity":42,"Duration":281453,"SoundDuration":281453,"Delta":267714871},{"NoteNumber":67,"Velocity":42,"Duration":285565,"SoundDuration":285565,"Delta":267996325},{"NoteNumber":57,"Velocity":47,"Duration":283018,"SoundDuration":283018,"Delta":268281890},{"NoteNumber":84,"Velocity":72,"Duration":283018,"SoundDuration":283018,"Delta":268564909},{"NoteNumber":65,"Velocity":41,"Duration":283018,"SoundDuration":283018,"Delta":268564909},{"NoteNumber":81,"Velocity":75,"Duration":283018,"SoundDuration":283018,"Delta":268847927},{"NoteNumber":60,"Velocity":41,"Duration":283018,"SoundDuration":283018,"Delta":268847927},{"NoteNumber":77,"Velocity":67,"Duration":300000,"SoundDuration":300000,"Delta":269130946},{"NoteNumber":65,"Velocity":41,"Duration":300000,"SoundDuration":300000,"Delta":269130946},{"NoteNumber":75,"Velocity":77,"Duration":283018,"SoundDuration":283018,"Delta":269430946},{"NoteNumber":58,"Velocity":47,"Duration":283018,"SoundDuration":283018,"Delta":269430946},{"NoteNumber":74,"Velocity":69,"Duration":283018,"SoundDuration":283018,"Delta":269713965},{"NoteNumber":65,"Velocity":41,"Duration":283018,"SoundDuration":283018,"Delta":269713965},{"NoteNumber":85,"Velocity":82,"Duration":283018,"SoundDuration":283018,"Delta":269996984},{"NoteNumber":62,"Velocity":41,"Duration":283018,"SoundDuration":283018,"Delta":269996984},{"NoteNumber":86,"Velocity":76,"Duration":283018,"SoundDuration":283018,"Delta":270280002},{"NoteNumber":65,"Velocity":41,"Duration":283018,"SoundDuration":283018,"Delta":270280002},{"NoteNumber":77,"Velocity":75,"Duration":1132074,"SoundDuration":1132074,"Delta":270563021},{"NoteNumber":60,"Velocity":47,"Duration":283018,"SoundDuration":283018,"Delta":270563021},{"NoteNumber":69,"Velocity":38,"Duration":283018,"SoundDuration":283018,"Delta":270846040},{"NoteNumber":65,"Velocity":38,"Duration":283018,"SoundDuration":283018,"Delta":271129059},{"NoteNumber":69,"Velocity":38,"Duration":283018,"SoundDuration":283018,"Delta":271412077},{"NoteNumber":79,"Velocity":68,"Duration":96331,"SoundDuration":96331,"Delta":271695096},{"NoteNumber":60,"Velocity":47,"Duration":288577,"SoundDuration":288577,"Delta":271695096},{"NoteNumber":81,"Velocity":60,"Duration":96527,"SoundDuration":96527,"Delta":271791428},{"NoteNumber":79,"Velocity":68,"Duration":95718,"SoundDuration":95718,"Delta":271887955},{"NoteNumber":81,"Velocity":61,"Duration":94923,"SoundDuration":94923,"Delta":271983674},{"NoteNumber":64,"Velocity":42,"Duration":282192,"SoundDuration":282192,"Delta":271983674},{"NoteNumber":79,"Velocity":68,"Duration":93810,"SoundDuration":93810,"Delta":272078598},{"NoteNumber":81,"Velocity":61,"Duration":93457,"SoundDuration":93457,"Delta":272172408},{"NoteNumber":79,"Velocity":68,"Duration":93457,"SoundDuration":93457,"Delta":272251847},{"NoteNumber":60,"Velocity":42,"Duration":282115,"SoundDuration":282115,"Delta":272265866},{"NoteNumber":81,"Velocity":60,"Duration":94207,"SoundDuration":94207,"Delta":272347642},{"NoteNumber":79,"Velocity":68,"Duration":94339,"SoundDuration":94339,"Delta":272439491},{"NoteNumber":77,"Velocity":63,"Duration":144794,"SoundDuration":144794,"Delta":272540906},{"NoteNumber":64,"Velocity":42,"Duration":302281,"SoundDuration":302281,"Delta":272547981},{"NoteNumber":79,"Velocity":62,"Duration":156497,"SoundDuration":156497,"Delta":272685701},{"NoteNumber":77,"Velocity":68,"Duration":285714,"SoundDuration":285714,"Delta":272850263},{"NoteNumber":53,"Velocity":39,"Duration":1142856,"SoundDuration":1142856,"Delta":272850263},{"NoteNumber":65,"Velocity":47,"Duration":566666,"SoundDuration":566666,"Delta":272850263},{"NoteNumber":65,"Velocity":40,"Duration":285714,"SoundDuration":285714,"Delta":273421691},{"NoteNumber":69,"Velocity":48,"Duration":285714,"SoundDuration":285714,"Delta":273421691},{"NoteNumber":69,"Velocity":48,"Duration":285714,"SoundDuration":285714,"Delta":273993120},{"NoteNumber":65,"Velocity":40,"Duration":285714,"SoundDuration":285714,"Delta":273993120},{"NoteNumber":65,"Velocity":40,"Duration":285714,"SoundDuration":285714,"Delta":274564548},{"NoteNumber":69,"Velocity":48,"Duration":285714,"SoundDuration":285714,"Delta":274564548},{"NoteNumber":70,"Velocity":52,"Duration":132743,"SoundDuration":132743,"Delta":275135977},{"NoteNumber":65,"Velocity":44,"Duration":545860,"SoundDuration":545860,"Delta":275135977},{"NoteNumber":69,"Velocity":47,"Duration":132743,"SoundDuration":132743,"Delta":275268720},{"NoteNumber":67,"Velocity":47,"Duration":140186,"SoundDuration":140186,"Delta":275401464},{"NoteNumber":69,"Velocity":48,"Duration":140186,"SoundDuration":140186,"Delta":275541650},{"NoteNumber":69,"Velocity":44,"Duration":560747,"SoundDuration":560747,"Delta":275681837},{"NoteNumber":72,"Velocity":52,"Duration":560747,"SoundDuration":560747,"Delta":275681837},{"NoteNumber":65,"Velocity":51,"Duration":560747,"SoundDuration":560747,"Delta":276242585},{"NoteNumber":69,"Velocity":60,"Duration":560747,"SoundDuration":560747,"Delta":276242585},{"NoteNumber":62,"Velocity":55,"Duration":638298,"SoundDuration":638298,"Delta":276803332},{"NoteNumber":65,"Velocity":66,"Duration":638298,"SoundDuration":638298,"Delta":276803332},{"NoteNumber":62,"Velocity":72,"Duration":1399272,"SoundDuration":1399272,"Delta":277441630},{"NoteNumber":58,"Velocity":60,"Duration":1399272,"SoundDuration":1399272,"Delta":277441630},{"NoteNumber":34,"Velocity":59,"Duration":277777,"SoundDuration":277777,"Delta":278563125},{"NoteNumber":46,"Velocity":70,"Duration":277777,"SoundDuration":277777,"Delta":278563125},{"NoteNumber":62,"Velocity":58,"Duration":277777,"SoundDuration":277777,"Delta":278840903},{"NoteNumber":58,"Velocity":49,"Duration":277777,"SoundDuration":277777,"Delta":278840903},{"NoteNumber":64,"Velocity":58,"Duration":277777,"SoundDuration":277777,"Delta":279118681},{"NoteNumber":60,"Velocity":49,"Duration":277777,"SoundDuration":277777,"Delta":279118681},{"NoteNumber":65,"Velocity":58,"Duration":272727,"SoundDuration":272727,"Delta":279396459},{"NoteNumber":62,"Velocity":49,"Duration":272727,"SoundDuration":272727,"Delta":279396459},{"NoteNumber":62,"Velocity":53,"Duration":277777,"SoundDuration":277777,"Delta":279699489},{"NoteNumber":65,"Velocity":63,"Duration":277777,"SoundDuration":277777,"Delta":279699489},{"NoteNumber":36,"Velocity":53,"Duration":277777,"SoundDuration":277777,"Delta":279699489},{"NoteNumber":48,"Velocity":63,"Duration":277777,"SoundDuration":277777,"Delta":279699489},{"NoteNumber":60,"Velocity":50,"Duration":277777,"SoundDuration":277777,"Delta":279977267},{"NoteNumber":64,"Velocity":59,"Duration":277777,"SoundDuration":277777,"Delta":279977267},{"NoteNumber":62,"Velocity":59,"Duration":277777,"SoundDuration":277777,"Delta":280255044},{"NoteNumber":58,"Velocity":50,"Duration":277777,"SoundDuration":277777,"Delta":280255044},{"NoteNumber":60,"Velocity":59,"Duration":262136,"SoundDuration":262136,"Delta":280532822},{"NoteNumber":57,"Velocity":50,"Duration":262136,"SoundDuration":262136,"Delta":280532822},{"NoteNumber":57,"Velocity":53,"Duration":283018,"SoundDuration":283018,"Delta":280824084},{"NoteNumber":60,"Velocity":63,"Duration":283018,"SoundDuration":283018,"Delta":280824084},{"NoteNumber":48,"Velocity":63,"Duration":283018,"SoundDuration":283018,"Delta":280824084},{"NoteNumber":36,"Velocity":53,"Duration":283018,"SoundDuration":283018,"Delta":280824084},{"NoteNumber":55,"Velocity":45,"Duration":283018,"SoundDuration":283018,"Delta":281107103},{"NoteNumber":58,"Velocity":53,"Duration":283018,"SoundDuration":283018,"Delta":281107103},{"NoteNumber":53,"Velocity":45,"Duration":283018,"SoundDuration":283018,"Delta":281390122},{"NoteNumber":57,"Velocity":53,"Duration":283018,"SoundDuration":283018,"Delta":281390122},{"NoteNumber":52,"Velocity":45,"Duration":315789,"SoundDuration":315789,"Delta":281673141},{"NoteNumber":55,"Velocity":53,"Duration":315789,"SoundDuration":315789,"Delta":281673141},{"NoteNumber":29,"Velocity":50,"Duration":1142856,"SoundDuration":1142856,"Delta":281988930},{"NoteNumber":41,"Velocity":50,"Duration":1142856,"SoundDuration":1142856,"Delta":281988930},{"NoteNumber":65,"Velocity":50,"Duration":190476,"SoundDuration":190476,"Delta":282560359},{"NoteNumber":69,"Velocity":46,"Duration":190476,"SoundDuration":190476,"Delta":282750835},{"NoteNumber":77,"Velocity":46,"Duration":190476,"SoundDuration":190476,"Delta":282941311},{"NoteNumber":65,"Velocity":52,"Duration":188679,"SoundDuration":188679,"Delta":283131787},{"NoteNumber":69,"Velocity":46,"Duration":188679,"SoundDuration":188679,"Delta":283320466},{"NoteNumber":77,"Velocity":46,"Duration":188679,"SoundDuration":188679,"Delta":283509145},{"NoteNumber":65,"Velocity":54,"Duration":188679,"SoundDuration":188679,"Delta":283697825},{"NoteNumber":69,"Velocity":47,"Duration":188679,"SoundDuration":188679,"Delta":283886504},{"NoteNumber":77,"Velocity":47,"Duration":188679,"SoundDuration":188679,"Delta":284075183},{"NoteNumber":65,"Velocity":60,"Duration":185185,"SoundDuration":185185,"Delta":284263862},{"NoteNumber":69,"Velocity":52,"Duration":185185,"SoundDuration":185185,"Delta":284449047},{"NoteNumber":77,"Velocity":54,"Duration":185185,"SoundDuration":185185,"Delta":284634232},{"NoteNumber":69,"Velocity":65,"Duration":185185,"SoundDuration":185185,"Delta":284819418},{"NoteNumber":72,"Velocity":58,"Duration":185185,"SoundDuration":185185,"Delta":285004603},{"NoteNumber":81,"Velocity":61,"Duration":185185,"SoundDuration":185185,"Delta":285189788},{"NoteNumber":65,"Velocity":69,"Duration":183486,"SoundDuration":183486,"Delta":285374973},{"NoteNumber":69,"Velocity":62,"Duration":183486,"SoundDuration":183486,"Delta":285558459},{"NoteNumber":77,"Velocity":65,"Duration":183486,"SoundDuration":183486,"Delta":285741945},{"NoteNumber":62,"Velocity":76,"Duration":183486,"SoundDuration":183486,"Delta":285925432},{"NoteNumber":65,"Velocity":66,"Duration":183486,"SoundDuration":183486,"Delta":286108918},{"NoteNumber":74,"Velocity":69,"Duration":273972,"SoundDuration":273972,"Delta":286292404},{"NoteNumber":58,"Velocity":80,"Duration":1415093,"SoundDuration":1415093,"Delta":286566377},{"NoteNumber":34,"Velocity":59,"Duration":283018,"SoundDuration":283018,"Delta":287698452},{"NoteNumber":46,"Velocity":70,"Duration":283018,"SoundDuration":283018,"Delta":287698452},{"NoteNumber":74,"Velocity":56,"Duration":291262,"SoundDuration":291262,"Delta":287981470},{"NoteNumber":77,"Velocity":66,"Duration":291262,"SoundDuration":291262,"Delta":287981470},{"NoteNumber":76,"Velocity":68,"Duration":291262,"SoundDuration":291262,"Delta":288272733},{"NoteNumber":72,"Velocity":57,"Duration":291262,"SoundDuration":291262,"Delta":288272733},{"NoteNumber":70,"Velocity":53,"Duration":278350,"SoundDuration":278350,"Delta":288563995},{"NoteNumber":74,"Velocity":63,"Duration":278350,"SoundDuration":278350,"Delta":288563995},{"NoteNumber":70,"Velocity":56,"Duration":300000,"SoundDuration":300000,"Delta":288873273},{"NoteNumber":74,"Velocity":67,"Duration":300000,"SoundDuration":300000,"Delta":288873273},{"NoteNumber":36,"Velocity":53,"Duration":300000,"SoundDuration":300000,"Delta":288873273},{"NoteNumber":48,"Velocity":63,"Duration":300000,"SoundDuration":300000,"Delta":288873273},{"NoteNumber":69,"Velocity":55,"Duration":300000,"SoundDuration":300000,"Delta":289173273},{"NoteNumber":72,"Velocity":65,"Duration":300000,"SoundDuration":300000,"Delta":289173273},{"NoteNumber":67,"Velocity":53,"Duration":299999,"SoundDuration":299999,"Delta":289473273},{"NoteNumber":70,"Velocity":63,"Duration":299999,"SoundDuration":299999,"Delta":289473273},{"NoteNumber":69,"Velocity":61,"Duration":270000,"SoundDuration":270000,"Delta":289773273},{"NoteNumber":65,"Velocity":51,"Duration":270000,"SoundDuration":270000,"Delta":289773273},{"NoteNumber":69,"Velocity":63,"Duration":300000,"SoundDuration":300000,"Delta":290073273},{"NoteNumber":58,"Velocity":63,"Duration":600000,"SoundDuration":600000,"Delta":290073273},{"NoteNumber":48,"Velocity":53,"Duration":600000,"SoundDuration":600000,"Delta":290073273},{"NoteNumber":67,"Velocity":56,"Duration":300000,"SoundDuration":300000,"Delta":290373273},{"NoteNumber":65,"Velocity":56,"Duration":300000,"SoundDuration":300000,"Delta":290673273},{"NoteNumber":58,"Velocity":47,"Duration":397058,"SoundDuration":397058,"Delta":290973273},{"NoteNumber":64,"Velocity":56,"Duration":397058,"SoundDuration":397058,"Delta":290973273},{"NoteNumber":58,"Velocity":59,"Duration":2459678,"SoundDuration":2459678,"Delta":291414450},{"NoteNumber":64,"Velocity":59,"Duration":2459678,"SoundDuration":2459678,"Delta":291414450},{"NoteNumber":53,"Velocity":56,"Duration":2459678,"SoundDuration":2459678,"Delta":291414450},{"NoteNumber":41,"Velocity":49,"Duration":766129,"SoundDuration":766129,"Delta":293874128},{"NoteNumber":45,"Velocity":53,"Duration":672043,"SoundDuration":672043,"Delta":293914450},{"NoteNumber":48,"Velocity":56,"Duration":685484,"SoundDuration":685484,"Delta":293954773},{"NoteNumber":57,"Velocity":52,"Duration":645161,"SoundDuration":645161,"Delta":293995096},{"NoteNumber":65,"Velocity":52,"Duration":645161,"SoundDuration":645161,"Delta":293995096},{"NoteNumber":60,"Velocity":52,"Duration":645161,"SoundDuration":645161,"Delta":293995096},{"NoteNumber":53,"Velocity":60,"Duration":645161,"SoundDuration":645161,"Delta":293995096},{"NoteNumber":48,"Velocity":45,"Duration":413636,"SoundDuration":413636,"Delta":296452330},{"NoteNumber":52,"Velocity":48,"Duration":375757,"SoundDuration":375757,"Delta":296490209},{"NoteNumber":55,"Velocity":51,"Duration":337878,"SoundDuration":337878,"Delta":296528088},{"NoteNumber":72,"Velocity":60,"Duration":899999,"SoundDuration":899999,"Delta":296565966},{"NoteNumber":67,"Velocity":51,"Duration":300000,"SoundDuration":300000,"Delta":296565966},{"NoteNumber":64,"Velocity":51,"Duration":300000,"SoundDuration":300000,"Delta":296565966},{"NoteNumber":60,"Velocity":53,"Duration":300000,"SoundDuration":300000,"Delta":296565966},{"NoteNumber":67,"Velocity":56,"Duration":300000,"SoundDuration":300000,"Delta":297465966},{"NoteNumber":77,"Velocity":60,"Duration":297029,"SoundDuration":297029,"Delta":297765966},{"NoteNumber":76,"Velocity":54,"Duration":295573,"SoundDuration":295573,"Delta":298062996},{"NoteNumber":74,"Velocity":54,"Duration":294117,"SoundDuration":294117,"Delta":298358570},{"NoteNumber":72,"Velocity":54,"Duration":312500,"SoundDuration":312500,"Delta":298652688},{"NoteNumber":79,"Velocity":60,"Duration":291262,"SoundDuration":291262,"Delta":298965188},{"NoteNumber":60,"Velocity":44,"Duration":291262,"SoundDuration":291262,"Delta":298965188},{"NoteNumber":70,"Velocity":37,"Duration":291262,"SoundDuration":291262,"Delta":299256450},{"NoteNumber":67,"Velocity":37,"Duration":291262,"SoundDuration":291262,"Delta":299547712},{"NoteNumber":70,"Velocity":37,"Duration":291262,"SoundDuration":291262,"Delta":299838974},{"NoteNumber":60,"Velocity":44,"Duration":291262,"SoundDuration":291262,"Delta":300130237},{"NoteNumber":70,"Velocity":39,"Duration":291262,"SoundDuration":291262,"Delta":300421499},{"NoteNumber":67,"Velocity":39,"Duration":291262,"SoundDuration":291262,"Delta":300712761},{"NoteNumber":70,"Velocity":39,"Duration":306122,"SoundDuration":306122,"Delta":301004023},{"NoteNumber":77,"Velocity":60,"Duration":865384,"SoundDuration":865384,"Delta":301310146},{"NoteNumber":60,"Velocity":44,"Duration":288461,"SoundDuration":288461,"Delta":301310146},{"NoteNumber":69,"Velocity":37,"Duration":288461,"SoundDuration":288461,"Delta":301598607},{"NoteNumber":65,"Velocity":37,"Duration":288461,"SoundDuration":288461,"Delta":301887069},{"NoteNumber":72,"Velocity":56,"Duration":288461,"SoundDuration":288461,"Delta":302175530},{"NoteNumber":69,"Velocity":37,"Duration":288461,"SoundDuration":288461,"Delta":302175530},{"NoteNumber":82,"Velocity":60,"Duration":288461,"SoundDuration":288461,"Delta":302463992},{"NoteNumber":60,"Velocity":44,"Duration":288461,"SoundDuration":288461,"Delta":302463992},{"NoteNumber":81,"Velocity":54,"Duration":288568,"SoundDuration":288568,"Delta":302752453},{"NoteNumber":69,"Velocity":39,"Duration":288568,"SoundDuration":288568,"Delta":302752453},{"NoteNumber":79,"Velocity":54,"Duration":294117,"SoundDuration":294117,"Delta":303041022},{"NoteNumber":65,"Velocity":39,"Duration":294117,"SoundDuration":294117,"Delta":303041022},{"NoteNumber":77,"Velocity":54,"Duration":306122,"SoundDuration":306122,"Delta":303335139},{"NoteNumber":69,"Velocity":39,"Duration":306122,"SoundDuration":306122,"Delta":303335139},{"NoteNumber":84,"Velocity":60,"Duration":294117,"SoundDuration":294117,"Delta":303641262},{"NoteNumber":60,"Velocity":44,"Duration":294117,"SoundDuration":294117,"Delta":303641262},{"NoteNumber":67,"Velocity":37,"Duration":294117,"SoundDuration":294117,"Delta":303935380},{"NoteNumber":64,"Velocity":37,"Duration":291262,"SoundDuration":291262,"Delta":304229497},{"NoteNumber":67,"Velocity":37,"Duration":291262,"SoundDuration":291262,"Delta":304520760},{"NoteNumber":60,"Velocity":44,"Duration":291262,"SoundDuration":291262,"Delta":304812022},{"NoteNumber":67,"Velocity":39,"Duration":291262,"SoundDuration":291262,"Delta":305103284},{"NoteNumber":64,"Velocity":39,"Duration":291262,"SoundDuration":291262,"Delta":305394546},{"NoteNumber":83,"Velocity":60,"Duration":97087,"SoundDuration":97087,"Delta":305685809},{"NoteNumber":67,"Velocity":39,"Duration":291262,"SoundDuration":291262,"Delta":305685809},{"NoteNumber":84,"Velocity":62,"Duration":97087,"SoundDuration":97087,"Delta":305782896},{"NoteNumber":86,"Velocity":64,"Duration":97041,"SoundDuration":97041,"Delta":305882411},{"NoteNumber":84,"Velocity":67,"Duration":1999999,"SoundDuration":1999999,"Delta":305977071},{"NoteNumber":57,"Velocity":44,"Duration":285714,"SoundDuration":285714,"Delta":305977071},{"NoteNumber":63,"Velocity":39,"Duration":285714,"SoundDuration":285714,"Delta":306262785},{"NoteNumber":60,"Velocity":39,"Duration":285714,"SoundDuration":285714,"Delta":306548499},{"NoteNumber":63,"Velocity":39,"Duration":285714,"SoundDuration":285714,"Delta":306834214},{"NoteNumber":57,"Velocity":44,"Duration":285714,"SoundDuration":285714,"Delta":307119928},{"NoteNumber":63,"Velocity":39,"Duration":285714,"SoundDuration":285714,"Delta":307405642},{"NoteNumber":60,"Velocity":39,"Duration":285714,"SoundDuration":285714,"Delta":307691356},{"NoteNumber":82,"Velocity":60,"Duration":95238,"SoundDuration":95238,"Delta":307977071},{"NoteNumber":63,"Velocity":39,"Duration":285714,"SoundDuration":285714,"Delta":307977071},{"NoteNumber":81,"Velocity":60,"Duration":95238,"SoundDuration":95238,"Delta":308072309},{"NoteNumber":79,"Velocity":60,"Duration":95238,"SoundDuration":95238,"Delta":308169928},{"NoteNumber":78,"Velocity":68,"Duration":285714,"SoundDuration":285714,"Delta":308262785},{"NoteNumber":57,"Velocity":44,"Duration":285714,"SoundDuration":285714,"Delta":308262785},{"NoteNumber":75,"Velocity":63,"Duration":285714,"SoundDuration":285714,"Delta":308548499},{"NoteNumber":63,"Velocity":40,"Duration":285714,"SoundDuration":285714,"Delta":308548499},{"NoteNumber":74,"Velocity":63,"Duration":285714,"SoundDuration":285714,"Delta":308834213},{"NoteNumber":60,"Velocity":41,"Duration":285714,"SoundDuration":285714,"Delta":308834213},{"NoteNumber":72,"Velocity":64,"Duration":285714,"SoundDuration":285714,"Delta":309119928},{"NoteNumber":63,"Velocity":42,"Duration":285714,"SoundDuration":285714,"Delta":309119928},{"NoteNumber":70,"Velocity":68,"Duration":285714,"SoundDuration":285714,"Delta":309405642},{"NoteNumber":57,"Velocity":49,"Duration":285714,"SoundDuration":285714,"Delta":309405642},{"NoteNumber":69,"Velocity":70,"Duration":285714,"SoundDuration":285714,"Delta":309691356},{"NoteNumber":63,"Velocity":45,"Duration":285714,"SoundDuration":285714,"Delta":309691356},{"NoteNumber":67,"Velocity":71,"Duration":285714,"SoundDuration":285714,"Delta":309977070},{"NoteNumber":60,"Velocity":46,"Duration":285714,"SoundDuration":285714,"Delta":309977070},{"NoteNumber":66,"Velocity":73,"Duration":315789,"SoundDuration":315789,"Delta":310262785},{"NoteNumber":63,"Velocity":47,"Duration":315789,"SoundDuration":315789,"Delta":310262785},{"NoteNumber":67,"Velocity":74,"Duration":263761,"SoundDuration":263761,"Delta":310578574},{"NoteNumber":58,"Velocity":55,"Duration":275229,"SoundDuration":275229,"Delta":310578574},{"NoteNumber":67,"Velocity":48,"Duration":275229,"SoundDuration":275229,"Delta":310853803},{"NoteNumber":70,"Velocity":77,"Duration":285714,"SoundDuration":285714,"Delta":311129033},{"NoteNumber":62,"Velocity":48,"Duration":285714,"SoundDuration":285714,"Delta":311129033},{"NoteNumber":67,"Velocity":48,"Duration":285714,"SoundDuration":285714,"Delta":311414747},{"NoteNumber":74,"Velocity":82,"Duration":275229,"SoundDuration":275229,"Delta":311700461},{"NoteNumber":58,"Velocity":55,"Duration":275229,"SoundDuration":275229,"Delta":311700461},{"NoteNumber":67,"Velocity":48,"Duration":275229,"SoundDuration":275229,"Delta":311975690},{"NoteNumber":79,"Velocity":84,"Duration":280373,"SoundDuration":280373,"Delta":312250920},{"NoteNumber":62,"Velocity":48,"Duration":280373,"SoundDuration":280373,"Delta":312250920},{"NoteNumber":67,"Velocity":48,"Duration":312500,"SoundDuration":312500,"Delta":312531293},{"NoteNumber":82,"Velocity":86,"Duration":280373,"SoundDuration":280373,"Delta":312843793},{"NoteNumber":58,"Velocity":55,"Duration":280373,"SoundDuration":280373,"Delta":312843793},{"NoteNumber":67,"Velocity":48,"Duration":280373,"SoundDuration":280373,"Delta":313124167},{"NoteNumber":62,"Velocity":48,"Duration":280373,"SoundDuration":280373,"Delta":313404541},{"NoteNumber":67,"Velocity":48,"Duration":280373,"SoundDuration":280373,"Delta":313684915},{"NoteNumber":58,"Velocity":55,"Duration":280373,"SoundDuration":280373,"Delta":313965288},{"NoteNumber":67,"Velocity":48,"Duration":280373,"SoundDuration":280373,"Delta":314245662},{"NoteNumber":62,"Velocity":48,"Duration":280373,"SoundDuration":280373,"Delta":314526036},{"NoteNumber":67,"Velocity":48,"Duration":280373,"SoundDuration":280373,"Delta":314806410},{"NoteNumber":86,"Velocity":90,"Duration":285714,"SoundDuration":285714,"Delta":315086783},{"NoteNumber":58,"Velocity":55,"Duration":285714,"SoundDuration":285714,"Delta":315086783},{"NoteNumber":67,"Velocity":45,"Duration":285714,"SoundDuration":285714,"Delta":315372498},{"NoteNumber":86,"Velocity":90,"Duration":1137465,"SoundDuration":1137465,"Delta":315658212},{"NoteNumber":64,"Velocity":45,"Duration":285714,"SoundDuration":285714,"Delta":315658212},{"NoteNumber":67,"Velocity":45,"Duration":285714,"SoundDuration":285714,"Delta":315943926},{"NoteNumber":58,"Velocity":52,"Duration":283018,"SoundDuration":283018,"Delta":316229640},{"NoteNumber":67,"Velocity":42,"Duration":283018,"SoundDuration":283018,"Delta":316512659},{"NoteNumber":84,"Velocity":72,"Duration":141509,"SoundDuration":141509,"Delta":316795678},{"NoteNumber":64,"Velocity":42,"Duration":283018,"SoundDuration":283018,"Delta":316795678},{"NoteNumber":82,"Velocity":73,"Duration":141509,"SoundDuration":141509,"Delta":316937187},{"NoteNumber":81,"Velocity":74,"Duration":156250,"SoundDuration":156250,"Delta":317078697},{"NoteNumber":67,"Velocity":42,"Duration":312500,"SoundDuration":312500,"Delta":317078697},{"NoteNumber":79,"Velocity":74,"Duration":156250,"SoundDuration":156250,"Delta":317234947},{"NoteNumber":84,"Velocity":84,"Duration":280373,"SoundDuration":280373,"Delta":317391197},{"NoteNumber":57,"Velocity":55,"Duration":280373,"SoundDuration":280373,"Delta":317391197},{"NoteNumber":65,"Velocity":46,"Duration":280373,"SoundDuration":280373,"Delta":317671570},{"NoteNumber":84,"Velocity":84,"Duration":1121494,"SoundDuration":1121494,"Delta":317951944},{"NoteNumber":60,"Velocity":46,"Duration":280373,"SoundDuration":280373,"Delta":317951944},{"NoteNumber":65,"Velocity":46,"Duration":280373,"SoundDuration":280373,"Delta":318232318},{"NoteNumber":57,"Velocity":55,"Duration":280373,"SoundDuration":280373,"Delta":318512692},{"NoteNumber":65,"Velocity":48,"Duration":280373,"SoundDuration":280373,"Delta":318793065},{"NoteNumber":82,"Velocity":70,"Duration":140186,"SoundDuration":140186,"Delta":319073439},{"NoteNumber":60,"Velocity":48,"Duration":280373,"SoundDuration":280373,"Delta":319073439},{"NoteNumber":81,"Velocity":72,"Duration":140186,"SoundDuration":140186,"Delta":319213626},{"NoteNumber":79,"Velocity":73,"Duration":153061,"SoundDuration":153061,"Delta":319353813},{"NoteNumber":65,"Velocity":43,"Duration":306122,"SoundDuration":306122,"Delta":319353813},{"NoteNumber":77,"Velocity":75,"Duration":153061,"SoundDuration":153061,"Delta":319506874},{"NoteNumber":84,"Velocity":77,"Duration":280373,"SoundDuration":280373,"Delta":319659935},{"NoteNumber":52,"Velocity":50,"Duration":280373,"SoundDuration":280373,"Delta":319659935},{"NoteNumber":82,"Velocity":68,"Duration":210280,"SoundDuration":210280,"Delta":319940309},{"NoteNumber":60,"Velocity":38,"Duration":280373,"SoundDuration":280373,"Delta":319940309},{"NoteNumber":82,"Velocity":72,"Duration":280373,"SoundDuration":280373,"Delta":320220683},{"NoteNumber":55,"Velocity":38,"Duration":280373,"SoundDuration":280373,"Delta":320220683},{"NoteNumber":81,"Velocity":67,"Duration":210280,"SoundDuration":210280,"Delta":320501057},{"NoteNumber":60,"Velocity":38,"Duration":280373,"SoundDuration":280373,"Delta":320501057},{"NoteNumber":81,"Velocity":72,"Duration":560747,"SoundDuration":560747,"Delta":320781430},{"NoteNumber":53,"Velocity":48,"Duration":280373,"SoundDuration":280373,"Delta":320781430},{"NoteNumber":60,"Velocity":40,"Duration":280373,"SoundDuration":280373,"Delta":321061804},{"NoteNumber":57,"Velocity":40,"Duration":280373,"SoundDuration":280373,"Delta":321342178},{"NoteNumber":60,"Velocity":34,"Duration":294117,"SoundDuration":294117,"Delta":321622552},{"NoteNumber":84,"Velocity":61,"Duration":277777,"SoundDuration":277777,"Delta":321916669},{"NoteNumber":52,"Velocity":40,"Duration":277777,"SoundDuration":277777,"Delta":321916669},{"NoteNumber":82,"Velocity":57,"Duration":208333,"SoundDuration":208333,"Delta":322194447},{"NoteNumber":60,"Velocity":31,"Duration":277777,"SoundDuration":277777,"Delta":322194447},{"NoteNumber":82,"Velocity":61,"Duration":277777,"SoundDuration":277777,"Delta":322472225},{"NoteNumber":55,"Velocity":31,"Duration":277777,"SoundDuration":277777,"Delta":322472225},{"NoteNumber":81,"Velocity":54,"Duration":208333,"SoundDuration":208333,"Delta":322750003},{"NoteNumber":60,"Velocity":31,"Duration":277777,"SoundDuration":277777,"Delta":322750003},{"NoteNumber":81,"Velocity":60,"Duration":555555,"SoundDuration":555555,"Delta":323027780},{"NoteNumber":53,"Velocity":34,"Duration":277777,"SoundDuration":277777,"Delta":323027780},{"NoteNumber":60,"Velocity":27,"Duration":277777,"SoundDuration":277777,"Delta":323305558},{"NoteNumber":57,"Velocity":27,"Duration":277777,"SoundDuration":277777,"Delta":323583336},{"NoteNumber":60,"Velocity":27,"Duration":277777,"SoundDuration":277777,"Delta":323861114},{"NoteNumber":84,"Velocity":69,"Duration":70093,"SoundDuration":70093,"Delta":324138891},{"NoteNumber":52,"Velocity":53,"Duration":280373,"SoundDuration":280373,"Delta":324138891},{"NoteNumber":86,"Velocity":63,"Duration":70093,"SoundDuration":70093,"Delta":324208985},{"NoteNumber":84,"Velocity":69,"Duration":70093,"SoundDuration":70093,"Delta":324279078},{"NoteNumber":86,"Velocity":61,"Duration":70093,"SoundDuration":70093,"Delta":324349172},{"NoteNumber":82,"Velocity":68,"Duration":210280,"SoundDuration":210280,"Delta":324419265},{"NoteNumber":60,"Velocity":40,"Duration":280373,"SoundDuration":280373,"Delta":324419265},{"NoteNumber":82,"Velocity":68,"Duration":70093,"SoundDuration":70093,"Delta":324699639},{"NoteNumber":55,"Velocity":40,"Duration":280373,"SoundDuration":280373,"Delta":324699639},{"NoteNumber":84,"Velocity":61,"Duration":70093,"SoundDuration":70093,"Delta":324769732},{"NoteNumber":82,"Velocity":68,"Duration":70093,"SoundDuration":70093,"Delta":324839826},{"NoteNumber":84,"Velocity":62,"Duration":70093,"SoundDuration":70093,"Delta":324909919},{"NoteNumber":81,"Velocity":67,"Duration":210280,"SoundDuration":210280,"Delta":324980013},{"NoteNumber":60,"Velocity":40,"Duration":280373,"SoundDuration":280373,"Delta":324980013},{"NoteNumber":81,"Velocity":72,"Duration":560747,"SoundDuration":560747,"Delta":325260386},{"NoteNumber":53,"Velocity":48,"Duration":280373,"SoundDuration":280373,"Delta":325260386},{"NoteNumber":60,"Velocity":40,"Duration":280373,"SoundDuration":280373,"Delta":325540760},{"NoteNumber":57,"Velocity":40,"Duration":280373,"SoundDuration":280373,"Delta":325821134},{"NoteNumber":60,"Velocity":34,"Duration":294117,"SoundDuration":294117,"Delta":326101508},{"NoteNumber":82,"Velocity":62,"Duration":73529,"SoundDuration":73529,"Delta":326322096},{"NoteNumber":81,"Velocity":70,"Duration":277777,"SoundDuration":277777,"Delta":326395625},{"NoteNumber":58,"Velocity":46,"Duration":277777,"SoundDuration":277777,"Delta":326395625},{"NoteNumber":79,"Velocity":65,"Duration":208333,"SoundDuration":208333,"Delta":326673403},{"NoteNumber":67,"Velocity":35,"Duration":277777,"SoundDuration":277777,"Delta":326673403},{"NoteNumber":81,"Velocity":62,"Duration":69444,"SoundDuration":69444,"Delta":326881736},{"NoteNumber":79,"Velocity":70,"Duration":277777,"SoundDuration":277777,"Delta":326951181},{"NoteNumber":62,"Velocity":35,"Duration":277777,"SoundDuration":277777,"Delta":326951181},{"NoteNumber":77,"Velocity":62,"Duration":208333,"SoundDuration":208333,"Delta":327228959},{"NoteNumber":67,"Velocity":35,"Duration":277777,"SoundDuration":277777,"Delta":327228959},{"NoteNumber":77,"Velocity":69,"Duration":555555,"SoundDuration":555555,"Delta":327506736},{"NoteNumber":59,"Velocity":45,"Duration":277777,"SoundDuration":277777,"Delta":327506736},{"NoteNumber":67,"Velocity":36,"Duration":277777,"SoundDuration":277777,"Delta":327784514},{"NoteNumber":62,"Velocity":36,"Duration":277777,"SoundDuration":277777,"Delta":328062292},{"NoteNumber":67,"Velocity":36,"Duration":277777,"SoundDuration":277777,"Delta":328340070},{"NoteNumber":77,"Velocity":65,"Duration":285714,"SoundDuration":285714,"Delta":328617847},{"NoteNumber":60,"Velocity":43,"Duration":285714,"SoundDuration":285714,"Delta":328617847},{"NoteNumber":76,"Velocity":57,"Duration":285714,"SoundDuration":285714,"Delta":328903562},{"NoteNumber":67,"Velocity":34,"Duration":285714,"SoundDuration":285714,"Delta":328903562},{"NoteNumber":74,"Velocity":61,"Duration":285714,"SoundDuration":285714,"Delta":329189276},{"NoteNumber":64,"Velocity":34,"Duration":285714,"SoundDuration":285714,"Delta":329189276},{"NoteNumber":72,"Velocity":54,"Duration":214285,"SoundDuration":214285,"Delta":329474990},{"NoteNumber":67,"Velocity":34,"Duration":285714,"SoundDuration":285714,"Delta":329474990},{"NoteNumber":72,"Velocity":60,"Duration":566037,"SoundDuration":566037,"Delta":329760704},{"NoteNumber":60,"Velocity":42,"Duration":283018,"SoundDuration":283018,"Delta":329760704},{"NoteNumber":67,"Velocity":32,"Duration":283018,"SoundDuration":283018,"Delta":330043723},{"NoteNumber":72,"Velocity":54,"Duration":566037,"SoundDuration":566037,"Delta":330326742},{"NoteNumber":64,"Velocity":32,"Duration":283018,"SoundDuration":283018,"Delta":330326742},{"NoteNumber":67,"Velocity":32,"Duration":283018,"SoundDuration":283018,"Delta":330609761},{"NoteNumber":74,"Velocity":54,"Duration":145631,"SoundDuration":145631,"Delta":330892779},{"NoteNumber":60,"Velocity":37,"Duration":291262,"SoundDuration":291262,"Delta":330892779},{"NoteNumber":72,"Velocity":54,"Duration":145631,"SoundDuration":145631,"Delta":331038410},{"NoteNumber":71,"Velocity":54,"Duration":145631,"SoundDuration":145631,"Delta":331184042},{"NoteNumber":62,"Velocity":29,"Duration":291262,"SoundDuration":291262,"Delta":331184042},{"NoteNumber":72,"Velocity":60,"Duration":485437,"SoundDuration":485437,"Delta":331329673},{"NoteNumber":58,"Velocity":38,"Duration":291262,"SoundDuration":291262,"Delta":331475304},{"NoteNumber":60,"Velocity":32,"Duration":291262,"SoundDuration":291262,"Delta":331766566},{"NoteNumber":57,"Velocity":34,"Duration":294151,"SoundDuration":294151,"Delta":332057828},{"NoteNumber":58,"Velocity":27,"Duration":298840,"SoundDuration":298840,"Delta":332351980},{"NoteNumber":55,"Velocity":34,"Duration":304344,"SoundDuration":304344,"Delta":332650821},{"NoteNumber":57,"Velocity":28,"Duration":307396,"SoundDuration":307396,"Delta":332955165},{"NoteNumber":72,"Velocity":60,"Duration":1188118,"SoundDuration":1188118,"Delta":333262562},{"NoteNumber":53,"Velocity":37,"Duration":297029,"SoundDuration":297029,"Delta":333262562},{"NoteNumber":60,"Velocity":31,"Duration":297029,"SoundDuration":297029,"Delta":333559591},{"NoteNumber":57,"Velocity":28,"Duration":297029,"SoundDuration":297029,"Delta":333856621},{"NoteNumber":60,"Velocity":28,"Duration":297029,"SoundDuration":297029,"Delta":334153651},{"NoteNumber":70,"Velocity":55,"Duration":294117,"SoundDuration":294117,"Delta":334450681},{"NoteNumber":53,"Velocity":40,"Duration":294117,"SoundDuration":294117,"Delta":334450681},{"NoteNumber":69,"Velocity":50,"Duration":294117,"SoundDuration":294117,"Delta":334744798},{"NoteNumber":60,"Velocity":31,"Duration":294117,"SoundDuration":294117,"Delta":334744798},{"NoteNumber":67,"Velocity":55,"Duration":294117,"SoundDuration":294117,"Delta":335038916},{"NoteNumber":57,"Velocity":31,"Duration":294117,"SoundDuration":294117,"Delta":335038916},{"NoteNumber":65,"Velocity":49,"Duration":239361,"SoundDuration":239361,"Delta":335333034},{"NoteNumber":60,"Velocity":31,"Duration":319148,"SoundDuration":319148,"Delta":335333034},{"NoteNumber":65,"Velocity":55,"Duration":1176470,"SoundDuration":1176470,"Delta":335652183},{"NoteNumber":55,"Velocity":40,"Duration":294117,"SoundDuration":294117,"Delta":335652183},{"NoteNumber":60,"Velocity":30,"Duration":294117,"SoundDuration":294117,"Delta":335946301},{"NoteNumber":58,"Velocity":30,"Duration":294117,"SoundDuration":294117,"Delta":336240418},{"NoteNumber":60,"Velocity":30,"Duration":294117,"SoundDuration":294117,"Delta":336534536},{"NoteNumber":64,"Velocity":55,"Duration":138888,"SoundDuration":138888,"Delta":336828654},{"NoteNumber":55,"Velocity":40,"Duration":277777,"SoundDuration":277777,"Delta":336828654},{"NoteNumber":65,"Velocity":51,"Duration":138888,"SoundDuration":138888,"Delta":336967543},{"NoteNumber":64,"Velocity":57,"Duration":588235,"SoundDuration":588235,"Delta":337106432},{"NoteNumber":60,"Velocity":33,"Duration":294117,"SoundDuration":294117,"Delta":337106432},{"NoteNumber":58,"Velocity":33,"Duration":294117,"SoundDuration":294117,"Delta":337400549},{"NoteNumber":64,"Velocity":51,"Duration":294117,"SoundDuration":294117,"Delta":337694667},{"NoteNumber":60,"Velocity":33,"Duration":294117,"SoundDuration":294117,"Delta":337694667},{"NoteNumber":65,"Velocity":55,"Duration":291262,"SoundDuration":291262,"Delta":337988785},{"NoteNumber":53,"Velocity":40,"Duration":291262,"SoundDuration":291262,"Delta":337988785},{"NoteNumber":67,"Velocity":52,"Duration":291262,"SoundDuration":291262,"Delta":338280047},{"NoteNumber":60,"Velocity":32,"Duration":291262,"SoundDuration":291262,"Delta":338280047},{"NoteNumber":69,"Velocity":54,"Duration":291262,"SoundDuration":291262,"Delta":338571309},{"NoteNumber":57,"Velocity":32,"Duration":291262,"SoundDuration":291262,"Delta":338571309},{"NoteNumber":70,"Velocity":55,"Duration":291262,"SoundDuration":291262,"Delta":338862572},{"NoteNumber":60,"Velocity":32,"Duration":291262,"SoundDuration":291262,"Delta":338862572},{"NoteNumber":72,"Velocity":59,"Duration":288461,"SoundDuration":288461,"Delta":339153834},{"NoteNumber":53,"Velocity":40,"Duration":288461,"SoundDuration":288461,"Delta":339153834},{"NoteNumber":74,"Velocity":61,"Duration":288461,"SoundDuration":288461,"Delta":339442295},{"NoteNumber":60,"Velocity":33,"Duration":288461,"SoundDuration":288461,"Delta":339442295},{"NoteNumber":76,"Velocity":64,"Duration":288461,"SoundDuration":288461,"Delta":339730757},{"NoteNumber":57,"Velocity":35,"Duration":288461,"SoundDuration":288461,"Delta":339730757},{"NoteNumber":77,"Velocity":66,"Duration":231958,"SoundDuration":231958,"Delta":340019218},{"NoteNumber":60,"Velocity":37,"Duration":309278,"SoundDuration":309278,"Delta":340019218},{"NoteNumber":77,"Velocity":66,"Duration":288461,"SoundDuration":288461,"Delta":340328497},{"NoteNumber":55,"Velocity":47,"Duration":288461,"SoundDuration":288461,"Delta":340328497},{"NoteNumber":76,"Velocity":64,"Duration":288461,"SoundDuration":288461,"Delta":340616958},{"NoteNumber":60,"Velocity":35,"Duration":288461,"SoundDuration":288461,"Delta":340616958},{"NoteNumber":74,"Velocity":61,"Duration":141509,"SoundDuration":141509,"Delta":340905420},{"NoteNumber":58,"Velocity":35,"Duration":141509,"SoundDuration":141509,"Delta":340905420},{"NoteNumber":72,"Velocity":59,"Duration":141509,"SoundDuration":141509,"Delta":341188438},{"NoteNumber":60,"Velocity":35,"Duration":141509,"SoundDuration":141509,"Delta":341188438},{"NoteNumber":72,"Velocity":57,"Duration":283018,"SoundDuration":283018,"Delta":341471457},{"NoteNumber":55,"Velocity":44,"Duration":283018,"SoundDuration":283018,"Delta":341471457},{"NoteNumber":70,"Velocity":55,"Duration":283018,"SoundDuration":283018,"Delta":341754476},{"NoteNumber":60,"Velocity":33,"Duration":283018,"SoundDuration":283018,"Delta":341754476},{"NoteNumber":69,"Velocity":52,"Duration":141509,"SoundDuration":141509,"Delta":342037495},{"NoteNumber":58,"Velocity":33,"Duration":141509,"SoundDuration":141509,"Delta":342037495},{"NoteNumber":67,"Velocity":50,"Duration":174418,"SoundDuration":174418,"Delta":342320513},{"NoteNumber":60,"Velocity":33,"Duration":174418,"SoundDuration":174418,"Delta":342320513},{"NoteNumber":84,"Velocity":72,"Duration":865384,"SoundDuration":865384,"Delta":342669351},{"NoteNumber":53,"Velocity":40,"Duration":288461,"SoundDuration":288461,"Delta":342669351},{"NoteNumber":60,"Velocity":32,"Duration":288461,"SoundDuration":288461,"Delta":342957812},{"NoteNumber":57,"Velocity":32,"Duration":288461,"SoundDuration":288461,"Delta":343246274},{"NoteNumber":86,"Velocity":64,"Duration":144230,"SoundDuration":144230,"Delta":343534735},{"NoteNumber":60,"Velocity":32,"Duration":288461,"SoundDuration":288461,"Delta":343534735},{"NoteNumber":84,"Velocity":60,"Duration":144230,"SoundDuration":144230,"Delta":343678966},{"NoteNumber":82,"Velocity":68,"Duration":285714,"SoundDuration":285714,"Delta":343823197},{"NoteNumber":53,"Velocity":40,"Duration":285714,"SoundDuration":285714,"Delta":343823197},{"NoteNumber":81,"Velocity":60,"Duration":285714,"SoundDuration":285714,"Delta":344108911},{"NoteNumber":60,"Velocity":31,"Duration":285714,"SoundDuration":285714,"Delta":344108911},{"NoteNumber":79,"Velocity":62,"Duration":285714,"SoundDuration":285714,"Delta":344394625},{"NoteNumber":57,"Velocity":31,"Duration":285714,"SoundDuration":285714,"Delta":344394625},{"NoteNumber":77,"Velocity":60,"Duration":234375,"SoundDuration":234375,"Delta":344680339},{"NoteNumber":60,"Velocity":31,"Duration":312500,"SoundDuration":312500,"Delta":344680339},{"NoteNumber":77,"Velocity":70,"Duration":1153845,"SoundDuration":1153845,"Delta":344992839},{"NoteNumber":55,"Velocity":40,"Duration":288461,"SoundDuration":288461,"Delta":344992839},{"NoteNumber":60,"Velocity":30,"Duration":288461,"SoundDuration":288461,"Delta":345281301},{"NoteNumber":58,"Velocity":30,"Duration":288461,"SoundDuration":288461,"Delta":345569762},{"NoteNumber":60,"Velocity":30,"Duration":288461,"SoundDuration":288461,"Delta":345858224},{"NoteNumber":76,"Velocity":60,"Duration":135135,"SoundDuration":135135,"Delta":346146685},{"NoteNumber":55,"Velocity":40,"Duration":270270,"SoundDuration":270270,"Delta":346146685},{"NoteNumber":77,"Velocity":56,"Duration":135135,"SoundDuration":135135,"Delta":346281821},{"NoteNumber":76,"Velocity":60,"Duration":566037,"SoundDuration":566037,"Delta":346416956},{"NoteNumber":60,"Velocity":33,"Duration":283018,"SoundDuration":283018,"Delta":346416956},{"NoteNumber":58,"Velocity":33,"Duration":283018,"SoundDuration":283018,"Delta":346699974},{"NoteNumber":82,"Velocity":57,"Duration":283018,"SoundDuration":283018,"Delta":346982993},{"NoteNumber":60,"Velocity":33,"Duration":283018,"SoundDuration":283018,"Delta":346982993},{"NoteNumber":81,"Velocity":66,"Duration":140186,"SoundDuration":140186,"Delta":347266012},{"NoteNumber":53,"Velocity":40,"Duration":140186,"SoundDuration":140186,"Delta":347266012},{"NoteNumber":82,"Velocity":60,"Duration":140186,"SoundDuration":140186,"Delta":347546386},{"NoteNumber":60,"Velocity":32,"Duration":140186,"SoundDuration":140186,"Delta":347546386},{"NoteNumber":84,"Velocity":66,"Duration":141509,"SoundDuration":141509,"Delta":347826759},{"NoteNumber":57,"Velocity":32,"Duration":141509,"SoundDuration":141509,"Delta":347826759},{"NoteNumber":86,"Velocity":67,"Duration":140186,"SoundDuration":140186,"Delta":348109778},{"NoteNumber":60,"Velocity":32,"Duration":140186,"SoundDuration":140186,"Delta":348109778},{"NoteNumber":88,"Velocity":77,"Duration":138888,"SoundDuration":138888,"Delta":348390152},{"NoteNumber":53,"Velocity":46,"Duration":138888,"SoundDuration":138888,"Delta":348390152},{"NoteNumber":89,"Velocity":71,"Duration":140186,"SoundDuration":140186,"Delta":348667930},{"NoteNumber":60,"Velocity":35,"Duration":140186,"SoundDuration":140186,"Delta":348667930},{"NoteNumber":88,"Velocity":74,"Duration":141509,"SoundDuration":141509,"Delta":348948303},{"NoteNumber":57,"Velocity":36,"Duration":141509,"SoundDuration":141509,"Delta":348948303},{"NoteNumber":89,"Velocity":72,"Duration":149999,"SoundDuration":149999,"Delta":349231322},{"NoteNumber":60,"Velocity":38,"Duration":149999,"SoundDuration":149999,"Delta":349231322},{"NoteNumber":89,"Velocity":80,"Duration":285714,"SoundDuration":285714,"Delta":349531322},{"NoteNumber":55,"Velocity":49,"Duration":285714,"SoundDuration":285714,"Delta":349531322},{"NoteNumber":88,"Velocity":72,"Duration":285714,"SoundDuration":285714,"Delta":349817036},{"NoteNumber":60,"Velocity":39,"Duration":285714,"SoundDuration":285714,"Delta":349817036},{"NoteNumber":86,"Velocity":73,"Duration":285714,"SoundDuration":285714,"Delta":350102751},{"NoteNumber":58,"Velocity":39,"Duration":285714,"SoundDuration":285714,"Delta":350102751},{"NoteNumber":84,"Velocity":70,"Duration":214285,"SoundDuration":214285,"Delta":350388465},{"NoteNumber":60,"Velocity":39,"Duration":285714,"SoundDuration":285714,"Delta":350388465},{"NoteNumber":84,"Velocity":75,"Duration":285714,"SoundDuration":285714,"Delta":350674179},{"NoteNumber":55,"Velocity":50,"Duration":285714,"SoundDuration":285714,"Delta":350674179},{"NoteNumber":82,"Velocity":70,"Duration":285714,"SoundDuration":285714,"Delta":350959893},{"NoteNumber":60,"Velocity":40,"Duration":285714,"SoundDuration":285714,"Delta":350959893},{"NoteNumber":81,"Velocity":68,"Duration":285714,"SoundDuration":285714,"Delta":351245608},{"NoteNumber":58,"Velocity":40,"Duration":285714,"SoundDuration":285714,"Delta":351245608},{"NoteNumber":79,"Velocity":67,"Duration":306122,"SoundDuration":306122,"Delta":351531322},{"NoteNumber":60,"Velocity":40,"Duration":306122,"SoundDuration":306122,"Delta":351531322},{"NoteNumber":81,"Velocity":68,"Duration":285714,"SoundDuration":285714,"Delta":351837444},{"NoteNumber":53,"Velocity":48,"Duration":285714,"SoundDuration":285714,"Delta":351837444},{"NoteNumber":82,"Velocity":68,"Duration":288461,"SoundDuration":288461,"Delta":352123159},{"NoteNumber":60,"Velocity":32,"Duration":288461,"SoundDuration":288461,"Delta":352123159},{"NoteNumber":81,"Velocity":75,"Duration":288461,"SoundDuration":288461,"Delta":352411620},{"NoteNumber":57,"Velocity":32,"Duration":288461,"SoundDuration":288461,"Delta":352411620},{"NoteNumber":82,"Velocity":74,"Duration":285714,"SoundDuration":285714,"Delta":352700082},{"NoteNumber":60,"Velocity":32,"Duration":285714,"SoundDuration":285714,"Delta":352700082},{"NoteNumber":84,"Velocity":83,"Duration":288461,"SoundDuration":288461,"Delta":352985796},{"NoteNumber":53,"Velocity":52,"Duration":288461,"SoundDuration":288461,"Delta":352985796},{"NoteNumber":86,"Velocity":81,"Duration":297029,"SoundDuration":297029,"Delta":353274257},{"NoteNumber":60,"Velocity":39,"Duration":297029,"SoundDuration":297029,"Delta":353274257},{"NoteNumber":84,"Velocity":91,"Duration":288461,"SoundDuration":288461,"Delta":353571287},{"NoteNumber":57,"Velocity":42,"Duration":288461,"SoundDuration":288461,"Delta":353571287},{"NoteNumber":86,"Velocity":85,"Duration":326086,"SoundDuration":326086,"Delta":353859749},{"NoteNumber":60,"Velocity":45,"Duration":326086,"SoundDuration":326086,"Delta":353859749},{"NoteNumber":87,"Velocity":97,"Duration":2331730,"SoundDuration":2331730,"Delta":354185836},{"NoteNumber":75,"Velocity":82,"Duration":2331730,"SoundDuration":2331730,"Delta":354185836},{"NoteNumber":57,"Velocity":65,"Duration":288461,"SoundDuration":288461,"Delta":354185836},{"NoteNumber":65,"Velocity":55,"Duration":288461,"SoundDuration":288461,"Delta":354474297},{"NoteNumber":60,"Velocity":55,"Duration":288461,"SoundDuration":288461,"Delta":354762759},{"NoteNumber":65,"Velocity":55,"Duration":288461,"SoundDuration":288461,"Delta":355051220},{"NoteNumber":57,"Velocity":63,"Duration":288461,"SoundDuration":288461,"Delta":355339682},{"NoteNumber":65,"Velocity":51,"Duration":288461,"SoundDuration":288461,"Delta":355628143},{"NoteNumber":60,"Velocity":51,"Duration":288461,"SoundDuration":288461,"Delta":355916605},{"NoteNumber":65,"Velocity":51,"Duration":312500,"SoundDuration":312500,"Delta":356205066},{"NoteNumber":58,"Velocity":58,"Duration":291262,"SoundDuration":291262,"Delta":356517566},{"NoteNumber":86,"Velocity":70,"Duration":285714,"SoundDuration":285714,"Delta":356808828},{"NoteNumber":65,"Velocity":45,"Duration":285714,"SoundDuration":285714,"Delta":356808828},{"NoteNumber":85,"Velocity":75,"Duration":285714,"SoundDuration":285714,"Delta":357094543},{"NoteNumber":62,"Velocity":45,"Duration":285714,"SoundDuration":285714,"Delta":357094543},{"NoteNumber":86,"Velocity":68,"Duration":285714,"SoundDuration":285714,"Delta":357380257},{"NoteNumber":65,"Velocity":45,"Duration":285714,"SoundDuration":285714,"Delta":357380257},{"NoteNumber":57,"Velocity":51,"Duration":285714,"SoundDuration":285714,"Delta":357665971},{"NoteNumber":84,"Velocity":67,"Duration":285714,"SoundDuration":285714,"Delta":357951685},{"NoteNumber":66,"Velocity":44,"Duration":285714,"SoundDuration":285714,"Delta":357951685},{"NoteNumber":83,"Velocity":76,"Duration":285714,"SoundDuration":285714,"Delta":358237400},{"NoteNumber":60,"Velocity":44,"Duration":285714,"SoundDuration":285714,"Delta":358237400},{"NoteNumber":84,"Velocity":67,"Duration":297029,"SoundDuration":297029,"Delta":358523114},{"NoteNumber":66,"Velocity":44,"Duration":297029,"SoundDuration":297029,"Delta":358523114},{"NoteNumber":55,"Velocity":51,"Duration":285714,"SoundDuration":285714,"Delta":358820144},{"NoteNumber":83,"Velocity":70,"Duration":285714,"SoundDuration":285714,"Delta":359105858},{"NoteNumber":65,"Velocity":43,"Duration":285714,"SoundDuration":285714,"Delta":359105858},{"NoteNumber":83,"Velocity":69,"Duration":136363,"SoundDuration":136363,"Delta":359391572},{"NoteNumber":62,"Velocity":43,"Duration":272727,"SoundDuration":272727,"Delta":359391572},{"NoteNumber":84,"Velocity":63,"Duration":136363,"SoundDuration":136363,"Delta":359527936},{"NoteNumber":83,"Velocity":68,"Duration":291262,"SoundDuration":291262,"Delta":359664299},{"NoteNumber":65,"Velocity":43,"Duration":291262,"SoundDuration":291262,"Delta":359664299},{"NoteNumber":60,"Velocity":51,"Duration":283018,"SoundDuration":283018,"Delta":359955562},{"NoteNumber":82,"Velocity":72,"Duration":283018,"SoundDuration":283018,"Delta":360238580},{"NoteNumber":67,"Velocity":43,"Duration":283018,"SoundDuration":283018,"Delta":360238580},{"NoteNumber":82,"Velocity":72,"Duration":136363,"SoundDuration":136363,"Delta":360521599},{"NoteNumber":64,"Velocity":43,"Duration":272727,"SoundDuration":272727,"Delta":360521599},{"NoteNumber":84,"Velocity":65,"Duration":136363,"SoundDuration":136363,"Delta":360657963},{"NoteNumber":82,"Velocity":75,"Duration":297029,"SoundDuration":297029,"Delta":360794326},{"NoteNumber":67,"Velocity":43,"Duration":297029,"SoundDuration":297029,"Delta":360794326},{"NoteNumber":53,"Velocity":47,"Duration":283018,"SoundDuration":283018,"Delta":361091356},{"NoteNumber":81,"Velocity":67,"Duration":283018,"SoundDuration":283018,"Delta":361374375},{"NoteNumber":65,"Velocity":41,"Duration":283018,"SoundDuration":283018,"Delta":361374375},{"NoteNumber":82,"Velocity":70,"Duration":283018,"SoundDuration":283018,"Delta":361657394},{"NoteNumber":57,"Velocity":41,"Duration":283018,"SoundDuration":283018,"Delta":361657394},{"NoteNumber":84,"Velocity":72,"Duration":227272,"SoundDuration":227272,"Delta":361940412},{"NoteNumber":65,"Velocity":41,"Duration":303030,"SoundDuration":303030,"Delta":361940412},{"NoteNumber":84,"Velocity":72,"Duration":285714,"SoundDuration":285714,"Delta":362243443},{"NoteNumber":58,"Velocity":47,"Duration":285714,"SoundDuration":285714,"Delta":362243443},{"NoteNumber":74,"Velocity":66,"Duration":285714,"SoundDuration":285714,"Delta":362529157},{"NoteNumber":67,"Velocity":41,"Duration":285714,"SoundDuration":285714,"Delta":362529157},{"NoteNumber":82,"Velocity":72,"Duration":285714,"SoundDuration":285714,"Delta":362814871},{"NoteNumber":62,"Velocity":41,"Duration":285714,"SoundDuration":285714,"Delta":362814871},{"NoteNumber":79,"Velocity":65,"Duration":285714,"SoundDuration":285714,"Delta":363100585},{"NoteNumber":67,"Velocity":41,"Duration":285714,"SoundDuration":285714,"Delta":363100585},{"NoteNumber":77,"Velocity":72,"Duration":1143735,"SoundDuration":1143735,"Delta":363386300},{"NoteNumber":60,"Velocity":47,"Duration":285714,"SoundDuration":285714,"Delta":363386300},{"NoteNumber":69,"Velocity":40,"Duration":285714,"SoundDuration":285714,"Delta":363672014},{"NoteNumber":65,"Velocity":40,"Duration":285714,"SoundDuration":285714,"Delta":363957728},{"NoteNumber":69,"Velocity":40,"Duration":286592,"SoundDuration":286592,"Delta":364243442},{"NoteNumber":76,"Velocity":68,"Duration":96760,"SoundDuration":96760,"Delta":364530035},{"NoteNumber":60,"Velocity":47,"Duration":286751,"SoundDuration":286751,"Delta":364530035},{"NoteNumber":77,"Velocity":60,"Duration":95604,"SoundDuration":95604,"Delta":364626796},{"NoteNumber":76,"Velocity":68,"Duration":94386,"SoundDuration":94386,"Delta":364722400},{"NoteNumber":77,"Velocity":61,"Duration":93155,"SoundDuration":93155,"Delta":364816786},{"NoteNumber":67,"Velocity":42,"Duration":278426,"SoundDuration":278426,"Delta":364816786},{"NoteNumber":76,"Velocity":68,"Duration":92592,"SoundDuration":92592,"Delta":364909941},{"NoteNumber":77,"Velocity":61,"Duration":92679,"SoundDuration":92679,"Delta":365002534},{"NoteNumber":76,"Velocity":68,"Duration":567018,"SoundDuration":567018,"Delta":365095213},{"NoteNumber":64,"Velocity":42,"Duration":281453,"SoundDuration":281453,"Delta":365095213},{"NoteNumber":67,"Velocity":42,"Duration":285565,"SoundDuration":285565,"Delta":365376667},{"NoteNumber":57,"Velocity":47,"Duration":283018,"SoundDuration":283018,"Delta":365662232},{"NoteNumber":84,"Velocity":72,"Duration":283018,"SoundDuration":283018,"Delta":365945251},{"NoteNumber":65,"Velocity":41,"Duration":283018,"SoundDuration":283018,"Delta":365945251},{"NoteNumber":81,"Velocity":75,"Duration":283018,"SoundDuration":283018,"Delta":366228270},{"NoteNumber":60,"Velocity":41,"Duration":283018,"SoundDuration":283018,"Delta":366228270},{"NoteNumber":77,"Velocity":67,"Duration":300000,"SoundDuration":300000,"Delta":366511288},{"NoteNumber":65,"Velocity":41,"Duration":300000,"SoundDuration":300000,"Delta":366511288},{"NoteNumber":75,"Velocity":77,"Duration":283018,"SoundDuration":283018,"Delta":366811288},{"NoteNumber":58,"Velocity":47,"Duration":283018,"SoundDuration":283018,"Delta":366811288},{"NoteNumber":74,"Velocity":69,"Duration":283018,"SoundDuration":283018,"Delta":367094307},{"NoteNumber":65,"Velocity":41,"Duration":283018,"SoundDuration":283018,"Delta":367094307},{"NoteNumber":85,"Velocity":82,"Duration":283018,"SoundDuration":283018,"Delta":367377326},{"NoteNumber":62,"Velocity":41,"Duration":283018,"SoundDuration":283018,"Delta":367377326},{"NoteNumber":86,"Velocity":76,"Duration":283018,"SoundDuration":283018,"Delta":367660345},{"NoteNumber":65,"Velocity":41,"Duration":283018,"SoundDuration":283018,"Delta":367660345},{"NoteNumber":77,"Velocity":75,"Duration":1132074,"SoundDuration":1132074,"Delta":367943363},{"NoteNumber":60,"Velocity":47,"Duration":283018,"SoundDuration":283018,"Delta":367943363},{"NoteNumber":69,"Velocity":38,"Duration":283018,"SoundDuration":283018,"Delta":368226382},{"NoteNumber":65,"Velocity":38,"Duration":283018,"SoundDuration":283018,"Delta":368509401},{"NoteNumber":69,"Velocity":38,"Duration":283018,"SoundDuration":283018,"Delta":368792420},{"NoteNumber":79,"Velocity":68,"Duration":96331,"SoundDuration":96331,"Delta":369075438},{"NoteNumber":60,"Velocity":47,"Duration":288577,"SoundDuration":288577,"Delta":369075438},{"NoteNumber":81,"Velocity":60,"Duration":96527,"SoundDuration":96527,"Delta":369171770},{"NoteNumber":79,"Velocity":68,"Duration":95718,"SoundDuration":95718,"Delta":369268297},{"NoteNumber":81,"Velocity":61,"Duration":94923,"SoundDuration":94923,"Delta":369364016},{"NoteNumber":64,"Velocity":42,"Duration":282192,"SoundDuration":282192,"Delta":369364016},{"NoteNumber":79,"Velocity":68,"Duration":93810,"SoundDuration":93810,"Delta":369458940},{"NoteNumber":81,"Velocity":61,"Duration":93457,"SoundDuration":93457,"Delta":369552750},{"NoteNumber":79,"Velocity":68,"Duration":93457,"SoundDuration":93457,"Delta":369632190},{"NoteNumber":60,"Velocity":42,"Duration":282115,"SoundDuration":282115,"Delta":369646208},{"NoteNumber":81,"Velocity":60,"Duration":94207,"SoundDuration":94207,"Delta":369727984},{"NoteNumber":79,"Velocity":68,"Duration":94339,"SoundDuration":94339,"Delta":369819833},{"NoteNumber":77,"Velocity":63,"Duration":144794,"SoundDuration":144794,"Delta":369921248},{"NoteNumber":64,"Velocity":42,"Duration":302281,"SoundDuration":302281,"Delta":369928323},{"NoteNumber":79,"Velocity":62,"Duration":156497,"SoundDuration":156497,"Delta":370066043},{"NoteNumber":77,"Velocity":68,"Duration":285714,"SoundDuration":285714,"Delta":370230605},{"NoteNumber":65,"Velocity":47,"Duration":566666,"SoundDuration":566666,"Delta":370230605},{"NoteNumber":53,"Velocity":39,"Duration":1142856,"SoundDuration":1142856,"Delta":370230605},{"NoteNumber":69,"Velocity":48,"Duration":285714,"SoundDuration":285714,"Delta":370802034},{"NoteNumber":65,"Velocity":40,"Duration":285714,"SoundDuration":285714,"Delta":370802034},{"NoteNumber":69,"Velocity":48,"Duration":285714,"SoundDuration":285714,"Delta":371373462},{"NoteNumber":65,"Velocity":40,"Duration":285714,"SoundDuration":285714,"Delta":371373462},{"NoteNumber":65,"Velocity":40,"Duration":285714,"SoundDuration":285714,"Delta":371944891},{"NoteNumber":69,"Velocity":48,"Duration":285714,"SoundDuration":285714,"Delta":371944891},{"NoteNumber":65,"Velocity":44,"Duration":545860,"SoundDuration":545860,"Delta":372516319},{"NoteNumber":70,"Velocity":52,"Duration":132743,"SoundDuration":132743,"Delta":372516319},{"NoteNumber":69,"Velocity":47,"Duration":132743,"SoundDuration":132743,"Delta":372649062},{"NoteNumber":67,"Velocity":47,"Duration":140186,"SoundDuration":140186,"Delta":372781806},{"NoteNumber":69,"Velocity":48,"Duration":140186,"SoundDuration":140186,"Delta":372921993},{"NoteNumber":69,"Velocity":44,"Duration":560747,"SoundDuration":560747,"Delta":373062180},{"NoteNumber":72,"Velocity":52,"Duration":560747,"SoundDuration":560747,"Delta":373062180},{"NoteNumber":65,"Velocity":51,"Duration":560747,"SoundDuration":560747,"Delta":373622927},{"NoteNumber":69,"Velocity":60,"Duration":560747,"SoundDuration":560747,"Delta":373622927},{"NoteNumber":65,"Velocity":66,"Duration":638298,"SoundDuration":638298,"Delta":374183675},{"NoteNumber":62,"Velocity":55,"Duration":638298,"SoundDuration":638298,"Delta":374183675},{"NoteNumber":62,"Velocity":72,"Duration":1399272,"SoundDuration":1399272,"Delta":374821973},{"NoteNumber":58,"Velocity":60,"Duration":1399272,"SoundDuration":1399272,"Delta":374821973},{"NoteNumber":46,"Velocity":70,"Duration":277777,"SoundDuration":277777,"Delta":375943468},{"NoteNumber":34,"Velocity":59,"Duration":277777,"SoundDuration":277777,"Delta":375943468},{"NoteNumber":58,"Velocity":49,"Duration":277777,"SoundDuration":277777,"Delta":376221245},{"NoteNumber":62,"Velocity":58,"Duration":277777,"SoundDuration":277777,"Delta":376221245},{"NoteNumber":64,"Velocity":58,"Duration":277777,"SoundDuration":277777,"Delta":376499023},{"NoteNumber":60,"Velocity":49,"Duration":277777,"SoundDuration":277777,"Delta":376499023},{"NoteNumber":65,"Velocity":58,"Duration":272727,"SoundDuration":272727,"Delta":376776801},{"NoteNumber":62,"Velocity":49,"Duration":272727,"SoundDuration":272727,"Delta":376776801},{"NoteNumber":65,"Velocity":63,"Duration":277777,"SoundDuration":277777,"Delta":377079831},{"NoteNumber":62,"Velocity":53,"Duration":277777,"SoundDuration":277777,"Delta":377079831},{"NoteNumber":36,"Velocity":53,"Duration":277777,"SoundDuration":277777,"Delta":377079831},{"NoteNumber":48,"Velocity":63,"Duration":277777,"SoundDuration":277777,"Delta":377079831},{"NoteNumber":64,"Velocity":59,"Duration":277777,"SoundDuration":277777,"Delta":377357609},{"NoteNumber":60,"Velocity":50,"Duration":277777,"SoundDuration":277777,"Delta":377357609},{"NoteNumber":62,"Velocity":59,"Duration":277777,"SoundDuration":277777,"Delta":377635387},{"NoteNumber":58,"Velocity":50,"Duration":277777,"SoundDuration":277777,"Delta":377635387},{"NoteNumber":60,"Velocity":59,"Duration":262136,"SoundDuration":262136,"Delta":377913164},{"NoteNumber":57,"Velocity":50,"Duration":262136,"SoundDuration":262136,"Delta":377913164},{"NoteNumber":57,"Velocity":53,"Duration":283018,"SoundDuration":283018,"Delta":378204427},{"NoteNumber":60,"Velocity":63,"Duration":283018,"SoundDuration":283018,"Delta":378204427},{"NoteNumber":48,"Velocity":63,"Duration":283018,"SoundDuration":283018,"Delta":378204427},{"NoteNumber":36,"Velocity":53,"Duration":283018,"SoundDuration":283018,"Delta":378204427},{"NoteNumber":58,"Velocity":53,"Duration":283018,"SoundDuration":283018,"Delta":378487445},{"NoteNumber":55,"Velocity":45,"Duration":283018,"SoundDuration":283018,"Delta":378487445},{"NoteNumber":57,"Velocity":53,"Duration":283018,"SoundDuration":283018,"Delta":378770464},{"NoteNumber":53,"Velocity":45,"Duration":283018,"SoundDuration":283018,"Delta":378770464},{"NoteNumber":55,"Velocity":53,"Duration":315789,"SoundDuration":315789,"Delta":379053483},{"NoteNumber":52,"Velocity":45,"Duration":315789,"SoundDuration":315789,"Delta":379053483},{"NoteNumber":29,"Velocity":50,"Duration":1142856,"SoundDuration":1142856,"Delta":379369272},{"NoteNumber":41,"Velocity":50,"Duration":1142856,"SoundDuration":1142856,"Delta":379369272},{"NoteNumber":65,"Velocity":50,"Duration":190476,"SoundDuration":190476,"Delta":379940701},{"NoteNumber":69,"Velocity":46,"Duration":190476,"SoundDuration":190476,"Delta":380131177},{"NoteNumber":77,"Velocity":46,"Duration":190476,"SoundDuration":190476,"Delta":380321653},{"NoteNumber":65,"Velocity":52,"Duration":188679,"SoundDuration":188679,"Delta":380512129},{"NoteNumber":69,"Velocity":46,"Duration":188679,"SoundDuration":188679,"Delta":380700808},{"NoteNumber":77,"Velocity":46,"Duration":188679,"SoundDuration":188679,"Delta":380889488},{"NoteNumber":65,"Velocity":54,"Duration":188679,"SoundDuration":188679,"Delta":381078167},{"NoteNumber":69,"Velocity":47,"Duration":188679,"SoundDuration":188679,"Delta":381266846},{"NoteNumber":77,"Velocity":47,"Duration":188679,"SoundDuration":188679,"Delta":381455525},{"NoteNumber":65,"Velocity":60,"Duration":185185,"SoundDuration":185185,"Delta":381644204},{"NoteNumber":69,"Velocity":52,"Duration":185185,"SoundDuration":185185,"Delta":381829389},{"NoteNumber":77,"Velocity":54,"Duration":185185,"SoundDuration":185185,"Delta":382014575},{"NoteNumber":69,"Velocity":65,"Duration":185185,"SoundDuration":185185,"Delta":382199760},{"NoteNumber":72,"Velocity":58,"Duration":185185,"SoundDuration":185185,"Delta":382384945},{"NoteNumber":81,"Velocity":61,"Duration":185185,"SoundDuration":185185,"Delta":382570130},{"NoteNumber":65,"Velocity":69,"Duration":183486,"SoundDuration":183486,"Delta":382755315},{"NoteNumber":69,"Velocity":62,"Duration":183486,"SoundDuration":183486,"Delta":382938801},{"NoteNumber":77,"Velocity":65,"Duration":183486,"SoundDuration":183486,"Delta":383122288},{"NoteNumber":62,"Velocity":76,"Duration":183486,"SoundDuration":183486,"Delta":383305774},{"NoteNumber":65,"Velocity":66,"Duration":183486,"SoundDuration":183486,"Delta":383489260},{"NoteNumber":74,"Velocity":69,"Duration":273972,"SoundDuration":273972,"Delta":383672746},{"NoteNumber":58,"Velocity":80,"Duration":1429104,"SoundDuration":1429104,"Delta":383946719},{"NoteNumber":46,"Velocity":70,"Duration":297029,"SoundDuration":297029,"Delta":385078794},{"NoteNumber":34,"Velocity":59,"Duration":297029,"SoundDuration":297029,"Delta":385078794},{"NoteNumber":77,"Velocity":66,"Duration":319148,"SoundDuration":319148,"Delta":385375824},{"NoteNumber":74,"Velocity":56,"Duration":319148,"SoundDuration":319148,"Delta":385375824},{"NoteNumber":76,"Velocity":68,"Duration":319149,"SoundDuration":319149,"Delta":385694973},{"NoteNumber":72,"Velocity":57,"Duration":319149,"SoundDuration":319149,"Delta":385694973},{"NoteNumber":74,"Velocity":63,"Duration":317647,"SoundDuration":317647,"Delta":386014122},{"NoteNumber":70,"Velocity":53,"Duration":317647,"SoundDuration":317647,"Delta":386014122},{"NoteNumber":74,"Velocity":67,"Duration":319148,"SoundDuration":319148,"Delta":386367063},{"NoteNumber":70,"Velocity":56,"Duration":319148,"SoundDuration":319148,"Delta":386367063},{"NoteNumber":36,"Velocity":53,"Duration":319148,"SoundDuration":319148,"Delta":386367063},{"NoteNumber":48,"Velocity":63,"Duration":319148,"SoundDuration":319148,"Delta":386367063},{"NoteNumber":69,"Velocity":55,"Duration":319149,"SoundDuration":319149,"Delta":386686212},{"NoteNumber":72,"Velocity":65,"Duration":319149,"SoundDuration":319149,"Delta":386686212},{"NoteNumber":67,"Velocity":53,"Duration":319148,"SoundDuration":319148,"Delta":387005361},{"NoteNumber":70,"Velocity":63,"Duration":319148,"SoundDuration":319148,"Delta":387005361},{"NoteNumber":65,"Velocity":51,"Duration":287234,"SoundDuration":287234,"Delta":387324510},{"NoteNumber":69,"Velocity":61,"Duration":287234,"SoundDuration":287234,"Delta":387324510},{"NoteNumber":69,"Velocity":63,"Duration":319149,"SoundDuration":319149,"Delta":387643659},{"NoteNumber":48,"Velocity":53,"Duration":638298,"SoundDuration":638298,"Delta":387643659},{"NoteNumber":58,"Velocity":63,"Duration":638298,"SoundDuration":638298,"Delta":387643659},{"NoteNumber":67,"Velocity":56,"Duration":319148,"SoundDuration":319148,"Delta":387962808},{"NoteNumber":65,"Velocity":56,"Duration":319148,"SoundDuration":319148,"Delta":388281957},{"NoteNumber":58,"Velocity":47,"Duration":482142,"SoundDuration":482142,"Delta":388601106},{"NoteNumber":64,"Velocity":56,"Duration":482142,"SoundDuration":482142,"Delta":388601106},{"NoteNumber":58,"Velocity":59,"Duration":2789634,"SoundDuration":2789634,"Delta":389136820},{"NoteNumber":64,"Velocity":59,"Duration":2789634,"SoundDuration":2789634,"Delta":389136820},{"NoteNumber":53,"Velocity":56,"Duration":2789634,"SoundDuration":2789634,"Delta":389136820},{"NoteNumber":41,"Velocity":49,"Duration":868902,"SoundDuration":868902,"Delta":391926455},{"NoteNumber":45,"Velocity":53,"Duration":762195,"SoundDuration":762195,"Delta":391972187},{"NoteNumber":48,"Velocity":56,"Duration":777439,"SoundDuration":777439,"Delta":392017918},{"NoteNumber":60,"Velocity":52,"Duration":731707,"SoundDuration":731707,"Delta":392063650},{"NoteNumber":65,"Velocity":52,"Duration":731707,"SoundDuration":731707,"Delta":392063650},{"NoteNumber":57,"Velocity":52,"Duration":731707,"SoundDuration":731707,"Delta":392063650},{"NoteNumber":53,"Velocity":60,"Duration":731707,"SoundDuration":731707,"Delta":392063650}],"license":{"name":"Creative Commons Attribution-ShareAlike 3.0 Germany","url":"http://creativecommons.org/licenses/by-sa/3.0/de/deed.en","text":"The MIDI files in this folder were downloaded from http://www.piano-midi.de and are licensed under the Creative Commons Attribution-ShareAlike 3.0 Germany license by Bernd Krueger.\n\nThe MIDI, audio(MP3, OGG) and video files of Bernd Krueger are licensed under the cc-by-sa Germany License . This means, that you can use and adapt the files, as long as you attribute to the copyright holder Name: Bernd Krueger Source: http://www.piano-midi.de The distribution or public playback of the files is only allowed under identical license conditions . The scores are open source.","attribution":"Bernd Krueger","attributionUrl":"http://www.piano-midi.de"}}