{"title":"Klaviersonate Hoboken XVI: 33 2. Satz","artist":"Haydn","durationMs":318304,"midiSha256":"9edb9bbee101c751b2884f8af6758bf95f171b4f615fded6bfee119b13c54cc9","midiObject":[{"NoteNumber":81,"Velocity":50,"Duration":1210002,"SoundDuration":1210002,"Delta":0},{"NoteNumber":65,"Velocity":34,"Duration":1425118,"SoundDuration":1425118,"Delta":0},{"NoteNumber":62,"Velocity":28,"Duration":1425118,"SoundDuration":1425118,"Delta":0},{"NoteNumber":77,"Velocity":46,"Duration":107557,"SoundDuration":107557,"Delta":1210002},{"NoteNumber":74,"Velocity":41,"Duration":107557,"SoundDuration":107557,"Delta":1317560},{"NoteNumber":73,"Velocity":50,"Duration":806668,"SoundDuration":806668,"Delta":1425118},{"NoteNumber":67,"Velocity":32,"Duration":806668,"SoundDuration":806668,"Delta":1425118},{"NoteNumber":64,"Velocity":27,"Duration":806668,"SoundDuration":806668,"Delta":1425118},{"NoteNumber":82,"Velocity":50,"Duration":1224822,"SoundDuration":1224822,"Delta":4651792},{"NoteNumber":70,"Velocity":28,"Duration":1437197,"SoundDuration":1437197,"Delta":4651792},{"NoteNumber":67,"Velocity":28,"Duration":1437197,"SoundDuration":1437197,"Delta":4651792},{"NoteNumber":73,"Velocity":34,"Duration":1437197,"SoundDuration":1437197,"Delta":4651792},{"NoteNumber":64,"Velocity":28,"Duration":1437197,"SoundDuration":1437197,"Delta":4651792},{"NoteNumber":79,"Velocity":46,"Duration":106187,"SoundDuration":106187,"Delta":5876615},{"NoteNumber":76,"Velocity":41,"Duration":106187,"SoundDuration":106187,"Delta":5982802},{"NoteNumber":74,"Velocity":50,"Duration":797024,"SoundDuration":797024,"Delta":6088989},{"NoteNumber":69,"Velocity":27,"Duration":797024,"SoundDuration":797024,"Delta":6088989},{"NoteNumber":74,"Velocity":32,"Duration":797024,"SoundDuration":797024,"Delta":6088989},{"NoteNumber":65,"Velocity":27,"Duration":797024,"SoundDuration":797024,"Delta":6088989},{"NoteNumber":85,"Velocity":47,"Duration":324675,"SoundDuration":324675,"Delta":7284526},{"NoteNumber":86,"Velocity":55,"Duration":649350,"SoundDuration":649350,"Delta":7609201},{"NoteNumber":81,"Velocity":43,"Duration":324675,"SoundDuration":324675,"Delta":8583227},{"NoteNumber":82,"Velocity":53,"Duration":649350,"SoundDuration":649350,"Delta":8907902},{"NoteNumber":67,"Velocity":26,"Duration":649350,"SoundDuration":649350,"Delta":8907902},{"NoteNumber":74,"Velocity":41,"Duration":324675,"SoundDuration":324675,"Delta":9881928},{"NoteNumber":73,"Velocity":50,"Duration":649350,"SoundDuration":649350,"Delta":10206603},{"NoteNumber":69,"Velocity":26,"Duration":649350,"SoundDuration":649350,"Delta":10206603},{"NoteNumber":76,"Velocity":41,"Duration":324675,"SoundDuration":324675,"Delta":11180629},{"NoteNumber":81,"Velocity":50,"Duration":649350,"SoundDuration":649350,"Delta":11505304},{"NoteNumber":61,"Velocity":27,"Duration":649350,"SoundDuration":649350,"Delta":11505304},{"NoteNumber":69,"Velocity":32,"Duration":649350,"SoundDuration":649350,"Delta":11505304},{"NoteNumber":79,"Velocity":41,"Duration":324675,"SoundDuration":324675,"Delta":12479330},{"NoteNumber":79,"Velocity":35,"Duration":384714,"SoundDuration":384714,"Delta":12804005},{"NoteNumber":62,"Velocity":27,"Duration":789394,"SoundDuration":789394,"Delta":12804005},{"NoteNumber":69,"Velocity":32,"Duration":789394,"SoundDuration":789394,"Delta":12804005},{"NoteNumber":77,"Velocity":32,"Duration":404680,"SoundDuration":404680,"Delta":13188719},{"NoteNumber":79,"Velocity":38,"Duration":94652,"SoundDuration":94652,"Delta":13593399},{"NoteNumber":77,"Velocity":32,"Duration":79184,"SoundDuration":79184,"Delta":13688051},{"NoteNumber":79,"Velocity":30,"Duration":74938,"SoundDuration":74938,"Delta":13767236},{"NoteNumber":77,"Velocity":31,"Duration":70310,"SoundDuration":70310,"Delta":13842175},{"NoteNumber":79,"Velocity":33,"Duration":66677,"SoundDuration":66677,"Delta":13912485},{"NoteNumber":77,"Velocity":36,"Duration":64245,"SoundDuration":64245,"Delta":13979162},{"NoteNumber":76,"Velocity":37,"Duration":100833,"SoundDuration":100833,"Delta":14043408},{"NoteNumber":77,"Velocity":38,"Duration":100833,"SoundDuration":100833,"Delta":14144241},{"NoteNumber":76,"Velocity":40,"Duration":556999,"SoundDuration":556999,"Delta":14245075},{"NoteNumber":69,"Velocity":27,"Duration":556999,"SoundDuration":556999,"Delta":14245075},{"NoteNumber":73,"Velocity":32,"Duration":556999,"SoundDuration":556999,"Delta":14245075},{"NoteNumber":69,"Velocity":45,"Duration":968679,"SoundDuration":968679,"Delta":16473073},{"NoteNumber":53,"Velocity":30,"Duration":1380314,"SoundDuration":1380314,"Delta":16473073},{"NoteNumber":50,"Velocity":25,"Duration":1380314,"SoundDuration":1380314,"Delta":16473073},{"NoteNumber":67,"Velocity":42,"Duration":102908,"SoundDuration":102908,"Delta":17441752},{"NoteNumber":65,"Velocity":36,"Duration":102908,"SoundDuration":102908,"Delta":17544661},{"NoteNumber":64,"Velocity":41,"Duration":102908,"SoundDuration":102908,"Delta":17647570},{"NoteNumber":62,"Velocity":36,"Duration":102908,"SoundDuration":102908,"Delta":17750479},{"NoteNumber":61,"Velocity":45,"Duration":806668,"SoundDuration":806668,"Delta":17853388},{"NoteNumber":55,"Velocity":28,"Duration":806668,"SoundDuration":806668,"Delta":17853388},{"NoteNumber":52,"Velocity":24,"Duration":806668,"SoundDuration":806668,"Delta":17853388},{"NoteNumber":55,"Velocity":45,"Duration":244360,"SoundDuration":244360,"Delta":19466725},{"NoteNumber":58,"Velocity":41,"Duration":236894,"SoundDuration":236894,"Delta":19711086},{"NoteNumber":61,"Velocity":41,"Duration":227990,"SoundDuration":227990,"Delta":19947980},{"NoteNumber":64,"Velocity":45,"Duration":224077,"SoundDuration":224077,"Delta":20175971},{"NoteNumber":67,"Velocity":41,"Duration":218163,"SoundDuration":218163,"Delta":20400049},{"NoteNumber":69,"Velocity":41,"Duration":309405,"SoundDuration":309405,"Delta":20618212},{"NoteNumber":70,"Velocity":57,"Duration":997672,"SoundDuration":997672,"Delta":20927618},{"NoteNumber":52,"Velocity":25,"Duration":1414454,"SoundDuration":1414454,"Delta":20927618},{"NoteNumber":58,"Velocity":25,"Duration":1414454,"SoundDuration":1414454,"Delta":20927618},{"NoteNumber":61,"Velocity":30,"Duration":1414454,"SoundDuration":1414454,"Delta":20927618},{"NoteNumber":55,"Velocity":25,"Duration":1414454,"SoundDuration":1414454,"Delta":20927618},{"NoteNumber":69,"Velocity":42,"Duration":104195,"SoundDuration":104195,"Delta":21925290},{"NoteNumber":67,"Velocity":36,"Duration":104195,"SoundDuration":104195,"Delta":22029486},{"NoteNumber":65,"Velocity":41,"Duration":104195,"SoundDuration":104195,"Delta":22133681},{"NoteNumber":64,"Velocity":36,"Duration":104195,"SoundDuration":104195,"Delta":22237877},{"NoteNumber":62,"Velocity":45,"Duration":660938,"SoundDuration":660938,"Delta":22342073},{"NoteNumber":57,"Velocity":28,"Duration":660938,"SoundDuration":660938,"Delta":22342073},{"NoteNumber":53,"Velocity":24,"Duration":660938,"SoundDuration":660938,"Delta":22342073},{"NoteNumber":73,"Velocity":43,"Duration":330469,"SoundDuration":330469,"Delta":23333480},{"NoteNumber":74,"Velocity":45,"Duration":71292,"SoundDuration":71292,"Delta":23663950},{"NoteNumber":73,"Velocity":42,"Duration":71292,"SoundDuration":71292,"Delta":23735242},{"NoteNumber":74,"Velocity":53,"Duration":490078,"SoundDuration":490078,"Delta":23806535},{"NoteNumber":76,"Velocity":41,"Duration":317864,"SoundDuration":317864,"Delta":24614478},{"NoteNumber":77,"Velocity":45,"Duration":71292,"SoundDuration":71292,"Delta":24932342},{"NoteNumber":46,"Velocity":26,"Duration":1331913,"SoundDuration":1331913,"Delta":24932342},{"NoteNumber":50,"Velocity":26,"Duration":1331913,"SoundDuration":1331913,"Delta":24932342},{"NoteNumber":56,"Velocity":35,"Duration":1331913,"SoundDuration":1331913,"Delta":24932342},{"NoteNumber":76,"Velocity":42,"Duration":71292,"SoundDuration":71292,"Delta":25003635},{"NoteNumber":77,"Velocity":53,"Duration":515018,"SoundDuration":515018,"Delta":25074928},{"NoteNumber":85,"Velocity":55,"Duration":337154,"SoundDuration":337154,"Delta":25927101},{"NoteNumber":86,"Velocity":64,"Duration":674308,"SoundDuration":674308,"Delta":26264255},{"NoteNumber":88,"Velocity":65,"Duration":337154,"SoundDuration":337154,"Delta":27275719},{"NoteNumber":89,"Velocity":69,"Duration":674309,"SoundDuration":674309,"Delta":27612873},{"NoteNumber":34,"Velocity":28,"Duration":674309,"SoundDuration":674309,"Delta":27612873},{"NoteNumber":56,"Velocity":34,"Duration":355913,"SoundDuration":355913,"Delta":28624337},{"NoteNumber":56,"Velocity":40,"Duration":1500750,"SoundDuration":1500750,"Delta":29015041},{"NoteNumber":33,"Velocity":32,"Duration":1500750,"SoundDuration":1500750,"Delta":29015041},{"NoteNumber":57,"Velocity":35,"Duration":93796,"SoundDuration":93796,"Delta":30515791},{"NoteNumber":56,"Velocity":32,"Duration":93796,"SoundDuration":93796,"Delta":30609587},{"NoteNumber":57,"Velocity":40,"Duration":1313156,"SoundDuration":1313156,"Delta":30703384},{"NoteNumber":29,"Velocity":32,"Duration":1398063,"SoundDuration":1398063,"Delta":33517291},{"NoteNumber":41,"Velocity":32,"Duration":1398063,"SoundDuration":1398063,"Delta":33517291},{"NoteNumber":84,"Velocity":40,"Duration":222518,"SoundDuration":222518,"Delta":33802760},{"NoteNumber":79,"Velocity":40,"Duration":222518,"SoundDuration":222518,"Delta":34025279},{"NoteNumber":81,"Velocity":45,"Duration":222518,"SoundDuration":222518,"Delta":34247798},{"NoteNumber":84,"Velocity":40,"Duration":222518,"SoundDuration":222518,"Delta":34470317},{"NoteNumber":76,"Velocity":40,"Duration":222518,"SoundDuration":222518,"Delta":34692836},{"NoteNumber":77,"Velocity":42,"Duration":222518,"SoundDuration":222518,"Delta":34915354},{"NoteNumber":81,"Velocity":40,"Duration":222518,"SoundDuration":222518,"Delta":35137873},{"NoteNumber":77,"Velocity":35,"Duration":222518,"SoundDuration":222518,"Delta":35360392},{"NoteNumber":76,"Velocity":40,"Duration":222518,"SoundDuration":222518,"Delta":35582911},{"NoteNumber":74,"Velocity":37,"Duration":222518,"SoundDuration":222518,"Delta":35805430},{"NoteNumber":72,"Velocity":37,"Duration":222518,"SoundDuration":222518,"Delta":36027949},{"NoteNumber":70,"Velocity":40,"Duration":222518,"SoundDuration":222518,"Delta":36250467},{"NoteNumber":69,"Velocity":38,"Duration":223165,"SoundDuration":223165,"Delta":36472986},{"NoteNumber":67,"Velocity":38,"Duration":225142,"SoundDuration":225142,"Delta":36696152},{"NoteNumber":65,"Velocity":40,"Duration":227154,"SoundDuration":227154,"Delta":36921295},{"NoteNumber":64,"Velocity":35,"Duration":229649,"SoundDuration":229649,"Delta":37148449},{"NoteNumber":62,"Velocity":33,"Duration":292997,"SoundDuration":292997,"Delta":37378099},{"NoteNumber":60,"Velocity":40,"Duration":2466346,"SoundDuration":2466346,"Delta":37671096},{"NoteNumber":52,"Velocity":21,"Duration":660938,"SoundDuration":660938,"Delta":38332035},{"NoteNumber":58,"Velocity":27,"Duration":660938,"SoundDuration":660938,"Delta":38332035},{"NoteNumber":52,"Velocity":21,"Duration":660938,"SoundDuration":660938,"Delta":38992973},{"NoteNumber":58,"Velocity":27,"Duration":660938,"SoundDuration":660938,"Delta":38992973},{"NoteNumber":52,"Velocity":21,"Duration":636591,"SoundDuration":636591,"Delta":39653912},{"NoteNumber":58,"Velocity":27,"Duration":636591,"SoundDuration":636591,"Delta":39653912},{"NoteNumber":64,"Velocity":40,"Duration":153061,"SoundDuration":153061,"Delta":40137442},{"NoteNumber":62,"Velocity":40,"Duration":1045100,"SoundDuration":1045100,"Delta":40290504},{"NoteNumber":58,"Velocity":29,"Duration":686162,"SoundDuration":686162,"Delta":40290504},{"NoteNumber":52,"Velocity":23,"Duration":686162,"SoundDuration":686162,"Delta":40290504},{"NoteNumber":52,"Velocity":21,"Duration":717874,"SoundDuration":717874,"Delta":40976666},{"NoteNumber":58,"Velocity":27,"Duration":717874,"SoundDuration":717874,"Delta":40976666},{"NoteNumber":60,"Velocity":40,"Duration":329026,"SoundDuration":329026,"Delta":41335604},{"NoteNumber":60,"Velocity":45,"Duration":285469,"SoundDuration":285469,"Delta":41694541},{"NoteNumber":53,"Velocity":32,"Duration":1398063,"SoundDuration":1398063,"Delta":41694541},{"NoteNumber":57,"Velocity":32,"Duration":1398063,"SoundDuration":1398063,"Delta":41694541},{"NoteNumber":84,"Velocity":40,"Duration":222518,"SoundDuration":222518,"Delta":41980011},{"NoteNumber":79,"Velocity":40,"Duration":222518,"SoundDuration":222518,"Delta":42202530},{"NoteNumber":81,"Velocity":45,"Duration":222518,"SoundDuration":222518,"Delta":42425049},{"NoteNumber":84,"Velocity":40,"Duration":222518,"SoundDuration":222518,"Delta":42647567},{"NoteNumber":76,"Velocity":40,"Duration":222518,"SoundDuration":222518,"Delta":42870086},{"NoteNumber":77,"Velocity":42,"Duration":222518,"SoundDuration":222518,"Delta":43092605},{"NoteNumber":81,"Velocity":40,"Duration":222518,"SoundDuration":222518,"Delta":43315124},{"NoteNumber":77,"Velocity":35,"Duration":222518,"SoundDuration":222518,"Delta":43537643},{"NoteNumber":76,"Velocity":40,"Duration":222518,"SoundDuration":222518,"Delta":43760162},{"NoteNumber":74,"Velocity":37,"Duration":222518,"SoundDuration":222518,"Delta":43982680},{"NoteNumber":72,"Velocity":37,"Duration":222518,"SoundDuration":222518,"Delta":44205199},{"NoteNumber":70,"Velocity":40,"Duration":222518,"SoundDuration":222518,"Delta":44427718},{"NoteNumber":69,"Velocity":38,"Duration":223165,"SoundDuration":223165,"Delta":44650237},{"NoteNumber":67,"Velocity":38,"Duration":225142,"SoundDuration":225142,"Delta":44873403},{"NoteNumber":65,"Velocity":40,"Duration":227154,"SoundDuration":227154,"Delta":45098546},{"NoteNumber":64,"Velocity":35,"Duration":229649,"SoundDuration":229649,"Delta":45325700},{"NoteNumber":62,"Velocity":33,"Duration":292997,"SoundDuration":292997,"Delta":45555350},{"NoteNumber":60,"Velocity":40,"Duration":2466346,"SoundDuration":2466346,"Delta":45848347},{"NoteNumber":51,"Velocity":21,"Duration":660938,"SoundDuration":660938,"Delta":46509285},{"NoteNumber":57,"Velocity":27,"Duration":660938,"SoundDuration":660938,"Delta":46509285},{"NoteNumber":51,"Velocity":21,"Duration":660938,"SoundDuration":660938,"Delta":47170224},{"NoteNumber":57,"Velocity":27,"Duration":660938,"SoundDuration":660938,"Delta":47170224},{"NoteNumber":51,"Velocity":21,"Duration":636591,"SoundDuration":636591,"Delta":47831162},{"NoteNumber":57,"Velocity":27,"Duration":636591,"SoundDuration":636591,"Delta":47831162},{"NoteNumber":63,"Velocity":40,"Duration":153061,"SoundDuration":153061,"Delta":48314693},{"NoteNumber":62,"Velocity":40,"Duration":1045100,"SoundDuration":1045100,"Delta":48467754},{"NoteNumber":57,"Velocity":29,"Duration":686162,"SoundDuration":686162,"Delta":48467754},{"NoteNumber":51,"Velocity":23,"Duration":686162,"SoundDuration":686162,"Delta":48467754},{"NoteNumber":51,"Velocity":21,"Duration":717874,"SoundDuration":717874,"Delta":49153917},{"NoteNumber":57,"Velocity":27,"Duration":717874,"SoundDuration":717874,"Delta":49153917},{"NoteNumber":60,"Velocity":40,"Duration":358937,"SoundDuration":358937,"Delta":49512854},{"NoteNumber":65,"Velocity":40,"Duration":1012735,"SoundDuration":1012735,"Delta":49871792},{"NoteNumber":50,"Velocity":21,"Duration":728742,"SoundDuration":728742,"Delta":50538666},{"NoteNumber":53,"Velocity":27,"Duration":728742,"SoundDuration":728742,"Delta":50538666},{"NoteNumber":62,"Velocity":40,"Duration":382881,"SoundDuration":382881,"Delta":50884528},{"NoteNumber":58,"Velocity":40,"Duration":1677367,"SoundDuration":1677367,"Delta":51267409},{"NoteNumber":50,"Velocity":23,"Duration":716503,"SoundDuration":716503,"Delta":51267409},{"NoteNumber":53,"Velocity":29,"Duration":716503,"SoundDuration":716503,"Delta":51267409},{"NoteNumber":50,"Velocity":21,"Duration":716503,"SoundDuration":716503,"Delta":51983913},{"NoteNumber":53,"Velocity":27,"Duration":716503,"SoundDuration":716503,"Delta":51983913},{"NoteNumber":50,"Velocity":23,"Duration":709246,"SoundDuration":709246,"Delta":52700416},{"NoteNumber":53,"Velocity":29,"Duration":709246,"SoundDuration":709246,"Delta":52700416},{"NoteNumber":62,"Velocity":41,"Duration":119486,"SoundDuration":119486,"Delta":52944777},{"NoteNumber":64,"Velocity":41,"Duration":114859,"SoundDuration":114859,"Delta":53181672},{"NoteNumber":65,"Velocity":45,"Duration":112815,"SoundDuration":112815,"Delta":53409663},{"NoteNumber":67,"Velocity":41,"Duration":109750,"SoundDuration":109750,"Delta":53633740},{"NoteNumber":69,"Velocity":41,"Duration":154702,"SoundDuration":154702,"Delta":53851904},{"NoteNumber":70,"Velocity":48,"Duration":2382042,"SoundDuration":2382042,"Delta":54161310},{"NoteNumber":48,"Velocity":27,"Duration":231803,"SoundDuration":231803,"Delta":54161310},{"NoteNumber":52,"Velocity":25,"Duration":231803,"SoundDuration":231803,"Delta":54393113},{"NoteNumber":55,"Velocity":25,"Duration":231803,"SoundDuration":231803,"Delta":54624917},{"NoteNumber":48,"Velocity":27,"Duration":231803,"SoundDuration":231803,"Delta":54856720},{"NoteNumber":52,"Velocity":25,"Duration":230196,"SoundDuration":230196,"Delta":55088524},{"NoteNumber":55,"Velocity":25,"Duration":225377,"SoundDuration":225377,"Delta":55318721},{"NoteNumber":48,"Velocity":27,"Duration":224435,"SoundDuration":224435,"Delta":55544098},{"NoteNumber":52,"Velocity":25,"Duration":222866,"SoundDuration":222866,"Delta":55768534},{"NoteNumber":55,"Velocity":25,"Duration":221637,"SoundDuration":221637,"Delta":55991400},{"NoteNumber":48,"Velocity":27,"Duration":220410,"SoundDuration":220410,"Delta":56213038},{"NoteNumber":52,"Velocity":25,"Duration":216879,"SoundDuration":216879,"Delta":56433448},{"NoteNumber":72,"Velocity":46,"Duration":160462,"SoundDuration":160462,"Delta":56543352},{"NoteNumber":55,"Velocity":25,"Duration":213949,"SoundDuration":213949,"Delta":56650327},{"NoteNumber":70,"Velocity":42,"Duration":160462,"SoundDuration":160462,"Delta":56703815},{"NoteNumber":69,"Velocity":48,"Duration":1376462,"SoundDuration":1376462,"Delta":56864277},{"NoteNumber":48,"Velocity":27,"Duration":229410,"SoundDuration":229410,"Delta":56864277},{"NoteNumber":53,"Velocity":25,"Duration":229410,"SoundDuration":229410,"Delta":57093687},{"NoteNumber":57,"Velocity":25,"Duration":229410,"SoundDuration":229410,"Delta":57323097},{"NoteNumber":48,"Velocity":27,"Duration":229410,"SoundDuration":229410,"Delta":57552508},{"NoteNumber":53,"Velocity":25,"Duration":229410,"SoundDuration":229410,"Delta":57781918},{"NoteNumber":57,"Velocity":25,"Duration":229410,"SoundDuration":229410,"Delta":58011328},{"NoteNumber":74,"Velocity":50,"Duration":1360610,"SoundDuration":1360610,"Delta":58240739},{"NoteNumber":46,"Velocity":31,"Duration":231342,"SoundDuration":231342,"Delta":58240739},{"NoteNumber":53,"Velocity":25,"Duration":230409,"SoundDuration":230409,"Delta":58472081},{"NoteNumber":57,"Velocity":29,"Duration":227946,"SoundDuration":227946,"Delta":58702491},{"NoteNumber":46,"Velocity":32,"Duration":226019,"SoundDuration":226019,"Delta":58930437},{"NoteNumber":53,"Velocity":35,"Duration":224278,"SoundDuration":224278,"Delta":59156457},{"NoteNumber":57,"Velocity":38,"Duration":220613,"SoundDuration":220613,"Delta":59380736},{"NoteNumber":79,"Velocity":66,"Duration":1315929,"SoundDuration":1315929,"Delta":59601349},{"NoteNumber":46,"Velocity":42,"Duration":216538,"SoundDuration":216538,"Delta":59601349},{"NoteNumber":53,"Velocity":37,"Duration":219058,"SoundDuration":219058,"Delta":59817887},{"NoteNumber":55,"Velocity":37,"Duration":221637,"SoundDuration":221637,"Delta":60036945},{"NoteNumber":46,"Velocity":42,"Duration":224278,"SoundDuration":224278,"Delta":60258583},{"NoteNumber":53,"Velocity":35,"Duration":220466,"SoundDuration":220466,"Delta":60482862},{"NoteNumber":55,"Velocity":36,"Duration":213949,"SoundDuration":213949,"Delta":60703328},{"NoteNumber":77,"Velocity":58,"Duration":1397983,"SoundDuration":1397983,"Delta":60917278},{"NoteNumber":47,"Velocity":43,"Duration":229410,"SoundDuration":229410,"Delta":60917278},{"NoteNumber":50,"Velocity":35,"Duration":229410,"SoundDuration":229410,"Delta":61146688},{"NoteNumber":55,"Velocity":35,"Duration":229410,"SoundDuration":229410,"Delta":61376098},{"NoteNumber":47,"Velocity":41,"Duration":229410,"SoundDuration":229410,"Delta":61605509},{"NoteNumber":50,"Velocity":34,"Duration":229410,"SoundDuration":229410,"Delta":61834919},{"NoteNumber":55,"Velocity":34,"Duration":286779,"SoundDuration":286779,"Delta":62064329},{"NoteNumber":77,"Velocity":50,"Duration":386199,"SoundDuration":386199,"Delta":62351109},{"NoteNumber":48,"Velocity":39,"Duration":257466,"SoundDuration":257466,"Delta":62351109},{"NoteNumber":52,"Velocity":31,"Duration":244100,"SoundDuration":244100,"Delta":62608575},{"NoteNumber":76,"Velocity":45,"Duration":346100,"SoundDuration":346100,"Delta":62737309},{"NoteNumber":55,"Velocity":31,"Duration":230733,"SoundDuration":230733,"Delta":62852676},{"NoteNumber":74,"Velocity":43,"Duration":346100,"SoundDuration":346100,"Delta":63083409},{"NoteNumber":48,"Velocity":35,"Duration":230733,"SoundDuration":230733,"Delta":63083409},{"NoteNumber":52,"Velocity":31,"Duration":230733,"SoundDuration":230733,"Delta":63314143},{"NoteNumber":72,"Velocity":43,"Duration":346100,"SoundDuration":346100,"Delta":63429510},{"NoteNumber":55,"Velocity":31,"Duration":230733,"SoundDuration":230733,"Delta":63544877},{"NoteNumber":70,"Velocity":53,"Duration":1354012,"SoundDuration":1354012,"Delta":63775610},{"NoteNumber":52,"Velocity":35,"Duration":226308,"SoundDuration":226308,"Delta":63775610},{"NoteNumber":55,"Velocity":32,"Duration":225548,"SoundDuration":225548,"Delta":64001918},{"NoteNumber":60,"Velocity":32,"Duration":229260,"SoundDuration":229260,"Delta":64227467},{"NoteNumber":52,"Velocity":35,"Duration":233611,"SoundDuration":233611,"Delta":64456727},{"NoteNumber":55,"Velocity":29,"Duration":225335,"SoundDuration":225335,"Delta":64690339},{"NoteNumber":60,"Velocity":29,"Duration":213949,"SoundDuration":213949,"Delta":64915674},{"NoteNumber":69,"Velocity":45,"Duration":1377640,"SoundDuration":1377640,"Delta":65129623},{"NoteNumber":53,"Velocity":35,"Duration":229410,"SoundDuration":229410,"Delta":65129623},{"NoteNumber":57,"Velocity":27,"Duration":229410,"SoundDuration":229410,"Delta":65359034},{"NoteNumber":60,"Velocity":27,"Duration":229410,"SoundDuration":229410,"Delta":65588444},{"NoteNumber":53,"Velocity":32,"Duration":229410,"SoundDuration":229410,"Delta":65817854},{"NoteNumber":57,"Velocity":27,"Duration":229410,"SoundDuration":229410,"Delta":66047265},{"NoteNumber":60,"Velocity":27,"Duration":230588,"SoundDuration":230588,"Delta":66276675},{"NoteNumber":58,"Velocity":32,"Duration":678814,"SoundDuration":678814,"Delta":66507263},{"NoteNumber":62,"Velocity":40,"Duration":678814,"SoundDuration":678814,"Delta":66507263},{"NoteNumber":67,"Velocity":40,"Duration":225088,"SoundDuration":225088,"Delta":66741931},{"NoteNumber":70,"Velocity":40,"Duration":219058,"SoundDuration":219058,"Delta":66967020},{"NoteNumber":74,"Velocity":45,"Duration":223654,"SoundDuration":223654,"Delta":67186078},{"NoteNumber":70,"Velocity":35,"Duration":229263,"SoundDuration":229263,"Delta":67409733},{"NoteNumber":67,"Velocity":35,"Duration":271517,"SoundDuration":271517,"Delta":67638997},{"NoteNumber":65,"Velocity":41,"Duration":1890291,"SoundDuration":1890291,"Delta":67910514},{"NoteNumber":57,"Velocity":30,"Duration":1374117,"SoundDuration":1374117,"Delta":67910514},{"NoteNumber":48,"Velocity":24,"Duration":2788038,"SoundDuration":2788038,"Delta":67910514},{"NoteNumber":58,"Velocity":27,"Duration":1413920,"SoundDuration":1413920,"Delta":69284632},{"NoteNumber":69,"Velocity":35,"Duration":172057,"SoundDuration":172057,"Delta":69800806},{"NoteNumber":67,"Velocity":42,"Duration":725689,"SoundDuration":725689,"Delta":69972863},{"NoteNumber":64,"Velocity":36,"Duration":725689,"SoundDuration":725689,"Delta":69972863},{"NoteNumber":69,"Velocity":50,"Duration":246918,"SoundDuration":246918,"Delta":70698553},{"NoteNumber":53,"Velocity":40,"Duration":246918,"SoundDuration":246918,"Delta":70698553},{"NoteNumber":72,"Velocity":50,"Duration":229417,"SoundDuration":229417,"Delta":70945471},{"NoteNumber":57,"Velocity":40,"Duration":229417,"SoundDuration":229417,"Delta":70945471},{"NoteNumber":70,"Velocity":47,"Duration":228102,"SoundDuration":228102,"Delta":71174889},{"NoteNumber":55,"Velocity":37,"Duration":228102,"SoundDuration":228102,"Delta":71174889},{"NoteNumber":69,"Velocity":50,"Duration":236183,"SoundDuration":236183,"Delta":71402991},{"NoteNumber":53,"Velocity":40,"Duration":236183,"SoundDuration":236183,"Delta":71402991},{"NoteNumber":77,"Velocity":55,"Duration":226874,"SoundDuration":226874,"Delta":71639175},{"NoteNumber":62,"Velocity":44,"Duration":226874,"SoundDuration":226874,"Delta":71639175},{"NoteNumber":76,"Velocity":48,"Duration":230733,"SoundDuration":230733,"Delta":71866049},{"NoteNumber":60,"Velocity":38,"Duration":230733,"SoundDuration":230733,"Delta":71866049},{"NoteNumber":74,"Velocity":50,"Duration":233426,"SoundDuration":233426,"Delta":72096783},{"NoteNumber":58,"Velocity":40,"Duration":233426,"SoundDuration":233426,"Delta":72096783},{"NoteNumber":82,"Velocity":56,"Duration":228220,"SoundDuration":228220,"Delta":72330209},{"NoteNumber":67,"Velocity":44,"Duration":228220,"SoundDuration":228220,"Delta":72330209},{"NoteNumber":81,"Velocity":50,"Duration":223015,"SoundDuration":223015,"Delta":72558430},{"NoteNumber":65,"Velocity":40,"Duration":223015,"SoundDuration":223015,"Delta":72558430},{"NoteNumber":79,"Velocity":58,"Duration":241896,"SoundDuration":241896,"Delta":72781446},{"NoteNumber":64,"Velocity":45,"Duration":241896,"SoundDuration":241896,"Delta":72781446},{"NoteNumber":86,"Velocity":61,"Duration":228131,"SoundDuration":228131,"Delta":73023342},{"NoteNumber":70,"Velocity":52,"Duration":228131,"SoundDuration":228131,"Delta":73023342},{"NoteNumber":84,"Velocity":54,"Duration":225530,"SoundDuration":225530,"Delta":73251474},{"NoteNumber":69,"Velocity":43,"Duration":225530,"SoundDuration":225530,"Delta":73251474},{"NoteNumber":82,"Velocity":55,"Duration":218150,"SoundDuration":218150,"Delta":73477004},{"NoteNumber":67,"Velocity":44,"Duration":218150,"SoundDuration":218150,"Delta":73477004},{"NoteNumber":81,"Velocity":50,"Duration":218150,"SoundDuration":218150,"Delta":73695154},{"NoteNumber":65,"Velocity":40,"Duration":218150,"SoundDuration":218150,"Delta":73695154},{"NoteNumber":79,"Velocity":46,"Duration":217649,"SoundDuration":217649,"Delta":73913304},{"NoteNumber":64,"Velocity":36,"Duration":217649,"SoundDuration":217649,"Delta":73913304},{"NoteNumber":77,"Velocity":54,"Duration":216973,"SoundDuration":216973,"Delta":74130954},{"NoteNumber":62,"Velocity":43,"Duration":216973,"SoundDuration":216973,"Delta":74130954},{"NoteNumber":76,"Velocity":50,"Duration":221972,"SoundDuration":221972,"Delta":74347928},{"NoteNumber":60,"Velocity":40,"Duration":221972,"SoundDuration":221972,"Delta":74347928},{"NoteNumber":74,"Velocity":50,"Duration":226976,"SoundDuration":226976,"Delta":74569901},{"NoteNumber":58,"Velocity":40,"Duration":226976,"SoundDuration":226976,"Delta":74569901},{"NoteNumber":72,"Velocity":50,"Duration":1390821,"SoundDuration":1390821,"Delta":74796878},{"NoteNumber":57,"Velocity":39,"Duration":231803,"SoundDuration":231803,"Delta":74796878},{"NoteNumber":60,"Velocity":31,"Duration":231803,"SoundDuration":231803,"Delta":75028681},{"NoteNumber":65,"Velocity":31,"Duration":231803,"SoundDuration":231803,"Delta":75260485},{"NoteNumber":57,"Velocity":35,"Duration":231803,"SoundDuration":231803,"Delta":75492288},{"NoteNumber":60,"Velocity":31,"Duration":231803,"SoundDuration":231803,"Delta":75724092},{"NoteNumber":65,"Velocity":31,"Duration":231803,"SoundDuration":231803,"Delta":75955895},{"NoteNumber":70,"Velocity":50,"Duration":86926,"SoundDuration":86926,"Delta":76187699},{"NoteNumber":55,"Velocity":35,"Duration":226776,"SoundDuration":226776,"Delta":76187699},{"NoteNumber":72,"Velocity":46,"Duration":84133,"SoundDuration":84133,"Delta":76274625},{"NoteNumber":70,"Velocity":53,"Duration":1183421,"SoundDuration":1183421,"Delta":76358758},{"NoteNumber":58,"Velocity":32,"Duration":225548,"SoundDuration":225548,"Delta":76414475},{"NoteNumber":64,"Velocity":32,"Duration":229260,"SoundDuration":229260,"Delta":76640024},{"NoteNumber":55,"Velocity":35,"Duration":233611,"SoundDuration":233611,"Delta":76869284},{"NoteNumber":58,"Velocity":29,"Duration":225335,"SoundDuration":225335,"Delta":77102895},{"NoteNumber":64,"Velocity":29,"Duration":213949,"SoundDuration":213949,"Delta":77328230},{"NoteNumber":69,"Velocity":45,"Duration":1377640,"SoundDuration":1377640,"Delta":77542180},{"NoteNumber":53,"Velocity":35,"Duration":229410,"SoundDuration":229410,"Delta":77542180},{"NoteNumber":57,"Velocity":27,"Duration":229410,"SoundDuration":229410,"Delta":77771590},{"NoteNumber":65,"Velocity":27,"Duration":229410,"SoundDuration":229410,"Delta":78001000},{"NoteNumber":53,"Velocity":32,"Duration":229410,"SoundDuration":229410,"Delta":78230411},{"NoteNumber":57,"Velocity":27,"Duration":229410,"SoundDuration":229410,"Delta":78459821},{"NoteNumber":65,"Velocity":27,"Duration":230588,"SoundDuration":230588,"Delta":78689231},{"NoteNumber":58,"Velocity":32,"Duration":1403251,"SoundDuration":1403251,"Delta":78919820},{"NoteNumber":62,"Velocity":40,"Duration":1403251,"SoundDuration":1403251,"Delta":78919820},{"NoteNumber":66,"Velocity":40,"Duration":225088,"SoundDuration":225088,"Delta":79154488},{"NoteNumber":67,"Velocity":40,"Duration":219058,"SoundDuration":219058,"Delta":79379576},{"NoteNumber":74,"Velocity":45,"Duration":223654,"SoundDuration":223654,"Delta":79598635},{"NoteNumber":70,"Velocity":35,"Duration":229263,"SoundDuration":229263,"Delta":79822289},{"NoteNumber":67,"Velocity":35,"Duration":271517,"SoundDuration":271517,"Delta":80051553},{"NoteNumber":65,"Velocity":41,"Duration":1890291,"SoundDuration":1890291,"Delta":80323071},{"NoteNumber":57,"Velocity":30,"Duration":1374117,"SoundDuration":1374117,"Delta":80323071},{"NoteNumber":48,"Velocity":24,"Duration":2788038,"SoundDuration":2788038,"Delta":80323071},{"NoteNumber":58,"Velocity":27,"Duration":1413920,"SoundDuration":1413920,"Delta":81697189},{"NoteNumber":69,"Velocity":35,"Duration":172057,"SoundDuration":172057,"Delta":82213362},{"NoteNumber":67,"Velocity":42,"Duration":725689,"SoundDuration":725689,"Delta":82385420},{"NoteNumber":64,"Velocity":36,"Duration":725689,"SoundDuration":725689,"Delta":82385420},{"NoteNumber":69,"Velocity":50,"Duration":246918,"SoundDuration":246918,"Delta":83111109},{"NoteNumber":53,"Velocity":40,"Duration":246918,"SoundDuration":246918,"Delta":83111109},{"NoteNumber":72,"Velocity":50,"Duration":229417,"SoundDuration":229417,"Delta":83358028},{"NoteNumber":57,"Velocity":40,"Duration":229417,"SoundDuration":229417,"Delta":83358028},{"NoteNumber":70,"Velocity":47,"Duration":228102,"SoundDuration":228102,"Delta":83587446},{"NoteNumber":55,"Velocity":37,"Duration":228102,"SoundDuration":228102,"Delta":83587446},{"NoteNumber":69,"Velocity":50,"Duration":236183,"SoundDuration":236183,"Delta":83815548},{"NoteNumber":53,"Velocity":40,"Duration":236183,"SoundDuration":236183,"Delta":83815548},{"NoteNumber":77,"Velocity":55,"Duration":226874,"SoundDuration":226874,"Delta":84051731},{"NoteNumber":62,"Velocity":44,"Duration":226874,"SoundDuration":226874,"Delta":84051731},{"NoteNumber":76,"Velocity":48,"Duration":230733,"SoundDuration":230733,"Delta":84278606},{"NoteNumber":60,"Velocity":38,"Duration":230733,"SoundDuration":230733,"Delta":84278606},{"NoteNumber":74,"Velocity":50,"Duration":233426,"SoundDuration":233426,"Delta":84509339},{"NoteNumber":58,"Velocity":40,"Duration":233426,"SoundDuration":233426,"Delta":84509339},{"NoteNumber":82,"Velocity":56,"Duration":228220,"SoundDuration":228220,"Delta":84742766},{"NoteNumber":67,"Velocity":44,"Duration":228220,"SoundDuration":228220,"Delta":84742766},{"NoteNumber":81,"Velocity":50,"Duration":223015,"SoundDuration":223015,"Delta":84970987},{"NoteNumber":65,"Velocity":40,"Duration":223015,"SoundDuration":223015,"Delta":84970987},{"NoteNumber":79,"Velocity":57,"Duration":241896,"SoundDuration":241896,"Delta":85194002},{"NoteNumber":64,"Velocity":46,"Duration":241896,"SoundDuration":241896,"Delta":85194002},{"NoteNumber":86,"Velocity":62,"Duration":228131,"SoundDuration":228131,"Delta":85435899},{"NoteNumber":70,"Velocity":51,"Duration":228131,"SoundDuration":228131,"Delta":85435899},{"NoteNumber":84,"Velocity":54,"Duration":225530,"SoundDuration":225530,"Delta":85664030},{"NoteNumber":69,"Velocity":43,"Duration":225530,"SoundDuration":225530,"Delta":85664030},{"NoteNumber":82,"Velocity":55,"Duration":218150,"SoundDuration":218150,"Delta":85889560},{"NoteNumber":67,"Velocity":44,"Duration":218150,"SoundDuration":218150,"Delta":85889560},{"NoteNumber":81,"Velocity":50,"Duration":218150,"SoundDuration":218150,"Delta":86107711},{"NoteNumber":65,"Velocity":40,"Duration":218150,"SoundDuration":218150,"Delta":86107711},{"NoteNumber":79,"Velocity":46,"Duration":217649,"SoundDuration":217649,"Delta":86325861},{"NoteNumber":64,"Velocity":36,"Duration":217649,"SoundDuration":217649,"Delta":86325861},{"NoteNumber":77,"Velocity":54,"Duration":216973,"SoundDuration":216973,"Delta":86543511},{"NoteNumber":62,"Velocity":43,"Duration":216973,"SoundDuration":216973,"Delta":86543511},{"NoteNumber":76,"Velocity":50,"Duration":221972,"SoundDuration":221972,"Delta":86760485},{"NoteNumber":60,"Velocity":40,"Duration":221972,"SoundDuration":221972,"Delta":86760485},{"NoteNumber":74,"Velocity":50,"Duration":226976,"SoundDuration":226976,"Delta":86982457},{"NoteNumber":58,"Velocity":40,"Duration":226976,"SoundDuration":226976,"Delta":86982457},{"NoteNumber":72,"Velocity":50,"Duration":1390821,"SoundDuration":1390821,"Delta":87209434},{"NoteNumber":57,"Velocity":39,"Duration":231803,"SoundDuration":231803,"Delta":87209434},{"NoteNumber":60,"Velocity":31,"Duration":231803,"SoundDuration":231803,"Delta":87441238},{"NoteNumber":65,"Velocity":31,"Duration":231803,"SoundDuration":231803,"Delta":87673041},{"NoteNumber":57,"Velocity":35,"Duration":231803,"SoundDuration":231803,"Delta":87904845},{"NoteNumber":60,"Velocity":31,"Duration":231803,"SoundDuration":231803,"Delta":88136648},{"NoteNumber":65,"Velocity":31,"Duration":231803,"SoundDuration":231803,"Delta":88368452},{"NoteNumber":70,"Velocity":42,"Duration":88650,"SoundDuration":88650,"Delta":88600255},{"NoteNumber":55,"Velocity":35,"Duration":235103,"SoundDuration":235103,"Delta":88600255},{"NoteNumber":72,"Velocity":37,"Duration":88398,"SoundDuration":88398,"Delta":88688906},{"NoteNumber":70,"Velocity":41,"Duration":86895,"SoundDuration":86895,"Delta":88777305},{"NoteNumber":58,"Velocity":32,"Duration":225512,"SoundDuration":225512,"Delta":88835359},{"NoteNumber":72,"Velocity":38,"Duration":85249,"SoundDuration":85249,"Delta":88864200},{"NoteNumber":70,"Velocity":43,"Duration":83852,"SoundDuration":83852,"Delta":88949450},{"NoteNumber":72,"Velocity":39,"Duration":82317,"SoundDuration":82317,"Delta":89033302},{"NoteNumber":64,"Velocity":32,"Duration":216564,"SoundDuration":216564,"Delta":89060872},{"NoteNumber":70,"Velocity":43,"Duration":81014,"SoundDuration":81014,"Delta":89115620},{"NoteNumber":72,"Velocity":40,"Duration":80801,"SoundDuration":80801,"Delta":89196634},{"NoteNumber":70,"Velocity":45,"Duration":79214,"SoundDuration":79214,"Delta":89277436},{"NoteNumber":55,"Velocity":35,"Duration":209697,"SoundDuration":209697,"Delta":89277436},{"NoteNumber":72,"Velocity":42,"Duration":78469,"SoundDuration":78469,"Delta":89356650},{"NoteNumber":70,"Velocity":45,"Duration":77872,"SoundDuration":77872,"Delta":89435119},{"NoteNumber":58,"Velocity":29,"Duration":205544,"SoundDuration":205544,"Delta":89487133},{"NoteNumber":72,"Velocity":42,"Duration":77310,"SoundDuration":77310,"Delta":89512992},{"NoteNumber":70,"Velocity":45,"Duration":76781,"SoundDuration":76781,"Delta":89590303},{"NoteNumber":72,"Velocity":42,"Duration":76781,"SoundDuration":76781,"Delta":89667084},{"NoteNumber":64,"Velocity":29,"Duration":283098,"SoundDuration":283098,"Delta":89692678},{"NoteNumber":69,"Velocity":47,"Duration":115955,"SoundDuration":115955,"Delta":89743865},{"NoteNumber":70,"Velocity":42,"Duration":115955,"SoundDuration":115955,"Delta":89859821},{"NoteNumber":69,"Velocity":55,"Duration":1417687,"SoundDuration":1417687,"Delta":89975776},{"NoteNumber":53,"Velocity":35,"Duration":229410,"SoundDuration":229410,"Delta":89975776},{"NoteNumber":57,"Velocity":27,"Duration":229410,"SoundDuration":229410,"Delta":90205187},{"NoteNumber":65,"Velocity":27,"Duration":229410,"SoundDuration":229410,"Delta":90434597},{"NoteNumber":53,"Velocity":32,"Duration":229410,"SoundDuration":229410,"Delta":90664007},{"NoteNumber":57,"Velocity":27,"Duration":229410,"SoundDuration":229410,"Delta":90893418},{"NoteNumber":65,"Velocity":27,"Duration":270635,"SoundDuration":270635,"Delta":91122828},{"NoteNumber":66,"Velocity":40,"Duration":247892,"SoundDuration":247892,"Delta":91393464},{"NoteNumber":58,"Velocity":26,"Duration":1408783,"SoundDuration":1408783,"Delta":91393464},{"NoteNumber":62,"Velocity":36,"Duration":1408783,"SoundDuration":1408783,"Delta":91393464},{"NoteNumber":67,"Velocity":35,"Duration":234480,"SoundDuration":234480,"Delta":91641356},{"NoteNumber":70,"Velocity":35,"Duration":235149,"SoundDuration":235149,"Delta":91875837},{"NoteNumber":74,"Velocity":37,"Duration":232753,"SoundDuration":232753,"Delta":92110986},{"NoteNumber":79,"Velocity":40,"Duration":230404,"SoundDuration":230404,"Delta":92343740},{"NoteNumber":82,"Velocity":40,"Duration":228102,"SoundDuration":228102,"Delta":92574145},{"NoteNumber":86,"Velocity":42,"Duration":225530,"SoundDuration":225530,"Delta":92802247},{"NoteNumber":84,"Velocity":38,"Duration":225529,"SoundDuration":225529,"Delta":93027777},{"NoteNumber":82,"Velocity":38,"Duration":225530,"SoundDuration":225530,"Delta":93253307},{"NoteNumber":81,"Velocity":41,"Duration":225530,"SoundDuration":225530,"Delta":93478837},{"NoteNumber":79,"Velocity":35,"Duration":225529,"SoundDuration":225529,"Delta":93704367},{"NoteNumber":77,"Velocity":33,"Duration":219628,"SoundDuration":219628,"Delta":93929897},{"NoteNumber":77,"Velocity":41,"Duration":236183,"SoundDuration":236183,"Delta":94180901},{"NoteNumber":70,"Velocity":36,"Duration":3414094,"SoundDuration":3414094,"Delta":94180901},{"NoteNumber":60,"Velocity":27,"Duration":1641044,"SoundDuration":1641044,"Delta":94180901},{"NoteNumber":76,"Velocity":35,"Duration":236183,"SoundDuration":236183,"Delta":94417084},{"NoteNumber":79,"Velocity":35,"Duration":236183,"SoundDuration":236183,"Delta":94653267},{"NoteNumber":82,"Velocity":39,"Duration":260824,"SoundDuration":260824,"Delta":94889451},{"NoteNumber":79,"Velocity":35,"Duration":260824,"SoundDuration":260824,"Delta":95150275},{"NoteNumber":76,"Velocity":35,"Duration":359490,"SoundDuration":359490,"Delta":95411099},{"NoteNumber":76,"Velocity":41,"Duration":1773049,"SoundDuration":1773049,"Delta":95821945},{"NoteNumber":65,"Velocity":27,"Duration":3546099,"SoundDuration":3546099,"Delta":95821945},{"NoteNumber":77,"Velocity":41,"Duration":1773049,"SoundDuration":1773049,"Delta":97594995},{"NoteNumber":69,"Velocity":27,"Duration":1773049,"SoundDuration":1773049,"Delta":97594995},{"NoteNumber":81,"Velocity":50,"Duration":1210002,"SoundDuration":1210002,"Delta":101141095},{"NoteNumber":65,"Velocity":34,"Duration":1425118,"SoundDuration":1425118,"Delta":101141095},{"NoteNumber":62,"Velocity":28,"Duration":1425118,"SoundDuration":1425118,"Delta":101141095},{"NoteNumber":77,"Velocity":46,"Duration":107557,"SoundDuration":107557,"Delta":102351098},{"NoteNumber":74,"Velocity":41,"Duration":107557,"SoundDuration":107557,"Delta":102458656},{"NoteNumber":73,"Velocity":50,"Duration":806668,"SoundDuration":806668,"Delta":102566214},{"NoteNumber":67,"Velocity":32,"Duration":806668,"SoundDuration":806668,"Delta":102566214},{"NoteNumber":64,"Velocity":27,"Duration":806668,"SoundDuration":806668,"Delta":102566214},{"NoteNumber":82,"Velocity":50,"Duration":1224822,"SoundDuration":1224822,"Delta":105792888},{"NoteNumber":70,"Velocity":28,"Duration":1437196,"SoundDuration":1437196,"Delta":105792888},{"NoteNumber":67,"Velocity":28,"Duration":1437196,"SoundDuration":1437196,"Delta":105792888},{"NoteNumber":73,"Velocity":34,"Duration":1437196,"SoundDuration":1437196,"Delta":105792888},{"NoteNumber":64,"Velocity":28,"Duration":1437196,"SoundDuration":1437196,"Delta":105792888},{"NoteNumber":79,"Velocity":46,"Duration":106187,"SoundDuration":106187,"Delta":107017710},{"NoteNumber":76,"Velocity":41,"Duration":106187,"SoundDuration":106187,"Delta":107123897},{"NoteNumber":74,"Velocity":50,"Duration":797024,"SoundDuration":797024,"Delta":107230085},{"NoteNumber":69,"Velocity":27,"Duration":797024,"SoundDuration":797024,"Delta":107230085},{"NoteNumber":74,"Velocity":32,"Duration":797024,"SoundDuration":797024,"Delta":107230085},{"NoteNumber":65,"Velocity":27,"Duration":797024,"SoundDuration":797024,"Delta":107230085},{"NoteNumber":85,"Velocity":47,"Duration":324675,"SoundDuration":324675,"Delta":108425621},{"NoteNumber":86,"Velocity":55,"Duration":649350,"SoundDuration":649350,"Delta":108750297},{"NoteNumber":81,"Velocity":43,"Duration":324675,"SoundDuration":324675,"Delta":109724322},{"NoteNumber":82,"Velocity":53,"Duration":649350,"SoundDuration":649350,"Delta":110048998},{"NoteNumber":67,"Velocity":26,"Duration":649350,"SoundDuration":649350,"Delta":110048998},{"NoteNumber":74,"Velocity":41,"Duration":324675,"SoundDuration":324675,"Delta":111023023},{"NoteNumber":73,"Velocity":50,"Duration":649350,"SoundDuration":649350,"Delta":111347699},{"NoteNumber":69,"Velocity":26,"Duration":649350,"SoundDuration":649350,"Delta":111347699},{"NoteNumber":76,"Velocity":41,"Duration":324675,"SoundDuration":324675,"Delta":112321724},{"NoteNumber":81,"Velocity":50,"Duration":649350,"SoundDuration":649350,"Delta":112646400},{"NoteNumber":61,"Velocity":27,"Duration":649350,"SoundDuration":649350,"Delta":112646400},{"NoteNumber":69,"Velocity":32,"Duration":649350,"SoundDuration":649350,"Delta":112646400},{"NoteNumber":79,"Velocity":41,"Duration":324675,"SoundDuration":324675,"Delta":113620425},{"NoteNumber":79,"Velocity":35,"Duration":384714,"SoundDuration":384714,"Delta":113945101},{"NoteNumber":62,"Velocity":27,"Duration":789394,"SoundDuration":789394,"Delta":113945101},{"NoteNumber":69,"Velocity":32,"Duration":789394,"SoundDuration":789394,"Delta":113945101},{"NoteNumber":77,"Velocity":32,"Duration":404680,"SoundDuration":404680,"Delta":114329815},{"NoteNumber":79,"Velocity":38,"Duration":94652,"SoundDuration":94652,"Delta":114734495},{"NoteNumber":77,"Velocity":32,"Duration":79184,"SoundDuration":79184,"Delta":114829147},{"NoteNumber":79,"Velocity":30,"Duration":74938,"SoundDuration":74938,"Delta":114908332},{"NoteNumber":77,"Velocity":31,"Duration":70310,"SoundDuration":70310,"Delta":114983271},{"NoteNumber":79,"Velocity":33,"Duration":66677,"SoundDuration":66677,"Delta":115053581},{"NoteNumber":77,"Velocity":36,"Duration":64245,"SoundDuration":64245,"Delta":115120258},{"NoteNumber":76,"Velocity":37,"Duration":100833,"SoundDuration":100833,"Delta":115184503},{"NoteNumber":77,"Velocity":38,"Duration":100833,"SoundDuration":100833,"Delta":115285337},{"NoteNumber":76,"Velocity":40,"Duration":556999,"SoundDuration":556999,"Delta":115386171},{"NoteNumber":69,"Velocity":27,"Duration":556999,"SoundDuration":556999,"Delta":115386171},{"NoteNumber":73,"Velocity":32,"Duration":556999,"SoundDuration":556999,"Delta":115386171},{"NoteNumber":69,"Velocity":45,"Duration":968679,"SoundDuration":968679,"Delta":117614169},{"NoteNumber":53,"Velocity":30,"Duration":1380314,"SoundDuration":1380314,"Delta":117614169},{"NoteNumber":50,"Velocity":25,"Duration":1380314,"SoundDuration":1380314,"Delta":117614169},{"NoteNumber":67,"Velocity":42,"Duration":102908,"SoundDuration":102908,"Delta":118582848},{"NoteNumber":65,"Velocity":36,"Duration":102908,"SoundDuration":102908,"Delta":118685757},{"NoteNumber":64,"Velocity":41,"Duration":102908,"SoundDuration":102908,"Delta":118788666},{"NoteNumber":62,"Velocity":36,"Duration":102908,"SoundDuration":102908,"Delta":118891575},{"NoteNumber":61,"Velocity":45,"Duration":806668,"SoundDuration":806668,"Delta":118994484},{"NoteNumber":55,"Velocity":28,"Duration":806668,"SoundDuration":806668,"Delta":118994484},{"NoteNumber":52,"Velocity":24,"Duration":806668,"SoundDuration":806668,"Delta":118994484},{"NoteNumber":55,"Velocity":45,"Duration":244360,"SoundDuration":244360,"Delta":120607821},{"NoteNumber":58,"Velocity":41,"Duration":236894,"SoundDuration":236894,"Delta":120852182},{"NoteNumber":61,"Velocity":41,"Duration":225509,"SoundDuration":225509,"Delta":121089076},{"NoteNumber":64,"Velocity":45,"Duration":216983,"SoundDuration":216983,"Delta":121314585},{"NoteNumber":67,"Velocity":41,"Duration":210563,"SoundDuration":210563,"Delta":121531569},{"NoteNumber":69,"Velocity":41,"Duration":309406,"SoundDuration":309406,"Delta":121742133},{"NoteNumber":70,"Velocity":57,"Duration":997671,"SoundDuration":997671,"Delta":122051539},{"NoteNumber":52,"Velocity":25,"Duration":1414454,"SoundDuration":1414454,"Delta":122051539},{"NoteNumber":58,"Velocity":25,"Duration":1414454,"SoundDuration":1414454,"Delta":122051539},{"NoteNumber":61,"Velocity":30,"Duration":1414454,"SoundDuration":1414454,"Delta":122051539},{"NoteNumber":55,"Velocity":25,"Duration":1414454,"SoundDuration":1414454,"Delta":122051539},{"NoteNumber":69,"Velocity":42,"Duration":104195,"SoundDuration":104195,"Delta":123049211},{"NoteNumber":67,"Velocity":36,"Duration":104195,"SoundDuration":104195,"Delta":123153406},{"NoteNumber":65,"Velocity":41,"Duration":104195,"SoundDuration":104195,"Delta":123257602},{"NoteNumber":64,"Velocity":36,"Duration":104195,"SoundDuration":104195,"Delta":123361797},{"NoteNumber":62,"Velocity":45,"Duration":660938,"SoundDuration":660938,"Delta":123465993},{"NoteNumber":57,"Velocity":28,"Duration":660938,"SoundDuration":660938,"Delta":123465993},{"NoteNumber":53,"Velocity":24,"Duration":660938,"SoundDuration":660938,"Delta":123465993},{"NoteNumber":73,"Velocity":43,"Duration":330469,"SoundDuration":330469,"Delta":124457401},{"NoteNumber":74,"Velocity":45,"Duration":71292,"SoundDuration":71292,"Delta":124787870},{"NoteNumber":73,"Velocity":42,"Duration":71292,"SoundDuration":71292,"Delta":124859163},{"NoteNumber":74,"Velocity":53,"Duration":490078,"SoundDuration":490078,"Delta":124930456},{"NoteNumber":76,"Velocity":41,"Duration":317864,"SoundDuration":317864,"Delta":125738398},{"NoteNumber":77,"Velocity":45,"Duration":71292,"SoundDuration":71292,"Delta":126056262},{"NoteNumber":46,"Velocity":26,"Duration":1331913,"SoundDuration":1331913,"Delta":126056262},{"NoteNumber":50,"Velocity":26,"Duration":1331913,"SoundDuration":1331913,"Delta":126056262},{"NoteNumber":56,"Velocity":35,"Duration":1331913,"SoundDuration":1331913,"Delta":126056262},{"NoteNumber":76,"Velocity":42,"Duration":71292,"SoundDuration":71292,"Delta":126127555},{"NoteNumber":77,"Velocity":53,"Duration":515018,"SoundDuration":515018,"Delta":126198848},{"NoteNumber":85,"Velocity":55,"Duration":337154,"SoundDuration":337154,"Delta":127051021},{"NoteNumber":86,"Velocity":64,"Duration":674309,"SoundDuration":674309,"Delta":127388176},{"NoteNumber":88,"Velocity":65,"Duration":337154,"SoundDuration":337154,"Delta":128399639},{"NoteNumber":89,"Velocity":69,"Duration":674308,"SoundDuration":674308,"Delta":128736794},{"NoteNumber":34,"Velocity":28,"Duration":674308,"SoundDuration":674308,"Delta":128736794},{"NoteNumber":56,"Velocity":34,"Duration":355913,"SoundDuration":355913,"Delta":129748257},{"NoteNumber":56,"Velocity":40,"Duration":1500750,"SoundDuration":1500750,"Delta":130138961},{"NoteNumber":33,"Velocity":32,"Duration":1500750,"SoundDuration":1500750,"Delta":130138961},{"NoteNumber":57,"Velocity":35,"Duration":93796,"SoundDuration":93796,"Delta":131639711},{"NoteNumber":56,"Velocity":32,"Duration":93796,"SoundDuration":93796,"Delta":131733508},{"NoteNumber":57,"Velocity":40,"Duration":1313156,"SoundDuration":1313156,"Delta":131827305},{"NoteNumber":29,"Velocity":32,"Duration":1405909,"SoundDuration":1405909,"Delta":134641211},{"NoteNumber":41,"Velocity":32,"Duration":1405909,"SoundDuration":1405909,"Delta":134641211},{"NoteNumber":84,"Velocity":40,"Duration":222518,"SoundDuration":222518,"Delta":134931150},{"NoteNumber":79,"Velocity":40,"Duration":222518,"SoundDuration":222518,"Delta":135153669},{"NoteNumber":81,"Velocity":45,"Duration":222518,"SoundDuration":222518,"Delta":135376188},{"NoteNumber":84,"Velocity":40,"Duration":223644,"SoundDuration":223644,"Delta":135598707},{"NoteNumber":76,"Velocity":40,"Duration":224769,"SoundDuration":224769,"Delta":135822351},{"NoteNumber":77,"Velocity":42,"Duration":219828,"SoundDuration":219828,"Delta":136047120},{"NoteNumber":81,"Velocity":40,"Duration":219828,"SoundDuration":219828,"Delta":136266949},{"NoteNumber":77,"Velocity":35,"Duration":219828,"SoundDuration":219828,"Delta":136486777},{"NoteNumber":76,"Velocity":40,"Duration":219828,"SoundDuration":219828,"Delta":136706606},{"NoteNumber":74,"Velocity":37,"Duration":219828,"SoundDuration":219828,"Delta":136926434},{"NoteNumber":72,"Velocity":37,"Duration":219828,"SoundDuration":219828,"Delta":137146263},{"NoteNumber":70,"Velocity":40,"Duration":220938,"SoundDuration":220938,"Delta":137366091},{"NoteNumber":69,"Velocity":38,"Duration":223165,"SoundDuration":223165,"Delta":137587030},{"NoteNumber":67,"Velocity":38,"Duration":225142,"SoundDuration":225142,"Delta":137810196},{"NoteNumber":65,"Velocity":40,"Duration":227154,"SoundDuration":227154,"Delta":138035339},{"NoteNumber":64,"Velocity":35,"Duration":229649,"SoundDuration":229649,"Delta":138262493},{"NoteNumber":62,"Velocity":33,"Duration":292997,"SoundDuration":292997,"Delta":138492142},{"NoteNumber":60,"Velocity":40,"Duration":2466346,"SoundDuration":2466346,"Delta":138785140},{"NoteNumber":52,"Velocity":21,"Duration":660938,"SoundDuration":660938,"Delta":139446078},{"NoteNumber":58,"Velocity":27,"Duration":660938,"SoundDuration":660938,"Delta":139446078},{"NoteNumber":52,"Velocity":21,"Duration":660938,"SoundDuration":660938,"Delta":140107017},{"NoteNumber":58,"Velocity":27,"Duration":660938,"SoundDuration":660938,"Delta":140107017},{"NoteNumber":52,"Velocity":21,"Duration":636591,"SoundDuration":636591,"Delta":140767955},{"NoteNumber":58,"Velocity":27,"Duration":636591,"SoundDuration":636591,"Delta":140767955},{"NoteNumber":64,"Velocity":40,"Duration":153061,"SoundDuration":153061,"Delta":141251486},{"NoteNumber":62,"Velocity":40,"Duration":1045100,"SoundDuration":1045100,"Delta":141404547},{"NoteNumber":58,"Velocity":29,"Duration":686162,"SoundDuration":686162,"Delta":141404547},{"NoteNumber":52,"Velocity":23,"Duration":686162,"SoundDuration":686162,"Delta":141404547},{"NoteNumber":52,"Velocity":21,"Duration":717874,"SoundDuration":717874,"Delta":142090710},{"NoteNumber":58,"Velocity":27,"Duration":717874,"SoundDuration":717874,"Delta":142090710},{"NoteNumber":60,"Velocity":40,"Duration":329026,"SoundDuration":329026,"Delta":142449647},{"NoteNumber":60,"Velocity":45,"Duration":285469,"SoundDuration":285469,"Delta":142808585},{"NoteNumber":53,"Velocity":32,"Duration":1398063,"SoundDuration":1398063,"Delta":142808585},{"NoteNumber":57,"Velocity":32,"Duration":1398063,"SoundDuration":1398063,"Delta":142808585},{"NoteNumber":84,"Velocity":40,"Duration":222518,"SoundDuration":222518,"Delta":143094054},{"NoteNumber":79,"Velocity":40,"Duration":222518,"SoundDuration":222518,"Delta":143316573},{"NoteNumber":81,"Velocity":45,"Duration":222518,"SoundDuration":222518,"Delta":143539092},{"NoteNumber":84,"Velocity":40,"Duration":222518,"SoundDuration":222518,"Delta":143761611},{"NoteNumber":76,"Velocity":40,"Duration":222518,"SoundDuration":222518,"Delta":143984130},{"NoteNumber":77,"Velocity":42,"Duration":222518,"SoundDuration":222518,"Delta":144206649},{"NoteNumber":81,"Velocity":40,"Duration":222518,"SoundDuration":222518,"Delta":144429167},{"NoteNumber":77,"Velocity":35,"Duration":222518,"SoundDuration":222518,"Delta":144651686},{"NoteNumber":76,"Velocity":40,"Duration":222518,"SoundDuration":222518,"Delta":144874205},{"NoteNumber":74,"Velocity":37,"Duration":222518,"SoundDuration":222518,"Delta":145096724},{"NoteNumber":72,"Velocity":37,"Duration":222518,"SoundDuration":222518,"Delta":145319243},{"NoteNumber":70,"Velocity":40,"Duration":222518,"SoundDuration":222518,"Delta":145541762},{"NoteNumber":69,"Velocity":38,"Duration":223165,"SoundDuration":223165,"Delta":145764280},{"NoteNumber":67,"Velocity":38,"Duration":225142,"SoundDuration":225142,"Delta":145987446},{"NoteNumber":65,"Velocity":40,"Duration":227154,"SoundDuration":227154,"Delta":146212589},{"NoteNumber":64,"Velocity":35,"Duration":229649,"SoundDuration":229649,"Delta":146439743},{"NoteNumber":62,"Velocity":33,"Duration":292997,"SoundDuration":292997,"Delta":146669393},{"NoteNumber":60,"Velocity":40,"Duration":2466346,"SoundDuration":2466346,"Delta":146962390},{"NoteNumber":51,"Velocity":21,"Duration":660938,"SoundDuration":660938,"Delta":147623329},{"NoteNumber":57,"Velocity":27,"Duration":660938,"SoundDuration":660938,"Delta":147623329},{"NoteNumber":51,"Velocity":21,"Duration":660938,"SoundDuration":660938,"Delta":148284267},{"NoteNumber":57,"Velocity":27,"Duration":660938,"SoundDuration":660938,"Delta":148284267},{"NoteNumber":51,"Velocity":21,"Duration":636591,"SoundDuration":636591,"Delta":148945206},{"NoteNumber":57,"Velocity":27,"Duration":636591,"SoundDuration":636591,"Delta":148945206},{"NoteNumber":63,"Velocity":40,"Duration":153061,"SoundDuration":153061,"Delta":149428736},{"NoteNumber":62,"Velocity":40,"Duration":1045100,"SoundDuration":1045100,"Delta":149581798},{"NoteNumber":57,"Velocity":29,"Duration":686162,"SoundDuration":686162,"Delta":149581798},{"NoteNumber":51,"Velocity":23,"Duration":686162,"SoundDuration":686162,"Delta":149581798},{"NoteNumber":51,"Velocity":21,"Duration":717874,"SoundDuration":717874,"Delta":150267960},{"NoteNumber":57,"Velocity":27,"Duration":717874,"SoundDuration":717874,"Delta":150267960},{"NoteNumber":60,"Velocity":40,"Duration":358937,"SoundDuration":358937,"Delta":150626898},{"NoteNumber":65,"Velocity":40,"Duration":1012735,"SoundDuration":1012735,"Delta":150985835},{"NoteNumber":50,"Velocity":21,"Duration":728742,"SoundDuration":728742,"Delta":151652710},{"NoteNumber":53,"Velocity":27,"Duration":728742,"SoundDuration":728742,"Delta":151652710},{"NoteNumber":62,"Velocity":40,"Duration":382881,"SoundDuration":382881,"Delta":151998571},{"NoteNumber":58,"Velocity":40,"Duration":1677367,"SoundDuration":1677367,"Delta":152381453},{"NoteNumber":50,"Velocity":23,"Duration":716503,"SoundDuration":716503,"Delta":152381453},{"NoteNumber":53,"Velocity":29,"Duration":716503,"SoundDuration":716503,"Delta":152381453},{"NoteNumber":50,"Velocity":21,"Duration":716503,"SoundDuration":716503,"Delta":153097956},{"NoteNumber":53,"Velocity":27,"Duration":716503,"SoundDuration":716503,"Delta":153097956},{"NoteNumber":50,"Velocity":23,"Duration":707370,"SoundDuration":707370,"Delta":153814460},{"NoteNumber":53,"Velocity":29,"Duration":707370,"SoundDuration":707370,"Delta":153814460},{"NoteNumber":62,"Velocity":41,"Duration":119486,"SoundDuration":119486,"Delta":154058821},{"NoteNumber":64,"Velocity":41,"Duration":114859,"SoundDuration":114859,"Delta":154295715},{"NoteNumber":65,"Velocity":45,"Duration":110038,"SoundDuration":110038,"Delta":154521831},{"NoteNumber":67,"Velocity":41,"Duration":107893,"SoundDuration":107893,"Delta":154740208},{"NoteNumber":69,"Velocity":41,"Duration":154703,"SoundDuration":154703,"Delta":154956514},{"NoteNumber":70,"Velocity":48,"Duration":2382042,"SoundDuration":2382042,"Delta":155265920},{"NoteNumber":48,"Velocity":27,"Duration":231803,"SoundDuration":231803,"Delta":155265920},{"NoteNumber":52,"Velocity":25,"Duration":231803,"SoundDuration":231803,"Delta":155497723},{"NoteNumber":55,"Velocity":25,"Duration":231803,"SoundDuration":231803,"Delta":155729527},{"NoteNumber":48,"Velocity":27,"Duration":231803,"SoundDuration":231803,"Delta":155961330},{"NoteNumber":52,"Velocity":25,"Duration":230197,"SoundDuration":230197,"Delta":156193134},{"NoteNumber":55,"Velocity":25,"Duration":225377,"SoundDuration":225377,"Delta":156423331},{"NoteNumber":48,"Velocity":27,"Duration":224435,"SoundDuration":224435,"Delta":156648708},{"NoteNumber":52,"Velocity":25,"Duration":222866,"SoundDuration":222866,"Delta":156873144},{"NoteNumber":55,"Velocity":25,"Duration":221638,"SoundDuration":221638,"Delta":157096010},{"NoteNumber":48,"Velocity":27,"Duration":220409,"SoundDuration":220409,"Delta":157317648},{"NoteNumber":52,"Velocity":25,"Duration":216879,"SoundDuration":216879,"Delta":157538058},{"NoteNumber":72,"Velocity":46,"Duration":160462,"SoundDuration":160462,"Delta":157647962},{"NoteNumber":55,"Velocity":25,"Duration":213949,"SoundDuration":213949,"Delta":157754937},{"NoteNumber":70,"Velocity":42,"Duration":160462,"SoundDuration":160462,"Delta":157808425},{"NoteNumber":69,"Velocity":48,"Duration":1376462,"SoundDuration":1376462,"Delta":157968887},{"NoteNumber":48,"Velocity":27,"Duration":229410,"SoundDuration":229410,"Delta":157968887},{"NoteNumber":53,"Velocity":25,"Duration":229410,"SoundDuration":229410,"Delta":158198297},{"NoteNumber":57,"Velocity":25,"Duration":229410,"SoundDuration":229410,"Delta":158427707},{"NoteNumber":48,"Velocity":27,"Duration":229410,"SoundDuration":229410,"Delta":158657118},{"NoteNumber":53,"Velocity":25,"Duration":229410,"SoundDuration":229410,"Delta":158886528},{"NoteNumber":57,"Velocity":25,"Duration":229410,"SoundDuration":229410,"Delta":159115938},{"NoteNumber":74,"Velocity":52,"Duration":1360610,"SoundDuration":1360610,"Delta":159345349},{"NoteNumber":46,"Velocity":31,"Duration":231342,"SoundDuration":231342,"Delta":159345349},{"NoteNumber":53,"Velocity":25,"Duration":230409,"SoundDuration":230409,"Delta":159576691},{"NoteNumber":57,"Velocity":29,"Duration":227946,"SoundDuration":227946,"Delta":159807101},{"NoteNumber":46,"Velocity":32,"Duration":226019,"SoundDuration":226019,"Delta":160035047},{"NoteNumber":53,"Velocity":35,"Duration":224278,"SoundDuration":224278,"Delta":160261067},{"NoteNumber":57,"Velocity":38,"Duration":220613,"SoundDuration":220613,"Delta":160485346},{"NoteNumber":79,"Velocity":66,"Duration":1315929,"SoundDuration":1315929,"Delta":160705959},{"NoteNumber":46,"Velocity":42,"Duration":216538,"SoundDuration":216538,"Delta":160705959},{"NoteNumber":53,"Velocity":37,"Duration":219058,"SoundDuration":219058,"Delta":160922497},{"NoteNumber":55,"Velocity":37,"Duration":221637,"SoundDuration":221637,"Delta":161141555},{"NoteNumber":46,"Velocity":42,"Duration":224278,"SoundDuration":224278,"Delta":161363193},{"NoteNumber":53,"Velocity":35,"Duration":220466,"SoundDuration":220466,"Delta":161587472},{"NoteNumber":55,"Velocity":36,"Duration":213949,"SoundDuration":213949,"Delta":161807938},{"NoteNumber":77,"Velocity":61,"Duration":1397983,"SoundDuration":1397983,"Delta":162021888},{"NoteNumber":47,"Velocity":43,"Duration":229410,"SoundDuration":229410,"Delta":162021888},{"NoteNumber":50,"Velocity":35,"Duration":229410,"SoundDuration":229410,"Delta":162251298},{"NoteNumber":55,"Velocity":35,"Duration":229410,"SoundDuration":229410,"Delta":162480709},{"NoteNumber":47,"Velocity":41,"Duration":229410,"SoundDuration":229410,"Delta":162710119},{"NoteNumber":50,"Velocity":34,"Duration":229410,"SoundDuration":229410,"Delta":162939529},{"NoteNumber":55,"Velocity":34,"Duration":286779,"SoundDuration":286779,"Delta":163168940},{"NoteNumber":77,"Velocity":50,"Duration":386199,"SoundDuration":386199,"Delta":163455719},{"NoteNumber":48,"Velocity":39,"Duration":257466,"SoundDuration":257466,"Delta":163455719},{"NoteNumber":52,"Velocity":31,"Duration":244100,"SoundDuration":244100,"Delta":163713186},{"NoteNumber":76,"Velocity":45,"Duration":346100,"SoundDuration":346100,"Delta":163841919},{"NoteNumber":55,"Velocity":31,"Duration":230733,"SoundDuration":230733,"Delta":163957286},{"NoteNumber":74,"Velocity":43,"Duration":346100,"SoundDuration":346100,"Delta":164188019},{"NoteNumber":48,"Velocity":35,"Duration":230733,"SoundDuration":230733,"Delta":164188019},{"NoteNumber":52,"Velocity":31,"Duration":230733,"SoundDuration":230733,"Delta":164418753},{"NoteNumber":72,"Velocity":43,"Duration":346100,"SoundDuration":346100,"Delta":164534120},{"NoteNumber":55,"Velocity":31,"Duration":230733,"SoundDuration":230733,"Delta":164649487},{"NoteNumber":70,"Velocity":53,"Duration":1354012,"SoundDuration":1354012,"Delta":164880220},{"NoteNumber":52,"Velocity":35,"Duration":226308,"SoundDuration":226308,"Delta":164880220},{"NoteNumber":55,"Velocity":32,"Duration":225548,"SoundDuration":225548,"Delta":165106528},{"NoteNumber":60,"Velocity":32,"Duration":229260,"SoundDuration":229260,"Delta":165332077},{"NoteNumber":52,"Velocity":35,"Duration":233611,"SoundDuration":233611,"Delta":165561337},{"NoteNumber":55,"Velocity":29,"Duration":225335,"SoundDuration":225335,"Delta":165794949},{"NoteNumber":60,"Velocity":29,"Duration":213949,"SoundDuration":213949,"Delta":166020284},{"NoteNumber":69,"Velocity":45,"Duration":1377640,"SoundDuration":1377640,"Delta":166234233},{"NoteNumber":53,"Velocity":35,"Duration":229410,"SoundDuration":229410,"Delta":166234233},{"NoteNumber":57,"Velocity":27,"Duration":229410,"SoundDuration":229410,"Delta":166463644},{"NoteNumber":60,"Velocity":27,"Duration":229410,"SoundDuration":229410,"Delta":166693054},{"NoteNumber":53,"Velocity":32,"Duration":229410,"SoundDuration":229410,"Delta":166922464},{"NoteNumber":57,"Velocity":27,"Duration":229410,"SoundDuration":229410,"Delta":167151875},{"NoteNumber":60,"Velocity":27,"Duration":230588,"SoundDuration":230588,"Delta":167381285},{"NoteNumber":58,"Velocity":32,"Duration":692448,"SoundDuration":692448,"Delta":167611873},{"NoteNumber":62,"Velocity":40,"Duration":692448,"SoundDuration":692448,"Delta":167611873},{"NoteNumber":67,"Velocity":40,"Duration":224724,"SoundDuration":224724,"Delta":167860538},{"NoteNumber":70,"Velocity":40,"Duration":219058,"SoundDuration":219058,"Delta":168085263},{"NoteNumber":74,"Velocity":45,"Duration":223654,"SoundDuration":223654,"Delta":168304322},{"NoteNumber":70,"Velocity":35,"Duration":229263,"SoundDuration":229263,"Delta":168527976},{"NoteNumber":67,"Velocity":35,"Duration":271517,"SoundDuration":271517,"Delta":168757240},{"NoteNumber":65,"Velocity":41,"Duration":1890291,"SoundDuration":1890291,"Delta":169028758},{"NoteNumber":57,"Velocity":30,"Duration":1374118,"SoundDuration":1374118,"Delta":169028758},{"NoteNumber":48,"Velocity":24,"Duration":2788038,"SoundDuration":2788038,"Delta":169028758},{"NoteNumber":58,"Velocity":27,"Duration":1413920,"SoundDuration":1413920,"Delta":170402876},{"NoteNumber":69,"Velocity":35,"Duration":172057,"SoundDuration":172057,"Delta":170919049},{"NoteNumber":67,"Velocity":42,"Duration":725689,"SoundDuration":725689,"Delta":171091107},{"NoteNumber":64,"Velocity":36,"Duration":725689,"SoundDuration":725689,"Delta":171091107},{"NoteNumber":69,"Velocity":50,"Duration":246918,"SoundDuration":246918,"Delta":171816796},{"NoteNumber":53,"Velocity":40,"Duration":246918,"SoundDuration":246918,"Delta":171816796},{"NoteNumber":72,"Velocity":50,"Duration":229417,"SoundDuration":229417,"Delta":172063715},{"NoteNumber":57,"Velocity":40,"Duration":229417,"SoundDuration":229417,"Delta":172063715},{"NoteNumber":70,"Velocity":47,"Duration":228102,"SoundDuration":228102,"Delta":172293133},{"NoteNumber":55,"Velocity":37,"Duration":228102,"SoundDuration":228102,"Delta":172293133},{"NoteNumber":69,"Velocity":50,"Duration":236183,"SoundDuration":236183,"Delta":172521235},{"NoteNumber":53,"Velocity":40,"Duration":236183,"SoundDuration":236183,"Delta":172521235},{"NoteNumber":77,"Velocity":55,"Duration":226874,"SoundDuration":226874,"Delta":172757418},{"NoteNumber":62,"Velocity":44,"Duration":226874,"SoundDuration":226874,"Delta":172757418},{"NoteNumber":76,"Velocity":48,"Duration":230733,"SoundDuration":230733,"Delta":172984293},{"NoteNumber":60,"Velocity":38,"Duration":230733,"SoundDuration":230733,"Delta":172984293},{"NoteNumber":74,"Velocity":50,"Duration":233426,"SoundDuration":233426,"Delta":173215026},{"NoteNumber":58,"Velocity":40,"Duration":233426,"SoundDuration":233426,"Delta":173215026},{"NoteNumber":82,"Velocity":56,"Duration":228220,"SoundDuration":228220,"Delta":173448453},{"NoteNumber":67,"Velocity":44,"Duration":228220,"SoundDuration":228220,"Delta":173448453},{"NoteNumber":81,"Velocity":50,"Duration":223015,"SoundDuration":223015,"Delta":173676674},{"NoteNumber":65,"Velocity":40,"Duration":223015,"SoundDuration":223015,"Delta":173676674},{"NoteNumber":79,"Velocity":58,"Duration":241896,"SoundDuration":241896,"Delta":173899689},{"NoteNumber":64,"Velocity":45,"Duration":241896,"SoundDuration":241896,"Delta":173899689},{"NoteNumber":86,"Velocity":61,"Duration":228131,"SoundDuration":228131,"Delta":174141585},{"NoteNumber":70,"Velocity":52,"Duration":228131,"SoundDuration":228131,"Delta":174141585},{"NoteNumber":84,"Velocity":54,"Duration":225529,"SoundDuration":225529,"Delta":174369717},{"NoteNumber":69,"Velocity":43,"Duration":225529,"SoundDuration":225529,"Delta":174369717},{"NoteNumber":82,"Velocity":55,"Duration":218150,"SoundDuration":218150,"Delta":174595247},{"NoteNumber":67,"Velocity":44,"Duration":218150,"SoundDuration":218150,"Delta":174595247},{"NoteNumber":81,"Velocity":50,"Duration":218150,"SoundDuration":218150,"Delta":174813397},{"NoteNumber":65,"Velocity":40,"Duration":218150,"SoundDuration":218150,"Delta":174813397},{"NoteNumber":79,"Velocity":46,"Duration":217649,"SoundDuration":217649,"Delta":175031548},{"NoteNumber":64,"Velocity":36,"Duration":217649,"SoundDuration":217649,"Delta":175031548},{"NoteNumber":77,"Velocity":54,"Duration":216973,"SoundDuration":216973,"Delta":175249198},{"NoteNumber":62,"Velocity":43,"Duration":216973,"SoundDuration":216973,"Delta":175249198},{"NoteNumber":76,"Velocity":50,"Duration":221972,"SoundDuration":221972,"Delta":175466172},{"NoteNumber":60,"Velocity":40,"Duration":221972,"SoundDuration":221972,"Delta":175466172},{"NoteNumber":74,"Velocity":50,"Duration":226976,"SoundDuration":226976,"Delta":175688144},{"NoteNumber":58,"Velocity":40,"Duration":226976,"SoundDuration":226976,"Delta":175688144},{"NoteNumber":72,"Velocity":50,"Duration":1390820,"SoundDuration":1390820,"Delta":175915121},{"NoteNumber":57,"Velocity":39,"Duration":231803,"SoundDuration":231803,"Delta":175915121},{"NoteNumber":60,"Velocity":31,"Duration":231803,"SoundDuration":231803,"Delta":176146925},{"NoteNumber":65,"Velocity":31,"Duration":231803,"SoundDuration":231803,"Delta":176378728},{"NoteNumber":57,"Velocity":35,"Duration":231803,"SoundDuration":231803,"Delta":176610532},{"NoteNumber":60,"Velocity":31,"Duration":231803,"SoundDuration":231803,"Delta":176842335},{"NoteNumber":65,"Velocity":31,"Duration":231803,"SoundDuration":231803,"Delta":177074139},{"NoteNumber":70,"Velocity":50,"Duration":86926,"SoundDuration":86926,"Delta":177305942},{"NoteNumber":55,"Velocity":35,"Duration":226776,"SoundDuration":226776,"Delta":177305942},{"NoteNumber":72,"Velocity":46,"Duration":84133,"SoundDuration":84133,"Delta":177392868},{"NoteNumber":70,"Velocity":53,"Duration":1183421,"SoundDuration":1183421,"Delta":177477002},{"NoteNumber":58,"Velocity":32,"Duration":225548,"SoundDuration":225548,"Delta":177532718},{"NoteNumber":64,"Velocity":32,"Duration":229260,"SoundDuration":229260,"Delta":177758267},{"NoteNumber":55,"Velocity":35,"Duration":233611,"SoundDuration":233611,"Delta":177987527},{"NoteNumber":58,"Velocity":29,"Duration":225335,"SoundDuration":225335,"Delta":178221139},{"NoteNumber":64,"Velocity":29,"Duration":213949,"SoundDuration":213949,"Delta":178446474},{"NoteNumber":69,"Velocity":45,"Duration":1377640,"SoundDuration":1377640,"Delta":178660423},{"NoteNumber":53,"Velocity":35,"Duration":229410,"SoundDuration":229410,"Delta":178660423},{"NoteNumber":57,"Velocity":27,"Duration":229410,"SoundDuration":229410,"Delta":178889833},{"NoteNumber":65,"Velocity":27,"Duration":229410,"SoundDuration":229410,"Delta":179119244},{"NoteNumber":53,"Velocity":32,"Duration":229410,"SoundDuration":229410,"Delta":179348654},{"NoteNumber":57,"Velocity":27,"Duration":229410,"SoundDuration":229410,"Delta":179578064},{"NoteNumber":65,"Velocity":27,"Duration":230588,"SoundDuration":230588,"Delta":179807475},{"NoteNumber":58,"Velocity":32,"Duration":1403251,"SoundDuration":1403251,"Delta":180038063},{"NoteNumber":62,"Velocity":40,"Duration":1403251,"SoundDuration":1403251,"Delta":180038063},{"NoteNumber":66,"Velocity":40,"Duration":225088,"SoundDuration":225088,"Delta":180272731},{"NoteNumber":67,"Velocity":40,"Duration":219058,"SoundDuration":219058,"Delta":180497820},{"NoteNumber":74,"Velocity":45,"Duration":223654,"SoundDuration":223654,"Delta":180716878},{"NoteNumber":70,"Velocity":35,"Duration":229263,"SoundDuration":229263,"Delta":180940532},{"NoteNumber":67,"Velocity":35,"Duration":271517,"SoundDuration":271517,"Delta":181169796},{"NoteNumber":65,"Velocity":41,"Duration":1890291,"SoundDuration":1890291,"Delta":181441314},{"NoteNumber":57,"Velocity":30,"Duration":1374117,"SoundDuration":1374117,"Delta":181441314},{"NoteNumber":48,"Velocity":24,"Duration":2788038,"SoundDuration":2788038,"Delta":181441314},{"NoteNumber":58,"Velocity":27,"Duration":1413920,"SoundDuration":1413920,"Delta":182815432},{"NoteNumber":69,"Velocity":35,"Duration":172057,"SoundDuration":172057,"Delta":183331606},{"NoteNumber":67,"Velocity":42,"Duration":725689,"SoundDuration":725689,"Delta":183503663},{"NoteNumber":64,"Velocity":36,"Duration":725689,"SoundDuration":725689,"Delta":183503663},{"NoteNumber":69,"Velocity":50,"Duration":246918,"SoundDuration":246918,"Delta":184229353},{"NoteNumber":53,"Velocity":40,"Duration":246918,"SoundDuration":246918,"Delta":184229353},{"NoteNumber":72,"Velocity":50,"Duration":229417,"SoundDuration":229417,"Delta":184476271},{"NoteNumber":57,"Velocity":40,"Duration":229417,"SoundDuration":229417,"Delta":184476271},{"NoteNumber":70,"Velocity":47,"Duration":228102,"SoundDuration":228102,"Delta":184705689},{"NoteNumber":55,"Velocity":37,"Duration":228102,"SoundDuration":228102,"Delta":184705689},{"NoteNumber":69,"Velocity":50,"Duration":236183,"SoundDuration":236183,"Delta":184933791},{"NoteNumber":53,"Velocity":40,"Duration":236183,"SoundDuration":236183,"Delta":184933791},{"NoteNumber":77,"Velocity":55,"Duration":226874,"SoundDuration":226874,"Delta":185169975},{"NoteNumber":62,"Velocity":44,"Duration":226874,"SoundDuration":226874,"Delta":185169975},{"NoteNumber":76,"Velocity":48,"Duration":230733,"SoundDuration":230733,"Delta":185396849},{"NoteNumber":60,"Velocity":38,"Duration":230733,"SoundDuration":230733,"Delta":185396849},{"NoteNumber":74,"Velocity":50,"Duration":233426,"SoundDuration":233426,"Delta":185627583},{"NoteNumber":58,"Velocity":40,"Duration":233426,"SoundDuration":233426,"Delta":185627583},{"NoteNumber":82,"Velocity":56,"Duration":228220,"SoundDuration":228220,"Delta":185861009},{"NoteNumber":67,"Velocity":44,"Duration":228220,"SoundDuration":228220,"Delta":185861009},{"NoteNumber":81,"Velocity":50,"Duration":223015,"SoundDuration":223015,"Delta":186089230},{"NoteNumber":65,"Velocity":40,"Duration":223015,"SoundDuration":223015,"Delta":186089230},{"NoteNumber":79,"Velocity":57,"Duration":241896,"SoundDuration":241896,"Delta":186312245},{"NoteNumber":64,"Velocity":46,"Duration":241896,"SoundDuration":241896,"Delta":186312245},{"NoteNumber":86,"Velocity":62,"Duration":228131,"SoundDuration":228131,"Delta":186554142},{"NoteNumber":70,"Velocity":51,"Duration":228131,"SoundDuration":228131,"Delta":186554142},{"NoteNumber":84,"Velocity":54,"Duration":225529,"SoundDuration":225529,"Delta":186782274},{"NoteNumber":69,"Velocity":43,"Duration":225529,"SoundDuration":225529,"Delta":186782274},{"NoteNumber":82,"Velocity":55,"Duration":218150,"SoundDuration":218150,"Delta":187007804},{"NoteNumber":67,"Velocity":44,"Duration":218150,"SoundDuration":218150,"Delta":187007804},{"NoteNumber":81,"Velocity":50,"Duration":218150,"SoundDuration":218150,"Delta":187225954},{"NoteNumber":65,"Velocity":40,"Duration":218150,"SoundDuration":218150,"Delta":187225954},{"NoteNumber":79,"Velocity":46,"Duration":217649,"SoundDuration":217649,"Delta":187444104},{"NoteNumber":64,"Velocity":36,"Duration":217649,"SoundDuration":217649,"Delta":187444104},{"NoteNumber":77,"Velocity":54,"Duration":216973,"SoundDuration":216973,"Delta":187661754},{"NoteNumber":62,"Velocity":43,"Duration":216973,"SoundDuration":216973,"Delta":187661754},{"NoteNumber":76,"Velocity":50,"Duration":221972,"SoundDuration":221972,"Delta":187878728},{"NoteNumber":60,"Velocity":40,"Duration":221972,"SoundDuration":221972,"Delta":187878728},{"NoteNumber":74,"Velocity":50,"Duration":226976,"SoundDuration":226976,"Delta":188100701},{"NoteNumber":58,"Velocity":40,"Duration":226976,"SoundDuration":226976,"Delta":188100701},{"NoteNumber":72,"Velocity":50,"Duration":1390820,"SoundDuration":1390820,"Delta":188327678},{"NoteNumber":57,"Velocity":39,"Duration":231803,"SoundDuration":231803,"Delta":188327678},{"NoteNumber":60,"Velocity":31,"Duration":231803,"SoundDuration":231803,"Delta":188559481},{"NoteNumber":65,"Velocity":31,"Duration":231803,"SoundDuration":231803,"Delta":188791285},{"NoteNumber":57,"Velocity":35,"Duration":231803,"SoundDuration":231803,"Delta":189023088},{"NoteNumber":60,"Velocity":31,"Duration":231803,"SoundDuration":231803,"Delta":189254892},{"NoteNumber":65,"Velocity":31,"Duration":231803,"SoundDuration":231803,"Delta":189486695},{"NoteNumber":70,"Velocity":42,"Duration":88650,"SoundDuration":88650,"Delta":189718499},{"NoteNumber":55,"Velocity":35,"Duration":235103,"SoundDuration":235103,"Delta":189718499},{"NoteNumber":72,"Velocity":37,"Duration":88398,"SoundDuration":88398,"Delta":189807149},{"NoteNumber":70,"Velocity":41,"Duration":86895,"SoundDuration":86895,"Delta":189895548},{"NoteNumber":58,"Velocity":32,"Duration":225512,"SoundDuration":225512,"Delta":189953602},{"NoteNumber":72,"Velocity":38,"Duration":85249,"SoundDuration":85249,"Delta":189982444},{"NoteNumber":70,"Velocity":43,"Duration":83852,"SoundDuration":83852,"Delta":190067693},{"NoteNumber":72,"Velocity":39,"Duration":82317,"SoundDuration":82317,"Delta":190151546},{"NoteNumber":64,"Velocity":32,"Duration":216564,"SoundDuration":216564,"Delta":190179115},{"NoteNumber":70,"Velocity":43,"Duration":81014,"SoundDuration":81014,"Delta":190233863},{"NoteNumber":72,"Velocity":40,"Duration":80801,"SoundDuration":80801,"Delta":190314877},{"NoteNumber":70,"Velocity":45,"Duration":79214,"SoundDuration":79214,"Delta":190395679},{"NoteNumber":55,"Velocity":35,"Duration":209697,"SoundDuration":209697,"Delta":190395679},{"NoteNumber":72,"Velocity":42,"Duration":78469,"SoundDuration":78469,"Delta":190474893},{"NoteNumber":70,"Velocity":45,"Duration":77872,"SoundDuration":77872,"Delta":190553362},{"NoteNumber":58,"Velocity":29,"Duration":205544,"SoundDuration":205544,"Delta":190605377},{"NoteNumber":72,"Velocity":42,"Duration":77310,"SoundDuration":77310,"Delta":190631235},{"NoteNumber":70,"Velocity":45,"Duration":76781,"SoundDuration":76781,"Delta":190708546},{"NoteNumber":72,"Velocity":42,"Duration":76781,"SoundDuration":76781,"Delta":190785327},{"NoteNumber":64,"Velocity":29,"Duration":283098,"SoundDuration":283098,"Delta":190810921},{"NoteNumber":69,"Velocity":47,"Duration":115955,"SoundDuration":115955,"Delta":190862109},{"NoteNumber":70,"Velocity":42,"Duration":115955,"SoundDuration":115955,"Delta":190978064},{"NoteNumber":69,"Velocity":55,"Duration":1417687,"SoundDuration":1417687,"Delta":191094020},{"NoteNumber":53,"Velocity":35,"Duration":229410,"SoundDuration":229410,"Delta":191094020},{"NoteNumber":57,"Velocity":27,"Duration":229410,"SoundDuration":229410,"Delta":191323430},{"NoteNumber":65,"Velocity":27,"Duration":229410,"SoundDuration":229410,"Delta":191552840},{"NoteNumber":53,"Velocity":32,"Duration":229410,"SoundDuration":229410,"Delta":191782251},{"NoteNumber":57,"Velocity":27,"Duration":229410,"SoundDuration":229410,"Delta":192011661},{"NoteNumber":65,"Velocity":27,"Duration":270635,"SoundDuration":270635,"Delta":192241071},{"NoteNumber":66,"Velocity":40,"Duration":247892,"SoundDuration":247892,"Delta":192511707},{"NoteNumber":58,"Velocity":26,"Duration":1408783,"SoundDuration":1408783,"Delta":192511707},{"NoteNumber":62,"Velocity":36,"Duration":1408783,"SoundDuration":1408783,"Delta":192511707},{"NoteNumber":67,"Velocity":35,"Duration":234480,"SoundDuration":234480,"Delta":192759600},{"NoteNumber":70,"Velocity":35,"Duration":235149,"SoundDuration":235149,"Delta":192994080},{"NoteNumber":74,"Velocity":37,"Duration":232753,"SoundDuration":232753,"Delta":193229230},{"NoteNumber":79,"Velocity":40,"Duration":230404,"SoundDuration":230404,"Delta":193461983},{"NoteNumber":82,"Velocity":40,"Duration":228102,"SoundDuration":228102,"Delta":193692388},{"NoteNumber":86,"Velocity":42,"Duration":225529,"SoundDuration":225529,"Delta":193920490},{"NoteNumber":84,"Velocity":38,"Duration":225530,"SoundDuration":225530,"Delta":194146020},{"NoteNumber":82,"Velocity":38,"Duration":225529,"SoundDuration":225529,"Delta":194371550},{"NoteNumber":81,"Velocity":41,"Duration":225529,"SoundDuration":225529,"Delta":194597080},{"NoteNumber":79,"Velocity":35,"Duration":225530,"SoundDuration":225530,"Delta":194822610},{"NoteNumber":77,"Velocity":33,"Duration":219628,"SoundDuration":219628,"Delta":195048140},{"NoteNumber":77,"Velocity":41,"Duration":236183,"SoundDuration":236183,"Delta":195299144},{"NoteNumber":70,"Velocity":36,"Duration":3414094,"SoundDuration":3414094,"Delta":195299144},{"NoteNumber":60,"Velocity":27,"Duration":1641044,"SoundDuration":1641044,"Delta":195299144},{"NoteNumber":76,"Velocity":35,"Duration":236183,"SoundDuration":236183,"Delta":195535327},{"NoteNumber":79,"Velocity":35,"Duration":236183,"SoundDuration":236183,"Delta":195771511},{"NoteNumber":82,"Velocity":39,"Duration":260824,"SoundDuration":260824,"Delta":196007694},{"NoteNumber":79,"Velocity":35,"Duration":260824,"SoundDuration":260824,"Delta":196268518},{"NoteNumber":76,"Velocity":35,"Duration":359490,"SoundDuration":359490,"Delta":196529342},{"NoteNumber":76,"Velocity":41,"Duration":1773050,"SoundDuration":1773050,"Delta":196940189},{"NoteNumber":65,"Velocity":27,"Duration":3546099,"SoundDuration":3546099,"Delta":196940189},{"NoteNumber":77,"Velocity":41,"Duration":1773049,"SoundDuration":1773049,"Delta":198713239},{"NoteNumber":69,"Velocity":27,"Duration":1773049,"SoundDuration":1773049,"Delta":198713239},{"NoteNumber":72,"Velocity":50,"Duration":1210002,"SoundDuration":1210002,"Delta":202259339},{"NoteNumber":57,"Velocity":34,"Duration":1425118,"SoundDuration":1425118,"Delta":202259339},{"NoteNumber":53,"Velocity":28,"Duration":1425118,"SoundDuration":1425118,"Delta":202259339},{"NoteNumber":69,"Velocity":46,"Duration":107557,"SoundDuration":107557,"Delta":203469342},{"NoteNumber":65,"Velocity":41,"Duration":107557,"SoundDuration":107557,"Delta":203576899},{"NoteNumber":64,"Velocity":50,"Duration":806668,"SoundDuration":806668,"Delta":203684457},{"NoteNumber":58,"Velocity":32,"Duration":806668,"SoundDuration":806668,"Delta":203684457},{"NoteNumber":55,"Velocity":27,"Duration":806668,"SoundDuration":806668,"Delta":203684457},{"NoteNumber":55,"Velocity":45,"Duration":255231,"SoundDuration":255231,"Delta":205297794},{"NoteNumber":58,"Velocity":41,"Duration":237848,"SoundDuration":237848,"Delta":205553025},{"NoteNumber":60,"Velocity":41,"Duration":227990,"SoundDuration":227990,"Delta":205790874},{"NoteNumber":64,"Velocity":45,"Duration":219862,"SoundDuration":219862,"Delta":206018865},{"NoteNumber":67,"Velocity":41,"Duration":212010,"SoundDuration":212010,"Delta":206238727},{"NoteNumber":70,"Velocity":41,"Duration":309405,"SoundDuration":309405,"Delta":206450738},{"NoteNumber":74,"Velocity":57,"Duration":997671,"SoundDuration":997671,"Delta":206760144},{"NoteNumber":72,"Velocity":42,"Duration":104195,"SoundDuration":104195,"Delta":207757816},{"NoteNumber":70,"Velocity":36,"Duration":104195,"SoundDuration":104195,"Delta":207862012},{"NoteNumber":69,"Velocity":41,"Duration":104195,"SoundDuration":104195,"Delta":207966207},{"NoteNumber":67,"Velocity":36,"Duration":104195,"SoundDuration":104195,"Delta":208070403},{"NoteNumber":66,"Velocity":45,"Duration":660938,"SoundDuration":660938,"Delta":208174598},{"NoteNumber":60,"Velocity":24,"Duration":660938,"SoundDuration":660938,"Delta":208174598},{"NoteNumber":63,"Velocity":28,"Duration":660938,"SoundDuration":660938,"Delta":208174598},{"NoteNumber":57,"Velocity":24,"Duration":660938,"SoundDuration":660938,"Delta":208174598},{"NoteNumber":58,"Velocity":42,"Duration":220312,"SoundDuration":220312,"Delta":210818352},{"NoteNumber":62,"Velocity":39,"Duration":220312,"SoundDuration":220312,"Delta":211038665},{"NoteNumber":67,"Velocity":39,"Duration":220312,"SoundDuration":220312,"Delta":211258978},{"NoteNumber":70,"Velocity":42,"Duration":220312,"SoundDuration":220312,"Delta":211479291},{"NoteNumber":74,"Velocity":41,"Duration":220312,"SoundDuration":220312,"Delta":211699604},{"NoteNumber":79,"Velocity":41,"Duration":220312,"SoundDuration":220312,"Delta":211919917},{"NoteNumber":82,"Velocity":45,"Duration":228102,"SoundDuration":228102,"Delta":212140229},{"NoteNumber":86,"Velocity":42,"Duration":215796,"SoundDuration":215796,"Delta":212368332},{"NoteNumber":84,"Velocity":40,"Duration":215796,"SoundDuration":215796,"Delta":212584128},{"NoteNumber":82,"Velocity":42,"Duration":215796,"SoundDuration":215796,"Delta":212799924},{"NoteNumber":81,"Velocity":41,"Duration":215796,"SoundDuration":215796,"Delta":213015721},{"NoteNumber":79,"Velocity":41,"Duration":228102,"SoundDuration":228102,"Delta":213231517},{"NoteNumber":86,"Velocity":45,"Duration":215796,"SoundDuration":215796,"Delta":213459619},{"NoteNumber":84,"Velocity":42,"Duration":215796,"SoundDuration":215796,"Delta":213675415},{"NoteNumber":82,"Velocity":42,"Duration":215796,"SoundDuration":215796,"Delta":213891212},{"NoteNumber":81,"Velocity":45,"Duration":215796,"SoundDuration":215796,"Delta":214107008},{"NoteNumber":79,"Velocity":40,"Duration":215796,"SoundDuration":215796,"Delta":214322804},{"NoteNumber":77,"Velocity":38,"Duration":219628,"SoundDuration":219628,"Delta":214538601},{"NoteNumber":77,"Velocity":48,"Duration":2661222,"SoundDuration":2661222,"Delta":214789605},{"NoteNumber":60,"Velocity":27,"Duration":223015,"SoundDuration":223015,"Delta":214789605},{"NoteNumber":67,"Velocity":25,"Duration":223015,"SoundDuration":223015,"Delta":215012620},{"NoteNumber":70,"Velocity":25,"Duration":223015,"SoundDuration":223015,"Delta":215235635},{"NoteNumber":60,"Velocity":27,"Duration":223015,"SoundDuration":223015,"Delta":215458650},{"NoteNumber":67,"Velocity":25,"Duration":223605,"SoundDuration":223605,"Delta":215681665},{"NoteNumber":70,"Velocity":25,"Duration":225377,"SoundDuration":225377,"Delta":215905271},{"NoteNumber":60,"Velocity":27,"Duration":224435,"SoundDuration":224435,"Delta":216130649},{"NoteNumber":67,"Velocity":25,"Duration":222866,"SoundDuration":222866,"Delta":216355084},{"NoteNumber":70,"Velocity":25,"Duration":221638,"SoundDuration":221638,"Delta":216577950},{"NoteNumber":60,"Velocity":27,"Duration":220409,"SoundDuration":220409,"Delta":216799588},{"NoteNumber":67,"Velocity":25,"Duration":216879,"SoundDuration":216879,"Delta":217019998},{"NoteNumber":70,"Velocity":25,"Duration":213949,"SoundDuration":213949,"Delta":217236878},{"NoteNumber":76,"Velocity":50,"Duration":86028,"SoundDuration":86028,"Delta":217450827},{"NoteNumber":60,"Velocity":27,"Duration":229410,"SoundDuration":229410,"Delta":217450827},{"NoteNumber":77,"Velocity":46,"Duration":86028,"SoundDuration":86028,"Delta":217536856},{"NoteNumber":76,"Velocity":53,"Duration":1204404,"SoundDuration":1204404,"Delta":217622885},{"NoteNumber":67,"Velocity":25,"Duration":229410,"SoundDuration":229410,"Delta":217680238},{"NoteNumber":70,"Velocity":25,"Duration":229410,"SoundDuration":229410,"Delta":217909648},{"NoteNumber":60,"Velocity":27,"Duration":229410,"SoundDuration":229410,"Delta":218139058},{"NoteNumber":67,"Velocity":25,"Duration":229410,"SoundDuration":229410,"Delta":218368469},{"NoteNumber":70,"Velocity":25,"Duration":200734,"SoundDuration":200734,"Delta":218597879},{"NoteNumber":65,"Velocity":23,"Duration":3967112,"SoundDuration":3967112,"Delta":218827289},{"NoteNumber":70,"Velocity":36,"Duration":1321877,"SoundDuration":1321877,"Delta":218827289},{"NoteNumber":72,"Velocity":39,"Duration":220312,"SoundDuration":220312,"Delta":219047602},{"NoteNumber":74,"Velocity":39,"Duration":220312,"SoundDuration":220312,"Delta":219267915},{"NoteNumber":76,"Velocity":39,"Duration":220312,"SoundDuration":220312,"Delta":219488228},{"NoteNumber":77,"Velocity":41,"Duration":220312,"SoundDuration":220312,"Delta":219708541},{"NoteNumber":79,"Velocity":42,"Duration":220312,"SoundDuration":220312,"Delta":219928853},{"NoteNumber":81,"Velocity":45,"Duration":228102,"SoundDuration":228102,"Delta":220149166},{"NoteNumber":69,"Velocity":27,"Duration":2645235,"SoundDuration":2645235,"Delta":220149166},{"NoteNumber":82,"Velocity":42,"Duration":215796,"SoundDuration":215796,"Delta":220377268},{"NoteNumber":84,"Velocity":40,"Duration":215796,"SoundDuration":215796,"Delta":220593065},{"NoteNumber":82,"Velocity":48,"Duration":215796,"SoundDuration":215796,"Delta":220808861},{"NoteNumber":81,"Velocity":41,"Duration":215796,"SoundDuration":215796,"Delta":221024657},{"NoteNumber":79,"Velocity":41,"Duration":228102,"SoundDuration":228102,"Delta":221240454},{"NoteNumber":77,"Velocity":45,"Duration":215796,"SoundDuration":215796,"Delta":221468556},{"NoteNumber":84,"Velocity":42,"Duration":215796,"SoundDuration":215796,"Delta":221684352},{"NoteNumber":81,"Velocity":42,"Duration":215796,"SoundDuration":215796,"Delta":221900149},{"NoteNumber":79,"Velocity":45,"Duration":215796,"SoundDuration":215796,"Delta":222115945},{"NoteNumber":77,"Velocity":40,"Duration":215796,"SoundDuration":215796,"Delta":222331741},{"NoteNumber":76,"Velocity":38,"Duration":218673,"SoundDuration":218673,"Delta":222547538},{"NoteNumber":76,"Velocity":48,"Duration":994780,"SoundDuration":994780,"Delta":222794402},{"NoteNumber":58,"Velocity":26,"Duration":225435,"SoundDuration":225435,"Delta":222794402},{"NoteNumber":65,"Velocity":22,"Duration":222769,"SoundDuration":222769,"Delta":223019838},{"NoteNumber":69,"Velocity":22,"Duration":220555,"SoundDuration":220555,"Delta":223242607},{"NoteNumber":58,"Velocity":27,"Duration":218122,"SoundDuration":218122,"Delta":223463163},{"NoteNumber":65,"Velocity":25,"Duration":215796,"SoundDuration":215796,"Delta":223681285},{"NoteNumber":74,"Velocity":46,"Duration":362092,"SoundDuration":362092,"Delta":223789183},{"NoteNumber":69,"Velocity":25,"Duration":254194,"SoundDuration":254194,"Delta":223897081},{"NoteNumber":82,"Velocity":50,"Duration":1338189,"SoundDuration":1338189,"Delta":224151275},{"NoteNumber":58,"Velocity":27,"Duration":242446,"SoundDuration":242446,"Delta":224151275},{"NoteNumber":65,"Velocity":25,"Duration":222866,"SoundDuration":222866,"Delta":224393721},{"NoteNumber":67,"Velocity":25,"Duration":221638,"SoundDuration":221638,"Delta":224616587},{"NoteNumber":58,"Velocity":27,"Duration":220409,"SoundDuration":220409,"Delta":224838225},{"NoteNumber":65,"Velocity":25,"Duration":216879,"SoundDuration":216879,"Delta":225058635},{"NoteNumber":67,"Velocity":25,"Duration":213949,"SoundDuration":213949,"Delta":225275515},{"NoteNumber":74,"Velocity":46,"Duration":1360245,"SoundDuration":1360245,"Delta":225489464},{"NoteNumber":58,"Velocity":27,"Duration":220555,"SoundDuration":220555,"Delta":225489464},{"NoteNumber":65,"Velocity":25,"Duration":220555,"SoundDuration":220555,"Delta":225710020},{"NoteNumber":67,"Velocity":25,"Duration":220555,"SoundDuration":220555,"Delta":225930576},{"NoteNumber":58,"Velocity":30,"Duration":220555,"SoundDuration":220555,"Delta":226151132},{"NoteNumber":65,"Velocity":26,"Duration":220555,"SoundDuration":220555,"Delta":226371688},{"NoteNumber":67,"Velocity":29,"Duration":225283,"SoundDuration":225283,"Delta":226592244},{"NoteNumber":73,"Velocity":50,"Duration":994780,"SoundDuration":994780,"Delta":226849710},{"NoteNumber":57,"Velocity":37,"Duration":225435,"SoundDuration":225435,"Delta":226849710},{"NoteNumber":64,"Velocity":31,"Duration":222769,"SoundDuration":222769,"Delta":227075146},{"NoteNumber":67,"Velocity":31,"Duration":220555,"SoundDuration":220555,"Delta":227297915},{"NoteNumber":57,"Velocity":37,"Duration":218122,"SoundDuration":218122,"Delta":227518471},{"NoteNumber":64,"Velocity":31,"Duration":215796,"SoundDuration":215796,"Delta":227736593},{"NoteNumber":76,"Velocity":49,"Duration":341324,"SoundDuration":341324,"Delta":227844491},{"NoteNumber":67,"Velocity":31,"Duration":233426,"SoundDuration":233426,"Delta":227952389},{"NoteNumber":79,"Velocity":56,"Duration":1338034,"SoundDuration":1338034,"Delta":228185816},{"NoteNumber":61,"Velocity":39,"Duration":229289,"SoundDuration":229289,"Delta":228185816},{"NoteNumber":64,"Velocity":33,"Duration":218150,"SoundDuration":218150,"Delta":228415105},{"NoteNumber":69,"Velocity":33,"Duration":217767,"SoundDuration":217767,"Delta":228633256},{"NoteNumber":61,"Velocity":39,"Duration":215796,"SoundDuration":215796,"Delta":228851023},{"NoteNumber":64,"Velocity":31,"Duration":215134,"SoundDuration":215134,"Delta":229066820},{"NoteNumber":69,"Velocity":30,"Duration":241896,"SoundDuration":241896,"Delta":229281954},{"NoteNumber":77,"Velocity":51,"Duration":992501,"SoundDuration":992501,"Delta":229523850},{"NoteNumber":62,"Velocity":37,"Duration":220555,"SoundDuration":220555,"Delta":229523850},{"NoteNumber":65,"Velocity":30,"Duration":220555,"SoundDuration":220555,"Delta":229744406},{"NoteNumber":69,"Velocity":30,"Duration":220555,"SoundDuration":220555,"Delta":229964962},{"NoteNumber":62,"Velocity":33,"Duration":220555,"SoundDuration":220555,"Delta":230185518},{"NoteNumber":65,"Velocity":25,"Duration":220555,"SoundDuration":220555,"Delta":230406073},{"NoteNumber":74,"Velocity":48,"Duration":367744,"SoundDuration":367744,"Delta":230516351},{"NoteNumber":69,"Velocity":25,"Duration":225283,"SoundDuration":225283,"Delta":230626629},{"NoteNumber":81,"Velocity":59,"Duration":1357230,"SoundDuration":1357230,"Delta":230884096},{"NoteNumber":57,"Velocity":34,"Duration":226924,"SoundDuration":226924,"Delta":230884096},{"NoteNumber":61,"Velocity":27,"Duration":224335,"SoundDuration":224335,"Delta":231111021},{"NoteNumber":64,"Velocity":27,"Duration":219929,"SoundDuration":219929,"Delta":231335356},{"NoteNumber":69,"Velocity":29,"Duration":224048,"SoundDuration":224048,"Delta":231555285},{"NoteNumber":64,"Velocity":27,"Duration":228858,"SoundDuration":228858,"Delta":231779334},{"NoteNumber":61,"Velocity":27,"Duration":233134,"SoundDuration":233134,"Delta":232008192},{"NoteNumber":57,"Velocity":33,"Duration":708550,"SoundDuration":708550,"Delta":232241326},{"NoteNumber":57,"Velocity":46,"Duration":228102,"SoundDuration":228102,"Delta":233658426},{"NoteNumber":58,"Velocity":39,"Duration":228102,"SoundDuration":228102,"Delta":233886528},{"NoteNumber":57,"Velocity":39,"Duration":228102,"SoundDuration":228102,"Delta":234114631},{"NoteNumber":55,"Velocity":44,"Duration":228102,"SoundDuration":228102,"Delta":234342733},{"NoteNumber":53,"Velocity":35,"Duration":228102,"SoundDuration":228102,"Delta":234570835},{"NoteNumber":52,"Velocity":37,"Duration":228102,"SoundDuration":228102,"Delta":234798937},{"NoteNumber":50,"Velocity":48,"Duration":680544,"SoundDuration":680544,"Delta":235027039},{"NoteNumber":69,"Velocity":41,"Duration":228102,"SoundDuration":228102,"Delta":235255141},{"NoteNumber":67,"Velocity":42,"Duration":224340,"SoundDuration":224340,"Delta":235483244},{"NoteNumber":65,"Velocity":48,"Duration":230222,"SoundDuration":230222,"Delta":235707584},{"NoteNumber":64,"Velocity":42,"Duration":237399,"SoundDuration":237399,"Delta":235937807},{"NoteNumber":62,"Velocity":42,"Duration":245105,"SoundDuration":245105,"Delta":236175206},{"NoteNumber":61,"Velocity":49,"Duration":1368613,"SoundDuration":1368613,"Delta":236420312},{"NoteNumber":52,"Velocity":34,"Duration":1368613,"SoundDuration":1368613,"Delta":236420312},{"NoteNumber":55,"Velocity":34,"Duration":1368613,"SoundDuration":1368613,"Delta":236420312},{"NoteNumber":58,"Velocity":34,"Duration":1368613,"SoundDuration":1368613,"Delta":236420312},{"NoteNumber":73,"Velocity":40,"Duration":1348710,"SoundDuration":1348710,"Delta":239157538},{"NoteNumber":70,"Velocity":32,"Duration":1348710,"SoundDuration":1348710,"Delta":239157538},{"NoteNumber":67,"Velocity":32,"Duration":1348710,"SoundDuration":1348710,"Delta":239157538},{"NoteNumber":64,"Velocity":32,"Duration":1348710,"SoundDuration":1348710,"Delta":239157538},{"NoteNumber":82,"Velocity":46,"Duration":228102,"SoundDuration":228102,"Delta":239385640},{"NoteNumber":81,"Velocity":48,"Duration":223460,"SoundDuration":223460,"Delta":239613742},{"NoteNumber":79,"Velocity":53,"Duration":223015,"SoundDuration":223015,"Delta":239837203},{"NoteNumber":77,"Velocity":47,"Duration":223015,"SoundDuration":223015,"Delta":240060218},{"NoteNumber":76,"Velocity":43,"Duration":223015,"SoundDuration":223015,"Delta":240283233},{"NoteNumber":74,"Velocity":53,"Duration":228102,"SoundDuration":228102,"Delta":240506248},{"NoteNumber":74,"Velocity":40,"Duration":1393272,"SoundDuration":1393272,"Delta":240506248},{"NoteNumber":69,"Velocity":32,"Duration":1393272,"SoundDuration":1393272,"Delta":240506248},{"NoteNumber":65,"Velocity":32,"Duration":1393272,"SoundDuration":1393272,"Delta":240506248},{"NoteNumber":81,"Velocity":46,"Duration":228102,"SoundDuration":228102,"Delta":240734350},{"NoteNumber":79,"Velocity":48,"Duration":224340,"SoundDuration":224340,"Delta":240962453},{"NoteNumber":77,"Velocity":53,"Duration":230222,"SoundDuration":230222,"Delta":241186793},{"NoteNumber":76,"Velocity":47,"Duration":237399,"SoundDuration":237399,"Delta":241417016},{"NoteNumber":74,"Velocity":46,"Duration":245105,"SoundDuration":245105,"Delta":241654415},{"NoteNumber":86,"Velocity":68,"Duration":557758,"SoundDuration":557758,"Delta":241899521},{"NoteNumber":84,"Velocity":43,"Duration":324675,"SoundDuration":324675,"Delta":243015039},{"NoteNumber":74,"Velocity":43,"Duration":974025,"SoundDuration":974025,"Delta":243015039},{"NoteNumber":66,"Velocity":38,"Duration":324675,"SoundDuration":324675,"Delta":243015039},{"NoteNumber":82,"Velocity":50,"Duration":649350,"SoundDuration":649350,"Delta":243339714},{"NoteNumber":67,"Velocity":26,"Duration":649350,"SoundDuration":649350,"Delta":243339714},{"NoteNumber":74,"Velocity":41,"Duration":324675,"SoundDuration":324675,"Delta":244313740},{"NoteNumber":70,"Velocity":37,"Duration":324675,"SoundDuration":324675,"Delta":244313740},{"NoteNumber":73,"Velocity":50,"Duration":649350,"SoundDuration":649350,"Delta":244638415},{"NoteNumber":69,"Velocity":26,"Duration":649350,"SoundDuration":649350,"Delta":244638415},{"NoteNumber":76,"Velocity":41,"Duration":324675,"SoundDuration":324675,"Delta":245612441},{"NoteNumber":61,"Velocity":35,"Duration":324675,"SoundDuration":324675,"Delta":245612441},{"NoteNumber":81,"Velocity":50,"Duration":649350,"SoundDuration":649350,"Delta":245937116},{"NoteNumber":57,"Velocity":32,"Duration":649350,"SoundDuration":649350,"Delta":245937116},{"NoteNumber":79,"Velocity":41,"Duration":324675,"SoundDuration":324675,"Delta":246911142},{"NoteNumber":61,"Velocity":29,"Duration":324675,"SoundDuration":324675,"Delta":246911142},{"NoteNumber":69,"Velocity":37,"Duration":324675,"SoundDuration":324675,"Delta":246911142},{"NoteNumber":79,"Velocity":35,"Duration":384714,"SoundDuration":384714,"Delta":247235817},{"NoteNumber":62,"Velocity":27,"Duration":789394,"SoundDuration":789394,"Delta":247235817},{"NoteNumber":69,"Velocity":32,"Duration":789394,"SoundDuration":789394,"Delta":247235817},{"NoteNumber":77,"Velocity":32,"Duration":404680,"SoundDuration":404680,"Delta":247620531},{"NoteNumber":79,"Velocity":38,"Duration":94652,"SoundDuration":94652,"Delta":248025211},{"NoteNumber":77,"Velocity":32,"Duration":79184,"SoundDuration":79184,"Delta":248119863},{"NoteNumber":79,"Velocity":30,"Duration":74938,"SoundDuration":74938,"Delta":248199048},{"NoteNumber":77,"Velocity":31,"Duration":70310,"SoundDuration":70310,"Delta":248273987},{"NoteNumber":79,"Velocity":33,"Duration":66677,"SoundDuration":66677,"Delta":248344297},{"NoteNumber":77,"Velocity":36,"Duration":64245,"SoundDuration":64245,"Delta":248410975},{"NoteNumber":76,"Velocity":37,"Duration":100833,"SoundDuration":100833,"Delta":248475220},{"NoteNumber":77,"Velocity":38,"Duration":100833,"SoundDuration":100833,"Delta":248576053},{"NoteNumber":76,"Velocity":40,"Duration":556999,"SoundDuration":556999,"Delta":248676887},{"NoteNumber":69,"Velocity":27,"Duration":556999,"SoundDuration":556999,"Delta":248676887},{"NoteNumber":73,"Velocity":32,"Duration":556999,"SoundDuration":556999,"Delta":248676887},{"NoteNumber":69,"Velocity":50,"Duration":246918,"SoundDuration":246918,"Delta":250904885},{"NoteNumber":76,"Velocity":50,"Duration":229417,"SoundDuration":229417,"Delta":251151803},{"NoteNumber":61,"Velocity":40,"Duration":229417,"SoundDuration":229417,"Delta":251151803},{"NoteNumber":74,"Velocity":47,"Duration":228102,"SoundDuration":228102,"Delta":251381221},{"NoteNumber":58,"Velocity":37,"Duration":228102,"SoundDuration":228102,"Delta":251381221},{"NoteNumber":73,"Velocity":50,"Duration":236183,"SoundDuration":236183,"Delta":251609324},{"NoteNumber":57,"Velocity":40,"Duration":236183,"SoundDuration":236183,"Delta":251609324},{"NoteNumber":79,"Velocity":55,"Duration":226874,"SoundDuration":226874,"Delta":251845507},{"NoteNumber":64,"Velocity":44,"Duration":226874,"SoundDuration":226874,"Delta":251845507},{"NoteNumber":77,"Velocity":48,"Duration":230733,"SoundDuration":230733,"Delta":252072381},{"NoteNumber":62,"Velocity":38,"Duration":230733,"SoundDuration":230733,"Delta":252072381},{"NoteNumber":76,"Velocity":50,"Duration":233426,"SoundDuration":233426,"Delta":252303115},{"NoteNumber":61,"Velocity":40,"Duration":233426,"SoundDuration":233426,"Delta":252303115},{"NoteNumber":82,"Velocity":56,"Duration":228220,"SoundDuration":228220,"Delta":252536542},{"NoteNumber":67,"Velocity":44,"Duration":228220,"SoundDuration":228220,"Delta":252536542},{"NoteNumber":81,"Velocity":50,"Duration":223015,"SoundDuration":223015,"Delta":252764763},{"NoteNumber":65,"Velocity":40,"Duration":223015,"SoundDuration":223015,"Delta":252764763},{"NoteNumber":79,"Velocity":58,"Duration":241896,"SoundDuration":241896,"Delta":252987778},{"NoteNumber":64,"Velocity":45,"Duration":695558,"SoundDuration":695558,"Delta":252987778},{"NoteNumber":88,"Velocity":63,"Duration":228131,"SoundDuration":228131,"Delta":253229674},{"NoteNumber":86,"Velocity":56,"Duration":225529,"SoundDuration":225529,"Delta":253457806},{"NoteNumber":85,"Velocity":60,"Duration":218150,"SoundDuration":218150,"Delta":253683336},{"NoteNumber":82,"Velocity":57,"Duration":218150,"SoundDuration":218150,"Delta":253901486},{"NoteNumber":81,"Velocity":51,"Duration":217649,"SoundDuration":217649,"Delta":254119636},{"NoteNumber":79,"Velocity":54,"Duration":216973,"SoundDuration":216973,"Delta":254337286},{"NoteNumber":77,"Velocity":50,"Duration":221972,"SoundDuration":221972,"Delta":254554260},{"NoteNumber":76,"Velocity":50,"Duration":226976,"SoundDuration":226976,"Delta":254776233},{"NoteNumber":74,"Velocity":50,"Duration":246918,"SoundDuration":246918,"Delta":255003210},{"NoteNumber":81,"Velocity":50,"Duration":229417,"SoundDuration":229417,"Delta":255250128},{"NoteNumber":66,"Velocity":40,"Duration":229417,"SoundDuration":229417,"Delta":255250128},{"NoteNumber":79,"Velocity":47,"Duration":228102,"SoundDuration":228102,"Delta":255479546},{"NoteNumber":64,"Velocity":37,"Duration":228102,"SoundDuration":228102,"Delta":255479546},{"NoteNumber":78,"Velocity":50,"Duration":236183,"SoundDuration":236183,"Delta":255707648},{"NoteNumber":62,"Velocity":40,"Duration":236183,"SoundDuration":236183,"Delta":255707648},{"NoteNumber":84,"Velocity":55,"Duration":226874,"SoundDuration":226874,"Delta":255943832},{"NoteNumber":69,"Velocity":44,"Duration":226874,"SoundDuration":226874,"Delta":255943832},{"NoteNumber":82,"Velocity":48,"Duration":230733,"SoundDuration":230733,"Delta":256170706},{"NoteNumber":67,"Velocity":38,"Duration":230733,"SoundDuration":230733,"Delta":256170706},{"NoteNumber":81,"Velocity":50,"Duration":233426,"SoundDuration":233426,"Delta":256401440},{"NoteNumber":66,"Velocity":40,"Duration":233426,"SoundDuration":233426,"Delta":256401440},{"NoteNumber":87,"Velocity":59,"Duration":228220,"SoundDuration":228220,"Delta":256634866},{"NoteNumber":72,"Velocity":44,"Duration":228220,"SoundDuration":228220,"Delta":256634866},{"NoteNumber":86,"Velocity":53,"Duration":223015,"SoundDuration":223015,"Delta":256863087},{"NoteNumber":70,"Velocity":40,"Duration":223015,"SoundDuration":223015,"Delta":256863087},{"NoteNumber":84,"Velocity":48,"Duration":241896,"SoundDuration":241896,"Delta":257086102},{"NoteNumber":69,"Velocity":39,"Duration":695558,"SoundDuration":695558,"Delta":257086102},{"NoteNumber":82,"Velocity":50,"Duration":228131,"SoundDuration":228131,"Delta":257327999},{"NoteNumber":81,"Velocity":49,"Duration":225529,"SoundDuration":225529,"Delta":257556131},{"NoteNumber":79,"Velocity":48,"Duration":218150,"SoundDuration":218150,"Delta":257781661},{"NoteNumber":78,"Velocity":51,"Duration":219743,"SoundDuration":219743,"Delta":257999811},{"NoteNumber":79,"Velocity":48,"Duration":223208,"SoundDuration":223208,"Delta":258219555},{"NoteNumber":81,"Velocity":54,"Duration":226591,"SoundDuration":226591,"Delta":258442764},{"NoteNumber":78,"Velocity":50,"Duration":229845,"SoundDuration":229845,"Delta":258669355},{"NoteNumber":72,"Velocity":46,"Duration":233638,"SoundDuration":233638,"Delta":258899200},{"NoteNumber":70,"Velocity":50,"Duration":1360610,"SoundDuration":1360610,"Delta":259132839},{"NoteNumber":55,"Velocity":31,"Duration":231342,"SoundDuration":231342,"Delta":259132839},{"NoteNumber":58,"Velocity":25,"Duration":230409,"SoundDuration":230409,"Delta":259364182},{"NoteNumber":63,"Velocity":29,"Duration":227946,"SoundDuration":227946,"Delta":259594591},{"NoteNumber":55,"Velocity":32,"Duration":226019,"SoundDuration":226019,"Delta":259822538},{"NoteNumber":58,"Velocity":35,"Duration":224278,"SoundDuration":224278,"Delta":260048557},{"NoteNumber":63,"Velocity":38,"Duration":220613,"SoundDuration":220613,"Delta":260272836},{"NoteNumber":82,"Velocity":62,"Duration":1311920,"SoundDuration":1311920,"Delta":260493449},{"NoteNumber":55,"Velocity":42,"Duration":222893,"SoundDuration":222893,"Delta":260493449},{"NoteNumber":58,"Velocity":37,"Duration":221385,"SoundDuration":221385,"Delta":260716343},{"NoteNumber":63,"Velocity":37,"Duration":219713,"SoundDuration":219713,"Delta":260937729},{"NoteNumber":55,"Velocity":42,"Duration":218061,"SoundDuration":218061,"Delta":261157442},{"NoteNumber":58,"Velocity":35,"Duration":215796,"SoundDuration":215796,"Delta":261375504},{"NoteNumber":63,"Velocity":36,"Duration":214068,"SoundDuration":214068,"Delta":261591301},{"NoteNumber":74,"Velocity":57,"Duration":1332090,"SoundDuration":1332090,"Delta":261805369},{"NoteNumber":56,"Velocity":43,"Duration":216325,"SoundDuration":216325,"Delta":261805369},{"NoteNumber":62,"Velocity":35,"Duration":219292,"SoundDuration":219292,"Delta":262021695},{"NoteNumber":65,"Velocity":35,"Duration":222338,"SoundDuration":222338,"Delta":262240988},{"NoteNumber":56,"Velocity":41,"Duration":223015,"SoundDuration":223015,"Delta":262463327},{"NoteNumber":62,"Velocity":34,"Duration":223015,"SoundDuration":223015,"Delta":262686342},{"NoteNumber":65,"Velocity":34,"Duration":228102,"SoundDuration":228102,"Delta":262909357},{"NoteNumber":73,"Velocity":50,"Duration":1310710,"SoundDuration":1310710,"Delta":263137459},{"NoteNumber":57,"Velocity":31,"Duration":222945,"SoundDuration":222945,"Delta":263137459},{"NoteNumber":64,"Velocity":25,"Duration":220555,"SoundDuration":220555,"Delta":263360405},{"NoteNumber":67,"Velocity":29,"Duration":218360,"SoundDuration":218360,"Delta":263580961},{"NoteNumber":57,"Velocity":32,"Duration":218061,"SoundDuration":218061,"Delta":263799322},{"NoteNumber":64,"Velocity":35,"Duration":215796,"SoundDuration":215796,"Delta":264017384},{"NoteNumber":69,"Velocity":38,"Duration":214990,"SoundDuration":214990,"Delta":264233180},{"NoteNumber":79,"Velocity":62,"Duration":1280560,"SoundDuration":1280560,"Delta":264448170},{"NoteNumber":61,"Velocity":42,"Duration":213492,"SoundDuration":213492,"Delta":264448170},{"NoteNumber":64,"Velocity":37,"Duration":213492,"SoundDuration":213492,"Delta":264661663},{"NoteNumber":69,"Velocity":37,"Duration":213492,"SoundDuration":213492,"Delta":264875155},{"NoteNumber":61,"Velocity":42,"Duration":212985,"SoundDuration":212985,"Delta":265088648},{"NoteNumber":64,"Velocity":35,"Duration":212308,"SoundDuration":212308,"Delta":265301633},{"NoteNumber":69,"Velocity":36,"Duration":214788,"SoundDuration":214788,"Delta":265513942},{"NoteNumber":77,"Velocity":55,"Duration":1375416,"SoundDuration":1375416,"Delta":265728731},{"NoteNumber":62,"Velocity":43,"Duration":213579,"SoundDuration":213579,"Delta":265728731},{"NoteNumber":65,"Velocity":35,"Duration":215796,"SoundDuration":215796,"Delta":265942310},{"NoteNumber":69,"Velocity":35,"Duration":217944,"SoundDuration":217944,"Delta":266158106},{"NoteNumber":62,"Velocity":41,"Duration":219593,"SoundDuration":219593,"Delta":266376050},{"NoteNumber":65,"Velocity":34,"Duration":221724,"SoundDuration":221724,"Delta":266595644},{"NoteNumber":69,"Velocity":34,"Duration":286779,"SoundDuration":286779,"Delta":266817368},{"NoteNumber":58,"Velocity":40,"Duration":1403251,"SoundDuration":1403251,"Delta":267104147},{"NoteNumber":76,"Velocity":40,"Duration":225088,"SoundDuration":225088,"Delta":267338815},{"NoteNumber":79,"Velocity":40,"Duration":219058,"SoundDuration":219058,"Delta":267563904},{"NoteNumber":82,"Velocity":45,"Duration":223654,"SoundDuration":223654,"Delta":267782962},{"NoteNumber":79,"Velocity":35,"Duration":229263,"SoundDuration":229263,"Delta":268006617},{"NoteNumber":76,"Velocity":35,"Duration":271517,"SoundDuration":271517,"Delta":268235881},{"NoteNumber":74,"Velocity":41,"Duration":1890291,"SoundDuration":1890291,"Delta":268507399},{"NoteNumber":65,"Velocity":30,"Duration":1374118,"SoundDuration":1374118,"Delta":268507399},{"NoteNumber":57,"Velocity":24,"Duration":2850648,"SoundDuration":2850648,"Delta":268507399},{"NoteNumber":67,"Velocity":27,"Duration":1476530,"SoundDuration":1476530,"Delta":269881517},{"NoteNumber":77,"Velocity":35,"Duration":172057,"SoundDuration":172057,"Delta":270397690},{"NoteNumber":76,"Velocity":42,"Duration":788299,"SoundDuration":788299,"Delta":270569748},{"NoteNumber":73,"Velocity":36,"Duration":788299,"SoundDuration":788299,"Delta":270569748},{"NoteNumber":78,"Velocity":43,"Duration":1360610,"SoundDuration":1360610,"Delta":271358047},{"NoteNumber":62,"Velocity":31,"Duration":231342,"SoundDuration":231342,"Delta":271358047},{"NoteNumber":69,"Velocity":25,"Duration":230409,"SoundDuration":230409,"Delta":271589390},{"NoteNumber":72,"Velocity":29,"Duration":227946,"SoundDuration":227946,"Delta":271819800},{"NoteNumber":62,"Velocity":32,"Duration":226019,"SoundDuration":226019,"Delta":272047746},{"NoteNumber":69,"Velocity":35,"Duration":224278,"SoundDuration":224278,"Delta":272273766},{"NoteNumber":72,"Velocity":38,"Duration":220613,"SoundDuration":220613,"Delta":272498044},{"NoteNumber":81,"Velocity":54,"Duration":1528246,"SoundDuration":1528246,"Delta":272718657},{"NoteNumber":62,"Velocity":42,"Duration":222893,"SoundDuration":222893,"Delta":272718657},{"NoteNumber":69,"Velocity":37,"Duration":221385,"SoundDuration":221385,"Delta":272941551},{"NoteNumber":72,"Velocity":33,"Duration":219713,"SoundDuration":219713,"Delta":273162937},{"NoteNumber":62,"Velocity":39,"Duration":218061,"SoundDuration":218061,"Delta":273382651},{"NoteNumber":69,"Velocity":34,"Duration":215796,"SoundDuration":215796,"Delta":273600712},{"NoteNumber":72,"Velocity":34,"Duration":214068,"SoundDuration":214068,"Delta":273816509},{"NoteNumber":62,"Velocity":40,"Duration":216325,"SoundDuration":216325,"Delta":274030577},{"NoteNumber":87,"Velocity":60,"Duration":219292,"SoundDuration":219292,"Delta":274246903},{"NoteNumber":69,"Velocity":32,"Duration":219292,"SoundDuration":219292,"Delta":274246903},{"NoteNumber":86,"Velocity":54,"Duration":222338,"SoundDuration":222338,"Delta":274466196},{"NoteNumber":72,"Velocity":32,"Duration":222338,"SoundDuration":222338,"Delta":274466196},{"NoteNumber":84,"Velocity":58,"Duration":223015,"SoundDuration":223015,"Delta":274688535},{"NoteNumber":62,"Velocity":38,"Duration":223015,"SoundDuration":223015,"Delta":274688535},{"NoteNumber":82,"Velocity":54,"Duration":223015,"SoundDuration":223015,"Delta":274911550},{"NoteNumber":69,"Velocity":32,"Duration":223015,"SoundDuration":223015,"Delta":274911550},{"NoteNumber":81,"Velocity":49,"Duration":228102,"SoundDuration":228102,"Delta":275134565},{"NoteNumber":72,"Velocity":32,"Duration":228102,"SoundDuration":228102,"Delta":275134565},{"NoteNumber":79,"Velocity":54,"Duration":1360610,"SoundDuration":1360610,"Delta":275362668},{"NoteNumber":62,"Velocity":31,"Duration":231342,"SoundDuration":231342,"Delta":275362668},{"NoteNumber":67,"Velocity":25,"Duration":230409,"SoundDuration":230409,"Delta":275594010},{"NoteNumber":70,"Velocity":29,"Duration":227946,"SoundDuration":227946,"Delta":275824420},{"NoteNumber":62,"Velocity":32,"Duration":226019,"SoundDuration":226019,"Delta":276052366},{"NoteNumber":67,"Velocity":35,"Duration":224278,"SoundDuration":224278,"Delta":276278386},{"NoteNumber":70,"Velocity":38,"Duration":220613,"SoundDuration":220613,"Delta":276502664},{"NoteNumber":82,"Velocity":54,"Duration":1528246,"SoundDuration":1528246,"Delta":276723278},{"NoteNumber":62,"Velocity":42,"Duration":222893,"SoundDuration":222893,"Delta":276723278},{"NoteNumber":67,"Velocity":37,"Duration":221385,"SoundDuration":221385,"Delta":276946171},{"NoteNumber":70,"Velocity":33,"Duration":219713,"SoundDuration":219713,"Delta":277167557},{"NoteNumber":62,"Velocity":39,"Duration":218061,"SoundDuration":218061,"Delta":277387271},{"NoteNumber":67,"Velocity":34,"Duration":215796,"SoundDuration":215796,"Delta":277605333},{"NoteNumber":70,"Velocity":34,"Duration":214068,"SoundDuration":214068,"Delta":277821129},{"NoteNumber":62,"Velocity":40,"Duration":216325,"SoundDuration":216325,"Delta":278035198},{"NoteNumber":86,"Velocity":54,"Duration":219292,"SoundDuration":219292,"Delta":278251524},{"NoteNumber":67,"Velocity":32,"Duration":219292,"SoundDuration":219292,"Delta":278251524},{"NoteNumber":84,"Velocity":49,"Duration":222338,"SoundDuration":222338,"Delta":278470816},{"NoteNumber":70,"Velocity":32,"Duration":222338,"SoundDuration":222338,"Delta":278470816},{"NoteNumber":82,"Velocity":53,"Duration":223015,"SoundDuration":223015,"Delta":278693155},{"NoteNumber":62,"Velocity":38,"Duration":223015,"SoundDuration":223015,"Delta":278693155},{"NoteNumber":81,"Velocity":49,"Duration":223015,"SoundDuration":223015,"Delta":278916170},{"NoteNumber":67,"Velocity":32,"Duration":223015,"SoundDuration":223015,"Delta":278916170},{"NoteNumber":79,"Velocity":49,"Duration":228102,"SoundDuration":228102,"Delta":279139186},{"NoteNumber":70,"Velocity":32,"Duration":228102,"SoundDuration":228102,"Delta":279139186},{"NoteNumber":78,"Velocity":54,"Duration":1583503,"SoundDuration":1583503,"Delta":279367288},{"NoteNumber":62,"Velocity":31,"Duration":231342,"SoundDuration":231342,"Delta":279367288},{"NoteNumber":69,"Velocity":25,"Duration":230409,"SoundDuration":230409,"Delta":279598630},{"NoteNumber":72,"Velocity":29,"Duration":227946,"SoundDuration":227946,"Delta":279829040},{"NoteNumber":62,"Velocity":32,"Duration":226019,"SoundDuration":226019,"Delta":280056986},{"NoteNumber":69,"Velocity":35,"Duration":224278,"SoundDuration":224278,"Delta":280283006},{"NoteNumber":72,"Velocity":38,"Duration":220613,"SoundDuration":220613,"Delta":280507285},{"NoteNumber":62,"Velocity":42,"Duration":222893,"SoundDuration":222893,"Delta":280727898},{"NoteNumber":79,"Velocity":54,"Duration":221385,"SoundDuration":221385,"Delta":280950791},{"NoteNumber":69,"Velocity":37,"Duration":221385,"SoundDuration":221385,"Delta":280950791},{"NoteNumber":80,"Velocity":51,"Duration":219713,"SoundDuration":219713,"Delta":281172177},{"NoteNumber":72,"Velocity":33,"Duration":219713,"SoundDuration":219713,"Delta":281172177},{"NoteNumber":81,"Velocity":54,"Duration":218061,"SoundDuration":218061,"Delta":281391891},{"NoteNumber":62,"Velocity":39,"Duration":218061,"SoundDuration":218061,"Delta":281391891},{"NoteNumber":82,"Velocity":51,"Duration":215796,"SoundDuration":215796,"Delta":281609953},{"NoteNumber":69,"Velocity":34,"Duration":215796,"SoundDuration":215796,"Delta":281609953},{"NoteNumber":84,"Velocity":49,"Duration":214068,"SoundDuration":214068,"Delta":281825749},{"NoteNumber":72,"Velocity":34,"Duration":214068,"SoundDuration":214068,"Delta":281825749},{"NoteNumber":86,"Velocity":62,"Duration":216325,"SoundDuration":216325,"Delta":282039818},{"NoteNumber":62,"Velocity":40,"Duration":216325,"SoundDuration":216325,"Delta":282039818},{"NoteNumber":87,"Velocity":65,"Duration":219292,"SoundDuration":219292,"Delta":282256144},{"NoteNumber":69,"Velocity":32,"Duration":219292,"SoundDuration":219292,"Delta":282256144},{"NoteNumber":86,"Velocity":58,"Duration":222338,"SoundDuration":222338,"Delta":282475437},{"NoteNumber":72,"Velocity":32,"Duration":222338,"SoundDuration":222338,"Delta":282475437},{"NoteNumber":84,"Velocity":61,"Duration":223015,"SoundDuration":223015,"Delta":282697776},{"NoteNumber":62,"Velocity":38,"Duration":223015,"SoundDuration":223015,"Delta":282697776},{"NoteNumber":82,"Velocity":57,"Duration":223015,"SoundDuration":223015,"Delta":282920791},{"NoteNumber":69,"Velocity":32,"Duration":223015,"SoundDuration":223015,"Delta":282920791},{"NoteNumber":81,"Velocity":54,"Duration":228102,"SoundDuration":228102,"Delta":283143806},{"NoteNumber":72,"Velocity":32,"Duration":228102,"SoundDuration":228102,"Delta":283143806},{"NoteNumber":82,"Velocity":62,"Duration":244857,"SoundDuration":244857,"Delta":283371908},{"NoteNumber":86,"Velocity":51,"Duration":215796,"SoundDuration":215796,"Delta":283616766},{"NoteNumber":78,"Velocity":45,"Duration":218150,"SoundDuration":218150,"Delta":283832562},{"NoteNumber":79,"Velocity":55,"Duration":218150,"SoundDuration":218150,"Delta":284050713},{"NoteNumber":82,"Velocity":51,"Duration":218150,"SoundDuration":218150,"Delta":284268863},{"NoteNumber":74,"Velocity":47,"Duration":233426,"SoundDuration":233426,"Delta":284487013},{"NoteNumber":82,"Velocity":62,"Duration":220555,"SoundDuration":220555,"Delta":284720440},{"NoteNumber":86,"Velocity":51,"Duration":213492,"SoundDuration":213492,"Delta":284940995},{"NoteNumber":78,"Velocity":45,"Duration":213492,"SoundDuration":213492,"Delta":285154488},{"NoteNumber":79,"Velocity":55,"Duration":213492,"SoundDuration":213492,"Delta":285367981},{"NoteNumber":82,"Velocity":51,"Duration":213492,"SoundDuration":213492,"Delta":285581473},{"NoteNumber":74,"Velocity":47,"Duration":218150,"SoundDuration":218150,"Delta":285794966},{"NoteNumber":75,"Velocity":54,"Duration":233426,"SoundDuration":233426,"Delta":286013116},{"NoteNumber":78,"Velocity":47,"Duration":213492,"SoundDuration":213492,"Delta":286246543},{"NoteNumber":79,"Velocity":47,"Duration":213492,"SoundDuration":213492,"Delta":286460036},{"NoteNumber":74,"Velocity":53,"Duration":223015,"SoundDuration":223015,"Delta":286673528},{"NoteNumber":78,"Velocity":48,"Duration":223015,"SoundDuration":223015,"Delta":286896543},{"NoteNumber":79,"Velocity":48,"Duration":239005,"SoundDuration":239005,"Delta":287119559},{"NoteNumber":73,"Velocity":62,"Duration":772399,"SoundDuration":772399,"Delta":287358564},{"NoteNumber":55,"Velocity":41,"Duration":213492,"SoundDuration":213492,"Delta":288130964},{"NoteNumber":58,"Velocity":37,"Duration":213492,"SoundDuration":213492,"Delta":288344456},{"NoteNumber":61,"Velocity":37,"Duration":213492,"SoundDuration":213492,"Delta":288557949},{"NoteNumber":64,"Velocity":43,"Duration":211237,"SoundDuration":211237,"Delta":288771442},{"NoteNumber":67,"Velocity":46,"Duration":211237,"SoundDuration":211237,"Delta":288982680},{"NoteNumber":70,"Velocity":46,"Duration":211237,"SoundDuration":211237,"Delta":289193917},{"NoteNumber":73,"Velocity":54,"Duration":211237,"SoundDuration":211237,"Delta":289405155},{"NoteNumber":76,"Velocity":47,"Duration":211237,"SoundDuration":211237,"Delta":289616393},{"NoteNumber":79,"Velocity":47,"Duration":220555,"SoundDuration":220555,"Delta":289827631},{"NoteNumber":82,"Velocity":53,"Duration":215926,"SoundDuration":215926,"Delta":290048187},{"NoteNumber":79,"Velocity":48,"Duration":224098,"SoundDuration":224098,"Delta":290264113},{"NoteNumber":85,"Velocity":54,"Duration":230952,"SoundDuration":230952,"Delta":290488211},{"NoteNumber":86,"Velocity":57,"Duration":715819,"SoundDuration":715819,"Delta":290719164},{"NoteNumber":53,"Velocity":30,"Duration":715819,"SoundDuration":715819,"Delta":290719164},{"NoteNumber":55,"Velocity":34,"Duration":1403251,"SoundDuration":1403251,"Delta":291434983},{"NoteNumber":43,"Velocity":34,"Duration":1403251,"SoundDuration":1403251,"Delta":291434983},{"NoteNumber":64,"Velocity":34,"Duration":225088,"SoundDuration":225088,"Delta":291669651},{"NoteNumber":67,"Velocity":34,"Duration":219058,"SoundDuration":219058,"Delta":291894739},{"NoteNumber":70,"Velocity":38,"Duration":223654,"SoundDuration":223654,"Delta":292113798},{"NoteNumber":67,"Velocity":29,"Duration":229263,"SoundDuration":229263,"Delta":292337452},{"NoteNumber":64,"Velocity":29,"Duration":271517,"SoundDuration":271517,"Delta":292566716},{"NoteNumber":62,"Velocity":34,"Duration":1890291,"SoundDuration":1890291,"Delta":292838234},{"NoteNumber":53,"Velocity":25,"Duration":1374118,"SoundDuration":1374118,"Delta":292838234},{"NoteNumber":45,"Velocity":20,"Duration":2850648,"SoundDuration":2850648,"Delta":292838234},{"NoteNumber":55,"Velocity":22,"Duration":1476530,"SoundDuration":1476530,"Delta":294212352},{"NoteNumber":65,"Velocity":29,"Duration":172057,"SoundDuration":172057,"Delta":294728525},{"NoteNumber":64,"Velocity":35,"Duration":788299,"SoundDuration":788299,"Delta":294900583},{"NoteNumber":61,"Velocity":30,"Duration":788299,"SoundDuration":788299,"Delta":294900583},{"NoteNumber":62,"Velocity":36,"Duration":1419430,"SoundDuration":1419430,"Delta":295688883},{"NoteNumber":46,"Velocity":38,"Duration":264270,"SoundDuration":264270,"Delta":295688883},{"NoteNumber":50,"Velocity":33,"Duration":225530,"SoundDuration":225530,"Delta":295953153},{"NoteNumber":56,"Velocity":33,"Duration":218150,"SoundDuration":218150,"Delta":296178683},{"NoteNumber":46,"Velocity":38,"Duration":218150,"SoundDuration":218150,"Delta":296396834},{"NoteNumber":50,"Velocity":35,"Duration":218150,"SoundDuration":218150,"Delta":296614984},{"NoteNumber":56,"Velocity":33,"Duration":275178,"SoundDuration":275178,"Delta":296833134},{"NoteNumber":46,"Velocity":38,"Duration":676589,"SoundDuration":676589,"Delta":297108313},{"NoteNumber":86,"Velocity":38,"Duration":676590,"SoundDuration":676590,"Delta":297784903},{"NoteNumber":89,"Velocity":38,"Duration":676590,"SoundDuration":676590,"Delta":297784903},{"NoteNumber":89,"Velocity":38,"Duration":676589,"SoundDuration":676589,"Delta":298461493},{"NoteNumber":86,"Velocity":38,"Duration":676589,"SoundDuration":676589,"Delta":298461493},{"NoteNumber":86,"Velocity":38,"Duration":714455,"SoundDuration":714455,"Delta":299138083},{"NoteNumber":89,"Velocity":38,"Duration":714455,"SoundDuration":714455,"Delta":299138083},{"NoteNumber":45,"Velocity":38,"Duration":264270,"SoundDuration":264270,"Delta":299852539},{"NoteNumber":50,"Velocity":33,"Duration":225530,"SoundDuration":225530,"Delta":300116809},{"NoteNumber":53,"Velocity":33,"Duration":218150,"SoundDuration":218150,"Delta":300350520},{"NoteNumber":45,"Velocity":38,"Duration":218150,"SoundDuration":218150,"Delta":300560490},{"NoteNumber":50,"Velocity":35,"Duration":218150,"SoundDuration":218150,"Delta":300778640},{"NoteNumber":53,"Velocity":33,"Duration":275178,"SoundDuration":275178,"Delta":300996790},{"NoteNumber":45,"Velocity":38,"Duration":676589,"SoundDuration":676589,"Delta":301271969},{"NoteNumber":86,"Velocity":38,"Duration":676590,"SoundDuration":676590,"Delta":301948559},{"NoteNumber":89,"Velocity":38,"Duration":676590,"SoundDuration":676590,"Delta":301948559},{"NoteNumber":89,"Velocity":38,"Duration":676589,"SoundDuration":676589,"Delta":302625149},{"NoteNumber":86,"Velocity":38,"Duration":676589,"SoundDuration":676589,"Delta":302625149},{"NoteNumber":86,"Velocity":38,"Duration":714455,"SoundDuration":714455,"Delta":303301739},{"NoteNumber":89,"Velocity":38,"Duration":714455,"SoundDuration":714455,"Delta":303301739},{"NoteNumber":44,"Velocity":38,"Duration":264270,"SoundDuration":264270,"Delta":304016195},{"NoteNumber":50,"Velocity":33,"Duration":225530,"SoundDuration":225530,"Delta":304280465},{"NoteNumber":53,"Velocity":33,"Duration":218150,"SoundDuration":218150,"Delta":304514176},{"NoteNumber":44,"Velocity":38,"Duration":218150,"SoundDuration":218150,"Delta":304724146},{"NoteNumber":50,"Velocity":35,"Duration":218150,"SoundDuration":218150,"Delta":304942296},{"NoteNumber":53,"Velocity":33,"Duration":275178,"SoundDuration":275178,"Delta":305160446},{"NoteNumber":44,"Velocity":38,"Duration":676589,"SoundDuration":676589,"Delta":305435625},{"NoteNumber":62,"Velocity":27,"Duration":708550,"SoundDuration":708550,"Delta":306112215},{"NoteNumber":65,"Velocity":32,"Duration":708550,"SoundDuration":708550,"Delta":306112215},{"NoteNumber":65,"Velocity":32,"Duration":708550,"SoundDuration":708550,"Delta":306820765},{"NoteNumber":62,"Velocity":27,"Duration":708550,"SoundDuration":708550,"Delta":306820765},{"NoteNumber":56,"Velocity":27,"Duration":779071,"SoundDuration":779071,"Delta":307529315},{"NoteNumber":62,"Velocity":32,"Duration":779071,"SoundDuration":779071,"Delta":307529315},{"NoteNumber":57,"Velocity":33,"Duration":236183,"SoundDuration":236183,"Delta":308308386},{"NoteNumber":61,"Velocity":33,"Duration":236183,"SoundDuration":236183,"Delta":308544569},{"NoteNumber":64,"Velocity":38,"Duration":236183,"SoundDuration":236183,"Delta":308780753},{"NoteNumber":69,"Velocity":32,"Duration":228102,"SoundDuration":228102,"Delta":309016936},{"NoteNumber":64,"Velocity":33,"Duration":228102,"SoundDuration":228102,"Delta":309245038},{"NoteNumber":61,"Velocity":38,"Duration":228102,"SoundDuration":228102,"Delta":309473140},{"NoteNumber":57,"Velocity":34,"Duration":220555,"SoundDuration":220555,"Delta":309701243},{"NoteNumber":52,"Velocity":31,"Duration":220555,"SoundDuration":220555,"Delta":309921798},{"NoteNumber":49,"Velocity":31,"Duration":220555,"SoundDuration":220555,"Delta":310142354},{"NoteNumber":45,"Velocity":34,"Duration":220555,"SoundDuration":220555,"Delta":310362910},{"NoteNumber":40,"Velocity":30,"Duration":220555,"SoundDuration":220555,"Delta":310583466},{"NoteNumber":37,"Velocity":29,"Duration":223095,"SoundDuration":223095,"Delta":310804022},{"NoteNumber":33,"Velocity":31,"Duration":242044,"SoundDuration":242044,"Delta":311027117},{"NoteNumber":37,"Velocity":28,"Duration":255170,"SoundDuration":255170,"Delta":311269162},{"NoteNumber":40,"Velocity":28,"Duration":269095,"SoundDuration":269095,"Delta":311524332},{"NoteNumber":45,"Velocity":28,"Duration":286352,"SoundDuration":286352,"Delta":311793428},{"NoteNumber":49,"Velocity":27,"Duration":312491,"SoundDuration":312491,"Delta":312079780},{"NoteNumber":52,"Velocity":27,"Duration":417843,"SoundDuration":417843,"Delta":312392271},{"NoteNumber":45,"Velocity":27,"Duration":1373626,"SoundDuration":1373626,"Delta":312810114},{"NoteNumber":57,"Velocity":26,"Duration":2747253,"SoundDuration":2747253,"Delta":315557367}],"license":{"name":"Creative Commons Attribution-ShareAlike 3.0 Germany","url":"http://creativecommons.org/licenses/by-sa/3.0/de/deed.en","text":"The MIDI, audio (MP3, OGG) and video files of Bernd Krueger are licensed under the cc-by-sa Germany License. This means that you can use and adapt the files, as long as you attribute the copyright holder.\n\nName: Bernd Krueger\nSource: http://www.piano-midi.de\n\nThe distribution or public playback of the files is only allowed under identical license conditions.\n\nThe scores are open source.","attribution":"MIDI files by Bernd Krueger (piano-midi.de)","attributionUrl":"http://www.piano-midi.de"}}