{"title":"Klaviersonate Hoboken XVI: 33 3. Satz","artist":"Haydn","durationMs":235791,"midiSha256":"c446e04593641fe4a54cf6f0c9d9c8a22cdfbfc51c0e5ccdcb3f49357ed238d8","midiObject":[{"NoteNumber":69,"Velocity":50,"Duration":381776,"SoundDuration":381776,"Delta":0},{"NoteNumber":66,"Velocity":45,"Duration":127258,"SoundDuration":127258,"Delta":381776},{"NoteNumber":74,"Velocity":50,"Duration":123011,"SoundDuration":123011,"Delta":509035},{"NoteNumber":62,"Velocity":46,"Duration":123011,"SoundDuration":123011,"Delta":509035},{"NoteNumber":74,"Velocity":47,"Duration":123011,"SoundDuration":123011,"Delta":1001080},{"NoteNumber":66,"Velocity":41,"Duration":123011,"SoundDuration":123011,"Delta":1001080},{"NoteNumber":74,"Velocity":47,"Duration":246022,"SoundDuration":246022,"Delta":1493125},{"NoteNumber":62,"Velocity":41,"Duration":246022,"SoundDuration":246022,"Delta":1493125},{"NoteNumber":73,"Velocity":47,"Duration":61505,"SoundDuration":61505,"Delta":1739147},{"NoteNumber":74,"Velocity":47,"Duration":61505,"SoundDuration":61505,"Delta":1800653},{"NoteNumber":76,"Velocity":47,"Duration":61505,"SoundDuration":61505,"Delta":1862158},{"NoteNumber":74,"Velocity":47,"Duration":61505,"SoundDuration":61505,"Delta":1923664},{"NoteNumber":73,"Velocity":51,"Duration":361092,"SoundDuration":361092,"Delta":1985170},{"NoteNumber":69,"Velocity":47,"Duration":478499,"SoundDuration":478499,"Delta":1985170},{"NoteNumber":76,"Velocity":52,"Duration":117407,"SoundDuration":117407,"Delta":2346262},{"NoteNumber":79,"Velocity":56,"Duration":838215,"SoundDuration":838215,"Delta":2463670},{"NoteNumber":57,"Velocity":38,"Duration":473222,"SoundDuration":473222,"Delta":2463670},{"NoteNumber":61,"Velocity":38,"Duration":486656,"SoundDuration":486656,"Delta":2936893},{"NoteNumber":76,"Velocity":51,"Duration":121664,"SoundDuration":121664,"Delta":3301885},{"NoteNumber":78,"Velocity":58,"Duration":357114,"SoundDuration":357114,"Delta":3423550},{"NoteNumber":62,"Velocity":45,"Duration":481906,"SoundDuration":481906,"Delta":3423550},{"NoteNumber":74,"Velocity":53,"Duration":124792,"SoundDuration":124792,"Delta":3780664},{"NoteNumber":81,"Velocity":58,"Duration":353829,"SoundDuration":353829,"Delta":3905456},{"NoteNumber":66,"Velocity":47,"Duration":478021,"SoundDuration":478021,"Delta":3905456},{"NoteNumber":78,"Velocity":54,"Duration":124192,"SoundDuration":124192,"Delta":4259285},{"NoteNumber":83,"Velocity":59,"Duration":360432,"SoundDuration":360432,"Delta":4383478},{"NoteNumber":67,"Velocity":48,"Duration":487068,"SoundDuration":487068,"Delta":4383478},{"NoteNumber":79,"Velocity":48,"Duration":126635,"SoundDuration":126635,"Delta":4743911},{"NoteNumber":78,"Velocity":51,"Duration":496770,"SoundDuration":496770,"Delta":4870547},{"NoteNumber":69,"Velocity":39,"Duration":496770,"SoundDuration":496770,"Delta":4870547},{"NoteNumber":76,"Velocity":39,"Duration":372578,"SoundDuration":372578,"Delta":5367318},{"NoteNumber":57,"Velocity":30,"Duration":372578,"SoundDuration":372578,"Delta":5367318},{"NoteNumber":69,"Velocity":50,"Duration":381776,"SoundDuration":381776,"Delta":5864089},{"NoteNumber":66,"Velocity":45,"Duration":127258,"SoundDuration":127258,"Delta":6245865},{"NoteNumber":74,"Velocity":50,"Duration":123011,"SoundDuration":123011,"Delta":6373124},{"NoteNumber":62,"Velocity":46,"Duration":123011,"SoundDuration":123011,"Delta":6373124},{"NoteNumber":74,"Velocity":47,"Duration":123011,"SoundDuration":123011,"Delta":6865169},{"NoteNumber":66,"Velocity":41,"Duration":123011,"SoundDuration":123011,"Delta":6865169},{"NoteNumber":74,"Velocity":47,"Duration":246022,"SoundDuration":246022,"Delta":7357214},{"NoteNumber":62,"Velocity":41,"Duration":246022,"SoundDuration":246022,"Delta":7357214},{"NoteNumber":73,"Velocity":47,"Duration":61505,"SoundDuration":61505,"Delta":7603236},{"NoteNumber":74,"Velocity":47,"Duration":61505,"SoundDuration":61505,"Delta":7664742},{"NoteNumber":76,"Velocity":47,"Duration":61505,"SoundDuration":61505,"Delta":7726247},{"NoteNumber":74,"Velocity":47,"Duration":61505,"SoundDuration":61505,"Delta":7787753},{"NoteNumber":73,"Velocity":58,"Duration":357114,"SoundDuration":357114,"Delta":7849259},{"NoteNumber":69,"Velocity":47,"Duration":481906,"SoundDuration":481906,"Delta":7849259},{"NoteNumber":76,"Velocity":53,"Duration":124791,"SoundDuration":124791,"Delta":8206373},{"NoteNumber":79,"Velocity":58,"Duration":353828,"SoundDuration":353828,"Delta":8331165},{"NoteNumber":61,"Velocity":38,"Duration":478021,"SoundDuration":478021,"Delta":8331165},{"NoteNumber":76,"Velocity":54,"Duration":124192,"SoundDuration":124192,"Delta":8684994},{"NoteNumber":78,"Velocity":59,"Duration":360432,"SoundDuration":360432,"Delta":8809187},{"NoteNumber":62,"Velocity":39,"Duration":487068,"SoundDuration":487068,"Delta":8809187},{"NoteNumber":74,"Velocity":48,"Duration":126635,"SoundDuration":126635,"Delta":9169620},{"NoteNumber":71,"Velocity":58,"Duration":123011,"SoundDuration":123011,"Delta":9296255},{"NoteNumber":55,"Velocity":39,"Duration":997137,"SoundDuration":997137,"Delta":9296255},{"NoteNumber":67,"Velocity":47,"Duration":997137,"SoundDuration":997137,"Delta":9296255},{"NoteNumber":76,"Velocity":56,"Duration":126273,"SoundDuration":126273,"Delta":9788300},{"NoteNumber":73,"Velocity":45,"Duration":263620,"SoundDuration":263620,"Delta":10293393},{"NoteNumber":67,"Velocity":45,"Duration":527241,"SoundDuration":527241,"Delta":10293393},{"NoteNumber":64,"Velocity":40,"Duration":527241,"SoundDuration":527241,"Delta":10293393},{"NoteNumber":57,"Velocity":34,"Duration":527241,"SoundDuration":527241,"Delta":10293393},{"NoteNumber":74,"Velocity":55,"Duration":65905,"SoundDuration":65905,"Delta":10557014},{"NoteNumber":73,"Velocity":48,"Duration":65905,"SoundDuration":65905,"Delta":10622919},{"NoteNumber":71,"Velocity":48,"Duration":65905,"SoundDuration":65905,"Delta":10688824},{"NoteNumber":73,"Velocity":48,"Duration":65905,"SoundDuration":65905,"Delta":10754729},{"NoteNumber":74,"Velocity":58,"Duration":492651,"SoundDuration":492651,"Delta":10820634},{"NoteNumber":66,"Velocity":49,"Duration":492651,"SoundDuration":492651,"Delta":10820634},{"NoteNumber":62,"Velocity":46,"Duration":492651,"SoundDuration":492651,"Delta":10820634},{"NoteNumber":50,"Velocity":28,"Duration":524979,"SoundDuration":524979,"Delta":11313285},{"NoteNumber":69,"Velocity":50,"Duration":381776,"SoundDuration":381776,"Delta":11838265},{"NoteNumber":66,"Velocity":45,"Duration":127258,"SoundDuration":127258,"Delta":12220042},{"NoteNumber":74,"Velocity":50,"Duration":123011,"SoundDuration":123011,"Delta":12347300},{"NoteNumber":62,"Velocity":46,"Duration":123011,"SoundDuration":123011,"Delta":12347300},{"NoteNumber":74,"Velocity":47,"Duration":123011,"SoundDuration":123011,"Delta":12839345},{"NoteNumber":66,"Velocity":41,"Duration":123011,"SoundDuration":123011,"Delta":12839345},{"NoteNumber":74,"Velocity":47,"Duration":246022,"SoundDuration":246022,"Delta":13331390},{"NoteNumber":62,"Velocity":41,"Duration":246022,"SoundDuration":246022,"Delta":13331390},{"NoteNumber":73,"Velocity":47,"Duration":61505,"SoundDuration":61505,"Delta":13577413},{"NoteNumber":74,"Velocity":47,"Duration":61505,"SoundDuration":61505,"Delta":13638919},{"NoteNumber":76,"Velocity":47,"Duration":61505,"SoundDuration":61505,"Delta":13700424},{"NoteNumber":74,"Velocity":47,"Duration":61505,"SoundDuration":61505,"Delta":13761930},{"NoteNumber":73,"Velocity":51,"Duration":361092,"SoundDuration":361092,"Delta":13823435},{"NoteNumber":69,"Velocity":47,"Duration":478500,"SoundDuration":478500,"Delta":13823435},{"NoteNumber":76,"Velocity":52,"Duration":117407,"SoundDuration":117407,"Delta":14184528},{"NoteNumber":79,"Velocity":56,"Duration":831944,"SoundDuration":831944,"Delta":14301935},{"NoteNumber":57,"Velocity":38,"Duration":469887,"SoundDuration":469887,"Delta":14301935},{"NoteNumber":61,"Velocity":38,"Duration":482742,"SoundDuration":482742,"Delta":14771823},{"NoteNumber":76,"Velocity":51,"Duration":120685,"SoundDuration":120685,"Delta":15133880},{"NoteNumber":78,"Velocity":58,"Duration":357114,"SoundDuration":357114,"Delta":15254565},{"NoteNumber":62,"Velocity":45,"Duration":481906,"SoundDuration":481906,"Delta":15254565},{"NoteNumber":74,"Velocity":53,"Duration":124791,"SoundDuration":124791,"Delta":15611680},{"NoteNumber":81,"Velocity":58,"Duration":352416,"SoundDuration":352416,"Delta":15736472},{"NoteNumber":66,"Velocity":47,"Duration":476608,"SoundDuration":476608,"Delta":15736472},{"NoteNumber":78,"Velocity":54,"Duration":124192,"SoundDuration":124192,"Delta":16088888},{"NoteNumber":83,"Velocity":59,"Duration":360432,"SoundDuration":360432,"Delta":16213081},{"NoteNumber":67,"Velocity":48,"Duration":489531,"SoundDuration":489531,"Delta":16213081},{"NoteNumber":79,"Velocity":48,"Duration":129099,"SoundDuration":129099,"Delta":16573514},{"NoteNumber":78,"Velocity":51,"Duration":496770,"SoundDuration":496770,"Delta":16702613},{"NoteNumber":69,"Velocity":39,"Duration":496770,"SoundDuration":496770,"Delta":16702613},{"NoteNumber":76,"Velocity":39,"Duration":372578,"SoundDuration":372578,"Delta":17199384},{"NoteNumber":57,"Velocity":30,"Duration":372578,"SoundDuration":372578,"Delta":17199384},{"NoteNumber":69,"Velocity":50,"Duration":381776,"SoundDuration":381776,"Delta":17696155},{"NoteNumber":66,"Velocity":45,"Duration":127258,"SoundDuration":127258,"Delta":18077931},{"NoteNumber":74,"Velocity":50,"Duration":123011,"SoundDuration":123011,"Delta":18205190},{"NoteNumber":62,"Velocity":46,"Duration":123011,"SoundDuration":123011,"Delta":18205190},{"NoteNumber":74,"Velocity":47,"Duration":123011,"SoundDuration":123011,"Delta":18697235},{"NoteNumber":66,"Velocity":41,"Duration":123011,"SoundDuration":123011,"Delta":18697235},{"NoteNumber":74,"Velocity":47,"Duration":246022,"SoundDuration":246022,"Delta":19189280},{"NoteNumber":62,"Velocity":41,"Duration":246022,"SoundDuration":246022,"Delta":19189280},{"NoteNumber":73,"Velocity":47,"Duration":61505,"SoundDuration":61505,"Delta":19435302},{"NoteNumber":74,"Velocity":47,"Duration":61505,"SoundDuration":61505,"Delta":19496808},{"NoteNumber":76,"Velocity":47,"Duration":61505,"SoundDuration":61505,"Delta":19558314},{"NoteNumber":74,"Velocity":47,"Duration":61505,"SoundDuration":61505,"Delta":19619819},{"NoteNumber":73,"Velocity":58,"Duration":357114,"SoundDuration":357114,"Delta":19681325},{"NoteNumber":69,"Velocity":47,"Duration":481906,"SoundDuration":481906,"Delta":19681325},{"NoteNumber":76,"Velocity":53,"Duration":124791,"SoundDuration":124791,"Delta":20038440},{"NoteNumber":79,"Velocity":58,"Duration":353829,"SoundDuration":353829,"Delta":20163232},{"NoteNumber":61,"Velocity":38,"Duration":478021,"SoundDuration":478021,"Delta":20163232},{"NoteNumber":76,"Velocity":54,"Duration":124192,"SoundDuration":124192,"Delta":20517061},{"NoteNumber":78,"Velocity":59,"Duration":360432,"SoundDuration":360432,"Delta":20641253},{"NoteNumber":62,"Velocity":39,"Duration":487068,"SoundDuration":487068,"Delta":20641253},{"NoteNumber":74,"Velocity":48,"Duration":126635,"SoundDuration":126635,"Delta":21001686},{"NoteNumber":71,"Velocity":58,"Duration":121763,"SoundDuration":121763,"Delta":21128322},{"NoteNumber":55,"Velocity":39,"Duration":998605,"SoundDuration":998605,"Delta":21128322},{"NoteNumber":67,"Velocity":47,"Duration":998605,"SoundDuration":998605,"Delta":21128322},{"NoteNumber":76,"Velocity":56,"Duration":127888,"SoundDuration":127888,"Delta":21615375},{"NoteNumber":73,"Velocity":45,"Duration":263620,"SoundDuration":263620,"Delta":22126928},{"NoteNumber":67,"Velocity":45,"Duration":527241,"SoundDuration":527241,"Delta":22126928},{"NoteNumber":64,"Velocity":40,"Duration":527241,"SoundDuration":527241,"Delta":22126928},{"NoteNumber":57,"Velocity":34,"Duration":527241,"SoundDuration":527241,"Delta":22126928},{"NoteNumber":74,"Velocity":55,"Duration":65905,"SoundDuration":65905,"Delta":22390548},{"NoteNumber":73,"Velocity":48,"Duration":65905,"SoundDuration":65905,"Delta":22456453},{"NoteNumber":71,"Velocity":48,"Duration":65905,"SoundDuration":65905,"Delta":22522358},{"NoteNumber":73,"Velocity":48,"Duration":65905,"SoundDuration":65905,"Delta":22588264},{"NoteNumber":74,"Velocity":58,"Duration":500876,"SoundDuration":500876,"Delta":22654169},{"NoteNumber":66,"Velocity":49,"Duration":500876,"SoundDuration":500876,"Delta":22654169},{"NoteNumber":62,"Velocity":46,"Duration":500876,"SoundDuration":500876,"Delta":22654169},{"NoteNumber":50,"Velocity":34,"Duration":524979,"SoundDuration":524979,"Delta":23155046},{"NoteNumber":81,"Velocity":58,"Duration":394865,"SoundDuration":394865,"Delta":23680026},{"NoteNumber":78,"Velocity":53,"Duration":131810,"SoundDuration":131810,"Delta":24074891},{"NoteNumber":86,"Velocity":58,"Duration":359166,"SoundDuration":359166,"Delta":24206701},{"NoteNumber":81,"Velocity":53,"Duration":124791,"SoundDuration":124791,"Delta":24565868},{"NoteNumber":83,"Velocity":58,"Duration":359166,"SoundDuration":359166,"Delta":24690660},{"NoteNumber":74,"Velocity":38,"Duration":483359,"SoundDuration":483359,"Delta":24690660},{"NoteNumber":80,"Velocity":54,"Duration":124192,"SoundDuration":124192,"Delta":25049827},{"NoteNumber":81,"Velocity":59,"Duration":357738,"SoundDuration":357738,"Delta":25174020},{"NoteNumber":73,"Velocity":37,"Duration":484374,"SoundDuration":484374,"Delta":25174020},{"NoteNumber":76,"Velocity":48,"Duration":126635,"SoundDuration":126635,"Delta":25531758},{"NoteNumber":79,"Velocity":58,"Duration":353523,"SoundDuration":353523,"Delta":25658394},{"NoteNumber":71,"Velocity":38,"Duration":478315,"SoundDuration":478315,"Delta":25658394},{"NoteNumber":74,"Velocity":54,"Duration":124791,"SoundDuration":124791,"Delta":26011918},{"NoteNumber":78,"Velocity":59,"Duration":356322,"SoundDuration":356322,"Delta":26136710},{"NoteNumber":69,"Velocity":39,"Duration":480515,"SoundDuration":480515,"Delta":26136710},{"NoteNumber":73,"Velocity":57,"Duration":124192,"SoundDuration":124192,"Delta":26493033},{"NoteNumber":76,"Velocity":63,"Duration":359166,"SoundDuration":359166,"Delta":26617225},{"NoteNumber":67,"Velocity":40,"Duration":485802,"SoundDuration":485802,"Delta":26617225},{"NoteNumber":71,"Velocity":52,"Duration":126635,"SoundDuration":126635,"Delta":26976392},{"NoteNumber":74,"Velocity":65,"Duration":363519,"SoundDuration":363519,"Delta":27103028},{"NoteNumber":66,"Velocity":46,"Duration":491407,"SoundDuration":491407,"Delta":27103028},{"NoteNumber":69,"Velocity":61,"Duration":127888,"SoundDuration":127888,"Delta":27466547},{"NoteNumber":73,"Velocity":50,"Duration":499222,"SoundDuration":499222,"Delta":27594435},{"NoteNumber":79,"Velocity":66,"Duration":367977,"SoundDuration":367977,"Delta":27594435},{"NoteNumber":64,"Velocity":48,"Duration":499222,"SoundDuration":499222,"Delta":27594435},{"NoteNumber":76,"Velocity":58,"Duration":131244,"SoundDuration":131244,"Delta":27962413},{"NoteNumber":74,"Velocity":56,"Duration":522113,"SoundDuration":522113,"Delta":28093658},{"NoteNumber":78,"Velocity":65,"Duration":372547,"SoundDuration":372547,"Delta":28093658},{"NoteNumber":62,"Velocity":48,"Duration":522113,"SoundDuration":522113,"Delta":28093658},{"NoteNumber":81,"Velocity":57,"Duration":149566,"SoundDuration":149566,"Delta":28466205},{"NoteNumber":74,"Velocity":47,"Duration":513743,"SoundDuration":513743,"Delta":28615772},{"NoteNumber":78,"Velocity":56,"Duration":513743,"SoundDuration":513743,"Delta":28615772},{"NoteNumber":69,"Velocity":43,"Duration":513743,"SoundDuration":513743,"Delta":28615772},{"NoteNumber":73,"Velocity":42,"Duration":256871,"SoundDuration":256871,"Delta":29129515},{"NoteNumber":76,"Velocity":50,"Duration":256871,"SoundDuration":256871,"Delta":29129515},{"NoteNumber":57,"Velocity":36,"Duration":256871,"SoundDuration":256871,"Delta":29129515},{"NoteNumber":81,"Velocity":58,"Duration":394865,"SoundDuration":394865,"Delta":29643258},{"NoteNumber":78,"Velocity":53,"Duration":131810,"SoundDuration":131810,"Delta":30038123},{"NoteNumber":86,"Velocity":58,"Duration":359166,"SoundDuration":359166,"Delta":30169933},{"NoteNumber":81,"Velocity":53,"Duration":124791,"SoundDuration":124791,"Delta":30529100},{"NoteNumber":83,"Velocity":58,"Duration":357738,"SoundDuration":357738,"Delta":30653892},{"NoteNumber":74,"Velocity":38,"Duration":481931,"SoundDuration":481931,"Delta":30653892},{"NoteNumber":80,"Velocity":54,"Duration":124192,"SoundDuration":124192,"Delta":31011631},{"NoteNumber":81,"Velocity":59,"Duration":356322,"SoundDuration":356322,"Delta":31135824},{"NoteNumber":73,"Velocity":37,"Duration":482958,"SoundDuration":482958,"Delta":31135824},{"NoteNumber":76,"Velocity":48,"Duration":126635,"SoundDuration":126635,"Delta":31492146},{"NoteNumber":79,"Velocity":58,"Duration":354917,"SoundDuration":354917,"Delta":31618782},{"NoteNumber":71,"Velocity":38,"Duration":479709,"SoundDuration":479709,"Delta":31618782},{"NoteNumber":74,"Velocity":54,"Duration":124791,"SoundDuration":124791,"Delta":31973699},{"NoteNumber":78,"Velocity":60,"Duration":354917,"SoundDuration":354917,"Delta":32098491},{"NoteNumber":69,"Velocity":39,"Duration":479109,"SoundDuration":479109,"Delta":32098491},{"NoteNumber":73,"Velocity":57,"Duration":124192,"SoundDuration":124192,"Delta":32453409},{"NoteNumber":76,"Velocity":63,"Duration":360605,"SoundDuration":360605,"Delta":32577601},{"NoteNumber":67,"Velocity":41,"Duration":487241,"SoundDuration":487241,"Delta":32577601},{"NoteNumber":71,"Velocity":53,"Duration":126635,"SoundDuration":126635,"Delta":32938207},{"NoteNumber":74,"Velocity":66,"Duration":363518,"SoundDuration":363518,"Delta":33064843},{"NoteNumber":66,"Velocity":47,"Duration":491407,"SoundDuration":491407,"Delta":33064843},{"NoteNumber":69,"Velocity":54,"Duration":127888,"SoundDuration":127888,"Delta":33428362},{"NoteNumber":78,"Velocity":66,"Duration":498719,"SoundDuration":498719,"Delta":33556250},{"NoteNumber":69,"Velocity":42,"Duration":498719,"SoundDuration":498719,"Delta":33556250},{"NoteNumber":76,"Velocity":47,"Duration":63754,"SoundDuration":63754,"Delta":34054970},{"NoteNumber":57,"Velocity":38,"Duration":501911,"SoundDuration":501911,"Delta":34054970},{"NoteNumber":78,"Velocity":44,"Duration":63199,"SoundDuration":63199,"Delta":34118724},{"NoteNumber":76,"Velocity":47,"Duration":62649,"SoundDuration":62649,"Delta":34181923},{"NoteNumber":78,"Velocity":45,"Duration":62108,"SoundDuration":62108,"Delta":34244572},{"NoteNumber":76,"Velocity":47,"Duration":61577,"SoundDuration":61577,"Delta":34306681},{"NoteNumber":78,"Velocity":43,"Duration":61409,"SoundDuration":61409,"Delta":34368258},{"NoteNumber":76,"Velocity":43,"Duration":42316,"SoundDuration":42316,"Delta":34429668},{"NoteNumber":74,"Velocity":43,"Duration":42448,"SoundDuration":42448,"Delta":34471984},{"NoteNumber":76,"Velocity":43,"Duration":42466,"SoundDuration":42466,"Delta":34515494},{"NoteNumber":74,"Velocity":66,"Duration":518179,"SoundDuration":518179,"Delta":34556881},{"NoteNumber":62,"Velocity":47,"Duration":518179,"SoundDuration":518179,"Delta":34556881},{"NoteNumber":50,"Velocity":31,"Duration":395465,"SoundDuration":395465,"Delta":35075060},{"NoteNumber":81,"Velocity":58,"Duration":394865,"SoundDuration":394865,"Delta":35602347},{"NoteNumber":78,"Velocity":53,"Duration":131810,"SoundDuration":131810,"Delta":35997212},{"NoteNumber":86,"Velocity":58,"Duration":359166,"SoundDuration":359166,"Delta":36129023},{"NoteNumber":81,"Velocity":53,"Duration":124791,"SoundDuration":124791,"Delta":36488189},{"NoteNumber":83,"Velocity":58,"Duration":353801,"SoundDuration":353801,"Delta":36612981},{"NoteNumber":74,"Velocity":38,"Duration":477993,"SoundDuration":477993,"Delta":36612981},{"NoteNumber":80,"Velocity":54,"Duration":124192,"SoundDuration":124192,"Delta":36966783},{"NoteNumber":81,"Velocity":59,"Duration":352415,"SoundDuration":352415,"Delta":37090975},{"NoteNumber":73,"Velocity":37,"Duration":479051,"SoundDuration":479051,"Delta":37090975},{"NoteNumber":76,"Velocity":48,"Duration":126635,"SoundDuration":126635,"Delta":37443391},{"NoteNumber":79,"Velocity":58,"Duration":353523,"SoundDuration":353523,"Delta":37570027},{"NoteNumber":71,"Velocity":38,"Duration":478315,"SoundDuration":478315,"Delta":37570027},{"NoteNumber":74,"Velocity":54,"Duration":124791,"SoundDuration":124791,"Delta":37923551},{"NoteNumber":78,"Velocity":59,"Duration":356322,"SoundDuration":356322,"Delta":38048343},{"NoteNumber":69,"Velocity":39,"Duration":480515,"SoundDuration":480515,"Delta":38048343},{"NoteNumber":73,"Velocity":57,"Duration":124192,"SoundDuration":124192,"Delta":38404666},{"NoteNumber":76,"Velocity":63,"Duration":359166,"SoundDuration":359166,"Delta":38528858},{"NoteNumber":67,"Velocity":40,"Duration":485802,"SoundDuration":485802,"Delta":38528858},{"NoteNumber":71,"Velocity":52,"Duration":126635,"SoundDuration":126635,"Delta":38888025},{"NoteNumber":74,"Velocity":65,"Duration":363518,"SoundDuration":363518,"Delta":39014661},{"NoteNumber":66,"Velocity":46,"Duration":491407,"SoundDuration":491407,"Delta":39014661},{"NoteNumber":69,"Velocity":61,"Duration":127888,"SoundDuration":127888,"Delta":39378180},{"NoteNumber":73,"Velocity":50,"Duration":499222,"SoundDuration":499222,"Delta":39506068},{"NoteNumber":79,"Velocity":66,"Duration":367977,"SoundDuration":367977,"Delta":39506068},{"NoteNumber":64,"Velocity":48,"Duration":499222,"SoundDuration":499222,"Delta":39506068},{"NoteNumber":76,"Velocity":58,"Duration":131244,"SoundDuration":131244,"Delta":39874046},{"NoteNumber":74,"Velocity":56,"Duration":522113,"SoundDuration":522113,"Delta":40005291},{"NoteNumber":78,"Velocity":65,"Duration":372547,"SoundDuration":372547,"Delta":40005291},{"NoteNumber":62,"Velocity":48,"Duration":522113,"SoundDuration":522113,"Delta":40005291},{"NoteNumber":81,"Velocity":57,"Duration":149566,"SoundDuration":149566,"Delta":40377838},{"NoteNumber":74,"Velocity":47,"Duration":513742,"SoundDuration":513742,"Delta":40527405},{"NoteNumber":78,"Velocity":56,"Duration":513742,"SoundDuration":513742,"Delta":40527405},{"NoteNumber":69,"Velocity":43,"Duration":513742,"SoundDuration":513742,"Delta":40527405},{"NoteNumber":73,"Velocity":42,"Duration":256871,"SoundDuration":256871,"Delta":41041148},{"NoteNumber":76,"Velocity":50,"Duration":256871,"SoundDuration":256871,"Delta":41041148},{"NoteNumber":57,"Velocity":36,"Duration":256871,"SoundDuration":256871,"Delta":41041148},{"NoteNumber":81,"Velocity":58,"Duration":394865,"SoundDuration":394865,"Delta":41554891},{"NoteNumber":78,"Velocity":53,"Duration":131810,"SoundDuration":131810,"Delta":41949756},{"NoteNumber":86,"Velocity":58,"Duration":359166,"SoundDuration":359166,"Delta":42081566},{"NoteNumber":81,"Velocity":53,"Duration":124791,"SoundDuration":124791,"Delta":42440733},{"NoteNumber":83,"Velocity":58,"Duration":355197,"SoundDuration":355197,"Delta":42565525},{"NoteNumber":74,"Velocity":38,"Duration":479390,"SoundDuration":479390,"Delta":42565525},{"NoteNumber":80,"Velocity":54,"Duration":124192,"SoundDuration":124192,"Delta":42920723},{"NoteNumber":81,"Velocity":59,"Duration":353801,"SoundDuration":353801,"Delta":43044916},{"NoteNumber":73,"Velocity":37,"Duration":480436,"SoundDuration":480436,"Delta":43044916},{"NoteNumber":76,"Velocity":48,"Duration":126635,"SoundDuration":126635,"Delta":43398717},{"NoteNumber":79,"Velocity":58,"Duration":354917,"SoundDuration":354917,"Delta":43525353},{"NoteNumber":71,"Velocity":38,"Duration":479709,"SoundDuration":479709,"Delta":43525353},{"NoteNumber":74,"Velocity":54,"Duration":124791,"SoundDuration":124791,"Delta":43880270},{"NoteNumber":78,"Velocity":60,"Duration":354917,"SoundDuration":354917,"Delta":44005062},{"NoteNumber":69,"Velocity":39,"Duration":479109,"SoundDuration":479109,"Delta":44005062},{"NoteNumber":73,"Velocity":57,"Duration":124192,"SoundDuration":124192,"Delta":44359979},{"NoteNumber":76,"Velocity":63,"Duration":360605,"SoundDuration":360605,"Delta":44484172},{"NoteNumber":67,"Velocity":41,"Duration":487241,"SoundDuration":487241,"Delta":44484172},{"NoteNumber":71,"Velocity":53,"Duration":126635,"SoundDuration":126635,"Delta":44844778},{"NoteNumber":74,"Velocity":66,"Duration":363518,"SoundDuration":363518,"Delta":44971414},{"NoteNumber":66,"Velocity":47,"Duration":491407,"SoundDuration":491407,"Delta":44971414},{"NoteNumber":69,"Velocity":54,"Duration":127888,"SoundDuration":127888,"Delta":45334933},{"NoteNumber":78,"Velocity":66,"Duration":498719,"SoundDuration":498719,"Delta":45462821},{"NoteNumber":69,"Velocity":42,"Duration":498719,"SoundDuration":498719,"Delta":45462821},{"NoteNumber":76,"Velocity":47,"Duration":63754,"SoundDuration":63754,"Delta":45961540},{"NoteNumber":57,"Velocity":38,"Duration":501911,"SoundDuration":501911,"Delta":45961540},{"NoteNumber":78,"Velocity":44,"Duration":63199,"SoundDuration":63199,"Delta":46025294},{"NoteNumber":76,"Velocity":47,"Duration":62649,"SoundDuration":62649,"Delta":46088493},{"NoteNumber":78,"Velocity":45,"Duration":62108,"SoundDuration":62108,"Delta":46151142},{"NoteNumber":76,"Velocity":47,"Duration":61577,"SoundDuration":61577,"Delta":46213251},{"NoteNumber":78,"Velocity":43,"Duration":61409,"SoundDuration":61409,"Delta":46274829},{"NoteNumber":76,"Velocity":43,"Duration":42316,"SoundDuration":42316,"Delta":46336238},{"NoteNumber":74,"Velocity":43,"Duration":42448,"SoundDuration":42448,"Delta":46378554},{"NoteNumber":76,"Velocity":43,"Duration":42466,"SoundDuration":42466,"Delta":46422064},{"NoteNumber":74,"Velocity":66,"Duration":518179,"SoundDuration":518179,"Delta":46463451},{"NoteNumber":62,"Velocity":47,"Duration":518179,"SoundDuration":518179,"Delta":46463451},{"NoteNumber":50,"Velocity":31,"Duration":395465,"SoundDuration":395465,"Delta":46981630},{"NoteNumber":67,"Velocity":58,"Duration":118305,"SoundDuration":118305,"Delta":47508917},{"NoteNumber":65,"Velocity":58,"Duration":118305,"SoundDuration":118305,"Delta":47627223},{"NoteNumber":64,"Velocity":61,"Duration":118305,"SoundDuration":118305,"Delta":47745529},{"NoteNumber":62,"Velocity":65,"Duration":129544,"SoundDuration":129544,"Delta":47863834},{"NoteNumber":74,"Velocity":76,"Duration":838055,"SoundDuration":838055,"Delta":47993379},{"NoteNumber":53,"Velocity":47,"Duration":483359,"SoundDuration":483359,"Delta":48472268},{"NoteNumber":69,"Velocity":59,"Duration":124192,"SoundDuration":124192,"Delta":48831435},{"NoteNumber":77,"Velocity":65,"Duration":357738,"SoundDuration":357738,"Delta":48955628},{"NoteNumber":50,"Velocity":40,"Duration":484374,"SoundDuration":484374,"Delta":48955628},{"NoteNumber":69,"Velocity":56,"Duration":116082,"SoundDuration":116082,"Delta":49313366},{"NoteNumber":69,"Velocity":63,"Duration":353523,"SoundDuration":353523,"Delta":49440002},{"NoteNumber":52,"Velocity":48,"Duration":953412,"SoundDuration":953412,"Delta":49440002},{"NoteNumber":68,"Velocity":54,"Duration":124791,"SoundDuration":124791,"Delta":49793526},{"NoteNumber":67,"Velocity":64,"Duration":834263,"SoundDuration":834263,"Delta":49918318},{"NoteNumber":49,"Velocity":40,"Duration":485802,"SoundDuration":485802,"Delta":50393415},{"NoteNumber":64,"Velocity":56,"Duration":126635,"SoundDuration":126635,"Delta":50752582},{"NoteNumber":65,"Velocity":65,"Duration":363518,"SoundDuration":363518,"Delta":50879217},{"NoteNumber":50,"Velocity":46,"Duration":491407,"SoundDuration":491407,"Delta":50879217},{"NoteNumber":62,"Velocity":61,"Duration":127888,"SoundDuration":127888,"Delta":51242736},{"NoteNumber":69,"Velocity":66,"Duration":367977,"SoundDuration":367977,"Delta":51370625},{"NoteNumber":41,"Velocity":48,"Duration":499222,"SoundDuration":499222,"Delta":51370625},{"NoteNumber":65,"Velocity":58,"Duration":131244,"SoundDuration":131244,"Delta":51738602},{"NoteNumber":70,"Velocity":65,"Duration":372547,"SoundDuration":372547,"Delta":51869847},{"NoteNumber":43,"Velocity":41,"Duration":522113,"SoundDuration":522113,"Delta":51869847},{"NoteNumber":62,"Velocity":49,"Duration":137102,"SoundDuration":137102,"Delta":52242395},{"NoteNumber":62,"Velocity":50,"Duration":513742,"SoundDuration":513742,"Delta":52391961},{"NoteNumber":45,"Velocity":43,"Duration":513742,"SoundDuration":513742,"Delta":52391961},{"NoteNumber":61,"Velocity":45,"Duration":256871,"SoundDuration":256871,"Delta":52905704},{"NoteNumber":33,"Velocity":36,"Duration":256871,"SoundDuration":256871,"Delta":52905704},{"NoteNumber":70,"Velocity":58,"Duration":117841,"SoundDuration":117841,"Delta":53419447},{"NoteNumber":69,"Velocity":58,"Duration":117841,"SoundDuration":117841,"Delta":53537288},{"NoteNumber":67,"Velocity":61,"Duration":117841,"SoundDuration":117841,"Delta":53655130},{"NoteNumber":65,"Velocity":65,"Duration":129544,"SoundDuration":129544,"Delta":53772971},{"NoteNumber":72,"Velocity":76,"Duration":359166,"SoundDuration":359166,"Delta":53902516},{"NoteNumber":53,"Velocity":39,"Duration":962248,"SoundDuration":962248,"Delta":53902516},{"NoteNumber":57,"Velocity":39,"Duration":962248,"SoundDuration":962248,"Delta":53902516},{"NoteNumber":60,"Velocity":47,"Duration":962248,"SoundDuration":962248,"Delta":53902516},{"NoteNumber":69,"Velocity":63,"Duration":119722,"SoundDuration":119722,"Delta":54261682},{"NoteNumber":77,"Velocity":73,"Duration":359166,"SoundDuration":359166,"Delta":54381405},{"NoteNumber":72,"Velocity":64,"Duration":124192,"SoundDuration":124192,"Delta":54740571},{"NoteNumber":81,"Velocity":74,"Duration":357738,"SoundDuration":357738,"Delta":54864764},{"NoteNumber":63,"Velocity":34,"Duration":484374,"SoundDuration":484374,"Delta":54864764},{"NoteNumber":65,"Velocity":40,"Duration":484374,"SoundDuration":484374,"Delta":54864764},{"NoteNumber":77,"Velocity":68,"Duration":116082,"SoundDuration":116082,"Delta":55222503},{"NoteNumber":82,"Velocity":80,"Duration":353523,"SoundDuration":353523,"Delta":55349139},{"NoteNumber":65,"Velocity":53,"Duration":953412,"SoundDuration":953412,"Delta":55349139},{"NoteNumber":62,"Velocity":45,"Duration":478315,"SoundDuration":478315,"Delta":55349139},{"NoteNumber":77,"Velocity":70,"Duration":124791,"SoundDuration":124791,"Delta":55702662},{"NoteNumber":86,"Velocity":82,"Duration":356322,"SoundDuration":356322,"Delta":55827454},{"NoteNumber":58,"Velocity":43,"Duration":475096,"SoundDuration":475096,"Delta":55827454},{"NoteNumber":77,"Velocity":68,"Duration":118774,"SoundDuration":118774,"Delta":56183777},{"NoteNumber":88,"Velocity":81,"Duration":359166,"SoundDuration":359166,"Delta":56302551},{"NoteNumber":58,"Velocity":54,"Duration":485802,"SoundDuration":485802,"Delta":56302551},{"NoteNumber":55,"Velocity":45,"Duration":485802,"SoundDuration":485802,"Delta":56302551},{"NoteNumber":79,"Velocity":68,"Duration":126635,"SoundDuration":126635,"Delta":56661718},{"NoteNumber":89,"Velocity":80,"Duration":363518,"SoundDuration":363518,"Delta":56788354},{"NoteNumber":57,"Velocity":51,"Duration":491407,"SoundDuration":491407,"Delta":56788354},{"NoteNumber":60,"Velocity":61,"Duration":491407,"SoundDuration":491407,"Delta":56788354},{"NoteNumber":77,"Velocity":61,"Duration":127888,"SoundDuration":127888,"Delta":57151873},{"NoteNumber":81,"Velocity":66,"Duration":498719,"SoundDuration":498719,"Delta":57279761},{"NoteNumber":60,"Velocity":42,"Duration":498719,"SoundDuration":498719,"Delta":57279761},{"NoteNumber":79,"Velocity":47,"Duration":63754,"SoundDuration":63754,"Delta":57778480},{"NoteNumber":48,"Velocity":38,"Duration":501911,"SoundDuration":501911,"Delta":57778480},{"NoteNumber":81,"Velocity":44,"Duration":63199,"SoundDuration":63199,"Delta":57842234},{"NoteNumber":79,"Velocity":47,"Duration":62649,"SoundDuration":62649,"Delta":57905433},{"NoteNumber":81,"Velocity":45,"Duration":62108,"SoundDuration":62108,"Delta":57968083},{"NoteNumber":79,"Velocity":47,"Duration":61577,"SoundDuration":61577,"Delta":58030191},{"NoteNumber":81,"Velocity":43,"Duration":61409,"SoundDuration":61409,"Delta":58091769},{"NoteNumber":79,"Velocity":43,"Duration":42316,"SoundDuration":42316,"Delta":58153178},{"NoteNumber":77,"Velocity":43,"Duration":42448,"SoundDuration":42448,"Delta":58195494},{"NoteNumber":79,"Velocity":43,"Duration":42466,"SoundDuration":42466,"Delta":58239004},{"NoteNumber":77,"Velocity":66,"Duration":913644,"SoundDuration":913644,"Delta":58280391},{"NoteNumber":53,"Velocity":47,"Duration":518179,"SoundDuration":518179,"Delta":58280391},{"NoteNumber":41,"Velocity":31,"Duration":395465,"SoundDuration":395465,"Delta":58798570},{"NoteNumber":67,"Velocity":58,"Duration":118305,"SoundDuration":118305,"Delta":59325857},{"NoteNumber":65,"Velocity":58,"Duration":118305,"SoundDuration":118305,"Delta":59444163},{"NoteNumber":64,"Velocity":61,"Duration":118305,"SoundDuration":118305,"Delta":59562469},{"NoteNumber":62,"Velocity":65,"Duration":129544,"SoundDuration":129544,"Delta":59680775},{"NoteNumber":74,"Velocity":76,"Duration":832690,"SoundDuration":832690,"Delta":59810319},{"NoteNumber":53,"Velocity":47,"Duration":477993,"SoundDuration":477993,"Delta":60289208},{"NoteNumber":69,"Velocity":59,"Duration":124192,"SoundDuration":124192,"Delta":60643010},{"NoteNumber":77,"Velocity":65,"Duration":357738,"SoundDuration":357738,"Delta":60767202},{"NoteNumber":50,"Velocity":40,"Duration":484374,"SoundDuration":484374,"Delta":60767202},{"NoteNumber":69,"Velocity":56,"Duration":116082,"SoundDuration":116082,"Delta":61124941},{"NoteNumber":69,"Velocity":63,"Duration":353523,"SoundDuration":353523,"Delta":61251577},{"NoteNumber":52,"Velocity":48,"Duration":953412,"SoundDuration":953412,"Delta":61251577},{"NoteNumber":68,"Velocity":54,"Duration":124791,"SoundDuration":124791,"Delta":61605101},{"NoteNumber":67,"Velocity":64,"Duration":834550,"SoundDuration":834550,"Delta":61729893},{"NoteNumber":49,"Velocity":40,"Duration":486089,"SoundDuration":486089,"Delta":62204990},{"NoteNumber":64,"Velocity":56,"Duration":126635,"SoundDuration":126635,"Delta":62564444},{"NoteNumber":65,"Velocity":65,"Duration":363519,"SoundDuration":363519,"Delta":62691079},{"NoteNumber":50,"Velocity":46,"Duration":491407,"SoundDuration":491407,"Delta":62691079},{"NoteNumber":62,"Velocity":61,"Duration":127888,"SoundDuration":127888,"Delta":63054598},{"NoteNumber":69,"Velocity":66,"Duration":367977,"SoundDuration":367977,"Delta":63182487},{"NoteNumber":41,"Velocity":48,"Duration":499222,"SoundDuration":499222,"Delta":63182487},{"NoteNumber":65,"Velocity":58,"Duration":131245,"SoundDuration":131245,"Delta":63550464},{"NoteNumber":70,"Velocity":65,"Duration":375971,"SoundDuration":375971,"Delta":63681709},{"NoteNumber":43,"Velocity":41,"Duration":525537,"SoundDuration":525537,"Delta":63681709},{"NoteNumber":62,"Velocity":49,"Duration":137102,"SoundDuration":137102,"Delta":64057681},{"NoteNumber":62,"Velocity":50,"Duration":513743,"SoundDuration":513743,"Delta":64207247},{"NoteNumber":45,"Velocity":43,"Duration":513743,"SoundDuration":513743,"Delta":64207247},{"NoteNumber":61,"Velocity":45,"Duration":256871,"SoundDuration":256871,"Delta":64720990},{"NoteNumber":33,"Velocity":36,"Duration":256871,"SoundDuration":256871,"Delta":64720990},{"NoteNumber":70,"Velocity":58,"Duration":117841,"SoundDuration":117841,"Delta":65234733},{"NoteNumber":69,"Velocity":58,"Duration":117841,"SoundDuration":117841,"Delta":65352574},{"NoteNumber":67,"Velocity":61,"Duration":117841,"SoundDuration":117841,"Delta":65470415},{"NoteNumber":65,"Velocity":65,"Duration":129544,"SoundDuration":129544,"Delta":65588257},{"NoteNumber":72,"Velocity":76,"Duration":359166,"SoundDuration":359166,"Delta":65717801},{"NoteNumber":53,"Velocity":39,"Duration":956883,"SoundDuration":956883,"Delta":65717801},{"NoteNumber":57,"Velocity":39,"Duration":956883,"SoundDuration":956883,"Delta":65717801},{"NoteNumber":60,"Velocity":47,"Duration":956883,"SoundDuration":956883,"Delta":65717801},{"NoteNumber":69,"Velocity":63,"Duration":119722,"SoundDuration":119722,"Delta":66076968},{"NoteNumber":77,"Velocity":73,"Duration":353801,"SoundDuration":353801,"Delta":66196690},{"NoteNumber":72,"Velocity":64,"Duration":124192,"SoundDuration":124192,"Delta":66550492},{"NoteNumber":81,"Velocity":74,"Duration":355197,"SoundDuration":355197,"Delta":66674684},{"NoteNumber":63,"Velocity":34,"Duration":481833,"SoundDuration":481833,"Delta":66674684},{"NoteNumber":65,"Velocity":40,"Duration":481833,"SoundDuration":481833,"Delta":66674684},{"NoteNumber":77,"Velocity":68,"Duration":116082,"SoundDuration":116082,"Delta":67029882},{"NoteNumber":82,"Velocity":80,"Duration":353523,"SoundDuration":353523,"Delta":67156518},{"NoteNumber":65,"Velocity":53,"Duration":953412,"SoundDuration":953412,"Delta":67156518},{"NoteNumber":62,"Velocity":45,"Duration":478315,"SoundDuration":478315,"Delta":67156518},{"NoteNumber":77,"Velocity":70,"Duration":124791,"SoundDuration":124791,"Delta":67510042},{"NoteNumber":86,"Velocity":82,"Duration":356322,"SoundDuration":356322,"Delta":67634834},{"NoteNumber":58,"Velocity":43,"Duration":475097,"SoundDuration":475097,"Delta":67634834},{"NoteNumber":77,"Velocity":68,"Duration":118774,"SoundDuration":118774,"Delta":67991156},{"NoteNumber":88,"Velocity":81,"Duration":359166,"SoundDuration":359166,"Delta":68109931},{"NoteNumber":58,"Velocity":54,"Duration":485802,"SoundDuration":485802,"Delta":68109931},{"NoteNumber":55,"Velocity":45,"Duration":485802,"SoundDuration":485802,"Delta":68109931},{"NoteNumber":79,"Velocity":68,"Duration":126635,"SoundDuration":126635,"Delta":68469097},{"NoteNumber":89,"Velocity":80,"Duration":363518,"SoundDuration":363518,"Delta":68595733},{"NoteNumber":57,"Velocity":51,"Duration":491407,"SoundDuration":491407,"Delta":68595733},{"NoteNumber":60,"Velocity":61,"Duration":491407,"SoundDuration":491407,"Delta":68595733},{"NoteNumber":77,"Velocity":61,"Duration":127888,"SoundDuration":127888,"Delta":68959252},{"NoteNumber":81,"Velocity":66,"Duration":498719,"SoundDuration":498719,"Delta":69087140},{"NoteNumber":60,"Velocity":42,"Duration":498719,"SoundDuration":498719,"Delta":69087140},{"NoteNumber":79,"Velocity":47,"Duration":63754,"SoundDuration":63754,"Delta":69585860},{"NoteNumber":48,"Velocity":38,"Duration":501911,"SoundDuration":501911,"Delta":69585860},{"NoteNumber":81,"Velocity":44,"Duration":63199,"SoundDuration":63199,"Delta":69649614},{"NoteNumber":79,"Velocity":47,"Duration":62649,"SoundDuration":62649,"Delta":69712813},{"NoteNumber":81,"Velocity":45,"Duration":62108,"SoundDuration":62108,"Delta":69775462},{"NoteNumber":79,"Velocity":47,"Duration":61577,"SoundDuration":61577,"Delta":69837571},{"NoteNumber":81,"Velocity":43,"Duration":61409,"SoundDuration":61409,"Delta":69899148},{"NoteNumber":79,"Velocity":43,"Duration":42316,"SoundDuration":42316,"Delta":69960558},{"NoteNumber":77,"Velocity":43,"Duration":42448,"SoundDuration":42448,"Delta":70002874},{"NoteNumber":79,"Velocity":43,"Duration":42466,"SoundDuration":42466,"Delta":70046383},{"NoteNumber":77,"Velocity":66,"Duration":913644,"SoundDuration":913644,"Delta":70087771},{"NoteNumber":53,"Velocity":47,"Duration":518179,"SoundDuration":518179,"Delta":70087771},{"NoteNumber":41,"Velocity":31,"Duration":395465,"SoundDuration":395465,"Delta":70605950},{"NoteNumber":82,"Velocity":49,"Duration":118305,"SoundDuration":118305,"Delta":71133237},{"NoteNumber":81,"Velocity":49,"Duration":118305,"SoundDuration":118305,"Delta":71251542},{"NoteNumber":79,"Velocity":51,"Duration":118305,"SoundDuration":118305,"Delta":71369848},{"NoteNumber":77,"Velocity":55,"Duration":129544,"SoundDuration":129544,"Delta":71488154},{"NoteNumber":84,"Velocity":64,"Duration":838055,"SoundDuration":838055,"Delta":71617699},{"NoteNumber":69,"Velocity":29,"Duration":483359,"SoundDuration":483359,"Delta":72096588},{"NoteNumber":72,"Velocity":35,"Duration":483359,"SoundDuration":483359,"Delta":72096588},{"NoteNumber":75,"Velocity":46,"Duration":124192,"SoundDuration":124192,"Delta":72455754},{"NoteNumber":77,"Velocity":55,"Duration":357738,"SoundDuration":357738,"Delta":72579947},{"NoteNumber":67,"Velocity":25,"Duration":484374,"SoundDuration":484374,"Delta":72579947},{"NoteNumber":70,"Velocity":30,"Duration":484374,"SoundDuration":484374,"Delta":72579947},{"NoteNumber":75,"Velocity":47,"Duration":116082,"SoundDuration":116082,"Delta":72937686},{"NoteNumber":74,"Velocity":53,"Duration":353523,"SoundDuration":353523,"Delta":73064322},{"NoteNumber":69,"Velocity":36,"Duration":953412,"SoundDuration":953412,"Delta":73064322},{"NoteNumber":66,"Velocity":30,"Duration":953412,"SoundDuration":953412,"Delta":73064322},{"NoteNumber":81,"Velocity":45,"Duration":124791,"SoundDuration":124791,"Delta":73417845},{"NoteNumber":86,"Velocity":60,"Duration":356322,"SoundDuration":356322,"Delta":73542637},{"NoteNumber":81,"Velocity":47,"Duration":118774,"SoundDuration":118774,"Delta":73898960},{"NoteNumber":82,"Velocity":58,"Duration":359166,"SoundDuration":359166,"Delta":74017734},{"NoteNumber":67,"Velocity":28,"Duration":485802,"SoundDuration":485802,"Delta":74017734},{"NoteNumber":74,"Velocity":34,"Duration":485802,"SoundDuration":485802,"Delta":74017734},{"NoteNumber":79,"Velocity":50,"Duration":126635,"SoundDuration":126635,"Delta":74376901},{"NoteNumber":84,"Velocity":60,"Duration":363518,"SoundDuration":363518,"Delta":74503537},{"NoteNumber":64,"Velocity":33,"Duration":491407,"SoundDuration":491407,"Delta":74503537},{"NoteNumber":72,"Velocity":39,"Duration":990629,"SoundDuration":990629,"Delta":74503537},{"NoteNumber":79,"Velocity":51,"Duration":127888,"SoundDuration":127888,"Delta":74867056},{"NoteNumber":81,"Velocity":56,"Duration":367977,"SoundDuration":367977,"Delta":74994944},{"NoteNumber":65,"Velocity":40,"Duration":499222,"SoundDuration":499222,"Delta":74994944},{"NoteNumber":77,"Velocity":49,"Duration":131245,"SoundDuration":131245,"Delta":75362922},{"NoteNumber":82,"Velocity":55,"Duration":248365,"SoundDuration":248365,"Delta":75494167},{"NoteNumber":67,"Velocity":34,"Duration":504441,"SoundDuration":504441,"Delta":75494167},{"NoteNumber":55,"Velocity":28,"Duration":504441,"SoundDuration":504441,"Delta":75494167},{"NoteNumber":79,"Velocity":48,"Duration":120685,"SoundDuration":120685,"Delta":75742532},{"NoteNumber":76,"Velocity":41,"Duration":124108,"SoundDuration":124108,"Delta":75863217},{"NoteNumber":74,"Velocity":42,"Duration":513743,"SoundDuration":513743,"Delta":75998609},{"NoteNumber":57,"Velocity":25,"Duration":770614,"SoundDuration":770614,"Delta":75998609},{"NoteNumber":64,"Velocity":36,"Duration":770614,"SoundDuration":770614,"Delta":75998609},{"NoteNumber":73,"Velocity":38,"Duration":256871,"SoundDuration":256871,"Delta":76512352},{"NoteNumber":69,"Velocity":47,"Duration":117841,"SoundDuration":117841,"Delta":77026095},{"NoteNumber":67,"Velocity":49,"Duration":117841,"SoundDuration":117841,"Delta":77143936},{"NoteNumber":65,"Velocity":50,"Duration":117841,"SoundDuration":117841,"Delta":77261777},{"NoteNumber":64,"Velocity":52,"Duration":129544,"SoundDuration":129544,"Delta":77379618},{"NoteNumber":79,"Velocity":64,"Duration":838055,"SoundDuration":838055,"Delta":77509163},{"NoteNumber":58,"Velocity":35,"Duration":483359,"SoundDuration":483359,"Delta":77988052},{"NoteNumber":61,"Velocity":42,"Duration":483359,"SoundDuration":483359,"Delta":77988052},{"NoteNumber":76,"Velocity":64,"Duration":124192,"SoundDuration":124192,"Delta":78347219},{"NoteNumber":85,"Velocity":74,"Duration":357738,"SoundDuration":357738,"Delta":78471412},{"NoteNumber":55,"Velocity":30,"Duration":484374,"SoundDuration":484374,"Delta":78471412},{"NoteNumber":58,"Velocity":36,"Duration":484374,"SoundDuration":484374,"Delta":78471412},{"NoteNumber":82,"Velocity":68,"Duration":116082,"SoundDuration":116082,"Delta":78829150},{"NoteNumber":86,"Velocity":80,"Duration":353523,"SoundDuration":353523,"Delta":78955786},{"NoteNumber":53,"Velocity":45,"Duration":478315,"SoundDuration":478315,"Delta":78955786},{"NoteNumber":62,"Velocity":53,"Duration":478315,"SoundDuration":478315,"Delta":78955786},{"NoteNumber":57,"Velocity":45,"Duration":478315,"SoundDuration":478315,"Delta":78955786},{"NoteNumber":81,"Velocity":70,"Duration":124791,"SoundDuration":124791,"Delta":79309310},{"NoteNumber":88,"Velocity":82,"Duration":356322,"SoundDuration":356322,"Delta":79434102},{"NoteNumber":52,"Velocity":43,"Duration":475097,"SoundDuration":475097,"Delta":79434102},{"NoteNumber":55,"Velocity":43,"Duration":475097,"SoundDuration":475097,"Delta":79434102},{"NoteNumber":61,"Velocity":43,"Duration":475097,"SoundDuration":475097,"Delta":79434102},{"NoteNumber":81,"Velocity":68,"Duration":118774,"SoundDuration":118774,"Delta":79790425},{"NoteNumber":89,"Velocity":81,"Duration":363518,"SoundDuration":363518,"Delta":79909199},{"NoteNumber":50,"Velocity":45,"Duration":496509,"SoundDuration":496509,"Delta":79909199},{"NoteNumber":62,"Velocity":54,"Duration":496509,"SoundDuration":496509,"Delta":79909199},{"NoteNumber":53,"Velocity":45,"Duration":496509,"SoundDuration":496509,"Delta":79909199},{"NoteNumber":86,"Velocity":68,"Duration":121907,"SoundDuration":121907,"Delta":80272718},{"NoteNumber":84,"Velocity":80,"Duration":121172,"SoundDuration":121172,"Delta":80405708},{"NoteNumber":55,"Velocity":61,"Duration":491407,"SoundDuration":491407,"Delta":80405708},{"NoteNumber":82,"Velocity":61,"Duration":121172,"SoundDuration":121172,"Delta":80526881},{"NoteNumber":81,"Velocity":68,"Duration":121172,"SoundDuration":121172,"Delta":80648054},{"NoteNumber":79,"Velocity":61,"Duration":127888,"SoundDuration":127888,"Delta":80769227},{"NoteNumber":77,"Velocity":66,"Duration":498719,"SoundDuration":498719,"Delta":80897116},{"NoteNumber":57,"Velocity":42,"Duration":498719,"SoundDuration":498719,"Delta":80897116},{"NoteNumber":76,"Velocity":47,"Duration":63754,"SoundDuration":63754,"Delta":81395835},{"NoteNumber":45,"Velocity":38,"Duration":501911,"SoundDuration":501911,"Delta":81395835},{"NoteNumber":77,"Velocity":44,"Duration":63199,"SoundDuration":63199,"Delta":81459589},{"NoteNumber":76,"Velocity":47,"Duration":62649,"SoundDuration":62649,"Delta":81522788},{"NoteNumber":77,"Velocity":45,"Duration":62108,"SoundDuration":62108,"Delta":81585437},{"NoteNumber":76,"Velocity":47,"Duration":61577,"SoundDuration":61577,"Delta":81647546},{"NoteNumber":77,"Velocity":43,"Duration":61409,"SoundDuration":61409,"Delta":81709123},{"NoteNumber":76,"Velocity":43,"Duration":42316,"SoundDuration":42316,"Delta":81770533},{"NoteNumber":74,"Velocity":43,"Duration":42448,"SoundDuration":42448,"Delta":81812849},{"NoteNumber":76,"Velocity":43,"Duration":42466,"SoundDuration":42466,"Delta":81856359},{"NoteNumber":74,"Velocity":66,"Duration":913644,"SoundDuration":913644,"Delta":81897746},{"NoteNumber":50,"Velocity":47,"Duration":518179,"SoundDuration":518179,"Delta":81897746},{"NoteNumber":38,"Velocity":31,"Duration":395465,"SoundDuration":395465,"Delta":82415925},{"NoteNumber":82,"Velocity":49,"Duration":116107,"SoundDuration":116107,"Delta":82943212},{"NoteNumber":81,"Velocity":49,"Duration":116107,"SoundDuration":116107,"Delta":83059320},{"NoteNumber":79,"Velocity":51,"Duration":116108,"SoundDuration":116108,"Delta":83175428},{"NoteNumber":77,"Velocity":55,"Duration":129544,"SoundDuration":129544,"Delta":83291536},{"NoteNumber":84,"Velocity":64,"Duration":834086,"SoundDuration":834086,"Delta":83421081},{"NoteNumber":69,"Velocity":29,"Duration":479390,"SoundDuration":479390,"Delta":83899970},{"NoteNumber":72,"Velocity":35,"Duration":479390,"SoundDuration":479390,"Delta":83899970},{"NoteNumber":75,"Velocity":46,"Duration":124192,"SoundDuration":124192,"Delta":84255167},{"NoteNumber":77,"Velocity":55,"Duration":357738,"SoundDuration":357738,"Delta":84379360},{"NoteNumber":67,"Velocity":25,"Duration":484374,"SoundDuration":484374,"Delta":84379360},{"NoteNumber":70,"Velocity":30,"Duration":484374,"SoundDuration":484374,"Delta":84379360},{"NoteNumber":75,"Velocity":47,"Duration":116082,"SoundDuration":116082,"Delta":84737099},{"NoteNumber":74,"Velocity":53,"Duration":353523,"SoundDuration":353523,"Delta":84863735},{"NoteNumber":69,"Velocity":36,"Duration":948203,"SoundDuration":948203,"Delta":84863735},{"NoteNumber":66,"Velocity":30,"Duration":948203,"SoundDuration":948203,"Delta":84863735},{"NoteNumber":81,"Velocity":45,"Duration":124791,"SoundDuration":124791,"Delta":85217258},{"NoteNumber":86,"Velocity":60,"Duration":352416,"SoundDuration":352416,"Delta":85342050},{"NoteNumber":81,"Velocity":47,"Duration":117471,"SoundDuration":117471,"Delta":85694466},{"NoteNumber":82,"Velocity":58,"Duration":359166,"SoundDuration":359166,"Delta":85811938},{"NoteNumber":67,"Velocity":28,"Duration":485802,"SoundDuration":485802,"Delta":85811938},{"NoteNumber":74,"Velocity":34,"Duration":485802,"SoundDuration":485802,"Delta":85811938},{"NoteNumber":79,"Velocity":50,"Duration":126635,"SoundDuration":126635,"Delta":86171105},{"NoteNumber":84,"Velocity":60,"Duration":363518,"SoundDuration":363518,"Delta":86297741},{"NoteNumber":64,"Velocity":33,"Duration":491407,"SoundDuration":491407,"Delta":86297741},{"NoteNumber":72,"Velocity":39,"Duration":990629,"SoundDuration":990629,"Delta":86297741},{"NoteNumber":79,"Velocity":51,"Duration":127888,"SoundDuration":127888,"Delta":86661260},{"NoteNumber":81,"Velocity":56,"Duration":367977,"SoundDuration":367977,"Delta":86789148},{"NoteNumber":65,"Velocity":40,"Duration":499222,"SoundDuration":499222,"Delta":86789148},{"NoteNumber":77,"Velocity":49,"Duration":131245,"SoundDuration":131245,"Delta":87157126},{"NoteNumber":82,"Velocity":55,"Duration":248365,"SoundDuration":248365,"Delta":87288371},{"NoteNumber":67,"Velocity":34,"Duration":504441,"SoundDuration":504441,"Delta":87288371},{"NoteNumber":55,"Velocity":28,"Duration":504441,"SoundDuration":504441,"Delta":87288371},{"NoteNumber":79,"Velocity":48,"Duration":120685,"SoundDuration":120685,"Delta":87536736},{"NoteNumber":76,"Velocity":41,"Duration":124108,"SoundDuration":124108,"Delta":87657421},{"NoteNumber":74,"Velocity":42,"Duration":513743,"SoundDuration":513743,"Delta":87792813},{"NoteNumber":57,"Velocity":25,"Duration":770614,"SoundDuration":770614,"Delta":87792813},{"NoteNumber":64,"Velocity":36,"Duration":770614,"SoundDuration":770614,"Delta":87792813},{"NoteNumber":73,"Velocity":38,"Duration":256871,"SoundDuration":256871,"Delta":88306556},{"NoteNumber":69,"Velocity":47,"Duration":117841,"SoundDuration":117841,"Delta":88820299},{"NoteNumber":67,"Velocity":49,"Duration":117841,"SoundDuration":117841,"Delta":88938140},{"NoteNumber":65,"Velocity":50,"Duration":117841,"SoundDuration":117841,"Delta":89055981},{"NoteNumber":64,"Velocity":52,"Duration":129544,"SoundDuration":129544,"Delta":89173822},{"NoteNumber":79,"Velocity":64,"Duration":838055,"SoundDuration":838055,"Delta":89303367},{"NoteNumber":58,"Velocity":35,"Duration":483359,"SoundDuration":483359,"Delta":89782256},{"NoteNumber":61,"Velocity":42,"Duration":483359,"SoundDuration":483359,"Delta":89782256},{"NoteNumber":76,"Velocity":64,"Duration":124192,"SoundDuration":124192,"Delta":90141423},{"NoteNumber":85,"Velocity":74,"Duration":355197,"SoundDuration":355197,"Delta":90265616},{"NoteNumber":55,"Velocity":30,"Duration":481833,"SoundDuration":481833,"Delta":90265616},{"NoteNumber":58,"Velocity":36,"Duration":481833,"SoundDuration":481833,"Delta":90265616},{"NoteNumber":82,"Velocity":68,"Duration":116082,"SoundDuration":116082,"Delta":90620813},{"NoteNumber":86,"Velocity":80,"Duration":349677,"SoundDuration":349677,"Delta":90747449},{"NoteNumber":53,"Velocity":45,"Duration":474469,"SoundDuration":474469,"Delta":90747449},{"NoteNumber":62,"Velocity":53,"Duration":474469,"SoundDuration":474469,"Delta":90747449},{"NoteNumber":57,"Velocity":45,"Duration":474469,"SoundDuration":474469,"Delta":90747449},{"NoteNumber":81,"Velocity":70,"Duration":124791,"SoundDuration":124791,"Delta":91097127},{"NoteNumber":88,"Velocity":82,"Duration":356322,"SoundDuration":356322,"Delta":91221919},{"NoteNumber":52,"Velocity":43,"Duration":475097,"SoundDuration":475097,"Delta":91221919},{"NoteNumber":55,"Velocity":43,"Duration":475097,"SoundDuration":475097,"Delta":91221919},{"NoteNumber":61,"Velocity":43,"Duration":475097,"SoundDuration":475097,"Delta":91221919},{"NoteNumber":81,"Velocity":68,"Duration":118774,"SoundDuration":118774,"Delta":91578242},{"NoteNumber":89,"Velocity":81,"Duration":363518,"SoundDuration":363518,"Delta":91697016},{"NoteNumber":50,"Velocity":45,"Duration":498423,"SoundDuration":498423,"Delta":91697016},{"NoteNumber":62,"Velocity":54,"Duration":498423,"SoundDuration":498423,"Delta":91697016},{"NoteNumber":53,"Velocity":45,"Duration":498423,"SoundDuration":498423,"Delta":91697016},{"NoteNumber":86,"Velocity":68,"Duration":123662,"SoundDuration":123662,"Delta":92060535},{"NoteNumber":84,"Velocity":80,"Duration":121172,"SoundDuration":121172,"Delta":92195439},{"NoteNumber":55,"Velocity":61,"Duration":491407,"SoundDuration":491407,"Delta":92195439},{"NoteNumber":82,"Velocity":61,"Duration":121172,"SoundDuration":121172,"Delta":92316612},{"NoteNumber":81,"Velocity":68,"Duration":121172,"SoundDuration":121172,"Delta":92437785},{"NoteNumber":79,"Velocity":61,"Duration":127888,"SoundDuration":127888,"Delta":92558958},{"NoteNumber":77,"Velocity":66,"Duration":498719,"SoundDuration":498719,"Delta":92686846},{"NoteNumber":57,"Velocity":42,"Duration":498719,"SoundDuration":498719,"Delta":92686846},{"NoteNumber":76,"Velocity":47,"Duration":63754,"SoundDuration":63754,"Delta":93185566},{"NoteNumber":45,"Velocity":38,"Duration":501911,"SoundDuration":501911,"Delta":93185566},{"NoteNumber":77,"Velocity":44,"Duration":63199,"SoundDuration":63199,"Delta":93249320},{"NoteNumber":76,"Velocity":47,"Duration":62649,"SoundDuration":62649,"Delta":93312519},{"NoteNumber":77,"Velocity":45,"Duration":62108,"SoundDuration":62108,"Delta":93375168},{"NoteNumber":76,"Velocity":47,"Duration":61577,"SoundDuration":61577,"Delta":93437277},{"NoteNumber":77,"Velocity":43,"Duration":61409,"SoundDuration":61409,"Delta":93498854},{"NoteNumber":76,"Velocity":43,"Duration":42316,"SoundDuration":42316,"Delta":93560264},{"NoteNumber":74,"Velocity":43,"Duration":42448,"SoundDuration":42448,"Delta":93602580},{"NoteNumber":76,"Velocity":43,"Duration":42466,"SoundDuration":42466,"Delta":93646089},{"NoteNumber":74,"Velocity":66,"Duration":913644,"SoundDuration":913644,"Delta":93687477},{"NoteNumber":50,"Velocity":47,"Duration":518179,"SoundDuration":518179,"Delta":93687477},{"NoteNumber":38,"Velocity":31,"Duration":395465,"SoundDuration":395465,"Delta":94205656},{"NoteNumber":67,"Velocity":50,"Duration":120685,"SoundDuration":120685,"Delta":94732943},{"NoteNumber":66,"Velocity":45,"Duration":120685,"SoundDuration":120685,"Delta":94853628},{"NoteNumber":64,"Velocity":45,"Duration":120685,"SoundDuration":120685,"Delta":94974314},{"NoteNumber":62,"Velocity":45,"Duration":120685,"SoundDuration":120685,"Delta":95094999},{"NoteNumber":74,"Velocity":50,"Duration":60342,"SoundDuration":60342,"Delta":95215685},{"NoteNumber":62,"Velocity":46,"Duration":60342,"SoundDuration":60342,"Delta":95215685},{"NoteNumber":74,"Velocity":50,"Duration":59623,"SoundDuration":59623,"Delta":95457056},{"NoteNumber":66,"Velocity":41,"Duration":120685,"SoundDuration":120685,"Delta":95695548},{"NoteNumber":74,"Velocity":47,"Duration":120685,"SoundDuration":120685,"Delta":95936919},{"NoteNumber":76,"Velocity":53,"Duration":120685,"SoundDuration":120685,"Delta":96178290},{"NoteNumber":62,"Velocity":41,"Duration":241371,"SoundDuration":241371,"Delta":96178290},{"NoteNumber":74,"Velocity":48,"Duration":120685,"SoundDuration":120685,"Delta":96298976},{"NoteNumber":73,"Velocity":48,"Duration":120685,"SoundDuration":120685,"Delta":96419661},{"NoteNumber":74,"Velocity":48,"Duration":120685,"SoundDuration":120685,"Delta":96540347},{"NoteNumber":73,"Velocity":51,"Duration":60921,"SoundDuration":60921,"Delta":96661032},{"NoteNumber":69,"Velocity":47,"Duration":243684,"SoundDuration":243684,"Delta":96661032},{"NoteNumber":79,"Velocity":52,"Duration":58703,"SoundDuration":58703,"Delta":96904717},{"NoteNumber":57,"Velocity":38,"Duration":473223,"SoundDuration":473223,"Delta":97139532},{"NoteNumber":79,"Velocity":56,"Duration":236611,"SoundDuration":236611,"Delta":97376144},{"NoteNumber":81,"Velocity":51,"Duration":120685,"SoundDuration":120685,"Delta":97612755},{"NoteNumber":61,"Velocity":38,"Duration":482742,"SoundDuration":482742,"Delta":97612755},{"NoteNumber":79,"Velocity":51,"Duration":120685,"SoundDuration":120685,"Delta":97733441},{"NoteNumber":78,"Velocity":51,"Duration":120685,"SoundDuration":120685,"Delta":97854126},{"NoteNumber":76,"Velocity":51,"Duration":120685,"SoundDuration":120685,"Delta":97974812},{"NoteNumber":79,"Velocity":58,"Duration":119038,"SoundDuration":119038,"Delta":98095497},{"NoteNumber":62,"Velocity":45,"Duration":477800,"SoundDuration":477800,"Delta":98095497},{"NoteNumber":78,"Velocity":53,"Duration":119038,"SoundDuration":119038,"Delta":98214535},{"NoteNumber":76,"Velocity":53,"Duration":119038,"SoundDuration":119038,"Delta":98333574},{"NoteNumber":74,"Velocity":49,"Duration":120685,"SoundDuration":120685,"Delta":98452612},{"NoteNumber":83,"Velocity":62,"Duration":117942,"SoundDuration":117942,"Delta":98573297},{"NoteNumber":66,"Velocity":47,"Duration":478021,"SoundDuration":478021,"Delta":98573297},{"NoteNumber":81,"Velocity":56,"Duration":117942,"SoundDuration":117942,"Delta":98691240},{"NoteNumber":79,"Velocity":56,"Duration":117943,"SoundDuration":117943,"Delta":98809183},{"NoteNumber":78,"Velocity":54,"Duration":124192,"SoundDuration":124192,"Delta":98927126},{"NoteNumber":83,"Velocity":65,"Duration":120144,"SoundDuration":120144,"Delta":99051319},{"NoteNumber":67,"Velocity":55,"Duration":487068,"SoundDuration":487068,"Delta":99051319},{"NoteNumber":85,"Velocity":49,"Duration":120144,"SoundDuration":120144,"Delta":99171463},{"NoteNumber":86,"Velocity":46,"Duration":120144,"SoundDuration":120144,"Delta":99291608},{"NoteNumber":79,"Velocity":43,"Duration":126635,"SoundDuration":126635,"Delta":99411752},{"NoteNumber":74,"Velocity":51,"Duration":496770,"SoundDuration":496770,"Delta":99538388},{"NoteNumber":78,"Velocity":51,"Duration":496770,"SoundDuration":496770,"Delta":99538388},{"NoteNumber":69,"Velocity":39,"Duration":496770,"SoundDuration":496770,"Delta":99538388},{"NoteNumber":73,"Velocity":39,"Duration":372578,"SoundDuration":372578,"Delta":100035159},{"NoteNumber":76,"Velocity":39,"Duration":372578,"SoundDuration":372578,"Delta":100035159},{"NoteNumber":57,"Velocity":30,"Duration":372578,"SoundDuration":372578,"Delta":100035159},{"NoteNumber":67,"Velocity":50,"Duration":120202,"SoundDuration":120202,"Delta":100531930},{"NoteNumber":66,"Velocity":45,"Duration":120201,"SoundDuration":120201,"Delta":100652132},{"NoteNumber":64,"Velocity":45,"Duration":120202,"SoundDuration":120202,"Delta":100772334},{"NoteNumber":62,"Velocity":45,"Duration":120201,"SoundDuration":120201,"Delta":100892536},{"NoteNumber":74,"Velocity":50,"Duration":60342,"SoundDuration":60342,"Delta":101012738},{"NoteNumber":62,"Velocity":46,"Duration":60342,"SoundDuration":60342,"Delta":101012738},{"NoteNumber":74,"Velocity":50,"Duration":59623,"SoundDuration":59623,"Delta":101254109},{"NoteNumber":66,"Velocity":41,"Duration":120685,"SoundDuration":120685,"Delta":101492601},{"NoteNumber":74,"Velocity":47,"Duration":120685,"SoundDuration":120685,"Delta":101733972},{"NoteNumber":76,"Velocity":49,"Duration":118774,"SoundDuration":118774,"Delta":101975343},{"NoteNumber":62,"Velocity":41,"Duration":237548,"SoundDuration":237548,"Delta":101975343},{"NoteNumber":74,"Velocity":43,"Duration":118774,"SoundDuration":118774,"Delta":102094117},{"NoteNumber":73,"Velocity":43,"Duration":118774,"SoundDuration":118774,"Delta":102212892},{"NoteNumber":74,"Velocity":43,"Duration":118774,"SoundDuration":118774,"Delta":102331666},{"NoteNumber":73,"Velocity":51,"Duration":59152,"SoundDuration":59152,"Delta":102450440},{"NoteNumber":69,"Velocity":47,"Duration":236611,"SoundDuration":236611,"Delta":102450440},{"NoteNumber":79,"Velocity":52,"Duration":61581,"SoundDuration":61581,"Delta":102687052},{"NoteNumber":81,"Velocity":56,"Duration":118305,"SoundDuration":118305,"Delta":102933377},{"NoteNumber":61,"Velocity":38,"Duration":473223,"SoundDuration":473223,"Delta":102933377},{"NoteNumber":79,"Velocity":51,"Duration":118305,"SoundDuration":118305,"Delta":103051683},{"NoteNumber":78,"Velocity":51,"Duration":118305,"SoundDuration":118305,"Delta":103169989},{"NoteNumber":76,"Velocity":48,"Duration":118305,"SoundDuration":118305,"Delta":103288294},{"NoteNumber":79,"Velocity":58,"Duration":120685,"SoundDuration":120685,"Delta":103406600},{"NoteNumber":62,"Velocity":38,"Duration":488329,"SoundDuration":488329,"Delta":103406600},{"NoteNumber":78,"Velocity":54,"Duration":120685,"SoundDuration":120685,"Delta":103527286},{"NoteNumber":76,"Velocity":53,"Duration":120685,"SoundDuration":120685,"Delta":103647971},{"NoteNumber":74,"Velocity":53,"Duration":126273,"SoundDuration":126273,"Delta":103768657},{"NoteNumber":83,"Velocity":69,"Duration":119038,"SoundDuration":119038,"Delta":103894930},{"NoteNumber":55,"Velocity":45,"Duration":481906,"SoundDuration":481906,"Delta":103894930},{"NoteNumber":85,"Velocity":56,"Duration":119038,"SoundDuration":119038,"Delta":104013968},{"NoteNumber":86,"Velocity":53,"Duration":119038,"SoundDuration":119038,"Delta":104133006},{"NoteNumber":79,"Velocity":56,"Duration":124791,"SoundDuration":124791,"Delta":104252045},{"NoteNumber":78,"Velocity":61,"Duration":117942,"SoundDuration":117942,"Delta":104376837},{"NoteNumber":57,"Velocity":47,"Duration":478021,"SoundDuration":478021,"Delta":104376837},{"NoteNumber":79,"Velocity":51,"Duration":117942,"SoundDuration":117942,"Delta":104494780},{"NoteNumber":81,"Velocity":51,"Duration":117943,"SoundDuration":117943,"Delta":104612723},{"NoteNumber":74,"Velocity":51,"Duration":124192,"SoundDuration":124192,"Delta":104730666},{"NoteNumber":76,"Velocity":59,"Duration":120144,"SoundDuration":120144,"Delta":104854858},{"NoteNumber":45,"Velocity":48,"Duration":492254,"SoundDuration":492254,"Delta":104854858},{"NoteNumber":78,"Velocity":48,"Duration":120144,"SoundDuration":120144,"Delta":104975003},{"NoteNumber":79,"Velocity":53,"Duration":120144,"SoundDuration":120144,"Delta":105095147},{"NoteNumber":73,"Velocity":48,"Duration":131821,"SoundDuration":131821,"Delta":105215291},{"NoteNumber":74,"Velocity":58,"Duration":507227,"SoundDuration":507227,"Delta":105347113},{"NoteNumber":50,"Velocity":46,"Duration":507227,"SoundDuration":507227,"Delta":105347113},{"NoteNumber":38,"Velocity":28,"Duration":524979,"SoundDuration":524979,"Delta":105854341},{"NoteNumber":67,"Velocity":50,"Duration":120685,"SoundDuration":120685,"Delta":106379321},{"NoteNumber":66,"Velocity":45,"Duration":120685,"SoundDuration":120685,"Delta":106500006},{"NoteNumber":64,"Velocity":45,"Duration":120685,"SoundDuration":120685,"Delta":106620692},{"NoteNumber":62,"Velocity":45,"Duration":120685,"SoundDuration":120685,"Delta":106741377},{"NoteNumber":74,"Velocity":50,"Duration":58735,"SoundDuration":58735,"Delta":106862063},{"NoteNumber":62,"Velocity":46,"Duration":58735,"SoundDuration":58735,"Delta":106862063},{"NoteNumber":74,"Velocity":50,"Duration":59623,"SoundDuration":59623,"Delta":107097007},{"NoteNumber":66,"Velocity":41,"Duration":120685,"SoundDuration":120685,"Delta":107335499},{"NoteNumber":74,"Velocity":47,"Duration":120685,"SoundDuration":120685,"Delta":107576870},{"NoteNumber":76,"Velocity":53,"Duration":120685,"SoundDuration":120685,"Delta":107818241},{"NoteNumber":62,"Velocity":41,"Duration":241371,"SoundDuration":241371,"Delta":107818241},{"NoteNumber":74,"Velocity":48,"Duration":120685,"SoundDuration":120685,"Delta":107938927},{"NoteNumber":73,"Velocity":48,"Duration":120685,"SoundDuration":120685,"Delta":108059612},{"NoteNumber":74,"Velocity":48,"Duration":120685,"SoundDuration":120685,"Delta":108180298},{"NoteNumber":73,"Velocity":51,"Duration":59670,"SoundDuration":59670,"Delta":108300983},{"NoteNumber":69,"Velocity":47,"Duration":238682,"SoundDuration":238682,"Delta":108300983},{"NoteNumber":79,"Velocity":52,"Duration":58703,"SoundDuration":58703,"Delta":108539666},{"NoteNumber":57,"Velocity":38,"Duration":473223,"SoundDuration":473223,"Delta":108774481},{"NoteNumber":79,"Velocity":56,"Duration":236611,"SoundDuration":236611,"Delta":109011093},{"NoteNumber":81,"Velocity":51,"Duration":120685,"SoundDuration":120685,"Delta":109247704},{"NoteNumber":61,"Velocity":38,"Duration":482742,"SoundDuration":482742,"Delta":109247704},{"NoteNumber":79,"Velocity":51,"Duration":120685,"SoundDuration":120685,"Delta":109368390},{"NoteNumber":78,"Velocity":51,"Duration":120685,"SoundDuration":120685,"Delta":109489075},{"NoteNumber":76,"Velocity":51,"Duration":120685,"SoundDuration":120685,"Delta":109609761},{"NoteNumber":79,"Velocity":58,"Duration":119038,"SoundDuration":119038,"Delta":109730446},{"NoteNumber":62,"Velocity":45,"Duration":477800,"SoundDuration":477800,"Delta":109730446},{"NoteNumber":78,"Velocity":53,"Duration":119038,"SoundDuration":119038,"Delta":109849485},{"NoteNumber":76,"Velocity":53,"Duration":119038,"SoundDuration":119038,"Delta":109968523},{"NoteNumber":74,"Velocity":49,"Duration":120685,"SoundDuration":120685,"Delta":110087561},{"NoteNumber":83,"Velocity":59,"Duration":117942,"SoundDuration":117942,"Delta":110208247},{"NoteNumber":66,"Velocity":47,"Duration":478021,"SoundDuration":478021,"Delta":110208247},{"NoteNumber":81,"Velocity":54,"Duration":117942,"SoundDuration":117942,"Delta":110326190},{"NoteNumber":79,"Velocity":54,"Duration":117943,"SoundDuration":117943,"Delta":110444133},{"NoteNumber":78,"Velocity":61,"Duration":124192,"SoundDuration":124192,"Delta":110562076},{"NoteNumber":83,"Velocity":68,"Duration":120144,"SoundDuration":120144,"Delta":110686268},{"NoteNumber":67,"Velocity":48,"Duration":487068,"SoundDuration":487068,"Delta":110686268},{"NoteNumber":85,"Velocity":60,"Duration":120144,"SoundDuration":120144,"Delta":110806413},{"NoteNumber":86,"Velocity":54,"Duration":120144,"SoundDuration":120144,"Delta":110926557},{"NoteNumber":79,"Velocity":43,"Duration":126635,"SoundDuration":126635,"Delta":111046701},{"NoteNumber":74,"Velocity":51,"Duration":496770,"SoundDuration":496770,"Delta":111173337},{"NoteNumber":78,"Velocity":51,"Duration":496770,"SoundDuration":496770,"Delta":111173337},{"NoteNumber":69,"Velocity":39,"Duration":496770,"SoundDuration":496770,"Delta":111173337},{"NoteNumber":73,"Velocity":39,"Duration":372578,"SoundDuration":372578,"Delta":111670108},{"NoteNumber":76,"Velocity":39,"Duration":372578,"SoundDuration":372578,"Delta":111670108},{"NoteNumber":57,"Velocity":30,"Duration":372578,"SoundDuration":372578,"Delta":111670108},{"NoteNumber":67,"Velocity":50,"Duration":120202,"SoundDuration":120202,"Delta":112166879},{"NoteNumber":66,"Velocity":45,"Duration":120201,"SoundDuration":120201,"Delta":112287081},{"NoteNumber":64,"Velocity":45,"Duration":120202,"SoundDuration":120202,"Delta":112407283},{"NoteNumber":62,"Velocity":45,"Duration":120201,"SoundDuration":120201,"Delta":112527485},{"NoteNumber":74,"Velocity":50,"Duration":59199,"SoundDuration":59199,"Delta":112647687},{"NoteNumber":62,"Velocity":46,"Duration":59199,"SoundDuration":59199,"Delta":112647687},{"NoteNumber":74,"Velocity":50,"Duration":59623,"SoundDuration":59623,"Delta":112884485},{"NoteNumber":66,"Velocity":41,"Duration":120685,"SoundDuration":120685,"Delta":113122978},{"NoteNumber":74,"Velocity":47,"Duration":120685,"SoundDuration":120685,"Delta":113364349},{"NoteNumber":76,"Velocity":49,"Duration":118774,"SoundDuration":118774,"Delta":113605720},{"NoteNumber":62,"Velocity":41,"Duration":237548,"SoundDuration":237548,"Delta":113605720},{"NoteNumber":74,"Velocity":43,"Duration":118774,"SoundDuration":118774,"Delta":113724494},{"NoteNumber":73,"Velocity":43,"Duration":118774,"SoundDuration":118774,"Delta":113843268},{"NoteNumber":74,"Velocity":43,"Duration":118774,"SoundDuration":118774,"Delta":113962043},{"NoteNumber":73,"Velocity":51,"Duration":59152,"SoundDuration":59152,"Delta":114080817},{"NoteNumber":69,"Velocity":47,"Duration":236611,"SoundDuration":236611,"Delta":114080817},{"NoteNumber":79,"Velocity":52,"Duration":62401,"SoundDuration":62401,"Delta":114317428},{"NoteNumber":81,"Velocity":56,"Duration":118305,"SoundDuration":118305,"Delta":114567033},{"NoteNumber":61,"Velocity":43,"Duration":473223,"SoundDuration":473223,"Delta":114567033},{"NoteNumber":79,"Velocity":51,"Duration":118305,"SoundDuration":118305,"Delta":114685339},{"NoteNumber":78,"Velocity":51,"Duration":118305,"SoundDuration":118305,"Delta":114803645},{"NoteNumber":76,"Velocity":48,"Duration":118305,"SoundDuration":118305,"Delta":114921951},{"NoteNumber":79,"Velocity":58,"Duration":120685,"SoundDuration":120685,"Delta":115040256},{"NoteNumber":62,"Velocity":48,"Duration":488329,"SoundDuration":488329,"Delta":115040256},{"NoteNumber":78,"Velocity":52,"Duration":120685,"SoundDuration":120685,"Delta":115160942},{"NoteNumber":76,"Velocity":54,"Duration":120685,"SoundDuration":120685,"Delta":115281627},{"NoteNumber":74,"Velocity":57,"Duration":126273,"SoundDuration":126273,"Delta":115402313},{"NoteNumber":83,"Velocity":66,"Duration":119038,"SoundDuration":119038,"Delta":115528586},{"NoteNumber":55,"Velocity":45,"Duration":481906,"SoundDuration":481906,"Delta":115528586},{"NoteNumber":85,"Velocity":57,"Duration":119038,"SoundDuration":119038,"Delta":115647624},{"NoteNumber":86,"Velocity":53,"Duration":119038,"SoundDuration":119038,"Delta":115766663},{"NoteNumber":79,"Velocity":51,"Duration":124791,"SoundDuration":124791,"Delta":115885701},{"NoteNumber":78,"Velocity":61,"Duration":117942,"SoundDuration":117942,"Delta":116010493},{"NoteNumber":57,"Velocity":47,"Duration":478021,"SoundDuration":478021,"Delta":116010493},{"NoteNumber":79,"Velocity":51,"Duration":117942,"SoundDuration":117942,"Delta":116128436},{"NoteNumber":81,"Velocity":51,"Duration":117943,"SoundDuration":117943,"Delta":116246379},{"NoteNumber":74,"Velocity":51,"Duration":124192,"SoundDuration":124192,"Delta":116364322},{"NoteNumber":76,"Velocity":59,"Duration":120144,"SoundDuration":120144,"Delta":116488515},{"NoteNumber":45,"Velocity":48,"Duration":492254,"SoundDuration":492254,"Delta":116488515},{"NoteNumber":78,"Velocity":48,"Duration":120144,"SoundDuration":120144,"Delta":116608659},{"NoteNumber":79,"Velocity":53,"Duration":120144,"SoundDuration":120144,"Delta":116728803},{"NoteNumber":73,"Velocity":48,"Duration":131821,"SoundDuration":131821,"Delta":116848947},{"NoteNumber":74,"Velocity":58,"Duration":507227,"SoundDuration":507227,"Delta":116980769},{"NoteNumber":50,"Velocity":46,"Duration":507227,"SoundDuration":507227,"Delta":116980769},{"NoteNumber":38,"Velocity":28,"Duration":524979,"SoundDuration":524979,"Delta":117487997},{"NoteNumber":67,"Velocity":50,"Duration":120685,"SoundDuration":120685,"Delta":118012977},{"NoteNumber":66,"Velocity":45,"Duration":120685,"SoundDuration":120685,"Delta":118133663},{"NoteNumber":64,"Velocity":45,"Duration":120685,"SoundDuration":120685,"Delta":118254348},{"NoteNumber":62,"Velocity":45,"Duration":120685,"SoundDuration":120685,"Delta":118375034},{"NoteNumber":74,"Velocity":50,"Duration":60342,"SoundDuration":60342,"Delta":118495719},{"NoteNumber":74,"Velocity":50,"Duration":59623,"SoundDuration":59623,"Delta":118737090},{"NoteNumber":62,"Velocity":38,"Duration":482742,"SoundDuration":482742,"Delta":118975583},{"NoteNumber":68,"Velocity":47,"Duration":120685,"SoundDuration":120685,"Delta":119216954},{"NoteNumber":69,"Velocity":53,"Duration":120685,"SoundDuration":120685,"Delta":119458325},{"NoteNumber":61,"Velocity":37,"Duration":482742,"SoundDuration":482742,"Delta":119458325},{"NoteNumber":71,"Velocity":48,"Duration":120685,"SoundDuration":120685,"Delta":119579010},{"NoteNumber":69,"Velocity":48,"Duration":120685,"SoundDuration":120685,"Delta":119699696},{"NoteNumber":64,"Velocity":48,"Duration":120685,"SoundDuration":120685,"Delta":119820381},{"NoteNumber":67,"Velocity":51,"Duration":60921,"SoundDuration":60921,"Delta":119941067},{"NoteNumber":59,"Velocity":38,"Duration":478499,"SoundDuration":478499,"Delta":119941067},{"NoteNumber":67,"Velocity":52,"Duration":58703,"SoundDuration":58703,"Delta":120184751},{"NoteNumber":57,"Velocity":39,"Duration":473223,"SoundDuration":473223,"Delta":120419567},{"NoteNumber":66,"Velocity":56,"Duration":236611,"SoundDuration":236611,"Delta":120656178},{"NoteNumber":64,"Velocity":51,"Duration":120685,"SoundDuration":120685,"Delta":120892790},{"NoteNumber":55,"Velocity":40,"Duration":482742,"SoundDuration":482742,"Delta":120892790},{"NoteNumber":66,"Velocity":47,"Duration":120685,"SoundDuration":120685,"Delta":121013475},{"NoteNumber":64,"Velocity":47,"Duration":120685,"SoundDuration":120685,"Delta":121134161},{"NoteNumber":59,"Velocity":47,"Duration":120685,"SoundDuration":120685,"Delta":121254846},{"NoteNumber":62,"Velocity":53,"Duration":119038,"SoundDuration":119038,"Delta":121375532},{"NoteNumber":54,"Velocity":41,"Duration":477800,"SoundDuration":477800,"Delta":121375532},{"NoteNumber":64,"Velocity":46,"Duration":119038,"SoundDuration":119038,"Delta":121494570},{"NoteNumber":62,"Velocity":46,"Duration":119038,"SoundDuration":119038,"Delta":121613608},{"NoteNumber":57,"Velocity":46,"Duration":120685,"SoundDuration":120685,"Delta":121732646},{"NoteNumber":67,"Velocity":54,"Duration":117942,"SoundDuration":117942,"Delta":121853332},{"NoteNumber":52,"Velocity":39,"Duration":478021,"SoundDuration":478021,"Delta":121853332},{"NoteNumber":69,"Velocity":46,"Duration":117942,"SoundDuration":117942,"Delta":121971275},{"NoteNumber":67,"Velocity":46,"Duration":117943,"SoundDuration":117943,"Delta":122089218},{"NoteNumber":64,"Velocity":43,"Duration":124192,"SoundDuration":124192,"Delta":122207161},{"NoteNumber":66,"Velocity":55,"Duration":120144,"SoundDuration":120144,"Delta":122331354},{"NoteNumber":50,"Velocity":39,"Duration":487068,"SoundDuration":487068,"Delta":122331354},{"NoteNumber":67,"Velocity":46,"Duration":120144,"SoundDuration":120144,"Delta":122451498},{"NoteNumber":66,"Velocity":46,"Duration":120144,"SoundDuration":120144,"Delta":122571642},{"NoteNumber":62,"Velocity":46,"Duration":116082,"SoundDuration":116082,"Delta":122691786},{"NoteNumber":66,"Velocity":51,"Duration":496770,"SoundDuration":496770,"Delta":122818422},{"NoteNumber":62,"Velocity":43,"Duration":496770,"SoundDuration":496770,"Delta":122818422},{"NoteNumber":57,"Velocity":43,"Duration":496770,"SoundDuration":496770,"Delta":122818422},{"NoteNumber":61,"Velocity":39,"Duration":372578,"SoundDuration":372578,"Delta":123315193},{"NoteNumber":64,"Velocity":39,"Duration":372578,"SoundDuration":372578,"Delta":123315193},{"NoteNumber":45,"Velocity":36,"Duration":248385,"SoundDuration":248385,"Delta":123315193},{"NoteNumber":79,"Velocity":63,"Duration":120685,"SoundDuration":120685,"Delta":123811964},{"NoteNumber":78,"Velocity":56,"Duration":120685,"SoundDuration":120685,"Delta":123932650},{"NoteNumber":76,"Velocity":56,"Duration":120685,"SoundDuration":120685,"Delta":124053335},{"NoteNumber":74,"Velocity":56,"Duration":120685,"SoundDuration":120685,"Delta":124174021},{"NoteNumber":86,"Velocity":70,"Duration":60342,"SoundDuration":60342,"Delta":124294706},{"NoteNumber":86,"Velocity":67,"Duration":59623,"SoundDuration":59623,"Delta":124536077},{"NoteNumber":74,"Velocity":38,"Duration":482742,"SoundDuration":482742,"Delta":124774570},{"NoteNumber":80,"Velocity":53,"Duration":120685,"SoundDuration":120685,"Delta":125015941},{"NoteNumber":80,"Velocity":58,"Duration":120685,"SoundDuration":120685,"Delta":125257312},{"NoteNumber":73,"Velocity":37,"Duration":489944,"SoundDuration":489944,"Delta":125257312},{"NoteNumber":81,"Velocity":48,"Duration":120685,"SoundDuration":120685,"Delta":125377997},{"NoteNumber":83,"Velocity":48,"Duration":120685,"SoundDuration":120685,"Delta":125498683},{"NoteNumber":81,"Velocity":48,"Duration":95916,"SoundDuration":95916,"Delta":125619368},{"NoteNumber":81,"Velocity":61,"Duration":120685,"SoundDuration":120685,"Delta":125747256},{"NoteNumber":71,"Velocity":38,"Duration":488981,"SoundDuration":488981,"Delta":125747256},{"NoteNumber":79,"Velocity":49,"Duration":120685,"SoundDuration":120685,"Delta":125867942},{"NoteNumber":78,"Velocity":49,"Duration":119722,"SoundDuration":119722,"Delta":125988627},{"NoteNumber":79,"Velocity":49,"Duration":95916,"SoundDuration":95916,"Delta":126108350},{"NoteNumber":79,"Velocity":59,"Duration":119722,"SoundDuration":119722,"Delta":126236238},{"NoteNumber":69,"Velocity":39,"Duration":487054,"SoundDuration":487054,"Delta":126236238},{"NoteNumber":78,"Velocity":48,"Duration":119722,"SoundDuration":119722,"Delta":126355960},{"NoteNumber":76,"Velocity":48,"Duration":119722,"SoundDuration":119722,"Delta":126475682},{"NoteNumber":78,"Velocity":48,"Duration":95916,"SoundDuration":95916,"Delta":126595405},{"NoteNumber":78,"Velocity":58,"Duration":120202,"SoundDuration":120202,"Delta":126723293},{"NoteNumber":67,"Velocity":40,"Duration":489593,"SoundDuration":489593,"Delta":126723293},{"NoteNumber":76,"Velocity":47,"Duration":120201,"SoundDuration":120201,"Delta":126843495},{"NoteNumber":74,"Velocity":47,"Duration":120202,"SoundDuration":120202,"Delta":126963697},{"NoteNumber":76,"Velocity":47,"Duration":128987,"SoundDuration":128987,"Delta":127083899},{"NoteNumber":81,"Velocity":68,"Duration":242345,"SoundDuration":242345,"Delta":127212887},{"NoteNumber":66,"Velocity":47,"Duration":242345,"SoundDuration":242345,"Delta":127212887},{"NoteNumber":83,"Velocity":54,"Duration":127888,"SoundDuration":127888,"Delta":127576406},{"NoteNumber":67,"Velocity":44,"Duration":127888,"SoundDuration":127888,"Delta":127576406},{"NoteNumber":74,"Velocity":66,"Duration":498719,"SoundDuration":498719,"Delta":127704294},{"NoteNumber":69,"Velocity":42,"Duration":498719,"SoundDuration":498719,"Delta":127704294},{"NoteNumber":76,"Velocity":47,"Duration":63754,"SoundDuration":63754,"Delta":128203013},{"NoteNumber":57,"Velocity":38,"Duration":501911,"SoundDuration":501911,"Delta":128203013},{"NoteNumber":78,"Velocity":44,"Duration":63199,"SoundDuration":63199,"Delta":128266767},{"NoteNumber":76,"Velocity":47,"Duration":62649,"SoundDuration":62649,"Delta":128329966},{"NoteNumber":78,"Velocity":45,"Duration":62108,"SoundDuration":62108,"Delta":128392616},{"NoteNumber":76,"Velocity":47,"Duration":61577,"SoundDuration":61577,"Delta":128454724},{"NoteNumber":78,"Velocity":43,"Duration":61409,"SoundDuration":61409,"Delta":128516302},{"NoteNumber":76,"Velocity":43,"Duration":42316,"SoundDuration":42316,"Delta":128577711},{"NoteNumber":74,"Velocity":43,"Duration":42448,"SoundDuration":42448,"Delta":128620027},{"NoteNumber":76,"Velocity":43,"Duration":42466,"SoundDuration":42466,"Delta":128663537},{"NoteNumber":74,"Velocity":66,"Duration":518179,"SoundDuration":518179,"Delta":128704924},{"NoteNumber":62,"Velocity":47,"Duration":518179,"SoundDuration":518179,"Delta":128704924},{"NoteNumber":50,"Velocity":31,"Duration":395465,"SoundDuration":395465,"Delta":129223103},{"NoteNumber":67,"Velocity":50,"Duration":120685,"SoundDuration":120685,"Delta":129750390},{"NoteNumber":66,"Velocity":45,"Duration":120685,"SoundDuration":120685,"Delta":129871076},{"NoteNumber":64,"Velocity":45,"Duration":120685,"SoundDuration":120685,"Delta":129991761},{"NoteNumber":62,"Velocity":45,"Duration":120685,"SoundDuration":120685,"Delta":130112447},{"NoteNumber":74,"Velocity":50,"Duration":58506,"SoundDuration":58506,"Delta":130233132},{"NoteNumber":74,"Velocity":50,"Duration":59623,"SoundDuration":59623,"Delta":130467160},{"NoteNumber":62,"Velocity":38,"Duration":482742,"SoundDuration":482742,"Delta":130705652},{"NoteNumber":68,"Velocity":47,"Duration":120685,"SoundDuration":120685,"Delta":130947023},{"NoteNumber":69,"Velocity":53,"Duration":120685,"SoundDuration":120685,"Delta":131188394},{"NoteNumber":61,"Velocity":37,"Duration":482742,"SoundDuration":482742,"Delta":131188394},{"NoteNumber":71,"Velocity":48,"Duration":120685,"SoundDuration":120685,"Delta":131309080},{"NoteNumber":69,"Velocity":48,"Duration":120685,"SoundDuration":120685,"Delta":131429765},{"NoteNumber":64,"Velocity":48,"Duration":120685,"SoundDuration":120685,"Delta":131550451},{"NoteNumber":67,"Velocity":51,"Duration":59199,"SoundDuration":59199,"Delta":131671136},{"NoteNumber":59,"Velocity":38,"Duration":471613,"SoundDuration":471613,"Delta":131671136},{"NoteNumber":67,"Velocity":52,"Duration":58703,"SoundDuration":58703,"Delta":131907935},{"NoteNumber":57,"Velocity":39,"Duration":473222,"SoundDuration":473222,"Delta":132142750},{"NoteNumber":66,"Velocity":56,"Duration":236611,"SoundDuration":236611,"Delta":132379362},{"NoteNumber":64,"Velocity":51,"Duration":120685,"SoundDuration":120685,"Delta":132615973},{"NoteNumber":55,"Velocity":40,"Duration":482742,"SoundDuration":482742,"Delta":132615973},{"NoteNumber":66,"Velocity":47,"Duration":120685,"SoundDuration":120685,"Delta":132736659},{"NoteNumber":64,"Velocity":47,"Duration":120685,"SoundDuration":120685,"Delta":132857344},{"NoteNumber":59,"Velocity":47,"Duration":120685,"SoundDuration":120685,"Delta":132978030},{"NoteNumber":62,"Velocity":53,"Duration":119038,"SoundDuration":119038,"Delta":133098715},{"NoteNumber":54,"Velocity":41,"Duration":477800,"SoundDuration":477800,"Delta":133098715},{"NoteNumber":64,"Velocity":46,"Duration":119038,"SoundDuration":119038,"Delta":133217754},{"NoteNumber":62,"Velocity":46,"Duration":119038,"SoundDuration":119038,"Delta":133336792},{"NoteNumber":57,"Velocity":46,"Duration":120685,"SoundDuration":120685,"Delta":133455830},{"NoteNumber":67,"Velocity":54,"Duration":117942,"SoundDuration":117942,"Delta":133576516},{"NoteNumber":52,"Velocity":39,"Duration":478021,"SoundDuration":478021,"Delta":133576516},{"NoteNumber":69,"Velocity":46,"Duration":117942,"SoundDuration":117942,"Delta":133694459},{"NoteNumber":67,"Velocity":46,"Duration":117942,"SoundDuration":117942,"Delta":133812402},{"NoteNumber":64,"Velocity":43,"Duration":124192,"SoundDuration":124192,"Delta":133930345},{"NoteNumber":66,"Velocity":55,"Duration":120144,"SoundDuration":120144,"Delta":134054537},{"NoteNumber":50,"Velocity":39,"Duration":487068,"SoundDuration":487068,"Delta":134054537},{"NoteNumber":67,"Velocity":46,"Duration":120144,"SoundDuration":120144,"Delta":134174682},{"NoteNumber":66,"Velocity":46,"Duration":120144,"SoundDuration":120144,"Delta":134294826},{"NoteNumber":62,"Velocity":46,"Duration":116082,"SoundDuration":116082,"Delta":134414970},{"NoteNumber":66,"Velocity":51,"Duration":496770,"SoundDuration":496770,"Delta":134541606},{"NoteNumber":62,"Velocity":43,"Duration":496770,"SoundDuration":496770,"Delta":134541606},{"NoteNumber":57,"Velocity":43,"Duration":496770,"SoundDuration":496770,"Delta":134541606},{"NoteNumber":61,"Velocity":39,"Duration":372578,"SoundDuration":372578,"Delta":135038377},{"NoteNumber":64,"Velocity":39,"Duration":372578,"SoundDuration":372578,"Delta":135038377},{"NoteNumber":45,"Velocity":36,"Duration":248385,"SoundDuration":248385,"Delta":135038377},{"NoteNumber":79,"Velocity":63,"Duration":120685,"SoundDuration":120685,"Delta":135535148},{"NoteNumber":78,"Velocity":56,"Duration":120685,"SoundDuration":120685,"Delta":135655833},{"NoteNumber":76,"Velocity":56,"Duration":120685,"SoundDuration":120685,"Delta":135776519},{"NoteNumber":74,"Velocity":56,"Duration":120685,"SoundDuration":120685,"Delta":135897204},{"NoteNumber":86,"Velocity":70,"Duration":58966,"SoundDuration":58966,"Delta":136017890},{"NoteNumber":86,"Velocity":67,"Duration":59623,"SoundDuration":59623,"Delta":136253757},{"NoteNumber":74,"Velocity":38,"Duration":482742,"SoundDuration":482742,"Delta":136492250},{"NoteNumber":80,"Velocity":53,"Duration":120685,"SoundDuration":120685,"Delta":136733621},{"NoteNumber":80,"Velocity":58,"Duration":120685,"SoundDuration":120685,"Delta":136974992},{"NoteNumber":73,"Velocity":37,"Duration":489944,"SoundDuration":489944,"Delta":136974992},{"NoteNumber":81,"Velocity":48,"Duration":120685,"SoundDuration":120685,"Delta":137095677},{"NoteNumber":83,"Velocity":48,"Duration":120685,"SoundDuration":120685,"Delta":137216363},{"NoteNumber":81,"Velocity":48,"Duration":95916,"SoundDuration":95916,"Delta":137337048},{"NoteNumber":81,"Velocity":61,"Duration":120685,"SoundDuration":120685,"Delta":137464937},{"NoteNumber":71,"Velocity":38,"Duration":488981,"SoundDuration":488981,"Delta":137464937},{"NoteNumber":79,"Velocity":49,"Duration":120685,"SoundDuration":120685,"Delta":137585622},{"NoteNumber":78,"Velocity":49,"Duration":119722,"SoundDuration":119722,"Delta":137706308},{"NoteNumber":79,"Velocity":49,"Duration":95916,"SoundDuration":95916,"Delta":137826030},{"NoteNumber":79,"Velocity":59,"Duration":118399,"SoundDuration":118399,"Delta":137953918},{"NoteNumber":69,"Velocity":39,"Duration":483086,"SoundDuration":483086,"Delta":137953918},{"NoteNumber":78,"Velocity":48,"Duration":118399,"SoundDuration":118399,"Delta":138072317},{"NoteNumber":76,"Velocity":48,"Duration":118399,"SoundDuration":118399,"Delta":138190717},{"NoteNumber":78,"Velocity":48,"Duration":95916,"SoundDuration":95916,"Delta":138309116},{"NoteNumber":78,"Velocity":58,"Duration":118868,"SoundDuration":118868,"Delta":138437004},{"NoteNumber":67,"Velocity":40,"Duration":489125,"SoundDuration":489125,"Delta":138437004},{"NoteNumber":76,"Velocity":47,"Duration":118868,"SoundDuration":118868,"Delta":138555872},{"NoteNumber":74,"Velocity":47,"Duration":118868,"SoundDuration":118868,"Delta":138674741},{"NoteNumber":76,"Velocity":47,"Duration":132520,"SoundDuration":132520,"Delta":138793609},{"NoteNumber":81,"Velocity":67,"Duration":242345,"SoundDuration":242345,"Delta":138926129},{"NoteNumber":66,"Velocity":47,"Duration":242345,"SoundDuration":242345,"Delta":138926129},{"NoteNumber":83,"Velocity":58,"Duration":127888,"SoundDuration":127888,"Delta":139289648},{"NoteNumber":67,"Velocity":44,"Duration":127888,"SoundDuration":127888,"Delta":139289648},{"NoteNumber":74,"Velocity":70,"Duration":498719,"SoundDuration":498719,"Delta":139417537},{"NoteNumber":69,"Velocity":42,"Duration":498719,"SoundDuration":498719,"Delta":139417537},{"NoteNumber":76,"Velocity":47,"Duration":63754,"SoundDuration":63754,"Delta":139916256},{"NoteNumber":57,"Velocity":38,"Duration":501911,"SoundDuration":501911,"Delta":139916256},{"NoteNumber":78,"Velocity":44,"Duration":63199,"SoundDuration":63199,"Delta":139980010},{"NoteNumber":76,"Velocity":47,"Duration":62649,"SoundDuration":62649,"Delta":140043209},{"NoteNumber":78,"Velocity":45,"Duration":62108,"SoundDuration":62108,"Delta":140105858},{"NoteNumber":76,"Velocity":47,"Duration":61577,"SoundDuration":61577,"Delta":140167967},{"NoteNumber":78,"Velocity":43,"Duration":61409,"SoundDuration":61409,"Delta":140229545},{"NoteNumber":76,"Velocity":43,"Duration":42316,"SoundDuration":42316,"Delta":140290954},{"NoteNumber":74,"Velocity":43,"Duration":42448,"SoundDuration":42448,"Delta":140333270},{"NoteNumber":76,"Velocity":43,"Duration":42466,"SoundDuration":42466,"Delta":140376780},{"NoteNumber":74,"Velocity":66,"Duration":518179,"SoundDuration":518179,"Delta":140418167},{"NoteNumber":62,"Velocity":47,"Duration":518179,"SoundDuration":518179,"Delta":140418167},{"NoteNumber":50,"Velocity":31,"Duration":395465,"SoundDuration":395465,"Delta":140936346},{"NoteNumber":67,"Velocity":58,"Duration":118305,"SoundDuration":118305,"Delta":141463633},{"NoteNumber":65,"Velocity":58,"Duration":118305,"SoundDuration":118305,"Delta":141581939},{"NoteNumber":64,"Velocity":61,"Duration":118305,"SoundDuration":118305,"Delta":141700244},{"NoteNumber":62,"Velocity":65,"Duration":129544,"SoundDuration":129544,"Delta":141818550},{"NoteNumber":74,"Velocity":82,"Duration":718333,"SoundDuration":718333,"Delta":141948095},{"NoteNumber":53,"Velocity":47,"Duration":483359,"SoundDuration":483359,"Delta":142426984},{"NoteNumber":76,"Velocity":64,"Duration":482407,"SoundDuration":482407,"Delta":142666428},{"NoteNumber":50,"Velocity":40,"Duration":479403,"SoundDuration":479403,"Delta":142910343},{"NoteNumber":77,"Velocity":69,"Duration":476593,"SoundDuration":476593,"Delta":143148836},{"NoteNumber":52,"Velocity":48,"Duration":474696,"SoundDuration":474696,"Delta":143389746},{"NoteNumber":69,"Velocity":69,"Duration":476562,"SoundDuration":476562,"Delta":143625429},{"NoteNumber":47,"Velocity":40,"Duration":475097,"SoundDuration":475097,"Delta":143864443},{"NoteNumber":68,"Velocity":65,"Duration":476992,"SoundDuration":476992,"Delta":144101992},{"NoteNumber":49,"Velocity":40,"Duration":482837,"SoundDuration":482837,"Delta":144339540},{"NoteNumber":67,"Velocity":68,"Duration":485738,"SoundDuration":485738,"Delta":144578985},{"NoteNumber":50,"Velocity":46,"Duration":491407,"SoundDuration":491407,"Delta":144822377},{"NoteNumber":65,"Velocity":70,"Duration":494379,"SoundDuration":494379,"Delta":145064723},{"NoteNumber":41,"Velocity":48,"Duration":495974,"SoundDuration":495974,"Delta":145313785},{"NoteNumber":69,"Velocity":69,"Duration":250656,"SoundDuration":250656,"Delta":145559103},{"NoteNumber":69,"Velocity":70,"Duration":131360,"SoundDuration":131360,"Delta":145809760},{"NoteNumber":43,"Velocity":41,"Duration":547768,"SoundDuration":547768,"Delta":145809760},{"NoteNumber":70,"Velocity":55,"Duration":43979,"SoundDuration":43979,"Delta":145941120},{"NoteNumber":69,"Velocity":43,"Duration":43979,"SoundDuration":43979,"Delta":145985099},{"NoteNumber":67,"Velocity":39,"Duration":44003,"SoundDuration":44003,"Delta":146030178},{"NoteNumber":69,"Velocity":59,"Duration":134904,"SoundDuration":134904,"Delta":146073057},{"NoteNumber":70,"Velocity":49,"Duration":137102,"SoundDuration":137102,"Delta":146207962},{"NoteNumber":62,"Velocity":50,"Duration":513743,"SoundDuration":513743,"Delta":146357528},{"NoteNumber":45,"Velocity":43,"Duration":513743,"SoundDuration":513743,"Delta":146357528},{"NoteNumber":61,"Velocity":45,"Duration":256871,"SoundDuration":256871,"Delta":146871271},{"NoteNumber":33,"Velocity":36,"Duration":256871,"SoundDuration":256871,"Delta":146871271},{"NoteNumber":70,"Velocity":58,"Duration":117841,"SoundDuration":117841,"Delta":147385014},{"NoteNumber":69,"Velocity":58,"Duration":117841,"SoundDuration":117841,"Delta":147502855},{"NoteNumber":67,"Velocity":61,"Duration":117841,"SoundDuration":117841,"Delta":147620696},{"NoteNumber":65,"Velocity":65,"Duration":129544,"SoundDuration":129544,"Delta":147738538},{"NoteNumber":74,"Velocity":81,"Duration":118724,"SoundDuration":118724,"Delta":147868082},{"NoteNumber":53,"Velocity":39,"Duration":957999,"SoundDuration":957999,"Delta":147868082},{"NoteNumber":57,"Velocity":39,"Duration":957999,"SoundDuration":957999,"Delta":147868082},{"NoteNumber":60,"Velocity":47,"Duration":957999,"SoundDuration":957999,"Delta":147868082},{"NoteNumber":72,"Velocity":63,"Duration":119722,"SoundDuration":119722,"Delta":147987805},{"NoteNumber":70,"Velocity":63,"Duration":119722,"SoundDuration":119722,"Delta":148107527},{"NoteNumber":69,"Velocity":63,"Duration":119722,"SoundDuration":119722,"Delta":148227249},{"NoteNumber":79,"Velocity":78,"Duration":117319,"SoundDuration":117319,"Delta":148346971},{"NoteNumber":77,"Velocity":64,"Duration":118305,"SoundDuration":118305,"Delta":148465277},{"NoteNumber":76,"Velocity":64,"Duration":118305,"SoundDuration":118305,"Delta":148583583},{"NoteNumber":77,"Velocity":64,"Duration":124192,"SoundDuration":124192,"Delta":148701889},{"NoteNumber":82,"Velocity":79,"Duration":116859,"SoundDuration":116859,"Delta":148826081},{"NoteNumber":63,"Velocity":34,"Duration":480159,"SoundDuration":480159,"Delta":148826081},{"NoteNumber":65,"Velocity":40,"Duration":480159,"SoundDuration":480159,"Delta":148826081},{"NoteNumber":81,"Velocity":66,"Duration":117841,"SoundDuration":117841,"Delta":148943923},{"NoteNumber":79,"Velocity":67,"Duration":117841,"SoundDuration":117841,"Delta":149061764},{"NoteNumber":77,"Velocity":67,"Duration":116082,"SoundDuration":116082,"Delta":149179605},{"NoteNumber":84,"Velocity":86,"Duration":116859,"SoundDuration":116859,"Delta":149306241},{"NoteNumber":65,"Velocity":53,"Duration":953412,"SoundDuration":953412,"Delta":149306241},{"NoteNumber":62,"Velocity":45,"Duration":478315,"SoundDuration":478315,"Delta":149306241},{"NoteNumber":82,"Velocity":70,"Duration":117841,"SoundDuration":117841,"Delta":149424082},{"NoteNumber":81,"Velocity":70,"Duration":117841,"SoundDuration":117841,"Delta":149541923},{"NoteNumber":82,"Velocity":70,"Duration":124792,"SoundDuration":124792,"Delta":149659765},{"NoteNumber":86,"Velocity":86,"Duration":117784,"SoundDuration":117784,"Delta":149784557},{"NoteNumber":58,"Velocity":47,"Duration":475097,"SoundDuration":475097,"Delta":149784557},{"NoteNumber":82,"Velocity":69,"Duration":118774,"SoundDuration":118774,"Delta":149903331},{"NoteNumber":81,"Velocity":69,"Duration":118774,"SoundDuration":118774,"Delta":150022105},{"NoteNumber":79,"Velocity":69,"Duration":118774,"SoundDuration":118774,"Delta":150140879},{"NoteNumber":88,"Velocity":85,"Duration":118724,"SoundDuration":118724,"Delta":150259654},{"NoteNumber":55,"Velocity":49,"Duration":485802,"SoundDuration":485802,"Delta":150259654},{"NoteNumber":58,"Velocity":58,"Duration":485802,"SoundDuration":485802,"Delta":150259654},{"NoteNumber":82,"Velocity":68,"Duration":119722,"SoundDuration":119722,"Delta":150379376},{"NoteNumber":81,"Velocity":68,"Duration":119722,"SoundDuration":119722,"Delta":150499098},{"NoteNumber":79,"Velocity":68,"Duration":126635,"SoundDuration":126635,"Delta":150618820},{"NoteNumber":89,"Velocity":80,"Duration":120163,"SoundDuration":120163,"Delta":150745456},{"NoteNumber":60,"Velocity":68,"Duration":491407,"SoundDuration":491407,"Delta":150745456},{"NoteNumber":57,"Velocity":57,"Duration":491407,"SoundDuration":491407,"Delta":150745456},{"NoteNumber":84,"Velocity":61,"Duration":121172,"SoundDuration":121172,"Delta":150866629},{"NoteNumber":81,"Velocity":61,"Duration":121172,"SoundDuration":121172,"Delta":150987802},{"NoteNumber":77,"Velocity":61,"Duration":127888,"SoundDuration":127888,"Delta":151108975},{"NoteNumber":79,"Velocity":45,"Duration":65758,"SoundDuration":65758,"Delta":151236863},{"NoteNumber":60,"Velocity":42,"Duration":503924,"SoundDuration":503924,"Delta":151236863},{"NoteNumber":81,"Velocity":39,"Duration":65012,"SoundDuration":65012,"Delta":151302622},{"NoteNumber":79,"Velocity":46,"Duration":63890,"SoundDuration":63890,"Delta":151367635},{"NoteNumber":81,"Velocity":40,"Duration":63023,"SoundDuration":63023,"Delta":151431525},{"NoteNumber":79,"Velocity":48,"Duration":62754,"SoundDuration":62754,"Delta":151494549},{"NoteNumber":81,"Velocity":45,"Duration":61946,"SoundDuration":61946,"Delta":151557303},{"NoteNumber":79,"Velocity":51,"Duration":61076,"SoundDuration":61076,"Delta":151619250},{"NoteNumber":81,"Velocity":46,"Duration":60460,"SoundDuration":60460,"Delta":151680327},{"NoteNumber":79,"Velocity":51,"Duration":59877,"SoundDuration":59877,"Delta":151740787},{"NoteNumber":48,"Velocity":38,"Duration":491540,"SoundDuration":491540,"Delta":151740787},{"NoteNumber":81,"Velocity":47,"Duration":59885,"SoundDuration":59885,"Delta":151800665},{"NoteNumber":79,"Velocity":47,"Duration":60460,"SoundDuration":60460,"Delta":151860551},{"NoteNumber":81,"Velocity":45,"Duration":61134,"SoundDuration":61134,"Delta":151921012},{"NoteNumber":79,"Velocity":47,"Duration":61329,"SoundDuration":61329,"Delta":151982146},{"NoteNumber":81,"Velocity":43,"Duration":61638,"SoundDuration":61638,"Delta":152043476},{"NoteNumber":79,"Velocity":43,"Duration":42316,"SoundDuration":42316,"Delta":152105115},{"NoteNumber":77,"Velocity":43,"Duration":42448,"SoundDuration":42448,"Delta":152147431},{"NoteNumber":79,"Velocity":43,"Duration":42466,"SoundDuration":42466,"Delta":152190940},{"NoteNumber":77,"Velocity":66,"Duration":913644,"SoundDuration":913644,"Delta":152232328},{"NoteNumber":53,"Velocity":47,"Duration":518179,"SoundDuration":518179,"Delta":152232328},{"NoteNumber":41,"Velocity":31,"Duration":395465,"SoundDuration":395465,"Delta":152750507},{"NoteNumber":67,"Velocity":58,"Duration":118305,"SoundDuration":118305,"Delta":153277794},{"NoteNumber":65,"Velocity":58,"Duration":118305,"SoundDuration":118305,"Delta":153396099},{"NoteNumber":64,"Velocity":61,"Duration":118305,"SoundDuration":118305,"Delta":153514405},{"NoteNumber":62,"Velocity":65,"Duration":129544,"SoundDuration":129544,"Delta":153632711},{"NoteNumber":74,"Velocity":82,"Duration":714756,"SoundDuration":714756,"Delta":153762256},{"NoteNumber":53,"Velocity":47,"Duration":477993,"SoundDuration":477993,"Delta":154241145},{"NoteNumber":76,"Velocity":64,"Duration":478924,"SoundDuration":478924,"Delta":154477012},{"NoteNumber":50,"Velocity":40,"Duration":476862,"SoundDuration":476862,"Delta":154719139},{"NoteNumber":77,"Velocity":69,"Duration":475746,"SoundDuration":475746,"Delta":154955937},{"NoteNumber":52,"Velocity":48,"Duration":474696,"SoundDuration":474696,"Delta":155196001},{"NoteNumber":69,"Velocity":69,"Duration":476562,"SoundDuration":476562,"Delta":155431683},{"NoteNumber":47,"Velocity":40,"Duration":475097,"SoundDuration":475097,"Delta":155670697},{"NoteNumber":68,"Velocity":65,"Duration":476992,"SoundDuration":476992,"Delta":155908246},{"NoteNumber":49,"Velocity":40,"Duration":482837,"SoundDuration":482837,"Delta":156145794},{"NoteNumber":67,"Velocity":68,"Duration":485738,"SoundDuration":485738,"Delta":156385239},{"NoteNumber":50,"Velocity":46,"Duration":491407,"SoundDuration":491407,"Delta":156628632},{"NoteNumber":65,"Velocity":70,"Duration":494379,"SoundDuration":494379,"Delta":156870978},{"NoteNumber":41,"Velocity":48,"Duration":499222,"SoundDuration":499222,"Delta":157120039},{"NoteNumber":69,"Velocity":69,"Duration":253904,"SoundDuration":253904,"Delta":157365357},{"NoteNumber":69,"Velocity":70,"Duration":126914,"SoundDuration":126914,"Delta":157619262},{"NoteNumber":43,"Velocity":41,"Duration":542171,"SoundDuration":542171,"Delta":157619262},{"NoteNumber":70,"Velocity":50,"Duration":43595,"SoundDuration":43595,"Delta":157746176},{"NoteNumber":69,"Velocity":42,"Duration":43595,"SoundDuration":43595,"Delta":157789772},{"NoteNumber":67,"Velocity":39,"Duration":43630,"SoundDuration":43630,"Delta":157834457},{"NoteNumber":69,"Velocity":59,"Duration":134904,"SoundDuration":134904,"Delta":157876963},{"NoteNumber":70,"Velocity":49,"Duration":137102,"SoundDuration":137102,"Delta":158011867},{"NoteNumber":62,"Velocity":50,"Duration":513743,"SoundDuration":513743,"Delta":158161434},{"NoteNumber":45,"Velocity":43,"Duration":513743,"SoundDuration":513743,"Delta":158161434},{"NoteNumber":61,"Velocity":45,"Duration":256871,"SoundDuration":256871,"Delta":158675177},{"NoteNumber":33,"Velocity":36,"Duration":256871,"SoundDuration":256871,"Delta":158675177},{"NoteNumber":70,"Velocity":58,"Duration":117841,"SoundDuration":117841,"Delta":159188920},{"NoteNumber":69,"Velocity":58,"Duration":117841,"SoundDuration":117841,"Delta":159306761},{"NoteNumber":67,"Velocity":61,"Duration":117841,"SoundDuration":117841,"Delta":159424602},{"NoteNumber":65,"Velocity":65,"Duration":129544,"SoundDuration":129544,"Delta":159542443},{"NoteNumber":74,"Velocity":81,"Duration":117877,"SoundDuration":117877,"Delta":159671988},{"NoteNumber":53,"Velocity":39,"Duration":950706,"SoundDuration":950706,"Delta":159671988},{"NoteNumber":57,"Velocity":39,"Duration":950706,"SoundDuration":950706,"Delta":159671988},{"NoteNumber":60,"Velocity":47,"Duration":950706,"SoundDuration":950706,"Delta":159671988},{"NoteNumber":72,"Velocity":63,"Duration":118868,"SoundDuration":118868,"Delta":159790856},{"NoteNumber":70,"Velocity":63,"Duration":118868,"SoundDuration":118868,"Delta":159909725},{"NoteNumber":69,"Velocity":63,"Duration":118868,"SoundDuration":118868,"Delta":160028593},{"NoteNumber":79,"Velocity":78,"Duration":116038,"SoundDuration":116038,"Delta":160147461},{"NoteNumber":77,"Velocity":64,"Duration":117013,"SoundDuration":117013,"Delta":160264475},{"NoteNumber":76,"Velocity":64,"Duration":117013,"SoundDuration":117013,"Delta":160381489},{"NoteNumber":77,"Velocity":64,"Duration":124192,"SoundDuration":124192,"Delta":160498502},{"NoteNumber":82,"Velocity":79,"Duration":115587,"SoundDuration":115587,"Delta":160622695},{"NoteNumber":63,"Velocity":34,"Duration":476313,"SoundDuration":476313,"Delta":160622695},{"NoteNumber":65,"Velocity":40,"Duration":476313,"SoundDuration":476313,"Delta":160622695},{"NoteNumber":81,"Velocity":66,"Duration":116559,"SoundDuration":116559,"Delta":160739254},{"NoteNumber":79,"Velocity":67,"Duration":116559,"SoundDuration":116559,"Delta":160855814},{"NoteNumber":77,"Velocity":67,"Duration":116082,"SoundDuration":116082,"Delta":160972373},{"NoteNumber":84,"Velocity":86,"Duration":116859,"SoundDuration":116859,"Delta":161099009},{"NoteNumber":65,"Velocity":53,"Duration":953412,"SoundDuration":953412,"Delta":161099009},{"NoteNumber":62,"Velocity":45,"Duration":478315,"SoundDuration":478315,"Delta":161099009},{"NoteNumber":82,"Velocity":70,"Duration":117841,"SoundDuration":117841,"Delta":161216850},{"NoteNumber":81,"Velocity":70,"Duration":117841,"SoundDuration":117841,"Delta":161334691},{"NoteNumber":82,"Velocity":70,"Duration":124792,"SoundDuration":124792,"Delta":161452532},{"NoteNumber":86,"Velocity":86,"Duration":117784,"SoundDuration":117784,"Delta":161577324},{"NoteNumber":58,"Velocity":47,"Duration":475097,"SoundDuration":475097,"Delta":161577324},{"NoteNumber":82,"Velocity":69,"Duration":118774,"SoundDuration":118774,"Delta":161696099},{"NoteNumber":81,"Velocity":69,"Duration":118774,"SoundDuration":118774,"Delta":161814873},{"NoteNumber":79,"Velocity":69,"Duration":118774,"SoundDuration":118774,"Delta":161933647},{"NoteNumber":88,"Velocity":85,"Duration":118724,"SoundDuration":118724,"Delta":162052421},{"NoteNumber":55,"Velocity":49,"Duration":485802,"SoundDuration":485802,"Delta":162052421},{"NoteNumber":58,"Velocity":58,"Duration":485802,"SoundDuration":485802,"Delta":162052421},{"NoteNumber":82,"Velocity":68,"Duration":119722,"SoundDuration":119722,"Delta":162172144},{"NoteNumber":81,"Velocity":68,"Duration":119722,"SoundDuration":119722,"Delta":162291866},{"NoteNumber":79,"Velocity":68,"Duration":126635,"SoundDuration":126635,"Delta":162411588},{"NoteNumber":89,"Velocity":80,"Duration":120163,"SoundDuration":120163,"Delta":162538224},{"NoteNumber":60,"Velocity":68,"Duration":491407,"SoundDuration":491407,"Delta":162538224},{"NoteNumber":57,"Velocity":57,"Duration":491407,"SoundDuration":491407,"Delta":162538224},{"NoteNumber":84,"Velocity":61,"Duration":121172,"SoundDuration":121172,"Delta":162659397},{"NoteNumber":81,"Velocity":61,"Duration":121172,"SoundDuration":121172,"Delta":162780570},{"NoteNumber":77,"Velocity":61,"Duration":127888,"SoundDuration":127888,"Delta":162901743},{"NoteNumber":79,"Velocity":45,"Duration":65758,"SoundDuration":65758,"Delta":163029631},{"NoteNumber":60,"Velocity":42,"Duration":503924,"SoundDuration":503924,"Delta":163029631},{"NoteNumber":81,"Velocity":39,"Duration":65012,"SoundDuration":65012,"Delta":163095390},{"NoteNumber":79,"Velocity":46,"Duration":63890,"SoundDuration":63890,"Delta":163160402},{"NoteNumber":81,"Velocity":40,"Duration":63023,"SoundDuration":63023,"Delta":163224293},{"NoteNumber":79,"Velocity":48,"Duration":62754,"SoundDuration":62754,"Delta":163287316},{"NoteNumber":81,"Velocity":45,"Duration":61946,"SoundDuration":61946,"Delta":163350071},{"NoteNumber":79,"Velocity":51,"Duration":61076,"SoundDuration":61076,"Delta":163412018},{"NoteNumber":81,"Velocity":46,"Duration":60460,"SoundDuration":60460,"Delta":163473094},{"NoteNumber":79,"Velocity":51,"Duration":59877,"SoundDuration":59877,"Delta":163533555},{"NoteNumber":48,"Velocity":38,"Duration":491540,"SoundDuration":491540,"Delta":163533555},{"NoteNumber":81,"Velocity":47,"Duration":59885,"SoundDuration":59885,"Delta":163593433},{"NoteNumber":79,"Velocity":47,"Duration":60460,"SoundDuration":60460,"Delta":163653319},{"NoteNumber":81,"Velocity":45,"Duration":61134,"SoundDuration":61134,"Delta":163713779},{"NoteNumber":79,"Velocity":47,"Duration":61329,"SoundDuration":61329,"Delta":163774914},{"NoteNumber":81,"Velocity":43,"Duration":61638,"SoundDuration":61638,"Delta":163836243},{"NoteNumber":79,"Velocity":43,"Duration":42316,"SoundDuration":42316,"Delta":163897882},{"NoteNumber":77,"Velocity":43,"Duration":42448,"SoundDuration":42448,"Delta":163940198},{"NoteNumber":79,"Velocity":43,"Duration":42466,"SoundDuration":42466,"Delta":163983708},{"NoteNumber":77,"Velocity":66,"Duration":913644,"SoundDuration":913644,"Delta":164025095},{"NoteNumber":53,"Velocity":47,"Duration":518179,"SoundDuration":518179,"Delta":164025095},{"NoteNumber":41,"Velocity":31,"Duration":395465,"SoundDuration":395465,"Delta":164543274},{"NoteNumber":82,"Velocity":49,"Duration":118305,"SoundDuration":118305,"Delta":165070561},{"NoteNumber":81,"Velocity":49,"Duration":118305,"SoundDuration":118305,"Delta":165188867},{"NoteNumber":79,"Velocity":51,"Duration":118305,"SoundDuration":118305,"Delta":165307173},{"NoteNumber":77,"Velocity":55,"Duration":129544,"SoundDuration":129544,"Delta":165425479},{"NoteNumber":84,"Velocity":64,"Duration":598611,"SoundDuration":598611,"Delta":165555023},{"NoteNumber":69,"Velocity":29,"Duration":483359,"SoundDuration":483359,"Delta":166033912},{"NoteNumber":72,"Velocity":35,"Duration":483359,"SoundDuration":483359,"Delta":166033912},{"NoteNumber":75,"Velocity":46,"Duration":119722,"SoundDuration":119722,"Delta":166153635},{"NoteNumber":74,"Velocity":49,"Duration":119722,"SoundDuration":119722,"Delta":166273357},{"NoteNumber":75,"Velocity":46,"Duration":124192,"SoundDuration":124192,"Delta":166393079},{"NoteNumber":77,"Velocity":55,"Duration":119246,"SoundDuration":119246,"Delta":166517272},{"NoteNumber":67,"Velocity":25,"Duration":484374,"SoundDuration":484374,"Delta":166517272},{"NoteNumber":70,"Velocity":30,"Duration":484374,"SoundDuration":484374,"Delta":166517272},{"NoteNumber":75,"Velocity":47,"Duration":119246,"SoundDuration":119246,"Delta":166636518},{"NoteNumber":74,"Velocity":49,"Duration":119246,"SoundDuration":119246,"Delta":166755764},{"NoteNumber":75,"Velocity":44,"Duration":116082,"SoundDuration":116082,"Delta":166875011},{"NoteNumber":74,"Velocity":53,"Duration":116859,"SoundDuration":116859,"Delta":167001646},{"NoteNumber":69,"Velocity":36,"Duration":953412,"SoundDuration":953412,"Delta":167001646},{"NoteNumber":66,"Velocity":30,"Duration":953412,"SoundDuration":953412,"Delta":167001646},{"NoteNumber":81,"Velocity":45,"Duration":117841,"SoundDuration":117841,"Delta":167119488},{"NoteNumber":82,"Velocity":49,"Duration":117841,"SoundDuration":117841,"Delta":167237329},{"NoteNumber":81,"Velocity":45,"Duration":124792,"SoundDuration":124792,"Delta":167355170},{"NoteNumber":86,"Velocity":60,"Duration":117784,"SoundDuration":117784,"Delta":167479962},{"NoteNumber":84,"Velocity":47,"Duration":118774,"SoundDuration":118774,"Delta":167598736},{"NoteNumber":82,"Velocity":51,"Duration":118774,"SoundDuration":118774,"Delta":167717511},{"NoteNumber":81,"Velocity":47,"Duration":118774,"SoundDuration":118774,"Delta":167836285},{"NoteNumber":82,"Velocity":58,"Duration":118724,"SoundDuration":118724,"Delta":167955059},{"NoteNumber":67,"Velocity":28,"Duration":485802,"SoundDuration":485802,"Delta":167955059},{"NoteNumber":74,"Velocity":34,"Duration":485802,"SoundDuration":485802,"Delta":167955059},{"NoteNumber":79,"Velocity":50,"Duration":119722,"SoundDuration":119722,"Delta":168074781},{"NoteNumber":81,"Velocity":53,"Duration":119722,"SoundDuration":119722,"Delta":168194504},{"NoteNumber":82,"Velocity":50,"Duration":126635,"SoundDuration":126635,"Delta":168314226},{"NoteNumber":84,"Velocity":60,"Duration":120163,"SoundDuration":120163,"Delta":168440862},{"NoteNumber":64,"Velocity":33,"Duration":488217,"SoundDuration":488217,"Delta":168440862},{"NoteNumber":72,"Velocity":39,"Duration":987440,"SoundDuration":987440,"Delta":168440862},{"NoteNumber":82,"Velocity":51,"Duration":121172,"SoundDuration":121172,"Delta":168562035},{"NoteNumber":81,"Velocity":51,"Duration":121172,"SoundDuration":121172,"Delta":168683208},{"NoteNumber":79,"Velocity":50,"Duration":124698,"SoundDuration":124698,"Delta":168804381},{"NoteNumber":81,"Velocity":56,"Duration":121637,"SoundDuration":121637,"Delta":168929079},{"NoteNumber":65,"Velocity":40,"Duration":499222,"SoundDuration":499222,"Delta":168929079},{"NoteNumber":77,"Velocity":49,"Duration":122659,"SoundDuration":122659,"Delta":169051739},{"NoteNumber":76,"Velocity":49,"Duration":122659,"SoundDuration":122659,"Delta":169174398},{"NoteNumber":74,"Velocity":49,"Duration":131245,"SoundDuration":131245,"Delta":169297057},{"NoteNumber":82,"Velocity":55,"Duration":124182,"SoundDuration":124182,"Delta":169428302},{"NoteNumber":67,"Velocity":34,"Duration":504441,"SoundDuration":504441,"Delta":169428302},{"NoteNumber":55,"Velocity":28,"Duration":504441,"SoundDuration":504441,"Delta":169428302},{"NoteNumber":79,"Velocity":48,"Duration":124182,"SoundDuration":124182,"Delta":169552485},{"NoteNumber":77,"Velocity":48,"Duration":120685,"SoundDuration":120685,"Delta":169676667},{"NoteNumber":76,"Velocity":41,"Duration":124108,"SoundDuration":124108,"Delta":169797353},{"NoteNumber":74,"Velocity":42,"Duration":513743,"SoundDuration":513743,"Delta":169932744},{"NoteNumber":57,"Velocity":25,"Duration":770614,"SoundDuration":770614,"Delta":169932744},{"NoteNumber":64,"Velocity":36,"Duration":770614,"SoundDuration":770614,"Delta":169932744},{"NoteNumber":73,"Velocity":38,"Duration":256871,"SoundDuration":256871,"Delta":170446487},{"NoteNumber":69,"Velocity":47,"Duration":117841,"SoundDuration":117841,"Delta":170960230},{"NoteNumber":67,"Velocity":49,"Duration":117841,"SoundDuration":117841,"Delta":171078071},{"NoteNumber":65,"Velocity":50,"Duration":117841,"SoundDuration":117841,"Delta":171195912},{"NoteNumber":64,"Velocity":52,"Duration":129544,"SoundDuration":129544,"Delta":171313754},{"NoteNumber":79,"Velocity":64,"Duration":598611,"SoundDuration":598611,"Delta":171443298},{"NoteNumber":58,"Velocity":35,"Duration":483359,"SoundDuration":483359,"Delta":171922187},{"NoteNumber":61,"Velocity":42,"Duration":483359,"SoundDuration":483359,"Delta":171922187},{"NoteNumber":81,"Velocity":64,"Duration":119722,"SoundDuration":119722,"Delta":172041910},{"NoteNumber":79,"Velocity":64,"Duration":119722,"SoundDuration":119722,"Delta":172161632},{"NoteNumber":76,"Velocity":64,"Duration":124192,"SoundDuration":124192,"Delta":172281354},{"NoteNumber":85,"Velocity":74,"Duration":118774,"SoundDuration":118774,"Delta":172405547},{"NoteNumber":55,"Velocity":30,"Duration":482958,"SoundDuration":482958,"Delta":172405547},{"NoteNumber":58,"Velocity":36,"Duration":482958,"SoundDuration":482958,"Delta":172405547},{"NoteNumber":86,"Velocity":64,"Duration":118774,"SoundDuration":118774,"Delta":172524321},{"NoteNumber":85,"Velocity":69,"Duration":118774,"SoundDuration":118774,"Delta":172643095},{"NoteNumber":82,"Velocity":68,"Duration":116082,"SoundDuration":116082,"Delta":172761870},{"NoteNumber":86,"Velocity":86,"Duration":117841,"SoundDuration":117841,"Delta":172888505},{"NoteNumber":53,"Velocity":45,"Duration":478315,"SoundDuration":478315,"Delta":172888505},{"NoteNumber":62,"Velocity":53,"Duration":478315,"SoundDuration":478315,"Delta":172888505},{"NoteNumber":57,"Velocity":45,"Duration":478315,"SoundDuration":478315,"Delta":172888505},{"NoteNumber":88,"Velocity":70,"Duration":117841,"SoundDuration":117841,"Delta":173006347},{"NoteNumber":86,"Velocity":76,"Duration":117841,"SoundDuration":117841,"Delta":173124188},{"NoteNumber":81,"Velocity":70,"Duration":124792,"SoundDuration":124792,"Delta":173242029},{"NoteNumber":88,"Velocity":82,"Duration":118774,"SoundDuration":118774,"Delta":173366821},{"NoteNumber":52,"Velocity":43,"Duration":475097,"SoundDuration":475097,"Delta":173366821},{"NoteNumber":55,"Velocity":43,"Duration":475097,"SoundDuration":475097,"Delta":173366821},{"NoteNumber":61,"Velocity":43,"Duration":475097,"SoundDuration":475097,"Delta":173366821},{"NoteNumber":89,"Velocity":68,"Duration":118774,"SoundDuration":118774,"Delta":173485595},{"NoteNumber":88,"Velocity":77,"Duration":118774,"SoundDuration":118774,"Delta":173604370},{"NoteNumber":81,"Velocity":68,"Duration":118774,"SoundDuration":118774,"Delta":173723144},{"NoteNumber":89,"Velocity":81,"Duration":121172,"SoundDuration":121172,"Delta":173841918},{"NoteNumber":50,"Velocity":45,"Duration":496509,"SoundDuration":496509,"Delta":173841918},{"NoteNumber":62,"Velocity":54,"Duration":496509,"SoundDuration":496509,"Delta":173841918},{"NoteNumber":53,"Velocity":45,"Duration":496509,"SoundDuration":496509,"Delta":173841918},{"NoteNumber":86,"Velocity":68,"Duration":121172,"SoundDuration":121172,"Delta":173963091},{"NoteNumber":85,"Velocity":74,"Duration":121172,"SoundDuration":121172,"Delta":174084264},{"NoteNumber":86,"Velocity":68,"Duration":132990,"SoundDuration":132990,"Delta":174205437},{"NoteNumber":84,"Velocity":80,"Duration":121172,"SoundDuration":121172,"Delta":174338428},{"NoteNumber":55,"Velocity":61,"Duration":491407,"SoundDuration":491407,"Delta":174338428},{"NoteNumber":82,"Velocity":61,"Duration":121172,"SoundDuration":121172,"Delta":174459601},{"NoteNumber":81,"Velocity":68,"Duration":121172,"SoundDuration":121172,"Delta":174580774},{"NoteNumber":79,"Velocity":61,"Duration":127888,"SoundDuration":127888,"Delta":174701947},{"NoteNumber":77,"Velocity":66,"Duration":498719,"SoundDuration":498719,"Delta":174829835},{"NoteNumber":57,"Velocity":42,"Duration":498719,"SoundDuration":498719,"Delta":174829835},{"NoteNumber":76,"Velocity":47,"Duration":63754,"SoundDuration":63754,"Delta":175328554},{"NoteNumber":45,"Velocity":38,"Duration":501911,"SoundDuration":501911,"Delta":175328554},{"NoteNumber":77,"Velocity":44,"Duration":63199,"SoundDuration":63199,"Delta":175392308},{"NoteNumber":76,"Velocity":47,"Duration":62649,"SoundDuration":62649,"Delta":175455507},{"NoteNumber":77,"Velocity":45,"Duration":62108,"SoundDuration":62108,"Delta":175518156},{"NoteNumber":76,"Velocity":47,"Duration":61577,"SoundDuration":61577,"Delta":175580265},{"NoteNumber":77,"Velocity":43,"Duration":61409,"SoundDuration":61409,"Delta":175641843},{"NoteNumber":76,"Velocity":43,"Duration":42316,"SoundDuration":42316,"Delta":175703252},{"NoteNumber":74,"Velocity":43,"Duration":42448,"SoundDuration":42448,"Delta":175745568},{"NoteNumber":76,"Velocity":43,"Duration":42466,"SoundDuration":42466,"Delta":175789078},{"NoteNumber":74,"Velocity":66,"Duration":913644,"SoundDuration":913644,"Delta":175830465},{"NoteNumber":50,"Velocity":47,"Duration":518179,"SoundDuration":518179,"Delta":175830465},{"NoteNumber":38,"Velocity":31,"Duration":395465,"SoundDuration":395465,"Delta":176348644},{"NoteNumber":82,"Velocity":49,"Duration":118305,"SoundDuration":118305,"Delta":176875931},{"NoteNumber":81,"Velocity":49,"Duration":118305,"SoundDuration":118305,"Delta":176994237},{"NoteNumber":79,"Velocity":51,"Duration":118305,"SoundDuration":118305,"Delta":177112543},{"NoteNumber":77,"Velocity":55,"Duration":129544,"SoundDuration":129544,"Delta":177230848},{"NoteNumber":84,"Velocity":64,"Duration":598611,"SoundDuration":598611,"Delta":177360393},{"NoteNumber":69,"Velocity":29,"Duration":483359,"SoundDuration":483359,"Delta":177839282},{"NoteNumber":72,"Velocity":35,"Duration":483359,"SoundDuration":483359,"Delta":177839282},{"NoteNumber":75,"Velocity":46,"Duration":119722,"SoundDuration":119722,"Delta":177959004},{"NoteNumber":74,"Velocity":49,"Duration":119722,"SoundDuration":119722,"Delta":178078727},{"NoteNumber":75,"Velocity":46,"Duration":124192,"SoundDuration":124192,"Delta":178198449},{"NoteNumber":77,"Velocity":55,"Duration":117471,"SoundDuration":117471,"Delta":178322642},{"NoteNumber":67,"Velocity":25,"Duration":479051,"SoundDuration":479051,"Delta":178322642},{"NoteNumber":70,"Velocity":30,"Duration":479051,"SoundDuration":479051,"Delta":178322642},{"NoteNumber":75,"Velocity":47,"Duration":117472,"SoundDuration":117472,"Delta":178440114},{"NoteNumber":74,"Velocity":49,"Duration":117471,"SoundDuration":117471,"Delta":178557586},{"NoteNumber":75,"Velocity":44,"Duration":116082,"SoundDuration":116082,"Delta":178675058},{"NoteNumber":74,"Velocity":53,"Duration":115587,"SoundDuration":115587,"Delta":178801693},{"NoteNumber":69,"Velocity":36,"Duration":946204,"SoundDuration":946204,"Delta":178801693},{"NoteNumber":66,"Velocity":30,"Duration":946204,"SoundDuration":946204,"Delta":178801693},{"NoteNumber":81,"Velocity":45,"Duration":116559,"SoundDuration":116559,"Delta":178918253},{"NoteNumber":82,"Velocity":49,"Duration":116559,"SoundDuration":116559,"Delta":179034812},{"NoteNumber":81,"Velocity":45,"Duration":124792,"SoundDuration":124792,"Delta":179151371},{"NoteNumber":86,"Velocity":60,"Duration":116950,"SoundDuration":116950,"Delta":179276163},{"NoteNumber":84,"Velocity":47,"Duration":117933,"SoundDuration":117933,"Delta":179394097},{"NoteNumber":82,"Velocity":51,"Duration":117933,"SoundDuration":117933,"Delta":179512031},{"NoteNumber":81,"Velocity":47,"Duration":117933,"SoundDuration":117933,"Delta":179629964},{"NoteNumber":82,"Velocity":58,"Duration":118724,"SoundDuration":118724,"Delta":179747898},{"NoteNumber":67,"Velocity":28,"Duration":485802,"SoundDuration":485802,"Delta":179747898},{"NoteNumber":74,"Velocity":34,"Duration":485802,"SoundDuration":485802,"Delta":179747898},{"NoteNumber":79,"Velocity":50,"Duration":119722,"SoundDuration":119722,"Delta":179867620},{"NoteNumber":81,"Velocity":53,"Duration":119722,"SoundDuration":119722,"Delta":179987343},{"NoteNumber":82,"Velocity":50,"Duration":126635,"SoundDuration":126635,"Delta":180107065},{"NoteNumber":84,"Velocity":60,"Duration":120163,"SoundDuration":120163,"Delta":180233701},{"NoteNumber":64,"Velocity":33,"Duration":488217,"SoundDuration":488217,"Delta":180233701},{"NoteNumber":72,"Velocity":39,"Duration":987440,"SoundDuration":987440,"Delta":180233701},{"NoteNumber":82,"Velocity":51,"Duration":121172,"SoundDuration":121172,"Delta":180354874},{"NoteNumber":81,"Velocity":51,"Duration":121172,"SoundDuration":121172,"Delta":180476047},{"NoteNumber":79,"Velocity":50,"Duration":124698,"SoundDuration":124698,"Delta":180597220},{"NoteNumber":81,"Velocity":56,"Duration":121637,"SoundDuration":121637,"Delta":180721918},{"NoteNumber":65,"Velocity":40,"Duration":499222,"SoundDuration":499222,"Delta":180721918},{"NoteNumber":77,"Velocity":49,"Duration":122659,"SoundDuration":122659,"Delta":180844578},{"NoteNumber":76,"Velocity":49,"Duration":122659,"SoundDuration":122659,"Delta":180967237},{"NoteNumber":74,"Velocity":49,"Duration":131245,"SoundDuration":131245,"Delta":181089896},{"NoteNumber":82,"Velocity":55,"Duration":124182,"SoundDuration":124182,"Delta":181221141},{"NoteNumber":67,"Velocity":34,"Duration":504441,"SoundDuration":504441,"Delta":181221141},{"NoteNumber":55,"Velocity":28,"Duration":504441,"SoundDuration":504441,"Delta":181221141},{"NoteNumber":79,"Velocity":48,"Duration":124182,"SoundDuration":124182,"Delta":181345324},{"NoteNumber":77,"Velocity":48,"Duration":120685,"SoundDuration":120685,"Delta":181469506},{"NoteNumber":76,"Velocity":41,"Duration":124108,"SoundDuration":124108,"Delta":181590192},{"NoteNumber":74,"Velocity":42,"Duration":513743,"SoundDuration":513743,"Delta":181725583},{"NoteNumber":57,"Velocity":25,"Duration":770614,"SoundDuration":770614,"Delta":181725583},{"NoteNumber":64,"Velocity":36,"Duration":770614,"SoundDuration":770614,"Delta":181725583},{"NoteNumber":73,"Velocity":38,"Duration":256871,"SoundDuration":256871,"Delta":182239326},{"NoteNumber":69,"Velocity":47,"Duration":117841,"SoundDuration":117841,"Delta":182753069},{"NoteNumber":67,"Velocity":49,"Duration":117841,"SoundDuration":117841,"Delta":182870910},{"NoteNumber":65,"Velocity":50,"Duration":117841,"SoundDuration":117841,"Delta":182988751},{"NoteNumber":64,"Velocity":52,"Duration":129544,"SoundDuration":129544,"Delta":183106593},{"NoteNumber":79,"Velocity":64,"Duration":597288,"SoundDuration":597288,"Delta":183236137},{"NoteNumber":58,"Velocity":35,"Duration":479390,"SoundDuration":479390,"Delta":183715026},{"NoteNumber":61,"Velocity":42,"Duration":479390,"SoundDuration":479390,"Delta":183715026},{"NoteNumber":81,"Velocity":64,"Duration":118399,"SoundDuration":118399,"Delta":183833426},{"NoteNumber":79,"Velocity":64,"Duration":118399,"SoundDuration":118399,"Delta":183951825},{"NoteNumber":76,"Velocity":64,"Duration":124192,"SoundDuration":124192,"Delta":184070224},{"NoteNumber":85,"Velocity":74,"Duration":117471,"SoundDuration":117471,"Delta":184194417},{"NoteNumber":55,"Velocity":30,"Duration":479051,"SoundDuration":479051,"Delta":184194417},{"NoteNumber":58,"Velocity":36,"Duration":479051,"SoundDuration":479051,"Delta":184194417},{"NoteNumber":86,"Velocity":64,"Duration":117472,"SoundDuration":117472,"Delta":184311889},{"NoteNumber":85,"Velocity":69,"Duration":117471,"SoundDuration":117471,"Delta":184429361},{"NoteNumber":82,"Velocity":68,"Duration":116082,"SoundDuration":116082,"Delta":184546833},{"NoteNumber":86,"Velocity":86,"Duration":116107,"SoundDuration":116107,"Delta":184673469},{"NoteNumber":53,"Velocity":45,"Duration":473116,"SoundDuration":473116,"Delta":184673469},{"NoteNumber":62,"Velocity":53,"Duration":473116,"SoundDuration":473116,"Delta":184673469},{"NoteNumber":57,"Velocity":45,"Duration":473116,"SoundDuration":473116,"Delta":184673469},{"NoteNumber":88,"Velocity":70,"Duration":116107,"SoundDuration":116107,"Delta":184789577},{"NoteNumber":86,"Velocity":76,"Duration":116107,"SoundDuration":116107,"Delta":184905685},{"NoteNumber":81,"Velocity":70,"Duration":124792,"SoundDuration":124792,"Delta":185021793},{"NoteNumber":88,"Velocity":82,"Duration":117471,"SoundDuration":117471,"Delta":185146585},{"NoteNumber":52,"Velocity":43,"Duration":469887,"SoundDuration":469887,"Delta":185146585},{"NoteNumber":55,"Velocity":43,"Duration":469887,"SoundDuration":469887,"Delta":185146585},{"NoteNumber":61,"Velocity":43,"Duration":469887,"SoundDuration":469887,"Delta":185146585},{"NoteNumber":89,"Velocity":68,"Duration":117472,"SoundDuration":117472,"Delta":185264057},{"NoteNumber":88,"Velocity":77,"Duration":117471,"SoundDuration":117471,"Delta":185381529},{"NoteNumber":81,"Velocity":68,"Duration":117471,"SoundDuration":117471,"Delta":185499001},{"NoteNumber":89,"Velocity":81,"Duration":121172,"SoundDuration":121172,"Delta":185616473},{"NoteNumber":50,"Velocity":45,"Duration":502807,"SoundDuration":502807,"Delta":185616473},{"NoteNumber":62,"Velocity":54,"Duration":502807,"SoundDuration":502807,"Delta":185616473},{"NoteNumber":53,"Velocity":45,"Duration":502807,"SoundDuration":502807,"Delta":185616473},{"NoteNumber":86,"Velocity":68,"Duration":121172,"SoundDuration":121172,"Delta":185737646},{"NoteNumber":85,"Velocity":74,"Duration":121172,"SoundDuration":121172,"Delta":185858819},{"NoteNumber":86,"Velocity":68,"Duration":139288,"SoundDuration":139288,"Delta":185979992},{"NoteNumber":84,"Velocity":80,"Duration":121172,"SoundDuration":121172,"Delta":186119280},{"NoteNumber":55,"Velocity":61,"Duration":491407,"SoundDuration":491407,"Delta":186119280},{"NoteNumber":82,"Velocity":61,"Duration":121172,"SoundDuration":121172,"Delta":186240453},{"NoteNumber":81,"Velocity":68,"Duration":121172,"SoundDuration":121172,"Delta":186361626},{"NoteNumber":79,"Velocity":61,"Duration":127888,"SoundDuration":127888,"Delta":186482799},{"NoteNumber":77,"Velocity":66,"Duration":498719,"SoundDuration":498719,"Delta":186610688},{"NoteNumber":57,"Velocity":42,"Duration":498719,"SoundDuration":498719,"Delta":186610688},{"NoteNumber":76,"Velocity":47,"Duration":63754,"SoundDuration":63754,"Delta":187109407},{"NoteNumber":45,"Velocity":38,"Duration":501911,"SoundDuration":501911,"Delta":187109407},{"NoteNumber":77,"Velocity":44,"Duration":63199,"SoundDuration":63199,"Delta":187173161},{"NoteNumber":76,"Velocity":47,"Duration":62649,"SoundDuration":62649,"Delta":187236360},{"NoteNumber":77,"Velocity":45,"Duration":62108,"SoundDuration":62108,"Delta":187299009},{"NoteNumber":76,"Velocity":47,"Duration":61577,"SoundDuration":61577,"Delta":187361118},{"NoteNumber":77,"Velocity":43,"Duration":61409,"SoundDuration":61409,"Delta":187422695},{"NoteNumber":76,"Velocity":43,"Duration":42316,"SoundDuration":42316,"Delta":187484105},{"NoteNumber":74,"Velocity":43,"Duration":42448,"SoundDuration":42448,"Delta":187526421},{"NoteNumber":76,"Velocity":43,"Duration":42466,"SoundDuration":42466,"Delta":187569931},{"NoteNumber":74,"Velocity":66,"Duration":913644,"SoundDuration":913644,"Delta":187611318},{"NoteNumber":50,"Velocity":47,"Duration":518179,"SoundDuration":518179,"Delta":187611318},{"NoteNumber":38,"Velocity":31,"Duration":395465,"SoundDuration":395465,"Delta":188129497},{"NoteNumber":69,"Velocity":50,"Duration":381776,"SoundDuration":381776,"Delta":188656784},{"NoteNumber":66,"Velocity":45,"Duration":127258,"SoundDuration":127258,"Delta":189038560},{"NoteNumber":74,"Velocity":50,"Duration":92258,"SoundDuration":92258,"Delta":189165819},{"NoteNumber":62,"Velocity":46,"Duration":92258,"SoundDuration":92258,"Delta":189165819},{"NoteNumber":74,"Velocity":47,"Duration":92258,"SoundDuration":92258,"Delta":189657864},{"NoteNumber":66,"Velocity":41,"Duration":92258,"SoundDuration":92258,"Delta":189657864},{"NoteNumber":74,"Velocity":47,"Duration":246022,"SoundDuration":246022,"Delta":190149909},{"NoteNumber":62,"Velocity":41,"Duration":246022,"SoundDuration":246022,"Delta":190149909},{"NoteNumber":73,"Velocity":47,"Duration":61505,"SoundDuration":61505,"Delta":190395931},{"NoteNumber":74,"Velocity":47,"Duration":61505,"SoundDuration":61505,"Delta":190457437},{"NoteNumber":76,"Velocity":47,"Duration":61505,"SoundDuration":61505,"Delta":190518943},{"NoteNumber":74,"Velocity":47,"Duration":61505,"SoundDuration":61505,"Delta":190580448},{"NoteNumber":73,"Velocity":51,"Duration":361092,"SoundDuration":361092,"Delta":190641954},{"NoteNumber":69,"Velocity":47,"Duration":478499,"SoundDuration":478499,"Delta":190641954},{"NoteNumber":76,"Velocity":52,"Duration":117407,"SoundDuration":117407,"Delta":191003046},{"NoteNumber":79,"Velocity":56,"Duration":838215,"SoundDuration":838215,"Delta":191120454},{"NoteNumber":57,"Velocity":38,"Duration":473222,"SoundDuration":473222,"Delta":191120454},{"NoteNumber":61,"Velocity":38,"Duration":486657,"SoundDuration":486657,"Delta":191593677},{"NoteNumber":76,"Velocity":51,"Duration":121664,"SoundDuration":121664,"Delta":191958670},{"NoteNumber":78,"Velocity":58,"Duration":352416,"SoundDuration":352416,"Delta":192080334},{"NoteNumber":62,"Velocity":45,"Duration":482072,"SoundDuration":482072,"Delta":192080334},{"NoteNumber":74,"Velocity":53,"Duration":129656,"SoundDuration":129656,"Delta":192432750},{"NoteNumber":81,"Velocity":58,"Duration":352416,"SoundDuration":352416,"Delta":192562407},{"NoteNumber":66,"Velocity":47,"Duration":482635,"SoundDuration":482635,"Delta":192562407},{"NoteNumber":78,"Velocity":54,"Duration":130219,"SoundDuration":130219,"Delta":192914823},{"NoteNumber":83,"Velocity":59,"Duration":356604,"SoundDuration":356604,"Delta":193045042},{"NoteNumber":67,"Velocity":48,"Duration":496543,"SoundDuration":496543,"Delta":193045042},{"NoteNumber":79,"Velocity":48,"Duration":139938,"SoundDuration":139938,"Delta":193401647},{"NoteNumber":78,"Velocity":51,"Duration":496770,"SoundDuration":496770,"Delta":193541586},{"NoteNumber":69,"Velocity":39,"Duration":496770,"SoundDuration":496770,"Delta":193541586},{"NoteNumber":76,"Velocity":39,"Duration":372578,"SoundDuration":372578,"Delta":194038357},{"NoteNumber":57,"Velocity":30,"Duration":372578,"SoundDuration":372578,"Delta":194038357},{"NoteNumber":69,"Velocity":50,"Duration":381776,"SoundDuration":381776,"Delta":194535128},{"NoteNumber":66,"Velocity":45,"Duration":127258,"SoundDuration":127258,"Delta":194916904},{"NoteNumber":74,"Velocity":50,"Duration":92258,"SoundDuration":92258,"Delta":195044163},{"NoteNumber":62,"Velocity":46,"Duration":92258,"SoundDuration":92258,"Delta":195044163},{"NoteNumber":74,"Velocity":47,"Duration":92258,"SoundDuration":92258,"Delta":195536208},{"NoteNumber":66,"Velocity":41,"Duration":92258,"SoundDuration":92258,"Delta":195536208},{"NoteNumber":74,"Velocity":47,"Duration":246022,"SoundDuration":246022,"Delta":196028253},{"NoteNumber":62,"Velocity":41,"Duration":246022,"SoundDuration":246022,"Delta":196028253},{"NoteNumber":73,"Velocity":47,"Duration":61505,"SoundDuration":61505,"Delta":196274275},{"NoteNumber":74,"Velocity":47,"Duration":61505,"SoundDuration":61505,"Delta":196335781},{"NoteNumber":76,"Velocity":47,"Duration":61505,"SoundDuration":61505,"Delta":196397286},{"NoteNumber":74,"Velocity":47,"Duration":61505,"SoundDuration":61505,"Delta":196458792},{"NoteNumber":73,"Velocity":58,"Duration":357114,"SoundDuration":357114,"Delta":196520298},{"NoteNumber":69,"Velocity":47,"Duration":481906,"SoundDuration":481906,"Delta":196520298},{"NoteNumber":76,"Velocity":53,"Duration":124792,"SoundDuration":124792,"Delta":196877412},{"NoteNumber":79,"Velocity":58,"Duration":351041,"SoundDuration":351041,"Delta":197002204},{"NoteNumber":61,"Velocity":38,"Duration":475234,"SoundDuration":475234,"Delta":197002204},{"NoteNumber":76,"Velocity":54,"Duration":124192,"SoundDuration":124192,"Delta":197353246},{"NoteNumber":78,"Velocity":59,"Duration":356604,"SoundDuration":356604,"Delta":197477438},{"NoteNumber":62,"Velocity":39,"Duration":483240,"SoundDuration":483240,"Delta":197477438},{"NoteNumber":74,"Velocity":48,"Duration":126635,"SoundDuration":126635,"Delta":197834043},{"NoteNumber":71,"Velocity":58,"Duration":123011,"SoundDuration":123011,"Delta":197960679},{"NoteNumber":55,"Velocity":39,"Duration":997137,"SoundDuration":997137,"Delta":197960679},{"NoteNumber":67,"Velocity":47,"Duration":997137,"SoundDuration":997137,"Delta":197960679},{"NoteNumber":76,"Velocity":56,"Duration":126273,"SoundDuration":126273,"Delta":198452724},{"NoteNumber":73,"Velocity":45,"Duration":263620,"SoundDuration":263620,"Delta":198957817},{"NoteNumber":67,"Velocity":45,"Duration":527241,"SoundDuration":527241,"Delta":198957817},{"NoteNumber":64,"Velocity":40,"Duration":527241,"SoundDuration":527241,"Delta":198957817},{"NoteNumber":57,"Velocity":34,"Duration":527241,"SoundDuration":527241,"Delta":198957817},{"NoteNumber":74,"Velocity":55,"Duration":65905,"SoundDuration":65905,"Delta":199221437},{"NoteNumber":73,"Velocity":48,"Duration":65905,"SoundDuration":65905,"Delta":199287342},{"NoteNumber":71,"Velocity":48,"Duration":65905,"SoundDuration":65905,"Delta":199353248},{"NoteNumber":73,"Velocity":48,"Duration":65905,"SoundDuration":65905,"Delta":199419153},{"NoteNumber":74,"Velocity":58,"Duration":492650,"SoundDuration":492650,"Delta":199485058},{"NoteNumber":66,"Velocity":49,"Duration":492650,"SoundDuration":492650,"Delta":199485058},{"NoteNumber":62,"Velocity":46,"Duration":492650,"SoundDuration":492650,"Delta":199485058},{"NoteNumber":50,"Velocity":28,"Duration":524979,"SoundDuration":524979,"Delta":199977709},{"NoteNumber":66,"Velocity":50,"Duration":127258,"SoundDuration":127258,"Delta":200502689},{"NoteNumber":62,"Velocity":45,"Duration":127258,"SoundDuration":127258,"Delta":200629948},{"NoteNumber":69,"Velocity":45,"Duration":127258,"SoundDuration":127258,"Delta":200757206},{"NoteNumber":66,"Velocity":45,"Duration":127258,"SoundDuration":127258,"Delta":200884465},{"NoteNumber":74,"Velocity":56,"Duration":123011,"SoundDuration":123011,"Delta":201011724},{"NoteNumber":69,"Velocity":45,"Duration":123011,"SoundDuration":123011,"Delta":201134735},{"NoteNumber":71,"Velocity":45,"Duration":123011,"SoundDuration":123011,"Delta":201257746},{"NoteNumber":73,"Velocity":45,"Duration":123011,"SoundDuration":123011,"Delta":201380758},{"NoteNumber":74,"Velocity":55,"Duration":123011,"SoundDuration":123011,"Delta":201503769},{"NoteNumber":66,"Velocity":41,"Duration":492045,"SoundDuration":492045,"Delta":201503769},{"NoteNumber":76,"Velocity":45,"Duration":123011,"SoundDuration":123011,"Delta":201626780},{"NoteNumber":78,"Velocity":45,"Duration":123011,"SoundDuration":123011,"Delta":201749791},{"NoteNumber":79,"Velocity":45,"Duration":123011,"SoundDuration":123011,"Delta":201872803},{"NoteNumber":81,"Velocity":61,"Duration":123011,"SoundDuration":123011,"Delta":201995814},{"NoteNumber":62,"Velocity":37,"Duration":498578,"SoundDuration":498578,"Delta":201995814},{"NoteNumber":78,"Velocity":52,"Duration":123011,"SoundDuration":123011,"Delta":202118825},{"NoteNumber":76,"Velocity":52,"Duration":123011,"SoundDuration":123011,"Delta":202241836},{"NoteNumber":74,"Velocity":50,"Duration":129544,"SoundDuration":129544,"Delta":202364848},{"NoteNumber":73,"Velocity":54,"Duration":121978,"SoundDuration":121978,"Delta":202494392},{"NoteNumber":64,"Velocity":48,"Duration":485497,"SoundDuration":485497,"Delta":202494392},{"NoteNumber":74,"Velocity":45,"Duration":121172,"SoundDuration":121172,"Delta":202616371},{"NoteNumber":76,"Velocity":45,"Duration":121172,"SoundDuration":121172,"Delta":202737544},{"NoteNumber":78,"Velocity":45,"Duration":121172,"SoundDuration":121172,"Delta":202858717},{"NoteNumber":79,"Velocity":51,"Duration":121172,"SoundDuration":121172,"Delta":202979890},{"NoteNumber":61,"Velocity":41,"Duration":484691,"SoundDuration":484691,"Delta":202979890},{"NoteNumber":76,"Velocity":47,"Duration":121172,"SoundDuration":121172,"Delta":203101063},{"NoteNumber":79,"Velocity":48,"Duration":121172,"SoundDuration":121172,"Delta":203222236},{"NoteNumber":81,"Velocity":49,"Duration":121172,"SoundDuration":121172,"Delta":203343409},{"NoteNumber":83,"Velocity":55,"Duration":121172,"SoundDuration":121172,"Delta":203464582},{"NoteNumber":57,"Velocity":46,"Duration":490864,"SoundDuration":490864,"Delta":203464582},{"NoteNumber":79,"Velocity":45,"Duration":121172,"SoundDuration":121172,"Delta":203585755},{"NoteNumber":78,"Velocity":45,"Duration":121173,"SoundDuration":121173,"Delta":203706928},{"NoteNumber":76,"Velocity":45,"Duration":127345,"SoundDuration":127345,"Delta":203828101},{"NoteNumber":78,"Velocity":55,"Duration":121329,"SoundDuration":121329,"Delta":203955446},{"NoteNumber":62,"Velocity":45,"Duration":482697,"SoundDuration":482697,"Delta":203955446},{"NoteNumber":74,"Velocity":53,"Duration":120685,"SoundDuration":120685,"Delta":204076776},{"NoteNumber":76,"Velocity":53,"Duration":120480,"SoundDuration":120480,"Delta":204197462},{"NoteNumber":78,"Velocity":53,"Duration":120202,"SoundDuration":120202,"Delta":204317942},{"NoteNumber":79,"Velocity":64,"Duration":119962,"SoundDuration":119962,"Delta":204438144},{"NoteNumber":59,"Velocity":52,"Duration":478672,"SoundDuration":478672,"Delta":204438144},{"NoteNumber":81,"Velocity":53,"Duration":119722,"SoundDuration":119722,"Delta":204558106},{"NoteNumber":83,"Velocity":56,"Duration":119369,"SoundDuration":119369,"Delta":204677828},{"NoteNumber":85,"Velocity":58,"Duration":119619,"SoundDuration":119619,"Delta":204797197},{"NoteNumber":86,"Velocity":65,"Duration":120118,"SoundDuration":120118,"Delta":204916816},{"NoteNumber":55,"Velocity":47,"Duration":501216,"SoundDuration":501216,"Delta":204916816},{"NoteNumber":83,"Velocity":57,"Duration":120645,"SoundDuration":120645,"Delta":205036934},{"NoteNumber":81,"Velocity":45,"Duration":126273,"SoundDuration":126273,"Delta":205157580},{"NoteNumber":79,"Velocity":45,"Duration":134180,"SoundDuration":134180,"Delta":205283853},{"NoteNumber":74,"Velocity":47,"Duration":513743,"SoundDuration":513743,"Delta":205418033},{"NoteNumber":78,"Velocity":56,"Duration":513743,"SoundDuration":513743,"Delta":205418033},{"NoteNumber":57,"Velocity":43,"Duration":513743,"SoundDuration":513743,"Delta":205418033},{"NoteNumber":73,"Velocity":42,"Duration":256871,"SoundDuration":256871,"Delta":205931776},{"NoteNumber":76,"Velocity":50,"Duration":256871,"SoundDuration":256871,"Delta":205931776},{"NoteNumber":45,"Velocity":36,"Duration":256871,"SoundDuration":256871,"Delta":205931776},{"NoteNumber":66,"Velocity":46,"Duration":124698,"SoundDuration":124698,"Delta":206445519},{"NoteNumber":62,"Velocity":47,"Duration":124698,"SoundDuration":124698,"Delta":206570218},{"NoteNumber":69,"Velocity":49,"Duration":124698,"SoundDuration":124698,"Delta":206694917},{"NoteNumber":66,"Velocity":53,"Duration":124698,"SoundDuration":124698,"Delta":206819616},{"NoteNumber":74,"Velocity":62,"Duration":123011,"SoundDuration":123011,"Delta":206944314},{"NoteNumber":69,"Velocity":49,"Duration":123011,"SoundDuration":123011,"Delta":207067326},{"NoteNumber":71,"Velocity":49,"Duration":123011,"SoundDuration":123011,"Delta":207190337},{"NoteNumber":73,"Velocity":49,"Duration":123011,"SoundDuration":123011,"Delta":207313348},{"NoteNumber":74,"Velocity":60,"Duration":123011,"SoundDuration":123011,"Delta":207436359},{"NoteNumber":66,"Velocity":41,"Duration":492045,"SoundDuration":492045,"Delta":207436359},{"NoteNumber":76,"Velocity":48,"Duration":123011,"SoundDuration":123011,"Delta":207559371},{"NoteNumber":78,"Velocity":48,"Duration":123011,"SoundDuration":123011,"Delta":207682382},{"NoteNumber":79,"Velocity":48,"Duration":123011,"SoundDuration":123011,"Delta":207805393},{"NoteNumber":81,"Velocity":61,"Duration":123011,"SoundDuration":123011,"Delta":207928404},{"NoteNumber":62,"Velocity":41,"Duration":495840,"SoundDuration":495840,"Delta":207928404},{"NoteNumber":78,"Velocity":52,"Duration":123011,"SoundDuration":123011,"Delta":208051416},{"NoteNumber":76,"Velocity":52,"Duration":123011,"SoundDuration":123011,"Delta":208174427},{"NoteNumber":74,"Velocity":50,"Duration":126807,"SoundDuration":126807,"Delta":208297438},{"NoteNumber":73,"Velocity":54,"Duration":121978,"SoundDuration":121978,"Delta":208424245},{"NoteNumber":64,"Velocity":53,"Duration":485497,"SoundDuration":485497,"Delta":208424245},{"NoteNumber":74,"Velocity":45,"Duration":121172,"SoundDuration":121172,"Delta":208546224},{"NoteNumber":76,"Velocity":45,"Duration":121172,"SoundDuration":121172,"Delta":208667397},{"NoteNumber":78,"Velocity":45,"Duration":121172,"SoundDuration":121172,"Delta":208788570},{"NoteNumber":79,"Velocity":56,"Duration":121172,"SoundDuration":121172,"Delta":208909743},{"NoteNumber":57,"Velocity":41,"Duration":484691,"SoundDuration":484691,"Delta":208909743},{"NoteNumber":78,"Velocity":47,"Duration":121172,"SoundDuration":121172,"Delta":209030916},{"NoteNumber":76,"Velocity":48,"Duration":121172,"SoundDuration":121172,"Delta":209152089},{"NoteNumber":74,"Velocity":49,"Duration":121172,"SoundDuration":121172,"Delta":209273262},{"NoteNumber":73,"Velocity":55,"Duration":121172,"SoundDuration":121172,"Delta":209394435},{"NoteNumber":61,"Velocity":37,"Duration":490864,"SoundDuration":490864,"Delta":209394435},{"NoteNumber":71,"Velocity":45,"Duration":121172,"SoundDuration":121172,"Delta":209515608},{"NoteNumber":69,"Velocity":45,"Duration":121173,"SoundDuration":121173,"Delta":209636781},{"NoteNumber":67,"Velocity":45,"Duration":127345,"SoundDuration":127345,"Delta":209757954},{"NoteNumber":66,"Velocity":55,"Duration":121329,"SoundDuration":121329,"Delta":209885299},{"NoteNumber":62,"Velocity":45,"Duration":482697,"SoundDuration":482697,"Delta":209885299},{"NoteNumber":69,"Velocity":46,"Duration":120685,"SoundDuration":120685,"Delta":210006629},{"NoteNumber":67,"Velocity":46,"Duration":120480,"SoundDuration":120480,"Delta":210127315},{"NoteNumber":66,"Velocity":46,"Duration":120202,"SoundDuration":120202,"Delta":210247795},{"NoteNumber":64,"Velocity":55,"Duration":119962,"SoundDuration":119962,"Delta":210367997},{"NoteNumber":55,"Velocity":39,"Duration":478672,"SoundDuration":478672,"Delta":210367997},{"NoteNumber":71,"Velocity":45,"Duration":119722,"SoundDuration":119722,"Delta":210487959},{"NoteNumber":69,"Velocity":45,"Duration":119369,"SoundDuration":119369,"Delta":210607681},{"NoteNumber":67,"Velocity":45,"Duration":119619,"SoundDuration":119619,"Delta":210727050},{"NoteNumber":66,"Velocity":53,"Duration":120118,"SoundDuration":120118,"Delta":210846669},{"NoteNumber":57,"Velocity":39,"Duration":501216,"SoundDuration":501216,"Delta":210846669},{"NoteNumber":45,"Velocity":39,"Duration":501216,"SoundDuration":501216,"Delta":210846669},{"NoteNumber":64,"Velocity":42,"Duration":120645,"SoundDuration":120645,"Delta":210966787},{"NoteNumber":62,"Velocity":45,"Duration":126273,"SoundDuration":126273,"Delta":211087433},{"NoteNumber":61,"Velocity":38,"Duration":134180,"SoundDuration":134180,"Delta":211213706},{"NoteNumber":62,"Velocity":53,"Duration":513743,"SoundDuration":513743,"Delta":211347886},{"NoteNumber":50,"Velocity":43,"Duration":513743,"SoundDuration":513743,"Delta":211347886},{"NoteNumber":38,"Velocity":36,"Duration":256871,"SoundDuration":256871,"Delta":211861629},{"NoteNumber":78,"Velocity":53,"Duration":124698,"SoundDuration":124698,"Delta":212375372},{"NoteNumber":74,"Velocity":55,"Duration":124698,"SoundDuration":124698,"Delta":212500071},{"NoteNumber":81,"Velocity":61,"Duration":124698,"SoundDuration":124698,"Delta":212624770},{"NoteNumber":78,"Velocity":63,"Duration":124698,"SoundDuration":124698,"Delta":212749469},{"NoteNumber":86,"Velocity":71,"Duration":120685,"SoundDuration":120685,"Delta":212874167},{"NoteNumber":81,"Velocity":55,"Duration":120685,"SoundDuration":120685,"Delta":212994853},{"NoteNumber":78,"Velocity":55,"Duration":120685,"SoundDuration":120685,"Delta":213115538},{"NoteNumber":74,"Velocity":55,"Duration":120685,"SoundDuration":120685,"Delta":213236224},{"NoteNumber":71,"Velocity":69,"Duration":146267,"SoundDuration":146267,"Delta":213356909},{"NoteNumber":74,"Velocity":56,"Duration":117013,"SoundDuration":117013,"Delta":213473923},{"NoteNumber":76,"Velocity":56,"Duration":117563,"SoundDuration":117563,"Delta":213590937},{"NoteNumber":80,"Velocity":51,"Duration":117564,"SoundDuration":117564,"Delta":213708501},{"NoteNumber":73,"Velocity":68,"Duration":145699,"SoundDuration":145699,"Delta":213826065},{"NoteNumber":76,"Velocity":55,"Duration":116559,"SoundDuration":116559,"Delta":213942624},{"NoteNumber":85,"Velocity":53,"Duration":116559,"SoundDuration":116559,"Delta":214059183},{"NoteNumber":88,"Velocity":51,"Duration":120395,"SoundDuration":120395,"Delta":214175743},{"NoteNumber":71,"Velocity":62,"Duration":146267,"SoundDuration":146267,"Delta":214296138},{"NoteNumber":74,"Velocity":53,"Duration":117013,"SoundDuration":117013,"Delta":214413151},{"NoteNumber":79,"Velocity":53,"Duration":117013,"SoundDuration":117013,"Delta":214530165},{"NoteNumber":83,"Velocity":53,"Duration":117013,"SoundDuration":117013,"Delta":214647179},{"NoteNumber":69,"Velocity":58,"Duration":146267,"SoundDuration":146267,"Delta":214764193},{"NoteNumber":73,"Velocity":47,"Duration":117013,"SoundDuration":117013,"Delta":214881206},{"NoteNumber":78,"Velocity":47,"Duration":117013,"SoundDuration":117013,"Delta":214998220},{"NoteNumber":81,"Velocity":47,"Duration":117013,"SoundDuration":117013,"Delta":215115234},{"NoteNumber":67,"Velocity":55,"Duration":146267,"SoundDuration":146267,"Delta":215232248},{"NoteNumber":71,"Velocity":48,"Duration":117013,"SoundDuration":117013,"Delta":215349261},{"NoteNumber":76,"Velocity":48,"Duration":117013,"SoundDuration":117013,"Delta":215466275},{"NoteNumber":79,"Velocity":45,"Duration":121368,"SoundDuration":121368,"Delta":215583289},{"NoteNumber":66,"Velocity":61,"Duration":147882,"SoundDuration":147882,"Delta":215704658},{"NoteNumber":69,"Velocity":50,"Duration":118305,"SoundDuration":118305,"Delta":215822964},{"NoteNumber":74,"Velocity":50,"Duration":118774,"SoundDuration":118774,"Delta":215941269},{"NoteNumber":78,"Velocity":47,"Duration":118774,"SoundDuration":118774,"Delta":216060044},{"NoteNumber":64,"Velocity":55,"Duration":146725,"SoundDuration":146725,"Delta":216178818},{"NoteNumber":67,"Velocity":50,"Duration":117379,"SoundDuration":117379,"Delta":216296198},{"NoteNumber":73,"Velocity":50,"Duration":119722,"SoundDuration":119722,"Delta":216413578},{"NoteNumber":79,"Velocity":48,"Duration":119722,"SoundDuration":119722,"Delta":216533300},{"NoteNumber":62,"Velocity":54,"Duration":119722,"SoundDuration":119722,"Delta":216653022},{"NoteNumber":69,"Velocity":46,"Duration":119722,"SoundDuration":119722,"Delta":216772745},{"NoteNumber":78,"Velocity":46,"Duration":119722,"SoundDuration":119722,"Delta":216892467},{"NoteNumber":86,"Velocity":47,"Duration":137249,"SoundDuration":137249,"Delta":217012189},{"NoteNumber":74,"Velocity":47,"Duration":507227,"SoundDuration":507227,"Delta":217149439},{"NoteNumber":78,"Velocity":56,"Duration":507227,"SoundDuration":507227,"Delta":217149439},{"NoteNumber":57,"Velocity":43,"Duration":507227,"SoundDuration":507227,"Delta":217149439},{"NoteNumber":73,"Velocity":42,"Duration":253613,"SoundDuration":253613,"Delta":217656667},{"NoteNumber":76,"Velocity":50,"Duration":253613,"SoundDuration":253613,"Delta":217656667},{"NoteNumber":45,"Velocity":36,"Duration":253613,"SoundDuration":253613,"Delta":217656667},{"NoteNumber":78,"Velocity":52,"Duration":124698,"SoundDuration":124698,"Delta":218163895},{"NoteNumber":74,"Velocity":57,"Duration":124698,"SoundDuration":124698,"Delta":218288593},{"NoteNumber":81,"Velocity":61,"Duration":124698,"SoundDuration":124698,"Delta":218413292},{"NoteNumber":78,"Velocity":61,"Duration":124698,"SoundDuration":124698,"Delta":218537991},{"NoteNumber":86,"Velocity":73,"Duration":120685,"SoundDuration":120685,"Delta":218662690},{"NoteNumber":81,"Velocity":57,"Duration":120685,"SoundDuration":120685,"Delta":218783375},{"NoteNumber":78,"Velocity":57,"Duration":120685,"SoundDuration":120685,"Delta":218904061},{"NoteNumber":74,"Velocity":57,"Duration":120685,"SoundDuration":120685,"Delta":219024746},{"NoteNumber":71,"Velocity":65,"Duration":146839,"SoundDuration":146839,"Delta":219145432},{"NoteNumber":74,"Velocity":53,"Duration":117472,"SoundDuration":117472,"Delta":219262904},{"NoteNumber":76,"Velocity":53,"Duration":118026,"SoundDuration":118026,"Delta":219380376},{"NoteNumber":80,"Velocity":53,"Duration":118026,"SoundDuration":118026,"Delta":219498402},{"NoteNumber":73,"Velocity":64,"Duration":146267,"SoundDuration":146267,"Delta":219616429},{"NoteNumber":76,"Velocity":53,"Duration":117013,"SoundDuration":117013,"Delta":219733442},{"NoteNumber":85,"Velocity":53,"Duration":117933,"SoundDuration":117933,"Delta":219850456},{"NoteNumber":88,"Velocity":53,"Duration":119913,"SoundDuration":119913,"Delta":219968390},{"NoteNumber":71,"Velocity":61,"Duration":146267,"SoundDuration":146267,"Delta":220088304},{"NoteNumber":74,"Velocity":49,"Duration":117013,"SoundDuration":117013,"Delta":220205317},{"NoteNumber":79,"Velocity":49,"Duration":118399,"SoundDuration":118399,"Delta":220322331},{"NoteNumber":83,"Velocity":46,"Duration":118399,"SoundDuration":118399,"Delta":220440730},{"NoteNumber":69,"Velocity":57,"Duration":147301,"SoundDuration":147301,"Delta":220559130},{"NoteNumber":73,"Velocity":43,"Duration":117841,"SoundDuration":117841,"Delta":220676971},{"NoteNumber":78,"Velocity":43,"Duration":118305,"SoundDuration":118305,"Delta":220794812},{"NoteNumber":81,"Velocity":43,"Duration":117841,"SoundDuration":117841,"Delta":220913118},{"NoteNumber":67,"Velocity":50,"Duration":147771,"SoundDuration":147771,"Delta":221030959},{"NoteNumber":71,"Velocity":45,"Duration":119722,"SoundDuration":119722,"Delta":221148800},{"NoteNumber":76,"Velocity":45,"Duration":119722,"SoundDuration":119722,"Delta":221268523},{"NoteNumber":79,"Velocity":45,"Duration":125743,"SoundDuration":125743,"Delta":221388245},{"NoteNumber":66,"Velocity":61,"Duration":149652,"SoundDuration":149652,"Delta":221513989},{"NoteNumber":69,"Velocity":50,"Duration":119722,"SoundDuration":119722,"Delta":221633711},{"NoteNumber":74,"Velocity":50,"Duration":122159,"SoundDuration":122159,"Delta":221753433},{"NoteNumber":78,"Velocity":47,"Duration":122159,"SoundDuration":122159,"Delta":221875593},{"NoteNumber":67,"Velocity":54,"Duration":150856,"SoundDuration":150856,"Delta":221997753},{"NoteNumber":71,"Velocity":43,"Duration":120685,"SoundDuration":120685,"Delta":222118438},{"NoteNumber":76,"Velocity":43,"Duration":120685,"SoundDuration":120685,"Delta":222239124},{"NoteNumber":79,"Velocity":42,"Duration":132990,"SoundDuration":132990,"Delta":222359809},{"NoteNumber":57,"Velocity":50,"Duration":124182,"SoundDuration":124182,"Delta":222492800},{"NoteNumber":64,"Velocity":38,"Duration":124182,"SoundDuration":124182,"Delta":222616982},{"NoteNumber":67,"Velocity":38,"Duration":131245,"SoundDuration":131245,"Delta":222741165},{"NoteNumber":73,"Velocity":38,"Duration":145222,"SoundDuration":145222,"Delta":222872410},{"NoteNumber":74,"Velocity":50,"Duration":507227,"SoundDuration":507227,"Delta":223017632},{"NoteNumber":66,"Velocity":50,"Duration":507227,"SoundDuration":507227,"Delta":223017632},{"NoteNumber":62,"Velocity":39,"Duration":507227,"SoundDuration":507227,"Delta":223017632},{"NoteNumber":50,"Velocity":33,"Duration":253613,"SoundDuration":253613,"Delta":223524860},{"NoteNumber":78,"Velocity":39,"Duration":124698,"SoundDuration":124698,"Delta":224032088},{"NoteNumber":74,"Velocity":41,"Duration":124698,"SoundDuration":124698,"Delta":224156787},{"NoteNumber":81,"Velocity":45,"Duration":124698,"SoundDuration":124698,"Delta":224281486},{"NoteNumber":78,"Velocity":47,"Duration":124698,"SoundDuration":124698,"Delta":224406184},{"NoteNumber":86,"Velocity":53,"Duration":123011,"SoundDuration":123011,"Delta":224530883},{"NoteNumber":81,"Velocity":41,"Duration":123011,"SoundDuration":123011,"Delta":224653894},{"NoteNumber":78,"Velocity":41,"Duration":123011,"SoundDuration":123011,"Delta":224776906},{"NoteNumber":74,"Velocity":41,"Duration":123011,"SoundDuration":123011,"Delta":224899917},{"NoteNumber":71,"Velocity":51,"Duration":144575,"SoundDuration":144575,"Delta":225022928},{"NoteNumber":74,"Velocity":42,"Duration":115660,"SoundDuration":115660,"Delta":225138589},{"NoteNumber":76,"Velocity":42,"Duration":117933,"SoundDuration":117933,"Delta":225254249},{"NoteNumber":80,"Velocity":38,"Duration":117933,"SoundDuration":117933,"Delta":225372183},{"NoteNumber":73,"Velocity":51,"Duration":147882,"SoundDuration":147882,"Delta":225490117},{"NoteNumber":76,"Velocity":41,"Duration":118305,"SoundDuration":118305,"Delta":225608422},{"NoteNumber":85,"Velocity":39,"Duration":118305,"SoundDuration":118305,"Delta":225726728},{"NoteNumber":88,"Velocity":38,"Duration":122860,"SoundDuration":122860,"Delta":225845034},{"NoteNumber":71,"Velocity":46,"Duration":146725,"SoundDuration":146725,"Delta":225967894},{"NoteNumber":74,"Velocity":39,"Duration":117379,"SoundDuration":117379,"Delta":226085274},{"NoteNumber":79,"Velocity":39,"Duration":117471,"SoundDuration":117471,"Delta":226202654},{"NoteNumber":83,"Velocity":39,"Duration":118868,"SoundDuration":118868,"Delta":226320126},{"NoteNumber":69,"Velocity":43,"Duration":146153,"SoundDuration":146153,"Delta":226438994},{"NoteNumber":73,"Velocity":35,"Duration":116922,"SoundDuration":116922,"Delta":226555917},{"NoteNumber":78,"Velocity":35,"Duration":118774,"SoundDuration":118774,"Delta":226672839},{"NoteNumber":81,"Velocity":35,"Duration":118774,"SoundDuration":118774,"Delta":226791614},{"NoteNumber":67,"Velocity":41,"Duration":146267,"SoundDuration":146267,"Delta":226910388},{"NoteNumber":71,"Velocity":36,"Duration":117379,"SoundDuration":117379,"Delta":227027310},{"NoteNumber":76,"Velocity":36,"Duration":117841,"SoundDuration":117841,"Delta":227144690},{"NoteNumber":79,"Velocity":33,"Duration":122358,"SoundDuration":122358,"Delta":227262532},{"NoteNumber":66,"Velocity":45,"Duration":146725,"SoundDuration":146725,"Delta":227384891},{"NoteNumber":69,"Velocity":37,"Duration":117379,"SoundDuration":117379,"Delta":227502271},{"NoteNumber":74,"Velocity":37,"Duration":118774,"SoundDuration":118774,"Delta":227619651},{"NoteNumber":78,"Velocity":35,"Duration":118774,"SoundDuration":118774,"Delta":227738425},{"NoteNumber":64,"Velocity":41,"Duration":146725,"SoundDuration":146725,"Delta":227857199},{"NoteNumber":67,"Velocity":37,"Duration":117379,"SoundDuration":117379,"Delta":227974579},{"NoteNumber":73,"Velocity":37,"Duration":119722,"SoundDuration":119722,"Delta":228091959},{"NoteNumber":79,"Velocity":36,"Duration":119722,"SoundDuration":119722,"Delta":228211681},{"NoteNumber":62,"Velocity":40,"Duration":121861,"SoundDuration":121861,"Delta":228331404},{"NoteNumber":69,"Velocity":34,"Duration":121861,"SoundDuration":121861,"Delta":228453266},{"NoteNumber":78,"Velocity":34,"Duration":121862,"SoundDuration":121862,"Delta":228575128},{"NoteNumber":86,"Velocity":35,"Duration":137249,"SoundDuration":137249,"Delta":228696990},{"NoteNumber":74,"Velocity":35,"Duration":507227,"SoundDuration":507227,"Delta":228834239},{"NoteNumber":78,"Velocity":42,"Duration":507227,"SoundDuration":507227,"Delta":228834239},{"NoteNumber":57,"Velocity":32,"Duration":507227,"SoundDuration":507227,"Delta":228834239},{"NoteNumber":73,"Velocity":31,"Duration":253613,"SoundDuration":253613,"Delta":229341467},{"NoteNumber":76,"Velocity":37,"Duration":253613,"SoundDuration":253613,"Delta":229341467},{"NoteNumber":45,"Velocity":27,"Duration":253613,"SoundDuration":253613,"Delta":229341467},{"NoteNumber":78,"Velocity":39,"Duration":124698,"SoundDuration":124698,"Delta":229848695},{"NoteNumber":74,"Velocity":42,"Duration":124698,"SoundDuration":124698,"Delta":229973394},{"NoteNumber":81,"Velocity":45,"Duration":124698,"SoundDuration":124698,"Delta":230098093},{"NoteNumber":78,"Velocity":45,"Duration":124698,"SoundDuration":124698,"Delta":230222791},{"NoteNumber":86,"Velocity":54,"Duration":120685,"SoundDuration":120685,"Delta":230347490},{"NoteNumber":81,"Velocity":42,"Duration":120685,"SoundDuration":120685,"Delta":230468176},{"NoteNumber":78,"Velocity":42,"Duration":120685,"SoundDuration":120685,"Delta":230588861},{"NoteNumber":74,"Velocity":42,"Duration":120685,"SoundDuration":120685,"Delta":230709547},{"NoteNumber":71,"Velocity":48,"Duration":145699,"SoundDuration":145699,"Delta":230830232},{"NoteNumber":74,"Velocity":39,"Duration":116559,"SoundDuration":116559,"Delta":230946791},{"NoteNumber":76,"Velocity":39,"Duration":116649,"SoundDuration":116649,"Delta":231063351},{"NoteNumber":80,"Velocity":39,"Duration":116649,"SoundDuration":116649,"Delta":231180000},{"NoteNumber":73,"Velocity":48,"Duration":146267,"SoundDuration":146267,"Delta":231296650},{"NoteNumber":76,"Velocity":39,"Duration":117013,"SoundDuration":117013,"Delta":231413664},{"NoteNumber":85,"Velocity":39,"Duration":117563,"SoundDuration":117563,"Delta":231530678},{"NoteNumber":88,"Velocity":39,"Duration":119436,"SoundDuration":119436,"Delta":231648242},{"NoteNumber":71,"Velocity":45,"Duration":146267,"SoundDuration":146267,"Delta":231767678},{"NoteNumber":74,"Velocity":36,"Duration":117013,"SoundDuration":117013,"Delta":231884692},{"NoteNumber":79,"Velocity":36,"Duration":119722,"SoundDuration":119722,"Delta":232001705},{"NoteNumber":83,"Velocity":34,"Duration":119722,"SoundDuration":119722,"Delta":232121428},{"NoteNumber":69,"Velocity":42,"Duration":148679,"SoundDuration":148679,"Delta":232241150},{"NoteNumber":73,"Velocity":32,"Duration":119246,"SoundDuration":119246,"Delta":232360018},{"NoteNumber":78,"Velocity":32,"Duration":118774,"SoundDuration":118774,"Delta":232479264},{"NoteNumber":81,"Velocity":32,"Duration":118305,"SoundDuration":118305,"Delta":232598039},{"NoteNumber":67,"Velocity":37,"Duration":148329,"SoundDuration":148329,"Delta":232716344},{"NoteNumber":71,"Velocity":33,"Duration":119722,"SoundDuration":119722,"Delta":232834744},{"NoteNumber":76,"Velocity":33,"Duration":119722,"SoundDuration":119722,"Delta":232954466},{"NoteNumber":79,"Velocity":33,"Duration":125743,"SoundDuration":125743,"Delta":233074188},{"NoteNumber":66,"Velocity":45,"Duration":151466,"SoundDuration":151466,"Delta":233199932},{"NoteNumber":69,"Velocity":37,"Duration":121172,"SoundDuration":121172,"Delta":233321105},{"NoteNumber":74,"Velocity":37,"Duration":125743,"SoundDuration":125743,"Delta":233442278},{"NoteNumber":78,"Velocity":35,"Duration":125743,"SoundDuration":125743,"Delta":233568022},{"NoteNumber":67,"Velocity":40,"Duration":154588,"SoundDuration":154588,"Delta":233693766},{"NoteNumber":71,"Velocity":32,"Duration":123670,"SoundDuration":123670,"Delta":233817437},{"NoteNumber":76,"Velocity":32,"Duration":123670,"SoundDuration":123670,"Delta":233941107},{"NoteNumber":79,"Velocity":31,"Duration":132990,"SoundDuration":132990,"Delta":234064778},{"NoteNumber":57,"Velocity":37,"Duration":142463,"SoundDuration":142463,"Delta":234197768},{"NoteNumber":64,"Velocity":28,"Duration":142463,"SoundDuration":142463,"Delta":234340232},{"NoteNumber":67,"Velocity":28,"Duration":151072,"SoundDuration":151072,"Delta":234482696},{"NoteNumber":73,"Velocity":28,"Duration":186822,"SoundDuration":186822,"Delta":234633768},{"NoteNumber":74,"Velocity":37,"Duration":647319,"SoundDuration":647319,"Delta":234820591},{"NoteNumber":66,"Velocity":37,"Duration":647319,"SoundDuration":647319,"Delta":234820591},{"NoteNumber":62,"Velocity":29,"Duration":647319,"SoundDuration":647319,"Delta":234820591},{"NoteNumber":50,"Velocity":24,"Duration":323659,"SoundDuration":323659,"Delta":235467910}],"license":{"name":"Creative Commons Attribution-ShareAlike 3.0 Germany","url":"http://creativecommons.org/licenses/by-sa/3.0/de/deed.en","text":"The MIDI, audio (MP3, OGG) and video files of Bernd Krueger are licensed under the cc-by-sa Germany License. This means that you can use and adapt the files, as long as you attribute the copyright holder.\n\nName: Bernd Krueger\nSource: http://www.piano-midi.de\n\nThe distribution or public playback of the files is only allowed under identical license conditions.\n\nThe scores are open source.","attribution":"MIDI files by Bernd Krueger (piano-midi.de)","attributionUrl":"http://www.piano-midi.de"}}