{"title":"Klaviersonate Hob. XVI:7, 2. Satz","artist":"Haydn","durationMs":139424,"midiSha256":"28c4f42d2878f697a438f7401b260d2844bda69cc63acf18e33546e0476aee3f","midiObject":[{"NoteNumber":72,"Velocity":57,"Duration":530786,"SoundDuration":530786,"Delta":0},{"NoteNumber":48,"Velocity":40,"Duration":796179,"SoundDuration":796179,"Delta":0},{"NoteNumber":60,"Velocity":46,"Duration":796179,"SoundDuration":796179,"Delta":0},{"NoteNumber":84,"Velocity":57,"Duration":132696,"SoundDuration":132696,"Delta":530786},{"NoteNumber":76,"Velocity":57,"Duration":257135,"SoundDuration":257135,"Delta":1061572},{"NoteNumber":60,"Velocity":37,"Duration":524130,"SoundDuration":524130,"Delta":1061572},{"NoteNumber":79,"Velocity":48,"Duration":138427,"SoundDuration":138427,"Delta":1447275},{"NoteNumber":77,"Velocity":57,"Duration":530786,"SoundDuration":530786,"Delta":1585702},{"NoteNumber":62,"Velocity":46,"Duration":530786,"SoundDuration":530786,"Delta":1585702},{"NoteNumber":74,"Velocity":52,"Duration":132696,"SoundDuration":132696,"Delta":2116488},{"NoteNumber":59,"Velocity":42,"Duration":132696,"SoundDuration":132696,"Delta":2116488},{"NoteNumber":74,"Velocity":57,"Duration":258286,"SoundDuration":258286,"Delta":2647274},{"NoteNumber":55,"Velocity":40,"Duration":525195,"SoundDuration":525195,"Delta":2647274},{"NoteNumber":77,"Velocity":54,"Duration":137766,"SoundDuration":137766,"Delta":3034704},{"NoteNumber":76,"Velocity":57,"Duration":530786,"SoundDuration":530786,"Delta":3172470},{"NoteNumber":60,"Velocity":46,"Duration":530786,"SoundDuration":530786,"Delta":3172470},{"NoteNumber":72,"Velocity":54,"Duration":132696,"SoundDuration":132696,"Delta":3703256},{"NoteNumber":52,"Velocity":39,"Duration":132696,"SoundDuration":132696,"Delta":3703256},{"NoteNumber":69,"Velocity":58,"Duration":259447,"SoundDuration":259447,"Delta":4234042},{"NoteNumber":53,"Velocity":42,"Duration":528267,"SoundDuration":528267,"Delta":4234042},{"NoteNumber":74,"Velocity":46,"Duration":139095,"SoundDuration":139095,"Delta":4623214},{"NoteNumber":72,"Velocity":58,"Duration":1064160,"SoundDuration":1064160,"Delta":4762309},{"NoteNumber":55,"Velocity":46,"Duration":525947,"SoundDuration":525947,"Delta":4762309},{"NoteNumber":50,"Velocity":40,"Duration":134553,"SoundDuration":134553,"Delta":5288256},{"NoteNumber":71,"Velocity":55,"Duration":269106,"SoundDuration":269106,"Delta":5826469},{"NoteNumber":43,"Velocity":42,"Duration":269106,"SoundDuration":269106,"Delta":5826469},{"NoteNumber":74,"Velocity":75,"Duration":521240,"SoundDuration":521240,"Delta":6364682},{"NoteNumber":55,"Velocity":50,"Duration":521240,"SoundDuration":521240,"Delta":6364682},{"NoteNumber":59,"Velocity":59,"Duration":521240,"SoundDuration":521240,"Delta":6364682},{"NoteNumber":79,"Velocity":57,"Duration":126871,"SoundDuration":126871,"Delta":6885923},{"NoteNumber":78,"Velocity":55,"Duration":126871,"SoundDuration":126871,"Delta":7012795},{"NoteNumber":79,"Velocity":57,"Duration":126871,"SoundDuration":126871,"Delta":7139666},{"NoteNumber":81,"Velocity":55,"Duration":126871,"SoundDuration":126871,"Delta":7266537},{"NoteNumber":83,"Velocity":62,"Duration":126871,"SoundDuration":126871,"Delta":7393408},{"NoteNumber":81,"Velocity":55,"Duration":126871,"SoundDuration":126871,"Delta":7520280},{"NoteNumber":83,"Velocity":62,"Duration":126871,"SoundDuration":126871,"Delta":7647151},{"NoteNumber":84,"Velocity":59,"Duration":126871,"SoundDuration":126871,"Delta":7774022},{"NoteNumber":86,"Velocity":73,"Duration":518895,"SoundDuration":518895,"Delta":7900893},{"NoteNumber":55,"Velocity":50,"Duration":518895,"SoundDuration":518895,"Delta":7900893},{"NoteNumber":59,"Velocity":59,"Duration":518895,"SoundDuration":518895,"Delta":7900893},{"NoteNumber":79,"Velocity":57,"Duration":126871,"SoundDuration":126871,"Delta":8419789},{"NoteNumber":78,"Velocity":55,"Duration":126871,"SoundDuration":126871,"Delta":8546661},{"NoteNumber":79,"Velocity":57,"Duration":126871,"SoundDuration":126871,"Delta":8673532},{"NoteNumber":81,"Velocity":55,"Duration":126871,"SoundDuration":126871,"Delta":8800403},{"NoteNumber":83,"Velocity":62,"Duration":126871,"SoundDuration":126871,"Delta":8927274},{"NoteNumber":81,"Velocity":55,"Duration":126871,"SoundDuration":126871,"Delta":9054146},{"NoteNumber":83,"Velocity":62,"Duration":126871,"SoundDuration":126871,"Delta":9181017},{"NoteNumber":84,"Velocity":59,"Duration":126871,"SoundDuration":126871,"Delta":9307888},{"NoteNumber":86,"Velocity":75,"Duration":518895,"SoundDuration":518895,"Delta":9434759},{"NoteNumber":55,"Velocity":50,"Duration":518895,"SoundDuration":518895,"Delta":9434759},{"NoteNumber":59,"Velocity":59,"Duration":518895,"SoundDuration":518895,"Delta":9434759},{"NoteNumber":71,"Velocity":58,"Duration":517973,"SoundDuration":517973,"Delta":9953655},{"NoteNumber":62,"Velocity":41,"Duration":517973,"SoundDuration":517973,"Delta":9953655},{"NoteNumber":69,"Velocity":57,"Duration":65136,"SoundDuration":65136,"Delta":10471628},{"NoteNumber":50,"Velocity":35,"Duration":511832,"SoundDuration":511832,"Delta":10471628},{"NoteNumber":71,"Velocity":50,"Duration":64227,"SoundDuration":64227,"Delta":10536765},{"NoteNumber":69,"Velocity":52,"Duration":63353,"SoundDuration":63353,"Delta":10600992},{"NoteNumber":71,"Velocity":58,"Duration":62488,"SoundDuration":62488,"Delta":10664346},{"NoteNumber":69,"Velocity":49,"Duration":78931,"SoundDuration":78931,"Delta":10726834},{"NoteNumber":71,"Velocity":52,"Duration":79999,"SoundDuration":79999,"Delta":10805765},{"NoteNumber":69,"Velocity":52,"Duration":81333,"SoundDuration":81333,"Delta":10885765},{"NoteNumber":67,"Velocity":58,"Duration":1086779,"SoundDuration":1086779,"Delta":10983461},{"NoteNumber":55,"Velocity":46,"Duration":535714,"SoundDuration":535714,"Delta":10983461},{"NoteNumber":50,"Velocity":40,"Duration":137766,"SoundDuration":137766,"Delta":11519175},{"NoteNumber":43,"Velocity":42,"Duration":275532,"SoundDuration":275532,"Delta":12070240},{"NoteNumber":72,"Velocity":57,"Duration":523220,"SoundDuration":523220,"Delta":12621305},{"NoteNumber":48,"Velocity":40,"Duration":787002,"SoundDuration":787002,"Delta":12621305},{"NoteNumber":60,"Velocity":46,"Duration":787002,"SoundDuration":787002,"Delta":12621305},{"NoteNumber":84,"Velocity":57,"Duration":131891,"SoundDuration":131891,"Delta":13144525},{"NoteNumber":76,"Velocity":57,"Duration":257135,"SoundDuration":257135,"Delta":13672090},{"NoteNumber":60,"Velocity":37,"Duration":524130,"SoundDuration":524130,"Delta":13672090},{"NoteNumber":79,"Velocity":48,"Duration":138427,"SoundDuration":138427,"Delta":14057793},{"NoteNumber":77,"Velocity":57,"Duration":530786,"SoundDuration":530786,"Delta":14196220},{"NoteNumber":62,"Velocity":46,"Duration":530786,"SoundDuration":530786,"Delta":14196220},{"NoteNumber":74,"Velocity":52,"Duration":132696,"SoundDuration":132696,"Delta":14727006},{"NoteNumber":59,"Velocity":42,"Duration":132696,"SoundDuration":132696,"Delta":14727006},{"NoteNumber":74,"Velocity":57,"Duration":258286,"SoundDuration":258286,"Delta":15257792},{"NoteNumber":55,"Velocity":40,"Duration":525196,"SoundDuration":525196,"Delta":15257792},{"NoteNumber":77,"Velocity":54,"Duration":137766,"SoundDuration":137766,"Delta":15645222},{"NoteNumber":76,"Velocity":57,"Duration":530785,"SoundDuration":530785,"Delta":15782988},{"NoteNumber":60,"Velocity":46,"Duration":530785,"SoundDuration":530785,"Delta":15782988},{"NoteNumber":72,"Velocity":54,"Duration":132696,"SoundDuration":132696,"Delta":16313774},{"NoteNumber":52,"Velocity":39,"Duration":132696,"SoundDuration":132696,"Delta":16313774},{"NoteNumber":69,"Velocity":58,"Duration":259447,"SoundDuration":259447,"Delta":16844560},{"NoteNumber":53,"Velocity":42,"Duration":528266,"SoundDuration":528266,"Delta":16844560},{"NoteNumber":74,"Velocity":46,"Duration":139095,"SoundDuration":139095,"Delta":17233732},{"NoteNumber":72,"Velocity":58,"Duration":1067066,"SoundDuration":1067066,"Delta":17372827},{"NoteNumber":55,"Velocity":46,"Duration":528853,"SoundDuration":528853,"Delta":17372827},{"NoteNumber":50,"Velocity":40,"Duration":134553,"SoundDuration":134553,"Delta":17901681},{"NoteNumber":71,"Velocity":55,"Duration":269106,"SoundDuration":269106,"Delta":18439894},{"NoteNumber":43,"Velocity":42,"Duration":269106,"SoundDuration":269106,"Delta":18439894},{"NoteNumber":74,"Velocity":75,"Duration":521240,"SoundDuration":521240,"Delta":18978107},{"NoteNumber":55,"Velocity":50,"Duration":521240,"SoundDuration":521240,"Delta":18978107},{"NoteNumber":59,"Velocity":59,"Duration":521240,"SoundDuration":521240,"Delta":18978107},{"NoteNumber":79,"Velocity":57,"Duration":126871,"SoundDuration":126871,"Delta":19499348},{"NoteNumber":78,"Velocity":55,"Duration":126871,"SoundDuration":126871,"Delta":19626219},{"NoteNumber":79,"Velocity":57,"Duration":126871,"SoundDuration":126871,"Delta":19753090},{"NoteNumber":81,"Velocity":55,"Duration":126871,"SoundDuration":126871,"Delta":19879962},{"NoteNumber":83,"Velocity":62,"Duration":126336,"SoundDuration":126336,"Delta":20006833},{"NoteNumber":81,"Velocity":55,"Duration":126336,"SoundDuration":126336,"Delta":20133170},{"NoteNumber":83,"Velocity":62,"Duration":126336,"SoundDuration":126336,"Delta":20259507},{"NoteNumber":84,"Velocity":59,"Duration":126337,"SoundDuration":126337,"Delta":20385844},{"NoteNumber":86,"Velocity":75,"Duration":518896,"SoundDuration":518896,"Delta":20512181},{"NoteNumber":55,"Velocity":50,"Duration":518896,"SoundDuration":518896,"Delta":20512181},{"NoteNumber":59,"Velocity":59,"Duration":518896,"SoundDuration":518896,"Delta":20512181},{"NoteNumber":79,"Velocity":57,"Duration":126871,"SoundDuration":126871,"Delta":21031077},{"NoteNumber":78,"Velocity":55,"Duration":126871,"SoundDuration":126871,"Delta":21157948},{"NoteNumber":79,"Velocity":57,"Duration":126871,"SoundDuration":126871,"Delta":21284819},{"NoteNumber":81,"Velocity":55,"Duration":126871,"SoundDuration":126871,"Delta":21411691},{"NoteNumber":83,"Velocity":62,"Duration":126871,"SoundDuration":126871,"Delta":21538562},{"NoteNumber":81,"Velocity":55,"Duration":126871,"SoundDuration":126871,"Delta":21665433},{"NoteNumber":83,"Velocity":62,"Duration":126871,"SoundDuration":126871,"Delta":21792304},{"NoteNumber":84,"Velocity":59,"Duration":126871,"SoundDuration":126871,"Delta":21919176},{"NoteNumber":86,"Velocity":76,"Duration":518896,"SoundDuration":518896,"Delta":22046047},{"NoteNumber":55,"Velocity":50,"Duration":518896,"SoundDuration":518896,"Delta":22046047},{"NoteNumber":59,"Velocity":59,"Duration":518896,"SoundDuration":518896,"Delta":22046047},{"NoteNumber":71,"Velocity":58,"Duration":517973,"SoundDuration":517973,"Delta":22564943},{"NoteNumber":62,"Velocity":41,"Duration":517973,"SoundDuration":517973,"Delta":22564943},{"NoteNumber":69,"Velocity":57,"Duration":65136,"SoundDuration":65136,"Delta":23082916},{"NoteNumber":50,"Velocity":35,"Duration":511832,"SoundDuration":511832,"Delta":23082916},{"NoteNumber":71,"Velocity":50,"Duration":64227,"SoundDuration":64227,"Delta":23148052},{"NoteNumber":69,"Velocity":52,"Duration":63353,"SoundDuration":63353,"Delta":23212280},{"NoteNumber":71,"Velocity":58,"Duration":62488,"SoundDuration":62488,"Delta":23275633},{"NoteNumber":69,"Velocity":49,"Duration":78931,"SoundDuration":78931,"Delta":23338122},{"NoteNumber":71,"Velocity":52,"Duration":79999,"SoundDuration":79999,"Delta":23417053},{"NoteNumber":69,"Velocity":52,"Duration":81333,"SoundDuration":81333,"Delta":23497053},{"NoteNumber":67,"Velocity":58,"Duration":1095258,"SoundDuration":1095258,"Delta":23594748},{"NoteNumber":55,"Velocity":46,"Duration":535713,"SoundDuration":535713,"Delta":23594748},{"NoteNumber":50,"Velocity":40,"Duration":139886,"SoundDuration":139886,"Delta":24130462},{"NoteNumber":43,"Velocity":42,"Duration":279772,"SoundDuration":279772,"Delta":24690007},{"NoteNumber":79,"Velocity":57,"Duration":482974,"SoundDuration":482974,"Delta":25249552},{"NoteNumber":76,"Velocity":46,"Duration":747922,"SoundDuration":747922,"Delta":25249552},{"NoteNumber":84,"Velocity":57,"Duration":132473,"SoundDuration":132473,"Delta":25732527},{"NoteNumber":76,"Velocity":57,"Duration":257135,"SoundDuration":257135,"Delta":26262422},{"NoteNumber":72,"Velocity":37,"Duration":524130,"SoundDuration":524130,"Delta":26262422},{"NoteNumber":79,"Velocity":48,"Duration":138427,"SoundDuration":138427,"Delta":26648126},{"NoteNumber":77,"Velocity":57,"Duration":488877,"SoundDuration":488877,"Delta":26786553},{"NoteNumber":74,"Velocity":46,"Duration":488877,"SoundDuration":488877,"Delta":26786553},{"NoteNumber":86,"Velocity":52,"Duration":132473,"SoundDuration":132473,"Delta":27275431},{"NoteNumber":71,"Velocity":42,"Duration":132473,"SoundDuration":132473,"Delta":27275431},{"NoteNumber":74,"Velocity":57,"Duration":258286,"SoundDuration":258286,"Delta":27805326},{"NoteNumber":67,"Velocity":40,"Duration":525195,"SoundDuration":525195,"Delta":27805326},{"NoteNumber":77,"Velocity":54,"Duration":137766,"SoundDuration":137766,"Delta":28192756},{"NoteNumber":76,"Velocity":57,"Duration":518896,"SoundDuration":518896,"Delta":28330522},{"NoteNumber":72,"Velocity":46,"Duration":518896,"SoundDuration":518896,"Delta":28330522},{"NoteNumber":79,"Velocity":62,"Duration":540345,"SoundDuration":540345,"Delta":28849418},{"NoteNumber":64,"Velocity":39,"Duration":540345,"SoundDuration":540345,"Delta":28849418},{"NoteNumber":80,"Velocity":58,"Duration":387163,"SoundDuration":387163,"Delta":29389764},{"NoteNumber":65,"Velocity":46,"Duration":526258,"SoundDuration":526258,"Delta":29389764},{"NoteNumber":81,"Velocity":51,"Duration":138207,"SoundDuration":138207,"Delta":29793155},{"NoteNumber":72,"Velocity":58,"Duration":1064159,"SoundDuration":1064159,"Delta":29916022},{"NoteNumber":67,"Velocity":54,"Duration":525946,"SoundDuration":525946,"Delta":29916022},{"NoteNumber":62,"Velocity":40,"Duration":134553,"SoundDuration":134553,"Delta":30441969},{"NoteNumber":71,"Velocity":55,"Duration":269106,"SoundDuration":269106,"Delta":30980182},{"NoteNumber":55,"Velocity":42,"Duration":269106,"SoundDuration":269106,"Delta":30980182},{"NoteNumber":67,"Velocity":75,"Duration":521240,"SoundDuration":521240,"Delta":31518395},{"NoteNumber":48,"Velocity":50,"Duration":521240,"SoundDuration":521240,"Delta":31518395},{"NoteNumber":52,"Velocity":50,"Duration":521240,"SoundDuration":521240,"Delta":31518395},{"NoteNumber":55,"Velocity":50,"Duration":521240,"SoundDuration":521240,"Delta":31518395},{"NoteNumber":60,"Velocity":59,"Duration":521240,"SoundDuration":521240,"Delta":31518395},{"NoteNumber":72,"Velocity":57,"Duration":126871,"SoundDuration":126871,"Delta":32039636},{"NoteNumber":71,"Velocity":55,"Duration":126871,"SoundDuration":126871,"Delta":32166507},{"NoteNumber":72,"Velocity":57,"Duration":126871,"SoundDuration":126871,"Delta":32288092},{"NoteNumber":74,"Velocity":55,"Duration":126871,"SoundDuration":126871,"Delta":32420250},{"NoteNumber":76,"Velocity":62,"Duration":125348,"SoundDuration":125348,"Delta":32541835},{"NoteNumber":74,"Velocity":55,"Duration":125281,"SoundDuration":125281,"Delta":32672403},{"NoteNumber":76,"Velocity":62,"Duration":125281,"SoundDuration":125281,"Delta":32792465},{"NoteNumber":77,"Velocity":59,"Duration":125281,"SoundDuration":125281,"Delta":32922967},{"NoteNumber":79,"Velocity":81,"Duration":518895,"SoundDuration":518895,"Delta":33048249},{"NoteNumber":48,"Velocity":50,"Duration":518895,"SoundDuration":518895,"Delta":33048249},{"NoteNumber":52,"Velocity":50,"Duration":518895,"SoundDuration":518895,"Delta":33048249},{"NoteNumber":55,"Velocity":50,"Duration":518895,"SoundDuration":518895,"Delta":33048249},{"NoteNumber":60,"Velocity":59,"Duration":518895,"SoundDuration":518895,"Delta":33048249},{"NoteNumber":72,"Velocity":57,"Duration":253742,"SoundDuration":253742,"Delta":33567145},{"NoteNumber":74,"Velocity":57,"Duration":126371,"SoundDuration":126371,"Delta":33820888},{"NoteNumber":76,"Velocity":55,"Duration":126063,"SoundDuration":126063,"Delta":33947259},{"NoteNumber":77,"Velocity":63,"Duration":125751,"SoundDuration":125751,"Delta":34073322},{"NoteNumber":79,"Velocity":65,"Duration":125219,"SoundDuration":125219,"Delta":34199074},{"NoteNumber":81,"Velocity":66,"Duration":124903,"SoundDuration":124903,"Delta":34324293},{"NoteNumber":83,"Velocity":69,"Duration":124601,"SoundDuration":124601,"Delta":34449196},{"NoteNumber":84,"Velocity":78,"Duration":518895,"SoundDuration":518895,"Delta":34573798},{"NoteNumber":52,"Velocity":59,"Duration":518895,"SoundDuration":518895,"Delta":34573798},{"NoteNumber":76,"Velocity":69,"Duration":518068,"SoundDuration":518068,"Delta":35092694},{"NoteNumber":72,"Velocity":58,"Duration":518068,"SoundDuration":518068,"Delta":35092694},{"NoteNumber":55,"Velocity":41,"Duration":518068,"SoundDuration":518068,"Delta":35092694},{"NoteNumber":71,"Velocity":58,"Duration":527979,"SoundDuration":527979,"Delta":35610763},{"NoteNumber":74,"Velocity":69,"Duration":527979,"SoundDuration":527979,"Delta":35610763},{"NoteNumber":43,"Velocity":41,"Duration":527979,"SoundDuration":527979,"Delta":35610763},{"NoteNumber":67,"Velocity":60,"Duration":1370283,"SoundDuration":1370283,"Delta":36138742},{"NoteNumber":72,"Velocity":69,"Duration":1370283,"SoundDuration":1370283,"Delta":36138742},{"NoteNumber":64,"Velocity":60,"Duration":1370283,"SoundDuration":1370283,"Delta":36138742},{"NoteNumber":48,"Velocity":46,"Duration":535713,"SoundDuration":535713,"Delta":36138742},{"NoteNumber":43,"Velocity":40,"Duration":139094,"SoundDuration":139094,"Delta":36674456},{"NoteNumber":36,"Velocity":42,"Duration":278190,"SoundDuration":278190,"Delta":37230836},{"NoteNumber":79,"Velocity":57,"Duration":490878,"SoundDuration":490878,"Delta":37787216},{"NoteNumber":76,"Velocity":46,"Duration":744911,"SoundDuration":744911,"Delta":37787216},{"NoteNumber":84,"Velocity":57,"Duration":122719,"SoundDuration":122719,"Delta":38278094},{"NoteNumber":76,"Velocity":57,"Duration":257135,"SoundDuration":257135,"Delta":38794755},{"NoteNumber":72,"Velocity":37,"Duration":524130,"SoundDuration":524130,"Delta":38794755},{"NoteNumber":79,"Velocity":48,"Duration":138427,"SoundDuration":138427,"Delta":39180458},{"NoteNumber":77,"Velocity":57,"Duration":494926,"SoundDuration":494926,"Delta":39318886},{"NoteNumber":74,"Velocity":46,"Duration":494926,"SoundDuration":494926,"Delta":39318886},{"NoteNumber":86,"Velocity":52,"Duration":133061,"SoundDuration":133061,"Delta":39813813},{"NoteNumber":71,"Velocity":42,"Duration":133061,"SoundDuration":133061,"Delta":39813813},{"NoteNumber":74,"Velocity":57,"Duration":258286,"SoundDuration":258286,"Delta":40346058},{"NoteNumber":67,"Velocity":40,"Duration":525196,"SoundDuration":525196,"Delta":40346058},{"NoteNumber":77,"Velocity":54,"Duration":137766,"SoundDuration":137766,"Delta":40733488},{"NoteNumber":76,"Velocity":57,"Duration":518895,"SoundDuration":518895,"Delta":40871254},{"NoteNumber":72,"Velocity":46,"Duration":518895,"SoundDuration":518895,"Delta":40871254},{"NoteNumber":79,"Velocity":62,"Duration":527965,"SoundDuration":527965,"Delta":41390150},{"NoteNumber":64,"Velocity":39,"Duration":527965,"SoundDuration":527965,"Delta":41390150},{"NoteNumber":80,"Velocity":58,"Duration":389172,"SoundDuration":389172,"Delta":41918115},{"NoteNumber":65,"Velocity":46,"Duration":528266,"SoundDuration":528266,"Delta":41918115},{"NoteNumber":81,"Velocity":51,"Duration":138207,"SoundDuration":138207,"Delta":42323515},{"NoteNumber":72,"Velocity":59,"Duration":1064160,"SoundDuration":1064160,"Delta":42446382},{"NoteNumber":67,"Velocity":54,"Duration":525947,"SoundDuration":525947,"Delta":42446382},{"NoteNumber":62,"Velocity":40,"Duration":134553,"SoundDuration":134553,"Delta":42972329},{"NoteNumber":71,"Velocity":55,"Duration":269106,"SoundDuration":269106,"Delta":43510542},{"NoteNumber":55,"Velocity":42,"Duration":269106,"SoundDuration":269106,"Delta":43510542},{"NoteNumber":67,"Velocity":75,"Duration":521241,"SoundDuration":521241,"Delta":44048755},{"NoteNumber":48,"Velocity":50,"Duration":521241,"SoundDuration":521241,"Delta":44048755},{"NoteNumber":52,"Velocity":50,"Duration":521241,"SoundDuration":521241,"Delta":44048755},{"NoteNumber":55,"Velocity":50,"Duration":521241,"SoundDuration":521241,"Delta":44048755},{"NoteNumber":60,"Velocity":59,"Duration":521241,"SoundDuration":521241,"Delta":44048755},{"NoteNumber":72,"Velocity":57,"Duration":126871,"SoundDuration":126871,"Delta":44569996},{"NoteNumber":71,"Velocity":55,"Duration":126871,"SoundDuration":126871,"Delta":44696868},{"NoteNumber":72,"Velocity":57,"Duration":126871,"SoundDuration":126871,"Delta":44818453},{"NoteNumber":74,"Velocity":55,"Duration":126871,"SoundDuration":126871,"Delta":44950610},{"NoteNumber":76,"Velocity":62,"Duration":126871,"SoundDuration":126871,"Delta":45072195},{"NoteNumber":74,"Velocity":55,"Duration":126871,"SoundDuration":126871,"Delta":45204353},{"NoteNumber":76,"Velocity":62,"Duration":126871,"SoundDuration":126871,"Delta":45325938},{"NoteNumber":77,"Velocity":59,"Duration":126871,"SoundDuration":126871,"Delta":45458095},{"NoteNumber":79,"Velocity":81,"Duration":518895,"SoundDuration":518895,"Delta":45584966},{"NoteNumber":48,"Velocity":50,"Duration":518895,"SoundDuration":518895,"Delta":45584966},{"NoteNumber":52,"Velocity":50,"Duration":518895,"SoundDuration":518895,"Delta":45584966},{"NoteNumber":55,"Velocity":50,"Duration":518895,"SoundDuration":518895,"Delta":45584966},{"NoteNumber":60,"Velocity":59,"Duration":518895,"SoundDuration":518895,"Delta":45584966},{"NoteNumber":72,"Velocity":57,"Duration":253742,"SoundDuration":253742,"Delta":46103862},{"NoteNumber":74,"Velocity":57,"Duration":126371,"SoundDuration":126371,"Delta":46357605},{"NoteNumber":76,"Velocity":55,"Duration":126063,"SoundDuration":126063,"Delta":46483976},{"NoteNumber":77,"Velocity":63,"Duration":125751,"SoundDuration":125751,"Delta":46610040},{"NoteNumber":79,"Velocity":65,"Duration":125219,"SoundDuration":125219,"Delta":46735791},{"NoteNumber":81,"Velocity":66,"Duration":124903,"SoundDuration":124903,"Delta":46861010},{"NoteNumber":83,"Velocity":69,"Duration":124601,"SoundDuration":124601,"Delta":46985914},{"NoteNumber":84,"Velocity":78,"Duration":518895,"SoundDuration":518895,"Delta":47110516},{"NoteNumber":52,"Velocity":59,"Duration":518895,"SoundDuration":518895,"Delta":47110516},{"NoteNumber":76,"Velocity":69,"Duration":518068,"SoundDuration":518068,"Delta":47629412},{"NoteNumber":72,"Velocity":58,"Duration":518068,"SoundDuration":518068,"Delta":47629412},{"NoteNumber":55,"Velocity":41,"Duration":518068,"SoundDuration":518068,"Delta":47629412},{"NoteNumber":71,"Velocity":58,"Duration":527979,"SoundDuration":527979,"Delta":48147480},{"NoteNumber":74,"Velocity":69,"Duration":527979,"SoundDuration":527979,"Delta":48147480},{"NoteNumber":43,"Velocity":41,"Duration":527979,"SoundDuration":527979,"Delta":48147480},{"NoteNumber":67,"Velocity":60,"Duration":1367276,"SoundDuration":1367276,"Delta":48675459},{"NoteNumber":72,"Velocity":69,"Duration":1367276,"SoundDuration":1367276,"Delta":48675459},{"NoteNumber":64,"Velocity":60,"Duration":1367276,"SoundDuration":1367276,"Delta":48675459},{"NoteNumber":48,"Velocity":46,"Duration":535713,"SoundDuration":535713,"Delta":48675459},{"NoteNumber":43,"Velocity":40,"Duration":138593,"SoundDuration":138593,"Delta":49211173},{"NoteNumber":36,"Velocity":42,"Duration":277187,"SoundDuration":277187,"Delta":49765548},{"NoteNumber":48,"Velocity":46,"Duration":522919,"SoundDuration":522919,"Delta":50335019},{"NoteNumber":67,"Velocity":46,"Duration":249521,"SoundDuration":249521,"Delta":50608418},{"NoteNumber":55,"Velocity":40,"Duration":512047,"SoundDuration":512047,"Delta":50857939},{"NoteNumber":51,"Velocity":33,"Duration":512047,"SoundDuration":512047,"Delta":50857939},{"NoteNumber":67,"Velocity":43,"Duration":250563,"SoundDuration":250563,"Delta":51119423},{"NoteNumber":53,"Velocity":40,"Duration":521951,"SoundDuration":521951,"Delta":51369987},{"NoteNumber":50,"Velocity":33,"Duration":521951,"SoundDuration":521951,"Delta":51369987},{"NoteNumber":67,"Velocity":42,"Duration":257003,"SoundDuration":257003,"Delta":51634934},{"NoteNumber":48,"Velocity":39,"Duration":517390,"SoundDuration":517390,"Delta":51891938},{"NoteNumber":51,"Velocity":46,"Duration":517390,"SoundDuration":517390,"Delta":51891938},{"NoteNumber":79,"Velocity":46,"Duration":63976,"SoundDuration":63976,"Delta":52153421},{"NoteNumber":75,"Velocity":39,"Duration":63976,"SoundDuration":63976,"Delta":52153421},{"NoteNumber":79,"Velocity":48,"Duration":266726,"SoundDuration":266726,"Delta":52409328},{"NoteNumber":75,"Velocity":40,"Duration":266726,"SoundDuration":266726,"Delta":52409328},{"NoteNumber":77,"Velocity":41,"Duration":65370,"SoundDuration":65370,"Delta":52676054},{"NoteNumber":74,"Velocity":34,"Duration":65370,"SoundDuration":65370,"Delta":52676054},{"NoteNumber":74,"Velocity":39,"Duration":272157,"SoundDuration":272157,"Delta":52937538},{"NoteNumber":77,"Velocity":46,"Duration":272157,"SoundDuration":272157,"Delta":52937538},{"NoteNumber":75,"Velocity":40,"Duration":69618,"SoundDuration":69618,"Delta":53209696},{"NoteNumber":72,"Velocity":33,"Duration":69618,"SoundDuration":69618,"Delta":53209696},{"NoteNumber":55,"Velocity":46,"Duration":518025,"SoundDuration":518025,"Delta":53488170},{"NoteNumber":67,"Velocity":46,"Duration":249521,"SoundDuration":249521,"Delta":53756674},{"NoteNumber":62,"Velocity":40,"Duration":512047,"SoundDuration":512047,"Delta":54006196},{"NoteNumber":59,"Velocity":33,"Duration":512047,"SoundDuration":512047,"Delta":54006196},{"NoteNumber":67,"Velocity":43,"Duration":250563,"SoundDuration":250563,"Delta":54267679},{"NoteNumber":60,"Velocity":40,"Duration":519767,"SoundDuration":519767,"Delta":54518243},{"NoteNumber":57,"Velocity":33,"Duration":519767,"SoundDuration":519767,"Delta":54518243},{"NoteNumber":67,"Velocity":42,"Duration":254820,"SoundDuration":254820,"Delta":54783191},{"NoteNumber":55,"Velocity":39,"Duration":520786,"SoundDuration":520786,"Delta":55038011},{"NoteNumber":59,"Velocity":46,"Duration":520786,"SoundDuration":520786,"Delta":55038011},{"NoteNumber":77,"Velocity":46,"Duration":64250,"SoundDuration":64250,"Delta":55301794},{"NoteNumber":74,"Velocity":39,"Duration":64250,"SoundDuration":64250,"Delta":55301794},{"NoteNumber":77,"Velocity":48,"Duration":266143,"SoundDuration":266143,"Delta":55558797},{"NoteNumber":74,"Velocity":40,"Duration":266143,"SoundDuration":266143,"Delta":55558797},{"NoteNumber":75,"Velocity":41,"Duration":65370,"SoundDuration":65370,"Delta":55824941},{"NoteNumber":72,"Velocity":34,"Duration":65370,"SoundDuration":65370,"Delta":55824941},{"NoteNumber":72,"Velocity":39,"Duration":274650,"SoundDuration":274650,"Delta":56090538},{"NoteNumber":75,"Velocity":46,"Duration":274650,"SoundDuration":274650,"Delta":56090538},{"NoteNumber":74,"Velocity":40,"Duration":69618,"SoundDuration":69618,"Delta":56365188},{"NoteNumber":71,"Velocity":33,"Duration":69618,"SoundDuration":69618,"Delta":56365188},{"NoteNumber":60,"Velocity":51,"Duration":534910,"SoundDuration":534910,"Delta":56643662},{"NoteNumber":72,"Velocity":39,"Duration":131891,"SoundDuration":131891,"Delta":56782899},{"NoteNumber":75,"Velocity":47,"Duration":131891,"SoundDuration":131891,"Delta":56914790},{"NoteNumber":72,"Velocity":41,"Duration":131891,"SoundDuration":131891,"Delta":57046682},{"NoteNumber":63,"Velocity":49,"Duration":531462,"SoundDuration":531462,"Delta":57178573},{"NoteNumber":72,"Velocity":42,"Duration":130741,"SoundDuration":130741,"Delta":57317810},{"NoteNumber":75,"Velocity":50,"Duration":130741,"SoundDuration":130741,"Delta":57448552},{"NoteNumber":72,"Velocity":42,"Duration":130741,"SoundDuration":130741,"Delta":57579293},{"NoteNumber":60,"Velocity":52,"Duration":528072,"SoundDuration":528072,"Delta":57710035},{"NoteNumber":72,"Velocity":46,"Duration":129612,"SoundDuration":129612,"Delta":57849272},{"NoteNumber":75,"Velocity":55,"Duration":129612,"SoundDuration":129612,"Delta":57978884},{"NoteNumber":72,"Velocity":47,"Duration":129611,"SoundDuration":129611,"Delta":58108496},{"NoteNumber":54,"Velocity":56,"Duration":1058744,"SoundDuration":1058744,"Delta":58238108},{"NoteNumber":81,"Velocity":46,"Duration":65370,"SoundDuration":65370,"Delta":58503056},{"NoteNumber":84,"Velocity":55,"Duration":65370,"SoundDuration":65370,"Delta":58503056},{"NoteNumber":81,"Velocity":51,"Duration":266143,"SoundDuration":266143,"Delta":58764539},{"NoteNumber":84,"Velocity":62,"Duration":266143,"SoundDuration":266143,"Delta":58764539},{"NoteNumber":79,"Velocity":43,"Duration":65657,"SoundDuration":65657,"Delta":59030683},{"NoteNumber":82,"Velocity":51,"Duration":65657,"SoundDuration":65657,"Delta":59030683},{"NoteNumber":82,"Velocity":57,"Duration":274650,"SoundDuration":274650,"Delta":59296852},{"NoteNumber":79,"Velocity":48,"Duration":274650,"SoundDuration":274650,"Delta":59296852},{"NoteNumber":78,"Velocity":41,"Duration":278474,"SoundDuration":278474,"Delta":59571502},{"NoteNumber":81,"Velocity":49,"Duration":278474,"SoundDuration":278474,"Delta":59571502},{"NoteNumber":82,"Velocity":58,"Duration":546796,"SoundDuration":546796,"Delta":59849976},{"NoteNumber":79,"Velocity":58,"Duration":546796,"SoundDuration":546796,"Delta":59849976},{"NoteNumber":55,"Velocity":51,"Duration":546796,"SoundDuration":546796,"Delta":59849976},{"NoteNumber":79,"Velocity":48,"Duration":546797,"SoundDuration":546797,"Delta":60396773},{"NoteNumber":70,"Velocity":48,"Duration":546797,"SoundDuration":546797,"Delta":60396773},{"NoteNumber":62,"Velocity":48,"Duration":546797,"SoundDuration":546797,"Delta":60396773},{"NoteNumber":78,"Velocity":47,"Duration":554375,"SoundDuration":554375,"Delta":60943570},{"NoteNumber":69,"Velocity":47,"Duration":554375,"SoundDuration":554375,"Delta":60943570},{"NoteNumber":50,"Velocity":51,"Duration":554375,"SoundDuration":554375,"Delta":60943570},{"NoteNumber":79,"Velocity":55,"Duration":546796,"SoundDuration":546796,"Delta":61497945},{"NoteNumber":70,"Velocity":55,"Duration":546796,"SoundDuration":546796,"Delta":61497945},{"NoteNumber":55,"Velocity":51,"Duration":273398,"SoundDuration":273398,"Delta":61497945},{"NoteNumber":43,"Velocity":43,"Duration":273398,"SoundDuration":273398,"Delta":61771344},{"NoteNumber":55,"Velocity":51,"Duration":265919,"SoundDuration":265919,"Delta":62044742},{"NoteNumber":53,"Velocity":43,"Duration":269085,"SoundDuration":269085,"Delta":62310662},{"NoteNumber":51,"Velocity":48,"Duration":272414,"SoundDuration":272414,"Delta":62579748},{"NoteNumber":50,"Velocity":40,"Duration":275937,"SoundDuration":275937,"Delta":62852162},{"NoteNumber":48,"Velocity":43,"Duration":521951,"SoundDuration":521951,"Delta":63128100},{"NoteNumber":67,"Velocity":46,"Duration":257003,"SoundDuration":257003,"Delta":63393048},{"NoteNumber":55,"Velocity":40,"Duration":512047,"SoundDuration":512047,"Delta":63650051},{"NoteNumber":51,"Velocity":33,"Duration":512047,"SoundDuration":512047,"Delta":63650051},{"NoteNumber":67,"Velocity":43,"Duration":250563,"SoundDuration":250563,"Delta":63911535},{"NoteNumber":53,"Velocity":40,"Duration":523056,"SoundDuration":523056,"Delta":64162099},{"NoteNumber":50,"Velocity":33,"Duration":523056,"SoundDuration":523056,"Delta":64162099},{"NoteNumber":67,"Velocity":42,"Duration":258109,"SoundDuration":258109,"Delta":64427046},{"NoteNumber":48,"Velocity":39,"Duration":520854,"SoundDuration":520854,"Delta":64685155},{"NoteNumber":51,"Velocity":46,"Duration":520854,"SoundDuration":520854,"Delta":64685155},{"NoteNumber":79,"Velocity":46,"Duration":63976,"SoundDuration":63976,"Delta":64950103},{"NoteNumber":75,"Velocity":39,"Duration":63976,"SoundDuration":63976,"Delta":64950103},{"NoteNumber":79,"Velocity":48,"Duration":263802,"SoundDuration":263802,"Delta":65206010},{"NoteNumber":75,"Velocity":40,"Duration":263802,"SoundDuration":263802,"Delta":65206010},{"NoteNumber":77,"Velocity":41,"Duration":64806,"SoundDuration":64806,"Delta":65469813},{"NoteNumber":74,"Velocity":34,"Duration":64806,"SoundDuration":64806,"Delta":65469813},{"NoteNumber":74,"Velocity":39,"Duration":264947,"SoundDuration":264947,"Delta":65729037},{"NoteNumber":77,"Velocity":46,"Duration":264947,"SoundDuration":264947,"Delta":65729037},{"NoteNumber":75,"Velocity":40,"Duration":69618,"SoundDuration":69618,"Delta":65993984},{"NoteNumber":72,"Velocity":33,"Duration":69618,"SoundDuration":69618,"Delta":65993984},{"NoteNumber":55,"Velocity":46,"Duration":507567,"SoundDuration":507567,"Delta":66272458},{"NoteNumber":67,"Velocity":46,"Duration":250563,"SoundDuration":250563,"Delta":66529462},{"NoteNumber":62,"Velocity":40,"Duration":514157,"SoundDuration":514157,"Delta":66780026},{"NoteNumber":59,"Velocity":33,"Duration":514157,"SoundDuration":514157,"Delta":66780026},{"NoteNumber":67,"Velocity":43,"Duration":252673,"SoundDuration":252673,"Delta":67041509},{"NoteNumber":60,"Velocity":40,"Duration":519767,"SoundDuration":519767,"Delta":67294183},{"NoteNumber":57,"Velocity":33,"Duration":519767,"SoundDuration":519767,"Delta":67294183},{"NoteNumber":67,"Velocity":42,"Duration":254820,"SoundDuration":254820,"Delta":67559131},{"NoteNumber":55,"Velocity":39,"Duration":526471,"SoundDuration":526471,"Delta":67813951},{"NoteNumber":59,"Velocity":46,"Duration":526471,"SoundDuration":526471,"Delta":67813951},{"NoteNumber":77,"Velocity":46,"Duration":65087,"SoundDuration":65087,"Delta":68080074},{"NoteNumber":74,"Velocity":39,"Duration":65087,"SoundDuration":65087,"Delta":68080074},{"NoteNumber":77,"Velocity":48,"Duration":263782,"SoundDuration":263782,"Delta":68340423},{"NoteNumber":74,"Velocity":40,"Duration":263782,"SoundDuration":263782,"Delta":68340423},{"NoteNumber":75,"Velocity":41,"Duration":65087,"SoundDuration":65087,"Delta":68604205},{"NoteNumber":72,"Velocity":34,"Duration":65087,"SoundDuration":65087,"Delta":68604205},{"NoteNumber":72,"Velocity":39,"Duration":274649,"SoundDuration":274649,"Delta":68869235},{"NoteNumber":75,"Velocity":46,"Duration":274649,"SoundDuration":274649,"Delta":68869235},{"NoteNumber":74,"Velocity":40,"Duration":69618,"SoundDuration":69618,"Delta":69143885},{"NoteNumber":71,"Velocity":33,"Duration":69618,"SoundDuration":69618,"Delta":69143885},{"NoteNumber":60,"Velocity":51,"Duration":534910,"SoundDuration":534910,"Delta":69422359},{"NoteNumber":72,"Velocity":39,"Duration":131891,"SoundDuration":131891,"Delta":69561596},{"NoteNumber":75,"Velocity":47,"Duration":131891,"SoundDuration":131891,"Delta":69693488},{"NoteNumber":72,"Velocity":41,"Duration":131891,"SoundDuration":131891,"Delta":69825379},{"NoteNumber":63,"Velocity":49,"Duration":531462,"SoundDuration":531462,"Delta":69957270},{"NoteNumber":72,"Velocity":42,"Duration":130741,"SoundDuration":130741,"Delta":70096507},{"NoteNumber":75,"Velocity":50,"Duration":130741,"SoundDuration":130741,"Delta":70227249},{"NoteNumber":72,"Velocity":42,"Duration":130741,"SoundDuration":130741,"Delta":70357991},{"NoteNumber":60,"Velocity":52,"Duration":528072,"SoundDuration":528072,"Delta":70488732},{"NoteNumber":72,"Velocity":46,"Duration":129611,"SoundDuration":129611,"Delta":70627969},{"NoteNumber":75,"Velocity":55,"Duration":129612,"SoundDuration":129612,"Delta":70757581},{"NoteNumber":72,"Velocity":47,"Duration":129611,"SoundDuration":129611,"Delta":70887193},{"NoteNumber":54,"Velocity":56,"Duration":1059373,"SoundDuration":1059373,"Delta":71016805},{"NoteNumber":81,"Velocity":46,"Duration":65087,"SoundDuration":65087,"Delta":71281753},{"NoteNumber":84,"Velocity":55,"Duration":65087,"SoundDuration":65087,"Delta":71281753},{"NoteNumber":81,"Velocity":51,"Duration":266746,"SoundDuration":266746,"Delta":71542102},{"NoteNumber":84,"Velocity":62,"Duration":266746,"SoundDuration":266746,"Delta":71542102},{"NoteNumber":79,"Velocity":43,"Duration":66236,"SoundDuration":66236,"Delta":71808849},{"NoteNumber":82,"Velocity":51,"Duration":66236,"SoundDuration":66236,"Delta":71808849},{"NoteNumber":82,"Velocity":57,"Duration":274649,"SoundDuration":274649,"Delta":72076178},{"NoteNumber":79,"Velocity":48,"Duration":274649,"SoundDuration":274649,"Delta":72076178},{"NoteNumber":78,"Velocity":41,"Duration":278474,"SoundDuration":278474,"Delta":72350828},{"NoteNumber":81,"Velocity":49,"Duration":278474,"SoundDuration":278474,"Delta":72350828},{"NoteNumber":82,"Velocity":58,"Duration":546796,"SoundDuration":546796,"Delta":72629302},{"NoteNumber":79,"Velocity":58,"Duration":546796,"SoundDuration":546796,"Delta":72629302},{"NoteNumber":55,"Velocity":51,"Duration":546796,"SoundDuration":546796,"Delta":72629302},{"NoteNumber":79,"Velocity":48,"Duration":546796,"SoundDuration":546796,"Delta":73176099},{"NoteNumber":70,"Velocity":48,"Duration":546796,"SoundDuration":546796,"Delta":73176099},{"NoteNumber":62,"Velocity":48,"Duration":546796,"SoundDuration":546796,"Delta":73176099},{"NoteNumber":78,"Velocity":47,"Duration":554374,"SoundDuration":554374,"Delta":73722896},{"NoteNumber":69,"Velocity":47,"Duration":554374,"SoundDuration":554374,"Delta":73722896},{"NoteNumber":50,"Velocity":51,"Duration":554374,"SoundDuration":554374,"Delta":73722896},{"NoteNumber":79,"Velocity":55,"Duration":546796,"SoundDuration":546796,"Delta":74277271},{"NoteNumber":70,"Velocity":55,"Duration":546796,"SoundDuration":546796,"Delta":74277271},{"NoteNumber":55,"Velocity":51,"Duration":273398,"SoundDuration":273398,"Delta":74277271},{"NoteNumber":43,"Velocity":43,"Duration":273398,"SoundDuration":273398,"Delta":74550670},{"NoteNumber":55,"Velocity":51,"Duration":265919,"SoundDuration":265919,"Delta":74824068},{"NoteNumber":53,"Velocity":43,"Duration":269085,"SoundDuration":269085,"Delta":75089988},{"NoteNumber":51,"Velocity":48,"Duration":272414,"SoundDuration":272414,"Delta":75359074},{"NoteNumber":50,"Velocity":40,"Duration":275937,"SoundDuration":275937,"Delta":75631488},{"NoteNumber":48,"Velocity":43,"Duration":521050,"SoundDuration":521050,"Delta":75907426},{"NoteNumber":72,"Velocity":46,"Duration":253742,"SoundDuration":253742,"Delta":76174734},{"NoteNumber":64,"Velocity":40,"Duration":514157,"SoundDuration":514157,"Delta":76428477},{"NoteNumber":60,"Velocity":33,"Duration":514157,"SoundDuration":514157,"Delta":76428477},{"NoteNumber":72,"Velocity":43,"Duration":252673,"SoundDuration":252673,"Delta":76689960},{"NoteNumber":65,"Velocity":40,"Duration":523056,"SoundDuration":523056,"Delta":76942634},{"NoteNumber":62,"Velocity":33,"Duration":523056,"SoundDuration":523056,"Delta":76942634},{"NoteNumber":72,"Velocity":42,"Duration":258109,"SoundDuration":258109,"Delta":77207582},{"NoteNumber":72,"Velocity":57,"Duration":131536,"SoundDuration":131536,"Delta":77465691},{"NoteNumber":64,"Velocity":39,"Duration":526060,"SoundDuration":526060,"Delta":77465691},{"NoteNumber":67,"Velocity":46,"Duration":526060,"SoundDuration":526060,"Delta":77465691},{"NoteNumber":74,"Velocity":50,"Duration":131891,"SoundDuration":131891,"Delta":77597227},{"NoteNumber":76,"Velocity":52,"Duration":131338,"SoundDuration":131338,"Delta":77729118},{"NoteNumber":77,"Velocity":55,"Duration":131294,"SoundDuration":131294,"Delta":77860457},{"NoteNumber":79,"Velocity":55,"Duration":130741,"SoundDuration":130741,"Delta":77991751},{"NoteNumber":80,"Velocity":52,"Duration":130675,"SoundDuration":130675,"Delta":78122493},{"NoteNumber":82,"Velocity":55,"Duration":130174,"SoundDuration":130174,"Delta":78253169},{"NoteNumber":84,"Velocity":55,"Duration":129972,"SoundDuration":129972,"Delta":78383343},{"NoteNumber":80,"Velocity":63,"Duration":544315,"SoundDuration":544315,"Delta":78513316},{"NoteNumber":65,"Velocity":46,"Duration":544315,"SoundDuration":544315,"Delta":78513316},{"NoteNumber":50,"Velocity":47,"Duration":519767,"SoundDuration":519767,"Delta":79057632},{"NoteNumber":74,"Velocity":50,"Duration":254820,"SoundDuration":254820,"Delta":79322580},{"NoteNumber":66,"Velocity":43,"Duration":514157,"SoundDuration":514157,"Delta":79577400},{"NoteNumber":62,"Velocity":35,"Duration":514157,"SoundDuration":514157,"Delta":79577400},{"NoteNumber":74,"Velocity":47,"Duration":252673,"SoundDuration":252673,"Delta":79838884},{"NoteNumber":67,"Velocity":43,"Duration":521951,"SoundDuration":521951,"Delta":80091558},{"NoteNumber":64,"Velocity":35,"Duration":521951,"SoundDuration":521951,"Delta":80091558},{"NoteNumber":74,"Velocity":46,"Duration":257003,"SoundDuration":257003,"Delta":80356505},{"NoteNumber":74,"Velocity":59,"Duration":131467,"SoundDuration":131467,"Delta":80613509},{"NoteNumber":66,"Velocity":39,"Duration":525991,"SoundDuration":525991,"Delta":80613509},{"NoteNumber":69,"Velocity":46,"Duration":525991,"SoundDuration":525991,"Delta":80613509},{"NoteNumber":76,"Velocity":52,"Duration":131891,"SoundDuration":131891,"Delta":80744976},{"NoteNumber":78,"Velocity":55,"Duration":131338,"SoundDuration":131338,"Delta":80876868},{"NoteNumber":79,"Velocity":57,"Duration":131294,"SoundDuration":131294,"Delta":81008206},{"NoteNumber":81,"Velocity":57,"Duration":130741,"SoundDuration":130741,"Delta":81139500},{"NoteNumber":83,"Velocity":55,"Duration":130675,"SoundDuration":130675,"Delta":81270242},{"NoteNumber":84,"Velocity":57,"Duration":130174,"SoundDuration":130174,"Delta":81400918},{"NoteNumber":86,"Velocity":57,"Duration":129972,"SoundDuration":129972,"Delta":81531092},{"NoteNumber":83,"Velocity":65,"Duration":544315,"SoundDuration":544315,"Delta":81661065},{"NoteNumber":67,"Velocity":46,"Duration":544315,"SoundDuration":544315,"Delta":81661065},{"NoteNumber":36,"Velocity":39,"Duration":525013,"SoundDuration":525013,"Delta":82205381},{"NoteNumber":48,"Velocity":43,"Duration":525013,"SoundDuration":525013,"Delta":82205381},{"NoteNumber":67,"Velocity":46,"Duration":251614,"SoundDuration":251614,"Delta":82478780},{"NoteNumber":55,"Velocity":40,"Duration":513097,"SoundDuration":513097,"Delta":82730394},{"NoteNumber":51,"Velocity":33,"Duration":513097,"SoundDuration":513097,"Delta":82730394},{"NoteNumber":67,"Velocity":43,"Duration":251614,"SoundDuration":251614,"Delta":82991878},{"NoteNumber":53,"Velocity":40,"Duration":521951,"SoundDuration":521951,"Delta":83243492},{"NoteNumber":50,"Velocity":33,"Duration":521951,"SoundDuration":521951,"Delta":83243492},{"NoteNumber":67,"Velocity":42,"Duration":257003,"SoundDuration":257003,"Delta":83508440},{"NoteNumber":48,"Velocity":39,"Duration":523056,"SoundDuration":523056,"Delta":83765443},{"NoteNumber":51,"Velocity":46,"Duration":523056,"SoundDuration":523056,"Delta":83765443},{"NoteNumber":79,"Velocity":46,"Duration":64527,"SoundDuration":64527,"Delta":84030391},{"NoteNumber":75,"Velocity":39,"Duration":64527,"SoundDuration":64527,"Delta":84030391},{"NoteNumber":79,"Velocity":48,"Duration":262648,"SoundDuration":262648,"Delta":84288500},{"NoteNumber":75,"Velocity":40,"Duration":262648,"SoundDuration":262648,"Delta":84288500},{"NoteNumber":77,"Velocity":41,"Duration":68039,"SoundDuration":68039,"Delta":84551148},{"NoteNumber":74,"Velocity":34,"Duration":68039,"SoundDuration":68039,"Delta":84551148},{"NoteNumber":74,"Velocity":39,"Duration":272157,"SoundDuration":272157,"Delta":84823306},{"NoteNumber":77,"Velocity":46,"Duration":272157,"SoundDuration":272157,"Delta":84823306},{"NoteNumber":75,"Velocity":40,"Duration":69618,"SoundDuration":69618,"Delta":85095464},{"NoteNumber":72,"Velocity":33,"Duration":69618,"SoundDuration":69618,"Delta":85095464},{"NoteNumber":43,"Velocity":37,"Duration":509870,"SoundDuration":509870,"Delta":85373938},{"NoteNumber":55,"Velocity":46,"Duration":509870,"SoundDuration":509870,"Delta":85373938},{"NoteNumber":67,"Velocity":46,"Duration":249521,"SoundDuration":249521,"Delta":85634287},{"NoteNumber":62,"Velocity":40,"Duration":506597,"SoundDuration":506597,"Delta":85883808},{"NoteNumber":59,"Velocity":33,"Duration":506597,"SoundDuration":506597,"Delta":85883808},{"NoteNumber":67,"Velocity":43,"Duration":248488,"SoundDuration":248488,"Delta":86141917},{"NoteNumber":60,"Velocity":40,"Duration":521951,"SoundDuration":521951,"Delta":86390406},{"NoteNumber":57,"Velocity":33,"Duration":521951,"SoundDuration":521951,"Delta":86390406},{"NoteNumber":67,"Velocity":42,"Duration":257003,"SoundDuration":257003,"Delta":86655353},{"NoteNumber":55,"Velocity":39,"Duration":516255,"SoundDuration":516255,"Delta":86912357},{"NoteNumber":59,"Velocity":46,"Duration":516255,"SoundDuration":516255,"Delta":86912357},{"NoteNumber":77,"Velocity":46,"Duration":63976,"SoundDuration":63976,"Delta":87172706},{"NoteNumber":74,"Velocity":39,"Duration":63976,"SoundDuration":63976,"Delta":87172706},{"NoteNumber":77,"Velocity":48,"Duration":264952,"SoundDuration":264952,"Delta":87428613},{"NoteNumber":74,"Velocity":40,"Duration":264952,"SoundDuration":264952,"Delta":87428613},{"NoteNumber":75,"Velocity":41,"Duration":64806,"SoundDuration":64806,"Delta":87693565},{"NoteNumber":72,"Velocity":34,"Duration":64806,"SoundDuration":64806,"Delta":87693565},{"NoteNumber":72,"Velocity":39,"Duration":274649,"SoundDuration":274649,"Delta":87958033},{"NoteNumber":75,"Velocity":46,"Duration":274649,"SoundDuration":274649,"Delta":87958033},{"NoteNumber":74,"Velocity":40,"Duration":69618,"SoundDuration":69618,"Delta":88232683},{"NoteNumber":71,"Velocity":33,"Duration":69618,"SoundDuration":69618,"Delta":88232683},{"NoteNumber":60,"Velocity":51,"Duration":534910,"SoundDuration":534910,"Delta":88511157},{"NoteNumber":72,"Velocity":39,"Duration":131891,"SoundDuration":131891,"Delta":88650394},{"NoteNumber":75,"Velocity":47,"Duration":131891,"SoundDuration":131891,"Delta":88782285},{"NoteNumber":72,"Velocity":41,"Duration":131891,"SoundDuration":131891,"Delta":88914177},{"NoteNumber":63,"Velocity":49,"Duration":528072,"SoundDuration":528072,"Delta":89046068},{"NoteNumber":72,"Velocity":42,"Duration":129611,"SoundDuration":129611,"Delta":89185305},{"NoteNumber":75,"Velocity":50,"Duration":129612,"SoundDuration":129612,"Delta":89314917},{"NoteNumber":72,"Velocity":42,"Duration":129611,"SoundDuration":129611,"Delta":89444529},{"NoteNumber":60,"Velocity":52,"Duration":524742,"SoundDuration":524742,"Delta":89574141},{"NoteNumber":72,"Velocity":46,"Duration":128501,"SoundDuration":128501,"Delta":89713378},{"NoteNumber":75,"Velocity":55,"Duration":128501,"SoundDuration":128501,"Delta":89841880},{"NoteNumber":72,"Velocity":47,"Duration":128501,"SoundDuration":128501,"Delta":89970381},{"NoteNumber":59,"Velocity":56,"Duration":1058248,"SoundDuration":1058248,"Delta":90098883},{"NoteNumber":77,"Velocity":46,"Duration":64806,"SoundDuration":64806,"Delta":90363831},{"NoteNumber":80,"Velocity":55,"Duration":64806,"SoundDuration":64806,"Delta":90363831},{"NoteNumber":77,"Velocity":51,"Duration":266746,"SoundDuration":266746,"Delta":90623055},{"NoteNumber":80,"Velocity":62,"Duration":266746,"SoundDuration":266746,"Delta":90623055},{"NoteNumber":75,"Velocity":43,"Duration":66236,"SoundDuration":66236,"Delta":90889802},{"NoteNumber":79,"Velocity":51,"Duration":66236,"SoundDuration":66236,"Delta":90889802},{"NoteNumber":79,"Velocity":57,"Duration":274649,"SoundDuration":274649,"Delta":91157131},{"NoteNumber":75,"Velocity":48,"Duration":274649,"SoundDuration":274649,"Delta":91157131},{"NoteNumber":74,"Velocity":41,"Duration":278474,"SoundDuration":278474,"Delta":91431781},{"NoteNumber":77,"Velocity":49,"Duration":278474,"SoundDuration":278474,"Delta":91431781},{"NoteNumber":75,"Velocity":58,"Duration":546796,"SoundDuration":546796,"Delta":91710255},{"NoteNumber":72,"Velocity":58,"Duration":546796,"SoundDuration":546796,"Delta":91710255},{"NoteNumber":60,"Velocity":51,"Duration":546796,"SoundDuration":546796,"Delta":91710255},{"NoteNumber":72,"Velocity":48,"Duration":546796,"SoundDuration":546796,"Delta":92257052},{"NoteNumber":63,"Velocity":48,"Duration":546796,"SoundDuration":546796,"Delta":92257052},{"NoteNumber":55,"Velocity":48,"Duration":546796,"SoundDuration":546796,"Delta":92257052},{"NoteNumber":71,"Velocity":47,"Duration":554374,"SoundDuration":554374,"Delta":92803849},{"NoteNumber":62,"Velocity":47,"Duration":554374,"SoundDuration":554374,"Delta":92803849},{"NoteNumber":43,"Velocity":51,"Duration":554374,"SoundDuration":554374,"Delta":92803849},{"NoteNumber":72,"Velocity":55,"Duration":546796,"SoundDuration":546796,"Delta":93358224},{"NoteNumber":60,"Velocity":55,"Duration":546796,"SoundDuration":546796,"Delta":93358224},{"NoteNumber":48,"Velocity":51,"Duration":546796,"SoundDuration":546796,"Delta":93358224},{"NoteNumber":55,"Velocity":51,"Duration":265919,"SoundDuration":265919,"Delta":93905021},{"NoteNumber":53,"Velocity":43,"Duration":269085,"SoundDuration":269085,"Delta":94170941},{"NoteNumber":51,"Velocity":48,"Duration":272414,"SoundDuration":272414,"Delta":94440027},{"NoteNumber":50,"Velocity":40,"Duration":275937,"SoundDuration":275937,"Delta":94712441},{"NoteNumber":48,"Velocity":43,"Duration":519864,"SoundDuration":519864,"Delta":94988379},{"NoteNumber":72,"Velocity":46,"Duration":253742,"SoundDuration":253742,"Delta":95254501},{"NoteNumber":64,"Velocity":40,"Duration":506470,"SoundDuration":506470,"Delta":95508244},{"NoteNumber":60,"Velocity":33,"Duration":506470,"SoundDuration":506470,"Delta":95508244},{"NoteNumber":72,"Velocity":43,"Duration":250563,"SoundDuration":250563,"Delta":95764151},{"NoteNumber":65,"Velocity":40,"Duration":529894,"SoundDuration":529894,"Delta":96014715},{"NoteNumber":62,"Velocity":33,"Duration":529894,"SoundDuration":529894,"Delta":96014715},{"NoteNumber":72,"Velocity":42,"Duration":264947,"SoundDuration":264947,"Delta":96279662},{"NoteNumber":72,"Velocity":57,"Duration":131964,"SoundDuration":131964,"Delta":96544610},{"NoteNumber":64,"Velocity":42,"Duration":526488,"SoundDuration":526488,"Delta":96544610},{"NoteNumber":67,"Velocity":50,"Duration":526488,"SoundDuration":526488,"Delta":96544610},{"NoteNumber":74,"Velocity":50,"Duration":131891,"SoundDuration":131891,"Delta":96676574},{"NoteNumber":76,"Velocity":52,"Duration":131338,"SoundDuration":131338,"Delta":96808465},{"NoteNumber":77,"Velocity":55,"Duration":131294,"SoundDuration":131294,"Delta":96939803},{"NoteNumber":79,"Velocity":55,"Duration":130741,"SoundDuration":130741,"Delta":97071098},{"NoteNumber":80,"Velocity":52,"Duration":130675,"SoundDuration":130675,"Delta":97201840},{"NoteNumber":82,"Velocity":55,"Duration":130174,"SoundDuration":130174,"Delta":97332516},{"NoteNumber":84,"Velocity":55,"Duration":129972,"SoundDuration":129972,"Delta":97462690},{"NoteNumber":80,"Velocity":63,"Duration":544315,"SoundDuration":544315,"Delta":97592663},{"NoteNumber":65,"Velocity":50,"Duration":544315,"SoundDuration":544315,"Delta":97592663},{"NoteNumber":50,"Velocity":47,"Duration":523324,"SoundDuration":523324,"Delta":98136979},{"NoteNumber":74,"Velocity":50,"Duration":254820,"SoundDuration":254820,"Delta":98405484},{"NoteNumber":66,"Velocity":43,"Duration":515225,"SoundDuration":515225,"Delta":98660304},{"NoteNumber":62,"Velocity":35,"Duration":515225,"SoundDuration":515225,"Delta":98660304},{"NoteNumber":74,"Velocity":47,"Duration":253742,"SoundDuration":253742,"Delta":98921788},{"NoteNumber":67,"Velocity":43,"Duration":529894,"SoundDuration":529894,"Delta":99175530},{"NoteNumber":64,"Velocity":35,"Duration":529894,"SoundDuration":529894,"Delta":99175530},{"NoteNumber":74,"Velocity":46,"Duration":264947,"SoundDuration":264947,"Delta":99440478},{"NoteNumber":74,"Velocity":59,"Duration":131964,"SoundDuration":131964,"Delta":99705425},{"NoteNumber":66,"Velocity":39,"Duration":526488,"SoundDuration":526488,"Delta":99705425},{"NoteNumber":69,"Velocity":46,"Duration":526488,"SoundDuration":526488,"Delta":99705425},{"NoteNumber":76,"Velocity":52,"Duration":131891,"SoundDuration":131891,"Delta":99837389},{"NoteNumber":78,"Velocity":55,"Duration":131338,"SoundDuration":131338,"Delta":99969280},{"NoteNumber":79,"Velocity":57,"Duration":131294,"SoundDuration":131294,"Delta":100100618},{"NoteNumber":81,"Velocity":57,"Duration":130741,"SoundDuration":130741,"Delta":100231913},{"NoteNumber":83,"Velocity":55,"Duration":130675,"SoundDuration":130675,"Delta":100362655},{"NoteNumber":84,"Velocity":57,"Duration":130174,"SoundDuration":130174,"Delta":100493331},{"NoteNumber":86,"Velocity":57,"Duration":129972,"SoundDuration":129972,"Delta":100623505},{"NoteNumber":83,"Velocity":65,"Duration":544315,"SoundDuration":544315,"Delta":100753478},{"NoteNumber":67,"Velocity":46,"Duration":544315,"SoundDuration":544315,"Delta":100753478},{"NoteNumber":36,"Velocity":39,"Duration":525013,"SoundDuration":525013,"Delta":101297794},{"NoteNumber":48,"Velocity":43,"Duration":525013,"SoundDuration":525013,"Delta":101297794},{"NoteNumber":67,"Velocity":46,"Duration":251614,"SoundDuration":251614,"Delta":101571193},{"NoteNumber":55,"Velocity":40,"Duration":514157,"SoundDuration":514157,"Delta":101822807},{"NoteNumber":51,"Velocity":33,"Duration":514157,"SoundDuration":514157,"Delta":101822807},{"NoteNumber":67,"Velocity":43,"Duration":252673,"SoundDuration":252673,"Delta":102084291},{"NoteNumber":53,"Velocity":40,"Duration":529894,"SoundDuration":529894,"Delta":102336965},{"NoteNumber":50,"Velocity":33,"Duration":529894,"SoundDuration":529894,"Delta":102336965},{"NoteNumber":67,"Velocity":42,"Duration":264947,"SoundDuration":264947,"Delta":102601912},{"NoteNumber":48,"Velocity":39,"Duration":518458,"SoundDuration":518458,"Delta":102866860},{"NoteNumber":51,"Velocity":46,"Duration":518458,"SoundDuration":518458,"Delta":102866860},{"NoteNumber":79,"Velocity":46,"Duration":64527,"SoundDuration":64527,"Delta":103127209},{"NoteNumber":75,"Velocity":39,"Duration":64527,"SoundDuration":64527,"Delta":103127209},{"NoteNumber":79,"Velocity":48,"Duration":266726,"SoundDuration":266726,"Delta":103385318},{"NoteNumber":75,"Velocity":40,"Duration":266726,"SoundDuration":266726,"Delta":103385318},{"NoteNumber":77,"Velocity":41,"Duration":65087,"SoundDuration":65087,"Delta":103652044},{"NoteNumber":74,"Velocity":34,"Duration":65087,"SoundDuration":65087,"Delta":103652044},{"NoteNumber":74,"Velocity":39,"Duration":269711,"SoundDuration":269711,"Delta":103912393},{"NoteNumber":77,"Velocity":46,"Duration":269711,"SoundDuration":269711,"Delta":103912393},{"NoteNumber":75,"Velocity":40,"Duration":69618,"SoundDuration":69618,"Delta":104182104},{"NoteNumber":72,"Velocity":33,"Duration":69618,"SoundDuration":69618,"Delta":104182104},{"NoteNumber":43,"Velocity":37,"Duration":524411,"SoundDuration":524411,"Delta":104460578},{"NoteNumber":55,"Velocity":46,"Duration":524411,"SoundDuration":524411,"Delta":104460578},{"NoteNumber":67,"Velocity":46,"Duration":255906,"SoundDuration":255906,"Delta":104729083},{"NoteNumber":62,"Velocity":40,"Duration":514157,"SoundDuration":514157,"Delta":104984990},{"NoteNumber":59,"Velocity":33,"Duration":514157,"SoundDuration":514157,"Delta":104984990},{"NoteNumber":67,"Velocity":43,"Duration":252673,"SoundDuration":252673,"Delta":105246473},{"NoteNumber":60,"Velocity":40,"Duration":529894,"SoundDuration":529894,"Delta":105499147},{"NoteNumber":57,"Velocity":33,"Duration":529894,"SoundDuration":529894,"Delta":105499147},{"NoteNumber":67,"Velocity":42,"Duration":264947,"SoundDuration":264947,"Delta":105764095},{"NoteNumber":55,"Velocity":39,"Duration":516303,"SoundDuration":516303,"Delta":106029042},{"NoteNumber":59,"Velocity":46,"Duration":516303,"SoundDuration":516303,"Delta":106029042},{"NoteNumber":77,"Velocity":46,"Duration":63705,"SoundDuration":63705,"Delta":106290526},{"NoteNumber":74,"Velocity":39,"Duration":63705,"SoundDuration":63705,"Delta":106290526},{"NoteNumber":77,"Velocity":48,"Duration":265545,"SoundDuration":265545,"Delta":106545346},{"NoteNumber":74,"Velocity":40,"Duration":265545,"SoundDuration":265545,"Delta":106545346},{"NoteNumber":75,"Velocity":41,"Duration":65087,"SoundDuration":65087,"Delta":106810891},{"NoteNumber":72,"Velocity":34,"Duration":65087,"SoundDuration":65087,"Delta":106810891},{"NoteNumber":72,"Velocity":39,"Duration":274649,"SoundDuration":274649,"Delta":107071240},{"NoteNumber":75,"Velocity":46,"Duration":274649,"SoundDuration":274649,"Delta":107071240},{"NoteNumber":74,"Velocity":40,"Duration":69618,"SoundDuration":69618,"Delta":107345890},{"NoteNumber":71,"Velocity":33,"Duration":69618,"SoundDuration":69618,"Delta":107345890},{"NoteNumber":60,"Velocity":51,"Duration":528072,"SoundDuration":528072,"Delta":107624364},{"NoteNumber":72,"Velocity":39,"Duration":129611,"SoundDuration":129611,"Delta":107763601},{"NoteNumber":75,"Velocity":47,"Duration":129612,"SoundDuration":129612,"Delta":107893213},{"NoteNumber":72,"Velocity":41,"Duration":129611,"SoundDuration":129611,"Delta":108022825},{"NoteNumber":63,"Velocity":49,"Duration":528072,"SoundDuration":528072,"Delta":108152437},{"NoteNumber":72,"Velocity":42,"Duration":129611,"SoundDuration":129611,"Delta":108291674},{"NoteNumber":75,"Velocity":50,"Duration":129612,"SoundDuration":129612,"Delta":108421286},{"NoteNumber":72,"Velocity":42,"Duration":129611,"SoundDuration":129611,"Delta":108550898},{"NoteNumber":60,"Velocity":52,"Duration":526400,"SoundDuration":526400,"Delta":108680510},{"NoteNumber":72,"Velocity":46,"Duration":129054,"SoundDuration":129054,"Delta":108819747},{"NoteNumber":75,"Velocity":55,"Duration":129054,"SoundDuration":129054,"Delta":108948802},{"NoteNumber":72,"Velocity":47,"Duration":129054,"SoundDuration":129054,"Delta":109077856},{"NoteNumber":59,"Velocity":56,"Duration":1080444,"SoundDuration":1080444,"Delta":109206911},{"NoteNumber":77,"Velocity":46,"Duration":68349,"SoundDuration":68349,"Delta":109471858},{"NoteNumber":80,"Velocity":55,"Duration":68349,"SoundDuration":68349,"Delta":109471858},{"NoteNumber":77,"Velocity":51,"Duration":271777,"SoundDuration":271777,"Delta":109745257},{"NoteNumber":80,"Velocity":62,"Duration":271777,"SoundDuration":271777,"Delta":109745257},{"NoteNumber":75,"Velocity":43,"Duration":67732,"SoundDuration":67732,"Delta":110017034},{"NoteNumber":79,"Velocity":51,"Duration":67732,"SoundDuration":67732,"Delta":110017034},{"NoteNumber":79,"Velocity":57,"Duration":274649,"SoundDuration":274649,"Delta":110287355},{"NoteNumber":75,"Velocity":48,"Duration":274649,"SoundDuration":274649,"Delta":110287355},{"NoteNumber":74,"Velocity":41,"Duration":278474,"SoundDuration":278474,"Delta":110562005},{"NoteNumber":77,"Velocity":49,"Duration":278474,"SoundDuration":278474,"Delta":110562005},{"NoteNumber":75,"Velocity":58,"Duration":546796,"SoundDuration":546796,"Delta":110840479},{"NoteNumber":72,"Velocity":58,"Duration":546796,"SoundDuration":546796,"Delta":110840479},{"NoteNumber":60,"Velocity":51,"Duration":546796,"SoundDuration":546796,"Delta":110840479},{"NoteNumber":72,"Velocity":48,"Duration":546796,"SoundDuration":546796,"Delta":111387276},{"NoteNumber":63,"Velocity":48,"Duration":546796,"SoundDuration":546796,"Delta":111387276},{"NoteNumber":55,"Velocity":48,"Duration":546796,"SoundDuration":546796,"Delta":111387276},{"NoteNumber":71,"Velocity":47,"Duration":554374,"SoundDuration":554374,"Delta":111934073},{"NoteNumber":62,"Velocity":47,"Duration":554374,"SoundDuration":554374,"Delta":111934073},{"NoteNumber":43,"Velocity":51,"Duration":554374,"SoundDuration":554374,"Delta":111934073},{"NoteNumber":72,"Velocity":55,"Duration":546796,"SoundDuration":546796,"Delta":112488448},{"NoteNumber":60,"Velocity":55,"Duration":546796,"SoundDuration":546796,"Delta":112488448},{"NoteNumber":48,"Velocity":51,"Duration":546796,"SoundDuration":546796,"Delta":112488448},{"NoteNumber":43,"Velocity":51,"Duration":150406,"SoundDuration":150406,"Delta":113035245},{"NoteNumber":36,"Velocity":48,"Duration":313381,"SoundDuration":313381,"Delta":113636869},{"NoteNumber":72,"Velocity":57,"Duration":530786,"SoundDuration":530786,"Delta":114286088},{"NoteNumber":48,"Velocity":40,"Duration":796178,"SoundDuration":796178,"Delta":114286088},{"NoteNumber":60,"Velocity":46,"Duration":796178,"SoundDuration":796178,"Delta":114286088},{"NoteNumber":84,"Velocity":57,"Duration":132696,"SoundDuration":132696,"Delta":114816874},{"NoteNumber":76,"Velocity":57,"Duration":257135,"SoundDuration":257135,"Delta":115340934},{"NoteNumber":60,"Velocity":37,"Duration":524130,"SoundDuration":524130,"Delta":115340934},{"NoteNumber":79,"Velocity":48,"Duration":138427,"SoundDuration":138427,"Delta":115726637},{"NoteNumber":77,"Velocity":57,"Duration":530786,"SoundDuration":530786,"Delta":115865065},{"NoteNumber":62,"Velocity":46,"Duration":530786,"SoundDuration":530786,"Delta":115865065},{"NoteNumber":74,"Velocity":52,"Duration":132696,"SoundDuration":132696,"Delta":116395851},{"NoteNumber":59,"Velocity":42,"Duration":132696,"SoundDuration":132696,"Delta":116395851},{"NoteNumber":74,"Velocity":57,"Duration":258286,"SoundDuration":258286,"Delta":116920468},{"NoteNumber":55,"Velocity":40,"Duration":525195,"SoundDuration":525195,"Delta":116920468},{"NoteNumber":77,"Velocity":54,"Duration":137766,"SoundDuration":137766,"Delta":117307897},{"NoteNumber":76,"Velocity":57,"Duration":530786,"SoundDuration":530786,"Delta":117445664},{"NoteNumber":60,"Velocity":46,"Duration":530786,"SoundDuration":530786,"Delta":117445664},{"NoteNumber":72,"Velocity":54,"Duration":132696,"SoundDuration":132696,"Delta":117976450},{"NoteNumber":52,"Velocity":39,"Duration":132696,"SoundDuration":132696,"Delta":117976450},{"NoteNumber":69,"Velocity":58,"Duration":259448,"SoundDuration":259448,"Delta":118507236},{"NoteNumber":53,"Velocity":42,"Duration":531042,"SoundDuration":531042,"Delta":118507236},{"NoteNumber":74,"Velocity":46,"Duration":141870,"SoundDuration":141870,"Delta":118896408},{"NoteNumber":72,"Velocity":58,"Duration":1064160,"SoundDuration":1064160,"Delta":119038278},{"NoteNumber":55,"Velocity":46,"Duration":525947,"SoundDuration":525947,"Delta":119038278},{"NoteNumber":50,"Velocity":40,"Duration":134553,"SoundDuration":134553,"Delta":119564225},{"NoteNumber":71,"Velocity":55,"Duration":269106,"SoundDuration":269106,"Delta":120102438},{"NoteNumber":43,"Velocity":42,"Duration":269106,"SoundDuration":269106,"Delta":120102438},{"NoteNumber":74,"Velocity":75,"Duration":521241,"SoundDuration":521241,"Delta":120640651},{"NoteNumber":55,"Velocity":50,"Duration":521241,"SoundDuration":521241,"Delta":120640651},{"NoteNumber":59,"Velocity":59,"Duration":521241,"SoundDuration":521241,"Delta":120640651},{"NoteNumber":79,"Velocity":57,"Duration":126871,"SoundDuration":126871,"Delta":121161892},{"NoteNumber":78,"Velocity":55,"Duration":126871,"SoundDuration":126871,"Delta":121288764},{"NoteNumber":79,"Velocity":57,"Duration":126871,"SoundDuration":126871,"Delta":121415635},{"NoteNumber":81,"Velocity":55,"Duration":126871,"SoundDuration":126871,"Delta":121542506},{"NoteNumber":83,"Velocity":62,"Duration":126871,"SoundDuration":126871,"Delta":121669377},{"NoteNumber":81,"Velocity":55,"Duration":126871,"SoundDuration":126871,"Delta":121796249},{"NoteNumber":83,"Velocity":62,"Duration":126871,"SoundDuration":126871,"Delta":121923120},{"NoteNumber":84,"Velocity":59,"Duration":126871,"SoundDuration":126871,"Delta":122049991},{"NoteNumber":86,"Velocity":75,"Duration":518895,"SoundDuration":518895,"Delta":122176862},{"NoteNumber":55,"Velocity":50,"Duration":518895,"SoundDuration":518895,"Delta":122176862},{"NoteNumber":59,"Velocity":59,"Duration":518895,"SoundDuration":518895,"Delta":122176862},{"NoteNumber":79,"Velocity":57,"Duration":126871,"SoundDuration":126871,"Delta":122695758},{"NoteNumber":78,"Velocity":55,"Duration":126871,"SoundDuration":126871,"Delta":122822630},{"NoteNumber":79,"Velocity":57,"Duration":126871,"SoundDuration":126871,"Delta":122949501},{"NoteNumber":81,"Velocity":55,"Duration":126871,"SoundDuration":126871,"Delta":123076372},{"NoteNumber":83,"Velocity":62,"Duration":126871,"SoundDuration":126871,"Delta":123203243},{"NoteNumber":81,"Velocity":55,"Duration":126871,"SoundDuration":126871,"Delta":123330115},{"NoteNumber":83,"Velocity":62,"Duration":126871,"SoundDuration":126871,"Delta":123456986},{"NoteNumber":84,"Velocity":59,"Duration":126871,"SoundDuration":126871,"Delta":123583857},{"NoteNumber":86,"Velocity":75,"Duration":518895,"SoundDuration":518895,"Delta":123710728},{"NoteNumber":55,"Velocity":50,"Duration":518895,"SoundDuration":518895,"Delta":123710728},{"NoteNumber":59,"Velocity":59,"Duration":518895,"SoundDuration":518895,"Delta":123710728},{"NoteNumber":71,"Velocity":58,"Duration":517973,"SoundDuration":517973,"Delta":124229624},{"NoteNumber":62,"Velocity":41,"Duration":517973,"SoundDuration":517973,"Delta":124229624},{"NoteNumber":69,"Velocity":57,"Duration":65136,"SoundDuration":65136,"Delta":124747597},{"NoteNumber":50,"Velocity":35,"Duration":511832,"SoundDuration":511832,"Delta":124747597},{"NoteNumber":71,"Velocity":50,"Duration":64227,"SoundDuration":64227,"Delta":124812734},{"NoteNumber":69,"Velocity":52,"Duration":63353,"SoundDuration":63353,"Delta":124876962},{"NoteNumber":71,"Velocity":58,"Duration":62488,"SoundDuration":62488,"Delta":124940315},{"NoteNumber":69,"Velocity":49,"Duration":78931,"SoundDuration":78931,"Delta":125002803},{"NoteNumber":71,"Velocity":52,"Duration":79999,"SoundDuration":79999,"Delta":125081734},{"NoteNumber":69,"Velocity":52,"Duration":81333,"SoundDuration":81333,"Delta":125161734},{"NoteNumber":67,"Velocity":58,"Duration":1097880,"SoundDuration":1097880,"Delta":125259430},{"NoteNumber":55,"Velocity":46,"Duration":535713,"SoundDuration":535713,"Delta":125259430},{"NoteNumber":50,"Velocity":40,"Duration":140541,"SoundDuration":140541,"Delta":125795144},{"NoteNumber":43,"Velocity":42,"Duration":281082,"SoundDuration":281082,"Delta":126357310},{"NoteNumber":79,"Velocity":57,"Duration":490877,"SoundDuration":490877,"Delta":126919476},{"NoteNumber":76,"Velocity":46,"Duration":753506,"SoundDuration":753506,"Delta":126919476},{"NoteNumber":84,"Velocity":57,"Duration":131314,"SoundDuration":131314,"Delta":127410354},{"NoteNumber":76,"Velocity":57,"Duration":257135,"SoundDuration":257135,"Delta":127935610},{"NoteNumber":72,"Velocity":37,"Duration":524130,"SoundDuration":524130,"Delta":127935610},{"NoteNumber":79,"Velocity":48,"Duration":138427,"SoundDuration":138427,"Delta":128321313},{"NoteNumber":77,"Velocity":57,"Duration":492390,"SoundDuration":492390,"Delta":128459741},{"NoteNumber":74,"Velocity":46,"Duration":492390,"SoundDuration":492390,"Delta":128459741},{"NoteNumber":86,"Velocity":52,"Duration":132473,"SoundDuration":132473,"Delta":128952131},{"NoteNumber":71,"Velocity":42,"Duration":132473,"SoundDuration":132473,"Delta":128952131},{"NoteNumber":74,"Velocity":57,"Duration":258286,"SoundDuration":258286,"Delta":129482026},{"NoteNumber":67,"Velocity":40,"Duration":525195,"SoundDuration":525195,"Delta":129482026},{"NoteNumber":77,"Velocity":54,"Duration":137766,"SoundDuration":137766,"Delta":129869455},{"NoteNumber":76,"Velocity":57,"Duration":518896,"SoundDuration":518896,"Delta":130007222},{"NoteNumber":72,"Velocity":46,"Duration":518896,"SoundDuration":518896,"Delta":130007222},{"NoteNumber":79,"Velocity":62,"Duration":537921,"SoundDuration":537921,"Delta":130526118},{"NoteNumber":64,"Velocity":39,"Duration":537921,"SoundDuration":537921,"Delta":130526118},{"NoteNumber":80,"Velocity":58,"Duration":389172,"SoundDuration":389172,"Delta":131064040},{"NoteNumber":65,"Velocity":46,"Duration":528266,"SoundDuration":528266,"Delta":131064040},{"NoteNumber":81,"Velocity":51,"Duration":138207,"SoundDuration":138207,"Delta":131469439},{"NoteNumber":72,"Velocity":58,"Duration":1064160,"SoundDuration":1064160,"Delta":131592307},{"NoteNumber":67,"Velocity":54,"Duration":525947,"SoundDuration":525947,"Delta":131592307},{"NoteNumber":62,"Velocity":40,"Duration":134553,"SoundDuration":134553,"Delta":132118254},{"NoteNumber":71,"Velocity":55,"Duration":269106,"SoundDuration":269106,"Delta":132656467},{"NoteNumber":55,"Velocity":42,"Duration":269106,"SoundDuration":269106,"Delta":132656467},{"NoteNumber":67,"Velocity":75,"Duration":521241,"SoundDuration":521241,"Delta":133194680},{"NoteNumber":48,"Velocity":50,"Duration":521241,"SoundDuration":521241,"Delta":133194680},{"NoteNumber":52,"Velocity":50,"Duration":521241,"SoundDuration":521241,"Delta":133194680},{"NoteNumber":55,"Velocity":50,"Duration":521241,"SoundDuration":521241,"Delta":133194680},{"NoteNumber":60,"Velocity":59,"Duration":521241,"SoundDuration":521241,"Delta":133194680},{"NoteNumber":72,"Velocity":57,"Duration":126871,"SoundDuration":126871,"Delta":133715921},{"NoteNumber":71,"Velocity":55,"Duration":126871,"SoundDuration":126871,"Delta":133842792},{"NoteNumber":72,"Velocity":57,"Duration":126871,"SoundDuration":126871,"Delta":133964377},{"NoteNumber":74,"Velocity":55,"Duration":126871,"SoundDuration":126871,"Delta":134096534},{"NoteNumber":76,"Velocity":62,"Duration":126359,"SoundDuration":126359,"Delta":134218119},{"NoteNumber":74,"Velocity":55,"Duration":126337,"SoundDuration":126337,"Delta":134349743},{"NoteNumber":76,"Velocity":62,"Duration":126337,"SoundDuration":126337,"Delta":134470815},{"NoteNumber":77,"Velocity":59,"Duration":126337,"SoundDuration":126337,"Delta":134602417},{"NoteNumber":79,"Velocity":81,"Duration":518896,"SoundDuration":518896,"Delta":134728754},{"NoteNumber":48,"Velocity":50,"Duration":518896,"SoundDuration":518896,"Delta":134728754},{"NoteNumber":52,"Velocity":50,"Duration":518896,"SoundDuration":518896,"Delta":134728754},{"NoteNumber":55,"Velocity":50,"Duration":518896,"SoundDuration":518896,"Delta":134728754},{"NoteNumber":60,"Velocity":59,"Duration":518896,"SoundDuration":518896,"Delta":134728754},{"NoteNumber":72,"Velocity":57,"Duration":253742,"SoundDuration":253742,"Delta":135247650},{"NoteNumber":74,"Velocity":57,"Duration":126371,"SoundDuration":126371,"Delta":135501392},{"NoteNumber":76,"Velocity":55,"Duration":126063,"SoundDuration":126063,"Delta":135627763},{"NoteNumber":77,"Velocity":63,"Duration":125751,"SoundDuration":125751,"Delta":135753827},{"NoteNumber":79,"Velocity":65,"Duration":125219,"SoundDuration":125219,"Delta":135879578},{"NoteNumber":81,"Velocity":66,"Duration":124903,"SoundDuration":124903,"Delta":136004797},{"NoteNumber":83,"Velocity":69,"Duration":124601,"SoundDuration":124601,"Delta":136129701},{"NoteNumber":84,"Velocity":78,"Duration":518896,"SoundDuration":518896,"Delta":136254303},{"NoteNumber":52,"Velocity":59,"Duration":518896,"SoundDuration":518896,"Delta":136254303},{"NoteNumber":76,"Velocity":69,"Duration":531879,"SoundDuration":531879,"Delta":136773199},{"NoteNumber":72,"Velocity":58,"Duration":531879,"SoundDuration":531879,"Delta":136773199},{"NoteNumber":55,"Velocity":41,"Duration":531879,"SoundDuration":531879,"Delta":136773199},{"NoteNumber":71,"Velocity":58,"Duration":554374,"SoundDuration":554374,"Delta":137305078},{"NoteNumber":74,"Velocity":69,"Duration":554374,"SoundDuration":554374,"Delta":137305078},{"NoteNumber":43,"Velocity":41,"Duration":554374,"SoundDuration":554374,"Delta":137305078},{"NoteNumber":67,"Velocity":60,"Duration":1564933,"SoundDuration":1564933,"Delta":137859453},{"NoteNumber":72,"Velocity":70,"Duration":1564933,"SoundDuration":1564933,"Delta":137859453},{"NoteNumber":64,"Velocity":60,"Duration":1564933,"SoundDuration":1564933,"Delta":137859453},{"NoteNumber":48,"Velocity":46,"Duration":567483,"SoundDuration":567483,"Delta":137859453},{"NoteNumber":43,"Velocity":40,"Duration":166241,"SoundDuration":166241,"Delta":138426936},{"NoteNumber":36,"Velocity":42,"Duration":332483,"SoundDuration":332483,"Delta":139091903}],"license":{"name":"Creative Commons Attribution-ShareAlike 3.0 Germany","url":"http://creativecommons.org/licenses/by-sa/3.0/de/deed.en","text":"The MIDI, audio (MP3, OGG) and video files of Bernd Krueger are licensed under the cc-by-sa Germany License. This means that you can use and adapt the files, as long as you attribute the copyright holder.\n\nName: Bernd Krueger\nSource: http://www.piano-midi.de\n\nThe distribution or public playback of the files is only allowed under identical license conditions.\n\nThe scores are open source.","attribution":"MIDI files by Bernd Krueger (piano-midi.de)","attributionUrl":"http://www.piano-midi.de"}}