{"title":"Klaviersonate Hoboken XVI: 43 1. Satz","artist":"Haydn","durationMs":376561,"midiSha256":"33645e0eee36eec61b6a29f3f71a98e75b5f5178042c8deb6a746e105c02de5d","midiObject":[{"NoteNumber":63,"Velocity":72,"Duration":344220,"SoundDuration":344220,"Delta":0},{"NoteNumber":60,"Velocity":66,"Duration":114740,"SoundDuration":114740,"Delta":344220},{"NoteNumber":68,"Velocity":72,"Duration":344220,"SoundDuration":344220,"Delta":458961},{"NoteNumber":44,"Velocity":49,"Duration":458961,"SoundDuration":458961,"Delta":458961},{"NoteNumber":56,"Velocity":58,"Duration":458961,"SoundDuration":458961,"Delta":458961},{"NoteNumber":68,"Velocity":65,"Duration":114740,"SoundDuration":114740,"Delta":803181},{"NoteNumber":68,"Velocity":72,"Duration":57370,"SoundDuration":57370,"Delta":917922},{"NoteNumber":70,"Velocity":62,"Duration":57370,"SoundDuration":57370,"Delta":975292},{"NoteNumber":68,"Velocity":72,"Duration":57370,"SoundDuration":57370,"Delta":1032662},{"NoteNumber":70,"Velocity":58,"Duration":57370,"SoundDuration":57370,"Delta":1090032},{"NoteNumber":68,"Velocity":69,"Duration":38246,"SoundDuration":38246,"Delta":1147402},{"NoteNumber":70,"Velocity":59,"Duration":38246,"SoundDuration":38246,"Delta":1185649},{"NoteNumber":68,"Velocity":69,"Duration":38246,"SoundDuration":38246,"Delta":1223896},{"NoteNumber":67,"Velocity":65,"Duration":57370,"SoundDuration":57370,"Delta":1262142},{"NoteNumber":68,"Velocity":58,"Duration":57370,"SoundDuration":57370,"Delta":1319512},{"NoteNumber":70,"Velocity":72,"Duration":458960,"SoundDuration":458960,"Delta":1376883},{"NoteNumber":43,"Velocity":49,"Duration":458960,"SoundDuration":458960,"Delta":1376883},{"NoteNumber":55,"Velocity":58,"Duration":458960,"SoundDuration":458960,"Delta":1376883},{"NoteNumber":63,"Velocity":72,"Duration":344220,"SoundDuration":344220,"Delta":1835844},{"NoteNumber":75,"Velocity":68,"Duration":121467,"SoundDuration":121467,"Delta":2180064},{"NoteNumber":73,"Velocity":82,"Duration":913659,"SoundDuration":913659,"Delta":2301531},{"NoteNumber":44,"Velocity":47,"Duration":456829,"SoundDuration":456829,"Delta":2758361},{"NoteNumber":72,"Velocity":72,"Duration":171311,"SoundDuration":171311,"Delta":3215191},{"NoteNumber":56,"Velocity":58,"Duration":171311,"SoundDuration":171311,"Delta":3215191},{"NoteNumber":68,"Velocity":49,"Duration":342622,"SoundDuration":342622,"Delta":3672021},{"NoteNumber":77,"Velocity":44,"Duration":119942,"SoundDuration":119942,"Delta":4014644},{"NoteNumber":75,"Velocity":55,"Duration":913660,"SoundDuration":913660,"Delta":4134586},{"NoteNumber":58,"Velocity":31,"Duration":456830,"SoundDuration":456830,"Delta":4591416},{"NoteNumber":73,"Velocity":49,"Duration":171311,"SoundDuration":171311,"Delta":5048246},{"NoteNumber":55,"Velocity":39,"Duration":171311,"SoundDuration":171311,"Delta":5048246},{"NoteNumber":63,"Velocity":72,"Duration":342622,"SoundDuration":342622,"Delta":5505076},{"NoteNumber":75,"Velocity":68,"Duration":114207,"SoundDuration":114207,"Delta":5847699},{"NoteNumber":73,"Velocity":82,"Duration":913659,"SoundDuration":913659,"Delta":5961906},{"NoteNumber":56,"Velocity":47,"Duration":456830,"SoundDuration":456830,"Delta":6418736},{"NoteNumber":72,"Velocity":72,"Duration":175507,"SoundDuration":175507,"Delta":6875566},{"NoteNumber":44,"Velocity":58,"Duration":175507,"SoundDuration":175507,"Delta":6875566},{"NoteNumber":80,"Velocity":81,"Duration":341245,"SoundDuration":341245,"Delta":7343585},{"NoteNumber":48,"Velocity":52,"Duration":454993,"SoundDuration":454993,"Delta":7343585},{"NoteNumber":72,"Velocity":68,"Duration":113748,"SoundDuration":113748,"Delta":7684831},{"NoteNumber":70,"Velocity":79,"Duration":341245,"SoundDuration":341245,"Delta":7798579},{"NoteNumber":49,"Velocity":58,"Duration":909988,"SoundDuration":909988,"Delta":7798579},{"NoteNumber":70,"Velocity":65,"Duration":113748,"SoundDuration":113748,"Delta":8139825},{"NoteNumber":70,"Velocity":72,"Duration":56874,"SoundDuration":56874,"Delta":8253573},{"NoteNumber":72,"Velocity":62,"Duration":56874,"SoundDuration":56874,"Delta":8310448},{"NoteNumber":70,"Velocity":72,"Duration":56874,"SoundDuration":56874,"Delta":8367322},{"NoteNumber":72,"Velocity":58,"Duration":56874,"SoundDuration":56874,"Delta":8424196},{"NoteNumber":70,"Velocity":69,"Duration":37916,"SoundDuration":37916,"Delta":8481070},{"NoteNumber":72,"Velocity":59,"Duration":37916,"SoundDuration":37916,"Delta":8518987},{"NoteNumber":70,"Velocity":69,"Duration":37916,"SoundDuration":37916,"Delta":8556903},{"NoteNumber":69,"Velocity":65,"Duration":56874,"SoundDuration":56874,"Delta":8594819},{"NoteNumber":70,"Velocity":58,"Duration":56874,"SoundDuration":56874,"Delta":8651693},{"NoteNumber":73,"Velocity":78,"Duration":341245,"SoundDuration":341245,"Delta":8708567},{"NoteNumber":70,"Velocity":71,"Duration":113748,"SoundDuration":113748,"Delta":9049813},{"NoteNumber":67,"Velocity":79,"Duration":343983,"SoundDuration":343983,"Delta":9163561},{"NoteNumber":51,"Velocity":52,"Duration":465450,"SoundDuration":465450,"Delta":9163561},{"NoteNumber":63,"Velocity":72,"Duration":121467,"SoundDuration":121467,"Delta":9507545},{"NoteNumber":68,"Velocity":81,"Duration":341245,"SoundDuration":341245,"Delta":9629012},{"NoteNumber":44,"Velocity":47,"Duration":113748,"SoundDuration":113748,"Delta":9970258},{"NoteNumber":48,"Velocity":58,"Duration":341245,"SoundDuration":341245,"Delta":10084006},{"NoteNumber":51,"Velocity":52,"Duration":113748,"SoundDuration":113748,"Delta":10425252},{"NoteNumber":56,"Velocity":59,"Duration":341245,"SoundDuration":341245,"Delta":10539001},{"NoteNumber":63,"Velocity":72,"Duration":341245,"SoundDuration":341245,"Delta":10993994},{"NoteNumber":60,"Velocity":66,"Duration":113748,"SoundDuration":113748,"Delta":11335240},{"NoteNumber":68,"Velocity":72,"Duration":341245,"SoundDuration":341245,"Delta":11448989},{"NoteNumber":56,"Velocity":49,"Duration":454993,"SoundDuration":454993,"Delta":11448989},{"NoteNumber":60,"Velocity":58,"Duration":454993,"SoundDuration":454993,"Delta":11448989},{"NoteNumber":68,"Velocity":65,"Duration":113748,"SoundDuration":113748,"Delta":11790234},{"NoteNumber":68,"Velocity":72,"Duration":56874,"SoundDuration":56874,"Delta":11903982},{"NoteNumber":70,"Velocity":62,"Duration":56874,"SoundDuration":56874,"Delta":11960857},{"NoteNumber":68,"Velocity":72,"Duration":56874,"SoundDuration":56874,"Delta":12017731},{"NoteNumber":70,"Velocity":58,"Duration":56874,"SoundDuration":56874,"Delta":12074605},{"NoteNumber":68,"Velocity":69,"Duration":37916,"SoundDuration":37916,"Delta":12131479},{"NoteNumber":70,"Velocity":59,"Duration":37916,"SoundDuration":37916,"Delta":12169396},{"NoteNumber":68,"Velocity":69,"Duration":37916,"SoundDuration":37916,"Delta":12207312},{"NoteNumber":67,"Velocity":65,"Duration":56874,"SoundDuration":56874,"Delta":12245228},{"NoteNumber":68,"Velocity":58,"Duration":56874,"SoundDuration":56874,"Delta":12302102},{"NoteNumber":70,"Velocity":72,"Duration":468018,"SoundDuration":468018,"Delta":12358976},{"NoteNumber":55,"Velocity":49,"Duration":468018,"SoundDuration":468018,"Delta":12358976},{"NoteNumber":58,"Velocity":58,"Duration":468018,"SoundDuration":468018,"Delta":12358976},{"NoteNumber":63,"Velocity":72,"Duration":343983,"SoundDuration":343983,"Delta":12826995},{"NoteNumber":75,"Velocity":68,"Duration":120948,"SoundDuration":120948,"Delta":13170979},{"NoteNumber":73,"Velocity":82,"Duration":920951,"SoundDuration":920951,"Delta":13291927},{"NoteNumber":44,"Velocity":47,"Duration":460475,"SoundDuration":460475,"Delta":13752403},{"NoteNumber":72,"Velocity":72,"Duration":172678,"SoundDuration":172678,"Delta":14212879},{"NoteNumber":56,"Velocity":58,"Duration":460475,"SoundDuration":460475,"Delta":14212879},{"NoteNumber":68,"Velocity":76,"Duration":338574,"SoundDuration":338574,"Delta":14673355},{"NoteNumber":60,"Velocity":58,"Duration":458010,"SoundDuration":458010,"Delta":14673355},{"NoteNumber":80,"Velocity":69,"Duration":119436,"SoundDuration":119436,"Delta":15011930},{"NoteNumber":79,"Velocity":79,"Duration":460475,"SoundDuration":460475,"Delta":15131366},{"NoteNumber":77,"Velocity":68,"Duration":113301,"SoundDuration":113301,"Delta":15591842},{"NoteNumber":61,"Velocity":58,"Duration":113301,"SoundDuration":113301,"Delta":15591842},{"NoteNumber":80,"Velocity":78,"Duration":120443,"SoundDuration":120443,"Delta":15931747},{"NoteNumber":77,"Velocity":73,"Duration":460475,"SoundDuration":460475,"Delta":16052190},{"NoteNumber":75,"Velocity":76,"Duration":112410,"SoundDuration":112410,"Delta":16512666},{"NoteNumber":60,"Velocity":58,"Duration":112410,"SoundDuration":112410,"Delta":16512666},{"NoteNumber":80,"Velocity":69,"Duration":119436,"SoundDuration":119436,"Delta":16849896},{"NoteNumber":75,"Velocity":79,"Duration":460475,"SoundDuration":460475,"Delta":16969332},{"NoteNumber":73,"Velocity":68,"Duration":112858,"SoundDuration":112858,"Delta":17429808},{"NoteNumber":58,"Velocity":58,"Duration":112858,"SoundDuration":112858,"Delta":17429808},{"NoteNumber":80,"Velocity":78,"Duration":121981,"SoundDuration":121981,"Delta":17768383},{"NoteNumber":73,"Velocity":73,"Duration":460475,"SoundDuration":460475,"Delta":17890364},{"NoteNumber":72,"Velocity":76,"Duration":112410,"SoundDuration":112410,"Delta":18350840},{"NoteNumber":56,"Velocity":58,"Duration":112410,"SoundDuration":112410,"Delta":18350840},{"NoteNumber":80,"Velocity":69,"Duration":119942,"SoundDuration":119942,"Delta":18688070},{"NoteNumber":72,"Velocity":74,"Duration":345356,"SoundDuration":345356,"Delta":18808013},{"NoteNumber":70,"Velocity":66,"Duration":115118,"SoundDuration":115118,"Delta":19153370},{"NoteNumber":73,"Velocity":73,"Duration":345356,"SoundDuration":345356,"Delta":19268489},{"NoteNumber":61,"Velocity":49,"Duration":460475,"SoundDuration":460475,"Delta":19268489},{"NoteNumber":49,"Velocity":49,"Duration":460475,"SoundDuration":460475,"Delta":19268489},{"NoteNumber":77,"Velocity":66,"Duration":115118,"SoundDuration":115118,"Delta":19613846},{"NoteNumber":75,"Velocity":76,"Duration":466091,"SoundDuration":466091,"Delta":19728965},{"NoteNumber":51,"Velocity":58,"Duration":949884,"SoundDuration":949884,"Delta":19728965},{"NoteNumber":60,"Velocity":58,"Duration":466091,"SoundDuration":466091,"Delta":19728965},{"NoteNumber":67,"Velocity":69,"Duration":453555,"SoundDuration":453555,"Delta":20195057},{"NoteNumber":58,"Velocity":55,"Duration":483792,"SoundDuration":483792,"Delta":20195057},{"NoteNumber":67,"Velocity":46,"Duration":30237,"SoundDuration":30237,"Delta":20648613},{"NoteNumber":68,"Velocity":73,"Duration":113438,"SoundDuration":113438,"Delta":20678850},{"NoteNumber":56,"Velocity":55,"Duration":151251,"SoundDuration":151251,"Delta":20678850},{"NoteNumber":60,"Velocity":47,"Duration":151251,"SoundDuration":151251,"Delta":20830101},{"NoteNumber":63,"Velocity":47,"Duration":151251,"SoundDuration":151251,"Delta":20981353},{"NoteNumber":67,"Velocity":53,"Duration":28359,"SoundDuration":28359,"Delta":21104245},{"NoteNumber":68,"Velocity":73,"Duration":112166,"SoundDuration":112166,"Delta":21132605},{"NoteNumber":56,"Velocity":55,"Duration":149554,"SoundDuration":149554,"Delta":21132605},{"NoteNumber":60,"Velocity":47,"Duration":149554,"SoundDuration":149554,"Delta":21282160},{"NoteNumber":63,"Velocity":49,"Duration":149554,"SoundDuration":149554,"Delta":21431715},{"NoteNumber":67,"Velocity":55,"Duration":28041,"SoundDuration":28041,"Delta":21553228},{"NoteNumber":68,"Velocity":73,"Duration":112410,"SoundDuration":112410,"Delta":21581270},{"NoteNumber":56,"Velocity":55,"Duration":149879,"SoundDuration":149879,"Delta":21581270},{"NoteNumber":60,"Velocity":50,"Duration":148345,"SoundDuration":148345,"Delta":21731150},{"NoteNumber":63,"Velocity":50,"Duration":146810,"SoundDuration":146810,"Delta":21879495},{"NoteNumber":69,"Velocity":55,"Duration":27526,"SoundDuration":27526,"Delta":21998779},{"NoteNumber":70,"Velocity":79,"Duration":110108,"SoundDuration":110108,"Delta":22026306},{"NoteNumber":55,"Velocity":55,"Duration":146810,"SoundDuration":146810,"Delta":22026306},{"NoteNumber":58,"Velocity":52,"Duration":146810,"SoundDuration":146810,"Delta":22173116},{"NoteNumber":63,"Velocity":52,"Duration":161264,"SoundDuration":161264,"Delta":22319927},{"NoteNumber":71,"Velocity":76,"Duration":469924,"SoundDuration":469924,"Delta":22481191},{"NoteNumber":56,"Velocity":55,"Duration":156641,"SoundDuration":156641,"Delta":22481191},{"NoteNumber":60,"Velocity":47,"Duration":156641,"SoundDuration":156641,"Delta":22637833},{"NoteNumber":63,"Velocity":47,"Duration":156641,"SoundDuration":156641,"Delta":22794475},{"NoteNumber":72,"Velocity":69,"Duration":456830,"SoundDuration":456830,"Delta":22951116},{"NoteNumber":56,"Velocity":55,"Duration":152276,"SoundDuration":152276,"Delta":22951116},{"NoteNumber":60,"Velocity":47,"Duration":152276,"SoundDuration":152276,"Delta":23103393},{"NoteNumber":63,"Velocity":37,"Duration":152276,"SoundDuration":152276,"Delta":23255670},{"NoteNumber":68,"Velocity":61,"Duration":923339,"SoundDuration":923339,"Delta":23407946},{"NoteNumber":56,"Velocity":50,"Duration":152276,"SoundDuration":152276,"Delta":23407946},{"NoteNumber":60,"Velocity":41,"Duration":152276,"SoundDuration":152276,"Delta":23560223},{"NoteNumber":63,"Velocity":41,"Duration":152276,"SoundDuration":152276,"Delta":23712500},{"NoteNumber":56,"Velocity":50,"Duration":152276,"SoundDuration":152276,"Delta":23864776},{"NoteNumber":60,"Velocity":46,"Duration":152276,"SoundDuration":152276,"Delta":24017053},{"NoteNumber":63,"Velocity":46,"Duration":161956,"SoundDuration":161956,"Delta":24169330},{"NoteNumber":71,"Velocity":46,"Duration":30366,"SoundDuration":30366,"Delta":24300919},{"NoteNumber":72,"Velocity":73,"Duration":114207,"SoundDuration":114207,"Delta":24331286},{"NoteNumber":56,"Velocity":55,"Duration":152276,"SoundDuration":152276,"Delta":24331286},{"NoteNumber":60,"Velocity":47,"Duration":152276,"SoundDuration":152276,"Delta":24483563},{"NoteNumber":63,"Velocity":47,"Duration":152276,"SoundDuration":152276,"Delta":24635839},{"NoteNumber":71,"Velocity":53,"Duration":28551,"SoundDuration":28551,"Delta":24759564},{"NoteNumber":72,"Velocity":73,"Duration":111333,"SoundDuration":111333,"Delta":24788116},{"NoteNumber":56,"Velocity":55,"Duration":148444,"SoundDuration":148444,"Delta":24788116},{"NoteNumber":60,"Velocity":47,"Duration":148445,"SoundDuration":148445,"Delta":24936561},{"NoteNumber":63,"Velocity":49,"Duration":148444,"SoundDuration":148444,"Delta":25085006},{"NoteNumber":71,"Velocity":55,"Duration":27833,"SoundDuration":27833,"Delta":25205618},{"NoteNumber":72,"Velocity":73,"Duration":109705,"SoundDuration":109705,"Delta":25233451},{"NoteNumber":56,"Velocity":55,"Duration":146273,"SoundDuration":146273,"Delta":25233451},{"NoteNumber":60,"Velocity":50,"Duration":146273,"SoundDuration":146273,"Delta":25379725},{"NoteNumber":63,"Velocity":50,"Duration":146273,"SoundDuration":146273,"Delta":25525998},{"NoteNumber":75,"Velocity":79,"Duration":109705,"SoundDuration":109705,"Delta":25672272},{"NoteNumber":58,"Velocity":55,"Duration":146273,"SoundDuration":146273,"Delta":25672272},{"NoteNumber":73,"Velocity":71,"Duration":109705,"SoundDuration":109705,"Delta":25781977},{"NoteNumber":61,"Velocity":52,"Duration":146273,"SoundDuration":146273,"Delta":25818546},{"NoteNumber":72,"Velocity":76,"Duration":114147,"SoundDuration":114147,"Delta":25891683},{"NoteNumber":67,"Velocity":52,"Duration":164042,"SoundDuration":164042,"Delta":25964819},{"NoteNumber":73,"Velocity":69,"Duration":123031,"SoundDuration":123031,"Delta":26005830},{"NoteNumber":75,"Velocity":79,"Duration":906411,"SoundDuration":906411,"Delta":26128861},{"NoteNumber":60,"Velocity":55,"Duration":151068,"SoundDuration":151068,"Delta":26128861},{"NoteNumber":63,"Velocity":47,"Duration":151068,"SoundDuration":151068,"Delta":26279930},{"NoteNumber":68,"Velocity":47,"Duration":151068,"SoundDuration":151068,"Delta":26430999},{"NoteNumber":60,"Velocity":55,"Duration":151068,"SoundDuration":151068,"Delta":26582067},{"NoteNumber":63,"Velocity":47,"Duration":151068,"SoundDuration":151068,"Delta":26733136},{"NoteNumber":68,"Velocity":39,"Duration":151068,"SoundDuration":151068,"Delta":26884205},{"NoteNumber":72,"Velocity":68,"Duration":906411,"SoundDuration":906411,"Delta":27035273},{"NoteNumber":60,"Velocity":52,"Duration":151068,"SoundDuration":151068,"Delta":27035273},{"NoteNumber":63,"Velocity":43,"Duration":151068,"SoundDuration":151068,"Delta":27186342},{"NoteNumber":68,"Velocity":43,"Duration":151068,"SoundDuration":151068,"Delta":27337411},{"NoteNumber":60,"Velocity":53,"Duration":151068,"SoundDuration":151068,"Delta":27488479},{"NoteNumber":63,"Velocity":44,"Duration":151068,"SoundDuration":151068,"Delta":27639548},{"NoteNumber":68,"Velocity":44,"Duration":151068,"SoundDuration":151068,"Delta":27790617},{"NoteNumber":80,"Velocity":92,"Duration":447894,"SoundDuration":447894,"Delta":27941685},{"NoteNumber":60,"Velocity":55,"Duration":149298,"SoundDuration":149298,"Delta":27941685},{"NoteNumber":63,"Velocity":47,"Duration":149298,"SoundDuration":149298,"Delta":28090984},{"NoteNumber":68,"Velocity":47,"Duration":149298,"SoundDuration":149298,"Delta":28240282},{"NoteNumber":80,"Velocity":85,"Duration":145879,"SoundDuration":145879,"Delta":28389580},{"NoteNumber":60,"Velocity":55,"Duration":145879,"SoundDuration":145879,"Delta":28389580},{"NoteNumber":84,"Velocity":72,"Duration":145879,"SoundDuration":145879,"Delta":28535459},{"NoteNumber":63,"Velocity":47,"Duration":145879,"SoundDuration":145879,"Delta":28535459},{"NoteNumber":87,"Velocity":72,"Duration":145878,"SoundDuration":145878,"Delta":28681338},{"NoteNumber":68,"Velocity":39,"Duration":145878,"SoundDuration":145878,"Delta":28681338},{"NoteNumber":78,"Velocity":82,"Duration":902865,"SoundDuration":902865,"Delta":28827217},{"NoteNumber":60,"Velocity":46,"Duration":150477,"SoundDuration":150477,"Delta":28827217},{"NoteNumber":63,"Velocity":36,"Duration":150477,"SoundDuration":150477,"Delta":28977695},{"NoteNumber":68,"Velocity":36,"Duration":150477,"SoundDuration":150477,"Delta":29128173},{"NoteNumber":60,"Velocity":47,"Duration":150477,"SoundDuration":150477,"Delta":29278650},{"NoteNumber":63,"Velocity":40,"Duration":150477,"SoundDuration":150477,"Delta":29429128},{"NoteNumber":68,"Velocity":40,"Duration":150477,"SoundDuration":150477,"Delta":29579606},{"NoteNumber":77,"Velocity":92,"Duration":439302,"SoundDuration":439302,"Delta":29730083},{"NoteNumber":61,"Velocity":55,"Duration":146434,"SoundDuration":146434,"Delta":29730083},{"NoteNumber":65,"Velocity":47,"Duration":146434,"SoundDuration":146434,"Delta":29876518},{"NoteNumber":68,"Velocity":47,"Duration":146434,"SoundDuration":146434,"Delta":30022952},{"NoteNumber":77,"Velocity":85,"Duration":144227,"SoundDuration":144227,"Delta":30169386},{"NoteNumber":61,"Velocity":55,"Duration":144227,"SoundDuration":144227,"Delta":30169386},{"NoteNumber":82,"Velocity":72,"Duration":144227,"SoundDuration":144227,"Delta":30313614},{"NoteNumber":65,"Velocity":47,"Duration":144227,"SoundDuration":144227,"Delta":30313614},{"NoteNumber":85,"Velocity":72,"Duration":144227,"SoundDuration":144227,"Delta":30457841},{"NoteNumber":68,"Velocity":39,"Duration":144227,"SoundDuration":144227,"Delta":30457841},{"NoteNumber":75,"Velocity":82,"Duration":671084,"SoundDuration":671084,"Delta":30602068},{"NoteNumber":61,"Velocity":49,"Duration":150477,"SoundDuration":150477,"Delta":30602068},{"NoteNumber":63,"Velocity":39,"Duration":150477,"SoundDuration":150477,"Delta":30752546},{"NoteNumber":67,"Velocity":39,"Duration":150477,"SoundDuration":150477,"Delta":30903024},{"NoteNumber":61,"Velocity":50,"Duration":146434,"SoundDuration":146434,"Delta":31053501},{"NoteNumber":63,"Velocity":44,"Duration":146434,"SoundDuration":146434,"Delta":31199936},{"NoteNumber":77,"Velocity":75,"Duration":109825,"SoundDuration":109825,"Delta":31273153},{"NoteNumber":67,"Velocity":44,"Duration":146434,"SoundDuration":146434,"Delta":31346370},{"NoteNumber":79,"Velocity":82,"Duration":109825,"SoundDuration":109825,"Delta":31382979},{"NoteNumber":80,"Velocity":94,"Duration":447895,"SoundDuration":447895,"Delta":31492804},{"NoteNumber":60,"Velocity":55,"Duration":149298,"SoundDuration":149298,"Delta":31492804},{"NoteNumber":63,"Velocity":47,"Duration":149298,"SoundDuration":149298,"Delta":31642103},{"NoteNumber":68,"Velocity":47,"Duration":149298,"SoundDuration":149298,"Delta":31791401},{"NoteNumber":80,"Velocity":81,"Duration":145879,"SoundDuration":145879,"Delta":31940699},{"NoteNumber":60,"Velocity":55,"Duration":145879,"SoundDuration":145879,"Delta":31940699},{"NoteNumber":82,"Velocity":72,"Duration":145879,"SoundDuration":145879,"Delta":32086578},{"NoteNumber":63,"Velocity":47,"Duration":145879,"SoundDuration":145879,"Delta":32086578},{"NoteNumber":84,"Velocity":66,"Duration":145879,"SoundDuration":145879,"Delta":32232457},{"NoteNumber":68,"Velocity":39,"Duration":145879,"SoundDuration":145879,"Delta":32232457},{"NoteNumber":73,"Velocity":84,"Duration":904807,"SoundDuration":904807,"Delta":32378336},{"NoteNumber":58,"Velocity":52,"Duration":148721,"SoundDuration":148721,"Delta":32378336},{"NoteNumber":61,"Velocity":43,"Duration":148720,"SoundDuration":148720,"Delta":32527057},{"NoteNumber":67,"Velocity":43,"Duration":148721,"SoundDuration":148721,"Delta":32675778},{"NoteNumber":58,"Velocity":53,"Duration":152881,"SoundDuration":152881,"Delta":32824499},{"NoteNumber":61,"Velocity":44,"Duration":152881,"SoundDuration":152881,"Delta":32977381},{"NoteNumber":67,"Velocity":44,"Duration":152881,"SoundDuration":152881,"Delta":33130263},{"NoteNumber":72,"Velocity":81,"Duration":152881,"SoundDuration":152881,"Delta":33283144},{"NoteNumber":56,"Velocity":55,"Duration":458645,"SoundDuration":458645,"Delta":33283144},{"NoteNumber":75,"Velocity":71,"Duration":152881,"SoundDuration":152881,"Delta":33436026},{"NoteNumber":73,"Velocity":71,"Duration":152881,"SoundDuration":152881,"Delta":33588908},{"NoteNumber":72,"Velocity":66,"Duration":152881,"SoundDuration":152881,"Delta":33741789},{"NoteNumber":84,"Velocity":78,"Duration":146785,"SoundDuration":146785,"Delta":33894671},{"NoteNumber":82,"Velocity":71,"Duration":146844,"SoundDuration":146844,"Delta":34041457},{"NoteNumber":80,"Velocity":71,"Duration":147431,"SoundDuration":147431,"Delta":34188301},{"NoteNumber":79,"Velocity":78,"Duration":148020,"SoundDuration":148020,"Delta":34335732},{"NoteNumber":77,"Velocity":68,"Duration":148626,"SoundDuration":148626,"Delta":34483752},{"NoteNumber":75,"Velocity":79,"Duration":149226,"SoundDuration":149226,"Delta":34632378},{"NoteNumber":73,"Velocity":71,"Duration":149832,"SoundDuration":149832,"Delta":34781604},{"NoteNumber":72,"Velocity":71,"Duration":150451,"SoundDuration":150451,"Delta":34931437},{"NoteNumber":75,"Velocity":81,"Duration":355365,"SoundDuration":355365,"Delta":35081889},{"NoteNumber":72,"Velocity":58,"Duration":118455,"SoundDuration":118455,"Delta":35437254},{"NoteNumber":70,"Velocity":70,"Duration":355365,"SoundDuration":355365,"Delta":35555710},{"NoteNumber":63,"Velocity":39,"Duration":473821,"SoundDuration":473821,"Delta":35555710},{"NoteNumber":67,"Velocity":46,"Duration":473821,"SoundDuration":473821,"Delta":35555710},{"NoteNumber":70,"Velocity":72,"Duration":343983,"SoundDuration":343983,"Delta":36488176},{"NoteNumber":67,"Velocity":66,"Duration":114661,"SoundDuration":114661,"Delta":36832159},{"NoteNumber":75,"Velocity":72,"Duration":334622,"SoundDuration":334622,"Delta":36946821},{"NoteNumber":51,"Velocity":58,"Duration":334622,"SoundDuration":334622,"Delta":36946821},{"NoteNumber":75,"Velocity":65,"Duration":111540,"SoundDuration":111540,"Delta":37281443},{"NoteNumber":75,"Velocity":72,"Duration":57103,"SoundDuration":57103,"Delta":37392984},{"NoteNumber":55,"Velocity":58,"Duration":228414,"SoundDuration":228414,"Delta":37392984},{"NoteNumber":77,"Velocity":62,"Duration":57103,"SoundDuration":57103,"Delta":37450087},{"NoteNumber":75,"Velocity":72,"Duration":57103,"SoundDuration":57103,"Delta":37507191},{"NoteNumber":77,"Velocity":58,"Duration":57103,"SoundDuration":57103,"Delta":37564295},{"NoteNumber":75,"Velocity":69,"Duration":38069,"SoundDuration":38069,"Delta":37621399},{"NoteNumber":77,"Velocity":59,"Duration":38069,"SoundDuration":38069,"Delta":37659468},{"NoteNumber":75,"Velocity":69,"Duration":38069,"SoundDuration":38069,"Delta":37697537},{"NoteNumber":74,"Velocity":65,"Duration":57103,"SoundDuration":57103,"Delta":37735606},{"NoteNumber":75,"Velocity":58,"Duration":57103,"SoundDuration":57103,"Delta":37792710},{"NoteNumber":77,"Velocity":72,"Duration":228415,"SoundDuration":228415,"Delta":37849814},{"NoteNumber":50,"Velocity":58,"Duration":228415,"SoundDuration":228415,"Delta":37849814},{"NoteNumber":74,"Velocity":72,"Duration":343983,"SoundDuration":343983,"Delta":38306644},{"NoteNumber":70,"Velocity":66,"Duration":114661,"SoundDuration":114661,"Delta":38650627},{"NoteNumber":77,"Velocity":72,"Duration":334622,"SoundDuration":334622,"Delta":38765289},{"NoteNumber":50,"Velocity":58,"Duration":334622,"SoundDuration":334622,"Delta":38765289},{"NoteNumber":77,"Velocity":65,"Duration":111540,"SoundDuration":111540,"Delta":39099911},{"NoteNumber":77,"Velocity":72,"Duration":57103,"SoundDuration":57103,"Delta":39211452},{"NoteNumber":58,"Velocity":44,"Duration":228414,"SoundDuration":228414,"Delta":39211452},{"NoteNumber":79,"Velocity":62,"Duration":57103,"SoundDuration":57103,"Delta":39268555},{"NoteNumber":77,"Velocity":72,"Duration":57103,"SoundDuration":57103,"Delta":39325659},{"NoteNumber":79,"Velocity":58,"Duration":57103,"SoundDuration":57103,"Delta":39382763},{"NoteNumber":77,"Velocity":69,"Duration":38069,"SoundDuration":38069,"Delta":39439867},{"NoteNumber":79,"Velocity":59,"Duration":38069,"SoundDuration":38069,"Delta":39477936},{"NoteNumber":77,"Velocity":69,"Duration":38069,"SoundDuration":38069,"Delta":39516005},{"NoteNumber":75,"Velocity":65,"Duration":57103,"SoundDuration":57103,"Delta":39554074},{"NoteNumber":77,"Velocity":58,"Duration":57103,"SoundDuration":57103,"Delta":39611178},{"NoteNumber":79,"Velocity":72,"Duration":334622,"SoundDuration":334622,"Delta":39668282},{"NoteNumber":51,"Velocity":53,"Duration":334622,"SoundDuration":334622,"Delta":39668282},{"NoteNumber":79,"Velocity":65,"Duration":111540,"SoundDuration":111540,"Delta":40002904},{"NoteNumber":79,"Velocity":73,"Duration":57103,"SoundDuration":57103,"Delta":40114445},{"NoteNumber":58,"Velocity":47,"Duration":228414,"SoundDuration":228414,"Delta":40114445},{"NoteNumber":80,"Velocity":63,"Duration":57103,"SoundDuration":57103,"Delta":40171548},{"NoteNumber":79,"Velocity":73,"Duration":57103,"SoundDuration":57103,"Delta":40228652},{"NoteNumber":80,"Velocity":59,"Duration":57103,"SoundDuration":57103,"Delta":40285756},{"NoteNumber":79,"Velocity":71,"Duration":38069,"SoundDuration":38069,"Delta":40342860},{"NoteNumber":80,"Velocity":60,"Duration":38069,"SoundDuration":38069,"Delta":40380929},{"NoteNumber":79,"Velocity":72,"Duration":38069,"SoundDuration":38069,"Delta":40418998},{"NoteNumber":77,"Velocity":68,"Duration":57103,"SoundDuration":57103,"Delta":40457067},{"NoteNumber":79,"Velocity":60,"Duration":57103,"SoundDuration":57103,"Delta":40514171},{"NoteNumber":80,"Velocity":76,"Duration":334622,"SoundDuration":334622,"Delta":40571275},{"NoteNumber":53,"Velocity":55,"Duration":334622,"SoundDuration":334622,"Delta":40571275},{"NoteNumber":80,"Velocity":69,"Duration":111540,"SoundDuration":111540,"Delta":40905897},{"NoteNumber":80,"Velocity":78,"Duration":57103,"SoundDuration":57103,"Delta":41017438},{"NoteNumber":62,"Velocity":37,"Duration":228414,"SoundDuration":228414,"Delta":41017438},{"NoteNumber":82,"Velocity":66,"Duration":57103,"SoundDuration":57103,"Delta":41074541},{"NoteNumber":80,"Velocity":78,"Duration":57103,"SoundDuration":57103,"Delta":41131645},{"NoteNumber":82,"Velocity":63,"Duration":57103,"SoundDuration":57103,"Delta":41188749},{"NoteNumber":80,"Velocity":75,"Duration":38069,"SoundDuration":38069,"Delta":41245853},{"NoteNumber":82,"Velocity":65,"Duration":38069,"SoundDuration":38069,"Delta":41283922},{"NoteNumber":80,"Velocity":76,"Duration":38069,"SoundDuration":38069,"Delta":41321991},{"NoteNumber":79,"Velocity":71,"Duration":57103,"SoundDuration":57103,"Delta":41360060},{"NoteNumber":80,"Velocity":63,"Duration":57103,"SoundDuration":57103,"Delta":41417164},{"NoteNumber":82,"Velocity":81,"Duration":334622,"SoundDuration":334622,"Delta":41474268},{"NoteNumber":55,"Velocity":56,"Duration":334622,"SoundDuration":334622,"Delta":41474268},{"NoteNumber":82,"Velocity":73,"Duration":111540,"SoundDuration":111540,"Delta":41808890},{"NoteNumber":82,"Velocity":82,"Duration":57103,"SoundDuration":57103,"Delta":41920431},{"NoteNumber":63,"Velocity":44,"Duration":228414,"SoundDuration":228414,"Delta":41920431},{"NoteNumber":84,"Velocity":71,"Duration":57103,"SoundDuration":57103,"Delta":41977534},{"NoteNumber":82,"Velocity":82,"Duration":57103,"SoundDuration":57103,"Delta":42034638},{"NoteNumber":84,"Velocity":66,"Duration":57103,"SoundDuration":57103,"Delta":42091742},{"NoteNumber":82,"Velocity":79,"Duration":38069,"SoundDuration":38069,"Delta":42148846},{"NoteNumber":84,"Velocity":68,"Duration":38069,"SoundDuration":38069,"Delta":42186915},{"NoteNumber":82,"Velocity":81,"Duration":38069,"SoundDuration":38069,"Delta":42224984},{"NoteNumber":80,"Velocity":75,"Duration":57103,"SoundDuration":57103,"Delta":42263053},{"NoteNumber":82,"Velocity":66,"Duration":57103,"SoundDuration":57103,"Delta":42320157},{"NoteNumber":84,"Velocity":85,"Duration":1370490,"SoundDuration":1370490,"Delta":42377261},{"NoteNumber":56,"Velocity":55,"Duration":152276,"SoundDuration":152276,"Delta":42377261},{"NoteNumber":60,"Velocity":47,"Duration":152276,"SoundDuration":152276,"Delta":42529537},{"NoteNumber":63,"Velocity":47,"Duration":152276,"SoundDuration":152276,"Delta":42681814},{"NoteNumber":56,"Velocity":55,"Duration":152276,"SoundDuration":152276,"Delta":42834091},{"NoteNumber":60,"Velocity":47,"Duration":152276,"SoundDuration":152276,"Delta":42986367},{"NoteNumber":63,"Velocity":39,"Duration":152276,"SoundDuration":152276,"Delta":43138644},{"NoteNumber":56,"Velocity":52,"Duration":152276,"SoundDuration":152276,"Delta":43290921},{"NoteNumber":60,"Velocity":43,"Duration":152276,"SoundDuration":152276,"Delta":43443197},{"NoteNumber":63,"Velocity":43,"Duration":152276,"SoundDuration":152276,"Delta":43595474},{"NoteNumber":76,"Velocity":79,"Duration":456829,"SoundDuration":456829,"Delta":43747751},{"NoteNumber":55,"Velocity":53,"Duration":152276,"SoundDuration":152276,"Delta":43747751},{"NoteNumber":58,"Velocity":44,"Duration":152276,"SoundDuration":152276,"Delta":43900027},{"NoteNumber":61,"Velocity":44,"Duration":152276,"SoundDuration":152276,"Delta":44052304},{"NoteNumber":77,"Velocity":81,"Duration":152881,"SoundDuration":152881,"Delta":44204581},{"NoteNumber":56,"Velocity":55,"Duration":458644,"SoundDuration":458644,"Delta":44204581},{"NoteNumber":80,"Velocity":71,"Duration":152881,"SoundDuration":152881,"Delta":44357462},{"NoteNumber":79,"Velocity":71,"Duration":152881,"SoundDuration":152881,"Delta":44510344},{"NoteNumber":77,"Velocity":66,"Duration":152881,"SoundDuration":152881,"Delta":44663226},{"NoteNumber":84,"Velocity":77,"Duration":146785,"SoundDuration":146785,"Delta":44816107},{"NoteNumber":82,"Velocity":69,"Duration":146844,"SoundDuration":146844,"Delta":44962893},{"NoteNumber":80,"Velocity":69,"Duration":147431,"SoundDuration":147431,"Delta":45109737},{"NoteNumber":79,"Velocity":65,"Duration":148020,"SoundDuration":148020,"Delta":45257168},{"NoteNumber":77,"Velocity":64,"Duration":148626,"SoundDuration":148626,"Delta":45405188},{"NoteNumber":75,"Velocity":73,"Duration":149226,"SoundDuration":149226,"Delta":45553815},{"NoteNumber":74,"Velocity":66,"Duration":149832,"SoundDuration":149832,"Delta":45703041},{"NoteNumber":72,"Velocity":65,"Duration":150451,"SoundDuration":150451,"Delta":45852874},{"NoteNumber":82,"Velocity":85,"Duration":1370489,"SoundDuration":1370489,"Delta":46003325},{"NoteNumber":55,"Velocity":55,"Duration":152276,"SoundDuration":152276,"Delta":46003325},{"NoteNumber":58,"Velocity":47,"Duration":152276,"SoundDuration":152276,"Delta":46155602},{"NoteNumber":63,"Velocity":47,"Duration":152276,"SoundDuration":152276,"Delta":46307878},{"NoteNumber":55,"Velocity":55,"Duration":152276,"SoundDuration":152276,"Delta":46460155},{"NoteNumber":58,"Velocity":47,"Duration":152276,"SoundDuration":152276,"Delta":46612432},{"NoteNumber":63,"Velocity":39,"Duration":152276,"SoundDuration":152276,"Delta":46764708},{"NoteNumber":55,"Velocity":52,"Duration":152276,"SoundDuration":152276,"Delta":46916985},{"NoteNumber":58,"Velocity":43,"Duration":152276,"SoundDuration":152276,"Delta":47069262},{"NoteNumber":63,"Velocity":43,"Duration":152276,"SoundDuration":152276,"Delta":47221538},{"NoteNumber":74,"Velocity":79,"Duration":456830,"SoundDuration":456830,"Delta":47373815},{"NoteNumber":53,"Velocity":53,"Duration":152276,"SoundDuration":152276,"Delta":47373815},{"NoteNumber":56,"Velocity":44,"Duration":152276,"SoundDuration":152276,"Delta":47526092},{"NoteNumber":59,"Velocity":44,"Duration":152276,"SoundDuration":152276,"Delta":47678368},{"NoteNumber":75,"Velocity":81,"Duration":152881,"SoundDuration":152881,"Delta":47830645},{"NoteNumber":55,"Velocity":55,"Duration":458644,"SoundDuration":458644,"Delta":47830645},{"NoteNumber":79,"Velocity":71,"Duration":152881,"SoundDuration":152881,"Delta":47983527},{"NoteNumber":77,"Velocity":71,"Duration":152881,"SoundDuration":152881,"Delta":48136408},{"NoteNumber":75,"Velocity":66,"Duration":152881,"SoundDuration":152881,"Delta":48289290},{"NoteNumber":82,"Velocity":78,"Duration":146785,"SoundDuration":146785,"Delta":48442172},{"NoteNumber":80,"Velocity":70,"Duration":146844,"SoundDuration":146844,"Delta":48588957},{"NoteNumber":79,"Velocity":70,"Duration":147431,"SoundDuration":147431,"Delta":48735802},{"NoteNumber":77,"Velocity":66,"Duration":148020,"SoundDuration":148020,"Delta":48883233},{"NoteNumber":75,"Velocity":66,"Duration":148626,"SoundDuration":148626,"Delta":49031253},{"NoteNumber":74,"Velocity":77,"Duration":149226,"SoundDuration":149226,"Delta":49179879},{"NoteNumber":72,"Velocity":70,"Duration":149832,"SoundDuration":149832,"Delta":49329105},{"NoteNumber":70,"Velocity":65,"Duration":150451,"SoundDuration":150451,"Delta":49478938},{"NoteNumber":80,"Velocity":85,"Duration":1370489,"SoundDuration":1370489,"Delta":49629389},{"NoteNumber":58,"Velocity":55,"Duration":152276,"SoundDuration":152276,"Delta":49629389},{"NoteNumber":62,"Velocity":47,"Duration":152276,"SoundDuration":152276,"Delta":49781666},{"NoteNumber":65,"Velocity":47,"Duration":152276,"SoundDuration":152276,"Delta":49933943},{"NoteNumber":58,"Velocity":55,"Duration":152276,"SoundDuration":152276,"Delta":50086219},{"NoteNumber":62,"Velocity":47,"Duration":152276,"SoundDuration":152276,"Delta":50238496},{"NoteNumber":65,"Velocity":39,"Duration":152276,"SoundDuration":152276,"Delta":50390773},{"NoteNumber":58,"Velocity":52,"Duration":152276,"SoundDuration":152276,"Delta":50543049},{"NoteNumber":62,"Velocity":43,"Duration":152276,"SoundDuration":152276,"Delta":50695326},{"NoteNumber":65,"Velocity":43,"Duration":152276,"SoundDuration":152276,"Delta":50847603},{"NoteNumber":79,"Velocity":76,"Duration":149880,"SoundDuration":149880,"Delta":50999879},{"NoteNumber":58,"Velocity":53,"Duration":149880,"SoundDuration":149880,"Delta":50999879},{"NoteNumber":77,"Velocity":68,"Duration":149879,"SoundDuration":149879,"Delta":51149759},{"NoteNumber":63,"Velocity":44,"Duration":149879,"SoundDuration":149879,"Delta":51149759},{"NoteNumber":75,"Velocity":58,"Duration":141711,"SoundDuration":141711,"Delta":51299639},{"NoteNumber":67,"Velocity":44,"Duration":161956,"SoundDuration":161956,"Delta":51299639},{"NoteNumber":75,"Velocity":72,"Duration":234009,"SoundDuration":234009,"Delta":51461596},{"NoteNumber":58,"Velocity":53,"Duration":156006,"SoundDuration":156006,"Delta":51461596},{"NoteNumber":65,"Velocity":44,"Duration":156006,"SoundDuration":156006,"Delta":51617602},{"NoteNumber":74,"Velocity":58,"Duration":214508,"SoundDuration":214508,"Delta":51695605},{"NoteNumber":68,"Velocity":44,"Duration":156006,"SoundDuration":156006,"Delta":51773608},{"NoteNumber":74,"Velocity":62,"Duration":930375,"SoundDuration":930375,"Delta":51929615},{"NoteNumber":58,"Velocity":50,"Duration":156006,"SoundDuration":156006,"Delta":51929615},{"NoteNumber":65,"Velocity":39,"Duration":156006,"SoundDuration":156006,"Delta":52085621},{"NoteNumber":68,"Velocity":39,"Duration":156006,"SoundDuration":156006,"Delta":52241627},{"NoteNumber":58,"Velocity":47,"Duration":154118,"SoundDuration":154118,"Delta":52397634},{"NoteNumber":65,"Velocity":42,"Duration":154118,"SoundDuration":154118,"Delta":52551752},{"NoteNumber":68,"Velocity":42,"Duration":154118,"SoundDuration":154118,"Delta":52705871},{"NoteNumber":75,"Velocity":72,"Duration":471845,"SoundDuration":471845,"Delta":52859990},{"NoteNumber":58,"Velocity":53,"Duration":157282,"SoundDuration":157282,"Delta":52859990},{"NoteNumber":63,"Velocity":44,"Duration":157281,"SoundDuration":157281,"Delta":53017272},{"NoteNumber":67,"Velocity":44,"Duration":157282,"SoundDuration":157282,"Delta":53174554},{"NoteNumber":77,"Velocity":85,"Duration":152276,"SoundDuration":152276,"Delta":53331836},{"NoteNumber":58,"Velocity":55,"Duration":152276,"SoundDuration":152276,"Delta":53331836},{"NoteNumber":79,"Velocity":72,"Duration":152276,"SoundDuration":152276,"Delta":53484112},{"NoteNumber":62,"Velocity":47,"Duration":152276,"SoundDuration":152276,"Delta":53484112},{"NoteNumber":80,"Velocity":66,"Duration":133242,"SoundDuration":133242,"Delta":53636389},{"NoteNumber":65,"Velocity":47,"Duration":152276,"SoundDuration":152276,"Delta":53636389},{"NoteNumber":80,"Velocity":85,"Duration":913660,"SoundDuration":913660,"Delta":53788666},{"NoteNumber":58,"Velocity":55,"Duration":152276,"SoundDuration":152276,"Delta":53788666},{"NoteNumber":62,"Velocity":47,"Duration":152276,"SoundDuration":152276,"Delta":53940942},{"NoteNumber":65,"Velocity":39,"Duration":152276,"SoundDuration":152276,"Delta":54093219},{"NoteNumber":58,"Velocity":52,"Duration":152276,"SoundDuration":152276,"Delta":54245496},{"NoteNumber":62,"Velocity":43,"Duration":152276,"SoundDuration":152276,"Delta":54397772},{"NoteNumber":65,"Velocity":43,"Duration":152276,"SoundDuration":152276,"Delta":54550049},{"NoteNumber":79,"Velocity":76,"Duration":149880,"SoundDuration":149880,"Delta":54702326},{"NoteNumber":58,"Velocity":53,"Duration":149880,"SoundDuration":149880,"Delta":54702326},{"NoteNumber":77,"Velocity":68,"Duration":149879,"SoundDuration":149879,"Delta":54852206},{"NoteNumber":63,"Velocity":44,"Duration":149879,"SoundDuration":149879,"Delta":54852206},{"NoteNumber":75,"Velocity":58,"Duration":141711,"SoundDuration":141711,"Delta":55002086},{"NoteNumber":67,"Velocity":44,"Duration":161956,"SoundDuration":161956,"Delta":55002086},{"NoteNumber":75,"Velocity":72,"Duration":234009,"SoundDuration":234009,"Delta":55164042},{"NoteNumber":58,"Velocity":53,"Duration":156006,"SoundDuration":156006,"Delta":55164042},{"NoteNumber":65,"Velocity":44,"Duration":156006,"SoundDuration":156006,"Delta":55320048},{"NoteNumber":74,"Velocity":58,"Duration":214508,"SoundDuration":214508,"Delta":55398052},{"NoteNumber":68,"Velocity":44,"Duration":156006,"SoundDuration":156006,"Delta":55476055},{"NoteNumber":74,"Velocity":62,"Duration":930375,"SoundDuration":930375,"Delta":55632061},{"NoteNumber":58,"Velocity":50,"Duration":156006,"SoundDuration":156006,"Delta":55632061},{"NoteNumber":65,"Velocity":39,"Duration":156006,"SoundDuration":156006,"Delta":55788067},{"NoteNumber":68,"Velocity":39,"Duration":156006,"SoundDuration":156006,"Delta":55944074},{"NoteNumber":58,"Velocity":47,"Duration":154118,"SoundDuration":154118,"Delta":56100080},{"NoteNumber":65,"Velocity":42,"Duration":154118,"SoundDuration":154118,"Delta":56254199},{"NoteNumber":68,"Velocity":42,"Duration":154118,"SoundDuration":154118,"Delta":56408317},{"NoteNumber":75,"Velocity":72,"Duration":471845,"SoundDuration":471845,"Delta":56562436},{"NoteNumber":58,"Velocity":53,"Duration":157282,"SoundDuration":157282,"Delta":56562436},{"NoteNumber":63,"Velocity":44,"Duration":157281,"SoundDuration":157281,"Delta":56719718},{"NoteNumber":67,"Velocity":44,"Duration":157282,"SoundDuration":157282,"Delta":56877000},{"NoteNumber":77,"Velocity":85,"Duration":152276,"SoundDuration":152276,"Delta":57034282},{"NoteNumber":58,"Velocity":55,"Duration":152276,"SoundDuration":152276,"Delta":57034282},{"NoteNumber":79,"Velocity":72,"Duration":152276,"SoundDuration":152276,"Delta":57186559},{"NoteNumber":62,"Velocity":47,"Duration":152276,"SoundDuration":152276,"Delta":57186559},{"NoteNumber":80,"Velocity":66,"Duration":133242,"SoundDuration":133242,"Delta":57338835},{"NoteNumber":65,"Velocity":47,"Duration":152276,"SoundDuration":152276,"Delta":57338835},{"NoteNumber":80,"Velocity":85,"Duration":913660,"SoundDuration":913660,"Delta":57491112},{"NoteNumber":58,"Velocity":55,"Duration":152276,"SoundDuration":152276,"Delta":57491112},{"NoteNumber":62,"Velocity":47,"Duration":152276,"SoundDuration":152276,"Delta":57643389},{"NoteNumber":65,"Velocity":39,"Duration":152276,"SoundDuration":152276,"Delta":57795665},{"NoteNumber":59,"Velocity":61,"Duration":152276,"SoundDuration":152276,"Delta":57947942},{"NoteNumber":62,"Velocity":43,"Duration":152276,"SoundDuration":152276,"Delta":58100219},{"NoteNumber":65,"Velocity":43,"Duration":152276,"SoundDuration":152276,"Delta":58252495},{"NoteNumber":79,"Velocity":76,"Duration":461716,"SoundDuration":461716,"Delta":58404772},{"NoteNumber":60,"Velocity":53,"Duration":149880,"SoundDuration":149880,"Delta":58404772},{"NoteNumber":62,"Velocity":44,"Duration":149879,"SoundDuration":149879,"Delta":58554652},{"NoteNumber":63,"Velocity":44,"Duration":161956,"SoundDuration":161956,"Delta":58704532},{"NoteNumber":77,"Velocity":66,"Duration":152881,"SoundDuration":152881,"Delta":58866488},{"NoteNumber":56,"Velocity":55,"Duration":446511,"SoundDuration":446511,"Delta":58866488},{"NoteNumber":84,"Velocity":81,"Duration":146785,"SoundDuration":146785,"Delta":59019370},{"NoteNumber":82,"Velocity":73,"Duration":146844,"SoundDuration":146844,"Delta":59166156},{"NoteNumber":80,"Velocity":73,"Duration":147431,"SoundDuration":147431,"Delta":59313000},{"NoteNumber":79,"Velocity":69,"Duration":148020,"SoundDuration":148020,"Delta":59460431},{"NoteNumber":77,"Velocity":64,"Duration":148626,"SoundDuration":148626,"Delta":59608451},{"NoteNumber":75,"Velocity":79,"Duration":458644,"SoundDuration":458644,"Delta":59757077},{"NoteNumber":58,"Velocity":40,"Duration":936389,"SoundDuration":936389,"Delta":59757077},{"NoteNumber":67,"Velocity":62,"Duration":458644,"SoundDuration":458644,"Delta":59757077},{"NoteNumber":74,"Velocity":60,"Duration":477744,"SoundDuration":477744,"Delta":60215722},{"NoteNumber":68,"Velocity":47,"Duration":477744,"SoundDuration":477744,"Delta":60215722},{"NoteNumber":74,"Velocity":68,"Duration":984251,"SoundDuration":984251,"Delta":60693467},{"NoteNumber":60,"Velocity":30,"Duration":1476377,"SoundDuration":1476377,"Delta":60693467},{"NoteNumber":68,"Velocity":55,"Duration":984251,"SoundDuration":984251,"Delta":60693467},{"NoteNumber":75,"Velocity":50,"Duration":492125,"SoundDuration":492125,"Delta":61677719},{"NoteNumber":67,"Velocity":37,"Duration":492125,"SoundDuration":492125,"Delta":61677719},{"NoteNumber":56,"Velocity":68,"Duration":1082356,"SoundDuration":1082356,"Delta":62661971},{"NoteNumber":51,"Velocity":56,"Duration":231249,"SoundDuration":231249,"Delta":63131712},{"NoteNumber":48,"Velocity":47,"Duration":231249,"SoundDuration":231249,"Delta":63131712},{"NoteNumber":51,"Velocity":58,"Duration":225174,"SoundDuration":225174,"Delta":63594211},{"NoteNumber":48,"Velocity":49,"Duration":225174,"SoundDuration":225174,"Delta":63594211},{"NoteNumber":60,"Velocity":65,"Duration":150116,"SoundDuration":150116,"Delta":63744328},{"NoteNumber":58,"Velocity":56,"Duration":150116,"SoundDuration":150116,"Delta":63894444},{"NoteNumber":56,"Velocity":66,"Duration":73675,"SoundDuration":73675,"Delta":64044560},{"NoteNumber":51,"Velocity":58,"Duration":221027,"SoundDuration":221027,"Delta":64044560},{"NoteNumber":48,"Velocity":49,"Duration":221027,"SoundDuration":221027,"Delta":64044560},{"NoteNumber":56,"Velocity":58,"Duration":73675,"SoundDuration":73675,"Delta":64191912},{"NoteNumber":56,"Velocity":58,"Duration":84745,"SoundDuration":84745,"Delta":64339263},{"NoteNumber":56,"Velocity":68,"Duration":1084009,"SoundDuration":1084009,"Delta":64508755},{"NoteNumber":46,"Velocity":47,"Duration":233046,"SoundDuration":233046,"Delta":64974847},{"NoteNumber":53,"Velocity":56,"Duration":233046,"SoundDuration":233046,"Delta":64974847},{"NoteNumber":50,"Velocity":47,"Duration":233046,"SoundDuration":233046,"Delta":64974847},{"NoteNumber":46,"Velocity":49,"Duration":227738,"SoundDuration":227738,"Delta":65440939},{"NoteNumber":53,"Velocity":58,"Duration":227738,"SoundDuration":227738,"Delta":65440939},{"NoteNumber":50,"Velocity":49,"Duration":227738,"SoundDuration":227738,"Delta":65440939},{"NoteNumber":65,"Velocity":65,"Duration":151825,"SoundDuration":151825,"Delta":65592764},{"NoteNumber":62,"Velocity":56,"Duration":151825,"SoundDuration":151825,"Delta":65744590},{"NoteNumber":56,"Velocity":66,"Duration":74222,"SoundDuration":74222,"Delta":65896416},{"NoteNumber":46,"Velocity":49,"Duration":222667,"SoundDuration":222667,"Delta":65896416},{"NoteNumber":53,"Velocity":58,"Duration":222667,"SoundDuration":222667,"Delta":65896416},{"NoteNumber":50,"Velocity":49,"Duration":222667,"SoundDuration":222667,"Delta":65896416},{"NoteNumber":56,"Velocity":58,"Duration":74222,"SoundDuration":74222,"Delta":66044861},{"NoteNumber":56,"Velocity":58,"Duration":84388,"SoundDuration":84388,"Delta":66193306},{"NoteNumber":55,"Velocity":60,"Duration":151251,"SoundDuration":151251,"Delta":66362082},{"NoteNumber":51,"Velocity":56,"Duration":453755,"SoundDuration":453755,"Delta":66362082},{"NoteNumber":58,"Velocity":49,"Duration":151251,"SoundDuration":151251,"Delta":66513334},{"NoteNumber":63,"Velocity":49,"Duration":75625,"SoundDuration":75625,"Delta":66664585},{"NoteNumber":63,"Velocity":56,"Duration":72870,"SoundDuration":72870,"Delta":66815837},{"NoteNumber":63,"Velocity":49,"Duration":72870,"SoundDuration":72870,"Delta":66961578},{"NoteNumber":63,"Velocity":49,"Duration":82829,"SoundDuration":82829,"Delta":67107318},{"NoteNumber":62,"Velocity":60,"Duration":151251,"SoundDuration":151251,"Delta":67272977},{"NoteNumber":46,"Velocity":47,"Duration":453755,"SoundDuration":453755,"Delta":67272977},{"NoteNumber":53,"Velocity":56,"Duration":453755,"SoundDuration":453755,"Delta":67272977},{"NoteNumber":65,"Velocity":49,"Duration":151251,"SoundDuration":151251,"Delta":67424229},{"NoteNumber":68,"Velocity":49,"Duration":75625,"SoundDuration":75625,"Delta":67575481},{"NoteNumber":68,"Velocity":56,"Duration":72870,"SoundDuration":72870,"Delta":67726732},{"NoteNumber":68,"Velocity":49,"Duration":72870,"SoundDuration":72870,"Delta":67872473},{"NoteNumber":68,"Velocity":49,"Duration":82829,"SoundDuration":82829,"Delta":68018214},{"NoteNumber":67,"Velocity":69,"Duration":152404,"SoundDuration":152404,"Delta":68183873},{"NoteNumber":51,"Velocity":52,"Duration":456055,"SoundDuration":456055,"Delta":68183873},{"NoteNumber":55,"Velocity":56,"Duration":456055,"SoundDuration":456055,"Delta":68183873},{"NoteNumber":70,"Velocity":56,"Duration":151825,"SoundDuration":151825,"Delta":68336277},{"NoteNumber":75,"Velocity":56,"Duration":75912,"SoundDuration":75912,"Delta":68488103},{"NoteNumber":75,"Velocity":63,"Duration":73136,"SoundDuration":73136,"Delta":68639928},{"NoteNumber":75,"Velocity":56,"Duration":73136,"SoundDuration":73136,"Delta":68786202},{"NoteNumber":75,"Velocity":56,"Duration":82829,"SoundDuration":82829,"Delta":68932476},{"NoteNumber":74,"Velocity":75,"Duration":151825,"SoundDuration":151825,"Delta":69098135},{"NoteNumber":46,"Velocity":51,"Duration":456634,"SoundDuration":456634,"Delta":69098135},{"NoteNumber":53,"Velocity":61,"Duration":456634,"SoundDuration":456634,"Delta":69098135},{"NoteNumber":77,"Velocity":61,"Duration":152404,"SoundDuration":152404,"Delta":69249960},{"NoteNumber":80,"Velocity":61,"Duration":76202,"SoundDuration":76202,"Delta":69402365},{"NoteNumber":80,"Velocity":68,"Duration":73136,"SoundDuration":73136,"Delta":69554769},{"NoteNumber":80,"Velocity":61,"Duration":73136,"SoundDuration":73136,"Delta":69701043},{"NoteNumber":80,"Velocity":61,"Duration":82829,"SoundDuration":82829,"Delta":69847316},{"NoteNumber":79,"Velocity":78,"Duration":157195,"SoundDuration":157195,"Delta":70012975},{"NoteNumber":51,"Velocity":57,"Duration":464752,"SoundDuration":464752,"Delta":70012975},{"NoteNumber":55,"Velocity":61,"Duration":464752,"SoundDuration":464752,"Delta":70012975},{"NoteNumber":80,"Velocity":70,"Duration":156495,"SoundDuration":156495,"Delta":70170171},{"NoteNumber":82,"Velocity":60,"Duration":151061,"SoundDuration":151061,"Delta":70326666},{"NoteNumber":80,"Velocity":69,"Duration":151624,"SoundDuration":151624,"Delta":70477727},{"NoteNumber":79,"Velocity":66,"Duration":152684,"SoundDuration":152684,"Delta":70629352},{"NoteNumber":77,"Velocity":66,"Duration":153626,"SoundDuration":153626,"Delta":70782037},{"NoteNumber":75,"Velocity":69,"Duration":154554,"SoundDuration":154554,"Delta":70935664},{"NoteNumber":74,"Velocity":62,"Duration":155655,"SoundDuration":155655,"Delta":71090218},{"NoteNumber":72,"Velocity":60,"Duration":156749,"SoundDuration":156749,"Delta":71245873},{"NoteNumber":70,"Velocity":69,"Duration":157598,"SoundDuration":157598,"Delta":71402623},{"NoteNumber":68,"Velocity":62,"Duration":158744,"SoundDuration":158744,"Delta":71560222},{"NoteNumber":67,"Velocity":62,"Duration":159882,"SoundDuration":159882,"Delta":71718966},{"NoteNumber":65,"Velocity":68,"Duration":724329,"SoundDuration":724329,"Delta":71878849},{"NoteNumber":56,"Velocity":49,"Duration":482974,"SoundDuration":482974,"Delta":72361691},{"NoteNumber":44,"Velocity":40,"Duration":482974,"SoundDuration":482974,"Delta":72361691},{"NoteNumber":72,"Velocity":52,"Duration":241487,"SoundDuration":241487,"Delta":72603178},{"NoteNumber":63,"Velocity":59,"Duration":482975,"SoundDuration":482975,"Delta":72844666},{"NoteNumber":46,"Velocity":43,"Duration":482975,"SoundDuration":482975,"Delta":72844666},{"NoteNumber":55,"Velocity":52,"Duration":482975,"SoundDuration":482975,"Delta":72844666},{"NoteNumber":62,"Velocity":52,"Duration":499043,"SoundDuration":499043,"Delta":73327641},{"NoteNumber":53,"Velocity":49,"Duration":499043,"SoundDuration":499043,"Delta":73327641},{"NoteNumber":46,"Velocity":40,"Duration":499043,"SoundDuration":499043,"Delta":73327641},{"NoteNumber":75,"Velocity":81,"Duration":1336369,"SoundDuration":1336369,"Delta":73826684},{"NoteNumber":63,"Velocity":58,"Duration":157195,"SoundDuration":157195,"Delta":73826684},{"NoteNumber":67,"Velocity":62,"Duration":147320,"SoundDuration":147320,"Delta":73983879},{"NoteNumber":65,"Velocity":51,"Duration":145963,"SoundDuration":145963,"Delta":74131200},{"NoteNumber":63,"Velocity":58,"Duration":146431,"SoundDuration":146431,"Delta":74277164},{"NoteNumber":62,"Velocity":56,"Duration":146901,"SoundDuration":146901,"Delta":74423595},{"NoteNumber":60,"Velocity":56,"Duration":147375,"SoundDuration":147375,"Delta":74570497},{"NoteNumber":58,"Velocity":58,"Duration":147896,"SoundDuration":147896,"Delta":74717872},{"NoteNumber":56,"Velocity":52,"Duration":148400,"SoundDuration":148400,"Delta":74865769},{"NoteNumber":55,"Velocity":51,"Duration":148883,"SoundDuration":148883,"Delta":75014169},{"NoteNumber":77,"Velocity":73,"Duration":470134,"SoundDuration":470134,"Delta":75163053},{"NoteNumber":74,"Velocity":62,"Duration":470134,"SoundDuration":470134,"Delta":75163053},{"NoteNumber":53,"Velocity":58,"Duration":151508,"SoundDuration":151508,"Delta":75163053},{"NoteNumber":51,"Velocity":52,"Duration":158744,"SoundDuration":158744,"Delta":75314561},{"NoteNumber":50,"Velocity":52,"Duration":159882,"SoundDuration":159882,"Delta":75473306},{"NoteNumber":79,"Velocity":81,"Duration":1339639,"SoundDuration":1339639,"Delta":75633188},{"NoteNumber":75,"Velocity":68,"Duration":1339639,"SoundDuration":1339639,"Delta":75633188},{"NoteNumber":48,"Velocity":58,"Duration":157195,"SoundDuration":157195,"Delta":75633188},{"NoteNumber":63,"Velocity":62,"Duration":149012,"SoundDuration":149012,"Delta":75790384},{"NoteNumber":62,"Velocity":51,"Duration":146495,"SoundDuration":146495,"Delta":75939396},{"NoteNumber":60,"Velocity":58,"Duration":146632,"SoundDuration":146632,"Delta":76085892},{"NoteNumber":58,"Velocity":56,"Duration":147104,"SoundDuration":147104,"Delta":76232525},{"NoteNumber":56,"Velocity":56,"Duration":147579,"SoundDuration":147579,"Delta":76379630},{"NoteNumber":55,"Velocity":58,"Duration":148057,"SoundDuration":148057,"Delta":76527209},{"NoteNumber":53,"Velocity":52,"Duration":148538,"SoundDuration":148538,"Delta":76675267},{"NoteNumber":51,"Velocity":51,"Duration":149022,"SoundDuration":149022,"Delta":76823805},{"NoteNumber":80,"Velocity":73,"Duration":468605,"SoundDuration":468605,"Delta":76972827},{"NoteNumber":77,"Velocity":62,"Duration":468605,"SoundDuration":468605,"Delta":76972827},{"NoteNumber":50,"Velocity":58,"Duration":149978,"SoundDuration":149978,"Delta":76972827},{"NoteNumber":48,"Velocity":52,"Duration":158744,"SoundDuration":158744,"Delta":77122806},{"NoteNumber":46,"Velocity":52,"Duration":159882,"SoundDuration":159882,"Delta":77281550},{"NoteNumber":79,"Velocity":62,"Duration":155364,"SoundDuration":155364,"Delta":77441433},{"NoteNumber":82,"Velocity":73,"Duration":155364,"SoundDuration":155364,"Delta":77441433},{"NoteNumber":44,"Velocity":58,"Duration":919173,"SoundDuration":919173,"Delta":77441433},{"NoteNumber":80,"Velocity":65,"Duration":154166,"SoundDuration":154166,"Delta":77596797},{"NoteNumber":77,"Velocity":55,"Duration":154166,"SoundDuration":154166,"Delta":77596797},{"NoteNumber":82,"Velocity":65,"Duration":154166,"SoundDuration":154166,"Delta":77750963},{"NoteNumber":79,"Velocity":55,"Duration":154166,"SoundDuration":154166,"Delta":77750963},{"NoteNumber":80,"Velocity":61,"Duration":151825,"SoundDuration":151825,"Delta":77905130},{"NoteNumber":84,"Velocity":72,"Duration":151825,"SoundDuration":151825,"Delta":77905130},{"NoteNumber":79,"Velocity":54,"Duration":151825,"SoundDuration":151825,"Delta":78056955},{"NoteNumber":82,"Velocity":64,"Duration":151825,"SoundDuration":151825,"Delta":78056955},{"NoteNumber":77,"Velocity":54,"Duration":151825,"SoundDuration":151825,"Delta":78208781},{"NoteNumber":80,"Velocity":64,"Duration":151825,"SoundDuration":151825,"Delta":78208781},{"NoteNumber":79,"Velocity":70,"Duration":473446,"SoundDuration":473446,"Delta":78360607},{"NoteNumber":75,"Velocity":59,"Duration":473446,"SoundDuration":473446,"Delta":78360607},{"NoteNumber":46,"Velocity":51,"Duration":473446,"SoundDuration":473446,"Delta":78360607},{"NoteNumber":77,"Velocity":65,"Duration":492894,"SoundDuration":492894,"Delta":78834054},{"NoteNumber":74,"Velocity":55,"Duration":492894,"SoundDuration":492894,"Delta":78834054},{"NoteNumber":46,"Velocity":50,"Duration":492894,"SoundDuration":492894,"Delta":78834054},{"NoteNumber":75,"Velocity":81,"Duration":1344492,"SoundDuration":1344492,"Delta":79326948},{"NoteNumber":63,"Velocity":50,"Duration":157195,"SoundDuration":157195,"Delta":79326948},{"NoteNumber":67,"Velocity":53,"Duration":148081,"SoundDuration":148081,"Delta":79484143},{"NoteNumber":65,"Velocity":47,"Duration":145963,"SoundDuration":145963,"Delta":79632225},{"NoteNumber":63,"Velocity":54,"Duration":146632,"SoundDuration":146632,"Delta":79778189},{"NoteNumber":62,"Velocity":51,"Duration":147399,"SoundDuration":147399,"Delta":79924822},{"NoteNumber":60,"Velocity":51,"Duration":148126,"SoundDuration":148126,"Delta":80072221},{"NoteNumber":58,"Velocity":58,"Duration":148814,"SoundDuration":148814,"Delta":80220347},{"NoteNumber":56,"Velocity":52,"Duration":149604,"SoundDuration":149604,"Delta":80369162},{"NoteNumber":55,"Velocity":51,"Duration":152673,"SoundDuration":152673,"Delta":80518766},{"NoteNumber":77,"Velocity":73,"Duration":476225,"SoundDuration":476225,"Delta":80671440},{"NoteNumber":74,"Velocity":62,"Duration":476225,"SoundDuration":476225,"Delta":80671440},{"NoteNumber":53,"Velocity":58,"Duration":157598,"SoundDuration":157598,"Delta":80671440},{"NoteNumber":51,"Velocity":52,"Duration":158744,"SoundDuration":158744,"Delta":80829039},{"NoteNumber":50,"Velocity":52,"Duration":159882,"SoundDuration":159882,"Delta":80987783},{"NoteNumber":79,"Velocity":81,"Duration":1337133,"SoundDuration":1337133,"Delta":81147666},{"NoteNumber":75,"Velocity":68,"Duration":1337133,"SoundDuration":1337133,"Delta":81147666},{"NoteNumber":48,"Velocity":58,"Duration":157195,"SoundDuration":157195,"Delta":81147666},{"NoteNumber":63,"Velocity":62,"Duration":148251,"SoundDuration":148251,"Delta":81304861},{"NoteNumber":62,"Velocity":51,"Duration":144906,"SoundDuration":144906,"Delta":81453113},{"NoteNumber":60,"Velocity":58,"Duration":145721,"SoundDuration":145721,"Delta":81598019},{"NoteNumber":58,"Velocity":56,"Duration":146565,"SoundDuration":146565,"Delta":81743741},{"NoteNumber":56,"Velocity":56,"Duration":147365,"SoundDuration":147365,"Delta":81890306},{"NoteNumber":55,"Velocity":58,"Duration":148160,"SoundDuration":148160,"Delta":82037672},{"NoteNumber":53,"Velocity":52,"Duration":149047,"SoundDuration":149047,"Delta":82185832},{"NoteNumber":51,"Velocity":51,"Duration":149920,"SoundDuration":149920,"Delta":82334879},{"NoteNumber":80,"Velocity":73,"Duration":474691,"SoundDuration":474691,"Delta":82484800},{"NoteNumber":77,"Velocity":62,"Duration":474691,"SoundDuration":474691,"Delta":82484800},{"NoteNumber":50,"Velocity":58,"Duration":156064,"SoundDuration":156064,"Delta":82484800},{"NoteNumber":48,"Velocity":52,"Duration":158744,"SoundDuration":158744,"Delta":82640864},{"NoteNumber":46,"Velocity":52,"Duration":159882,"SoundDuration":159882,"Delta":82799608},{"NoteNumber":79,"Velocity":62,"Duration":155364,"SoundDuration":155364,"Delta":82959491},{"NoteNumber":82,"Velocity":73,"Duration":155364,"SoundDuration":155364,"Delta":82959491},{"NoteNumber":44,"Velocity":58,"Duration":919173,"SoundDuration":919173,"Delta":82959491},{"NoteNumber":80,"Velocity":65,"Duration":154166,"SoundDuration":154166,"Delta":83114855},{"NoteNumber":77,"Velocity":55,"Duration":154166,"SoundDuration":154166,"Delta":83114855},{"NoteNumber":82,"Velocity":65,"Duration":154166,"SoundDuration":154166,"Delta":83269021},{"NoteNumber":79,"Velocity":55,"Duration":154166,"SoundDuration":154166,"Delta":83269021},{"NoteNumber":80,"Velocity":61,"Duration":151825,"SoundDuration":151825,"Delta":83423187},{"NoteNumber":84,"Velocity":72,"Duration":151825,"SoundDuration":151825,"Delta":83423187},{"NoteNumber":79,"Velocity":54,"Duration":151825,"SoundDuration":151825,"Delta":83575013},{"NoteNumber":82,"Velocity":64,"Duration":151825,"SoundDuration":151825,"Delta":83575013},{"NoteNumber":77,"Velocity":54,"Duration":151825,"SoundDuration":151825,"Delta":83726839},{"NoteNumber":80,"Velocity":64,"Duration":151825,"SoundDuration":151825,"Delta":83726839},{"NoteNumber":79,"Velocity":70,"Duration":473446,"SoundDuration":473446,"Delta":83878664},{"NoteNumber":75,"Velocity":59,"Duration":473446,"SoundDuration":473446,"Delta":83878664},{"NoteNumber":46,"Velocity":51,"Duration":473446,"SoundDuration":473446,"Delta":83878664},{"NoteNumber":77,"Velocity":65,"Duration":492894,"SoundDuration":492894,"Delta":84352111},{"NoteNumber":74,"Velocity":55,"Duration":492894,"SoundDuration":492894,"Delta":84352111},{"NoteNumber":46,"Velocity":50,"Duration":492894,"SoundDuration":492894,"Delta":84352111},{"NoteNumber":75,"Velocity":60,"Duration":1320111,"SoundDuration":1320111,"Delta":84845005},{"NoteNumber":63,"Velocity":36,"Duration":155364,"SoundDuration":155364,"Delta":84845005},{"NoteNumber":67,"Velocity":31,"Duration":155363,"SoundDuration":155363,"Delta":85000369},{"NoteNumber":70,"Velocity":31,"Duration":155364,"SoundDuration":155364,"Delta":85155733},{"NoteNumber":63,"Velocity":36,"Duration":151825,"SoundDuration":151825,"Delta":85311097},{"NoteNumber":67,"Velocity":32,"Duration":151825,"SoundDuration":151825,"Delta":85462923},{"NoteNumber":70,"Velocity":32,"Duration":151825,"SoundDuration":151825,"Delta":85614749},{"NoteNumber":63,"Velocity":36,"Duration":151825,"SoundDuration":151825,"Delta":85766574},{"NoteNumber":67,"Velocity":31,"Duration":151825,"SoundDuration":151825,"Delta":85918400},{"NoteNumber":70,"Velocity":31,"Duration":151825,"SoundDuration":151825,"Delta":86070226},{"NoteNumber":79,"Velocity":68,"Duration":56934,"SoundDuration":56934,"Delta":86165117},{"NoteNumber":77,"Velocity":54,"Duration":473446,"SoundDuration":473446,"Delta":86222051},{"NoteNumber":63,"Velocity":37,"Duration":157815,"SoundDuration":157815,"Delta":86222051},{"NoteNumber":68,"Velocity":32,"Duration":157815,"SoundDuration":157815,"Delta":86379867},{"NoteNumber":74,"Velocity":32,"Duration":157815,"SoundDuration":157815,"Delta":86537683},{"NoteNumber":75,"Velocity":60,"Duration":466092,"SoundDuration":466092,"Delta":86695498},{"NoteNumber":63,"Velocity":36,"Duration":155364,"SoundDuration":155364,"Delta":86695498},{"NoteNumber":67,"Velocity":31,"Duration":155363,"SoundDuration":155363,"Delta":86850862},{"NoteNumber":70,"Velocity":30,"Duration":155364,"SoundDuration":155364,"Delta":87006226},{"NoteNumber":75,"Velocity":54,"Duration":455477,"SoundDuration":455477,"Delta":87161590},{"NoteNumber":63,"Velocity":35,"Duration":151825,"SoundDuration":151825,"Delta":87161590},{"NoteNumber":67,"Velocity":31,"Duration":151825,"SoundDuration":151825,"Delta":87313416},{"NoteNumber":70,"Velocity":31,"Duration":151825,"SoundDuration":151825,"Delta":87465242},{"NoteNumber":75,"Velocity":54,"Duration":455477,"SoundDuration":455477,"Delta":87617067},{"NoteNumber":63,"Velocity":35,"Duration":151825,"SoundDuration":151825,"Delta":87617067},{"NoteNumber":67,"Velocity":30,"Duration":151825,"SoundDuration":151825,"Delta":87768893},{"NoteNumber":70,"Velocity":30,"Duration":151825,"SoundDuration":151825,"Delta":87920719},{"NoteNumber":80,"Velocity":58,"Duration":118361,"SoundDuration":118361,"Delta":88072544},{"NoteNumber":63,"Velocity":36,"Duration":157815,"SoundDuration":157815,"Delta":88072544},{"NoteNumber":77,"Velocity":52,"Duration":355085,"SoundDuration":355085,"Delta":88190906},{"NoteNumber":68,"Velocity":31,"Duration":157815,"SoundDuration":157815,"Delta":88230360},{"NoteNumber":74,"Velocity":31,"Duration":157815,"SoundDuration":157815,"Delta":88388176},{"NoteNumber":82,"Velocity":58,"Duration":466092,"SoundDuration":466092,"Delta":88545991},{"NoteNumber":63,"Velocity":34,"Duration":155364,"SoundDuration":155364,"Delta":88545991},{"NoteNumber":67,"Velocity":30,"Duration":155363,"SoundDuration":155363,"Delta":88701355},{"NoteNumber":70,"Velocity":30,"Duration":155364,"SoundDuration":155364,"Delta":88856719},{"NoteNumber":82,"Velocity":53,"Duration":455477,"SoundDuration":455477,"Delta":89012083},{"NoteNumber":63,"Velocity":34,"Duration":151825,"SoundDuration":151825,"Delta":89012083},{"NoteNumber":67,"Velocity":31,"Duration":151825,"SoundDuration":151825,"Delta":89163909},{"NoteNumber":70,"Velocity":30,"Duration":151825,"SoundDuration":151825,"Delta":89315735},{"NoteNumber":82,"Velocity":52,"Duration":455477,"SoundDuration":455477,"Delta":89467560},{"NoteNumber":63,"Velocity":34,"Duration":151825,"SoundDuration":151825,"Delta":89467560},{"NoteNumber":67,"Velocity":29,"Duration":151825,"SoundDuration":151825,"Delta":89619386},{"NoteNumber":70,"Velocity":29,"Duration":151825,"SoundDuration":151825,"Delta":89771212},{"NoteNumber":80,"Velocity":57,"Duration":118361,"SoundDuration":118361,"Delta":89923037},{"NoteNumber":63,"Velocity":35,"Duration":157815,"SoundDuration":157815,"Delta":89923037},{"NoteNumber":77,"Velocity":51,"Duration":355085,"SoundDuration":355085,"Delta":90041399},{"NoteNumber":68,"Velocity":30,"Duration":157815,"SoundDuration":157815,"Delta":90080853},{"NoteNumber":74,"Velocity":30,"Duration":157815,"SoundDuration":157815,"Delta":90238669},{"NoteNumber":75,"Velocity":57,"Duration":1320111,"SoundDuration":1320111,"Delta":90396484},{"NoteNumber":63,"Velocity":34,"Duration":155364,"SoundDuration":155364,"Delta":90396484},{"NoteNumber":67,"Velocity":29,"Duration":155363,"SoundDuration":155363,"Delta":90551848},{"NoteNumber":70,"Velocity":29,"Duration":155364,"SoundDuration":155364,"Delta":90707212},{"NoteNumber":63,"Velocity":34,"Duration":151825,"SoundDuration":151825,"Delta":90862576},{"NoteNumber":67,"Velocity":30,"Duration":151825,"SoundDuration":151825,"Delta":91014402},{"NoteNumber":70,"Velocity":30,"Duration":151825,"SoundDuration":151825,"Delta":91166228},{"NoteNumber":63,"Velocity":33,"Duration":151825,"SoundDuration":151825,"Delta":91318053},{"NoteNumber":67,"Velocity":29,"Duration":151825,"SoundDuration":151825,"Delta":91469879},{"NoteNumber":70,"Velocity":29,"Duration":151825,"SoundDuration":151825,"Delta":91621705},{"NoteNumber":79,"Velocity":60,"Duration":56934,"SoundDuration":56934,"Delta":91716596},{"NoteNumber":77,"Velocity":50,"Duration":473446,"SoundDuration":473446,"Delta":91773530},{"NoteNumber":63,"Velocity":34,"Duration":157815,"SoundDuration":157815,"Delta":91773530},{"NoteNumber":68,"Velocity":29,"Duration":157815,"SoundDuration":157815,"Delta":91931346},{"NoteNumber":74,"Velocity":29,"Duration":157815,"SoundDuration":157815,"Delta":92089162},{"NoteNumber":75,"Velocity":55,"Duration":466092,"SoundDuration":466092,"Delta":92246977},{"NoteNumber":63,"Velocity":33,"Duration":155364,"SoundDuration":155364,"Delta":92246977},{"NoteNumber":67,"Velocity":28,"Duration":155363,"SoundDuration":155363,"Delta":92402341},{"NoteNumber":70,"Velocity":28,"Duration":155364,"SoundDuration":155364,"Delta":92557705},{"NoteNumber":75,"Velocity":50,"Duration":455477,"SoundDuration":455477,"Delta":92713069},{"NoteNumber":63,"Velocity":33,"Duration":151825,"SoundDuration":151825,"Delta":92713069},{"NoteNumber":67,"Velocity":29,"Duration":151825,"SoundDuration":151825,"Delta":92864895},{"NoteNumber":70,"Velocity":29,"Duration":151825,"SoundDuration":151825,"Delta":93016721},{"NoteNumber":75,"Velocity":50,"Duration":455477,"SoundDuration":455477,"Delta":93168546},{"NoteNumber":63,"Velocity":33,"Duration":151825,"SoundDuration":151825,"Delta":93168546},{"NoteNumber":67,"Velocity":28,"Duration":151825,"SoundDuration":151825,"Delta":93320372},{"NoteNumber":70,"Velocity":28,"Duration":151825,"SoundDuration":151825,"Delta":93472198},{"NoteNumber":80,"Velocity":54,"Duration":118361,"SoundDuration":118361,"Delta":93624023},{"NoteNumber":63,"Velocity":33,"Duration":157815,"SoundDuration":157815,"Delta":93624023},{"NoteNumber":77,"Velocity":49,"Duration":355085,"SoundDuration":355085,"Delta":93742385},{"NoteNumber":68,"Velocity":29,"Duration":157815,"SoundDuration":157815,"Delta":93781839},{"NoteNumber":74,"Velocity":29,"Duration":157815,"SoundDuration":157815,"Delta":93939655},{"NoteNumber":82,"Velocity":54,"Duration":466092,"SoundDuration":466092,"Delta":94097470},{"NoteNumber":63,"Velocity":32,"Duration":155364,"SoundDuration":155364,"Delta":94097470},{"NoteNumber":67,"Velocity":27,"Duration":155363,"SoundDuration":155363,"Delta":94252834},{"NoteNumber":70,"Velocity":27,"Duration":155364,"SoundDuration":155364,"Delta":94408198},{"NoteNumber":82,"Velocity":49,"Duration":455477,"SoundDuration":455477,"Delta":94563562},{"NoteNumber":63,"Velocity":32,"Duration":151825,"SoundDuration":151825,"Delta":94563562},{"NoteNumber":67,"Velocity":28,"Duration":151825,"SoundDuration":151825,"Delta":94715388},{"NoteNumber":70,"Velocity":28,"Duration":151825,"SoundDuration":151825,"Delta":94867214},{"NoteNumber":82,"Velocity":48,"Duration":455477,"SoundDuration":455477,"Delta":95019039},{"NoteNumber":63,"Velocity":32,"Duration":151825,"SoundDuration":151825,"Delta":95019039},{"NoteNumber":67,"Velocity":27,"Duration":151825,"SoundDuration":151825,"Delta":95170865},{"NoteNumber":70,"Velocity":27,"Duration":151825,"SoundDuration":151825,"Delta":95322691},{"NoteNumber":80,"Velocity":53,"Duration":118361,"SoundDuration":118361,"Delta":95474516},{"NoteNumber":63,"Velocity":32,"Duration":157815,"SoundDuration":157815,"Delta":95474516},{"NoteNumber":77,"Velocity":48,"Duration":355085,"SoundDuration":355085,"Delta":95592878},{"NoteNumber":68,"Velocity":28,"Duration":157815,"SoundDuration":157815,"Delta":95632332},{"NoteNumber":74,"Velocity":28,"Duration":157815,"SoundDuration":157815,"Delta":95790148},{"NoteNumber":75,"Velocity":52,"Duration":1328861,"SoundDuration":1328861,"Delta":95947963},{"NoteNumber":63,"Velocity":31,"Duration":157195,"SoundDuration":157195,"Delta":95947963},{"NoteNumber":67,"Velocity":26,"Duration":157195,"SoundDuration":157195,"Delta":96105159},{"NoteNumber":70,"Velocity":26,"Duration":157195,"SoundDuration":157195,"Delta":96262355},{"NoteNumber":63,"Velocity":29,"Duration":152404,"SoundDuration":152404,"Delta":96419550},{"NoteNumber":67,"Velocity":26,"Duration":152404,"SoundDuration":152404,"Delta":96571955},{"NoteNumber":70,"Velocity":25,"Duration":152404,"SoundDuration":152404,"Delta":96724359},{"NoteNumber":63,"Velocity":27,"Duration":152404,"SoundDuration":152404,"Delta":96876763},{"NoteNumber":67,"Velocity":23,"Duration":152404,"SoundDuration":152404,"Delta":97029168},{"NoteNumber":70,"Velocity":22,"Duration":152404,"SoundDuration":152404,"Delta":97181572},{"NoteNumber":79,"Velocity":50,"Duration":57151,"SoundDuration":57151,"Delta":97276825},{"NoteNumber":77,"Velocity":41,"Duration":492894,"SoundDuration":492894,"Delta":97333976},{"NoteNumber":63,"Velocity":26,"Duration":164298,"SoundDuration":164298,"Delta":97333976},{"NoteNumber":68,"Velocity":22,"Duration":164298,"SoundDuration":164298,"Delta":97498274},{"NoteNumber":74,"Velocity":22,"Duration":164298,"SoundDuration":164298,"Delta":97662572},{"NoteNumber":75,"Velocity":48,"Duration":479117,"SoundDuration":479117,"Delta":97826870},{"NoteNumber":67,"Velocity":30,"Duration":479117,"SoundDuration":479117,"Delta":97826870},{"NoteNumber":63,"Velocity":30,"Duration":479117,"SoundDuration":479117,"Delta":97826870},{"NoteNumber":79,"Velocity":36,"Duration":479117,"SoundDuration":479117,"Delta":98305988},{"NoteNumber":82,"Velocity":43,"Duration":479117,"SoundDuration":479117,"Delta":98305988},{"NoteNumber":79,"Velocity":36,"Duration":509641,"SoundDuration":509641,"Delta":98785106},{"NoteNumber":82,"Velocity":43,"Duration":509641,"SoundDuration":509641,"Delta":98785106},{"NoteNumber":39,"Velocity":24,"Duration":509641,"SoundDuration":509641,"Delta":99294747},{"NoteNumber":43,"Velocity":29,"Duration":509641,"SoundDuration":509641,"Delta":99294747},{"NoteNumber":39,"Velocity":24,"Duration":509641,"SoundDuration":509641,"Delta":99804388},{"NoteNumber":43,"Velocity":29,"Duration":509641,"SoundDuration":509641,"Delta":99804388},{"NoteNumber":63,"Velocity":72,"Duration":344220,"SoundDuration":344220,"Delta":101333311},{"NoteNumber":60,"Velocity":66,"Duration":114740,"SoundDuration":114740,"Delta":101677532},{"NoteNumber":68,"Velocity":72,"Duration":344220,"SoundDuration":344220,"Delta":101792272},{"NoteNumber":44,"Velocity":49,"Duration":458961,"SoundDuration":458961,"Delta":101792272},{"NoteNumber":56,"Velocity":58,"Duration":458961,"SoundDuration":458961,"Delta":101792272},{"NoteNumber":68,"Velocity":65,"Duration":114740,"SoundDuration":114740,"Delta":102136493},{"NoteNumber":68,"Velocity":72,"Duration":57370,"SoundDuration":57370,"Delta":102251233},{"NoteNumber":70,"Velocity":62,"Duration":57370,"SoundDuration":57370,"Delta":102308604},{"NoteNumber":68,"Velocity":72,"Duration":57370,"SoundDuration":57370,"Delta":102365974},{"NoteNumber":70,"Velocity":58,"Duration":57370,"SoundDuration":57370,"Delta":102423344},{"NoteNumber":68,"Velocity":69,"Duration":38246,"SoundDuration":38246,"Delta":102480714},{"NoteNumber":70,"Velocity":59,"Duration":38246,"SoundDuration":38246,"Delta":102518961},{"NoteNumber":68,"Velocity":69,"Duration":38246,"SoundDuration":38246,"Delta":102557207},{"NoteNumber":67,"Velocity":65,"Duration":57370,"SoundDuration":57370,"Delta":102595454},{"NoteNumber":68,"Velocity":58,"Duration":57370,"SoundDuration":57370,"Delta":102652824},{"NoteNumber":70,"Velocity":72,"Duration":458960,"SoundDuration":458960,"Delta":102710194},{"NoteNumber":43,"Velocity":49,"Duration":458960,"SoundDuration":458960,"Delta":102710194},{"NoteNumber":55,"Velocity":58,"Duration":458960,"SoundDuration":458960,"Delta":102710194},{"NoteNumber":63,"Velocity":72,"Duration":344220,"SoundDuration":344220,"Delta":103169155},{"NoteNumber":75,"Velocity":68,"Duration":121467,"SoundDuration":121467,"Delta":103513376},{"NoteNumber":73,"Velocity":82,"Duration":913659,"SoundDuration":913659,"Delta":103634843},{"NoteNumber":44,"Velocity":47,"Duration":456829,"SoundDuration":456829,"Delta":104091673},{"NoteNumber":72,"Velocity":72,"Duration":171311,"SoundDuration":171311,"Delta":104548503},{"NoteNumber":56,"Velocity":58,"Duration":171311,"SoundDuration":171311,"Delta":104548503},{"NoteNumber":68,"Velocity":49,"Duration":342622,"SoundDuration":342622,"Delta":105005333},{"NoteNumber":77,"Velocity":44,"Duration":119942,"SoundDuration":119942,"Delta":105347956},{"NoteNumber":75,"Velocity":55,"Duration":913659,"SoundDuration":913659,"Delta":105467898},{"NoteNumber":58,"Velocity":31,"Duration":456829,"SoundDuration":456829,"Delta":105924728},{"NoteNumber":73,"Velocity":49,"Duration":171311,"SoundDuration":171311,"Delta":106381558},{"NoteNumber":55,"Velocity":39,"Duration":171311,"SoundDuration":171311,"Delta":106381558},{"NoteNumber":63,"Velocity":72,"Duration":342622,"SoundDuration":342622,"Delta":106838388},{"NoteNumber":75,"Velocity":68,"Duration":114207,"SoundDuration":114207,"Delta":107181011},{"NoteNumber":73,"Velocity":82,"Duration":913659,"SoundDuration":913659,"Delta":107295218},{"NoteNumber":56,"Velocity":47,"Duration":456829,"SoundDuration":456829,"Delta":107752048},{"NoteNumber":72,"Velocity":72,"Duration":175507,"SoundDuration":175507,"Delta":108208878},{"NoteNumber":44,"Velocity":58,"Duration":175507,"SoundDuration":175507,"Delta":108208878},{"NoteNumber":80,"Velocity":81,"Duration":341245,"SoundDuration":341245,"Delta":108676897},{"NoteNumber":48,"Velocity":52,"Duration":454993,"SoundDuration":454993,"Delta":108676897},{"NoteNumber":72,"Velocity":68,"Duration":113748,"SoundDuration":113748,"Delta":109018143},{"NoteNumber":70,"Velocity":79,"Duration":341245,"SoundDuration":341245,"Delta":109131891},{"NoteNumber":49,"Velocity":58,"Duration":909987,"SoundDuration":909987,"Delta":109131891},{"NoteNumber":70,"Velocity":65,"Duration":113748,"SoundDuration":113748,"Delta":109473137},{"NoteNumber":70,"Velocity":72,"Duration":56874,"SoundDuration":56874,"Delta":109586885},{"NoteNumber":72,"Velocity":62,"Duration":56874,"SoundDuration":56874,"Delta":109643760},{"NoteNumber":70,"Velocity":72,"Duration":56874,"SoundDuration":56874,"Delta":109700634},{"NoteNumber":72,"Velocity":58,"Duration":56874,"SoundDuration":56874,"Delta":109757508},{"NoteNumber":70,"Velocity":69,"Duration":37916,"SoundDuration":37916,"Delta":109814382},{"NoteNumber":72,"Velocity":59,"Duration":37916,"SoundDuration":37916,"Delta":109852299},{"NoteNumber":70,"Velocity":69,"Duration":37916,"SoundDuration":37916,"Delta":109890215},{"NoteNumber":69,"Velocity":65,"Duration":56874,"SoundDuration":56874,"Delta":109928131},{"NoteNumber":70,"Velocity":58,"Duration":56874,"SoundDuration":56874,"Delta":109985005},{"NoteNumber":73,"Velocity":78,"Duration":341245,"SoundDuration":341245,"Delta":110041879},{"NoteNumber":70,"Velocity":71,"Duration":113748,"SoundDuration":113748,"Delta":110383125},{"NoteNumber":67,"Velocity":79,"Duration":343983,"SoundDuration":343983,"Delta":110496873},{"NoteNumber":51,"Velocity":52,"Duration":465451,"SoundDuration":465451,"Delta":110496873},{"NoteNumber":63,"Velocity":72,"Duration":121467,"SoundDuration":121467,"Delta":110840857},{"NoteNumber":68,"Velocity":81,"Duration":341245,"SoundDuration":341245,"Delta":110962324},{"NoteNumber":44,"Velocity":47,"Duration":113748,"SoundDuration":113748,"Delta":111303570},{"NoteNumber":48,"Velocity":58,"Duration":341245,"SoundDuration":341245,"Delta":111417318},{"NoteNumber":51,"Velocity":52,"Duration":113748,"SoundDuration":113748,"Delta":111758564},{"NoteNumber":56,"Velocity":59,"Duration":341245,"SoundDuration":341245,"Delta":111872312},{"NoteNumber":63,"Velocity":72,"Duration":341245,"SoundDuration":341245,"Delta":112327306},{"NoteNumber":60,"Velocity":66,"Duration":113748,"SoundDuration":113748,"Delta":112668552},{"NoteNumber":68,"Velocity":72,"Duration":341245,"SoundDuration":341245,"Delta":112782300},{"NoteNumber":56,"Velocity":49,"Duration":454993,"SoundDuration":454993,"Delta":112782300},{"NoteNumber":60,"Velocity":58,"Duration":454993,"SoundDuration":454993,"Delta":112782300},{"NoteNumber":68,"Velocity":65,"Duration":113748,"SoundDuration":113748,"Delta":113123546},{"NoteNumber":68,"Velocity":72,"Duration":56874,"SoundDuration":56874,"Delta":113237294},{"NoteNumber":70,"Velocity":62,"Duration":56874,"SoundDuration":56874,"Delta":113294169},{"NoteNumber":68,"Velocity":72,"Duration":56874,"SoundDuration":56874,"Delta":113351043},{"NoteNumber":70,"Velocity":58,"Duration":56874,"SoundDuration":56874,"Delta":113407917},{"NoteNumber":68,"Velocity":69,"Duration":37916,"SoundDuration":37916,"Delta":113464791},{"NoteNumber":70,"Velocity":59,"Duration":37916,"SoundDuration":37916,"Delta":113502708},{"NoteNumber":68,"Velocity":69,"Duration":37916,"SoundDuration":37916,"Delta":113540624},{"NoteNumber":67,"Velocity":65,"Duration":56874,"SoundDuration":56874,"Delta":113578540},{"NoteNumber":68,"Velocity":58,"Duration":56874,"SoundDuration":56874,"Delta":113635414},{"NoteNumber":70,"Velocity":72,"Duration":468018,"SoundDuration":468018,"Delta":113692288},{"NoteNumber":55,"Velocity":49,"Duration":468018,"SoundDuration":468018,"Delta":113692288},{"NoteNumber":58,"Velocity":58,"Duration":468018,"SoundDuration":468018,"Delta":113692288},{"NoteNumber":63,"Velocity":72,"Duration":343983,"SoundDuration":343983,"Delta":114160307},{"NoteNumber":75,"Velocity":68,"Duration":120948,"SoundDuration":120948,"Delta":114504291},{"NoteNumber":73,"Velocity":82,"Duration":920951,"SoundDuration":920951,"Delta":114625239},{"NoteNumber":44,"Velocity":47,"Duration":460475,"SoundDuration":460475,"Delta":115085715},{"NoteNumber":72,"Velocity":72,"Duration":172678,"SoundDuration":172678,"Delta":115546191},{"NoteNumber":56,"Velocity":58,"Duration":460475,"SoundDuration":460475,"Delta":115546191},{"NoteNumber":68,"Velocity":76,"Duration":338574,"SoundDuration":338574,"Delta":116006667},{"NoteNumber":60,"Velocity":58,"Duration":458011,"SoundDuration":458011,"Delta":116006667},{"NoteNumber":80,"Velocity":69,"Duration":119436,"SoundDuration":119436,"Delta":116345242},{"NoteNumber":79,"Velocity":79,"Duration":460475,"SoundDuration":460475,"Delta":116464678},{"NoteNumber":77,"Velocity":68,"Duration":113301,"SoundDuration":113301,"Delta":116925154},{"NoteNumber":61,"Velocity":58,"Duration":113301,"SoundDuration":113301,"Delta":116925154},{"NoteNumber":80,"Velocity":78,"Duration":120443,"SoundDuration":120443,"Delta":117265059},{"NoteNumber":77,"Velocity":73,"Duration":460475,"SoundDuration":460475,"Delta":117385502},{"NoteNumber":75,"Velocity":76,"Duration":112409,"SoundDuration":112409,"Delta":117845978},{"NoteNumber":60,"Velocity":58,"Duration":112409,"SoundDuration":112409,"Delta":117845978},{"NoteNumber":80,"Velocity":69,"Duration":119436,"SoundDuration":119436,"Delta":118183208},{"NoteNumber":75,"Velocity":79,"Duration":460475,"SoundDuration":460475,"Delta":118302644},{"NoteNumber":73,"Velocity":68,"Duration":112858,"SoundDuration":112858,"Delta":118763120},{"NoteNumber":58,"Velocity":58,"Duration":112858,"SoundDuration":112858,"Delta":118763120},{"NoteNumber":80,"Velocity":78,"Duration":121981,"SoundDuration":121981,"Delta":119101695},{"NoteNumber":73,"Velocity":73,"Duration":460475,"SoundDuration":460475,"Delta":119223676},{"NoteNumber":72,"Velocity":76,"Duration":112409,"SoundDuration":112409,"Delta":119684152},{"NoteNumber":56,"Velocity":58,"Duration":112409,"SoundDuration":112409,"Delta":119684152},{"NoteNumber":80,"Velocity":69,"Duration":119942,"SoundDuration":119942,"Delta":120021382},{"NoteNumber":72,"Velocity":74,"Duration":345357,"SoundDuration":345357,"Delta":120141325},{"NoteNumber":70,"Velocity":66,"Duration":115118,"SoundDuration":115118,"Delta":120486682},{"NoteNumber":73,"Velocity":73,"Duration":345357,"SoundDuration":345357,"Delta":120601801},{"NoteNumber":61,"Velocity":49,"Duration":460475,"SoundDuration":460475,"Delta":120601801},{"NoteNumber":49,"Velocity":49,"Duration":460475,"SoundDuration":460475,"Delta":120601801},{"NoteNumber":77,"Velocity":66,"Duration":115118,"SoundDuration":115118,"Delta":120947158},{"NoteNumber":75,"Velocity":76,"Duration":466092,"SoundDuration":466092,"Delta":121062277},{"NoteNumber":51,"Velocity":58,"Duration":949885,"SoundDuration":949885,"Delta":121062277},{"NoteNumber":60,"Velocity":58,"Duration":466092,"SoundDuration":466092,"Delta":121062277},{"NoteNumber":67,"Velocity":69,"Duration":453555,"SoundDuration":453555,"Delta":121528369},{"NoteNumber":58,"Velocity":55,"Duration":483793,"SoundDuration":483793,"Delta":121528369},{"NoteNumber":67,"Velocity":46,"Duration":30237,"SoundDuration":30237,"Delta":121981925},{"NoteNumber":68,"Velocity":73,"Duration":113438,"SoundDuration":113438,"Delta":122012162},{"NoteNumber":56,"Velocity":55,"Duration":151251,"SoundDuration":151251,"Delta":122012162},{"NoteNumber":60,"Velocity":47,"Duration":151251,"SoundDuration":151251,"Delta":122163413},{"NoteNumber":63,"Velocity":47,"Duration":151251,"SoundDuration":151251,"Delta":122314665},{"NoteNumber":67,"Velocity":53,"Duration":28359,"SoundDuration":28359,"Delta":122437557},{"NoteNumber":68,"Velocity":73,"Duration":112166,"SoundDuration":112166,"Delta":122465917},{"NoteNumber":56,"Velocity":55,"Duration":149555,"SoundDuration":149555,"Delta":122465917},{"NoteNumber":60,"Velocity":47,"Duration":149554,"SoundDuration":149554,"Delta":122615472},{"NoteNumber":63,"Velocity":49,"Duration":149555,"SoundDuration":149555,"Delta":122765027},{"NoteNumber":67,"Velocity":55,"Duration":28041,"SoundDuration":28041,"Delta":122886540},{"NoteNumber":68,"Velocity":73,"Duration":112409,"SoundDuration":112409,"Delta":122914582},{"NoteNumber":56,"Velocity":55,"Duration":149879,"SoundDuration":149879,"Delta":122914582},{"NoteNumber":60,"Velocity":50,"Duration":148345,"SoundDuration":148345,"Delta":123064462},{"NoteNumber":63,"Velocity":50,"Duration":146810,"SoundDuration":146810,"Delta":123212807},{"NoteNumber":69,"Velocity":55,"Duration":27526,"SoundDuration":27526,"Delta":123332091},{"NoteNumber":70,"Velocity":79,"Duration":110108,"SoundDuration":110108,"Delta":123359618},{"NoteNumber":55,"Velocity":55,"Duration":146810,"SoundDuration":146810,"Delta":123359618},{"NoteNumber":58,"Velocity":52,"Duration":146810,"SoundDuration":146810,"Delta":123506428},{"NoteNumber":63,"Velocity":52,"Duration":161264,"SoundDuration":161264,"Delta":123653239},{"NoteNumber":71,"Velocity":76,"Duration":469925,"SoundDuration":469925,"Delta":123814503},{"NoteNumber":56,"Velocity":55,"Duration":156641,"SoundDuration":156641,"Delta":123814503},{"NoteNumber":60,"Velocity":47,"Duration":156641,"SoundDuration":156641,"Delta":123971145},{"NoteNumber":63,"Velocity":47,"Duration":156641,"SoundDuration":156641,"Delta":124127787},{"NoteNumber":72,"Velocity":69,"Duration":456829,"SoundDuration":456829,"Delta":124284428},{"NoteNumber":56,"Velocity":55,"Duration":152276,"SoundDuration":152276,"Delta":124284428},{"NoteNumber":60,"Velocity":47,"Duration":152276,"SoundDuration":152276,"Delta":124436705},{"NoteNumber":63,"Velocity":37,"Duration":152276,"SoundDuration":152276,"Delta":124588982},{"NoteNumber":68,"Velocity":61,"Duration":923339,"SoundDuration":923339,"Delta":124741258},{"NoteNumber":56,"Velocity":50,"Duration":152276,"SoundDuration":152276,"Delta":124741258},{"NoteNumber":60,"Velocity":41,"Duration":152276,"SoundDuration":152276,"Delta":124893535},{"NoteNumber":63,"Velocity":41,"Duration":152276,"SoundDuration":152276,"Delta":125045812},{"NoteNumber":56,"Velocity":50,"Duration":152276,"SoundDuration":152276,"Delta":125198088},{"NoteNumber":60,"Velocity":46,"Duration":152276,"SoundDuration":152276,"Delta":125350365},{"NoteNumber":63,"Velocity":46,"Duration":161956,"SoundDuration":161956,"Delta":125502642},{"NoteNumber":71,"Velocity":46,"Duration":30366,"SoundDuration":30366,"Delta":125634231},{"NoteNumber":72,"Velocity":73,"Duration":114207,"SoundDuration":114207,"Delta":125664598},{"NoteNumber":56,"Velocity":55,"Duration":152276,"SoundDuration":152276,"Delta":125664598},{"NoteNumber":60,"Velocity":47,"Duration":152276,"SoundDuration":152276,"Delta":125816875},{"NoteNumber":63,"Velocity":47,"Duration":152276,"SoundDuration":152276,"Delta":125969151},{"NoteNumber":71,"Velocity":53,"Duration":28551,"SoundDuration":28551,"Delta":126092876},{"NoteNumber":72,"Velocity":73,"Duration":111333,"SoundDuration":111333,"Delta":126121428},{"NoteNumber":56,"Velocity":55,"Duration":148444,"SoundDuration":148444,"Delta":126121428},{"NoteNumber":60,"Velocity":47,"Duration":148445,"SoundDuration":148445,"Delta":126269873},{"NoteNumber":63,"Velocity":49,"Duration":148444,"SoundDuration":148444,"Delta":126418318},{"NoteNumber":71,"Velocity":55,"Duration":27833,"SoundDuration":27833,"Delta":126538930},{"NoteNumber":72,"Velocity":73,"Duration":109705,"SoundDuration":109705,"Delta":126566763},{"NoteNumber":56,"Velocity":55,"Duration":146273,"SoundDuration":146273,"Delta":126566763},{"NoteNumber":60,"Velocity":50,"Duration":146273,"SoundDuration":146273,"Delta":126713037},{"NoteNumber":63,"Velocity":50,"Duration":146273,"SoundDuration":146273,"Delta":126859310},{"NoteNumber":75,"Velocity":79,"Duration":109705,"SoundDuration":109705,"Delta":127005584},{"NoteNumber":58,"Velocity":55,"Duration":146273,"SoundDuration":146273,"Delta":127005584},{"NoteNumber":73,"Velocity":71,"Duration":109705,"SoundDuration":109705,"Delta":127115289},{"NoteNumber":61,"Velocity":52,"Duration":146273,"SoundDuration":146273,"Delta":127151858},{"NoteNumber":72,"Velocity":76,"Duration":114147,"SoundDuration":114147,"Delta":127224995},{"NoteNumber":67,"Velocity":52,"Duration":164041,"SoundDuration":164041,"Delta":127298131},{"NoteNumber":73,"Velocity":69,"Duration":123031,"SoundDuration":123031,"Delta":127339142},{"NoteNumber":75,"Velocity":79,"Duration":906411,"SoundDuration":906411,"Delta":127462173},{"NoteNumber":60,"Velocity":55,"Duration":151068,"SoundDuration":151068,"Delta":127462173},{"NoteNumber":63,"Velocity":47,"Duration":151068,"SoundDuration":151068,"Delta":127613242},{"NoteNumber":68,"Velocity":47,"Duration":151068,"SoundDuration":151068,"Delta":127764311},{"NoteNumber":60,"Velocity":55,"Duration":151068,"SoundDuration":151068,"Delta":127915379},{"NoteNumber":63,"Velocity":47,"Duration":151068,"SoundDuration":151068,"Delta":128066448},{"NoteNumber":68,"Velocity":39,"Duration":151068,"SoundDuration":151068,"Delta":128217517},{"NoteNumber":72,"Velocity":68,"Duration":906412,"SoundDuration":906412,"Delta":128368585},{"NoteNumber":60,"Velocity":52,"Duration":151068,"SoundDuration":151068,"Delta":128368585},{"NoteNumber":63,"Velocity":43,"Duration":151068,"SoundDuration":151068,"Delta":128519654},{"NoteNumber":68,"Velocity":43,"Duration":151068,"SoundDuration":151068,"Delta":128670723},{"NoteNumber":60,"Velocity":53,"Duration":151068,"SoundDuration":151068,"Delta":128821791},{"NoteNumber":63,"Velocity":44,"Duration":151068,"SoundDuration":151068,"Delta":128972860},{"NoteNumber":68,"Velocity":44,"Duration":151068,"SoundDuration":151068,"Delta":129123929},{"NoteNumber":80,"Velocity":92,"Duration":447894,"SoundDuration":447894,"Delta":129274997},{"NoteNumber":60,"Velocity":55,"Duration":149298,"SoundDuration":149298,"Delta":129274997},{"NoteNumber":63,"Velocity":47,"Duration":149298,"SoundDuration":149298,"Delta":129424296},{"NoteNumber":68,"Velocity":47,"Duration":149298,"SoundDuration":149298,"Delta":129573594},{"NoteNumber":80,"Velocity":85,"Duration":145879,"SoundDuration":145879,"Delta":129722892},{"NoteNumber":60,"Velocity":55,"Duration":145879,"SoundDuration":145879,"Delta":129722892},{"NoteNumber":84,"Velocity":72,"Duration":145878,"SoundDuration":145878,"Delta":129868771},{"NoteNumber":63,"Velocity":47,"Duration":145878,"SoundDuration":145878,"Delta":129868771},{"NoteNumber":87,"Velocity":72,"Duration":145879,"SoundDuration":145879,"Delta":130014650},{"NoteNumber":68,"Velocity":39,"Duration":145879,"SoundDuration":145879,"Delta":130014650},{"NoteNumber":78,"Velocity":82,"Duration":902865,"SoundDuration":902865,"Delta":130160529},{"NoteNumber":60,"Velocity":46,"Duration":150477,"SoundDuration":150477,"Delta":130160529},{"NoteNumber":63,"Velocity":36,"Duration":150477,"SoundDuration":150477,"Delta":130311007},{"NoteNumber":68,"Velocity":36,"Duration":150477,"SoundDuration":150477,"Delta":130461485},{"NoteNumber":60,"Velocity":47,"Duration":150477,"SoundDuration":150477,"Delta":130611962},{"NoteNumber":63,"Velocity":40,"Duration":150477,"SoundDuration":150477,"Delta":130762440},{"NoteNumber":68,"Velocity":40,"Duration":150477,"SoundDuration":150477,"Delta":130912918},{"NoteNumber":77,"Velocity":92,"Duration":439302,"SoundDuration":439302,"Delta":131063395},{"NoteNumber":61,"Velocity":55,"Duration":146434,"SoundDuration":146434,"Delta":131063395},{"NoteNumber":65,"Velocity":47,"Duration":146434,"SoundDuration":146434,"Delta":131209830},{"NoteNumber":68,"Velocity":47,"Duration":146434,"SoundDuration":146434,"Delta":131356264},{"NoteNumber":77,"Velocity":85,"Duration":144227,"SoundDuration":144227,"Delta":131502698},{"NoteNumber":61,"Velocity":55,"Duration":144227,"SoundDuration":144227,"Delta":131502698},{"NoteNumber":82,"Velocity":72,"Duration":144227,"SoundDuration":144227,"Delta":131646926},{"NoteNumber":65,"Velocity":47,"Duration":144227,"SoundDuration":144227,"Delta":131646926},{"NoteNumber":85,"Velocity":72,"Duration":144227,"SoundDuration":144227,"Delta":131791153},{"NoteNumber":68,"Velocity":39,"Duration":144227,"SoundDuration":144227,"Delta":131791153},{"NoteNumber":75,"Velocity":82,"Duration":671084,"SoundDuration":671084,"Delta":131935380},{"NoteNumber":61,"Velocity":49,"Duration":150477,"SoundDuration":150477,"Delta":131935380},{"NoteNumber":63,"Velocity":39,"Duration":150477,"SoundDuration":150477,"Delta":132085858},{"NoteNumber":67,"Velocity":39,"Duration":150477,"SoundDuration":150477,"Delta":132236336},{"NoteNumber":61,"Velocity":50,"Duration":146434,"SoundDuration":146434,"Delta":132386813},{"NoteNumber":63,"Velocity":44,"Duration":146434,"SoundDuration":146434,"Delta":132533248},{"NoteNumber":77,"Velocity":75,"Duration":109825,"SoundDuration":109825,"Delta":132606465},{"NoteNumber":67,"Velocity":44,"Duration":146434,"SoundDuration":146434,"Delta":132679682},{"NoteNumber":79,"Velocity":82,"Duration":109825,"SoundDuration":109825,"Delta":132716291},{"NoteNumber":80,"Velocity":94,"Duration":447894,"SoundDuration":447894,"Delta":132826116},{"NoteNumber":60,"Velocity":55,"Duration":149298,"SoundDuration":149298,"Delta":132826116},{"NoteNumber":63,"Velocity":47,"Duration":149298,"SoundDuration":149298,"Delta":132975415},{"NoteNumber":68,"Velocity":47,"Duration":149298,"SoundDuration":149298,"Delta":133124713},{"NoteNumber":80,"Velocity":81,"Duration":145879,"SoundDuration":145879,"Delta":133274011},{"NoteNumber":60,"Velocity":55,"Duration":145879,"SoundDuration":145879,"Delta":133274011},{"NoteNumber":82,"Velocity":72,"Duration":145878,"SoundDuration":145878,"Delta":133419890},{"NoteNumber":63,"Velocity":47,"Duration":145878,"SoundDuration":145878,"Delta":133419890},{"NoteNumber":84,"Velocity":66,"Duration":145879,"SoundDuration":145879,"Delta":133565769},{"NoteNumber":68,"Velocity":39,"Duration":145879,"SoundDuration":145879,"Delta":133565769},{"NoteNumber":73,"Velocity":84,"Duration":904808,"SoundDuration":904808,"Delta":133711648},{"NoteNumber":58,"Velocity":52,"Duration":148720,"SoundDuration":148720,"Delta":133711648},{"NoteNumber":61,"Velocity":43,"Duration":148720,"SoundDuration":148720,"Delta":133860369},{"NoteNumber":67,"Velocity":43,"Duration":148721,"SoundDuration":148721,"Delta":134009090},{"NoteNumber":58,"Velocity":53,"Duration":152881,"SoundDuration":152881,"Delta":134157811},{"NoteNumber":61,"Velocity":44,"Duration":152881,"SoundDuration":152881,"Delta":134310693},{"NoteNumber":67,"Velocity":44,"Duration":152881,"SoundDuration":152881,"Delta":134463575},{"NoteNumber":72,"Velocity":81,"Duration":152881,"SoundDuration":152881,"Delta":134616456},{"NoteNumber":56,"Velocity":55,"Duration":458645,"SoundDuration":458645,"Delta":134616456},{"NoteNumber":75,"Velocity":71,"Duration":152881,"SoundDuration":152881,"Delta":134769338},{"NoteNumber":73,"Velocity":71,"Duration":152881,"SoundDuration":152881,"Delta":134922220},{"NoteNumber":72,"Velocity":66,"Duration":152881,"SoundDuration":152881,"Delta":135075101},{"NoteNumber":84,"Velocity":78,"Duration":146785,"SoundDuration":146785,"Delta":135227983},{"NoteNumber":82,"Velocity":71,"Duration":146844,"SoundDuration":146844,"Delta":135374769},{"NoteNumber":80,"Velocity":71,"Duration":147431,"SoundDuration":147431,"Delta":135521613},{"NoteNumber":79,"Velocity":78,"Duration":148020,"SoundDuration":148020,"Delta":135669044},{"NoteNumber":77,"Velocity":68,"Duration":148626,"SoundDuration":148626,"Delta":135817064},{"NoteNumber":75,"Velocity":79,"Duration":149226,"SoundDuration":149226,"Delta":135965690},{"NoteNumber":73,"Velocity":71,"Duration":149832,"SoundDuration":149832,"Delta":136114916},{"NoteNumber":72,"Velocity":71,"Duration":150451,"SoundDuration":150451,"Delta":136264749},{"NoteNumber":75,"Velocity":81,"Duration":355365,"SoundDuration":355365,"Delta":136415201},{"NoteNumber":72,"Velocity":58,"Duration":118455,"SoundDuration":118455,"Delta":136770566},{"NoteNumber":70,"Velocity":70,"Duration":355365,"SoundDuration":355365,"Delta":136889022},{"NoteNumber":63,"Velocity":39,"Duration":473821,"SoundDuration":473821,"Delta":136889022},{"NoteNumber":67,"Velocity":46,"Duration":473821,"SoundDuration":473821,"Delta":136889022},{"NoteNumber":70,"Velocity":72,"Duration":343983,"SoundDuration":343983,"Delta":137821488},{"NoteNumber":67,"Velocity":66,"Duration":114661,"SoundDuration":114661,"Delta":138165471},{"NoteNumber":75,"Velocity":72,"Duration":334622,"SoundDuration":334622,"Delta":138280133},{"NoteNumber":51,"Velocity":58,"Duration":334622,"SoundDuration":334622,"Delta":138280133},{"NoteNumber":75,"Velocity":65,"Duration":111540,"SoundDuration":111540,"Delta":138614755},{"NoteNumber":75,"Velocity":72,"Duration":57103,"SoundDuration":57103,"Delta":138726296},{"NoteNumber":55,"Velocity":58,"Duration":228415,"SoundDuration":228415,"Delta":138726296},{"NoteNumber":77,"Velocity":62,"Duration":57103,"SoundDuration":57103,"Delta":138783399},{"NoteNumber":75,"Velocity":72,"Duration":57103,"SoundDuration":57103,"Delta":138840503},{"NoteNumber":77,"Velocity":58,"Duration":57103,"SoundDuration":57103,"Delta":138897607},{"NoteNumber":75,"Velocity":69,"Duration":38069,"SoundDuration":38069,"Delta":138954711},{"NoteNumber":77,"Velocity":59,"Duration":38069,"SoundDuration":38069,"Delta":138992780},{"NoteNumber":75,"Velocity":69,"Duration":38069,"SoundDuration":38069,"Delta":139030849},{"NoteNumber":74,"Velocity":65,"Duration":57103,"SoundDuration":57103,"Delta":139068918},{"NoteNumber":75,"Velocity":58,"Duration":57103,"SoundDuration":57103,"Delta":139126022},{"NoteNumber":77,"Velocity":72,"Duration":228415,"SoundDuration":228415,"Delta":139183126},{"NoteNumber":50,"Velocity":58,"Duration":228415,"SoundDuration":228415,"Delta":139183126},{"NoteNumber":74,"Velocity":72,"Duration":343983,"SoundDuration":343983,"Delta":139639956},{"NoteNumber":70,"Velocity":66,"Duration":114661,"SoundDuration":114661,"Delta":139983939},{"NoteNumber":77,"Velocity":72,"Duration":334622,"SoundDuration":334622,"Delta":140098601},{"NoteNumber":50,"Velocity":58,"Duration":334622,"SoundDuration":334622,"Delta":140098601},{"NoteNumber":77,"Velocity":65,"Duration":111540,"SoundDuration":111540,"Delta":140433223},{"NoteNumber":77,"Velocity":72,"Duration":57103,"SoundDuration":57103,"Delta":140544764},{"NoteNumber":58,"Velocity":44,"Duration":228415,"SoundDuration":228415,"Delta":140544764},{"NoteNumber":79,"Velocity":62,"Duration":57103,"SoundDuration":57103,"Delta":140601867},{"NoteNumber":77,"Velocity":72,"Duration":57103,"SoundDuration":57103,"Delta":140658971},{"NoteNumber":79,"Velocity":58,"Duration":57103,"SoundDuration":57103,"Delta":140716075},{"NoteNumber":77,"Velocity":69,"Duration":38069,"SoundDuration":38069,"Delta":140773179},{"NoteNumber":79,"Velocity":59,"Duration":38069,"SoundDuration":38069,"Delta":140811248},{"NoteNumber":77,"Velocity":69,"Duration":38069,"SoundDuration":38069,"Delta":140849317},{"NoteNumber":75,"Velocity":65,"Duration":57103,"SoundDuration":57103,"Delta":140887386},{"NoteNumber":77,"Velocity":58,"Duration":57103,"SoundDuration":57103,"Delta":140944490},{"NoteNumber":79,"Velocity":72,"Duration":334622,"SoundDuration":334622,"Delta":141001594},{"NoteNumber":51,"Velocity":53,"Duration":334622,"SoundDuration":334622,"Delta":141001594},{"NoteNumber":79,"Velocity":65,"Duration":111540,"SoundDuration":111540,"Delta":141336216},{"NoteNumber":79,"Velocity":73,"Duration":57103,"SoundDuration":57103,"Delta":141447757},{"NoteNumber":58,"Velocity":47,"Duration":228415,"SoundDuration":228415,"Delta":141447757},{"NoteNumber":80,"Velocity":63,"Duration":57103,"SoundDuration":57103,"Delta":141504860},{"NoteNumber":79,"Velocity":73,"Duration":57103,"SoundDuration":57103,"Delta":141561964},{"NoteNumber":80,"Velocity":59,"Duration":57103,"SoundDuration":57103,"Delta":141619068},{"NoteNumber":79,"Velocity":71,"Duration":38069,"SoundDuration":38069,"Delta":141676172},{"NoteNumber":80,"Velocity":60,"Duration":38069,"SoundDuration":38069,"Delta":141714241},{"NoteNumber":79,"Velocity":72,"Duration":38069,"SoundDuration":38069,"Delta":141752310},{"NoteNumber":77,"Velocity":68,"Duration":57103,"SoundDuration":57103,"Delta":141790379},{"NoteNumber":79,"Velocity":60,"Duration":57103,"SoundDuration":57103,"Delta":141847483},{"NoteNumber":80,"Velocity":76,"Duration":334622,"SoundDuration":334622,"Delta":141904587},{"NoteNumber":53,"Velocity":55,"Duration":334622,"SoundDuration":334622,"Delta":141904587},{"NoteNumber":80,"Velocity":69,"Duration":111540,"SoundDuration":111540,"Delta":142239209},{"NoteNumber":80,"Velocity":78,"Duration":57103,"SoundDuration":57103,"Delta":142350750},{"NoteNumber":62,"Velocity":37,"Duration":228415,"SoundDuration":228415,"Delta":142350750},{"NoteNumber":82,"Velocity":66,"Duration":57103,"SoundDuration":57103,"Delta":142407853},{"NoteNumber":80,"Velocity":78,"Duration":57103,"SoundDuration":57103,"Delta":142464957},{"NoteNumber":82,"Velocity":63,"Duration":57103,"SoundDuration":57103,"Delta":142522061},{"NoteNumber":80,"Velocity":75,"Duration":38069,"SoundDuration":38069,"Delta":142579165},{"NoteNumber":82,"Velocity":65,"Duration":38069,"SoundDuration":38069,"Delta":142617234},{"NoteNumber":80,"Velocity":76,"Duration":38069,"SoundDuration":38069,"Delta":142655303},{"NoteNumber":79,"Velocity":71,"Duration":57103,"SoundDuration":57103,"Delta":142693372},{"NoteNumber":80,"Velocity":63,"Duration":57103,"SoundDuration":57103,"Delta":142750476},{"NoteNumber":82,"Velocity":81,"Duration":334622,"SoundDuration":334622,"Delta":142807580},{"NoteNumber":55,"Velocity":56,"Duration":334622,"SoundDuration":334622,"Delta":142807580},{"NoteNumber":82,"Velocity":73,"Duration":111540,"SoundDuration":111540,"Delta":143142202},{"NoteNumber":82,"Velocity":82,"Duration":57103,"SoundDuration":57103,"Delta":143253743},{"NoteNumber":63,"Velocity":44,"Duration":228415,"SoundDuration":228415,"Delta":143253743},{"NoteNumber":84,"Velocity":71,"Duration":57103,"SoundDuration":57103,"Delta":143310846},{"NoteNumber":82,"Velocity":82,"Duration":57103,"SoundDuration":57103,"Delta":143367950},{"NoteNumber":84,"Velocity":66,"Duration":57103,"SoundDuration":57103,"Delta":143425054},{"NoteNumber":82,"Velocity":79,"Duration":38069,"SoundDuration":38069,"Delta":143482158},{"NoteNumber":84,"Velocity":68,"Duration":38069,"SoundDuration":38069,"Delta":143520227},{"NoteNumber":82,"Velocity":81,"Duration":38069,"SoundDuration":38069,"Delta":143558296},{"NoteNumber":80,"Velocity":75,"Duration":57103,"SoundDuration":57103,"Delta":143596365},{"NoteNumber":82,"Velocity":66,"Duration":57103,"SoundDuration":57103,"Delta":143653469},{"NoteNumber":84,"Velocity":85,"Duration":1370489,"SoundDuration":1370489,"Delta":143710573},{"NoteNumber":56,"Velocity":55,"Duration":152276,"SoundDuration":152276,"Delta":143710573},{"NoteNumber":60,"Velocity":47,"Duration":152276,"SoundDuration":152276,"Delta":143862849},{"NoteNumber":63,"Velocity":47,"Duration":152276,"SoundDuration":152276,"Delta":144015126},{"NoteNumber":56,"Velocity":55,"Duration":152276,"SoundDuration":152276,"Delta":144167403},{"NoteNumber":60,"Velocity":47,"Duration":152276,"SoundDuration":152276,"Delta":144319679},{"NoteNumber":63,"Velocity":39,"Duration":152276,"SoundDuration":152276,"Delta":144471956},{"NoteNumber":56,"Velocity":52,"Duration":152276,"SoundDuration":152276,"Delta":144624233},{"NoteNumber":60,"Velocity":43,"Duration":152276,"SoundDuration":152276,"Delta":144776509},{"NoteNumber":63,"Velocity":43,"Duration":152276,"SoundDuration":152276,"Delta":144928786},{"NoteNumber":76,"Velocity":79,"Duration":456830,"SoundDuration":456830,"Delta":145081063},{"NoteNumber":55,"Velocity":53,"Duration":152276,"SoundDuration":152276,"Delta":145081063},{"NoteNumber":58,"Velocity":44,"Duration":152276,"SoundDuration":152276,"Delta":145233339},{"NoteNumber":61,"Velocity":44,"Duration":152276,"SoundDuration":152276,"Delta":145385616},{"NoteNumber":77,"Velocity":81,"Duration":152881,"SoundDuration":152881,"Delta":145537893},{"NoteNumber":56,"Velocity":55,"Duration":458644,"SoundDuration":458644,"Delta":145537893},{"NoteNumber":80,"Velocity":71,"Duration":152881,"SoundDuration":152881,"Delta":145690774},{"NoteNumber":79,"Velocity":71,"Duration":152881,"SoundDuration":152881,"Delta":145843656},{"NoteNumber":77,"Velocity":66,"Duration":152881,"SoundDuration":152881,"Delta":145996538},{"NoteNumber":84,"Velocity":77,"Duration":146785,"SoundDuration":146785,"Delta":146149419},{"NoteNumber":82,"Velocity":69,"Duration":146844,"SoundDuration":146844,"Delta":146296205},{"NoteNumber":80,"Velocity":69,"Duration":147431,"SoundDuration":147431,"Delta":146443049},{"NoteNumber":79,"Velocity":65,"Duration":148020,"SoundDuration":148020,"Delta":146590480},{"NoteNumber":77,"Velocity":64,"Duration":148626,"SoundDuration":148626,"Delta":146738500},{"NoteNumber":75,"Velocity":73,"Duration":149226,"SoundDuration":149226,"Delta":146887127},{"NoteNumber":74,"Velocity":66,"Duration":149832,"SoundDuration":149832,"Delta":147036353},{"NoteNumber":72,"Velocity":65,"Duration":150451,"SoundDuration":150451,"Delta":147186185},{"NoteNumber":82,"Velocity":85,"Duration":1370489,"SoundDuration":1370489,"Delta":147336637},{"NoteNumber":55,"Velocity":55,"Duration":152276,"SoundDuration":152276,"Delta":147336637},{"NoteNumber":58,"Velocity":47,"Duration":152276,"SoundDuration":152276,"Delta":147488914},{"NoteNumber":63,"Velocity":47,"Duration":152276,"SoundDuration":152276,"Delta":147641190},{"NoteNumber":55,"Velocity":55,"Duration":152276,"SoundDuration":152276,"Delta":147793467},{"NoteNumber":58,"Velocity":47,"Duration":152276,"SoundDuration":152276,"Delta":147945744},{"NoteNumber":63,"Velocity":39,"Duration":152276,"SoundDuration":152276,"Delta":148098020},{"NoteNumber":55,"Velocity":52,"Duration":152276,"SoundDuration":152276,"Delta":148250297},{"NoteNumber":58,"Velocity":43,"Duration":152276,"SoundDuration":152276,"Delta":148402574},{"NoteNumber":63,"Velocity":43,"Duration":152276,"SoundDuration":152276,"Delta":148554850},{"NoteNumber":74,"Velocity":79,"Duration":456829,"SoundDuration":456829,"Delta":148707127},{"NoteNumber":53,"Velocity":53,"Duration":152276,"SoundDuration":152276,"Delta":148707127},{"NoteNumber":56,"Velocity":44,"Duration":152276,"SoundDuration":152276,"Delta":148859404},{"NoteNumber":59,"Velocity":44,"Duration":152276,"SoundDuration":152276,"Delta":149011680},{"NoteNumber":75,"Velocity":81,"Duration":152881,"SoundDuration":152881,"Delta":149163957},{"NoteNumber":55,"Velocity":55,"Duration":458644,"SoundDuration":458644,"Delta":149163957},{"NoteNumber":79,"Velocity":71,"Duration":152881,"SoundDuration":152881,"Delta":149316839},{"NoteNumber":77,"Velocity":71,"Duration":152881,"SoundDuration":152881,"Delta":149469720},{"NoteNumber":75,"Velocity":66,"Duration":152881,"SoundDuration":152881,"Delta":149622602},{"NoteNumber":82,"Velocity":78,"Duration":146785,"SoundDuration":146785,"Delta":149775484},{"NoteNumber":80,"Velocity":70,"Duration":146844,"SoundDuration":146844,"Delta":149922269},{"NoteNumber":79,"Velocity":70,"Duration":147431,"SoundDuration":147431,"Delta":150069114},{"NoteNumber":77,"Velocity":66,"Duration":148020,"SoundDuration":148020,"Delta":150216545},{"NoteNumber":75,"Velocity":66,"Duration":148626,"SoundDuration":148626,"Delta":150364565},{"NoteNumber":74,"Velocity":77,"Duration":149226,"SoundDuration":149226,"Delta":150513191},{"NoteNumber":72,"Velocity":70,"Duration":149832,"SoundDuration":149832,"Delta":150662417},{"NoteNumber":70,"Velocity":65,"Duration":150451,"SoundDuration":150451,"Delta":150812250},{"NoteNumber":80,"Velocity":85,"Duration":1370489,"SoundDuration":1370489,"Delta":150962701},{"NoteNumber":58,"Velocity":55,"Duration":152276,"SoundDuration":152276,"Delta":150962701},{"NoteNumber":62,"Velocity":47,"Duration":152276,"SoundDuration":152276,"Delta":151114978},{"NoteNumber":65,"Velocity":47,"Duration":152276,"SoundDuration":152276,"Delta":151267255},{"NoteNumber":58,"Velocity":55,"Duration":152276,"SoundDuration":152276,"Delta":151419531},{"NoteNumber":62,"Velocity":47,"Duration":152276,"SoundDuration":152276,"Delta":151571808},{"NoteNumber":65,"Velocity":39,"Duration":152276,"SoundDuration":152276,"Delta":151724085},{"NoteNumber":58,"Velocity":52,"Duration":152276,"SoundDuration":152276,"Delta":151876361},{"NoteNumber":62,"Velocity":43,"Duration":152276,"SoundDuration":152276,"Delta":152028638},{"NoteNumber":65,"Velocity":43,"Duration":152276,"SoundDuration":152276,"Delta":152180915},{"NoteNumber":79,"Velocity":76,"Duration":149879,"SoundDuration":149879,"Delta":152333191},{"NoteNumber":58,"Velocity":53,"Duration":149879,"SoundDuration":149879,"Delta":152333191},{"NoteNumber":77,"Velocity":68,"Duration":149880,"SoundDuration":149880,"Delta":152483071},{"NoteNumber":63,"Velocity":44,"Duration":149880,"SoundDuration":149880,"Delta":152483071},{"NoteNumber":75,"Velocity":58,"Duration":141711,"SoundDuration":141711,"Delta":152632951},{"NoteNumber":67,"Velocity":44,"Duration":161956,"SoundDuration":161956,"Delta":152632951},{"NoteNumber":75,"Velocity":72,"Duration":234009,"SoundDuration":234009,"Delta":152794908},{"NoteNumber":58,"Velocity":53,"Duration":156006,"SoundDuration":156006,"Delta":152794908},{"NoteNumber":65,"Velocity":44,"Duration":156006,"SoundDuration":156006,"Delta":152950914},{"NoteNumber":74,"Velocity":58,"Duration":214508,"SoundDuration":214508,"Delta":153028917},{"NoteNumber":68,"Velocity":44,"Duration":156006,"SoundDuration":156006,"Delta":153106920},{"NoteNumber":74,"Velocity":62,"Duration":930374,"SoundDuration":930374,"Delta":153262927},{"NoteNumber":58,"Velocity":50,"Duration":156006,"SoundDuration":156006,"Delta":153262927},{"NoteNumber":65,"Velocity":39,"Duration":156006,"SoundDuration":156006,"Delta":153418933},{"NoteNumber":68,"Velocity":39,"Duration":156006,"SoundDuration":156006,"Delta":153574939},{"NoteNumber":58,"Velocity":47,"Duration":154118,"SoundDuration":154118,"Delta":153730946},{"NoteNumber":65,"Velocity":42,"Duration":154118,"SoundDuration":154118,"Delta":153885064},{"NoteNumber":68,"Velocity":42,"Duration":154118,"SoundDuration":154118,"Delta":154039183},{"NoteNumber":75,"Velocity":72,"Duration":471845,"SoundDuration":471845,"Delta":154193302},{"NoteNumber":58,"Velocity":53,"Duration":157282,"SoundDuration":157282,"Delta":154193302},{"NoteNumber":63,"Velocity":44,"Duration":157281,"SoundDuration":157281,"Delta":154350584},{"NoteNumber":67,"Velocity":44,"Duration":157282,"SoundDuration":157282,"Delta":154507866},{"NoteNumber":77,"Velocity":85,"Duration":152276,"SoundDuration":152276,"Delta":154665148},{"NoteNumber":58,"Velocity":55,"Duration":152276,"SoundDuration":152276,"Delta":154665148},{"NoteNumber":79,"Velocity":72,"Duration":152276,"SoundDuration":152276,"Delta":154817424},{"NoteNumber":62,"Velocity":47,"Duration":152276,"SoundDuration":152276,"Delta":154817424},{"NoteNumber":80,"Velocity":66,"Duration":133242,"SoundDuration":133242,"Delta":154969701},{"NoteNumber":65,"Velocity":47,"Duration":152276,"SoundDuration":152276,"Delta":154969701},{"NoteNumber":80,"Velocity":85,"Duration":913659,"SoundDuration":913659,"Delta":155121978},{"NoteNumber":58,"Velocity":55,"Duration":152276,"SoundDuration":152276,"Delta":155121978},{"NoteNumber":62,"Velocity":47,"Duration":152276,"SoundDuration":152276,"Delta":155274254},{"NoteNumber":65,"Velocity":39,"Duration":152276,"SoundDuration":152276,"Delta":155426531},{"NoteNumber":58,"Velocity":52,"Duration":152276,"SoundDuration":152276,"Delta":155578808},{"NoteNumber":62,"Velocity":43,"Duration":152276,"SoundDuration":152276,"Delta":155731084},{"NoteNumber":65,"Velocity":43,"Duration":152276,"SoundDuration":152276,"Delta":155883361},{"NoteNumber":79,"Velocity":76,"Duration":149879,"SoundDuration":149879,"Delta":156035638},{"NoteNumber":58,"Velocity":53,"Duration":149879,"SoundDuration":149879,"Delta":156035638},{"NoteNumber":77,"Velocity":68,"Duration":149880,"SoundDuration":149880,"Delta":156185518},{"NoteNumber":63,"Velocity":44,"Duration":149880,"SoundDuration":149880,"Delta":156185518},{"NoteNumber":75,"Velocity":58,"Duration":141711,"SoundDuration":141711,"Delta":156335398},{"NoteNumber":67,"Velocity":44,"Duration":161956,"SoundDuration":161956,"Delta":156335398},{"NoteNumber":75,"Velocity":72,"Duration":234009,"SoundDuration":234009,"Delta":156497354},{"NoteNumber":58,"Velocity":53,"Duration":156006,"SoundDuration":156006,"Delta":156497354},{"NoteNumber":65,"Velocity":44,"Duration":156006,"SoundDuration":156006,"Delta":156653360},{"NoteNumber":74,"Velocity":58,"Duration":214508,"SoundDuration":214508,"Delta":156731363},{"NoteNumber":68,"Velocity":44,"Duration":156006,"SoundDuration":156006,"Delta":156809367},{"NoteNumber":74,"Velocity":62,"Duration":930374,"SoundDuration":930374,"Delta":156965373},{"NoteNumber":58,"Velocity":50,"Duration":156006,"SoundDuration":156006,"Delta":156965373},{"NoteNumber":65,"Velocity":39,"Duration":156006,"SoundDuration":156006,"Delta":157121379},{"NoteNumber":68,"Velocity":39,"Duration":156006,"SoundDuration":156006,"Delta":157277386},{"NoteNumber":58,"Velocity":47,"Duration":154118,"SoundDuration":154118,"Delta":157433392},{"NoteNumber":65,"Velocity":42,"Duration":154118,"SoundDuration":154118,"Delta":157587511},{"NoteNumber":68,"Velocity":42,"Duration":154118,"SoundDuration":154118,"Delta":157741629},{"NoteNumber":75,"Velocity":72,"Duration":471845,"SoundDuration":471845,"Delta":157895748},{"NoteNumber":58,"Velocity":53,"Duration":157282,"SoundDuration":157282,"Delta":157895748},{"NoteNumber":63,"Velocity":44,"Duration":157281,"SoundDuration":157281,"Delta":158053030},{"NoteNumber":67,"Velocity":44,"Duration":157282,"SoundDuration":157282,"Delta":158210312},{"NoteNumber":77,"Velocity":85,"Duration":152276,"SoundDuration":152276,"Delta":158367594},{"NoteNumber":58,"Velocity":55,"Duration":152276,"SoundDuration":152276,"Delta":158367594},{"NoteNumber":79,"Velocity":72,"Duration":152276,"SoundDuration":152276,"Delta":158519871},{"NoteNumber":62,"Velocity":47,"Duration":152276,"SoundDuration":152276,"Delta":158519871},{"NoteNumber":80,"Velocity":66,"Duration":133242,"SoundDuration":133242,"Delta":158672147},{"NoteNumber":65,"Velocity":47,"Duration":152276,"SoundDuration":152276,"Delta":158672147},{"NoteNumber":80,"Velocity":85,"Duration":913659,"SoundDuration":913659,"Delta":158824424},{"NoteNumber":58,"Velocity":55,"Duration":152276,"SoundDuration":152276,"Delta":158824424},{"NoteNumber":62,"Velocity":47,"Duration":152276,"SoundDuration":152276,"Delta":158976701},{"NoteNumber":65,"Velocity":39,"Duration":152276,"SoundDuration":152276,"Delta":159128977},{"NoteNumber":59,"Velocity":61,"Duration":152276,"SoundDuration":152276,"Delta":159281254},{"NoteNumber":62,"Velocity":43,"Duration":152276,"SoundDuration":152276,"Delta":159433531},{"NoteNumber":65,"Velocity":43,"Duration":152276,"SoundDuration":152276,"Delta":159585807},{"NoteNumber":79,"Velocity":76,"Duration":461716,"SoundDuration":461716,"Delta":159738084},{"NoteNumber":60,"Velocity":53,"Duration":149879,"SoundDuration":149879,"Delta":159738084},{"NoteNumber":62,"Velocity":44,"Duration":149880,"SoundDuration":149880,"Delta":159887964},{"NoteNumber":63,"Velocity":44,"Duration":161956,"SoundDuration":161956,"Delta":160037844},{"NoteNumber":77,"Velocity":66,"Duration":152881,"SoundDuration":152881,"Delta":160199800},{"NoteNumber":56,"Velocity":55,"Duration":446511,"SoundDuration":446511,"Delta":160199800},{"NoteNumber":84,"Velocity":81,"Duration":146785,"SoundDuration":146785,"Delta":160352682},{"NoteNumber":82,"Velocity":73,"Duration":146844,"SoundDuration":146844,"Delta":160499468},{"NoteNumber":80,"Velocity":73,"Duration":147431,"SoundDuration":147431,"Delta":160646312},{"NoteNumber":79,"Velocity":69,"Duration":148020,"SoundDuration":148020,"Delta":160793743},{"NoteNumber":77,"Velocity":64,"Duration":148626,"SoundDuration":148626,"Delta":160941763},{"NoteNumber":75,"Velocity":79,"Duration":458644,"SoundDuration":458644,"Delta":161090389},{"NoteNumber":58,"Velocity":40,"Duration":936389,"SoundDuration":936389,"Delta":161090389},{"NoteNumber":67,"Velocity":62,"Duration":458644,"SoundDuration":458644,"Delta":161090389},{"NoteNumber":74,"Velocity":60,"Duration":477744,"SoundDuration":477744,"Delta":161549034},{"NoteNumber":68,"Velocity":47,"Duration":477744,"SoundDuration":477744,"Delta":161549034},{"NoteNumber":74,"Velocity":68,"Duration":984251,"SoundDuration":984251,"Delta":162026779},{"NoteNumber":60,"Velocity":30,"Duration":1476378,"SoundDuration":1476378,"Delta":162026779},{"NoteNumber":68,"Velocity":55,"Duration":984251,"SoundDuration":984251,"Delta":162026779},{"NoteNumber":75,"Velocity":50,"Duration":492126,"SoundDuration":492126,"Delta":163011031},{"NoteNumber":67,"Velocity":37,"Duration":492126,"SoundDuration":492126,"Delta":163011031},{"NoteNumber":56,"Velocity":68,"Duration":1082356,"SoundDuration":1082356,"Delta":163995283},{"NoteNumber":51,"Velocity":56,"Duration":231249,"SoundDuration":231249,"Delta":164465024},{"NoteNumber":48,"Velocity":47,"Duration":231249,"SoundDuration":231249,"Delta":164465024},{"NoteNumber":51,"Velocity":58,"Duration":225174,"SoundDuration":225174,"Delta":164927523},{"NoteNumber":48,"Velocity":49,"Duration":225174,"SoundDuration":225174,"Delta":164927523},{"NoteNumber":60,"Velocity":65,"Duration":150116,"SoundDuration":150116,"Delta":165077640},{"NoteNumber":58,"Velocity":56,"Duration":150116,"SoundDuration":150116,"Delta":165227756},{"NoteNumber":56,"Velocity":66,"Duration":73675,"SoundDuration":73675,"Delta":165377872},{"NoteNumber":51,"Velocity":58,"Duration":221026,"SoundDuration":221026,"Delta":165377872},{"NoteNumber":48,"Velocity":49,"Duration":221026,"SoundDuration":221026,"Delta":165377872},{"NoteNumber":56,"Velocity":58,"Duration":73675,"SoundDuration":73675,"Delta":165525224},{"NoteNumber":56,"Velocity":58,"Duration":84745,"SoundDuration":84745,"Delta":165672575},{"NoteNumber":56,"Velocity":68,"Duration":1084009,"SoundDuration":1084009,"Delta":165842067},{"NoteNumber":46,"Velocity":47,"Duration":233046,"SoundDuration":233046,"Delta":166308159},{"NoteNumber":53,"Velocity":56,"Duration":233046,"SoundDuration":233046,"Delta":166308159},{"NoteNumber":50,"Velocity":47,"Duration":233046,"SoundDuration":233046,"Delta":166308159},{"NoteNumber":46,"Velocity":49,"Duration":227738,"SoundDuration":227738,"Delta":166774251},{"NoteNumber":53,"Velocity":58,"Duration":227738,"SoundDuration":227738,"Delta":166774251},{"NoteNumber":50,"Velocity":49,"Duration":227738,"SoundDuration":227738,"Delta":166774251},{"NoteNumber":65,"Velocity":65,"Duration":151825,"SoundDuration":151825,"Delta":166926076},{"NoteNumber":62,"Velocity":56,"Duration":151825,"SoundDuration":151825,"Delta":167077902},{"NoteNumber":56,"Velocity":66,"Duration":74222,"SoundDuration":74222,"Delta":167229728},{"NoteNumber":46,"Velocity":49,"Duration":222667,"SoundDuration":222667,"Delta":167229728},{"NoteNumber":53,"Velocity":58,"Duration":222667,"SoundDuration":222667,"Delta":167229728},{"NoteNumber":50,"Velocity":49,"Duration":222667,"SoundDuration":222667,"Delta":167229728},{"NoteNumber":56,"Velocity":58,"Duration":74222,"SoundDuration":74222,"Delta":167378173},{"NoteNumber":56,"Velocity":58,"Duration":84388,"SoundDuration":84388,"Delta":167526618},{"NoteNumber":55,"Velocity":60,"Duration":151251,"SoundDuration":151251,"Delta":167695394},{"NoteNumber":51,"Velocity":56,"Duration":453755,"SoundDuration":453755,"Delta":167695394},{"NoteNumber":58,"Velocity":49,"Duration":151251,"SoundDuration":151251,"Delta":167846646},{"NoteNumber":63,"Velocity":49,"Duration":75625,"SoundDuration":75625,"Delta":167997897},{"NoteNumber":63,"Velocity":56,"Duration":72870,"SoundDuration":72870,"Delta":168149149},{"NoteNumber":63,"Velocity":49,"Duration":72870,"SoundDuration":72870,"Delta":168294890},{"NoteNumber":63,"Velocity":49,"Duration":82829,"SoundDuration":82829,"Delta":168440630},{"NoteNumber":62,"Velocity":60,"Duration":151251,"SoundDuration":151251,"Delta":168606289},{"NoteNumber":46,"Velocity":47,"Duration":453755,"SoundDuration":453755,"Delta":168606289},{"NoteNumber":53,"Velocity":56,"Duration":453755,"SoundDuration":453755,"Delta":168606289},{"NoteNumber":65,"Velocity":49,"Duration":151251,"SoundDuration":151251,"Delta":168757541},{"NoteNumber":68,"Velocity":49,"Duration":75625,"SoundDuration":75625,"Delta":168908793},{"NoteNumber":68,"Velocity":56,"Duration":72870,"SoundDuration":72870,"Delta":169060044},{"NoteNumber":68,"Velocity":49,"Duration":72870,"SoundDuration":72870,"Delta":169205785},{"NoteNumber":68,"Velocity":49,"Duration":82829,"SoundDuration":82829,"Delta":169351526},{"NoteNumber":67,"Velocity":69,"Duration":152404,"SoundDuration":152404,"Delta":169517185},{"NoteNumber":51,"Velocity":52,"Duration":456055,"SoundDuration":456055,"Delta":169517185},{"NoteNumber":55,"Velocity":56,"Duration":456055,"SoundDuration":456055,"Delta":169517185},{"NoteNumber":70,"Velocity":56,"Duration":151825,"SoundDuration":151825,"Delta":169669589},{"NoteNumber":75,"Velocity":56,"Duration":75912,"SoundDuration":75912,"Delta":169821415},{"NoteNumber":75,"Velocity":63,"Duration":73136,"SoundDuration":73136,"Delta":169973240},{"NoteNumber":75,"Velocity":56,"Duration":73136,"SoundDuration":73136,"Delta":170119514},{"NoteNumber":75,"Velocity":56,"Duration":82829,"SoundDuration":82829,"Delta":170265788},{"NoteNumber":74,"Velocity":69,"Duration":151825,"SoundDuration":151825,"Delta":170431447},{"NoteNumber":46,"Velocity":47,"Duration":456634,"SoundDuration":456634,"Delta":170431447},{"NoteNumber":53,"Velocity":56,"Duration":456634,"SoundDuration":456634,"Delta":170431447},{"NoteNumber":77,"Velocity":56,"Duration":152404,"SoundDuration":152404,"Delta":170583272},{"NoteNumber":80,"Velocity":56,"Duration":76202,"SoundDuration":76202,"Delta":170735677},{"NoteNumber":80,"Velocity":69,"Duration":73136,"SoundDuration":73136,"Delta":170888081},{"NoteNumber":80,"Velocity":56,"Duration":73136,"SoundDuration":73136,"Delta":171034355},{"NoteNumber":80,"Velocity":56,"Duration":82829,"SoundDuration":82829,"Delta":171180628},{"NoteNumber":79,"Velocity":79,"Duration":157195,"SoundDuration":157195,"Delta":171346287},{"NoteNumber":51,"Velocity":57,"Duration":464752,"SoundDuration":464752,"Delta":171346287},{"NoteNumber":55,"Velocity":61,"Duration":464752,"SoundDuration":464752,"Delta":171346287},{"NoteNumber":80,"Velocity":70,"Duration":156495,"SoundDuration":156495,"Delta":171503483},{"NoteNumber":82,"Velocity":60,"Duration":151061,"SoundDuration":151061,"Delta":171659978},{"NoteNumber":80,"Velocity":69,"Duration":151624,"SoundDuration":151624,"Delta":171811039},{"NoteNumber":79,"Velocity":66,"Duration":152684,"SoundDuration":152684,"Delta":171962664},{"NoteNumber":77,"Velocity":66,"Duration":153626,"SoundDuration":153626,"Delta":172115349},{"NoteNumber":75,"Velocity":69,"Duration":154554,"SoundDuration":154554,"Delta":172268975},{"NoteNumber":74,"Velocity":62,"Duration":155655,"SoundDuration":155655,"Delta":172423530},{"NoteNumber":72,"Velocity":60,"Duration":156749,"SoundDuration":156749,"Delta":172579185},{"NoteNumber":70,"Velocity":69,"Duration":157598,"SoundDuration":157598,"Delta":172735935},{"NoteNumber":68,"Velocity":62,"Duration":158744,"SoundDuration":158744,"Delta":172893534},{"NoteNumber":67,"Velocity":62,"Duration":159882,"SoundDuration":159882,"Delta":173052278},{"NoteNumber":65,"Velocity":68,"Duration":724329,"SoundDuration":724329,"Delta":173212161},{"NoteNumber":56,"Velocity":49,"Duration":482975,"SoundDuration":482975,"Delta":173695003},{"NoteNumber":44,"Velocity":40,"Duration":482975,"SoundDuration":482975,"Delta":173695003},{"NoteNumber":72,"Velocity":52,"Duration":241487,"SoundDuration":241487,"Delta":173936490},{"NoteNumber":63,"Velocity":59,"Duration":482974,"SoundDuration":482974,"Delta":174177978},{"NoteNumber":46,"Velocity":43,"Duration":482974,"SoundDuration":482974,"Delta":174177978},{"NoteNumber":55,"Velocity":52,"Duration":482974,"SoundDuration":482974,"Delta":174177978},{"NoteNumber":62,"Velocity":52,"Duration":499043,"SoundDuration":499043,"Delta":174660953},{"NoteNumber":53,"Velocity":49,"Duration":499043,"SoundDuration":499043,"Delta":174660953},{"NoteNumber":46,"Velocity":40,"Duration":499043,"SoundDuration":499043,"Delta":174660953},{"NoteNumber":75,"Velocity":81,"Duration":1336369,"SoundDuration":1336369,"Delta":175159996},{"NoteNumber":63,"Velocity":58,"Duration":157195,"SoundDuration":157195,"Delta":175159996},{"NoteNumber":67,"Velocity":62,"Duration":147320,"SoundDuration":147320,"Delta":175317191},{"NoteNumber":65,"Velocity":51,"Duration":145963,"SoundDuration":145963,"Delta":175464512},{"NoteNumber":63,"Velocity":58,"Duration":146431,"SoundDuration":146431,"Delta":175610476},{"NoteNumber":62,"Velocity":56,"Duration":146901,"SoundDuration":146901,"Delta":175756907},{"NoteNumber":60,"Velocity":56,"Duration":147375,"SoundDuration":147375,"Delta":175903809},{"NoteNumber":58,"Velocity":58,"Duration":147896,"SoundDuration":147896,"Delta":176051184},{"NoteNumber":56,"Velocity":52,"Duration":148400,"SoundDuration":148400,"Delta":176199081},{"NoteNumber":55,"Velocity":51,"Duration":148883,"SoundDuration":148883,"Delta":176347481},{"NoteNumber":77,"Velocity":73,"Duration":470134,"SoundDuration":470134,"Delta":176496365},{"NoteNumber":74,"Velocity":62,"Duration":470134,"SoundDuration":470134,"Delta":176496365},{"NoteNumber":53,"Velocity":58,"Duration":151508,"SoundDuration":151508,"Delta":176496365},{"NoteNumber":51,"Velocity":52,"Duration":158744,"SoundDuration":158744,"Delta":176647873},{"NoteNumber":50,"Velocity":52,"Duration":159882,"SoundDuration":159882,"Delta":176806618},{"NoteNumber":79,"Velocity":81,"Duration":1339639,"SoundDuration":1339639,"Delta":176966500},{"NoteNumber":75,"Velocity":68,"Duration":1339639,"SoundDuration":1339639,"Delta":176966500},{"NoteNumber":48,"Velocity":58,"Duration":157195,"SoundDuration":157195,"Delta":176966500},{"NoteNumber":63,"Velocity":62,"Duration":149012,"SoundDuration":149012,"Delta":177123696},{"NoteNumber":62,"Velocity":51,"Duration":146495,"SoundDuration":146495,"Delta":177272708},{"NoteNumber":60,"Velocity":58,"Duration":146632,"SoundDuration":146632,"Delta":177419204},{"NoteNumber":58,"Velocity":56,"Duration":147104,"SoundDuration":147104,"Delta":177565837},{"NoteNumber":56,"Velocity":56,"Duration":147579,"SoundDuration":147579,"Delta":177712942},{"NoteNumber":55,"Velocity":58,"Duration":148057,"SoundDuration":148057,"Delta":177860521},{"NoteNumber":53,"Velocity":52,"Duration":148538,"SoundDuration":148538,"Delta":178008579},{"NoteNumber":51,"Velocity":51,"Duration":149022,"SoundDuration":149022,"Delta":178157117},{"NoteNumber":80,"Velocity":73,"Duration":468605,"SoundDuration":468605,"Delta":178306139},{"NoteNumber":77,"Velocity":62,"Duration":468605,"SoundDuration":468605,"Delta":178306139},{"NoteNumber":50,"Velocity":58,"Duration":149978,"SoundDuration":149978,"Delta":178306139},{"NoteNumber":48,"Velocity":52,"Duration":158744,"SoundDuration":158744,"Delta":178456118},{"NoteNumber":46,"Velocity":52,"Duration":159882,"SoundDuration":159882,"Delta":178614862},{"NoteNumber":79,"Velocity":62,"Duration":155363,"SoundDuration":155363,"Delta":178774745},{"NoteNumber":82,"Velocity":73,"Duration":155363,"SoundDuration":155363,"Delta":178774745},{"NoteNumber":44,"Velocity":58,"Duration":919173,"SoundDuration":919173,"Delta":178774745},{"NoteNumber":80,"Velocity":65,"Duration":154166,"SoundDuration":154166,"Delta":178930109},{"NoteNumber":77,"Velocity":55,"Duration":154166,"SoundDuration":154166,"Delta":178930109},{"NoteNumber":82,"Velocity":65,"Duration":154166,"SoundDuration":154166,"Delta":179084275},{"NoteNumber":79,"Velocity":55,"Duration":154166,"SoundDuration":154166,"Delta":179084275},{"NoteNumber":80,"Velocity":61,"Duration":151825,"SoundDuration":151825,"Delta":179238442},{"NoteNumber":84,"Velocity":72,"Duration":151825,"SoundDuration":151825,"Delta":179238442},{"NoteNumber":79,"Velocity":54,"Duration":151825,"SoundDuration":151825,"Delta":179390267},{"NoteNumber":82,"Velocity":64,"Duration":151825,"SoundDuration":151825,"Delta":179390267},{"NoteNumber":77,"Velocity":54,"Duration":151825,"SoundDuration":151825,"Delta":179542093},{"NoteNumber":80,"Velocity":64,"Duration":151825,"SoundDuration":151825,"Delta":179542093},{"NoteNumber":79,"Velocity":70,"Duration":473446,"SoundDuration":473446,"Delta":179693919},{"NoteNumber":75,"Velocity":59,"Duration":473446,"SoundDuration":473446,"Delta":179693919},{"NoteNumber":46,"Velocity":51,"Duration":473446,"SoundDuration":473446,"Delta":179693919},{"NoteNumber":77,"Velocity":65,"Duration":492894,"SoundDuration":492894,"Delta":180167366},{"NoteNumber":74,"Velocity":55,"Duration":492894,"SoundDuration":492894,"Delta":180167366},{"NoteNumber":46,"Velocity":50,"Duration":492894,"SoundDuration":492894,"Delta":180167366},{"NoteNumber":75,"Velocity":81,"Duration":1344492,"SoundDuration":1344492,"Delta":180660260},{"NoteNumber":63,"Velocity":50,"Duration":157195,"SoundDuration":157195,"Delta":180660260},{"NoteNumber":67,"Velocity":53,"Duration":148081,"SoundDuration":148081,"Delta":180817455},{"NoteNumber":65,"Velocity":47,"Duration":145963,"SoundDuration":145963,"Delta":180965537},{"NoteNumber":63,"Velocity":54,"Duration":146632,"SoundDuration":146632,"Delta":181111501},{"NoteNumber":62,"Velocity":51,"Duration":147399,"SoundDuration":147399,"Delta":181258133},{"NoteNumber":60,"Velocity":51,"Duration":148126,"SoundDuration":148126,"Delta":181405533},{"NoteNumber":58,"Velocity":58,"Duration":148814,"SoundDuration":148814,"Delta":181553659},{"NoteNumber":56,"Velocity":52,"Duration":149604,"SoundDuration":149604,"Delta":181702474},{"NoteNumber":55,"Velocity":51,"Duration":152673,"SoundDuration":152673,"Delta":181852078},{"NoteNumber":77,"Velocity":73,"Duration":476225,"SoundDuration":476225,"Delta":182004752},{"NoteNumber":74,"Velocity":62,"Duration":476225,"SoundDuration":476225,"Delta":182004752},{"NoteNumber":53,"Velocity":58,"Duration":157598,"SoundDuration":157598,"Delta":182004752},{"NoteNumber":51,"Velocity":52,"Duration":158744,"SoundDuration":158744,"Delta":182162351},{"NoteNumber":50,"Velocity":52,"Duration":159882,"SoundDuration":159882,"Delta":182321095},{"NoteNumber":79,"Velocity":81,"Duration":1337133,"SoundDuration":1337133,"Delta":182480978},{"NoteNumber":75,"Velocity":68,"Duration":1337133,"SoundDuration":1337133,"Delta":182480978},{"NoteNumber":48,"Velocity":58,"Duration":157195,"SoundDuration":157195,"Delta":182480978},{"NoteNumber":63,"Velocity":62,"Duration":148251,"SoundDuration":148251,"Delta":182638173},{"NoteNumber":62,"Velocity":51,"Duration":144906,"SoundDuration":144906,"Delta":182786425},{"NoteNumber":60,"Velocity":58,"Duration":145721,"SoundDuration":145721,"Delta":182931331},{"NoteNumber":58,"Velocity":56,"Duration":146565,"SoundDuration":146565,"Delta":183077052},{"NoteNumber":56,"Velocity":56,"Duration":147365,"SoundDuration":147365,"Delta":183223618},{"NoteNumber":55,"Velocity":58,"Duration":148160,"SoundDuration":148160,"Delta":183370984},{"NoteNumber":53,"Velocity":52,"Duration":149047,"SoundDuration":149047,"Delta":183519144},{"NoteNumber":51,"Velocity":51,"Duration":149920,"SoundDuration":149920,"Delta":183668191},{"NoteNumber":80,"Velocity":73,"Duration":474691,"SoundDuration":474691,"Delta":183818111},{"NoteNumber":77,"Velocity":62,"Duration":474691,"SoundDuration":474691,"Delta":183818111},{"NoteNumber":50,"Velocity":58,"Duration":156064,"SoundDuration":156064,"Delta":183818111},{"NoteNumber":48,"Velocity":52,"Duration":158744,"SoundDuration":158744,"Delta":183974176},{"NoteNumber":46,"Velocity":52,"Duration":159882,"SoundDuration":159882,"Delta":184132920},{"NoteNumber":79,"Velocity":62,"Duration":155363,"SoundDuration":155363,"Delta":184292803},{"NoteNumber":82,"Velocity":73,"Duration":155363,"SoundDuration":155363,"Delta":184292803},{"NoteNumber":44,"Velocity":58,"Duration":919173,"SoundDuration":919173,"Delta":184292803},{"NoteNumber":80,"Velocity":65,"Duration":154166,"SoundDuration":154166,"Delta":184448167},{"NoteNumber":77,"Velocity":55,"Duration":154166,"SoundDuration":154166,"Delta":184448167},{"NoteNumber":82,"Velocity":65,"Duration":154166,"SoundDuration":154166,"Delta":184602333},{"NoteNumber":79,"Velocity":55,"Duration":154166,"SoundDuration":154166,"Delta":184602333},{"NoteNumber":80,"Velocity":61,"Duration":151825,"SoundDuration":151825,"Delta":184756499},{"NoteNumber":84,"Velocity":72,"Duration":151825,"SoundDuration":151825,"Delta":184756499},{"NoteNumber":79,"Velocity":54,"Duration":151825,"SoundDuration":151825,"Delta":184908325},{"NoteNumber":82,"Velocity":64,"Duration":151825,"SoundDuration":151825,"Delta":184908325},{"NoteNumber":77,"Velocity":54,"Duration":151825,"SoundDuration":151825,"Delta":185060151},{"NoteNumber":80,"Velocity":64,"Duration":151825,"SoundDuration":151825,"Delta":185060151},{"NoteNumber":79,"Velocity":70,"Duration":473446,"SoundDuration":473446,"Delta":185211976},{"NoteNumber":75,"Velocity":59,"Duration":473446,"SoundDuration":473446,"Delta":185211976},{"NoteNumber":46,"Velocity":51,"Duration":473446,"SoundDuration":473446,"Delta":185211976},{"NoteNumber":77,"Velocity":65,"Duration":492894,"SoundDuration":492894,"Delta":185685423},{"NoteNumber":74,"Velocity":55,"Duration":492894,"SoundDuration":492894,"Delta":185685423},{"NoteNumber":46,"Velocity":50,"Duration":492894,"SoundDuration":492894,"Delta":185685423},{"NoteNumber":75,"Velocity":60,"Duration":1320111,"SoundDuration":1320111,"Delta":186178317},{"NoteNumber":63,"Velocity":36,"Duration":155363,"SoundDuration":155363,"Delta":186178317},{"NoteNumber":67,"Velocity":31,"Duration":155364,"SoundDuration":155364,"Delta":186333681},{"NoteNumber":70,"Velocity":31,"Duration":155363,"SoundDuration":155363,"Delta":186489045},{"NoteNumber":63,"Velocity":36,"Duration":151825,"SoundDuration":151825,"Delta":186644409},{"NoteNumber":67,"Velocity":32,"Duration":151825,"SoundDuration":151825,"Delta":186796235},{"NoteNumber":70,"Velocity":32,"Duration":151825,"SoundDuration":151825,"Delta":186948061},{"NoteNumber":63,"Velocity":36,"Duration":151825,"SoundDuration":151825,"Delta":187099886},{"NoteNumber":67,"Velocity":31,"Duration":151825,"SoundDuration":151825,"Delta":187251712},{"NoteNumber":70,"Velocity":31,"Duration":151825,"SoundDuration":151825,"Delta":187403538},{"NoteNumber":79,"Velocity":68,"Duration":56934,"SoundDuration":56934,"Delta":187498429},{"NoteNumber":77,"Velocity":54,"Duration":473446,"SoundDuration":473446,"Delta":187555363},{"NoteNumber":63,"Velocity":37,"Duration":157815,"SoundDuration":157815,"Delta":187555363},{"NoteNumber":68,"Velocity":32,"Duration":157815,"SoundDuration":157815,"Delta":187713179},{"NoteNumber":74,"Velocity":32,"Duration":157815,"SoundDuration":157815,"Delta":187870995},{"NoteNumber":75,"Velocity":60,"Duration":466092,"SoundDuration":466092,"Delta":188028810},{"NoteNumber":63,"Velocity":36,"Duration":155363,"SoundDuration":155363,"Delta":188028810},{"NoteNumber":67,"Velocity":31,"Duration":155364,"SoundDuration":155364,"Delta":188184174},{"NoteNumber":70,"Velocity":30,"Duration":155363,"SoundDuration":155363,"Delta":188339538},{"NoteNumber":75,"Velocity":54,"Duration":455477,"SoundDuration":455477,"Delta":188494902},{"NoteNumber":63,"Velocity":35,"Duration":151825,"SoundDuration":151825,"Delta":188494902},{"NoteNumber":67,"Velocity":31,"Duration":151825,"SoundDuration":151825,"Delta":188646728},{"NoteNumber":70,"Velocity":31,"Duration":151825,"SoundDuration":151825,"Delta":188798554},{"NoteNumber":75,"Velocity":54,"Duration":455477,"SoundDuration":455477,"Delta":188950379},{"NoteNumber":63,"Velocity":35,"Duration":151825,"SoundDuration":151825,"Delta":188950379},{"NoteNumber":67,"Velocity":30,"Duration":151825,"SoundDuration":151825,"Delta":189102205},{"NoteNumber":70,"Velocity":30,"Duration":151825,"SoundDuration":151825,"Delta":189254031},{"NoteNumber":80,"Velocity":58,"Duration":118361,"SoundDuration":118361,"Delta":189405856},{"NoteNumber":63,"Velocity":36,"Duration":157815,"SoundDuration":157815,"Delta":189405856},{"NoteNumber":77,"Velocity":52,"Duration":355085,"SoundDuration":355085,"Delta":189524218},{"NoteNumber":68,"Velocity":31,"Duration":157815,"SoundDuration":157815,"Delta":189563672},{"NoteNumber":74,"Velocity":31,"Duration":157815,"SoundDuration":157815,"Delta":189721488},{"NoteNumber":82,"Velocity":58,"Duration":466092,"SoundDuration":466092,"Delta":189879303},{"NoteNumber":63,"Velocity":34,"Duration":155363,"SoundDuration":155363,"Delta":189879303},{"NoteNumber":67,"Velocity":30,"Duration":155364,"SoundDuration":155364,"Delta":190034667},{"NoteNumber":70,"Velocity":30,"Duration":155363,"SoundDuration":155363,"Delta":190190031},{"NoteNumber":82,"Velocity":53,"Duration":455477,"SoundDuration":455477,"Delta":190345395},{"NoteNumber":63,"Velocity":34,"Duration":151825,"SoundDuration":151825,"Delta":190345395},{"NoteNumber":67,"Velocity":31,"Duration":151825,"SoundDuration":151825,"Delta":190497221},{"NoteNumber":70,"Velocity":30,"Duration":151825,"SoundDuration":151825,"Delta":190649047},{"NoteNumber":82,"Velocity":52,"Duration":455477,"SoundDuration":455477,"Delta":190800872},{"NoteNumber":63,"Velocity":34,"Duration":151825,"SoundDuration":151825,"Delta":190800872},{"NoteNumber":67,"Velocity":29,"Duration":151825,"SoundDuration":151825,"Delta":190952698},{"NoteNumber":70,"Velocity":29,"Duration":151825,"SoundDuration":151825,"Delta":191104524},{"NoteNumber":80,"Velocity":57,"Duration":118361,"SoundDuration":118361,"Delta":191256349},{"NoteNumber":63,"Velocity":35,"Duration":157815,"SoundDuration":157815,"Delta":191256349},{"NoteNumber":77,"Velocity":51,"Duration":355085,"SoundDuration":355085,"Delta":191374711},{"NoteNumber":68,"Velocity":30,"Duration":157815,"SoundDuration":157815,"Delta":191414165},{"NoteNumber":74,"Velocity":30,"Duration":157815,"SoundDuration":157815,"Delta":191571981},{"NoteNumber":75,"Velocity":57,"Duration":1320111,"SoundDuration":1320111,"Delta":191729796},{"NoteNumber":63,"Velocity":34,"Duration":155363,"SoundDuration":155363,"Delta":191729796},{"NoteNumber":67,"Velocity":29,"Duration":155364,"SoundDuration":155364,"Delta":191885160},{"NoteNumber":70,"Velocity":29,"Duration":155363,"SoundDuration":155363,"Delta":192040524},{"NoteNumber":63,"Velocity":34,"Duration":151825,"SoundDuration":151825,"Delta":192195888},{"NoteNumber":67,"Velocity":30,"Duration":151825,"SoundDuration":151825,"Delta":192347714},{"NoteNumber":70,"Velocity":30,"Duration":151825,"SoundDuration":151825,"Delta":192499540},{"NoteNumber":63,"Velocity":33,"Duration":151825,"SoundDuration":151825,"Delta":192651365},{"NoteNumber":67,"Velocity":29,"Duration":151825,"SoundDuration":151825,"Delta":192803191},{"NoteNumber":70,"Velocity":29,"Duration":151825,"SoundDuration":151825,"Delta":192955017},{"NoteNumber":79,"Velocity":60,"Duration":56934,"SoundDuration":56934,"Delta":193049908},{"NoteNumber":77,"Velocity":50,"Duration":473446,"SoundDuration":473446,"Delta":193106842},{"NoteNumber":63,"Velocity":34,"Duration":157815,"SoundDuration":157815,"Delta":193106842},{"NoteNumber":68,"Velocity":29,"Duration":157815,"SoundDuration":157815,"Delta":193264658},{"NoteNumber":74,"Velocity":29,"Duration":157815,"SoundDuration":157815,"Delta":193422474},{"NoteNumber":75,"Velocity":55,"Duration":466092,"SoundDuration":466092,"Delta":193580289},{"NoteNumber":63,"Velocity":33,"Duration":155363,"SoundDuration":155363,"Delta":193580289},{"NoteNumber":67,"Velocity":28,"Duration":155364,"SoundDuration":155364,"Delta":193735653},{"NoteNumber":70,"Velocity":28,"Duration":155363,"SoundDuration":155363,"Delta":193891017},{"NoteNumber":75,"Velocity":50,"Duration":455477,"SoundDuration":455477,"Delta":194046381},{"NoteNumber":63,"Velocity":33,"Duration":151825,"SoundDuration":151825,"Delta":194046381},{"NoteNumber":67,"Velocity":29,"Duration":151825,"SoundDuration":151825,"Delta":194198207},{"NoteNumber":70,"Velocity":29,"Duration":151825,"SoundDuration":151825,"Delta":194350033},{"NoteNumber":75,"Velocity":50,"Duration":455477,"SoundDuration":455477,"Delta":194501858},{"NoteNumber":63,"Velocity":33,"Duration":151825,"SoundDuration":151825,"Delta":194501858},{"NoteNumber":67,"Velocity":28,"Duration":151825,"SoundDuration":151825,"Delta":194653684},{"NoteNumber":70,"Velocity":28,"Duration":151825,"SoundDuration":151825,"Delta":194805510},{"NoteNumber":80,"Velocity":54,"Duration":118361,"SoundDuration":118361,"Delta":194957335},{"NoteNumber":63,"Velocity":33,"Duration":157815,"SoundDuration":157815,"Delta":194957335},{"NoteNumber":77,"Velocity":49,"Duration":355085,"SoundDuration":355085,"Delta":195075697},{"NoteNumber":68,"Velocity":29,"Duration":157815,"SoundDuration":157815,"Delta":195115151},{"NoteNumber":74,"Velocity":29,"Duration":157815,"SoundDuration":157815,"Delta":195272967},{"NoteNumber":82,"Velocity":54,"Duration":466092,"SoundDuration":466092,"Delta":195430782},{"NoteNumber":63,"Velocity":32,"Duration":155363,"SoundDuration":155363,"Delta":195430782},{"NoteNumber":67,"Velocity":27,"Duration":155364,"SoundDuration":155364,"Delta":195586146},{"NoteNumber":70,"Velocity":27,"Duration":155363,"SoundDuration":155363,"Delta":195741510},{"NoteNumber":82,"Velocity":49,"Duration":455477,"SoundDuration":455477,"Delta":195896874},{"NoteNumber":63,"Velocity":32,"Duration":151825,"SoundDuration":151825,"Delta":195896874},{"NoteNumber":67,"Velocity":28,"Duration":151825,"SoundDuration":151825,"Delta":196048700},{"NoteNumber":70,"Velocity":28,"Duration":151825,"SoundDuration":151825,"Delta":196200526},{"NoteNumber":82,"Velocity":48,"Duration":455477,"SoundDuration":455477,"Delta":196352351},{"NoteNumber":63,"Velocity":32,"Duration":151825,"SoundDuration":151825,"Delta":196352351},{"NoteNumber":67,"Velocity":27,"Duration":151825,"SoundDuration":151825,"Delta":196504177},{"NoteNumber":70,"Velocity":27,"Duration":151825,"SoundDuration":151825,"Delta":196656003},{"NoteNumber":80,"Velocity":53,"Duration":118361,"SoundDuration":118361,"Delta":196807828},{"NoteNumber":63,"Velocity":32,"Duration":157815,"SoundDuration":157815,"Delta":196807828},{"NoteNumber":77,"Velocity":48,"Duration":355085,"SoundDuration":355085,"Delta":196926190},{"NoteNumber":68,"Velocity":28,"Duration":157815,"SoundDuration":157815,"Delta":196965644},{"NoteNumber":74,"Velocity":28,"Duration":157815,"SoundDuration":157815,"Delta":197123460},{"NoteNumber":75,"Velocity":52,"Duration":1328861,"SoundDuration":1328861,"Delta":197281275},{"NoteNumber":63,"Velocity":31,"Duration":157195,"SoundDuration":157195,"Delta":197281275},{"NoteNumber":67,"Velocity":26,"Duration":157195,"SoundDuration":157195,"Delta":197438471},{"NoteNumber":70,"Velocity":26,"Duration":157195,"SoundDuration":157195,"Delta":197595667},{"NoteNumber":63,"Velocity":29,"Duration":152404,"SoundDuration":152404,"Delta":197752862},{"NoteNumber":67,"Velocity":26,"Duration":152404,"SoundDuration":152404,"Delta":197905267},{"NoteNumber":70,"Velocity":25,"Duration":152404,"SoundDuration":152404,"Delta":198057671},{"NoteNumber":63,"Velocity":27,"Duration":152404,"SoundDuration":152404,"Delta":198210075},{"NoteNumber":67,"Velocity":23,"Duration":152404,"SoundDuration":152404,"Delta":198362480},{"NoteNumber":70,"Velocity":22,"Duration":152404,"SoundDuration":152404,"Delta":198514884},{"NoteNumber":79,"Velocity":50,"Duration":57151,"SoundDuration":57151,"Delta":198610137},{"NoteNumber":77,"Velocity":41,"Duration":492894,"SoundDuration":492894,"Delta":198667288},{"NoteNumber":63,"Velocity":26,"Duration":164298,"SoundDuration":164298,"Delta":198667288},{"NoteNumber":68,"Velocity":22,"Duration":164298,"SoundDuration":164298,"Delta":198831586},{"NoteNumber":74,"Velocity":22,"Duration":164298,"SoundDuration":164298,"Delta":198995884},{"NoteNumber":75,"Velocity":48,"Duration":479117,"SoundDuration":479117,"Delta":199160182},{"NoteNumber":67,"Velocity":30,"Duration":479117,"SoundDuration":479117,"Delta":199160182},{"NoteNumber":63,"Velocity":30,"Duration":479117,"SoundDuration":479117,"Delta":199160182},{"NoteNumber":79,"Velocity":36,"Duration":479117,"SoundDuration":479117,"Delta":199639300},{"NoteNumber":82,"Velocity":43,"Duration":479117,"SoundDuration":479117,"Delta":199639300},{"NoteNumber":79,"Velocity":36,"Duration":509640,"SoundDuration":509640,"Delta":200118418},{"NoteNumber":82,"Velocity":43,"Duration":509640,"SoundDuration":509640,"Delta":200118418},{"NoteNumber":39,"Velocity":24,"Duration":509641,"SoundDuration":509641,"Delta":200628059},{"NoteNumber":43,"Velocity":29,"Duration":509641,"SoundDuration":509641,"Delta":200628059},{"NoteNumber":39,"Velocity":24,"Duration":509640,"SoundDuration":509640,"Delta":201137700},{"NoteNumber":43,"Velocity":29,"Duration":509640,"SoundDuration":509640,"Delta":201137700},{"NoteNumber":58,"Velocity":72,"Duration":344220,"SoundDuration":344220,"Delta":202666623},{"NoteNumber":55,"Velocity":66,"Duration":114740,"SoundDuration":114740,"Delta":203010844},{"NoteNumber":63,"Velocity":72,"Duration":344220,"SoundDuration":344220,"Delta":203125584},{"NoteNumber":39,"Velocity":49,"Duration":458961,"SoundDuration":458961,"Delta":203125584},{"NoteNumber":51,"Velocity":58,"Duration":458961,"SoundDuration":458961,"Delta":203125584},{"NoteNumber":63,"Velocity":65,"Duration":114740,"SoundDuration":114740,"Delta":203469805},{"NoteNumber":63,"Velocity":72,"Duration":57370,"SoundDuration":57370,"Delta":203584545},{"NoteNumber":65,"Velocity":62,"Duration":57370,"SoundDuration":57370,"Delta":203641916},{"NoteNumber":63,"Velocity":72,"Duration":57370,"SoundDuration":57370,"Delta":203699286},{"NoteNumber":65,"Velocity":58,"Duration":57370,"SoundDuration":57370,"Delta":203756656},{"NoteNumber":63,"Velocity":69,"Duration":38246,"SoundDuration":38246,"Delta":203814026},{"NoteNumber":65,"Velocity":59,"Duration":38246,"SoundDuration":38246,"Delta":203852273},{"NoteNumber":63,"Velocity":69,"Duration":38246,"SoundDuration":38246,"Delta":203890519},{"NoteNumber":62,"Velocity":65,"Duration":57370,"SoundDuration":57370,"Delta":203928766},{"NoteNumber":63,"Velocity":58,"Duration":57370,"SoundDuration":57370,"Delta":203986136},{"NoteNumber":65,"Velocity":72,"Duration":458961,"SoundDuration":458961,"Delta":204043506},{"NoteNumber":38,"Velocity":49,"Duration":458961,"SoundDuration":458961,"Delta":204043506},{"NoteNumber":50,"Velocity":58,"Duration":458961,"SoundDuration":458961,"Delta":204043506},{"NoteNumber":58,"Velocity":72,"Duration":344220,"SoundDuration":344220,"Delta":204502467},{"NoteNumber":70,"Velocity":68,"Duration":121467,"SoundDuration":121467,"Delta":204846688},{"NoteNumber":68,"Velocity":82,"Duration":913659,"SoundDuration":913659,"Delta":204968155},{"NoteNumber":39,"Velocity":47,"Duration":456829,"SoundDuration":456829,"Delta":205424985},{"NoteNumber":67,"Velocity":72,"Duration":171311,"SoundDuration":171311,"Delta":205881815},{"NoteNumber":51,"Velocity":58,"Duration":171311,"SoundDuration":171311,"Delta":205881815},{"NoteNumber":63,"Velocity":49,"Duration":342622,"SoundDuration":342622,"Delta":206338645},{"NoteNumber":72,"Velocity":44,"Duration":119942,"SoundDuration":119942,"Delta":206681268},{"NoteNumber":70,"Velocity":55,"Duration":913659,"SoundDuration":913659,"Delta":206801210},{"NoteNumber":53,"Velocity":31,"Duration":456829,"SoundDuration":456829,"Delta":207258040},{"NoteNumber":68,"Velocity":49,"Duration":171311,"SoundDuration":171311,"Delta":207714870},{"NoteNumber":50,"Velocity":39,"Duration":171311,"SoundDuration":171311,"Delta":207714870},{"NoteNumber":58,"Velocity":72,"Duration":342622,"SoundDuration":342622,"Delta":208171700},{"NoteNumber":70,"Velocity":68,"Duration":114207,"SoundDuration":114207,"Delta":208514323},{"NoteNumber":68,"Velocity":82,"Duration":913660,"SoundDuration":913660,"Delta":208628530},{"NoteNumber":51,"Velocity":47,"Duration":456829,"SoundDuration":456829,"Delta":209085360},{"NoteNumber":67,"Velocity":72,"Duration":175507,"SoundDuration":175507,"Delta":209542190},{"NoteNumber":39,"Velocity":58,"Duration":175507,"SoundDuration":175507,"Delta":209542190},{"NoteNumber":75,"Velocity":81,"Duration":341245,"SoundDuration":341245,"Delta":210010209},{"NoteNumber":43,"Velocity":52,"Duration":454993,"SoundDuration":454993,"Delta":210010209},{"NoteNumber":67,"Velocity":68,"Duration":113748,"SoundDuration":113748,"Delta":210351455},{"NoteNumber":65,"Velocity":79,"Duration":341245,"SoundDuration":341245,"Delta":210465203},{"NoteNumber":44,"Velocity":58,"Duration":454993,"SoundDuration":454993,"Delta":210465203},{"NoteNumber":65,"Velocity":65,"Duration":104269,"SoundDuration":104269,"Delta":210806449},{"NoteNumber":65,"Velocity":72,"Duration":56874,"SoundDuration":56874,"Delta":210920197},{"NoteNumber":67,"Velocity":62,"Duration":56874,"SoundDuration":56874,"Delta":210977072},{"NoteNumber":65,"Velocity":72,"Duration":56874,"SoundDuration":56874,"Delta":211033946},{"NoteNumber":67,"Velocity":58,"Duration":56874,"SoundDuration":56874,"Delta":211090820},{"NoteNumber":65,"Velocity":69,"Duration":37916,"SoundDuration":37916,"Delta":211147694},{"NoteNumber":67,"Velocity":59,"Duration":37916,"SoundDuration":37916,"Delta":211185611},{"NoteNumber":65,"Velocity":69,"Duration":37916,"SoundDuration":37916,"Delta":211223527},{"NoteNumber":64,"Velocity":65,"Duration":56874,"SoundDuration":56874,"Delta":211261443},{"NoteNumber":65,"Velocity":58,"Duration":56874,"SoundDuration":56874,"Delta":211318317},{"NoteNumber":68,"Velocity":78,"Duration":341245,"SoundDuration":341245,"Delta":211375191},{"NoteNumber":65,"Velocity":71,"Duration":113748,"SoundDuration":113748,"Delta":211716437},{"NoteNumber":62,"Velocity":79,"Duration":343983,"SoundDuration":343983,"Delta":211830185},{"NoteNumber":46,"Velocity":52,"Duration":465451,"SoundDuration":465451,"Delta":211830185},{"NoteNumber":58,"Velocity":72,"Duration":121467,"SoundDuration":121467,"Delta":212174169},{"NoteNumber":63,"Velocity":81,"Duration":341245,"SoundDuration":341245,"Delta":212295636},{"NoteNumber":51,"Velocity":47,"Duration":113748,"SoundDuration":113748,"Delta":212636882},{"NoteNumber":55,"Velocity":58,"Duration":341245,"SoundDuration":341245,"Delta":212750630},{"NoteNumber":58,"Velocity":52,"Duration":113748,"SoundDuration":113748,"Delta":213091876},{"NoteNumber":63,"Velocity":59,"Duration":454993,"SoundDuration":454993,"Delta":213205624},{"NoteNumber":67,"Velocity":56,"Duration":113748,"SoundDuration":113748,"Delta":213546870},{"NoteNumber":70,"Velocity":69,"Duration":341245,"SoundDuration":341245,"Delta":213660618},{"NoteNumber":75,"Velocity":62,"Duration":113748,"SoundDuration":113748,"Delta":214001864},{"NoteNumber":79,"Velocity":70,"Duration":334001,"SoundDuration":334001,"Delta":214115612},{"NoteNumber":70,"Velocity":56,"Duration":111333,"SoundDuration":111333,"Delta":214449614},{"NoteNumber":75,"Velocity":69,"Duration":334001,"SoundDuration":334001,"Delta":214560947},{"NoteNumber":79,"Velocity":62,"Duration":111333,"SoundDuration":111333,"Delta":214894949},{"NoteNumber":82,"Velocity":70,"Duration":334001,"SoundDuration":334001,"Delta":215006282},{"NoteNumber":75,"Velocity":63,"Duration":111333,"SoundDuration":111333,"Delta":215340284},{"NoteNumber":79,"Velocity":72,"Duration":334001,"SoundDuration":334001,"Delta":215451617},{"NoteNumber":82,"Velocity":69,"Duration":121723,"SoundDuration":121723,"Delta":215785619},{"NoteNumber":85,"Velocity":79,"Duration":906412,"SoundDuration":906412,"Delta":215907342},{"NoteNumber":68,"Velocity":47,"Duration":113011,"SoundDuration":113011,"Delta":216246377},{"NoteNumber":67,"Velocity":58,"Duration":339034,"SoundDuration":339034,"Delta":216359388},{"NoteNumber":65,"Velocity":52,"Duration":115331,"SoundDuration":115331,"Delta":216698423},{"NoteNumber":84,"Velocity":63,"Duration":58626,"SoundDuration":58626,"Delta":216813755},{"NoteNumber":64,"Velocity":59,"Duration":346675,"SoundDuration":346675,"Delta":216813755},{"NoteNumber":85,"Velocity":56,"Duration":58272,"SoundDuration":58272,"Delta":216872381},{"NoteNumber":84,"Velocity":64,"Duration":57946,"SoundDuration":57946,"Delta":216930654},{"NoteNumber":85,"Velocity":57,"Duration":57601,"SoundDuration":57601,"Delta":216988600},{"NoteNumber":84,"Velocity":60,"Duration":57282,"SoundDuration":57282,"Delta":217046202},{"NoteNumber":85,"Velocity":60,"Duration":56945,"SoundDuration":56945,"Delta":217103485},{"NoteNumber":84,"Velocity":65,"Duration":56634,"SoundDuration":56634,"Delta":217160430},{"NoteNumber":67,"Velocity":50,"Duration":112938,"SoundDuration":112938,"Delta":217160430},{"NoteNumber":85,"Velocity":62,"Duration":56304,"SoundDuration":56304,"Delta":217217064},{"NoteNumber":84,"Velocity":66,"Duration":74893,"SoundDuration":74893,"Delta":217273368},{"NoteNumber":60,"Velocity":57,"Duration":339216,"SoundDuration":339216,"Delta":217273368},{"NoteNumber":85,"Velocity":62,"Duration":75037,"SoundDuration":75037,"Delta":217348262},{"NoteNumber":84,"Velocity":62,"Duration":75437,"SoundDuration":75437,"Delta":217423299},{"NoteNumber":82,"Velocity":71,"Duration":228677,"SoundDuration":228677,"Delta":217498736},{"NoteNumber":64,"Velocity":52,"Duration":114829,"SoundDuration":114829,"Delta":217612584},{"NoteNumber":80,"Velocity":73,"Duration":453755,"SoundDuration":453755,"Delta":217727414},{"NoteNumber":65,"Velocity":46,"Duration":151251,"SoundDuration":151251,"Delta":217727414},{"NoteNumber":68,"Velocity":39,"Duration":151251,"SoundDuration":151251,"Delta":217878665},{"NoteNumber":72,"Velocity":39,"Duration":151251,"SoundDuration":151251,"Delta":218029917},{"NoteNumber":77,"Velocity":65,"Duration":448665,"SoundDuration":448665,"Delta":218181169},{"NoteNumber":65,"Velocity":46,"Duration":149554,"SoundDuration":149554,"Delta":218181169},{"NoteNumber":68,"Velocity":39,"Duration":149555,"SoundDuration":149555,"Delta":218330724},{"NoteNumber":72,"Velocity":41,"Duration":149554,"SoundDuration":149554,"Delta":218480279},{"NoteNumber":77,"Velocity":65,"Duration":445035,"SoundDuration":445035,"Delta":218629834},{"NoteNumber":65,"Velocity":46,"Duration":149879,"SoundDuration":149879,"Delta":218629834},{"NoteNumber":68,"Velocity":42,"Duration":148345,"SoundDuration":148345,"Delta":218779714},{"NoteNumber":72,"Velocity":42,"Duration":146810,"SoundDuration":146810,"Delta":218928059},{"NoteNumber":79,"Velocity":72,"Duration":464679,"SoundDuration":464679,"Delta":219074870},{"NoteNumber":64,"Velocity":46,"Duration":146810,"SoundDuration":146810,"Delta":219074870},{"NoteNumber":67,"Velocity":44,"Duration":146810,"SoundDuration":146810,"Delta":219221680},{"NoteNumber":72,"Velocity":44,"Duration":171057,"SoundDuration":171057,"Delta":219368491},{"NoteNumber":79,"Velocity":76,"Duration":469924,"SoundDuration":469924,"Delta":219539549},{"NoteNumber":65,"Velocity":46,"Duration":156641,"SoundDuration":156641,"Delta":219539549},{"NoteNumber":68,"Velocity":39,"Duration":156641,"SoundDuration":156641,"Delta":219696191},{"NoteNumber":72,"Velocity":39,"Duration":156641,"SoundDuration":156641,"Delta":219852832},{"NoteNumber":80,"Velocity":69,"Duration":456829,"SoundDuration":456829,"Delta":220009474},{"NoteNumber":65,"Velocity":46,"Duration":152276,"SoundDuration":152276,"Delta":220009474},{"NoteNumber":68,"Velocity":39,"Duration":152276,"SoundDuration":152276,"Delta":220161751},{"NoteNumber":72,"Velocity":31,"Duration":152276,"SoundDuration":152276,"Delta":220314027},{"NoteNumber":77,"Velocity":61,"Duration":923339,"SoundDuration":923339,"Delta":220466304},{"NoteNumber":65,"Velocity":42,"Duration":152276,"SoundDuration":152276,"Delta":220466304},{"NoteNumber":68,"Velocity":34,"Duration":152276,"SoundDuration":152276,"Delta":220618581},{"NoteNumber":72,"Velocity":34,"Duration":152276,"SoundDuration":152276,"Delta":220770857},{"NoteNumber":65,"Velocity":42,"Duration":152276,"SoundDuration":152276,"Delta":220923134},{"NoteNumber":68,"Velocity":39,"Duration":152276,"SoundDuration":152276,"Delta":221075411},{"NoteNumber":72,"Velocity":39,"Duration":161956,"SoundDuration":161956,"Delta":221227687},{"NoteNumber":80,"Velocity":76,"Duration":468341,"SoundDuration":468341,"Delta":221389644},{"NoteNumber":63,"Velocity":46,"Duration":160008,"SoundDuration":160008,"Delta":221389644},{"NoteNumber":66,"Velocity":39,"Duration":154166,"SoundDuration":154166,"Delta":221549652},{"NoteNumber":72,"Velocity":39,"Duration":154166,"SoundDuration":154166,"Delta":221703819},{"NoteNumber":80,"Velocity":70,"Duration":462498,"SoundDuration":462498,"Delta":221857985},{"NoteNumber":63,"Velocity":46,"Duration":154166,"SoundDuration":154166,"Delta":221857985},{"NoteNumber":66,"Velocity":39,"Duration":154166,"SoundDuration":154166,"Delta":222012151},{"NoteNumber":72,"Velocity":35,"Duration":154166,"SoundDuration":154166,"Delta":222166318},{"NoteNumber":80,"Velocity":75,"Duration":346874,"SoundDuration":346874,"Delta":222320484},{"NoteNumber":63,"Velocity":42,"Duration":154166,"SoundDuration":154166,"Delta":222320484},{"NoteNumber":66,"Velocity":38,"Duration":154166,"SoundDuration":154166,"Delta":222474650},{"NoteNumber":72,"Velocity":38,"Duration":154166,"SoundDuration":154166,"Delta":222628817},{"NoteNumber":84,"Velocity":65,"Duration":105989,"SoundDuration":105989,"Delta":222667358},{"NoteNumber":84,"Velocity":72,"Duration":59651,"SoundDuration":59651,"Delta":222782983},{"NoteNumber":63,"Velocity":42,"Duration":158726,"SoundDuration":158726,"Delta":222782983},{"NoteNumber":85,"Velocity":62,"Duration":59651,"SoundDuration":59651,"Delta":222842635},{"NoteNumber":84,"Velocity":72,"Duration":58995,"SoundDuration":58995,"Delta":222902286},{"NoteNumber":66,"Velocity":39,"Duration":154342,"SoundDuration":154342,"Delta":222941710},{"NoteNumber":85,"Velocity":58,"Duration":57982,"SoundDuration":57982,"Delta":222961282},{"NoteNumber":84,"Velocity":69,"Duration":38393,"SoundDuration":38393,"Delta":223019265},{"NoteNumber":85,"Velocity":59,"Duration":38393,"SoundDuration":38393,"Delta":223057658},{"NoteNumber":84,"Velocity":69,"Duration":38393,"SoundDuration":38393,"Delta":223096052},{"NoteNumber":72,"Velocity":39,"Duration":153574,"SoundDuration":153574,"Delta":223096052},{"NoteNumber":82,"Velocity":65,"Duration":57590,"SoundDuration":57590,"Delta":223134445},{"NoteNumber":84,"Velocity":58,"Duration":57590,"SoundDuration":57590,"Delta":223192036},{"NoteNumber":85,"Velocity":72,"Duration":926754,"SoundDuration":926754,"Delta":223249626},{"NoteNumber":61,"Velocity":46,"Duration":156641,"SoundDuration":156641,"Delta":223249626},{"NoteNumber":65,"Velocity":39,"Duration":156641,"SoundDuration":156641,"Delta":223406268},{"NoteNumber":68,"Velocity":39,"Duration":156641,"SoundDuration":156641,"Delta":223562909},{"NoteNumber":61,"Velocity":46,"Duration":152276,"SoundDuration":152276,"Delta":223719551},{"NoteNumber":65,"Velocity":39,"Duration":152276,"SoundDuration":152276,"Delta":223871828},{"NoteNumber":68,"Velocity":31,"Duration":152276,"SoundDuration":152276,"Delta":224024104},{"NoteNumber":73,"Velocity":61,"Duration":923339,"SoundDuration":923339,"Delta":224176381},{"NoteNumber":61,"Velocity":42,"Duration":152276,"SoundDuration":152276,"Delta":224176381},{"NoteNumber":65,"Velocity":34,"Duration":152276,"SoundDuration":152276,"Delta":224328658},{"NoteNumber":68,"Velocity":34,"Duration":152276,"SoundDuration":152276,"Delta":224480934},{"NoteNumber":61,"Velocity":42,"Duration":152276,"SoundDuration":152276,"Delta":224633211},{"NoteNumber":65,"Velocity":39,"Duration":152276,"SoundDuration":152276,"Delta":224785488},{"NoteNumber":68,"Velocity":39,"Duration":161956,"SoundDuration":161956,"Delta":224937764},{"NoteNumber":82,"Velocity":76,"Duration":458534,"SoundDuration":458534,"Delta":225099721},{"NoteNumber":62,"Velocity":46,"Duration":153725,"SoundDuration":153725,"Delta":225099721},{"NoteNumber":65,"Velocity":39,"Duration":152404,"SoundDuration":152404,"Delta":225253447},{"NoteNumber":70,"Velocity":39,"Duration":152404,"SoundDuration":152404,"Delta":225405851},{"NoteNumber":82,"Velocity":70,"Duration":457212,"SoundDuration":457212,"Delta":225558255},{"NoteNumber":62,"Velocity":46,"Duration":152404,"SoundDuration":152404,"Delta":225558255},{"NoteNumber":65,"Velocity":39,"Duration":152404,"SoundDuration":152404,"Delta":225710660},{"NoteNumber":70,"Velocity":35,"Duration":152404,"SoundDuration":152404,"Delta":225863064},{"NoteNumber":82,"Velocity":75,"Duration":457212,"SoundDuration":457212,"Delta":226015468},{"NoteNumber":62,"Velocity":42,"Duration":152404,"SoundDuration":152404,"Delta":226015468},{"NoteNumber":65,"Velocity":38,"Duration":152404,"SoundDuration":152404,"Delta":226167873},{"NoteNumber":70,"Velocity":38,"Duration":152404,"SoundDuration":152404,"Delta":226320277},{"NoteNumber":80,"Velocity":72,"Duration":57151,"SoundDuration":57151,"Delta":226472681},{"NoteNumber":62,"Velocity":42,"Duration":153295,"SoundDuration":153295,"Delta":226472681},{"NoteNumber":82,"Velocity":62,"Duration":57151,"SoundDuration":57151,"Delta":226529833},{"NoteNumber":80,"Velocity":72,"Duration":58488,"SoundDuration":58488,"Delta":226586985},{"NoteNumber":65,"Velocity":39,"Duration":155969,"SoundDuration":155969,"Delta":226625977},{"NoteNumber":82,"Velocity":58,"Duration":58488,"SoundDuration":58488,"Delta":226645473},{"NoteNumber":80,"Velocity":69,"Duration":38992,"SoundDuration":38992,"Delta":226703962},{"NoteNumber":82,"Velocity":59,"Duration":38992,"SoundDuration":38992,"Delta":226742954},{"NoteNumber":80,"Velocity":69,"Duration":38992,"SoundDuration":38992,"Delta":226781947},{"NoteNumber":70,"Velocity":39,"Duration":155969,"SoundDuration":155969,"Delta":226781947},{"NoteNumber":79,"Velocity":65,"Duration":58488,"SoundDuration":58488,"Delta":226820939},{"NoteNumber":80,"Velocity":58,"Duration":58488,"SoundDuration":58488,"Delta":226879428},{"NoteNumber":79,"Velocity":69,"Duration":926754,"SoundDuration":926754,"Delta":226937916},{"NoteNumber":63,"Velocity":46,"Duration":156641,"SoundDuration":156641,"Delta":226937916},{"NoteNumber":67,"Velocity":39,"Duration":156641,"SoundDuration":156641,"Delta":227094558},{"NoteNumber":70,"Velocity":39,"Duration":156641,"SoundDuration":156641,"Delta":227251200},{"NoteNumber":63,"Velocity":46,"Duration":152276,"SoundDuration":152276,"Delta":227407841},{"NoteNumber":67,"Velocity":39,"Duration":152276,"SoundDuration":152276,"Delta":227560118},{"NoteNumber":70,"Velocity":31,"Duration":152276,"SoundDuration":152276,"Delta":227712395},{"NoteNumber":75,"Velocity":61,"Duration":923339,"SoundDuration":923339,"Delta":227864671},{"NoteNumber":63,"Velocity":42,"Duration":152276,"SoundDuration":152276,"Delta":227864671},{"NoteNumber":67,"Velocity":34,"Duration":152276,"SoundDuration":152276,"Delta":228016948},{"NoteNumber":70,"Velocity":34,"Duration":152276,"SoundDuration":152276,"Delta":228169225},{"NoteNumber":63,"Velocity":42,"Duration":152276,"SoundDuration":152276,"Delta":228321501},{"NoteNumber":67,"Velocity":39,"Duration":152276,"SoundDuration":152276,"Delta":228473778},{"NoteNumber":70,"Velocity":39,"Duration":161956,"SoundDuration":161956,"Delta":228626055},{"NoteNumber":74,"Velocity":64,"Duration":467908,"SoundDuration":467908,"Delta":228788011},{"NoteNumber":65,"Velocity":39,"Duration":155969,"SoundDuration":155969,"Delta":228788011},{"NoteNumber":68,"Velocity":33,"Duration":155969,"SoundDuration":155969,"Delta":228943981},{"NoteNumber":71,"Velocity":33,"Duration":155969,"SoundDuration":155969,"Delta":229099950},{"NoteNumber":74,"Velocity":60,"Duration":457212,"SoundDuration":457212,"Delta":229255920},{"NoteNumber":65,"Velocity":39,"Duration":152404,"SoundDuration":152404,"Delta":229255920},{"NoteNumber":68,"Velocity":33,"Duration":152404,"SoundDuration":152404,"Delta":229408324},{"NoteNumber":71,"Velocity":30,"Duration":152404,"SoundDuration":152404,"Delta":229560729},{"NoteNumber":74,"Velocity":66,"Duration":342909,"SoundDuration":342909,"Delta":229713133},{"NoteNumber":65,"Velocity":37,"Duration":152404,"SoundDuration":152404,"Delta":229713133},{"NoteNumber":68,"Velocity":33,"Duration":152404,"SoundDuration":152404,"Delta":229865537},{"NoteNumber":71,"Velocity":34,"Duration":152404,"SoundDuration":152404,"Delta":230017942},{"NoteNumber":74,"Velocity":59,"Duration":104777,"SoundDuration":104777,"Delta":230056043},{"NoteNumber":74,"Velocity":64,"Duration":58261,"SoundDuration":58261,"Delta":230170346},{"NoteNumber":65,"Velocity":38,"Duration":155363,"SoundDuration":155363,"Delta":230170346},{"NoteNumber":75,"Velocity":55,"Duration":58261,"SoundDuration":58261,"Delta":230228607},{"NoteNumber":74,"Velocity":64,"Duration":58261,"SoundDuration":58261,"Delta":230286869},{"NoteNumber":68,"Velocity":36,"Duration":155364,"SoundDuration":155364,"Delta":230325710},{"NoteNumber":75,"Velocity":52,"Duration":58261,"SoundDuration":58261,"Delta":230345130},{"NoteNumber":74,"Velocity":62,"Duration":38840,"SoundDuration":38840,"Delta":230403392},{"NoteNumber":75,"Velocity":53,"Duration":38841,"SoundDuration":38841,"Delta":230442233},{"NoteNumber":74,"Velocity":62,"Duration":38840,"SoundDuration":38840,"Delta":230481074},{"NoteNumber":71,"Velocity":36,"Duration":155363,"SoundDuration":155363,"Delta":230481074},{"NoteNumber":72,"Velocity":58,"Duration":58261,"SoundDuration":58261,"Delta":230519915},{"NoteNumber":74,"Velocity":52,"Duration":58261,"SoundDuration":58261,"Delta":230578176},{"NoteNumber":75,"Velocity":69,"Duration":469740,"SoundDuration":469740,"Delta":230636438},{"NoteNumber":63,"Velocity":43,"Duration":156580,"SoundDuration":156580,"Delta":230636438},{"NoteNumber":68,"Velocity":37,"Duration":156580,"SoundDuration":156580,"Delta":230793018},{"NoteNumber":71,"Velocity":37,"Duration":156580,"SoundDuration":156580,"Delta":230949599},{"NoteNumber":75,"Velocity":64,"Duration":458960,"SoundDuration":458960,"Delta":231106179},{"NoteNumber":63,"Velocity":44,"Duration":152986,"SoundDuration":152986,"Delta":231106179},{"NoteNumber":68,"Velocity":38,"Duration":152986,"SoundDuration":152986,"Delta":231259166},{"NoteNumber":71,"Velocity":34,"Duration":152986,"SoundDuration":152986,"Delta":231412153},{"NoteNumber":75,"Velocity":70,"Duration":344220,"SoundDuration":344220,"Delta":231565140},{"NoteNumber":63,"Velocity":42,"Duration":152987,"SoundDuration":152987,"Delta":231565140},{"NoteNumber":68,"Velocity":38,"Duration":152986,"SoundDuration":152986,"Delta":231718127},{"NoteNumber":71,"Velocity":39,"Duration":152986,"SoundDuration":152986,"Delta":231871114},{"NoteNumber":75,"Velocity":63,"Duration":105178,"SoundDuration":105178,"Delta":231909361},{"NoteNumber":75,"Velocity":68,"Duration":58488,"SoundDuration":58488,"Delta":232024101},{"NoteNumber":63,"Velocity":42,"Duration":155969,"SoundDuration":155969,"Delta":232024101},{"NoteNumber":77,"Velocity":59,"Duration":58488,"SoundDuration":58488,"Delta":232082590},{"NoteNumber":75,"Velocity":69,"Duration":58488,"SoundDuration":58488,"Delta":232141078},{"NoteNumber":68,"Velocity":41,"Duration":155969,"SoundDuration":155969,"Delta":232180071},{"NoteNumber":77,"Velocity":55,"Duration":58488,"SoundDuration":58488,"Delta":232199567},{"NoteNumber":75,"Velocity":66,"Duration":38992,"SoundDuration":38992,"Delta":232258055},{"NoteNumber":77,"Velocity":56,"Duration":38992,"SoundDuration":38992,"Delta":232297048},{"NoteNumber":75,"Velocity":66,"Duration":38992,"SoundDuration":38992,"Delta":232336040},{"NoteNumber":71,"Velocity":41,"Duration":155969,"SoundDuration":155969,"Delta":232336040},{"NoteNumber":74,"Velocity":63,"Duration":58488,"SoundDuration":58488,"Delta":232375033},{"NoteNumber":75,"Velocity":56,"Duration":58488,"SoundDuration":58488,"Delta":232433521},{"NoteNumber":77,"Velocity":73,"Duration":466092,"SoundDuration":466092,"Delta":232492010},{"NoteNumber":61,"Velocity":49,"Duration":155363,"SoundDuration":155363,"Delta":232492010},{"NoteNumber":68,"Velocity":42,"Duration":155364,"SoundDuration":155364,"Delta":232647374},{"NoteNumber":71,"Velocity":42,"Duration":155363,"SoundDuration":155363,"Delta":232802738},{"NoteNumber":77,"Velocity":69,"Duration":457268,"SoundDuration":457268,"Delta":232955189},{"NoteNumber":61,"Velocity":50,"Duration":152404,"SoundDuration":152404,"Delta":232958102},{"NoteNumber":68,"Velocity":43,"Duration":152404,"SoundDuration":152404,"Delta":233110506},{"NoteNumber":71,"Velocity":39,"Duration":152404,"SoundDuration":152404,"Delta":233262911},{"NoteNumber":77,"Velocity":75,"Duration":342909,"SoundDuration":342909,"Delta":233415315},{"NoteNumber":61,"Velocity":48,"Duration":152404,"SoundDuration":152404,"Delta":233415315},{"NoteNumber":68,"Velocity":43,"Duration":152404,"SoundDuration":152404,"Delta":233567719},{"NoteNumber":71,"Velocity":44,"Duration":152404,"SoundDuration":152404,"Delta":233720124},{"NoteNumber":77,"Velocity":67,"Duration":104777,"SoundDuration":104777,"Delta":233755367},{"NoteNumber":77,"Velocity":73,"Duration":58717,"SoundDuration":58717,"Delta":233872528},{"NoteNumber":61,"Velocity":48,"Duration":156580,"SoundDuration":156580,"Delta":233872528},{"NoteNumber":79,"Velocity":63,"Duration":58717,"SoundDuration":58717,"Delta":233931246},{"NoteNumber":77,"Velocity":73,"Duration":58717,"SoundDuration":58717,"Delta":233989963},{"NoteNumber":68,"Velocity":45,"Duration":156580,"SoundDuration":156580,"Delta":234029108},{"NoteNumber":79,"Velocity":59,"Duration":58717,"SoundDuration":58717,"Delta":234048681},{"NoteNumber":77,"Velocity":70,"Duration":39145,"SoundDuration":39145,"Delta":234107398},{"NoteNumber":79,"Velocity":60,"Duration":39145,"SoundDuration":39145,"Delta":234146544},{"NoteNumber":77,"Velocity":71,"Duration":39145,"SoundDuration":39145,"Delta":234185689},{"NoteNumber":71,"Velocity":46,"Duration":156580,"SoundDuration":156580,"Delta":234185689},{"NoteNumber":75,"Velocity":66,"Duration":58717,"SoundDuration":58717,"Delta":234224834},{"NoteNumber":77,"Velocity":59,"Duration":58717,"SoundDuration":58717,"Delta":234283551},{"NoteNumber":78,"Velocity":78,"Duration":466092,"SoundDuration":466092,"Delta":234342269},{"NoteNumber":61,"Velocity":55,"Duration":155363,"SoundDuration":155363,"Delta":234342269},{"NoteNumber":66,"Velocity":47,"Duration":155364,"SoundDuration":155364,"Delta":234497633},{"NoteNumber":70,"Velocity":47,"Duration":155363,"SoundDuration":155363,"Delta":234652026},{"NoteNumber":78,"Velocity":73,"Duration":457212,"SoundDuration":457212,"Delta":234808361},{"NoteNumber":61,"Velocity":57,"Duration":152404,"SoundDuration":152404,"Delta":234808361},{"NoteNumber":66,"Velocity":48,"Duration":152404,"SoundDuration":152404,"Delta":234960765},{"NoteNumber":70,"Velocity":44,"Duration":152404,"SoundDuration":152404,"Delta":235112217},{"NoteNumber":78,"Velocity":79,"Duration":342909,"SoundDuration":342909,"Delta":235265574},{"NoteNumber":61,"Velocity":53,"Duration":152404,"SoundDuration":152404,"Delta":235265574},{"NoteNumber":66,"Velocity":48,"Duration":152404,"SoundDuration":152404,"Delta":235417978},{"NoteNumber":70,"Velocity":48,"Duration":152404,"SoundDuration":152404,"Delta":235569430},{"NoteNumber":78,"Velocity":72,"Duration":104777,"SoundDuration":104777,"Delta":235608484},{"NoteNumber":78,"Velocity":77,"Duration":58717,"SoundDuration":58717,"Delta":235722787},{"NoteNumber":61,"Velocity":54,"Duration":156580,"SoundDuration":156580,"Delta":235722787},{"NoteNumber":80,"Velocity":66,"Duration":58717,"SoundDuration":58717,"Delta":235781505},{"NoteNumber":78,"Velocity":77,"Duration":58717,"SoundDuration":58717,"Delta":235840222},{"NoteNumber":66,"Velocity":51,"Duration":156580,"SoundDuration":156580,"Delta":235879367},{"NoteNumber":80,"Velocity":63,"Duration":58717,"SoundDuration":58717,"Delta":235898940},{"NoteNumber":78,"Velocity":75,"Duration":39145,"SoundDuration":39145,"Delta":235957657},{"NoteNumber":80,"Velocity":64,"Duration":39145,"SoundDuration":39145,"Delta":235996803},{"NoteNumber":70,"Velocity":51,"Duration":156580,"SoundDuration":156580,"Delta":236034969},{"NoteNumber":78,"Velocity":75,"Duration":39145,"SoundDuration":39145,"Delta":236035948},{"NoteNumber":77,"Velocity":70,"Duration":58717,"SoundDuration":58717,"Delta":236075093},{"NoteNumber":78,"Velocity":63,"Duration":58717,"SoundDuration":58717,"Delta":236133810},{"NoteNumber":83,"Velocity":83,"Duration":464288,"SoundDuration":464288,"Delta":236192528},{"NoteNumber":61,"Velocity":62,"Duration":154762,"SoundDuration":154762,"Delta":236192528},{"NoteNumber":65,"Velocity":52,"Duration":154762,"SoundDuration":154762,"Delta":236347291},{"NoteNumber":68,"Velocity":47,"Duration":154762,"SoundDuration":154762,"Delta":236502053},{"NoteNumber":83,"Velocity":77,"Duration":457212,"SoundDuration":457212,"Delta":236656816},{"NoteNumber":61,"Velocity":57,"Duration":152404,"SoundDuration":152404,"Delta":236656816},{"NoteNumber":65,"Velocity":47,"Duration":152404,"SoundDuration":152404,"Delta":236809220},{"NoteNumber":68,"Velocity":41,"Duration":152404,"SoundDuration":152404,"Delta":236961625},{"NoteNumber":83,"Velocity":82,"Duration":342909,"SoundDuration":342909,"Delta":237114029},{"NoteNumber":61,"Velocity":46,"Duration":152404,"SoundDuration":152404,"Delta":237114029},{"NoteNumber":65,"Velocity":41,"Duration":152404,"SoundDuration":152404,"Delta":237266433},{"NoteNumber":68,"Velocity":41,"Duration":152404,"SoundDuration":152404,"Delta":237418838},{"NoteNumber":83,"Velocity":68,"Duration":104777,"SoundDuration":104777,"Delta":237456939},{"NoteNumber":85,"Velocity":72,"Duration":116977,"SoundDuration":116977,"Delta":237571242},{"NoteNumber":61,"Velocity":42,"Duration":155969,"SoundDuration":155969,"Delta":237571242},{"NoteNumber":83,"Velocity":64,"Duration":116977,"SoundDuration":116977,"Delta":237688219},{"NoteNumber":65,"Velocity":39,"Duration":155969,"SoundDuration":155969,"Delta":237727212},{"NoteNumber":82,"Velocity":64,"Duration":116977,"SoundDuration":116977,"Delta":237805196},{"NoteNumber":68,"Velocity":39,"Duration":155969,"SoundDuration":155969,"Delta":237883181},{"NoteNumber":83,"Velocity":61,"Duration":116977,"SoundDuration":116977,"Delta":237922174},{"NoteNumber":82,"Velocity":76,"Duration":462085,"SoundDuration":462085,"Delta":238039151},{"NoteNumber":62,"Velocity":46,"Duration":154762,"SoundDuration":154762,"Delta":238039151},{"NoteNumber":65,"Velocity":39,"Duration":154762,"SoundDuration":154762,"Delta":238193914},{"NoteNumber":70,"Velocity":39,"Duration":152559,"SoundDuration":152559,"Delta":238348676},{"NoteNumber":82,"Velocity":70,"Duration":455477,"SoundDuration":455477,"Delta":238501236},{"NoteNumber":62,"Velocity":46,"Duration":151825,"SoundDuration":151825,"Delta":238501236},{"NoteNumber":65,"Velocity":39,"Duration":151825,"SoundDuration":151825,"Delta":238653062},{"NoteNumber":70,"Velocity":35,"Duration":151825,"SoundDuration":151825,"Delta":238804888},{"NoteNumber":82,"Velocity":75,"Duration":455477,"SoundDuration":455477,"Delta":238956713},{"NoteNumber":62,"Velocity":42,"Duration":151825,"SoundDuration":151825,"Delta":238956713},{"NoteNumber":65,"Velocity":38,"Duration":151825,"SoundDuration":151825,"Delta":239108539},{"NoteNumber":70,"Velocity":38,"Duration":151825,"SoundDuration":151825,"Delta":239260365},{"NoteNumber":82,"Velocity":72,"Duration":116523,"SoundDuration":116523,"Delta":239412190},{"NoteNumber":62,"Velocity":42,"Duration":155363,"SoundDuration":155363,"Delta":239412190},{"NoteNumber":80,"Velocity":64,"Duration":116523,"SoundDuration":116523,"Delta":239528713},{"NoteNumber":65,"Velocity":39,"Duration":155364,"SoundDuration":155364,"Delta":239567554},{"NoteNumber":79,"Velocity":64,"Duration":116523,"SoundDuration":116523,"Delta":239645236},{"NoteNumber":70,"Velocity":39,"Duration":155363,"SoundDuration":155363,"Delta":239722918},{"NoteNumber":80,"Velocity":61,"Duration":116523,"SoundDuration":116523,"Delta":239761759},{"NoteNumber":79,"Velocity":69,"Duration":926754,"SoundDuration":926754,"Delta":239878282},{"NoteNumber":63,"Velocity":46,"Duration":156641,"SoundDuration":156641,"Delta":239878282},{"NoteNumber":70,"Velocity":39,"Duration":156641,"SoundDuration":156641,"Delta":240034924},{"NoteNumber":73,"Velocity":39,"Duration":156641,"SoundDuration":156641,"Delta":240191566},{"NoteNumber":63,"Velocity":46,"Duration":152276,"SoundDuration":152276,"Delta":240348207},{"NoteNumber":70,"Velocity":39,"Duration":152276,"SoundDuration":152276,"Delta":240500484},{"NoteNumber":73,"Velocity":31,"Duration":152276,"SoundDuration":152276,"Delta":240652761},{"NoteNumber":75,"Velocity":61,"Duration":923339,"SoundDuration":923339,"Delta":240805037},{"NoteNumber":63,"Velocity":42,"Duration":152276,"SoundDuration":152276,"Delta":240805037},{"NoteNumber":70,"Velocity":34,"Duration":152276,"SoundDuration":152276,"Delta":240957314},{"NoteNumber":73,"Velocity":34,"Duration":152276,"SoundDuration":152276,"Delta":241109591},{"NoteNumber":63,"Velocity":42,"Duration":152276,"SoundDuration":152276,"Delta":241261867},{"NoteNumber":67,"Velocity":39,"Duration":152276,"SoundDuration":152276,"Delta":241414144},{"NoteNumber":70,"Velocity":39,"Duration":161956,"SoundDuration":161956,"Delta":241566421},{"NoteNumber":84,"Velocity":76,"Duration":466092,"SoundDuration":466092,"Delta":241728377},{"NoteNumber":64,"Velocity":50,"Duration":155363,"SoundDuration":155363,"Delta":241728377},{"NoteNumber":67,"Velocity":42,"Duration":155364,"SoundDuration":155364,"Delta":241883741},{"NoteNumber":72,"Velocity":42,"Duration":155363,"SoundDuration":155363,"Delta":242039105},{"NoteNumber":84,"Velocity":70,"Duration":457212,"SoundDuration":457212,"Delta":242194469},{"NoteNumber":64,"Velocity":50,"Duration":152404,"SoundDuration":152404,"Delta":242194469},{"NoteNumber":67,"Velocity":42,"Duration":152404,"SoundDuration":152404,"Delta":242346873},{"NoteNumber":72,"Velocity":38,"Duration":152404,"SoundDuration":152404,"Delta":242499278},{"NoteNumber":84,"Velocity":75,"Duration":457212,"SoundDuration":457212,"Delta":242651682},{"NoteNumber":64,"Velocity":46,"Duration":152404,"SoundDuration":152404,"Delta":242651682},{"NoteNumber":67,"Velocity":41,"Duration":152404,"SoundDuration":152404,"Delta":242804086},{"NoteNumber":72,"Velocity":41,"Duration":152404,"SoundDuration":152404,"Delta":242956491},{"NoteNumber":84,"Velocity":72,"Duration":114303,"SoundDuration":114303,"Delta":243108895},{"NoteNumber":64,"Velocity":46,"Duration":153144,"SoundDuration":153144,"Delta":243108895},{"NoteNumber":82,"Velocity":64,"Duration":116523,"SoundDuration":116523,"Delta":243223198},{"NoteNumber":67,"Velocity":42,"Duration":155364,"SoundDuration":155364,"Delta":243262039},{"NoteNumber":80,"Velocity":64,"Duration":116523,"SoundDuration":116523,"Delta":243339721},{"NoteNumber":72,"Velocity":42,"Duration":155363,"SoundDuration":155363,"Delta":243417403},{"NoteNumber":82,"Velocity":61,"Duration":116523,"SoundDuration":116523,"Delta":243456244},{"NoteNumber":80,"Velocity":72,"Duration":152881,"SoundDuration":152881,"Delta":243572767},{"NoteNumber":65,"Velocity":50,"Duration":458644,"SoundDuration":458644,"Delta":243572767},{"NoteNumber":84,"Velocity":63,"Duration":152881,"SoundDuration":152881,"Delta":243725649},{"NoteNumber":82,"Velocity":63,"Duration":152881,"SoundDuration":152881,"Delta":243878530},{"NoteNumber":80,"Velocity":59,"Duration":152881,"SoundDuration":152881,"Delta":244031412},{"NoteNumber":79,"Velocity":69,"Duration":146785,"SoundDuration":146785,"Delta":244184294},{"NoteNumber":77,"Velocity":62,"Duration":146844,"SoundDuration":146844,"Delta":244331079},{"NoteNumber":75,"Velocity":62,"Duration":147431,"SoundDuration":147431,"Delta":244477924},{"NoteNumber":73,"Velocity":58,"Duration":148020,"SoundDuration":148020,"Delta":244625355},{"NoteNumber":72,"Velocity":57,"Duration":148626,"SoundDuration":148626,"Delta":244773375},{"NoteNumber":70,"Velocity":65,"Duration":149226,"SoundDuration":149226,"Delta":244922001},{"NoteNumber":68,"Velocity":59,"Duration":149832,"SoundDuration":149832,"Delta":245071227},{"NoteNumber":67,"Velocity":58,"Duration":150451,"SoundDuration":150451,"Delta":245221060},{"NoteNumber":65,"Velocity":72,"Duration":152881,"SoundDuration":152881,"Delta":245371511},{"NoteNumber":72,"Velocity":63,"Duration":152881,"SoundDuration":152881,"Delta":245524393},{"NoteNumber":70,"Velocity":63,"Duration":152881,"SoundDuration":152881,"Delta":245677275},{"NoteNumber":68,"Velocity":59,"Duration":152881,"SoundDuration":152881,"Delta":245830156},{"NoteNumber":67,"Velocity":67,"Duration":146785,"SoundDuration":146785,"Delta":245983038},{"NoteNumber":65,"Velocity":62,"Duration":146844,"SoundDuration":146844,"Delta":246129824},{"NoteNumber":63,"Velocity":62,"Duration":147431,"SoundDuration":147431,"Delta":246276668},{"NoteNumber":61,"Velocity":58,"Duration":148020,"SoundDuration":148020,"Delta":246424099},{"NoteNumber":60,"Velocity":57,"Duration":148626,"SoundDuration":148626,"Delta":246572119},{"NoteNumber":58,"Velocity":65,"Duration":149226,"SoundDuration":149226,"Delta":246720745},{"NoteNumber":56,"Velocity":59,"Duration":149832,"SoundDuration":149832,"Delta":246869972},{"NoteNumber":55,"Velocity":58,"Duration":150451,"SoundDuration":150451,"Delta":247019804},{"NoteNumber":53,"Velocity":73,"Duration":453755,"SoundDuration":453755,"Delta":247170256},{"NoteNumber":45,"Velocity":46,"Duration":151251,"SoundDuration":151251,"Delta":247170256},{"NoteNumber":48,"Velocity":39,"Duration":151251,"SoundDuration":151251,"Delta":247321507},{"NoteNumber":51,"Velocity":39,"Duration":151251,"SoundDuration":151251,"Delta":247472759},{"NoteNumber":53,"Velocity":65,"Duration":448665,"SoundDuration":448665,"Delta":247624011},{"NoteNumber":45,"Velocity":46,"Duration":149554,"SoundDuration":149554,"Delta":247624011},{"NoteNumber":48,"Velocity":39,"Duration":149555,"SoundDuration":149555,"Delta":247773566},{"NoteNumber":51,"Velocity":41,"Duration":149554,"SoundDuration":149554,"Delta":247923121},{"NoteNumber":53,"Velocity":65,"Duration":445035,"SoundDuration":445035,"Delta":248072676},{"NoteNumber":45,"Velocity":46,"Duration":149879,"SoundDuration":149879,"Delta":248072676},{"NoteNumber":48,"Velocity":42,"Duration":148345,"SoundDuration":148345,"Delta":248222556},{"NoteNumber":51,"Velocity":42,"Duration":146810,"SoundDuration":146810,"Delta":248370901},{"NoteNumber":63,"Velocity":72,"Duration":464679,"SoundDuration":464679,"Delta":248517712},{"NoteNumber":45,"Velocity":46,"Duration":146810,"SoundDuration":146810,"Delta":248517712},{"NoteNumber":48,"Velocity":44,"Duration":146810,"SoundDuration":146810,"Delta":248664522},{"NoteNumber":53,"Velocity":44,"Duration":171057,"SoundDuration":171057,"Delta":248811333},{"NoteNumber":61,"Velocity":62,"Duration":58107,"SoundDuration":58107,"Delta":248982391},{"NoteNumber":46,"Velocity":46,"Duration":154299,"SoundDuration":154299,"Delta":248982391},{"NoteNumber":63,"Velocity":52,"Duration":57866,"SoundDuration":57866,"Delta":249040498},{"NoteNumber":61,"Velocity":60,"Duration":57423,"SoundDuration":57423,"Delta":249098364},{"NoteNumber":49,"Velocity":39,"Duration":151283,"SoundDuration":151283,"Delta":249142419},{"NoteNumber":63,"Velocity":53,"Duration":56986,"SoundDuration":56986,"Delta":249155787},{"NoteNumber":61,"Velocity":61,"Duration":56557,"SoundDuration":56557,"Delta":249212774},{"NoteNumber":63,"Velocity":55,"Duration":56133,"SoundDuration":56133,"Delta":249269331},{"NoteNumber":53,"Velocity":39,"Duration":148745,"SoundDuration":148745,"Delta":249283396},{"NoteNumber":61,"Velocity":64,"Duration":55716,"SoundDuration":55716,"Delta":249325465},{"NoteNumber":63,"Velocity":58,"Duration":55592,"SoundDuration":55592,"Delta":249381182},{"NoteNumber":61,"Velocity":69,"Duration":74777,"SoundDuration":74777,"Delta":249436774},{"NoteNumber":46,"Velocity":46,"Duration":149554,"SoundDuration":149554,"Delta":249436774},{"NoteNumber":63,"Velocity":60,"Duration":74777,"SoundDuration":74777,"Delta":249511552},{"NoteNumber":61,"Velocity":55,"Duration":74777,"SoundDuration":74777,"Delta":249586329},{"NoteNumber":49,"Velocity":39,"Duration":149555,"SoundDuration":149555,"Delta":249586329},{"NoteNumber":60,"Velocity":60,"Duration":224332,"SoundDuration":224332,"Delta":249661107},{"NoteNumber":53,"Velocity":41,"Duration":149554,"SoundDuration":149554,"Delta":249735884},{"NoteNumber":58,"Velocity":62,"Duration":445121,"SoundDuration":445121,"Delta":249880766},{"NoteNumber":46,"Velocity":46,"Duration":149869,"SoundDuration":149869,"Delta":249880766},{"NoteNumber":49,"Velocity":42,"Duration":148441,"SoundDuration":148441,"Delta":250030636},{"NoteNumber":53,"Velocity":42,"Duration":146810,"SoundDuration":146810,"Delta":250183665},{"NoteNumber":46,"Velocity":46,"Duration":146810,"SoundDuration":146810,"Delta":250330475},{"NoteNumber":49,"Velocity":44,"Duration":146810,"SoundDuration":146810,"Delta":250477286},{"NoteNumber":53,"Velocity":44,"Duration":171057,"SoundDuration":171057,"Delta":250624097},{"NoteNumber":55,"Velocity":73,"Duration":453755,"SoundDuration":453755,"Delta":250795155},{"NoteNumber":47,"Velocity":46,"Duration":151251,"SoundDuration":151251,"Delta":250795155},{"NoteNumber":50,"Velocity":39,"Duration":151251,"SoundDuration":151251,"Delta":250946406},{"NoteNumber":53,"Velocity":39,"Duration":151251,"SoundDuration":151251,"Delta":251097658},{"NoteNumber":55,"Velocity":65,"Duration":448665,"SoundDuration":448665,"Delta":251248910},{"NoteNumber":47,"Velocity":46,"Duration":149554,"SoundDuration":149554,"Delta":251248910},{"NoteNumber":50,"Velocity":39,"Duration":149555,"SoundDuration":149555,"Delta":251398465},{"NoteNumber":53,"Velocity":41,"Duration":149554,"SoundDuration":149554,"Delta":251548020},{"NoteNumber":55,"Velocity":65,"Duration":445035,"SoundDuration":445035,"Delta":251697575},{"NoteNumber":47,"Velocity":46,"Duration":149879,"SoundDuration":149879,"Delta":251697575},{"NoteNumber":50,"Velocity":42,"Duration":148345,"SoundDuration":148345,"Delta":251847455},{"NoteNumber":53,"Velocity":42,"Duration":146810,"SoundDuration":146810,"Delta":251995800},{"NoteNumber":65,"Velocity":72,"Duration":464679,"SoundDuration":464679,"Delta":252142611},{"NoteNumber":47,"Velocity":46,"Duration":146810,"SoundDuration":146810,"Delta":252142611},{"NoteNumber":50,"Velocity":44,"Duration":146810,"SoundDuration":146810,"Delta":252289421},{"NoteNumber":55,"Velocity":44,"Duration":171057,"SoundDuration":171057,"Delta":252436232},{"NoteNumber":64,"Velocity":60,"Duration":147699,"SoundDuration":147699,"Delta":252607290},{"NoteNumber":48,"Velocity":56,"Duration":443098,"SoundDuration":443098,"Delta":252607290},{"NoteNumber":62,"Velocity":49,"Duration":147699,"SoundDuration":147699,"Delta":252754989},{"NoteNumber":60,"Velocity":49,"Duration":73849,"SoundDuration":73849,"Delta":252902689},{"NoteNumber":60,"Velocity":56,"Duration":71474,"SoundDuration":71474,"Delta":253050389},{"NoteNumber":60,"Velocity":49,"Duration":71474,"SoundDuration":71474,"Delta":253193338},{"NoteNumber":60,"Velocity":49,"Duration":82829,"SoundDuration":82829,"Delta":253336287},{"NoteNumber":67,"Velocity":60,"Duration":147699,"SoundDuration":147699,"Delta":253501946},{"NoteNumber":48,"Velocity":47,"Duration":443098,"SoundDuration":443098,"Delta":253501946},{"NoteNumber":52,"Velocity":56,"Duration":443098,"SoundDuration":443098,"Delta":253501946},{"NoteNumber":65,"Velocity":49,"Duration":147699,"SoundDuration":147699,"Delta":253649645},{"NoteNumber":64,"Velocity":49,"Duration":73849,"SoundDuration":73849,"Delta":253797345},{"NoteNumber":64,"Velocity":56,"Duration":71730,"SoundDuration":71730,"Delta":253945045},{"NoteNumber":64,"Velocity":49,"Duration":71730,"SoundDuration":71730,"Delta":254088506},{"NoteNumber":64,"Velocity":49,"Duration":82829,"SoundDuration":82829,"Delta":254231968},{"NoteNumber":70,"Velocity":65,"Duration":148246,"SoundDuration":148246,"Delta":254397627},{"NoteNumber":48,"Velocity":47,"Duration":444740,"SoundDuration":444740,"Delta":254397627},{"NoteNumber":52,"Velocity":56,"Duration":444740,"SoundDuration":444740,"Delta":254397627},{"NoteNumber":68,"Velocity":50,"Duration":148246,"SoundDuration":148246,"Delta":254545874},{"NoteNumber":67,"Velocity":50,"Duration":74123,"SoundDuration":74123,"Delta":254694121},{"NoteNumber":67,"Velocity":61,"Duration":71988,"SoundDuration":71988,"Delta":254842368},{"NoteNumber":67,"Velocity":54,"Duration":71988,"SoundDuration":71988,"Delta":254986346},{"NoteNumber":67,"Velocity":54,"Duration":82829,"SoundDuration":82829,"Delta":255130324},{"NoteNumber":79,"Velocity":66,"Duration":145762,"SoundDuration":145762,"Delta":255295983},{"NoteNumber":48,"Velocity":48,"Duration":436373,"SoundDuration":436373,"Delta":255295983},{"NoteNumber":52,"Velocity":58,"Duration":436373,"SoundDuration":436373,"Delta":255295983},{"NoteNumber":77,"Velocity":63,"Duration":144447,"SoundDuration":144447,"Delta":255441746},{"NoteNumber":76,"Velocity":56,"Duration":146162,"SoundDuration":146162,"Delta":255586194},{"NoteNumber":73,"Velocity":66,"Duration":147756,"SoundDuration":147756,"Delta":255732356},{"NoteNumber":72,"Velocity":60,"Duration":149593,"SoundDuration":149593,"Delta":255880112},{"NoteNumber":70,"Velocity":57,"Duration":165659,"SoundDuration":165659,"Delta":256029706},{"NoteNumber":68,"Velocity":71,"Duration":147699,"SoundDuration":147699,"Delta":256195365},{"NoteNumber":53,"Velocity":50,"Duration":443099,"SoundDuration":443099,"Delta":256195365},{"NoteNumber":56,"Velocity":59,"Duration":443099,"SoundDuration":443099,"Delta":256195365},{"NoteNumber":72,"Velocity":55,"Duration":147699,"SoundDuration":147699,"Delta":256343065},{"NoteNumber":77,"Velocity":55,"Duration":73849,"SoundDuration":73849,"Delta":256490764},{"NoteNumber":77,"Velocity":71,"Duration":71730,"SoundDuration":71730,"Delta":256638464},{"NoteNumber":77,"Velocity":57,"Duration":71730,"SoundDuration":71730,"Delta":256781926},{"NoteNumber":77,"Velocity":57,"Duration":82829,"SoundDuration":82829,"Delta":256925387},{"NoteNumber":76,"Velocity":78,"Duration":147156,"SoundDuration":147156,"Delta":257091046},{"NoteNumber":48,"Velocity":52,"Duration":441468,"SoundDuration":441468,"Delta":257091046},{"NoteNumber":55,"Velocity":62,"Duration":441468,"SoundDuration":441468,"Delta":257091046},{"NoteNumber":79,"Velocity":67,"Duration":147156,"SoundDuration":147156,"Delta":257238203},{"NoteNumber":82,"Velocity":67,"Duration":73578,"SoundDuration":73578,"Delta":257385359},{"NoteNumber":82,"Velocity":76,"Duration":71988,"SoundDuration":71988,"Delta":257532515},{"NoteNumber":82,"Velocity":62,"Duration":71988,"SoundDuration":71988,"Delta":257676493},{"NoteNumber":82,"Velocity":63,"Duration":82829,"SoundDuration":82829,"Delta":257820471},{"NoteNumber":80,"Velocity":78,"Duration":147156,"SoundDuration":147156,"Delta":257986130},{"NoteNumber":53,"Velocity":53,"Duration":441468,"SoundDuration":441468,"Delta":257986130},{"NoteNumber":56,"Velocity":63,"Duration":441468,"SoundDuration":441468,"Delta":257986130},{"NoteNumber":84,"Velocity":65,"Duration":147156,"SoundDuration":147156,"Delta":258133287},{"NoteNumber":89,"Velocity":65,"Duration":73578,"SoundDuration":73578,"Delta":258280443},{"NoteNumber":89,"Velocity":72,"Duration":71988,"SoundDuration":71988,"Delta":258427599},{"NoteNumber":89,"Velocity":64,"Duration":71988,"SoundDuration":71988,"Delta":258571577},{"NoteNumber":89,"Velocity":64,"Duration":82829,"SoundDuration":82829,"Delta":258715555},{"NoteNumber":79,"Velocity":78,"Duration":147699,"SoundDuration":147699,"Delta":258881214},{"NoteNumber":46,"Velocity":54,"Duration":443099,"SoundDuration":443099,"Delta":258881214},{"NoteNumber":58,"Velocity":65,"Duration":443099,"SoundDuration":443099,"Delta":258881214},{"NoteNumber":82,"Velocity":66,"Duration":147699,"SoundDuration":147699,"Delta":259028914},{"NoteNumber":85,"Velocity":65,"Duration":73849,"SoundDuration":73849,"Delta":259176614},{"NoteNumber":85,"Velocity":71,"Duration":72249,"SoundDuration":72249,"Delta":259324313},{"NoteNumber":85,"Velocity":62,"Duration":72249,"SoundDuration":72249,"Delta":259468812},{"NoteNumber":85,"Velocity":61,"Duration":82829,"SoundDuration":82829,"Delta":259613310},{"NoteNumber":60,"Velocity":66,"Duration":454856,"SoundDuration":454856,"Delta":259778969},{"NoteNumber":80,"Velocity":64,"Duration":183060,"SoundDuration":183060,"Delta":260233825},{"NoteNumber":84,"Velocity":76,"Duration":183060,"SoundDuration":183060,"Delta":260233825},{"NoteNumber":48,"Velocity":56,"Duration":488161,"SoundDuration":488161,"Delta":260721987},{"NoteNumber":70,"Velocity":60,"Duration":465440,"SoundDuration":465440,"Delta":261210149},{"NoteNumber":76,"Velocity":60,"Duration":465440,"SoundDuration":465440,"Delta":261210149},{"NoteNumber":75,"Velocity":60,"Duration":458329,"SoundDuration":458329,"Delta":261675590},{"NoteNumber":57,"Velocity":40,"Duration":152776,"SoundDuration":152776,"Delta":261675590},{"NoteNumber":60,"Velocity":32,"Duration":152776,"SoundDuration":152776,"Delta":261828367},{"NoteNumber":66,"Velocity":32,"Duration":152776,"SoundDuration":152776,"Delta":261981143},{"NoteNumber":75,"Velocity":54,"Duration":458329,"SoundDuration":458329,"Delta":262133920},{"NoteNumber":57,"Velocity":39,"Duration":152776,"SoundDuration":152776,"Delta":262133920},{"NoteNumber":60,"Velocity":33,"Duration":152776,"SoundDuration":152776,"Delta":262286697},{"NoteNumber":66,"Velocity":33,"Duration":152776,"SoundDuration":152776,"Delta":262439473},{"NoteNumber":75,"Velocity":60,"Duration":458330,"SoundDuration":458330,"Delta":262592250},{"NoteNumber":57,"Velocity":38,"Duration":152776,"SoundDuration":152776,"Delta":262592250},{"NoteNumber":60,"Velocity":33,"Duration":152776,"SoundDuration":152776,"Delta":262745027},{"NoteNumber":66,"Velocity":33,"Duration":152776,"SoundDuration":152776,"Delta":262897803},{"NoteNumber":75,"Velocity":55,"Duration":480406,"SoundDuration":480406,"Delta":263050580},{"NoteNumber":57,"Velocity":40,"Duration":155751,"SoundDuration":155751,"Delta":263050580},{"NoteNumber":60,"Velocity":32,"Duration":155750,"SoundDuration":155750,"Delta":263206331},{"NoteNumber":66,"Velocity":32,"Duration":168904,"SoundDuration":168904,"Delta":263362082},{"NoteNumber":74,"Velocity":57,"Duration":913185,"SoundDuration":913185,"Delta":263530987},{"NoteNumber":58,"Velocity":38,"Duration":152776,"SoundDuration":152776,"Delta":263530987},{"NoteNumber":65,"Velocity":33,"Duration":152776,"SoundDuration":152776,"Delta":263683763},{"NoteNumber":68,"Velocity":33,"Duration":152776,"SoundDuration":152776,"Delta":263836540},{"NoteNumber":58,"Velocity":38,"Duration":151618,"SoundDuration":151618,"Delta":263989317},{"NoteNumber":65,"Velocity":33,"Duration":151618,"SoundDuration":151618,"Delta":264140935},{"NoteNumber":68,"Velocity":33,"Duration":151618,"SoundDuration":151618,"Delta":264292554},{"NoteNumber":70,"Velocity":58,"Duration":931201,"SoundDuration":931201,"Delta":264444173},{"NoteNumber":58,"Velocity":38,"Duration":151618,"SoundDuration":151618,"Delta":264444173},{"NoteNumber":65,"Velocity":32,"Duration":151618,"SoundDuration":151618,"Delta":264595791},{"NoteNumber":68,"Velocity":32,"Duration":151618,"SoundDuration":151618,"Delta":264747410},{"NoteNumber":58,"Velocity":40,"Duration":153362,"SoundDuration":153362,"Delta":264899029},{"NoteNumber":65,"Velocity":34,"Duration":153362,"SoundDuration":153362,"Delta":265052391},{"NoteNumber":68,"Velocity":34,"Duration":169621,"SoundDuration":169621,"Delta":265205753},{"NoteNumber":73,"Velocity":78,"Duration":466092,"SoundDuration":466092,"Delta":265375374},{"NoteNumber":55,"Velocity":47,"Duration":155364,"SoundDuration":155364,"Delta":265375374},{"NoteNumber":58,"Velocity":40,"Duration":155363,"SoundDuration":155363,"Delta":265530738},{"NoteNumber":63,"Velocity":40,"Duration":155364,"SoundDuration":155364,"Delta":265686102},{"NoteNumber":73,"Velocity":73,"Duration":457213,"SoundDuration":457213,"Delta":265841466},{"NoteNumber":55,"Velocity":48,"Duration":152404,"SoundDuration":152404,"Delta":265841466},{"NoteNumber":58,"Velocity":40,"Duration":152404,"SoundDuration":152404,"Delta":265993871},{"NoteNumber":63,"Velocity":37,"Duration":152404,"SoundDuration":152404,"Delta":266146275},{"NoteNumber":73,"Velocity":73,"Duration":57151,"SoundDuration":57151,"Delta":266298679},{"NoteNumber":55,"Velocity":44,"Duration":152404,"SoundDuration":152404,"Delta":266298679},{"NoteNumber":75,"Velocity":62,"Duration":57151,"SoundDuration":57151,"Delta":266355831},{"NoteNumber":73,"Velocity":73,"Duration":57151,"SoundDuration":57151,"Delta":266412983},{"NoteNumber":58,"Velocity":40,"Duration":152404,"SoundDuration":152404,"Delta":266451084},{"NoteNumber":75,"Velocity":59,"Duration":57151,"SoundDuration":57151,"Delta":266470134},{"NoteNumber":73,"Velocity":71,"Duration":38101,"SoundDuration":38101,"Delta":266527286},{"NoteNumber":75,"Velocity":60,"Duration":38101,"SoundDuration":38101,"Delta":266565387},{"NoteNumber":73,"Velocity":71,"Duration":38101,"SoundDuration":38101,"Delta":266603488},{"NoteNumber":63,"Velocity":40,"Duration":152404,"SoundDuration":152404,"Delta":266603488},{"NoteNumber":72,"Velocity":66,"Duration":57151,"SoundDuration":57151,"Delta":266641589},{"NoteNumber":73,"Velocity":59,"Duration":57151,"SoundDuration":57151,"Delta":266698741},{"NoteNumber":82,"Velocity":79,"Duration":234870,"SoundDuration":234870,"Delta":266755892},{"NoteNumber":55,"Velocity":45,"Duration":156580,"SoundDuration":156580,"Delta":266755892},{"NoteNumber":58,"Velocity":42,"Duration":156580,"SoundDuration":156580,"Delta":266912473},{"NoteNumber":73,"Velocity":72,"Duration":234870,"SoundDuration":234870,"Delta":266990763},{"NoteNumber":63,"Velocity":42,"Duration":156580,"SoundDuration":156580,"Delta":267069053},{"NoteNumber":72,"Velocity":78,"Duration":466092,"SoundDuration":466092,"Delta":267225633},{"NoteNumber":56,"Velocity":47,"Duration":155364,"SoundDuration":155364,"Delta":267225633},{"NoteNumber":60,"Velocity":40,"Duration":155363,"SoundDuration":155363,"Delta":267380997},{"NoteNumber":63,"Velocity":40,"Duration":155364,"SoundDuration":155364,"Delta":267536361},{"NoteNumber":72,"Velocity":73,"Duration":457213,"SoundDuration":457213,"Delta":267691725},{"NoteNumber":56,"Velocity":48,"Duration":152404,"SoundDuration":152404,"Delta":267691725},{"NoteNumber":60,"Velocity":40,"Duration":152404,"SoundDuration":152404,"Delta":267844130},{"NoteNumber":63,"Velocity":37,"Duration":152404,"SoundDuration":152404,"Delta":267996534},{"NoteNumber":72,"Velocity":73,"Duration":57151,"SoundDuration":57151,"Delta":268148938},{"NoteNumber":48,"Velocity":44,"Duration":152404,"SoundDuration":152404,"Delta":268148938},{"NoteNumber":73,"Velocity":62,"Duration":57151,"SoundDuration":57151,"Delta":268206090},{"NoteNumber":72,"Velocity":73,"Duration":57151,"SoundDuration":57151,"Delta":268263242},{"NoteNumber":51,"Velocity":40,"Duration":152404,"SoundDuration":152404,"Delta":268301343},{"NoteNumber":73,"Velocity":59,"Duration":57151,"SoundDuration":57151,"Delta":268320393},{"NoteNumber":72,"Velocity":71,"Duration":38101,"SoundDuration":38101,"Delta":268377545},{"NoteNumber":73,"Velocity":60,"Duration":38101,"SoundDuration":38101,"Delta":268415646},{"NoteNumber":72,"Velocity":71,"Duration":38101,"SoundDuration":38101,"Delta":268453747},{"NoteNumber":56,"Velocity":40,"Duration":152404,"SoundDuration":152404,"Delta":268453747},{"NoteNumber":70,"Velocity":66,"Duration":57151,"SoundDuration":57151,"Delta":268491848},{"NoteNumber":72,"Velocity":59,"Duration":57151,"SoundDuration":57151,"Delta":268549000},{"NoteNumber":75,"Velocity":79,"Duration":234870,"SoundDuration":234870,"Delta":268606151},{"NoteNumber":48,"Velocity":45,"Duration":156580,"SoundDuration":156580,"Delta":268606151},{"NoteNumber":51,"Velocity":42,"Duration":156580,"SoundDuration":156580,"Delta":268762732},{"NoteNumber":72,"Velocity":72,"Duration":234870,"SoundDuration":234870,"Delta":268841022},{"NoteNumber":56,"Velocity":42,"Duration":156580,"SoundDuration":156580,"Delta":268919312},{"NoteNumber":70,"Velocity":78,"Duration":466092,"SoundDuration":466092,"Delta":269075892},{"NoteNumber":49,"Velocity":47,"Duration":155364,"SoundDuration":155364,"Delta":269075892},{"NoteNumber":53,"Velocity":40,"Duration":155363,"SoundDuration":155363,"Delta":269231256},{"NoteNumber":56,"Velocity":40,"Duration":155364,"SoundDuration":155364,"Delta":269386620},{"NoteNumber":70,"Velocity":73,"Duration":457213,"SoundDuration":457213,"Delta":269541984},{"NoteNumber":49,"Velocity":48,"Duration":152404,"SoundDuration":152404,"Delta":269541984},{"NoteNumber":53,"Velocity":40,"Duration":152404,"SoundDuration":152404,"Delta":269694389},{"NoteNumber":56,"Velocity":37,"Duration":152404,"SoundDuration":152404,"Delta":269846793},{"NoteNumber":70,"Velocity":73,"Duration":57151,"SoundDuration":57151,"Delta":269999197},{"NoteNumber":50,"Velocity":44,"Duration":152404,"SoundDuration":152404,"Delta":269999197},{"NoteNumber":72,"Velocity":62,"Duration":57151,"SoundDuration":57151,"Delta":270056349},{"NoteNumber":70,"Velocity":73,"Duration":57151,"SoundDuration":57151,"Delta":270113501},{"NoteNumber":53,"Velocity":40,"Duration":152404,"SoundDuration":152404,"Delta":270151602},{"NoteNumber":72,"Velocity":59,"Duration":57151,"SoundDuration":57151,"Delta":270170652},{"NoteNumber":70,"Velocity":71,"Duration":38101,"SoundDuration":38101,"Delta":270227804},{"NoteNumber":72,"Velocity":60,"Duration":38101,"SoundDuration":38101,"Delta":270265905},{"NoteNumber":70,"Velocity":71,"Duration":38101,"SoundDuration":38101,"Delta":270304006},{"NoteNumber":58,"Velocity":40,"Duration":152404,"SoundDuration":152404,"Delta":270304006},{"NoteNumber":69,"Velocity":66,"Duration":57151,"SoundDuration":57151,"Delta":270342107},{"NoteNumber":70,"Velocity":59,"Duration":57151,"SoundDuration":57151,"Delta":270399259},{"NoteNumber":77,"Velocity":79,"Duration":234870,"SoundDuration":234870,"Delta":270456410},{"NoteNumber":50,"Velocity":45,"Duration":156580,"SoundDuration":156580,"Delta":270456410},{"NoteNumber":53,"Velocity":42,"Duration":156580,"SoundDuration":156580,"Delta":270612991},{"NoteNumber":68,"Velocity":72,"Duration":234870,"SoundDuration":234870,"Delta":270691281},{"NoteNumber":58,"Velocity":42,"Duration":156580,"SoundDuration":156580,"Delta":270769571},{"NoteNumber":67,"Velocity":77,"Duration":149354,"SoundDuration":149354,"Delta":270926151},{"NoteNumber":51,"Velocity":55,"Duration":891605,"SoundDuration":891605,"Delta":270926151},{"NoteNumber":70,"Velocity":68,"Duration":149353,"SoundDuration":149353,"Delta":271075505},{"NoteNumber":68,"Velocity":68,"Duration":149354,"SoundDuration":149354,"Delta":271224859},{"NoteNumber":67,"Velocity":66,"Duration":149913,"SoundDuration":149913,"Delta":271374213},{"NoteNumber":79,"Velocity":76,"Duration":146785,"SoundDuration":146785,"Delta":271524127},{"NoteNumber":77,"Velocity":69,"Duration":146844,"SoundDuration":146844,"Delta":271670913},{"NoteNumber":75,"Velocity":64,"Duration":149913,"SoundDuration":149913,"Delta":271817757},{"NoteNumber":82,"Velocity":74,"Duration":146081,"SoundDuration":146081,"Delta":271967670},{"NoteNumber":80,"Velocity":69,"Duration":148292,"SoundDuration":148292,"Delta":272113752},{"NoteNumber":79,"Velocity":68,"Duration":149226,"SoundDuration":149226,"Delta":272262044},{"NoteNumber":77,"Velocity":66,"Duration":149832,"SoundDuration":149832,"Delta":272411270},{"NoteNumber":75,"Velocity":65,"Duration":150451,"SoundDuration":150451,"Delta":272561103},{"NoteNumber":74,"Velocity":77,"Duration":149354,"SoundDuration":149354,"Delta":272711554},{"NoteNumber":53,"Velocity":47,"Duration":891605,"SoundDuration":891605,"Delta":272711554},{"NoteNumber":56,"Velocity":55,"Duration":891605,"SoundDuration":891605,"Delta":272711554},{"NoteNumber":77,"Velocity":68,"Duration":149353,"SoundDuration":149353,"Delta":272860908},{"NoteNumber":75,"Velocity":68,"Duration":149354,"SoundDuration":149354,"Delta":273010262},{"NoteNumber":74,"Velocity":66,"Duration":149913,"SoundDuration":149913,"Delta":273159616},{"NoteNumber":80,"Velocity":76,"Duration":146785,"SoundDuration":146785,"Delta":273309530},{"NoteNumber":79,"Velocity":69,"Duration":146844,"SoundDuration":146844,"Delta":273456316},{"NoteNumber":77,"Velocity":64,"Duration":149913,"SoundDuration":149913,"Delta":273603160},{"NoteNumber":84,"Velocity":74,"Duration":146081,"SoundDuration":146081,"Delta":273753073},{"NoteNumber":82,"Velocity":69,"Duration":148292,"SoundDuration":148292,"Delta":273899155},{"NoteNumber":80,"Velocity":68,"Duration":149226,"SoundDuration":149226,"Delta":274047447},{"NoteNumber":79,"Velocity":66,"Duration":149832,"SoundDuration":149832,"Delta":274196673},{"NoteNumber":77,"Velocity":65,"Duration":160758,"SoundDuration":160758,"Delta":274346506},{"NoteNumber":75,"Velocity":77,"Duration":233626,"SoundDuration":233626,"Delta":274507264},{"NoteNumber":74,"Velocity":68,"Duration":235793,"SoundDuration":235793,"Delta":274740891},{"NoteNumber":77,"Velocity":74,"Duration":232144,"SoundDuration":232144,"Delta":274976684},{"NoteNumber":75,"Velocity":70,"Duration":235793,"SoundDuration":235793,"Delta":275208828},{"NoteNumber":79,"Velocity":73,"Duration":233046,"SoundDuration":233046,"Delta":275444622},{"NoteNumber":77,"Velocity":66,"Duration":236723,"SoundDuration":236723,"Delta":275677668},{"NoteNumber":80,"Velocity":72,"Duration":242111,"SoundDuration":242111,"Delta":275914391},{"NoteNumber":79,"Velocity":63,"Duration":242110,"SoundDuration":242110,"Delta":276156502},{"NoteNumber":82,"Velocity":77,"Duration":256607,"SoundDuration":256607,"Delta":276398613},{"NoteNumber":80,"Velocity":74,"Duration":270020,"SoundDuration":270020,"Delta":276655221},{"NoteNumber":84,"Velocity":77,"Duration":504583,"SoundDuration":504583,"Delta":276925241},{"NoteNumber":82,"Velocity":73,"Duration":508863,"SoundDuration":508863,"Delta":277429824},{"NoteNumber":80,"Velocity":69,"Duration":526731,"SoundDuration":526731,"Delta":277938687},{"NoteNumber":79,"Velocity":69,"Duration":536144,"SoundDuration":536144,"Delta":278465419},{"NoteNumber":77,"Velocity":66,"Duration":541858,"SoundDuration":541858,"Delta":279001564},{"NoteNumber":75,"Velocity":62,"Duration":559545,"SoundDuration":559545,"Delta":279543423},{"NoteNumber":74,"Velocity":59,"Duration":643570,"SoundDuration":643570,"Delta":280102968},{"NoteNumber":53,"Velocity":24,"Duration":643570,"SoundDuration":643570,"Delta":280102968},{"NoteNumber":56,"Velocity":24,"Duration":643570,"SoundDuration":643570,"Delta":280102968},{"NoteNumber":58,"Velocity":29,"Duration":643570,"SoundDuration":643570,"Delta":280102968},{"NoteNumber":80,"Velocity":66,"Duration":1372839,"SoundDuration":1372839,"Delta":280746538},{"NoteNumber":79,"Velocity":63,"Duration":284603,"SoundDuration":284603,"Delta":282119378},{"NoteNumber":80,"Velocity":56,"Duration":284603,"SoundDuration":284603,"Delta":282403981},{"NoteNumber":82,"Velocity":62,"Duration":284603,"SoundDuration":284603,"Delta":282688584},{"NoteNumber":80,"Velocity":58,"Duration":289748,"SoundDuration":289748,"Delta":282973187},{"NoteNumber":80,"Velocity":65,"Duration":1707618,"SoundDuration":1707618,"Delta":283289276},{"NoteNumber":74,"Velocity":56,"Duration":603363,"SoundDuration":603363,"Delta":284996894},{"NoteNumber":74,"Velocity":42,"Duration":76364,"SoundDuration":76364,"Delta":285600258},{"NoteNumber":75,"Velocity":50,"Duration":74544,"SoundDuration":74544,"Delta":285676622},{"NoteNumber":77,"Velocity":46,"Duration":72808,"SoundDuration":72808,"Delta":285751167},{"NoteNumber":75,"Velocity":50,"Duration":71148,"SoundDuration":71148,"Delta":285823975},{"NoteNumber":77,"Velocity":46,"Duration":69307,"SoundDuration":69307,"Delta":285895123},{"NoteNumber":75,"Velocity":50,"Duration":67804,"SoundDuration":67804,"Delta":285964430},{"NoteNumber":77,"Velocity":45,"Duration":66364,"SoundDuration":66364,"Delta":286032235},{"NoteNumber":75,"Velocity":50,"Duration":65893,"SoundDuration":65893,"Delta":286098600},{"NoteNumber":77,"Velocity":46,"Duration":65893,"SoundDuration":65893,"Delta":286164493},{"NoteNumber":75,"Velocity":50,"Duration":65893,"SoundDuration":65893,"Delta":286230387},{"NoteNumber":77,"Velocity":50,"Duration":65893,"SoundDuration":65893,"Delta":286296280},{"NoteNumber":75,"Velocity":45,"Duration":65893,"SoundDuration":65893,"Delta":286362174},{"NoteNumber":74,"Velocity":55,"Duration":196283,"SoundDuration":196283,"Delta":286428067},{"NoteNumber":75,"Velocity":55,"Duration":278706,"SoundDuration":278706,"Delta":286624351},{"NoteNumber":39,"Velocity":36,"Duration":854579,"SoundDuration":854579,"Delta":286903058},{"NoteNumber":63,"Velocity":72,"Duration":344220,"SoundDuration":344220,"Delta":288612216},{"NoteNumber":60,"Velocity":66,"Duration":114740,"SoundDuration":114740,"Delta":288956436},{"NoteNumber":68,"Velocity":72,"Duration":344220,"SoundDuration":344220,"Delta":289071177},{"NoteNumber":44,"Velocity":49,"Duration":458960,"SoundDuration":458960,"Delta":289071177},{"NoteNumber":56,"Velocity":58,"Duration":458960,"SoundDuration":458960,"Delta":289071177},{"NoteNumber":68,"Velocity":65,"Duration":114740,"SoundDuration":114740,"Delta":289415397},{"NoteNumber":68,"Velocity":72,"Duration":57370,"SoundDuration":57370,"Delta":289530138},{"NoteNumber":70,"Velocity":62,"Duration":57370,"SoundDuration":57370,"Delta":289587508},{"NoteNumber":68,"Velocity":72,"Duration":57370,"SoundDuration":57370,"Delta":289644878},{"NoteNumber":70,"Velocity":58,"Duration":57370,"SoundDuration":57370,"Delta":289702248},{"NoteNumber":68,"Velocity":69,"Duration":38246,"SoundDuration":38246,"Delta":289759618},{"NoteNumber":70,"Velocity":59,"Duration":38246,"SoundDuration":38246,"Delta":289797865},{"NoteNumber":68,"Velocity":69,"Duration":38246,"SoundDuration":38246,"Delta":289836112},{"NoteNumber":67,"Velocity":65,"Duration":57370,"SoundDuration":57370,"Delta":289874358},{"NoteNumber":68,"Velocity":58,"Duration":57370,"SoundDuration":57370,"Delta":289931729},{"NoteNumber":70,"Velocity":72,"Duration":458960,"SoundDuration":458960,"Delta":289989099},{"NoteNumber":43,"Velocity":49,"Duration":458960,"SoundDuration":458960,"Delta":289989099},{"NoteNumber":55,"Velocity":58,"Duration":458960,"SoundDuration":458960,"Delta":289989099},{"NoteNumber":63,"Velocity":72,"Duration":344220,"SoundDuration":344220,"Delta":290448060},{"NoteNumber":75,"Velocity":68,"Duration":121467,"SoundDuration":121467,"Delta":290792280},{"NoteNumber":73,"Velocity":82,"Duration":913659,"SoundDuration":913659,"Delta":290913748},{"NoteNumber":44,"Velocity":47,"Duration":456829,"SoundDuration":456829,"Delta":291370578},{"NoteNumber":72,"Velocity":72,"Duration":171311,"SoundDuration":171311,"Delta":291827408},{"NoteNumber":56,"Velocity":58,"Duration":171311,"SoundDuration":171311,"Delta":291827408},{"NoteNumber":68,"Velocity":49,"Duration":342622,"SoundDuration":342622,"Delta":292284238},{"NoteNumber":77,"Velocity":44,"Duration":119942,"SoundDuration":119942,"Delta":292626860},{"NoteNumber":75,"Velocity":55,"Duration":913659,"SoundDuration":913659,"Delta":292746803},{"NoteNumber":58,"Velocity":31,"Duration":456829,"SoundDuration":456829,"Delta":293203633},{"NoteNumber":73,"Velocity":49,"Duration":171311,"SoundDuration":171311,"Delta":293660463},{"NoteNumber":55,"Velocity":39,"Duration":171311,"SoundDuration":171311,"Delta":293660463},{"NoteNumber":63,"Velocity":72,"Duration":342622,"SoundDuration":342622,"Delta":294117293},{"NoteNumber":75,"Velocity":68,"Duration":114207,"SoundDuration":114207,"Delta":294459915},{"NoteNumber":73,"Velocity":82,"Duration":913659,"SoundDuration":913659,"Delta":294574123},{"NoteNumber":56,"Velocity":47,"Duration":456829,"SoundDuration":456829,"Delta":295030953},{"NoteNumber":72,"Velocity":72,"Duration":175507,"SoundDuration":175507,"Delta":295487783},{"NoteNumber":44,"Velocity":58,"Duration":175507,"SoundDuration":175507,"Delta":295487783},{"NoteNumber":80,"Velocity":81,"Duration":341245,"SoundDuration":341245,"Delta":295955802},{"NoteNumber":48,"Velocity":52,"Duration":454993,"SoundDuration":454993,"Delta":295955802},{"NoteNumber":72,"Velocity":68,"Duration":113748,"SoundDuration":113748,"Delta":296297047},{"NoteNumber":70,"Velocity":79,"Duration":341245,"SoundDuration":341245,"Delta":296410796},{"NoteNumber":49,"Velocity":58,"Duration":909987,"SoundDuration":909987,"Delta":296410796},{"NoteNumber":70,"Velocity":65,"Duration":113748,"SoundDuration":113748,"Delta":296752041},{"NoteNumber":70,"Velocity":72,"Duration":56874,"SoundDuration":56874,"Delta":296865790},{"NoteNumber":72,"Velocity":62,"Duration":56874,"SoundDuration":56874,"Delta":296922664},{"NoteNumber":70,"Velocity":72,"Duration":56874,"SoundDuration":56874,"Delta":296979538},{"NoteNumber":72,"Velocity":58,"Duration":56874,"SoundDuration":56874,"Delta":297036412},{"NoteNumber":70,"Velocity":69,"Duration":37916,"SoundDuration":37916,"Delta":297093287},{"NoteNumber":72,"Velocity":59,"Duration":37916,"SoundDuration":37916,"Delta":297131203},{"NoteNumber":70,"Velocity":69,"Duration":37916,"SoundDuration":37916,"Delta":297169119},{"NoteNumber":69,"Velocity":65,"Duration":56874,"SoundDuration":56874,"Delta":297207035},{"NoteNumber":70,"Velocity":58,"Duration":56874,"SoundDuration":56874,"Delta":297263909},{"NoteNumber":73,"Velocity":78,"Duration":341245,"SoundDuration":341245,"Delta":297320784},{"NoteNumber":70,"Velocity":71,"Duration":113748,"SoundDuration":113748,"Delta":297662029},{"NoteNumber":67,"Velocity":79,"Duration":343983,"SoundDuration":343983,"Delta":297775778},{"NoteNumber":51,"Velocity":52,"Duration":465451,"SoundDuration":465451,"Delta":297775778},{"NoteNumber":63,"Velocity":72,"Duration":121467,"SoundDuration":121467,"Delta":298119761},{"NoteNumber":68,"Velocity":81,"Duration":341245,"SoundDuration":341245,"Delta":298241229},{"NoteNumber":44,"Velocity":47,"Duration":113748,"SoundDuration":113748,"Delta":298582474},{"NoteNumber":48,"Velocity":58,"Duration":341245,"SoundDuration":341245,"Delta":298696223},{"NoteNumber":51,"Velocity":52,"Duration":113748,"SoundDuration":113748,"Delta":299037468},{"NoteNumber":56,"Velocity":59,"Duration":341245,"SoundDuration":341245,"Delta":299151217},{"NoteNumber":63,"Velocity":72,"Duration":341245,"SoundDuration":341245,"Delta":299606211},{"NoteNumber":60,"Velocity":66,"Duration":113748,"SoundDuration":113748,"Delta":299947456},{"NoteNumber":68,"Velocity":72,"Duration":341245,"SoundDuration":341245,"Delta":300061205},{"NoteNumber":56,"Velocity":49,"Duration":454993,"SoundDuration":454993,"Delta":300061205},{"NoteNumber":60,"Velocity":58,"Duration":454993,"SoundDuration":454993,"Delta":300061205},{"NoteNumber":68,"Velocity":65,"Duration":113748,"SoundDuration":113748,"Delta":300402450},{"NoteNumber":68,"Velocity":72,"Duration":56874,"SoundDuration":56874,"Delta":300516199},{"NoteNumber":70,"Velocity":62,"Duration":56874,"SoundDuration":56874,"Delta":300573073},{"NoteNumber":68,"Velocity":72,"Duration":56874,"SoundDuration":56874,"Delta":300629947},{"NoteNumber":70,"Velocity":58,"Duration":56874,"SoundDuration":56874,"Delta":300686821},{"NoteNumber":68,"Velocity":69,"Duration":37916,"SoundDuration":37916,"Delta":300743696},{"NoteNumber":70,"Velocity":59,"Duration":37916,"SoundDuration":37916,"Delta":300781612},{"NoteNumber":68,"Velocity":69,"Duration":37916,"SoundDuration":37916,"Delta":300819528},{"NoteNumber":67,"Velocity":65,"Duration":56874,"SoundDuration":56874,"Delta":300857444},{"NoteNumber":68,"Velocity":58,"Duration":56874,"SoundDuration":56874,"Delta":300914318},{"NoteNumber":70,"Velocity":72,"Duration":468019,"SoundDuration":468019,"Delta":300971193},{"NoteNumber":55,"Velocity":49,"Duration":468019,"SoundDuration":468019,"Delta":300971193},{"NoteNumber":58,"Velocity":58,"Duration":468019,"SoundDuration":468019,"Delta":300971193},{"NoteNumber":63,"Velocity":72,"Duration":343983,"SoundDuration":343983,"Delta":301439212},{"NoteNumber":75,"Velocity":68,"Duration":120948,"SoundDuration":120948,"Delta":301783195},{"NoteNumber":73,"Velocity":82,"Duration":920951,"SoundDuration":920951,"Delta":301904144},{"NoteNumber":44,"Velocity":47,"Duration":460475,"SoundDuration":460475,"Delta":302364620},{"NoteNumber":72,"Velocity":72,"Duration":172678,"SoundDuration":172678,"Delta":302825096},{"NoteNumber":56,"Velocity":58,"Duration":460476,"SoundDuration":460476,"Delta":302825096},{"NoteNumber":68,"Velocity":76,"Duration":338574,"SoundDuration":338574,"Delta":303285572},{"NoteNumber":60,"Velocity":58,"Duration":458010,"SoundDuration":458010,"Delta":303285572},{"NoteNumber":80,"Velocity":69,"Duration":119436,"SoundDuration":119436,"Delta":303624146},{"NoteNumber":79,"Velocity":79,"Duration":460476,"SoundDuration":460476,"Delta":303743583},{"NoteNumber":77,"Velocity":68,"Duration":113301,"SoundDuration":113301,"Delta":304204059},{"NoteNumber":61,"Velocity":58,"Duration":113301,"SoundDuration":113301,"Delta":304204059},{"NoteNumber":80,"Velocity":78,"Duration":120443,"SoundDuration":120443,"Delta":304543963},{"NoteNumber":77,"Velocity":73,"Duration":460476,"SoundDuration":460476,"Delta":304664406},{"NoteNumber":75,"Velocity":76,"Duration":112410,"SoundDuration":112410,"Delta":305124882},{"NoteNumber":60,"Velocity":58,"Duration":112410,"SoundDuration":112410,"Delta":305124882},{"NoteNumber":80,"Velocity":69,"Duration":119436,"SoundDuration":119436,"Delta":305462112},{"NoteNumber":75,"Velocity":79,"Duration":460476,"SoundDuration":460476,"Delta":305581549},{"NoteNumber":73,"Velocity":68,"Duration":112858,"SoundDuration":112858,"Delta":306042025},{"NoteNumber":58,"Velocity":58,"Duration":112858,"SoundDuration":112858,"Delta":306042025},{"NoteNumber":80,"Velocity":78,"Duration":121981,"SoundDuration":121981,"Delta":306380599},{"NoteNumber":73,"Velocity":73,"Duration":460476,"SoundDuration":460476,"Delta":306502580},{"NoteNumber":72,"Velocity":76,"Duration":112410,"SoundDuration":112410,"Delta":306963056},{"NoteNumber":56,"Velocity":58,"Duration":112410,"SoundDuration":112410,"Delta":306963056},{"NoteNumber":80,"Velocity":69,"Duration":119942,"SoundDuration":119942,"Delta":307300286},{"NoteNumber":72,"Velocity":74,"Duration":345356,"SoundDuration":345356,"Delta":307420229},{"NoteNumber":70,"Velocity":66,"Duration":115119,"SoundDuration":115119,"Delta":307765586},{"NoteNumber":73,"Velocity":73,"Duration":345356,"SoundDuration":345356,"Delta":307880705},{"NoteNumber":61,"Velocity":49,"Duration":460475,"SoundDuration":460475,"Delta":307880705},{"NoteNumber":49,"Velocity":49,"Duration":460475,"SoundDuration":460475,"Delta":307880705},{"NoteNumber":77,"Velocity":66,"Duration":115118,"SoundDuration":115118,"Delta":308226062},{"NoteNumber":75,"Velocity":76,"Duration":466092,"SoundDuration":466092,"Delta":308341181},{"NoteNumber":51,"Velocity":58,"Duration":949884,"SoundDuration":949884,"Delta":308341181},{"NoteNumber":60,"Velocity":58,"Duration":466092,"SoundDuration":466092,"Delta":308341181},{"NoteNumber":67,"Velocity":69,"Duration":453555,"SoundDuration":453555,"Delta":308807273},{"NoteNumber":58,"Velocity":55,"Duration":483792,"SoundDuration":483792,"Delta":308807273},{"NoteNumber":67,"Velocity":46,"Duration":30237,"SoundDuration":30237,"Delta":309260829},{"NoteNumber":68,"Velocity":73,"Duration":113438,"SoundDuration":113438,"Delta":309291066},{"NoteNumber":56,"Velocity":55,"Duration":151251,"SoundDuration":151251,"Delta":309291066},{"NoteNumber":60,"Velocity":47,"Duration":151251,"SoundDuration":151251,"Delta":309442318},{"NoteNumber":63,"Velocity":47,"Duration":151251,"SoundDuration":151251,"Delta":309593569},{"NoteNumber":67,"Velocity":53,"Duration":28359,"SoundDuration":28359,"Delta":309716461},{"NoteNumber":68,"Velocity":73,"Duration":112166,"SoundDuration":112166,"Delta":309744821},{"NoteNumber":56,"Velocity":55,"Duration":149555,"SoundDuration":149555,"Delta":309744821},{"NoteNumber":60,"Velocity":47,"Duration":149554,"SoundDuration":149554,"Delta":309894376},{"NoteNumber":63,"Velocity":49,"Duration":149555,"SoundDuration":149555,"Delta":310043931},{"NoteNumber":67,"Velocity":55,"Duration":28041,"SoundDuration":28041,"Delta":310165444},{"NoteNumber":68,"Velocity":73,"Duration":112410,"SoundDuration":112410,"Delta":310193486},{"NoteNumber":56,"Velocity":55,"Duration":149879,"SoundDuration":149879,"Delta":310193486},{"NoteNumber":60,"Velocity":50,"Duration":148345,"SoundDuration":148345,"Delta":310343366},{"NoteNumber":63,"Velocity":50,"Duration":146810,"SoundDuration":146810,"Delta":310491711},{"NoteNumber":69,"Velocity":55,"Duration":27527,"SoundDuration":27527,"Delta":310610995},{"NoteNumber":70,"Velocity":79,"Duration":110108,"SoundDuration":110108,"Delta":310638522},{"NoteNumber":55,"Velocity":55,"Duration":146810,"SoundDuration":146810,"Delta":310638522},{"NoteNumber":58,"Velocity":52,"Duration":146810,"SoundDuration":146810,"Delta":310785333},{"NoteNumber":63,"Velocity":52,"Duration":161264,"SoundDuration":161264,"Delta":310932143},{"NoteNumber":71,"Velocity":76,"Duration":469924,"SoundDuration":469924,"Delta":311093408},{"NoteNumber":56,"Velocity":55,"Duration":156641,"SoundDuration":156641,"Delta":311093408},{"NoteNumber":60,"Velocity":47,"Duration":156641,"SoundDuration":156641,"Delta":311250049},{"NoteNumber":63,"Velocity":47,"Duration":156641,"SoundDuration":156641,"Delta":311406691},{"NoteNumber":72,"Velocity":69,"Duration":456830,"SoundDuration":456830,"Delta":311563333},{"NoteNumber":56,"Velocity":55,"Duration":152276,"SoundDuration":152276,"Delta":311563333},{"NoteNumber":60,"Velocity":47,"Duration":152276,"SoundDuration":152276,"Delta":311715609},{"NoteNumber":63,"Velocity":37,"Duration":152276,"SoundDuration":152276,"Delta":311867886},{"NoteNumber":68,"Velocity":61,"Duration":923339,"SoundDuration":923339,"Delta":312020163},{"NoteNumber":56,"Velocity":50,"Duration":152276,"SoundDuration":152276,"Delta":312020163},{"NoteNumber":60,"Velocity":41,"Duration":152276,"SoundDuration":152276,"Delta":312172439},{"NoteNumber":63,"Velocity":41,"Duration":152276,"SoundDuration":152276,"Delta":312324716},{"NoteNumber":56,"Velocity":50,"Duration":152276,"SoundDuration":152276,"Delta":312476993},{"NoteNumber":60,"Velocity":46,"Duration":152276,"SoundDuration":152276,"Delta":312629269},{"NoteNumber":63,"Velocity":46,"Duration":161956,"SoundDuration":161956,"Delta":312781546},{"NoteNumber":71,"Velocity":46,"Duration":30366,"SoundDuration":30366,"Delta":312913135},{"NoteNumber":72,"Velocity":73,"Duration":114207,"SoundDuration":114207,"Delta":312943502},{"NoteNumber":56,"Velocity":55,"Duration":152276,"SoundDuration":152276,"Delta":312943502},{"NoteNumber":60,"Velocity":47,"Duration":152276,"SoundDuration":152276,"Delta":313095779},{"NoteNumber":63,"Velocity":47,"Duration":152276,"SoundDuration":152276,"Delta":313248056},{"NoteNumber":71,"Velocity":53,"Duration":28551,"SoundDuration":28551,"Delta":313371780},{"NoteNumber":72,"Velocity":73,"Duration":111333,"SoundDuration":111333,"Delta":313400332},{"NoteNumber":56,"Velocity":55,"Duration":148444,"SoundDuration":148444,"Delta":313400332},{"NoteNumber":60,"Velocity":47,"Duration":148445,"SoundDuration":148445,"Delta":313548777},{"NoteNumber":63,"Velocity":49,"Duration":148444,"SoundDuration":148444,"Delta":313697222},{"NoteNumber":71,"Velocity":55,"Duration":27833,"SoundDuration":27833,"Delta":313817834},{"NoteNumber":72,"Velocity":73,"Duration":109705,"SoundDuration":109705,"Delta":313845667},{"NoteNumber":56,"Velocity":55,"Duration":146273,"SoundDuration":146273,"Delta":313845667},{"NoteNumber":60,"Velocity":50,"Duration":146273,"SoundDuration":146273,"Delta":313991941},{"NoteNumber":63,"Velocity":50,"Duration":146273,"SoundDuration":146273,"Delta":314138215},{"NoteNumber":75,"Velocity":79,"Duration":109705,"SoundDuration":109705,"Delta":314284488},{"NoteNumber":58,"Velocity":55,"Duration":146273,"SoundDuration":146273,"Delta":314284488},{"NoteNumber":73,"Velocity":71,"Duration":109705,"SoundDuration":109705,"Delta":314394194},{"NoteNumber":61,"Velocity":52,"Duration":146273,"SoundDuration":146273,"Delta":314430762},{"NoteNumber":72,"Velocity":76,"Duration":114147,"SoundDuration":114147,"Delta":314503899},{"NoteNumber":67,"Velocity":52,"Duration":164041,"SoundDuration":164041,"Delta":314577036},{"NoteNumber":73,"Velocity":69,"Duration":123031,"SoundDuration":123031,"Delta":314618046},{"NoteNumber":75,"Velocity":79,"Duration":906411,"SoundDuration":906411,"Delta":314741078},{"NoteNumber":60,"Velocity":55,"Duration":151068,"SoundDuration":151068,"Delta":314741078},{"NoteNumber":63,"Velocity":47,"Duration":151068,"SoundDuration":151068,"Delta":314892146},{"NoteNumber":68,"Velocity":47,"Duration":151068,"SoundDuration":151068,"Delta":315043215},{"NoteNumber":60,"Velocity":55,"Duration":151068,"SoundDuration":151068,"Delta":315194284},{"NoteNumber":63,"Velocity":47,"Duration":151068,"SoundDuration":151068,"Delta":315345352},{"NoteNumber":68,"Velocity":39,"Duration":151068,"SoundDuration":151068,"Delta":315496421},{"NoteNumber":72,"Velocity":68,"Duration":906411,"SoundDuration":906411,"Delta":315647490},{"NoteNumber":60,"Velocity":52,"Duration":151068,"SoundDuration":151068,"Delta":315647490},{"NoteNumber":63,"Velocity":43,"Duration":151068,"SoundDuration":151068,"Delta":315798558},{"NoteNumber":68,"Velocity":43,"Duration":151068,"SoundDuration":151068,"Delta":315949627},{"NoteNumber":60,"Velocity":53,"Duration":151068,"SoundDuration":151068,"Delta":316100696},{"NoteNumber":63,"Velocity":44,"Duration":151068,"SoundDuration":151068,"Delta":316251764},{"NoteNumber":68,"Velocity":44,"Duration":151068,"SoundDuration":151068,"Delta":316402833},{"NoteNumber":80,"Velocity":92,"Duration":438563,"SoundDuration":438563,"Delta":316553902},{"NoteNumber":60,"Velocity":55,"Duration":149298,"SoundDuration":149298,"Delta":316553902},{"NoteNumber":63,"Velocity":47,"Duration":149298,"SoundDuration":149298,"Delta":316703200},{"NoteNumber":68,"Velocity":47,"Duration":149298,"SoundDuration":149298,"Delta":316852498},{"NoteNumber":80,"Velocity":85,"Duration":145878,"SoundDuration":145878,"Delta":317001797},{"NoteNumber":60,"Velocity":55,"Duration":145878,"SoundDuration":145878,"Delta":317001797},{"NoteNumber":84,"Velocity":72,"Duration":145879,"SoundDuration":145879,"Delta":317147676},{"NoteNumber":63,"Velocity":47,"Duration":145879,"SoundDuration":145879,"Delta":317147676},{"NoteNumber":87,"Velocity":72,"Duration":145878,"SoundDuration":145878,"Delta":317293555},{"NoteNumber":68,"Velocity":39,"Duration":145878,"SoundDuration":145878,"Delta":317293555},{"NoteNumber":78,"Velocity":82,"Duration":902866,"SoundDuration":902866,"Delta":317439434},{"NoteNumber":60,"Velocity":46,"Duration":150477,"SoundDuration":150477,"Delta":317439434},{"NoteNumber":63,"Velocity":36,"Duration":150477,"SoundDuration":150477,"Delta":317589911},{"NoteNumber":68,"Velocity":36,"Duration":150477,"SoundDuration":150477,"Delta":317740389},{"NoteNumber":60,"Velocity":47,"Duration":150477,"SoundDuration":150477,"Delta":317890867},{"NoteNumber":63,"Velocity":40,"Duration":150477,"SoundDuration":150477,"Delta":318041344},{"NoteNumber":68,"Velocity":40,"Duration":150477,"SoundDuration":150477,"Delta":318191822},{"NoteNumber":77,"Velocity":92,"Duration":430150,"SoundDuration":430150,"Delta":318342300},{"NoteNumber":61,"Velocity":55,"Duration":146434,"SoundDuration":146434,"Delta":318342300},{"NoteNumber":65,"Velocity":47,"Duration":146434,"SoundDuration":146434,"Delta":318488734},{"NoteNumber":68,"Velocity":47,"Duration":146434,"SoundDuration":146434,"Delta":318635168},{"NoteNumber":77,"Velocity":85,"Duration":144227,"SoundDuration":144227,"Delta":318781603},{"NoteNumber":61,"Velocity":55,"Duration":144227,"SoundDuration":144227,"Delta":318781603},{"NoteNumber":82,"Velocity":72,"Duration":144227,"SoundDuration":144227,"Delta":318925830},{"NoteNumber":65,"Velocity":47,"Duration":144227,"SoundDuration":144227,"Delta":318925830},{"NoteNumber":85,"Velocity":72,"Duration":144227,"SoundDuration":144227,"Delta":319070057},{"NoteNumber":68,"Velocity":39,"Duration":144227,"SoundDuration":144227,"Delta":319070057},{"NoteNumber":75,"Velocity":82,"Duration":671084,"SoundDuration":671084,"Delta":319214285},{"NoteNumber":61,"Velocity":49,"Duration":150477,"SoundDuration":150477,"Delta":319214285},{"NoteNumber":63,"Velocity":39,"Duration":150477,"SoundDuration":150477,"Delta":319364762},{"NoteNumber":67,"Velocity":39,"Duration":150477,"SoundDuration":150477,"Delta":319515240},{"NoteNumber":61,"Velocity":50,"Duration":146434,"SoundDuration":146434,"Delta":319665718},{"NoteNumber":63,"Velocity":44,"Duration":146434,"SoundDuration":146434,"Delta":319812152},{"NoteNumber":77,"Velocity":75,"Duration":109825,"SoundDuration":109825,"Delta":319885369},{"NoteNumber":67,"Velocity":44,"Duration":146434,"SoundDuration":146434,"Delta":319958586},{"NoteNumber":79,"Velocity":82,"Duration":109825,"SoundDuration":109825,"Delta":319995195},{"NoteNumber":80,"Velocity":94,"Duration":438563,"SoundDuration":438563,"Delta":320105021},{"NoteNumber":60,"Velocity":55,"Duration":149298,"SoundDuration":149298,"Delta":320105021},{"NoteNumber":63,"Velocity":47,"Duration":149298,"SoundDuration":149298,"Delta":320254319},{"NoteNumber":68,"Velocity":47,"Duration":149298,"SoundDuration":149298,"Delta":320403617},{"NoteNumber":80,"Velocity":81,"Duration":145878,"SoundDuration":145878,"Delta":320552916},{"NoteNumber":60,"Velocity":55,"Duration":145878,"SoundDuration":145878,"Delta":320552916},{"NoteNumber":82,"Velocity":72,"Duration":145879,"SoundDuration":145879,"Delta":320698795},{"NoteNumber":63,"Velocity":47,"Duration":145879,"SoundDuration":145879,"Delta":320698795},{"NoteNumber":84,"Velocity":66,"Duration":145878,"SoundDuration":145878,"Delta":320844674},{"NoteNumber":68,"Velocity":39,"Duration":145878,"SoundDuration":145878,"Delta":320844674},{"NoteNumber":73,"Velocity":84,"Duration":904808,"SoundDuration":904808,"Delta":320990553},{"NoteNumber":58,"Velocity":52,"Duration":148721,"SoundDuration":148721,"Delta":320990553},{"NoteNumber":61,"Velocity":43,"Duration":148720,"SoundDuration":148720,"Delta":321139274},{"NoteNumber":67,"Velocity":43,"Duration":148721,"SoundDuration":148721,"Delta":321287995},{"NoteNumber":58,"Velocity":53,"Duration":152881,"SoundDuration":152881,"Delta":321436716},{"NoteNumber":61,"Velocity":44,"Duration":152881,"SoundDuration":152881,"Delta":321589597},{"NoteNumber":67,"Velocity":44,"Duration":152881,"SoundDuration":152881,"Delta":321742479},{"NoteNumber":72,"Velocity":81,"Duration":152881,"SoundDuration":152881,"Delta":321895361},{"NoteNumber":56,"Velocity":55,"Duration":458644,"SoundDuration":458644,"Delta":321895361},{"NoteNumber":75,"Velocity":71,"Duration":152881,"SoundDuration":152881,"Delta":322048242},{"NoteNumber":73,"Velocity":71,"Duration":152881,"SoundDuration":152881,"Delta":322201124},{"NoteNumber":72,"Velocity":66,"Duration":152881,"SoundDuration":152881,"Delta":322354006},{"NoteNumber":84,"Velocity":78,"Duration":146785,"SoundDuration":146785,"Delta":322506887},{"NoteNumber":82,"Velocity":71,"Duration":146844,"SoundDuration":146844,"Delta":322653673},{"NoteNumber":80,"Velocity":71,"Duration":147431,"SoundDuration":147431,"Delta":322800517},{"NoteNumber":79,"Velocity":78,"Duration":148020,"SoundDuration":148020,"Delta":322947948},{"NoteNumber":77,"Velocity":68,"Duration":148626,"SoundDuration":148626,"Delta":323095968},{"NoteNumber":75,"Velocity":79,"Duration":149226,"SoundDuration":149226,"Delta":323244594},{"NoteNumber":73,"Velocity":71,"Duration":149832,"SoundDuration":149832,"Delta":323393821},{"NoteNumber":72,"Velocity":71,"Duration":150451,"SoundDuration":150451,"Delta":323543653},{"NoteNumber":75,"Velocity":81,"Duration":355365,"SoundDuration":355365,"Delta":323694105},{"NoteNumber":72,"Velocity":58,"Duration":118455,"SoundDuration":118455,"Delta":324049471},{"NoteNumber":70,"Velocity":70,"Duration":704561,"SoundDuration":704561,"Delta":324167926},{"NoteNumber":63,"Velocity":39,"Duration":473820,"SoundDuration":473820,"Delta":324167926},{"NoteNumber":67,"Velocity":46,"Duration":473820,"SoundDuration":473820,"Delta":324167926},{"NoteNumber":73,"Velocity":55,"Duration":230575,"SoundDuration":230575,"Delta":324872487},{"NoteNumber":72,"Velocity":60,"Duration":227912,"SoundDuration":227912,"Delta":325103063},{"NoteNumber":75,"Velocity":54,"Duration":227738,"SoundDuration":227738,"Delta":325330975},{"NoteNumber":75,"Velocity":63,"Duration":227582,"SoundDuration":227582,"Delta":325558714},{"NoteNumber":51,"Velocity":42,"Duration":151722,"SoundDuration":151722,"Delta":325558714},{"NoteNumber":55,"Velocity":35,"Duration":153791,"SoundDuration":153791,"Delta":325710436},{"NoteNumber":73,"Velocity":53,"Duration":214307,"SoundDuration":214307,"Delta":325786297},{"NoteNumber":58,"Velocity":35,"Duration":155860,"SoundDuration":155860,"Delta":325864227},{"NoteNumber":73,"Velocity":59,"Duration":933346,"SoundDuration":933346,"Delta":326020087},{"NoteNumber":51,"Velocity":40,"Duration":155860,"SoundDuration":155860,"Delta":326020087},{"NoteNumber":55,"Velocity":31,"Duration":155860,"SoundDuration":155860,"Delta":326175948},{"NoteNumber":58,"Velocity":31,"Duration":155860,"SoundDuration":155860,"Delta":326331808},{"NoteNumber":51,"Velocity":37,"Duration":155255,"SoundDuration":155255,"Delta":326487668},{"NoteNumber":55,"Velocity":33,"Duration":155255,"SoundDuration":155255,"Delta":326642924},{"NoteNumber":58,"Velocity":33,"Duration":155255,"SoundDuration":155255,"Delta":326798179},{"NoteNumber":72,"Velocity":57,"Duration":151722,"SoundDuration":151722,"Delta":326953434},{"NoteNumber":51,"Velocity":42,"Duration":151722,"SoundDuration":151722,"Delta":326953434},{"NoteNumber":70,"Velocity":52,"Duration":151721,"SoundDuration":151721,"Delta":327105156},{"NoteNumber":56,"Velocity":35,"Duration":151721,"SoundDuration":151721,"Delta":327105156},{"NoteNumber":68,"Velocity":52,"Duration":150446,"SoundDuration":150446,"Delta":327256878},{"NoteNumber":60,"Velocity":35,"Duration":171939,"SoundDuration":171939,"Delta":327256878},{"NoteNumber":68,"Velocity":61,"Duration":227582,"SoundDuration":227582,"Delta":327428818},{"NoteNumber":51,"Velocity":42,"Duration":151722,"SoundDuration":151722,"Delta":327428818},{"NoteNumber":58,"Velocity":35,"Duration":153791,"SoundDuration":153791,"Delta":327580540},{"NoteNumber":67,"Velocity":50,"Duration":214307,"SoundDuration":214307,"Delta":327656401},{"NoteNumber":61,"Velocity":35,"Duration":155860,"SoundDuration":155860,"Delta":327734331},{"NoteNumber":67,"Velocity":60,"Duration":933346,"SoundDuration":933346,"Delta":327890191},{"NoteNumber":51,"Velocity":40,"Duration":155860,"SoundDuration":155860,"Delta":327890191},{"NoteNumber":58,"Velocity":31,"Duration":155860,"SoundDuration":155860,"Delta":328046052},{"NoteNumber":61,"Velocity":31,"Duration":155860,"SoundDuration":155860,"Delta":328201912},{"NoteNumber":51,"Velocity":37,"Duration":155255,"SoundDuration":155255,"Delta":328357772},{"NoteNumber":58,"Velocity":33,"Duration":155255,"SoundDuration":155255,"Delta":328513028},{"NoteNumber":61,"Velocity":33,"Duration":155255,"SoundDuration":155255,"Delta":328668283},{"NoteNumber":68,"Velocity":57,"Duration":455166,"SoundDuration":455166,"Delta":328823538},{"NoteNumber":51,"Velocity":42,"Duration":151722,"SoundDuration":151722,"Delta":328823538},{"NoteNumber":56,"Velocity":35,"Duration":151722,"SoundDuration":151722,"Delta":328975260},{"NoteNumber":60,"Velocity":35,"Duration":151722,"SoundDuration":151722,"Delta":329126982},{"NoteNumber":70,"Velocity":63,"Duration":151722,"SoundDuration":151722,"Delta":329278704},{"NoteNumber":51,"Velocity":42,"Duration":151722,"SoundDuration":151722,"Delta":329278704},{"NoteNumber":72,"Velocity":61,"Duration":153791,"SoundDuration":153791,"Delta":329430426},{"NoteNumber":55,"Velocity":35,"Duration":153791,"SoundDuration":153791,"Delta":329430426},{"NoteNumber":73,"Velocity":63,"Duration":136377,"SoundDuration":136377,"Delta":329584217},{"NoteNumber":58,"Velocity":35,"Duration":155860,"SoundDuration":155860,"Delta":329584217},{"NoteNumber":73,"Velocity":59,"Duration":933346,"SoundDuration":933346,"Delta":329740078},{"NoteNumber":51,"Velocity":40,"Duration":155860,"SoundDuration":155860,"Delta":329740078},{"NoteNumber":55,"Velocity":31,"Duration":155860,"SoundDuration":155860,"Delta":329895938},{"NoteNumber":58,"Velocity":31,"Duration":155860,"SoundDuration":155860,"Delta":330051798},{"NoteNumber":51,"Velocity":37,"Duration":155255,"SoundDuration":155255,"Delta":330207659},{"NoteNumber":55,"Velocity":33,"Duration":155255,"SoundDuration":155255,"Delta":330362914},{"NoteNumber":58,"Velocity":33,"Duration":155255,"SoundDuration":155255,"Delta":330518169},{"NoteNumber":72,"Velocity":57,"Duration":151722,"SoundDuration":151722,"Delta":330673425},{"NoteNumber":51,"Velocity":42,"Duration":151722,"SoundDuration":151722,"Delta":330673425},{"NoteNumber":70,"Velocity":52,"Duration":151721,"SoundDuration":151721,"Delta":330825147},{"NoteNumber":56,"Velocity":35,"Duration":151721,"SoundDuration":151721,"Delta":330825147},{"NoteNumber":68,"Velocity":52,"Duration":150446,"SoundDuration":150446,"Delta":330976869},{"NoteNumber":60,"Velocity":35,"Duration":171939,"SoundDuration":171939,"Delta":330976869},{"NoteNumber":68,"Velocity":61,"Duration":227582,"SoundDuration":227582,"Delta":331148808},{"NoteNumber":51,"Velocity":42,"Duration":151722,"SoundDuration":151722,"Delta":331148808},{"NoteNumber":58,"Velocity":35,"Duration":153791,"SoundDuration":153791,"Delta":331300530},{"NoteNumber":67,"Velocity":50,"Duration":214307,"SoundDuration":214307,"Delta":331376391},{"NoteNumber":61,"Velocity":35,"Duration":155860,"SoundDuration":155860,"Delta":331454321},{"NoteNumber":67,"Velocity":60,"Duration":933346,"SoundDuration":933346,"Delta":331610182},{"NoteNumber":51,"Velocity":40,"Duration":155860,"SoundDuration":155860,"Delta":331610182},{"NoteNumber":58,"Velocity":31,"Duration":155860,"SoundDuration":155860,"Delta":331766042},{"NoteNumber":61,"Velocity":31,"Duration":155860,"SoundDuration":155860,"Delta":331921902},{"NoteNumber":51,"Velocity":37,"Duration":155255,"SoundDuration":155255,"Delta":332077763},{"NoteNumber":58,"Velocity":33,"Duration":155255,"SoundDuration":155255,"Delta":332233018},{"NoteNumber":61,"Velocity":33,"Duration":155255,"SoundDuration":155255,"Delta":332388273},{"NoteNumber":68,"Velocity":57,"Duration":455166,"SoundDuration":455166,"Delta":332543529},{"NoteNumber":51,"Velocity":42,"Duration":151722,"SoundDuration":151722,"Delta":332543529},{"NoteNumber":56,"Velocity":35,"Duration":151722,"SoundDuration":151722,"Delta":332695251},{"NoteNumber":60,"Velocity":35,"Duration":151722,"SoundDuration":151722,"Delta":332846973},{"NoteNumber":70,"Velocity":63,"Duration":151722,"SoundDuration":151722,"Delta":332998695},{"NoteNumber":51,"Velocity":42,"Duration":151722,"SoundDuration":151722,"Delta":332998695},{"NoteNumber":72,"Velocity":63,"Duration":153791,"SoundDuration":153791,"Delta":333150417},{"NoteNumber":55,"Velocity":35,"Duration":153791,"SoundDuration":153791,"Delta":333150417},{"NoteNumber":73,"Velocity":63,"Duration":136377,"SoundDuration":136377,"Delta":333304208},{"NoteNumber":58,"Velocity":35,"Duration":155860,"SoundDuration":155860,"Delta":333304208},{"NoteNumber":73,"Velocity":59,"Duration":933346,"SoundDuration":933346,"Delta":333460068},{"NoteNumber":51,"Velocity":40,"Duration":155860,"SoundDuration":155860,"Delta":333460068},{"NoteNumber":55,"Velocity":31,"Duration":155860,"SoundDuration":155860,"Delta":333615928},{"NoteNumber":58,"Velocity":31,"Duration":155860,"SoundDuration":155860,"Delta":333771789},{"NoteNumber":52,"Velocity":41,"Duration":155255,"SoundDuration":155255,"Delta":333927649},{"NoteNumber":55,"Velocity":33,"Duration":155255,"SoundDuration":155255,"Delta":334082904},{"NoteNumber":58,"Velocity":33,"Duration":155255,"SoundDuration":155255,"Delta":334238160},{"NoteNumber":72,"Velocity":57,"Duration":475383,"SoundDuration":475383,"Delta":334393415},{"NoteNumber":53,"Velocity":42,"Duration":151722,"SoundDuration":151722,"Delta":334393415},{"NoteNumber":55,"Velocity":35,"Duration":151721,"SoundDuration":151721,"Delta":334545137},{"NoteNumber":56,"Velocity":35,"Duration":171939,"SoundDuration":171939,"Delta":334696859},{"NoteNumber":70,"Velocity":53,"Duration":152881,"SoundDuration":152881,"Delta":334868798},{"NoteNumber":49,"Velocity":52,"Duration":890588,"SoundDuration":890588,"Delta":334868798},{"NoteNumber":77,"Velocity":67,"Duration":146785,"SoundDuration":146785,"Delta":335021680},{"NoteNumber":75,"Velocity":60,"Duration":146844,"SoundDuration":146844,"Delta":335168466},{"NoteNumber":73,"Velocity":67,"Duration":147431,"SoundDuration":147431,"Delta":335315310},{"NoteNumber":61,"Velocity":38,"Duration":444077,"SoundDuration":444077,"Delta":335315310},{"NoteNumber":72,"Velocity":61,"Duration":148020,"SoundDuration":148020,"Delta":335462741},{"NoteNumber":70,"Velocity":57,"Duration":148626,"SoundDuration":148626,"Delta":335610761},{"NoteNumber":68,"Velocity":69,"Duration":458644,"SoundDuration":458644,"Delta":335759387},{"NoteNumber":60,"Velocity":50,"Duration":458644,"SoundDuration":458644,"Delta":335759387},{"NoteNumber":51,"Velocity":50,"Duration":936390,"SoundDuration":936390,"Delta":335759387},{"NoteNumber":67,"Velocity":57,"Duration":477745,"SoundDuration":477745,"Delta":336218032},{"NoteNumber":58,"Velocity":39,"Duration":477745,"SoundDuration":477745,"Delta":336218032},{"NoteNumber":60,"Velocity":83,"Duration":151251,"SoundDuration":151251,"Delta":336695777},{"NoteNumber":56,"Velocity":70,"Duration":453755,"SoundDuration":453755,"Delta":336695777},{"NoteNumber":63,"Velocity":67,"Duration":151251,"SoundDuration":151251,"Delta":336847029},{"NoteNumber":68,"Velocity":67,"Duration":75625,"SoundDuration":75625,"Delta":336998281},{"NoteNumber":68,"Velocity":72,"Duration":72870,"SoundDuration":72870,"Delta":337149532},{"NoteNumber":68,"Velocity":63,"Duration":72870,"SoundDuration":72870,"Delta":337295273},{"NoteNumber":68,"Velocity":63,"Duration":82829,"SoundDuration":82829,"Delta":337441014},{"NoteNumber":67,"Velocity":82,"Duration":151251,"SoundDuration":151251,"Delta":337606673},{"NoteNumber":51,"Velocity":58,"Duration":453755,"SoundDuration":453755,"Delta":337606673},{"NoteNumber":58,"Velocity":70,"Duration":453755,"SoundDuration":453755,"Delta":337606673},{"NoteNumber":70,"Velocity":67,"Duration":151251,"SoundDuration":151251,"Delta":337757924},{"NoteNumber":73,"Velocity":67,"Duration":75625,"SoundDuration":75625,"Delta":337909176},{"NoteNumber":73,"Velocity":72,"Duration":72870,"SoundDuration":72870,"Delta":338060428},{"NoteNumber":73,"Velocity":65,"Duration":72870,"SoundDuration":72870,"Delta":338206168},{"NoteNumber":73,"Velocity":65,"Duration":82829,"SoundDuration":82829,"Delta":338351909},{"NoteNumber":72,"Velocity":86,"Duration":152404,"SoundDuration":152404,"Delta":338517568},{"NoteNumber":56,"Velocity":65,"Duration":456055,"SoundDuration":456055,"Delta":338517568},{"NoteNumber":60,"Velocity":70,"Duration":456055,"SoundDuration":456055,"Delta":338517568},{"NoteNumber":75,"Velocity":70,"Duration":151825,"SoundDuration":151825,"Delta":338669972},{"NoteNumber":80,"Velocity":70,"Duration":75912,"SoundDuration":75912,"Delta":338821798},{"NoteNumber":80,"Velocity":70,"Duration":73136,"SoundDuration":73136,"Delta":338973624},{"NoteNumber":80,"Velocity":68,"Duration":73136,"SoundDuration":73136,"Delta":339119897},{"NoteNumber":80,"Velocity":69,"Duration":82829,"SoundDuration":82829,"Delta":339266171},{"NoteNumber":79,"Velocity":74,"Duration":151825,"SoundDuration":151825,"Delta":339431830},{"NoteNumber":58,"Velocity":68,"Duration":456634,"SoundDuration":456634,"Delta":339431830},{"NoteNumber":51,"Velocity":68,"Duration":456634,"SoundDuration":456634,"Delta":339431830},{"NoteNumber":82,"Velocity":70,"Duration":152404,"SoundDuration":152404,"Delta":339583656},{"NoteNumber":85,"Velocity":70,"Duration":76202,"SoundDuration":76202,"Delta":339736060},{"NoteNumber":85,"Velocity":74,"Duration":73136,"SoundDuration":73136,"Delta":339888464},{"NoteNumber":85,"Velocity":70,"Duration":73136,"SoundDuration":73136,"Delta":340034738},{"NoteNumber":85,"Velocity":66,"Duration":82829,"SoundDuration":82829,"Delta":340181012},{"NoteNumber":84,"Velocity":86,"Duration":157195,"SoundDuration":157195,"Delta":340346671},{"NoteNumber":56,"Velocity":65,"Duration":1389647,"SoundDuration":1389647,"Delta":340346671},{"NoteNumber":60,"Velocity":70,"Duration":1389647,"SoundDuration":1389647,"Delta":340346671},{"NoteNumber":87,"Velocity":84,"Duration":156495,"SoundDuration":156495,"Delta":340503866},{"NoteNumber":85,"Velocity":75,"Duration":151061,"SoundDuration":151061,"Delta":340660362},{"NoteNumber":84,"Velocity":86,"Duration":151624,"SoundDuration":151624,"Delta":340811423},{"NoteNumber":82,"Velocity":78,"Duration":152684,"SoundDuration":152684,"Delta":340963048},{"NoteNumber":80,"Velocity":78,"Duration":153626,"SoundDuration":153626,"Delta":341115732},{"NoteNumber":79,"Velocity":86,"Duration":154554,"SoundDuration":154554,"Delta":341269359},{"NoteNumber":77,"Velocity":77,"Duration":155655,"SoundDuration":155655,"Delta":341423913},{"NoteNumber":75,"Velocity":75,"Duration":156749,"SoundDuration":156749,"Delta":341579569},{"NoteNumber":73,"Velocity":86,"Duration":153574,"SoundDuration":153574,"Delta":341736319},{"NoteNumber":61,"Velocity":54,"Duration":460722,"SoundDuration":460722,"Delta":341736319},{"NoteNumber":58,"Velocity":54,"Duration":460722,"SoundDuration":460722,"Delta":341736319},{"NoteNumber":72,"Velocity":77,"Duration":153574,"SoundDuration":153574,"Delta":341889893},{"NoteNumber":70,"Velocity":77,"Duration":153574,"SoundDuration":153574,"Delta":342043467},{"NoteNumber":68,"Velocity":86,"Duration":157195,"SoundDuration":157195,"Delta":342197042},{"NoteNumber":60,"Velocity":65,"Duration":464752,"SoundDuration":464752,"Delta":342197042},{"NoteNumber":63,"Velocity":70,"Duration":464752,"SoundDuration":464752,"Delta":342197042},{"NoteNumber":84,"Velocity":87,"Duration":156495,"SoundDuration":156495,"Delta":342354237},{"NoteNumber":82,"Velocity":75,"Duration":151061,"SoundDuration":151061,"Delta":342510732},{"NoteNumber":80,"Velocity":86,"Duration":151624,"SoundDuration":151624,"Delta":342661794},{"NoteNumber":79,"Velocity":82,"Duration":152684,"SoundDuration":152684,"Delta":342813419},{"NoteNumber":77,"Velocity":82,"Duration":153626,"SoundDuration":153626,"Delta":342966103},{"NoteNumber":75,"Velocity":86,"Duration":154554,"SoundDuration":154554,"Delta":343119730},{"NoteNumber":73,"Velocity":77,"Duration":155655,"SoundDuration":155655,"Delta":343274284},{"NoteNumber":72,"Velocity":75,"Duration":156749,"SoundDuration":156749,"Delta":343429939},{"NoteNumber":70,"Velocity":86,"Duration":157598,"SoundDuration":157598,"Delta":343586689},{"NoteNumber":68,"Velocity":77,"Duration":158744,"SoundDuration":158744,"Delta":343744288},{"NoteNumber":67,"Velocity":77,"Duration":159882,"SoundDuration":159882,"Delta":343903032},{"NoteNumber":65,"Velocity":86,"Duration":360779,"SoundDuration":360779,"Delta":344062915},{"NoteNumber":49,"Velocity":65,"Duration":962078,"SoundDuration":962078,"Delta":344062915},{"NoteNumber":77,"Velocity":78,"Duration":120259,"SoundDuration":120259,"Delta":344423694},{"NoteNumber":73,"Velocity":86,"Duration":360779,"SoundDuration":360779,"Delta":344543954},{"NoteNumber":61,"Velocity":58,"Duration":481039,"SoundDuration":481039,"Delta":344543954},{"NoteNumber":70,"Velocity":74,"Duration":120259,"SoundDuration":120259,"Delta":344904733},{"NoteNumber":68,"Velocity":85,"Duration":483237,"SoundDuration":483237,"Delta":345024993},{"NoteNumber":60,"Velocity":65,"Duration":483237,"SoundDuration":483237,"Delta":345024993},{"NoteNumber":51,"Velocity":55,"Duration":987567,"SoundDuration":987567,"Delta":345024993},{"NoteNumber":67,"Velocity":62,"Duration":63336,"SoundDuration":63336,"Delta":345508230},{"NoteNumber":58,"Velocity":61,"Duration":504330,"SoundDuration":504330,"Delta":345508230},{"NoteNumber":68,"Velocity":56,"Duration":62001,"SoundDuration":62001,"Delta":345571567},{"NoteNumber":67,"Velocity":62,"Duration":60770,"SoundDuration":60770,"Delta":345633568},{"NoteNumber":68,"Velocity":57,"Duration":59540,"SoundDuration":59540,"Delta":345694339},{"NoteNumber":67,"Velocity":62,"Duration":58906,"SoundDuration":58906,"Delta":345753879},{"NoteNumber":68,"Velocity":55,"Duration":59162,"SoundDuration":59162,"Delta":345812786},{"NoteNumber":67,"Velocity":62,"Duration":59372,"SoundDuration":59372,"Delta":345871948},{"NoteNumber":68,"Velocity":58,"Duration":81239,"SoundDuration":81239,"Delta":345931321},{"NoteNumber":84,"Velocity":86,"Duration":157195,"SoundDuration":157195,"Delta":346012560},{"NoteNumber":56,"Velocity":65,"Duration":1389647,"SoundDuration":1389647,"Delta":346012560},{"NoteNumber":60,"Velocity":70,"Duration":1389647,"SoundDuration":1389647,"Delta":346012560},{"NoteNumber":87,"Velocity":84,"Duration":156495,"SoundDuration":156495,"Delta":346169756},{"NoteNumber":85,"Velocity":75,"Duration":151061,"SoundDuration":151061,"Delta":346326251},{"NoteNumber":84,"Velocity":86,"Duration":151624,"SoundDuration":151624,"Delta":346477312},{"NoteNumber":82,"Velocity":78,"Duration":152684,"SoundDuration":152684,"Delta":346628937},{"NoteNumber":80,"Velocity":78,"Duration":153626,"SoundDuration":153626,"Delta":346781622},{"NoteNumber":79,"Velocity":86,"Duration":154554,"SoundDuration":154554,"Delta":346935249},{"NoteNumber":77,"Velocity":77,"Duration":155655,"SoundDuration":155655,"Delta":347089803},{"NoteNumber":75,"Velocity":75,"Duration":156749,"SoundDuration":156749,"Delta":347245458},{"NoteNumber":73,"Velocity":86,"Duration":152986,"SoundDuration":152986,"Delta":347402208},{"NoteNumber":61,"Velocity":54,"Duration":461582,"SoundDuration":461582,"Delta":347402208},{"NoteNumber":58,"Velocity":54,"Duration":461582,"SoundDuration":461582,"Delta":347402208},{"NoteNumber":72,"Velocity":77,"Duration":152986,"SoundDuration":152986,"Delta":347555195},{"NoteNumber":70,"Velocity":77,"Duration":155608,"SoundDuration":155608,"Delta":347708182},{"NoteNumber":68,"Velocity":86,"Duration":157195,"SoundDuration":157195,"Delta":347863791},{"NoteNumber":60,"Velocity":65,"Duration":464752,"SoundDuration":464752,"Delta":347863791},{"NoteNumber":63,"Velocity":70,"Duration":464752,"SoundDuration":464752,"Delta":347863791},{"NoteNumber":84,"Velocity":87,"Duration":156495,"SoundDuration":156495,"Delta":348020987},{"NoteNumber":82,"Velocity":75,"Duration":151061,"SoundDuration":151061,"Delta":348177482},{"NoteNumber":80,"Velocity":86,"Duration":151624,"SoundDuration":151624,"Delta":348328543},{"NoteNumber":79,"Velocity":82,"Duration":152684,"SoundDuration":152684,"Delta":348480168},{"NoteNumber":77,"Velocity":82,"Duration":153626,"SoundDuration":153626,"Delta":348632853},{"NoteNumber":75,"Velocity":86,"Duration":154554,"SoundDuration":154554,"Delta":348786479},{"NoteNumber":73,"Velocity":77,"Duration":155655,"SoundDuration":155655,"Delta":348941033},{"NoteNumber":72,"Velocity":75,"Duration":156749,"SoundDuration":156749,"Delta":349096689},{"NoteNumber":70,"Velocity":86,"Duration":157598,"SoundDuration":157598,"Delta":349253439},{"NoteNumber":68,"Velocity":77,"Duration":158744,"SoundDuration":158744,"Delta":349411038},{"NoteNumber":67,"Velocity":77,"Duration":159882,"SoundDuration":159882,"Delta":349569782},{"NoteNumber":65,"Velocity":86,"Duration":360779,"SoundDuration":360779,"Delta":349729664},{"NoteNumber":49,"Velocity":65,"Duration":962078,"SoundDuration":962078,"Delta":349729664},{"NoteNumber":77,"Velocity":78,"Duration":120259,"SoundDuration":120259,"Delta":350090444},{"NoteNumber":73,"Velocity":86,"Duration":360779,"SoundDuration":360779,"Delta":350210703},{"NoteNumber":61,"Velocity":58,"Duration":481039,"SoundDuration":481039,"Delta":350210703},{"NoteNumber":70,"Velocity":74,"Duration":120259,"SoundDuration":120259,"Delta":350571483},{"NoteNumber":68,"Velocity":85,"Duration":483237,"SoundDuration":483237,"Delta":350691742},{"NoteNumber":60,"Velocity":65,"Duration":483237,"SoundDuration":483237,"Delta":350691742},{"NoteNumber":51,"Velocity":55,"Duration":974005,"SoundDuration":974005,"Delta":350691742},{"NoteNumber":67,"Velocity":62,"Duration":63336,"SoundDuration":63336,"Delta":351174980},{"NoteNumber":58,"Velocity":61,"Duration":490768,"SoundDuration":490768,"Delta":351174980},{"NoteNumber":68,"Velocity":56,"Duration":62001,"SoundDuration":62001,"Delta":351238316},{"NoteNumber":67,"Velocity":62,"Duration":60770,"SoundDuration":60770,"Delta":351300318},{"NoteNumber":68,"Velocity":57,"Duration":59540,"SoundDuration":59540,"Delta":351361088},{"NoteNumber":67,"Velocity":62,"Duration":58906,"SoundDuration":58906,"Delta":351420628},{"NoteNumber":68,"Velocity":55,"Duration":59162,"SoundDuration":59162,"Delta":351479535},{"NoteNumber":67,"Velocity":62,"Duration":59455,"SoundDuration":59455,"Delta":351538698},{"NoteNumber":68,"Velocity":58,"Duration":57620,"SoundDuration":57620,"Delta":351598153},{"NoteNumber":68,"Velocity":73,"Duration":157195,"SoundDuration":157195,"Delta":351665748},{"NoteNumber":56,"Velocity":58,"Duration":157195,"SoundDuration":157195,"Delta":351665748},{"NoteNumber":72,"Velocity":70,"Duration":156495,"SoundDuration":156495,"Delta":351822944},{"NoteNumber":60,"Velocity":56,"Duration":156495,"SoundDuration":156495,"Delta":351822944},{"NoteNumber":70,"Velocity":63,"Duration":150644,"SoundDuration":150644,"Delta":351979439},{"NoteNumber":58,"Velocity":50,"Duration":150644,"SoundDuration":150644,"Delta":351979439},{"NoteNumber":68,"Velocity":72,"Duration":150173,"SoundDuration":150173,"Delta":352130083},{"NoteNumber":56,"Velocity":57,"Duration":150173,"SoundDuration":150173,"Delta":352130083},{"NoteNumber":67,"Velocity":64,"Duration":150693,"SoundDuration":150693,"Delta":352280257},{"NoteNumber":55,"Velocity":51,"Duration":150693,"SoundDuration":150693,"Delta":352280257},{"NoteNumber":65,"Velocity":64,"Duration":151216,"SoundDuration":151216,"Delta":352430951},{"NoteNumber":53,"Velocity":51,"Duration":151216,"SoundDuration":151216,"Delta":352430951},{"NoteNumber":63,"Velocity":72,"Duration":152468,"SoundDuration":152468,"Delta":352582167},{"NoteNumber":51,"Velocity":57,"Duration":152468,"SoundDuration":152468,"Delta":352582167},{"NoteNumber":61,"Velocity":64,"Duration":153399,"SoundDuration":153399,"Delta":352734636},{"NoteNumber":49,"Velocity":51,"Duration":153399,"SoundDuration":153399,"Delta":352734636},{"NoteNumber":60,"Velocity":64,"Duration":154204,"SoundDuration":154204,"Delta":352888035},{"NoteNumber":48,"Velocity":51,"Duration":154204,"SoundDuration":154204,"Delta":352888035},{"NoteNumber":61,"Velocity":72,"Duration":115544,"SoundDuration":115544,"Delta":353042239},{"NoteNumber":49,"Velocity":57,"Duration":115544,"SoundDuration":115544,"Delta":353042239},{"NoteNumber":63,"Velocity":69,"Duration":115544,"SoundDuration":115544,"Delta":353157784},{"NoteNumber":51,"Velocity":55,"Duration":115544,"SoundDuration":115544,"Delta":353157784},{"NoteNumber":65,"Velocity":65,"Duration":118758,"SoundDuration":118758,"Delta":353273328},{"NoteNumber":53,"Velocity":52,"Duration":118758,"SoundDuration":118758,"Delta":353273328},{"NoteNumber":67,"Velocity":62,"Duration":125187,"SoundDuration":125187,"Delta":353392087},{"NoteNumber":55,"Velocity":49,"Duration":125187,"SoundDuration":125187,"Delta":353392087},{"NoteNumber":68,"Velocity":73,"Duration":157195,"SoundDuration":157195,"Delta":353517275},{"NoteNumber":56,"Velocity":58,"Duration":157195,"SoundDuration":157195,"Delta":353517275},{"NoteNumber":72,"Velocity":70,"Duration":156495,"SoundDuration":156495,"Delta":353674471},{"NoteNumber":60,"Velocity":56,"Duration":156495,"SoundDuration":156495,"Delta":353674471},{"NoteNumber":70,"Velocity":63,"Duration":150644,"SoundDuration":150644,"Delta":353830966},{"NoteNumber":58,"Velocity":50,"Duration":150644,"SoundDuration":150644,"Delta":353830966},{"NoteNumber":68,"Velocity":72,"Duration":150173,"SoundDuration":150173,"Delta":353981610},{"NoteNumber":56,"Velocity":57,"Duration":150173,"SoundDuration":150173,"Delta":353981610},{"NoteNumber":67,"Velocity":64,"Duration":150693,"SoundDuration":150693,"Delta":354131784},{"NoteNumber":55,"Velocity":51,"Duration":150693,"SoundDuration":150693,"Delta":354131784},{"NoteNumber":65,"Velocity":64,"Duration":151216,"SoundDuration":151216,"Delta":354282477},{"NoteNumber":53,"Velocity":51,"Duration":151216,"SoundDuration":151216,"Delta":354282477},{"NoteNumber":63,"Velocity":72,"Duration":152468,"SoundDuration":152468,"Delta":354433694},{"NoteNumber":51,"Velocity":57,"Duration":152468,"SoundDuration":152468,"Delta":354433694},{"NoteNumber":61,"Velocity":64,"Duration":153399,"SoundDuration":153399,"Delta":354586162},{"NoteNumber":49,"Velocity":51,"Duration":153399,"SoundDuration":153399,"Delta":354586162},{"NoteNumber":60,"Velocity":64,"Duration":154204,"SoundDuration":154204,"Delta":354739562},{"NoteNumber":48,"Velocity":51,"Duration":154204,"SoundDuration":154204,"Delta":354739562},{"NoteNumber":61,"Velocity":72,"Duration":115544,"SoundDuration":115544,"Delta":354893766},{"NoteNumber":49,"Velocity":57,"Duration":115544,"SoundDuration":115544,"Delta":354893766},{"NoteNumber":63,"Velocity":69,"Duration":115544,"SoundDuration":115544,"Delta":355009311},{"NoteNumber":51,"Velocity":55,"Duration":115544,"SoundDuration":115544,"Delta":355009311},{"NoteNumber":65,"Velocity":65,"Duration":118758,"SoundDuration":118758,"Delta":355124855},{"NoteNumber":53,"Velocity":52,"Duration":118758,"SoundDuration":118758,"Delta":355124855},{"NoteNumber":67,"Velocity":62,"Duration":125187,"SoundDuration":125187,"Delta":355243614},{"NoteNumber":55,"Velocity":49,"Duration":125187,"SoundDuration":125187,"Delta":355243614},{"NoteNumber":68,"Velocity":73,"Duration":154654,"SoundDuration":154654,"Delta":355368802},{"NoteNumber":56,"Velocity":58,"Duration":154654,"SoundDuration":154654,"Delta":355368802},{"NoteNumber":72,"Velocity":70,"Duration":154541,"SoundDuration":154541,"Delta":355523457},{"NoteNumber":60,"Velocity":56,"Duration":154541,"SoundDuration":154541,"Delta":355523457},{"NoteNumber":70,"Velocity":63,"Duration":150644,"SoundDuration":150644,"Delta":355677999},{"NoteNumber":58,"Velocity":50,"Duration":150644,"SoundDuration":150644,"Delta":355677999},{"NoteNumber":68,"Velocity":72,"Duration":150173,"SoundDuration":150173,"Delta":355828643},{"NoteNumber":56,"Velocity":57,"Duration":150173,"SoundDuration":150173,"Delta":355828643},{"NoteNumber":67,"Velocity":64,"Duration":150693,"SoundDuration":150693,"Delta":355978817},{"NoteNumber":55,"Velocity":51,"Duration":150693,"SoundDuration":150693,"Delta":355978817},{"NoteNumber":65,"Velocity":64,"Duration":151216,"SoundDuration":151216,"Delta":356129510},{"NoteNumber":53,"Velocity":51,"Duration":151216,"SoundDuration":151216,"Delta":356129510},{"NoteNumber":63,"Velocity":72,"Duration":152468,"SoundDuration":152468,"Delta":356280727},{"NoteNumber":51,"Velocity":57,"Duration":152468,"SoundDuration":152468,"Delta":356280727},{"NoteNumber":61,"Velocity":64,"Duration":153399,"SoundDuration":153399,"Delta":356433195},{"NoteNumber":49,"Velocity":51,"Duration":153399,"SoundDuration":153399,"Delta":356433195},{"NoteNumber":60,"Velocity":64,"Duration":163403,"SoundDuration":163403,"Delta":356586594},{"NoteNumber":48,"Velocity":51,"Duration":163403,"SoundDuration":163403,"Delta":356586594},{"NoteNumber":68,"Velocity":72,"Duration":148710,"SoundDuration":148710,"Delta":356749998},{"NoteNumber":56,"Velocity":57,"Duration":148710,"SoundDuration":148710,"Delta":356749998},{"NoteNumber":67,"Velocity":64,"Duration":150175,"SoundDuration":150175,"Delta":356898709},{"NoteNumber":55,"Velocity":51,"Duration":150175,"SoundDuration":150175,"Delta":356898709},{"NoteNumber":65,"Velocity":64,"Duration":152223,"SoundDuration":152223,"Delta":357048885},{"NoteNumber":53,"Velocity":51,"Duration":152223,"SoundDuration":152223,"Delta":357048885},{"NoteNumber":63,"Velocity":72,"Duration":154654,"SoundDuration":154654,"Delta":357201108},{"NoteNumber":51,"Velocity":57,"Duration":154654,"SoundDuration":154654,"Delta":357201108},{"NoteNumber":61,"Velocity":64,"Duration":154654,"SoundDuration":154654,"Delta":357355763},{"NoteNumber":49,"Velocity":51,"Duration":154654,"SoundDuration":154654,"Delta":357355763},{"NoteNumber":60,"Velocity":64,"Duration":168321,"SoundDuration":168321,"Delta":357510418},{"NoteNumber":48,"Velocity":51,"Duration":168321,"SoundDuration":168321,"Delta":357510418},{"NoteNumber":68,"Velocity":72,"Duration":155207,"SoundDuration":155207,"Delta":357678740},{"NoteNumber":56,"Velocity":57,"Duration":155207,"SoundDuration":155207,"Delta":357678740},{"NoteNumber":67,"Velocity":64,"Duration":151640,"SoundDuration":151640,"Delta":357833948},{"NoteNumber":55,"Velocity":51,"Duration":151640,"SoundDuration":151640,"Delta":357833948},{"NoteNumber":65,"Velocity":64,"Duration":152842,"SoundDuration":152842,"Delta":357985588},{"NoteNumber":53,"Velocity":51,"Duration":152842,"SoundDuration":152842,"Delta":357985588},{"NoteNumber":63,"Velocity":72,"Duration":153907,"SoundDuration":153907,"Delta":358138431},{"NoteNumber":51,"Velocity":57,"Duration":153907,"SoundDuration":153907,"Delta":358138431},{"NoteNumber":61,"Velocity":64,"Duration":154059,"SoundDuration":154059,"Delta":358292339},{"NoteNumber":49,"Velocity":51,"Duration":154059,"SoundDuration":154059,"Delta":358292339},{"NoteNumber":60,"Velocity":64,"Duration":154059,"SoundDuration":154059,"Delta":358446398},{"NoteNumber":48,"Velocity":51,"Duration":154059,"SoundDuration":154059,"Delta":358446398},{"NoteNumber":68,"Velocity":72,"Duration":349324,"SoundDuration":349324,"Delta":358600457},{"NoteNumber":56,"Velocity":57,"Duration":349324,"SoundDuration":349324,"Delta":358600457},{"NoteNumber":60,"Velocity":51,"Duration":114352,"SoundDuration":114352,"Delta":358949782},{"NoteNumber":48,"Velocity":40,"Duration":114352,"SoundDuration":114352,"Delta":358949782},{"NoteNumber":60,"Velocity":51,"Duration":80930,"SoundDuration":80930,"Delta":359074271},{"NoteNumber":48,"Velocity":40,"Duration":80930,"SoundDuration":80930,"Delta":359074271},{"NoteNumber":61,"Velocity":46,"Duration":80587,"SoundDuration":80587,"Delta":359155201},{"NoteNumber":49,"Velocity":36,"Duration":80587,"SoundDuration":80587,"Delta":359155201},{"NoteNumber":60,"Velocity":51,"Duration":80175,"SoundDuration":80175,"Delta":359235789},{"NoteNumber":48,"Velocity":40,"Duration":80175,"SoundDuration":80175,"Delta":359235789},{"NoteNumber":61,"Velocity":45,"Duration":79843,"SoundDuration":79843,"Delta":359315964},{"NoteNumber":49,"Velocity":36,"Duration":79843,"SoundDuration":79843,"Delta":359315964},{"NoteNumber":60,"Velocity":51,"Duration":79459,"SoundDuration":79459,"Delta":359395808},{"NoteNumber":48,"Velocity":40,"Duration":79459,"SoundDuration":79459,"Delta":359395808},{"NoteNumber":61,"Velocity":45,"Duration":79097,"SoundDuration":79097,"Delta":359475267},{"NoteNumber":49,"Velocity":36,"Duration":79097,"SoundDuration":79097,"Delta":359475267},{"NoteNumber":60,"Velocity":51,"Duration":59065,"SoundDuration":59065,"Delta":359554365},{"NoteNumber":48,"Velocity":40,"Duration":59065,"SoundDuration":59065,"Delta":359554365},{"NoteNumber":61,"Velocity":46,"Duration":58895,"SoundDuration":58895,"Delta":359613430},{"NoteNumber":49,"Velocity":36,"Duration":58895,"SoundDuration":58895,"Delta":359613430},{"NoteNumber":60,"Velocity":51,"Duration":58676,"SoundDuration":58676,"Delta":359672326},{"NoteNumber":48,"Velocity":40,"Duration":58676,"SoundDuration":58676,"Delta":359672326},{"NoteNumber":61,"Velocity":45,"Duration":58730,"SoundDuration":58730,"Delta":359731002},{"NoteNumber":49,"Velocity":36,"Duration":58730,"SoundDuration":58730,"Delta":359731002},{"NoteNumber":60,"Velocity":58,"Duration":125712,"SoundDuration":125712,"Delta":359789732},{"NoteNumber":48,"Velocity":46,"Duration":125712,"SoundDuration":125712,"Delta":359789732},{"NoteNumber":61,"Velocity":51,"Duration":125712,"SoundDuration":125712,"Delta":359915444},{"NoteNumber":49,"Velocity":40,"Duration":125712,"SoundDuration":125712,"Delta":359915444},{"NoteNumber":63,"Velocity":59,"Duration":502849,"SoundDuration":502849,"Delta":360041157},{"NoteNumber":51,"Velocity":47,"Duration":502849,"SoundDuration":502849,"Delta":360041157},{"NoteNumber":63,"Velocity":59,"Duration":548847,"SoundDuration":548847,"Delta":360544006},{"NoteNumber":51,"Velocity":47,"Duration":548847,"SoundDuration":548847,"Delta":360544006},{"NoteNumber":68,"Velocity":51,"Duration":1320111,"SoundDuration":1320111,"Delta":361092853},{"NoteNumber":56,"Velocity":30,"Duration":155364,"SoundDuration":155364,"Delta":361092853},{"NoteNumber":60,"Velocity":26,"Duration":155363,"SoundDuration":155363,"Delta":361248217},{"NoteNumber":63,"Velocity":26,"Duration":155364,"SoundDuration":155364,"Delta":361403581},{"NoteNumber":56,"Velocity":30,"Duration":151825,"SoundDuration":151825,"Delta":361558945},{"NoteNumber":60,"Velocity":27,"Duration":151825,"SoundDuration":151825,"Delta":361710770},{"NoteNumber":63,"Velocity":27,"Duration":151825,"SoundDuration":151825,"Delta":361862596},{"NoteNumber":56,"Velocity":30,"Duration":151825,"SoundDuration":151825,"Delta":362014422},{"NoteNumber":60,"Velocity":26,"Duration":151825,"SoundDuration":151825,"Delta":362166247},{"NoteNumber":63,"Velocity":26,"Duration":151825,"SoundDuration":151825,"Delta":362318073},{"NoteNumber":72,"Velocity":57,"Duration":56934,"SoundDuration":56934,"Delta":362412964},{"NoteNumber":70,"Velocity":45,"Duration":473447,"SoundDuration":473447,"Delta":362469899},{"NoteNumber":56,"Velocity":31,"Duration":157815,"SoundDuration":157815,"Delta":362469899},{"NoteNumber":61,"Velocity":27,"Duration":157815,"SoundDuration":157815,"Delta":362627714},{"NoteNumber":67,"Velocity":27,"Duration":157815,"SoundDuration":157815,"Delta":362785530},{"NoteNumber":68,"Velocity":51,"Duration":466092,"SoundDuration":466092,"Delta":362943346},{"NoteNumber":56,"Velocity":30,"Duration":155364,"SoundDuration":155364,"Delta":362943346},{"NoteNumber":60,"Velocity":26,"Duration":155363,"SoundDuration":155363,"Delta":363098710},{"NoteNumber":63,"Velocity":25,"Duration":155364,"SoundDuration":155364,"Delta":363254074},{"NoteNumber":68,"Velocity":45,"Duration":455476,"SoundDuration":455476,"Delta":363409438},{"NoteNumber":56,"Velocity":29,"Duration":151825,"SoundDuration":151825,"Delta":363409438},{"NoteNumber":60,"Velocity":26,"Duration":151825,"SoundDuration":151825,"Delta":363561263},{"NoteNumber":63,"Velocity":26,"Duration":151825,"SoundDuration":151825,"Delta":363713089},{"NoteNumber":68,"Velocity":45,"Duration":455477,"SoundDuration":455477,"Delta":363864915},{"NoteNumber":56,"Velocity":29,"Duration":151825,"SoundDuration":151825,"Delta":363864915},{"NoteNumber":60,"Velocity":25,"Duration":151825,"SoundDuration":151825,"Delta":364016740},{"NoteNumber":63,"Velocity":25,"Duration":151825,"SoundDuration":151825,"Delta":364168566},{"NoteNumber":73,"Velocity":49,"Duration":118361,"SoundDuration":118361,"Delta":364320392},{"NoteNumber":56,"Velocity":30,"Duration":157815,"SoundDuration":157815,"Delta":364320392},{"NoteNumber":70,"Velocity":44,"Duration":355085,"SoundDuration":355085,"Delta":364438753},{"NoteNumber":61,"Velocity":26,"Duration":157815,"SoundDuration":157815,"Delta":364478207},{"NoteNumber":67,"Velocity":26,"Duration":157815,"SoundDuration":157815,"Delta":364636023},{"NoteNumber":75,"Velocity":49,"Duration":466092,"SoundDuration":466092,"Delta":364793839},{"NoteNumber":56,"Velocity":28,"Duration":155364,"SoundDuration":155364,"Delta":364793839},{"NoteNumber":60,"Velocity":25,"Duration":155363,"SoundDuration":155363,"Delta":364949203},{"NoteNumber":63,"Velocity":25,"Duration":155364,"SoundDuration":155364,"Delta":365104567},{"NoteNumber":75,"Velocity":45,"Duration":455476,"SoundDuration":455476,"Delta":365259931},{"NoteNumber":56,"Velocity":28,"Duration":151825,"SoundDuration":151825,"Delta":365259931},{"NoteNumber":60,"Velocity":26,"Duration":151825,"SoundDuration":151825,"Delta":365411756},{"NoteNumber":63,"Velocity":25,"Duration":151825,"SoundDuration":151825,"Delta":365563582},{"NoteNumber":75,"Velocity":44,"Duration":455477,"SoundDuration":455477,"Delta":365715408},{"NoteNumber":56,"Velocity":28,"Duration":151825,"SoundDuration":151825,"Delta":365715408},{"NoteNumber":60,"Velocity":24,"Duration":151825,"SoundDuration":151825,"Delta":365867233},{"NoteNumber":63,"Velocity":24,"Duration":151825,"SoundDuration":151825,"Delta":366019059},{"NoteNumber":73,"Velocity":48,"Duration":118361,"SoundDuration":118361,"Delta":366170885},{"NoteNumber":56,"Velocity":29,"Duration":157815,"SoundDuration":157815,"Delta":366170885},{"NoteNumber":70,"Velocity":43,"Duration":355085,"SoundDuration":355085,"Delta":366289246},{"NoteNumber":61,"Velocity":25,"Duration":157815,"SoundDuration":157815,"Delta":366328700},{"NoteNumber":67,"Velocity":25,"Duration":157815,"SoundDuration":157815,"Delta":366486516},{"NoteNumber":68,"Velocity":48,"Duration":1320111,"SoundDuration":1320111,"Delta":366644332},{"NoteNumber":56,"Velocity":28,"Duration":155364,"SoundDuration":155364,"Delta":366644332},{"NoteNumber":60,"Velocity":24,"Duration":155363,"SoundDuration":155363,"Delta":366799696},{"NoteNumber":63,"Velocity":24,"Duration":155364,"SoundDuration":155364,"Delta":366955060},{"NoteNumber":56,"Velocity":28,"Duration":151825,"SoundDuration":151825,"Delta":367110424},{"NoteNumber":60,"Velocity":25,"Duration":151825,"SoundDuration":151825,"Delta":367262249},{"NoteNumber":63,"Velocity":25,"Duration":151825,"SoundDuration":151825,"Delta":367414075},{"NoteNumber":56,"Velocity":28,"Duration":151825,"SoundDuration":151825,"Delta":367565901},{"NoteNumber":60,"Velocity":24,"Duration":151825,"SoundDuration":151825,"Delta":367717726},{"NoteNumber":63,"Velocity":24,"Duration":151825,"SoundDuration":151825,"Delta":367869552},{"NoteNumber":72,"Velocity":51,"Duration":56934,"SoundDuration":56934,"Delta":367964443},{"NoteNumber":70,"Velocity":42,"Duration":473447,"SoundDuration":473447,"Delta":368021378},{"NoteNumber":56,"Velocity":28,"Duration":157815,"SoundDuration":157815,"Delta":368021378},{"NoteNumber":61,"Velocity":24,"Duration":157815,"SoundDuration":157815,"Delta":368179193},{"NoteNumber":67,"Velocity":24,"Duration":157815,"SoundDuration":157815,"Delta":368337009},{"NoteNumber":68,"Velocity":46,"Duration":466092,"SoundDuration":466092,"Delta":368494825},{"NoteNumber":56,"Velocity":28,"Duration":155364,"SoundDuration":155364,"Delta":368494825},{"NoteNumber":60,"Velocity":23,"Duration":155363,"SoundDuration":155363,"Delta":368650189},{"NoteNumber":63,"Velocity":23,"Duration":155364,"SoundDuration":155364,"Delta":368805553},{"NoteNumber":68,"Velocity":42,"Duration":455476,"SoundDuration":455476,"Delta":368960917},{"NoteNumber":56,"Velocity":28,"Duration":151825,"SoundDuration":151825,"Delta":368960917},{"NoteNumber":60,"Velocity":24,"Duration":151825,"SoundDuration":151825,"Delta":369112742},{"NoteNumber":63,"Velocity":24,"Duration":151825,"SoundDuration":151825,"Delta":369264568},{"NoteNumber":68,"Velocity":42,"Duration":455477,"SoundDuration":455477,"Delta":369416394},{"NoteNumber":56,"Velocity":28,"Duration":151825,"SoundDuration":151825,"Delta":369416394},{"NoteNumber":60,"Velocity":23,"Duration":151825,"SoundDuration":151825,"Delta":369568219},{"NoteNumber":63,"Velocity":23,"Duration":151825,"SoundDuration":151825,"Delta":369720045},{"NoteNumber":73,"Velocity":45,"Duration":118361,"SoundDuration":118361,"Delta":369871871},{"NoteNumber":56,"Velocity":28,"Duration":157815,"SoundDuration":157815,"Delta":369871871},{"NoteNumber":70,"Velocity":41,"Duration":355085,"SoundDuration":355085,"Delta":369990232},{"NoteNumber":61,"Velocity":24,"Duration":157815,"SoundDuration":157815,"Delta":370029686},{"NoteNumber":67,"Velocity":24,"Duration":157815,"SoundDuration":157815,"Delta":370187502},{"NoteNumber":75,"Velocity":45,"Duration":466092,"SoundDuration":466092,"Delta":370345318},{"NoteNumber":56,"Velocity":27,"Duration":155364,"SoundDuration":155364,"Delta":370345318},{"NoteNumber":60,"Velocity":22,"Duration":155363,"SoundDuration":155363,"Delta":370500682},{"NoteNumber":63,"Velocity":22,"Duration":155364,"SoundDuration":155364,"Delta":370656046},{"NoteNumber":75,"Velocity":41,"Duration":455476,"SoundDuration":455476,"Delta":370811410},{"NoteNumber":56,"Velocity":27,"Duration":151825,"SoundDuration":151825,"Delta":370811410},{"NoteNumber":60,"Velocity":23,"Duration":151825,"SoundDuration":151825,"Delta":370963235},{"NoteNumber":63,"Velocity":23,"Duration":151825,"SoundDuration":151825,"Delta":371115061},{"NoteNumber":75,"Velocity":40,"Duration":455477,"SoundDuration":455477,"Delta":371266887},{"NoteNumber":56,"Velocity":27,"Duration":151825,"SoundDuration":151825,"Delta":371266887},{"NoteNumber":60,"Velocity":22,"Duration":151825,"SoundDuration":151825,"Delta":371418712},{"NoteNumber":63,"Velocity":22,"Duration":151825,"SoundDuration":151825,"Delta":371570538},{"NoteNumber":73,"Velocity":45,"Duration":118361,"SoundDuration":118361,"Delta":371722364},{"NoteNumber":56,"Velocity":27,"Duration":157815,"SoundDuration":157815,"Delta":371722364},{"NoteNumber":70,"Velocity":40,"Duration":355085,"SoundDuration":355085,"Delta":371840725},{"NoteNumber":61,"Velocity":23,"Duration":157815,"SoundDuration":157815,"Delta":371880179},{"NoteNumber":67,"Velocity":23,"Duration":157815,"SoundDuration":157815,"Delta":372037995},{"NoteNumber":68,"Velocity":44,"Duration":1328861,"SoundDuration":1328861,"Delta":372195811},{"NoteNumber":56,"Velocity":26,"Duration":157195,"SoundDuration":157195,"Delta":372195811},{"NoteNumber":60,"Velocity":22,"Duration":157195,"SoundDuration":157195,"Delta":372353006},{"NoteNumber":63,"Velocity":22,"Duration":157195,"SoundDuration":157195,"Delta":372510202},{"NoteNumber":56,"Velocity":24,"Duration":152404,"SoundDuration":152404,"Delta":372667398},{"NoteNumber":60,"Velocity":22,"Duration":152404,"SoundDuration":152404,"Delta":372819802},{"NoteNumber":63,"Velocity":21,"Duration":152404,"SoundDuration":152404,"Delta":372972206},{"NoteNumber":56,"Velocity":22,"Duration":152404,"SoundDuration":152404,"Delta":373124611},{"NoteNumber":60,"Velocity":19,"Duration":152404,"SoundDuration":152404,"Delta":373277015},{"NoteNumber":63,"Velocity":18,"Duration":152404,"SoundDuration":152404,"Delta":373429419},{"NoteNumber":72,"Velocity":42,"Duration":57151,"SoundDuration":57151,"Delta":373524672},{"NoteNumber":70,"Velocity":34,"Duration":492893,"SoundDuration":492893,"Delta":373581824},{"NoteNumber":56,"Velocity":22,"Duration":164297,"SoundDuration":164297,"Delta":373581824},{"NoteNumber":61,"Velocity":18,"Duration":164298,"SoundDuration":164298,"Delta":373746122},{"NoteNumber":67,"Velocity":18,"Duration":164297,"SoundDuration":164297,"Delta":373910420},{"NoteNumber":68,"Velocity":40,"Duration":479118,"SoundDuration":479118,"Delta":374074718},{"NoteNumber":60,"Velocity":25,"Duration":479118,"SoundDuration":479118,"Delta":374074718},{"NoteNumber":56,"Velocity":25,"Duration":479118,"SoundDuration":479118,"Delta":374074718},{"NoteNumber":75,"Velocity":36,"Duration":479117,"SoundDuration":479117,"Delta":374553836},{"NoteNumber":72,"Velocity":30,"Duration":479117,"SoundDuration":479117,"Delta":374553836},{"NoteNumber":72,"Velocity":30,"Duration":509640,"SoundDuration":509640,"Delta":375032954},{"NoteNumber":75,"Velocity":36,"Duration":509640,"SoundDuration":509640,"Delta":375032954},{"NoteNumber":44,"Velocity":20,"Duration":509640,"SoundDuration":509640,"Delta":375542595},{"NoteNumber":48,"Velocity":24,"Duration":509640,"SoundDuration":509640,"Delta":375542595},{"NoteNumber":48,"Velocity":24,"Duration":509641,"SoundDuration":509641,"Delta":376052236},{"NoteNumber":44,"Velocity":20,"Duration":509641,"SoundDuration":509641,"Delta":376052236}],"license":{"name":"Creative Commons Attribution-ShareAlike 3.0 Germany","url":"http://creativecommons.org/licenses/by-sa/3.0/de/deed.en","text":"The MIDI, audio (MP3, OGG) and video files of Bernd Krueger are licensed under the cc-by-sa Germany License. This means that you can use and adapt the files, as long as you attribute the copyright holder.\n\nName: Bernd Krueger\nSource: http://www.piano-midi.de\n\nThe distribution or public playback of the files is only allowed under identical license conditions.\n\nThe scores are open source.","attribution":"MIDI files by Bernd Krueger (piano-midi.de)","attributionUrl":"http://www.piano-midi.de"}}