{"title":"Klaviersonate Hoboken XVI: 43 2. Satz","artist":"Haydn","durationMs":147791,"midiSha256":"f067cc1b293c546481e40303f20094c40aed249cc831292b336295ac3ab80c66","midiObject":[{"NoteNumber":75,"Velocity":72,"Duration":125807,"SoundDuration":125807,"Delta":0},{"NoteNumber":75,"Velocity":61,"Duration":85727,"SoundDuration":85727,"Delta":377421},{"NoteNumber":75,"Velocity":72,"Duration":503228,"SoundDuration":503228,"Delta":491725},{"NoteNumber":60,"Velocity":56,"Duration":503229,"SoundDuration":503229,"Delta":994954},{"NoteNumber":56,"Velocity":46,"Duration":503229,"SoundDuration":503229,"Delta":994954},{"NoteNumber":80,"Velocity":72,"Duration":125807,"SoundDuration":125807,"Delta":1498183},{"NoteNumber":80,"Velocity":64,"Duration":85401,"SoundDuration":85401,"Delta":1875604},{"NoteNumber":80,"Velocity":72,"Duration":503229,"SoundDuration":503229,"Delta":1989474},{"NoteNumber":63,"Velocity":57,"Duration":503228,"SoundDuration":503228,"Delta":2492703},{"NoteNumber":60,"Velocity":48,"Duration":503228,"SoundDuration":503228,"Delta":2492703},{"NoteNumber":68,"Velocity":61,"Duration":125807,"SoundDuration":125807,"Delta":2995932},{"NoteNumber":72,"Velocity":72,"Duration":125807,"SoundDuration":125807,"Delta":2995932},{"NoteNumber":65,"Velocity":51,"Duration":125807,"SoundDuration":125807,"Delta":2995932},{"NoteNumber":68,"Velocity":51,"Duration":86055,"SoundDuration":86055,"Delta":3373353},{"NoteNumber":72,"Velocity":61,"Duration":86055,"SoundDuration":86055,"Delta":3373353},{"NoteNumber":65,"Velocity":42,"Duration":86055,"SoundDuration":86055,"Delta":3373353},{"NoteNumber":68,"Velocity":61,"Duration":482974,"SoundDuration":482974,"Delta":3488094},{"NoteNumber":72,"Velocity":72,"Duration":482974,"SoundDuration":482974,"Delta":3488094},{"NoteNumber":65,"Velocity":51,"Duration":482974,"SoundDuration":482974,"Delta":3488094},{"NoteNumber":73,"Velocity":68,"Duration":122219,"SoundDuration":122219,"Delta":3971068},{"NoteNumber":70,"Velocity":57,"Duration":122219,"SoundDuration":122219,"Delta":3971068},{"NoteNumber":61,"Velocity":48,"Duration":122219,"SoundDuration":122219,"Delta":3971068},{"NoteNumber":73,"Velocity":52,"Duration":129054,"SoundDuration":129054,"Delta":4459946},{"NoteNumber":77,"Velocity":62,"Duration":129054,"SoundDuration":129054,"Delta":4459946},{"NoteNumber":58,"Velocity":44,"Duration":129054,"SoundDuration":129054,"Delta":4459946},{"NoteNumber":70,"Velocity":64,"Duration":991815,"SoundDuration":991815,"Delta":4976164},{"NoteNumber":67,"Velocity":55,"Duration":991815,"SoundDuration":991815,"Delta":4976164},{"NoteNumber":63,"Velocity":46,"Duration":991815,"SoundDuration":991815,"Delta":4976164},{"NoteNumber":63,"Velocity":72,"Duration":125282,"SoundDuration":125282,"Delta":5978420},{"NoteNumber":61,"Velocity":46,"Duration":494676,"SoundDuration":494676,"Delta":5978420},{"NoteNumber":63,"Velocity":51,"Duration":89123,"SoundDuration":89123,"Delta":6354266},{"NoteNumber":68,"Velocity":72,"Duration":122719,"SoundDuration":122719,"Delta":6473097},{"NoteNumber":63,"Velocity":52,"Duration":122719,"SoundDuration":122719,"Delta":6473097},{"NoteNumber":60,"Velocity":44,"Duration":122719,"SoundDuration":122719,"Delta":6473097},{"NoteNumber":68,"Velocity":64,"Duration":125282,"SoundDuration":125282,"Delta":6963975},{"NoteNumber":58,"Velocity":38,"Duration":125282,"SoundDuration":125282,"Delta":6963975},{"NoteNumber":61,"Velocity":46,"Duration":125282,"SoundDuration":125282,"Delta":6963975},{"NoteNumber":68,"Velocity":64,"Duration":128501,"SoundDuration":128501,"Delta":7465103},{"NoteNumber":56,"Velocity":38,"Duration":128501,"SoundDuration":128501,"Delta":7465103},{"NoteNumber":60,"Velocity":46,"Duration":128501,"SoundDuration":128501,"Delta":7465103},{"NoteNumber":70,"Velocity":72,"Duration":492893,"SoundDuration":492893,"Delta":7979110},{"NoteNumber":55,"Velocity":40,"Duration":492893,"SoundDuration":492893,"Delta":7979110},{"NoteNumber":58,"Velocity":48,"Duration":492893,"SoundDuration":492893,"Delta":7979110},{"NoteNumber":56,"Velocity":45,"Duration":125807,"SoundDuration":125807,"Delta":8472004},{"NoteNumber":53,"Velocity":37,"Duration":125807,"SoundDuration":125807,"Delta":8472004},{"NoteNumber":70,"Velocity":72,"Duration":125807,"SoundDuration":125807,"Delta":8975233},{"NoteNumber":55,"Velocity":45,"Duration":125807,"SoundDuration":125807,"Delta":8975233},{"NoteNumber":51,"Velocity":37,"Duration":125807,"SoundDuration":125807,"Delta":8975233},{"NoteNumber":70,"Velocity":63,"Duration":88771,"SoundDuration":88771,"Delta":9352655},{"NoteNumber":72,"Velocity":72,"Duration":121723,"SoundDuration":121723,"Delta":9471017},{"NoteNumber":56,"Velocity":52,"Duration":121723,"SoundDuration":121723,"Delta":9471017},{"NoteNumber":72,"Velocity":69,"Duration":125282,"SoundDuration":125282,"Delta":9957911},{"NoteNumber":53,"Velocity":46,"Duration":125282,"SoundDuration":125282,"Delta":9957911},{"NoteNumber":68,"Velocity":62,"Duration":131891,"SoundDuration":131891,"Delta":10459039},{"NoteNumber":74,"Velocity":74,"Duration":131891,"SoundDuration":131891,"Delta":10459039},{"NoteNumber":58,"Velocity":56,"Duration":131891,"SoundDuration":131891,"Delta":10459039},{"NoteNumber":75,"Velocity":83,"Duration":496976,"SoundDuration":496976,"Delta":10986604},{"NoteNumber":67,"Velocity":70,"Duration":496976,"SoundDuration":496976,"Delta":10986604},{"NoteNumber":51,"Velocity":60,"Duration":496976,"SoundDuration":496976,"Delta":10986604},{"NoteNumber":75,"Velocity":72,"Duration":125807,"SoundDuration":125807,"Delta":11981339},{"NoteNumber":75,"Velocity":61,"Duration":85727,"SoundDuration":85727,"Delta":12358761},{"NoteNumber":75,"Velocity":72,"Duration":503228,"SoundDuration":503228,"Delta":12473064},{"NoteNumber":60,"Velocity":56,"Duration":503229,"SoundDuration":503229,"Delta":12976293},{"NoteNumber":56,"Velocity":46,"Duration":503229,"SoundDuration":503229,"Delta":12976293},{"NoteNumber":80,"Velocity":72,"Duration":125807,"SoundDuration":125807,"Delta":13479522},{"NoteNumber":80,"Velocity":64,"Duration":85401,"SoundDuration":85401,"Delta":13856944},{"NoteNumber":80,"Velocity":72,"Duration":503228,"SoundDuration":503228,"Delta":13970813},{"NoteNumber":63,"Velocity":57,"Duration":503229,"SoundDuration":503229,"Delta":14474042},{"NoteNumber":60,"Velocity":48,"Duration":503229,"SoundDuration":503229,"Delta":14474042},{"NoteNumber":68,"Velocity":61,"Duration":125807,"SoundDuration":125807,"Delta":14977271},{"NoteNumber":72,"Velocity":72,"Duration":125807,"SoundDuration":125807,"Delta":14977271},{"NoteNumber":65,"Velocity":51,"Duration":125807,"SoundDuration":125807,"Delta":14977271},{"NoteNumber":68,"Velocity":51,"Duration":86055,"SoundDuration":86055,"Delta":15354693},{"NoteNumber":72,"Velocity":61,"Duration":86055,"SoundDuration":86055,"Delta":15354693},{"NoteNumber":65,"Velocity":42,"Duration":86055,"SoundDuration":86055,"Delta":15354693},{"NoteNumber":68,"Velocity":61,"Duration":482974,"SoundDuration":482974,"Delta":15469433},{"NoteNumber":72,"Velocity":72,"Duration":482974,"SoundDuration":482974,"Delta":15469433},{"NoteNumber":65,"Velocity":51,"Duration":482974,"SoundDuration":482974,"Delta":15469433},{"NoteNumber":73,"Velocity":68,"Duration":122219,"SoundDuration":122219,"Delta":15952408},{"NoteNumber":70,"Velocity":57,"Duration":122219,"SoundDuration":122219,"Delta":15952408},{"NoteNumber":61,"Velocity":48,"Duration":122219,"SoundDuration":122219,"Delta":15952408},{"NoteNumber":73,"Velocity":52,"Duration":129054,"SoundDuration":129054,"Delta":16441286},{"NoteNumber":77,"Velocity":62,"Duration":129054,"SoundDuration":129054,"Delta":16441286},{"NoteNumber":58,"Velocity":44,"Duration":129054,"SoundDuration":129054,"Delta":16441286},{"NoteNumber":70,"Velocity":64,"Duration":991815,"SoundDuration":991815,"Delta":16957504},{"NoteNumber":67,"Velocity":55,"Duration":991815,"SoundDuration":991815,"Delta":16957504},{"NoteNumber":63,"Velocity":46,"Duration":991815,"SoundDuration":991815,"Delta":16957504},{"NoteNumber":63,"Velocity":72,"Duration":125282,"SoundDuration":125282,"Delta":17959760},{"NoteNumber":61,"Velocity":46,"Duration":494676,"SoundDuration":494676,"Delta":17959760},{"NoteNumber":63,"Velocity":51,"Duration":89123,"SoundDuration":89123,"Delta":18335606},{"NoteNumber":68,"Velocity":72,"Duration":122719,"SoundDuration":122719,"Delta":18454437},{"NoteNumber":63,"Velocity":52,"Duration":122719,"SoundDuration":122719,"Delta":18454437},{"NoteNumber":60,"Velocity":44,"Duration":122719,"SoundDuration":122719,"Delta":18454437},{"NoteNumber":68,"Velocity":64,"Duration":125281,"SoundDuration":125281,"Delta":18945315},{"NoteNumber":58,"Velocity":38,"Duration":125281,"SoundDuration":125281,"Delta":18945315},{"NoteNumber":61,"Velocity":46,"Duration":125281,"SoundDuration":125281,"Delta":18945315},{"NoteNumber":68,"Velocity":64,"Duration":128501,"SoundDuration":128501,"Delta":19446443},{"NoteNumber":56,"Velocity":38,"Duration":128501,"SoundDuration":128501,"Delta":19446443},{"NoteNumber":60,"Velocity":46,"Duration":128501,"SoundDuration":128501,"Delta":19446443},{"NoteNumber":70,"Velocity":72,"Duration":492893,"SoundDuration":492893,"Delta":19960450},{"NoteNumber":55,"Velocity":40,"Duration":492893,"SoundDuration":492893,"Delta":19960450},{"NoteNumber":58,"Velocity":48,"Duration":492893,"SoundDuration":492893,"Delta":19960450},{"NoteNumber":56,"Velocity":45,"Duration":125807,"SoundDuration":125807,"Delta":20453344},{"NoteNumber":53,"Velocity":37,"Duration":125807,"SoundDuration":125807,"Delta":20453344},{"NoteNumber":70,"Velocity":72,"Duration":125807,"SoundDuration":125807,"Delta":20956573},{"NoteNumber":55,"Velocity":45,"Duration":125807,"SoundDuration":125807,"Delta":20956573},{"NoteNumber":51,"Velocity":37,"Duration":125807,"SoundDuration":125807,"Delta":20956573},{"NoteNumber":70,"Velocity":63,"Duration":88771,"SoundDuration":88771,"Delta":21333995},{"NoteNumber":72,"Velocity":72,"Duration":121723,"SoundDuration":121723,"Delta":21452356},{"NoteNumber":56,"Velocity":52,"Duration":121723,"SoundDuration":121723,"Delta":21452356},{"NoteNumber":72,"Velocity":69,"Duration":125281,"SoundDuration":125281,"Delta":21939250},{"NoteNumber":53,"Velocity":46,"Duration":125281,"SoundDuration":125281,"Delta":21939250},{"NoteNumber":68,"Velocity":62,"Duration":131891,"SoundDuration":131891,"Delta":22440379},{"NoteNumber":74,"Velocity":74,"Duration":131891,"SoundDuration":131891,"Delta":22440379},{"NoteNumber":58,"Velocity":56,"Duration":131891,"SoundDuration":131891,"Delta":22440379},{"NoteNumber":75,"Velocity":83,"Duration":496977,"SoundDuration":496977,"Delta":22967943},{"NoteNumber":67,"Velocity":70,"Duration":496977,"SoundDuration":496977,"Delta":22967943},{"NoteNumber":51,"Velocity":60,"Duration":496977,"SoundDuration":496977,"Delta":22967943},{"NoteNumber":75,"Velocity":72,"Duration":125807,"SoundDuration":125807,"Delta":23961897},{"NoteNumber":75,"Velocity":61,"Duration":85727,"SoundDuration":85727,"Delta":24339319},{"NoteNumber":75,"Velocity":72,"Duration":125807,"SoundDuration":125807,"Delta":24453622},{"NoteNumber":75,"Velocity":60,"Duration":125807,"SoundDuration":125807,"Delta":24956851},{"NoteNumber":77,"Velocity":67,"Duration":122719,"SoundDuration":122719,"Delta":25460080},{"NoteNumber":69,"Velocity":38,"Duration":491382,"SoundDuration":491382,"Delta":25460080},{"NoteNumber":75,"Velocity":46,"Duration":998867,"SoundDuration":998867,"Delta":25460080},{"NoteNumber":77,"Velocity":50,"Duration":92417,"SoundDuration":92417,"Delta":25828239},{"NoteNumber":77,"Velocity":61,"Duration":507484,"SoundDuration":507484,"Delta":25951462},{"NoteNumber":70,"Velocity":50,"Duration":1021491,"SoundDuration":1021491,"Delta":25951462},{"NoteNumber":82,"Velocity":59,"Duration":385505,"SoundDuration":385505,"Delta":26458947},{"NoteNumber":74,"Velocity":46,"Duration":385505,"SoundDuration":385505,"Delta":26458947},{"NoteNumber":75,"Velocity":67,"Duration":123223,"SoundDuration":123223,"Delta":26972954},{"NoteNumber":67,"Velocity":38,"Duration":492894,"SoundDuration":492894,"Delta":26972954},{"NoteNumber":73,"Velocity":46,"Duration":998242,"SoundDuration":998242,"Delta":26972954},{"NoteNumber":75,"Velocity":50,"Duration":92417,"SoundDuration":92417,"Delta":27342625},{"NoteNumber":75,"Velocity":61,"Duration":505347,"SoundDuration":505347,"Delta":27465848},{"NoteNumber":68,"Velocity":50,"Duration":1026045,"SoundDuration":1026045,"Delta":27465848},{"NoteNumber":80,"Velocity":59,"Duration":390523,"SoundDuration":390523,"Delta":27971196},{"NoteNumber":72,"Velocity":46,"Duration":390523,"SoundDuration":390523,"Delta":27971196},{"NoteNumber":72,"Velocity":67,"Duration":124760,"SoundDuration":124760,"Delta":28491894},{"NoteNumber":72,"Velocity":50,"Duration":92417,"SoundDuration":92417,"Delta":28866177},{"NoteNumber":72,"Velocity":61,"Duration":488877,"SoundDuration":488877,"Delta":28989400},{"NoteNumber":65,"Velocity":38,"Duration":1499862,"SoundDuration":1499862,"Delta":28989400},{"NoteNumber":68,"Velocity":46,"Duration":1499862,"SoundDuration":1499862,"Delta":28989400},{"NoteNumber":73,"Velocity":57,"Duration":496977,"SoundDuration":496977,"Delta":29478278},{"NoteNumber":74,"Velocity":59,"Duration":514006,"SoundDuration":514006,"Delta":29975255},{"NoteNumber":75,"Velocity":72,"Duration":124760,"SoundDuration":124760,"Delta":30489262},{"NoteNumber":63,"Velocity":38,"Duration":124760,"SoundDuration":124760,"Delta":30489262},{"NoteNumber":67,"Velocity":46,"Duration":124760,"SoundDuration":124760,"Delta":30489262},{"NoteNumber":75,"Velocity":60,"Duration":124760,"SoundDuration":124760,"Delta":30988305},{"NoteNumber":77,"Velocity":67,"Duration":385505,"SoundDuration":385505,"Delta":31487348},{"NoteNumber":58,"Velocity":38,"Duration":502940,"SoundDuration":502940,"Delta":31487348},{"NoteNumber":62,"Velocity":38,"Duration":502940,"SoundDuration":502940,"Delta":31487348},{"NoteNumber":68,"Velocity":46,"Duration":502940,"SoundDuration":502940,"Delta":31487348},{"NoteNumber":79,"Velocity":50,"Duration":117435,"SoundDuration":117435,"Delta":31872854},{"NoteNumber":75,"Velocity":72,"Duration":124760,"SoundDuration":124760,"Delta":31990289},{"NoteNumber":63,"Velocity":38,"Duration":124760,"SoundDuration":124760,"Delta":31990289},{"NoteNumber":67,"Velocity":46,"Duration":124760,"SoundDuration":124760,"Delta":31990289},{"NoteNumber":75,"Velocity":60,"Duration":124760,"SoundDuration":124760,"Delta":32489332},{"NoteNumber":82,"Velocity":67,"Duration":385505,"SoundDuration":385505,"Delta":32988375},{"NoteNumber":58,"Velocity":38,"Duration":502940,"SoundDuration":502940,"Delta":32988375},{"NoteNumber":62,"Velocity":38,"Duration":502940,"SoundDuration":502940,"Delta":32988375},{"NoteNumber":68,"Velocity":46,"Duration":502940,"SoundDuration":502940,"Delta":32988375},{"NoteNumber":82,"Velocity":50,"Duration":117435,"SoundDuration":117435,"Delta":33373880},{"NoteNumber":75,"Velocity":72,"Duration":124760,"SoundDuration":124760,"Delta":33491315},{"NoteNumber":63,"Velocity":38,"Duration":124760,"SoundDuration":124760,"Delta":33491315},{"NoteNumber":67,"Velocity":46,"Duration":124760,"SoundDuration":124760,"Delta":33491315},{"NoteNumber":75,"Velocity":60,"Duration":128501,"SoundDuration":128501,"Delta":33990358},{"NoteNumber":82,"Velocity":52,"Duration":410097,"SoundDuration":410097,"Delta":34504365},{"NoteNumber":58,"Velocity":30,"Duration":565168,"SoundDuration":565168,"Delta":34504365},{"NoteNumber":62,"Velocity":30,"Duration":565168,"SoundDuration":565168,"Delta":34504365},{"NoteNumber":68,"Velocity":36,"Duration":565168,"SoundDuration":565168,"Delta":34504365},{"NoteNumber":82,"Velocity":39,"Duration":155070,"SoundDuration":155070,"Delta":34914463},{"NoteNumber":75,"Velocity":57,"Duration":499043,"SoundDuration":499043,"Delta":35069534},{"NoteNumber":63,"Velocity":30,"Duration":499043,"SoundDuration":499043,"Delta":35069534},{"NoteNumber":67,"Velocity":36,"Duration":499043,"SoundDuration":499043,"Delta":35069534},{"NoteNumber":63,"Velocity":82,"Duration":125807,"SoundDuration":125807,"Delta":36125525},{"NoteNumber":60,"Velocity":69,"Duration":125807,"SoundDuration":125807,"Delta":36125525},{"NoteNumber":63,"Velocity":75,"Duration":85727,"SoundDuration":85727,"Delta":36502947},{"NoteNumber":60,"Velocity":63,"Duration":85727,"SoundDuration":85727,"Delta":36502947},{"NoteNumber":63,"Velocity":83,"Duration":503228,"SoundDuration":503228,"Delta":36617250},{"NoteNumber":60,"Velocity":70,"Duration":503228,"SoundDuration":503228,"Delta":36617250},{"NoteNumber":44,"Velocity":58,"Duration":503229,"SoundDuration":503229,"Delta":37120479},{"NoteNumber":56,"Velocity":69,"Duration":503229,"SoundDuration":503229,"Delta":37120479},{"NoteNumber":84,"Velocity":92,"Duration":125807,"SoundDuration":125807,"Delta":37623708},{"NoteNumber":80,"Velocity":78,"Duration":125807,"SoundDuration":125807,"Delta":37623708},{"NoteNumber":80,"Velocity":73,"Duration":85401,"SoundDuration":85401,"Delta":38001130},{"NoteNumber":84,"Velocity":86,"Duration":85401,"SoundDuration":85401,"Delta":38001130},{"NoteNumber":84,"Velocity":93,"Duration":499043,"SoundDuration":499043,"Delta":38114999},{"NoteNumber":80,"Velocity":79,"Duration":499043,"SoundDuration":499043,"Delta":38114999},{"NoteNumber":69,"Velocity":61,"Duration":125281,"SoundDuration":125281,"Delta":39148658},{"NoteNumber":72,"Velocity":72,"Duration":125281,"SoundDuration":125281,"Delta":39148658},{"NoteNumber":63,"Velocity":42,"Duration":125281,"SoundDuration":125281,"Delta":39148658},{"NoteNumber":66,"Velocity":51,"Duration":125281,"SoundDuration":125281,"Delta":39148658},{"NoteNumber":69,"Velocity":51,"Duration":86055,"SoundDuration":86055,"Delta":39524504},{"NoteNumber":72,"Velocity":61,"Duration":86055,"SoundDuration":86055,"Delta":39524504},{"NoteNumber":63,"Velocity":36,"Duration":86055,"SoundDuration":86055,"Delta":39524504},{"NoteNumber":66,"Velocity":42,"Duration":86055,"SoundDuration":86055,"Delta":39524504},{"NoteNumber":69,"Velocity":61,"Duration":482975,"SoundDuration":482975,"Delta":39639244},{"NoteNumber":72,"Velocity":72,"Duration":482975,"SoundDuration":482975,"Delta":39639244},{"NoteNumber":63,"Velocity":42,"Duration":482975,"SoundDuration":482975,"Delta":39639244},{"NoteNumber":66,"Velocity":51,"Duration":482975,"SoundDuration":482975,"Delta":39639244},{"NoteNumber":73,"Velocity":68,"Duration":122219,"SoundDuration":122219,"Delta":40122219},{"NoteNumber":70,"Velocity":57,"Duration":122219,"SoundDuration":122219,"Delta":40122219},{"NoteNumber":61,"Velocity":40,"Duration":122219,"SoundDuration":122219,"Delta":40122219},{"NoteNumber":65,"Velocity":48,"Duration":122219,"SoundDuration":122219,"Delta":40122219},{"NoteNumber":67,"Velocity":61,"Duration":125807,"SoundDuration":125807,"Delta":40611097},{"NoteNumber":70,"Velocity":72,"Duration":125807,"SoundDuration":125807,"Delta":40611097},{"NoteNumber":61,"Velocity":42,"Duration":125807,"SoundDuration":125807,"Delta":40611097},{"NoteNumber":63,"Velocity":51,"Duration":125807,"SoundDuration":125807,"Delta":40611097},{"NoteNumber":67,"Velocity":51,"Duration":86055,"SoundDuration":86055,"Delta":40988519},{"NoteNumber":70,"Velocity":61,"Duration":86055,"SoundDuration":86055,"Delta":40988519},{"NoteNumber":61,"Velocity":36,"Duration":86055,"SoundDuration":86055,"Delta":40988519},{"NoteNumber":63,"Velocity":42,"Duration":86055,"SoundDuration":86055,"Delta":40988519},{"NoteNumber":67,"Velocity":61,"Duration":482975,"SoundDuration":482975,"Delta":41103259},{"NoteNumber":70,"Velocity":72,"Duration":482975,"SoundDuration":482975,"Delta":41103259},{"NoteNumber":61,"Velocity":42,"Duration":482975,"SoundDuration":482975,"Delta":41103259},{"NoteNumber":63,"Velocity":51,"Duration":605194,"SoundDuration":605194,"Delta":41103259},{"NoteNumber":72,"Velocity":68,"Duration":122219,"SoundDuration":122219,"Delta":41586234},{"NoteNumber":68,"Velocity":57,"Duration":122219,"SoundDuration":122219,"Delta":41586234},{"NoteNumber":60,"Velocity":40,"Duration":122219,"SoundDuration":122219,"Delta":41586234},{"NoteNumber":72,"Velocity":61,"Duration":125807,"SoundDuration":125807,"Delta":42075112},{"NoteNumber":75,"Velocity":72,"Duration":125807,"SoundDuration":125807,"Delta":42075112},{"NoteNumber":72,"Velocity":51,"Duration":86055,"SoundDuration":86055,"Delta":42452534},{"NoteNumber":75,"Velocity":61,"Duration":86055,"SoundDuration":86055,"Delta":42452534},{"NoteNumber":72,"Velocity":61,"Duration":482975,"SoundDuration":482975,"Delta":42567274},{"NoteNumber":75,"Velocity":72,"Duration":482975,"SoundDuration":482975,"Delta":42567274},{"NoteNumber":73,"Velocity":68,"Duration":122219,"SoundDuration":122219,"Delta":43050249},{"NoteNumber":77,"Velocity":57,"Duration":122219,"SoundDuration":122219,"Delta":43050249},{"NoteNumber":61,"Velocity":62,"Duration":131891,"SoundDuration":131891,"Delta":43539127},{"NoteNumber":67,"Velocity":74,"Duration":131891,"SoundDuration":131891,"Delta":43539127},{"NoteNumber":51,"Velocity":47,"Duration":131891,"SoundDuration":131891,"Delta":43539127},{"NoteNumber":58,"Velocity":56,"Duration":131891,"SoundDuration":131891,"Delta":43539127},{"NoteNumber":68,"Velocity":83,"Duration":537008,"SoundDuration":537008,"Delta":44066692},{"NoteNumber":60,"Velocity":70,"Duration":537008,"SoundDuration":537008,"Delta":44066692},{"NoteNumber":44,"Velocity":50,"Duration":537008,"SoundDuration":537008,"Delta":44066692},{"NoteNumber":56,"Velocity":60,"Duration":537008,"SoundDuration":537008,"Delta":44066692},{"NoteNumber":75,"Velocity":72,"Duration":125807,"SoundDuration":125807,"Delta":45140710},{"NoteNumber":75,"Velocity":61,"Duration":85727,"SoundDuration":85727,"Delta":45518132},{"NoteNumber":75,"Velocity":72,"Duration":125807,"SoundDuration":125807,"Delta":45632435},{"NoteNumber":75,"Velocity":60,"Duration":125807,"SoundDuration":125807,"Delta":46135664},{"NoteNumber":77,"Velocity":67,"Duration":123731,"SoundDuration":123731,"Delta":46638893},{"NoteNumber":69,"Velocity":38,"Duration":494418,"SoundDuration":494418,"Delta":46638893},{"NoteNumber":75,"Velocity":46,"Duration":993461,"SoundDuration":993461,"Delta":46638893},{"NoteNumber":77,"Velocity":50,"Duration":92417,"SoundDuration":92417,"Delta":47010088},{"NoteNumber":77,"Velocity":61,"Duration":499043,"SoundDuration":499043,"Delta":47133312},{"NoteNumber":70,"Velocity":50,"Duration":1010857,"SoundDuration":1010857,"Delta":47133312},{"NoteNumber":82,"Velocity":59,"Duration":383860,"SoundDuration":383860,"Delta":47632355},{"NoteNumber":74,"Velocity":46,"Duration":383860,"SoundDuration":383860,"Delta":47632355},{"NoteNumber":75,"Velocity":67,"Duration":125281,"SoundDuration":125281,"Delta":48144169},{"NoteNumber":67,"Velocity":38,"Duration":499069,"SoundDuration":499069,"Delta":48144169},{"NoteNumber":73,"Velocity":46,"Duration":1004417,"SoundDuration":1004417,"Delta":48144169},{"NoteNumber":75,"Velocity":50,"Duration":92417,"SoundDuration":92417,"Delta":48520015},{"NoteNumber":75,"Velocity":61,"Duration":505347,"SoundDuration":505347,"Delta":48643238},{"NoteNumber":68,"Velocity":50,"Duration":1021566,"SoundDuration":1021566,"Delta":48643238},{"NoteNumber":80,"Velocity":59,"Duration":387163,"SoundDuration":387163,"Delta":49148586},{"NoteNumber":72,"Velocity":46,"Duration":387163,"SoundDuration":387163,"Delta":49148586},{"NoteNumber":72,"Velocity":67,"Duration":125281,"SoundDuration":125281,"Delta":49664804},{"NoteNumber":72,"Velocity":50,"Duration":92417,"SoundDuration":92417,"Delta":50040650},{"NoteNumber":72,"Velocity":61,"Duration":496977,"SoundDuration":496977,"Delta":50163874},{"NoteNumber":65,"Velocity":38,"Duration":1516424,"SoundDuration":1516424,"Delta":50163874},{"NoteNumber":68,"Velocity":46,"Duration":1516424,"SoundDuration":1516424,"Delta":50163874},{"NoteNumber":73,"Velocity":57,"Duration":503228,"SoundDuration":503228,"Delta":50660851},{"NoteNumber":74,"Velocity":59,"Duration":516218,"SoundDuration":516218,"Delta":51164080},{"NoteNumber":75,"Velocity":72,"Duration":124760,"SoundDuration":124760,"Delta":51680298},{"NoteNumber":63,"Velocity":38,"Duration":124760,"SoundDuration":124760,"Delta":51680298},{"NoteNumber":67,"Velocity":46,"Duration":124760,"SoundDuration":124760,"Delta":51680298},{"NoteNumber":75,"Velocity":60,"Duration":124760,"SoundDuration":124760,"Delta":52179341},{"NoteNumber":77,"Velocity":67,"Duration":385505,"SoundDuration":385505,"Delta":52678384},{"NoteNumber":58,"Velocity":38,"Duration":502940,"SoundDuration":502940,"Delta":52678384},{"NoteNumber":62,"Velocity":38,"Duration":502940,"SoundDuration":502940,"Delta":52678384},{"NoteNumber":68,"Velocity":46,"Duration":502940,"SoundDuration":502940,"Delta":52678384},{"NoteNumber":79,"Velocity":50,"Duration":117435,"SoundDuration":117435,"Delta":53063889},{"NoteNumber":75,"Velocity":72,"Duration":124760,"SoundDuration":124760,"Delta":53181324},{"NoteNumber":63,"Velocity":38,"Duration":124760,"SoundDuration":124760,"Delta":53181324},{"NoteNumber":67,"Velocity":46,"Duration":124760,"SoundDuration":124760,"Delta":53181324},{"NoteNumber":75,"Velocity":60,"Duration":124760,"SoundDuration":124760,"Delta":53680367},{"NoteNumber":82,"Velocity":67,"Duration":385505,"SoundDuration":385505,"Delta":54179410},{"NoteNumber":58,"Velocity":38,"Duration":502940,"SoundDuration":502940,"Delta":54179410},{"NoteNumber":62,"Velocity":38,"Duration":502940,"SoundDuration":502940,"Delta":54179410},{"NoteNumber":68,"Velocity":46,"Duration":502940,"SoundDuration":502940,"Delta":54179410},{"NoteNumber":82,"Velocity":50,"Duration":117435,"SoundDuration":117435,"Delta":54564916},{"NoteNumber":75,"Velocity":72,"Duration":124760,"SoundDuration":124760,"Delta":54682351},{"NoteNumber":63,"Velocity":38,"Duration":124760,"SoundDuration":124760,"Delta":54682351},{"NoteNumber":67,"Velocity":46,"Duration":124760,"SoundDuration":124760,"Delta":54682351},{"NoteNumber":75,"Velocity":60,"Duration":128501,"SoundDuration":128501,"Delta":55181394},{"NoteNumber":82,"Velocity":52,"Duration":410097,"SoundDuration":410097,"Delta":55695401},{"NoteNumber":58,"Velocity":30,"Duration":565168,"SoundDuration":565168,"Delta":55695401},{"NoteNumber":62,"Velocity":30,"Duration":565168,"SoundDuration":565168,"Delta":55695401},{"NoteNumber":68,"Velocity":36,"Duration":565168,"SoundDuration":565168,"Delta":55695401},{"NoteNumber":82,"Velocity":39,"Duration":155070,"SoundDuration":155070,"Delta":56105499},{"NoteNumber":75,"Velocity":57,"Duration":499043,"SoundDuration":499043,"Delta":56260569},{"NoteNumber":63,"Velocity":30,"Duration":499043,"SoundDuration":499043,"Delta":56260569},{"NoteNumber":67,"Velocity":36,"Duration":499043,"SoundDuration":499043,"Delta":56260569},{"NoteNumber":63,"Velocity":82,"Duration":125807,"SoundDuration":125807,"Delta":57316560},{"NoteNumber":60,"Velocity":69,"Duration":125807,"SoundDuration":125807,"Delta":57316560},{"NoteNumber":63,"Velocity":75,"Duration":85727,"SoundDuration":85727,"Delta":57693982},{"NoteNumber":60,"Velocity":63,"Duration":85727,"SoundDuration":85727,"Delta":57693982},{"NoteNumber":63,"Velocity":83,"Duration":503228,"SoundDuration":503228,"Delta":57808285},{"NoteNumber":60,"Velocity":70,"Duration":503228,"SoundDuration":503228,"Delta":57808285},{"NoteNumber":44,"Velocity":58,"Duration":503229,"SoundDuration":503229,"Delta":58311514},{"NoteNumber":56,"Velocity":69,"Duration":503229,"SoundDuration":503229,"Delta":58311514},{"NoteNumber":84,"Velocity":92,"Duration":125807,"SoundDuration":125807,"Delta":58814743},{"NoteNumber":80,"Velocity":78,"Duration":125807,"SoundDuration":125807,"Delta":58814743},{"NoteNumber":80,"Velocity":73,"Duration":85401,"SoundDuration":85401,"Delta":59192165},{"NoteNumber":84,"Velocity":86,"Duration":85401,"SoundDuration":85401,"Delta":59192165},{"NoteNumber":84,"Velocity":93,"Duration":499043,"SoundDuration":499043,"Delta":59306034},{"NoteNumber":80,"Velocity":79,"Duration":499043,"SoundDuration":499043,"Delta":59306034},{"NoteNumber":69,"Velocity":61,"Duration":125281,"SoundDuration":125281,"Delta":60339693},{"NoteNumber":72,"Velocity":72,"Duration":125281,"SoundDuration":125281,"Delta":60339693},{"NoteNumber":63,"Velocity":42,"Duration":125281,"SoundDuration":125281,"Delta":60339693},{"NoteNumber":66,"Velocity":51,"Duration":125281,"SoundDuration":125281,"Delta":60339693},{"NoteNumber":69,"Velocity":51,"Duration":86055,"SoundDuration":86055,"Delta":60715539},{"NoteNumber":72,"Velocity":61,"Duration":86055,"SoundDuration":86055,"Delta":60715539},{"NoteNumber":63,"Velocity":36,"Duration":86055,"SoundDuration":86055,"Delta":60715539},{"NoteNumber":66,"Velocity":42,"Duration":86055,"SoundDuration":86055,"Delta":60715539},{"NoteNumber":69,"Velocity":61,"Duration":482975,"SoundDuration":482975,"Delta":60830280},{"NoteNumber":72,"Velocity":72,"Duration":482975,"SoundDuration":482975,"Delta":60830280},{"NoteNumber":63,"Velocity":42,"Duration":482975,"SoundDuration":482975,"Delta":60830280},{"NoteNumber":66,"Velocity":51,"Duration":482975,"SoundDuration":482975,"Delta":60830280},{"NoteNumber":73,"Velocity":68,"Duration":122219,"SoundDuration":122219,"Delta":61313255},{"NoteNumber":70,"Velocity":57,"Duration":122219,"SoundDuration":122219,"Delta":61313255},{"NoteNumber":61,"Velocity":40,"Duration":122219,"SoundDuration":122219,"Delta":61313255},{"NoteNumber":65,"Velocity":48,"Duration":122219,"SoundDuration":122219,"Delta":61313255},{"NoteNumber":67,"Velocity":61,"Duration":125807,"SoundDuration":125807,"Delta":61802133},{"NoteNumber":70,"Velocity":72,"Duration":125807,"SoundDuration":125807,"Delta":61802133},{"NoteNumber":61,"Velocity":42,"Duration":125807,"SoundDuration":125807,"Delta":61802133},{"NoteNumber":63,"Velocity":51,"Duration":125807,"SoundDuration":125807,"Delta":61802133},{"NoteNumber":67,"Velocity":51,"Duration":86055,"SoundDuration":86055,"Delta":62179554},{"NoteNumber":70,"Velocity":61,"Duration":86055,"SoundDuration":86055,"Delta":62179554},{"NoteNumber":61,"Velocity":36,"Duration":86055,"SoundDuration":86055,"Delta":62179554},{"NoteNumber":63,"Velocity":42,"Duration":86055,"SoundDuration":86055,"Delta":62179554},{"NoteNumber":67,"Velocity":61,"Duration":482975,"SoundDuration":482975,"Delta":62294295},{"NoteNumber":70,"Velocity":72,"Duration":482975,"SoundDuration":482975,"Delta":62294295},{"NoteNumber":61,"Velocity":42,"Duration":482975,"SoundDuration":482975,"Delta":62294295},{"NoteNumber":63,"Velocity":51,"Duration":605194,"SoundDuration":605194,"Delta":62294295},{"NoteNumber":72,"Velocity":68,"Duration":122219,"SoundDuration":122219,"Delta":62777270},{"NoteNumber":68,"Velocity":57,"Duration":122219,"SoundDuration":122219,"Delta":62777270},{"NoteNumber":60,"Velocity":40,"Duration":122219,"SoundDuration":122219,"Delta":62777270},{"NoteNumber":72,"Velocity":61,"Duration":125807,"SoundDuration":125807,"Delta":63266148},{"NoteNumber":75,"Velocity":72,"Duration":125807,"SoundDuration":125807,"Delta":63266148},{"NoteNumber":72,"Velocity":51,"Duration":86055,"SoundDuration":86055,"Delta":63643569},{"NoteNumber":75,"Velocity":61,"Duration":86055,"SoundDuration":86055,"Delta":63643569},{"NoteNumber":72,"Velocity":61,"Duration":482974,"SoundDuration":482974,"Delta":63758310},{"NoteNumber":75,"Velocity":72,"Duration":482974,"SoundDuration":482974,"Delta":63758310},{"NoteNumber":73,"Velocity":68,"Duration":122219,"SoundDuration":122219,"Delta":64241285},{"NoteNumber":77,"Velocity":57,"Duration":122219,"SoundDuration":122219,"Delta":64241285},{"NoteNumber":61,"Velocity":62,"Duration":131891,"SoundDuration":131891,"Delta":64730163},{"NoteNumber":67,"Velocity":74,"Duration":131891,"SoundDuration":131891,"Delta":64730163},{"NoteNumber":51,"Velocity":47,"Duration":131891,"SoundDuration":131891,"Delta":64730163},{"NoteNumber":58,"Velocity":56,"Duration":131891,"SoundDuration":131891,"Delta":64730163},{"NoteNumber":68,"Velocity":83,"Duration":541859,"SoundDuration":541859,"Delta":65257728},{"NoteNumber":60,"Velocity":70,"Duration":541859,"SoundDuration":541859,"Delta":65257728},{"NoteNumber":44,"Velocity":50,"Duration":541859,"SoundDuration":541859,"Delta":65257728},{"NoteNumber":56,"Velocity":60,"Duration":541859,"SoundDuration":541859,"Delta":65257728},{"NoteNumber":72,"Velocity":60,"Duration":224332,"SoundDuration":224332,"Delta":66341446},{"NoteNumber":73,"Velocity":54,"Duration":232144,"SoundDuration":232144,"Delta":66565778},{"NoteNumber":77,"Velocity":60,"Duration":221027,"SoundDuration":221027,"Delta":66797922},{"NoteNumber":56,"Velocity":34,"Duration":221027,"SoundDuration":221027,"Delta":66797922},{"NoteNumber":75,"Velocity":55,"Duration":226022,"SoundDuration":226022,"Delta":67018949},{"NoteNumber":63,"Velocity":28,"Duration":226022,"SoundDuration":226022,"Delta":67018949},{"NoteNumber":73,"Velocity":58,"Duration":226022,"SoundDuration":226022,"Delta":67244972},{"NoteNumber":60,"Velocity":32,"Duration":226022,"SoundDuration":226022,"Delta":67244972},{"NoteNumber":72,"Velocity":53,"Duration":113011,"SoundDuration":113011,"Delta":67470995},{"NoteNumber":63,"Velocity":28,"Duration":226022,"SoundDuration":226022,"Delta":67470995},{"NoteNumber":72,"Velocity":55,"Duration":451991,"SoundDuration":451991,"Delta":67697018},{"NoteNumber":56,"Velocity":32,"Duration":226023,"SoundDuration":226023,"Delta":67697018},{"NoteNumber":63,"Velocity":28,"Duration":235793,"SoundDuration":235793,"Delta":67923041},{"NoteNumber":72,"Velocity":60,"Duration":893176,"SoundDuration":893176,"Delta":68158835},{"NoteNumber":56,"Velocity":34,"Duration":222667,"SoundDuration":222667,"Delta":68158835},{"NoteNumber":63,"Velocity":24,"Duration":225174,"SoundDuration":225174,"Delta":68381502},{"NoteNumber":60,"Velocity":28,"Duration":222667,"SoundDuration":222667,"Delta":68606677},{"NoteNumber":63,"Velocity":24,"Duration":222667,"SoundDuration":222667,"Delta":68829344},{"NoteNumber":79,"Velocity":60,"Duration":218610,"SoundDuration":218610,"Delta":69052012},{"NoteNumber":56,"Velocity":28,"Duration":218610,"SoundDuration":218610,"Delta":69052012},{"NoteNumber":80,"Velocity":54,"Duration":226022,"SoundDuration":226022,"Delta":69270623},{"NoteNumber":63,"Velocity":24,"Duration":226022,"SoundDuration":226022,"Delta":69270623},{"NoteNumber":84,"Velocity":60,"Duration":219410,"SoundDuration":219410,"Delta":69496646},{"NoteNumber":56,"Velocity":34,"Duration":219410,"SoundDuration":219410,"Delta":69496646},{"NoteNumber":80,"Velocity":55,"Duration":226877,"SoundDuration":226877,"Delta":69716056},{"NoteNumber":63,"Velocity":28,"Duration":226877,"SoundDuration":226877,"Delta":69716056},{"NoteNumber":79,"Velocity":58,"Duration":226022,"SoundDuration":226022,"Delta":69942934},{"NoteNumber":60,"Velocity":32,"Duration":226022,"SoundDuration":226022,"Delta":69942934},{"NoteNumber":77,"Velocity":53,"Duration":226022,"SoundDuration":226022,"Delta":70168957},{"NoteNumber":63,"Velocity":28,"Duration":226022,"SoundDuration":226022,"Delta":70168957},{"NoteNumber":75,"Velocity":55,"Duration":221314,"SoundDuration":221314,"Delta":70394980},{"NoteNumber":56,"Velocity":32,"Duration":226022,"SoundDuration":226022,"Delta":70394980},{"NoteNumber":63,"Velocity":28,"Duration":234870,"SoundDuration":234870,"Delta":70621003},{"NoteNumber":75,"Velocity":60,"Duration":906700,"SoundDuration":906700,"Delta":70855873},{"NoteNumber":56,"Velocity":34,"Duration":225174,"SoundDuration":225174,"Delta":70855873},{"NoteNumber":63,"Velocity":24,"Duration":229480,"SoundDuration":229480,"Delta":71081048},{"NoteNumber":60,"Velocity":28,"Duration":226022,"SoundDuration":226022,"Delta":71310528},{"NoteNumber":63,"Velocity":24,"Duration":226022,"SoundDuration":226022,"Delta":71536551},{"NoteNumber":79,"Velocity":60,"Duration":219280,"SoundDuration":219280,"Delta":71762574},{"NoteNumber":56,"Velocity":28,"Duration":219280,"SoundDuration":219280,"Delta":71762574},{"NoteNumber":80,"Velocity":54,"Duration":226022,"SoundDuration":226022,"Delta":71981855},{"NoteNumber":63,"Velocity":24,"Duration":226022,"SoundDuration":226022,"Delta":71981855},{"NoteNumber":84,"Velocity":60,"Duration":219410,"SoundDuration":219410,"Delta":72207878},{"NoteNumber":56,"Velocity":34,"Duration":219410,"SoundDuration":219410,"Delta":72207878},{"NoteNumber":80,"Velocity":55,"Duration":222667,"SoundDuration":222667,"Delta":72427288},{"NoteNumber":62,"Velocity":28,"Duration":222667,"SoundDuration":222667,"Delta":72427288},{"NoteNumber":79,"Velocity":58,"Duration":221027,"SoundDuration":221027,"Delta":72649956},{"NoteNumber":58,"Velocity":32,"Duration":221027,"SoundDuration":221027,"Delta":72649956},{"NoteNumber":77,"Velocity":53,"Duration":221026,"SoundDuration":221026,"Delta":72870983},{"NoteNumber":62,"Velocity":28,"Duration":221026,"SoundDuration":221026,"Delta":72870983},{"NoteNumber":75,"Velocity":55,"Duration":221027,"SoundDuration":221027,"Delta":73092010},{"NoteNumber":56,"Velocity":32,"Duration":221027,"SoundDuration":221027,"Delta":73092010},{"NoteNumber":74,"Velocity":52,"Duration":234870,"SoundDuration":234870,"Delta":73313037},{"NoteNumber":62,"Velocity":28,"Duration":234870,"SoundDuration":234870,"Delta":73313037},{"NoteNumber":82,"Velocity":60,"Duration":913615,"SoundDuration":913615,"Delta":73547907},{"NoteNumber":55,"Velocity":34,"Duration":225174,"SoundDuration":225174,"Delta":73547907},{"NoteNumber":63,"Velocity":24,"Duration":229480,"SoundDuration":229480,"Delta":73773082},{"NoteNumber":58,"Velocity":28,"Duration":229480,"SoundDuration":229480,"Delta":74002562},{"NoteNumber":63,"Velocity":24,"Duration":229480,"SoundDuration":229480,"Delta":74232043},{"NoteNumber":80,"Velocity":60,"Duration":221027,"SoundDuration":221027,"Delta":74461523},{"NoteNumber":55,"Velocity":28,"Duration":221027,"SoundDuration":221027,"Delta":74461523},{"NoteNumber":79,"Velocity":54,"Duration":103593,"SoundDuration":103593,"Delta":74682550},{"NoteNumber":63,"Velocity":24,"Duration":226022,"SoundDuration":226022,"Delta":74682550},{"NoteNumber":79,"Velocity":60,"Duration":213173,"SoundDuration":213173,"Delta":74908573},{"NoteNumber":56,"Velocity":40,"Duration":437506,"SoundDuration":437506,"Delta":74908573},{"NoteNumber":77,"Velocity":55,"Duration":84124,"SoundDuration":84124,"Delta":75121747},{"NoteNumber":75,"Velocity":58,"Duration":212419,"SoundDuration":212419,"Delta":75346080},{"NoteNumber":77,"Velocity":51,"Duration":83500,"SoundDuration":83500,"Delta":75558499},{"NoteNumber":74,"Velocity":55,"Duration":218610,"SoundDuration":218610,"Delta":75781167},{"NoteNumber":58,"Velocity":36,"Duration":453481,"SoundDuration":453481,"Delta":75781167},{"NoteNumber":77,"Velocity":47,"Duration":88076,"SoundDuration":88076,"Delta":75999778},{"NoteNumber":75,"Velocity":60,"Duration":454654,"SoundDuration":454654,"Delta":76234648},{"NoteNumber":51,"Velocity":40,"Duration":454654,"SoundDuration":454654,"Delta":76234648},{"NoteNumber":72,"Velocity":60,"Duration":224332,"SoundDuration":224332,"Delta":77148264},{"NoteNumber":73,"Velocity":54,"Duration":232144,"SoundDuration":232144,"Delta":77372597},{"NoteNumber":77,"Velocity":60,"Duration":221027,"SoundDuration":221027,"Delta":77604741},{"NoteNumber":56,"Velocity":34,"Duration":221027,"SoundDuration":221027,"Delta":77604741},{"NoteNumber":75,"Velocity":55,"Duration":226022,"SoundDuration":226022,"Delta":77825768},{"NoteNumber":63,"Velocity":28,"Duration":226022,"SoundDuration":226022,"Delta":77825768},{"NoteNumber":73,"Velocity":58,"Duration":226022,"SoundDuration":226022,"Delta":78051791},{"NoteNumber":60,"Velocity":32,"Duration":226022,"SoundDuration":226022,"Delta":78051791},{"NoteNumber":72,"Velocity":53,"Duration":103593,"SoundDuration":103593,"Delta":78277814},{"NoteNumber":63,"Velocity":28,"Duration":226022,"SoundDuration":226022,"Delta":78277814},{"NoteNumber":72,"Velocity":55,"Duration":451991,"SoundDuration":451991,"Delta":78503837},{"NoteNumber":56,"Velocity":32,"Duration":226023,"SoundDuration":226023,"Delta":78503837},{"NoteNumber":63,"Velocity":28,"Duration":235793,"SoundDuration":235793,"Delta":78729860},{"NoteNumber":72,"Velocity":60,"Duration":893176,"SoundDuration":893176,"Delta":78965653},{"NoteNumber":56,"Velocity":34,"Duration":222667,"SoundDuration":222667,"Delta":78965653},{"NoteNumber":63,"Velocity":24,"Duration":225174,"SoundDuration":225174,"Delta":79188321},{"NoteNumber":60,"Velocity":28,"Duration":222667,"SoundDuration":222667,"Delta":79413495},{"NoteNumber":63,"Velocity":24,"Duration":222667,"SoundDuration":222667,"Delta":79636163},{"NoteNumber":79,"Velocity":60,"Duration":217029,"SoundDuration":217029,"Delta":79858830},{"NoteNumber":56,"Velocity":28,"Duration":217029,"SoundDuration":217029,"Delta":79858830},{"NoteNumber":80,"Velocity":54,"Duration":226022,"SoundDuration":226022,"Delta":80075860},{"NoteNumber":63,"Velocity":24,"Duration":226022,"SoundDuration":226022,"Delta":80075860},{"NoteNumber":84,"Velocity":60,"Duration":220215,"SoundDuration":220215,"Delta":80301883},{"NoteNumber":56,"Velocity":34,"Duration":220215,"SoundDuration":220215,"Delta":80301883},{"NoteNumber":80,"Velocity":55,"Duration":226022,"SoundDuration":226022,"Delta":80522099},{"NoteNumber":63,"Velocity":28,"Duration":226022,"SoundDuration":226022,"Delta":80522099},{"NoteNumber":79,"Velocity":58,"Duration":226022,"SoundDuration":226022,"Delta":80748122},{"NoteNumber":60,"Velocity":32,"Duration":226022,"SoundDuration":226022,"Delta":80748122},{"NoteNumber":77,"Velocity":53,"Duration":226022,"SoundDuration":226022,"Delta":80974145},{"NoteNumber":63,"Velocity":28,"Duration":226022,"SoundDuration":226022,"Delta":80974145},{"NoteNumber":75,"Velocity":55,"Duration":221314,"SoundDuration":221314,"Delta":81200168},{"NoteNumber":56,"Velocity":32,"Duration":226023,"SoundDuration":226023,"Delta":81200168},{"NoteNumber":63,"Velocity":28,"Duration":234870,"SoundDuration":234870,"Delta":81426191},{"NoteNumber":75,"Velocity":60,"Duration":906700,"SoundDuration":906700,"Delta":81661061},{"NoteNumber":56,"Velocity":34,"Duration":225174,"SoundDuration":225174,"Delta":81661061},{"NoteNumber":63,"Velocity":24,"Duration":229480,"SoundDuration":229480,"Delta":81886236},{"NoteNumber":60,"Velocity":28,"Duration":226022,"SoundDuration":226022,"Delta":82115716},{"NoteNumber":63,"Velocity":24,"Duration":226022,"SoundDuration":226022,"Delta":82341739},{"NoteNumber":79,"Velocity":60,"Duration":221027,"SoundDuration":221027,"Delta":82567762},{"NoteNumber":56,"Velocity":28,"Duration":221027,"SoundDuration":221027,"Delta":82567762},{"NoteNumber":80,"Velocity":54,"Duration":226022,"SoundDuration":226022,"Delta":82788789},{"NoteNumber":63,"Velocity":24,"Duration":226022,"SoundDuration":226022,"Delta":82788789},{"NoteNumber":84,"Velocity":60,"Duration":220215,"SoundDuration":220215,"Delta":83014812},{"NoteNumber":56,"Velocity":34,"Duration":220215,"SoundDuration":220215,"Delta":83014812},{"NoteNumber":80,"Velocity":55,"Duration":226877,"SoundDuration":226877,"Delta":83235028},{"NoteNumber":62,"Velocity":28,"Duration":226877,"SoundDuration":226877,"Delta":83235028},{"NoteNumber":79,"Velocity":58,"Duration":221844,"SoundDuration":221844,"Delta":83461906},{"NoteNumber":58,"Velocity":32,"Duration":221844,"SoundDuration":221844,"Delta":83461906},{"NoteNumber":77,"Velocity":53,"Duration":221844,"SoundDuration":221844,"Delta":83683750},{"NoteNumber":62,"Velocity":28,"Duration":221844,"SoundDuration":221844,"Delta":83683750},{"NoteNumber":75,"Velocity":55,"Duration":221844,"SoundDuration":221844,"Delta":83905595},{"NoteNumber":56,"Velocity":32,"Duration":221844,"SoundDuration":221844,"Delta":83905595},{"NoteNumber":74,"Velocity":52,"Duration":234870,"SoundDuration":234870,"Delta":84127439},{"NoteNumber":62,"Velocity":28,"Duration":234870,"SoundDuration":234870,"Delta":84127439},{"NoteNumber":82,"Velocity":60,"Duration":913615,"SoundDuration":913615,"Delta":84362310},{"NoteNumber":55,"Velocity":34,"Duration":225174,"SoundDuration":225174,"Delta":84362310},{"NoteNumber":63,"Velocity":24,"Duration":229480,"SoundDuration":229480,"Delta":84587484},{"NoteNumber":58,"Velocity":28,"Duration":229480,"SoundDuration":229480,"Delta":84816965},{"NoteNumber":63,"Velocity":24,"Duration":229480,"SoundDuration":229480,"Delta":85046445},{"NoteNumber":80,"Velocity":60,"Duration":221027,"SoundDuration":221027,"Delta":85275926},{"NoteNumber":55,"Velocity":28,"Duration":221027,"SoundDuration":221027,"Delta":85275926},{"NoteNumber":79,"Velocity":54,"Duration":103593,"SoundDuration":103593,"Delta":85496953},{"NoteNumber":63,"Velocity":24,"Duration":226022,"SoundDuration":226022,"Delta":85496953},{"NoteNumber":79,"Velocity":60,"Duration":213173,"SoundDuration":213173,"Delta":85722976},{"NoteNumber":56,"Velocity":40,"Duration":438348,"SoundDuration":438348,"Delta":85722976},{"NoteNumber":77,"Velocity":55,"Duration":84440,"SoundDuration":84440,"Delta":85936150},{"NoteNumber":75,"Velocity":58,"Duration":213934,"SoundDuration":213934,"Delta":86161324},{"NoteNumber":77,"Velocity":51,"Duration":83500,"SoundDuration":83500,"Delta":86375259},{"NoteNumber":74,"Velocity":55,"Duration":218610,"SoundDuration":218610,"Delta":86597926},{"NoteNumber":58,"Velocity":36,"Duration":453481,"SoundDuration":453481,"Delta":86597926},{"NoteNumber":77,"Velocity":47,"Duration":88076,"SoundDuration":88076,"Delta":86816537},{"NoteNumber":75,"Velocity":60,"Duration":454654,"SoundDuration":454654,"Delta":87051408},{"NoteNumber":51,"Velocity":40,"Duration":454654,"SoundDuration":454654,"Delta":87051408},{"NoteNumber":77,"Velocity":60,"Duration":221027,"SoundDuration":221027,"Delta":87965024},{"NoteNumber":75,"Velocity":54,"Duration":169517,"SoundDuration":169517,"Delta":88186051},{"NoteNumber":75,"Velocity":60,"Duration":214699,"SoundDuration":214699,"Delta":88412074},{"NoteNumber":63,"Velocity":40,"Duration":438196,"SoundDuration":438196,"Delta":88412074},{"NoteNumber":73,"Velocity":55,"Duration":111748,"SoundDuration":111748,"Delta":88626774},{"NoteNumber":73,"Velocity":58,"Duration":214699,"SoundDuration":214699,"Delta":88850271},{"NoteNumber":67,"Velocity":36,"Duration":437367,"SoundDuration":437367,"Delta":88850271},{"NoteNumber":75,"Velocity":51,"Duration":111333,"SoundDuration":111333,"Delta":89064971},{"NoteNumber":72,"Velocity":55,"Duration":218610,"SoundDuration":218610,"Delta":89287638},{"NoteNumber":68,"Velocity":36,"Duration":453481,"SoundDuration":453481,"Delta":89287638},{"NoteNumber":73,"Velocity":47,"Duration":117435,"SoundDuration":117435,"Delta":89506249},{"NoteNumber":70,"Velocity":60,"Duration":913615,"SoundDuration":913615,"Delta":89741120},{"NoteNumber":67,"Velocity":40,"Duration":454654,"SoundDuration":454654,"Delta":89741120},{"NoteNumber":63,"Velocity":37,"Duration":458961,"SoundDuration":458961,"Delta":90195775},{"NoteNumber":72,"Velocity":60,"Duration":221027,"SoundDuration":221027,"Delta":90654736},{"NoteNumber":70,"Velocity":54,"Duration":169517,"SoundDuration":169517,"Delta":90875763},{"NoteNumber":70,"Velocity":60,"Duration":217817,"SoundDuration":217817,"Delta":91101786},{"NoteNumber":53,"Velocity":40,"Duration":1362186,"SoundDuration":1362186,"Delta":91101786},{"NoteNumber":68,"Velocity":55,"Duration":226877,"SoundDuration":226877,"Delta":91319603},{"NoteNumber":67,"Velocity":58,"Duration":215470,"SoundDuration":215470,"Delta":91546481},{"NoteNumber":62,"Velocity":36,"Duration":438138,"SoundDuration":438138,"Delta":91546481},{"NoteNumber":68,"Velocity":51,"Duration":222667,"SoundDuration":222667,"Delta":91761952},{"NoteNumber":67,"Velocity":55,"Duration":227738,"SoundDuration":227738,"Delta":91984619},{"NoteNumber":62,"Velocity":36,"Duration":952799,"SoundDuration":952799,"Delta":91984619},{"NoteNumber":68,"Velocity":47,"Duration":251614,"SoundDuration":251614,"Delta":92212358},{"NoteNumber":68,"Velocity":51,"Duration":473446,"SoundDuration":473446,"Delta":92463972},{"NoteNumber":72,"Velocity":60,"Duration":473446,"SoundDuration":473446,"Delta":92463972},{"NoteNumber":51,"Velocity":40,"Duration":946894,"SoundDuration":946894,"Delta":92463972},{"NoteNumber":67,"Velocity":49,"Duration":473447,"SoundDuration":473447,"Delta":92937419},{"NoteNumber":70,"Velocity":49,"Duration":473447,"SoundDuration":473447,"Delta":92937419},{"NoteNumber":63,"Velocity":37,"Duration":473447,"SoundDuration":473447,"Delta":92937419},{"NoteNumber":72,"Velocity":57,"Duration":224332,"SoundDuration":224332,"Delta":93410866},{"NoteNumber":73,"Velocity":48,"Duration":232144,"SoundDuration":232144,"Delta":93635199},{"NoteNumber":77,"Velocity":57,"Duration":221027,"SoundDuration":221027,"Delta":93867343},{"NoteNumber":56,"Velocity":34,"Duration":221027,"SoundDuration":221027,"Delta":93867343},{"NoteNumber":75,"Velocity":47,"Duration":226022,"SoundDuration":226022,"Delta":94088370},{"NoteNumber":63,"Velocity":28,"Duration":226022,"SoundDuration":226022,"Delta":94088370},{"NoteNumber":73,"Velocity":56,"Duration":224332,"SoundDuration":224332,"Delta":94314393},{"NoteNumber":60,"Velocity":32,"Duration":224332,"SoundDuration":224332,"Delta":94314393},{"NoteNumber":72,"Velocity":49,"Duration":102819,"SoundDuration":102819,"Delta":94538725},{"NoteNumber":63,"Velocity":28,"Duration":224332,"SoundDuration":224332,"Delta":94538725},{"NoteNumber":72,"Velocity":55,"Duration":450301,"SoundDuration":450301,"Delta":94763058},{"NoteNumber":56,"Velocity":32,"Duration":224332,"SoundDuration":224332,"Delta":94763058},{"NoteNumber":63,"Velocity":28,"Duration":235793,"SoundDuration":235793,"Delta":94987390},{"NoteNumber":72,"Velocity":60,"Duration":893176,"SoundDuration":893176,"Delta":95223184},{"NoteNumber":56,"Velocity":34,"Duration":222667,"SoundDuration":222667,"Delta":95223184},{"NoteNumber":63,"Velocity":24,"Duration":225174,"SoundDuration":225174,"Delta":95445851},{"NoteNumber":60,"Velocity":28,"Duration":222667,"SoundDuration":222667,"Delta":95671026},{"NoteNumber":63,"Velocity":24,"Duration":222667,"SoundDuration":222667,"Delta":95893693},{"NoteNumber":79,"Velocity":60,"Duration":218610,"SoundDuration":218610,"Delta":96116361},{"NoteNumber":56,"Velocity":28,"Duration":218610,"SoundDuration":218610,"Delta":96116361},{"NoteNumber":80,"Velocity":54,"Duration":226022,"SoundDuration":226022,"Delta":96334972},{"NoteNumber":63,"Velocity":24,"Duration":226022,"SoundDuration":226022,"Delta":96334972},{"NoteNumber":84,"Velocity":60,"Duration":220215,"SoundDuration":220215,"Delta":96560995},{"NoteNumber":48,"Velocity":34,"Duration":220215,"SoundDuration":220215,"Delta":96560995},{"NoteNumber":80,"Velocity":55,"Duration":224332,"SoundDuration":224332,"Delta":96781211},{"NoteNumber":56,"Velocity":28,"Duration":224332,"SoundDuration":224332,"Delta":96781211},{"NoteNumber":79,"Velocity":58,"Duration":224332,"SoundDuration":224332,"Delta":97005543},{"NoteNumber":51,"Velocity":32,"Duration":224332,"SoundDuration":224332,"Delta":97005543},{"NoteNumber":77,"Velocity":53,"Duration":224332,"SoundDuration":224332,"Delta":97229876},{"NoteNumber":56,"Velocity":28,"Duration":224332,"SoundDuration":224332,"Delta":97229876},{"NoteNumber":75,"Velocity":55,"Duration":219658,"SoundDuration":219658,"Delta":97454208},{"NoteNumber":48,"Velocity":32,"Duration":224332,"SoundDuration":224332,"Delta":97454208},{"NoteNumber":56,"Velocity":28,"Duration":234870,"SoundDuration":234870,"Delta":97678541},{"NoteNumber":75,"Velocity":60,"Duration":906700,"SoundDuration":906700,"Delta":97913411},{"NoteNumber":48,"Velocity":34,"Duration":225174,"SoundDuration":225174,"Delta":97913411},{"NoteNumber":56,"Velocity":24,"Duration":229480,"SoundDuration":229480,"Delta":98138586},{"NoteNumber":51,"Velocity":28,"Duration":226022,"SoundDuration":226022,"Delta":98368066},{"NoteNumber":56,"Velocity":24,"Duration":226022,"SoundDuration":226022,"Delta":98594089},{"NoteNumber":73,"Velocity":60,"Duration":221027,"SoundDuration":221027,"Delta":98820112},{"NoteNumber":48,"Velocity":28,"Duration":221027,"SoundDuration":221027,"Delta":98820112},{"NoteNumber":72,"Velocity":54,"Duration":103593,"SoundDuration":103593,"Delta":99041139},{"NoteNumber":56,"Velocity":24,"Duration":226022,"SoundDuration":226022,"Delta":99041139},{"NoteNumber":72,"Velocity":60,"Duration":213173,"SoundDuration":213173,"Delta":99267162},{"NoteNumber":49,"Velocity":40,"Duration":440051,"SoundDuration":440051,"Delta":99267162},{"NoteNumber":70,"Velocity":55,"Duration":85079,"SoundDuration":85079,"Delta":99480336},{"NoteNumber":68,"Velocity":58,"Duration":213934,"SoundDuration":213934,"Delta":99707214},{"NoteNumber":70,"Velocity":51,"Duration":83500,"SoundDuration":83500,"Delta":99921148},{"NoteNumber":67,"Velocity":55,"Duration":218610,"SoundDuration":218610,"Delta":100143816},{"NoteNumber":51,"Velocity":36,"Duration":453481,"SoundDuration":453481,"Delta":100143816},{"NoteNumber":70,"Velocity":47,"Duration":88076,"SoundDuration":88076,"Delta":100362427},{"NoteNumber":68,"Velocity":60,"Duration":454654,"SoundDuration":454654,"Delta":100597297},{"NoteNumber":56,"Velocity":40,"Duration":454654,"SoundDuration":454654,"Delta":100597297},{"NoteNumber":44,"Velocity":32,"Duration":454654,"SoundDuration":454654,"Delta":100597297},{"NoteNumber":77,"Velocity":60,"Duration":221027,"SoundDuration":221027,"Delta":101510913},{"NoteNumber":75,"Velocity":54,"Duration":169517,"SoundDuration":169517,"Delta":101731940},{"NoteNumber":75,"Velocity":60,"Duration":215470,"SoundDuration":215470,"Delta":101957963},{"NoteNumber":63,"Velocity":40,"Duration":438138,"SoundDuration":438138,"Delta":101957963},{"NoteNumber":73,"Velocity":55,"Duration":111333,"SoundDuration":111333,"Delta":102173434},{"NoteNumber":73,"Velocity":58,"Duration":213934,"SoundDuration":213934,"Delta":102396102},{"NoteNumber":67,"Velocity":36,"Duration":436601,"SoundDuration":436601,"Delta":102396102},{"NoteNumber":75,"Velocity":51,"Duration":111333,"SoundDuration":111333,"Delta":102610036},{"NoteNumber":72,"Velocity":55,"Duration":218610,"SoundDuration":218610,"Delta":102832704},{"NoteNumber":68,"Velocity":36,"Duration":453481,"SoundDuration":453481,"Delta":102832704},{"NoteNumber":73,"Velocity":47,"Duration":117435,"SoundDuration":117435,"Delta":103051315},{"NoteNumber":70,"Velocity":60,"Duration":913615,"SoundDuration":913615,"Delta":103286185},{"NoteNumber":67,"Velocity":40,"Duration":454654,"SoundDuration":454654,"Delta":103286185},{"NoteNumber":63,"Velocity":37,"Duration":458961,"SoundDuration":458961,"Delta":103740840},{"NoteNumber":72,"Velocity":60,"Duration":221027,"SoundDuration":221027,"Delta":104199801},{"NoteNumber":70,"Velocity":54,"Duration":169517,"SoundDuration":169517,"Delta":104420828},{"NoteNumber":70,"Velocity":60,"Duration":219410,"SoundDuration":219410,"Delta":104646851},{"NoteNumber":53,"Velocity":40,"Duration":1383841,"SoundDuration":1383841,"Delta":104646851},{"NoteNumber":68,"Velocity":55,"Duration":226877,"SoundDuration":226877,"Delta":104866262},{"NoteNumber":67,"Velocity":58,"Duration":217817,"SoundDuration":217817,"Delta":105093139},{"NoteNumber":62,"Velocity":36,"Duration":440484,"SoundDuration":440484,"Delta":105093139},{"NoteNumber":68,"Velocity":51,"Duration":222667,"SoundDuration":222667,"Delta":105310957},{"NoteNumber":67,"Velocity":55,"Duration":237844,"SoundDuration":237844,"Delta":105533624},{"NoteNumber":62,"Velocity":36,"Duration":970515,"SoundDuration":970515,"Delta":105533624},{"NoteNumber":68,"Velocity":47,"Duration":259224,"SoundDuration":259224,"Delta":105771468},{"NoteNumber":68,"Velocity":51,"Duration":473446,"SoundDuration":473446,"Delta":106030692},{"NoteNumber":72,"Velocity":60,"Duration":473446,"SoundDuration":473446,"Delta":106030692},{"NoteNumber":51,"Velocity":40,"Duration":946894,"SoundDuration":946894,"Delta":106030692},{"NoteNumber":70,"Velocity":54,"Duration":473447,"SoundDuration":473447,"Delta":106504139},{"NoteNumber":67,"Velocity":45,"Duration":473447,"SoundDuration":473447,"Delta":106504139},{"NoteNumber":63,"Velocity":37,"Duration":473447,"SoundDuration":473447,"Delta":106504139},{"NoteNumber":72,"Velocity":50,"Duration":224332,"SoundDuration":224332,"Delta":106977586},{"NoteNumber":73,"Velocity":45,"Duration":232144,"SoundDuration":232144,"Delta":107201919},{"NoteNumber":77,"Velocity":55,"Duration":221027,"SoundDuration":221027,"Delta":107434063},{"NoteNumber":56,"Velocity":34,"Duration":221027,"SoundDuration":221027,"Delta":107434063},{"NoteNumber":75,"Velocity":48,"Duration":226022,"SoundDuration":226022,"Delta":107655090},{"NoteNumber":63,"Velocity":28,"Duration":226022,"SoundDuration":226022,"Delta":107655090},{"NoteNumber":73,"Velocity":54,"Duration":226022,"SoundDuration":226022,"Delta":107881113},{"NoteNumber":60,"Velocity":32,"Duration":226022,"SoundDuration":226022,"Delta":107881113},{"NoteNumber":72,"Velocity":47,"Duration":103593,"SoundDuration":103593,"Delta":108107136},{"NoteNumber":63,"Velocity":28,"Duration":226022,"SoundDuration":226022,"Delta":108107136},{"NoteNumber":72,"Velocity":55,"Duration":451991,"SoundDuration":451991,"Delta":108333159},{"NoteNumber":56,"Velocity":32,"Duration":226023,"SoundDuration":226023,"Delta":108333159},{"NoteNumber":63,"Velocity":28,"Duration":235793,"SoundDuration":235793,"Delta":108559182},{"NoteNumber":72,"Velocity":60,"Duration":893176,"SoundDuration":893176,"Delta":108794975},{"NoteNumber":56,"Velocity":34,"Duration":222667,"SoundDuration":222667,"Delta":108794975},{"NoteNumber":63,"Velocity":24,"Duration":225174,"SoundDuration":225174,"Delta":109017643},{"NoteNumber":60,"Velocity":28,"Duration":222667,"SoundDuration":222667,"Delta":109242817},{"NoteNumber":63,"Velocity":24,"Duration":222667,"SoundDuration":222667,"Delta":109465485},{"NoteNumber":79,"Velocity":60,"Duration":218610,"SoundDuration":218610,"Delta":109688152},{"NoteNumber":56,"Velocity":28,"Duration":218610,"SoundDuration":218610,"Delta":109688152},{"NoteNumber":80,"Velocity":54,"Duration":226022,"SoundDuration":226022,"Delta":109906763},{"NoteNumber":63,"Velocity":24,"Duration":226022,"SoundDuration":226022,"Delta":109906763},{"NoteNumber":84,"Velocity":60,"Duration":220215,"SoundDuration":220215,"Delta":110132786},{"NoteNumber":48,"Velocity":34,"Duration":220215,"SoundDuration":220215,"Delta":110132786},{"NoteNumber":80,"Velocity":55,"Duration":226877,"SoundDuration":226877,"Delta":110353002},{"NoteNumber":56,"Velocity":28,"Duration":226877,"SoundDuration":226877,"Delta":110353002},{"NoteNumber":79,"Velocity":58,"Duration":225174,"SoundDuration":225174,"Delta":110579880},{"NoteNumber":51,"Velocity":32,"Duration":225174,"SoundDuration":225174,"Delta":110579880},{"NoteNumber":77,"Velocity":53,"Duration":225174,"SoundDuration":225174,"Delta":110805054},{"NoteNumber":56,"Velocity":28,"Duration":225174,"SoundDuration":225174,"Delta":110805054},{"NoteNumber":75,"Velocity":55,"Duration":220483,"SoundDuration":220483,"Delta":111030229},{"NoteNumber":48,"Velocity":32,"Duration":225174,"SoundDuration":225174,"Delta":111030229},{"NoteNumber":56,"Velocity":28,"Duration":234870,"SoundDuration":234870,"Delta":111255403},{"NoteNumber":75,"Velocity":60,"Duration":906700,"SoundDuration":906700,"Delta":111490274},{"NoteNumber":48,"Velocity":34,"Duration":225174,"SoundDuration":225174,"Delta":111490274},{"NoteNumber":56,"Velocity":24,"Duration":229480,"SoundDuration":229480,"Delta":111715448},{"NoteNumber":51,"Velocity":28,"Duration":226022,"SoundDuration":226022,"Delta":111944929},{"NoteNumber":56,"Velocity":24,"Duration":226022,"SoundDuration":226022,"Delta":112170952},{"NoteNumber":73,"Velocity":60,"Duration":221027,"SoundDuration":221027,"Delta":112396975},{"NoteNumber":48,"Velocity":28,"Duration":221027,"SoundDuration":221027,"Delta":112396975},{"NoteNumber":72,"Velocity":54,"Duration":103593,"SoundDuration":103593,"Delta":112618002},{"NoteNumber":56,"Velocity":24,"Duration":226022,"SoundDuration":226022,"Delta":112618002},{"NoteNumber":72,"Velocity":60,"Duration":213173,"SoundDuration":213173,"Delta":112844025},{"NoteNumber":49,"Velocity":40,"Duration":435841,"SoundDuration":435841,"Delta":112844025},{"NoteNumber":70,"Velocity":55,"Duration":83500,"SoundDuration":83500,"Delta":113057199},{"NoteNumber":68,"Velocity":58,"Duration":214699,"SoundDuration":214699,"Delta":113279866},{"NoteNumber":70,"Velocity":51,"Duration":83500,"SoundDuration":83500,"Delta":113494566},{"NoteNumber":67,"Velocity":55,"Duration":218610,"SoundDuration":218610,"Delta":113717234},{"NoteNumber":51,"Velocity":36,"Duration":457217,"SoundDuration":457217,"Delta":113717234},{"NoteNumber":70,"Velocity":47,"Duration":89477,"SoundDuration":89477,"Delta":113935845},{"NoteNumber":68,"Velocity":60,"Duration":454654,"SoundDuration":454654,"Delta":114174451},{"NoteNumber":56,"Velocity":40,"Duration":454654,"SoundDuration":454654,"Delta":114174451},{"NoteNumber":44,"Velocity":32,"Duration":454654,"SoundDuration":454654,"Delta":114174451},{"NoteNumber":75,"Velocity":72,"Duration":125807,"SoundDuration":125807,"Delta":115088067},{"NoteNumber":75,"Velocity":61,"Duration":85727,"SoundDuration":85727,"Delta":115465489},{"NoteNumber":75,"Velocity":72,"Duration":503229,"SoundDuration":503229,"Delta":115579792},{"NoteNumber":60,"Velocity":56,"Duration":503228,"SoundDuration":503228,"Delta":116083021},{"NoteNumber":56,"Velocity":46,"Duration":503228,"SoundDuration":503228,"Delta":116083021},{"NoteNumber":80,"Velocity":72,"Duration":125807,"SoundDuration":125807,"Delta":116586250},{"NoteNumber":80,"Velocity":64,"Duration":85401,"SoundDuration":85401,"Delta":116963672},{"NoteNumber":80,"Velocity":72,"Duration":503229,"SoundDuration":503229,"Delta":117077541},{"NoteNumber":63,"Velocity":57,"Duration":503228,"SoundDuration":503228,"Delta":117580770},{"NoteNumber":60,"Velocity":48,"Duration":503228,"SoundDuration":503228,"Delta":117580770},{"NoteNumber":68,"Velocity":61,"Duration":125807,"SoundDuration":125807,"Delta":118083999},{"NoteNumber":72,"Velocity":72,"Duration":125807,"SoundDuration":125807,"Delta":118083999},{"NoteNumber":65,"Velocity":51,"Duration":125807,"SoundDuration":125807,"Delta":118083999},{"NoteNumber":68,"Velocity":51,"Duration":86055,"SoundDuration":86055,"Delta":118461421},{"NoteNumber":72,"Velocity":61,"Duration":86055,"SoundDuration":86055,"Delta":118461421},{"NoteNumber":65,"Velocity":42,"Duration":86055,"SoundDuration":86055,"Delta":118461421},{"NoteNumber":68,"Velocity":61,"Duration":482974,"SoundDuration":482974,"Delta":118576161},{"NoteNumber":72,"Velocity":72,"Duration":482974,"SoundDuration":482974,"Delta":118576161},{"NoteNumber":65,"Velocity":51,"Duration":482974,"SoundDuration":482974,"Delta":118576161},{"NoteNumber":73,"Velocity":68,"Duration":122219,"SoundDuration":122219,"Delta":119059136},{"NoteNumber":70,"Velocity":57,"Duration":122219,"SoundDuration":122219,"Delta":119059136},{"NoteNumber":61,"Velocity":48,"Duration":122219,"SoundDuration":122219,"Delta":119059136},{"NoteNumber":73,"Velocity":52,"Duration":129054,"SoundDuration":129054,"Delta":119548014},{"NoteNumber":77,"Velocity":62,"Duration":129054,"SoundDuration":129054,"Delta":119548014},{"NoteNumber":58,"Velocity":44,"Duration":129054,"SoundDuration":129054,"Delta":119548014},{"NoteNumber":70,"Velocity":64,"Duration":991815,"SoundDuration":991815,"Delta":120064232},{"NoteNumber":67,"Velocity":55,"Duration":991815,"SoundDuration":991815,"Delta":120064232},{"NoteNumber":63,"Velocity":46,"Duration":991815,"SoundDuration":991815,"Delta":120064232},{"NoteNumber":63,"Velocity":72,"Duration":125281,"SoundDuration":125281,"Delta":121066488},{"NoteNumber":61,"Velocity":46,"Duration":494676,"SoundDuration":494676,"Delta":121066488},{"NoteNumber":63,"Velocity":51,"Duration":89123,"SoundDuration":89123,"Delta":121442334},{"NoteNumber":68,"Velocity":72,"Duration":122719,"SoundDuration":122719,"Delta":121561165},{"NoteNumber":63,"Velocity":52,"Duration":122719,"SoundDuration":122719,"Delta":121561165},{"NoteNumber":60,"Velocity":44,"Duration":122719,"SoundDuration":122719,"Delta":121561165},{"NoteNumber":68,"Velocity":64,"Duration":125281,"SoundDuration":125281,"Delta":122052043},{"NoteNumber":58,"Velocity":38,"Duration":125281,"SoundDuration":125281,"Delta":122052043},{"NoteNumber":61,"Velocity":46,"Duration":125281,"SoundDuration":125281,"Delta":122052043},{"NoteNumber":68,"Velocity":64,"Duration":128501,"SoundDuration":128501,"Delta":122553171},{"NoteNumber":56,"Velocity":38,"Duration":128501,"SoundDuration":128501,"Delta":122553171},{"NoteNumber":60,"Velocity":46,"Duration":128501,"SoundDuration":128501,"Delta":122553171},{"NoteNumber":70,"Velocity":72,"Duration":492894,"SoundDuration":492894,"Delta":123067178},{"NoteNumber":55,"Velocity":40,"Duration":492894,"SoundDuration":492894,"Delta":123067178},{"NoteNumber":58,"Velocity":48,"Duration":492894,"SoundDuration":492894,"Delta":123067178},{"NoteNumber":56,"Velocity":45,"Duration":125807,"SoundDuration":125807,"Delta":123560072},{"NoteNumber":53,"Velocity":37,"Duration":125807,"SoundDuration":125807,"Delta":123560072},{"NoteNumber":70,"Velocity":72,"Duration":125807,"SoundDuration":125807,"Delta":124063301},{"NoteNumber":55,"Velocity":45,"Duration":125807,"SoundDuration":125807,"Delta":124063301},{"NoteNumber":51,"Velocity":37,"Duration":125807,"SoundDuration":125807,"Delta":124063301},{"NoteNumber":70,"Velocity":63,"Duration":88771,"SoundDuration":88771,"Delta":124440723},{"NoteNumber":72,"Velocity":72,"Duration":121723,"SoundDuration":121723,"Delta":124559085},{"NoteNumber":56,"Velocity":52,"Duration":121723,"SoundDuration":121723,"Delta":124559085},{"NoteNumber":72,"Velocity":69,"Duration":125281,"SoundDuration":125281,"Delta":125045979},{"NoteNumber":53,"Velocity":46,"Duration":125281,"SoundDuration":125281,"Delta":125045979},{"NoteNumber":68,"Velocity":62,"Duration":131891,"SoundDuration":131891,"Delta":125547107},{"NoteNumber":74,"Velocity":74,"Duration":131891,"SoundDuration":131891,"Delta":125547107},{"NoteNumber":58,"Velocity":56,"Duration":131891,"SoundDuration":131891,"Delta":125547107},{"NoteNumber":75,"Velocity":83,"Duration":496977,"SoundDuration":496977,"Delta":126074672},{"NoteNumber":67,"Velocity":70,"Duration":496977,"SoundDuration":496977,"Delta":126074672},{"NoteNumber":51,"Velocity":60,"Duration":496977,"SoundDuration":496977,"Delta":126074672},{"NoteNumber":75,"Velocity":72,"Duration":125807,"SoundDuration":125807,"Delta":127068626},{"NoteNumber":75,"Velocity":61,"Duration":85727,"SoundDuration":85727,"Delta":127446047},{"NoteNumber":75,"Velocity":72,"Duration":124244,"SoundDuration":124244,"Delta":127560351},{"NoteNumber":75,"Velocity":60,"Duration":124244,"SoundDuration":124244,"Delta":128057328},{"NoteNumber":77,"Velocity":67,"Duration":122719,"SoundDuration":122719,"Delta":128554305},{"NoteNumber":69,"Velocity":38,"Duration":491381,"SoundDuration":491381,"Delta":128554305},{"NoteNumber":75,"Velocity":46,"Duration":988358,"SoundDuration":988358,"Delta":128554305},{"NoteNumber":77,"Velocity":50,"Duration":92417,"SoundDuration":92417,"Delta":128922463},{"NoteNumber":77,"Velocity":61,"Duration":496976,"SoundDuration":496976,"Delta":129045687},{"NoteNumber":70,"Velocity":50,"Duration":1006617,"SoundDuration":1006617,"Delta":129045687},{"NoteNumber":82,"Velocity":59,"Duration":382230,"SoundDuration":382230,"Delta":129542664},{"NoteNumber":74,"Velocity":46,"Duration":382230,"SoundDuration":382230,"Delta":129542664},{"NoteNumber":75,"Velocity":67,"Duration":124760,"SoundDuration":124760,"Delta":130052305},{"NoteNumber":67,"Velocity":38,"Duration":497505,"SoundDuration":497505,"Delta":130052305},{"NoteNumber":73,"Velocity":46,"Duration":1006073,"SoundDuration":1006073,"Delta":130052305},{"NoteNumber":75,"Velocity":50,"Duration":92417,"SoundDuration":92417,"Delta":130426587},{"NoteNumber":75,"Velocity":61,"Duration":508567,"SoundDuration":508567,"Delta":130549810},{"NoteNumber":68,"Velocity":50,"Duration":1029265,"SoundDuration":1029265,"Delta":130549810},{"NoteNumber":80,"Velocity":59,"Duration":390523,"SoundDuration":390523,"Delta":131058378},{"NoteNumber":72,"Velocity":46,"Duration":390523,"SoundDuration":390523,"Delta":131058378},{"NoteNumber":72,"Velocity":67,"Duration":124760,"SoundDuration":124760,"Delta":131579076},{"NoteNumber":72,"Velocity":50,"Duration":92417,"SoundDuration":92417,"Delta":131953358},{"NoteNumber":72,"Velocity":61,"Duration":481039,"SoundDuration":481039,"Delta":132076582},{"NoteNumber":65,"Velocity":38,"Duration":1487940,"SoundDuration":1487940,"Delta":132076582},{"NoteNumber":68,"Velocity":46,"Duration":1487940,"SoundDuration":1487940,"Delta":132076582},{"NoteNumber":73,"Velocity":57,"Duration":492894,"SoundDuration":492894,"Delta":132557621},{"NoteNumber":74,"Velocity":59,"Duration":514006,"SoundDuration":514006,"Delta":133050515},{"NoteNumber":75,"Velocity":72,"Duration":124760,"SoundDuration":124760,"Delta":133564522},{"NoteNumber":63,"Velocity":38,"Duration":124760,"SoundDuration":124760,"Delta":133564522},{"NoteNumber":67,"Velocity":46,"Duration":124760,"SoundDuration":124760,"Delta":133564522},{"NoteNumber":75,"Velocity":60,"Duration":124760,"SoundDuration":124760,"Delta":134063565},{"NoteNumber":77,"Velocity":67,"Duration":385505,"SoundDuration":385505,"Delta":134562608},{"NoteNumber":58,"Velocity":38,"Duration":502940,"SoundDuration":502940,"Delta":134562608},{"NoteNumber":62,"Velocity":38,"Duration":502940,"SoundDuration":502940,"Delta":134562608},{"NoteNumber":68,"Velocity":46,"Duration":502940,"SoundDuration":502940,"Delta":134562608},{"NoteNumber":79,"Velocity":50,"Duration":117435,"SoundDuration":117435,"Delta":134948113},{"NoteNumber":75,"Velocity":72,"Duration":124760,"SoundDuration":124760,"Delta":135065548},{"NoteNumber":63,"Velocity":38,"Duration":124760,"SoundDuration":124760,"Delta":135065548},{"NoteNumber":67,"Velocity":46,"Duration":124760,"SoundDuration":124760,"Delta":135065548},{"NoteNumber":75,"Velocity":60,"Duration":124760,"SoundDuration":124760,"Delta":135564591},{"NoteNumber":82,"Velocity":67,"Duration":385505,"SoundDuration":385505,"Delta":136063634},{"NoteNumber":58,"Velocity":38,"Duration":502940,"SoundDuration":502940,"Delta":136063634},{"NoteNumber":62,"Velocity":38,"Duration":502940,"SoundDuration":502940,"Delta":136063634},{"NoteNumber":68,"Velocity":46,"Duration":502940,"SoundDuration":502940,"Delta":136063634},{"NoteNumber":82,"Velocity":50,"Duration":117435,"SoundDuration":117435,"Delta":136449140},{"NoteNumber":75,"Velocity":72,"Duration":124760,"SoundDuration":124760,"Delta":136566575},{"NoteNumber":63,"Velocity":38,"Duration":124760,"SoundDuration":124760,"Delta":136566575},{"NoteNumber":67,"Velocity":46,"Duration":124760,"SoundDuration":124760,"Delta":136566575},{"NoteNumber":75,"Velocity":60,"Duration":128501,"SoundDuration":128501,"Delta":137065618},{"NoteNumber":82,"Velocity":52,"Duration":410097,"SoundDuration":410097,"Delta":137579625},{"NoteNumber":58,"Velocity":30,"Duration":565168,"SoundDuration":565168,"Delta":137579625},{"NoteNumber":62,"Velocity":30,"Duration":565168,"SoundDuration":565168,"Delta":137579625},{"NoteNumber":68,"Velocity":36,"Duration":565168,"SoundDuration":565168,"Delta":137579625},{"NoteNumber":82,"Velocity":39,"Duration":155070,"SoundDuration":155070,"Delta":137989723},{"NoteNumber":75,"Velocity":57,"Duration":499043,"SoundDuration":499043,"Delta":138144793},{"NoteNumber":63,"Velocity":30,"Duration":499043,"SoundDuration":499043,"Delta":138144793},{"NoteNumber":67,"Velocity":36,"Duration":499043,"SoundDuration":499043,"Delta":138144793},{"NoteNumber":63,"Velocity":82,"Duration":125807,"SoundDuration":125807,"Delta":139200784},{"NoteNumber":60,"Velocity":69,"Duration":125807,"SoundDuration":125807,"Delta":139200784},{"NoteNumber":63,"Velocity":75,"Duration":85727,"SoundDuration":85727,"Delta":139578206},{"NoteNumber":60,"Velocity":63,"Duration":85727,"SoundDuration":85727,"Delta":139578206},{"NoteNumber":63,"Velocity":83,"Duration":503229,"SoundDuration":503229,"Delta":139692509},{"NoteNumber":60,"Velocity":70,"Duration":503229,"SoundDuration":503229,"Delta":139692509},{"NoteNumber":44,"Velocity":58,"Duration":503229,"SoundDuration":503229,"Delta":140195738},{"NoteNumber":56,"Velocity":69,"Duration":503229,"SoundDuration":503229,"Delta":140195738},{"NoteNumber":84,"Velocity":92,"Duration":125807,"SoundDuration":125807,"Delta":140698967},{"NoteNumber":80,"Velocity":78,"Duration":125807,"SoundDuration":125807,"Delta":140698967},{"NoteNumber":80,"Velocity":73,"Duration":85401,"SoundDuration":85401,"Delta":141076389},{"NoteNumber":84,"Velocity":86,"Duration":85401,"SoundDuration":85401,"Delta":141076389},{"NoteNumber":84,"Velocity":93,"Duration":499043,"SoundDuration":499043,"Delta":141190258},{"NoteNumber":80,"Velocity":79,"Duration":499043,"SoundDuration":499043,"Delta":141190258},{"NoteNumber":69,"Velocity":61,"Duration":125281,"SoundDuration":125281,"Delta":142223917},{"NoteNumber":72,"Velocity":72,"Duration":125281,"SoundDuration":125281,"Delta":142223917},{"NoteNumber":63,"Velocity":42,"Duration":125281,"SoundDuration":125281,"Delta":142223917},{"NoteNumber":66,"Velocity":51,"Duration":125281,"SoundDuration":125281,"Delta":142223917},{"NoteNumber":69,"Velocity":51,"Duration":86055,"SoundDuration":86055,"Delta":142599763},{"NoteNumber":72,"Velocity":61,"Duration":86055,"SoundDuration":86055,"Delta":142599763},{"NoteNumber":63,"Velocity":36,"Duration":86055,"SoundDuration":86055,"Delta":142599763},{"NoteNumber":66,"Velocity":42,"Duration":86055,"SoundDuration":86055,"Delta":142599763},{"NoteNumber":69,"Velocity":61,"Duration":482975,"SoundDuration":482975,"Delta":142714504},{"NoteNumber":72,"Velocity":72,"Duration":482975,"SoundDuration":482975,"Delta":142714504},{"NoteNumber":63,"Velocity":42,"Duration":482975,"SoundDuration":482975,"Delta":142714504},{"NoteNumber":66,"Velocity":51,"Duration":482975,"SoundDuration":482975,"Delta":142714504},{"NoteNumber":73,"Velocity":68,"Duration":122219,"SoundDuration":122219,"Delta":143197479},{"NoteNumber":70,"Velocity":57,"Duration":122219,"SoundDuration":122219,"Delta":143197479},{"NoteNumber":61,"Velocity":40,"Duration":122219,"SoundDuration":122219,"Delta":143197479},{"NoteNumber":65,"Velocity":48,"Duration":122219,"SoundDuration":122219,"Delta":143197479},{"NoteNumber":67,"Velocity":61,"Duration":125807,"SoundDuration":125807,"Delta":143686357},{"NoteNumber":70,"Velocity":72,"Duration":125807,"SoundDuration":125807,"Delta":143686357},{"NoteNumber":61,"Velocity":42,"Duration":125807,"SoundDuration":125807,"Delta":143686357},{"NoteNumber":63,"Velocity":51,"Duration":125807,"SoundDuration":125807,"Delta":143686357},{"NoteNumber":67,"Velocity":51,"Duration":86055,"SoundDuration":86055,"Delta":144063778},{"NoteNumber":70,"Velocity":61,"Duration":86055,"SoundDuration":86055,"Delta":144063778},{"NoteNumber":61,"Velocity":36,"Duration":86055,"SoundDuration":86055,"Delta":144063778},{"NoteNumber":63,"Velocity":42,"Duration":86055,"SoundDuration":86055,"Delta":144063778},{"NoteNumber":67,"Velocity":61,"Duration":482975,"SoundDuration":482975,"Delta":144178519},{"NoteNumber":70,"Velocity":72,"Duration":482975,"SoundDuration":482975,"Delta":144178519},{"NoteNumber":61,"Velocity":42,"Duration":482975,"SoundDuration":482975,"Delta":144178519},{"NoteNumber":63,"Velocity":51,"Duration":605194,"SoundDuration":605194,"Delta":144178519},{"NoteNumber":72,"Velocity":68,"Duration":122219,"SoundDuration":122219,"Delta":144661494},{"NoteNumber":68,"Velocity":57,"Duration":122219,"SoundDuration":122219,"Delta":144661494},{"NoteNumber":60,"Velocity":40,"Duration":122219,"SoundDuration":122219,"Delta":144661494},{"NoteNumber":72,"Velocity":61,"Duration":125807,"SoundDuration":125807,"Delta":145150372},{"NoteNumber":75,"Velocity":72,"Duration":125807,"SoundDuration":125807,"Delta":145150372},{"NoteNumber":72,"Velocity":51,"Duration":86055,"SoundDuration":86055,"Delta":145527793},{"NoteNumber":75,"Velocity":61,"Duration":86055,"SoundDuration":86055,"Delta":145527793},{"NoteNumber":72,"Velocity":61,"Duration":490878,"SoundDuration":490878,"Delta":145642534},{"NoteNumber":75,"Velocity":72,"Duration":490878,"SoundDuration":490878,"Delta":145642534},{"NoteNumber":73,"Velocity":68,"Duration":127953,"SoundDuration":127953,"Delta":146133412},{"NoteNumber":77,"Velocity":57,"Duration":127953,"SoundDuration":127953,"Delta":146133412},{"NoteNumber":61,"Velocity":62,"Duration":139886,"SoundDuration":139886,"Delta":146645226},{"NoteNumber":67,"Velocity":74,"Duration":139886,"SoundDuration":139886,"Delta":146645226},{"NoteNumber":51,"Velocity":47,"Duration":139886,"SoundDuration":139886,"Delta":146645226},{"NoteNumber":58,"Velocity":56,"Duration":139886,"SoundDuration":139886,"Delta":146645226},{"NoteNumber":68,"Velocity":83,"Duration":586912,"SoundDuration":586912,"Delta":147204771},{"NoteNumber":60,"Velocity":70,"Duration":586912,"SoundDuration":586912,"Delta":147204771},{"NoteNumber":44,"Velocity":50,"Duration":586912,"SoundDuration":586912,"Delta":147204771},{"NoteNumber":56,"Velocity":60,"Duration":586912,"SoundDuration":586912,"Delta":147204771}]}