{"title":"Klaviersonate Hoboken XVI: 33 1. Satz","artist":"Haydn","durationMs":337634,"midiSha256":"e794ab1fecec5b1e14bdb5e8782e35ad448429a6438d90513b2f74c5f37d3d2f","midiObject":[{"NoteNumber":57,"Velocity":83,"Duration":71551,"SoundDuration":71551,"Delta":0},{"NoteNumber":62,"Velocity":66,"Duration":71551,"SoundDuration":71551,"Delta":71551},{"NoteNumber":66,"Velocity":66,"Duration":72365,"SoundDuration":72365,"Delta":143102},{"NoteNumber":69,"Velocity":66,"Duration":127898,"SoundDuration":127898,"Delta":215468},{"NoteNumber":66,"Velocity":86,"Duration":296824,"SoundDuration":296824,"Delta":343367},{"NoteNumber":50,"Velocity":75,"Duration":605085,"SoundDuration":605085,"Delta":343367},{"NoteNumber":38,"Velocity":63,"Duration":605085,"SoundDuration":605085,"Delta":343367},{"NoteNumber":62,"Velocity":77,"Duration":308261,"SoundDuration":308261,"Delta":640191},{"NoteNumber":74,"Velocity":56,"Duration":74902,"SoundDuration":74902,"Delta":948453},{"NoteNumber":69,"Velocity":52,"Duration":79753,"SoundDuration":79753,"Delta":1248063},{"NoteNumber":66,"Velocity":42,"Duration":79753,"SoundDuration":79753,"Delta":1248063},{"NoteNumber":62,"Velocity":36,"Duration":79753,"SoundDuration":79753,"Delta":1248063},{"NoteNumber":71,"Velocity":55,"Duration":66976,"SoundDuration":66976,"Delta":1567076},{"NoteNumber":67,"Velocity":48,"Duration":267904,"SoundDuration":267904,"Delta":1567076},{"NoteNumber":62,"Velocity":40,"Duration":267904,"SoundDuration":267904,"Delta":1567076},{"NoteNumber":73,"Velocity":49,"Duration":66976,"SoundDuration":66976,"Delta":1634052},{"NoteNumber":71,"Velocity":60,"Duration":133952,"SoundDuration":133952,"Delta":1701029},{"NoteNumber":69,"Velocity":56,"Duration":504456,"SoundDuration":504456,"Delta":1834981},{"NoteNumber":66,"Velocity":40,"Duration":504456,"SoundDuration":504456,"Delta":1834981},{"NoteNumber":62,"Velocity":34,"Duration":504456,"SoundDuration":504456,"Delta":1834981},{"NoteNumber":57,"Velocity":83,"Duration":71551,"SoundDuration":71551,"Delta":2625642},{"NoteNumber":62,"Velocity":66,"Duration":71551,"SoundDuration":71551,"Delta":2697193},{"NoteNumber":66,"Velocity":66,"Duration":71551,"SoundDuration":71551,"Delta":2768745},{"NoteNumber":69,"Velocity":66,"Duration":120695,"SoundDuration":120695,"Delta":2840296},{"NoteNumber":66,"Velocity":86,"Duration":299610,"SoundDuration":299610,"Delta":2960991},{"NoteNumber":50,"Velocity":75,"Duration":615466,"SoundDuration":615466,"Delta":2960991},{"NoteNumber":38,"Velocity":63,"Duration":615466,"SoundDuration":615466,"Delta":2960991},{"NoteNumber":62,"Velocity":77,"Duration":315856,"SoundDuration":315856,"Delta":3260602},{"NoteNumber":78,"Velocity":56,"Duration":75964,"SoundDuration":75964,"Delta":3576458},{"NoteNumber":81,"Velocity":64,"Duration":75964,"SoundDuration":75964,"Delta":3576458},{"NoteNumber":74,"Velocity":52,"Duration":75964,"SoundDuration":75964,"Delta":3880317},{"NoteNumber":78,"Velocity":60,"Duration":75964,"SoundDuration":75964,"Delta":3880317},{"NoteNumber":62,"Velocity":42,"Duration":75964,"SoundDuration":75964,"Delta":3880317},{"NoteNumber":76,"Velocity":46,"Duration":267904,"SoundDuration":267904,"Delta":4197931},{"NoteNumber":79,"Velocity":55,"Duration":66976,"SoundDuration":66976,"Delta":4197931},{"NoteNumber":57,"Velocity":48,"Duration":267904,"SoundDuration":267904,"Delta":4197931},{"NoteNumber":81,"Velocity":49,"Duration":66976,"SoundDuration":66976,"Delta":4264907},{"NoteNumber":79,"Velocity":60,"Duration":133952,"SoundDuration":133952,"Delta":4331884},{"NoteNumber":74,"Velocity":47,"Duration":512469,"SoundDuration":512469,"Delta":4465836},{"NoteNumber":78,"Velocity":56,"Duration":512469,"SoundDuration":512469,"Delta":4465836},{"NoteNumber":62,"Velocity":40,"Duration":512469,"SoundDuration":512469,"Delta":4465836},{"NoteNumber":74,"Velocity":60,"Duration":71873,"SoundDuration":71873,"Delta":5265800},{"NoteNumber":78,"Velocity":51,"Duration":71873,"SoundDuration":71873,"Delta":5337673},{"NoteNumber":81,"Velocity":52,"Duration":80068,"SoundDuration":80068,"Delta":5409547},{"NoteNumber":86,"Velocity":52,"Duration":80068,"SoundDuration":80068,"Delta":5489615},{"NoteNumber":72,"Velocity":67,"Duration":960820,"SoundDuration":960820,"Delta":5569684},{"NoteNumber":62,"Velocity":40,"Duration":80068,"SoundDuration":80068,"Delta":5889957},{"NoteNumber":54,"Velocity":40,"Duration":80068,"SoundDuration":80068,"Delta":5889957},{"NoteNumber":62,"Velocity":45,"Duration":80068,"SoundDuration":80068,"Delta":6210231},{"NoteNumber":54,"Velocity":45,"Duration":80068,"SoundDuration":80068,"Delta":6210231},{"NoteNumber":84,"Velocity":60,"Duration":72526,"SoundDuration":72526,"Delta":6530504},{"NoteNumber":81,"Velocity":51,"Duration":72858,"SoundDuration":72858,"Delta":6603031},{"NoteNumber":78,"Velocity":52,"Duration":73184,"SoundDuration":73184,"Delta":6675889},{"NoteNumber":72,"Velocity":52,"Duration":91608,"SoundDuration":91608,"Delta":6749074},{"NoteNumber":71,"Velocity":67,"Duration":957039,"SoundDuration":957039,"Delta":6840683},{"NoteNumber":62,"Velocity":40,"Duration":79753,"SoundDuration":79753,"Delta":7159696},{"NoteNumber":55,"Velocity":40,"Duration":79753,"SoundDuration":79753,"Delta":7159696},{"NoteNumber":62,"Velocity":45,"Duration":79753,"SoundDuration":79753,"Delta":7478709},{"NoteNumber":55,"Velocity":45,"Duration":79753,"SoundDuration":79753,"Delta":7478709},{"NoteNumber":71,"Velocity":60,"Duration":72526,"SoundDuration":72526,"Delta":7797722},{"NoteNumber":74,"Velocity":51,"Duration":72526,"SoundDuration":72526,"Delta":7870249},{"NoteNumber":79,"Velocity":52,"Duration":73185,"SoundDuration":73185,"Delta":7942776},{"NoteNumber":83,"Velocity":52,"Duration":86655,"SoundDuration":86655,"Delta":8015961},{"NoteNumber":78,"Velocity":54,"Duration":75964,"SoundDuration":75964,"Delta":8102616},{"NoteNumber":81,"Velocity":64,"Duration":75964,"SoundDuration":75964,"Delta":8102616},{"NoteNumber":57,"Velocity":46,"Duration":622871,"SoundDuration":622871,"Delta":8102616},{"NoteNumber":74,"Velocity":44,"Duration":79753,"SoundDuration":79753,"Delta":8406475},{"NoteNumber":78,"Velocity":53,"Duration":79753,"SoundDuration":79753,"Delta":8406475},{"NoteNumber":79,"Velocity":59,"Duration":76695,"SoundDuration":76695,"Delta":8725488},{"NoteNumber":76,"Velocity":49,"Duration":76695,"SoundDuration":76695,"Delta":8725488},{"NoteNumber":45,"Velocity":40,"Duration":677470,"SoundDuration":677470,"Delta":8725488},{"NoteNumber":73,"Velocity":44,"Duration":92672,"SoundDuration":92672,"Delta":9032268},{"NoteNumber":76,"Velocity":44,"Duration":92672,"SoundDuration":92672,"Delta":9032268},{"NoteNumber":76,"Velocity":50,"Duration":674991,"SoundDuration":674991,"Delta":9402958},{"NoteNumber":73,"Velocity":42,"Duration":674991,"SoundDuration":674991,"Delta":9402958},{"NoteNumber":50,"Velocity":36,"Duration":674991,"SoundDuration":674991,"Delta":9402958},{"NoteNumber":78,"Velocity":40,"Duration":408552,"SoundDuration":408552,"Delta":10077950},{"NoteNumber":74,"Velocity":33,"Duration":408552,"SoundDuration":408552,"Delta":10077950},{"NoteNumber":38,"Velocity":32,"Duration":408552,"SoundDuration":408552,"Delta":10077950},{"NoteNumber":74,"Velocity":60,"Duration":74154,"SoundDuration":74154,"Delta":10486503},{"NoteNumber":78,"Velocity":51,"Duration":74154,"SoundDuration":74154,"Delta":10560657},{"NoteNumber":81,"Velocity":52,"Duration":74154,"SoundDuration":74154,"Delta":10634812},{"NoteNumber":86,"Velocity":52,"Duration":96599,"SoundDuration":96599,"Delta":10708967},{"NoteNumber":72,"Velocity":67,"Duration":956023,"SoundDuration":956023,"Delta":10805566},{"NoteNumber":62,"Velocity":40,"Duration":79668,"SoundDuration":79668,"Delta":11124241},{"NoteNumber":54,"Velocity":40,"Duration":79668,"SoundDuration":79668,"Delta":11124241},{"NoteNumber":62,"Velocity":45,"Duration":79668,"SoundDuration":79668,"Delta":11442915},{"NoteNumber":54,"Velocity":45,"Duration":79668,"SoundDuration":79668,"Delta":11442915},{"NoteNumber":84,"Velocity":60,"Duration":72526,"SoundDuration":72526,"Delta":11761590},{"NoteNumber":81,"Velocity":51,"Duration":72858,"SoundDuration":72858,"Delta":11834117},{"NoteNumber":78,"Velocity":52,"Duration":73185,"SoundDuration":73185,"Delta":11906975},{"NoteNumber":72,"Velocity":52,"Duration":91608,"SoundDuration":91608,"Delta":11980160},{"NoteNumber":71,"Velocity":67,"Duration":957039,"SoundDuration":957039,"Delta":12071768},{"NoteNumber":62,"Velocity":40,"Duration":79753,"SoundDuration":79753,"Delta":12390781},{"NoteNumber":55,"Velocity":40,"Duration":79753,"SoundDuration":79753,"Delta":12390781},{"NoteNumber":62,"Velocity":45,"Duration":79753,"SoundDuration":79753,"Delta":12709794},{"NoteNumber":55,"Velocity":45,"Duration":79753,"SoundDuration":79753,"Delta":12709794},{"NoteNumber":83,"Velocity":60,"Duration":106337,"SoundDuration":106337,"Delta":13028807},{"NoteNumber":85,"Velocity":56,"Duration":106337,"SoundDuration":106337,"Delta":13135145},{"NoteNumber":86,"Velocity":56,"Duration":106337,"SoundDuration":106337,"Delta":13241483},{"NoteNumber":85,"Velocity":60,"Duration":103479,"SoundDuration":103479,"Delta":13347820},{"NoteNumber":57,"Velocity":48,"Duration":309286,"SoundDuration":309286,"Delta":13347820},{"NoteNumber":83,"Velocity":55,"Duration":102753,"SoundDuration":102753,"Delta":13451300},{"NoteNumber":81,"Velocity":51,"Duration":103053,"SoundDuration":103053,"Delta":13554053},{"NoteNumber":79,"Velocity":59,"Duration":103252,"SoundDuration":103252,"Delta":13657107},{"NoteNumber":78,"Velocity":51,"Duration":103585,"SoundDuration":103585,"Delta":13760359},{"NoteNumber":76,"Velocity":51,"Duration":103745,"SoundDuration":103745,"Delta":13863944},{"NoteNumber":74,"Velocity":55,"Duration":104132,"SoundDuration":104132,"Delta":13967689},{"NoteNumber":45,"Velocity":39,"Duration":312639,"SoundDuration":312639,"Delta":13967689},{"NoteNumber":73,"Velocity":49,"Duration":104253,"SoundDuration":104253,"Delta":14071822},{"NoteNumber":71,"Velocity":49,"Duration":104253,"SoundDuration":104253,"Delta":14176076},{"NoteNumber":69,"Velocity":52,"Duration":78190,"SoundDuration":78190,"Delta":14280329},{"NoteNumber":67,"Velocity":49,"Duration":79493,"SoundDuration":79493,"Delta":14358519},{"NoteNumber":66,"Velocity":49,"Duration":82432,"SoundDuration":82432,"Delta":14438013},{"NoteNumber":64,"Velocity":48,"Duration":85621,"SoundDuration":85621,"Delta":14520446},{"NoteNumber":62,"Velocity":60,"Duration":704722,"SoundDuration":704722,"Delta":14606068},{"NoteNumber":38,"Velocity":48,"Duration":704722,"SoundDuration":704722,"Delta":14606068},{"NoteNumber":57,"Velocity":53,"Duration":320375,"SoundDuration":320375,"Delta":15663151},{"NoteNumber":62,"Velocity":60,"Duration":152068,"SoundDuration":152068,"Delta":15983527},{"NoteNumber":61,"Velocity":52,"Duration":125502,"SoundDuration":125502,"Delta":16135595},{"NoteNumber":64,"Velocity":60,"Duration":149045,"SoundDuration":149045,"Delta":16302931},{"NoteNumber":62,"Velocity":54,"Duration":124805,"SoundDuration":124805,"Delta":16451977},{"NoteNumber":66,"Velocity":60,"Duration":147579,"SoundDuration":147579,"Delta":16618385},{"NoteNumber":64,"Velocity":54,"Duration":123436,"SoundDuration":123436,"Delta":16765964},{"NoteNumber":67,"Velocity":60,"Duration":155215,"SoundDuration":155215,"Delta":16930546},{"NoteNumber":66,"Velocity":49,"Duration":141260,"SoundDuration":141260,"Delta":17085762},{"NoteNumber":66,"Velocity":57,"Duration":721674,"SoundDuration":721674,"Delta":17274109},{"NoteNumber":62,"Velocity":48,"Duration":721674,"SoundDuration":721674,"Delta":17274109},{"NoteNumber":56,"Velocity":43,"Duration":360837,"SoundDuration":360837,"Delta":17634946},{"NoteNumber":64,"Velocity":50,"Duration":252411,"SoundDuration":252411,"Delta":17995783},{"NoteNumber":61,"Velocity":42,"Duration":252411,"SoundDuration":252411,"Delta":17995783},{"NoteNumber":57,"Velocity":48,"Duration":252411,"SoundDuration":252411,"Delta":17995783},{"NoteNumber":57,"Velocity":53,"Duration":320375,"SoundDuration":320375,"Delta":18332332},{"NoteNumber":64,"Velocity":60,"Duration":149045,"SoundDuration":149045,"Delta":18652708},{"NoteNumber":63,"Velocity":52,"Duration":125502,"SoundDuration":125502,"Delta":18801754},{"NoteNumber":66,"Velocity":60,"Duration":149790,"SoundDuration":149790,"Delta":18969090},{"NoteNumber":64,"Velocity":54,"Duration":124805,"SoundDuration":124805,"Delta":19118880},{"NoteNumber":67,"Velocity":60,"Duration":149790,"SoundDuration":149790,"Delta":19285288},{"NoteNumber":66,"Velocity":54,"Duration":123436,"SoundDuration":123436,"Delta":19435078},{"NoteNumber":69,"Velocity":60,"Duration":151301,"SoundDuration":151301,"Delta":19599660},{"NoteNumber":67,"Velocity":49,"Duration":141260,"SoundDuration":141260,"Delta":19750962},{"NoteNumber":67,"Velocity":57,"Duration":672343,"SoundDuration":672343,"Delta":19939309},{"NoteNumber":64,"Velocity":48,"Duration":672343,"SoundDuration":672343,"Delta":19939309},{"NoteNumber":49,"Velocity":43,"Duration":336171,"SoundDuration":336171,"Delta":20275481},{"NoteNumber":66,"Velocity":50,"Duration":252129,"SoundDuration":252129,"Delta":20611653},{"NoteNumber":62,"Velocity":42,"Duration":252129,"SoundDuration":252129,"Delta":20611653},{"NoteNumber":50,"Velocity":48,"Duration":252129,"SoundDuration":252129,"Delta":20611653},{"NoteNumber":62,"Velocity":58,"Duration":320375,"SoundDuration":320375,"Delta":20947825},{"NoteNumber":67,"Velocity":66,"Duration":152068,"SoundDuration":152068,"Delta":21268201},{"NoteNumber":66,"Velocity":57,"Duration":125502,"SoundDuration":125502,"Delta":21420269},{"NoteNumber":69,"Velocity":66,"Duration":150542,"SoundDuration":150542,"Delta":21587605},{"NoteNumber":67,"Velocity":59,"Duration":124805,"SoundDuration":124805,"Delta":21738147},{"NoteNumber":71,"Velocity":66,"Duration":150542,"SoundDuration":150542,"Delta":21904555},{"NoteNumber":69,"Velocity":59,"Duration":123436,"SoundDuration":123436,"Delta":22055097},{"NoteNumber":74,"Velocity":66,"Duration":158495,"SoundDuration":158495,"Delta":22219679},{"NoteNumber":73,"Velocity":53,"Duration":141260,"SoundDuration":141260,"Delta":22378174},{"NoteNumber":71,"Velocity":62,"Duration":157662,"SoundDuration":157662,"Delta":22566522},{"NoteNumber":55,"Velocity":52,"Duration":157662,"SoundDuration":157662,"Delta":22566522},{"NoteNumber":62,"Velocity":45,"Duration":151301,"SoundDuration":151301,"Delta":22724184},{"NoteNumber":71,"Velocity":62,"Duration":149790,"SoundDuration":149790,"Delta":22875486},{"NoteNumber":55,"Velocity":54,"Duration":149790,"SoundDuration":149790,"Delta":22875486},{"NoteNumber":74,"Velocity":57,"Duration":177221,"SoundDuration":177221,"Delta":23025276},{"NoteNumber":62,"Velocity":39,"Duration":177221,"SoundDuration":177221,"Delta":23025276},{"NoteNumber":69,"Velocity":62,"Duration":153625,"SoundDuration":153625,"Delta":23202497},{"NoteNumber":54,"Velocity":49,"Duration":153625,"SoundDuration":153625,"Delta":23202497},{"NoteNumber":62,"Velocity":38,"Duration":153625,"SoundDuration":153625,"Delta":23356123},{"NoteNumber":54,"Velocity":49,"Duration":153625,"SoundDuration":153625,"Delta":23509748},{"NoteNumber":62,"Velocity":43,"Duration":167335,"SoundDuration":167335,"Delta":23663374},{"NoteNumber":67,"Velocity":55,"Duration":40047,"SoundDuration":40047,"Delta":23830710},{"NoteNumber":59,"Velocity":52,"Duration":160188,"SoundDuration":160188,"Delta":23830710},{"NoteNumber":66,"Velocity":48,"Duration":40046,"SoundDuration":40046,"Delta":23870757},{"NoteNumber":67,"Velocity":62,"Duration":80094,"SoundDuration":80094,"Delta":23910804},{"NoteNumber":62,"Velocity":45,"Duration":151301,"SoundDuration":151301,"Delta":23990898},{"NoteNumber":67,"Velocity":62,"Duration":153625,"SoundDuration":153625,"Delta":24142199},{"NoteNumber":59,"Velocity":54,"Duration":153625,"SoundDuration":153625,"Delta":24142199},{"NoteNumber":71,"Velocity":57,"Duration":177221,"SoundDuration":177221,"Delta":24295824},{"NoteNumber":62,"Velocity":39,"Duration":177221,"SoundDuration":177221,"Delta":24295824},{"NoteNumber":66,"Velocity":62,"Duration":154416,"SoundDuration":154416,"Delta":24473046},{"NoteNumber":57,"Velocity":49,"Duration":154416,"SoundDuration":154416,"Delta":24473046},{"NoteNumber":62,"Velocity":38,"Duration":154416,"SoundDuration":154416,"Delta":24627462},{"NoteNumber":57,"Velocity":49,"Duration":154416,"SoundDuration":154416,"Delta":24781878},{"NoteNumber":62,"Velocity":43,"Duration":169223,"SoundDuration":169223,"Delta":24936294},{"NoteNumber":71,"Velocity":60,"Duration":39834,"SoundDuration":39834,"Delta":25105518},{"NoteNumber":55,"Velocity":52,"Duration":159337,"SoundDuration":159337,"Delta":25105518},{"NoteNumber":69,"Velocity":52,"Duration":39834,"SoundDuration":39834,"Delta":25145352},{"NoteNumber":71,"Velocity":68,"Duration":79668,"SoundDuration":79668,"Delta":25185187},{"NoteNumber":62,"Velocity":45,"Duration":151301,"SoundDuration":151301,"Delta":25264855},{"NoteNumber":71,"Velocity":68,"Duration":151301,"SoundDuration":151301,"Delta":25416157},{"NoteNumber":55,"Velocity":54,"Duration":151301,"SoundDuration":151301,"Delta":25416157},{"NoteNumber":74,"Velocity":62,"Duration":177221,"SoundDuration":177221,"Delta":25567458},{"NoteNumber":62,"Velocity":39,"Duration":177221,"SoundDuration":177221,"Delta":25567458},{"NoteNumber":69,"Velocity":68,"Duration":152843,"SoundDuration":152843,"Delta":25744679},{"NoteNumber":54,"Velocity":49,"Duration":152843,"SoundDuration":152843,"Delta":25744679},{"NoteNumber":62,"Velocity":38,"Duration":152843,"SoundDuration":152843,"Delta":25897522},{"NoteNumber":54,"Velocity":49,"Duration":152842,"SoundDuration":152842,"Delta":26050365},{"NoteNumber":62,"Velocity":43,"Duration":169223,"SoundDuration":169223,"Delta":26203208},{"NoteNumber":67,"Velocity":55,"Duration":40047,"SoundDuration":40047,"Delta":26372432},{"NoteNumber":59,"Velocity":52,"Duration":160188,"SoundDuration":160188,"Delta":26372432},{"NoteNumber":66,"Velocity":48,"Duration":40046,"SoundDuration":40046,"Delta":26412479},{"NoteNumber":67,"Velocity":62,"Duration":80094,"SoundDuration":80094,"Delta":26452526},{"NoteNumber":62,"Velocity":45,"Duration":152068,"SoundDuration":152068,"Delta":26532620},{"NoteNumber":67,"Velocity":62,"Duration":152068,"SoundDuration":152068,"Delta":26684688},{"NoteNumber":59,"Velocity":54,"Duration":152068,"SoundDuration":152068,"Delta":26684688},{"NoteNumber":71,"Velocity":57,"Duration":178274,"SoundDuration":178274,"Delta":26836756},{"NoteNumber":62,"Velocity":39,"Duration":178274,"SoundDuration":178274,"Delta":26836756},{"NoteNumber":66,"Velocity":62,"Duration":156022,"SoundDuration":156022,"Delta":27015031},{"NoteNumber":57,"Velocity":49,"Duration":156022,"SoundDuration":156022,"Delta":27015031},{"NoteNumber":62,"Velocity":38,"Duration":156022,"SoundDuration":156022,"Delta":27171053},{"NoteNumber":57,"Velocity":49,"Duration":156022,"SoundDuration":156022,"Delta":27327076},{"NoteNumber":62,"Velocity":43,"Duration":184482,"SoundDuration":184482,"Delta":27483098},{"NoteNumber":63,"Velocity":55,"Duration":169353,"SoundDuration":169353,"Delta":27667581},{"NoteNumber":55,"Velocity":52,"Duration":665790,"SoundDuration":665790,"Delta":27667581},{"NoteNumber":64,"Velocity":55,"Duration":167385,"SoundDuration":167385,"Delta":27836934},{"NoteNumber":66,"Velocity":58,"Duration":165461,"SoundDuration":165461,"Delta":28004320},{"NoteNumber":67,"Velocity":58,"Duration":163589,"SoundDuration":163589,"Delta":28169782},{"NoteNumber":69,"Velocity":62,"Duration":161757,"SoundDuration":161757,"Delta":28333372},{"NoteNumber":71,"Velocity":55,"Duration":162506,"SoundDuration":162506,"Delta":28495129},{"NoteNumber":67,"Velocity":61,"Duration":163683,"SoundDuration":163683,"Delta":28657636},{"NoteNumber":55,"Velocity":40,"Duration":383818,"SoundDuration":383818,"Delta":28657636},{"NoteNumber":43,"Velocity":34,"Duration":383818,"SoundDuration":383818,"Delta":28657636},{"NoteNumber":64,"Velocity":51,"Duration":220134,"SoundDuration":220134,"Delta":28821320},{"NoteNumber":62,"Velocity":57,"Duration":1274698,"SoundDuration":1274698,"Delta":29041455},{"NoteNumber":54,"Velocity":48,"Duration":1274698,"SoundDuration":1274698,"Delta":29041455},{"NoteNumber":45,"Velocity":40,"Duration":1593372,"SoundDuration":1593372,"Delta":29041455},{"NoteNumber":61,"Velocity":50,"Duration":318674,"SoundDuration":318674,"Delta":30316153},{"NoteNumber":52,"Velocity":45,"Duration":318674,"SoundDuration":318674,"Delta":30316153},{"NoteNumber":64,"Velocity":83,"Duration":71551,"SoundDuration":71551,"Delta":31272176},{"NoteNumber":69,"Velocity":66,"Duration":71551,"SoundDuration":71551,"Delta":31343727},{"NoteNumber":73,"Velocity":66,"Duration":72365,"SoundDuration":72365,"Delta":31415279},{"NoteNumber":76,"Velocity":66,"Duration":127898,"SoundDuration":127898,"Delta":31487644},{"NoteNumber":73,"Velocity":86,"Duration":315325,"SoundDuration":315325,"Delta":31615543},{"NoteNumber":45,"Velocity":63,"Duration":315325,"SoundDuration":315325,"Delta":31615543},{"NoteNumber":49,"Velocity":63,"Duration":315325,"SoundDuration":315325,"Delta":31615543},{"NoteNumber":57,"Velocity":75,"Duration":315325,"SoundDuration":315325,"Delta":31615543},{"NoteNumber":52,"Velocity":63,"Duration":315325,"SoundDuration":315325,"Delta":31615543},{"NoteNumber":69,"Velocity":83,"Duration":71551,"SoundDuration":71551,"Delta":31930868},{"NoteNumber":73,"Velocity":66,"Duration":71551,"SoundDuration":71551,"Delta":32002420},{"NoteNumber":76,"Velocity":66,"Duration":72365,"SoundDuration":72365,"Delta":32073971},{"NoteNumber":81,"Velocity":66,"Duration":127898,"SoundDuration":127898,"Delta":32146337},{"NoteNumber":76,"Velocity":86,"Duration":313676,"SoundDuration":313676,"Delta":32274236},{"NoteNumber":45,"Velocity":63,"Duration":313676,"SoundDuration":313676,"Delta":32274236},{"NoteNumber":49,"Velocity":63,"Duration":313676,"SoundDuration":313676,"Delta":32274236},{"NoteNumber":57,"Velocity":75,"Duration":313676,"SoundDuration":313676,"Delta":32274236},{"NoteNumber":52,"Velocity":63,"Duration":313676,"SoundDuration":313676,"Delta":32274236},{"NoteNumber":76,"Velocity":95,"Duration":71551,"SoundDuration":71551,"Delta":32587912},{"NoteNumber":81,"Velocity":75,"Duration":71551,"SoundDuration":71551,"Delta":32659464},{"NoteNumber":85,"Velocity":75,"Duration":72365,"SoundDuration":72365,"Delta":32731015},{"NoteNumber":88,"Velocity":75,"Duration":127898,"SoundDuration":127898,"Delta":32803381},{"NoteNumber":85,"Velocity":102,"Duration":313676,"SoundDuration":313676,"Delta":32931280},{"NoteNumber":45,"Velocity":63,"Duration":313676,"SoundDuration":313676,"Delta":32931280},{"NoteNumber":49,"Velocity":63,"Duration":313676,"SoundDuration":313676,"Delta":32931280},{"NoteNumber":57,"Velocity":75,"Duration":313676,"SoundDuration":313676,"Delta":32931280},{"NoteNumber":52,"Velocity":63,"Duration":313676,"SoundDuration":313676,"Delta":32931280},{"NoteNumber":69,"Velocity":61,"Duration":71551,"SoundDuration":71551,"Delta":33856725},{"NoteNumber":64,"Velocity":50,"Duration":71551,"SoundDuration":71551,"Delta":33928276},{"NoteNumber":61,"Velocity":50,"Duration":72365,"SoundDuration":72365,"Delta":33999827},{"NoteNumber":57,"Velocity":50,"Duration":127898,"SoundDuration":127898,"Delta":34072193},{"NoteNumber":55,"Velocity":62,"Duration":1251880,"SoundDuration":1251880,"Delta":34200092},{"NoteNumber":45,"Velocity":46,"Duration":160187,"SoundDuration":160187,"Delta":34200092},{"NoteNumber":52,"Velocity":38,"Duration":155215,"SoundDuration":155215,"Delta":34360280},{"NoteNumber":50,"Velocity":46,"Duration":155215,"SoundDuration":155215,"Delta":34515495},{"NoteNumber":52,"Velocity":39,"Duration":159337,"SoundDuration":159337,"Delta":34670711},{"NoteNumber":49,"Velocity":47,"Duration":153625,"SoundDuration":153625,"Delta":34830048},{"NoteNumber":52,"Velocity":38,"Duration":153625,"SoundDuration":153625,"Delta":34983673},{"NoteNumber":45,"Velocity":49,"Duration":153625,"SoundDuration":153625,"Delta":35137299},{"NoteNumber":49,"Velocity":41,"Duration":161048,"SoundDuration":161048,"Delta":35290924},{"NoteNumber":54,"Velocity":61,"Duration":162795,"SoundDuration":162795,"Delta":35451972},{"NoteNumber":50,"Velocity":46,"Duration":627676,"SoundDuration":627676,"Delta":35451972},{"NoteNumber":59,"Velocity":55,"Duration":156674,"SoundDuration":156674,"Delta":35614768},{"NoteNumber":58,"Velocity":49,"Duration":154257,"SoundDuration":154257,"Delta":35771442},{"NoteNumber":59,"Velocity":54,"Duration":153948,"SoundDuration":153948,"Delta":35925700},{"NoteNumber":61,"Velocity":59,"Duration":155860,"SoundDuration":155860,"Delta":36079649},{"NoteNumber":59,"Velocity":55,"Duration":155860,"SoundDuration":155860,"Delta":36235509},{"NoteNumber":58,"Velocity":47,"Duration":155860,"SoundDuration":155860,"Delta":36391369},{"NoteNumber":59,"Velocity":56,"Duration":160187,"SoundDuration":160187,"Delta":36547229},{"NoteNumber":57,"Velocity":62,"Duration":1270180,"SoundDuration":1270180,"Delta":36707417},{"NoteNumber":51,"Velocity":46,"Duration":165307,"SoundDuration":165307,"Delta":36707417},{"NoteNumber":54,"Velocity":38,"Duration":157496,"SoundDuration":157496,"Delta":36872725},{"NoteNumber":52,"Velocity":46,"Duration":157496,"SoundDuration":157496,"Delta":37030222},{"NoteNumber":54,"Velocity":39,"Duration":162619,"SoundDuration":162619,"Delta":37187718},{"NoteNumber":51,"Velocity":47,"Duration":154656,"SoundDuration":154656,"Delta":37350338},{"NoteNumber":54,"Velocity":38,"Duration":155054,"SoundDuration":155054,"Delta":37504994},{"NoteNumber":47,"Velocity":49,"Duration":155054,"SoundDuration":155054,"Delta":37660049},{"NoteNumber":51,"Velocity":41,"Duration":162494,"SoundDuration":162494,"Delta":37815103},{"NoteNumber":56,"Velocity":61,"Duration":158495,"SoundDuration":158495,"Delta":37977598},{"NoteNumber":52,"Velocity":46,"Duration":626723,"SoundDuration":626723,"Delta":37977598},{"NoteNumber":64,"Velocity":55,"Duration":153468,"SoundDuration":153468,"Delta":38136093},{"NoteNumber":63,"Velocity":49,"Duration":152842,"SoundDuration":152842,"Delta":38289562},{"NoteNumber":64,"Velocity":54,"Duration":161917,"SoundDuration":161917,"Delta":38442405},{"NoteNumber":66,"Velocity":59,"Duration":152842,"SoundDuration":152842,"Delta":38604322},{"NoteNumber":64,"Velocity":55,"Duration":152843,"SoundDuration":152843,"Delta":38757165},{"NoteNumber":63,"Velocity":47,"Duration":152842,"SoundDuration":152842,"Delta":38910008},{"NoteNumber":64,"Velocity":56,"Duration":160187,"SoundDuration":160187,"Delta":39062851},{"NoteNumber":63,"Velocity":62,"Duration":308963,"SoundDuration":308963,"Delta":39223039},{"NoteNumber":54,"Velocity":52,"Duration":157662,"SoundDuration":157662,"Delta":39223039},{"NoteNumber":60,"Velocity":45,"Duration":151301,"SoundDuration":151301,"Delta":39380701},{"NoteNumber":69,"Velocity":57,"Duration":149790,"SoundDuration":149790,"Delta":39532002},{"NoteNumber":54,"Velocity":54,"Duration":149790,"SoundDuration":149790,"Delta":39532002},{"NoteNumber":60,"Velocity":38,"Duration":177221,"SoundDuration":177221,"Delta":39681793},{"NoteNumber":54,"Velocity":45,"Duration":153625,"SoundDuration":153625,"Delta":39859014},{"NoteNumber":60,"Velocity":33,"Duration":153625,"SoundDuration":153625,"Delta":40012639},{"NoteNumber":63,"Velocity":62,"Duration":320961,"SoundDuration":320961,"Delta":40166265},{"NoteNumber":54,"Velocity":42,"Duration":153625,"SoundDuration":153625,"Delta":40166265},{"NoteNumber":60,"Velocity":35,"Duration":167335,"SoundDuration":167335,"Delta":40319890},{"NoteNumber":64,"Velocity":62,"Duration":157662,"SoundDuration":157662,"Delta":40487226},{"NoteNumber":56,"Velocity":52,"Duration":157662,"SoundDuration":157662,"Delta":40487226},{"NoteNumber":59,"Velocity":45,"Duration":151301,"SoundDuration":151301,"Delta":40644889},{"NoteNumber":64,"Velocity":62,"Duration":144036,"SoundDuration":144036,"Delta":40796190},{"NoteNumber":56,"Velocity":54,"Duration":144036,"SoundDuration":144036,"Delta":40796190},{"NoteNumber":71,"Velocity":57,"Duration":161048,"SoundDuration":161048,"Delta":40940227},{"NoteNumber":59,"Velocity":39,"Duration":161048,"SoundDuration":161048,"Delta":40940227},{"NoteNumber":64,"Velocity":62,"Duration":230438,"SoundDuration":230438,"Delta":41101275},{"NoteNumber":56,"Velocity":49,"Duration":153625,"SoundDuration":153625,"Delta":41101275},{"NoteNumber":59,"Velocity":38,"Duration":153625,"SoundDuration":153625,"Delta":41254900},{"NoteNumber":64,"Velocity":57,"Duration":320961,"SoundDuration":320961,"Delta":41408526},{"NoteNumber":56,"Velocity":49,"Duration":153625,"SoundDuration":153625,"Delta":41408526},{"NoteNumber":59,"Velocity":43,"Duration":167335,"SoundDuration":167335,"Delta":41562151},{"NoteNumber":63,"Velocity":62,"Duration":308963,"SoundDuration":308963,"Delta":41729487},{"NoteNumber":54,"Velocity":52,"Duration":157662,"SoundDuration":157662,"Delta":41729487},{"NoteNumber":60,"Velocity":45,"Duration":151301,"SoundDuration":151301,"Delta":41887150},{"NoteNumber":69,"Velocity":57,"Duration":149790,"SoundDuration":149790,"Delta":42038451},{"NoteNumber":54,"Velocity":54,"Duration":149790,"SoundDuration":149790,"Delta":42038451},{"NoteNumber":60,"Velocity":38,"Duration":160187,"SoundDuration":160187,"Delta":42188241},{"NoteNumber":54,"Velocity":46,"Duration":153625,"SoundDuration":153625,"Delta":42348429},{"NoteNumber":60,"Velocity":37,"Duration":153625,"SoundDuration":153625,"Delta":42502055},{"NoteNumber":63,"Velocity":62,"Duration":320961,"SoundDuration":320961,"Delta":42655680},{"NoteNumber":54,"Velocity":46,"Duration":153625,"SoundDuration":153625,"Delta":42655680},{"NoteNumber":60,"Velocity":37,"Duration":167335,"SoundDuration":167335,"Delta":42809306},{"NoteNumber":64,"Velocity":62,"Duration":157662,"SoundDuration":157662,"Delta":42976642},{"NoteNumber":56,"Velocity":52,"Duration":157662,"SoundDuration":157662,"Delta":42976642},{"NoteNumber":59,"Velocity":45,"Duration":151301,"SoundDuration":151301,"Delta":43134304},{"NoteNumber":64,"Velocity":62,"Duration":143348,"SoundDuration":143348,"Delta":43285606},{"NoteNumber":56,"Velocity":54,"Duration":143348,"SoundDuration":143348,"Delta":43285606},{"NoteNumber":71,"Velocity":57,"Duration":160187,"SoundDuration":160187,"Delta":43428954},{"NoteNumber":59,"Velocity":39,"Duration":160187,"SoundDuration":160187,"Delta":43428954},{"NoteNumber":64,"Velocity":62,"Duration":230438,"SoundDuration":230438,"Delta":43589142},{"NoteNumber":56,"Velocity":49,"Duration":153625,"SoundDuration":153625,"Delta":43589142},{"NoteNumber":59,"Velocity":38,"Duration":153625,"SoundDuration":153625,"Delta":43742768},{"NoteNumber":62,"Velocity":47,"Duration":38406,"SoundDuration":38406,"Delta":43896393},{"NoteNumber":56,"Velocity":49,"Duration":153625,"SoundDuration":153625,"Delta":43896393},{"NoteNumber":64,"Velocity":44,"Duration":38406,"SoundDuration":38406,"Delta":43934799},{"NoteNumber":62,"Velocity":57,"Duration":244148,"SoundDuration":244148,"Delta":43973206},{"NoteNumber":59,"Velocity":43,"Duration":167335,"SoundDuration":167335,"Delta":44050019},{"NoteNumber":61,"Velocity":62,"Duration":147982,"SoundDuration":147982,"Delta":44217355},{"NoteNumber":57,"Velocity":52,"Duration":154416,"SoundDuration":154416,"Delta":44217355},{"NoteNumber":61,"Velocity":45,"Duration":151301,"SoundDuration":151301,"Delta":44371771},{"NoteNumber":76,"Velocity":64,"Duration":149790,"SoundDuration":149790,"Delta":44523072},{"NoteNumber":57,"Velocity":54,"Duration":149790,"SoundDuration":149790,"Delta":44523072},{"NoteNumber":61,"Velocity":33,"Duration":161048,"SoundDuration":161048,"Delta":44672862},{"NoteNumber":57,"Velocity":43,"Duration":153625,"SoundDuration":153625,"Delta":44833910},{"NoteNumber":61,"Velocity":38,"Duration":153625,"SoundDuration":153625,"Delta":44987536},{"NoteNumber":69,"Velocity":62,"Duration":315542,"SoundDuration":315542,"Delta":45141161},{"NoteNumber":57,"Velocity":43,"Duration":153625,"SoundDuration":153625,"Delta":45141161},{"NoteNumber":61,"Velocity":38,"Duration":161917,"SoundDuration":161917,"Delta":45294787},{"NoteNumber":68,"Velocity":62,"Duration":157662,"SoundDuration":157662,"Delta":45456704},{"NoteNumber":59,"Velocity":52,"Duration":157662,"SoundDuration":157662,"Delta":45456704},{"NoteNumber":62,"Velocity":45,"Duration":151301,"SoundDuration":151301,"Delta":45614366},{"NoteNumber":68,"Velocity":62,"Duration":142667,"SoundDuration":142667,"Delta":45765668},{"NoteNumber":59,"Velocity":54,"Duration":142667,"SoundDuration":142667,"Delta":45765668},{"NoteNumber":76,"Velocity":57,"Duration":163684,"SoundDuration":163684,"Delta":45908335},{"NoteNumber":62,"Velocity":39,"Duration":163684,"SoundDuration":163684,"Delta":45908335},{"NoteNumber":68,"Velocity":62,"Duration":230438,"SoundDuration":230438,"Delta":46072019},{"NoteNumber":59,"Velocity":49,"Duration":153625,"SoundDuration":153625,"Delta":46072019},{"NoteNumber":62,"Velocity":38,"Duration":153625,"SoundDuration":153625,"Delta":46225644},{"NoteNumber":68,"Velocity":57,"Duration":320961,"SoundDuration":320961,"Delta":46379270},{"NoteNumber":59,"Velocity":49,"Duration":153625,"SoundDuration":153625,"Delta":46379270},{"NoteNumber":62,"Velocity":43,"Duration":167335,"SoundDuration":167335,"Delta":46532895},{"NoteNumber":69,"Velocity":62,"Duration":157662,"SoundDuration":157662,"Delta":46700231},{"NoteNumber":61,"Velocity":52,"Duration":157662,"SoundDuration":157662,"Delta":46700231},{"NoteNumber":64,"Velocity":45,"Duration":151301,"SoundDuration":151301,"Delta":46857894},{"NoteNumber":69,"Velocity":62,"Duration":144731,"SoundDuration":144731,"Delta":47009195},{"NoteNumber":61,"Velocity":54,"Duration":144731,"SoundDuration":144731,"Delta":47009195},{"NoteNumber":76,"Velocity":57,"Duration":163684,"SoundDuration":163684,"Delta":47153927},{"NoteNumber":64,"Velocity":39,"Duration":163684,"SoundDuration":163684,"Delta":47153927},{"NoteNumber":69,"Velocity":62,"Duration":230438,"SoundDuration":230438,"Delta":47317611},{"NoteNumber":61,"Velocity":49,"Duration":153625,"SoundDuration":153625,"Delta":47317611},{"NoteNumber":64,"Velocity":38,"Duration":153625,"SoundDuration":153625,"Delta":47471236},{"NoteNumber":69,"Velocity":57,"Duration":320961,"SoundDuration":320961,"Delta":47624862},{"NoteNumber":61,"Velocity":49,"Duration":153625,"SoundDuration":153625,"Delta":47624862},{"NoteNumber":64,"Velocity":43,"Duration":167335,"SoundDuration":167335,"Delta":47778487},{"NoteNumber":71,"Velocity":62,"Duration":157662,"SoundDuration":157662,"Delta":47945823},{"NoteNumber":56,"Velocity":52,"Duration":157662,"SoundDuration":157662,"Delta":47945823},{"NoteNumber":64,"Velocity":45,"Duration":151301,"SoundDuration":151301,"Delta":48103486},{"NoteNumber":71,"Velocity":62,"Duration":144036,"SoundDuration":144036,"Delta":48254787},{"NoteNumber":56,"Velocity":54,"Duration":144036,"SoundDuration":144036,"Delta":48254787},{"NoteNumber":76,"Velocity":57,"Duration":165489,"SoundDuration":165489,"Delta":48398824},{"NoteNumber":64,"Velocity":39,"Duration":165489,"SoundDuration":165489,"Delta":48398824},{"NoteNumber":71,"Velocity":62,"Duration":230438,"SoundDuration":230438,"Delta":48564313},{"NoteNumber":56,"Velocity":49,"Duration":153625,"SoundDuration":153625,"Delta":48564313},{"NoteNumber":64,"Velocity":38,"Duration":153625,"SoundDuration":153625,"Delta":48717939},{"NoteNumber":74,"Velocity":57,"Duration":320638,"SoundDuration":320638,"Delta":48871564},{"NoteNumber":56,"Velocity":49,"Duration":153625,"SoundDuration":153625,"Delta":48871564},{"NoteNumber":64,"Velocity":43,"Duration":167013,"SoundDuration":167013,"Delta":49025190},{"NoteNumber":73,"Velocity":64,"Duration":154113,"SoundDuration":154113,"Delta":49192203},{"NoteNumber":57,"Velocity":52,"Duration":609334,"SoundDuration":609334,"Delta":49192203},{"NoteNumber":74,"Velocity":57,"Duration":152967,"SoundDuration":152967,"Delta":49346316},{"NoteNumber":76,"Velocity":57,"Duration":151716,"SoundDuration":151716,"Delta":49499284},{"NoteNumber":73,"Velocity":57,"Duration":150537,"SoundDuration":150537,"Delta":49651000},{"NoteNumber":71,"Velocity":62,"Duration":150197,"SoundDuration":150197,"Delta":49801537},{"NoteNumber":69,"Velocity":57,"Duration":151423,"SoundDuration":151423,"Delta":49951735},{"NoteNumber":68,"Velocity":57,"Duration":152552,"SoundDuration":152552,"Delta":50103158},{"NoteNumber":66,"Velocity":57,"Duration":153757,"SoundDuration":153757,"Delta":50255711},{"NoteNumber":64,"Velocity":64,"Duration":154238,"SoundDuration":154238,"Delta":50409468},{"NoteNumber":56,"Velocity":52,"Duration":611544,"SoundDuration":611544,"Delta":50409468},{"NoteNumber":59,"Velocity":52,"Duration":611544,"SoundDuration":611544,"Delta":50409468},{"NoteNumber":63,"Velocity":53,"Duration":153292,"SoundDuration":153292,"Delta":50563707},{"NoteNumber":64,"Velocity":57,"Duration":152487,"SoundDuration":152487,"Delta":50716999},{"NoteNumber":66,"Velocity":53,"Duration":151525,"SoundDuration":151525,"Delta":50869487},{"NoteNumber":64,"Velocity":57,"Duration":150078,"SoundDuration":150078,"Delta":51021013},{"NoteNumber":62,"Velocity":51,"Duration":151303,"SoundDuration":151303,"Delta":51171091},{"NoteNumber":61,"Velocity":51,"Duration":152663,"SoundDuration":152663,"Delta":51322395},{"NoteNumber":59,"Velocity":51,"Duration":168274,"SoundDuration":168274,"Delta":51475058},{"NoteNumber":61,"Velocity":56,"Duration":153689,"SoundDuration":153689,"Delta":51643332},{"NoteNumber":45,"Velocity":52,"Duration":609157,"SoundDuration":609157,"Delta":51643332},{"NoteNumber":57,"Velocity":52,"Duration":609157,"SoundDuration":609157,"Delta":51643332},{"NoteNumber":62,"Velocity":47,"Duration":153169,"SoundDuration":153169,"Delta":51797022},{"NoteNumber":64,"Velocity":47,"Duration":151761,"SoundDuration":151761,"Delta":51950191},{"NoteNumber":61,"Velocity":47,"Duration":150537,"SoundDuration":150537,"Delta":52101953},{"NoteNumber":59,"Velocity":55,"Duration":149318,"SoundDuration":149318,"Delta":52252490},{"NoteNumber":57,"Velocity":51,"Duration":150423,"SoundDuration":150423,"Delta":52401809},{"NoteNumber":56,"Velocity":51,"Duration":151890,"SoundDuration":151890,"Delta":52552233},{"NoteNumber":54,"Velocity":51,"Duration":161048,"SoundDuration":161048,"Delta":52704123},{"NoteNumber":52,"Velocity":54,"Duration":150542,"SoundDuration":150542,"Delta":52865171},{"NoteNumber":51,"Velocity":50,"Duration":150542,"SoundDuration":150542,"Delta":53015713},{"NoteNumber":52,"Velocity":50,"Duration":150272,"SoundDuration":150272,"Delta":53166255},{"NoteNumber":54,"Velocity":50,"Duration":150757,"SoundDuration":150757,"Delta":53316528},{"NoteNumber":52,"Velocity":55,"Duration":152450,"SoundDuration":152450,"Delta":53467286},{"NoteNumber":50,"Velocity":49,"Duration":154259,"SoundDuration":154259,"Delta":53619736},{"NoteNumber":49,"Velocity":49,"Duration":156059,"SoundDuration":156059,"Delta":53773996},{"NoteNumber":47,"Velocity":49,"Duration":176180,"SoundDuration":176180,"Delta":53930055},{"NoteNumber":73,"Velocity":64,"Duration":154113,"SoundDuration":154113,"Delta":54106235},{"NoteNumber":45,"Velocity":57,"Duration":609334,"SoundDuration":609334,"Delta":54106235},{"NoteNumber":74,"Velocity":57,"Duration":152967,"SoundDuration":152967,"Delta":54260348},{"NoteNumber":76,"Velocity":57,"Duration":151716,"SoundDuration":151716,"Delta":54413316},{"NoteNumber":73,"Velocity":57,"Duration":150537,"SoundDuration":150537,"Delta":54565033},{"NoteNumber":71,"Velocity":62,"Duration":150197,"SoundDuration":150197,"Delta":54715570},{"NoteNumber":69,"Velocity":57,"Duration":151423,"SoundDuration":151423,"Delta":54865767},{"NoteNumber":68,"Velocity":57,"Duration":152552,"SoundDuration":152552,"Delta":55017191},{"NoteNumber":69,"Velocity":57,"Duration":172540,"SoundDuration":172540,"Delta":55169743},{"NoteNumber":78,"Velocity":64,"Duration":159337,"SoundDuration":159337,"Delta":55342284},{"NoteNumber":62,"Velocity":57,"Duration":621248,"SoundDuration":621248,"Delta":55342284},{"NoteNumber":80,"Velocity":64,"Duration":158495,"SoundDuration":158495,"Delta":55501621},{"NoteNumber":81,"Velocity":68,"Duration":153625,"SoundDuration":153625,"Delta":55660116},{"NoteNumber":78,"Velocity":64,"Duration":149790,"SoundDuration":149790,"Delta":55813742},{"NoteNumber":76,"Velocity":62,"Duration":150197,"SoundDuration":150197,"Delta":55963532},{"NoteNumber":74,"Velocity":61,"Duration":151423,"SoundDuration":151423,"Delta":56113730},{"NoteNumber":73,"Velocity":58,"Duration":152552,"SoundDuration":152552,"Delta":56265153},{"NoteNumber":71,"Velocity":58,"Duration":153757,"SoundDuration":153757,"Delta":56417706},{"NoteNumber":70,"Velocity":64,"Duration":154113,"SoundDuration":154113,"Delta":56571463},{"NoteNumber":38,"Velocity":57,"Duration":609334,"SoundDuration":609334,"Delta":56571463},{"NoteNumber":71,"Velocity":57,"Duration":152967,"SoundDuration":152967,"Delta":56725576},{"NoteNumber":73,"Velocity":57,"Duration":151716,"SoundDuration":151716,"Delta":56878544},{"NoteNumber":71,"Velocity":57,"Duration":150537,"SoundDuration":150537,"Delta":57030261},{"NoteNumber":74,"Velocity":62,"Duration":150197,"SoundDuration":150197,"Delta":57180798},{"NoteNumber":73,"Velocity":57,"Duration":151423,"SoundDuration":151423,"Delta":57330995},{"NoteNumber":76,"Velocity":61,"Duration":152552,"SoundDuration":152552,"Delta":57482418},{"NoteNumber":74,"Velocity":57,"Duration":164967,"SoundDuration":164967,"Delta":57634971},{"NoteNumber":78,"Velocity":63,"Duration":307251,"SoundDuration":307251,"Delta":57799938},{"NoteNumber":76,"Velocity":62,"Duration":149362,"SoundDuration":149362,"Delta":58413410},{"NoteNumber":74,"Velocity":57,"Duration":150486,"SoundDuration":150486,"Delta":58562772},{"NoteNumber":73,"Velocity":62,"Duration":151684,"SoundDuration":151684,"Delta":58713259},{"NoteNumber":71,"Velocity":57,"Duration":152909,"SoundDuration":152909,"Delta":58864944},{"NoteNumber":69,"Velocity":62,"Duration":615141,"SoundDuration":615141,"Delta":59017853},{"NoteNumber":57,"Velocity":39,"Duration":620730,"SoundDuration":620730,"Delta":59325104},{"NoteNumber":49,"Velocity":32,"Duration":307890,"SoundDuration":307890,"Delta":59325104},{"NoteNumber":71,"Velocity":62,"Duration":81360,"SoundDuration":81360,"Delta":59632994},{"NoteNumber":50,"Velocity":39,"Duration":312840,"SoundDuration":312840,"Delta":59632994},{"NoteNumber":73,"Velocity":54,"Duration":79135,"SoundDuration":79135,"Delta":59714355},{"NoteNumber":71,"Velocity":62,"Duration":77009,"SoundDuration":77009,"Delta":59793491},{"NoteNumber":73,"Velocity":55,"Duration":75334,"SoundDuration":75334,"Delta":59870500},{"NoteNumber":71,"Velocity":62,"Duration":101104,"SoundDuration":101104,"Delta":59945835},{"NoteNumber":52,"Velocity":32,"Duration":305878,"SoundDuration":305878,"Delta":59945835},{"NoteNumber":56,"Velocity":39,"Duration":305878,"SoundDuration":305878,"Delta":59945835},{"NoteNumber":73,"Velocity":55,"Duration":101929,"SoundDuration":101929,"Delta":60046939},{"NoteNumber":71,"Velocity":62,"Duration":102845,"SoundDuration":102845,"Delta":60148868},{"NoteNumber":73,"Velocity":64,"Duration":154113,"SoundDuration":154113,"Delta":60251713},{"NoteNumber":57,"Velocity":57,"Duration":307080,"SoundDuration":307080,"Delta":60251713},{"NoteNumber":45,"Velocity":48,"Duration":307080,"SoundDuration":307080,"Delta":60251713},{"NoteNumber":74,"Velocity":57,"Duration":152967,"SoundDuration":152967,"Delta":60405826},{"NoteNumber":76,"Velocity":57,"Duration":151716,"SoundDuration":151716,"Delta":60558794},{"NoteNumber":73,"Velocity":57,"Duration":150537,"SoundDuration":150537,"Delta":60710511},{"NoteNumber":71,"Velocity":62,"Duration":150197,"SoundDuration":150197,"Delta":60861048},{"NoteNumber":61,"Velocity":39,"Duration":301620,"SoundDuration":301620,"Delta":60861048},{"NoteNumber":69,"Velocity":57,"Duration":151423,"SoundDuration":151423,"Delta":61011245},{"NoteNumber":68,"Velocity":57,"Duration":152552,"SoundDuration":152552,"Delta":61162669},{"NoteNumber":69,"Velocity":57,"Duration":170520,"SoundDuration":170520,"Delta":61315221},{"NoteNumber":78,"Velocity":64,"Duration":159337,"SoundDuration":159337,"Delta":61485741},{"NoteNumber":62,"Velocity":57,"Duration":621248,"SoundDuration":621248,"Delta":61485741},{"NoteNumber":80,"Velocity":64,"Duration":158495,"SoundDuration":158495,"Delta":61645079},{"NoteNumber":81,"Velocity":68,"Duration":153625,"SoundDuration":153625,"Delta":61803574},{"NoteNumber":78,"Velocity":64,"Duration":149790,"SoundDuration":149790,"Delta":61957199},{"NoteNumber":76,"Velocity":62,"Duration":150197,"SoundDuration":150197,"Delta":62106990},{"NoteNumber":74,"Velocity":61,"Duration":151423,"SoundDuration":151423,"Delta":62257187},{"NoteNumber":73,"Velocity":58,"Duration":152552,"SoundDuration":152552,"Delta":62408611},{"NoteNumber":71,"Velocity":58,"Duration":153757,"SoundDuration":153757,"Delta":62561163},{"NoteNumber":70,"Velocity":64,"Duration":154113,"SoundDuration":154113,"Delta":62714920},{"NoteNumber":50,"Velocity":57,"Duration":609334,"SoundDuration":609334,"Delta":62714920},{"NoteNumber":71,"Velocity":57,"Duration":152967,"SoundDuration":152967,"Delta":62869034},{"NoteNumber":73,"Velocity":57,"Duration":151716,"SoundDuration":151716,"Delta":63022001},{"NoteNumber":71,"Velocity":57,"Duration":150537,"SoundDuration":150537,"Delta":63173718},{"NoteNumber":74,"Velocity":62,"Duration":150197,"SoundDuration":150197,"Delta":63324255},{"NoteNumber":73,"Velocity":57,"Duration":151423,"SoundDuration":151423,"Delta":63474452},{"NoteNumber":76,"Velocity":61,"Duration":152552,"SoundDuration":152552,"Delta":63625876},{"NoteNumber":74,"Velocity":57,"Duration":164967,"SoundDuration":164967,"Delta":63778428},{"NoteNumber":78,"Velocity":63,"Duration":307250,"SoundDuration":307250,"Delta":63943396},{"NoteNumber":74,"Velocity":43,"Duration":171731,"SoundDuration":171731,"Delta":64563279},{"NoteNumber":73,"Velocity":39,"Duration":174535,"SoundDuration":174535,"Delta":64735011},{"NoteNumber":76,"Velocity":42,"Duration":177585,"SoundDuration":177585,"Delta":64909547},{"NoteNumber":74,"Velocity":39,"Duration":193199,"SoundDuration":193199,"Delta":65087132},{"NoteNumber":78,"Velocity":44,"Duration":446827,"SoundDuration":446827,"Delta":65280332},{"NoteNumber":74,"Velocity":46,"Duration":280312,"SoundDuration":280312,"Delta":66179974},{"NoteNumber":73,"Velocity":39,"Duration":293993,"SoundDuration":293993,"Delta":66460286},{"NoteNumber":76,"Velocity":47,"Duration":308757,"SoundDuration":308757,"Delta":66754280},{"NoteNumber":74,"Velocity":39,"Duration":419697,"SoundDuration":419697,"Delta":67063037},{"NoteNumber":78,"Velocity":44,"Duration":1286932,"SoundDuration":1286932,"Delta":67482735},{"NoteNumber":65,"Velocity":64,"Duration":75422,"SoundDuration":75422,"Delta":68845242},{"NoteNumber":77,"Velocity":70,"Duration":224837,"SoundDuration":224837,"Delta":68920664},{"NoteNumber":66,"Velocity":65,"Duration":74449,"SoundDuration":74449,"Delta":69145501},{"NoteNumber":78,"Velocity":72,"Duration":222391,"SoundDuration":222391,"Delta":69219951},{"NoteNumber":70,"Velocity":68,"Duration":74081,"SoundDuration":74081,"Delta":69442342},{"NoteNumber":82,"Velocity":74,"Duration":222244,"SoundDuration":222244,"Delta":69516423},{"NoteNumber":71,"Velocity":69,"Duration":74081,"SoundDuration":74081,"Delta":69738667},{"NoteNumber":83,"Velocity":75,"Duration":222244,"SoundDuration":222244,"Delta":69812749},{"NoteNumber":73,"Velocity":71,"Duration":74081,"SoundDuration":74081,"Delta":70034993},{"NoteNumber":85,"Velocity":77,"Duration":222244,"SoundDuration":222244,"Delta":70109074},{"NoteNumber":74,"Velocity":71,"Duration":74081,"SoundDuration":74081,"Delta":70331318},{"NoteNumber":86,"Velocity":78,"Duration":444488,"SoundDuration":444488,"Delta":70405400},{"NoteNumber":62,"Velocity":42,"Duration":148162,"SoundDuration":148162,"Delta":70405400},{"NoteNumber":66,"Velocity":42,"Duration":148162,"SoundDuration":148162,"Delta":70405400},{"NoteNumber":71,"Velocity":50,"Duration":148162,"SoundDuration":148162,"Delta":70405400},{"NoteNumber":62,"Velocity":37,"Duration":148162,"SoundDuration":148162,"Delta":70701725},{"NoteNumber":66,"Velocity":37,"Duration":148162,"SoundDuration":148162,"Delta":70701725},{"NoteNumber":71,"Velocity":45,"Duration":148162,"SoundDuration":148162,"Delta":70701725},{"NoteNumber":83,"Velocity":68,"Duration":148162,"SoundDuration":148162,"Delta":70849888},{"NoteNumber":86,"Velocity":74,"Duration":141189,"SoundDuration":141189,"Delta":70998051},{"NoteNumber":62,"Velocity":37,"Duration":141189,"SoundDuration":141189,"Delta":70998051},{"NoteNumber":66,"Velocity":37,"Duration":141189,"SoundDuration":141189,"Delta":70998051},{"NoteNumber":71,"Velocity":45,"Duration":141189,"SoundDuration":141189,"Delta":70998051},{"NoteNumber":83,"Velocity":68,"Duration":141189,"SoundDuration":141189,"Delta":71139240},{"NoteNumber":86,"Velocity":73,"Duration":148162,"SoundDuration":148162,"Delta":71280430},{"NoteNumber":62,"Velocity":37,"Duration":148162,"SoundDuration":148162,"Delta":71280430},{"NoteNumber":66,"Velocity":37,"Duration":148162,"SoundDuration":148162,"Delta":71280430},{"NoteNumber":71,"Velocity":45,"Duration":148162,"SoundDuration":148162,"Delta":71280430},{"NoteNumber":83,"Velocity":70,"Duration":148162,"SoundDuration":148162,"Delta":71428593},{"NoteNumber":76,"Velocity":79,"Duration":444488,"SoundDuration":444488,"Delta":71576756},{"NoteNumber":64,"Velocity":42,"Duration":148162,"SoundDuration":148162,"Delta":71576756},{"NoteNumber":69,"Velocity":42,"Duration":148162,"SoundDuration":148162,"Delta":71576756},{"NoteNumber":73,"Velocity":50,"Duration":148162,"SoundDuration":148162,"Delta":71576756},{"NoteNumber":64,"Velocity":37,"Duration":148162,"SoundDuration":148162,"Delta":71873081},{"NoteNumber":69,"Velocity":37,"Duration":148162,"SoundDuration":148162,"Delta":71873081},{"NoteNumber":73,"Velocity":45,"Duration":148162,"SoundDuration":148162,"Delta":71873081},{"NoteNumber":81,"Velocity":72,"Duration":71265,"SoundDuration":71265,"Delta":72021244},{"NoteNumber":85,"Velocity":75,"Duration":71265,"SoundDuration":71265,"Delta":72092509},{"NoteNumber":88,"Velocity":79,"Duration":442304,"SoundDuration":442304,"Delta":72163775},{"NoteNumber":64,"Velocity":37,"Duration":147434,"SoundDuration":147434,"Delta":72163775},{"NoteNumber":69,"Velocity":37,"Duration":147434,"SoundDuration":147434,"Delta":72163775},{"NoteNumber":73,"Velocity":45,"Duration":147434,"SoundDuration":147434,"Delta":72163775},{"NoteNumber":64,"Velocity":37,"Duration":147434,"SoundDuration":147434,"Delta":72458645},{"NoteNumber":69,"Velocity":37,"Duration":147434,"SoundDuration":147434,"Delta":72458645},{"NoteNumber":73,"Velocity":45,"Duration":147434,"SoundDuration":147434,"Delta":72458645},{"NoteNumber":81,"Velocity":70,"Duration":71605,"SoundDuration":71605,"Delta":72606079},{"NoteNumber":83,"Velocity":56,"Duration":84402,"SoundDuration":84402,"Delta":72677685},{"NoteNumber":83,"Velocity":69,"Duration":79044,"SoundDuration":79044,"Delta":72804289},{"NoteNumber":64,"Velocity":50,"Duration":157423,"SoundDuration":157423,"Delta":72804289},{"NoteNumber":68,"Velocity":50,"Duration":157423,"SoundDuration":157423,"Delta":72804289},{"NoteNumber":85,"Velocity":49,"Duration":78379,"SoundDuration":78379,"Delta":72883333},{"NoteNumber":83,"Velocity":61,"Duration":77374,"SoundDuration":77374,"Delta":72961713},{"NoteNumber":85,"Velocity":55,"Duration":76274,"SoundDuration":76274,"Delta":73039087},{"NoteNumber":83,"Velocity":64,"Duration":75366,"SoundDuration":75366,"Delta":73115362},{"NoteNumber":64,"Velocity":45,"Duration":149663,"SoundDuration":149663,"Delta":73115362},{"NoteNumber":68,"Velocity":45,"Duration":149663,"SoundDuration":149663,"Delta":73115362},{"NoteNumber":85,"Velocity":58,"Duration":74297,"SoundDuration":74297,"Delta":73190728},{"NoteNumber":83,"Velocity":67,"Duration":73416,"SoundDuration":73416,"Delta":73265025},{"NoteNumber":85,"Velocity":62,"Duration":73356,"SoundDuration":73356,"Delta":73338442},{"NoteNumber":83,"Velocity":70,"Duration":73356,"SoundDuration":73356,"Delta":73411799},{"NoteNumber":64,"Velocity":45,"Duration":146941,"SoundDuration":146941,"Delta":73411799},{"NoteNumber":68,"Velocity":45,"Duration":146941,"SoundDuration":146941,"Delta":73411799},{"NoteNumber":85,"Velocity":61,"Duration":73585,"SoundDuration":73585,"Delta":73485156},{"NoteNumber":83,"Velocity":63,"Duration":73717,"SoundDuration":73717,"Delta":73558741},{"NoteNumber":85,"Velocity":55,"Duration":73978,"SoundDuration":73978,"Delta":73632458},{"NoteNumber":83,"Velocity":66,"Duration":74124,"SoundDuration":74124,"Delta":73706436},{"NoteNumber":64,"Velocity":45,"Duration":148802,"SoundDuration":148802,"Delta":73706436},{"NoteNumber":68,"Velocity":45,"Duration":148802,"SoundDuration":148802,"Delta":73706436},{"NoteNumber":85,"Velocity":57,"Duration":74678,"SoundDuration":74678,"Delta":73780561},{"NoteNumber":83,"Velocity":69,"Duration":75786,"SoundDuration":75786,"Delta":73855239},{"NoteNumber":85,"Velocity":59,"Duration":76992,"SoundDuration":76992,"Delta":73931025},{"NoteNumber":81,"Velocity":69,"Duration":620219,"SoundDuration":620219,"Delta":74008018},{"NoteNumber":57,"Velocity":57,"Duration":155054,"SoundDuration":155054,"Delta":74008018},{"NoteNumber":69,"Velocity":47,"Duration":155054,"SoundDuration":155054,"Delta":74163072},{"NoteNumber":68,"Velocity":50,"Duration":155054,"SoundDuration":155054,"Delta":74318127},{"NoteNumber":69,"Velocity":47,"Duration":155054,"SoundDuration":155054,"Delta":74473182},{"NoteNumber":61,"Velocity":57,"Duration":155054,"SoundDuration":155054,"Delta":74628237},{"NoteNumber":69,"Velocity":48,"Duration":155054,"SoundDuration":155054,"Delta":74783291},{"NoteNumber":76,"Velocity":69,"Duration":310109,"SoundDuration":310109,"Delta":74938346},{"NoteNumber":68,"Velocity":50,"Duration":155054,"SoundDuration":155054,"Delta":74938346},{"NoteNumber":69,"Velocity":47,"Duration":155054,"SoundDuration":155054,"Delta":75093401},{"NoteNumber":78,"Velocity":64,"Duration":76734,"SoundDuration":76734,"Delta":75248456},{"NoteNumber":62,"Velocity":57,"Duration":153468,"SoundDuration":153468,"Delta":75248456},{"NoteNumber":80,"Velocity":59,"Duration":76734,"SoundDuration":76734,"Delta":75325190},{"NoteNumber":78,"Velocity":68,"Duration":153468,"SoundDuration":153468,"Delta":75401924},{"NoteNumber":69,"Velocity":47,"Duration":153468,"SoundDuration":153468,"Delta":75401924},{"NoteNumber":76,"Velocity":62,"Duration":306936,"SoundDuration":306936,"Delta":75555393},{"NoteNumber":61,"Velocity":50,"Duration":153468,"SoundDuration":153468,"Delta":75555393},{"NoteNumber":69,"Velocity":47,"Duration":153468,"SoundDuration":153468,"Delta":75708861},{"NoteNumber":78,"Velocity":62,"Duration":75574,"SoundDuration":75574,"Delta":75862330},{"NoteNumber":62,"Velocity":57,"Duration":151148,"SoundDuration":151148,"Delta":75862330},{"NoteNumber":80,"Velocity":62,"Duration":75574,"SoundDuration":75574,"Delta":75937904},{"NoteNumber":78,"Velocity":69,"Duration":151148,"SoundDuration":151148,"Delta":76013478},{"NoteNumber":69,"Velocity":48,"Duration":151148,"SoundDuration":151148,"Delta":76013478},{"NoteNumber":76,"Velocity":63,"Duration":253468,"SoundDuration":253468,"Delta":76164627},{"NoteNumber":61,"Velocity":50,"Duration":194170,"SoundDuration":194170,"Delta":76164627},{"NoteNumber":69,"Velocity":47,"Duration":237191,"SoundDuration":237191,"Delta":76358797},{"NoteNumber":76,"Velocity":64,"Duration":798112,"SoundDuration":798112,"Delta":76418095},{"NoteNumber":80,"Velocity":69,"Duration":738814,"SoundDuration":738814,"Delta":76477393},{"NoteNumber":83,"Velocity":73,"Duration":679516,"SoundDuration":679516,"Delta":76536691},{"NoteNumber":86,"Velocity":77,"Duration":620219,"SoundDuration":620219,"Delta":76595989},{"NoteNumber":59,"Velocity":48,"Duration":620219,"SoundDuration":620219,"Delta":76595989},{"NoteNumber":68,"Velocity":57,"Duration":620219,"SoundDuration":620219,"Delta":76595989},{"NoteNumber":85,"Velocity":69,"Duration":310109,"SoundDuration":310109,"Delta":77526318},{"NoteNumber":83,"Velocity":64,"Duration":153468,"SoundDuration":153468,"Delta":77836427},{"NoteNumber":62,"Velocity":57,"Duration":316172,"SoundDuration":316172,"Delta":77836427},{"NoteNumber":66,"Velocity":57,"Duration":316172,"SoundDuration":316172,"Delta":77836427},{"NoteNumber":85,"Velocity":50,"Duration":38367,"SoundDuration":38367,"Delta":77989896},{"NoteNumber":83,"Velocity":55,"Duration":38367,"SoundDuration":38367,"Delta":78028263},{"NoteNumber":82,"Velocity":58,"Duration":42984,"SoundDuration":42984,"Delta":78066630},{"NoteNumber":83,"Velocity":60,"Duration":42984,"SoundDuration":42984,"Delta":78109615},{"NoteNumber":86,"Velocity":62,"Duration":316172,"SoundDuration":316172,"Delta":78152600},{"NoteNumber":76,"Velocity":62,"Duration":152703,"SoundDuration":152703,"Delta":78468772},{"NoteNumber":52,"Velocity":48,"Duration":316297,"SoundDuration":316297,"Delta":78468772},{"NoteNumber":64,"Velocity":57,"Duration":316297,"SoundDuration":316297,"Delta":78468772},{"NoteNumber":78,"Velocity":54,"Duration":38564,"SoundDuration":38564,"Delta":78621475},{"NoteNumber":76,"Velocity":55,"Duration":38564,"SoundDuration":38564,"Delta":78660040},{"NoteNumber":75,"Velocity":59,"Duration":43232,"SoundDuration":43232,"Delta":78698604},{"NoteNumber":76,"Velocity":59,"Duration":43232,"SoundDuration":43232,"Delta":78741837},{"NoteNumber":80,"Velocity":63,"Duration":316668,"SoundDuration":316668,"Delta":78785069},{"NoteNumber":74,"Velocity":60,"Duration":316668,"SoundDuration":316668,"Delta":78785069},{"NoteNumber":73,"Velocity":58,"Duration":620219,"SoundDuration":620219,"Delta":79101737},{"NoteNumber":81,"Velocity":69,"Duration":620219,"SoundDuration":620219,"Delta":79101737},{"NoteNumber":57,"Velocity":57,"Duration":155054,"SoundDuration":155054,"Delta":79101737},{"NoteNumber":69,"Velocity":47,"Duration":155054,"SoundDuration":155054,"Delta":79256792},{"NoteNumber":68,"Velocity":50,"Duration":155054,"SoundDuration":155054,"Delta":79411847},{"NoteNumber":69,"Velocity":47,"Duration":155054,"SoundDuration":155054,"Delta":79566902},{"NoteNumber":61,"Velocity":57,"Duration":155054,"SoundDuration":155054,"Delta":79721956},{"NoteNumber":69,"Velocity":48,"Duration":155054,"SoundDuration":155054,"Delta":79877011},{"NoteNumber":76,"Velocity":69,"Duration":310109,"SoundDuration":310109,"Delta":80032066},{"NoteNumber":68,"Velocity":50,"Duration":155054,"SoundDuration":155054,"Delta":80032066},{"NoteNumber":69,"Velocity":47,"Duration":155054,"SoundDuration":155054,"Delta":80187121},{"NoteNumber":78,"Velocity":64,"Duration":76734,"SoundDuration":76734,"Delta":80342175},{"NoteNumber":62,"Velocity":57,"Duration":153468,"SoundDuration":153468,"Delta":80342175},{"NoteNumber":80,"Velocity":59,"Duration":76734,"SoundDuration":76734,"Delta":80418910},{"NoteNumber":78,"Velocity":68,"Duration":153468,"SoundDuration":153468,"Delta":80495644},{"NoteNumber":69,"Velocity":47,"Duration":153468,"SoundDuration":153468,"Delta":80495644},{"NoteNumber":76,"Velocity":62,"Duration":306936,"SoundDuration":306936,"Delta":80649112},{"NoteNumber":61,"Velocity":50,"Duration":153468,"SoundDuration":153468,"Delta":80649112},{"NoteNumber":69,"Velocity":47,"Duration":153468,"SoundDuration":153468,"Delta":80802581},{"NoteNumber":78,"Velocity":62,"Duration":75574,"SoundDuration":75574,"Delta":80956049},{"NoteNumber":62,"Velocity":57,"Duration":151148,"SoundDuration":151148,"Delta":80956049},{"NoteNumber":80,"Velocity":62,"Duration":75574,"SoundDuration":75574,"Delta":81031624},{"NoteNumber":78,"Velocity":69,"Duration":151148,"SoundDuration":151148,"Delta":81107198},{"NoteNumber":69,"Velocity":48,"Duration":151148,"SoundDuration":151148,"Delta":81107198},{"NoteNumber":76,"Velocity":63,"Duration":253468,"SoundDuration":253468,"Delta":81258347},{"NoteNumber":61,"Velocity":50,"Duration":194170,"SoundDuration":194170,"Delta":81258347},{"NoteNumber":69,"Velocity":47,"Duration":237191,"SoundDuration":237191,"Delta":81452517},{"NoteNumber":76,"Velocity":64,"Duration":798112,"SoundDuration":798112,"Delta":81511815},{"NoteNumber":80,"Velocity":69,"Duration":738814,"SoundDuration":738814,"Delta":81571113},{"NoteNumber":83,"Velocity":73,"Duration":679516,"SoundDuration":679516,"Delta":81630411},{"NoteNumber":86,"Velocity":77,"Duration":620219,"SoundDuration":620219,"Delta":81689709},{"NoteNumber":59,"Velocity":48,"Duration":620219,"SoundDuration":620219,"Delta":81689709},{"NoteNumber":68,"Velocity":57,"Duration":620219,"SoundDuration":620219,"Delta":81689709},{"NoteNumber":85,"Velocity":69,"Duration":310109,"SoundDuration":310109,"Delta":82620037},{"NoteNumber":57,"Velocity":49,"Duration":310109,"SoundDuration":310109,"Delta":82620037},{"NoteNumber":69,"Velocity":58,"Duration":310109,"SoundDuration":310109,"Delta":82620037},{"NoteNumber":83,"Velocity":64,"Duration":153468,"SoundDuration":153468,"Delta":82930147},{"NoteNumber":62,"Velocity":48,"Duration":316172,"SoundDuration":316172,"Delta":82930147},{"NoteNumber":66,"Velocity":57,"Duration":316172,"SoundDuration":316172,"Delta":82930147},{"NoteNumber":85,"Velocity":50,"Duration":38367,"SoundDuration":38367,"Delta":83083615},{"NoteNumber":83,"Velocity":55,"Duration":38367,"SoundDuration":38367,"Delta":83121982},{"NoteNumber":82,"Velocity":58,"Duration":42984,"SoundDuration":42984,"Delta":83160350},{"NoteNumber":83,"Velocity":60,"Duration":42984,"SoundDuration":42984,"Delta":83203334},{"NoteNumber":86,"Velocity":62,"Duration":316172,"SoundDuration":316172,"Delta":83246319},{"NoteNumber":76,"Velocity":62,"Duration":152703,"SoundDuration":152703,"Delta":83562492},{"NoteNumber":64,"Velocity":39,"Duration":316297,"SoundDuration":316297,"Delta":83562492},{"NoteNumber":52,"Velocity":33,"Duration":316297,"SoundDuration":316297,"Delta":83562492},{"NoteNumber":78,"Velocity":54,"Duration":38564,"SoundDuration":38564,"Delta":83715195},{"NoteNumber":76,"Velocity":55,"Duration":38564,"SoundDuration":38564,"Delta":83753759},{"NoteNumber":75,"Velocity":59,"Duration":43232,"SoundDuration":43232,"Delta":83792324},{"NoteNumber":76,"Velocity":59,"Duration":43232,"SoundDuration":43232,"Delta":83835556},{"NoteNumber":80,"Velocity":63,"Duration":316668,"SoundDuration":316668,"Delta":83878789},{"NoteNumber":74,"Velocity":60,"Duration":316668,"SoundDuration":316668,"Delta":83878789},{"NoteNumber":73,"Velocity":58,"Duration":620219,"SoundDuration":620219,"Delta":84195457},{"NoteNumber":81,"Velocity":69,"Duration":620219,"SoundDuration":620219,"Delta":84195457},{"NoteNumber":45,"Velocity":38,"Duration":310109,"SoundDuration":310109,"Delta":84195457},{"NoteNumber":57,"Velocity":45,"Duration":310109,"SoundDuration":310109,"Delta":84195457},{"NoteNumber":62,"Velocity":41,"Duration":310109,"SoundDuration":310109,"Delta":84815676},{"NoteNumber":52,"Velocity":34,"Duration":310109,"SoundDuration":310109,"Delta":84815676},{"NoteNumber":64,"Velocity":57,"Duration":155054,"SoundDuration":155054,"Delta":84970731},{"NoteNumber":68,"Velocity":57,"Duration":155054,"SoundDuration":155054,"Delta":85125785},{"NoteNumber":76,"Velocity":50,"Duration":172930,"SoundDuration":172930,"Delta":85280840},{"NoteNumber":52,"Velocity":38,"Duration":308514,"SoundDuration":308514,"Delta":85453771},{"NoteNumber":61,"Velocity":45,"Duration":308514,"SoundDuration":308514,"Delta":85453771},{"NoteNumber":64,"Velocity":53,"Duration":154257,"SoundDuration":154257,"Delta":85608028},{"NoteNumber":69,"Velocity":57,"Duration":154257,"SoundDuration":154257,"Delta":85762286},{"NoteNumber":76,"Velocity":49,"Duration":179125,"SoundDuration":179125,"Delta":85916543},{"NoteNumber":59,"Velocity":39,"Duration":161990,"SoundDuration":161990,"Delta":86095669},{"NoteNumber":52,"Velocity":33,"Duration":348800,"SoundDuration":348800,"Delta":86095669},{"NoteNumber":59,"Velocity":39,"Duration":179766,"SoundDuration":179766,"Delta":86264702},{"NoteNumber":62,"Velocity":51,"Duration":190500,"SoundDuration":190500,"Delta":86444469},{"NoteNumber":68,"Velocity":42,"Duration":295624,"SoundDuration":295624,"Delta":86634970},{"NoteNumber":61,"Velocity":53,"Duration":905797,"SoundDuration":905797,"Delta":86930594},{"NoteNumber":69,"Velocity":53,"Duration":905797,"SoundDuration":905797,"Delta":86930594},{"NoteNumber":45,"Velocity":36,"Duration":905797,"SoundDuration":905797,"Delta":86930594},{"NoteNumber":57,"Velocity":43,"Duration":905797,"SoundDuration":905797,"Delta":86930594},{"NoteNumber":57,"Velocity":83,"Duration":71551,"SoundDuration":71551,"Delta":88289290},{"NoteNumber":62,"Velocity":66,"Duration":71551,"SoundDuration":71551,"Delta":88360841},{"NoteNumber":66,"Velocity":66,"Duration":72365,"SoundDuration":72365,"Delta":88432392},{"NoteNumber":69,"Velocity":66,"Duration":127898,"SoundDuration":127898,"Delta":88504758},{"NoteNumber":66,"Velocity":86,"Duration":296824,"SoundDuration":296824,"Delta":88632657},{"NoteNumber":50,"Velocity":75,"Duration":605085,"SoundDuration":605085,"Delta":88632657},{"NoteNumber":38,"Velocity":63,"Duration":605085,"SoundDuration":605085,"Delta":88632657},{"NoteNumber":62,"Velocity":77,"Duration":308261,"SoundDuration":308261,"Delta":88929481},{"NoteNumber":74,"Velocity":56,"Duration":74902,"SoundDuration":74902,"Delta":89237743},{"NoteNumber":69,"Velocity":52,"Duration":79753,"SoundDuration":79753,"Delta":89537353},{"NoteNumber":66,"Velocity":42,"Duration":79753,"SoundDuration":79753,"Delta":89537353},{"NoteNumber":62,"Velocity":36,"Duration":79753,"SoundDuration":79753,"Delta":89537353},{"NoteNumber":71,"Velocity":55,"Duration":66976,"SoundDuration":66976,"Delta":89856366},{"NoteNumber":67,"Velocity":48,"Duration":267904,"SoundDuration":267904,"Delta":89856366},{"NoteNumber":62,"Velocity":40,"Duration":267904,"SoundDuration":267904,"Delta":89856366},{"NoteNumber":73,"Velocity":49,"Duration":66976,"SoundDuration":66976,"Delta":89923342},{"NoteNumber":71,"Velocity":60,"Duration":133952,"SoundDuration":133952,"Delta":89990319},{"NoteNumber":69,"Velocity":56,"Duration":504456,"SoundDuration":504456,"Delta":90124271},{"NoteNumber":66,"Velocity":40,"Duration":504456,"SoundDuration":504456,"Delta":90124271},{"NoteNumber":62,"Velocity":34,"Duration":504456,"SoundDuration":504456,"Delta":90124271},{"NoteNumber":57,"Velocity":83,"Duration":71551,"SoundDuration":71551,"Delta":90914932},{"NoteNumber":62,"Velocity":66,"Duration":71551,"SoundDuration":71551,"Delta":90986483},{"NoteNumber":66,"Velocity":66,"Duration":71551,"SoundDuration":71551,"Delta":91058035},{"NoteNumber":69,"Velocity":66,"Duration":120695,"SoundDuration":120695,"Delta":91129586},{"NoteNumber":66,"Velocity":86,"Duration":294088,"SoundDuration":294088,"Delta":91250281},{"NoteNumber":50,"Velocity":75,"Duration":620140,"SoundDuration":620140,"Delta":91250281},{"NoteNumber":38,"Velocity":63,"Duration":620140,"SoundDuration":620140,"Delta":91250281},{"NoteNumber":62,"Velocity":77,"Duration":326051,"SoundDuration":326051,"Delta":91544370},{"NoteNumber":78,"Velocity":56,"Duration":75964,"SoundDuration":75964,"Delta":91870422},{"NoteNumber":81,"Velocity":64,"Duration":75964,"SoundDuration":75964,"Delta":91870422},{"NoteNumber":74,"Velocity":52,"Duration":75964,"SoundDuration":75964,"Delta":92174281},{"NoteNumber":78,"Velocity":60,"Duration":75964,"SoundDuration":75964,"Delta":92174281},{"NoteNumber":62,"Velocity":42,"Duration":75964,"SoundDuration":75964,"Delta":92174281},{"NoteNumber":76,"Velocity":46,"Duration":267904,"SoundDuration":267904,"Delta":92491895},{"NoteNumber":79,"Velocity":55,"Duration":66976,"SoundDuration":66976,"Delta":92491895},{"NoteNumber":57,"Velocity":48,"Duration":267904,"SoundDuration":267904,"Delta":92491895},{"NoteNumber":81,"Velocity":49,"Duration":66976,"SoundDuration":66976,"Delta":92558871},{"NoteNumber":79,"Velocity":60,"Duration":133952,"SoundDuration":133952,"Delta":92625848},{"NoteNumber":74,"Velocity":47,"Duration":512469,"SoundDuration":512469,"Delta":92759800},{"NoteNumber":78,"Velocity":56,"Duration":512469,"SoundDuration":512469,"Delta":92759800},{"NoteNumber":62,"Velocity":40,"Duration":512469,"SoundDuration":512469,"Delta":92759800},{"NoteNumber":74,"Velocity":60,"Duration":71873,"SoundDuration":71873,"Delta":93559764},{"NoteNumber":78,"Velocity":51,"Duration":71873,"SoundDuration":71873,"Delta":93631638},{"NoteNumber":81,"Velocity":52,"Duration":80068,"SoundDuration":80068,"Delta":93703511},{"NoteNumber":86,"Velocity":52,"Duration":80068,"SoundDuration":80068,"Delta":93783579},{"NoteNumber":72,"Velocity":67,"Duration":960820,"SoundDuration":960820,"Delta":93863648},{"NoteNumber":62,"Velocity":40,"Duration":80068,"SoundDuration":80068,"Delta":94183921},{"NoteNumber":54,"Velocity":40,"Duration":80068,"SoundDuration":80068,"Delta":94183921},{"NoteNumber":62,"Velocity":45,"Duration":80068,"SoundDuration":80068,"Delta":94504195},{"NoteNumber":54,"Velocity":45,"Duration":80068,"SoundDuration":80068,"Delta":94504195},{"NoteNumber":84,"Velocity":60,"Duration":72526,"SoundDuration":72526,"Delta":94824468},{"NoteNumber":81,"Velocity":51,"Duration":72857,"SoundDuration":72857,"Delta":94896995},{"NoteNumber":78,"Velocity":52,"Duration":73184,"SoundDuration":73184,"Delta":94969853},{"NoteNumber":72,"Velocity":52,"Duration":91608,"SoundDuration":91608,"Delta":95043038},{"NoteNumber":71,"Velocity":67,"Duration":957038,"SoundDuration":957038,"Delta":95134647},{"NoteNumber":62,"Velocity":40,"Duration":79753,"SoundDuration":79753,"Delta":95453660},{"NoteNumber":55,"Velocity":40,"Duration":79753,"SoundDuration":79753,"Delta":95453660},{"NoteNumber":62,"Velocity":45,"Duration":79753,"SoundDuration":79753,"Delta":95772673},{"NoteNumber":55,"Velocity":45,"Duration":79753,"SoundDuration":79753,"Delta":95772673},{"NoteNumber":71,"Velocity":60,"Duration":72526,"SoundDuration":72526,"Delta":96091686},{"NoteNumber":74,"Velocity":51,"Duration":72526,"SoundDuration":72526,"Delta":96164213},{"NoteNumber":79,"Velocity":52,"Duration":73184,"SoundDuration":73184,"Delta":96236740},{"NoteNumber":83,"Velocity":52,"Duration":86655,"SoundDuration":86655,"Delta":96309925},{"NoteNumber":78,"Velocity":54,"Duration":75964,"SoundDuration":75964,"Delta":96396580},{"NoteNumber":81,"Velocity":64,"Duration":75964,"SoundDuration":75964,"Delta":96396580},{"NoteNumber":57,"Velocity":46,"Duration":622872,"SoundDuration":622872,"Delta":96396580},{"NoteNumber":74,"Velocity":44,"Duration":79753,"SoundDuration":79753,"Delta":96700439},{"NoteNumber":78,"Velocity":53,"Duration":79753,"SoundDuration":79753,"Delta":96700439},{"NoteNumber":79,"Velocity":59,"Duration":76695,"SoundDuration":76695,"Delta":97019452},{"NoteNumber":76,"Velocity":49,"Duration":76695,"SoundDuration":76695,"Delta":97019452},{"NoteNumber":45,"Velocity":40,"Duration":677470,"SoundDuration":677470,"Delta":97019452},{"NoteNumber":73,"Velocity":44,"Duration":92672,"SoundDuration":92672,"Delta":97326232},{"NoteNumber":76,"Velocity":44,"Duration":92672,"SoundDuration":92672,"Delta":97326232},{"NoteNumber":76,"Velocity":50,"Duration":674992,"SoundDuration":674992,"Delta":97696922},{"NoteNumber":73,"Velocity":42,"Duration":674992,"SoundDuration":674992,"Delta":97696922},{"NoteNumber":50,"Velocity":36,"Duration":674992,"SoundDuration":674992,"Delta":97696922},{"NoteNumber":78,"Velocity":40,"Duration":408552,"SoundDuration":408552,"Delta":98371914},{"NoteNumber":74,"Velocity":33,"Duration":408552,"SoundDuration":408552,"Delta":98371914},{"NoteNumber":38,"Velocity":32,"Duration":408552,"SoundDuration":408552,"Delta":98371914},{"NoteNumber":74,"Velocity":60,"Duration":74154,"SoundDuration":74154,"Delta":98780467},{"NoteNumber":78,"Velocity":51,"Duration":74154,"SoundDuration":74154,"Delta":98854621},{"NoteNumber":81,"Velocity":52,"Duration":74154,"SoundDuration":74154,"Delta":98928776},{"NoteNumber":86,"Velocity":52,"Duration":96599,"SoundDuration":96599,"Delta":99002931},{"NoteNumber":72,"Velocity":67,"Duration":956023,"SoundDuration":956023,"Delta":99099530},{"NoteNumber":62,"Velocity":40,"Duration":79668,"SoundDuration":79668,"Delta":99418205},{"NoteNumber":54,"Velocity":40,"Duration":79668,"SoundDuration":79668,"Delta":99418205},{"NoteNumber":62,"Velocity":45,"Duration":79668,"SoundDuration":79668,"Delta":99736879},{"NoteNumber":54,"Velocity":45,"Duration":79668,"SoundDuration":79668,"Delta":99736879},{"NoteNumber":84,"Velocity":60,"Duration":72526,"SoundDuration":72526,"Delta":100055554},{"NoteNumber":81,"Velocity":51,"Duration":72857,"SoundDuration":72857,"Delta":100128081},{"NoteNumber":78,"Velocity":52,"Duration":73184,"SoundDuration":73184,"Delta":100200939},{"NoteNumber":72,"Velocity":52,"Duration":91608,"SoundDuration":91608,"Delta":100274124},{"NoteNumber":71,"Velocity":67,"Duration":957038,"SoundDuration":957038,"Delta":100365732},{"NoteNumber":62,"Velocity":40,"Duration":79753,"SoundDuration":79753,"Delta":100684745},{"NoteNumber":55,"Velocity":40,"Duration":79753,"SoundDuration":79753,"Delta":100684745},{"NoteNumber":62,"Velocity":45,"Duration":79753,"SoundDuration":79753,"Delta":101003758},{"NoteNumber":55,"Velocity":45,"Duration":79753,"SoundDuration":79753,"Delta":101003758},{"NoteNumber":83,"Velocity":60,"Duration":106337,"SoundDuration":106337,"Delta":101322771},{"NoteNumber":85,"Velocity":56,"Duration":106337,"SoundDuration":106337,"Delta":101429109},{"NoteNumber":86,"Velocity":56,"Duration":106337,"SoundDuration":106337,"Delta":101535447},{"NoteNumber":85,"Velocity":60,"Duration":103479,"SoundDuration":103479,"Delta":101641784},{"NoteNumber":57,"Velocity":48,"Duration":309286,"SoundDuration":309286,"Delta":101641784},{"NoteNumber":83,"Velocity":55,"Duration":102753,"SoundDuration":102753,"Delta":101745264},{"NoteNumber":81,"Velocity":51,"Duration":103053,"SoundDuration":103053,"Delta":101848018},{"NoteNumber":79,"Velocity":59,"Duration":103252,"SoundDuration":103252,"Delta":101951071},{"NoteNumber":78,"Velocity":51,"Duration":103585,"SoundDuration":103585,"Delta":102054323},{"NoteNumber":76,"Velocity":51,"Duration":103745,"SoundDuration":103745,"Delta":102157908},{"NoteNumber":74,"Velocity":55,"Duration":104132,"SoundDuration":104132,"Delta":102261653},{"NoteNumber":45,"Velocity":39,"Duration":312639,"SoundDuration":312639,"Delta":102261653},{"NoteNumber":73,"Velocity":49,"Duration":104253,"SoundDuration":104253,"Delta":102365786},{"NoteNumber":71,"Velocity":49,"Duration":104253,"SoundDuration":104253,"Delta":102470040},{"NoteNumber":69,"Velocity":52,"Duration":78190,"SoundDuration":78190,"Delta":102574293},{"NoteNumber":67,"Velocity":49,"Duration":79493,"SoundDuration":79493,"Delta":102652483},{"NoteNumber":66,"Velocity":49,"Duration":82432,"SoundDuration":82432,"Delta":102731977},{"NoteNumber":64,"Velocity":48,"Duration":85621,"SoundDuration":85621,"Delta":102814410},{"NoteNumber":62,"Velocity":60,"Duration":704722,"SoundDuration":704722,"Delta":102900032},{"NoteNumber":38,"Velocity":48,"Duration":704722,"SoundDuration":704722,"Delta":102900032},{"NoteNumber":57,"Velocity":53,"Duration":320375,"SoundDuration":320375,"Delta":103957115},{"NoteNumber":62,"Velocity":60,"Duration":152068,"SoundDuration":152068,"Delta":104277491},{"NoteNumber":61,"Velocity":52,"Duration":125501,"SoundDuration":125501,"Delta":104429559},{"NoteNumber":64,"Velocity":60,"Duration":149045,"SoundDuration":149045,"Delta":104596895},{"NoteNumber":62,"Velocity":54,"Duration":124805,"SoundDuration":124805,"Delta":104745941},{"NoteNumber":66,"Velocity":60,"Duration":147579,"SoundDuration":147579,"Delta":104912349},{"NoteNumber":64,"Velocity":54,"Duration":123436,"SoundDuration":123436,"Delta":105059928},{"NoteNumber":67,"Velocity":60,"Duration":155215,"SoundDuration":155215,"Delta":105224510},{"NoteNumber":66,"Velocity":49,"Duration":141260,"SoundDuration":141260,"Delta":105379726},{"NoteNumber":66,"Velocity":57,"Duration":721673,"SoundDuration":721673,"Delta":105568073},{"NoteNumber":62,"Velocity":48,"Duration":721673,"SoundDuration":721673,"Delta":105568073},{"NoteNumber":56,"Velocity":43,"Duration":360836,"SoundDuration":360836,"Delta":105928910},{"NoteNumber":64,"Velocity":50,"Duration":252411,"SoundDuration":252411,"Delta":106289747},{"NoteNumber":61,"Velocity":42,"Duration":252411,"SoundDuration":252411,"Delta":106289747},{"NoteNumber":57,"Velocity":48,"Duration":252411,"SoundDuration":252411,"Delta":106289747},{"NoteNumber":57,"Velocity":53,"Duration":320375,"SoundDuration":320375,"Delta":106626296},{"NoteNumber":64,"Velocity":60,"Duration":149045,"SoundDuration":149045,"Delta":106946672},{"NoteNumber":63,"Velocity":52,"Duration":125501,"SoundDuration":125501,"Delta":107095718},{"NoteNumber":66,"Velocity":60,"Duration":149790,"SoundDuration":149790,"Delta":107263054},{"NoteNumber":64,"Velocity":54,"Duration":124805,"SoundDuration":124805,"Delta":107412844},{"NoteNumber":67,"Velocity":60,"Duration":149790,"SoundDuration":149790,"Delta":107579252},{"NoteNumber":66,"Velocity":54,"Duration":123436,"SoundDuration":123436,"Delta":107729042},{"NoteNumber":69,"Velocity":60,"Duration":151301,"SoundDuration":151301,"Delta":107893624},{"NoteNumber":67,"Velocity":49,"Duration":141260,"SoundDuration":141260,"Delta":108044926},{"NoteNumber":67,"Velocity":57,"Duration":672343,"SoundDuration":672343,"Delta":108233273},{"NoteNumber":64,"Velocity":48,"Duration":672343,"SoundDuration":672343,"Delta":108233273},{"NoteNumber":49,"Velocity":43,"Duration":336171,"SoundDuration":336171,"Delta":108569445},{"NoteNumber":66,"Velocity":50,"Duration":252129,"SoundDuration":252129,"Delta":108905617},{"NoteNumber":62,"Velocity":42,"Duration":252129,"SoundDuration":252129,"Delta":108905617},{"NoteNumber":50,"Velocity":48,"Duration":252129,"SoundDuration":252129,"Delta":108905617},{"NoteNumber":62,"Velocity":58,"Duration":320375,"SoundDuration":320375,"Delta":109241789},{"NoteNumber":67,"Velocity":66,"Duration":152068,"SoundDuration":152068,"Delta":109562165},{"NoteNumber":66,"Velocity":57,"Duration":125501,"SoundDuration":125501,"Delta":109714233},{"NoteNumber":69,"Velocity":66,"Duration":150542,"SoundDuration":150542,"Delta":109881569},{"NoteNumber":67,"Velocity":59,"Duration":124805,"SoundDuration":124805,"Delta":110032111},{"NoteNumber":71,"Velocity":66,"Duration":150542,"SoundDuration":150542,"Delta":110198519},{"NoteNumber":69,"Velocity":59,"Duration":123436,"SoundDuration":123436,"Delta":110349061},{"NoteNumber":74,"Velocity":66,"Duration":158495,"SoundDuration":158495,"Delta":110513643},{"NoteNumber":73,"Velocity":53,"Duration":141260,"SoundDuration":141260,"Delta":110672138},{"NoteNumber":71,"Velocity":62,"Duration":157662,"SoundDuration":157662,"Delta":110860486},{"NoteNumber":55,"Velocity":52,"Duration":157662,"SoundDuration":157662,"Delta":110860486},{"NoteNumber":62,"Velocity":45,"Duration":151301,"SoundDuration":151301,"Delta":111018148},{"NoteNumber":71,"Velocity":62,"Duration":149790,"SoundDuration":149790,"Delta":111169450},{"NoteNumber":55,"Velocity":54,"Duration":149790,"SoundDuration":149790,"Delta":111169450},{"NoteNumber":74,"Velocity":57,"Duration":177221,"SoundDuration":177221,"Delta":111319240},{"NoteNumber":62,"Velocity":39,"Duration":177221,"SoundDuration":177221,"Delta":111319240},{"NoteNumber":69,"Velocity":62,"Duration":153625,"SoundDuration":153625,"Delta":111496461},{"NoteNumber":54,"Velocity":49,"Duration":153625,"SoundDuration":153625,"Delta":111496461},{"NoteNumber":62,"Velocity":38,"Duration":153625,"SoundDuration":153625,"Delta":111650087},{"NoteNumber":54,"Velocity":49,"Duration":153625,"SoundDuration":153625,"Delta":111803712},{"NoteNumber":62,"Velocity":43,"Duration":167336,"SoundDuration":167336,"Delta":111957338},{"NoteNumber":67,"Velocity":55,"Duration":40047,"SoundDuration":40047,"Delta":112124674},{"NoteNumber":59,"Velocity":52,"Duration":160188,"SoundDuration":160188,"Delta":112124674},{"NoteNumber":66,"Velocity":48,"Duration":40047,"SoundDuration":40047,"Delta":112164721},{"NoteNumber":67,"Velocity":62,"Duration":80094,"SoundDuration":80094,"Delta":112204768},{"NoteNumber":62,"Velocity":45,"Duration":151301,"SoundDuration":151301,"Delta":112284862},{"NoteNumber":67,"Velocity":62,"Duration":153625,"SoundDuration":153625,"Delta":112436163},{"NoteNumber":59,"Velocity":54,"Duration":153625,"SoundDuration":153625,"Delta":112436163},{"NoteNumber":71,"Velocity":57,"Duration":177221,"SoundDuration":177221,"Delta":112589788},{"NoteNumber":62,"Velocity":39,"Duration":177221,"SoundDuration":177221,"Delta":112589788},{"NoteNumber":66,"Velocity":62,"Duration":154416,"SoundDuration":154416,"Delta":112767010},{"NoteNumber":57,"Velocity":49,"Duration":154416,"SoundDuration":154416,"Delta":112767010},{"NoteNumber":62,"Velocity":38,"Duration":154416,"SoundDuration":154416,"Delta":112921426},{"NoteNumber":57,"Velocity":49,"Duration":154416,"SoundDuration":154416,"Delta":113075842},{"NoteNumber":62,"Velocity":43,"Duration":169223,"SoundDuration":169223,"Delta":113230258},{"NoteNumber":71,"Velocity":60,"Duration":39834,"SoundDuration":39834,"Delta":113399482},{"NoteNumber":55,"Velocity":52,"Duration":159337,"SoundDuration":159337,"Delta":113399482},{"NoteNumber":69,"Velocity":52,"Duration":39834,"SoundDuration":39834,"Delta":113439316},{"NoteNumber":71,"Velocity":68,"Duration":79668,"SoundDuration":79668,"Delta":113479151},{"NoteNumber":62,"Velocity":45,"Duration":151301,"SoundDuration":151301,"Delta":113558819},{"NoteNumber":71,"Velocity":68,"Duration":151301,"SoundDuration":151301,"Delta":113710121},{"NoteNumber":55,"Velocity":54,"Duration":151301,"SoundDuration":151301,"Delta":113710121},{"NoteNumber":74,"Velocity":62,"Duration":177221,"SoundDuration":177221,"Delta":113861422},{"NoteNumber":62,"Velocity":39,"Duration":177221,"SoundDuration":177221,"Delta":113861422},{"NoteNumber":69,"Velocity":68,"Duration":152843,"SoundDuration":152843,"Delta":114038643},{"NoteNumber":54,"Velocity":49,"Duration":152843,"SoundDuration":152843,"Delta":114038643},{"NoteNumber":62,"Velocity":38,"Duration":152842,"SoundDuration":152842,"Delta":114191486},{"NoteNumber":54,"Velocity":49,"Duration":152843,"SoundDuration":152843,"Delta":114344329},{"NoteNumber":62,"Velocity":43,"Duration":169223,"SoundDuration":169223,"Delta":114497172},{"NoteNumber":67,"Velocity":55,"Duration":40047,"SoundDuration":40047,"Delta":114666396},{"NoteNumber":59,"Velocity":52,"Duration":160188,"SoundDuration":160188,"Delta":114666396},{"NoteNumber":66,"Velocity":48,"Duration":40047,"SoundDuration":40047,"Delta":114706443},{"NoteNumber":67,"Velocity":62,"Duration":80094,"SoundDuration":80094,"Delta":114746490},{"NoteNumber":62,"Velocity":45,"Duration":152068,"SoundDuration":152068,"Delta":114826584},{"NoteNumber":67,"Velocity":62,"Duration":152068,"SoundDuration":152068,"Delta":114978652},{"NoteNumber":59,"Velocity":54,"Duration":152068,"SoundDuration":152068,"Delta":114978652},{"NoteNumber":71,"Velocity":57,"Duration":178274,"SoundDuration":178274,"Delta":115130720},{"NoteNumber":62,"Velocity":39,"Duration":178274,"SoundDuration":178274,"Delta":115130720},{"NoteNumber":66,"Velocity":62,"Duration":156022,"SoundDuration":156022,"Delta":115308995},{"NoteNumber":57,"Velocity":49,"Duration":156022,"SoundDuration":156022,"Delta":115308995},{"NoteNumber":62,"Velocity":38,"Duration":156022,"SoundDuration":156022,"Delta":115465017},{"NoteNumber":57,"Velocity":49,"Duration":156022,"SoundDuration":156022,"Delta":115621040},{"NoteNumber":62,"Velocity":43,"Duration":184482,"SoundDuration":184482,"Delta":115777062},{"NoteNumber":63,"Velocity":55,"Duration":169353,"SoundDuration":169353,"Delta":115961545},{"NoteNumber":55,"Velocity":52,"Duration":665790,"SoundDuration":665790,"Delta":115961545},{"NoteNumber":64,"Velocity":55,"Duration":167385,"SoundDuration":167385,"Delta":116130899},{"NoteNumber":66,"Velocity":58,"Duration":165461,"SoundDuration":165461,"Delta":116298284},{"NoteNumber":67,"Velocity":58,"Duration":163589,"SoundDuration":163589,"Delta":116463746},{"NoteNumber":69,"Velocity":62,"Duration":161757,"SoundDuration":161757,"Delta":116627336},{"NoteNumber":71,"Velocity":55,"Duration":162506,"SoundDuration":162506,"Delta":116789093},{"NoteNumber":67,"Velocity":61,"Duration":163684,"SoundDuration":163684,"Delta":116951600},{"NoteNumber":55,"Velocity":40,"Duration":383819,"SoundDuration":383819,"Delta":116951600},{"NoteNumber":43,"Velocity":34,"Duration":383819,"SoundDuration":383819,"Delta":116951600},{"NoteNumber":64,"Velocity":51,"Duration":220134,"SoundDuration":220134,"Delta":117115284},{"NoteNumber":62,"Velocity":57,"Duration":1274698,"SoundDuration":1274698,"Delta":117335419},{"NoteNumber":54,"Velocity":48,"Duration":1274698,"SoundDuration":1274698,"Delta":117335419},{"NoteNumber":45,"Velocity":40,"Duration":1593372,"SoundDuration":1593372,"Delta":117335419},{"NoteNumber":61,"Velocity":50,"Duration":318674,"SoundDuration":318674,"Delta":118610117},{"NoteNumber":52,"Velocity":45,"Duration":318674,"SoundDuration":318674,"Delta":118610117},{"NoteNumber":64,"Velocity":83,"Duration":71551,"SoundDuration":71551,"Delta":119566140},{"NoteNumber":69,"Velocity":66,"Duration":71551,"SoundDuration":71551,"Delta":119637691},{"NoteNumber":73,"Velocity":66,"Duration":72365,"SoundDuration":72365,"Delta":119709243},{"NoteNumber":76,"Velocity":66,"Duration":127898,"SoundDuration":127898,"Delta":119781609},{"NoteNumber":73,"Velocity":86,"Duration":315325,"SoundDuration":315325,"Delta":119909508},{"NoteNumber":45,"Velocity":63,"Duration":315325,"SoundDuration":315325,"Delta":119909508},{"NoteNumber":49,"Velocity":63,"Duration":315325,"SoundDuration":315325,"Delta":119909508},{"NoteNumber":57,"Velocity":75,"Duration":315325,"SoundDuration":315325,"Delta":119909508},{"NoteNumber":52,"Velocity":63,"Duration":315325,"SoundDuration":315325,"Delta":119909508},{"NoteNumber":69,"Velocity":83,"Duration":71551,"SoundDuration":71551,"Delta":120224833},{"NoteNumber":73,"Velocity":66,"Duration":71551,"SoundDuration":71551,"Delta":120296384},{"NoteNumber":76,"Velocity":66,"Duration":72365,"SoundDuration":72365,"Delta":120367935},{"NoteNumber":81,"Velocity":66,"Duration":127898,"SoundDuration":127898,"Delta":120440301},{"NoteNumber":76,"Velocity":86,"Duration":313676,"SoundDuration":313676,"Delta":120568200},{"NoteNumber":45,"Velocity":63,"Duration":313676,"SoundDuration":313676,"Delta":120568200},{"NoteNumber":49,"Velocity":63,"Duration":313676,"SoundDuration":313676,"Delta":120568200},{"NoteNumber":57,"Velocity":75,"Duration":313676,"SoundDuration":313676,"Delta":120568200},{"NoteNumber":52,"Velocity":63,"Duration":313676,"SoundDuration":313676,"Delta":120568200},{"NoteNumber":76,"Velocity":95,"Duration":71551,"SoundDuration":71551,"Delta":120881876},{"NoteNumber":81,"Velocity":75,"Duration":71551,"SoundDuration":71551,"Delta":120953428},{"NoteNumber":85,"Velocity":75,"Duration":72365,"SoundDuration":72365,"Delta":121024979},{"NoteNumber":88,"Velocity":75,"Duration":127898,"SoundDuration":127898,"Delta":121097345},{"NoteNumber":85,"Velocity":102,"Duration":313676,"SoundDuration":313676,"Delta":121225244},{"NoteNumber":45,"Velocity":63,"Duration":313676,"SoundDuration":313676,"Delta":121225244},{"NoteNumber":49,"Velocity":63,"Duration":313676,"SoundDuration":313676,"Delta":121225244},{"NoteNumber":57,"Velocity":75,"Duration":313676,"SoundDuration":313676,"Delta":121225244},{"NoteNumber":52,"Velocity":63,"Duration":313676,"SoundDuration":313676,"Delta":121225244},{"NoteNumber":69,"Velocity":61,"Duration":71551,"SoundDuration":71551,"Delta":122150689},{"NoteNumber":64,"Velocity":50,"Duration":71551,"SoundDuration":71551,"Delta":122222240},{"NoteNumber":61,"Velocity":50,"Duration":72365,"SoundDuration":72365,"Delta":122293791},{"NoteNumber":57,"Velocity":50,"Duration":127898,"SoundDuration":127898,"Delta":122366157},{"NoteNumber":55,"Velocity":62,"Duration":1251880,"SoundDuration":1251880,"Delta":122494056},{"NoteNumber":45,"Velocity":46,"Duration":160188,"SoundDuration":160188,"Delta":122494056},{"NoteNumber":52,"Velocity":38,"Duration":155215,"SoundDuration":155215,"Delta":122654244},{"NoteNumber":50,"Velocity":46,"Duration":155215,"SoundDuration":155215,"Delta":122809459},{"NoteNumber":52,"Velocity":39,"Duration":159337,"SoundDuration":159337,"Delta":122964675},{"NoteNumber":49,"Velocity":47,"Duration":153625,"SoundDuration":153625,"Delta":123124012},{"NoteNumber":52,"Velocity":38,"Duration":153625,"SoundDuration":153625,"Delta":123277637},{"NoteNumber":45,"Velocity":49,"Duration":153625,"SoundDuration":153625,"Delta":123431263},{"NoteNumber":49,"Velocity":41,"Duration":161047,"SoundDuration":161047,"Delta":123584888},{"NoteNumber":54,"Velocity":61,"Duration":162795,"SoundDuration":162795,"Delta":123745936},{"NoteNumber":50,"Velocity":46,"Duration":627676,"SoundDuration":627676,"Delta":123745936},{"NoteNumber":59,"Velocity":55,"Duration":156674,"SoundDuration":156674,"Delta":123908732},{"NoteNumber":58,"Velocity":49,"Duration":154257,"SoundDuration":154257,"Delta":124065406},{"NoteNumber":59,"Velocity":54,"Duration":153948,"SoundDuration":153948,"Delta":124219664},{"NoteNumber":61,"Velocity":59,"Duration":155860,"SoundDuration":155860,"Delta":124373613},{"NoteNumber":59,"Velocity":55,"Duration":155860,"SoundDuration":155860,"Delta":124529473},{"NoteNumber":58,"Velocity":47,"Duration":155860,"SoundDuration":155860,"Delta":124685333},{"NoteNumber":59,"Velocity":56,"Duration":160188,"SoundDuration":160188,"Delta":124841194},{"NoteNumber":57,"Velocity":62,"Duration":1270180,"SoundDuration":1270180,"Delta":125001382},{"NoteNumber":51,"Velocity":46,"Duration":165307,"SoundDuration":165307,"Delta":125001382},{"NoteNumber":54,"Velocity":38,"Duration":157496,"SoundDuration":157496,"Delta":125166689},{"NoteNumber":52,"Velocity":46,"Duration":157496,"SoundDuration":157496,"Delta":125324186},{"NoteNumber":54,"Velocity":39,"Duration":162619,"SoundDuration":162619,"Delta":125481683},{"NoteNumber":51,"Velocity":47,"Duration":154656,"SoundDuration":154656,"Delta":125644302},{"NoteNumber":54,"Velocity":38,"Duration":155054,"SoundDuration":155054,"Delta":125798958},{"NoteNumber":47,"Velocity":49,"Duration":155054,"SoundDuration":155054,"Delta":125954013},{"NoteNumber":51,"Velocity":41,"Duration":162494,"SoundDuration":162494,"Delta":126109067},{"NoteNumber":56,"Velocity":61,"Duration":158495,"SoundDuration":158495,"Delta":126271562},{"NoteNumber":52,"Velocity":46,"Duration":626723,"SoundDuration":626723,"Delta":126271562},{"NoteNumber":64,"Velocity":55,"Duration":153468,"SoundDuration":153468,"Delta":126430057},{"NoteNumber":63,"Velocity":49,"Duration":152843,"SoundDuration":152843,"Delta":126583526},{"NoteNumber":64,"Velocity":54,"Duration":161917,"SoundDuration":161917,"Delta":126736369},{"NoteNumber":66,"Velocity":59,"Duration":152843,"SoundDuration":152843,"Delta":126898286},{"NoteNumber":64,"Velocity":55,"Duration":152842,"SoundDuration":152842,"Delta":127051129},{"NoteNumber":63,"Velocity":47,"Duration":152843,"SoundDuration":152843,"Delta":127203972},{"NoteNumber":64,"Velocity":56,"Duration":160188,"SoundDuration":160188,"Delta":127356815},{"NoteNumber":63,"Velocity":62,"Duration":308963,"SoundDuration":308963,"Delta":127517003},{"NoteNumber":54,"Velocity":52,"Duration":157662,"SoundDuration":157662,"Delta":127517003},{"NoteNumber":60,"Velocity":45,"Duration":151301,"SoundDuration":151301,"Delta":127674665},{"NoteNumber":69,"Velocity":57,"Duration":149790,"SoundDuration":149790,"Delta":127825966},{"NoteNumber":54,"Velocity":54,"Duration":149790,"SoundDuration":149790,"Delta":127825966},{"NoteNumber":60,"Velocity":39,"Duration":177221,"SoundDuration":177221,"Delta":127975757},{"NoteNumber":54,"Velocity":43,"Duration":153625,"SoundDuration":153625,"Delta":128152978},{"NoteNumber":60,"Velocity":36,"Duration":153625,"SoundDuration":153625,"Delta":128306603},{"NoteNumber":63,"Velocity":62,"Duration":320961,"SoundDuration":320961,"Delta":128460229},{"NoteNumber":54,"Velocity":45,"Duration":153625,"SoundDuration":153625,"Delta":128460229},{"NoteNumber":60,"Velocity":37,"Duration":167336,"SoundDuration":167336,"Delta":128613854},{"NoteNumber":64,"Velocity":62,"Duration":157662,"SoundDuration":157662,"Delta":128781190},{"NoteNumber":56,"Velocity":52,"Duration":157662,"SoundDuration":157662,"Delta":128781190},{"NoteNumber":59,"Velocity":45,"Duration":151301,"SoundDuration":151301,"Delta":128938853},{"NoteNumber":64,"Velocity":62,"Duration":144036,"SoundDuration":144036,"Delta":129090154},{"NoteNumber":56,"Velocity":54,"Duration":144036,"SoundDuration":144036,"Delta":129090154},{"NoteNumber":71,"Velocity":57,"Duration":161047,"SoundDuration":161047,"Delta":129234191},{"NoteNumber":59,"Velocity":39,"Duration":161047,"SoundDuration":161047,"Delta":129234191},{"NoteNumber":64,"Velocity":62,"Duration":230438,"SoundDuration":230438,"Delta":129395239},{"NoteNumber":56,"Velocity":49,"Duration":153625,"SoundDuration":153625,"Delta":129395239},{"NoteNumber":59,"Velocity":38,"Duration":153625,"SoundDuration":153625,"Delta":129548864},{"NoteNumber":64,"Velocity":57,"Duration":320961,"SoundDuration":320961,"Delta":129702490},{"NoteNumber":56,"Velocity":49,"Duration":153625,"SoundDuration":153625,"Delta":129702490},{"NoteNumber":59,"Velocity":43,"Duration":167336,"SoundDuration":167336,"Delta":129856115},{"NoteNumber":63,"Velocity":62,"Duration":308963,"SoundDuration":308963,"Delta":130023451},{"NoteNumber":54,"Velocity":52,"Duration":157662,"SoundDuration":157662,"Delta":130023451},{"NoteNumber":60,"Velocity":45,"Duration":151301,"SoundDuration":151301,"Delta":130181114},{"NoteNumber":69,"Velocity":57,"Duration":149790,"SoundDuration":149790,"Delta":130332415},{"NoteNumber":54,"Velocity":54,"Duration":149790,"SoundDuration":149790,"Delta":130332415},{"NoteNumber":60,"Velocity":39,"Duration":160188,"SoundDuration":160188,"Delta":130482205},{"NoteNumber":54,"Velocity":42,"Duration":151499,"SoundDuration":151499,"Delta":130642393},{"NoteNumber":60,"Velocity":37,"Duration":151499,"SoundDuration":151499,"Delta":130793893},{"NoteNumber":63,"Velocity":62,"Duration":318835,"SoundDuration":318835,"Delta":130945393},{"NoteNumber":54,"Velocity":45,"Duration":151499,"SoundDuration":151499,"Delta":130945393},{"NoteNumber":60,"Velocity":38,"Duration":167336,"SoundDuration":167336,"Delta":131096893},{"NoteNumber":64,"Velocity":62,"Duration":157662,"SoundDuration":157662,"Delta":131264229},{"NoteNumber":56,"Velocity":52,"Duration":157662,"SoundDuration":157662,"Delta":131264229},{"NoteNumber":59,"Velocity":45,"Duration":151301,"SoundDuration":151301,"Delta":131421891},{"NoteNumber":64,"Velocity":62,"Duration":143348,"SoundDuration":143348,"Delta":131573192},{"NoteNumber":56,"Velocity":54,"Duration":143348,"SoundDuration":143348,"Delta":131573192},{"NoteNumber":71,"Velocity":57,"Duration":160188,"SoundDuration":160188,"Delta":131716541},{"NoteNumber":59,"Velocity":39,"Duration":160188,"SoundDuration":160188,"Delta":131716541},{"NoteNumber":64,"Velocity":62,"Duration":230438,"SoundDuration":230438,"Delta":131876729},{"NoteNumber":56,"Velocity":49,"Duration":153625,"SoundDuration":153625,"Delta":131876729},{"NoteNumber":59,"Velocity":38,"Duration":153625,"SoundDuration":153625,"Delta":132030354},{"NoteNumber":62,"Velocity":47,"Duration":38406,"SoundDuration":38406,"Delta":132183980},{"NoteNumber":56,"Velocity":49,"Duration":153625,"SoundDuration":153625,"Delta":132183980},{"NoteNumber":64,"Velocity":44,"Duration":38406,"SoundDuration":38406,"Delta":132222386},{"NoteNumber":62,"Velocity":57,"Duration":244148,"SoundDuration":244148,"Delta":132260793},{"NoteNumber":59,"Velocity":43,"Duration":167336,"SoundDuration":167336,"Delta":132337605},{"NoteNumber":61,"Velocity":62,"Duration":147982,"SoundDuration":147982,"Delta":132504941},{"NoteNumber":57,"Velocity":52,"Duration":154416,"SoundDuration":154416,"Delta":132504941},{"NoteNumber":61,"Velocity":45,"Duration":151301,"SoundDuration":151301,"Delta":132659358},{"NoteNumber":76,"Velocity":64,"Duration":149790,"SoundDuration":149790,"Delta":132810659},{"NoteNumber":57,"Velocity":54,"Duration":149790,"SoundDuration":149790,"Delta":132810659},{"NoteNumber":61,"Velocity":39,"Duration":161047,"SoundDuration":161047,"Delta":132960449},{"NoteNumber":57,"Velocity":46,"Duration":152268,"SoundDuration":152268,"Delta":133121497},{"NoteNumber":61,"Velocity":38,"Duration":152268,"SoundDuration":152268,"Delta":133273766},{"NoteNumber":69,"Velocity":62,"Duration":314185,"SoundDuration":314185,"Delta":133426035},{"NoteNumber":57,"Velocity":46,"Duration":152268,"SoundDuration":152268,"Delta":133426035},{"NoteNumber":61,"Velocity":39,"Duration":161916,"SoundDuration":161916,"Delta":133578303},{"NoteNumber":68,"Velocity":62,"Duration":157662,"SoundDuration":157662,"Delta":133740220},{"NoteNumber":59,"Velocity":52,"Duration":157662,"SoundDuration":157662,"Delta":133740220},{"NoteNumber":62,"Velocity":45,"Duration":151301,"SoundDuration":151301,"Delta":133897883},{"NoteNumber":68,"Velocity":62,"Duration":142666,"SoundDuration":142666,"Delta":134049184},{"NoteNumber":59,"Velocity":54,"Duration":142666,"SoundDuration":142666,"Delta":134049184},{"NoteNumber":76,"Velocity":57,"Duration":163683,"SoundDuration":163683,"Delta":134191851},{"NoteNumber":62,"Velocity":39,"Duration":163683,"SoundDuration":163683,"Delta":134191851},{"NoteNumber":68,"Velocity":62,"Duration":230438,"SoundDuration":230438,"Delta":134355535},{"NoteNumber":59,"Velocity":49,"Duration":153625,"SoundDuration":153625,"Delta":134355535},{"NoteNumber":62,"Velocity":38,"Duration":153625,"SoundDuration":153625,"Delta":134509161},{"NoteNumber":68,"Velocity":57,"Duration":320961,"SoundDuration":320961,"Delta":134662786},{"NoteNumber":59,"Velocity":49,"Duration":153625,"SoundDuration":153625,"Delta":134662786},{"NoteNumber":62,"Velocity":43,"Duration":167336,"SoundDuration":167336,"Delta":134816412},{"NoteNumber":69,"Velocity":62,"Duration":157662,"SoundDuration":157662,"Delta":134983748},{"NoteNumber":61,"Velocity":52,"Duration":157662,"SoundDuration":157662,"Delta":134983748},{"NoteNumber":64,"Velocity":45,"Duration":151301,"SoundDuration":151301,"Delta":135141410},{"NoteNumber":69,"Velocity":62,"Duration":144731,"SoundDuration":144731,"Delta":135292711},{"NoteNumber":61,"Velocity":54,"Duration":144731,"SoundDuration":144731,"Delta":135292711},{"NoteNumber":76,"Velocity":57,"Duration":163683,"SoundDuration":163683,"Delta":135437443},{"NoteNumber":64,"Velocity":39,"Duration":163683,"SoundDuration":163683,"Delta":135437443},{"NoteNumber":69,"Velocity":62,"Duration":230438,"SoundDuration":230438,"Delta":135601127},{"NoteNumber":61,"Velocity":49,"Duration":153625,"SoundDuration":153625,"Delta":135601127},{"NoteNumber":64,"Velocity":38,"Duration":153625,"SoundDuration":153625,"Delta":135754753},{"NoteNumber":69,"Velocity":57,"Duration":320961,"SoundDuration":320961,"Delta":135908378},{"NoteNumber":61,"Velocity":49,"Duration":153625,"SoundDuration":153625,"Delta":135908378},{"NoteNumber":64,"Velocity":43,"Duration":167336,"SoundDuration":167336,"Delta":136062004},{"NoteNumber":71,"Velocity":62,"Duration":157662,"SoundDuration":157662,"Delta":136229340},{"NoteNumber":56,"Velocity":52,"Duration":157662,"SoundDuration":157662,"Delta":136229340},{"NoteNumber":64,"Velocity":45,"Duration":151301,"SoundDuration":151301,"Delta":136387002},{"NoteNumber":71,"Velocity":62,"Duration":144036,"SoundDuration":144036,"Delta":136538303},{"NoteNumber":56,"Velocity":54,"Duration":144036,"SoundDuration":144036,"Delta":136538303},{"NoteNumber":76,"Velocity":57,"Duration":165489,"SoundDuration":165489,"Delta":136682340},{"NoteNumber":64,"Velocity":39,"Duration":165489,"SoundDuration":165489,"Delta":136682340},{"NoteNumber":71,"Velocity":62,"Duration":230438,"SoundDuration":230438,"Delta":136847830},{"NoteNumber":56,"Velocity":49,"Duration":153625,"SoundDuration":153625,"Delta":136847830},{"NoteNumber":64,"Velocity":38,"Duration":153625,"SoundDuration":153625,"Delta":137001455},{"NoteNumber":74,"Velocity":57,"Duration":320638,"SoundDuration":320638,"Delta":137155081},{"NoteNumber":56,"Velocity":49,"Duration":153625,"SoundDuration":153625,"Delta":137155081},{"NoteNumber":64,"Velocity":43,"Duration":167013,"SoundDuration":167013,"Delta":137308706},{"NoteNumber":73,"Velocity":64,"Duration":154113,"SoundDuration":154113,"Delta":137475719},{"NoteNumber":57,"Velocity":52,"Duration":609334,"SoundDuration":609334,"Delta":137475719},{"NoteNumber":74,"Velocity":57,"Duration":152967,"SoundDuration":152967,"Delta":137629833},{"NoteNumber":76,"Velocity":57,"Duration":151716,"SoundDuration":151716,"Delta":137782800},{"NoteNumber":73,"Velocity":57,"Duration":150537,"SoundDuration":150537,"Delta":137934517},{"NoteNumber":71,"Velocity":62,"Duration":150197,"SoundDuration":150197,"Delta":138085054},{"NoteNumber":69,"Velocity":57,"Duration":151423,"SoundDuration":151423,"Delta":138235251},{"NoteNumber":68,"Velocity":57,"Duration":152552,"SoundDuration":152552,"Delta":138386675},{"NoteNumber":66,"Velocity":57,"Duration":153757,"SoundDuration":153757,"Delta":138539227},{"NoteNumber":64,"Velocity":64,"Duration":154344,"SoundDuration":154344,"Delta":138692985},{"NoteNumber":56,"Velocity":52,"Duration":609191,"SoundDuration":609191,"Delta":138692985},{"NoteNumber":59,"Velocity":52,"Duration":609191,"SoundDuration":609191,"Delta":138692985},{"NoteNumber":63,"Velocity":53,"Duration":152975,"SoundDuration":152975,"Delta":138847329},{"NoteNumber":64,"Velocity":57,"Duration":151609,"SoundDuration":151609,"Delta":139000304},{"NoteNumber":66,"Velocity":53,"Duration":150262,"SoundDuration":150262,"Delta":139151914},{"NoteNumber":64,"Velocity":57,"Duration":150078,"SoundDuration":150078,"Delta":139302176},{"NoteNumber":62,"Velocity":51,"Duration":151303,"SoundDuration":151303,"Delta":139452255},{"NoteNumber":61,"Velocity":51,"Duration":152663,"SoundDuration":152663,"Delta":139603558},{"NoteNumber":59,"Velocity":51,"Duration":168274,"SoundDuration":168274,"Delta":139756221},{"NoteNumber":61,"Velocity":56,"Duration":153689,"SoundDuration":153689,"Delta":139924496},{"NoteNumber":45,"Velocity":52,"Duration":609157,"SoundDuration":609157,"Delta":139924496},{"NoteNumber":57,"Velocity":52,"Duration":609157,"SoundDuration":609157,"Delta":139924496},{"NoteNumber":62,"Velocity":47,"Duration":153169,"SoundDuration":153169,"Delta":140078185},{"NoteNumber":64,"Velocity":47,"Duration":151761,"SoundDuration":151761,"Delta":140231354},{"NoteNumber":61,"Velocity":47,"Duration":150537,"SoundDuration":150537,"Delta":140383116},{"NoteNumber":59,"Velocity":55,"Duration":149318,"SoundDuration":149318,"Delta":140533653},{"NoteNumber":57,"Velocity":51,"Duration":150423,"SoundDuration":150423,"Delta":140682972},{"NoteNumber":56,"Velocity":51,"Duration":151890,"SoundDuration":151890,"Delta":140833396},{"NoteNumber":54,"Velocity":51,"Duration":161047,"SoundDuration":161047,"Delta":140985286},{"NoteNumber":52,"Velocity":54,"Duration":150542,"SoundDuration":150542,"Delta":141146334},{"NoteNumber":51,"Velocity":50,"Duration":150542,"SoundDuration":150542,"Delta":141296876},{"NoteNumber":52,"Velocity":50,"Duration":150272,"SoundDuration":150272,"Delta":141447418},{"NoteNumber":54,"Velocity":50,"Duration":150757,"SoundDuration":150757,"Delta":141597691},{"NoteNumber":52,"Velocity":55,"Duration":152450,"SoundDuration":152450,"Delta":141748449},{"NoteNumber":50,"Velocity":49,"Duration":154259,"SoundDuration":154259,"Delta":141900900},{"NoteNumber":49,"Velocity":49,"Duration":156059,"SoundDuration":156059,"Delta":142055159},{"NoteNumber":47,"Velocity":49,"Duration":176180,"SoundDuration":176180,"Delta":142211218},{"NoteNumber":73,"Velocity":64,"Duration":154113,"SoundDuration":154113,"Delta":142387399},{"NoteNumber":45,"Velocity":57,"Duration":609334,"SoundDuration":609334,"Delta":142387399},{"NoteNumber":74,"Velocity":57,"Duration":152967,"SoundDuration":152967,"Delta":142541512},{"NoteNumber":76,"Velocity":57,"Duration":151716,"SoundDuration":151716,"Delta":142694480},{"NoteNumber":73,"Velocity":57,"Duration":150537,"SoundDuration":150537,"Delta":142846196},{"NoteNumber":71,"Velocity":62,"Duration":150197,"SoundDuration":150197,"Delta":142996733},{"NoteNumber":69,"Velocity":57,"Duration":151423,"SoundDuration":151423,"Delta":143146931},{"NoteNumber":68,"Velocity":57,"Duration":152552,"SoundDuration":152552,"Delta":143298354},{"NoteNumber":69,"Velocity":57,"Duration":173844,"SoundDuration":173844,"Delta":143450907},{"NoteNumber":78,"Velocity":64,"Duration":159337,"SoundDuration":159337,"Delta":143624751},{"NoteNumber":62,"Velocity":57,"Duration":621248,"SoundDuration":621248,"Delta":143624751},{"NoteNumber":80,"Velocity":64,"Duration":158495,"SoundDuration":158495,"Delta":143784088},{"NoteNumber":81,"Velocity":68,"Duration":153625,"SoundDuration":153625,"Delta":143942584},{"NoteNumber":78,"Velocity":64,"Duration":149790,"SoundDuration":149790,"Delta":144096209},{"NoteNumber":76,"Velocity":62,"Duration":150197,"SoundDuration":150197,"Delta":144245999},{"NoteNumber":74,"Velocity":61,"Duration":151423,"SoundDuration":151423,"Delta":144396197},{"NoteNumber":73,"Velocity":58,"Duration":152552,"SoundDuration":152552,"Delta":144547620},{"NoteNumber":71,"Velocity":58,"Duration":153757,"SoundDuration":153757,"Delta":144700173},{"NoteNumber":70,"Velocity":64,"Duration":154113,"SoundDuration":154113,"Delta":144853930},{"NoteNumber":38,"Velocity":57,"Duration":609334,"SoundDuration":609334,"Delta":144853930},{"NoteNumber":71,"Velocity":57,"Duration":152967,"SoundDuration":152967,"Delta":145008043},{"NoteNumber":73,"Velocity":57,"Duration":151716,"SoundDuration":151716,"Delta":145161011},{"NoteNumber":71,"Velocity":57,"Duration":150537,"SoundDuration":150537,"Delta":145312728},{"NoteNumber":74,"Velocity":62,"Duration":150197,"SoundDuration":150197,"Delta":145463265},{"NoteNumber":73,"Velocity":57,"Duration":151423,"SoundDuration":151423,"Delta":145613462},{"NoteNumber":76,"Velocity":61,"Duration":152552,"SoundDuration":152552,"Delta":145764886},{"NoteNumber":74,"Velocity":57,"Duration":164967,"SoundDuration":164967,"Delta":145917438},{"NoteNumber":78,"Velocity":63,"Duration":307251,"SoundDuration":307251,"Delta":146082405},{"NoteNumber":76,"Velocity":62,"Duration":149362,"SoundDuration":149362,"Delta":146695877},{"NoteNumber":74,"Velocity":57,"Duration":150486,"SoundDuration":150486,"Delta":146845239},{"NoteNumber":73,"Velocity":62,"Duration":151684,"SoundDuration":151684,"Delta":146995726},{"NoteNumber":71,"Velocity":57,"Duration":152909,"SoundDuration":152909,"Delta":147147411},{"NoteNumber":69,"Velocity":62,"Duration":615141,"SoundDuration":615141,"Delta":147300320},{"NoteNumber":57,"Velocity":39,"Duration":620730,"SoundDuration":620730,"Delta":147607571},{"NoteNumber":49,"Velocity":32,"Duration":307890,"SoundDuration":307890,"Delta":147607571},{"NoteNumber":71,"Velocity":62,"Duration":81360,"SoundDuration":81360,"Delta":147915461},{"NoteNumber":50,"Velocity":39,"Duration":312840,"SoundDuration":312840,"Delta":147915461},{"NoteNumber":73,"Velocity":54,"Duration":79135,"SoundDuration":79135,"Delta":147996822},{"NoteNumber":71,"Velocity":62,"Duration":77009,"SoundDuration":77009,"Delta":148075958},{"NoteNumber":73,"Velocity":55,"Duration":75334,"SoundDuration":75334,"Delta":148152967},{"NoteNumber":71,"Velocity":62,"Duration":101104,"SoundDuration":101104,"Delta":148228302},{"NoteNumber":52,"Velocity":32,"Duration":305878,"SoundDuration":305878,"Delta":148228302},{"NoteNumber":56,"Velocity":39,"Duration":305878,"SoundDuration":305878,"Delta":148228302},{"NoteNumber":73,"Velocity":55,"Duration":101929,"SoundDuration":101929,"Delta":148329406},{"NoteNumber":71,"Velocity":62,"Duration":102845,"SoundDuration":102845,"Delta":148431335},{"NoteNumber":73,"Velocity":64,"Duration":154113,"SoundDuration":154113,"Delta":148534180},{"NoteNumber":45,"Velocity":48,"Duration":307080,"SoundDuration":307080,"Delta":148534180},{"NoteNumber":57,"Velocity":57,"Duration":306846,"SoundDuration":306846,"Delta":148549622},{"NoteNumber":74,"Velocity":57,"Duration":152967,"SoundDuration":152967,"Delta":148688294},{"NoteNumber":76,"Velocity":57,"Duration":151716,"SoundDuration":151716,"Delta":148841261},{"NoteNumber":73,"Velocity":57,"Duration":150537,"SoundDuration":150537,"Delta":148992978},{"NoteNumber":71,"Velocity":62,"Duration":150197,"SoundDuration":150197,"Delta":149143515},{"NoteNumber":61,"Velocity":39,"Duration":301620,"SoundDuration":301620,"Delta":149143515},{"NoteNumber":69,"Velocity":57,"Duration":151423,"SoundDuration":151423,"Delta":149293712},{"NoteNumber":68,"Velocity":57,"Duration":152552,"SoundDuration":152552,"Delta":149445136},{"NoteNumber":69,"Velocity":57,"Duration":170520,"SoundDuration":170520,"Delta":149597688},{"NoteNumber":78,"Velocity":64,"Duration":159337,"SoundDuration":159337,"Delta":149768209},{"NoteNumber":62,"Velocity":57,"Duration":621248,"SoundDuration":621248,"Delta":149768209},{"NoteNumber":80,"Velocity":64,"Duration":158495,"SoundDuration":158495,"Delta":149927546},{"NoteNumber":81,"Velocity":68,"Duration":153625,"SoundDuration":153625,"Delta":150086041},{"NoteNumber":78,"Velocity":64,"Duration":149790,"SoundDuration":149790,"Delta":150239667},{"NoteNumber":76,"Velocity":62,"Duration":150197,"SoundDuration":150197,"Delta":150389457},{"NoteNumber":74,"Velocity":61,"Duration":151423,"SoundDuration":151423,"Delta":150539654},{"NoteNumber":73,"Velocity":58,"Duration":152552,"SoundDuration":152552,"Delta":150691078},{"NoteNumber":71,"Velocity":58,"Duration":153757,"SoundDuration":153757,"Delta":150843630},{"NoteNumber":70,"Velocity":64,"Duration":154113,"SoundDuration":154113,"Delta":150997388},{"NoteNumber":50,"Velocity":57,"Duration":609334,"SoundDuration":609334,"Delta":150997388},{"NoteNumber":71,"Velocity":57,"Duration":152967,"SoundDuration":152967,"Delta":151151501},{"NoteNumber":73,"Velocity":57,"Duration":151716,"SoundDuration":151716,"Delta":151304468},{"NoteNumber":71,"Velocity":57,"Duration":150537,"SoundDuration":150537,"Delta":151456185},{"NoteNumber":74,"Velocity":62,"Duration":150197,"SoundDuration":150197,"Delta":151606722},{"NoteNumber":73,"Velocity":57,"Duration":151423,"SoundDuration":151423,"Delta":151756920},{"NoteNumber":76,"Velocity":61,"Duration":152552,"SoundDuration":152552,"Delta":151908343},{"NoteNumber":74,"Velocity":57,"Duration":164967,"SoundDuration":164967,"Delta":152060896},{"NoteNumber":78,"Velocity":63,"Duration":307251,"SoundDuration":307251,"Delta":152225863},{"NoteNumber":74,"Velocity":43,"Duration":171731,"SoundDuration":171731,"Delta":152845746},{"NoteNumber":73,"Velocity":39,"Duration":174535,"SoundDuration":174535,"Delta":153017478},{"NoteNumber":76,"Velocity":42,"Duration":177585,"SoundDuration":177585,"Delta":153192014},{"NoteNumber":74,"Velocity":39,"Duration":193199,"SoundDuration":193199,"Delta":153369599},{"NoteNumber":78,"Velocity":44,"Duration":446827,"SoundDuration":446827,"Delta":153562799},{"NoteNumber":74,"Velocity":46,"Duration":280312,"SoundDuration":280312,"Delta":154462441},{"NoteNumber":73,"Velocity":39,"Duration":293993,"SoundDuration":293993,"Delta":154742753},{"NoteNumber":76,"Velocity":47,"Duration":308757,"SoundDuration":308757,"Delta":155036747},{"NoteNumber":74,"Velocity":39,"Duration":419697,"SoundDuration":419697,"Delta":155345504},{"NoteNumber":78,"Velocity":44,"Duration":1286932,"SoundDuration":1286932,"Delta":155765202},{"NoteNumber":65,"Velocity":64,"Duration":75422,"SoundDuration":75422,"Delta":157127709},{"NoteNumber":77,"Velocity":70,"Duration":224837,"SoundDuration":224837,"Delta":157203131},{"NoteNumber":66,"Velocity":65,"Duration":74449,"SoundDuration":74449,"Delta":157427969},{"NoteNumber":78,"Velocity":72,"Duration":222391,"SoundDuration":222391,"Delta":157502418},{"NoteNumber":70,"Velocity":68,"Duration":74081,"SoundDuration":74081,"Delta":157724809},{"NoteNumber":82,"Velocity":74,"Duration":222244,"SoundDuration":222244,"Delta":157798890},{"NoteNumber":71,"Velocity":69,"Duration":74081,"SoundDuration":74081,"Delta":158021134},{"NoteNumber":83,"Velocity":75,"Duration":222244,"SoundDuration":222244,"Delta":158095216},{"NoteNumber":73,"Velocity":71,"Duration":74081,"SoundDuration":74081,"Delta":158317460},{"NoteNumber":85,"Velocity":77,"Duration":222244,"SoundDuration":222244,"Delta":158391541},{"NoteNumber":74,"Velocity":71,"Duration":74081,"SoundDuration":74081,"Delta":158613785},{"NoteNumber":86,"Velocity":78,"Duration":444488,"SoundDuration":444488,"Delta":158687867},{"NoteNumber":62,"Velocity":42,"Duration":148162,"SoundDuration":148162,"Delta":158687867},{"NoteNumber":66,"Velocity":42,"Duration":148162,"SoundDuration":148162,"Delta":158687867},{"NoteNumber":71,"Velocity":50,"Duration":148162,"SoundDuration":148162,"Delta":158687867},{"NoteNumber":62,"Velocity":37,"Duration":148162,"SoundDuration":148162,"Delta":158984192},{"NoteNumber":66,"Velocity":37,"Duration":148162,"SoundDuration":148162,"Delta":158984192},{"NoteNumber":71,"Velocity":45,"Duration":148162,"SoundDuration":148162,"Delta":158984192},{"NoteNumber":83,"Velocity":68,"Duration":148162,"SoundDuration":148162,"Delta":159132355},{"NoteNumber":86,"Velocity":74,"Duration":141189,"SoundDuration":141189,"Delta":159280518},{"NoteNumber":62,"Velocity":37,"Duration":141189,"SoundDuration":141189,"Delta":159280518},{"NoteNumber":66,"Velocity":37,"Duration":141189,"SoundDuration":141189,"Delta":159280518},{"NoteNumber":71,"Velocity":45,"Duration":141189,"SoundDuration":141189,"Delta":159280518},{"NoteNumber":83,"Velocity":68,"Duration":141189,"SoundDuration":141189,"Delta":159421707},{"NoteNumber":86,"Velocity":73,"Duration":148162,"SoundDuration":148162,"Delta":159562897},{"NoteNumber":62,"Velocity":37,"Duration":148162,"SoundDuration":148162,"Delta":159562897},{"NoteNumber":66,"Velocity":37,"Duration":148162,"SoundDuration":148162,"Delta":159562897},{"NoteNumber":71,"Velocity":45,"Duration":148162,"SoundDuration":148162,"Delta":159562897},{"NoteNumber":83,"Velocity":70,"Duration":148162,"SoundDuration":148162,"Delta":159711060},{"NoteNumber":76,"Velocity":79,"Duration":444488,"SoundDuration":444488,"Delta":159859223},{"NoteNumber":64,"Velocity":42,"Duration":148162,"SoundDuration":148162,"Delta":159859223},{"NoteNumber":69,"Velocity":42,"Duration":148162,"SoundDuration":148162,"Delta":159859223},{"NoteNumber":73,"Velocity":50,"Duration":148162,"SoundDuration":148162,"Delta":159859223},{"NoteNumber":64,"Velocity":37,"Duration":148162,"SoundDuration":148162,"Delta":160155548},{"NoteNumber":69,"Velocity":37,"Duration":148162,"SoundDuration":148162,"Delta":160155548},{"NoteNumber":73,"Velocity":45,"Duration":148162,"SoundDuration":148162,"Delta":160155548},{"NoteNumber":81,"Velocity":72,"Duration":71265,"SoundDuration":71265,"Delta":160303711},{"NoteNumber":85,"Velocity":75,"Duration":71265,"SoundDuration":71265,"Delta":160374977},{"NoteNumber":88,"Velocity":79,"Duration":442304,"SoundDuration":442304,"Delta":160446242},{"NoteNumber":64,"Velocity":37,"Duration":147434,"SoundDuration":147434,"Delta":160446242},{"NoteNumber":69,"Velocity":37,"Duration":147434,"SoundDuration":147434,"Delta":160446242},{"NoteNumber":73,"Velocity":45,"Duration":147434,"SoundDuration":147434,"Delta":160446242},{"NoteNumber":64,"Velocity":37,"Duration":147434,"SoundDuration":147434,"Delta":160741112},{"NoteNumber":69,"Velocity":37,"Duration":147434,"SoundDuration":147434,"Delta":160741112},{"NoteNumber":73,"Velocity":45,"Duration":147434,"SoundDuration":147434,"Delta":160741112},{"NoteNumber":81,"Velocity":70,"Duration":71605,"SoundDuration":71605,"Delta":160888546},{"NoteNumber":83,"Velocity":56,"Duration":84402,"SoundDuration":84402,"Delta":160960152},{"NoteNumber":83,"Velocity":69,"Duration":79044,"SoundDuration":79044,"Delta":161086756},{"NoteNumber":64,"Velocity":50,"Duration":157423,"SoundDuration":157423,"Delta":161086756},{"NoteNumber":68,"Velocity":50,"Duration":157423,"SoundDuration":157423,"Delta":161086756},{"NoteNumber":85,"Velocity":49,"Duration":78379,"SoundDuration":78379,"Delta":161165800},{"NoteNumber":83,"Velocity":61,"Duration":77374,"SoundDuration":77374,"Delta":161244180},{"NoteNumber":85,"Velocity":55,"Duration":76274,"SoundDuration":76274,"Delta":161321555},{"NoteNumber":83,"Velocity":64,"Duration":75366,"SoundDuration":75366,"Delta":161397829},{"NoteNumber":64,"Velocity":45,"Duration":149663,"SoundDuration":149663,"Delta":161397829},{"NoteNumber":68,"Velocity":45,"Duration":149663,"SoundDuration":149663,"Delta":161397829},{"NoteNumber":85,"Velocity":58,"Duration":74297,"SoundDuration":74297,"Delta":161473195},{"NoteNumber":83,"Velocity":67,"Duration":73416,"SoundDuration":73416,"Delta":161547492},{"NoteNumber":85,"Velocity":62,"Duration":73356,"SoundDuration":73356,"Delta":161620909},{"NoteNumber":83,"Velocity":70,"Duration":73356,"SoundDuration":73356,"Delta":161694266},{"NoteNumber":64,"Velocity":45,"Duration":146941,"SoundDuration":146941,"Delta":161694266},{"NoteNumber":68,"Velocity":45,"Duration":146941,"SoundDuration":146941,"Delta":161694266},{"NoteNumber":85,"Velocity":61,"Duration":73585,"SoundDuration":73585,"Delta":161767623},{"NoteNumber":83,"Velocity":63,"Duration":73717,"SoundDuration":73717,"Delta":161841208},{"NoteNumber":85,"Velocity":55,"Duration":73978,"SoundDuration":73978,"Delta":161914925},{"NoteNumber":83,"Velocity":66,"Duration":74124,"SoundDuration":74124,"Delta":161988903},{"NoteNumber":64,"Velocity":45,"Duration":148802,"SoundDuration":148802,"Delta":161988903},{"NoteNumber":68,"Velocity":45,"Duration":148802,"SoundDuration":148802,"Delta":161988903},{"NoteNumber":85,"Velocity":57,"Duration":74678,"SoundDuration":74678,"Delta":162063028},{"NoteNumber":83,"Velocity":69,"Duration":75786,"SoundDuration":75786,"Delta":162137706},{"NoteNumber":85,"Velocity":59,"Duration":76992,"SoundDuration":76992,"Delta":162213493},{"NoteNumber":81,"Velocity":69,"Duration":626256,"SoundDuration":626256,"Delta":162290485},{"NoteNumber":57,"Velocity":57,"Duration":157843,"SoundDuration":157843,"Delta":162290485},{"NoteNumber":69,"Velocity":47,"Duration":156983,"SoundDuration":156983,"Delta":162448328},{"NoteNumber":68,"Velocity":50,"Duration":156132,"SoundDuration":156132,"Delta":162605312},{"NoteNumber":69,"Velocity":47,"Duration":155297,"SoundDuration":155297,"Delta":162761444},{"NoteNumber":61,"Velocity":57,"Duration":154623,"SoundDuration":154623,"Delta":162916742},{"NoteNumber":69,"Velocity":48,"Duration":154623,"SoundDuration":154623,"Delta":163071365},{"NoteNumber":76,"Velocity":69,"Duration":309246,"SoundDuration":309246,"Delta":163225988},{"NoteNumber":68,"Velocity":50,"Duration":154623,"SoundDuration":154623,"Delta":163225988},{"NoteNumber":69,"Velocity":47,"Duration":154623,"SoundDuration":154623,"Delta":163380611},{"NoteNumber":78,"Velocity":64,"Duration":76734,"SoundDuration":76734,"Delta":163535235},{"NoteNumber":62,"Velocity":57,"Duration":153468,"SoundDuration":153468,"Delta":163535235},{"NoteNumber":80,"Velocity":59,"Duration":76734,"SoundDuration":76734,"Delta":163611969},{"NoteNumber":78,"Velocity":68,"Duration":153468,"SoundDuration":153468,"Delta":163688703},{"NoteNumber":69,"Velocity":47,"Duration":153468,"SoundDuration":153468,"Delta":163688703},{"NoteNumber":76,"Velocity":62,"Duration":306937,"SoundDuration":306937,"Delta":163842172},{"NoteNumber":61,"Velocity":50,"Duration":153468,"SoundDuration":153468,"Delta":163842172},{"NoteNumber":69,"Velocity":47,"Duration":153468,"SoundDuration":153468,"Delta":163995640},{"NoteNumber":78,"Velocity":62,"Duration":75574,"SoundDuration":75574,"Delta":164149109},{"NoteNumber":62,"Velocity":57,"Duration":151148,"SoundDuration":151148,"Delta":164149109},{"NoteNumber":80,"Velocity":62,"Duration":75574,"SoundDuration":75574,"Delta":164224683},{"NoteNumber":78,"Velocity":69,"Duration":151148,"SoundDuration":151148,"Delta":164300257},{"NoteNumber":69,"Velocity":48,"Duration":151148,"SoundDuration":151148,"Delta":164300257},{"NoteNumber":76,"Velocity":63,"Duration":253468,"SoundDuration":253468,"Delta":164451406},{"NoteNumber":61,"Velocity":50,"Duration":194170,"SoundDuration":194170,"Delta":164451406},{"NoteNumber":69,"Velocity":47,"Duration":237191,"SoundDuration":237191,"Delta":164645576},{"NoteNumber":76,"Velocity":64,"Duration":798112,"SoundDuration":798112,"Delta":164704874},{"NoteNumber":80,"Velocity":69,"Duration":738814,"SoundDuration":738814,"Delta":164764172},{"NoteNumber":83,"Velocity":73,"Duration":679516,"SoundDuration":679516,"Delta":164823470},{"NoteNumber":86,"Velocity":77,"Duration":620218,"SoundDuration":620218,"Delta":164882768},{"NoteNumber":59,"Velocity":48,"Duration":620218,"SoundDuration":620218,"Delta":164882768},{"NoteNumber":68,"Velocity":57,"Duration":620218,"SoundDuration":620218,"Delta":164882768},{"NoteNumber":85,"Velocity":69,"Duration":310109,"SoundDuration":310109,"Delta":165813097},{"NoteNumber":83,"Velocity":64,"Duration":153468,"SoundDuration":153468,"Delta":166123206},{"NoteNumber":62,"Velocity":57,"Duration":316172,"SoundDuration":316172,"Delta":166123206},{"NoteNumber":66,"Velocity":57,"Duration":316172,"SoundDuration":316172,"Delta":166123206},{"NoteNumber":85,"Velocity":50,"Duration":38367,"SoundDuration":38367,"Delta":166276675},{"NoteNumber":83,"Velocity":55,"Duration":38367,"SoundDuration":38367,"Delta":166315042},{"NoteNumber":82,"Velocity":58,"Duration":42984,"SoundDuration":42984,"Delta":166353409},{"NoteNumber":83,"Velocity":60,"Duration":42984,"SoundDuration":42984,"Delta":166396394},{"NoteNumber":86,"Velocity":62,"Duration":316172,"SoundDuration":316172,"Delta":166439379},{"NoteNumber":76,"Velocity":62,"Duration":152703,"SoundDuration":152703,"Delta":166755551},{"NoteNumber":52,"Velocity":48,"Duration":316297,"SoundDuration":316297,"Delta":166755551},{"NoteNumber":64,"Velocity":57,"Duration":316297,"SoundDuration":316297,"Delta":166755551},{"NoteNumber":78,"Velocity":54,"Duration":38564,"SoundDuration":38564,"Delta":166908254},{"NoteNumber":76,"Velocity":55,"Duration":38564,"SoundDuration":38564,"Delta":166946819},{"NoteNumber":75,"Velocity":59,"Duration":43232,"SoundDuration":43232,"Delta":166985383},{"NoteNumber":76,"Velocity":59,"Duration":43232,"SoundDuration":43232,"Delta":167028616},{"NoteNumber":80,"Velocity":63,"Duration":318101,"SoundDuration":318101,"Delta":167071848},{"NoteNumber":74,"Velocity":60,"Duration":318101,"SoundDuration":318101,"Delta":167071848},{"NoteNumber":73,"Velocity":58,"Duration":624327,"SoundDuration":624327,"Delta":167389949},{"NoteNumber":81,"Velocity":69,"Duration":624327,"SoundDuration":624327,"Delta":167389949},{"NoteNumber":57,"Velocity":57,"Duration":157581,"SoundDuration":157581,"Delta":167389949},{"NoteNumber":69,"Velocity":47,"Duration":156594,"SoundDuration":156594,"Delta":167547531},{"NoteNumber":68,"Velocity":50,"Duration":155619,"SoundDuration":155619,"Delta":167704126},{"NoteNumber":69,"Velocity":47,"Duration":154531,"SoundDuration":154531,"Delta":167859746},{"NoteNumber":61,"Velocity":57,"Duration":153830,"SoundDuration":153830,"Delta":168014277},{"NoteNumber":69,"Velocity":48,"Duration":153830,"SoundDuration":153830,"Delta":168168108},{"NoteNumber":76,"Velocity":69,"Duration":307660,"SoundDuration":307660,"Delta":168321938},{"NoteNumber":68,"Velocity":50,"Duration":153830,"SoundDuration":153830,"Delta":168321938},{"NoteNumber":69,"Velocity":47,"Duration":153830,"SoundDuration":153830,"Delta":168475769},{"NoteNumber":78,"Velocity":64,"Duration":76734,"SoundDuration":76734,"Delta":168629599},{"NoteNumber":62,"Velocity":57,"Duration":153468,"SoundDuration":153468,"Delta":168629599},{"NoteNumber":80,"Velocity":59,"Duration":76734,"SoundDuration":76734,"Delta":168706333},{"NoteNumber":78,"Velocity":68,"Duration":153468,"SoundDuration":153468,"Delta":168783068},{"NoteNumber":69,"Velocity":47,"Duration":153468,"SoundDuration":153468,"Delta":168783068},{"NoteNumber":76,"Velocity":62,"Duration":306937,"SoundDuration":306937,"Delta":168936536},{"NoteNumber":61,"Velocity":50,"Duration":153468,"SoundDuration":153468,"Delta":168936536},{"NoteNumber":69,"Velocity":47,"Duration":153468,"SoundDuration":153468,"Delta":169090005},{"NoteNumber":78,"Velocity":62,"Duration":75574,"SoundDuration":75574,"Delta":169243473},{"NoteNumber":62,"Velocity":57,"Duration":151148,"SoundDuration":151148,"Delta":169243473},{"NoteNumber":80,"Velocity":62,"Duration":75574,"SoundDuration":75574,"Delta":169319048},{"NoteNumber":78,"Velocity":69,"Duration":151148,"SoundDuration":151148,"Delta":169394622},{"NoteNumber":69,"Velocity":48,"Duration":151148,"SoundDuration":151148,"Delta":169394622},{"NoteNumber":76,"Velocity":63,"Duration":253468,"SoundDuration":253468,"Delta":169545771},{"NoteNumber":61,"Velocity":50,"Duration":194170,"SoundDuration":194170,"Delta":169545771},{"NoteNumber":69,"Velocity":47,"Duration":237191,"SoundDuration":237191,"Delta":169739941},{"NoteNumber":76,"Velocity":64,"Duration":798112,"SoundDuration":798112,"Delta":169799239},{"NoteNumber":80,"Velocity":69,"Duration":738814,"SoundDuration":738814,"Delta":169858537},{"NoteNumber":83,"Velocity":73,"Duration":679516,"SoundDuration":679516,"Delta":169917835},{"NoteNumber":86,"Velocity":77,"Duration":620218,"SoundDuration":620218,"Delta":169977133},{"NoteNumber":59,"Velocity":48,"Duration":620218,"SoundDuration":620218,"Delta":169977133},{"NoteNumber":68,"Velocity":57,"Duration":620218,"SoundDuration":620218,"Delta":169977133},{"NoteNumber":85,"Velocity":69,"Duration":310109,"SoundDuration":310109,"Delta":170907461},{"NoteNumber":57,"Velocity":41,"Duration":310109,"SoundDuration":310109,"Delta":170907461},{"NoteNumber":69,"Velocity":49,"Duration":310109,"SoundDuration":310109,"Delta":170907461},{"NoteNumber":83,"Velocity":64,"Duration":153468,"SoundDuration":153468,"Delta":171217571},{"NoteNumber":62,"Velocity":48,"Duration":316172,"SoundDuration":316172,"Delta":171217571},{"NoteNumber":66,"Velocity":57,"Duration":316172,"SoundDuration":316172,"Delta":171217571},{"NoteNumber":85,"Velocity":50,"Duration":38367,"SoundDuration":38367,"Delta":171371039},{"NoteNumber":83,"Velocity":55,"Duration":38367,"SoundDuration":38367,"Delta":171409406},{"NoteNumber":82,"Velocity":58,"Duration":42984,"SoundDuration":42984,"Delta":171447773},{"NoteNumber":83,"Velocity":60,"Duration":42984,"SoundDuration":42984,"Delta":171490758},{"NoteNumber":86,"Velocity":62,"Duration":316172,"SoundDuration":316172,"Delta":171533743},{"NoteNumber":76,"Velocity":62,"Duration":152703,"SoundDuration":152703,"Delta":171849916},{"NoteNumber":64,"Velocity":39,"Duration":316297,"SoundDuration":316297,"Delta":171849916},{"NoteNumber":52,"Velocity":33,"Duration":316297,"SoundDuration":316297,"Delta":171849916},{"NoteNumber":78,"Velocity":54,"Duration":38564,"SoundDuration":38564,"Delta":172002619},{"NoteNumber":76,"Velocity":55,"Duration":38564,"SoundDuration":38564,"Delta":172041183},{"NoteNumber":75,"Velocity":59,"Duration":43232,"SoundDuration":43232,"Delta":172079748},{"NoteNumber":76,"Velocity":59,"Duration":43232,"SoundDuration":43232,"Delta":172122980},{"NoteNumber":80,"Velocity":63,"Duration":316667,"SoundDuration":316667,"Delta":172166213},{"NoteNumber":74,"Velocity":60,"Duration":316667,"SoundDuration":316667,"Delta":172166213},{"NoteNumber":73,"Velocity":58,"Duration":620218,"SoundDuration":620218,"Delta":172482881},{"NoteNumber":81,"Velocity":69,"Duration":620218,"SoundDuration":620218,"Delta":172482881},{"NoteNumber":45,"Velocity":38,"Duration":310109,"SoundDuration":310109,"Delta":172482881},{"NoteNumber":57,"Velocity":45,"Duration":310109,"SoundDuration":310109,"Delta":172482881},{"NoteNumber":62,"Velocity":41,"Duration":310109,"SoundDuration":310109,"Delta":173103100},{"NoteNumber":52,"Velocity":34,"Duration":310109,"SoundDuration":310109,"Delta":173103100},{"NoteNumber":64,"Velocity":57,"Duration":155054,"SoundDuration":155054,"Delta":173258155},{"NoteNumber":68,"Velocity":57,"Duration":155054,"SoundDuration":155054,"Delta":173413209},{"NoteNumber":76,"Velocity":50,"Duration":172930,"SoundDuration":172930,"Delta":173568264},{"NoteNumber":52,"Velocity":38,"Duration":308514,"SoundDuration":308514,"Delta":173741195},{"NoteNumber":61,"Velocity":45,"Duration":308514,"SoundDuration":308514,"Delta":173741195},{"NoteNumber":64,"Velocity":53,"Duration":154257,"SoundDuration":154257,"Delta":173895452},{"NoteNumber":69,"Velocity":57,"Duration":154257,"SoundDuration":154257,"Delta":174049710},{"NoteNumber":76,"Velocity":49,"Duration":179125,"SoundDuration":179125,"Delta":174203967},{"NoteNumber":59,"Velocity":39,"Duration":161990,"SoundDuration":161990,"Delta":174383093},{"NoteNumber":52,"Velocity":33,"Duration":348800,"SoundDuration":348800,"Delta":174383093},{"NoteNumber":59,"Velocity":39,"Duration":179766,"SoundDuration":179766,"Delta":174552126},{"NoteNumber":62,"Velocity":51,"Duration":190500,"SoundDuration":190500,"Delta":174731893},{"NoteNumber":68,"Velocity":42,"Duration":295624,"SoundDuration":295624,"Delta":174922393},{"NoteNumber":61,"Velocity":53,"Duration":905797,"SoundDuration":905797,"Delta":175218018},{"NoteNumber":69,"Velocity":53,"Duration":905797,"SoundDuration":905797,"Delta":175218018},{"NoteNumber":45,"Velocity":36,"Duration":905797,"SoundDuration":905797,"Delta":175218018},{"NoteNumber":57,"Velocity":43,"Duration":905797,"SoundDuration":905797,"Delta":175218018},{"NoteNumber":30,"Velocity":34,"Duration":3742154,"SoundDuration":3742154,"Delta":177029612},{"NoteNumber":42,"Velocity":34,"Duration":3742154,"SoundDuration":3742154,"Delta":177029612},{"NoteNumber":54,"Velocity":51,"Duration":153783,"SoundDuration":153783,"Delta":178909703},{"NoteNumber":55,"Velocity":40,"Duration":38445,"SoundDuration":38445,"Delta":179063486},{"NoteNumber":54,"Velocity":44,"Duration":38445,"SoundDuration":38445,"Delta":179101932},{"NoteNumber":53,"Velocity":42,"Duration":38445,"SoundDuration":38445,"Delta":179140378},{"NoteNumber":54,"Velocity":42,"Duration":38445,"SoundDuration":38445,"Delta":179178823},{"NoteNumber":58,"Velocity":49,"Duration":307565,"SoundDuration":307565,"Delta":179217269},{"NoteNumber":52,"Velocity":40,"Duration":307565,"SoundDuration":307565,"Delta":179217269},{"NoteNumber":59,"Velocity":44,"Duration":73500,"SoundDuration":73500,"Delta":179524835},{"NoteNumber":50,"Velocity":46,"Duration":300784,"SoundDuration":300784,"Delta":179524835},{"NoteNumber":58,"Velocity":40,"Duration":73500,"SoundDuration":73500,"Delta":179598336},{"NoteNumber":59,"Velocity":51,"Duration":153783,"SoundDuration":153783,"Delta":179671836},{"NoteNumber":62,"Velocity":44,"Duration":307566,"SoundDuration":307566,"Delta":179825619},{"NoteNumber":47,"Velocity":41,"Duration":307566,"SoundDuration":307566,"Delta":179825619},{"NoteNumber":61,"Velocity":46,"Duration":73862,"SoundDuration":73862,"Delta":180133185},{"NoteNumber":46,"Velocity":46,"Duration":303910,"SoundDuration":303910,"Delta":180133185},{"NoteNumber":59,"Velocity":42,"Duration":73862,"SoundDuration":73862,"Delta":180207048},{"NoteNumber":61,"Velocity":51,"Duration":156184,"SoundDuration":156184,"Delta":180280910},{"NoteNumber":64,"Velocity":48,"Duration":334671,"SoundDuration":334671,"Delta":180437095},{"NoteNumber":47,"Velocity":39,"Duration":334671,"SoundDuration":334671,"Delta":180437095},{"NoteNumber":62,"Velocity":51,"Duration":187406,"SoundDuration":187406,"Delta":180771767},{"NoteNumber":47,"Velocity":46,"Duration":795186,"SoundDuration":795186,"Delta":180771767},{"NoteNumber":64,"Velocity":42,"Duration":50648,"SoundDuration":50648,"Delta":180959173},{"NoteNumber":62,"Velocity":38,"Duration":50648,"SoundDuration":50648,"Delta":181009821},{"NoteNumber":61,"Velocity":43,"Duration":50648,"SoundDuration":50648,"Delta":181060470},{"NoteNumber":62,"Velocity":39,"Duration":50648,"SoundDuration":50648,"Delta":181111118},{"NoteNumber":66,"Velocity":49,"Duration":405186,"SoundDuration":405186,"Delta":181161766},{"NoteNumber":62,"Velocity":70,"Duration":71551,"SoundDuration":71551,"Delta":181972139},{"NoteNumber":66,"Velocity":56,"Duration":71551,"SoundDuration":71551,"Delta":182043691},{"NoteNumber":71,"Velocity":56,"Duration":72365,"SoundDuration":72365,"Delta":182115242},{"NoteNumber":74,"Velocity":56,"Duration":127899,"SoundDuration":127899,"Delta":182187608},{"NoteNumber":71,"Velocity":73,"Duration":296823,"SoundDuration":296823,"Delta":182315507},{"NoteNumber":66,"Velocity":65,"Duration":308261,"SoundDuration":308261,"Delta":182612331},{"NoteNumber":78,"Velocity":56,"Duration":74902,"SoundDuration":74902,"Delta":182920592},{"NoteNumber":71,"Velocity":52,"Duration":79753,"SoundDuration":79753,"Delta":183220203},{"NoteNumber":66,"Velocity":42,"Duration":79753,"SoundDuration":79753,"Delta":183220203},{"NoteNumber":62,"Velocity":36,"Duration":79753,"SoundDuration":79753,"Delta":183220203},{"NoteNumber":73,"Velocity":55,"Duration":66976,"SoundDuration":66976,"Delta":183539216},{"NoteNumber":64,"Velocity":40,"Duration":267905,"SoundDuration":267905,"Delta":183539216},{"NoteNumber":67,"Velocity":48,"Duration":267905,"SoundDuration":267905,"Delta":183539216},{"NoteNumber":74,"Velocity":49,"Duration":66976,"SoundDuration":66976,"Delta":183606192},{"NoteNumber":73,"Velocity":60,"Duration":133952,"SoundDuration":133952,"Delta":183673168},{"NoteNumber":71,"Velocity":56,"Duration":504456,"SoundDuration":504456,"Delta":183807121},{"NoteNumber":66,"Velocity":40,"Duration":504456,"SoundDuration":504456,"Delta":183807121},{"NoteNumber":62,"Velocity":34,"Duration":504456,"SoundDuration":504456,"Delta":183807121},{"NoteNumber":62,"Velocity":70,"Duration":71551,"SoundDuration":71551,"Delta":184597782},{"NoteNumber":66,"Velocity":56,"Duration":71551,"SoundDuration":71551,"Delta":184669333},{"NoteNumber":71,"Velocity":56,"Duration":71551,"SoundDuration":71551,"Delta":184740884},{"NoteNumber":74,"Velocity":56,"Duration":120695,"SoundDuration":120695,"Delta":184812436},{"NoteNumber":71,"Velocity":73,"Duration":299610,"SoundDuration":299610,"Delta":184933131},{"NoteNumber":66,"Velocity":65,"Duration":315855,"SoundDuration":315855,"Delta":185232741},{"NoteNumber":83,"Velocity":64,"Duration":75964,"SoundDuration":75964,"Delta":185548597},{"NoteNumber":78,"Velocity":60,"Duration":75964,"SoundDuration":75964,"Delta":185852456},{"NoteNumber":71,"Velocity":37,"Duration":75964,"SoundDuration":75964,"Delta":185852456},{"NoteNumber":74,"Velocity":42,"Duration":75964,"SoundDuration":75964,"Delta":185852456},{"NoteNumber":79,"Velocity":55,"Duration":66976,"SoundDuration":66976,"Delta":186170071},{"NoteNumber":73,"Velocity":48,"Duration":267905,"SoundDuration":267905,"Delta":186170071},{"NoteNumber":70,"Velocity":40,"Duration":267905,"SoundDuration":267905,"Delta":186170071},{"NoteNumber":81,"Velocity":49,"Duration":66976,"SoundDuration":66976,"Delta":186237047},{"NoteNumber":79,"Velocity":60,"Duration":133952,"SoundDuration":133952,"Delta":186304023},{"NoteNumber":78,"Velocity":56,"Duration":512470,"SoundDuration":512470,"Delta":186437976},{"NoteNumber":74,"Velocity":40,"Duration":512470,"SoundDuration":512470,"Delta":186437976},{"NoteNumber":71,"Velocity":34,"Duration":512470,"SoundDuration":512470,"Delta":186437976},{"NoteNumber":71,"Velocity":70,"Duration":71551,"SoundDuration":71551,"Delta":187237940},{"NoteNumber":74,"Velocity":56,"Duration":71551,"SoundDuration":71551,"Delta":187309491},{"NoteNumber":78,"Velocity":56,"Duration":71551,"SoundDuration":71551,"Delta":187381042},{"NoteNumber":83,"Velocity":56,"Duration":120695,"SoundDuration":120695,"Delta":187452593},{"NoteNumber":78,"Velocity":73,"Duration":299610,"SoundDuration":299610,"Delta":187573289},{"NoteNumber":74,"Velocity":65,"Duration":324289,"SoundDuration":324289,"Delta":187872899},{"NoteNumber":79,"Velocity":64,"Duration":87067,"SoundDuration":87067,"Delta":188197189},{"NoteNumber":71,"Velocity":35,"Duration":87067,"SoundDuration":87067,"Delta":188197189},{"NoteNumber":74,"Velocity":42,"Duration":87067,"SoundDuration":87067,"Delta":188197189},{"NoteNumber":78,"Velocity":60,"Duration":95371,"SoundDuration":95371,"Delta":188545459},{"NoteNumber":73,"Velocity":40,"Duration":95371,"SoundDuration":95371,"Delta":188545459},{"NoteNumber":69,"Velocity":34,"Duration":95371,"SoundDuration":95371,"Delta":188545459},{"NoteNumber":76,"Velocity":55,"Duration":83203,"SoundDuration":83203,"Delta":188926944},{"NoteNumber":67,"Velocity":40,"Duration":332815,"SoundDuration":332815,"Delta":188926944},{"NoteNumber":71,"Velocity":48,"Duration":332815,"SoundDuration":332815,"Delta":188926944},{"NoteNumber":78,"Velocity":49,"Duration":83203,"SoundDuration":83203,"Delta":189010148},{"NoteNumber":76,"Velocity":60,"Duration":166407,"SoundDuration":166407,"Delta":189093352},{"NoteNumber":74,"Velocity":56,"Duration":512470,"SoundDuration":512470,"Delta":189259760},{"NoteNumber":66,"Velocity":34,"Duration":512470,"SoundDuration":512470,"Delta":189259760},{"NoteNumber":69,"Velocity":40,"Duration":512470,"SoundDuration":512470,"Delta":189259760},{"NoteNumber":50,"Velocity":34,"Duration":2481356,"SoundDuration":2481356,"Delta":190387362},{"NoteNumber":60,"Velocity":34,"Duration":153783,"SoundDuration":153783,"Delta":190554885},{"NoteNumber":59,"Velocity":41,"Duration":153783,"SoundDuration":153783,"Delta":190708668},{"NoteNumber":60,"Velocity":34,"Duration":153783,"SoundDuration":153783,"Delta":190862451},{"NoteNumber":62,"Velocity":40,"Duration":153782,"SoundDuration":153782,"Delta":191016234},{"NoteNumber":60,"Velocity":34,"Duration":150693,"SoundDuration":150693,"Delta":191170017},{"NoteNumber":64,"Velocity":41,"Duration":150693,"SoundDuration":150693,"Delta":191320710},{"NoteNumber":60,"Velocity":37,"Duration":161221,"SoundDuration":161221,"Delta":191471403},{"NoteNumber":59,"Velocity":34,"Duration":1397315,"SoundDuration":1397315,"Delta":191632624},{"NoteNumber":67,"Velocity":39,"Duration":152222,"SoundDuration":152222,"Delta":191795597},{"NoteNumber":66,"Velocity":47,"Duration":152222,"SoundDuration":152222,"Delta":191947819},{"NoteNumber":67,"Velocity":39,"Duration":152222,"SoundDuration":152222,"Delta":192100042},{"NoteNumber":69,"Velocity":46,"Duration":151454,"SoundDuration":151454,"Delta":192252264},{"NoteNumber":67,"Velocity":39,"Duration":151454,"SoundDuration":151454,"Delta":192403718},{"NoteNumber":71,"Velocity":47,"Duration":151454,"SoundDuration":151454,"Delta":192555172},{"NoteNumber":67,"Velocity":42,"Duration":162092,"SoundDuration":162092,"Delta":192706626},{"NoteNumber":66,"Velocity":39,"Duration":1235092,"SoundDuration":1235092,"Delta":192868718},{"NoteNumber":51,"Velocity":40,"Duration":1235092,"SoundDuration":1235092,"Delta":192868718},{"NoteNumber":57,"Velocity":40,"Duration":152222,"SoundDuration":152222,"Delta":193029939},{"NoteNumber":56,"Velocity":49,"Duration":152222,"SoundDuration":152222,"Delta":193182162},{"NoteNumber":57,"Velocity":40,"Duration":152222,"SoundDuration":152222,"Delta":193334384},{"NoteNumber":59,"Velocity":48,"Duration":152222,"SoundDuration":152222,"Delta":193486607},{"NoteNumber":57,"Velocity":40,"Duration":149194,"SoundDuration":149194,"Delta":193638829},{"NoteNumber":60,"Velocity":49,"Duration":149194,"SoundDuration":149194,"Delta":193788023},{"NoteNumber":57,"Velocity":44,"Duration":783046,"SoundDuration":783046,"Delta":193937218},{"NoteNumber":59,"Velocity":52,"Duration":162092,"SoundDuration":162092,"Delta":194103810},{"NoteNumber":52,"Velocity":40,"Duration":1230760,"SoundDuration":1230760,"Delta":194103810},{"NoteNumber":64,"Velocity":44,"Duration":151454,"SoundDuration":151454,"Delta":194265902},{"NoteNumber":63,"Velocity":53,"Duration":151454,"SoundDuration":151454,"Delta":194417356},{"NoteNumber":64,"Velocity":44,"Duration":151454,"SoundDuration":151454,"Delta":194568810},{"NoteNumber":66,"Velocity":52,"Duration":151454,"SoundDuration":151454,"Delta":194720264},{"NoteNumber":55,"Velocity":40,"Duration":614306,"SoundDuration":614306,"Delta":194720264},{"NoteNumber":64,"Velocity":44,"Duration":149939,"SoundDuration":149939,"Delta":194871718},{"NoteNumber":67,"Velocity":53,"Duration":149940,"SoundDuration":149940,"Delta":195021658},{"NoteNumber":64,"Velocity":48,"Duration":162972,"SoundDuration":162972,"Delta":195171598},{"NoteNumber":76,"Velocity":66,"Duration":1226646,"SoundDuration":1226646,"Delta":195334571},{"NoteNumber":67,"Velocity":56,"Duration":1226646,"SoundDuration":1226646,"Delta":195334571},{"NoteNumber":61,"Velocity":46,"Duration":151454,"SoundDuration":151454,"Delta":195495792},{"NoteNumber":59,"Velocity":56,"Duration":151454,"SoundDuration":151454,"Delta":195647246},{"NoteNumber":61,"Velocity":46,"Duration":151454,"SoundDuration":151454,"Delta":195798700},{"NoteNumber":62,"Velocity":55,"Duration":151454,"SoundDuration":151454,"Delta":195950154},{"NoteNumber":61,"Velocity":46,"Duration":149194,"SoundDuration":149194,"Delta":196101608},{"NoteNumber":64,"Velocity":56,"Duration":149194,"SoundDuration":149194,"Delta":196250802},{"NoteNumber":59,"Velocity":50,"Duration":161221,"SoundDuration":161221,"Delta":196399996},{"NoteNumber":58,"Velocity":49,"Duration":1240213,"SoundDuration":1240213,"Delta":196561217},{"NoteNumber":66,"Velocity":58,"Duration":1867444,"SoundDuration":1867444,"Delta":196561217},{"NoteNumber":76,"Velocity":57,"Duration":151454,"SoundDuration":151454,"Delta":196723309},{"NoteNumber":75,"Velocity":72,"Duration":151454,"SoundDuration":151454,"Delta":196874763},{"NoteNumber":76,"Velocity":59,"Duration":151454,"SoundDuration":151454,"Delta":197026217},{"NoteNumber":78,"Velocity":72,"Duration":152998,"SoundDuration":152998,"Delta":197177671},{"NoteNumber":76,"Velocity":60,"Duration":152998,"SoundDuration":152998,"Delta":197330670},{"NoteNumber":79,"Velocity":76,"Duration":152998,"SoundDuration":152998,"Delta":197483669},{"NoteNumber":76,"Velocity":68,"Duration":164762,"SoundDuration":164762,"Delta":197636668},{"NoteNumber":74,"Velocity":78,"Duration":175151,"SoundDuration":175151,"Delta":197801430},{"NoteNumber":59,"Velocity":54,"Duration":627231,"SoundDuration":627231,"Delta":197801430},{"NoteNumber":83,"Velocity":72,"Duration":150693,"SoundDuration":150693,"Delta":197976582},{"NoteNumber":82,"Velocity":80,"Duration":150693,"SoundDuration":150693,"Delta":198127275},{"NoteNumber":83,"Velocity":76,"Duration":150693,"SoundDuration":150693,"Delta":198277969},{"NoteNumber":85,"Velocity":84,"Duration":150693,"SoundDuration":150693,"Delta":198428662},{"NoteNumber":65,"Velocity":57,"Duration":619602,"SoundDuration":619602,"Delta":198428662},{"NoteNumber":55,"Velocity":48,"Duration":619602,"SoundDuration":619602,"Delta":198428662},{"NoteNumber":83,"Velocity":78,"Duration":150693,"SoundDuration":150693,"Delta":198579355},{"NoteNumber":86,"Velocity":94,"Duration":150693,"SoundDuration":150693,"Delta":198730048},{"NoteNumber":83,"Velocity":86,"Duration":167522,"SoundDuration":167522,"Delta":198880742},{"NoteNumber":82,"Velocity":88,"Duration":153783,"SoundDuration":153783,"Delta":199048265},{"NoteNumber":66,"Velocity":54,"Duration":627941,"SoundDuration":627941,"Delta":199048265},{"NoteNumber":54,"Velocity":45,"Duration":627941,"SoundDuration":627941,"Delta":199048265},{"NoteNumber":85,"Velocity":72,"Duration":153783,"SoundDuration":153783,"Delta":199202048},{"NoteNumber":78,"Velocity":78,"Duration":153783,"SoundDuration":153783,"Delta":199355831},{"NoteNumber":82,"Velocity":64,"Duration":166592,"SoundDuration":166592,"Delta":199509614},{"NoteNumber":73,"Velocity":72,"Duration":160188,"SoundDuration":160188,"Delta":199676206},{"NoteNumber":78,"Velocity":55,"Duration":160188,"SoundDuration":160188,"Delta":199836394},{"NoteNumber":70,"Velocity":62,"Duration":178274,"SoundDuration":178274,"Delta":199996582},{"NoteNumber":73,"Velocity":50,"Duration":189537,"SoundDuration":189537,"Delta":200174857},{"NoteNumber":66,"Velocity":62,"Duration":726041,"SoundDuration":726041,"Delta":200364394},{"NoteNumber":42,"Velocity":44,"Duration":726041,"SoundDuration":726041,"Delta":200364394},{"NoteNumber":66,"Velocity":53,"Duration":320376,"SoundDuration":320376,"Delta":201453456},{"NoteNumber":71,"Velocity":60,"Duration":152068,"SoundDuration":152068,"Delta":201773832},{"NoteNumber":70,"Velocity":52,"Duration":125502,"SoundDuration":125502,"Delta":201925900},{"NoteNumber":73,"Velocity":60,"Duration":149045,"SoundDuration":149045,"Delta":202093236},{"NoteNumber":71,"Velocity":54,"Duration":124805,"SoundDuration":124805,"Delta":202242282},{"NoteNumber":74,"Velocity":60,"Duration":147579,"SoundDuration":147579,"Delta":202408690},{"NoteNumber":73,"Velocity":54,"Duration":123436,"SoundDuration":123436,"Delta":202556269},{"NoteNumber":76,"Velocity":60,"Duration":155215,"SoundDuration":155215,"Delta":202720851},{"NoteNumber":74,"Velocity":49,"Duration":141260,"SoundDuration":141260,"Delta":202876067},{"NoteNumber":74,"Velocity":57,"Duration":721674,"SoundDuration":721674,"Delta":203064414},{"NoteNumber":71,"Velocity":48,"Duration":721674,"SoundDuration":721674,"Delta":203064414},{"NoteNumber":53,"Velocity":43,"Duration":360837,"SoundDuration":360837,"Delta":203425251},{"NoteNumber":73,"Velocity":50,"Duration":252411,"SoundDuration":252411,"Delta":203786088},{"NoteNumber":70,"Velocity":42,"Duration":252411,"SoundDuration":252411,"Delta":203786088},{"NoteNumber":54,"Velocity":48,"Duration":252411,"SoundDuration":252411,"Delta":203786088},{"NoteNumber":66,"Velocity":53,"Duration":320376,"SoundDuration":320376,"Delta":204122637},{"NoteNumber":73,"Velocity":60,"Duration":149045,"SoundDuration":149045,"Delta":204443013},{"NoteNumber":71,"Velocity":52,"Duration":125502,"SoundDuration":125502,"Delta":204592059},{"NoteNumber":74,"Velocity":60,"Duration":149790,"SoundDuration":149790,"Delta":204759395},{"NoteNumber":73,"Velocity":54,"Duration":124805,"SoundDuration":124805,"Delta":204909185},{"NoteNumber":76,"Velocity":60,"Duration":149790,"SoundDuration":149790,"Delta":205075593},{"NoteNumber":74,"Velocity":54,"Duration":123436,"SoundDuration":123436,"Delta":205225383},{"NoteNumber":78,"Velocity":60,"Duration":151301,"SoundDuration":151301,"Delta":205389965},{"NoteNumber":76,"Velocity":49,"Duration":141260,"SoundDuration":141260,"Delta":205541267},{"NoteNumber":76,"Velocity":57,"Duration":672344,"SoundDuration":672344,"Delta":205729614},{"NoteNumber":73,"Velocity":48,"Duration":672344,"SoundDuration":672344,"Delta":205729614},{"NoteNumber":58,"Velocity":43,"Duration":336172,"SoundDuration":336172,"Delta":206065786},{"NoteNumber":74,"Velocity":50,"Duration":252128,"SoundDuration":252128,"Delta":206401958},{"NoteNumber":71,"Velocity":42,"Duration":252128,"SoundDuration":252128,"Delta":206401958},{"NoteNumber":59,"Velocity":48,"Duration":252128,"SoundDuration":252128,"Delta":206401958},{"NoteNumber":71,"Velocity":53,"Duration":320376,"SoundDuration":320376,"Delta":206738130},{"NoteNumber":76,"Velocity":60,"Duration":149045,"SoundDuration":149045,"Delta":207058506},{"NoteNumber":75,"Velocity":52,"Duration":115812,"SoundDuration":115812,"Delta":207207552},{"NoteNumber":78,"Velocity":60,"Duration":147768,"SoundDuration":147768,"Delta":207361968},{"NoteNumber":59,"Velocity":48,"Duration":147768,"SoundDuration":147768,"Delta":207361968},{"NoteNumber":76,"Velocity":54,"Duration":115219,"SoundDuration":115219,"Delta":207509737},{"NoteNumber":79,"Velocity":60,"Duration":147044,"SoundDuration":147044,"Delta":207663363},{"NoteNumber":64,"Velocity":51,"Duration":147044,"SoundDuration":147044,"Delta":207663363},{"NoteNumber":78,"Velocity":54,"Duration":115812,"SoundDuration":115812,"Delta":207810407},{"NoteNumber":81,"Velocity":64,"Duration":151301,"SoundDuration":151301,"Delta":207964823},{"NoteNumber":66,"Velocity":48,"Duration":151301,"SoundDuration":151301,"Delta":207964823},{"NoteNumber":79,"Velocity":58,"Duration":122229,"SoundDuration":122229,"Delta":208116125},{"NoteNumber":83,"Velocity":68,"Duration":148456,"SoundDuration":148456,"Delta":208279097},{"NoteNumber":67,"Velocity":56,"Duration":593823,"SoundDuration":593823,"Delta":208279097},{"NoteNumber":81,"Velocity":65,"Duration":148455,"SoundDuration":148455,"Delta":208427553},{"NoteNumber":79,"Velocity":64,"Duration":148456,"SoundDuration":148456,"Delta":208576009},{"NoteNumber":78,"Velocity":63,"Duration":148455,"SoundDuration":148455,"Delta":208724465},{"NoteNumber":76,"Velocity":61,"Duration":148634,"SoundDuration":148634,"Delta":208872921},{"NoteNumber":74,"Velocity":59,"Duration":149523,"SoundDuration":149523,"Delta":209021556},{"NoteNumber":73,"Velocity":58,"Duration":150423,"SoundDuration":150423,"Delta":209171079},{"NoteNumber":52,"Velocity":48,"Duration":150423,"SoundDuration":150423,"Delta":209171079},{"NoteNumber":71,"Velocity":55,"Duration":151487,"SoundDuration":151487,"Delta":209321503},{"NoteNumber":73,"Velocity":60,"Duration":149045,"SoundDuration":149045,"Delta":209472990},{"NoteNumber":57,"Velocity":51,"Duration":149045,"SoundDuration":149045,"Delta":209472990},{"NoteNumber":71,"Velocity":52,"Duration":116411,"SoundDuration":116411,"Delta":209622036},{"NoteNumber":74,"Velocity":60,"Duration":149790,"SoundDuration":149790,"Delta":209777251},{"NoteNumber":59,"Velocity":48,"Duration":149790,"SoundDuration":149790,"Delta":209777251},{"NoteNumber":73,"Velocity":54,"Duration":116411,"SoundDuration":116411,"Delta":209927041},{"NoteNumber":76,"Velocity":60,"Duration":148500,"SoundDuration":148500,"Delta":210082257},{"NoteNumber":61,"Velocity":51,"Duration":148500,"SoundDuration":148500,"Delta":210082257},{"NoteNumber":74,"Velocity":54,"Duration":114784,"SoundDuration":114784,"Delta":210230757},{"NoteNumber":78,"Velocity":64,"Duration":148500,"SoundDuration":148500,"Delta":210383802},{"NoteNumber":62,"Velocity":48,"Duration":148500,"SoundDuration":148500,"Delta":210383802},{"NoteNumber":76,"Velocity":58,"Duration":118871,"SoundDuration":118871,"Delta":210532303},{"NoteNumber":79,"Velocity":68,"Duration":148456,"SoundDuration":148456,"Delta":210690798},{"NoteNumber":64,"Velocity":56,"Duration":593823,"SoundDuration":593823,"Delta":210690798},{"NoteNumber":78,"Velocity":65,"Duration":148455,"SoundDuration":148455,"Delta":210839254},{"NoteNumber":76,"Velocity":64,"Duration":148456,"SoundDuration":148456,"Delta":210987710},{"NoteNumber":74,"Velocity":63,"Duration":148455,"SoundDuration":148455,"Delta":211136166},{"NoteNumber":73,"Velocity":61,"Duration":148634,"SoundDuration":148634,"Delta":211284622},{"NoteNumber":71,"Velocity":59,"Duration":149523,"SoundDuration":149523,"Delta":211433256},{"NoteNumber":69,"Velocity":58,"Duration":150423,"SoundDuration":150423,"Delta":211582780},{"NoteNumber":45,"Velocity":48,"Duration":150423,"SoundDuration":150423,"Delta":211582780},{"NoteNumber":67,"Velocity":55,"Duration":151487,"SoundDuration":151487,"Delta":211733203},{"NoteNumber":66,"Velocity":60,"Duration":149045,"SoundDuration":149045,"Delta":211884690},{"NoteNumber":50,"Velocity":51,"Duration":149045,"SoundDuration":149045,"Delta":211884690},{"NoteNumber":64,"Velocity":52,"Duration":116411,"SoundDuration":116411,"Delta":212033736},{"NoteNumber":67,"Velocity":60,"Duration":149790,"SoundDuration":149790,"Delta":212188952},{"NoteNumber":52,"Velocity":48,"Duration":149790,"SoundDuration":149790,"Delta":212188952},{"NoteNumber":66,"Velocity":54,"Duration":115812,"SoundDuration":115812,"Delta":212338742},{"NoteNumber":69,"Velocity":60,"Duration":149790,"SoundDuration":149790,"Delta":212493158},{"NoteNumber":54,"Velocity":51,"Duration":149790,"SoundDuration":149790,"Delta":212493158},{"NoteNumber":67,"Velocity":54,"Duration":116411,"SoundDuration":116411,"Delta":212642948},{"NoteNumber":71,"Velocity":64,"Duration":151301,"SoundDuration":151301,"Delta":212798164},{"NoteNumber":55,"Velocity":48,"Duration":151301,"SoundDuration":151301,"Delta":212798164},{"NoteNumber":69,"Velocity":58,"Duration":122229,"SoundDuration":122229,"Delta":212949465},{"NoteNumber":72,"Velocity":68,"Duration":148456,"SoundDuration":148456,"Delta":213112437},{"NoteNumber":57,"Velocity":56,"Duration":593823,"SoundDuration":593823,"Delta":213112437},{"NoteNumber":71,"Velocity":65,"Duration":148455,"SoundDuration":148455,"Delta":213260893},{"NoteNumber":69,"Velocity":64,"Duration":148456,"SoundDuration":148456,"Delta":213409349},{"NoteNumber":67,"Velocity":63,"Duration":148455,"SoundDuration":148455,"Delta":213557805},{"NoteNumber":66,"Velocity":61,"Duration":148634,"SoundDuration":148634,"Delta":213706261},{"NoteNumber":64,"Velocity":59,"Duration":149523,"SoundDuration":149523,"Delta":213854896},{"NoteNumber":62,"Velocity":58,"Duration":150423,"SoundDuration":150423,"Delta":214004419},{"NoteNumber":50,"Velocity":48,"Duration":301910,"SoundDuration":301910,"Delta":214004419},{"NoteNumber":60,"Velocity":55,"Duration":151487,"SoundDuration":151487,"Delta":214154843},{"NoteNumber":59,"Velocity":68,"Duration":181510,"SoundDuration":181510,"Delta":214306330},{"NoteNumber":55,"Velocity":56,"Duration":643783,"SoundDuration":643783,"Delta":214306330},{"NoteNumber":71,"Velocity":62,"Duration":152222,"SoundDuration":152222,"Delta":214487840},{"NoteNumber":70,"Velocity":68,"Duration":152222,"SoundDuration":152222,"Delta":214640063},{"NoteNumber":71,"Velocity":62,"Duration":157828,"SoundDuration":157828,"Delta":214792285},{"NoteNumber":69,"Velocity":68,"Duration":151454,"SoundDuration":151454,"Delta":214950113},{"NoteNumber":67,"Velocity":65,"Duration":151454,"SoundDuration":151454,"Delta":215101567},{"NoteNumber":66,"Velocity":65,"Duration":151454,"SoundDuration":151454,"Delta":215253021},{"NoteNumber":64,"Velocity":65,"Duration":151454,"SoundDuration":151454,"Delta":215404475},{"NoteNumber":63,"Velocity":68,"Duration":152998,"SoundDuration":152998,"Delta":215555929},{"NoteNumber":43,"Velocity":56,"Duration":622310,"SoundDuration":622310,"Delta":215555929},{"NoteNumber":64,"Velocity":61,"Duration":152998,"SoundDuration":152998,"Delta":215708928},{"NoteNumber":66,"Velocity":61,"Duration":152998,"SoundDuration":152998,"Delta":215861927},{"NoteNumber":64,"Velocity":61,"Duration":163314,"SoundDuration":163314,"Delta":216014926},{"NoteNumber":67,"Velocity":68,"Duration":150997,"SoundDuration":150997,"Delta":216178240},{"NoteNumber":66,"Velocity":66,"Duration":152507,"SoundDuration":152507,"Delta":216329237},{"NoteNumber":64,"Velocity":63,"Duration":154139,"SoundDuration":154139,"Delta":216481745},{"NoteNumber":62,"Velocity":62,"Duration":143425,"SoundDuration":143425,"Delta":216635885},{"NoteNumber":62,"Velocity":68,"Duration":1226612,"SoundDuration":1226612,"Delta":216792532},{"NoteNumber":45,"Velocity":62,"Duration":158199,"SoundDuration":158199,"Delta":216792532},{"NoteNumber":47,"Velocity":54,"Duration":155295,"SoundDuration":155295,"Delta":216950732},{"NoteNumber":49,"Velocity":54,"Duration":154337,"SoundDuration":154337,"Delta":217106028},{"NoteNumber":50,"Velocity":55,"Duration":153515,"SoundDuration":153515,"Delta":217260366},{"NoteNumber":52,"Velocity":57,"Duration":152578,"SoundDuration":152578,"Delta":217413881},{"NoteNumber":54,"Velocity":55,"Duration":151774,"SoundDuration":151774,"Delta":217566459},{"NoteNumber":55,"Velocity":55,"Duration":150858,"SoundDuration":150858,"Delta":217718233},{"NoteNumber":54,"Velocity":55,"Duration":150053,"SoundDuration":150053,"Delta":217869092},{"NoteNumber":61,"Velocity":64,"Duration":149194,"SoundDuration":149194,"Delta":218019145},{"NoteNumber":55,"Velocity":63,"Duration":596777,"SoundDuration":596777,"Delta":218019145},{"NoteNumber":57,"Velocity":55,"Duration":149194,"SoundDuration":149194,"Delta":218168339},{"NoteNumber":64,"Velocity":64,"Duration":149194,"SoundDuration":149194,"Delta":218317533},{"NoteNumber":61,"Velocity":59,"Duration":149194,"SoundDuration":149194,"Delta":218466727},{"NoteNumber":67,"Velocity":66,"Duration":149194,"SoundDuration":149194,"Delta":218615922},{"NoteNumber":64,"Velocity":59,"Duration":149194,"SoundDuration":149194,"Delta":218765116},{"NoteNumber":73,"Velocity":66,"Duration":149194,"SoundDuration":149194,"Delta":218914310},{"NoteNumber":67,"Velocity":59,"Duration":148224,"SoundDuration":148224,"Delta":219063504},{"NoteNumber":76,"Velocity":69,"Duration":148393,"SoundDuration":148393,"Delta":219211729},{"NoteNumber":73,"Velocity":62,"Duration":153007,"SoundDuration":153007,"Delta":219360123},{"NoteNumber":79,"Velocity":70,"Duration":157484,"SoundDuration":157484,"Delta":219513130},{"NoteNumber":76,"Velocity":64,"Duration":166664,"SoundDuration":166664,"Delta":219670614},{"NoteNumber":83,"Velocity":74,"Duration":338447,"SoundDuration":338447,"Delta":219837279},{"NoteNumber":82,"Velocity":47,"Duration":156184,"SoundDuration":156184,"Delta":221315243},{"NoteNumber":83,"Velocity":50,"Duration":156185,"SoundDuration":156185,"Delta":221471428},{"NoteNumber":82,"Velocity":47,"Duration":156184,"SoundDuration":156184,"Delta":221627613},{"NoteNumber":83,"Velocity":51,"Duration":156184,"SoundDuration":156184,"Delta":221783798},{"NoteNumber":82,"Velocity":47,"Duration":156184,"SoundDuration":156184,"Delta":222564723},{"NoteNumber":83,"Velocity":50,"Duration":156184,"SoundDuration":156184,"Delta":222720908},{"NoteNumber":82,"Velocity":47,"Duration":156185,"SoundDuration":156185,"Delta":222877093},{"NoteNumber":83,"Velocity":51,"Duration":156184,"SoundDuration":156184,"Delta":223033278},{"NoteNumber":82,"Velocity":59,"Duration":156184,"SoundDuration":156184,"Delta":223814203},{"NoteNumber":83,"Velocity":63,"Duration":156184,"SoundDuration":156184,"Delta":223970388},{"NoteNumber":82,"Velocity":59,"Duration":156247,"SoundDuration":156247,"Delta":224126573},{"NoteNumber":83,"Velocity":66,"Duration":156149,"SoundDuration":156149,"Delta":224282821},{"NoteNumber":85,"Velocity":70,"Duration":153656,"SoundDuration":153656,"Delta":224438970},{"NoteNumber":86,"Velocity":71,"Duration":151557,"SoundDuration":151557,"Delta":224592627},{"NoteNumber":85,"Velocity":69,"Duration":152372,"SoundDuration":152372,"Delta":224744184},{"NoteNumber":83,"Velocity":70,"Duration":153333,"SoundDuration":153333,"Delta":224896557},{"NoteNumber":81,"Velocity":68,"Duration":154279,"SoundDuration":154279,"Delta":225049890},{"NoteNumber":79,"Velocity":66,"Duration":155237,"SoundDuration":155237,"Delta":225204170},{"NoteNumber":78,"Velocity":66,"Duration":156013,"SoundDuration":156013,"Delta":225359407},{"NoteNumber":79,"Velocity":69,"Duration":154540,"SoundDuration":154540,"Delta":225515420},{"NoteNumber":71,"Velocity":58,"Duration":154540,"SoundDuration":154540,"Delta":225515420},{"NoteNumber":81,"Velocity":72,"Duration":151726,"SoundDuration":151726,"Delta":225669961},{"NoteNumber":73,"Velocity":61,"Duration":151726,"SoundDuration":151726,"Delta":225669961},{"NoteNumber":83,"Velocity":75,"Duration":149469,"SoundDuration":149469,"Delta":225821688},{"NoteNumber":74,"Velocity":62,"Duration":149469,"SoundDuration":149469,"Delta":225821688},{"NoteNumber":81,"Velocity":71,"Duration":149848,"SoundDuration":149848,"Delta":225971157},{"NoteNumber":73,"Velocity":58,"Duration":149848,"SoundDuration":149848,"Delta":225971157},{"NoteNumber":79,"Velocity":70,"Duration":150776,"SoundDuration":150776,"Delta":226121005},{"NoteNumber":71,"Velocity":56,"Duration":150776,"SoundDuration":150776,"Delta":226121005},{"NoteNumber":78,"Velocity":68,"Duration":151691,"SoundDuration":151691,"Delta":226271782},{"NoteNumber":69,"Velocity":55,"Duration":151691,"SoundDuration":151691,"Delta":226271782},{"NoteNumber":76,"Velocity":66,"Duration":152665,"SoundDuration":152665,"Delta":226423474},{"NoteNumber":67,"Velocity":56,"Duration":152665,"SoundDuration":152665,"Delta":226423474},{"NoteNumber":75,"Velocity":65,"Duration":153505,"SoundDuration":153505,"Delta":226576140},{"NoteNumber":66,"Velocity":53,"Duration":153505,"SoundDuration":153505,"Delta":226576140},{"NoteNumber":76,"Velocity":69,"Duration":151417,"SoundDuration":151417,"Delta":226729646},{"NoteNumber":67,"Velocity":58,"Duration":151417,"SoundDuration":151417,"Delta":226729646},{"NoteNumber":78,"Velocity":72,"Duration":148238,"SoundDuration":148238,"Delta":226881063},{"NoteNumber":69,"Velocity":61,"Duration":148238,"SoundDuration":148238,"Delta":226881063},{"NoteNumber":79,"Velocity":75,"Duration":146650,"SoundDuration":146650,"Delta":227029302},{"NoteNumber":71,"Velocity":62,"Duration":146650,"SoundDuration":146650,"Delta":227029302},{"NoteNumber":78,"Velocity":71,"Duration":147751,"SoundDuration":147751,"Delta":227175952},{"NoteNumber":69,"Velocity":58,"Duration":147751,"SoundDuration":147751,"Delta":227175952},{"NoteNumber":76,"Velocity":70,"Duration":149045,"SoundDuration":149045,"Delta":227323704},{"NoteNumber":67,"Velocity":56,"Duration":149045,"SoundDuration":149045,"Delta":227323704},{"NoteNumber":74,"Velocity":68,"Duration":150379,"SoundDuration":150379,"Delta":227472750},{"NoteNumber":66,"Velocity":55,"Duration":150379,"SoundDuration":150379,"Delta":227472750},{"NoteNumber":73,"Velocity":66,"Duration":151640,"SoundDuration":151640,"Delta":227623129},{"NoteNumber":64,"Velocity":56,"Duration":151640,"SoundDuration":151640,"Delta":227623129},{"NoteNumber":71,"Velocity":58,"Duration":152877,"SoundDuration":152877,"Delta":227774769},{"NoteNumber":62,"Velocity":53,"Duration":152877,"SoundDuration":152877,"Delta":227774769},{"NoteNumber":69,"Velocity":64,"Duration":149045,"SoundDuration":149045,"Delta":227927646},{"NoteNumber":61,"Velocity":56,"Duration":894275,"SoundDuration":894275,"Delta":227927646},{"NoteNumber":71,"Velocity":51,"Duration":149045,"SoundDuration":149045,"Delta":228076692},{"NoteNumber":68,"Velocity":57,"Duration":149045,"SoundDuration":149045,"Delta":228225738},{"NoteNumber":71,"Velocity":48,"Duration":149045,"SoundDuration":149045,"Delta":228374784},{"NoteNumber":69,"Velocity":57,"Duration":149045,"SoundDuration":149045,"Delta":228523830},{"NoteNumber":71,"Velocity":49,"Duration":149045,"SoundDuration":149045,"Delta":228672876},{"NoteNumber":68,"Velocity":56,"Duration":149045,"SoundDuration":149045,"Delta":228821922},{"NoteNumber":62,"Velocity":50,"Duration":149045,"SoundDuration":149045,"Delta":228821922},{"NoteNumber":71,"Velocity":49,"Duration":165672,"SoundDuration":165672,"Delta":228970968},{"NoteNumber":69,"Velocity":66,"Duration":151301,"SoundDuration":151301,"Delta":229136641},{"NoteNumber":61,"Velocity":56,"Duration":151301,"SoundDuration":151301,"Delta":229136641},{"NoteNumber":71,"Velocity":56,"Duration":151301,"SoundDuration":151301,"Delta":229287942},{"NoteNumber":68,"Velocity":62,"Duration":149238,"SoundDuration":149238,"Delta":229439244},{"NoteNumber":62,"Velocity":51,"Duration":149238,"SoundDuration":149238,"Delta":229439244},{"NoteNumber":71,"Velocity":54,"Duration":149238,"SoundDuration":149238,"Delta":229588483},{"NoteNumber":69,"Velocity":63,"Duration":149238,"SoundDuration":149238,"Delta":229737722},{"NoteNumber":61,"Velocity":56,"Duration":149238,"SoundDuration":149238,"Delta":229737722},{"NoteNumber":71,"Velocity":56,"Duration":149238,"SoundDuration":149238,"Delta":229886961},{"NoteNumber":66,"Velocity":63,"Duration":149239,"SoundDuration":149239,"Delta":230036200},{"NoteNumber":63,"Velocity":52,"Duration":149239,"SoundDuration":149239,"Delta":230036200},{"NoteNumber":69,"Velocity":56,"Duration":163862,"SoundDuration":163862,"Delta":230185439},{"NoteNumber":67,"Velocity":64,"Duration":147725,"SoundDuration":147725,"Delta":230349301},{"NoteNumber":57,"Velocity":48,"Duration":2420670,"SoundDuration":2420670,"Delta":230349301},{"NoteNumber":64,"Velocity":56,"Duration":886349,"SoundDuration":886349,"Delta":230349301},{"NoteNumber":69,"Velocity":50,"Duration":147724,"SoundDuration":147724,"Delta":230497026},{"NoteNumber":66,"Velocity":57,"Duration":147725,"SoundDuration":147725,"Delta":230644751},{"NoteNumber":69,"Velocity":50,"Duration":147725,"SoundDuration":147725,"Delta":230792476},{"NoteNumber":67,"Velocity":56,"Duration":147725,"SoundDuration":147725,"Delta":230940201},{"NoteNumber":69,"Velocity":50,"Duration":147724,"SoundDuration":147724,"Delta":231087926},{"NoteNumber":66,"Velocity":57,"Duration":147725,"SoundDuration":147725,"Delta":231235651},{"NoteNumber":63,"Velocity":50,"Duration":147725,"SoundDuration":147725,"Delta":231235651},{"NoteNumber":69,"Velocity":49,"Duration":165672,"SoundDuration":165672,"Delta":231383376},{"NoteNumber":67,"Velocity":66,"Duration":149045,"SoundDuration":149045,"Delta":231549049},{"NoteNumber":64,"Velocity":56,"Duration":149045,"SoundDuration":149045,"Delta":231549049},{"NoteNumber":69,"Velocity":56,"Duration":149045,"SoundDuration":149045,"Delta":231698095},{"NoteNumber":66,"Velocity":62,"Duration":149045,"SoundDuration":149045,"Delta":231847141},{"NoteNumber":63,"Velocity":51,"Duration":149045,"SoundDuration":149045,"Delta":231847141},{"NoteNumber":69,"Velocity":49,"Duration":149045,"SoundDuration":149045,"Delta":231996187},{"NoteNumber":67,"Velocity":58,"Duration":153625,"SoundDuration":153625,"Delta":232145233},{"NoteNumber":64,"Velocity":56,"Duration":153625,"SoundDuration":153625,"Delta":232145233},{"NoteNumber":69,"Velocity":48,"Duration":153625,"SoundDuration":153625,"Delta":232298859},{"NoteNumber":66,"Velocity":57,"Duration":153625,"SoundDuration":153625,"Delta":232452484},{"NoteNumber":63,"Velocity":52,"Duration":153625,"SoundDuration":153625,"Delta":232452484},{"NoteNumber":69,"Velocity":50,"Duration":163862,"SoundDuration":163862,"Delta":232606110},{"NoteNumber":67,"Velocity":59,"Duration":458996,"SoundDuration":458996,"Delta":232769972},{"NoteNumber":57,"Velocity":43,"Duration":3290684,"SoundDuration":3290684,"Delta":232769972},{"NoteNumber":64,"Velocity":50,"Duration":458996,"SoundDuration":458996,"Delta":232769972},{"NoteNumber":66,"Velocity":47,"Duration":165672,"SoundDuration":165672,"Delta":233228969},{"NoteNumber":63,"Velocity":39,"Duration":165672,"SoundDuration":165672,"Delta":233228969},{"NoteNumber":67,"Velocity":49,"Duration":458996,"SoundDuration":458996,"Delta":233394641},{"NoteNumber":64,"Velocity":41,"Duration":458996,"SoundDuration":458996,"Delta":233394641},{"NoteNumber":66,"Velocity":41,"Duration":170377,"SoundDuration":170377,"Delta":233853638},{"NoteNumber":63,"Velocity":35,"Duration":170377,"SoundDuration":170377,"Delta":233853638},{"NoteNumber":67,"Velocity":46,"Duration":468555,"SoundDuration":468555,"Delta":234024015},{"NoteNumber":64,"Velocity":39,"Duration":468555,"SoundDuration":468555,"Delta":234024015},{"NoteNumber":66,"Velocity":36,"Duration":187954,"SoundDuration":187954,"Delta":234492570},{"NoteNumber":63,"Velocity":31,"Duration":187954,"SoundDuration":187954,"Delta":234492570},{"NoteNumber":67,"Velocity":40,"Duration":176647,"SoundDuration":176647,"Delta":234664904},{"NoteNumber":64,"Velocity":34,"Duration":176647,"SoundDuration":176647,"Delta":234664904},{"NoteNumber":66,"Velocity":35,"Duration":183646,"SoundDuration":183646,"Delta":234825165},{"NoteNumber":63,"Velocity":30,"Duration":183646,"SoundDuration":183646,"Delta":234825165},{"NoteNumber":67,"Velocity":37,"Duration":191249,"SoundDuration":191249,"Delta":234991774},{"NoteNumber":64,"Velocity":32,"Duration":191249,"SoundDuration":191249,"Delta":234991774},{"NoteNumber":66,"Velocity":33,"Duration":199322,"SoundDuration":199322,"Delta":235165237},{"NoteNumber":63,"Velocity":28,"Duration":199322,"SoundDuration":199322,"Delta":235165237},{"NoteNumber":67,"Velocity":35,"Duration":714489,"SoundDuration":714489,"Delta":235346167},{"NoteNumber":64,"Velocity":30,"Duration":714489,"SoundDuration":714489,"Delta":235346167},{"NoteNumber":57,"Velocity":32,"Duration":76891,"SoundDuration":76891,"Delta":236723348},{"NoteNumber":61,"Velocity":34,"Duration":76891,"SoundDuration":76891,"Delta":236800239},{"NoteNumber":64,"Velocity":37,"Duration":76891,"SoundDuration":76891,"Delta":236877131},{"NoteNumber":67,"Velocity":38,"Duration":76891,"SoundDuration":76891,"Delta":236954022},{"NoteNumber":69,"Velocity":35,"Duration":76891,"SoundDuration":76891,"Delta":237030914},{"NoteNumber":73,"Velocity":38,"Duration":76891,"SoundDuration":76891,"Delta":237107805},{"NoteNumber":76,"Velocity":40,"Duration":76891,"SoundDuration":76891,"Delta":237184697},{"NoteNumber":79,"Velocity":45,"Duration":76891,"SoundDuration":76891,"Delta":237261588},{"NoteNumber":57,"Velocity":83,"Duration":71551,"SoundDuration":71551,"Delta":238427409},{"NoteNumber":62,"Velocity":66,"Duration":71551,"SoundDuration":71551,"Delta":238498960},{"NoteNumber":66,"Velocity":66,"Duration":72365,"SoundDuration":72365,"Delta":238570511},{"NoteNumber":69,"Velocity":66,"Duration":127899,"SoundDuration":127899,"Delta":238642877},{"NoteNumber":66,"Velocity":86,"Duration":296823,"SoundDuration":296823,"Delta":238770776},{"NoteNumber":50,"Velocity":75,"Duration":605085,"SoundDuration":605085,"Delta":238770776},{"NoteNumber":38,"Velocity":63,"Duration":605085,"SoundDuration":605085,"Delta":238770776},{"NoteNumber":62,"Velocity":77,"Duration":308261,"SoundDuration":308261,"Delta":239067600},{"NoteNumber":74,"Velocity":56,"Duration":74902,"SoundDuration":74902,"Delta":239375861},{"NoteNumber":69,"Velocity":52,"Duration":79753,"SoundDuration":79753,"Delta":239675472},{"NoteNumber":66,"Velocity":42,"Duration":79753,"SoundDuration":79753,"Delta":239675472},{"NoteNumber":62,"Velocity":36,"Duration":79753,"SoundDuration":79753,"Delta":239675472},{"NoteNumber":71,"Velocity":55,"Duration":66976,"SoundDuration":66976,"Delta":239994485},{"NoteNumber":67,"Velocity":48,"Duration":267905,"SoundDuration":267905,"Delta":239994485},{"NoteNumber":62,"Velocity":40,"Duration":267905,"SoundDuration":267905,"Delta":239994485},{"NoteNumber":73,"Velocity":49,"Duration":66976,"SoundDuration":66976,"Delta":240061461},{"NoteNumber":71,"Velocity":60,"Duration":133952,"SoundDuration":133952,"Delta":240128437},{"NoteNumber":69,"Velocity":56,"Duration":504456,"SoundDuration":504456,"Delta":240262390},{"NoteNumber":66,"Velocity":40,"Duration":504456,"SoundDuration":504456,"Delta":240262390},{"NoteNumber":62,"Velocity":34,"Duration":504456,"SoundDuration":504456,"Delta":240262390},{"NoteNumber":57,"Velocity":83,"Duration":71551,"SoundDuration":71551,"Delta":241053051},{"NoteNumber":62,"Velocity":66,"Duration":71551,"SoundDuration":71551,"Delta":241124602},{"NoteNumber":66,"Velocity":66,"Duration":71551,"SoundDuration":71551,"Delta":241196153},{"NoteNumber":69,"Velocity":66,"Duration":120695,"SoundDuration":120695,"Delta":241267705},{"NoteNumber":66,"Velocity":86,"Duration":299610,"SoundDuration":299610,"Delta":241388400},{"NoteNumber":50,"Velocity":75,"Duration":615466,"SoundDuration":615466,"Delta":241388400},{"NoteNumber":38,"Velocity":63,"Duration":615466,"SoundDuration":615466,"Delta":241388400},{"NoteNumber":62,"Velocity":77,"Duration":315855,"SoundDuration":315855,"Delta":241688010},{"NoteNumber":78,"Velocity":56,"Duration":75964,"SoundDuration":75964,"Delta":242003866},{"NoteNumber":81,"Velocity":64,"Duration":75964,"SoundDuration":75964,"Delta":242003866},{"NoteNumber":74,"Velocity":52,"Duration":75964,"SoundDuration":75964,"Delta":242307725},{"NoteNumber":78,"Velocity":60,"Duration":75964,"SoundDuration":75964,"Delta":242307725},{"NoteNumber":62,"Velocity":42,"Duration":75964,"SoundDuration":75964,"Delta":242307725},{"NoteNumber":76,"Velocity":46,"Duration":267905,"SoundDuration":267905,"Delta":242625340},{"NoteNumber":79,"Velocity":55,"Duration":66976,"SoundDuration":66976,"Delta":242625340},{"NoteNumber":57,"Velocity":48,"Duration":267905,"SoundDuration":267905,"Delta":242625340},{"NoteNumber":81,"Velocity":49,"Duration":66976,"SoundDuration":66976,"Delta":242692316},{"NoteNumber":79,"Velocity":60,"Duration":133952,"SoundDuration":133952,"Delta":242759292},{"NoteNumber":74,"Velocity":47,"Duration":512470,"SoundDuration":512470,"Delta":242893245},{"NoteNumber":78,"Velocity":56,"Duration":512470,"SoundDuration":512470,"Delta":242893245},{"NoteNumber":62,"Velocity":40,"Duration":512470,"SoundDuration":512470,"Delta":242893245},{"NoteNumber":74,"Velocity":60,"Duration":71873,"SoundDuration":71873,"Delta":243693209},{"NoteNumber":78,"Velocity":51,"Duration":71873,"SoundDuration":71873,"Delta":243765082},{"NoteNumber":81,"Velocity":52,"Duration":80068,"SoundDuration":80068,"Delta":243836956},{"NoteNumber":86,"Velocity":52,"Duration":80068,"SoundDuration":80068,"Delta":243917024},{"NoteNumber":72,"Velocity":67,"Duration":960820,"SoundDuration":960820,"Delta":243997093},{"NoteNumber":62,"Velocity":40,"Duration":80068,"SoundDuration":80068,"Delta":244317366},{"NoteNumber":54,"Velocity":40,"Duration":80068,"SoundDuration":80068,"Delta":244317366},{"NoteNumber":62,"Velocity":45,"Duration":80068,"SoundDuration":80068,"Delta":244637640},{"NoteNumber":54,"Velocity":45,"Duration":80068,"SoundDuration":80068,"Delta":244637640},{"NoteNumber":84,"Velocity":60,"Duration":72526,"SoundDuration":72526,"Delta":244957913},{"NoteNumber":81,"Velocity":51,"Duration":72857,"SoundDuration":72857,"Delta":245030440},{"NoteNumber":78,"Velocity":52,"Duration":73184,"SoundDuration":73184,"Delta":245103298},{"NoteNumber":72,"Velocity":52,"Duration":91608,"SoundDuration":91608,"Delta":245176483},{"NoteNumber":71,"Velocity":67,"Duration":957039,"SoundDuration":957039,"Delta":245268092},{"NoteNumber":62,"Velocity":40,"Duration":79753,"SoundDuration":79753,"Delta":245587105},{"NoteNumber":55,"Velocity":40,"Duration":79753,"SoundDuration":79753,"Delta":245587105},{"NoteNumber":62,"Velocity":45,"Duration":79753,"SoundDuration":79753,"Delta":245906118},{"NoteNumber":55,"Velocity":45,"Duration":79753,"SoundDuration":79753,"Delta":245906118},{"NoteNumber":71,"Velocity":60,"Duration":72526,"SoundDuration":72526,"Delta":246225131},{"NoteNumber":74,"Velocity":51,"Duration":72526,"SoundDuration":72526,"Delta":246297657},{"NoteNumber":79,"Velocity":52,"Duration":73184,"SoundDuration":73184,"Delta":246370184},{"NoteNumber":83,"Velocity":52,"Duration":86655,"SoundDuration":86655,"Delta":246443369},{"NoteNumber":78,"Velocity":54,"Duration":75964,"SoundDuration":75964,"Delta":246530024},{"NoteNumber":81,"Velocity":64,"Duration":75964,"SoundDuration":75964,"Delta":246530024},{"NoteNumber":57,"Velocity":46,"Duration":622872,"SoundDuration":622872,"Delta":246530024},{"NoteNumber":74,"Velocity":44,"Duration":79753,"SoundDuration":79753,"Delta":246833883},{"NoteNumber":78,"Velocity":53,"Duration":79753,"SoundDuration":79753,"Delta":246833883},{"NoteNumber":79,"Velocity":59,"Duration":76695,"SoundDuration":76695,"Delta":247152896},{"NoteNumber":76,"Velocity":49,"Duration":76695,"SoundDuration":76695,"Delta":247152896},{"NoteNumber":45,"Velocity":40,"Duration":677470,"SoundDuration":677470,"Delta":247152896},{"NoteNumber":73,"Velocity":44,"Duration":92672,"SoundDuration":92672,"Delta":247459676},{"NoteNumber":76,"Velocity":44,"Duration":92672,"SoundDuration":92672,"Delta":247459676},{"NoteNumber":76,"Velocity":50,"Duration":674992,"SoundDuration":674992,"Delta":247830367},{"NoteNumber":73,"Velocity":42,"Duration":674992,"SoundDuration":674992,"Delta":247830367},{"NoteNumber":50,"Velocity":36,"Duration":674992,"SoundDuration":674992,"Delta":247830367},{"NoteNumber":78,"Velocity":40,"Duration":408552,"SoundDuration":408552,"Delta":248505359},{"NoteNumber":74,"Velocity":33,"Duration":408552,"SoundDuration":408552,"Delta":248505359},{"NoteNumber":38,"Velocity":32,"Duration":408552,"SoundDuration":408552,"Delta":248505359},{"NoteNumber":74,"Velocity":60,"Duration":74154,"SoundDuration":74154,"Delta":248913911},{"NoteNumber":78,"Velocity":51,"Duration":74154,"SoundDuration":74154,"Delta":248988066},{"NoteNumber":81,"Velocity":52,"Duration":74154,"SoundDuration":74154,"Delta":249062221},{"NoteNumber":86,"Velocity":52,"Duration":96599,"SoundDuration":96599,"Delta":249136375},{"NoteNumber":72,"Velocity":67,"Duration":956023,"SoundDuration":956023,"Delta":249232975},{"NoteNumber":62,"Velocity":40,"Duration":79668,"SoundDuration":79668,"Delta":249551650},{"NoteNumber":54,"Velocity":40,"Duration":79668,"SoundDuration":79668,"Delta":249551650},{"NoteNumber":62,"Velocity":45,"Duration":79668,"SoundDuration":79668,"Delta":249870324},{"NoteNumber":54,"Velocity":45,"Duration":79668,"SoundDuration":79668,"Delta":249870324},{"NoteNumber":84,"Velocity":60,"Duration":72526,"SoundDuration":72526,"Delta":250188999},{"NoteNumber":81,"Velocity":51,"Duration":72857,"SoundDuration":72857,"Delta":250261525},{"NoteNumber":78,"Velocity":52,"Duration":73184,"SoundDuration":73184,"Delta":250334383},{"NoteNumber":72,"Velocity":52,"Duration":91608,"SoundDuration":91608,"Delta":250407568},{"NoteNumber":71,"Velocity":67,"Duration":957039,"SoundDuration":957039,"Delta":250499177},{"NoteNumber":62,"Velocity":40,"Duration":79753,"SoundDuration":79753,"Delta":250818190},{"NoteNumber":55,"Velocity":40,"Duration":79753,"SoundDuration":79753,"Delta":250818190},{"NoteNumber":62,"Velocity":45,"Duration":79753,"SoundDuration":79753,"Delta":251137203},{"NoteNumber":55,"Velocity":45,"Duration":79753,"SoundDuration":79753,"Delta":251137203},{"NoteNumber":83,"Velocity":60,"Duration":106337,"SoundDuration":106337,"Delta":251456216},{"NoteNumber":85,"Velocity":56,"Duration":106337,"SoundDuration":106337,"Delta":251562554},{"NoteNumber":86,"Velocity":56,"Duration":106337,"SoundDuration":106337,"Delta":251668891},{"NoteNumber":85,"Velocity":60,"Duration":103479,"SoundDuration":103479,"Delta":251775229},{"NoteNumber":57,"Velocity":48,"Duration":309286,"SoundDuration":309286,"Delta":251775229},{"NoteNumber":83,"Velocity":55,"Duration":102753,"SoundDuration":102753,"Delta":251878708},{"NoteNumber":81,"Velocity":51,"Duration":103053,"SoundDuration":103053,"Delta":251981462},{"NoteNumber":79,"Velocity":59,"Duration":103252,"SoundDuration":103252,"Delta":252084515},{"NoteNumber":78,"Velocity":51,"Duration":103585,"SoundDuration":103585,"Delta":252187768},{"NoteNumber":76,"Velocity":51,"Duration":103745,"SoundDuration":103745,"Delta":252291353},{"NoteNumber":74,"Velocity":55,"Duration":104132,"SoundDuration":104132,"Delta":252395098},{"NoteNumber":45,"Velocity":39,"Duration":312639,"SoundDuration":312639,"Delta":252395098},{"NoteNumber":73,"Velocity":49,"Duration":104253,"SoundDuration":104253,"Delta":252499231},{"NoteNumber":71,"Velocity":49,"Duration":104253,"SoundDuration":104253,"Delta":252603484},{"NoteNumber":69,"Velocity":52,"Duration":78190,"SoundDuration":78190,"Delta":252707738},{"NoteNumber":67,"Velocity":49,"Duration":79493,"SoundDuration":79493,"Delta":252785928},{"NoteNumber":66,"Velocity":49,"Duration":82432,"SoundDuration":82432,"Delta":252865422},{"NoteNumber":64,"Velocity":48,"Duration":85621,"SoundDuration":85621,"Delta":252947855},{"NoteNumber":62,"Velocity":60,"Duration":704722,"SoundDuration":704722,"Delta":253033476},{"NoteNumber":38,"Velocity":48,"Duration":704722,"SoundDuration":704722,"Delta":253033476},{"NoteNumber":57,"Velocity":53,"Duration":320376,"SoundDuration":320376,"Delta":254090559},{"NoteNumber":62,"Velocity":60,"Duration":152068,"SoundDuration":152068,"Delta":254410935},{"NoteNumber":61,"Velocity":52,"Duration":125502,"SoundDuration":125502,"Delta":254563004},{"NoteNumber":64,"Velocity":60,"Duration":149045,"SoundDuration":149045,"Delta":254730340},{"NoteNumber":62,"Velocity":54,"Duration":124805,"SoundDuration":124805,"Delta":254879386},{"NoteNumber":66,"Velocity":60,"Duration":147579,"SoundDuration":147579,"Delta":255045793},{"NoteNumber":64,"Velocity":54,"Duration":123436,"SoundDuration":123436,"Delta":255193373},{"NoteNumber":67,"Velocity":60,"Duration":155215,"SoundDuration":155215,"Delta":255357955},{"NoteNumber":66,"Velocity":49,"Duration":141260,"SoundDuration":141260,"Delta":255513170},{"NoteNumber":66,"Velocity":57,"Duration":721674,"SoundDuration":721674,"Delta":255701518},{"NoteNumber":62,"Velocity":48,"Duration":721674,"SoundDuration":721674,"Delta":255701518},{"NoteNumber":56,"Velocity":43,"Duration":360837,"SoundDuration":360837,"Delta":256062355},{"NoteNumber":64,"Velocity":50,"Duration":252411,"SoundDuration":252411,"Delta":256423192},{"NoteNumber":61,"Velocity":42,"Duration":252411,"SoundDuration":252411,"Delta":256423192},{"NoteNumber":57,"Velocity":48,"Duration":252411,"SoundDuration":252411,"Delta":256423192},{"NoteNumber":57,"Velocity":53,"Duration":320376,"SoundDuration":320376,"Delta":256759741},{"NoteNumber":64,"Velocity":60,"Duration":149045,"SoundDuration":149045,"Delta":257080117},{"NoteNumber":63,"Velocity":52,"Duration":120954,"SoundDuration":120954,"Delta":257229163},{"NoteNumber":66,"Velocity":60,"Duration":149790,"SoundDuration":149790,"Delta":257390436},{"NoteNumber":64,"Velocity":54,"Duration":120308,"SoundDuration":120308,"Delta":257540226},{"NoteNumber":67,"Velocity":60,"Duration":149790,"SoundDuration":149790,"Delta":257700637},{"NoteNumber":66,"Velocity":54,"Duration":119034,"SoundDuration":119034,"Delta":257850427},{"NoteNumber":69,"Velocity":60,"Duration":151301,"SoundDuration":151301,"Delta":258009140},{"NoteNumber":67,"Velocity":49,"Duration":148006,"SoundDuration":148006,"Delta":258160442},{"NoteNumber":67,"Velocity":57,"Duration":672344,"SoundDuration":672344,"Delta":258357784},{"NoteNumber":64,"Velocity":48,"Duration":672344,"SoundDuration":672344,"Delta":258357784},{"NoteNumber":58,"Velocity":43,"Duration":336172,"SoundDuration":336172,"Delta":258693956},{"NoteNumber":66,"Velocity":50,"Duration":252128,"SoundDuration":252128,"Delta":259030128},{"NoteNumber":62,"Velocity":42,"Duration":252128,"SoundDuration":252128,"Delta":259030128},{"NoteNumber":59,"Velocity":48,"Duration":252128,"SoundDuration":252128,"Delta":259030128},{"NoteNumber":62,"Velocity":58,"Duration":320376,"SoundDuration":320376,"Delta":259366300},{"NoteNumber":67,"Velocity":66,"Duration":152068,"SoundDuration":152068,"Delta":259686676},{"NoteNumber":66,"Velocity":57,"Duration":122937,"SoundDuration":122937,"Delta":259838744},{"NoteNumber":69,"Velocity":66,"Duration":150541,"SoundDuration":150541,"Delta":260002661},{"NoteNumber":67,"Velocity":59,"Duration":120954,"SoundDuration":120954,"Delta":260153203},{"NoteNumber":71,"Velocity":66,"Duration":150541,"SoundDuration":150541,"Delta":260314476},{"NoteNumber":69,"Velocity":59,"Duration":123436,"SoundDuration":123436,"Delta":260465018},{"NoteNumber":74,"Velocity":66,"Duration":158495,"SoundDuration":158495,"Delta":260629600},{"NoteNumber":73,"Velocity":53,"Duration":141260,"SoundDuration":141260,"Delta":260788095},{"NoteNumber":71,"Velocity":62,"Duration":157662,"SoundDuration":157662,"Delta":260976443},{"NoteNumber":55,"Velocity":52,"Duration":157662,"SoundDuration":157662,"Delta":260976443},{"NoteNumber":62,"Velocity":45,"Duration":151301,"SoundDuration":151301,"Delta":261134105},{"NoteNumber":71,"Velocity":62,"Duration":149790,"SoundDuration":149790,"Delta":261285406},{"NoteNumber":55,"Velocity":54,"Duration":149790,"SoundDuration":149790,"Delta":261285406},{"NoteNumber":74,"Velocity":57,"Duration":177221,"SoundDuration":177221,"Delta":261435197},{"NoteNumber":62,"Velocity":39,"Duration":177221,"SoundDuration":177221,"Delta":261435197},{"NoteNumber":69,"Velocity":62,"Duration":153625,"SoundDuration":153625,"Delta":261612418},{"NoteNumber":54,"Velocity":49,"Duration":153625,"SoundDuration":153625,"Delta":261612418},{"NoteNumber":62,"Velocity":38,"Duration":153625,"SoundDuration":153625,"Delta":261766043},{"NoteNumber":54,"Velocity":49,"Duration":153625,"SoundDuration":153625,"Delta":261919669},{"NoteNumber":62,"Velocity":43,"Duration":167335,"SoundDuration":167335,"Delta":262073294},{"NoteNumber":67,"Velocity":55,"Duration":40047,"SoundDuration":40047,"Delta":262240630},{"NoteNumber":59,"Velocity":52,"Duration":160188,"SoundDuration":160188,"Delta":262240630},{"NoteNumber":66,"Velocity":48,"Duration":40046,"SoundDuration":40046,"Delta":262280677},{"NoteNumber":67,"Velocity":62,"Duration":80094,"SoundDuration":80094,"Delta":262320724},{"NoteNumber":62,"Velocity":45,"Duration":151301,"SoundDuration":151301,"Delta":262400818},{"NoteNumber":67,"Velocity":62,"Duration":153625,"SoundDuration":153625,"Delta":262552120},{"NoteNumber":59,"Velocity":54,"Duration":153625,"SoundDuration":153625,"Delta":262552120},{"NoteNumber":71,"Velocity":57,"Duration":177221,"SoundDuration":177221,"Delta":262705745},{"NoteNumber":62,"Velocity":39,"Duration":177221,"SoundDuration":177221,"Delta":262705745},{"NoteNumber":66,"Velocity":62,"Duration":154416,"SoundDuration":154416,"Delta":262882966},{"NoteNumber":57,"Velocity":49,"Duration":154416,"SoundDuration":154416,"Delta":262882966},{"NoteNumber":62,"Velocity":38,"Duration":154416,"SoundDuration":154416,"Delta":263037383},{"NoteNumber":57,"Velocity":49,"Duration":154416,"SoundDuration":154416,"Delta":263191799},{"NoteNumber":62,"Velocity":43,"Duration":169223,"SoundDuration":169223,"Delta":263346215},{"NoteNumber":71,"Velocity":60,"Duration":39834,"SoundDuration":39834,"Delta":263515439},{"NoteNumber":55,"Velocity":52,"Duration":159337,"SoundDuration":159337,"Delta":263515439},{"NoteNumber":69,"Velocity":52,"Duration":39834,"SoundDuration":39834,"Delta":263555273},{"NoteNumber":71,"Velocity":68,"Duration":79668,"SoundDuration":79668,"Delta":263595107},{"NoteNumber":62,"Velocity":45,"Duration":151301,"SoundDuration":151301,"Delta":263674776},{"NoteNumber":71,"Velocity":68,"Duration":151301,"SoundDuration":151301,"Delta":263826077},{"NoteNumber":55,"Velocity":54,"Duration":151301,"SoundDuration":151301,"Delta":263826077},{"NoteNumber":74,"Velocity":62,"Duration":177221,"SoundDuration":177221,"Delta":263977379},{"NoteNumber":62,"Velocity":39,"Duration":177221,"SoundDuration":177221,"Delta":263977379},{"NoteNumber":69,"Velocity":68,"Duration":152843,"SoundDuration":152843,"Delta":264154600},{"NoteNumber":54,"Velocity":49,"Duration":152843,"SoundDuration":152843,"Delta":264154600},{"NoteNumber":62,"Velocity":38,"Duration":152842,"SoundDuration":152842,"Delta":264307443},{"NoteNumber":54,"Velocity":49,"Duration":152843,"SoundDuration":152843,"Delta":264460286},{"NoteNumber":62,"Velocity":43,"Duration":169223,"SoundDuration":169223,"Delta":264613129},{"NoteNumber":67,"Velocity":55,"Duration":40047,"SoundDuration":40047,"Delta":264782353},{"NoteNumber":59,"Velocity":52,"Duration":160188,"SoundDuration":160188,"Delta":264782353},{"NoteNumber":66,"Velocity":48,"Duration":40046,"SoundDuration":40046,"Delta":264822400},{"NoteNumber":67,"Velocity":62,"Duration":80094,"SoundDuration":80094,"Delta":264862447},{"NoteNumber":62,"Velocity":45,"Duration":152068,"SoundDuration":152068,"Delta":264942541},{"NoteNumber":67,"Velocity":62,"Duration":152068,"SoundDuration":152068,"Delta":265094609},{"NoteNumber":59,"Velocity":54,"Duration":152068,"SoundDuration":152068,"Delta":265094609},{"NoteNumber":71,"Velocity":57,"Duration":178274,"SoundDuration":178274,"Delta":265246677},{"NoteNumber":62,"Velocity":39,"Duration":178274,"SoundDuration":178274,"Delta":265246677},{"NoteNumber":66,"Velocity":62,"Duration":156022,"SoundDuration":156022,"Delta":265424951},{"NoteNumber":57,"Velocity":49,"Duration":156022,"SoundDuration":156022,"Delta":265424951},{"NoteNumber":62,"Velocity":38,"Duration":156022,"SoundDuration":156022,"Delta":265580974},{"NoteNumber":57,"Velocity":49,"Duration":156022,"SoundDuration":156022,"Delta":265736996},{"NoteNumber":62,"Velocity":43,"Duration":184482,"SoundDuration":184482,"Delta":265893019},{"NoteNumber":63,"Velocity":55,"Duration":169353,"SoundDuration":169353,"Delta":266077501},{"NoteNumber":55,"Velocity":52,"Duration":665790,"SoundDuration":665790,"Delta":266077501},{"NoteNumber":64,"Velocity":55,"Duration":167385,"SoundDuration":167385,"Delta":266246855},{"NoteNumber":66,"Velocity":58,"Duration":165461,"SoundDuration":165461,"Delta":266414241},{"NoteNumber":67,"Velocity":58,"Duration":163589,"SoundDuration":163589,"Delta":266579703},{"NoteNumber":69,"Velocity":62,"Duration":161757,"SoundDuration":161757,"Delta":266743292},{"NoteNumber":71,"Velocity":55,"Duration":162506,"SoundDuration":162506,"Delta":266905050},{"NoteNumber":67,"Velocity":61,"Duration":163683,"SoundDuration":163683,"Delta":267067556},{"NoteNumber":55,"Velocity":40,"Duration":383819,"SoundDuration":383819,"Delta":267067556},{"NoteNumber":43,"Velocity":34,"Duration":383819,"SoundDuration":383819,"Delta":267067556},{"NoteNumber":64,"Velocity":51,"Duration":220135,"SoundDuration":220135,"Delta":267231240},{"NoteNumber":62,"Velocity":57,"Duration":1274698,"SoundDuration":1274698,"Delta":267451375},{"NoteNumber":54,"Velocity":48,"Duration":1274698,"SoundDuration":1274698,"Delta":267451375},{"NoteNumber":45,"Velocity":40,"Duration":1593372,"SoundDuration":1593372,"Delta":267451375},{"NoteNumber":61,"Velocity":50,"Duration":318674,"SoundDuration":318674,"Delta":268726073},{"NoteNumber":52,"Velocity":45,"Duration":318674,"SoundDuration":318674,"Delta":268726073},{"NoteNumber":57,"Velocity":74,"Duration":71551,"SoundDuration":71551,"Delta":269682097},{"NoteNumber":61,"Velocity":59,"Duration":71551,"SoundDuration":71551,"Delta":269753648},{"NoteNumber":64,"Velocity":59,"Duration":72365,"SoundDuration":72365,"Delta":269825199},{"NoteNumber":67,"Velocity":59,"Duration":127899,"SoundDuration":127899,"Delta":269897565},{"NoteNumber":64,"Velocity":77,"Duration":315324,"SoundDuration":315324,"Delta":270025464},{"NoteNumber":45,"Velocity":56,"Duration":315324,"SoundDuration":315324,"Delta":270025464},{"NoteNumber":49,"Velocity":56,"Duration":315324,"SoundDuration":315324,"Delta":270025464},{"NoteNumber":55,"Velocity":67,"Duration":315324,"SoundDuration":315324,"Delta":270025464},{"NoteNumber":52,"Velocity":56,"Duration":315324,"SoundDuration":315324,"Delta":270025464},{"NoteNumber":64,"Velocity":79,"Duration":71551,"SoundDuration":71551,"Delta":270340789},{"NoteNumber":67,"Velocity":70,"Duration":71551,"SoundDuration":71551,"Delta":270412340},{"NoteNumber":73,"Velocity":70,"Duration":72365,"SoundDuration":72365,"Delta":270483892},{"NoteNumber":76,"Velocity":70,"Duration":127899,"SoundDuration":127899,"Delta":270556258},{"NoteNumber":73,"Velocity":84,"Duration":313676,"SoundDuration":313676,"Delta":270684157},{"NoteNumber":45,"Velocity":56,"Duration":313676,"SoundDuration":313676,"Delta":270684157},{"NoteNumber":49,"Velocity":56,"Duration":313676,"SoundDuration":313676,"Delta":270684157},{"NoteNumber":55,"Velocity":67,"Duration":313676,"SoundDuration":313676,"Delta":270684157},{"NoteNumber":52,"Velocity":56,"Duration":313676,"SoundDuration":313676,"Delta":270684157},{"NoteNumber":67,"Velocity":87,"Duration":71551,"SoundDuration":71551,"Delta":270997833},{"NoteNumber":73,"Velocity":78,"Duration":71551,"SoundDuration":71551,"Delta":271069384},{"NoteNumber":76,"Velocity":76,"Duration":72365,"SoundDuration":72365,"Delta":271140936},{"NoteNumber":79,"Velocity":78,"Duration":127899,"SoundDuration":127899,"Delta":271213301},{"NoteNumber":76,"Velocity":96,"Duration":313676,"SoundDuration":313676,"Delta":271341200},{"NoteNumber":45,"Velocity":56,"Duration":313676,"SoundDuration":313676,"Delta":271341200},{"NoteNumber":49,"Velocity":56,"Duration":313676,"SoundDuration":313676,"Delta":271341200},{"NoteNumber":55,"Velocity":67,"Duration":313676,"SoundDuration":313676,"Delta":271341200},{"NoteNumber":52,"Velocity":56,"Duration":313676,"SoundDuration":313676,"Delta":271341200},{"NoteNumber":67,"Velocity":61,"Duration":71551,"SoundDuration":71551,"Delta":272266645},{"NoteNumber":64,"Velocity":50,"Duration":71551,"SoundDuration":71551,"Delta":272338197},{"NoteNumber":61,"Velocity":50,"Duration":72365,"SoundDuration":72365,"Delta":272409748},{"NoteNumber":57,"Velocity":50,"Duration":127899,"SoundDuration":127899,"Delta":272482114},{"NoteNumber":55,"Velocity":62,"Duration":1251880,"SoundDuration":1251880,"Delta":272610013},{"NoteNumber":45,"Velocity":46,"Duration":160188,"SoundDuration":160188,"Delta":272610013},{"NoteNumber":52,"Velocity":38,"Duration":155215,"SoundDuration":155215,"Delta":272770201},{"NoteNumber":50,"Velocity":46,"Duration":155215,"SoundDuration":155215,"Delta":272925416},{"NoteNumber":52,"Velocity":39,"Duration":159337,"SoundDuration":159337,"Delta":273080631},{"NoteNumber":49,"Velocity":47,"Duration":153625,"SoundDuration":153625,"Delta":273239969},{"NoteNumber":52,"Velocity":38,"Duration":153625,"SoundDuration":153625,"Delta":273393594},{"NoteNumber":45,"Velocity":49,"Duration":153625,"SoundDuration":153625,"Delta":273547220},{"NoteNumber":49,"Velocity":41,"Duration":161047,"SoundDuration":161047,"Delta":273700845},{"NoteNumber":54,"Velocity":61,"Duration":162795,"SoundDuration":162795,"Delta":273861893},{"NoteNumber":50,"Velocity":46,"Duration":627676,"SoundDuration":627676,"Delta":273861893},{"NoteNumber":62,"Velocity":55,"Duration":156674,"SoundDuration":156674,"Delta":274024689},{"NoteNumber":61,"Velocity":49,"Duration":154257,"SoundDuration":154257,"Delta":274181363},{"NoteNumber":62,"Velocity":54,"Duration":153948,"SoundDuration":153948,"Delta":274335621},{"NoteNumber":64,"Velocity":59,"Duration":155860,"SoundDuration":155860,"Delta":274489569},{"NoteNumber":62,"Velocity":55,"Duration":155860,"SoundDuration":155860,"Delta":274645430},{"NoteNumber":61,"Velocity":47,"Duration":155860,"SoundDuration":155860,"Delta":274801290},{"NoteNumber":62,"Velocity":56,"Duration":160188,"SoundDuration":160188,"Delta":274957150},{"NoteNumber":60,"Velocity":62,"Duration":1270180,"SoundDuration":1270180,"Delta":275117338},{"NoteNumber":50,"Velocity":46,"Duration":165307,"SoundDuration":165307,"Delta":275117338},{"NoteNumber":57,"Velocity":38,"Duration":157496,"SoundDuration":157496,"Delta":275282646},{"NoteNumber":55,"Velocity":46,"Duration":157496,"SoundDuration":157496,"Delta":275440142},{"NoteNumber":57,"Velocity":39,"Duration":162619,"SoundDuration":162619,"Delta":275597639},{"NoteNumber":54,"Velocity":47,"Duration":154656,"SoundDuration":154656,"Delta":275760258},{"NoteNumber":57,"Velocity":38,"Duration":155054,"SoundDuration":155054,"Delta":275914915},{"NoteNumber":50,"Velocity":49,"Duration":155054,"SoundDuration":155054,"Delta":276069969},{"NoteNumber":54,"Velocity":41,"Duration":162494,"SoundDuration":162494,"Delta":276225024},{"NoteNumber":59,"Velocity":61,"Duration":162795,"SoundDuration":162795,"Delta":276387519},{"NoteNumber":55,"Velocity":46,"Duration":627676,"SoundDuration":627676,"Delta":276387519},{"NoteNumber":64,"Velocity":55,"Duration":156674,"SoundDuration":156674,"Delta":276550314},{"NoteNumber":63,"Velocity":49,"Duration":154257,"SoundDuration":154257,"Delta":276706989},{"NoteNumber":64,"Velocity":54,"Duration":153948,"SoundDuration":153948,"Delta":276861246},{"NoteNumber":66,"Velocity":59,"Duration":155860,"SoundDuration":155860,"Delta":277015195},{"NoteNumber":64,"Velocity":55,"Duration":155860,"SoundDuration":155860,"Delta":277171055},{"NoteNumber":63,"Velocity":47,"Duration":155860,"SoundDuration":155860,"Delta":277326915},{"NoteNumber":64,"Velocity":56,"Duration":160188,"SoundDuration":160188,"Delta":277482776},{"NoteNumber":62,"Velocity":62,"Duration":1270180,"SoundDuration":1270180,"Delta":277642964},{"NoteNumber":52,"Velocity":46,"Duration":165307,"SoundDuration":165307,"Delta":277642964},{"NoteNumber":59,"Velocity":38,"Duration":157496,"SoundDuration":157496,"Delta":277808271},{"NoteNumber":57,"Velocity":46,"Duration":157496,"SoundDuration":157496,"Delta":277965768},{"NoteNumber":59,"Velocity":39,"Duration":162619,"SoundDuration":162619,"Delta":278123265},{"NoteNumber":56,"Velocity":47,"Duration":154656,"SoundDuration":154656,"Delta":278285884},{"NoteNumber":59,"Velocity":38,"Duration":155054,"SoundDuration":155054,"Delta":278440540},{"NoteNumber":52,"Velocity":49,"Duration":155054,"SoundDuration":155054,"Delta":278595595},{"NoteNumber":56,"Velocity":41,"Duration":162494,"SoundDuration":162494,"Delta":278750650},{"NoteNumber":61,"Velocity":61,"Duration":158495,"SoundDuration":158495,"Delta":278913144},{"NoteNumber":57,"Velocity":46,"Duration":626723,"SoundDuration":626723,"Delta":278913144},{"NoteNumber":69,"Velocity":55,"Duration":153468,"SoundDuration":153468,"Delta":279071639},{"NoteNumber":68,"Velocity":49,"Duration":152843,"SoundDuration":152843,"Delta":279225108},{"NoteNumber":69,"Velocity":54,"Duration":161917,"SoundDuration":161917,"Delta":279377951},{"NoteNumber":71,"Velocity":59,"Duration":152843,"SoundDuration":152843,"Delta":279539868},{"NoteNumber":69,"Velocity":55,"Duration":152842,"SoundDuration":152842,"Delta":279692711},{"NoteNumber":68,"Velocity":47,"Duration":152843,"SoundDuration":152843,"Delta":279845554},{"NoteNumber":69,"Velocity":56,"Duration":160188,"SoundDuration":160188,"Delta":279998397},{"NoteNumber":68,"Velocity":62,"Duration":308963,"SoundDuration":308963,"Delta":280158585},{"NoteNumber":59,"Velocity":52,"Duration":157662,"SoundDuration":157662,"Delta":280158585},{"NoteNumber":65,"Velocity":45,"Duration":151301,"SoundDuration":151301,"Delta":280316247},{"NoteNumber":74,"Velocity":57,"Duration":149790,"SoundDuration":149790,"Delta":280467549},{"NoteNumber":59,"Velocity":54,"Duration":149790,"SoundDuration":149790,"Delta":280467549},{"NoteNumber":65,"Velocity":35,"Duration":177221,"SoundDuration":177221,"Delta":280617339},{"NoteNumber":59,"Velocity":45,"Duration":153625,"SoundDuration":153625,"Delta":280794560},{"NoteNumber":65,"Velocity":38,"Duration":153625,"SoundDuration":153625,"Delta":280948186},{"NoteNumber":68,"Velocity":62,"Duration":320961,"SoundDuration":320961,"Delta":281101811},{"NoteNumber":59,"Velocity":46,"Duration":153625,"SoundDuration":153625,"Delta":281101811},{"NoteNumber":65,"Velocity":40,"Duration":167335,"SoundDuration":167335,"Delta":281255437},{"NoteNumber":69,"Velocity":62,"Duration":157662,"SoundDuration":157662,"Delta":281422773},{"NoteNumber":61,"Velocity":52,"Duration":157662,"SoundDuration":157662,"Delta":281422773},{"NoteNumber":64,"Velocity":45,"Duration":151301,"SoundDuration":151301,"Delta":281580435},{"NoteNumber":69,"Velocity":62,"Duration":144036,"SoundDuration":144036,"Delta":281731736},{"NoteNumber":61,"Velocity":54,"Duration":144036,"SoundDuration":144036,"Delta":281731736},{"NoteNumber":76,"Velocity":57,"Duration":161047,"SoundDuration":161047,"Delta":281875773},{"NoteNumber":64,"Velocity":39,"Duration":161047,"SoundDuration":161047,"Delta":281875773},{"NoteNumber":69,"Velocity":62,"Duration":230438,"SoundDuration":230438,"Delta":282036821},{"NoteNumber":61,"Velocity":49,"Duration":153625,"SoundDuration":153625,"Delta":282036821},{"NoteNumber":64,"Velocity":38,"Duration":153625,"SoundDuration":153625,"Delta":282190447},{"NoteNumber":69,"Velocity":57,"Duration":320961,"SoundDuration":320961,"Delta":282344072},{"NoteNumber":61,"Velocity":49,"Duration":153625,"SoundDuration":153625,"Delta":282344072},{"NoteNumber":64,"Velocity":43,"Duration":167335,"SoundDuration":167335,"Delta":282497698},{"NoteNumber":68,"Velocity":62,"Duration":308963,"SoundDuration":308963,"Delta":282665034},{"NoteNumber":59,"Velocity":52,"Duration":157662,"SoundDuration":157662,"Delta":282665034},{"NoteNumber":65,"Velocity":45,"Duration":151301,"SoundDuration":151301,"Delta":282822696},{"NoteNumber":74,"Velocity":57,"Duration":149790,"SoundDuration":149790,"Delta":282973997},{"NoteNumber":59,"Velocity":54,"Duration":149790,"SoundDuration":149790,"Delta":282973997},{"NoteNumber":65,"Velocity":37,"Duration":160188,"SoundDuration":160188,"Delta":283123788},{"NoteNumber":59,"Velocity":47,"Duration":153625,"SoundDuration":153625,"Delta":283283976},{"NoteNumber":65,"Velocity":37,"Duration":153625,"SoundDuration":153625,"Delta":283437601},{"NoteNumber":68,"Velocity":62,"Duration":320961,"SoundDuration":320961,"Delta":283591227},{"NoteNumber":59,"Velocity":46,"Duration":153625,"SoundDuration":153625,"Delta":283591227},{"NoteNumber":65,"Velocity":39,"Duration":167335,"SoundDuration":167335,"Delta":283744852},{"NoteNumber":69,"Velocity":62,"Duration":157662,"SoundDuration":157662,"Delta":283912188},{"NoteNumber":61,"Velocity":52,"Duration":157662,"SoundDuration":157662,"Delta":283912188},{"NoteNumber":64,"Velocity":45,"Duration":151301,"SoundDuration":151301,"Delta":284069851},{"NoteNumber":69,"Velocity":62,"Duration":143348,"SoundDuration":143348,"Delta":284221152},{"NoteNumber":61,"Velocity":54,"Duration":143348,"SoundDuration":143348,"Delta":284221152},{"NoteNumber":76,"Velocity":57,"Duration":160188,"SoundDuration":160188,"Delta":284364500},{"NoteNumber":64,"Velocity":39,"Duration":160188,"SoundDuration":160188,"Delta":284364500},{"NoteNumber":69,"Velocity":62,"Duration":230438,"SoundDuration":230438,"Delta":284524688},{"NoteNumber":61,"Velocity":49,"Duration":153625,"SoundDuration":153625,"Delta":284524688},{"NoteNumber":64,"Velocity":38,"Duration":153625,"SoundDuration":153625,"Delta":284678314},{"NoteNumber":67,"Velocity":47,"Duration":38406,"SoundDuration":38406,"Delta":284831939},{"NoteNumber":61,"Velocity":49,"Duration":153625,"SoundDuration":153625,"Delta":284831939},{"NoteNumber":69,"Velocity":44,"Duration":38406,"SoundDuration":38406,"Delta":284870346},{"NoteNumber":67,"Velocity":57,"Duration":244148,"SoundDuration":244148,"Delta":284908752},{"NoteNumber":64,"Velocity":43,"Duration":167335,"SoundDuration":167335,"Delta":284985565},{"NoteNumber":66,"Velocity":62,"Duration":147982,"SoundDuration":147982,"Delta":285152901},{"NoteNumber":62,"Velocity":52,"Duration":154416,"SoundDuration":154416,"Delta":285152901},{"NoteNumber":66,"Velocity":45,"Duration":151301,"SoundDuration":151301,"Delta":285307317},{"NoteNumber":81,"Velocity":64,"Duration":149790,"SoundDuration":149790,"Delta":285458618},{"NoteNumber":62,"Velocity":54,"Duration":149790,"SoundDuration":149790,"Delta":285458618},{"NoteNumber":66,"Velocity":39,"Duration":161047,"SoundDuration":161047,"Delta":285608409},{"NoteNumber":62,"Velocity":49,"Duration":153625,"SoundDuration":153625,"Delta":285769457},{"NoteNumber":66,"Velocity":38,"Duration":153625,"SoundDuration":153625,"Delta":285923082},{"NoteNumber":74,"Velocity":62,"Duration":315542,"SoundDuration":315542,"Delta":286076708},{"NoteNumber":62,"Velocity":49,"Duration":153625,"SoundDuration":153625,"Delta":286076708},{"NoteNumber":66,"Velocity":43,"Duration":161917,"SoundDuration":161917,"Delta":286230333},{"NoteNumber":73,"Velocity":62,"Duration":157662,"SoundDuration":157662,"Delta":286392250},{"NoteNumber":64,"Velocity":52,"Duration":157662,"SoundDuration":157662,"Delta":286392250},{"NoteNumber":67,"Velocity":45,"Duration":151301,"SoundDuration":151301,"Delta":286549913},{"NoteNumber":73,"Velocity":62,"Duration":142667,"SoundDuration":142667,"Delta":286701214},{"NoteNumber":64,"Velocity":54,"Duration":142667,"SoundDuration":142667,"Delta":286701214},{"NoteNumber":81,"Velocity":57,"Duration":163683,"SoundDuration":163683,"Delta":286843881},{"NoteNumber":67,"Velocity":39,"Duration":163683,"SoundDuration":163683,"Delta":286843881},{"NoteNumber":73,"Velocity":62,"Duration":230438,"SoundDuration":230438,"Delta":287007565},{"NoteNumber":64,"Velocity":49,"Duration":153625,"SoundDuration":153625,"Delta":287007565},{"NoteNumber":67,"Velocity":38,"Duration":153625,"SoundDuration":153625,"Delta":287161190},{"NoteNumber":73,"Velocity":57,"Duration":320961,"SoundDuration":320961,"Delta":287314816},{"NoteNumber":64,"Velocity":49,"Duration":153625,"SoundDuration":153625,"Delta":287314816},{"NoteNumber":67,"Velocity":43,"Duration":167335,"SoundDuration":167335,"Delta":287468441},{"NoteNumber":74,"Velocity":62,"Duration":157662,"SoundDuration":157662,"Delta":287635777},{"NoteNumber":66,"Velocity":52,"Duration":157662,"SoundDuration":157662,"Delta":287635777},{"NoteNumber":69,"Velocity":45,"Duration":151301,"SoundDuration":151301,"Delta":287793440},{"NoteNumber":74,"Velocity":62,"Duration":144731,"SoundDuration":144731,"Delta":287944741},{"NoteNumber":66,"Velocity":54,"Duration":144731,"SoundDuration":144731,"Delta":287944741},{"NoteNumber":81,"Velocity":57,"Duration":163683,"SoundDuration":163683,"Delta":288089473},{"NoteNumber":69,"Velocity":39,"Duration":163683,"SoundDuration":163683,"Delta":288089473},{"NoteNumber":74,"Velocity":62,"Duration":230438,"SoundDuration":230438,"Delta":288253157},{"NoteNumber":66,"Velocity":49,"Duration":153625,"SoundDuration":153625,"Delta":288253157},{"NoteNumber":69,"Velocity":38,"Duration":153625,"SoundDuration":153625,"Delta":288406782},{"NoteNumber":74,"Velocity":57,"Duration":320961,"SoundDuration":320961,"Delta":288560408},{"NoteNumber":66,"Velocity":49,"Duration":153625,"SoundDuration":153625,"Delta":288560408},{"NoteNumber":69,"Velocity":43,"Duration":167335,"SoundDuration":167335,"Delta":288714033},{"NoteNumber":76,"Velocity":62,"Duration":157662,"SoundDuration":157662,"Delta":288881369},{"NoteNumber":61,"Velocity":52,"Duration":157662,"SoundDuration":157662,"Delta":288881369},{"NoteNumber":69,"Velocity":45,"Duration":151301,"SoundDuration":151301,"Delta":289039032},{"NoteNumber":76,"Velocity":62,"Duration":144036,"SoundDuration":144036,"Delta":289190333},{"NoteNumber":61,"Velocity":54,"Duration":144036,"SoundDuration":144036,"Delta":289190333},{"NoteNumber":81,"Velocity":57,"Duration":165489,"SoundDuration":165489,"Delta":289334370},{"NoteNumber":69,"Velocity":39,"Duration":165489,"SoundDuration":165489,"Delta":289334370},{"NoteNumber":76,"Velocity":62,"Duration":230438,"SoundDuration":230438,"Delta":289499860},{"NoteNumber":61,"Velocity":49,"Duration":153625,"SoundDuration":153625,"Delta":289499860},{"NoteNumber":69,"Velocity":38,"Duration":153625,"SoundDuration":153625,"Delta":289653485},{"NoteNumber":79,"Velocity":57,"Duration":320638,"SoundDuration":320638,"Delta":289807111},{"NoteNumber":61,"Velocity":49,"Duration":153625,"SoundDuration":153625,"Delta":289807111},{"NoteNumber":69,"Velocity":43,"Duration":167013,"SoundDuration":167013,"Delta":289960736},{"NoteNumber":78,"Velocity":64,"Duration":154113,"SoundDuration":154113,"Delta":290127749},{"NoteNumber":62,"Velocity":52,"Duration":609334,"SoundDuration":609334,"Delta":290127749},{"NoteNumber":79,"Velocity":57,"Duration":152967,"SoundDuration":152967,"Delta":290281862},{"NoteNumber":81,"Velocity":57,"Duration":151716,"SoundDuration":151716,"Delta":290434830},{"NoteNumber":78,"Velocity":57,"Duration":150537,"SoundDuration":150537,"Delta":290586547},{"NoteNumber":76,"Velocity":62,"Duration":150197,"SoundDuration":150197,"Delta":290737084},{"NoteNumber":74,"Velocity":57,"Duration":151423,"SoundDuration":151423,"Delta":290887281},{"NoteNumber":73,"Velocity":57,"Duration":152552,"SoundDuration":152552,"Delta":291038705},{"NoteNumber":71,"Velocity":57,"Duration":153757,"SoundDuration":153757,"Delta":291191257},{"NoteNumber":69,"Velocity":64,"Duration":154238,"SoundDuration":154238,"Delta":291345014},{"NoteNumber":61,"Velocity":37,"Duration":611544,"SoundDuration":611544,"Delta":291345014},{"NoteNumber":64,"Velocity":44,"Duration":611544,"SoundDuration":611544,"Delta":291345014},{"NoteNumber":68,"Velocity":53,"Duration":153292,"SoundDuration":153292,"Delta":291499253},{"NoteNumber":69,"Velocity":57,"Duration":152487,"SoundDuration":152487,"Delta":291652546},{"NoteNumber":71,"Velocity":53,"Duration":151525,"SoundDuration":151525,"Delta":291805034},{"NoteNumber":69,"Velocity":57,"Duration":150078,"SoundDuration":150078,"Delta":291956559},{"NoteNumber":67,"Velocity":51,"Duration":151303,"SoundDuration":151303,"Delta":292106638},{"NoteNumber":66,"Velocity":51,"Duration":152663,"SoundDuration":152663,"Delta":292257941},{"NoteNumber":64,"Velocity":51,"Duration":168274,"SoundDuration":168274,"Delta":292410604},{"NoteNumber":66,"Velocity":56,"Duration":153689,"SoundDuration":153689,"Delta":292578879},{"NoteNumber":50,"Velocity":52,"Duration":609157,"SoundDuration":609157,"Delta":292578879},{"NoteNumber":67,"Velocity":47,"Duration":153169,"SoundDuration":153169,"Delta":292732568},{"NoteNumber":69,"Velocity":47,"Duration":151761,"SoundDuration":151761,"Delta":292885737},{"NoteNumber":66,"Velocity":47,"Duration":150537,"SoundDuration":150537,"Delta":293037499},{"NoteNumber":64,"Velocity":55,"Duration":149318,"SoundDuration":149318,"Delta":293188036},{"NoteNumber":62,"Velocity":51,"Duration":150423,"SoundDuration":150423,"Delta":293337355},{"NoteNumber":61,"Velocity":51,"Duration":151890,"SoundDuration":151890,"Delta":293487779},{"NoteNumber":59,"Velocity":51,"Duration":161047,"SoundDuration":161047,"Delta":293639669},{"NoteNumber":57,"Velocity":54,"Duration":150541,"SoundDuration":150541,"Delta":293800717},{"NoteNumber":56,"Velocity":50,"Duration":150542,"SoundDuration":150542,"Delta":293951259},{"NoteNumber":57,"Velocity":50,"Duration":150272,"SoundDuration":150272,"Delta":294101801},{"NoteNumber":59,"Velocity":50,"Duration":150757,"SoundDuration":150757,"Delta":294252074},{"NoteNumber":57,"Velocity":55,"Duration":152450,"SoundDuration":152450,"Delta":294402832},{"NoteNumber":55,"Velocity":49,"Duration":154259,"SoundDuration":154259,"Delta":294555282},{"NoteNumber":54,"Velocity":49,"Duration":156059,"SoundDuration":156059,"Delta":294709542},{"NoteNumber":52,"Velocity":49,"Duration":176180,"SoundDuration":176180,"Delta":294865601},{"NoteNumber":78,"Velocity":64,"Duration":154113,"SoundDuration":154113,"Delta":295041782},{"NoteNumber":50,"Velocity":57,"Duration":609334,"SoundDuration":609334,"Delta":295041782},{"NoteNumber":79,"Velocity":57,"Duration":152967,"SoundDuration":152967,"Delta":295195895},{"NoteNumber":81,"Velocity":57,"Duration":151716,"SoundDuration":151716,"Delta":295348862},{"NoteNumber":78,"Velocity":57,"Duration":150537,"SoundDuration":150537,"Delta":295500579},{"NoteNumber":76,"Velocity":62,"Duration":150197,"SoundDuration":150197,"Delta":295651116},{"NoteNumber":74,"Velocity":57,"Duration":151423,"SoundDuration":151423,"Delta":295801314},{"NoteNumber":73,"Velocity":57,"Duration":152552,"SoundDuration":152552,"Delta":295952737},{"NoteNumber":74,"Velocity":57,"Duration":172540,"SoundDuration":172540,"Delta":296105290},{"NoteNumber":83,"Velocity":64,"Duration":159337,"SoundDuration":159337,"Delta":296277830},{"NoteNumber":67,"Velocity":57,"Duration":621248,"SoundDuration":621248,"Delta":296277830},{"NoteNumber":85,"Velocity":64,"Duration":158495,"SoundDuration":158495,"Delta":296437167},{"NoteNumber":86,"Velocity":68,"Duration":153625,"SoundDuration":153625,"Delta":296595663},{"NoteNumber":83,"Velocity":64,"Duration":149790,"SoundDuration":149790,"Delta":296749288},{"NoteNumber":81,"Velocity":62,"Duration":150197,"SoundDuration":150197,"Delta":296899078},{"NoteNumber":79,"Velocity":61,"Duration":151423,"SoundDuration":151423,"Delta":297049276},{"NoteNumber":78,"Velocity":58,"Duration":152552,"SoundDuration":152552,"Delta":297200699},{"NoteNumber":76,"Velocity":58,"Duration":153757,"SoundDuration":153757,"Delta":297353252},{"NoteNumber":75,"Velocity":64,"Duration":154113,"SoundDuration":154113,"Delta":297507009},{"NoteNumber":55,"Velocity":57,"Duration":609334,"SoundDuration":609334,"Delta":297507009},{"NoteNumber":76,"Velocity":57,"Duration":152967,"SoundDuration":152967,"Delta":297661122},{"NoteNumber":78,"Velocity":57,"Duration":151716,"SoundDuration":151716,"Delta":297814090},{"NoteNumber":76,"Velocity":57,"Duration":150537,"SoundDuration":150537,"Delta":297965807},{"NoteNumber":79,"Velocity":62,"Duration":150197,"SoundDuration":150197,"Delta":298116344},{"NoteNumber":78,"Velocity":57,"Duration":151423,"SoundDuration":151423,"Delta":298266541},{"NoteNumber":81,"Velocity":61,"Duration":152552,"SoundDuration":152552,"Delta":298417965},{"NoteNumber":79,"Velocity":57,"Duration":164967,"SoundDuration":164967,"Delta":298570517},{"NoteNumber":83,"Velocity":63,"Duration":307251,"SoundDuration":307251,"Delta":298735485},{"NoteNumber":81,"Velocity":62,"Duration":149362,"SoundDuration":149362,"Delta":299348956},{"NoteNumber":79,"Velocity":57,"Duration":150486,"SoundDuration":150486,"Delta":299498318},{"NoteNumber":78,"Velocity":62,"Duration":151684,"SoundDuration":151684,"Delta":299648805},{"NoteNumber":76,"Velocity":57,"Duration":152909,"SoundDuration":152909,"Delta":299800490},{"NoteNumber":74,"Velocity":62,"Duration":615141,"SoundDuration":615141,"Delta":299953399},{"NoteNumber":62,"Velocity":39,"Duration":620730,"SoundDuration":620730,"Delta":300260650},{"NoteNumber":54,"Velocity":32,"Duration":307890,"SoundDuration":307890,"Delta":300260650},{"NoteNumber":76,"Velocity":62,"Duration":81360,"SoundDuration":81360,"Delta":300568540},{"NoteNumber":55,"Velocity":39,"Duration":312840,"SoundDuration":312840,"Delta":300568540},{"NoteNumber":78,"Velocity":54,"Duration":79135,"SoundDuration":79135,"Delta":300649901},{"NoteNumber":76,"Velocity":62,"Duration":77009,"SoundDuration":77009,"Delta":300729037},{"NoteNumber":78,"Velocity":55,"Duration":75334,"SoundDuration":75334,"Delta":300806046},{"NoteNumber":76,"Velocity":62,"Duration":101104,"SoundDuration":101104,"Delta":300881381},{"NoteNumber":57,"Velocity":32,"Duration":305878,"SoundDuration":305878,"Delta":300881381},{"NoteNumber":61,"Velocity":39,"Duration":305878,"SoundDuration":305878,"Delta":300881381},{"NoteNumber":78,"Velocity":55,"Duration":101929,"SoundDuration":101929,"Delta":300982485},{"NoteNumber":76,"Velocity":62,"Duration":102845,"SoundDuration":102845,"Delta":301084414},{"NoteNumber":78,"Velocity":64,"Duration":154113,"SoundDuration":154113,"Delta":301187260},{"NoteNumber":62,"Velocity":57,"Duration":307080,"SoundDuration":307080,"Delta":301187260},{"NoteNumber":79,"Velocity":57,"Duration":152967,"SoundDuration":152967,"Delta":301341373},{"NoteNumber":81,"Velocity":57,"Duration":151716,"SoundDuration":151716,"Delta":301494340},{"NoteNumber":78,"Velocity":57,"Duration":150537,"SoundDuration":150537,"Delta":301646057},{"NoteNumber":76,"Velocity":62,"Duration":150197,"SoundDuration":150197,"Delta":301796594},{"NoteNumber":66,"Velocity":39,"Duration":301620,"SoundDuration":301620,"Delta":301796594},{"NoteNumber":74,"Velocity":57,"Duration":151423,"SoundDuration":151423,"Delta":301946792},{"NoteNumber":73,"Velocity":57,"Duration":152552,"SoundDuration":152552,"Delta":302098215},{"NoteNumber":74,"Velocity":57,"Duration":170520,"SoundDuration":170520,"Delta":302250768},{"NoteNumber":83,"Velocity":64,"Duration":159337,"SoundDuration":159337,"Delta":302421288},{"NoteNumber":67,"Velocity":54,"Duration":159337,"SoundDuration":159337,"Delta":302421288},{"NoteNumber":85,"Velocity":64,"Duration":158495,"SoundDuration":158495,"Delta":302580625},{"NoteNumber":69,"Velocity":54,"Duration":158495,"SoundDuration":158495,"Delta":302580625},{"NoteNumber":86,"Velocity":68,"Duration":153625,"SoundDuration":153625,"Delta":302739120},{"NoteNumber":71,"Velocity":57,"Duration":153625,"SoundDuration":153625,"Delta":302739120},{"NoteNumber":85,"Velocity":64,"Duration":149790,"SoundDuration":149790,"Delta":302892746},{"NoteNumber":69,"Velocity":54,"Duration":149790,"SoundDuration":149790,"Delta":302892746},{"NoteNumber":83,"Velocity":62,"Duration":150197,"SoundDuration":150197,"Delta":303042536},{"NoteNumber":67,"Velocity":52,"Duration":150197,"SoundDuration":150197,"Delta":303042536},{"NoteNumber":81,"Velocity":61,"Duration":151423,"SoundDuration":151423,"Delta":303192733},{"NoteNumber":66,"Velocity":51,"Duration":151423,"SoundDuration":151423,"Delta":303192733},{"NoteNumber":79,"Velocity":58,"Duration":152552,"SoundDuration":152552,"Delta":303344157},{"NoteNumber":64,"Velocity":49,"Duration":152552,"SoundDuration":152552,"Delta":303344157},{"NoteNumber":78,"Velocity":58,"Duration":153757,"SoundDuration":153757,"Delta":303496709},{"NoteNumber":62,"Velocity":49,"Duration":153757,"SoundDuration":153757,"Delta":303496709},{"NoteNumber":76,"Velocity":64,"Duration":154113,"SoundDuration":154113,"Delta":303650467},{"NoteNumber":61,"Velocity":57,"Duration":307080,"SoundDuration":307080,"Delta":303650467},{"NoteNumber":78,"Velocity":57,"Duration":152967,"SoundDuration":152967,"Delta":303804580},{"NoteNumber":79,"Velocity":57,"Duration":151716,"SoundDuration":151716,"Delta":303957547},{"NoteNumber":76,"Velocity":57,"Duration":150537,"SoundDuration":150537,"Delta":304109264},{"NoteNumber":74,"Velocity":65,"Duration":150197,"SoundDuration":150197,"Delta":304259801},{"NoteNumber":64,"Velocity":39,"Duration":301620,"SoundDuration":301620,"Delta":304259801},{"NoteNumber":73,"Velocity":57,"Duration":151423,"SoundDuration":151423,"Delta":304409999},{"NoteNumber":71,"Velocity":59,"Duration":152552,"SoundDuration":152552,"Delta":304561422},{"NoteNumber":73,"Velocity":57,"Duration":170520,"SoundDuration":170520,"Delta":304713975},{"NoteNumber":81,"Velocity":64,"Duration":159337,"SoundDuration":159337,"Delta":304884495},{"NoteNumber":66,"Velocity":54,"Duration":159337,"SoundDuration":159337,"Delta":304884495},{"NoteNumber":83,"Velocity":64,"Duration":158495,"SoundDuration":158495,"Delta":305043832},{"NoteNumber":67,"Velocity":54,"Duration":158495,"SoundDuration":158495,"Delta":305043832},{"NoteNumber":85,"Velocity":68,"Duration":153625,"SoundDuration":153625,"Delta":305202327},{"NoteNumber":69,"Velocity":57,"Duration":153625,"SoundDuration":153625,"Delta":305202327},{"NoteNumber":83,"Velocity":64,"Duration":149790,"SoundDuration":149790,"Delta":305355953},{"NoteNumber":67,"Velocity":54,"Duration":149790,"SoundDuration":149790,"Delta":305355953},{"NoteNumber":81,"Velocity":62,"Duration":150197,"SoundDuration":150197,"Delta":305505743},{"NoteNumber":66,"Velocity":52,"Duration":150197,"SoundDuration":150197,"Delta":305505743},{"NoteNumber":79,"Velocity":61,"Duration":151423,"SoundDuration":151423,"Delta":305655940},{"NoteNumber":64,"Velocity":51,"Duration":151423,"SoundDuration":151423,"Delta":305655940},{"NoteNumber":78,"Velocity":58,"Duration":152552,"SoundDuration":152552,"Delta":305807364},{"NoteNumber":62,"Velocity":49,"Duration":152552,"SoundDuration":152552,"Delta":305807364},{"NoteNumber":76,"Velocity":58,"Duration":153757,"SoundDuration":153757,"Delta":305959916},{"NoteNumber":61,"Velocity":49,"Duration":153757,"SoundDuration":153757,"Delta":305959916},{"NoteNumber":74,"Velocity":64,"Duration":154113,"SoundDuration":154113,"Delta":306113674},{"NoteNumber":59,"Velocity":57,"Duration":307080,"SoundDuration":307080,"Delta":306113674},{"NoteNumber":76,"Velocity":57,"Duration":152967,"SoundDuration":152967,"Delta":306267787},{"NoteNumber":78,"Velocity":57,"Duration":151716,"SoundDuration":151716,"Delta":306420755},{"NoteNumber":74,"Velocity":57,"Duration":150537,"SoundDuration":150537,"Delta":306572471},{"NoteNumber":73,"Velocity":62,"Duration":150197,"SoundDuration":150197,"Delta":306723008},{"NoteNumber":62,"Velocity":39,"Duration":301620,"SoundDuration":301620,"Delta":306723008},{"NoteNumber":71,"Velocity":57,"Duration":151423,"SoundDuration":151423,"Delta":306873206},{"NoteNumber":70,"Velocity":57,"Duration":152552,"SoundDuration":152552,"Delta":307024629},{"NoteNumber":71,"Velocity":57,"Duration":170520,"SoundDuration":170520,"Delta":307177182},{"NoteNumber":79,"Velocity":64,"Duration":152068,"SoundDuration":152068,"Delta":307347702},{"NoteNumber":64,"Velocity":54,"Duration":152068,"SoundDuration":152068,"Delta":307347702},{"NoteNumber":81,"Velocity":64,"Duration":149790,"SoundDuration":149790,"Delta":307499770},{"NoteNumber":66,"Velocity":54,"Duration":149790,"SoundDuration":149790,"Delta":307499770},{"NoteNumber":83,"Velocity":68,"Duration":152068,"SoundDuration":152068,"Delta":307649560},{"NoteNumber":67,"Velocity":57,"Duration":152068,"SoundDuration":152068,"Delta":307649560},{"NoteNumber":81,"Velocity":64,"Duration":149790,"SoundDuration":149790,"Delta":307801629},{"NoteNumber":66,"Velocity":54,"Duration":149790,"SoundDuration":149790,"Delta":307801629},{"NoteNumber":79,"Velocity":62,"Duration":150197,"SoundDuration":150197,"Delta":307951419},{"NoteNumber":64,"Velocity":52,"Duration":150197,"SoundDuration":150197,"Delta":307951419},{"NoteNumber":78,"Velocity":58,"Duration":151423,"SoundDuration":151423,"Delta":308101616},{"NoteNumber":62,"Velocity":51,"Duration":151423,"SoundDuration":151423,"Delta":308101616},{"NoteNumber":76,"Velocity":63,"Duration":152552,"SoundDuration":152552,"Delta":308253040},{"NoteNumber":61,"Velocity":49,"Duration":152552,"SoundDuration":152552,"Delta":308253040},{"NoteNumber":74,"Velocity":58,"Duration":153757,"SoundDuration":153757,"Delta":308405592},{"NoteNumber":59,"Velocity":49,"Duration":153757,"SoundDuration":153757,"Delta":308405592},{"NoteNumber":73,"Velocity":64,"Duration":154113,"SoundDuration":154113,"Delta":308559350},{"NoteNumber":57,"Velocity":57,"Duration":307080,"SoundDuration":307080,"Delta":308559350},{"NoteNumber":74,"Velocity":55,"Duration":152967,"SoundDuration":152967,"Delta":308713463},{"NoteNumber":76,"Velocity":57,"Duration":151716,"SoundDuration":151716,"Delta":308866430},{"NoteNumber":74,"Velocity":55,"Duration":150537,"SoundDuration":150537,"Delta":309018147},{"NoteNumber":73,"Velocity":62,"Duration":150197,"SoundDuration":150197,"Delta":309168684},{"NoteNumber":61,"Velocity":39,"Duration":301620,"SoundDuration":301620,"Delta":309168684},{"NoteNumber":71,"Velocity":55,"Duration":151423,"SoundDuration":151423,"Delta":309318882},{"NoteNumber":69,"Velocity":57,"Duration":152552,"SoundDuration":152552,"Delta":309470305},{"NoteNumber":67,"Velocity":55,"Duration":170520,"SoundDuration":170520,"Delta":309622858},{"NoteNumber":66,"Velocity":64,"Duration":154113,"SoundDuration":154113,"Delta":309793378},{"NoteNumber":62,"Velocity":57,"Duration":609334,"SoundDuration":609334,"Delta":309793378},{"NoteNumber":67,"Velocity":55,"Duration":152967,"SoundDuration":152967,"Delta":309947491},{"NoteNumber":69,"Velocity":57,"Duration":151716,"SoundDuration":151716,"Delta":310100458},{"NoteNumber":66,"Velocity":55,"Duration":150537,"SoundDuration":150537,"Delta":310252175},{"NoteNumber":64,"Velocity":62,"Duration":150197,"SoundDuration":150197,"Delta":310402712},{"NoteNumber":62,"Velocity":55,"Duration":151423,"SoundDuration":151423,"Delta":310552910},{"NoteNumber":61,"Velocity":57,"Duration":152552,"SoundDuration":152552,"Delta":310704333},{"NoteNumber":62,"Velocity":54,"Duration":170520,"SoundDuration":170520,"Delta":310856886},{"NoteNumber":71,"Velocity":64,"Duration":154113,"SoundDuration":154113,"Delta":311027406},{"NoteNumber":55,"Velocity":57,"Duration":609334,"SoundDuration":609334,"Delta":311027406},{"NoteNumber":73,"Velocity":53,"Duration":152967,"SoundDuration":152967,"Delta":311181519},{"NoteNumber":74,"Velocity":57,"Duration":151716,"SoundDuration":151716,"Delta":311334487},{"NoteNumber":71,"Velocity":54,"Duration":150537,"SoundDuration":150537,"Delta":311486203},{"NoteNumber":69,"Velocity":62,"Duration":150197,"SoundDuration":150197,"Delta":311636740},{"NoteNumber":67,"Velocity":56,"Duration":151423,"SoundDuration":151423,"Delta":311786938},{"NoteNumber":66,"Velocity":57,"Duration":152552,"SoundDuration":152552,"Delta":311938361},{"NoteNumber":64,"Velocity":54,"Duration":170520,"SoundDuration":170520,"Delta":312090914},{"NoteNumber":63,"Velocity":64,"Duration":154113,"SoundDuration":154113,"Delta":312261434},{"NoteNumber":43,"Velocity":57,"Duration":609334,"SoundDuration":609334,"Delta":312261434},{"NoteNumber":64,"Velocity":50,"Duration":152967,"SoundDuration":152967,"Delta":312415547},{"NoteNumber":66,"Velocity":57,"Duration":151716,"SoundDuration":151716,"Delta":312568515},{"NoteNumber":64,"Velocity":53,"Duration":150537,"SoundDuration":150537,"Delta":312720231},{"NoteNumber":67,"Velocity":62,"Duration":150197,"SoundDuration":150197,"Delta":312870768},{"NoteNumber":66,"Velocity":57,"Duration":151423,"SoundDuration":151423,"Delta":313020966},{"NoteNumber":69,"Velocity":61,"Duration":152552,"SoundDuration":152552,"Delta":313172389},{"NoteNumber":67,"Velocity":57,"Duration":164967,"SoundDuration":164967,"Delta":313324942},{"NoteNumber":71,"Velocity":63,"Duration":307251,"SoundDuration":307251,"Delta":313489909},{"NoteNumber":79,"Velocity":43,"Duration":171731,"SoundDuration":171731,"Delta":314109793},{"NoteNumber":78,"Velocity":39,"Duration":174535,"SoundDuration":174535,"Delta":314281524},{"NoteNumber":81,"Velocity":42,"Duration":177585,"SoundDuration":177585,"Delta":314456060},{"NoteNumber":79,"Velocity":39,"Duration":193199,"SoundDuration":193199,"Delta":314633645},{"NoteNumber":83,"Velocity":44,"Duration":457945,"SoundDuration":457945,"Delta":314826845},{"NoteNumber":55,"Velocity":33,"Duration":264592,"SoundDuration":264592,"Delta":315743594},{"NoteNumber":54,"Velocity":28,"Duration":292506,"SoundDuration":292506,"Delta":316008186},{"NoteNumber":57,"Velocity":33,"Duration":308757,"SoundDuration":308757,"Delta":316300693},{"NoteNumber":55,"Velocity":28,"Duration":419697,"SoundDuration":419697,"Delta":316609450},{"NoteNumber":59,"Velocity":31,"Duration":567751,"SoundDuration":567751,"Delta":317029147},{"NoteNumber":63,"Velocity":64,"Duration":77626,"SoundDuration":77626,"Delta":318425220},{"NoteNumber":75,"Velocity":70,"Duration":227244,"SoundDuration":227244,"Delta":318502847},{"NoteNumber":64,"Velocity":65,"Duration":74449,"SoundDuration":74449,"Delta":318730091},{"NoteNumber":76,"Velocity":72,"Duration":222391,"SoundDuration":222391,"Delta":318804540},{"NoteNumber":66,"Velocity":68,"Duration":74081,"SoundDuration":74081,"Delta":319026931},{"NoteNumber":78,"Velocity":74,"Duration":222244,"SoundDuration":222244,"Delta":319101012},{"NoteNumber":67,"Velocity":69,"Duration":74081,"SoundDuration":74081,"Delta":319323256},{"NoteNumber":79,"Velocity":75,"Duration":222244,"SoundDuration":222244,"Delta":319397338},{"NoteNumber":70,"Velocity":71,"Duration":74081,"SoundDuration":74081,"Delta":319619582},{"NoteNumber":82,"Velocity":77,"Duration":222244,"SoundDuration":222244,"Delta":319693663},{"NoteNumber":71,"Velocity":71,"Duration":74081,"SoundDuration":74081,"Delta":319915907},{"NoteNumber":83,"Velocity":72,"Duration":222391,"SoundDuration":222391,"Delta":319989989},{"NoteNumber":73,"Velocity":68,"Duration":74081,"SoundDuration":74081,"Delta":320212380},{"NoteNumber":85,"Velocity":74,"Duration":222244,"SoundDuration":222244,"Delta":320286461},{"NoteNumber":74,"Velocity":69,"Duration":74081,"SoundDuration":74081,"Delta":320508706},{"NoteNumber":86,"Velocity":75,"Duration":222244,"SoundDuration":222244,"Delta":320582787},{"NoteNumber":68,"Velocity":71,"Duration":74081,"SoundDuration":74081,"Delta":320805031},{"NoteNumber":80,"Velocity":77,"Duration":222244,"SoundDuration":222244,"Delta":320879112},{"NoteNumber":69,"Velocity":71,"Duration":74081,"SoundDuration":74081,"Delta":321101357},{"NoteNumber":81,"Velocity":79,"Duration":881889,"SoundDuration":881889,"Delta":321175438},{"NoteNumber":62,"Velocity":42,"Duration":148162,"SoundDuration":148162,"Delta":321175438},{"NoteNumber":57,"Velocity":42,"Duration":148162,"SoundDuration":148162,"Delta":321175438},{"NoteNumber":66,"Velocity":50,"Duration":148162,"SoundDuration":148162,"Delta":321175438},{"NoteNumber":57,"Velocity":37,"Duration":148162,"SoundDuration":148162,"Delta":321471763},{"NoteNumber":62,"Velocity":37,"Duration":148162,"SoundDuration":148162,"Delta":321471763},{"NoteNumber":66,"Velocity":45,"Duration":148162,"SoundDuration":148162,"Delta":321471763},{"NoteNumber":57,"Velocity":37,"Duration":147434,"SoundDuration":147434,"Delta":321762457},{"NoteNumber":62,"Velocity":37,"Duration":147434,"SoundDuration":147434,"Delta":321762457},{"NoteNumber":66,"Velocity":45,"Duration":147434,"SoundDuration":147434,"Delta":321762457},{"NoteNumber":79,"Velocity":72,"Duration":73717,"SoundDuration":73717,"Delta":322057327},{"NoteNumber":57,"Velocity":37,"Duration":147434,"SoundDuration":147434,"Delta":322057327},{"NoteNumber":62,"Velocity":37,"Duration":147434,"SoundDuration":147434,"Delta":322057327},{"NoteNumber":66,"Velocity":45,"Duration":147434,"SoundDuration":147434,"Delta":322057327},{"NoteNumber":78,"Velocity":72,"Duration":73717,"SoundDuration":73717,"Delta":322131044},{"NoteNumber":76,"Velocity":72,"Duration":71605,"SoundDuration":71605,"Delta":322204762},{"NoteNumber":74,"Velocity":72,"Duration":126603,"SoundDuration":126603,"Delta":322276368},{"NoteNumber":76,"Velocity":69,"Duration":79044,"SoundDuration":79044,"Delta":322402971},{"NoteNumber":57,"Velocity":50,"Duration":157423,"SoundDuration":157423,"Delta":322402971},{"NoteNumber":61,"Velocity":50,"Duration":157423,"SoundDuration":157423,"Delta":322402971},{"NoteNumber":78,"Velocity":49,"Duration":78379,"SoundDuration":78379,"Delta":322482015},{"NoteNumber":76,"Velocity":61,"Duration":77374,"SoundDuration":77374,"Delta":322560395},{"NoteNumber":78,"Velocity":55,"Duration":76274,"SoundDuration":76274,"Delta":322637770},{"NoteNumber":76,"Velocity":64,"Duration":75366,"SoundDuration":75366,"Delta":322714044},{"NoteNumber":57,"Velocity":45,"Duration":149663,"SoundDuration":149663,"Delta":322714044},{"NoteNumber":61,"Velocity":45,"Duration":149663,"SoundDuration":149663,"Delta":322714044},{"NoteNumber":78,"Velocity":58,"Duration":74297,"SoundDuration":74297,"Delta":322789410},{"NoteNumber":76,"Velocity":67,"Duration":73416,"SoundDuration":73416,"Delta":322863708},{"NoteNumber":78,"Velocity":62,"Duration":73356,"SoundDuration":73356,"Delta":322937124},{"NoteNumber":76,"Velocity":70,"Duration":73356,"SoundDuration":73356,"Delta":323010481},{"NoteNumber":57,"Velocity":45,"Duration":146941,"SoundDuration":146941,"Delta":323010481},{"NoteNumber":61,"Velocity":45,"Duration":146941,"SoundDuration":146941,"Delta":323010481},{"NoteNumber":78,"Velocity":61,"Duration":73585,"SoundDuration":73585,"Delta":323083838},{"NoteNumber":76,"Velocity":63,"Duration":73717,"SoundDuration":73717,"Delta":323157423},{"NoteNumber":78,"Velocity":55,"Duration":73978,"SoundDuration":73978,"Delta":323231140},{"NoteNumber":76,"Velocity":66,"Duration":74124,"SoundDuration":74124,"Delta":323305119},{"NoteNumber":57,"Velocity":45,"Duration":148802,"SoundDuration":148802,"Delta":323305119},{"NoteNumber":61,"Velocity":45,"Duration":148802,"SoundDuration":148802,"Delta":323305119},{"NoteNumber":78,"Velocity":57,"Duration":74678,"SoundDuration":74678,"Delta":323379243},{"NoteNumber":76,"Velocity":69,"Duration":75786,"SoundDuration":75786,"Delta":323453922},{"NoteNumber":78,"Velocity":59,"Duration":76992,"SoundDuration":76992,"Delta":323529708},{"NoteNumber":74,"Velocity":69,"Duration":620218,"SoundDuration":620218,"Delta":323606700},{"NoteNumber":50,"Velocity":57,"Duration":155054,"SoundDuration":155054,"Delta":323606700},{"NoteNumber":62,"Velocity":47,"Duration":155054,"SoundDuration":155054,"Delta":323761755},{"NoteNumber":61,"Velocity":50,"Duration":155054,"SoundDuration":155054,"Delta":323916809},{"NoteNumber":62,"Velocity":47,"Duration":155054,"SoundDuration":155054,"Delta":324071864},{"NoteNumber":54,"Velocity":57,"Duration":155054,"SoundDuration":155054,"Delta":324226919},{"NoteNumber":62,"Velocity":48,"Duration":155054,"SoundDuration":155054,"Delta":324381974},{"NoteNumber":69,"Velocity":69,"Duration":310109,"SoundDuration":310109,"Delta":324537028},{"NoteNumber":61,"Velocity":50,"Duration":155054,"SoundDuration":155054,"Delta":324537028},{"NoteNumber":62,"Velocity":47,"Duration":155054,"SoundDuration":155054,"Delta":324692083},{"NoteNumber":71,"Velocity":64,"Duration":76734,"SoundDuration":76734,"Delta":324847138},{"NoteNumber":55,"Velocity":57,"Duration":153468,"SoundDuration":153468,"Delta":324847138},{"NoteNumber":73,"Velocity":59,"Duration":76734,"SoundDuration":76734,"Delta":324923872},{"NoteNumber":71,"Velocity":68,"Duration":153468,"SoundDuration":153468,"Delta":325000606},{"NoteNumber":62,"Velocity":47,"Duration":153468,"SoundDuration":153468,"Delta":325000606},{"NoteNumber":69,"Velocity":62,"Duration":306937,"SoundDuration":306937,"Delta":325154075},{"NoteNumber":54,"Velocity":50,"Duration":153468,"SoundDuration":153468,"Delta":325154075},{"NoteNumber":62,"Velocity":47,"Duration":153468,"SoundDuration":153468,"Delta":325307543},{"NoteNumber":71,"Velocity":62,"Duration":75574,"SoundDuration":75574,"Delta":325461012},{"NoteNumber":55,"Velocity":57,"Duration":151148,"SoundDuration":151148,"Delta":325461012},{"NoteNumber":73,"Velocity":62,"Duration":75574,"SoundDuration":75574,"Delta":325536586},{"NoteNumber":71,"Velocity":69,"Duration":151148,"SoundDuration":151148,"Delta":325612161},{"NoteNumber":62,"Velocity":48,"Duration":151148,"SoundDuration":151148,"Delta":325612161},{"NoteNumber":69,"Velocity":63,"Duration":253468,"SoundDuration":253468,"Delta":325763309},{"NoteNumber":54,"Velocity":50,"Duration":194170,"SoundDuration":194170,"Delta":325763309},{"NoteNumber":62,"Velocity":47,"Duration":237191,"SoundDuration":237191,"Delta":325957480},{"NoteNumber":69,"Velocity":64,"Duration":798112,"SoundDuration":798112,"Delta":326016778},{"NoteNumber":73,"Velocity":69,"Duration":738814,"SoundDuration":738814,"Delta":326076076},{"NoteNumber":76,"Velocity":73,"Duration":679516,"SoundDuration":679516,"Delta":326135374},{"NoteNumber":79,"Velocity":77,"Duration":620219,"SoundDuration":620219,"Delta":326194671},{"NoteNumber":52,"Velocity":48,"Duration":620219,"SoundDuration":620219,"Delta":326194671},{"NoteNumber":61,"Velocity":57,"Duration":620219,"SoundDuration":620219,"Delta":326194671},{"NoteNumber":78,"Velocity":69,"Duration":310109,"SoundDuration":310109,"Delta":327125000},{"NoteNumber":50,"Velocity":49,"Duration":310109,"SoundDuration":310109,"Delta":327125000},{"NoteNumber":62,"Velocity":58,"Duration":310109,"SoundDuration":310109,"Delta":327125000},{"NoteNumber":76,"Velocity":64,"Duration":153468,"SoundDuration":153468,"Delta":327435109},{"NoteNumber":55,"Velocity":57,"Duration":316172,"SoundDuration":316172,"Delta":327435109},{"NoteNumber":59,"Velocity":57,"Duration":316172,"SoundDuration":316172,"Delta":327435109},{"NoteNumber":78,"Velocity":50,"Duration":38367,"SoundDuration":38367,"Delta":327588578},{"NoteNumber":76,"Velocity":55,"Duration":38367,"SoundDuration":38367,"Delta":327626945},{"NoteNumber":75,"Velocity":58,"Duration":42984,"SoundDuration":42984,"Delta":327665312},{"NoteNumber":76,"Velocity":60,"Duration":42984,"SoundDuration":42984,"Delta":327708297},{"NoteNumber":79,"Velocity":62,"Duration":316172,"SoundDuration":316172,"Delta":327751282},{"NoteNumber":69,"Velocity":62,"Duration":152703,"SoundDuration":152703,"Delta":328067454},{"NoteNumber":45,"Velocity":48,"Duration":316297,"SoundDuration":316297,"Delta":328067454},{"NoteNumber":57,"Velocity":57,"Duration":316297,"SoundDuration":316297,"Delta":328067454},{"NoteNumber":71,"Velocity":54,"Duration":38564,"SoundDuration":38564,"Delta":328220158},{"NoteNumber":69,"Velocity":55,"Duration":38564,"SoundDuration":38564,"Delta":328258722},{"NoteNumber":68,"Velocity":59,"Duration":43232,"SoundDuration":43232,"Delta":328297286},{"NoteNumber":69,"Velocity":59,"Duration":43232,"SoundDuration":43232,"Delta":328340519},{"NoteNumber":73,"Velocity":63,"Duration":316667,"SoundDuration":316667,"Delta":328383752},{"NoteNumber":67,"Velocity":60,"Duration":316667,"SoundDuration":316667,"Delta":328383752},{"NoteNumber":66,"Velocity":58,"Duration":620219,"SoundDuration":620219,"Delta":328700420},{"NoteNumber":74,"Velocity":69,"Duration":620219,"SoundDuration":620219,"Delta":328700420},{"NoteNumber":50,"Velocity":57,"Duration":155054,"SoundDuration":155054,"Delta":328700420},{"NoteNumber":62,"Velocity":47,"Duration":155054,"SoundDuration":155054,"Delta":328855474},{"NoteNumber":61,"Velocity":50,"Duration":155054,"SoundDuration":155054,"Delta":329010529},{"NoteNumber":62,"Velocity":47,"Duration":155054,"SoundDuration":155054,"Delta":329165584},{"NoteNumber":54,"Velocity":57,"Duration":155054,"SoundDuration":155054,"Delta":329320639},{"NoteNumber":62,"Velocity":48,"Duration":155054,"SoundDuration":155054,"Delta":329475693},{"NoteNumber":69,"Velocity":69,"Duration":310109,"SoundDuration":310109,"Delta":329630748},{"NoteNumber":61,"Velocity":50,"Duration":155054,"SoundDuration":155054,"Delta":329630748},{"NoteNumber":62,"Velocity":47,"Duration":155054,"SoundDuration":155054,"Delta":329785803},{"NoteNumber":71,"Velocity":64,"Duration":76734,"SoundDuration":76734,"Delta":329940858},{"NoteNumber":55,"Velocity":57,"Duration":153468,"SoundDuration":153468,"Delta":329940858},{"NoteNumber":73,"Velocity":59,"Duration":76734,"SoundDuration":76734,"Delta":330017592},{"NoteNumber":71,"Velocity":68,"Duration":153468,"SoundDuration":153468,"Delta":330094326},{"NoteNumber":62,"Velocity":47,"Duration":153468,"SoundDuration":153468,"Delta":330094326},{"NoteNumber":69,"Velocity":62,"Duration":306937,"SoundDuration":306937,"Delta":330247795},{"NoteNumber":54,"Velocity":50,"Duration":153468,"SoundDuration":153468,"Delta":330247795},{"NoteNumber":62,"Velocity":47,"Duration":153468,"SoundDuration":153468,"Delta":330401263},{"NoteNumber":71,"Velocity":62,"Duration":75574,"SoundDuration":75574,"Delta":330554732},{"NoteNumber":55,"Velocity":57,"Duration":151148,"SoundDuration":151148,"Delta":330554732},{"NoteNumber":73,"Velocity":62,"Duration":75574,"SoundDuration":75574,"Delta":330630306},{"NoteNumber":71,"Velocity":69,"Duration":151148,"SoundDuration":151148,"Delta":330705880},{"NoteNumber":62,"Velocity":48,"Duration":151148,"SoundDuration":151148,"Delta":330705880},{"NoteNumber":69,"Velocity":63,"Duration":257184,"SoundDuration":257184,"Delta":330857029},{"NoteNumber":54,"Velocity":50,"Duration":194170,"SoundDuration":194170,"Delta":330857029},{"NoteNumber":62,"Velocity":47,"Duration":252058,"SoundDuration":252058,"Delta":331051199},{"NoteNumber":69,"Velocity":64,"Duration":809262,"SoundDuration":809262,"Delta":331114214},{"NoteNumber":73,"Velocity":69,"Duration":746248,"SoundDuration":746248,"Delta":331177229},{"NoteNumber":76,"Velocity":73,"Duration":683233,"SoundDuration":683233,"Delta":331240243},{"NoteNumber":79,"Velocity":77,"Duration":620219,"SoundDuration":620219,"Delta":331303258},{"NoteNumber":52,"Velocity":48,"Duration":620219,"SoundDuration":620219,"Delta":331303258},{"NoteNumber":61,"Velocity":57,"Duration":620219,"SoundDuration":620219,"Delta":331303258},{"NoteNumber":78,"Velocity":69,"Duration":310109,"SoundDuration":310109,"Delta":332233586},{"NoteNumber":50,"Velocity":49,"Duration":310109,"SoundDuration":310109,"Delta":332233586},{"NoteNumber":62,"Velocity":58,"Duration":310109,"SoundDuration":310109,"Delta":332233586},{"NoteNumber":76,"Velocity":64,"Duration":153468,"SoundDuration":153468,"Delta":332543696},{"NoteNumber":55,"Velocity":48,"Duration":316172,"SoundDuration":316172,"Delta":332543696},{"NoteNumber":59,"Velocity":57,"Duration":316172,"SoundDuration":316172,"Delta":332543696},{"NoteNumber":78,"Velocity":50,"Duration":38367,"SoundDuration":38367,"Delta":332697164},{"NoteNumber":76,"Velocity":55,"Duration":38367,"SoundDuration":38367,"Delta":332735531},{"NoteNumber":75,"Velocity":58,"Duration":42984,"SoundDuration":42984,"Delta":332773899},{"NoteNumber":76,"Velocity":60,"Duration":42984,"SoundDuration":42984,"Delta":332816883},{"NoteNumber":79,"Velocity":62,"Duration":316172,"SoundDuration":316172,"Delta":332859868},{"NoteNumber":69,"Velocity":62,"Duration":152703,"SoundDuration":152703,"Delta":333176041},{"NoteNumber":57,"Velocity":39,"Duration":316297,"SoundDuration":316297,"Delta":333176041},{"NoteNumber":45,"Velocity":33,"Duration":316297,"SoundDuration":316297,"Delta":333176041},{"NoteNumber":71,"Velocity":54,"Duration":38564,"SoundDuration":38564,"Delta":333328744},{"NoteNumber":69,"Velocity":55,"Duration":38564,"SoundDuration":38564,"Delta":333367308},{"NoteNumber":68,"Velocity":59,"Duration":43232,"SoundDuration":43232,"Delta":333405873},{"NoteNumber":69,"Velocity":59,"Duration":43232,"SoundDuration":43232,"Delta":333449105},{"NoteNumber":67,"Velocity":60,"Duration":316667,"SoundDuration":316667,"Delta":333492338},{"NoteNumber":73,"Velocity":63,"Duration":316667,"SoundDuration":316667,"Delta":333492338},{"NoteNumber":66,"Velocity":58,"Duration":310109,"SoundDuration":310109,"Delta":333809006},{"NoteNumber":74,"Velocity":69,"Duration":310109,"SoundDuration":310109,"Delta":333809006},{"NoteNumber":38,"Velocity":38,"Duration":310109,"SoundDuration":310109,"Delta":333809006},{"NoteNumber":50,"Velocity":45,"Duration":310109,"SoundDuration":310109,"Delta":333809006},{"NoteNumber":55,"Velocity":41,"Duration":310109,"SoundDuration":310109,"Delta":334429225},{"NoteNumber":45,"Velocity":34,"Duration":310109,"SoundDuration":310109,"Delta":334429225},{"NoteNumber":57,"Velocity":57,"Duration":155054,"SoundDuration":155054,"Delta":334584280},{"NoteNumber":61,"Velocity":57,"Duration":155054,"SoundDuration":155054,"Delta":334739334},{"NoteNumber":69,"Velocity":50,"Duration":172930,"SoundDuration":172930,"Delta":334894389},{"NoteNumber":45,"Velocity":38,"Duration":308514,"SoundDuration":308514,"Delta":335067320},{"NoteNumber":54,"Velocity":45,"Duration":308514,"SoundDuration":308514,"Delta":335067320},{"NoteNumber":57,"Velocity":53,"Duration":154257,"SoundDuration":154257,"Delta":335221577},{"NoteNumber":62,"Velocity":57,"Duration":154257,"SoundDuration":154257,"Delta":335375835},{"NoteNumber":69,"Velocity":49,"Duration":192950,"SoundDuration":192950,"Delta":335530092},{"NoteNumber":52,"Velocity":39,"Duration":192333,"SoundDuration":192333,"Delta":335723043},{"NoteNumber":45,"Velocity":33,"Duration":401391,"SoundDuration":401391,"Delta":335723043},{"NoteNumber":52,"Velocity":39,"Duration":200695,"SoundDuration":200695,"Delta":335923739},{"NoteNumber":55,"Velocity":51,"Duration":212043,"SoundDuration":212043,"Delta":336124434},{"NoteNumber":61,"Velocity":42,"Duration":392259,"SoundDuration":392259,"Delta":336336478},{"NoteNumber":54,"Velocity":53,"Duration":905797,"SoundDuration":905797,"Delta":336728738},{"NoteNumber":62,"Velocity":53,"Duration":905797,"SoundDuration":905797,"Delta":336728738},{"NoteNumber":38,"Velocity":36,"Duration":905797,"SoundDuration":905797,"Delta":336728738},{"NoteNumber":50,"Velocity":43,"Duration":905797,"SoundDuration":905797,"Delta":336728738}],"license":{"name":"Creative Commons Attribution-ShareAlike 3.0 Germany","url":"http://creativecommons.org/licenses/by-sa/3.0/de/deed.en","text":"The MIDI, audio (MP3, OGG) and video files of Bernd Krueger are licensed under the cc-by-sa Germany License. This means that you can use and adapt the files, as long as you attribute the copyright holder.\n\nName: Bernd Krueger\nSource: http://www.piano-midi.de\n\nThe distribution or public playback of the files is only allowed under identical license conditions.\n\nThe scores are open source.","attribution":"MIDI files by Bernd Krueger (piano-midi.de)","attributionUrl":"http://www.piano-midi.de"}}