{"title":"Piano Sonata, Hob. XVI:8, IV","artist":"Haydn","durationMs":40409,"midiSha256":"05349261d65a1da4ed7b6f55a179f983a5d77ee20c62c3d38cbab24977729231","midiObject":[{"NoteNumber":74,"Velocity":63,"Duration":273972,"SoundDuration":273972,"Delta":0},{"NoteNumber":67,"Velocity":40,"Duration":136986,"SoundDuration":136986,"Delta":0},{"NoteNumber":71,"Velocity":36,"Duration":136986,"SoundDuration":136986,"Delta":136986},{"NoteNumber":79,"Velocity":65,"Duration":273972,"SoundDuration":273972,"Delta":273972},{"NoteNumber":67,"Velocity":41,"Duration":136986,"SoundDuration":136986,"Delta":273972},{"NoteNumber":71,"Velocity":38,"Duration":136986,"SoundDuration":136986,"Delta":410958},{"NoteNumber":83,"Velocity":68,"Duration":279070,"SoundDuration":279070,"Delta":547945},{"NoteNumber":67,"Velocity":43,"Duration":139534,"SoundDuration":139534,"Delta":547945},{"NoteNumber":71,"Velocity":39,"Duration":139535,"SoundDuration":139535,"Delta":687480},{"NoteNumber":86,"Velocity":71,"Duration":542986,"SoundDuration":542986,"Delta":827015},{"NoteNumber":67,"Velocity":45,"Duration":135746,"SoundDuration":135746,"Delta":827015},{"NoteNumber":71,"Velocity":40,"Duration":135746,"SoundDuration":135746,"Delta":962761},{"NoteNumber":67,"Velocity":45,"Duration":135746,"SoundDuration":135746,"Delta":1098508},{"NoteNumber":71,"Velocity":41,"Duration":135746,"SoundDuration":135746,"Delta":1234254},{"NoteNumber":74,"Velocity":63,"Duration":280373,"SoundDuration":280373,"Delta":1370001},{"NoteNumber":67,"Velocity":44,"Duration":140187,"SoundDuration":140187,"Delta":1370001},{"NoteNumber":71,"Velocity":38,"Duration":140186,"SoundDuration":140186,"Delta":1510188},{"NoteNumber":76,"Velocity":68,"Duration":270270,"SoundDuration":270270,"Delta":1650375},{"NoteNumber":67,"Velocity":45,"Duration":135135,"SoundDuration":135135,"Delta":1650375},{"NoteNumber":72,"Velocity":40,"Duration":135135,"SoundDuration":135135,"Delta":1785510},{"NoteNumber":84,"Velocity":63,"Duration":272727,"SoundDuration":272727,"Delta":1920645},{"NoteNumber":67,"Velocity":45,"Duration":136363,"SoundDuration":136363,"Delta":1920645},{"NoteNumber":72,"Velocity":34,"Duration":136363,"SoundDuration":136363,"Delta":2057009},{"NoteNumber":76,"Velocity":58,"Duration":285714,"SoundDuration":285714,"Delta":2193373},{"NoteNumber":67,"Velocity":44,"Duration":142857,"SoundDuration":142857,"Delta":2193373},{"NoteNumber":72,"Velocity":34,"Duration":142857,"SoundDuration":142857,"Delta":2336230},{"NoteNumber":74,"Velocity":58,"Duration":282392,"SoundDuration":282392,"Delta":2479087},{"NoteNumber":67,"Velocity":43,"Duration":142857,"SoundDuration":142857,"Delta":2479087},{"NoteNumber":71,"Velocity":34,"Duration":139534,"SoundDuration":139534,"Delta":2621944},{"NoteNumber":67,"Velocity":38,"Duration":139534,"SoundDuration":139534,"Delta":2761479},{"NoteNumber":71,"Velocity":32,"Duration":139534,"SoundDuration":139534,"Delta":2901014},{"NoteNumber":67,"Velocity":38,"Duration":139534,"SoundDuration":139534,"Delta":3040549},{"NoteNumber":71,"Velocity":32,"Duration":139534,"SoundDuration":139534,"Delta":3180084},{"NoteNumber":72,"Velocity":51,"Duration":272727,"SoundDuration":272727,"Delta":3319619},{"NoteNumber":62,"Velocity":35,"Duration":136363,"SoundDuration":136363,"Delta":3319619},{"NoteNumber":69,"Velocity":31,"Duration":136363,"SoundDuration":136363,"Delta":3455983},{"NoteNumber":81,"Velocity":45,"Duration":272727,"SoundDuration":272727,"Delta":3592347},{"NoteNumber":62,"Velocity":35,"Duration":136363,"SoundDuration":136363,"Delta":3592347},{"NoteNumber":69,"Velocity":31,"Duration":136363,"SoundDuration":136363,"Delta":3728711},{"NoteNumber":72,"Velocity":45,"Duration":279220,"SoundDuration":279220,"Delta":3865074},{"NoteNumber":62,"Velocity":35,"Duration":136363,"SoundDuration":136363,"Delta":3865074},{"NoteNumber":69,"Velocity":31,"Duration":142857,"SoundDuration":142857,"Delta":4001438},{"NoteNumber":71,"Velocity":52,"Duration":135135,"SoundDuration":135135,"Delta":4144295},{"NoteNumber":67,"Velocity":40,"Duration":135135,"SoundDuration":135135,"Delta":4144295},{"NoteNumber":79,"Velocity":44,"Duration":140844,"SoundDuration":140844,"Delta":4279431},{"NoteNumber":72,"Velocity":54,"Duration":135746,"SoundDuration":135746,"Delta":4420275},{"NoteNumber":69,"Velocity":37,"Duration":135746,"SoundDuration":135746,"Delta":4420275},{"NoteNumber":79,"Velocity":44,"Duration":140187,"SoundDuration":140187,"Delta":4556022},{"NoteNumber":74,"Velocity":53,"Duration":136363,"SoundDuration":136363,"Delta":4696209},{"NoteNumber":71,"Velocity":41,"Duration":136363,"SoundDuration":136363,"Delta":4696209},{"NoteNumber":79,"Velocity":45,"Duration":142179,"SoundDuration":142179,"Delta":4832573},{"NoteNumber":72,"Velocity":56,"Duration":138248,"SoundDuration":138248,"Delta":4974753},{"NoteNumber":60,"Velocity":45,"Duration":552995,"SoundDuration":552995,"Delta":4974753},{"NoteNumber":76,"Velocity":41,"Duration":138248,"SoundDuration":138248,"Delta":5113001},{"NoteNumber":74,"Velocity":52,"Duration":138248,"SoundDuration":138248,"Delta":5251250},{"NoteNumber":72,"Velocity":42,"Duration":138248,"SoundDuration":138248,"Delta":5389499},{"NoteNumber":71,"Velocity":49,"Duration":141509,"SoundDuration":141509,"Delta":5527748},{"NoteNumber":62,"Velocity":32,"Duration":283019,"SoundDuration":283019,"Delta":5527748},{"NoteNumber":69,"Velocity":40,"Duration":141509,"SoundDuration":141509,"Delta":5669257},{"NoteNumber":67,"Velocity":49,"Duration":297029,"SoundDuration":297029,"Delta":5810767},{"NoteNumber":55,"Velocity":37,"Duration":297029,"SoundDuration":297029,"Delta":5810767},{"NoteNumber":50,"Velocity":35,"Duration":152284,"SoundDuration":152284,"Delta":6107796},{"NoteNumber":43,"Velocity":37,"Duration":158730,"SoundDuration":158730,"Delta":6412365},{"NoteNumber":74,"Velocity":63,"Duration":273972,"SoundDuration":273972,"Delta":6729825},{"NoteNumber":67,"Velocity":40,"Duration":136986,"SoundDuration":136986,"Delta":6729825},{"NoteNumber":71,"Velocity":36,"Duration":136986,"SoundDuration":136986,"Delta":6866811},{"NoteNumber":79,"Velocity":65,"Duration":273972,"SoundDuration":273972,"Delta":7003798},{"NoteNumber":67,"Velocity":41,"Duration":136986,"SoundDuration":136986,"Delta":7003798},{"NoteNumber":71,"Velocity":38,"Duration":136986,"SoundDuration":136986,"Delta":7140784},{"NoteNumber":83,"Velocity":68,"Duration":279069,"SoundDuration":279069,"Delta":7277770},{"NoteNumber":67,"Velocity":43,"Duration":139535,"SoundDuration":139535,"Delta":7277770},{"NoteNumber":71,"Velocity":39,"Duration":139534,"SoundDuration":139534,"Delta":7417305},{"NoteNumber":86,"Velocity":71,"Duration":542986,"SoundDuration":542986,"Delta":7556840},{"NoteNumber":67,"Velocity":45,"Duration":135746,"SoundDuration":135746,"Delta":7556840},{"NoteNumber":71,"Velocity":40,"Duration":135746,"SoundDuration":135746,"Delta":7692587},{"NoteNumber":67,"Velocity":45,"Duration":135746,"SoundDuration":135746,"Delta":7828333},{"NoteNumber":71,"Velocity":41,"Duration":135746,"SoundDuration":135746,"Delta":7964080},{"NoteNumber":74,"Velocity":63,"Duration":280374,"SoundDuration":280374,"Delta":8099826},{"NoteNumber":67,"Velocity":44,"Duration":140186,"SoundDuration":140186,"Delta":8099826},{"NoteNumber":71,"Velocity":38,"Duration":140187,"SoundDuration":140187,"Delta":8240013},{"NoteNumber":76,"Velocity":68,"Duration":267856,"SoundDuration":267856,"Delta":8380200},{"NoteNumber":67,"Velocity":45,"Duration":133928,"SoundDuration":133928,"Delta":8380200},{"NoteNumber":72,"Velocity":40,"Duration":133928,"SoundDuration":133928,"Delta":8514129},{"NoteNumber":84,"Velocity":63,"Duration":272727,"SoundDuration":272727,"Delta":8648057},{"NoteNumber":67,"Velocity":45,"Duration":136363,"SoundDuration":136363,"Delta":8648057},{"NoteNumber":72,"Velocity":38,"Duration":136363,"SoundDuration":136363,"Delta":8784421},{"NoteNumber":76,"Velocity":58,"Duration":285714,"SoundDuration":285714,"Delta":8920785},{"NoteNumber":67,"Velocity":45,"Duration":142857,"SoundDuration":142857,"Delta":8920785},{"NoteNumber":72,"Velocity":34,"Duration":142857,"SoundDuration":142857,"Delta":9063642},{"NoteNumber":74,"Velocity":58,"Duration":282392,"SoundDuration":282392,"Delta":9206499},{"NoteNumber":67,"Velocity":44,"Duration":142857,"SoundDuration":142857,"Delta":9206499},{"NoteNumber":71,"Velocity":30,"Duration":139535,"SoundDuration":139535,"Delta":9349357},{"NoteNumber":67,"Velocity":39,"Duration":139535,"SoundDuration":139535,"Delta":9488892},{"NoteNumber":71,"Velocity":32,"Duration":139534,"SoundDuration":139534,"Delta":9628427},{"NoteNumber":67,"Velocity":38,"Duration":139535,"SoundDuration":139535,"Delta":9767961},{"NoteNumber":71,"Velocity":32,"Duration":139535,"SoundDuration":139535,"Delta":9907497},{"NoteNumber":72,"Velocity":51,"Duration":269058,"SoundDuration":269058,"Delta":10047032},{"NoteNumber":62,"Velocity":35,"Duration":134529,"SoundDuration":134529,"Delta":10047032},{"NoteNumber":69,"Velocity":31,"Duration":134529,"SoundDuration":134529,"Delta":10181561},{"NoteNumber":81,"Velocity":45,"Duration":272727,"SoundDuration":272727,"Delta":10316090},{"NoteNumber":62,"Velocity":35,"Duration":136363,"SoundDuration":136363,"Delta":10316090},{"NoteNumber":69,"Velocity":31,"Duration":136363,"SoundDuration":136363,"Delta":10452454},{"NoteNumber":72,"Velocity":45,"Duration":279220,"SoundDuration":279220,"Delta":10588818},{"NoteNumber":62,"Velocity":35,"Duration":136363,"SoundDuration":136363,"Delta":10588818},{"NoteNumber":69,"Velocity":31,"Duration":142857,"SoundDuration":142857,"Delta":10725181},{"NoteNumber":71,"Velocity":52,"Duration":133333,"SoundDuration":133333,"Delta":10868039},{"NoteNumber":67,"Velocity":40,"Duration":133333,"SoundDuration":133333,"Delta":10868039},{"NoteNumber":79,"Velocity":44,"Duration":140845,"SoundDuration":140845,"Delta":11001372},{"NoteNumber":72,"Velocity":54,"Duration":133333,"SoundDuration":133333,"Delta":11142217},{"NoteNumber":69,"Velocity":37,"Duration":133333,"SoundDuration":133333,"Delta":11142217},{"NoteNumber":79,"Velocity":44,"Duration":140186,"SoundDuration":140186,"Delta":11275550},{"NoteNumber":74,"Velocity":53,"Duration":136363,"SoundDuration":136363,"Delta":11415737},{"NoteNumber":71,"Velocity":41,"Duration":136363,"SoundDuration":136363,"Delta":11415737},{"NoteNumber":79,"Velocity":45,"Duration":142179,"SoundDuration":142179,"Delta":11552101},{"NoteNumber":72,"Velocity":56,"Duration":138248,"SoundDuration":138248,"Delta":11694281},{"NoteNumber":60,"Velocity":45,"Duration":552994,"SoundDuration":552994,"Delta":11694281},{"NoteNumber":76,"Velocity":41,"Duration":138248,"SoundDuration":138248,"Delta":11832529},{"NoteNumber":74,"Velocity":52,"Duration":138248,"SoundDuration":138248,"Delta":11970778},{"NoteNumber":72,"Velocity":42,"Duration":138248,"SoundDuration":138248,"Delta":12109027},{"NoteNumber":71,"Velocity":49,"Duration":141509,"SoundDuration":141509,"Delta":12247276},{"NoteNumber":62,"Velocity":32,"Duration":283018,"SoundDuration":283018,"Delta":12247276},{"NoteNumber":69,"Velocity":40,"Duration":141509,"SoundDuration":141509,"Delta":12388785},{"NoteNumber":67,"Velocity":49,"Duration":297029,"SoundDuration":297029,"Delta":12530295},{"NoteNumber":55,"Velocity":37,"Duration":297029,"SoundDuration":297029,"Delta":12530295},{"NoteNumber":50,"Velocity":35,"Duration":152284,"SoundDuration":152284,"Delta":12827324},{"NoteNumber":43,"Velocity":37,"Duration":158730,"SoundDuration":158730,"Delta":13131893},{"NoteNumber":66,"Velocity":56,"Duration":133333,"SoundDuration":133333,"Delta":13449353},{"NoteNumber":50,"Velocity":40,"Duration":823146,"SoundDuration":823146,"Delta":13449353},{"NoteNumber":62,"Velocity":48,"Duration":140845,"SoundDuration":140845,"Delta":13582686},{"NoteNumber":66,"Velocity":56,"Duration":133333,"SoundDuration":133333,"Delta":13723531},{"NoteNumber":62,"Velocity":47,"Duration":138248,"SoundDuration":138248,"Delta":13856865},{"NoteNumber":66,"Velocity":56,"Duration":134529,"SoundDuration":134529,"Delta":13995113},{"NoteNumber":60,"Velocity":39,"Duration":277386,"SoundDuration":277386,"Delta":13995113},{"NoteNumber":62,"Velocity":49,"Duration":142857,"SoundDuration":142857,"Delta":14129643},{"NoteNumber":67,"Velocity":56,"Duration":135135,"SoundDuration":135135,"Delta":14272500},{"NoteNumber":59,"Velocity":45,"Duration":270270,"SoundDuration":270270,"Delta":14272500},{"NoteNumber":62,"Velocity":50,"Duration":135135,"SoundDuration":135135,"Delta":14407635},{"NoteNumber":69,"Velocity":59,"Duration":135135,"SoundDuration":135135,"Delta":14542770},{"NoteNumber":54,"Velocity":40,"Duration":270270,"SoundDuration":270270,"Delta":14542770},{"NoteNumber":62,"Velocity":54,"Duration":135135,"SoundDuration":135135,"Delta":14677906},{"NoteNumber":71,"Velocity":62,"Duration":138889,"SoundDuration":138889,"Delta":14813041},{"NoteNumber":55,"Velocity":42,"Duration":277777,"SoundDuration":277777,"Delta":14813041},{"NoteNumber":62,"Velocity":55,"Duration":138888,"SoundDuration":138888,"Delta":14951930},{"NoteNumber":72,"Velocity":65,"Duration":135746,"SoundDuration":135746,"Delta":15090819},{"NoteNumber":57,"Velocity":52,"Duration":271492,"SoundDuration":271492,"Delta":15090819},{"NoteNumber":62,"Velocity":56,"Duration":135746,"SoundDuration":135746,"Delta":15226565},{"NoteNumber":72,"Velocity":64,"Duration":135746,"SoundDuration":135746,"Delta":15362312},{"NoteNumber":54,"Velocity":47,"Duration":271493,"SoundDuration":271493,"Delta":15362312},{"NoteNumber":62,"Velocity":56,"Duration":135746,"SoundDuration":135746,"Delta":15498058},{"NoteNumber":71,"Velocity":63,"Duration":140186,"SoundDuration":140186,"Delta":15633805},{"NoteNumber":55,"Velocity":47,"Duration":280374,"SoundDuration":280374,"Delta":15633805},{"NoteNumber":62,"Velocity":53,"Duration":140187,"SoundDuration":140187,"Delta":15773992},{"NoteNumber":69,"Velocity":61,"Duration":134529,"SoundDuration":134529,"Delta":15914179},{"NoteNumber":50,"Velocity":56,"Duration":551413,"SoundDuration":551413,"Delta":15914179},{"NoteNumber":54,"Velocity":56,"Duration":551413,"SoundDuration":551413,"Delta":15914179},{"NoteNumber":74,"Velocity":47,"Duration":140844,"SoundDuration":140844,"Delta":16048708},{"NoteNumber":66,"Velocity":59,"Duration":134529,"SoundDuration":134529,"Delta":16189553},{"NoteNumber":69,"Velocity":44,"Duration":141509,"SoundDuration":141509,"Delta":16324082},{"NoteNumber":62,"Velocity":54,"Duration":309275,"SoundDuration":309275,"Delta":16465592},{"NoteNumber":66,"Velocity":70,"Duration":133333,"SoundDuration":133333,"Delta":16777809},{"NoteNumber":62,"Velocity":67,"Duration":545760,"SoundDuration":545760,"Delta":16777809},{"NoteNumber":50,"Velocity":57,"Duration":545760,"SoundDuration":545760,"Delta":16777809},{"NoteNumber":74,"Velocity":59,"Duration":140844,"SoundDuration":140844,"Delta":16911142},{"NoteNumber":66,"Velocity":70,"Duration":133333,"SoundDuration":133333,"Delta":17051987},{"NoteNumber":74,"Velocity":58,"Duration":138248,"SoundDuration":138248,"Delta":17185321},{"NoteNumber":66,"Velocity":70,"Duration":134529,"SoundDuration":134529,"Delta":17323569},{"NoteNumber":48,"Velocity":51,"Duration":277386,"SoundDuration":277386,"Delta":17323569},{"NoteNumber":60,"Velocity":62,"Duration":277386,"SoundDuration":277386,"Delta":17323569},{"NoteNumber":74,"Velocity":56,"Duration":142857,"SoundDuration":142857,"Delta":17458098},{"NoteNumber":67,"Velocity":71,"Duration":135135,"SoundDuration":135135,"Delta":17600956},{"NoteNumber":47,"Velocity":60,"Duration":270270,"SoundDuration":270270,"Delta":17600956},{"NoteNumber":59,"Velocity":72,"Duration":270270,"SoundDuration":270270,"Delta":17600956},{"NoteNumber":74,"Velocity":63,"Duration":135135,"SoundDuration":135135,"Delta":17736091},{"NoteNumber":69,"Velocity":73,"Duration":135135,"SoundDuration":135135,"Delta":17871226},{"NoteNumber":45,"Velocity":54,"Duration":270270,"SoundDuration":270270,"Delta":17871226},{"NoteNumber":57,"Velocity":64,"Duration":270270,"SoundDuration":270270,"Delta":17871226},{"NoteNumber":74,"Velocity":62,"Duration":135135,"SoundDuration":135135,"Delta":18006361},{"NoteNumber":71,"Velocity":78,"Duration":138888,"SoundDuration":138888,"Delta":18141497},{"NoteNumber":43,"Velocity":56,"Duration":277778,"SoundDuration":277778,"Delta":18141497},{"NoteNumber":55,"Velocity":66,"Duration":277778,"SoundDuration":277778,"Delta":18141497},{"NoteNumber":74,"Velocity":75,"Duration":138889,"SoundDuration":138889,"Delta":18280386},{"NoteNumber":72,"Velocity":80,"Duration":135746,"SoundDuration":135746,"Delta":18419275},{"NoteNumber":42,"Velocity":62,"Duration":542985,"SoundDuration":542985,"Delta":18419275},{"NoteNumber":54,"Velocity":73,"Duration":542985,"SoundDuration":542985,"Delta":18419275},{"NoteNumber":74,"Velocity":71,"Duration":135746,"SoundDuration":135746,"Delta":18555021},{"NoteNumber":72,"Velocity":75,"Duration":135746,"SoundDuration":135746,"Delta":18690768},{"NoteNumber":74,"Velocity":64,"Duration":135746,"SoundDuration":135746,"Delta":18826514},{"NoteNumber":71,"Velocity":72,"Duration":140187,"SoundDuration":140187,"Delta":18962261},{"NoteNumber":43,"Velocity":49,"Duration":280373,"SoundDuration":280373,"Delta":18962261},{"NoteNumber":55,"Velocity":59,"Duration":280373,"SoundDuration":280373,"Delta":18962261},{"NoteNumber":74,"Velocity":60,"Duration":140186,"SoundDuration":140186,"Delta":19102448},{"NoteNumber":69,"Velocity":70,"Duration":134529,"SoundDuration":134529,"Delta":19242635},{"NoteNumber":38,"Velocity":54,"Duration":551413,"SoundDuration":551413,"Delta":19242635},{"NoteNumber":50,"Velocity":64,"Duration":551413,"SoundDuration":551413,"Delta":19242635},{"NoteNumber":74,"Velocity":54,"Duration":140844,"SoundDuration":140844,"Delta":19377164},{"NoteNumber":66,"Velocity":67,"Duration":134529,"SoundDuration":134529,"Delta":19518009},{"NoteNumber":69,"Velocity":50,"Duration":141509,"SoundDuration":141509,"Delta":19652538},{"NoteNumber":62,"Velocity":62,"Duration":314318,"SoundDuration":314318,"Delta":19794048},{"NoteNumber":74,"Velocity":50,"Duration":273972,"SoundDuration":273972,"Delta":20108366},{"NoteNumber":67,"Velocity":32,"Duration":136986,"SoundDuration":136986,"Delta":20108366},{"NoteNumber":71,"Velocity":28,"Duration":136986,"SoundDuration":136986,"Delta":20245352},{"NoteNumber":79,"Velocity":52,"Duration":273972,"SoundDuration":273972,"Delta":20382338},{"NoteNumber":67,"Velocity":32,"Duration":136986,"SoundDuration":136986,"Delta":20382338},{"NoteNumber":71,"Velocity":30,"Duration":136986,"SoundDuration":136986,"Delta":20519324},{"NoteNumber":83,"Velocity":54,"Duration":279070,"SoundDuration":279070,"Delta":20656311},{"NoteNumber":67,"Velocity":34,"Duration":139534,"SoundDuration":139534,"Delta":20656311},{"NoteNumber":71,"Velocity":31,"Duration":139535,"SoundDuration":139535,"Delta":20795846},{"NoteNumber":86,"Velocity":56,"Duration":542985,"SoundDuration":542985,"Delta":20935381},{"NoteNumber":67,"Velocity":36,"Duration":135746,"SoundDuration":135746,"Delta":20935381},{"NoteNumber":71,"Velocity":32,"Duration":135746,"SoundDuration":135746,"Delta":21071127},{"NoteNumber":67,"Velocity":36,"Duration":135746,"SoundDuration":135746,"Delta":21206874},{"NoteNumber":71,"Velocity":32,"Duration":135746,"SoundDuration":135746,"Delta":21342620},{"NoteNumber":74,"Velocity":50,"Duration":280373,"SoundDuration":280373,"Delta":21478367},{"NoteNumber":67,"Velocity":35,"Duration":140187,"SoundDuration":140187,"Delta":21478367},{"NoteNumber":71,"Velocity":30,"Duration":140186,"SoundDuration":140186,"Delta":21618554},{"NoteNumber":76,"Velocity":54,"Duration":270270,"SoundDuration":270270,"Delta":21758741},{"NoteNumber":67,"Velocity":36,"Duration":135135,"SoundDuration":135135,"Delta":21758741},{"NoteNumber":72,"Velocity":32,"Duration":135135,"SoundDuration":135135,"Delta":21893876},{"NoteNumber":84,"Velocity":50,"Duration":272727,"SoundDuration":272727,"Delta":22029011},{"NoteNumber":67,"Velocity":36,"Duration":136363,"SoundDuration":136363,"Delta":22029011},{"NoteNumber":72,"Velocity":32,"Duration":136363,"SoundDuration":136363,"Delta":22165375},{"NoteNumber":76,"Velocity":46,"Duration":285714,"SoundDuration":285714,"Delta":22301739},{"NoteNumber":67,"Velocity":39,"Duration":142857,"SoundDuration":142857,"Delta":22301739},{"NoteNumber":72,"Velocity":34,"Duration":142857,"SoundDuration":142857,"Delta":22444596},{"NoteNumber":74,"Velocity":46,"Duration":282392,"SoundDuration":282392,"Delta":22587453},{"NoteNumber":67,"Velocity":38,"Duration":142857,"SoundDuration":142857,"Delta":22587453},{"NoteNumber":71,"Velocity":27,"Duration":139534,"SoundDuration":139534,"Delta":22730310},{"NoteNumber":67,"Velocity":32,"Duration":139535,"SoundDuration":139535,"Delta":22869845},{"NoteNumber":71,"Velocity":25,"Duration":139534,"SoundDuration":139534,"Delta":23009380},{"NoteNumber":67,"Velocity":30,"Duration":139535,"SoundDuration":139535,"Delta":23148915},{"NoteNumber":71,"Velocity":25,"Duration":139534,"SoundDuration":139534,"Delta":23288450},{"NoteNumber":72,"Velocity":68,"Duration":272727,"SoundDuration":272727,"Delta":23427985},{"NoteNumber":62,"Velocity":47,"Duration":136363,"SoundDuration":136363,"Delta":23427985},{"NoteNumber":69,"Velocity":41,"Duration":136363,"SoundDuration":136363,"Delta":23564349},{"NoteNumber":81,"Velocity":60,"Duration":272727,"SoundDuration":272727,"Delta":23700713},{"NoteNumber":62,"Velocity":47,"Duration":136363,"SoundDuration":136363,"Delta":23700713},{"NoteNumber":69,"Velocity":41,"Duration":136363,"SoundDuration":136363,"Delta":23837077},{"NoteNumber":72,"Velocity":60,"Duration":279220,"SoundDuration":279220,"Delta":23973440},{"NoteNumber":62,"Velocity":47,"Duration":136363,"SoundDuration":136363,"Delta":23973440},{"NoteNumber":69,"Velocity":41,"Duration":142857,"SoundDuration":142857,"Delta":24109804},{"NoteNumber":71,"Velocity":70,"Duration":135135,"SoundDuration":135135,"Delta":24252661},{"NoteNumber":67,"Velocity":54,"Duration":135135,"SoundDuration":135135,"Delta":24252661},{"NoteNumber":79,"Velocity":59,"Duration":140844,"SoundDuration":140844,"Delta":24387797},{"NoteNumber":72,"Velocity":72,"Duration":135746,"SoundDuration":135746,"Delta":24528642},{"NoteNumber":69,"Velocity":49,"Duration":135746,"SoundDuration":135746,"Delta":24528642},{"NoteNumber":79,"Velocity":59,"Duration":140187,"SoundDuration":140187,"Delta":24664388},{"NoteNumber":74,"Velocity":71,"Duration":136363,"SoundDuration":136363,"Delta":24804575},{"NoteNumber":71,"Velocity":55,"Duration":136363,"SoundDuration":136363,"Delta":24804575},{"NoteNumber":79,"Velocity":60,"Duration":142179,"SoundDuration":142179,"Delta":24940939},{"NoteNumber":72,"Velocity":75,"Duration":138248,"SoundDuration":138248,"Delta":25083119},{"NoteNumber":60,"Velocity":60,"Duration":552994,"SoundDuration":552994,"Delta":25083119},{"NoteNumber":76,"Velocity":64,"Duration":138248,"SoundDuration":138248,"Delta":25221368},{"NoteNumber":74,"Velocity":70,"Duration":138248,"SoundDuration":138248,"Delta":25359616},{"NoteNumber":72,"Velocity":62,"Duration":138248,"SoundDuration":138248,"Delta":25497865},{"NoteNumber":71,"Velocity":66,"Duration":141509,"SoundDuration":141509,"Delta":25636114},{"NoteNumber":62,"Velocity":51,"Duration":283018,"SoundDuration":283018,"Delta":25636114},{"NoteNumber":69,"Velocity":59,"Duration":141509,"SoundDuration":141509,"Delta":25777623},{"NoteNumber":67,"Velocity":74,"Duration":297029,"SoundDuration":297029,"Delta":25919133},{"NoteNumber":55,"Velocity":57,"Duration":297029,"SoundDuration":297029,"Delta":25919133},{"NoteNumber":50,"Velocity":54,"Duration":152284,"SoundDuration":152284,"Delta":26216162},{"NoteNumber":43,"Velocity":55,"Duration":158730,"SoundDuration":158730,"Delta":26520731},{"NoteNumber":66,"Velocity":56,"Duration":133333,"SoundDuration":133333,"Delta":26838191},{"NoteNumber":50,"Velocity":40,"Duration":823146,"SoundDuration":823146,"Delta":26838191},{"NoteNumber":62,"Velocity":48,"Duration":140844,"SoundDuration":140844,"Delta":26971525},{"NoteNumber":66,"Velocity":56,"Duration":133333,"SoundDuration":133333,"Delta":27112370},{"NoteNumber":62,"Velocity":47,"Duration":138248,"SoundDuration":138248,"Delta":27245703},{"NoteNumber":66,"Velocity":56,"Duration":134529,"SoundDuration":134529,"Delta":27383952},{"NoteNumber":60,"Velocity":39,"Duration":277386,"SoundDuration":277386,"Delta":27383952},{"NoteNumber":62,"Velocity":49,"Duration":142857,"SoundDuration":142857,"Delta":27518481},{"NoteNumber":67,"Velocity":56,"Duration":135135,"SoundDuration":135135,"Delta":27661338},{"NoteNumber":59,"Velocity":45,"Duration":270270,"SoundDuration":270270,"Delta":27661338},{"NoteNumber":62,"Velocity":50,"Duration":135135,"SoundDuration":135135,"Delta":27796473},{"NoteNumber":69,"Velocity":59,"Duration":135135,"SoundDuration":135135,"Delta":27931609},{"NoteNumber":54,"Velocity":40,"Duration":270270,"SoundDuration":270270,"Delta":27931609},{"NoteNumber":62,"Velocity":54,"Duration":135135,"SoundDuration":135135,"Delta":28066744},{"NoteNumber":71,"Velocity":62,"Duration":138888,"SoundDuration":138888,"Delta":28201879},{"NoteNumber":55,"Velocity":42,"Duration":277778,"SoundDuration":277778,"Delta":28201879},{"NoteNumber":62,"Velocity":55,"Duration":138889,"SoundDuration":138889,"Delta":28340768},{"NoteNumber":72,"Velocity":65,"Duration":135746,"SoundDuration":135746,"Delta":28479657},{"NoteNumber":57,"Velocity":52,"Duration":271492,"SoundDuration":271492,"Delta":28479657},{"NoteNumber":62,"Velocity":56,"Duration":135746,"SoundDuration":135746,"Delta":28615404},{"NoteNumber":72,"Velocity":64,"Duration":135746,"SoundDuration":135746,"Delta":28751150},{"NoteNumber":54,"Velocity":47,"Duration":271492,"SoundDuration":271492,"Delta":28751150},{"NoteNumber":62,"Velocity":56,"Duration":135746,"SoundDuration":135746,"Delta":28886897},{"NoteNumber":71,"Velocity":63,"Duration":140187,"SoundDuration":140187,"Delta":29022643},{"NoteNumber":55,"Velocity":47,"Duration":280373,"SoundDuration":280373,"Delta":29022643},{"NoteNumber":62,"Velocity":53,"Duration":140186,"SoundDuration":140186,"Delta":29162830},{"NoteNumber":69,"Velocity":61,"Duration":133333,"SoundDuration":133333,"Delta":29303017},{"NoteNumber":50,"Velocity":56,"Duration":549020,"SoundDuration":549020,"Delta":29303017},{"NoteNumber":54,"Velocity":56,"Duration":549020,"SoundDuration":549020,"Delta":29303017},{"NoteNumber":74,"Velocity":47,"Duration":140844,"SoundDuration":140844,"Delta":29436350},{"NoteNumber":66,"Velocity":59,"Duration":133333,"SoundDuration":133333,"Delta":29577195},{"NoteNumber":69,"Velocity":44,"Duration":141509,"SoundDuration":141509,"Delta":29710529},{"NoteNumber":62,"Velocity":54,"Duration":309275,"SoundDuration":309275,"Delta":29852038},{"NoteNumber":66,"Velocity":70,"Duration":132158,"SoundDuration":132158,"Delta":30164255},{"NoteNumber":62,"Velocity":67,"Duration":542831,"SoundDuration":542831,"Delta":30164255},{"NoteNumber":50,"Velocity":57,"Duration":542831,"SoundDuration":542831,"Delta":30164255},{"NoteNumber":74,"Velocity":59,"Duration":140844,"SoundDuration":140844,"Delta":30296414},{"NoteNumber":66,"Velocity":70,"Duration":131578,"SoundDuration":131578,"Delta":30437259},{"NoteNumber":74,"Velocity":58,"Duration":138248,"SoundDuration":138248,"Delta":30568838},{"NoteNumber":66,"Velocity":70,"Duration":134529,"SoundDuration":134529,"Delta":30707086},{"NoteNumber":48,"Velocity":51,"Duration":277386,"SoundDuration":277386,"Delta":30707086},{"NoteNumber":60,"Velocity":62,"Duration":277386,"SoundDuration":277386,"Delta":30707086},{"NoteNumber":74,"Velocity":56,"Duration":142857,"SoundDuration":142857,"Delta":30841616},{"NoteNumber":67,"Velocity":71,"Duration":135135,"SoundDuration":135135,"Delta":30984473},{"NoteNumber":47,"Velocity":60,"Duration":270270,"SoundDuration":270270,"Delta":30984473},{"NoteNumber":59,"Velocity":72,"Duration":270270,"SoundDuration":270270,"Delta":30984473},{"NoteNumber":74,"Velocity":63,"Duration":135135,"SoundDuration":135135,"Delta":31119608},{"NoteNumber":69,"Velocity":73,"Duration":135135,"SoundDuration":135135,"Delta":31254743},{"NoteNumber":45,"Velocity":54,"Duration":270270,"SoundDuration":270270,"Delta":31254743},{"NoteNumber":57,"Velocity":64,"Duration":270270,"SoundDuration":270270,"Delta":31254743},{"NoteNumber":74,"Velocity":62,"Duration":135135,"SoundDuration":135135,"Delta":31389879},{"NoteNumber":71,"Velocity":78,"Duration":138888,"SoundDuration":138888,"Delta":31525014},{"NoteNumber":43,"Velocity":56,"Duration":277778,"SoundDuration":277778,"Delta":31525014},{"NoteNumber":55,"Velocity":66,"Duration":277778,"SoundDuration":277778,"Delta":31525014},{"NoteNumber":74,"Velocity":75,"Duration":138889,"SoundDuration":138889,"Delta":31663903},{"NoteNumber":72,"Velocity":80,"Duration":135746,"SoundDuration":135746,"Delta":31802792},{"NoteNumber":42,"Velocity":62,"Duration":542985,"SoundDuration":542985,"Delta":31802792},{"NoteNumber":54,"Velocity":73,"Duration":542985,"SoundDuration":542985,"Delta":31802792},{"NoteNumber":74,"Velocity":71,"Duration":135746,"SoundDuration":135746,"Delta":31938538},{"NoteNumber":72,"Velocity":75,"Duration":135746,"SoundDuration":135746,"Delta":32074285},{"NoteNumber":74,"Velocity":64,"Duration":135746,"SoundDuration":135746,"Delta":32210031},{"NoteNumber":71,"Velocity":72,"Duration":140186,"SoundDuration":140186,"Delta":32345778},{"NoteNumber":43,"Velocity":49,"Duration":280374,"SoundDuration":280374,"Delta":32345778},{"NoteNumber":55,"Velocity":59,"Duration":280374,"SoundDuration":280374,"Delta":32345778},{"NoteNumber":74,"Velocity":60,"Duration":140187,"SoundDuration":140187,"Delta":32485965},{"NoteNumber":69,"Velocity":70,"Duration":133333,"SoundDuration":133333,"Delta":32626152},{"NoteNumber":38,"Velocity":54,"Duration":549020,"SoundDuration":549020,"Delta":32626152},{"NoteNumber":50,"Velocity":64,"Duration":549020,"SoundDuration":549020,"Delta":32626152},{"NoteNumber":74,"Velocity":54,"Duration":140844,"SoundDuration":140844,"Delta":32759485},{"NoteNumber":66,"Velocity":67,"Duration":133333,"SoundDuration":133333,"Delta":32900330},{"NoteNumber":69,"Velocity":50,"Duration":141509,"SoundDuration":141509,"Delta":33033663},{"NoteNumber":62,"Velocity":62,"Duration":314318,"SoundDuration":314318,"Delta":33175173},{"NoteNumber":74,"Velocity":50,"Duration":273972,"SoundDuration":273972,"Delta":33489491},{"NoteNumber":67,"Velocity":32,"Duration":136986,"SoundDuration":136986,"Delta":33489491},{"NoteNumber":71,"Velocity":28,"Duration":136986,"SoundDuration":136986,"Delta":33626477},{"NoteNumber":79,"Velocity":52,"Duration":273972,"SoundDuration":273972,"Delta":33763463},{"NoteNumber":67,"Velocity":32,"Duration":136986,"SoundDuration":136986,"Delta":33763463},{"NoteNumber":71,"Velocity":30,"Duration":136986,"SoundDuration":136986,"Delta":33900450},{"NoteNumber":83,"Velocity":54,"Duration":279069,"SoundDuration":279069,"Delta":34037436},{"NoteNumber":67,"Velocity":34,"Duration":139535,"SoundDuration":139535,"Delta":34037436},{"NoteNumber":71,"Velocity":31,"Duration":139534,"SoundDuration":139534,"Delta":34176971},{"NoteNumber":86,"Velocity":56,"Duration":542985,"SoundDuration":542985,"Delta":34316506},{"NoteNumber":67,"Velocity":36,"Duration":135746,"SoundDuration":135746,"Delta":34316506},{"NoteNumber":71,"Velocity":32,"Duration":135746,"SoundDuration":135746,"Delta":34452252},{"NoteNumber":67,"Velocity":36,"Duration":135746,"SoundDuration":135746,"Delta":34587999},{"NoteNumber":71,"Velocity":32,"Duration":135746,"SoundDuration":135746,"Delta":34723745},{"NoteNumber":74,"Velocity":50,"Duration":280374,"SoundDuration":280374,"Delta":34859492},{"NoteNumber":67,"Velocity":35,"Duration":140186,"SoundDuration":140186,"Delta":34859492},{"NoteNumber":71,"Velocity":30,"Duration":140187,"SoundDuration":140187,"Delta":34999679},{"NoteNumber":76,"Velocity":54,"Duration":267856,"SoundDuration":267856,"Delta":35139866},{"NoteNumber":67,"Velocity":36,"Duration":133928,"SoundDuration":133928,"Delta":35139866},{"NoteNumber":72,"Velocity":32,"Duration":133928,"SoundDuration":133928,"Delta":35273794},{"NoteNumber":84,"Velocity":50,"Duration":272727,"SoundDuration":272727,"Delta":35407723},{"NoteNumber":67,"Velocity":36,"Duration":136363,"SoundDuration":136363,"Delta":35407723},{"NoteNumber":72,"Velocity":32,"Duration":136363,"SoundDuration":136363,"Delta":35544087},{"NoteNumber":76,"Velocity":46,"Duration":285714,"SoundDuration":285714,"Delta":35680450},{"NoteNumber":67,"Velocity":39,"Duration":142857,"SoundDuration":142857,"Delta":35680450},{"NoteNumber":72,"Velocity":34,"Duration":142857,"SoundDuration":142857,"Delta":35823308},{"NoteNumber":74,"Velocity":46,"Duration":282392,"SoundDuration":282392,"Delta":35966165},{"NoteNumber":67,"Velocity":38,"Duration":142857,"SoundDuration":142857,"Delta":35966165},{"NoteNumber":71,"Velocity":27,"Duration":139535,"SoundDuration":139535,"Delta":36109022},{"NoteNumber":67,"Velocity":32,"Duration":139534,"SoundDuration":139534,"Delta":36248557},{"NoteNumber":71,"Velocity":25,"Duration":139535,"SoundDuration":139535,"Delta":36388092},{"NoteNumber":67,"Velocity":30,"Duration":139535,"SoundDuration":139535,"Delta":36527627},{"NoteNumber":71,"Velocity":25,"Duration":139534,"SoundDuration":139534,"Delta":36667162},{"NoteNumber":72,"Velocity":68,"Duration":272727,"SoundDuration":272727,"Delta":36806697},{"NoteNumber":62,"Velocity":47,"Duration":136363,"SoundDuration":136363,"Delta":36806697},{"NoteNumber":69,"Velocity":41,"Duration":136363,"SoundDuration":136363,"Delta":36943061},{"NoteNumber":81,"Velocity":60,"Duration":272727,"SoundDuration":272727,"Delta":37079425},{"NoteNumber":62,"Velocity":47,"Duration":136363,"SoundDuration":136363,"Delta":37079425},{"NoteNumber":69,"Velocity":41,"Duration":136363,"SoundDuration":136363,"Delta":37215788},{"NoteNumber":72,"Velocity":60,"Duration":279220,"SoundDuration":279220,"Delta":37352152},{"NoteNumber":62,"Velocity":47,"Duration":136363,"SoundDuration":136363,"Delta":37352152},{"NoteNumber":69,"Velocity":41,"Duration":142857,"SoundDuration":142857,"Delta":37488516},{"NoteNumber":71,"Velocity":70,"Duration":135135,"SoundDuration":135135,"Delta":37631373},{"NoteNumber":67,"Velocity":54,"Duration":135135,"SoundDuration":135135,"Delta":37631373},{"NoteNumber":79,"Velocity":59,"Duration":144927,"SoundDuration":144927,"Delta":37766508},{"NoteNumber":72,"Velocity":72,"Duration":135746,"SoundDuration":135746,"Delta":37911436},{"NoteNumber":69,"Velocity":49,"Duration":135746,"SoundDuration":135746,"Delta":37911436},{"NoteNumber":79,"Velocity":59,"Duration":143540,"SoundDuration":143540,"Delta":38047182},{"NoteNumber":74,"Velocity":71,"Duration":136363,"SoundDuration":136363,"Delta":38190723},{"NoteNumber":71,"Velocity":55,"Duration":136363,"SoundDuration":136363,"Delta":38190723},{"NoteNumber":79,"Velocity":60,"Duration":145631,"SoundDuration":145631,"Delta":38327087},{"NoteNumber":72,"Velocity":75,"Duration":140186,"SoundDuration":140186,"Delta":38472718},{"NoteNumber":60,"Velocity":60,"Duration":560747,"SoundDuration":560747,"Delta":38472718},{"NoteNumber":76,"Velocity":64,"Duration":140187,"SoundDuration":140187,"Delta":38612905},{"NoteNumber":74,"Velocity":70,"Duration":140186,"SoundDuration":140186,"Delta":38753092},{"NoteNumber":72,"Velocity":62,"Duration":140186,"SoundDuration":140186,"Delta":38893279},{"NoteNumber":71,"Velocity":66,"Duration":147783,"SoundDuration":147783,"Delta":39033466},{"NoteNumber":62,"Velocity":51,"Duration":295566,"SoundDuration":295566,"Delta":39033466},{"NoteNumber":69,"Velocity":59,"Duration":147783,"SoundDuration":147783,"Delta":39181249},{"NoteNumber":67,"Velocity":74,"Duration":322580,"SoundDuration":322580,"Delta":39329032},{"NoteNumber":55,"Velocity":57,"Duration":322580,"SoundDuration":322580,"Delta":39329032},{"NoteNumber":50,"Velocity":54,"Duration":185185,"SoundDuration":185185,"Delta":39651613},{"NoteNumber":43,"Velocity":55,"Duration":387096,"SoundDuration":387096,"Delta":40021983}],"license":{"name":"Creative Commons Attribution-ShareAlike 3.0 Germany","url":"http://creativecommons.org/licenses/by-sa/3.0/de/deed.en","text":"The MIDI files in this folder were downloaded from http://www.piano-midi.de and are licensed under the Creative Commons Attribution-ShareAlike 3.0 Germany license by Bernd Krueger.\n\nThe MIDI, audio(MP3, OGG) and video files of Bernd Krueger are licensed under the cc-by-sa Germany License . This means, that you can use and adapt the files, as long as you attribute to the copyright holder Name: Bernd Krueger Source: http://www.piano-midi.de The distribution or public playback of the files is only allowed under identical license conditions . The scores are open source.","attribution":"Bernd Krueger","attributionUrl":"http://www.piano-midi.de"}}