{"title":"Piano Sonata in F major, Hob. XVI:9: II. Menuet","artist":"Haydn","durationMs":169819,"midiSha256":"690f699cdac3285d5fa34daeb50199915b728958b413d70381b9f7ada9f9eba0","midiObject":[{"NoteNumber":77,"Velocity":62,"Duration":60086,"SoundDuration":60086,"Delta":0},{"NoteNumber":41,"Velocity":33,"Duration":480692,"SoundDuration":480692,"Delta":0},{"NoteNumber":53,"Velocity":39,"Duration":480692,"SoundDuration":480692,"Delta":0},{"NoteNumber":79,"Velocity":48,"Duration":60086,"SoundDuration":60086,"Delta":60086},{"NoteNumber":77,"Velocity":56,"Duration":60086,"SoundDuration":60086,"Delta":120173},{"NoteNumber":76,"Velocity":48,"Duration":60086,"SoundDuration":60086,"Delta":180259},{"NoteNumber":77,"Velocity":61,"Duration":721038,"SoundDuration":721038,"Delta":240346},{"NoteNumber":57,"Velocity":34,"Duration":480692,"SoundDuration":480692,"Delta":480692},{"NoteNumber":45,"Velocity":28,"Duration":480692,"SoundDuration":480692,"Delta":480692},{"NoteNumber":82,"Velocity":55,"Duration":156801,"SoundDuration":156801,"Delta":961384},{"NoteNumber":60,"Velocity":34,"Duration":470404,"SoundDuration":470404,"Delta":961384},{"NoteNumber":48,"Velocity":28,"Duration":470404,"SoundDuration":470404,"Delta":961384},{"NoteNumber":79,"Velocity":46,"Duration":156801,"SoundDuration":156801,"Delta":1118185},{"NoteNumber":76,"Velocity":45,"Duration":156801,"SoundDuration":156801,"Delta":1274986},{"NoteNumber":77,"Velocity":50,"Duration":240345,"SoundDuration":240345,"Delta":1431788},{"NoteNumber":53,"Velocity":34,"Duration":480691,"SoundDuration":480691,"Delta":1431788},{"NoteNumber":65,"Velocity":41,"Duration":480691,"SoundDuration":480691,"Delta":1431788},{"NoteNumber":81,"Velocity":43,"Duration":240345,"SoundDuration":240345,"Delta":1672134},{"NoteNumber":72,"Velocity":50,"Duration":482470,"SoundDuration":482470,"Delta":1912480},{"NoteNumber":70,"Velocity":46,"Duration":62810,"SoundDuration":62810,"Delta":2394950},{"NoteNumber":67,"Velocity":34,"Duration":490954,"SoundDuration":490954,"Delta":2394950},{"NoteNumber":72,"Velocity":41,"Duration":61828,"SoundDuration":61828,"Delta":2457760},{"NoteNumber":70,"Velocity":46,"Duration":60858,"SoundDuration":60858,"Delta":2519588},{"NoteNumber":72,"Velocity":41,"Duration":60193,"SoundDuration":60193,"Delta":2580447},{"NoteNumber":70,"Velocity":46,"Duration":80907,"SoundDuration":80907,"Delta":2640641},{"NoteNumber":72,"Velocity":43,"Duration":81772,"SoundDuration":81772,"Delta":2721548},{"NoteNumber":70,"Velocity":43,"Duration":82583,"SoundDuration":82583,"Delta":2803321},{"NoteNumber":69,"Velocity":50,"Duration":241235,"SoundDuration":241235,"Delta":2885904},{"NoteNumber":65,"Velocity":41,"Duration":482470,"SoundDuration":482470,"Delta":2885904},{"NoteNumber":72,"Velocity":43,"Duration":241235,"SoundDuration":241235,"Delta":3127139},{"NoteNumber":77,"Velocity":50,"Duration":157368,"SoundDuration":157368,"Delta":3368374},{"NoteNumber":76,"Velocity":41,"Duration":157368,"SoundDuration":157368,"Delta":3525743},{"NoteNumber":74,"Velocity":41,"Duration":157368,"SoundDuration":157368,"Delta":3683112},{"NoteNumber":72,"Velocity":47,"Duration":157368,"SoundDuration":157368,"Delta":3840480},{"NoteNumber":70,"Velocity":40,"Duration":157368,"SoundDuration":157368,"Delta":3997849},{"NoteNumber":69,"Velocity":40,"Duration":157368,"SoundDuration":157368,"Delta":4155218},{"NoteNumber":67,"Velocity":50,"Duration":731707,"SoundDuration":731707,"Delta":4312586},{"NoteNumber":64,"Velocity":41,"Duration":487804,"SoundDuration":487804,"Delta":4312586},{"NoteNumber":60,"Velocity":34,"Duration":477438,"SoundDuration":477438,"Delta":4800391},{"NoteNumber":69,"Velocity":43,"Duration":116767,"SoundDuration":116767,"Delta":5044294},{"NoteNumber":70,"Velocity":38,"Duration":116767,"SoundDuration":116767,"Delta":5161062},{"NoteNumber":69,"Velocity":47,"Duration":502675,"SoundDuration":502675,"Delta":5277829},{"NoteNumber":65,"Velocity":41,"Duration":502675,"SoundDuration":502675,"Delta":5277829},{"NoteNumber":77,"Velocity":64,"Duration":60086,"SoundDuration":60086,"Delta":5780505},{"NoteNumber":53,"Velocity":39,"Duration":480692,"SoundDuration":480692,"Delta":5780505},{"NoteNumber":79,"Velocity":51,"Duration":60086,"SoundDuration":60086,"Delta":5840591},{"NoteNumber":77,"Velocity":56,"Duration":60086,"SoundDuration":60086,"Delta":5900678},{"NoteNumber":76,"Velocity":50,"Duration":60086,"SoundDuration":60086,"Delta":5960764},{"NoteNumber":77,"Velocity":57,"Duration":721038,"SoundDuration":721038,"Delta":6020851},{"NoteNumber":57,"Velocity":34,"Duration":480691,"SoundDuration":480691,"Delta":6261197},{"NoteNumber":82,"Velocity":50,"Duration":157368,"SoundDuration":157368,"Delta":6741889},{"NoteNumber":60,"Velocity":34,"Duration":472106,"SoundDuration":472106,"Delta":6741889},{"NoteNumber":79,"Velocity":46,"Duration":157368,"SoundDuration":157368,"Delta":6899258},{"NoteNumber":76,"Velocity":45,"Duration":157368,"SoundDuration":157368,"Delta":7056626},{"NoteNumber":77,"Velocity":50,"Duration":241234,"SoundDuration":241234,"Delta":7213995},{"NoteNumber":53,"Velocity":34,"Duration":482470,"SoundDuration":482470,"Delta":7213995},{"NoteNumber":65,"Velocity":41,"Duration":482470,"SoundDuration":482470,"Delta":7213995},{"NoteNumber":81,"Velocity":43,"Duration":241235,"SoundDuration":241235,"Delta":7455230},{"NoteNumber":72,"Velocity":50,"Duration":497017,"SoundDuration":497017,"Delta":7696465},{"NoteNumber":81,"Velocity":50,"Duration":160230,"SoundDuration":160230,"Delta":8193483},{"NoteNumber":65,"Velocity":34,"Duration":492608,"SoundDuration":492608,"Delta":8193483},{"NoteNumber":83,"Velocity":46,"Duration":160230,"SoundDuration":160230,"Delta":8353714},{"NoteNumber":84,"Velocity":46,"Duration":161387,"SoundDuration":161387,"Delta":8513944},{"NoteNumber":84,"Velocity":54,"Duration":159655,"SoundDuration":159655,"Delta":8686091},{"NoteNumber":64,"Velocity":41,"Duration":964992,"SoundDuration":964992,"Delta":8686091},{"NoteNumber":83,"Velocity":48,"Duration":159654,"SoundDuration":159654,"Delta":8845746},{"NoteNumber":81,"Velocity":48,"Duration":159655,"SoundDuration":159655,"Delta":9005401},{"NoteNumber":79,"Velocity":53,"Duration":486027,"SoundDuration":486027,"Delta":9165056},{"NoteNumber":81,"Velocity":50,"Duration":159655,"SoundDuration":159655,"Delta":9651083},{"NoteNumber":65,"Velocity":35,"Duration":491456,"SoundDuration":491456,"Delta":9651083},{"NoteNumber":83,"Velocity":47,"Duration":159654,"SoundDuration":159654,"Delta":9810738},{"NoteNumber":84,"Velocity":47,"Duration":161387,"SoundDuration":161387,"Delta":9970393},{"NoteNumber":84,"Velocity":53,"Duration":159071,"SoundDuration":159071,"Delta":10142540},{"NoteNumber":64,"Velocity":41,"Duration":954425,"SoundDuration":954425,"Delta":10142540},{"NoteNumber":83,"Velocity":46,"Duration":159070,"SoundDuration":159070,"Delta":10301611},{"NoteNumber":81,"Velocity":46,"Duration":159071,"SoundDuration":159071,"Delta":10460682},{"NoteNumber":79,"Velocity":50,"Duration":159070,"SoundDuration":159070,"Delta":10619753},{"NoteNumber":77,"Velocity":44,"Duration":159071,"SoundDuration":159071,"Delta":10778824},{"NoteNumber":76,"Velocity":44,"Duration":159070,"SoundDuration":159070,"Delta":10937895},{"NoteNumber":77,"Velocity":48,"Duration":159071,"SoundDuration":159071,"Delta":11096966},{"NoteNumber":59,"Velocity":38,"Duration":488950,"SoundDuration":488950,"Delta":11096966},{"NoteNumber":47,"Velocity":32,"Duration":488950,"SoundDuration":488950,"Delta":11096966},{"NoteNumber":76,"Velocity":45,"Duration":159071,"SoundDuration":159071,"Delta":11256037},{"NoteNumber":74,"Velocity":45,"Duration":170808,"SoundDuration":170808,"Delta":11415108},{"NoteNumber":76,"Velocity":50,"Duration":159655,"SoundDuration":159655,"Delta":11585916},{"NoteNumber":48,"Velocity":34,"Duration":478965,"SoundDuration":478965,"Delta":11585916},{"NoteNumber":60,"Velocity":41,"Duration":478965,"SoundDuration":478965,"Delta":11585916},{"NoteNumber":77,"Velocity":46,"Duration":159654,"SoundDuration":159654,"Delta":11745571},{"NoteNumber":79,"Velocity":46,"Duration":159655,"SoundDuration":159655,"Delta":11905226},{"NoteNumber":72,"Velocity":50,"Duration":482469,"SoundDuration":482469,"Delta":12064881},{"NoteNumber":64,"Velocity":41,"Duration":482469,"SoundDuration":482469,"Delta":12064881},{"NoteNumber":55,"Velocity":34,"Duration":482469,"SoundDuration":482469,"Delta":12064881},{"NoteNumber":71,"Velocity":46,"Duration":61891,"SoundDuration":61891,"Delta":12547351},{"NoteNumber":55,"Velocity":28,"Duration":495895,"SoundDuration":495895,"Delta":12547351},{"NoteNumber":62,"Velocity":34,"Duration":495895,"SoundDuration":495895,"Delta":12547351},{"NoteNumber":72,"Velocity":41,"Duration":61872,"SoundDuration":61872,"Delta":12609243},{"NoteNumber":71,"Velocity":46,"Duration":61662,"SoundDuration":61662,"Delta":12671115},{"NoteNumber":72,"Velocity":41,"Duration":61550,"SoundDuration":61550,"Delta":12732777},{"NoteNumber":71,"Velocity":46,"Duration":82299,"SoundDuration":82299,"Delta":12794327},{"NoteNumber":72,"Velocity":43,"Duration":82944,"SoundDuration":82944,"Delta":12876627},{"NoteNumber":71,"Velocity":43,"Duration":83674,"SoundDuration":83674,"Delta":12959572},{"NoteNumber":72,"Velocity":50,"Duration":1017535,"SoundDuration":1017535,"Delta":13043247},{"NoteNumber":60,"Velocity":41,"Duration":497018,"SoundDuration":497018,"Delta":13043247},{"NoteNumber":55,"Velocity":38,"Duration":130129,"SoundDuration":130129,"Delta":13540265},{"NoteNumber":48,"Velocity":39,"Duration":520516,"SoundDuration":520516,"Delta":14060782},{"NoteNumber":77,"Velocity":64,"Duration":60086,"SoundDuration":60086,"Delta":14581299},{"NoteNumber":41,"Velocity":33,"Duration":480691,"SoundDuration":480691,"Delta":14581299},{"NoteNumber":53,"Velocity":39,"Duration":480691,"SoundDuration":480691,"Delta":14581299},{"NoteNumber":79,"Velocity":51,"Duration":60086,"SoundDuration":60086,"Delta":14641385},{"NoteNumber":77,"Velocity":56,"Duration":60086,"SoundDuration":60086,"Delta":14701472},{"NoteNumber":76,"Velocity":51,"Duration":60086,"SoundDuration":60086,"Delta":14761558},{"NoteNumber":77,"Velocity":62,"Duration":721038,"SoundDuration":721038,"Delta":14821645},{"NoteNumber":57,"Velocity":34,"Duration":480692,"SoundDuration":480692,"Delta":15061991},{"NoteNumber":45,"Velocity":28,"Duration":480692,"SoundDuration":480692,"Delta":15061991},{"NoteNumber":82,"Velocity":50,"Duration":156801,"SoundDuration":156801,"Delta":15542683},{"NoteNumber":60,"Velocity":34,"Duration":470403,"SoundDuration":470403,"Delta":15542683},{"NoteNumber":48,"Velocity":28,"Duration":470403,"SoundDuration":470403,"Delta":15542683},{"NoteNumber":79,"Velocity":46,"Duration":156801,"SoundDuration":156801,"Delta":15699484},{"NoteNumber":76,"Velocity":45,"Duration":156801,"SoundDuration":156801,"Delta":15856285},{"NoteNumber":77,"Velocity":50,"Duration":240345,"SoundDuration":240345,"Delta":16013087},{"NoteNumber":53,"Velocity":34,"Duration":480692,"SoundDuration":480692,"Delta":16013087},{"NoteNumber":65,"Velocity":41,"Duration":480692,"SoundDuration":480692,"Delta":16013087},{"NoteNumber":81,"Velocity":43,"Duration":240346,"SoundDuration":240346,"Delta":16253433},{"NoteNumber":72,"Velocity":50,"Duration":482469,"SoundDuration":482469,"Delta":16493779},{"NoteNumber":70,"Velocity":46,"Duration":62810,"SoundDuration":62810,"Delta":16976249},{"NoteNumber":67,"Velocity":34,"Duration":490954,"SoundDuration":490954,"Delta":16976249},{"NoteNumber":72,"Velocity":41,"Duration":61828,"SoundDuration":61828,"Delta":17039059},{"NoteNumber":70,"Velocity":46,"Duration":60858,"SoundDuration":60858,"Delta":17100888},{"NoteNumber":72,"Velocity":41,"Duration":60193,"SoundDuration":60193,"Delta":17161746},{"NoteNumber":70,"Velocity":46,"Duration":80907,"SoundDuration":80907,"Delta":17221940},{"NoteNumber":72,"Velocity":43,"Duration":81772,"SoundDuration":81772,"Delta":17302847},{"NoteNumber":70,"Velocity":43,"Duration":82583,"SoundDuration":82583,"Delta":17384620},{"NoteNumber":69,"Velocity":50,"Duration":241234,"SoundDuration":241234,"Delta":17467204},{"NoteNumber":65,"Velocity":41,"Duration":482469,"SoundDuration":482469,"Delta":17467204},{"NoteNumber":72,"Velocity":43,"Duration":241234,"SoundDuration":241234,"Delta":17708439},{"NoteNumber":77,"Velocity":50,"Duration":157368,"SoundDuration":157368,"Delta":17949674},{"NoteNumber":76,"Velocity":41,"Duration":157368,"SoundDuration":157368,"Delta":18107042},{"NoteNumber":74,"Velocity":41,"Duration":157368,"SoundDuration":157368,"Delta":18264411},{"NoteNumber":72,"Velocity":47,"Duration":157368,"SoundDuration":157368,"Delta":18421780},{"NoteNumber":70,"Velocity":40,"Duration":157368,"SoundDuration":157368,"Delta":18579148},{"NoteNumber":69,"Velocity":40,"Duration":157368,"SoundDuration":157368,"Delta":18736517},{"NoteNumber":67,"Velocity":50,"Duration":731707,"SoundDuration":731707,"Delta":18893886},{"NoteNumber":64,"Velocity":41,"Duration":487805,"SoundDuration":487805,"Delta":18893886},{"NoteNumber":60,"Velocity":34,"Duration":474104,"SoundDuration":474104,"Delta":19381691},{"NoteNumber":69,"Velocity":43,"Duration":115101,"SoundDuration":115101,"Delta":19625593},{"NoteNumber":70,"Velocity":38,"Duration":115101,"SoundDuration":115101,"Delta":19740694},{"NoteNumber":69,"Velocity":47,"Duration":502675,"SoundDuration":502675,"Delta":19855796},{"NoteNumber":65,"Velocity":41,"Duration":502675,"SoundDuration":502675,"Delta":19855796},{"NoteNumber":77,"Velocity":64,"Duration":60086,"SoundDuration":60086,"Delta":20358471},{"NoteNumber":53,"Velocity":39,"Duration":480692,"SoundDuration":480692,"Delta":20358471},{"NoteNumber":79,"Velocity":51,"Duration":60086,"SoundDuration":60086,"Delta":20418558},{"NoteNumber":77,"Velocity":56,"Duration":60086,"SoundDuration":60086,"Delta":20478644},{"NoteNumber":76,"Velocity":54,"Duration":60086,"SoundDuration":60086,"Delta":20538731},{"NoteNumber":77,"Velocity":65,"Duration":721038,"SoundDuration":721038,"Delta":20598817},{"NoteNumber":57,"Velocity":34,"Duration":480691,"SoundDuration":480691,"Delta":20839163},{"NoteNumber":82,"Velocity":58,"Duration":157368,"SoundDuration":157368,"Delta":21319855},{"NoteNumber":60,"Velocity":34,"Duration":472106,"SoundDuration":472106,"Delta":21319855},{"NoteNumber":79,"Velocity":46,"Duration":157368,"SoundDuration":157368,"Delta":21477224},{"NoteNumber":76,"Velocity":45,"Duration":157368,"SoundDuration":157368,"Delta":21634592},{"NoteNumber":77,"Velocity":50,"Duration":241234,"SoundDuration":241234,"Delta":21791961},{"NoteNumber":53,"Velocity":34,"Duration":482469,"SoundDuration":482469,"Delta":21791961},{"NoteNumber":65,"Velocity":41,"Duration":482469,"SoundDuration":482469,"Delta":21791961},{"NoteNumber":81,"Velocity":43,"Duration":241234,"SoundDuration":241234,"Delta":22033196},{"NoteNumber":72,"Velocity":50,"Duration":497018,"SoundDuration":497018,"Delta":22274431},{"NoteNumber":81,"Velocity":50,"Duration":160230,"SoundDuration":160230,"Delta":22771449},{"NoteNumber":65,"Velocity":34,"Duration":492607,"SoundDuration":492607,"Delta":22771449},{"NoteNumber":83,"Velocity":46,"Duration":160230,"SoundDuration":160230,"Delta":22931680},{"NoteNumber":84,"Velocity":46,"Duration":161387,"SoundDuration":161387,"Delta":23091910},{"NoteNumber":84,"Velocity":54,"Duration":155255,"SoundDuration":155255,"Delta":23264057},{"NoteNumber":64,"Velocity":41,"Duration":957346,"SoundDuration":957346,"Delta":23264057},{"NoteNumber":83,"Velocity":48,"Duration":157106,"SoundDuration":157106,"Delta":23419312},{"NoteNumber":81,"Velocity":48,"Duration":158957,"SoundDuration":158957,"Delta":23576419},{"NoteNumber":79,"Velocity":53,"Duration":486027,"SoundDuration":486027,"Delta":23735376},{"NoteNumber":81,"Velocity":50,"Duration":159655,"SoundDuration":159655,"Delta":24221403},{"NoteNumber":65,"Velocity":35,"Duration":491456,"SoundDuration":491456,"Delta":24221403},{"NoteNumber":83,"Velocity":47,"Duration":159654,"SoundDuration":159654,"Delta":24381058},{"NoteNumber":84,"Velocity":47,"Duration":161387,"SoundDuration":161387,"Delta":24540713},{"NoteNumber":84,"Velocity":53,"Duration":156469,"SoundDuration":156469,"Delta":24712860},{"NoteNumber":64,"Velocity":41,"Duration":950013,"SoundDuration":950013,"Delta":24712860},{"NoteNumber":83,"Velocity":46,"Duration":157713,"SoundDuration":157713,"Delta":24869330},{"NoteNumber":81,"Velocity":46,"Duration":158957,"SoundDuration":158957,"Delta":25027043},{"NoteNumber":79,"Velocity":50,"Duration":158957,"SoundDuration":158957,"Delta":25186001},{"NoteNumber":77,"Velocity":44,"Duration":158957,"SoundDuration":158957,"Delta":25344958},{"NoteNumber":76,"Velocity":44,"Duration":158957,"SoundDuration":158957,"Delta":25503915},{"NoteNumber":77,"Velocity":48,"Duration":158957,"SoundDuration":158957,"Delta":25662873},{"NoteNumber":59,"Velocity":38,"Duration":488723,"SoundDuration":488723,"Delta":25662873},{"NoteNumber":47,"Velocity":32,"Duration":488723,"SoundDuration":488723,"Delta":25662873},{"NoteNumber":76,"Velocity":45,"Duration":158957,"SoundDuration":158957,"Delta":25821830},{"NoteNumber":74,"Velocity":45,"Duration":170808,"SoundDuration":170808,"Delta":25980787},{"NoteNumber":76,"Velocity":50,"Duration":159655,"SoundDuration":159655,"Delta":26151596},{"NoteNumber":48,"Velocity":34,"Duration":478964,"SoundDuration":478964,"Delta":26151596},{"NoteNumber":60,"Velocity":41,"Duration":478964,"SoundDuration":478964,"Delta":26151596},{"NoteNumber":77,"Velocity":46,"Duration":159655,"SoundDuration":159655,"Delta":26311251},{"NoteNumber":79,"Velocity":46,"Duration":159654,"SoundDuration":159654,"Delta":26470906},{"NoteNumber":72,"Velocity":50,"Duration":482469,"SoundDuration":482469,"Delta":26630561},{"NoteNumber":64,"Velocity":41,"Duration":482469,"SoundDuration":482469,"Delta":26630561},{"NoteNumber":55,"Velocity":34,"Duration":482469,"SoundDuration":482469,"Delta":26630561},{"NoteNumber":71,"Velocity":46,"Duration":61891,"SoundDuration":61891,"Delta":27113031},{"NoteNumber":55,"Velocity":28,"Duration":495895,"SoundDuration":495895,"Delta":27113031},{"NoteNumber":62,"Velocity":34,"Duration":495895,"SoundDuration":495895,"Delta":27113031},{"NoteNumber":72,"Velocity":41,"Duration":61872,"SoundDuration":61872,"Delta":27174922},{"NoteNumber":71,"Velocity":46,"Duration":61662,"SoundDuration":61662,"Delta":27236795},{"NoteNumber":72,"Velocity":41,"Duration":61550,"SoundDuration":61550,"Delta":27298457},{"NoteNumber":71,"Velocity":46,"Duration":82299,"SoundDuration":82299,"Delta":27360007},{"NoteNumber":72,"Velocity":43,"Duration":82944,"SoundDuration":82944,"Delta":27442307},{"NoteNumber":71,"Velocity":43,"Duration":83674,"SoundDuration":83674,"Delta":27525252},{"NoteNumber":72,"Velocity":50,"Duration":1017535,"SoundDuration":1017535,"Delta":27608926},{"NoteNumber":60,"Velocity":41,"Duration":497018,"SoundDuration":497018,"Delta":27608926},{"NoteNumber":55,"Velocity":38,"Duration":130129,"SoundDuration":130129,"Delta":28105944},{"NoteNumber":48,"Velocity":39,"Duration":538986,"SoundDuration":538986,"Delta":28626461},{"NoteNumber":72,"Velocity":50,"Duration":961383,"SoundDuration":961383,"Delta":29165448},{"NoteNumber":60,"Velocity":33,"Duration":2388389,"SoundDuration":2388389,"Delta":29165448},{"NoteNumber":67,"Velocity":34,"Duration":480691,"SoundDuration":480691,"Delta":29646140},{"NoteNumber":79,"Velocity":50,"Duration":156801,"SoundDuration":156801,"Delta":30126832},{"NoteNumber":70,"Velocity":34,"Duration":470420,"SoundDuration":470420,"Delta":30126832},{"NoteNumber":76,"Velocity":46,"Duration":156801,"SoundDuration":156801,"Delta":30283634},{"NoteNumber":72,"Velocity":45,"Duration":156818,"SoundDuration":156818,"Delta":30440435},{"NoteNumber":81,"Velocity":50,"Duration":157965,"SoundDuration":157965,"Delta":30597253},{"NoteNumber":69,"Velocity":46,"Duration":477568,"SoundDuration":477568,"Delta":30597253},{"NoteNumber":77,"Velocity":45,"Duration":159215,"SoundDuration":159215,"Delta":30755218},{"NoteNumber":72,"Velocity":45,"Duration":160388,"SoundDuration":160388,"Delta":30914434},{"NoteNumber":82,"Velocity":55,"Duration":159149,"SoundDuration":159149,"Delta":31074822},{"NoteNumber":64,"Velocity":41,"Duration":479016,"SoundDuration":479016,"Delta":31074822},{"NoteNumber":81,"Velocity":48,"Duration":159555,"SoundDuration":159555,"Delta":31233971},{"NoteNumber":79,"Velocity":48,"Duration":160311,"SoundDuration":160311,"Delta":31393527},{"NoteNumber":81,"Velocity":54,"Duration":479897,"SoundDuration":479897,"Delta":31553838},{"NoteNumber":65,"Velocity":47,"Duration":479897,"SoundDuration":479897,"Delta":31553838},{"NoteNumber":79,"Velocity":53,"Duration":160823,"SoundDuration":160823,"Delta":32033736},{"NoteNumber":58,"Velocity":46,"Duration":969940,"SoundDuration":969940,"Delta":32033736},{"NoteNumber":82,"Velocity":50,"Duration":160230,"SoundDuration":160230,"Delta":32194559},{"NoteNumber":81,"Velocity":47,"Duration":160230,"SoundDuration":160230,"Delta":32354790},{"NoteNumber":79,"Velocity":51,"Duration":168194,"SoundDuration":168194,"Delta":32515020},{"NoteNumber":86,"Velocity":55,"Duration":160230,"SoundDuration":160230,"Delta":32683215},{"NoteNumber":84,"Velocity":49,"Duration":160230,"SoundDuration":160230,"Delta":32843445},{"NoteNumber":82,"Velocity":54,"Duration":160230,"SoundDuration":160230,"Delta":33003676},{"NoteNumber":59,"Velocity":42,"Duration":493292,"SoundDuration":493292,"Delta":33003676},{"NoteNumber":81,"Velocity":50,"Duration":160230,"SoundDuration":160230,"Delta":33163907},{"NoteNumber":79,"Velocity":45,"Duration":172830,"SoundDuration":172830,"Delta":33324137},{"NoteNumber":77,"Velocity":50,"Duration":249439,"SoundDuration":249439,"Delta":33496968},{"NoteNumber":60,"Velocity":46,"Duration":498877,"SoundDuration":498877,"Delta":33496968},{"NoteNumber":76,"Velocity":43,"Duration":757913,"SoundDuration":757913,"Delta":33746407},{"NoteNumber":55,"Velocity":40,"Duration":127118,"SoundDuration":127118,"Delta":33995846},{"NoteNumber":48,"Velocity":35,"Duration":514446,"SoundDuration":514446,"Delta":34504321},{"NoteNumber":60,"Velocity":40,"Duration":486226,"SoundDuration":486226,"Delta":35018768},{"NoteNumber":72,"Velocity":45,"Duration":480717,"SoundDuration":480717,"Delta":35265513},{"NoteNumber":68,"Velocity":37,"Duration":478990,"SoundDuration":478990,"Delta":35504995},{"NoteNumber":80,"Velocity":53,"Duration":479866,"SoundDuration":479866,"Delta":35746230},{"NoteNumber":65,"Velocity":33,"Duration":486013,"SoundDuration":486013,"Delta":35983986},{"NoteNumber":72,"Velocity":48,"Duration":491182,"SoundDuration":491182,"Delta":36226097},{"NoteNumber":67,"Velocity":41,"Duration":487626,"SoundDuration":487626,"Delta":36469999},{"NoteNumber":70,"Velocity":40,"Duration":240346,"SoundDuration":240346,"Delta":36717279},{"NoteNumber":79,"Velocity":49,"Duration":241235,"SoundDuration":241235,"Delta":36957625},{"NoteNumber":64,"Velocity":33,"Duration":478990,"SoundDuration":478990,"Delta":36957625},{"NoteNumber":70,"Velocity":40,"Duration":480768,"SoundDuration":480768,"Delta":37198860},{"NoteNumber":65,"Velocity":33,"Duration":485124,"SoundDuration":485124,"Delta":37436616},{"NoteNumber":68,"Velocity":40,"Duration":484828,"SoundDuration":484828,"Delta":37679629},{"NoteNumber":58,"Velocity":42,"Duration":971718,"SoundDuration":971718,"Delta":37921740},{"NoteNumber":67,"Velocity":43,"Duration":240346,"SoundDuration":240346,"Delta":38164457},{"NoteNumber":73,"Velocity":50,"Duration":248309,"SoundDuration":248309,"Delta":38404803},{"NoteNumber":70,"Velocity":46,"Duration":240346,"SoundDuration":240346,"Delta":38653113},{"NoteNumber":67,"Velocity":47,"Duration":240346,"SoundDuration":240346,"Delta":38893459},{"NoteNumber":59,"Velocity":41,"Duration":493292,"SoundDuration":493292,"Delta":38893459},{"NoteNumber":65,"Velocity":43,"Duration":252946,"SoundDuration":252946,"Delta":39133805},{"NoteNumber":65,"Velocity":47,"Duration":249439,"SoundDuration":249439,"Delta":39386751},{"NoteNumber":60,"Velocity":43,"Duration":498877,"SoundDuration":498877,"Delta":39386751},{"NoteNumber":64,"Velocity":39,"Duration":757913,"SoundDuration":757913,"Delta":39636190},{"NoteNumber":55,"Velocity":34,"Duration":127118,"SoundDuration":127118,"Delta":39885629},{"NoteNumber":48,"Velocity":37,"Duration":524658,"SoundDuration":524658,"Delta":40394104},{"NoteNumber":77,"Velocity":64,"Duration":60086,"SoundDuration":60086,"Delta":40918763},{"NoteNumber":41,"Velocity":33,"Duration":480691,"SoundDuration":480691,"Delta":40918763},{"NoteNumber":53,"Velocity":39,"Duration":480691,"SoundDuration":480691,"Delta":40918763},{"NoteNumber":79,"Velocity":51,"Duration":60086,"SoundDuration":60086,"Delta":40978850},{"NoteNumber":77,"Velocity":56,"Duration":60086,"SoundDuration":60086,"Delta":41038936},{"NoteNumber":76,"Velocity":51,"Duration":60086,"SoundDuration":60086,"Delta":41099023},{"NoteNumber":77,"Velocity":64,"Duration":721038,"SoundDuration":721038,"Delta":41159109},{"NoteNumber":57,"Velocity":34,"Duration":480692,"SoundDuration":480692,"Delta":41399455},{"NoteNumber":45,"Velocity":28,"Duration":480692,"SoundDuration":480692,"Delta":41399455},{"NoteNumber":82,"Velocity":55,"Duration":156801,"SoundDuration":156801,"Delta":41880147},{"NoteNumber":60,"Velocity":34,"Duration":470404,"SoundDuration":470404,"Delta":41880147},{"NoteNumber":48,"Velocity":28,"Duration":470404,"SoundDuration":470404,"Delta":41880147},{"NoteNumber":79,"Velocity":46,"Duration":156801,"SoundDuration":156801,"Delta":42036949},{"NoteNumber":76,"Velocity":45,"Duration":156801,"SoundDuration":156801,"Delta":42193750},{"NoteNumber":77,"Velocity":50,"Duration":240346,"SoundDuration":240346,"Delta":42350551},{"NoteNumber":53,"Velocity":34,"Duration":480691,"SoundDuration":480691,"Delta":42350551},{"NoteNumber":65,"Velocity":41,"Duration":480691,"SoundDuration":480691,"Delta":42350551},{"NoteNumber":81,"Velocity":43,"Duration":240345,"SoundDuration":240345,"Delta":42590897},{"NoteNumber":72,"Velocity":50,"Duration":482469,"SoundDuration":482469,"Delta":42831243},{"NoteNumber":70,"Velocity":46,"Duration":62810,"SoundDuration":62810,"Delta":43313713},{"NoteNumber":67,"Velocity":34,"Duration":490954,"SoundDuration":490954,"Delta":43313713},{"NoteNumber":72,"Velocity":41,"Duration":61828,"SoundDuration":61828,"Delta":43376524},{"NoteNumber":70,"Velocity":46,"Duration":60858,"SoundDuration":60858,"Delta":43438352},{"NoteNumber":72,"Velocity":41,"Duration":60193,"SoundDuration":60193,"Delta":43499211},{"NoteNumber":70,"Velocity":46,"Duration":80907,"SoundDuration":80907,"Delta":43559405},{"NoteNumber":72,"Velocity":43,"Duration":81772,"SoundDuration":81772,"Delta":43640312},{"NoteNumber":70,"Velocity":43,"Duration":82583,"SoundDuration":82583,"Delta":43722085},{"NoteNumber":69,"Velocity":50,"Duration":241235,"SoundDuration":241235,"Delta":43804668},{"NoteNumber":65,"Velocity":41,"Duration":482469,"SoundDuration":482469,"Delta":43804668},{"NoteNumber":72,"Velocity":43,"Duration":241234,"SoundDuration":241234,"Delta":44045903},{"NoteNumber":77,"Velocity":50,"Duration":157368,"SoundDuration":157368,"Delta":44287138},{"NoteNumber":76,"Velocity":41,"Duration":157368,"SoundDuration":157368,"Delta":44444507},{"NoteNumber":74,"Velocity":41,"Duration":157368,"SoundDuration":157368,"Delta":44601876},{"NoteNumber":72,"Velocity":47,"Duration":157368,"SoundDuration":157368,"Delta":44759244},{"NoteNumber":70,"Velocity":40,"Duration":157368,"SoundDuration":157368,"Delta":44916613},{"NoteNumber":69,"Velocity":40,"Duration":157368,"SoundDuration":157368,"Delta":45073982},{"NoteNumber":67,"Velocity":50,"Duration":731707,"SoundDuration":731707,"Delta":45231350},{"NoteNumber":64,"Velocity":41,"Duration":487805,"SoundDuration":487805,"Delta":45231350},{"NoteNumber":60,"Velocity":34,"Duration":477437,"SoundDuration":477437,"Delta":45719155},{"NoteNumber":69,"Velocity":43,"Duration":116767,"SoundDuration":116767,"Delta":45963058},{"NoteNumber":70,"Velocity":38,"Duration":116767,"SoundDuration":116767,"Delta":46079826},{"NoteNumber":69,"Velocity":47,"Duration":502675,"SoundDuration":502675,"Delta":46196593},{"NoteNumber":65,"Velocity":41,"Duration":502675,"SoundDuration":502675,"Delta":46196593},{"NoteNumber":77,"Velocity":64,"Duration":60086,"SoundDuration":60086,"Delta":46699269},{"NoteNumber":41,"Velocity":33,"Duration":480691,"SoundDuration":480691,"Delta":46699269},{"NoteNumber":53,"Velocity":39,"Duration":480691,"SoundDuration":480691,"Delta":46699269},{"NoteNumber":79,"Velocity":51,"Duration":60086,"SoundDuration":60086,"Delta":46759355},{"NoteNumber":77,"Velocity":56,"Duration":60086,"SoundDuration":60086,"Delta":46819442},{"NoteNumber":76,"Velocity":54,"Duration":60086,"SoundDuration":60086,"Delta":46879528},{"NoteNumber":77,"Velocity":63,"Duration":721038,"SoundDuration":721038,"Delta":46939615},{"NoteNumber":45,"Velocity":28,"Duration":480692,"SoundDuration":480692,"Delta":47179961},{"NoteNumber":57,"Velocity":34,"Duration":480692,"SoundDuration":480692,"Delta":47179961},{"NoteNumber":82,"Velocity":55,"Duration":155860,"SoundDuration":155860,"Delta":47660653},{"NoteNumber":48,"Velocity":28,"Duration":472320,"SoundDuration":472320,"Delta":47660653},{"NoteNumber":60,"Velocity":34,"Duration":472320,"SoundDuration":472320,"Delta":47660653},{"NoteNumber":79,"Velocity":46,"Duration":155860,"SoundDuration":155860,"Delta":47816513},{"NoteNumber":76,"Velocity":45,"Duration":160599,"SoundDuration":160599,"Delta":47972373},{"NoteNumber":77,"Velocity":50,"Duration":241235,"SoundDuration":241235,"Delta":48132973},{"NoteNumber":53,"Velocity":34,"Duration":482469,"SoundDuration":482469,"Delta":48132973},{"NoteNumber":65,"Velocity":41,"Duration":482469,"SoundDuration":482469,"Delta":48132973},{"NoteNumber":81,"Velocity":43,"Duration":241234,"SoundDuration":241234,"Delta":48374208},{"NoteNumber":72,"Velocity":50,"Duration":497017,"SoundDuration":497017,"Delta":48615443},{"NoteNumber":74,"Velocity":50,"Duration":160230,"SoundDuration":160230,"Delta":49112461},{"NoteNumber":46,"Velocity":28,"Duration":492607,"SoundDuration":492607,"Delta":49112461},{"NoteNumber":58,"Velocity":34,"Duration":492607,"SoundDuration":492607,"Delta":49112461},{"NoteNumber":76,"Velocity":46,"Duration":160230,"SoundDuration":160230,"Delta":49272692},{"NoteNumber":77,"Velocity":46,"Duration":161387,"SoundDuration":161387,"Delta":49432923},{"NoteNumber":77,"Velocity":54,"Duration":159655,"SoundDuration":159655,"Delta":49605069},{"NoteNumber":57,"Velocity":41,"Duration":478965,"SoundDuration":478965,"Delta":49605069},{"NoteNumber":45,"Velocity":34,"Duration":478965,"SoundDuration":478965,"Delta":49605069},{"NoteNumber":76,"Velocity":48,"Duration":159655,"SoundDuration":159655,"Delta":49764724},{"NoteNumber":74,"Velocity":48,"Duration":159655,"SoundDuration":159655,"Delta":49924379},{"NoteNumber":72,"Velocity":51,"Duration":486027,"SoundDuration":486027,"Delta":50084034},{"NoteNumber":65,"Velocity":27,"Duration":486027,"SoundDuration":486027,"Delta":50084034},{"NoteNumber":53,"Velocity":22,"Duration":486027,"SoundDuration":486027,"Delta":50084034},{"NoteNumber":74,"Velocity":50,"Duration":159655,"SoundDuration":159655,"Delta":50570061},{"NoteNumber":58,"Velocity":35,"Duration":491456,"SoundDuration":491456,"Delta":50570061},{"NoteNumber":46,"Velocity":29,"Duration":491456,"SoundDuration":491456,"Delta":50570061},{"NoteNumber":76,"Velocity":47,"Duration":159655,"SoundDuration":159655,"Delta":50729716},{"NoteNumber":77,"Velocity":47,"Duration":161387,"SoundDuration":161387,"Delta":50889371},{"NoteNumber":77,"Velocity":53,"Duration":159070,"SoundDuration":159070,"Delta":51061518},{"NoteNumber":45,"Velocity":34,"Duration":504136,"SoundDuration":504136,"Delta":51061518},{"NoteNumber":57,"Velocity":41,"Duration":504136,"SoundDuration":504136,"Delta":51061518},{"NoteNumber":76,"Velocity":46,"Duration":159071,"SoundDuration":159071,"Delta":51220589},{"NoteNumber":74,"Velocity":43,"Duration":185994,"SoundDuration":185994,"Delta":51379660},{"NoteNumber":72,"Velocity":57,"Duration":159070,"SoundDuration":159070,"Delta":51565655},{"NoteNumber":53,"Velocity":23,"Duration":481955,"SoundDuration":481955,"Delta":51565655},{"NoteNumber":65,"Velocity":28,"Duration":481955,"SoundDuration":481955,"Delta":51565655},{"NoteNumber":77,"Velocity":49,"Duration":159071,"SoundDuration":159071,"Delta":51724726},{"NoteNumber":81,"Velocity":53,"Duration":163813,"SoundDuration":163813,"Delta":51883797},{"NoteNumber":72,"Velocity":57,"Duration":159070,"SoundDuration":159070,"Delta":52047610},{"NoteNumber":52,"Velocity":30,"Duration":488950,"SoundDuration":488950,"Delta":52047610},{"NoteNumber":64,"Velocity":36,"Duration":488950,"SoundDuration":488950,"Delta":52047610},{"NoteNumber":79,"Velocity":49,"Duration":159071,"SoundDuration":159071,"Delta":52206681},{"NoteNumber":82,"Velocity":55,"Duration":170808,"SoundDuration":170808,"Delta":52365752},{"NoteNumber":81,"Velocity":57,"Duration":159655,"SoundDuration":159655,"Delta":52536561},{"NoteNumber":53,"Velocity":28,"Duration":478965,"SoundDuration":478965,"Delta":52536561},{"NoteNumber":65,"Velocity":41,"Duration":478965,"SoundDuration":478965,"Delta":52536561},{"NoteNumber":82,"Velocity":46,"Duration":159655,"SoundDuration":159655,"Delta":52696216},{"NoteNumber":84,"Velocity":46,"Duration":159655,"SoundDuration":159655,"Delta":52855871},{"NoteNumber":77,"Velocity":50,"Duration":482469,"SoundDuration":482469,"Delta":53015526},{"NoteNumber":57,"Velocity":41,"Duration":482469,"SoundDuration":482469,"Delta":53015526},{"NoteNumber":48,"Velocity":34,"Duration":482469,"SoundDuration":482469,"Delta":53015526},{"NoteNumber":76,"Velocity":46,"Duration":61891,"SoundDuration":61891,"Delta":53497996},{"NoteNumber":48,"Velocity":28,"Duration":495895,"SoundDuration":495895,"Delta":53497996},{"NoteNumber":55,"Velocity":34,"Duration":495895,"SoundDuration":495895,"Delta":53497996},{"NoteNumber":77,"Velocity":41,"Duration":61872,"SoundDuration":61872,"Delta":53559887},{"NoteNumber":76,"Velocity":46,"Duration":61662,"SoundDuration":61662,"Delta":53621760},{"NoteNumber":77,"Velocity":41,"Duration":61550,"SoundDuration":61550,"Delta":53683422},{"NoteNumber":76,"Velocity":46,"Duration":82299,"SoundDuration":82299,"Delta":53744972},{"NoteNumber":77,"Velocity":43,"Duration":82944,"SoundDuration":82944,"Delta":53827272},{"NoteNumber":76,"Velocity":43,"Duration":83674,"SoundDuration":83674,"Delta":53910217},{"NoteNumber":77,"Velocity":50,"Duration":1017534,"SoundDuration":1017534,"Delta":53993891},{"NoteNumber":53,"Velocity":41,"Duration":497017,"SoundDuration":497017,"Delta":53993891},{"NoteNumber":48,"Velocity":38,"Duration":130129,"SoundDuration":130129,"Delta":54490909},{"NoteNumber":41,"Velocity":39,"Duration":520517,"SoundDuration":520517,"Delta":55011426},{"NoteNumber":72,"Velocity":50,"Duration":961384,"SoundDuration":961384,"Delta":55531943},{"NoteNumber":60,"Velocity":33,"Duration":2388826,"SoundDuration":2388826,"Delta":55531943},{"NoteNumber":67,"Velocity":34,"Duration":480692,"SoundDuration":480692,"Delta":56012635},{"NoteNumber":79,"Velocity":50,"Duration":156801,"SoundDuration":156801,"Delta":56493327},{"NoteNumber":70,"Velocity":34,"Duration":470442,"SoundDuration":470442,"Delta":56493327},{"NoteNumber":76,"Velocity":46,"Duration":156801,"SoundDuration":156801,"Delta":56650129},{"NoteNumber":72,"Velocity":45,"Duration":156840,"SoundDuration":156840,"Delta":56806930},{"NoteNumber":81,"Velocity":50,"Duration":157600,"SoundDuration":157600,"Delta":56963770},{"NoteNumber":69,"Velocity":46,"Duration":476911,"SoundDuration":476911,"Delta":56963770},{"NoteNumber":77,"Velocity":45,"Duration":158978,"SoundDuration":158978,"Delta":57121370},{"NoteNumber":72,"Velocity":45,"Duration":160332,"SoundDuration":160332,"Delta":57280349},{"NoteNumber":82,"Velocity":55,"Duration":158701,"SoundDuration":158701,"Delta":57440682},{"NoteNumber":64,"Velocity":41,"Duration":480088,"SoundDuration":480088,"Delta":57440682},{"NoteNumber":81,"Velocity":48,"Duration":160019,"SoundDuration":160019,"Delta":57599384},{"NoteNumber":79,"Velocity":48,"Duration":161367,"SoundDuration":161367,"Delta":57759403},{"NoteNumber":81,"Velocity":54,"Duration":482513,"SoundDuration":482513,"Delta":57920770},{"NoteNumber":65,"Velocity":47,"Duration":482513,"SoundDuration":482513,"Delta":57920770},{"NoteNumber":79,"Velocity":53,"Duration":160823,"SoundDuration":160823,"Delta":58403284},{"NoteNumber":58,"Velocity":46,"Duration":969940,"SoundDuration":969940,"Delta":58403284},{"NoteNumber":82,"Velocity":50,"Duration":160230,"SoundDuration":160230,"Delta":58564107},{"NoteNumber":81,"Velocity":47,"Duration":160230,"SoundDuration":160230,"Delta":58724338},{"NoteNumber":79,"Velocity":51,"Duration":168194,"SoundDuration":168194,"Delta":58884568},{"NoteNumber":86,"Velocity":54,"Duration":160230,"SoundDuration":160230,"Delta":59052763},{"NoteNumber":84,"Velocity":49,"Duration":160230,"SoundDuration":160230,"Delta":59212993},{"NoteNumber":82,"Velocity":54,"Duration":160230,"SoundDuration":160230,"Delta":59373224},{"NoteNumber":59,"Velocity":42,"Duration":496624,"SoundDuration":496624,"Delta":59373224},{"NoteNumber":81,"Velocity":50,"Duration":160230,"SoundDuration":160230,"Delta":59533455},{"NoteNumber":79,"Velocity":45,"Duration":176163,"SoundDuration":176163,"Delta":59693685},{"NoteNumber":77,"Velocity":50,"Duration":249439,"SoundDuration":249439,"Delta":59869848},{"NoteNumber":60,"Velocity":46,"Duration":498877,"SoundDuration":498877,"Delta":59869848},{"NoteNumber":76,"Velocity":43,"Duration":757913,"SoundDuration":757913,"Delta":60119287},{"NoteNumber":55,"Velocity":37,"Duration":127118,"SoundDuration":127118,"Delta":60368726},{"NoteNumber":48,"Velocity":32,"Duration":514446,"SoundDuration":514446,"Delta":60877201},{"NoteNumber":60,"Velocity":40,"Duration":495025,"SoundDuration":495025,"Delta":61391648},{"NoteNumber":72,"Velocity":45,"Duration":480717,"SoundDuration":480717,"Delta":61647192},{"NoteNumber":68,"Velocity":37,"Duration":478990,"SoundDuration":478990,"Delta":61886674},{"NoteNumber":80,"Velocity":53,"Duration":479866,"SoundDuration":479866,"Delta":62127909},{"NoteNumber":65,"Velocity":33,"Duration":486013,"SoundDuration":486013,"Delta":62365665},{"NoteNumber":72,"Velocity":48,"Duration":490316,"SoundDuration":490316,"Delta":62607776},{"NoteNumber":67,"Velocity":41,"Duration":486760,"SoundDuration":486760,"Delta":62851678},{"NoteNumber":70,"Velocity":40,"Duration":240346,"SoundDuration":240346,"Delta":63098093},{"NoteNumber":79,"Velocity":49,"Duration":241235,"SoundDuration":241235,"Delta":63338439},{"NoteNumber":64,"Velocity":33,"Duration":478990,"SoundDuration":478990,"Delta":63338439},{"NoteNumber":70,"Velocity":40,"Duration":480769,"SoundDuration":480769,"Delta":63579674},{"NoteNumber":65,"Velocity":33,"Duration":485124,"SoundDuration":485124,"Delta":63817429},{"NoteNumber":68,"Velocity":40,"Duration":484828,"SoundDuration":484828,"Delta":64060443},{"NoteNumber":58,"Velocity":42,"Duration":971718,"SoundDuration":971718,"Delta":64302554},{"NoteNumber":67,"Velocity":43,"Duration":240345,"SoundDuration":240345,"Delta":64545271},{"NoteNumber":73,"Velocity":50,"Duration":248309,"SoundDuration":248309,"Delta":64785617},{"NoteNumber":70,"Velocity":46,"Duration":240345,"SoundDuration":240345,"Delta":65033926},{"NoteNumber":67,"Velocity":47,"Duration":240346,"SoundDuration":240346,"Delta":65274272},{"NoteNumber":59,"Velocity":41,"Duration":493292,"SoundDuration":493292,"Delta":65274272},{"NoteNumber":65,"Velocity":43,"Duration":252946,"SoundDuration":252946,"Delta":65514618},{"NoteNumber":65,"Velocity":47,"Duration":249438,"SoundDuration":249438,"Delta":65767565},{"NoteNumber":60,"Velocity":43,"Duration":498878,"SoundDuration":498878,"Delta":65767565},{"NoteNumber":64,"Velocity":39,"Duration":757914,"SoundDuration":757914,"Delta":66017004},{"NoteNumber":55,"Velocity":34,"Duration":127118,"SoundDuration":127118,"Delta":66266443},{"NoteNumber":48,"Velocity":37,"Duration":524658,"SoundDuration":524658,"Delta":66774918},{"NoteNumber":77,"Velocity":65,"Duration":59138,"SoundDuration":59138,"Delta":67299577},{"NoteNumber":41,"Velocity":33,"Duration":475942,"SoundDuration":475942,"Delta":67299577},{"NoteNumber":53,"Velocity":39,"Duration":475942,"SoundDuration":475942,"Delta":67299577},{"NoteNumber":79,"Velocity":51,"Duration":59138,"SoundDuration":59138,"Delta":67358715},{"NoteNumber":77,"Velocity":56,"Duration":59138,"SoundDuration":59138,"Delta":67417854},{"NoteNumber":76,"Velocity":53,"Duration":59138,"SoundDuration":59138,"Delta":67476993},{"NoteNumber":77,"Velocity":64,"Duration":718160,"SoundDuration":718160,"Delta":67536132},{"NoteNumber":57,"Velocity":34,"Duration":478774,"SoundDuration":478774,"Delta":67775519},{"NoteNumber":45,"Velocity":28,"Duration":478774,"SoundDuration":478774,"Delta":67775519},{"NoteNumber":82,"Velocity":55,"Duration":156801,"SoundDuration":156801,"Delta":68254293},{"NoteNumber":60,"Velocity":34,"Duration":470404,"SoundDuration":470404,"Delta":68254293},{"NoteNumber":48,"Velocity":28,"Duration":470404,"SoundDuration":470404,"Delta":68254293},{"NoteNumber":79,"Velocity":46,"Duration":156801,"SoundDuration":156801,"Delta":68411094},{"NoteNumber":76,"Velocity":45,"Duration":156801,"SoundDuration":156801,"Delta":68567896},{"NoteNumber":77,"Velocity":50,"Duration":240346,"SoundDuration":240346,"Delta":68724697},{"NoteNumber":53,"Velocity":34,"Duration":480692,"SoundDuration":480692,"Delta":68724697},{"NoteNumber":65,"Velocity":41,"Duration":480692,"SoundDuration":480692,"Delta":68724697},{"NoteNumber":81,"Velocity":43,"Duration":240346,"SoundDuration":240346,"Delta":68965043},{"NoteNumber":72,"Velocity":50,"Duration":482470,"SoundDuration":482470,"Delta":69205389},{"NoteNumber":70,"Velocity":46,"Duration":62810,"SoundDuration":62810,"Delta":69687859},{"NoteNumber":67,"Velocity":34,"Duration":490954,"SoundDuration":490954,"Delta":69687859},{"NoteNumber":72,"Velocity":41,"Duration":61828,"SoundDuration":61828,"Delta":69750670},{"NoteNumber":70,"Velocity":46,"Duration":60858,"SoundDuration":60858,"Delta":69812498},{"NoteNumber":72,"Velocity":41,"Duration":60193,"SoundDuration":60193,"Delta":69873357},{"NoteNumber":70,"Velocity":46,"Duration":80907,"SoundDuration":80907,"Delta":69933551},{"NoteNumber":72,"Velocity":43,"Duration":81772,"SoundDuration":81772,"Delta":70014458},{"NoteNumber":70,"Velocity":43,"Duration":82583,"SoundDuration":82583,"Delta":70096231},{"NoteNumber":69,"Velocity":50,"Duration":241235,"SoundDuration":241235,"Delta":70178814},{"NoteNumber":65,"Velocity":41,"Duration":482470,"SoundDuration":482470,"Delta":70178814},{"NoteNumber":72,"Velocity":43,"Duration":241235,"SoundDuration":241235,"Delta":70420049},{"NoteNumber":77,"Velocity":50,"Duration":157368,"SoundDuration":157368,"Delta":70661284},{"NoteNumber":76,"Velocity":41,"Duration":157368,"SoundDuration":157368,"Delta":70818653},{"NoteNumber":74,"Velocity":41,"Duration":157368,"SoundDuration":157368,"Delta":70976021},{"NoteNumber":72,"Velocity":47,"Duration":157368,"SoundDuration":157368,"Delta":71133390},{"NoteNumber":70,"Velocity":40,"Duration":157368,"SoundDuration":157368,"Delta":71290759},{"NoteNumber":69,"Velocity":40,"Duration":157368,"SoundDuration":157368,"Delta":71448127},{"NoteNumber":67,"Velocity":50,"Duration":730441,"SoundDuration":730441,"Delta":71605496},{"NoteNumber":64,"Velocity":41,"Duration":487172,"SoundDuration":487172,"Delta":71605496},{"NoteNumber":60,"Velocity":34,"Duration":476804,"SoundDuration":476804,"Delta":72092668},{"NoteNumber":69,"Velocity":43,"Duration":116767,"SoundDuration":116767,"Delta":72335938},{"NoteNumber":70,"Velocity":38,"Duration":116767,"SoundDuration":116767,"Delta":72452705},{"NoteNumber":69,"Velocity":47,"Duration":502675,"SoundDuration":502675,"Delta":72569473},{"NoteNumber":65,"Velocity":41,"Duration":502675,"SoundDuration":502675,"Delta":72569473},{"NoteNumber":77,"Velocity":66,"Duration":59138,"SoundDuration":59138,"Delta":73072149},{"NoteNumber":41,"Velocity":33,"Duration":475942,"SoundDuration":475942,"Delta":73072149},{"NoteNumber":53,"Velocity":39,"Duration":475942,"SoundDuration":475942,"Delta":73072149},{"NoteNumber":79,"Velocity":51,"Duration":59138,"SoundDuration":59138,"Delta":73131287},{"NoteNumber":77,"Velocity":56,"Duration":59138,"SoundDuration":59138,"Delta":73190426},{"NoteNumber":76,"Velocity":54,"Duration":59138,"SoundDuration":59138,"Delta":73249565},{"NoteNumber":77,"Velocity":66,"Duration":718160,"SoundDuration":718160,"Delta":73308704},{"NoteNumber":45,"Velocity":28,"Duration":478774,"SoundDuration":478774,"Delta":73548091},{"NoteNumber":57,"Velocity":34,"Duration":478774,"SoundDuration":478774,"Delta":73548091},{"NoteNumber":82,"Velocity":55,"Duration":157368,"SoundDuration":157368,"Delta":74026865},{"NoteNumber":48,"Velocity":28,"Duration":472105,"SoundDuration":472105,"Delta":74026865},{"NoteNumber":60,"Velocity":34,"Duration":472105,"SoundDuration":472105,"Delta":74026865},{"NoteNumber":79,"Velocity":46,"Duration":157368,"SoundDuration":157368,"Delta":74184234},{"NoteNumber":76,"Velocity":45,"Duration":157368,"SoundDuration":157368,"Delta":74341602},{"NoteNumber":77,"Velocity":50,"Duration":241235,"SoundDuration":241235,"Delta":74498971},{"NoteNumber":53,"Velocity":34,"Duration":482470,"SoundDuration":482470,"Delta":74498971},{"NoteNumber":65,"Velocity":41,"Duration":482470,"SoundDuration":482470,"Delta":74498971},{"NoteNumber":81,"Velocity":43,"Duration":241235,"SoundDuration":241235,"Delta":74740206},{"NoteNumber":72,"Velocity":50,"Duration":497017,"SoundDuration":497017,"Delta":74981441},{"NoteNumber":74,"Velocity":50,"Duration":160230,"SoundDuration":160230,"Delta":75478459},{"NoteNumber":46,"Velocity":28,"Duration":492608,"SoundDuration":492608,"Delta":75478459},{"NoteNumber":58,"Velocity":34,"Duration":492608,"SoundDuration":492608,"Delta":75478459},{"NoteNumber":76,"Velocity":46,"Duration":160230,"SoundDuration":160230,"Delta":75638690},{"NoteNumber":77,"Velocity":46,"Duration":161387,"SoundDuration":161387,"Delta":75798920},{"NoteNumber":77,"Velocity":54,"Duration":159655,"SoundDuration":159655,"Delta":75971067},{"NoteNumber":57,"Velocity":41,"Duration":478965,"SoundDuration":478965,"Delta":75971067},{"NoteNumber":45,"Velocity":34,"Duration":478965,"SoundDuration":478965,"Delta":75971067},{"NoteNumber":76,"Velocity":48,"Duration":159655,"SoundDuration":159655,"Delta":76130722},{"NoteNumber":74,"Velocity":48,"Duration":159655,"SoundDuration":159655,"Delta":76290377},{"NoteNumber":72,"Velocity":51,"Duration":486027,"SoundDuration":486027,"Delta":76450032},{"NoteNumber":65,"Velocity":27,"Duration":486027,"SoundDuration":486027,"Delta":76450032},{"NoteNumber":53,"Velocity":22,"Duration":486027,"SoundDuration":486027,"Delta":76450032},{"NoteNumber":74,"Velocity":50,"Duration":159655,"SoundDuration":159655,"Delta":76936059},{"NoteNumber":58,"Velocity":35,"Duration":491456,"SoundDuration":491456,"Delta":76936059},{"NoteNumber":46,"Velocity":29,"Duration":491456,"SoundDuration":491456,"Delta":76936059},{"NoteNumber":76,"Velocity":47,"Duration":159655,"SoundDuration":159655,"Delta":77095714},{"NoteNumber":77,"Velocity":47,"Duration":161387,"SoundDuration":161387,"Delta":77255369},{"NoteNumber":77,"Velocity":53,"Duration":159070,"SoundDuration":159070,"Delta":77427516},{"NoteNumber":45,"Velocity":34,"Duration":504136,"SoundDuration":504136,"Delta":77427516},{"NoteNumber":57,"Velocity":41,"Duration":504136,"SoundDuration":504136,"Delta":77427516},{"NoteNumber":76,"Velocity":46,"Duration":159070,"SoundDuration":159070,"Delta":77586587},{"NoteNumber":74,"Velocity":43,"Duration":185994,"SoundDuration":185994,"Delta":77745658},{"NoteNumber":72,"Velocity":53,"Duration":159070,"SoundDuration":159070,"Delta":77931652},{"NoteNumber":53,"Velocity":23,"Duration":481955,"SoundDuration":481955,"Delta":77931652},{"NoteNumber":65,"Velocity":28,"Duration":481955,"SoundDuration":481955,"Delta":77931652},{"NoteNumber":77,"Velocity":47,"Duration":159070,"SoundDuration":159070,"Delta":78090723},{"NoteNumber":81,"Velocity":50,"Duration":163813,"SoundDuration":163813,"Delta":78249794},{"NoteNumber":72,"Velocity":56,"Duration":158327,"SoundDuration":158327,"Delta":78413608},{"NoteNumber":52,"Velocity":30,"Duration":487464,"SoundDuration":487464,"Delta":78413608},{"NoteNumber":64,"Velocity":36,"Duration":487464,"SoundDuration":487464,"Delta":78413608},{"NoteNumber":79,"Velocity":49,"Duration":158327,"SoundDuration":158327,"Delta":78571936},{"NoteNumber":82,"Velocity":53,"Duration":170808,"SoundDuration":170808,"Delta":78730264},{"NoteNumber":81,"Velocity":61,"Duration":159655,"SoundDuration":159655,"Delta":78901073},{"NoteNumber":53,"Velocity":28,"Duration":478965,"SoundDuration":478965,"Delta":78901073},{"NoteNumber":65,"Velocity":41,"Duration":478965,"SoundDuration":478965,"Delta":78901073},{"NoteNumber":82,"Velocity":46,"Duration":159655,"SoundDuration":159655,"Delta":79060728},{"NoteNumber":84,"Velocity":46,"Duration":159655,"SoundDuration":159655,"Delta":79220383},{"NoteNumber":77,"Velocity":50,"Duration":482470,"SoundDuration":482470,"Delta":79380038},{"NoteNumber":57,"Velocity":41,"Duration":482470,"SoundDuration":482470,"Delta":79380038},{"NoteNumber":48,"Velocity":34,"Duration":482470,"SoundDuration":482470,"Delta":79380038},{"NoteNumber":76,"Velocity":46,"Duration":61891,"SoundDuration":61891,"Delta":79862508},{"NoteNumber":48,"Velocity":28,"Duration":495895,"SoundDuration":495895,"Delta":79862508},{"NoteNumber":55,"Velocity":34,"Duration":495895,"SoundDuration":495895,"Delta":79862508},{"NoteNumber":77,"Velocity":41,"Duration":61872,"SoundDuration":61872,"Delta":79924399},{"NoteNumber":76,"Velocity":46,"Duration":61662,"SoundDuration":61662,"Delta":79986271},{"NoteNumber":77,"Velocity":41,"Duration":61550,"SoundDuration":61550,"Delta":80047934},{"NoteNumber":76,"Velocity":46,"Duration":82299,"SoundDuration":82299,"Delta":80109484},{"NoteNumber":77,"Velocity":43,"Duration":82944,"SoundDuration":82944,"Delta":80191784},{"NoteNumber":76,"Velocity":43,"Duration":83674,"SoundDuration":83674,"Delta":80274728},{"NoteNumber":77,"Velocity":55,"Duration":1017534,"SoundDuration":1017534,"Delta":80358403},{"NoteNumber":53,"Velocity":41,"Duration":497017,"SoundDuration":497017,"Delta":80358403},{"NoteNumber":48,"Velocity":38,"Duration":130129,"SoundDuration":130129,"Delta":80855421},{"NoteNumber":41,"Velocity":39,"Duration":572410,"SoundDuration":572410,"Delta":81375938},{"NoteNumber":34,"Velocity":39,"Duration":984143,"SoundDuration":984143,"Delta":81948348},{"NoteNumber":46,"Velocity":46,"Duration":984143,"SoundDuration":984143,"Delta":81948348},{"NoteNumber":74,"Velocity":42,"Duration":478965,"SoundDuration":478965,"Delta":82453526},{"NoteNumber":77,"Velocity":50,"Duration":478965,"SoundDuration":478965,"Delta":82453526},{"NoteNumber":82,"Velocity":50,"Duration":156801,"SoundDuration":156801,"Delta":82932491},{"NoteNumber":63,"Velocity":34,"Duration":470404,"SoundDuration":470404,"Delta":82932491},{"NoteNumber":81,"Velocity":46,"Duration":156801,"SoundDuration":156801,"Delta":83089292},{"NoteNumber":79,"Velocity":45,"Duration":156801,"SoundDuration":156801,"Delta":83246094},{"NoteNumber":77,"Velocity":50,"Duration":480692,"SoundDuration":480692,"Delta":83402895},{"NoteNumber":62,"Velocity":46,"Duration":480692,"SoundDuration":480692,"Delta":83402895},{"NoteNumber":74,"Velocity":55,"Duration":158313,"SoundDuration":158313,"Delta":83883587},{"NoteNumber":58,"Velocity":41,"Duration":480081,"SoundDuration":480081,"Delta":83883587},{"NoteNumber":75,"Velocity":48,"Duration":159992,"SoundDuration":159992,"Delta":84041901},{"NoteNumber":77,"Velocity":48,"Duration":161775,"SoundDuration":161775,"Delta":84201893},{"NoteNumber":75,"Velocity":55,"Duration":158647,"SoundDuration":158647,"Delta":84363669},{"NoteNumber":60,"Velocity":47,"Duration":478365,"SoundDuration":478365,"Delta":84363669},{"NoteNumber":77,"Velocity":48,"Duration":159159,"SoundDuration":159159,"Delta":84522317},{"NoteNumber":79,"Velocity":48,"Duration":160557,"SoundDuration":160557,"Delta":84681477},{"NoteNumber":77,"Velocity":53,"Duration":481284,"SoundDuration":481284,"Delta":84842034},{"NoteNumber":62,"Velocity":46,"Duration":481284,"SoundDuration":481284,"Delta":84842034},{"NoteNumber":70,"Velocity":44,"Duration":241705,"SoundDuration":241705,"Delta":85323319},{"NoteNumber":70,"Velocity":45,"Duration":240346,"SoundDuration":240346,"Delta":85805370},{"NoteNumber":69,"Velocity":46,"Duration":160823,"SoundDuration":160823,"Delta":86298663},{"NoteNumber":53,"Velocity":33,"Duration":482470,"SoundDuration":482470,"Delta":86298663},{"NoteNumber":63,"Velocity":39,"Duration":482470,"SoundDuration":482470,"Delta":86298663},{"NoteNumber":70,"Velocity":40,"Duration":160823,"SoundDuration":160823,"Delta":86459486},{"NoteNumber":72,"Velocity":40,"Duration":160823,"SoundDuration":160823,"Delta":86620309},{"NoteNumber":70,"Velocity":45,"Duration":481284,"SoundDuration":481284,"Delta":86781133},{"NoteNumber":58,"Velocity":33,"Duration":481284,"SoundDuration":481284,"Delta":86781133},{"NoteNumber":62,"Velocity":39,"Duration":481284,"SoundDuration":481284,"Delta":86781133},{"NoteNumber":72,"Velocity":45,"Duration":60352,"SoundDuration":60352,"Delta":87743109},{"NoteNumber":53,"Velocity":38,"Duration":160939,"SoundDuration":160939,"Delta":87743109},{"NoteNumber":70,"Velocity":40,"Duration":60352,"SoundDuration":60352,"Delta":87803462},{"NoteNumber":72,"Velocity":46,"Duration":362115,"SoundDuration":362115,"Delta":87863814},{"NoteNumber":57,"Velocity":28,"Duration":160939,"SoundDuration":160939,"Delta":87904049},{"NoteNumber":60,"Velocity":26,"Duration":160940,"SoundDuration":160940,"Delta":88064989},{"NoteNumber":81,"Velocity":46,"Duration":477061,"SoundDuration":477061,"Delta":88225929},{"NoteNumber":53,"Velocity":29,"Duration":159020,"SoundDuration":159020,"Delta":88225929},{"NoteNumber":57,"Velocity":27,"Duration":159020,"SoundDuration":159020,"Delta":88384950},{"NoteNumber":60,"Velocity":27,"Duration":159020,"SoundDuration":159020,"Delta":88543970},{"NoteNumber":69,"Velocity":38,"Duration":486735,"SoundDuration":486735,"Delta":88702990},{"NoteNumber":53,"Velocity":33,"Duration":162245,"SoundDuration":162245,"Delta":88702990},{"NoteNumber":57,"Velocity":27,"Duration":162245,"SoundDuration":162245,"Delta":88865236},{"NoteNumber":60,"Velocity":27,"Duration":162245,"SoundDuration":162245,"Delta":89027481},{"NoteNumber":70,"Velocity":45,"Duration":60352,"SoundDuration":60352,"Delta":89189726},{"NoteNumber":52,"Velocity":38,"Duration":160939,"SoundDuration":160939,"Delta":89189726},{"NoteNumber":69,"Velocity":40,"Duration":60352,"SoundDuration":60352,"Delta":89250079},{"NoteNumber":70,"Velocity":46,"Duration":362115,"SoundDuration":362115,"Delta":89310431},{"NoteNumber":55,"Velocity":28,"Duration":160939,"SoundDuration":160939,"Delta":89350666},{"NoteNumber":60,"Velocity":26,"Duration":160940,"SoundDuration":160940,"Delta":89511606},{"NoteNumber":79,"Velocity":46,"Duration":477061,"SoundDuration":477061,"Delta":89672546},{"NoteNumber":52,"Velocity":29,"Duration":159020,"SoundDuration":159020,"Delta":89672546},{"NoteNumber":55,"Velocity":27,"Duration":159020,"SoundDuration":159020,"Delta":89831567},{"NoteNumber":60,"Velocity":27,"Duration":159020,"SoundDuration":159020,"Delta":89990587},{"NoteNumber":70,"Velocity":38,"Duration":486735,"SoundDuration":486735,"Delta":90149607},{"NoteNumber":52,"Velocity":33,"Duration":162245,"SoundDuration":162245,"Delta":90149607},{"NoteNumber":55,"Velocity":27,"Duration":162245,"SoundDuration":162245,"Delta":90311853},{"NoteNumber":60,"Velocity":27,"Duration":162245,"SoundDuration":162245,"Delta":90474098},{"NoteNumber":69,"Velocity":51,"Duration":159655,"SoundDuration":159655,"Delta":90636343},{"NoteNumber":53,"Velocity":36,"Duration":478965,"SoundDuration":478965,"Delta":90636343},{"NoteNumber":70,"Velocity":41,"Duration":159655,"SoundDuration":159655,"Delta":90795998},{"NoteNumber":72,"Velocity":41,"Duration":159655,"SoundDuration":159655,"Delta":90955653},{"NoteNumber":65,"Velocity":45,"Duration":482470,"SoundDuration":482470,"Delta":91115308},{"NoteNumber":57,"Velocity":36,"Duration":482470,"SoundDuration":482470,"Delta":91115308},{"NoteNumber":48,"Velocity":30,"Duration":482470,"SoundDuration":482470,"Delta":91115308},{"NoteNumber":64,"Velocity":41,"Duration":61891,"SoundDuration":61891,"Delta":91597778},{"NoteNumber":48,"Velocity":25,"Duration":495895,"SoundDuration":495895,"Delta":91597778},{"NoteNumber":55,"Velocity":30,"Duration":495895,"SoundDuration":495895,"Delta":91597778},{"NoteNumber":65,"Velocity":36,"Duration":61872,"SoundDuration":61872,"Delta":91659670},{"NoteNumber":64,"Velocity":41,"Duration":61662,"SoundDuration":61662,"Delta":91721542},{"NoteNumber":65,"Velocity":36,"Duration":61550,"SoundDuration":61550,"Delta":91783205},{"NoteNumber":64,"Velocity":41,"Duration":82299,"SoundDuration":82299,"Delta":91844755},{"NoteNumber":65,"Velocity":38,"Duration":82944,"SoundDuration":82944,"Delta":91927055},{"NoteNumber":64,"Velocity":38,"Duration":83674,"SoundDuration":83674,"Delta":92009999},{"NoteNumber":65,"Velocity":49,"Duration":1017534,"SoundDuration":1017534,"Delta":92093674},{"NoteNumber":53,"Velocity":36,"Duration":497017,"SoundDuration":497017,"Delta":92093674},{"NoteNumber":48,"Velocity":34,"Duration":130129,"SoundDuration":130129,"Delta":92590692},{"NoteNumber":41,"Velocity":35,"Duration":518269,"SoundDuration":518269,"Delta":93111209},{"NoteNumber":34,"Velocity":39,"Duration":984143,"SoundDuration":984143,"Delta":93629478},{"NoteNumber":46,"Velocity":46,"Duration":984143,"SoundDuration":984143,"Delta":93629478},{"NoteNumber":74,"Velocity":42,"Duration":478965,"SoundDuration":478965,"Delta":94134656},{"NoteNumber":77,"Velocity":50,"Duration":478965,"SoundDuration":478965,"Delta":94134656},{"NoteNumber":82,"Velocity":50,"Duration":156801,"SoundDuration":156801,"Delta":94613621},{"NoteNumber":63,"Velocity":34,"Duration":470404,"SoundDuration":470404,"Delta":94613621},{"NoteNumber":81,"Velocity":46,"Duration":156801,"SoundDuration":156801,"Delta":94770422},{"NoteNumber":79,"Velocity":45,"Duration":156801,"SoundDuration":156801,"Delta":94927224},{"NoteNumber":77,"Velocity":50,"Duration":473111,"SoundDuration":473111,"Delta":95084025},{"NoteNumber":62,"Velocity":46,"Duration":473111,"SoundDuration":473111,"Delta":95084025},{"NoteNumber":74,"Velocity":55,"Duration":158329,"SoundDuration":158329,"Delta":95557136},{"NoteNumber":58,"Velocity":41,"Duration":479795,"SoundDuration":479795,"Delta":95557136},{"NoteNumber":75,"Velocity":48,"Duration":159980,"SoundDuration":159980,"Delta":95715465},{"NoteNumber":77,"Velocity":48,"Duration":161486,"SoundDuration":161486,"Delta":95875445},{"NoteNumber":75,"Velocity":55,"Duration":159437,"SoundDuration":159437,"Delta":96036932},{"NoteNumber":60,"Velocity":47,"Duration":482328,"SoundDuration":482328,"Delta":96036932},{"NoteNumber":77,"Velocity":48,"Duration":160767,"SoundDuration":160767,"Delta":96196369},{"NoteNumber":79,"Velocity":48,"Duration":162123,"SoundDuration":162123,"Delta":96357136},{"NoteNumber":77,"Velocity":53,"Duration":481284,"SoundDuration":481284,"Delta":96519260},{"NoteNumber":62,"Velocity":46,"Duration":481284,"SoundDuration":481284,"Delta":96519260},{"NoteNumber":70,"Velocity":44,"Duration":241055,"SoundDuration":241055,"Delta":97000545},{"NoteNumber":70,"Velocity":45,"Duration":240346,"SoundDuration":240346,"Delta":97481946},{"NoteNumber":69,"Velocity":46,"Duration":160823,"SoundDuration":160823,"Delta":97975238},{"NoteNumber":53,"Velocity":33,"Duration":482470,"SoundDuration":482470,"Delta":97975238},{"NoteNumber":63,"Velocity":39,"Duration":482470,"SoundDuration":482470,"Delta":97975238},{"NoteNumber":70,"Velocity":40,"Duration":160823,"SoundDuration":160823,"Delta":98136062},{"NoteNumber":72,"Velocity":40,"Duration":160823,"SoundDuration":160823,"Delta":98296885},{"NoteNumber":70,"Velocity":45,"Duration":481284,"SoundDuration":481284,"Delta":98457708},{"NoteNumber":58,"Velocity":33,"Duration":481284,"SoundDuration":481284,"Delta":98457708},{"NoteNumber":62,"Velocity":39,"Duration":481284,"SoundDuration":481284,"Delta":98457708},{"NoteNumber":72,"Velocity":45,"Duration":59138,"SoundDuration":59138,"Delta":99419685},{"NoteNumber":53,"Velocity":38,"Duration":157703,"SoundDuration":157703,"Delta":99419685},{"NoteNumber":70,"Velocity":40,"Duration":59138,"SoundDuration":59138,"Delta":99478824},{"NoteNumber":72,"Velocity":46,"Duration":359590,"SoundDuration":359590,"Delta":99537963},{"NoteNumber":57,"Velocity":28,"Duration":159289,"SoundDuration":159289,"Delta":99577389},{"NoteNumber":60,"Velocity":26,"Duration":160875,"SoundDuration":160875,"Delta":99736678},{"NoteNumber":81,"Velocity":46,"Duration":477061,"SoundDuration":477061,"Delta":99897553},{"NoteNumber":53,"Velocity":29,"Duration":159020,"SoundDuration":159020,"Delta":99897553},{"NoteNumber":57,"Velocity":27,"Duration":159020,"SoundDuration":159020,"Delta":100056573},{"NoteNumber":60,"Velocity":27,"Duration":159020,"SoundDuration":159020,"Delta":100215594},{"NoteNumber":69,"Velocity":38,"Duration":486735,"SoundDuration":486735,"Delta":100374614},{"NoteNumber":53,"Velocity":33,"Duration":162245,"SoundDuration":162245,"Delta":100374614},{"NoteNumber":57,"Velocity":27,"Duration":162245,"SoundDuration":162245,"Delta":100536859},{"NoteNumber":60,"Velocity":27,"Duration":162245,"SoundDuration":162245,"Delta":100699105},{"NoteNumber":70,"Velocity":45,"Duration":59608,"SoundDuration":59608,"Delta":100861350},{"NoteNumber":52,"Velocity":38,"Duration":158957,"SoundDuration":158957,"Delta":100861350},{"NoteNumber":69,"Velocity":40,"Duration":59609,"SoundDuration":59609,"Delta":100920959},{"NoteNumber":70,"Velocity":46,"Duration":359563,"SoundDuration":359563,"Delta":100980568},{"NoteNumber":55,"Velocity":28,"Duration":159593,"SoundDuration":159593,"Delta":101020307},{"NoteNumber":60,"Velocity":26,"Duration":160230,"SoundDuration":160230,"Delta":101179901},{"NoteNumber":79,"Velocity":46,"Duration":477061,"SoundDuration":477061,"Delta":101340132},{"NoteNumber":52,"Velocity":29,"Duration":159020,"SoundDuration":159020,"Delta":101340132},{"NoteNumber":55,"Velocity":27,"Duration":159020,"SoundDuration":159020,"Delta":101499152},{"NoteNumber":60,"Velocity":27,"Duration":159020,"SoundDuration":159020,"Delta":101658173},{"NoteNumber":70,"Velocity":38,"Duration":486735,"SoundDuration":486735,"Delta":101817193},{"NoteNumber":52,"Velocity":33,"Duration":162245,"SoundDuration":162245,"Delta":101817193},{"NoteNumber":55,"Velocity":27,"Duration":162245,"SoundDuration":162245,"Delta":101979438},{"NoteNumber":60,"Velocity":27,"Duration":162245,"SoundDuration":162245,"Delta":102141684},{"NoteNumber":69,"Velocity":51,"Duration":159655,"SoundDuration":159655,"Delta":102303929},{"NoteNumber":53,"Velocity":36,"Duration":478965,"SoundDuration":478965,"Delta":102303929},{"NoteNumber":70,"Velocity":41,"Duration":159655,"SoundDuration":159655,"Delta":102463584},{"NoteNumber":72,"Velocity":41,"Duration":159655,"SoundDuration":159655,"Delta":102623239},{"NoteNumber":65,"Velocity":45,"Duration":482470,"SoundDuration":482470,"Delta":102782894},{"NoteNumber":57,"Velocity":36,"Duration":482470,"SoundDuration":482470,"Delta":102782894},{"NoteNumber":48,"Velocity":30,"Duration":482470,"SoundDuration":482470,"Delta":102782894},{"NoteNumber":64,"Velocity":41,"Duration":61891,"SoundDuration":61891,"Delta":103265364},{"NoteNumber":48,"Velocity":25,"Duration":495895,"SoundDuration":495895,"Delta":103265364},{"NoteNumber":55,"Velocity":30,"Duration":495895,"SoundDuration":495895,"Delta":103265364},{"NoteNumber":65,"Velocity":36,"Duration":61872,"SoundDuration":61872,"Delta":103327255},{"NoteNumber":64,"Velocity":41,"Duration":61662,"SoundDuration":61662,"Delta":103389128},{"NoteNumber":65,"Velocity":36,"Duration":61550,"SoundDuration":61550,"Delta":103450790},{"NoteNumber":64,"Velocity":41,"Duration":82299,"SoundDuration":82299,"Delta":103512340},{"NoteNumber":65,"Velocity":38,"Duration":82944,"SoundDuration":82944,"Delta":103594640},{"NoteNumber":64,"Velocity":38,"Duration":83674,"SoundDuration":83674,"Delta":103677584},{"NoteNumber":65,"Velocity":49,"Duration":1017534,"SoundDuration":1017534,"Delta":103761259},{"NoteNumber":53,"Velocity":36,"Duration":497017,"SoundDuration":497017,"Delta":103761259},{"NoteNumber":48,"Velocity":34,"Duration":130129,"SoundDuration":130129,"Delta":104258277},{"NoteNumber":41,"Velocity":35,"Duration":529473,"SoundDuration":529473,"Delta":104778794},{"NoteNumber":77,"Velocity":50,"Duration":156801,"SoundDuration":156801,"Delta":105308268},{"NoteNumber":50,"Velocity":42,"Duration":470404,"SoundDuration":470404,"Delta":105308268},{"NoteNumber":75,"Velocity":46,"Duration":156801,"SoundDuration":156801,"Delta":105465070},{"NoteNumber":74,"Velocity":40,"Duration":156801,"SoundDuration":156801,"Delta":105621871},{"NoteNumber":77,"Velocity":50,"Duration":157146,"SoundDuration":157146,"Delta":105778672},{"NoteNumber":58,"Velocity":37,"Duration":471439,"SoundDuration":471439,"Delta":105778672},{"NoteNumber":75,"Velocity":45,"Duration":157146,"SoundDuration":157146,"Delta":105935819},{"NoteNumber":74,"Velocity":41,"Duration":157146,"SoundDuration":157146,"Delta":106092965},{"NoteNumber":72,"Velocity":51,"Duration":160823,"SoundDuration":160823,"Delta":106250111},{"NoteNumber":50,"Velocity":38,"Duration":482470,"SoundDuration":482470,"Delta":106250111},{"NoteNumber":70,"Velocity":46,"Duration":160823,"SoundDuration":160823,"Delta":106410935},{"NoteNumber":68,"Velocity":41,"Duration":160823,"SoundDuration":160823,"Delta":106571758},{"NoteNumber":67,"Velocity":54,"Duration":482469,"SoundDuration":482469,"Delta":106732581},{"NoteNumber":51,"Velocity":47,"Duration":482469,"SoundDuration":482469,"Delta":106732581},{"NoteNumber":72,"Velocity":50,"Duration":158171,"SoundDuration":158171,"Delta":107215051},{"NoteNumber":55,"Velocity":37,"Duration":473579,"SoundDuration":473579,"Delta":107215051},{"NoteNumber":71,"Velocity":45,"Duration":157703,"SoundDuration":157703,"Delta":107373223},{"NoteNumber":72,"Velocity":41,"Duration":157703,"SoundDuration":157703,"Delta":107530927},{"NoteNumber":75,"Velocity":53,"Duration":160823,"SoundDuration":160823,"Delta":107688631},{"NoteNumber":60,"Velocity":38,"Duration":482470,"SoundDuration":482470,"Delta":107688631},{"NoteNumber":74,"Velocity":47,"Duration":160823,"SoundDuration":160823,"Delta":107849454},{"NoteNumber":75,"Velocity":47,"Duration":160823,"SoundDuration":160823,"Delta":108010277},{"NoteNumber":79,"Velocity":50,"Duration":156801,"SoundDuration":156801,"Delta":108171101},{"NoteNumber":51,"Velocity":42,"Duration":470404,"SoundDuration":470404,"Delta":108171101},{"NoteNumber":77,"Velocity":46,"Duration":156801,"SoundDuration":156801,"Delta":108327902},{"NoteNumber":75,"Velocity":40,"Duration":156801,"SoundDuration":156801,"Delta":108484703},{"NoteNumber":79,"Velocity":50,"Duration":157765,"SoundDuration":157765,"Delta":108641505},{"NoteNumber":60,"Velocity":37,"Duration":473297,"SoundDuration":473297,"Delta":108641505},{"NoteNumber":77,"Velocity":45,"Duration":157766,"SoundDuration":157766,"Delta":108799271},{"NoteNumber":75,"Velocity":41,"Duration":157765,"SoundDuration":157765,"Delta":108957037},{"NoteNumber":74,"Velocity":51,"Duration":160823,"SoundDuration":160823,"Delta":109114803},{"NoteNumber":52,"Velocity":38,"Duration":482470,"SoundDuration":482470,"Delta":109114803},{"NoteNumber":72,"Velocity":46,"Duration":160823,"SoundDuration":160823,"Delta":109275626},{"NoteNumber":70,"Velocity":41,"Duration":150771,"SoundDuration":150771,"Delta":109436449},{"NoteNumber":70,"Velocity":50,"Duration":249438,"SoundDuration":249438,"Delta":109597273},{"NoteNumber":53,"Velocity":42,"Duration":498878,"SoundDuration":498878,"Delta":109597273},{"NoteNumber":69,"Velocity":43,"Duration":757914,"SoundDuration":757914,"Delta":109846712},{"NoteNumber":48,"Velocity":37,"Duration":127118,"SoundDuration":127118,"Delta":110096151},{"NoteNumber":41,"Velocity":33,"Duration":514447,"SoundDuration":514447,"Delta":110604626},{"NoteNumber":77,"Velocity":47,"Duration":60352,"SoundDuration":60352,"Delta":111119073},{"NoteNumber":58,"Velocity":38,"Duration":160939,"SoundDuration":160939,"Delta":111119073},{"NoteNumber":75,"Velocity":42,"Duration":60352,"SoundDuration":60352,"Delta":111179425},{"NoteNumber":77,"Velocity":48,"Duration":362115,"SoundDuration":362115,"Delta":111239778},{"NoteNumber":62,"Velocity":28,"Duration":160939,"SoundDuration":160939,"Delta":111280013},{"NoteNumber":65,"Velocity":26,"Duration":160940,"SoundDuration":160940,"Delta":111440953},{"NoteNumber":86,"Velocity":48,"Duration":477061,"SoundDuration":477061,"Delta":111601893},{"NoteNumber":58,"Velocity":40,"Duration":159020,"SoundDuration":159020,"Delta":111601893},{"NoteNumber":62,"Velocity":27,"Duration":159020,"SoundDuration":159020,"Delta":111760913},{"NoteNumber":65,"Velocity":27,"Duration":159020,"SoundDuration":159020,"Delta":111919933},{"NoteNumber":74,"Velocity":39,"Duration":486735,"SoundDuration":486735,"Delta":112078954},{"NoteNumber":58,"Velocity":33,"Duration":162245,"SoundDuration":162245,"Delta":112078954},{"NoteNumber":62,"Velocity":27,"Duration":162245,"SoundDuration":162245,"Delta":112241199},{"NoteNumber":65,"Velocity":27,"Duration":162245,"SoundDuration":162245,"Delta":112403444},{"NoteNumber":75,"Velocity":47,"Duration":60352,"SoundDuration":60352,"Delta":112565690},{"NoteNumber":57,"Velocity":38,"Duration":160939,"SoundDuration":160939,"Delta":112565690},{"NoteNumber":74,"Velocity":42,"Duration":60352,"SoundDuration":60352,"Delta":112626042},{"NoteNumber":75,"Velocity":48,"Duration":362115,"SoundDuration":362115,"Delta":112686395},{"NoteNumber":60,"Velocity":28,"Duration":160939,"SoundDuration":160939,"Delta":112726630},{"NoteNumber":65,"Velocity":26,"Duration":160940,"SoundDuration":160940,"Delta":112887570},{"NoteNumber":84,"Velocity":48,"Duration":477061,"SoundDuration":477061,"Delta":113048510},{"NoteNumber":57,"Velocity":36,"Duration":159020,"SoundDuration":159020,"Delta":113048510},{"NoteNumber":60,"Velocity":27,"Duration":159020,"SoundDuration":159020,"Delta":113207530},{"NoteNumber":65,"Velocity":27,"Duration":159020,"SoundDuration":159020,"Delta":113366550},{"NoteNumber":75,"Velocity":39,"Duration":486735,"SoundDuration":486735,"Delta":113525571},{"NoteNumber":57,"Velocity":33,"Duration":162245,"SoundDuration":162245,"Delta":113525571},{"NoteNumber":60,"Velocity":27,"Duration":162245,"SoundDuration":162245,"Delta":113687816},{"NoteNumber":65,"Velocity":27,"Duration":162245,"SoundDuration":162245,"Delta":113850061},{"NoteNumber":74,"Velocity":51,"Duration":159655,"SoundDuration":159655,"Delta":114012307},{"NoteNumber":58,"Velocity":36,"Duration":478965,"SoundDuration":478965,"Delta":114012307},{"NoteNumber":75,"Velocity":41,"Duration":159655,"SoundDuration":159655,"Delta":114171962},{"NoteNumber":77,"Velocity":41,"Duration":159655,"SoundDuration":159655,"Delta":114331617},{"NoteNumber":70,"Velocity":45,"Duration":482470,"SoundDuration":482470,"Delta":114491272},{"NoteNumber":62,"Velocity":36,"Duration":482470,"SoundDuration":482470,"Delta":114491272},{"NoteNumber":53,"Velocity":30,"Duration":482470,"SoundDuration":482470,"Delta":114491272},{"NoteNumber":69,"Velocity":41,"Duration":61891,"SoundDuration":61891,"Delta":114973742},{"NoteNumber":53,"Velocity":25,"Duration":495895,"SoundDuration":495895,"Delta":114973742},{"NoteNumber":60,"Velocity":30,"Duration":495895,"SoundDuration":495895,"Delta":114973742},{"NoteNumber":70,"Velocity":36,"Duration":61872,"SoundDuration":61872,"Delta":115035633},{"NoteNumber":69,"Velocity":41,"Duration":61662,"SoundDuration":61662,"Delta":115097505},{"NoteNumber":70,"Velocity":36,"Duration":61550,"SoundDuration":61550,"Delta":115159168},{"NoteNumber":69,"Velocity":41,"Duration":82299,"SoundDuration":82299,"Delta":115220718},{"NoteNumber":70,"Velocity":38,"Duration":82944,"SoundDuration":82944,"Delta":115303018},{"NoteNumber":69,"Velocity":38,"Duration":83674,"SoundDuration":83674,"Delta":115385962},{"NoteNumber":70,"Velocity":49,"Duration":1017534,"SoundDuration":1017534,"Delta":115469637},{"NoteNumber":58,"Velocity":36,"Duration":497017,"SoundDuration":497017,"Delta":115469637},{"NoteNumber":53,"Velocity":34,"Duration":130129,"SoundDuration":130129,"Delta":115966655},{"NoteNumber":46,"Velocity":35,"Duration":520516,"SoundDuration":520516,"Delta":116487172},{"NoteNumber":77,"Velocity":50,"Duration":156801,"SoundDuration":156801,"Delta":117007689},{"NoteNumber":50,"Velocity":42,"Duration":470404,"SoundDuration":470404,"Delta":117007689},{"NoteNumber":75,"Velocity":46,"Duration":156801,"SoundDuration":156801,"Delta":117164490},{"NoteNumber":74,"Velocity":40,"Duration":156801,"SoundDuration":156801,"Delta":117321292},{"NoteNumber":77,"Velocity":50,"Duration":158390,"SoundDuration":158390,"Delta":117478093},{"NoteNumber":58,"Velocity":37,"Duration":475172,"SoundDuration":475172,"Delta":117478093},{"NoteNumber":75,"Velocity":45,"Duration":158390,"SoundDuration":158390,"Delta":117636484},{"NoteNumber":74,"Velocity":41,"Duration":158390,"SoundDuration":158390,"Delta":117794874},{"NoteNumber":72,"Velocity":51,"Duration":160823,"SoundDuration":160823,"Delta":117953265},{"NoteNumber":50,"Velocity":38,"Duration":482470,"SoundDuration":482470,"Delta":117953265},{"NoteNumber":70,"Velocity":46,"Duration":160823,"SoundDuration":160823,"Delta":118114088},{"NoteNumber":68,"Velocity":41,"Duration":160823,"SoundDuration":160823,"Delta":118274912},{"NoteNumber":67,"Velocity":54,"Duration":482469,"SoundDuration":482469,"Delta":118435735},{"NoteNumber":51,"Velocity":47,"Duration":482469,"SoundDuration":482469,"Delta":118435735},{"NoteNumber":72,"Velocity":50,"Duration":157703,"SoundDuration":157703,"Delta":118918205},{"NoteNumber":55,"Velocity":37,"Duration":473111,"SoundDuration":473111,"Delta":118918205},{"NoteNumber":71,"Velocity":45,"Duration":157703,"SoundDuration":157703,"Delta":119075909},{"NoteNumber":72,"Velocity":41,"Duration":157703,"SoundDuration":157703,"Delta":119233612},{"NoteNumber":75,"Velocity":53,"Duration":159591,"SoundDuration":159591,"Delta":119391316},{"NoteNumber":60,"Velocity":38,"Duration":478774,"SoundDuration":478774,"Delta":119391316},{"NoteNumber":74,"Velocity":47,"Duration":159591,"SoundDuration":159591,"Delta":119550907},{"NoteNumber":75,"Velocity":47,"Duration":159591,"SoundDuration":159591,"Delta":119710499},{"NoteNumber":79,"Velocity":50,"Duration":156801,"SoundDuration":156801,"Delta":119870090},{"NoteNumber":51,"Velocity":42,"Duration":470404,"SoundDuration":470404,"Delta":119870090},{"NoteNumber":77,"Velocity":46,"Duration":156801,"SoundDuration":156801,"Delta":120026891},{"NoteNumber":75,"Velocity":40,"Duration":156801,"SoundDuration":156801,"Delta":120183693},{"NoteNumber":79,"Velocity":50,"Duration":157146,"SoundDuration":157146,"Delta":120340494},{"NoteNumber":60,"Velocity":37,"Duration":471439,"SoundDuration":471439,"Delta":120340494},{"NoteNumber":77,"Velocity":45,"Duration":157146,"SoundDuration":157146,"Delta":120497640},{"NoteNumber":75,"Velocity":41,"Duration":157146,"SoundDuration":157146,"Delta":120654787},{"NoteNumber":74,"Velocity":51,"Duration":160823,"SoundDuration":160823,"Delta":120811933},{"NoteNumber":52,"Velocity":38,"Duration":482470,"SoundDuration":482470,"Delta":120811933},{"NoteNumber":72,"Velocity":46,"Duration":160823,"SoundDuration":160823,"Delta":120972756},{"NoteNumber":70,"Velocity":41,"Duration":150771,"SoundDuration":150771,"Delta":121133580},{"NoteNumber":70,"Velocity":50,"Duration":249438,"SoundDuration":249438,"Delta":121294403},{"NoteNumber":53,"Velocity":42,"Duration":498878,"SoundDuration":498878,"Delta":121294403},{"NoteNumber":69,"Velocity":43,"Duration":757914,"SoundDuration":757914,"Delta":121543842},{"NoteNumber":48,"Velocity":37,"Duration":127118,"SoundDuration":127118,"Delta":121793281},{"NoteNumber":41,"Velocity":33,"Duration":514447,"SoundDuration":514447,"Delta":122301756},{"NoteNumber":77,"Velocity":47,"Duration":59846,"SoundDuration":59846,"Delta":122816203},{"NoteNumber":58,"Velocity":38,"Duration":159119,"SoundDuration":159119,"Delta":122816203},{"NoteNumber":75,"Velocity":42,"Duration":59846,"SoundDuration":59846,"Delta":122876050},{"NoteNumber":77,"Velocity":48,"Duration":359590,"SoundDuration":359590,"Delta":122935896},{"NoteNumber":62,"Velocity":28,"Duration":159289,"SoundDuration":159289,"Delta":122975322},{"NoteNumber":65,"Velocity":26,"Duration":160875,"SoundDuration":160875,"Delta":123134612},{"NoteNumber":86,"Velocity":48,"Duration":477061,"SoundDuration":477061,"Delta":123295487},{"NoteNumber":58,"Velocity":40,"Duration":159020,"SoundDuration":159020,"Delta":123295487},{"NoteNumber":62,"Velocity":27,"Duration":159020,"SoundDuration":159020,"Delta":123454507},{"NoteNumber":65,"Velocity":27,"Duration":159020,"SoundDuration":159020,"Delta":123613527},{"NoteNumber":74,"Velocity":39,"Duration":486735,"SoundDuration":486735,"Delta":123772548},{"NoteNumber":58,"Velocity":33,"Duration":162245,"SoundDuration":162245,"Delta":123772548},{"NoteNumber":62,"Velocity":27,"Duration":162245,"SoundDuration":162245,"Delta":123934793},{"NoteNumber":65,"Velocity":27,"Duration":162245,"SoundDuration":162245,"Delta":124097038},{"NoteNumber":75,"Velocity":47,"Duration":59138,"SoundDuration":59138,"Delta":124259284},{"NoteNumber":57,"Velocity":38,"Duration":157703,"SoundDuration":157703,"Delta":124259284},{"NoteNumber":74,"Velocity":42,"Duration":59138,"SoundDuration":59138,"Delta":124318423},{"NoteNumber":75,"Velocity":48,"Duration":358623,"SoundDuration":358623,"Delta":124377561},{"NoteNumber":60,"Velocity":28,"Duration":158967,"SoundDuration":158967,"Delta":124416987},{"NoteNumber":65,"Velocity":26,"Duration":160230,"SoundDuration":160230,"Delta":124575955},{"NoteNumber":84,"Velocity":48,"Duration":477061,"SoundDuration":477061,"Delta":124736185},{"NoteNumber":57,"Velocity":36,"Duration":159020,"SoundDuration":159020,"Delta":124736185},{"NoteNumber":60,"Velocity":27,"Duration":159020,"SoundDuration":159020,"Delta":124895206},{"NoteNumber":65,"Velocity":27,"Duration":159020,"SoundDuration":159020,"Delta":125054226},{"NoteNumber":75,"Velocity":39,"Duration":486735,"SoundDuration":486735,"Delta":125213246},{"NoteNumber":57,"Velocity":33,"Duration":162245,"SoundDuration":162245,"Delta":125213246},{"NoteNumber":60,"Velocity":27,"Duration":162245,"SoundDuration":162245,"Delta":125375492},{"NoteNumber":65,"Velocity":27,"Duration":162245,"SoundDuration":162245,"Delta":125537737},{"NoteNumber":74,"Velocity":51,"Duration":159655,"SoundDuration":159655,"Delta":125699982},{"NoteNumber":58,"Velocity":36,"Duration":478965,"SoundDuration":478965,"Delta":125699982},{"NoteNumber":75,"Velocity":41,"Duration":159655,"SoundDuration":159655,"Delta":125859637},{"NoteNumber":77,"Velocity":41,"Duration":159655,"SoundDuration":159655,"Delta":126019292},{"NoteNumber":70,"Velocity":45,"Duration":482470,"SoundDuration":482470,"Delta":126178947},{"NoteNumber":62,"Velocity":36,"Duration":482470,"SoundDuration":482470,"Delta":126178947},{"NoteNumber":53,"Velocity":30,"Duration":482470,"SoundDuration":482470,"Delta":126178947},{"NoteNumber":69,"Velocity":41,"Duration":61891,"SoundDuration":61891,"Delta":126661417},{"NoteNumber":53,"Velocity":25,"Duration":495895,"SoundDuration":495895,"Delta":126661417},{"NoteNumber":60,"Velocity":30,"Duration":495895,"SoundDuration":495895,"Delta":126661417},{"NoteNumber":70,"Velocity":36,"Duration":61872,"SoundDuration":61872,"Delta":126723309},{"NoteNumber":69,"Velocity":41,"Duration":61662,"SoundDuration":61662,"Delta":126785181},{"NoteNumber":70,"Velocity":36,"Duration":61550,"SoundDuration":61550,"Delta":126846843},{"NoteNumber":69,"Velocity":41,"Duration":82299,"SoundDuration":82299,"Delta":126908393},{"NoteNumber":70,"Velocity":38,"Duration":82944,"SoundDuration":82944,"Delta":126990693},{"NoteNumber":69,"Velocity":38,"Duration":83674,"SoundDuration":83674,"Delta":127073638},{"NoteNumber":70,"Velocity":49,"Duration":1017534,"SoundDuration":1017534,"Delta":127157313},{"NoteNumber":58,"Velocity":36,"Duration":497017,"SoundDuration":497017,"Delta":127157313},{"NoteNumber":53,"Velocity":34,"Duration":130129,"SoundDuration":130129,"Delta":127654331},{"NoteNumber":46,"Velocity":35,"Duration":586396,"SoundDuration":586396,"Delta":128174848},{"NoteNumber":77,"Velocity":64,"Duration":59138,"SoundDuration":59138,"Delta":128761244},{"NoteNumber":41,"Velocity":33,"Duration":475942,"SoundDuration":475942,"Delta":128761244},{"NoteNumber":53,"Velocity":39,"Duration":475942,"SoundDuration":475942,"Delta":128761244},{"NoteNumber":79,"Velocity":51,"Duration":59138,"SoundDuration":59138,"Delta":128820383},{"NoteNumber":77,"Velocity":56,"Duration":59138,"SoundDuration":59138,"Delta":128879521},{"NoteNumber":76,"Velocity":51,"Duration":59138,"SoundDuration":59138,"Delta":128938660},{"NoteNumber":77,"Velocity":62,"Duration":718161,"SoundDuration":718161,"Delta":128997799},{"NoteNumber":57,"Velocity":34,"Duration":478774,"SoundDuration":478774,"Delta":129237186},{"NoteNumber":45,"Velocity":28,"Duration":478774,"SoundDuration":478774,"Delta":129237186},{"NoteNumber":82,"Velocity":50,"Duration":156801,"SoundDuration":156801,"Delta":129715960},{"NoteNumber":60,"Velocity":34,"Duration":470404,"SoundDuration":470404,"Delta":129715960},{"NoteNumber":48,"Velocity":28,"Duration":470404,"SoundDuration":470404,"Delta":129715960},{"NoteNumber":79,"Velocity":46,"Duration":156801,"SoundDuration":156801,"Delta":129872761},{"NoteNumber":76,"Velocity":45,"Duration":156801,"SoundDuration":156801,"Delta":130029563},{"NoteNumber":77,"Velocity":50,"Duration":240345,"SoundDuration":240345,"Delta":130186364},{"NoteNumber":53,"Velocity":34,"Duration":480692,"SoundDuration":480692,"Delta":130186364},{"NoteNumber":65,"Velocity":41,"Duration":480692,"SoundDuration":480692,"Delta":130186364},{"NoteNumber":81,"Velocity":43,"Duration":240346,"SoundDuration":240346,"Delta":130426710},{"NoteNumber":72,"Velocity":50,"Duration":482470,"SoundDuration":482470,"Delta":130667056},{"NoteNumber":70,"Velocity":46,"Duration":62810,"SoundDuration":62810,"Delta":131149526},{"NoteNumber":67,"Velocity":34,"Duration":490954,"SoundDuration":490954,"Delta":131149526},{"NoteNumber":72,"Velocity":41,"Duration":61828,"SoundDuration":61828,"Delta":131212337},{"NoteNumber":70,"Velocity":46,"Duration":60858,"SoundDuration":60858,"Delta":131274165},{"NoteNumber":72,"Velocity":41,"Duration":60193,"SoundDuration":60193,"Delta":131335024},{"NoteNumber":70,"Velocity":46,"Duration":80907,"SoundDuration":80907,"Delta":131395218},{"NoteNumber":72,"Velocity":43,"Duration":81772,"SoundDuration":81772,"Delta":131476125},{"NoteNumber":70,"Velocity":43,"Duration":82583,"SoundDuration":82583,"Delta":131557898},{"NoteNumber":69,"Velocity":50,"Duration":241234,"SoundDuration":241234,"Delta":131640481},{"NoteNumber":65,"Velocity":41,"Duration":482470,"SoundDuration":482470,"Delta":131640481},{"NoteNumber":72,"Velocity":43,"Duration":241235,"SoundDuration":241235,"Delta":131881716},{"NoteNumber":77,"Velocity":50,"Duration":157368,"SoundDuration":157368,"Delta":132122951},{"NoteNumber":76,"Velocity":41,"Duration":157368,"SoundDuration":157368,"Delta":132280320},{"NoteNumber":74,"Velocity":41,"Duration":157368,"SoundDuration":157368,"Delta":132437688},{"NoteNumber":72,"Velocity":47,"Duration":155860,"SoundDuration":155860,"Delta":132595057},{"NoteNumber":70,"Velocity":40,"Duration":155860,"SoundDuration":155860,"Delta":132750917},{"NoteNumber":69,"Velocity":40,"Duration":155860,"SoundDuration":155860,"Delta":132906778},{"NoteNumber":67,"Velocity":50,"Duration":731707,"SoundDuration":731707,"Delta":133062638},{"NoteNumber":64,"Velocity":41,"Duration":487805,"SoundDuration":487805,"Delta":133062638},{"NoteNumber":60,"Velocity":34,"Duration":477437,"SoundDuration":477437,"Delta":133550443},{"NoteNumber":69,"Velocity":43,"Duration":116767,"SoundDuration":116767,"Delta":133794346},{"NoteNumber":70,"Velocity":38,"Duration":116767,"SoundDuration":116767,"Delta":133911113},{"NoteNumber":69,"Velocity":47,"Duration":502675,"SoundDuration":502675,"Delta":134027881},{"NoteNumber":65,"Velocity":41,"Duration":502675,"SoundDuration":502675,"Delta":134027881},{"NoteNumber":77,"Velocity":64,"Duration":59372,"SoundDuration":59372,"Delta":134530557},{"NoteNumber":53,"Velocity":39,"Duration":476878,"SoundDuration":476878,"Delta":134530557},{"NoteNumber":79,"Velocity":51,"Duration":59372,"SoundDuration":59372,"Delta":134589930},{"NoteNumber":77,"Velocity":56,"Duration":59373,"SoundDuration":59373,"Delta":134649303},{"NoteNumber":76,"Velocity":54,"Duration":59372,"SoundDuration":59372,"Delta":134708676},{"NoteNumber":77,"Velocity":65,"Duration":718161,"SoundDuration":718161,"Delta":134768049},{"NoteNumber":57,"Velocity":34,"Duration":478774,"SoundDuration":478774,"Delta":135007436},{"NoteNumber":82,"Velocity":58,"Duration":157368,"SoundDuration":157368,"Delta":135486210},{"NoteNumber":60,"Velocity":34,"Duration":472105,"SoundDuration":472105,"Delta":135486210},{"NoteNumber":79,"Velocity":46,"Duration":157368,"SoundDuration":157368,"Delta":135643578},{"NoteNumber":76,"Velocity":45,"Duration":157368,"SoundDuration":157368,"Delta":135800947},{"NoteNumber":77,"Velocity":50,"Duration":241234,"SoundDuration":241234,"Delta":135958316},{"NoteNumber":53,"Velocity":34,"Duration":482470,"SoundDuration":482470,"Delta":135958316},{"NoteNumber":65,"Velocity":41,"Duration":482470,"SoundDuration":482470,"Delta":135958316},{"NoteNumber":81,"Velocity":43,"Duration":241235,"SoundDuration":241235,"Delta":136199551},{"NoteNumber":72,"Velocity":50,"Duration":497017,"SoundDuration":497017,"Delta":136440786},{"NoteNumber":81,"Velocity":50,"Duration":160230,"SoundDuration":160230,"Delta":136937804},{"NoteNumber":65,"Velocity":34,"Duration":492608,"SoundDuration":492608,"Delta":136937804},{"NoteNumber":83,"Velocity":46,"Duration":160230,"SoundDuration":160230,"Delta":137098034},{"NoteNumber":84,"Velocity":46,"Duration":161387,"SoundDuration":161387,"Delta":137258265},{"NoteNumber":84,"Velocity":54,"Duration":157703,"SoundDuration":157703,"Delta":137430412},{"NoteNumber":64,"Velocity":41,"Duration":961969,"SoundDuration":961969,"Delta":137430412},{"NoteNumber":83,"Velocity":48,"Duration":158647,"SoundDuration":158647,"Delta":137588115},{"NoteNumber":81,"Velocity":48,"Duration":159591,"SoundDuration":159591,"Delta":137746763},{"NoteNumber":79,"Velocity":53,"Duration":486027,"SoundDuration":486027,"Delta":137906354},{"NoteNumber":81,"Velocity":50,"Duration":159654,"SoundDuration":159654,"Delta":138392381},{"NoteNumber":65,"Velocity":35,"Duration":491456,"SoundDuration":491456,"Delta":138392381},{"NoteNumber":83,"Velocity":47,"Duration":159655,"SoundDuration":159655,"Delta":138552036},{"NoteNumber":84,"Velocity":47,"Duration":161387,"SoundDuration":161387,"Delta":138711691},{"NoteNumber":84,"Velocity":53,"Duration":157084,"SoundDuration":157084,"Delta":138883838},{"NoteNumber":64,"Velocity":41,"Duration":950934,"SoundDuration":950934,"Delta":138883838},{"NoteNumber":83,"Velocity":46,"Duration":158020,"SoundDuration":158020,"Delta":139040922},{"NoteNumber":81,"Velocity":46,"Duration":158957,"SoundDuration":158957,"Delta":139198943},{"NoteNumber":79,"Velocity":50,"Duration":158957,"SoundDuration":158957,"Delta":139357901},{"NoteNumber":77,"Velocity":44,"Duration":158957,"SoundDuration":158957,"Delta":139516858},{"NoteNumber":76,"Velocity":44,"Duration":158957,"SoundDuration":158957,"Delta":139675815},{"NoteNumber":77,"Velocity":48,"Duration":158957,"SoundDuration":158957,"Delta":139834773},{"NoteNumber":59,"Velocity":38,"Duration":488723,"SoundDuration":488723,"Delta":139834773},{"NoteNumber":47,"Velocity":32,"Duration":488723,"SoundDuration":488723,"Delta":139834773},{"NoteNumber":76,"Velocity":45,"Duration":158957,"SoundDuration":158957,"Delta":139993730},{"NoteNumber":74,"Velocity":45,"Duration":170808,"SoundDuration":170808,"Delta":140152687},{"NoteNumber":76,"Velocity":50,"Duration":159654,"SoundDuration":159654,"Delta":140323496},{"NoteNumber":48,"Velocity":34,"Duration":478964,"SoundDuration":478964,"Delta":140323496},{"NoteNumber":60,"Velocity":41,"Duration":478964,"SoundDuration":478964,"Delta":140323496},{"NoteNumber":77,"Velocity":46,"Duration":159655,"SoundDuration":159655,"Delta":140483151},{"NoteNumber":79,"Velocity":46,"Duration":159654,"SoundDuration":159654,"Delta":140642806},{"NoteNumber":72,"Velocity":50,"Duration":482470,"SoundDuration":482470,"Delta":140802461},{"NoteNumber":64,"Velocity":41,"Duration":482470,"SoundDuration":482470,"Delta":140802461},{"NoteNumber":55,"Velocity":34,"Duration":482470,"SoundDuration":482470,"Delta":140802461},{"NoteNumber":71,"Velocity":46,"Duration":61891,"SoundDuration":61891,"Delta":141284931},{"NoteNumber":55,"Velocity":28,"Duration":495895,"SoundDuration":495895,"Delta":141284931},{"NoteNumber":62,"Velocity":34,"Duration":495895,"SoundDuration":495895,"Delta":141284931},{"NoteNumber":72,"Velocity":41,"Duration":61872,"SoundDuration":61872,"Delta":141346822},{"NoteNumber":71,"Velocity":46,"Duration":61662,"SoundDuration":61662,"Delta":141408695},{"NoteNumber":72,"Velocity":41,"Duration":61550,"SoundDuration":61550,"Delta":141470357},{"NoteNumber":71,"Velocity":46,"Duration":82299,"SoundDuration":82299,"Delta":141531907},{"NoteNumber":72,"Velocity":43,"Duration":82944,"SoundDuration":82944,"Delta":141614207},{"NoteNumber":71,"Velocity":43,"Duration":83674,"SoundDuration":83674,"Delta":141697152},{"NoteNumber":72,"Velocity":50,"Duration":1017535,"SoundDuration":1017535,"Delta":141780826},{"NoteNumber":60,"Velocity":41,"Duration":497017,"SoundDuration":497017,"Delta":141780826},{"NoteNumber":55,"Velocity":38,"Duration":130129,"SoundDuration":130129,"Delta":142277844},{"NoteNumber":48,"Velocity":39,"Duration":538986,"SoundDuration":538986,"Delta":142798361},{"NoteNumber":72,"Velocity":50,"Duration":961384,"SoundDuration":961384,"Delta":143337348},{"NoteNumber":60,"Velocity":33,"Duration":2390212,"SoundDuration":2390212,"Delta":143337348},{"NoteNumber":67,"Velocity":34,"Duration":480692,"SoundDuration":480692,"Delta":143818040},{"NoteNumber":79,"Velocity":50,"Duration":156801,"SoundDuration":156801,"Delta":144298732},{"NoteNumber":70,"Velocity":34,"Duration":470058,"SoundDuration":470058,"Delta":144298732},{"NoteNumber":76,"Velocity":46,"Duration":156801,"SoundDuration":156801,"Delta":144455534},{"NoteNumber":72,"Velocity":45,"Duration":156455,"SoundDuration":156455,"Delta":144612335},{"NoteNumber":81,"Velocity":50,"Duration":157190,"SoundDuration":157190,"Delta":144768791},{"NoteNumber":69,"Velocity":46,"Duration":477702,"SoundDuration":477702,"Delta":144768791},{"NoteNumber":77,"Velocity":45,"Duration":159216,"SoundDuration":159216,"Delta":144925982},{"NoteNumber":72,"Velocity":45,"Duration":161295,"SoundDuration":161295,"Delta":145085198},{"NoteNumber":82,"Velocity":55,"Duration":158971,"SoundDuration":158971,"Delta":145246493},{"NoteNumber":64,"Velocity":41,"Duration":481067,"SoundDuration":481067,"Delta":145246493},{"NoteNumber":81,"Velocity":48,"Duration":159933,"SoundDuration":159933,"Delta":145405465},{"NoteNumber":79,"Velocity":48,"Duration":162163,"SoundDuration":162163,"Delta":145565398},{"NoteNumber":81,"Velocity":54,"Duration":478774,"SoundDuration":478774,"Delta":145727561},{"NoteNumber":65,"Velocity":47,"Duration":478774,"SoundDuration":478774,"Delta":145727561},{"NoteNumber":79,"Velocity":53,"Duration":160823,"SoundDuration":160823,"Delta":146206335},{"NoteNumber":58,"Velocity":46,"Duration":969940,"SoundDuration":969940,"Delta":146206335},{"NoteNumber":82,"Velocity":50,"Duration":160230,"SoundDuration":160230,"Delta":146367159},{"NoteNumber":81,"Velocity":47,"Duration":160230,"SoundDuration":160230,"Delta":146527389},{"NoteNumber":79,"Velocity":51,"Duration":168194,"SoundDuration":168194,"Delta":146687620},{"NoteNumber":86,"Velocity":55,"Duration":160230,"SoundDuration":160230,"Delta":146855814},{"NoteNumber":84,"Velocity":49,"Duration":160230,"SoundDuration":160230,"Delta":147016045},{"NoteNumber":82,"Velocity":54,"Duration":160230,"SoundDuration":160230,"Delta":147176276},{"NoteNumber":59,"Velocity":42,"Duration":493292,"SoundDuration":493292,"Delta":147176276},{"NoteNumber":81,"Velocity":50,"Duration":160230,"SoundDuration":160230,"Delta":147336506},{"NoteNumber":79,"Velocity":45,"Duration":172831,"SoundDuration":172831,"Delta":147496737},{"NoteNumber":77,"Velocity":50,"Duration":242287,"SoundDuration":242287,"Delta":147669568},{"NoteNumber":60,"Velocity":46,"Duration":492662,"SoundDuration":492662,"Delta":147669568},{"NoteNumber":76,"Velocity":43,"Duration":758850,"SoundDuration":758850,"Delta":147911855},{"NoteNumber":55,"Velocity":41,"Duration":127118,"SoundDuration":127118,"Delta":148162231},{"NoteNumber":48,"Velocity":35,"Duration":514446,"SoundDuration":514446,"Delta":148670706},{"NoteNumber":60,"Velocity":40,"Duration":489060,"SoundDuration":489060,"Delta":149185153},{"NoteNumber":72,"Velocity":45,"Duration":480717,"SoundDuration":480717,"Delta":149434730},{"NoteNumber":68,"Velocity":37,"Duration":478990,"SoundDuration":478990,"Delta":149674213},{"NoteNumber":80,"Velocity":53,"Duration":479866,"SoundDuration":479866,"Delta":149915448},{"NoteNumber":65,"Velocity":33,"Duration":486013,"SoundDuration":486013,"Delta":150153203},{"NoteNumber":72,"Velocity":48,"Duration":491182,"SoundDuration":491182,"Delta":150395314},{"NoteNumber":67,"Velocity":41,"Duration":487625,"SoundDuration":487625,"Delta":150639217},{"NoteNumber":70,"Velocity":40,"Duration":240345,"SoundDuration":240345,"Delta":150886497},{"NoteNumber":79,"Velocity":49,"Duration":241234,"SoundDuration":241234,"Delta":151126843},{"NoteNumber":64,"Velocity":33,"Duration":478990,"SoundDuration":478990,"Delta":151126843},{"NoteNumber":70,"Velocity":40,"Duration":480768,"SoundDuration":480768,"Delta":151368078},{"NoteNumber":65,"Velocity":33,"Duration":485124,"SoundDuration":485124,"Delta":151605833},{"NoteNumber":68,"Velocity":40,"Duration":484827,"SoundDuration":484827,"Delta":151848847},{"NoteNumber":58,"Velocity":42,"Duration":971718,"SoundDuration":971718,"Delta":152090958},{"NoteNumber":67,"Velocity":43,"Duration":240346,"SoundDuration":240346,"Delta":152333675},{"NoteNumber":73,"Velocity":50,"Duration":248309,"SoundDuration":248309,"Delta":152574021},{"NoteNumber":70,"Velocity":46,"Duration":240345,"SoundDuration":240345,"Delta":152822331},{"NoteNumber":67,"Velocity":47,"Duration":240346,"SoundDuration":240346,"Delta":153062677},{"NoteNumber":59,"Velocity":41,"Duration":493292,"SoundDuration":493292,"Delta":153062677},{"NoteNumber":65,"Velocity":43,"Duration":252946,"SoundDuration":252946,"Delta":153303023},{"NoteNumber":65,"Velocity":47,"Duration":249438,"SoundDuration":249438,"Delta":153555969},{"NoteNumber":60,"Velocity":43,"Duration":498877,"SoundDuration":498877,"Delta":153555969},{"NoteNumber":64,"Velocity":39,"Duration":757913,"SoundDuration":757913,"Delta":153805408},{"NoteNumber":55,"Velocity":34,"Duration":127118,"SoundDuration":127118,"Delta":154054847},{"NoteNumber":48,"Velocity":37,"Duration":524659,"SoundDuration":524659,"Delta":154563322},{"NoteNumber":77,"Velocity":65,"Duration":58676,"SoundDuration":58676,"Delta":155087981},{"NoteNumber":41,"Velocity":33,"Duration":475050,"SoundDuration":475050,"Delta":155087981},{"NoteNumber":53,"Velocity":39,"Duration":475050,"SoundDuration":475050,"Delta":155087981},{"NoteNumber":79,"Velocity":51,"Duration":58676,"SoundDuration":58676,"Delta":155146657},{"NoteNumber":77,"Velocity":56,"Duration":58676,"SoundDuration":58676,"Delta":155205333},{"NoteNumber":76,"Velocity":53,"Duration":58676,"SoundDuration":58676,"Delta":155264010},{"NoteNumber":77,"Velocity":64,"Duration":721037,"SoundDuration":721037,"Delta":155322686},{"NoteNumber":57,"Velocity":34,"Duration":480692,"SoundDuration":480692,"Delta":155563032},{"NoteNumber":45,"Velocity":28,"Duration":480692,"SoundDuration":480692,"Delta":155563032},{"NoteNumber":82,"Velocity":55,"Duration":156801,"SoundDuration":156801,"Delta":156043724},{"NoteNumber":60,"Velocity":34,"Duration":470404,"SoundDuration":470404,"Delta":156043724},{"NoteNumber":48,"Velocity":28,"Duration":470404,"SoundDuration":470404,"Delta":156043724},{"NoteNumber":79,"Velocity":46,"Duration":156801,"SoundDuration":156801,"Delta":156200525},{"NoteNumber":76,"Velocity":45,"Duration":156801,"SoundDuration":156801,"Delta":156357327},{"NoteNumber":77,"Velocity":50,"Duration":240345,"SoundDuration":240345,"Delta":156514128},{"NoteNumber":53,"Velocity":34,"Duration":480692,"SoundDuration":480692,"Delta":156514128},{"NoteNumber":65,"Velocity":41,"Duration":480692,"SoundDuration":480692,"Delta":156514128},{"NoteNumber":81,"Velocity":43,"Duration":240346,"SoundDuration":240346,"Delta":156754474},{"NoteNumber":72,"Velocity":50,"Duration":482470,"SoundDuration":482470,"Delta":156994820},{"NoteNumber":70,"Velocity":46,"Duration":62810,"SoundDuration":62810,"Delta":157477290},{"NoteNumber":67,"Velocity":34,"Duration":490954,"SoundDuration":490954,"Delta":157477290},{"NoteNumber":72,"Velocity":41,"Duration":61828,"SoundDuration":61828,"Delta":157540100},{"NoteNumber":70,"Velocity":46,"Duration":60858,"SoundDuration":60858,"Delta":157601929},{"NoteNumber":72,"Velocity":41,"Duration":60193,"SoundDuration":60193,"Delta":157662787},{"NoteNumber":70,"Velocity":46,"Duration":80907,"SoundDuration":80907,"Delta":157722981},{"NoteNumber":72,"Velocity":43,"Duration":81772,"SoundDuration":81772,"Delta":157803889},{"NoteNumber":70,"Velocity":43,"Duration":82583,"SoundDuration":82583,"Delta":157885661},{"NoteNumber":69,"Velocity":50,"Duration":241234,"SoundDuration":241234,"Delta":157968245},{"NoteNumber":65,"Velocity":41,"Duration":482470,"SoundDuration":482470,"Delta":157968245},{"NoteNumber":72,"Velocity":43,"Duration":241235,"SoundDuration":241235,"Delta":158209480},{"NoteNumber":77,"Velocity":50,"Duration":157368,"SoundDuration":157368,"Delta":158450715},{"NoteNumber":76,"Velocity":41,"Duration":157368,"SoundDuration":157368,"Delta":158608083},{"NoteNumber":74,"Velocity":41,"Duration":157368,"SoundDuration":157368,"Delta":158765452},{"NoteNumber":72,"Velocity":47,"Duration":157368,"SoundDuration":157368,"Delta":158922821},{"NoteNumber":70,"Velocity":40,"Duration":157368,"SoundDuration":157368,"Delta":159080189},{"NoteNumber":69,"Velocity":40,"Duration":157368,"SoundDuration":157368,"Delta":159237558},{"NoteNumber":67,"Velocity":50,"Duration":731707,"SoundDuration":731707,"Delta":159394927},{"NoteNumber":64,"Velocity":41,"Duration":487805,"SoundDuration":487805,"Delta":159394927},{"NoteNumber":60,"Velocity":34,"Duration":477437,"SoundDuration":477437,"Delta":159882732},{"NoteNumber":69,"Velocity":43,"Duration":116767,"SoundDuration":116767,"Delta":160126634},{"NoteNumber":70,"Velocity":38,"Duration":116767,"SoundDuration":116767,"Delta":160243402},{"NoteNumber":69,"Velocity":47,"Duration":502675,"SoundDuration":502675,"Delta":160360170},{"NoteNumber":65,"Velocity":41,"Duration":502675,"SoundDuration":502675,"Delta":160360170},{"NoteNumber":77,"Velocity":66,"Duration":59138,"SoundDuration":59138,"Delta":160862845},{"NoteNumber":41,"Velocity":33,"Duration":475942,"SoundDuration":475942,"Delta":160862845},{"NoteNumber":53,"Velocity":39,"Duration":475942,"SoundDuration":475942,"Delta":160862845},{"NoteNumber":79,"Velocity":51,"Duration":59138,"SoundDuration":59138,"Delta":160921984},{"NoteNumber":77,"Velocity":56,"Duration":59138,"SoundDuration":59138,"Delta":160981123},{"NoteNumber":76,"Velocity":54,"Duration":59138,"SoundDuration":59138,"Delta":161040262},{"NoteNumber":77,"Velocity":66,"Duration":718161,"SoundDuration":718161,"Delta":161099401},{"NoteNumber":45,"Velocity":28,"Duration":478774,"SoundDuration":478774,"Delta":161338788},{"NoteNumber":57,"Velocity":34,"Duration":478774,"SoundDuration":478774,"Delta":161338788},{"NoteNumber":82,"Velocity":55,"Duration":157368,"SoundDuration":157368,"Delta":161817562},{"NoteNumber":48,"Velocity":28,"Duration":472105,"SoundDuration":472105,"Delta":161817562},{"NoteNumber":60,"Velocity":34,"Duration":472105,"SoundDuration":472105,"Delta":161817562},{"NoteNumber":79,"Velocity":46,"Duration":157368,"SoundDuration":157368,"Delta":161974930},{"NoteNumber":76,"Velocity":45,"Duration":157368,"SoundDuration":157368,"Delta":162132299},{"NoteNumber":77,"Velocity":50,"Duration":241234,"SoundDuration":241234,"Delta":162289668},{"NoteNumber":53,"Velocity":34,"Duration":482470,"SoundDuration":482470,"Delta":162289668},{"NoteNumber":65,"Velocity":41,"Duration":482470,"SoundDuration":482470,"Delta":162289668},{"NoteNumber":81,"Velocity":43,"Duration":241235,"SoundDuration":241235,"Delta":162530903},{"NoteNumber":72,"Velocity":50,"Duration":497017,"SoundDuration":497017,"Delta":162772138},{"NoteNumber":74,"Velocity":50,"Duration":160230,"SoundDuration":160230,"Delta":163269156},{"NoteNumber":46,"Velocity":28,"Duration":492608,"SoundDuration":492608,"Delta":163269156},{"NoteNumber":58,"Velocity":34,"Duration":492608,"SoundDuration":492608,"Delta":163269156},{"NoteNumber":76,"Velocity":46,"Duration":160230,"SoundDuration":160230,"Delta":163429386},{"NoteNumber":77,"Velocity":46,"Duration":161387,"SoundDuration":161387,"Delta":163589617},{"NoteNumber":77,"Velocity":54,"Duration":159654,"SoundDuration":159654,"Delta":163761764},{"NoteNumber":57,"Velocity":41,"Duration":478964,"SoundDuration":478964,"Delta":163761764},{"NoteNumber":45,"Velocity":34,"Duration":478964,"SoundDuration":478964,"Delta":163761764},{"NoteNumber":76,"Velocity":48,"Duration":159655,"SoundDuration":159655,"Delta":163921419},{"NoteNumber":74,"Velocity":48,"Duration":159654,"SoundDuration":159654,"Delta":164081074},{"NoteNumber":72,"Velocity":51,"Duration":486027,"SoundDuration":486027,"Delta":164240729},{"NoteNumber":65,"Velocity":27,"Duration":486027,"SoundDuration":486027,"Delta":164240729},{"NoteNumber":53,"Velocity":22,"Duration":486027,"SoundDuration":486027,"Delta":164240729},{"NoteNumber":74,"Velocity":50,"Duration":159654,"SoundDuration":159654,"Delta":164726756},{"NoteNumber":58,"Velocity":35,"Duration":491456,"SoundDuration":491456,"Delta":164726756},{"NoteNumber":46,"Velocity":29,"Duration":491456,"SoundDuration":491456,"Delta":164726756},{"NoteNumber":76,"Velocity":47,"Duration":159655,"SoundDuration":159655,"Delta":164886411},{"NoteNumber":77,"Velocity":47,"Duration":161387,"SoundDuration":161387,"Delta":165046066},{"NoteNumber":77,"Velocity":53,"Duration":159071,"SoundDuration":159071,"Delta":165218212},{"NoteNumber":45,"Velocity":34,"Duration":504136,"SoundDuration":504136,"Delta":165218212},{"NoteNumber":57,"Velocity":41,"Duration":504136,"SoundDuration":504136,"Delta":165218212},{"NoteNumber":76,"Velocity":46,"Duration":159071,"SoundDuration":159071,"Delta":165377283},{"NoteNumber":74,"Velocity":43,"Duration":185994,"SoundDuration":185994,"Delta":165536354},{"NoteNumber":72,"Velocity":53,"Duration":157084,"SoundDuration":157084,"Delta":165722349},{"NoteNumber":53,"Velocity":23,"Duration":477983,"SoundDuration":477983,"Delta":165722349},{"NoteNumber":65,"Velocity":28,"Duration":477983,"SoundDuration":477983,"Delta":165722349},{"NoteNumber":77,"Velocity":47,"Duration":157084,"SoundDuration":157084,"Delta":165879434},{"NoteNumber":81,"Velocity":50,"Duration":163813,"SoundDuration":163813,"Delta":166036518},{"NoteNumber":72,"Velocity":56,"Duration":156470,"SoundDuration":156470,"Delta":166200332},{"NoteNumber":52,"Velocity":30,"Duration":485714,"SoundDuration":485714,"Delta":166200332},{"NoteNumber":64,"Velocity":36,"Duration":485714,"SoundDuration":485714,"Delta":166200332},{"NoteNumber":79,"Velocity":49,"Duration":156469,"SoundDuration":156469,"Delta":166356802},{"NoteNumber":82,"Velocity":53,"Duration":172774,"SoundDuration":172774,"Delta":166513272},{"NoteNumber":81,"Velocity":61,"Duration":157711,"SoundDuration":157711,"Delta":166686047},{"NoteNumber":53,"Velocity":28,"Duration":476894,"SoundDuration":476894,"Delta":166686047},{"NoteNumber":65,"Velocity":41,"Duration":476894,"SoundDuration":476894,"Delta":166686047},{"NoteNumber":82,"Velocity":46,"Duration":159591,"SoundDuration":159591,"Delta":166843758},{"NoteNumber":84,"Velocity":46,"Duration":159591,"SoundDuration":159591,"Delta":167003350},{"NoteNumber":77,"Velocity":50,"Duration":482470,"SoundDuration":482470,"Delta":167162941},{"NoteNumber":57,"Velocity":41,"Duration":482470,"SoundDuration":482470,"Delta":167162941},{"NoteNumber":48,"Velocity":34,"Duration":482470,"SoundDuration":482470,"Delta":167162941},{"NoteNumber":76,"Velocity":46,"Duration":61891,"SoundDuration":61891,"Delta":167645411},{"NoteNumber":48,"Velocity":28,"Duration":495895,"SoundDuration":495895,"Delta":167645411},{"NoteNumber":55,"Velocity":34,"Duration":495895,"SoundDuration":495895,"Delta":167645411},{"NoteNumber":77,"Velocity":41,"Duration":61872,"SoundDuration":61872,"Delta":167707302},{"NoteNumber":76,"Velocity":46,"Duration":61662,"SoundDuration":61662,"Delta":167769175},{"NoteNumber":77,"Velocity":41,"Duration":61550,"SoundDuration":61550,"Delta":167830837},{"NoteNumber":76,"Velocity":46,"Duration":82299,"SoundDuration":82299,"Delta":167892387},{"NoteNumber":77,"Velocity":43,"Duration":82944,"SoundDuration":82944,"Delta":167974687},{"NoteNumber":76,"Velocity":43,"Duration":83674,"SoundDuration":83674,"Delta":168057632},{"NoteNumber":77,"Velocity":55,"Duration":1089345,"SoundDuration":1089345,"Delta":168141306},{"NoteNumber":53,"Velocity":41,"Duration":511422,"SoundDuration":511422,"Delta":168141306},{"NoteNumber":48,"Velocity":38,"Duration":144480,"SoundDuration":144480,"Delta":168652728},{"NoteNumber":41,"Velocity":39,"Duration":589274,"SoundDuration":589274,"Delta":169230651}],"license":{"name":"Creative Commons Attribution-ShareAlike 3.0 Germany","url":"http://creativecommons.org/licenses/by-sa/3.0/de/deed.en","text":"The MIDI files in this folder were downloaded from http://www.piano-midi.de and are licensed under the Creative Commons Attribution-ShareAlike 3.0 Germany license by Bernd Krueger.\n\nThe MIDI, audio(MP3, OGG) and video files of Bernd Krueger are licensed under the cc-by-sa Germany License . This means, that you can use and adapt the files, as long as you attribute to the copyright holder Name: Bernd Krueger Source: http://www.piano-midi.de The distribution or public playback of the files is only allowed under identical license conditions . The scores are open source.","attribution":"Bernd Krueger","attributionUrl":"http://www.piano-midi.de"}}