{"title":"Piano Sonata in G major, Hob. XVI:40, II","artist":"Haydn","durationMs":179341,"midiSha256":"10ee4aa7152012bd8eecb727505ccd723745fcc3fc7487280b8d2ac4f0da4f1a","midiObject":[{"NoteNumber":67,"Velocity":60,"Duration":281250,"SoundDuration":281250,"Delta":0},{"NoteNumber":59,"Velocity":40,"Duration":187500,"SoundDuration":187500,"Delta":0},{"NoteNumber":55,"Velocity":34,"Duration":187500,"SoundDuration":187500,"Delta":0},{"NoteNumber":55,"Velocity":34,"Duration":187500,"SoundDuration":187500,"Delta":186719},{"NoteNumber":59,"Velocity":40,"Duration":187500,"SoundDuration":187500,"Delta":186719},{"NoteNumber":71,"Velocity":48,"Duration":46875,"SoundDuration":46875,"Delta":280469},{"NoteNumber":69,"Velocity":48,"Duration":46875,"SoundDuration":46875,"Delta":327344},{"NoteNumber":67,"Velocity":56,"Duration":187500,"SoundDuration":187500,"Delta":374219},{"NoteNumber":59,"Velocity":40,"Duration":187500,"SoundDuration":187500,"Delta":374219},{"NoteNumber":55,"Velocity":34,"Duration":187500,"SoundDuration":187500,"Delta":374219},{"NoteNumber":59,"Velocity":39,"Duration":187500,"SoundDuration":187500,"Delta":561719},{"NoteNumber":55,"Velocity":33,"Duration":187500,"SoundDuration":187500,"Delta":561719},{"NoteNumber":59,"Velocity":40,"Duration":187500,"SoundDuration":187500,"Delta":749219},{"NoteNumber":55,"Velocity":34,"Duration":187500,"SoundDuration":187500,"Delta":749219},{"NoteNumber":62,"Velocity":53,"Duration":187500,"SoundDuration":187500,"Delta":936719},{"NoteNumber":59,"Velocity":41,"Duration":187500,"SoundDuration":187500,"Delta":936719},{"NoteNumber":55,"Velocity":34,"Duration":187500,"SoundDuration":187500,"Delta":936719},{"NoteNumber":67,"Velocity":53,"Duration":187500,"SoundDuration":187500,"Delta":1124219},{"NoteNumber":59,"Velocity":41,"Duration":187500,"SoundDuration":187500,"Delta":1124219},{"NoteNumber":55,"Velocity":34,"Duration":187500,"SoundDuration":187500,"Delta":1124219},{"NoteNumber":71,"Velocity":53,"Duration":187500,"SoundDuration":187500,"Delta":1311719},{"NoteNumber":59,"Velocity":41,"Duration":187500,"SoundDuration":187500,"Delta":1311719},{"NoteNumber":55,"Velocity":34,"Duration":187500,"SoundDuration":187500,"Delta":1311719},{"NoteNumber":71,"Velocity":57,"Duration":92024,"SoundDuration":92024,"Delta":1499219},{"NoteNumber":60,"Velocity":44,"Duration":368098,"SoundDuration":368098,"Delta":1499219},{"NoteNumber":55,"Velocity":37,"Duration":368098,"SoundDuration":368098,"Delta":1499219},{"NoteNumber":69,"Velocity":54,"Duration":92024,"SoundDuration":92024,"Delta":1591243},{"NoteNumber":67,"Velocity":54,"Duration":92024,"SoundDuration":92024,"Delta":1683268},{"NoteNumber":69,"Velocity":54,"Duration":92024,"SoundDuration":92024,"Delta":1775292},{"NoteNumber":67,"Velocity":57,"Duration":184048,"SoundDuration":184048,"Delta":1867317},{"NoteNumber":55,"Velocity":34,"Duration":184048,"SoundDuration":184048,"Delta":1867317},{"NoteNumber":59,"Velocity":41,"Duration":184048,"SoundDuration":184048,"Delta":1867317},{"NoteNumber":74,"Velocity":54,"Duration":178571,"SoundDuration":178571,"Delta":2051365},{"NoteNumber":74,"Velocity":54,"Duration":89285,"SoundDuration":89285,"Delta":2229937},{"NoteNumber":65,"Velocity":41,"Duration":89285,"SoundDuration":89285,"Delta":2229937},{"NoteNumber":67,"Velocity":41,"Duration":89285,"SoundDuration":89285,"Delta":2229937},{"NoteNumber":74,"Velocity":54,"Duration":89285,"SoundDuration":89285,"Delta":2408509},{"NoteNumber":65,"Velocity":41,"Duration":89285,"SoundDuration":89285,"Delta":2408509},{"NoteNumber":67,"Velocity":41,"Duration":89285,"SoundDuration":89285,"Delta":2408509},{"NoteNumber":74,"Velocity":54,"Duration":89285,"SoundDuration":89285,"Delta":2587080},{"NoteNumber":67,"Velocity":41,"Duration":89285,"SoundDuration":89285,"Delta":2587080},{"NoteNumber":65,"Velocity":41,"Duration":89285,"SoundDuration":89285,"Delta":2587080},{"NoteNumber":74,"Velocity":54,"Duration":87209,"SoundDuration":87209,"Delta":2765651},{"NoteNumber":65,"Velocity":41,"Duration":87209,"SoundDuration":87209,"Delta":2765651},{"NoteNumber":67,"Velocity":41,"Duration":87209,"SoundDuration":87209,"Delta":2765651},{"NoteNumber":74,"Velocity":57,"Duration":268656,"SoundDuration":268656,"Delta":2940070},{"NoteNumber":67,"Velocity":46,"Duration":537313,"SoundDuration":537313,"Delta":2940070},{"NoteNumber":64,"Velocity":46,"Duration":537313,"SoundDuration":537313,"Delta":2940070},{"NoteNumber":76,"Velocity":47,"Duration":44776,"SoundDuration":44776,"Delta":3208727},{"NoteNumber":74,"Velocity":47,"Duration":44776,"SoundDuration":44776,"Delta":3253503},{"NoteNumber":72,"Velocity":52,"Duration":179104,"SoundDuration":179104,"Delta":3298279},{"NoteNumber":71,"Velocity":50,"Duration":179104,"SoundDuration":179104,"Delta":3477383},{"NoteNumber":65,"Velocity":41,"Duration":179104,"SoundDuration":179104,"Delta":3477383},{"NoteNumber":62,"Velocity":41,"Duration":179104,"SoundDuration":179104,"Delta":3477383},{"NoteNumber":69,"Velocity":52,"Duration":184615,"SoundDuration":184615,"Delta":3656488},{"NoteNumber":64,"Velocity":49,"Duration":365338,"SoundDuration":365338,"Delta":3656488},{"NoteNumber":60,"Velocity":49,"Duration":365338,"SoundDuration":365338,"Delta":3656488},{"NoteNumber":81,"Velocity":68,"Duration":361445,"SoundDuration":361445,"Delta":3841103},{"NoteNumber":61,"Velocity":50,"Duration":361445,"SoundDuration":361445,"Delta":4021827},{"NoteNumber":64,"Velocity":50,"Duration":361445,"SoundDuration":361445,"Delta":4021827},{"NoteNumber":79,"Velocity":65,"Duration":180723,"SoundDuration":180723,"Delta":4202549},{"NoteNumber":79,"Velocity":63,"Duration":89552,"SoundDuration":89552,"Delta":4383273},{"NoteNumber":62,"Velocity":46,"Duration":358209,"SoundDuration":358209,"Delta":4383273},{"NoteNumber":78,"Velocity":54,"Duration":89552,"SoundDuration":89552,"Delta":4472825},{"NoteNumber":76,"Velocity":54,"Duration":89552,"SoundDuration":89552,"Delta":4562377},{"NoteNumber":74,"Velocity":54,"Duration":89552,"SoundDuration":89552,"Delta":4651929},{"NoteNumber":74,"Velocity":54,"Duration":183486,"SoundDuration":183486,"Delta":4741482},{"NoteNumber":74,"Velocity":56,"Duration":179104,"SoundDuration":179104,"Delta":4924968},{"NoteNumber":74,"Velocity":54,"Duration":89552,"SoundDuration":89552,"Delta":5104072},{"NoteNumber":76,"Velocity":52,"Duration":89552,"SoundDuration":89552,"Delta":5193624},{"NoteNumber":72,"Velocity":54,"Duration":89552,"SoundDuration":89552,"Delta":5283177},{"NoteNumber":74,"Velocity":52,"Duration":89552,"SoundDuration":89552,"Delta":5372729},{"NoteNumber":71,"Velocity":54,"Duration":89552,"SoundDuration":89552,"Delta":5462281},{"NoteNumber":72,"Velocity":51,"Duration":89552,"SoundDuration":89552,"Delta":5551833},{"NoteNumber":69,"Velocity":54,"Duration":89552,"SoundDuration":89552,"Delta":5641386},{"NoteNumber":71,"Velocity":52,"Duration":89552,"SoundDuration":89552,"Delta":5730938},{"NoteNumber":67,"Velocity":60,"Duration":281250,"SoundDuration":281250,"Delta":5821271},{"NoteNumber":55,"Velocity":34,"Duration":187500,"SoundDuration":187500,"Delta":5821271},{"NoteNumber":59,"Velocity":40,"Duration":187500,"SoundDuration":187500,"Delta":5821271},{"NoteNumber":59,"Velocity":40,"Duration":187500,"SoundDuration":187500,"Delta":6007990},{"NoteNumber":55,"Velocity":34,"Duration":187500,"SoundDuration":187500,"Delta":6007990},{"NoteNumber":71,"Velocity":46,"Duration":46875,"SoundDuration":46875,"Delta":6101740},{"NoteNumber":69,"Velocity":47,"Duration":46875,"SoundDuration":46875,"Delta":6148615},{"NoteNumber":67,"Velocity":56,"Duration":187500,"SoundDuration":187500,"Delta":6195490},{"NoteNumber":55,"Velocity":34,"Duration":187500,"SoundDuration":187500,"Delta":6195490},{"NoteNumber":59,"Velocity":40,"Duration":187500,"SoundDuration":187500,"Delta":6195490},{"NoteNumber":55,"Velocity":33,"Duration":187500,"SoundDuration":187500,"Delta":6382990},{"NoteNumber":59,"Velocity":39,"Duration":187500,"SoundDuration":187500,"Delta":6382990},{"NoteNumber":55,"Velocity":34,"Duration":187500,"SoundDuration":187500,"Delta":6570490},{"NoteNumber":59,"Velocity":40,"Duration":187500,"SoundDuration":187500,"Delta":6570490},{"NoteNumber":62,"Velocity":53,"Duration":184048,"SoundDuration":184048,"Delta":6757990},{"NoteNumber":59,"Velocity":41,"Duration":184048,"SoundDuration":184048,"Delta":6757990},{"NoteNumber":55,"Velocity":34,"Duration":184048,"SoundDuration":184048,"Delta":6757990},{"NoteNumber":67,"Velocity":53,"Duration":184048,"SoundDuration":184048,"Delta":6942039},{"NoteNumber":55,"Velocity":34,"Duration":184048,"SoundDuration":184048,"Delta":6942039},{"NoteNumber":59,"Velocity":41,"Duration":184048,"SoundDuration":184048,"Delta":6942039},{"NoteNumber":71,"Velocity":53,"Duration":184048,"SoundDuration":184048,"Delta":7126088},{"NoteNumber":55,"Velocity":34,"Duration":184048,"SoundDuration":184048,"Delta":7126088},{"NoteNumber":59,"Velocity":41,"Duration":184048,"SoundDuration":184048,"Delta":7126088},{"NoteNumber":71,"Velocity":57,"Duration":92024,"SoundDuration":92024,"Delta":7310137},{"NoteNumber":60,"Velocity":44,"Duration":368097,"SoundDuration":368097,"Delta":7310137},{"NoteNumber":55,"Velocity":44,"Duration":368097,"SoundDuration":368097,"Delta":7310137},{"NoteNumber":69,"Velocity":54,"Duration":92024,"SoundDuration":92024,"Delta":7402162},{"NoteNumber":67,"Velocity":54,"Duration":92024,"SoundDuration":92024,"Delta":7494186},{"NoteNumber":69,"Velocity":54,"Duration":92024,"SoundDuration":92024,"Delta":7586211},{"NoteNumber":67,"Velocity":57,"Duration":184048,"SoundDuration":184048,"Delta":7678235},{"NoteNumber":59,"Velocity":41,"Duration":184048,"SoundDuration":184048,"Delta":7678235},{"NoteNumber":55,"Velocity":41,"Duration":184048,"SoundDuration":184048,"Delta":7678235},{"NoteNumber":76,"Velocity":54,"Duration":178571,"SoundDuration":178571,"Delta":7862284},{"NoteNumber":76,"Velocity":54,"Duration":89285,"SoundDuration":89285,"Delta":8040856},{"NoteNumber":71,"Velocity":41,"Duration":89285,"SoundDuration":89285,"Delta":8040856},{"NoteNumber":67,"Velocity":41,"Duration":89285,"SoundDuration":89285,"Delta":8040856},{"NoteNumber":76,"Velocity":54,"Duration":89285,"SoundDuration":89285,"Delta":8219427},{"NoteNumber":71,"Velocity":41,"Duration":89285,"SoundDuration":89285,"Delta":8219427},{"NoteNumber":67,"Velocity":41,"Duration":89285,"SoundDuration":89285,"Delta":8219427},{"NoteNumber":76,"Velocity":54,"Duration":89285,"SoundDuration":89285,"Delta":8397999},{"NoteNumber":71,"Velocity":41,"Duration":89285,"SoundDuration":89285,"Delta":8397999},{"NoteNumber":67,"Velocity":41,"Duration":89285,"SoundDuration":89285,"Delta":8397999},{"NoteNumber":76,"Velocity":54,"Duration":87209,"SoundDuration":87209,"Delta":8576570},{"NoteNumber":67,"Velocity":41,"Duration":87209,"SoundDuration":87209,"Delta":8576570},{"NoteNumber":71,"Velocity":41,"Duration":87209,"SoundDuration":87209,"Delta":8576570},{"NoteNumber":76,"Velocity":57,"Duration":267857,"SoundDuration":267857,"Delta":8750989},{"NoteNumber":67,"Velocity":39,"Duration":178571,"SoundDuration":178571,"Delta":8750989},{"NoteNumber":71,"Velocity":46,"Duration":178571,"SoundDuration":178571,"Delta":8750989},{"NoteNumber":67,"Velocity":39,"Duration":178571,"SoundDuration":178571,"Delta":8929560},{"NoteNumber":71,"Velocity":46,"Duration":178571,"SoundDuration":178571,"Delta":8929560},{"NoteNumber":79,"Velocity":50,"Duration":44642,"SoundDuration":44642,"Delta":9018846},{"NoteNumber":81,"Velocity":52,"Duration":44642,"SoundDuration":44642,"Delta":9063489},{"NoteNumber":83,"Velocity":60,"Duration":267857,"SoundDuration":267857,"Delta":9108132},{"NoteNumber":71,"Velocity":46,"Duration":178571,"SoundDuration":178571,"Delta":9108132},{"NoteNumber":67,"Velocity":39,"Duration":178571,"SoundDuration":178571,"Delta":9108132},{"NoteNumber":71,"Velocity":46,"Duration":176494,"SoundDuration":176494,"Delta":9286703},{"NoteNumber":67,"Velocity":39,"Duration":176494,"SoundDuration":176494,"Delta":9286703},{"NoteNumber":79,"Velocity":49,"Duration":43604,"SoundDuration":43604,"Delta":9375989},{"NoteNumber":76,"Velocity":49,"Duration":43604,"SoundDuration":43604,"Delta":9419593},{"NoteNumber":74,"Velocity":60,"Duration":363635,"SoundDuration":363635,"Delta":9463198},{"NoteNumber":57,"Velocity":39,"Duration":181817,"SoundDuration":181817,"Delta":9463198},{"NoteNumber":66,"Velocity":46,"Duration":181817,"SoundDuration":181817,"Delta":9463198},{"NoteNumber":57,"Velocity":39,"Duration":181817,"SoundDuration":181817,"Delta":9645016},{"NoteNumber":66,"Velocity":46,"Duration":181817,"SoundDuration":181817,"Delta":9645016},{"NoteNumber":73,"Velocity":52,"Duration":59701,"SoundDuration":59701,"Delta":9826834},{"NoteNumber":57,"Velocity":39,"Duration":179104,"SoundDuration":179104,"Delta":9826834},{"NoteNumber":64,"Velocity":46,"Duration":179104,"SoundDuration":179104,"Delta":9826834},{"NoteNumber":74,"Velocity":43,"Duration":59701,"SoundDuration":59701,"Delta":9886536},{"NoteNumber":73,"Velocity":48,"Duration":59701,"SoundDuration":59701,"Delta":9946237},{"NoteNumber":74,"Velocity":43,"Duration":44776,"SoundDuration":44776,"Delta":10005939},{"NoteNumber":64,"Velocity":46,"Duration":179104,"SoundDuration":179104,"Delta":10005939},{"NoteNumber":57,"Velocity":39,"Duration":179104,"SoundDuration":179104,"Delta":10005939},{"NoteNumber":73,"Velocity":48,"Duration":44776,"SoundDuration":44776,"Delta":10050715},{"NoteNumber":74,"Velocity":42,"Duration":44776,"SoundDuration":44776,"Delta":10095491},{"NoteNumber":73,"Velocity":47,"Duration":44776,"SoundDuration":44776,"Delta":10140267},{"NoteNumber":74,"Velocity":52,"Duration":89552,"SoundDuration":89552,"Delta":10185043},{"NoteNumber":62,"Velocity":37,"Duration":179104,"SoundDuration":179104,"Delta":10185043},{"NoteNumber":66,"Velocity":44,"Duration":179104,"SoundDuration":179104,"Delta":10185043},{"NoteNumber":76,"Velocity":49,"Duration":89552,"SoundDuration":89552,"Delta":10274595},{"NoteNumber":78,"Velocity":50,"Duration":89552,"SoundDuration":89552,"Delta":10364148},{"NoteNumber":62,"Velocity":32,"Duration":179104,"SoundDuration":179104,"Delta":10364148},{"NoteNumber":66,"Velocity":38,"Duration":179104,"SoundDuration":179104,"Delta":10364148},{"NoteNumber":79,"Velocity":51,"Duration":89552,"SoundDuration":89552,"Delta":10453700},{"NoteNumber":81,"Velocity":51,"Duration":89552,"SoundDuration":89552,"Delta":10543252},{"NoteNumber":66,"Velocity":38,"Duration":179104,"SoundDuration":179104,"Delta":10543252},{"NoteNumber":62,"Velocity":32,"Duration":179104,"SoundDuration":179104,"Delta":10543252},{"NoteNumber":78,"Velocity":51,"Duration":89552,"SoundDuration":89552,"Delta":10632804},{"NoteNumber":76,"Velocity":50,"Duration":89552,"SoundDuration":89552,"Delta":10722357},{"NoteNumber":62,"Velocity":32,"Duration":179104,"SoundDuration":179104,"Delta":10722357},{"NoteNumber":66,"Velocity":38,"Duration":179104,"SoundDuration":179104,"Delta":10722357},{"NoteNumber":74,"Velocity":50,"Duration":89552,"SoundDuration":89552,"Delta":10811909},{"NoteNumber":73,"Velocity":53,"Duration":89552,"SoundDuration":89552,"Delta":10901461},{"NoteNumber":62,"Velocity":36,"Duration":179104,"SoundDuration":179104,"Delta":10901461},{"NoteNumber":67,"Velocity":43,"Duration":179104,"SoundDuration":179104,"Delta":10901461},{"NoteNumber":74,"Velocity":48,"Duration":89552,"SoundDuration":89552,"Delta":10991013},{"NoteNumber":76,"Velocity":49,"Duration":89552,"SoundDuration":89552,"Delta":11080566},{"NoteNumber":62,"Velocity":32,"Duration":179104,"SoundDuration":179104,"Delta":11080566},{"NoteNumber":67,"Velocity":38,"Duration":179104,"SoundDuration":179104,"Delta":11080566},{"NoteNumber":78,"Velocity":49,"Duration":89552,"SoundDuration":89552,"Delta":11170118},{"NoteNumber":79,"Velocity":49,"Duration":89552,"SoundDuration":89552,"Delta":11259670},{"NoteNumber":62,"Velocity":32,"Duration":179104,"SoundDuration":179104,"Delta":11259670},{"NoteNumber":67,"Velocity":38,"Duration":179104,"SoundDuration":179104,"Delta":11259670},{"NoteNumber":76,"Velocity":49,"Duration":89552,"SoundDuration":89552,"Delta":11349222},{"NoteNumber":74,"Velocity":48,"Duration":89552,"SoundDuration":89552,"Delta":11438775},{"NoteNumber":67,"Velocity":38,"Duration":179104,"SoundDuration":179104,"Delta":11438775},{"NoteNumber":62,"Velocity":32,"Duration":179104,"SoundDuration":179104,"Delta":11438775},{"NoteNumber":73,"Velocity":48,"Duration":89552,"SoundDuration":89552,"Delta":11528327},{"NoteNumber":74,"Velocity":52,"Duration":89552,"SoundDuration":89552,"Delta":11617879},{"NoteNumber":66,"Velocity":44,"Duration":179104,"SoundDuration":179104,"Delta":11617879},{"NoteNumber":62,"Velocity":37,"Duration":179104,"SoundDuration":179104,"Delta":11617879},{"NoteNumber":76,"Velocity":47,"Duration":89552,"SoundDuration":89552,"Delta":11707431},{"NoteNumber":78,"Velocity":48,"Duration":89552,"SoundDuration":89552,"Delta":11796984},{"NoteNumber":66,"Velocity":38,"Duration":179104,"SoundDuration":179104,"Delta":11796984},{"NoteNumber":62,"Velocity":32,"Duration":179104,"SoundDuration":179104,"Delta":11796984},{"NoteNumber":79,"Velocity":49,"Duration":89552,"SoundDuration":89552,"Delta":11886536},{"NoteNumber":81,"Velocity":50,"Duration":89552,"SoundDuration":89552,"Delta":11976088},{"NoteNumber":66,"Velocity":38,"Duration":179104,"SoundDuration":179104,"Delta":11976088},{"NoteNumber":62,"Velocity":32,"Duration":179104,"SoundDuration":179104,"Delta":11976088},{"NoteNumber":78,"Velocity":49,"Duration":89552,"SoundDuration":89552,"Delta":12065640},{"NoteNumber":76,"Velocity":48,"Duration":89552,"SoundDuration":89552,"Delta":12155193},{"NoteNumber":66,"Velocity":38,"Duration":179104,"SoundDuration":179104,"Delta":12155193},{"NoteNumber":62,"Velocity":32,"Duration":179104,"SoundDuration":179104,"Delta":12155193},{"NoteNumber":74,"Velocity":47,"Duration":89552,"SoundDuration":89552,"Delta":12244745},{"NoteNumber":73,"Velocity":53,"Duration":89552,"SoundDuration":89552,"Delta":12334297},{"NoteNumber":67,"Velocity":44,"Duration":179104,"SoundDuration":179104,"Delta":12334297},{"NoteNumber":62,"Velocity":37,"Duration":179104,"SoundDuration":179104,"Delta":12334297},{"NoteNumber":74,"Velocity":47,"Duration":89552,"SoundDuration":89552,"Delta":12423849},{"NoteNumber":76,"Velocity":47,"Duration":89552,"SoundDuration":89552,"Delta":12513402},{"NoteNumber":67,"Velocity":38,"Duration":179104,"SoundDuration":179104,"Delta":12513402},{"NoteNumber":62,"Velocity":32,"Duration":179104,"SoundDuration":179104,"Delta":12513402},{"NoteNumber":78,"Velocity":48,"Duration":89552,"SoundDuration":89552,"Delta":12602954},{"NoteNumber":79,"Velocity":49,"Duration":89552,"SoundDuration":89552,"Delta":12692506},{"NoteNumber":67,"Velocity":38,"Duration":179104,"SoundDuration":179104,"Delta":12692506},{"NoteNumber":62,"Velocity":32,"Duration":179104,"SoundDuration":179104,"Delta":12692506},{"NoteNumber":76,"Velocity":49,"Duration":89552,"SoundDuration":89552,"Delta":12782058},{"NoteNumber":74,"Velocity":48,"Duration":89552,"SoundDuration":89552,"Delta":12871611},{"NoteNumber":67,"Velocity":38,"Duration":179104,"SoundDuration":179104,"Delta":12871611},{"NoteNumber":62,"Velocity":32,"Duration":179104,"SoundDuration":179104,"Delta":12871611},{"NoteNumber":73,"Velocity":48,"Duration":89552,"SoundDuration":89552,"Delta":12961163},{"NoteNumber":74,"Velocity":58,"Duration":334395,"SoundDuration":334395,"Delta":13050715},{"NoteNumber":66,"Velocity":45,"Duration":382165,"SoundDuration":382165,"Delta":13050715},{"NoteNumber":62,"Velocity":38,"Duration":382165,"SoundDuration":382165,"Delta":13050715},{"NoteNumber":85,"Velocity":77,"Duration":47770,"SoundDuration":47770,"Delta":13385110},{"NoteNumber":86,"Velocity":87,"Duration":382165,"SoundDuration":382165,"Delta":13432881},{"NoteNumber":38,"Velocity":69,"Duration":382165,"SoundDuration":382165,"Delta":13815047},{"NoteNumber":50,"Velocity":69,"Duration":382165,"SoundDuration":382165,"Delta":13815047},{"NoteNumber":67,"Velocity":60,"Duration":281250,"SoundDuration":281250,"Delta":14580160},{"NoteNumber":55,"Velocity":34,"Duration":187500,"SoundDuration":187500,"Delta":14580160},{"NoteNumber":59,"Velocity":40,"Duration":187500,"SoundDuration":187500,"Delta":14580160},{"NoteNumber":55,"Velocity":34,"Duration":187500,"SoundDuration":187500,"Delta":14766879},{"NoteNumber":59,"Velocity":40,"Duration":187500,"SoundDuration":187500,"Delta":14766879},{"NoteNumber":71,"Velocity":48,"Duration":46875,"SoundDuration":46875,"Delta":14860629},{"NoteNumber":69,"Velocity":48,"Duration":46875,"SoundDuration":46875,"Delta":14907504},{"NoteNumber":67,"Velocity":56,"Duration":187500,"SoundDuration":187500,"Delta":14954379},{"NoteNumber":55,"Velocity":34,"Duration":187500,"SoundDuration":187500,"Delta":14954379},{"NoteNumber":59,"Velocity":40,"Duration":187500,"SoundDuration":187500,"Delta":14954379},{"NoteNumber":55,"Velocity":33,"Duration":187500,"SoundDuration":187500,"Delta":15141879},{"NoteNumber":59,"Velocity":39,"Duration":187500,"SoundDuration":187500,"Delta":15141879},{"NoteNumber":55,"Velocity":34,"Duration":187500,"SoundDuration":187500,"Delta":15329379},{"NoteNumber":59,"Velocity":40,"Duration":187500,"SoundDuration":187500,"Delta":15329379},{"NoteNumber":62,"Velocity":53,"Duration":187500,"SoundDuration":187500,"Delta":15516879},{"NoteNumber":55,"Velocity":34,"Duration":187500,"SoundDuration":187500,"Delta":15516879},{"NoteNumber":59,"Velocity":41,"Duration":187500,"SoundDuration":187500,"Delta":15516879},{"NoteNumber":67,"Velocity":53,"Duration":187500,"SoundDuration":187500,"Delta":15704379},{"NoteNumber":55,"Velocity":34,"Duration":187500,"SoundDuration":187500,"Delta":15704379},{"NoteNumber":59,"Velocity":41,"Duration":187500,"SoundDuration":187500,"Delta":15704379},{"NoteNumber":71,"Velocity":53,"Duration":187500,"SoundDuration":187500,"Delta":15891879},{"NoteNumber":55,"Velocity":34,"Duration":187500,"SoundDuration":187500,"Delta":15891879},{"NoteNumber":59,"Velocity":41,"Duration":187500,"SoundDuration":187500,"Delta":15891879},{"NoteNumber":71,"Velocity":57,"Duration":92024,"SoundDuration":92024,"Delta":16079379},{"NoteNumber":55,"Velocity":37,"Duration":368097,"SoundDuration":368097,"Delta":16079379},{"NoteNumber":60,"Velocity":44,"Duration":368097,"SoundDuration":368097,"Delta":16079379},{"NoteNumber":69,"Velocity":54,"Duration":92024,"SoundDuration":92024,"Delta":16171404},{"NoteNumber":67,"Velocity":54,"Duration":92024,"SoundDuration":92024,"Delta":16263428},{"NoteNumber":69,"Velocity":54,"Duration":92024,"SoundDuration":92024,"Delta":16355453},{"NoteNumber":67,"Velocity":57,"Duration":184049,"SoundDuration":184049,"Delta":16447477},{"NoteNumber":55,"Velocity":34,"Duration":184049,"SoundDuration":184049,"Delta":16447477},{"NoteNumber":59,"Velocity":41,"Duration":184049,"SoundDuration":184049,"Delta":16447477},{"NoteNumber":74,"Velocity":54,"Duration":178571,"SoundDuration":178571,"Delta":16631526},{"NoteNumber":74,"Velocity":54,"Duration":89285,"SoundDuration":89285,"Delta":16810098},{"NoteNumber":65,"Velocity":41,"Duration":89285,"SoundDuration":89285,"Delta":16810098},{"NoteNumber":67,"Velocity":41,"Duration":89285,"SoundDuration":89285,"Delta":16810098},{"NoteNumber":74,"Velocity":54,"Duration":89285,"SoundDuration":89285,"Delta":16988669},{"NoteNumber":65,"Velocity":41,"Duration":89285,"SoundDuration":89285,"Delta":16988669},{"NoteNumber":67,"Velocity":41,"Duration":89285,"SoundDuration":89285,"Delta":16988669},{"NoteNumber":74,"Velocity":54,"Duration":89285,"SoundDuration":89285,"Delta":17167241},{"NoteNumber":65,"Velocity":41,"Duration":89285,"SoundDuration":89285,"Delta":17167241},{"NoteNumber":67,"Velocity":41,"Duration":89285,"SoundDuration":89285,"Delta":17167241},{"NoteNumber":74,"Velocity":54,"Duration":87209,"SoundDuration":87209,"Delta":17345812},{"NoteNumber":67,"Velocity":41,"Duration":87209,"SoundDuration":87209,"Delta":17345812},{"NoteNumber":65,"Velocity":41,"Duration":87209,"SoundDuration":87209,"Delta":17345812},{"NoteNumber":74,"Velocity":57,"Duration":268656,"SoundDuration":268656,"Delta":17520231},{"NoteNumber":64,"Velocity":46,"Duration":537313,"SoundDuration":537313,"Delta":17520231},{"NoteNumber":67,"Velocity":46,"Duration":537313,"SoundDuration":537313,"Delta":17520231},{"NoteNumber":76,"Velocity":47,"Duration":44776,"SoundDuration":44776,"Delta":17788887},{"NoteNumber":74,"Velocity":47,"Duration":44776,"SoundDuration":44776,"Delta":17833663},{"NoteNumber":72,"Velocity":52,"Duration":179104,"SoundDuration":179104,"Delta":17878440},{"NoteNumber":71,"Velocity":50,"Duration":179104,"SoundDuration":179104,"Delta":18057544},{"NoteNumber":62,"Velocity":41,"Duration":179104,"SoundDuration":179104,"Delta":18057544},{"NoteNumber":65,"Velocity":41,"Duration":179104,"SoundDuration":179104,"Delta":18057544},{"NoteNumber":69,"Velocity":52,"Duration":184615,"SoundDuration":184615,"Delta":18236649},{"NoteNumber":60,"Velocity":49,"Duration":365338,"SoundDuration":365338,"Delta":18236649},{"NoteNumber":64,"Velocity":49,"Duration":365338,"SoundDuration":365338,"Delta":18236649},{"NoteNumber":81,"Velocity":68,"Duration":361446,"SoundDuration":361446,"Delta":18421264},{"NoteNumber":61,"Velocity":50,"Duration":361446,"SoundDuration":361446,"Delta":18601987},{"NoteNumber":64,"Velocity":50,"Duration":361446,"SoundDuration":361446,"Delta":18601987},{"NoteNumber":79,"Velocity":65,"Duration":180723,"SoundDuration":180723,"Delta":18782710},{"NoteNumber":79,"Velocity":63,"Duration":89552,"SoundDuration":89552,"Delta":18963433},{"NoteNumber":62,"Velocity":46,"Duration":358208,"SoundDuration":358208,"Delta":18963433},{"NoteNumber":78,"Velocity":54,"Duration":89552,"SoundDuration":89552,"Delta":19052985},{"NoteNumber":76,"Velocity":54,"Duration":89552,"SoundDuration":89552,"Delta":19142538},{"NoteNumber":74,"Velocity":54,"Duration":89552,"SoundDuration":89552,"Delta":19232090},{"NoteNumber":74,"Velocity":54,"Duration":183485,"SoundDuration":183485,"Delta":19321642},{"NoteNumber":74,"Velocity":56,"Duration":179104,"SoundDuration":179104,"Delta":19505128},{"NoteNumber":74,"Velocity":54,"Duration":89552,"SoundDuration":89552,"Delta":19684233},{"NoteNumber":76,"Velocity":52,"Duration":89552,"SoundDuration":89552,"Delta":19773785},{"NoteNumber":72,"Velocity":54,"Duration":89552,"SoundDuration":89552,"Delta":19863337},{"NoteNumber":74,"Velocity":52,"Duration":89552,"SoundDuration":89552,"Delta":19952889},{"NoteNumber":71,"Velocity":54,"Duration":89552,"SoundDuration":89552,"Delta":20042442},{"NoteNumber":72,"Velocity":51,"Duration":89552,"SoundDuration":89552,"Delta":20131994},{"NoteNumber":69,"Velocity":54,"Duration":89552,"SoundDuration":89552,"Delta":20221546},{"NoteNumber":71,"Velocity":52,"Duration":89552,"SoundDuration":89552,"Delta":20311098},{"NoteNumber":67,"Velocity":60,"Duration":281250,"SoundDuration":281250,"Delta":20401432},{"NoteNumber":55,"Velocity":34,"Duration":187500,"SoundDuration":187500,"Delta":20401432},{"NoteNumber":59,"Velocity":40,"Duration":187500,"SoundDuration":187500,"Delta":20401432},{"NoteNumber":55,"Velocity":34,"Duration":187500,"SoundDuration":187500,"Delta":20588151},{"NoteNumber":59,"Velocity":40,"Duration":187500,"SoundDuration":187500,"Delta":20588151},{"NoteNumber":71,"Velocity":46,"Duration":46875,"SoundDuration":46875,"Delta":20681901},{"NoteNumber":69,"Velocity":47,"Duration":46875,"SoundDuration":46875,"Delta":20728776},{"NoteNumber":67,"Velocity":56,"Duration":187500,"SoundDuration":187500,"Delta":20775651},{"NoteNumber":55,"Velocity":34,"Duration":187500,"SoundDuration":187500,"Delta":20775651},{"NoteNumber":59,"Velocity":40,"Duration":187500,"SoundDuration":187500,"Delta":20775651},{"NoteNumber":55,"Velocity":33,"Duration":187500,"SoundDuration":187500,"Delta":20963151},{"NoteNumber":59,"Velocity":39,"Duration":187500,"SoundDuration":187500,"Delta":20963151},{"NoteNumber":55,"Velocity":34,"Duration":187500,"SoundDuration":187500,"Delta":21150651},{"NoteNumber":59,"Velocity":40,"Duration":187500,"SoundDuration":187500,"Delta":21150651},{"NoteNumber":62,"Velocity":53,"Duration":184049,"SoundDuration":184049,"Delta":21338151},{"NoteNumber":55,"Velocity":34,"Duration":184049,"SoundDuration":184049,"Delta":21338151},{"NoteNumber":59,"Velocity":41,"Duration":184049,"SoundDuration":184049,"Delta":21338151},{"NoteNumber":67,"Velocity":53,"Duration":184048,"SoundDuration":184048,"Delta":21522200},{"NoteNumber":55,"Velocity":34,"Duration":184048,"SoundDuration":184048,"Delta":21522200},{"NoteNumber":59,"Velocity":41,"Duration":184048,"SoundDuration":184048,"Delta":21522200},{"NoteNumber":71,"Velocity":53,"Duration":184049,"SoundDuration":184049,"Delta":21706249},{"NoteNumber":55,"Velocity":34,"Duration":184049,"SoundDuration":184049,"Delta":21706249},{"NoteNumber":59,"Velocity":41,"Duration":184049,"SoundDuration":184049,"Delta":21706249},{"NoteNumber":71,"Velocity":57,"Duration":92024,"SoundDuration":92024,"Delta":21890298},{"NoteNumber":55,"Velocity":37,"Duration":368097,"SoundDuration":368097,"Delta":21890298},{"NoteNumber":60,"Velocity":44,"Duration":368097,"SoundDuration":368097,"Delta":21890298},{"NoteNumber":69,"Velocity":54,"Duration":92024,"SoundDuration":92024,"Delta":21982322},{"NoteNumber":67,"Velocity":54,"Duration":92024,"SoundDuration":92024,"Delta":22074347},{"NoteNumber":69,"Velocity":54,"Duration":92024,"SoundDuration":92024,"Delta":22166371},{"NoteNumber":67,"Velocity":57,"Duration":184049,"SoundDuration":184049,"Delta":22258396},{"NoteNumber":55,"Velocity":34,"Duration":184049,"SoundDuration":184049,"Delta":22258396},{"NoteNumber":59,"Velocity":41,"Duration":184049,"SoundDuration":184049,"Delta":22258396},{"NoteNumber":76,"Velocity":54,"Duration":178571,"SoundDuration":178571,"Delta":22442445},{"NoteNumber":76,"Velocity":54,"Duration":89285,"SoundDuration":89285,"Delta":22621016},{"NoteNumber":71,"Velocity":41,"Duration":89285,"SoundDuration":89285,"Delta":22621016},{"NoteNumber":67,"Velocity":41,"Duration":89285,"SoundDuration":89285,"Delta":22621016},{"NoteNumber":76,"Velocity":54,"Duration":89285,"SoundDuration":89285,"Delta":22799588},{"NoteNumber":71,"Velocity":41,"Duration":89285,"SoundDuration":89285,"Delta":22799588},{"NoteNumber":67,"Velocity":41,"Duration":89285,"SoundDuration":89285,"Delta":22799588},{"NoteNumber":76,"Velocity":54,"Duration":89285,"SoundDuration":89285,"Delta":22978159},{"NoteNumber":71,"Velocity":41,"Duration":89285,"SoundDuration":89285,"Delta":22978159},{"NoteNumber":67,"Velocity":41,"Duration":89285,"SoundDuration":89285,"Delta":22978159},{"NoteNumber":76,"Velocity":54,"Duration":87209,"SoundDuration":87209,"Delta":23156731},{"NoteNumber":67,"Velocity":41,"Duration":87209,"SoundDuration":87209,"Delta":23156731},{"NoteNumber":71,"Velocity":41,"Duration":87209,"SoundDuration":87209,"Delta":23156731},{"NoteNumber":76,"Velocity":57,"Duration":267857,"SoundDuration":267857,"Delta":23331149},{"NoteNumber":71,"Velocity":46,"Duration":178571,"SoundDuration":178571,"Delta":23331149},{"NoteNumber":67,"Velocity":39,"Duration":178571,"SoundDuration":178571,"Delta":23331149},{"NoteNumber":67,"Velocity":39,"Duration":178571,"SoundDuration":178571,"Delta":23509721},{"NoteNumber":71,"Velocity":46,"Duration":178571,"SoundDuration":178571,"Delta":23509721},{"NoteNumber":79,"Velocity":50,"Duration":44642,"SoundDuration":44642,"Delta":23599006},{"NoteNumber":81,"Velocity":52,"Duration":44642,"SoundDuration":44642,"Delta":23643649},{"NoteNumber":83,"Velocity":60,"Duration":267857,"SoundDuration":267857,"Delta":23688292},{"NoteNumber":67,"Velocity":39,"Duration":178571,"SoundDuration":178571,"Delta":23688292},{"NoteNumber":71,"Velocity":46,"Duration":178571,"SoundDuration":178571,"Delta":23688292},{"NoteNumber":67,"Velocity":39,"Duration":176494,"SoundDuration":176494,"Delta":23866864},{"NoteNumber":71,"Velocity":46,"Duration":176494,"SoundDuration":176494,"Delta":23866864},{"NoteNumber":79,"Velocity":49,"Duration":43604,"SoundDuration":43604,"Delta":23956149},{"NoteNumber":76,"Velocity":49,"Duration":43604,"SoundDuration":43604,"Delta":23999754},{"NoteNumber":74,"Velocity":60,"Duration":363635,"SoundDuration":363635,"Delta":24043359},{"NoteNumber":66,"Velocity":46,"Duration":181817,"SoundDuration":181817,"Delta":24043359},{"NoteNumber":57,"Velocity":39,"Duration":181817,"SoundDuration":181817,"Delta":24043359},{"NoteNumber":57,"Velocity":39,"Duration":181817,"SoundDuration":181817,"Delta":24225177},{"NoteNumber":66,"Velocity":46,"Duration":181817,"SoundDuration":181817,"Delta":24225177},{"NoteNumber":73,"Velocity":52,"Duration":59701,"SoundDuration":59701,"Delta":24406995},{"NoteNumber":57,"Velocity":39,"Duration":179104,"SoundDuration":179104,"Delta":24406995},{"NoteNumber":64,"Velocity":46,"Duration":179104,"SoundDuration":179104,"Delta":24406995},{"NoteNumber":74,"Velocity":43,"Duration":59701,"SoundDuration":59701,"Delta":24466696},{"NoteNumber":73,"Velocity":48,"Duration":59701,"SoundDuration":59701,"Delta":24526398},{"NoteNumber":74,"Velocity":43,"Duration":44776,"SoundDuration":44776,"Delta":24586099},{"NoteNumber":57,"Velocity":39,"Duration":179104,"SoundDuration":179104,"Delta":24586099},{"NoteNumber":64,"Velocity":46,"Duration":179104,"SoundDuration":179104,"Delta":24586099},{"NoteNumber":73,"Velocity":48,"Duration":44776,"SoundDuration":44776,"Delta":24630875},{"NoteNumber":74,"Velocity":42,"Duration":44776,"SoundDuration":44776,"Delta":24675651},{"NoteNumber":73,"Velocity":47,"Duration":44776,"SoundDuration":44776,"Delta":24720427},{"NoteNumber":74,"Velocity":54,"Duration":89552,"SoundDuration":89552,"Delta":24765204},{"NoteNumber":62,"Velocity":37,"Duration":179104,"SoundDuration":179104,"Delta":24765204},{"NoteNumber":66,"Velocity":44,"Duration":179104,"SoundDuration":179104,"Delta":24765204},{"NoteNumber":76,"Velocity":49,"Duration":89552,"SoundDuration":89552,"Delta":24854756},{"NoteNumber":78,"Velocity":50,"Duration":89552,"SoundDuration":89552,"Delta":24944308},{"NoteNumber":62,"Velocity":32,"Duration":179104,"SoundDuration":179104,"Delta":24944308},{"NoteNumber":66,"Velocity":38,"Duration":179104,"SoundDuration":179104,"Delta":24944308},{"NoteNumber":79,"Velocity":51,"Duration":89552,"SoundDuration":89552,"Delta":25033860},{"NoteNumber":81,"Velocity":51,"Duration":89552,"SoundDuration":89552,"Delta":25123413},{"NoteNumber":62,"Velocity":32,"Duration":179104,"SoundDuration":179104,"Delta":25123413},{"NoteNumber":66,"Velocity":38,"Duration":179104,"SoundDuration":179104,"Delta":25123413},{"NoteNumber":78,"Velocity":51,"Duration":89552,"SoundDuration":89552,"Delta":25212965},{"NoteNumber":76,"Velocity":50,"Duration":89552,"SoundDuration":89552,"Delta":25302517},{"NoteNumber":62,"Velocity":32,"Duration":179104,"SoundDuration":179104,"Delta":25302517},{"NoteNumber":66,"Velocity":38,"Duration":179104,"SoundDuration":179104,"Delta":25302517},{"NoteNumber":74,"Velocity":50,"Duration":89552,"SoundDuration":89552,"Delta":25392069},{"NoteNumber":73,"Velocity":53,"Duration":89552,"SoundDuration":89552,"Delta":25481622},{"NoteNumber":62,"Velocity":36,"Duration":179104,"SoundDuration":179104,"Delta":25481622},{"NoteNumber":67,"Velocity":43,"Duration":179104,"SoundDuration":179104,"Delta":25481622},{"NoteNumber":74,"Velocity":48,"Duration":89552,"SoundDuration":89552,"Delta":25571174},{"NoteNumber":76,"Velocity":49,"Duration":89552,"SoundDuration":89552,"Delta":25660726},{"NoteNumber":62,"Velocity":32,"Duration":179104,"SoundDuration":179104,"Delta":25660726},{"NoteNumber":67,"Velocity":38,"Duration":179104,"SoundDuration":179104,"Delta":25660726},{"NoteNumber":78,"Velocity":49,"Duration":89552,"SoundDuration":89552,"Delta":25750278},{"NoteNumber":79,"Velocity":49,"Duration":89552,"SoundDuration":89552,"Delta":25839831},{"NoteNumber":62,"Velocity":32,"Duration":179104,"SoundDuration":179104,"Delta":25839831},{"NoteNumber":67,"Velocity":38,"Duration":179104,"SoundDuration":179104,"Delta":25839831},{"NoteNumber":76,"Velocity":49,"Duration":89552,"SoundDuration":89552,"Delta":25929383},{"NoteNumber":74,"Velocity":48,"Duration":89552,"SoundDuration":89552,"Delta":26018935},{"NoteNumber":62,"Velocity":32,"Duration":179104,"SoundDuration":179104,"Delta":26018935},{"NoteNumber":67,"Velocity":38,"Duration":179104,"SoundDuration":179104,"Delta":26018935},{"NoteNumber":73,"Velocity":48,"Duration":89552,"SoundDuration":89552,"Delta":26108487},{"NoteNumber":74,"Velocity":52,"Duration":89552,"SoundDuration":89552,"Delta":26198040},{"NoteNumber":62,"Velocity":37,"Duration":179104,"SoundDuration":179104,"Delta":26198040},{"NoteNumber":66,"Velocity":44,"Duration":179104,"SoundDuration":179104,"Delta":26198040},{"NoteNumber":76,"Velocity":47,"Duration":89552,"SoundDuration":89552,"Delta":26287592},{"NoteNumber":78,"Velocity":48,"Duration":89552,"SoundDuration":89552,"Delta":26377144},{"NoteNumber":62,"Velocity":32,"Duration":179104,"SoundDuration":179104,"Delta":26377144},{"NoteNumber":66,"Velocity":38,"Duration":179104,"SoundDuration":179104,"Delta":26377144},{"NoteNumber":79,"Velocity":49,"Duration":89552,"SoundDuration":89552,"Delta":26466696},{"NoteNumber":81,"Velocity":50,"Duration":89552,"SoundDuration":89552,"Delta":26556249},{"NoteNumber":62,"Velocity":32,"Duration":179104,"SoundDuration":179104,"Delta":26556249},{"NoteNumber":66,"Velocity":38,"Duration":179104,"SoundDuration":179104,"Delta":26556249},{"NoteNumber":78,"Velocity":49,"Duration":89552,"SoundDuration":89552,"Delta":26645801},{"NoteNumber":76,"Velocity":48,"Duration":89552,"SoundDuration":89552,"Delta":26735353},{"NoteNumber":62,"Velocity":32,"Duration":179104,"SoundDuration":179104,"Delta":26735353},{"NoteNumber":66,"Velocity":38,"Duration":179104,"SoundDuration":179104,"Delta":26735353},{"NoteNumber":74,"Velocity":47,"Duration":89552,"SoundDuration":89552,"Delta":26824905},{"NoteNumber":73,"Velocity":53,"Duration":89552,"SoundDuration":89552,"Delta":26914458},{"NoteNumber":62,"Velocity":37,"Duration":179104,"SoundDuration":179104,"Delta":26914458},{"NoteNumber":67,"Velocity":44,"Duration":179104,"SoundDuration":179104,"Delta":26914458},{"NoteNumber":74,"Velocity":47,"Duration":89552,"SoundDuration":89552,"Delta":27004010},{"NoteNumber":76,"Velocity":47,"Duration":89552,"SoundDuration":89552,"Delta":27093562},{"NoteNumber":62,"Velocity":32,"Duration":179104,"SoundDuration":179104,"Delta":27093562},{"NoteNumber":67,"Velocity":38,"Duration":179104,"SoundDuration":179104,"Delta":27093562},{"NoteNumber":78,"Velocity":48,"Duration":89552,"SoundDuration":89552,"Delta":27183114},{"NoteNumber":79,"Velocity":49,"Duration":89552,"SoundDuration":89552,"Delta":27272667},{"NoteNumber":62,"Velocity":32,"Duration":179104,"SoundDuration":179104,"Delta":27272667},{"NoteNumber":67,"Velocity":38,"Duration":179104,"SoundDuration":179104,"Delta":27272667},{"NoteNumber":76,"Velocity":49,"Duration":89552,"SoundDuration":89552,"Delta":27362219},{"NoteNumber":74,"Velocity":48,"Duration":89552,"SoundDuration":89552,"Delta":27451771},{"NoteNumber":62,"Velocity":32,"Duration":179104,"SoundDuration":179104,"Delta":27451771},{"NoteNumber":67,"Velocity":38,"Duration":179104,"SoundDuration":179104,"Delta":27451771},{"NoteNumber":73,"Velocity":48,"Duration":89552,"SoundDuration":89552,"Delta":27541323},{"NoteNumber":74,"Velocity":58,"Duration":334395,"SoundDuration":334395,"Delta":27630876},{"NoteNumber":62,"Velocity":38,"Duration":382166,"SoundDuration":382166,"Delta":27630876},{"NoteNumber":66,"Velocity":45,"Duration":382166,"SoundDuration":382166,"Delta":27630876},{"NoteNumber":85,"Velocity":77,"Duration":47770,"SoundDuration":47770,"Delta":27965271},{"NoteNumber":86,"Velocity":87,"Duration":382165,"SoundDuration":382165,"Delta":28013042},{"NoteNumber":38,"Velocity":69,"Duration":382166,"SoundDuration":382166,"Delta":28395208},{"NoteNumber":50,"Velocity":69,"Duration":382166,"SoundDuration":382166,"Delta":28395208},{"NoteNumber":77,"Velocity":53,"Duration":271084,"SoundDuration":271084,"Delta":29159540},{"NoteNumber":62,"Velocity":45,"Duration":361446,"SoundDuration":361446,"Delta":29159540},{"NoteNumber":58,"Velocity":38,"Duration":361446,"SoundDuration":361446,"Delta":29159540},{"NoteNumber":74,"Velocity":45,"Duration":45180,"SoundDuration":45180,"Delta":29430624},{"NoteNumber":75,"Velocity":45,"Duration":45180,"SoundDuration":45180,"Delta":29475805},{"NoteNumber":77,"Velocity":54,"Duration":180723,"SoundDuration":180723,"Delta":29520986},{"NoteNumber":62,"Velocity":41,"Duration":202702,"SoundDuration":202702,"Delta":29701709},{"NoteNumber":58,"Velocity":34,"Duration":202702,"SoundDuration":202702,"Delta":29701709},{"NoteNumber":63,"Velocity":45,"Duration":389873,"SoundDuration":389873,"Delta":29904411},{"NoteNumber":60,"Velocity":38,"Duration":389873,"SoundDuration":389873,"Delta":29904411},{"NoteNumber":69,"Velocity":50,"Duration":189873,"SoundDuration":189873,"Delta":30104411},{"NoteNumber":69,"Velocity":50,"Duration":189873,"SoundDuration":189873,"Delta":30294285},{"NoteNumber":69,"Velocity":50,"Duration":189873,"SoundDuration":189873,"Delta":30484158},{"NoteNumber":60,"Velocity":34,"Duration":189873,"SoundDuration":189873,"Delta":30484158},{"NoteNumber":63,"Velocity":41,"Duration":189873,"SoundDuration":189873,"Delta":30484158},{"NoteNumber":70,"Velocity":53,"Duration":271084,"SoundDuration":271084,"Delta":30674032},{"NoteNumber":62,"Velocity":38,"Duration":361446,"SoundDuration":361446,"Delta":30674032},{"NoteNumber":65,"Velocity":45,"Duration":361446,"SoundDuration":361446,"Delta":30674032},{"NoteNumber":70,"Velocity":45,"Duration":45180,"SoundDuration":45180,"Delta":30945116},{"NoteNumber":72,"Velocity":45,"Duration":45180,"SoundDuration":45180,"Delta":30990297},{"NoteNumber":74,"Velocity":54,"Duration":180723,"SoundDuration":180723,"Delta":31035478},{"NoteNumber":62,"Velocity":41,"Duration":202702,"SoundDuration":202702,"Delta":31216201},{"NoteNumber":58,"Velocity":34,"Duration":202702,"SoundDuration":202702,"Delta":31216201},{"NoteNumber":57,"Velocity":38,"Duration":392925,"SoundDuration":392925,"Delta":31418903},{"NoteNumber":60,"Velocity":45,"Duration":392925,"SoundDuration":392925,"Delta":31418903},{"NoteNumber":66,"Velocity":50,"Duration":192925,"SoundDuration":192925,"Delta":31618903},{"NoteNumber":66,"Velocity":50,"Duration":192925,"SoundDuration":192925,"Delta":31811829},{"NoteNumber":66,"Velocity":50,"Duration":192925,"SoundDuration":192925,"Delta":32004755},{"NoteNumber":60,"Velocity":41,"Duration":192925,"SoundDuration":192925,"Delta":32004755},{"NoteNumber":57,"Velocity":34,"Duration":192925,"SoundDuration":192925,"Delta":32004755},{"NoteNumber":67,"Velocity":57,"Duration":271084,"SoundDuration":271084,"Delta":32197681},{"NoteNumber":62,"Velocity":49,"Duration":361446,"SoundDuration":361446,"Delta":32197681},{"NoteNumber":58,"Velocity":41,"Duration":361446,"SoundDuration":361446,"Delta":32197681},{"NoteNumber":67,"Velocity":45,"Duration":45180,"SoundDuration":45180,"Delta":32468766},{"NoteNumber":69,"Velocity":45,"Duration":45180,"SoundDuration":45180,"Delta":32513946},{"NoteNumber":70,"Velocity":57,"Duration":180723,"SoundDuration":180723,"Delta":32559127},{"NoteNumber":58,"Velocity":43,"Duration":202702,"SoundDuration":202702,"Delta":32739850},{"NoteNumber":55,"Velocity":36,"Duration":202702,"SoundDuration":202702,"Delta":32739850},{"NoteNumber":55,"Velocity":48,"Duration":399999,"SoundDuration":399999,"Delta":32942553},{"NoteNumber":51,"Velocity":40,"Duration":399999,"SoundDuration":399999,"Delta":32942553},{"NoteNumber":61,"Velocity":55,"Duration":199999,"SoundDuration":199999,"Delta":33142553},{"NoteNumber":61,"Velocity":57,"Duration":200000,"SoundDuration":200000,"Delta":33342553},{"NoteNumber":61,"Velocity":60,"Duration":199999,"SoundDuration":199999,"Delta":33542553},{"NoteNumber":51,"Velocity":55,"Duration":199999,"SoundDuration":199999,"Delta":33542553},{"NoteNumber":55,"Velocity":55,"Duration":199999,"SoundDuration":199999,"Delta":33542553},{"NoteNumber":62,"Velocity":68,"Duration":271084,"SoundDuration":271084,"Delta":33742553},{"NoteNumber":50,"Velocity":58,"Duration":271084,"SoundDuration":271084,"Delta":33742553},{"NoteNumber":54,"Velocity":58,"Duration":271084,"SoundDuration":271084,"Delta":33742553},{"NoteNumber":54,"Velocity":51,"Duration":45180,"SoundDuration":45180,"Delta":34013637},{"NoteNumber":42,"Velocity":51,"Duration":45180,"SoundDuration":45180,"Delta":34013637},{"NoteNumber":55,"Velocity":51,"Duration":45180,"SoundDuration":45180,"Delta":34058818},{"NoteNumber":43,"Velocity":51,"Duration":45180,"SoundDuration":45180,"Delta":34058818},{"NoteNumber":57,"Velocity":75,"Duration":205479,"SoundDuration":205479,"Delta":34103999},{"NoteNumber":45,"Velocity":61,"Duration":205479,"SoundDuration":205479,"Delta":34103999},{"NoteNumber":54,"Velocity":68,"Duration":211267,"SoundDuration":211267,"Delta":34309478},{"NoteNumber":42,"Velocity":56,"Duration":211267,"SoundDuration":211267,"Delta":34309478},{"NoteNumber":50,"Velocity":68,"Duration":422535,"SoundDuration":422535,"Delta":34520746},{"NoteNumber":38,"Velocity":56,"Duration":422535,"SoundDuration":422535,"Delta":34520746},{"NoteNumber":67,"Velocity":60,"Duration":281250,"SoundDuration":281250,"Delta":35366597},{"NoteNumber":55,"Velocity":34,"Duration":187500,"SoundDuration":187500,"Delta":35366597},{"NoteNumber":59,"Velocity":40,"Duration":187500,"SoundDuration":187500,"Delta":35366597},{"NoteNumber":55,"Velocity":34,"Duration":187500,"SoundDuration":187500,"Delta":35553316},{"NoteNumber":59,"Velocity":40,"Duration":187500,"SoundDuration":187500,"Delta":35553316},{"NoteNumber":71,"Velocity":46,"Duration":46875,"SoundDuration":46875,"Delta":35647066},{"NoteNumber":69,"Velocity":47,"Duration":46875,"SoundDuration":46875,"Delta":35693941},{"NoteNumber":67,"Velocity":56,"Duration":187500,"SoundDuration":187500,"Delta":35740816},{"NoteNumber":55,"Velocity":34,"Duration":187500,"SoundDuration":187500,"Delta":35740816},{"NoteNumber":59,"Velocity":40,"Duration":187500,"SoundDuration":187500,"Delta":35740816},{"NoteNumber":55,"Velocity":33,"Duration":187500,"SoundDuration":187500,"Delta":35928316},{"NoteNumber":59,"Velocity":39,"Duration":187500,"SoundDuration":187500,"Delta":35928316},{"NoteNumber":55,"Velocity":34,"Duration":187500,"SoundDuration":187500,"Delta":36115816},{"NoteNumber":59,"Velocity":40,"Duration":187500,"SoundDuration":187500,"Delta":36115816},{"NoteNumber":62,"Velocity":53,"Duration":184049,"SoundDuration":184049,"Delta":36303316},{"NoteNumber":55,"Velocity":34,"Duration":184049,"SoundDuration":184049,"Delta":36303316},{"NoteNumber":59,"Velocity":41,"Duration":184049,"SoundDuration":184049,"Delta":36303316},{"NoteNumber":67,"Velocity":53,"Duration":184049,"SoundDuration":184049,"Delta":36487365},{"NoteNumber":55,"Velocity":34,"Duration":184049,"SoundDuration":184049,"Delta":36487365},{"NoteNumber":59,"Velocity":41,"Duration":184049,"SoundDuration":184049,"Delta":36487365},{"NoteNumber":71,"Velocity":53,"Duration":184048,"SoundDuration":184048,"Delta":36671414},{"NoteNumber":55,"Velocity":34,"Duration":184048,"SoundDuration":184048,"Delta":36671414},{"NoteNumber":59,"Velocity":41,"Duration":184048,"SoundDuration":184048,"Delta":36671414},{"NoteNumber":71,"Velocity":57,"Duration":92024,"SoundDuration":92024,"Delta":36855463},{"NoteNumber":55,"Velocity":37,"Duration":368098,"SoundDuration":368098,"Delta":36855463},{"NoteNumber":60,"Velocity":44,"Duration":368098,"SoundDuration":368098,"Delta":36855463},{"NoteNumber":69,"Velocity":54,"Duration":92024,"SoundDuration":92024,"Delta":36947487},{"NoteNumber":67,"Velocity":54,"Duration":92024,"SoundDuration":92024,"Delta":37039512},{"NoteNumber":69,"Velocity":54,"Duration":92024,"SoundDuration":92024,"Delta":37131536},{"NoteNumber":67,"Velocity":57,"Duration":184048,"SoundDuration":184048,"Delta":37223561},{"NoteNumber":55,"Velocity":34,"Duration":184048,"SoundDuration":184048,"Delta":37223561},{"NoteNumber":59,"Velocity":41,"Duration":184048,"SoundDuration":184048,"Delta":37223561},{"NoteNumber":76,"Velocity":54,"Duration":180180,"SoundDuration":180180,"Delta":37407610},{"NoteNumber":76,"Velocity":54,"Duration":90089,"SoundDuration":90089,"Delta":37587790},{"NoteNumber":74,"Velocity":36,"Duration":90089,"SoundDuration":90089,"Delta":37587790},{"NoteNumber":68,"Velocity":36,"Duration":90089,"SoundDuration":90089,"Delta":37587790},{"NoteNumber":76,"Velocity":54,"Duration":90090,"SoundDuration":90090,"Delta":37767970},{"NoteNumber":74,"Velocity":36,"Duration":90090,"SoundDuration":90090,"Delta":37767970},{"NoteNumber":68,"Velocity":36,"Duration":90090,"SoundDuration":90090,"Delta":37767970},{"NoteNumber":76,"Velocity":54,"Duration":90089,"SoundDuration":90089,"Delta":37948150},{"NoteNumber":74,"Velocity":36,"Duration":90089,"SoundDuration":90089,"Delta":37948150},{"NoteNumber":68,"Velocity":36,"Duration":90089,"SoundDuration":90089,"Delta":37948150},{"NoteNumber":76,"Velocity":54,"Duration":88757,"SoundDuration":88757,"Delta":38128330},{"NoteNumber":68,"Velocity":36,"Duration":88757,"SoundDuration":88757,"Delta":38128330},{"NoteNumber":74,"Velocity":36,"Duration":88757,"SoundDuration":88757,"Delta":38128330},{"NoteNumber":76,"Velocity":57,"Duration":275229,"SoundDuration":275229,"Delta":38305845},{"NoteNumber":72,"Velocity":41,"Duration":363464,"SoundDuration":363464,"Delta":38305845},{"NoteNumber":69,"Velocity":41,"Duration":363464,"SoundDuration":363464,"Delta":38305845},{"NoteNumber":81,"Velocity":52,"Duration":44117,"SoundDuration":44117,"Delta":38581074},{"NoteNumber":83,"Velocity":52,"Duration":44117,"SoundDuration":44117,"Delta":38625191},{"NoteNumber":84,"Velocity":50,"Duration":182926,"SoundDuration":182926,"Delta":38669309},{"NoteNumber":76,"Velocity":54,"Duration":184631,"SoundDuration":184631,"Delta":38852236},{"NoteNumber":74,"Velocity":54,"Duration":93167,"SoundDuration":93167,"Delta":39036867},{"NoteNumber":66,"Velocity":36,"Duration":93167,"SoundDuration":93167,"Delta":39036867},{"NoteNumber":72,"Velocity":36,"Duration":93167,"SoundDuration":93167,"Delta":39036867},{"NoteNumber":74,"Velocity":54,"Duration":93167,"SoundDuration":93167,"Delta":39223203},{"NoteNumber":66,"Velocity":36,"Duration":93167,"SoundDuration":93167,"Delta":39223203},{"NoteNumber":72,"Velocity":36,"Duration":93167,"SoundDuration":93167,"Delta":39223203},{"NoteNumber":74,"Velocity":54,"Duration":93167,"SoundDuration":93167,"Delta":39409538},{"NoteNumber":66,"Velocity":36,"Duration":93167,"SoundDuration":93167,"Delta":39409538},{"NoteNumber":72,"Velocity":36,"Duration":93167,"SoundDuration":93167,"Delta":39409538},{"NoteNumber":74,"Velocity":54,"Duration":93167,"SoundDuration":93167,"Delta":39595874},{"NoteNumber":66,"Velocity":36,"Duration":93167,"SoundDuration":93167,"Delta":39595874},{"NoteNumber":72,"Velocity":36,"Duration":93167,"SoundDuration":93167,"Delta":39595874},{"NoteNumber":74,"Velocity":57,"Duration":273556,"SoundDuration":273556,"Delta":39782209},{"NoteNumber":71,"Velocity":41,"Duration":362051,"SoundDuration":362051,"Delta":39782209},{"NoteNumber":67,"Velocity":41,"Duration":362051,"SoundDuration":362051,"Delta":39782209},{"NoteNumber":79,"Velocity":49,"Duration":44247,"SoundDuration":44247,"Delta":40055766},{"NoteNumber":81,"Velocity":48,"Duration":44247,"SoundDuration":44247,"Delta":40100013},{"NoteNumber":83,"Velocity":45,"Duration":181269,"SoundDuration":181269,"Delta":40144261},{"NoteNumber":83,"Velocity":39,"Duration":47318,"SoundDuration":47318,"Delta":41866317},{"NoteNumber":81,"Velocity":39,"Duration":47318,"SoundDuration":47318,"Delta":41913635},{"NoteNumber":79,"Velocity":47,"Duration":94637,"SoundDuration":94637,"Delta":41960954},{"NoteNumber":79,"Velocity":39,"Duration":47318,"SoundDuration":47318,"Delta":42244866},{"NoteNumber":78,"Velocity":39,"Duration":47318,"SoundDuration":47318,"Delta":42292184},{"NoteNumber":76,"Velocity":50,"Duration":94637,"SoundDuration":94637,"Delta":42339503},{"NoteNumber":76,"Velocity":38,"Duration":47318,"SoundDuration":47318,"Delta":42623415},{"NoteNumber":74,"Velocity":38,"Duration":47318,"SoundDuration":47318,"Delta":42670733},{"NoteNumber":72,"Velocity":50,"Duration":189274,"SoundDuration":189274,"Delta":42718052},{"NoteNumber":64,"Velocity":34,"Duration":189274,"SoundDuration":189274,"Delta":42718052},{"NoteNumber":67,"Velocity":34,"Duration":189274,"SoundDuration":189274,"Delta":42718052},{"NoteNumber":75,"Velocity":51,"Duration":47318,"SoundDuration":47318,"Delta":43380513},{"NoteNumber":67,"Velocity":44,"Duration":47318,"SoundDuration":47318,"Delta":43380513},{"NoteNumber":74,"Velocity":51,"Duration":47318,"SoundDuration":47318,"Delta":43427831},{"NoteNumber":65,"Velocity":44,"Duration":47318,"SoundDuration":47318,"Delta":43427831},{"NoteNumber":72,"Velocity":59,"Duration":191082,"SoundDuration":191082,"Delta":43475150},{"NoteNumber":63,"Velocity":55,"Duration":382165,"SoundDuration":382165,"Delta":43475150},{"NoteNumber":72,"Velocity":55,"Duration":191082,"SoundDuration":191082,"Delta":43666233},{"NoteNumber":72,"Velocity":55,"Duration":191082,"SoundDuration":191082,"Delta":43857316},{"NoteNumber":72,"Velocity":55,"Duration":191083,"SoundDuration":191083,"Delta":44048399},{"NoteNumber":69,"Velocity":49,"Duration":47770,"SoundDuration":47770,"Delta":44143940},{"NoteNumber":67,"Velocity":49,"Duration":47770,"SoundDuration":47770,"Delta":44191711},{"NoteNumber":72,"Velocity":58,"Duration":272727,"SoundDuration":272727,"Delta":44239482},{"NoteNumber":62,"Velocity":56,"Duration":359936,"SoundDuration":359936,"Delta":44239482},{"NoteNumber":66,"Velocity":56,"Duration":359936,"SoundDuration":359936,"Delta":44239482},{"NoteNumber":74,"Velocity":46,"Duration":43604,"SoundDuration":43604,"Delta":44512209},{"NoteNumber":72,"Velocity":46,"Duration":43604,"SoundDuration":43604,"Delta":44555813},{"NoteNumber":71,"Velocity":56,"Duration":181817,"SoundDuration":181817,"Delta":44599418},{"NoteNumber":64,"Velocity":46,"Duration":363635,"SoundDuration":363635,"Delta":44599418},{"NoteNumber":67,"Velocity":46,"Duration":363635,"SoundDuration":363635,"Delta":44599418},{"NoteNumber":71,"Velocity":57,"Duration":181817,"SoundDuration":181817,"Delta":44781236},{"NoteNumber":69,"Velocity":60,"Duration":186915,"SoundDuration":186915,"Delta":44963054},{"NoteNumber":60,"Velocity":46,"Duration":377391,"SoundDuration":377391,"Delta":44963054},{"NoteNumber":64,"Velocity":46,"Duration":377391,"SoundDuration":377391,"Delta":44963054},{"NoteNumber":76,"Velocity":56,"Duration":190475,"SoundDuration":190475,"Delta":45149970},{"NoteNumber":74,"Velocity":56,"Duration":190476,"SoundDuration":190476,"Delta":45340446},{"NoteNumber":62,"Velocity":46,"Duration":380952,"SoundDuration":380952,"Delta":45340446},{"NoteNumber":66,"Velocity":56,"Duration":190475,"SoundDuration":190475,"Delta":45530922},{"NoteNumber":67,"Velocity":54,"Duration":89552,"SoundDuration":89552,"Delta":45721398},{"NoteNumber":55,"Velocity":37,"Duration":179104,"SoundDuration":179104,"Delta":45721398},{"NoteNumber":59,"Velocity":44,"Duration":179104,"SoundDuration":179104,"Delta":45721398},{"NoteNumber":69,"Velocity":49,"Duration":89552,"SoundDuration":89552,"Delta":45810950},{"NoteNumber":71,"Velocity":50,"Duration":89552,"SoundDuration":89552,"Delta":45900503},{"NoteNumber":55,"Velocity":32,"Duration":179104,"SoundDuration":179104,"Delta":45900503},{"NoteNumber":59,"Velocity":38,"Duration":179104,"SoundDuration":179104,"Delta":45900503},{"NoteNumber":72,"Velocity":51,"Duration":89552,"SoundDuration":89552,"Delta":45990055},{"NoteNumber":74,"Velocity":51,"Duration":89552,"SoundDuration":89552,"Delta":46079607},{"NoteNumber":55,"Velocity":32,"Duration":179104,"SoundDuration":179104,"Delta":46079607},{"NoteNumber":59,"Velocity":38,"Duration":179104,"SoundDuration":179104,"Delta":46079607},{"NoteNumber":71,"Velocity":51,"Duration":89552,"SoundDuration":89552,"Delta":46169159},{"NoteNumber":69,"Velocity":50,"Duration":89552,"SoundDuration":89552,"Delta":46258712},{"NoteNumber":55,"Velocity":32,"Duration":179104,"SoundDuration":179104,"Delta":46258712},{"NoteNumber":59,"Velocity":38,"Duration":179104,"SoundDuration":179104,"Delta":46258712},{"NoteNumber":67,"Velocity":50,"Duration":89552,"SoundDuration":89552,"Delta":46348264},{"NoteNumber":66,"Velocity":53,"Duration":89552,"SoundDuration":89552,"Delta":46437816},{"NoteNumber":55,"Velocity":36,"Duration":179104,"SoundDuration":179104,"Delta":46437816},{"NoteNumber":60,"Velocity":43,"Duration":179104,"SoundDuration":179104,"Delta":46437816},{"NoteNumber":67,"Velocity":48,"Duration":89552,"SoundDuration":89552,"Delta":46527368},{"NoteNumber":69,"Velocity":49,"Duration":89552,"SoundDuration":89552,"Delta":46616921},{"NoteNumber":55,"Velocity":32,"Duration":179104,"SoundDuration":179104,"Delta":46616921},{"NoteNumber":60,"Velocity":38,"Duration":179104,"SoundDuration":179104,"Delta":46616921},{"NoteNumber":71,"Velocity":49,"Duration":89552,"SoundDuration":89552,"Delta":46706473},{"NoteNumber":72,"Velocity":49,"Duration":89552,"SoundDuration":89552,"Delta":46796025},{"NoteNumber":55,"Velocity":32,"Duration":179104,"SoundDuration":179104,"Delta":46796025},{"NoteNumber":60,"Velocity":38,"Duration":179104,"SoundDuration":179104,"Delta":46796025},{"NoteNumber":69,"Velocity":49,"Duration":89552,"SoundDuration":89552,"Delta":46885577},{"NoteNumber":67,"Velocity":48,"Duration":89552,"SoundDuration":89552,"Delta":46975130},{"NoteNumber":55,"Velocity":32,"Duration":179104,"SoundDuration":179104,"Delta":46975130},{"NoteNumber":60,"Velocity":38,"Duration":179104,"SoundDuration":179104,"Delta":46975130},{"NoteNumber":66,"Velocity":48,"Duration":89552,"SoundDuration":89552,"Delta":47064682},{"NoteNumber":67,"Velocity":52,"Duration":89552,"SoundDuration":89552,"Delta":47154234},{"NoteNumber":55,"Velocity":37,"Duration":179104,"SoundDuration":179104,"Delta":47154234},{"NoteNumber":59,"Velocity":44,"Duration":179104,"SoundDuration":179104,"Delta":47154234},{"NoteNumber":69,"Velocity":47,"Duration":89552,"SoundDuration":89552,"Delta":47243786},{"NoteNumber":71,"Velocity":48,"Duration":89552,"SoundDuration":89552,"Delta":47333339},{"NoteNumber":55,"Velocity":32,"Duration":179104,"SoundDuration":179104,"Delta":47333339},{"NoteNumber":59,"Velocity":38,"Duration":179104,"SoundDuration":179104,"Delta":47333339},{"NoteNumber":72,"Velocity":49,"Duration":89552,"SoundDuration":89552,"Delta":47422891},{"NoteNumber":74,"Velocity":50,"Duration":89552,"SoundDuration":89552,"Delta":47512443},{"NoteNumber":55,"Velocity":32,"Duration":179104,"SoundDuration":179104,"Delta":47512443},{"NoteNumber":59,"Velocity":38,"Duration":179104,"SoundDuration":179104,"Delta":47512443},{"NoteNumber":71,"Velocity":49,"Duration":89552,"SoundDuration":89552,"Delta":47601995},{"NoteNumber":69,"Velocity":48,"Duration":89552,"SoundDuration":89552,"Delta":47691548},{"NoteNumber":55,"Velocity":32,"Duration":179104,"SoundDuration":179104,"Delta":47691548},{"NoteNumber":59,"Velocity":38,"Duration":179104,"SoundDuration":179104,"Delta":47691548},{"NoteNumber":67,"Velocity":47,"Duration":89552,"SoundDuration":89552,"Delta":47781100},{"NoteNumber":66,"Velocity":53,"Duration":89552,"SoundDuration":89552,"Delta":47870652},{"NoteNumber":55,"Velocity":37,"Duration":179104,"SoundDuration":179104,"Delta":47870652},{"NoteNumber":60,"Velocity":44,"Duration":179104,"SoundDuration":179104,"Delta":47870652},{"NoteNumber":67,"Velocity":47,"Duration":89552,"SoundDuration":89552,"Delta":47960204},{"NoteNumber":69,"Velocity":47,"Duration":89552,"SoundDuration":89552,"Delta":48049757},{"NoteNumber":55,"Velocity":32,"Duration":179104,"SoundDuration":179104,"Delta":48049757},{"NoteNumber":60,"Velocity":38,"Duration":179104,"SoundDuration":179104,"Delta":48049757},{"NoteNumber":71,"Velocity":48,"Duration":89552,"SoundDuration":89552,"Delta":48139309},{"NoteNumber":72,"Velocity":49,"Duration":89552,"SoundDuration":89552,"Delta":48228861},{"NoteNumber":55,"Velocity":32,"Duration":179104,"SoundDuration":179104,"Delta":48228861},{"NoteNumber":60,"Velocity":38,"Duration":179104,"SoundDuration":179104,"Delta":48228861},{"NoteNumber":69,"Velocity":49,"Duration":89552,"SoundDuration":89552,"Delta":48318413},{"NoteNumber":67,"Velocity":48,"Duration":89552,"SoundDuration":89552,"Delta":48407966},{"NoteNumber":55,"Velocity":32,"Duration":179104,"SoundDuration":179104,"Delta":48407966},{"NoteNumber":60,"Velocity":38,"Duration":179104,"SoundDuration":179104,"Delta":48407966},{"NoteNumber":66,"Velocity":48,"Duration":89552,"SoundDuration":89552,"Delta":48497518},{"NoteNumber":67,"Velocity":58,"Duration":334395,"SoundDuration":334395,"Delta":48587070},{"NoteNumber":55,"Velocity":38,"Duration":382165,"SoundDuration":382165,"Delta":48587070},{"NoteNumber":59,"Velocity":45,"Duration":382165,"SoundDuration":382165,"Delta":48587070},{"NoteNumber":78,"Velocity":65,"Duration":47770,"SoundDuration":47770,"Delta":48921465},{"NoteNumber":79,"Velocity":76,"Duration":382166,"SoundDuration":382166,"Delta":48969236},{"NoteNumber":31,"Velocity":69,"Duration":382165,"SoundDuration":382165,"Delta":49351402},{"NoteNumber":43,"Velocity":69,"Duration":382165,"SoundDuration":382165,"Delta":49351402},{"NoteNumber":77,"Velocity":53,"Duration":271084,"SoundDuration":271084,"Delta":50115734},{"NoteNumber":62,"Velocity":45,"Duration":361446,"SoundDuration":361446,"Delta":50115734},{"NoteNumber":58,"Velocity":38,"Duration":361446,"SoundDuration":361446,"Delta":50115734},{"NoteNumber":74,"Velocity":45,"Duration":45180,"SoundDuration":45180,"Delta":50386819},{"NoteNumber":75,"Velocity":45,"Duration":45180,"SoundDuration":45180,"Delta":50431999},{"NoteNumber":77,"Velocity":54,"Duration":180723,"SoundDuration":180723,"Delta":50477180},{"NoteNumber":62,"Velocity":41,"Duration":202702,"SoundDuration":202702,"Delta":50657903},{"NoteNumber":58,"Velocity":34,"Duration":202702,"SoundDuration":202702,"Delta":50657903},{"NoteNumber":63,"Velocity":45,"Duration":389873,"SoundDuration":389873,"Delta":50860606},{"NoteNumber":60,"Velocity":38,"Duration":389873,"SoundDuration":389873,"Delta":50860606},{"NoteNumber":69,"Velocity":50,"Duration":189873,"SoundDuration":189873,"Delta":51060606},{"NoteNumber":69,"Velocity":50,"Duration":189873,"SoundDuration":189873,"Delta":51250479},{"NoteNumber":69,"Velocity":50,"Duration":189873,"SoundDuration":189873,"Delta":51440353},{"NoteNumber":60,"Velocity":34,"Duration":189873,"SoundDuration":189873,"Delta":51440353},{"NoteNumber":63,"Velocity":41,"Duration":189873,"SoundDuration":189873,"Delta":51440353},{"NoteNumber":70,"Velocity":53,"Duration":271084,"SoundDuration":271084,"Delta":51630226},{"NoteNumber":62,"Velocity":38,"Duration":361446,"SoundDuration":361446,"Delta":51630226},{"NoteNumber":65,"Velocity":45,"Duration":361446,"SoundDuration":361446,"Delta":51630226},{"NoteNumber":70,"Velocity":45,"Duration":45180,"SoundDuration":45180,"Delta":51901311},{"NoteNumber":72,"Velocity":45,"Duration":45180,"SoundDuration":45180,"Delta":51946491},{"NoteNumber":74,"Velocity":54,"Duration":180723,"SoundDuration":180723,"Delta":51991672},{"NoteNumber":62,"Velocity":41,"Duration":202702,"SoundDuration":202702,"Delta":52172395},{"NoteNumber":58,"Velocity":34,"Duration":202702,"SoundDuration":202702,"Delta":52172395},{"NoteNumber":57,"Velocity":38,"Duration":392926,"SoundDuration":392926,"Delta":52375098},{"NoteNumber":60,"Velocity":45,"Duration":392926,"SoundDuration":392926,"Delta":52375098},{"NoteNumber":66,"Velocity":50,"Duration":192925,"SoundDuration":192925,"Delta":52575098},{"NoteNumber":66,"Velocity":50,"Duration":192925,"SoundDuration":192925,"Delta":52768024},{"NoteNumber":66,"Velocity":50,"Duration":192925,"SoundDuration":192925,"Delta":52960950},{"NoteNumber":60,"Velocity":41,"Duration":192925,"SoundDuration":192925,"Delta":52960950},{"NoteNumber":57,"Velocity":34,"Duration":192925,"SoundDuration":192925,"Delta":52960950},{"NoteNumber":67,"Velocity":57,"Duration":271084,"SoundDuration":271084,"Delta":53153876},{"NoteNumber":62,"Velocity":49,"Duration":361446,"SoundDuration":361446,"Delta":53153876},{"NoteNumber":58,"Velocity":41,"Duration":361446,"SoundDuration":361446,"Delta":53153876},{"NoteNumber":67,"Velocity":45,"Duration":45180,"SoundDuration":45180,"Delta":53424960},{"NoteNumber":69,"Velocity":45,"Duration":45180,"SoundDuration":45180,"Delta":53470141},{"NoteNumber":70,"Velocity":57,"Duration":180723,"SoundDuration":180723,"Delta":53515322},{"NoteNumber":58,"Velocity":43,"Duration":202702,"SoundDuration":202702,"Delta":53696045},{"NoteNumber":55,"Velocity":36,"Duration":202702,"SoundDuration":202702,"Delta":53696045},{"NoteNumber":55,"Velocity":48,"Duration":399999,"SoundDuration":399999,"Delta":53898747},{"NoteNumber":51,"Velocity":40,"Duration":399999,"SoundDuration":399999,"Delta":53898747},{"NoteNumber":61,"Velocity":54,"Duration":199999,"SoundDuration":199999,"Delta":54098747},{"NoteNumber":61,"Velocity":57,"Duration":200000,"SoundDuration":200000,"Delta":54298747},{"NoteNumber":61,"Velocity":60,"Duration":199999,"SoundDuration":199999,"Delta":54498747},{"NoteNumber":51,"Velocity":55,"Duration":199999,"SoundDuration":199999,"Delta":54498747},{"NoteNumber":55,"Velocity":55,"Duration":199999,"SoundDuration":199999,"Delta":54498747},{"NoteNumber":62,"Velocity":68,"Duration":271084,"SoundDuration":271084,"Delta":54698747},{"NoteNumber":50,"Velocity":58,"Duration":271084,"SoundDuration":271084,"Delta":54698747},{"NoteNumber":54,"Velocity":58,"Duration":271084,"SoundDuration":271084,"Delta":54698747},{"NoteNumber":54,"Velocity":51,"Duration":45180,"SoundDuration":45180,"Delta":54969832},{"NoteNumber":42,"Velocity":51,"Duration":45180,"SoundDuration":45180,"Delta":54969832},{"NoteNumber":55,"Velocity":51,"Duration":45180,"SoundDuration":45180,"Delta":55015012},{"NoteNumber":43,"Velocity":51,"Duration":45180,"SoundDuration":45180,"Delta":55015012},{"NoteNumber":57,"Velocity":75,"Duration":205479,"SoundDuration":205479,"Delta":55060193},{"NoteNumber":45,"Velocity":61,"Duration":205479,"SoundDuration":205479,"Delta":55060193},{"NoteNumber":54,"Velocity":68,"Duration":211267,"SoundDuration":211267,"Delta":55265673},{"NoteNumber":42,"Velocity":56,"Duration":211267,"SoundDuration":211267,"Delta":55265673},{"NoteNumber":50,"Velocity":68,"Duration":422535,"SoundDuration":422535,"Delta":55476940},{"NoteNumber":38,"Velocity":56,"Duration":422535,"SoundDuration":422535,"Delta":55476940},{"NoteNumber":67,"Velocity":60,"Duration":281250,"SoundDuration":281250,"Delta":56322791},{"NoteNumber":55,"Velocity":34,"Duration":187500,"SoundDuration":187500,"Delta":56322791},{"NoteNumber":59,"Velocity":40,"Duration":187500,"SoundDuration":187500,"Delta":56322791},{"NoteNumber":55,"Velocity":34,"Duration":187500,"SoundDuration":187500,"Delta":56509510},{"NoteNumber":59,"Velocity":40,"Duration":187500,"SoundDuration":187500,"Delta":56509510},{"NoteNumber":71,"Velocity":46,"Duration":46875,"SoundDuration":46875,"Delta":56603260},{"NoteNumber":69,"Velocity":47,"Duration":46875,"SoundDuration":46875,"Delta":56650135},{"NoteNumber":67,"Velocity":56,"Duration":187500,"SoundDuration":187500,"Delta":56697010},{"NoteNumber":55,"Velocity":34,"Duration":187500,"SoundDuration":187500,"Delta":56697010},{"NoteNumber":59,"Velocity":40,"Duration":187500,"SoundDuration":187500,"Delta":56697010},{"NoteNumber":55,"Velocity":33,"Duration":187500,"SoundDuration":187500,"Delta":56884510},{"NoteNumber":59,"Velocity":39,"Duration":187500,"SoundDuration":187500,"Delta":56884510},{"NoteNumber":55,"Velocity":34,"Duration":187500,"SoundDuration":187500,"Delta":57072010},{"NoteNumber":59,"Velocity":40,"Duration":187500,"SoundDuration":187500,"Delta":57072010},{"NoteNumber":62,"Velocity":53,"Duration":184049,"SoundDuration":184049,"Delta":57259510},{"NoteNumber":55,"Velocity":34,"Duration":184049,"SoundDuration":184049,"Delta":57259510},{"NoteNumber":59,"Velocity":41,"Duration":184049,"SoundDuration":184049,"Delta":57259510},{"NoteNumber":67,"Velocity":53,"Duration":184049,"SoundDuration":184049,"Delta":57443559},{"NoteNumber":55,"Velocity":34,"Duration":184049,"SoundDuration":184049,"Delta":57443559},{"NoteNumber":59,"Velocity":41,"Duration":184049,"SoundDuration":184049,"Delta":57443559},{"NoteNumber":71,"Velocity":53,"Duration":184048,"SoundDuration":184048,"Delta":57627608},{"NoteNumber":55,"Velocity":34,"Duration":184048,"SoundDuration":184048,"Delta":57627608},{"NoteNumber":59,"Velocity":41,"Duration":184048,"SoundDuration":184048,"Delta":57627608},{"NoteNumber":71,"Velocity":57,"Duration":92024,"SoundDuration":92024,"Delta":57811657},{"NoteNumber":55,"Velocity":37,"Duration":368098,"SoundDuration":368098,"Delta":57811657},{"NoteNumber":60,"Velocity":44,"Duration":368098,"SoundDuration":368098,"Delta":57811657},{"NoteNumber":69,"Velocity":54,"Duration":92024,"SoundDuration":92024,"Delta":57903682},{"NoteNumber":67,"Velocity":54,"Duration":92024,"SoundDuration":92024,"Delta":57995706},{"NoteNumber":69,"Velocity":54,"Duration":92024,"SoundDuration":92024,"Delta":58087731},{"NoteNumber":67,"Velocity":57,"Duration":184048,"SoundDuration":184048,"Delta":58179755},{"NoteNumber":55,"Velocity":34,"Duration":184048,"SoundDuration":184048,"Delta":58179755},{"NoteNumber":59,"Velocity":41,"Duration":184048,"SoundDuration":184048,"Delta":58179755},{"NoteNumber":76,"Velocity":54,"Duration":180180,"SoundDuration":180180,"Delta":58363804},{"NoteNumber":76,"Velocity":54,"Duration":90089,"SoundDuration":90089,"Delta":58543984},{"NoteNumber":74,"Velocity":36,"Duration":90089,"SoundDuration":90089,"Delta":58543984},{"NoteNumber":68,"Velocity":36,"Duration":90089,"SoundDuration":90089,"Delta":58543984},{"NoteNumber":76,"Velocity":54,"Duration":90090,"SoundDuration":90090,"Delta":58724164},{"NoteNumber":74,"Velocity":36,"Duration":90090,"SoundDuration":90090,"Delta":58724164},{"NoteNumber":68,"Velocity":36,"Duration":90090,"SoundDuration":90090,"Delta":58724164},{"NoteNumber":76,"Velocity":54,"Duration":90089,"SoundDuration":90089,"Delta":58904344},{"NoteNumber":74,"Velocity":36,"Duration":90089,"SoundDuration":90089,"Delta":58904344},{"NoteNumber":68,"Velocity":36,"Duration":90089,"SoundDuration":90089,"Delta":58904344},{"NoteNumber":76,"Velocity":54,"Duration":88757,"SoundDuration":88757,"Delta":59084524},{"NoteNumber":68,"Velocity":36,"Duration":88757,"SoundDuration":88757,"Delta":59084524},{"NoteNumber":74,"Velocity":36,"Duration":88757,"SoundDuration":88757,"Delta":59084524},{"NoteNumber":76,"Velocity":57,"Duration":275229,"SoundDuration":275229,"Delta":59262039},{"NoteNumber":72,"Velocity":41,"Duration":363464,"SoundDuration":363464,"Delta":59262039},{"NoteNumber":69,"Velocity":41,"Duration":363464,"SoundDuration":363464,"Delta":59262039},{"NoteNumber":81,"Velocity":52,"Duration":44117,"SoundDuration":44117,"Delta":59537268},{"NoteNumber":83,"Velocity":52,"Duration":44117,"SoundDuration":44117,"Delta":59581386},{"NoteNumber":84,"Velocity":50,"Duration":182926,"SoundDuration":182926,"Delta":59625503},{"NoteNumber":76,"Velocity":54,"Duration":184631,"SoundDuration":184631,"Delta":59808430},{"NoteNumber":74,"Velocity":54,"Duration":93167,"SoundDuration":93167,"Delta":59993062},{"NoteNumber":66,"Velocity":36,"Duration":93167,"SoundDuration":93167,"Delta":59993062},{"NoteNumber":72,"Velocity":36,"Duration":93167,"SoundDuration":93167,"Delta":59993062},{"NoteNumber":74,"Velocity":54,"Duration":93167,"SoundDuration":93167,"Delta":60179397},{"NoteNumber":66,"Velocity":36,"Duration":93167,"SoundDuration":93167,"Delta":60179397},{"NoteNumber":72,"Velocity":36,"Duration":93167,"SoundDuration":93167,"Delta":60179397},{"NoteNumber":74,"Velocity":54,"Duration":93167,"SoundDuration":93167,"Delta":60365733},{"NoteNumber":66,"Velocity":36,"Duration":93167,"SoundDuration":93167,"Delta":60365733},{"NoteNumber":72,"Velocity":36,"Duration":93167,"SoundDuration":93167,"Delta":60365733},{"NoteNumber":74,"Velocity":54,"Duration":93167,"SoundDuration":93167,"Delta":60552068},{"NoteNumber":66,"Velocity":36,"Duration":93167,"SoundDuration":93167,"Delta":60552068},{"NoteNumber":72,"Velocity":36,"Duration":93167,"SoundDuration":93167,"Delta":60552068},{"NoteNumber":74,"Velocity":57,"Duration":273556,"SoundDuration":273556,"Delta":60738404},{"NoteNumber":71,"Velocity":41,"Duration":362051,"SoundDuration":362051,"Delta":60738404},{"NoteNumber":67,"Velocity":41,"Duration":362051,"SoundDuration":362051,"Delta":60738404},{"NoteNumber":79,"Velocity":49,"Duration":44247,"SoundDuration":44247,"Delta":61011960},{"NoteNumber":81,"Velocity":48,"Duration":44247,"SoundDuration":44247,"Delta":61056208},{"NoteNumber":83,"Velocity":45,"Duration":181269,"SoundDuration":181269,"Delta":61100456},{"NoteNumber":83,"Velocity":39,"Duration":47318,"SoundDuration":47318,"Delta":62822511},{"NoteNumber":81,"Velocity":39,"Duration":47318,"SoundDuration":47318,"Delta":62869830},{"NoteNumber":79,"Velocity":47,"Duration":94637,"SoundDuration":94637,"Delta":62917148},{"NoteNumber":79,"Velocity":39,"Duration":47318,"SoundDuration":47318,"Delta":63201060},{"NoteNumber":78,"Velocity":39,"Duration":47318,"SoundDuration":47318,"Delta":63248379},{"NoteNumber":76,"Velocity":50,"Duration":94637,"SoundDuration":94637,"Delta":63295697},{"NoteNumber":76,"Velocity":38,"Duration":47318,"SoundDuration":47318,"Delta":63579609},{"NoteNumber":74,"Velocity":38,"Duration":47318,"SoundDuration":47318,"Delta":63626928},{"NoteNumber":72,"Velocity":50,"Duration":189274,"SoundDuration":189274,"Delta":63674246},{"NoteNumber":64,"Velocity":34,"Duration":189274,"SoundDuration":189274,"Delta":63674246},{"NoteNumber":67,"Velocity":34,"Duration":189274,"SoundDuration":189274,"Delta":63674246},{"NoteNumber":75,"Velocity":51,"Duration":47318,"SoundDuration":47318,"Delta":64336707},{"NoteNumber":67,"Velocity":44,"Duration":47318,"SoundDuration":47318,"Delta":64336707},{"NoteNumber":74,"Velocity":51,"Duration":47318,"SoundDuration":47318,"Delta":64384026},{"NoteNumber":65,"Velocity":44,"Duration":47318,"SoundDuration":47318,"Delta":64384026},{"NoteNumber":72,"Velocity":59,"Duration":191083,"SoundDuration":191083,"Delta":64431344},{"NoteNumber":63,"Velocity":55,"Duration":382165,"SoundDuration":382165,"Delta":64431344},{"NoteNumber":72,"Velocity":55,"Duration":191082,"SoundDuration":191082,"Delta":64622427},{"NoteNumber":72,"Velocity":55,"Duration":191083,"SoundDuration":191083,"Delta":64813510},{"NoteNumber":72,"Velocity":55,"Duration":191082,"SoundDuration":191082,"Delta":65004593},{"NoteNumber":69,"Velocity":47,"Duration":47770,"SoundDuration":47770,"Delta":65100135},{"NoteNumber":67,"Velocity":47,"Duration":47770,"SoundDuration":47770,"Delta":65147906},{"NoteNumber":72,"Velocity":60,"Duration":272727,"SoundDuration":272727,"Delta":65195676},{"NoteNumber":62,"Velocity":56,"Duration":359936,"SoundDuration":359936,"Delta":65195676},{"NoteNumber":66,"Velocity":56,"Duration":359936,"SoundDuration":359936,"Delta":65195676},{"NoteNumber":74,"Velocity":46,"Duration":43604,"SoundDuration":43604,"Delta":65468403},{"NoteNumber":72,"Velocity":46,"Duration":43604,"SoundDuration":43604,"Delta":65512008},{"NoteNumber":71,"Velocity":56,"Duration":181818,"SoundDuration":181818,"Delta":65555613},{"NoteNumber":64,"Velocity":46,"Duration":363635,"SoundDuration":363635,"Delta":65555613},{"NoteNumber":67,"Velocity":46,"Duration":363635,"SoundDuration":363635,"Delta":65555613},{"NoteNumber":71,"Velocity":57,"Duration":181817,"SoundDuration":181817,"Delta":65737431},{"NoteNumber":69,"Velocity":60,"Duration":186915,"SoundDuration":186915,"Delta":65919249},{"NoteNumber":60,"Velocity":46,"Duration":377392,"SoundDuration":377392,"Delta":65919249},{"NoteNumber":64,"Velocity":46,"Duration":377392,"SoundDuration":377392,"Delta":65919249},{"NoteNumber":76,"Velocity":56,"Duration":190476,"SoundDuration":190476,"Delta":66106165},{"NoteNumber":74,"Velocity":56,"Duration":190475,"SoundDuration":190475,"Delta":66296641},{"NoteNumber":62,"Velocity":46,"Duration":380951,"SoundDuration":380951,"Delta":66296641},{"NoteNumber":66,"Velocity":56,"Duration":190476,"SoundDuration":190476,"Delta":66487117},{"NoteNumber":67,"Velocity":54,"Duration":89552,"SoundDuration":89552,"Delta":66677593},{"NoteNumber":55,"Velocity":37,"Duration":179104,"SoundDuration":179104,"Delta":66677593},{"NoteNumber":59,"Velocity":44,"Duration":179104,"SoundDuration":179104,"Delta":66677593},{"NoteNumber":69,"Velocity":49,"Duration":89552,"SoundDuration":89552,"Delta":66767145},{"NoteNumber":71,"Velocity":50,"Duration":89552,"SoundDuration":89552,"Delta":66856697},{"NoteNumber":55,"Velocity":32,"Duration":179104,"SoundDuration":179104,"Delta":66856697},{"NoteNumber":59,"Velocity":38,"Duration":179104,"SoundDuration":179104,"Delta":66856697},{"NoteNumber":72,"Velocity":51,"Duration":89552,"SoundDuration":89552,"Delta":66946249},{"NoteNumber":74,"Velocity":51,"Duration":89552,"SoundDuration":89552,"Delta":67035802},{"NoteNumber":55,"Velocity":32,"Duration":179104,"SoundDuration":179104,"Delta":67035802},{"NoteNumber":59,"Velocity":38,"Duration":179104,"SoundDuration":179104,"Delta":67035802},{"NoteNumber":71,"Velocity":51,"Duration":89552,"SoundDuration":89552,"Delta":67125354},{"NoteNumber":69,"Velocity":50,"Duration":89552,"SoundDuration":89552,"Delta":67214906},{"NoteNumber":55,"Velocity":32,"Duration":179104,"SoundDuration":179104,"Delta":67214906},{"NoteNumber":59,"Velocity":38,"Duration":179104,"SoundDuration":179104,"Delta":67214906},{"NoteNumber":67,"Velocity":50,"Duration":89552,"SoundDuration":89552,"Delta":67304458},{"NoteNumber":66,"Velocity":53,"Duration":89552,"SoundDuration":89552,"Delta":67394011},{"NoteNumber":55,"Velocity":36,"Duration":179104,"SoundDuration":179104,"Delta":67394011},{"NoteNumber":60,"Velocity":43,"Duration":179104,"SoundDuration":179104,"Delta":67394011},{"NoteNumber":67,"Velocity":48,"Duration":89552,"SoundDuration":89552,"Delta":67483563},{"NoteNumber":69,"Velocity":49,"Duration":89552,"SoundDuration":89552,"Delta":67573115},{"NoteNumber":55,"Velocity":32,"Duration":179104,"SoundDuration":179104,"Delta":67573115},{"NoteNumber":60,"Velocity":38,"Duration":179104,"SoundDuration":179104,"Delta":67573115},{"NoteNumber":71,"Velocity":49,"Duration":89552,"SoundDuration":89552,"Delta":67662667},{"NoteNumber":72,"Velocity":49,"Duration":89552,"SoundDuration":89552,"Delta":67752220},{"NoteNumber":55,"Velocity":32,"Duration":179104,"SoundDuration":179104,"Delta":67752220},{"NoteNumber":60,"Velocity":38,"Duration":179104,"SoundDuration":179104,"Delta":67752220},{"NoteNumber":69,"Velocity":49,"Duration":89552,"SoundDuration":89552,"Delta":67841772},{"NoteNumber":67,"Velocity":48,"Duration":89552,"SoundDuration":89552,"Delta":67931324},{"NoteNumber":55,"Velocity":32,"Duration":179104,"SoundDuration":179104,"Delta":67931324},{"NoteNumber":60,"Velocity":38,"Duration":179104,"SoundDuration":179104,"Delta":67931324},{"NoteNumber":66,"Velocity":48,"Duration":89552,"SoundDuration":89552,"Delta":68020876},{"NoteNumber":67,"Velocity":52,"Duration":89552,"SoundDuration":89552,"Delta":68110429},{"NoteNumber":55,"Velocity":37,"Duration":179104,"SoundDuration":179104,"Delta":68110429},{"NoteNumber":59,"Velocity":44,"Duration":179104,"SoundDuration":179104,"Delta":68110429},{"NoteNumber":69,"Velocity":47,"Duration":89552,"SoundDuration":89552,"Delta":68199981},{"NoteNumber":71,"Velocity":48,"Duration":89552,"SoundDuration":89552,"Delta":68289533},{"NoteNumber":55,"Velocity":32,"Duration":179104,"SoundDuration":179104,"Delta":68289533},{"NoteNumber":59,"Velocity":38,"Duration":179104,"SoundDuration":179104,"Delta":68289533},{"NoteNumber":72,"Velocity":49,"Duration":89552,"SoundDuration":89552,"Delta":68379085},{"NoteNumber":74,"Velocity":50,"Duration":89552,"SoundDuration":89552,"Delta":68468638},{"NoteNumber":55,"Velocity":32,"Duration":179104,"SoundDuration":179104,"Delta":68468638},{"NoteNumber":59,"Velocity":38,"Duration":179104,"SoundDuration":179104,"Delta":68468638},{"NoteNumber":71,"Velocity":49,"Duration":89552,"SoundDuration":89552,"Delta":68558190},{"NoteNumber":69,"Velocity":48,"Duration":89552,"SoundDuration":89552,"Delta":68647742},{"NoteNumber":55,"Velocity":32,"Duration":179104,"SoundDuration":179104,"Delta":68647742},{"NoteNumber":59,"Velocity":38,"Duration":179104,"SoundDuration":179104,"Delta":68647742},{"NoteNumber":67,"Velocity":47,"Duration":89552,"SoundDuration":89552,"Delta":68737294},{"NoteNumber":66,"Velocity":53,"Duration":89552,"SoundDuration":89552,"Delta":68826847},{"NoteNumber":55,"Velocity":37,"Duration":179104,"SoundDuration":179104,"Delta":68826847},{"NoteNumber":60,"Velocity":44,"Duration":179104,"SoundDuration":179104,"Delta":68826847},{"NoteNumber":67,"Velocity":47,"Duration":89552,"SoundDuration":89552,"Delta":68916399},{"NoteNumber":69,"Velocity":47,"Duration":89552,"SoundDuration":89552,"Delta":69005951},{"NoteNumber":55,"Velocity":32,"Duration":179104,"SoundDuration":179104,"Delta":69005951},{"NoteNumber":60,"Velocity":38,"Duration":179104,"SoundDuration":179104,"Delta":69005951},{"NoteNumber":71,"Velocity":48,"Duration":89552,"SoundDuration":89552,"Delta":69095503},{"NoteNumber":72,"Velocity":49,"Duration":89552,"SoundDuration":89552,"Delta":69185056},{"NoteNumber":55,"Velocity":32,"Duration":179104,"SoundDuration":179104,"Delta":69185056},{"NoteNumber":60,"Velocity":38,"Duration":179104,"SoundDuration":179104,"Delta":69185056},{"NoteNumber":69,"Velocity":49,"Duration":89552,"SoundDuration":89552,"Delta":69274608},{"NoteNumber":67,"Velocity":48,"Duration":89552,"SoundDuration":89552,"Delta":69364160},{"NoteNumber":55,"Velocity":32,"Duration":179104,"SoundDuration":179104,"Delta":69364160},{"NoteNumber":60,"Velocity":38,"Duration":179104,"SoundDuration":179104,"Delta":69364160},{"NoteNumber":66,"Velocity":48,"Duration":89552,"SoundDuration":89552,"Delta":69453712},{"NoteNumber":67,"Velocity":58,"Duration":334395,"SoundDuration":334395,"Delta":69543265},{"NoteNumber":55,"Velocity":38,"Duration":382165,"SoundDuration":382165,"Delta":69543265},{"NoteNumber":59,"Velocity":45,"Duration":382165,"SoundDuration":382165,"Delta":69543265},{"NoteNumber":78,"Velocity":65,"Duration":47770,"SoundDuration":47770,"Delta":69877660},{"NoteNumber":79,"Velocity":76,"Duration":382165,"SoundDuration":382165,"Delta":69925431},{"NoteNumber":31,"Velocity":69,"Duration":382165,"SoundDuration":382165,"Delta":70307597},{"NoteNumber":43,"Velocity":69,"Duration":382165,"SoundDuration":382165,"Delta":70307597},{"NoteNumber":40,"Velocity":60,"Duration":415269,"SoundDuration":415269,"Delta":71071929},{"NoteNumber":52,"Velocity":60,"Duration":415269,"SoundDuration":415269,"Delta":71071929},{"NoteNumber":64,"Velocity":57,"Duration":209789,"SoundDuration":209789,"Delta":71277408},{"NoteNumber":76,"Velocity":65,"Duration":592893,"SoundDuration":592893,"Delta":71487198},{"NoteNumber":67,"Velocity":39,"Duration":193548,"SoundDuration":193548,"Delta":71687867},{"NoteNumber":71,"Velocity":39,"Duration":193548,"SoundDuration":193548,"Delta":71687867},{"NoteNumber":66,"Velocity":45,"Duration":600031,"SoundDuration":600031,"Delta":71881416},{"NoteNumber":69,"Velocity":45,"Duration":600031,"SoundDuration":600031,"Delta":71881416},{"NoteNumber":75,"Velocity":56,"Duration":202020,"SoundDuration":202020,"Delta":72080091},{"NoteNumber":78,"Velocity":70,"Duration":589704,"SoundDuration":589704,"Delta":72282111},{"NoteNumber":69,"Velocity":39,"Duration":191693,"SoundDuration":191693,"Delta":72481447},{"NoteNumber":72,"Velocity":39,"Duration":191693,"SoundDuration":191693,"Delta":72481447},{"NoteNumber":67,"Velocity":45,"Duration":606155,"SoundDuration":606155,"Delta":72673140},{"NoteNumber":71,"Velocity":45,"Duration":606155,"SoundDuration":606155,"Delta":72673140},{"NoteNumber":76,"Velocity":55,"Duration":204778,"SoundDuration":204778,"Delta":72871816},{"NoteNumber":79,"Velocity":72,"Duration":598176,"SoundDuration":598176,"Delta":73076594},{"NoteNumber":64,"Velocity":40,"Duration":194805,"SoundDuration":194805,"Delta":73279296},{"NoteNumber":70,"Velocity":40,"Duration":194805,"SoundDuration":194805,"Delta":73279296},{"NoteNumber":62,"Velocity":45,"Duration":605419,"SoundDuration":605419,"Delta":73474101},{"NoteNumber":71,"Velocity":45,"Duration":605419,"SoundDuration":605419,"Delta":73474101},{"NoteNumber":78,"Velocity":63,"Duration":204081,"SoundDuration":204081,"Delta":73674770},{"NoteNumber":83,"Velocity":78,"Duration":597416,"SoundDuration":597416,"Delta":73878852},{"NoteNumber":62,"Velocity":45,"Duration":196078,"SoundDuration":196078,"Delta":74079521},{"NoteNumber":66,"Velocity":45,"Duration":196078,"SoundDuration":196078,"Delta":74079521},{"NoteNumber":61,"Velocity":48,"Duration":595513,"SoundDuration":595513,"Delta":74275599},{"NoteNumber":64,"Velocity":48,"Duration":595513,"SoundDuration":595513,"Delta":74275599},{"NoteNumber":82,"Velocity":66,"Duration":194175,"SoundDuration":194175,"Delta":74476268},{"NoteNumber":88,"Velocity":72,"Duration":602007,"SoundDuration":602007,"Delta":74670443},{"NoteNumber":85,"Velocity":72,"Duration":602007,"SoundDuration":602007,"Delta":74670443},{"NoteNumber":58,"Velocity":48,"Duration":200668,"SoundDuration":200668,"Delta":74871112},{"NoteNumber":59,"Velocity":54,"Duration":403371,"SoundDuration":403371,"Delta":75071781},{"NoteNumber":83,"Velocity":60,"Duration":405405,"SoundDuration":405405,"Delta":75272450},{"NoteNumber":86,"Velocity":60,"Duration":405405,"SoundDuration":405405,"Delta":75272450},{"NoteNumber":64,"Velocity":49,"Duration":405405,"SoundDuration":405405,"Delta":75475153},{"NoteNumber":85,"Velocity":56,"Duration":405405,"SoundDuration":405405,"Delta":75677855},{"NoteNumber":76,"Velocity":56,"Duration":405405,"SoundDuration":405405,"Delta":75677855},{"NoteNumber":66,"Velocity":49,"Duration":405405,"SoundDuration":405405,"Delta":75880558},{"NoteNumber":74,"Velocity":57,"Duration":402702,"SoundDuration":402702,"Delta":76083260},{"NoteNumber":83,"Velocity":57,"Duration":402702,"SoundDuration":402702,"Delta":76083260},{"NoteNumber":66,"Velocity":49,"Duration":400000,"SoundDuration":400000,"Delta":76285963},{"NoteNumber":73,"Velocity":57,"Duration":200000,"SoundDuration":200000,"Delta":76485963},{"NoteNumber":82,"Velocity":57,"Duration":200000,"SoundDuration":200000,"Delta":76485963},{"NoteNumber":59,"Velocity":49,"Duration":396721,"SoundDuration":396721,"Delta":76685963},{"NoteNumber":71,"Velocity":56,"Duration":196721,"SoundDuration":196721,"Delta":76885963},{"NoteNumber":83,"Velocity":66,"Duration":196721,"SoundDuration":196721,"Delta":77082684},{"NoteNumber":39,"Velocity":56,"Duration":196721,"SoundDuration":196721,"Delta":77279406},{"NoteNumber":51,"Velocity":56,"Duration":196721,"SoundDuration":196721,"Delta":77279406},{"NoteNumber":40,"Velocity":60,"Duration":413812,"SoundDuration":413812,"Delta":77476127},{"NoteNumber":52,"Velocity":60,"Duration":413812,"SoundDuration":413812,"Delta":77476127},{"NoteNumber":64,"Velocity":57,"Duration":208333,"SoundDuration":208333,"Delta":77681607},{"NoteNumber":76,"Velocity":65,"Duration":596777,"SoundDuration":596777,"Delta":77889940},{"NoteNumber":67,"Velocity":39,"Duration":195439,"SoundDuration":195439,"Delta":78090609},{"NoteNumber":71,"Velocity":39,"Duration":195439,"SoundDuration":195439,"Delta":78090609},{"NoteNumber":66,"Velocity":45,"Duration":606817,"SoundDuration":606817,"Delta":78286049},{"NoteNumber":69,"Velocity":45,"Duration":606817,"SoundDuration":606817,"Delta":78286049},{"NoteNumber":75,"Velocity":56,"Duration":205479,"SoundDuration":205479,"Delta":78486718},{"NoteNumber":78,"Velocity":70,"Duration":595513,"SoundDuration":595513,"Delta":78692197},{"NoteNumber":69,"Velocity":39,"Duration":194175,"SoundDuration":194175,"Delta":78892866},{"NoteNumber":72,"Velocity":39,"Duration":194175,"SoundDuration":194175,"Delta":78892866},{"NoteNumber":67,"Velocity":45,"Duration":607453,"SoundDuration":607453,"Delta":79087041},{"NoteNumber":71,"Velocity":45,"Duration":607453,"SoundDuration":607453,"Delta":79087041},{"NoteNumber":76,"Velocity":55,"Duration":204081,"SoundDuration":204081,"Delta":79287710},{"NoteNumber":79,"Velocity":72,"Duration":598176,"SoundDuration":598176,"Delta":79491792},{"NoteNumber":64,"Velocity":40,"Duration":194805,"SoundDuration":194805,"Delta":79694494},{"NoteNumber":70,"Velocity":40,"Duration":194805,"SoundDuration":194805,"Delta":79694494},{"NoteNumber":62,"Velocity":45,"Duration":605419,"SoundDuration":605419,"Delta":79889299},{"NoteNumber":71,"Velocity":45,"Duration":605419,"SoundDuration":605419,"Delta":79889299},{"NoteNumber":78,"Velocity":63,"Duration":204081,"SoundDuration":204081,"Delta":80089968},{"NoteNumber":83,"Velocity":76,"Duration":597416,"SoundDuration":597416,"Delta":80294050},{"NoteNumber":62,"Velocity":45,"Duration":196078,"SoundDuration":196078,"Delta":80494719},{"NoteNumber":66,"Velocity":45,"Duration":196078,"SoundDuration":196078,"Delta":80494719},{"NoteNumber":61,"Velocity":48,"Duration":604086,"SoundDuration":604086,"Delta":80690797},{"NoteNumber":64,"Velocity":48,"Duration":604086,"SoundDuration":604086,"Delta":80690797},{"NoteNumber":82,"Velocity":66,"Duration":204081,"SoundDuration":204081,"Delta":80891466},{"NoteNumber":88,"Velocity":72,"Duration":598006,"SoundDuration":598006,"Delta":81095548},{"NoteNumber":85,"Velocity":72,"Duration":598006,"SoundDuration":598006,"Delta":81095548},{"NoteNumber":58,"Velocity":48,"Duration":199335,"SoundDuration":199335,"Delta":81294883},{"NoteNumber":59,"Velocity":54,"Duration":402725,"SoundDuration":402725,"Delta":81494219},{"NoteNumber":83,"Velocity":60,"Duration":406779,"SoundDuration":406779,"Delta":81693554},{"NoteNumber":86,"Velocity":60,"Duration":406779,"SoundDuration":406779,"Delta":81693554},{"NoteNumber":64,"Velocity":49,"Duration":402065,"SoundDuration":402065,"Delta":81896944},{"NoteNumber":85,"Velocity":56,"Duration":397351,"SoundDuration":397351,"Delta":82100334},{"NoteNumber":76,"Velocity":56,"Duration":397351,"SoundDuration":397351,"Delta":82100334},{"NoteNumber":66,"Velocity":49,"Duration":397351,"SoundDuration":397351,"Delta":82299010},{"NoteNumber":74,"Velocity":57,"Duration":397351,"SoundDuration":397351,"Delta":82497685},{"NoteNumber":83,"Velocity":57,"Duration":397351,"SoundDuration":397351,"Delta":82497685},{"NoteNumber":66,"Velocity":49,"Duration":397351,"SoundDuration":397351,"Delta":82696361},{"NoteNumber":73,"Velocity":57,"Duration":198675,"SoundDuration":198675,"Delta":82895036},{"NoteNumber":82,"Velocity":57,"Duration":198675,"SoundDuration":198675,"Delta":82895036},{"NoteNumber":59,"Velocity":49,"Duration":395397,"SoundDuration":395397,"Delta":83093712},{"NoteNumber":71,"Velocity":56,"Duration":196721,"SoundDuration":196721,"Delta":83292387},{"NoteNumber":83,"Velocity":66,"Duration":196721,"SoundDuration":196721,"Delta":83489109},{"NoteNumber":35,"Velocity":56,"Duration":196721,"SoundDuration":196721,"Delta":83685830},{"NoteNumber":47,"Velocity":56,"Duration":196721,"SoundDuration":196721,"Delta":83685830},{"NoteNumber":36,"Velocity":60,"Duration":406511,"SoundDuration":406511,"Delta":83882552},{"NoteNumber":48,"Velocity":60,"Duration":406511,"SoundDuration":406511,"Delta":83882552},{"NoteNumber":69,"Velocity":57,"Duration":209789,"SoundDuration":209789,"Delta":84079273},{"NoteNumber":81,"Velocity":68,"Duration":596777,"SoundDuration":596777,"Delta":84289063},{"NoteNumber":60,"Velocity":35,"Duration":195439,"SoundDuration":195439,"Delta":84489732},{"NoteNumber":64,"Velocity":42,"Duration":195439,"SoundDuration":195439,"Delta":84489732},{"NoteNumber":59,"Velocity":40,"Duration":596366,"SoundDuration":596366,"Delta":84685172},{"NoteNumber":62,"Velocity":48,"Duration":596366,"SoundDuration":596366,"Delta":84685172},{"NoteNumber":80,"Velocity":56,"Duration":192307,"SoundDuration":192307,"Delta":84885841},{"NoteNumber":86,"Velocity":70,"Duration":610169,"SoundDuration":610169,"Delta":85078148},{"NoteNumber":59,"Velocity":40,"Duration":203389,"SoundDuration":203389,"Delta":85281538},{"NoteNumber":56,"Velocity":34,"Duration":203389,"SoundDuration":203389,"Delta":85281538},{"NoteNumber":57,"Velocity":39,"Duration":406436,"SoundDuration":406436,"Delta":85484928},{"NoteNumber":60,"Velocity":46,"Duration":406436,"SoundDuration":406436,"Delta":85484928},{"NoteNumber":84,"Velocity":61,"Duration":407476,"SoundDuration":407476,"Delta":85688318},{"NoteNumber":62,"Velocity":44,"Duration":410262,"SoundDuration":410262,"Delta":85891364},{"NoteNumber":59,"Velocity":37,"Duration":410262,"SoundDuration":410262,"Delta":85891364},{"NoteNumber":83,"Velocity":59,"Duration":413087,"SoundDuration":413087,"Delta":86095794},{"NoteNumber":64,"Velocity":40,"Duration":416011,"SoundDuration":416011,"Delta":86301627},{"NoteNumber":60,"Velocity":34,"Duration":416011,"SoundDuration":416011,"Delta":86301627},{"NoteNumber":81,"Velocity":57,"Duration":208757,"SoundDuration":208757,"Delta":86508881},{"NoteNumber":78,"Velocity":43,"Duration":210526,"SoundDuration":210526,"Delta":86932692},{"NoteNumber":79,"Velocity":49,"Duration":604027,"SoundDuration":604027,"Delta":87143219},{"NoteNumber":71,"Velocity":30,"Duration":201342,"SoundDuration":201342,"Delta":87344561},{"NoteNumber":74,"Velocity":30,"Duration":201342,"SoundDuration":201342,"Delta":87344561},{"NoteNumber":69,"Velocity":35,"Duration":395517,"SoundDuration":395517,"Delta":87545904},{"NoteNumber":72,"Velocity":35,"Duration":395517,"SoundDuration":395517,"Delta":87545904},{"NoteNumber":78,"Velocity":45,"Duration":194175,"SoundDuration":194175,"Delta":87747246},{"NoteNumber":84,"Velocity":49,"Duration":602119,"SoundDuration":602119,"Delta":87941421},{"NoteNumber":81,"Velocity":49,"Duration":602119,"SoundDuration":602119,"Delta":87941421},{"NoteNumber":66,"Velocity":31,"Duration":200668,"SoundDuration":200668,"Delta":88142090},{"NoteNumber":67,"Velocity":36,"Duration":403029,"SoundDuration":403029,"Delta":88342759},{"NoteNumber":79,"Velocity":45,"Duration":405351,"SoundDuration":405351,"Delta":88543541},{"NoteNumber":83,"Velocity":45,"Duration":405351,"SoundDuration":405351,"Delta":88543541},{"NoteNumber":63,"Velocity":36,"Duration":407127,"SoundDuration":407127,"Delta":88745788},{"NoteNumber":78,"Velocity":43,"Duration":409036,"SoundDuration":409036,"Delta":88948892},{"NoteNumber":81,"Velocity":43,"Duration":409036,"SoundDuration":409036,"Delta":88948892},{"NoteNumber":64,"Velocity":30,"Duration":415538,"SoundDuration":415538,"Delta":89152916},{"NoteNumber":76,"Velocity":42,"Duration":421053,"SoundDuration":421053,"Delta":89357928},{"NoteNumber":79,"Velocity":42,"Duration":421053,"SoundDuration":421053,"Delta":89357928},{"NoteNumber":59,"Velocity":35,"Duration":434407,"SoundDuration":434407,"Delta":89568454},{"NoteNumber":75,"Velocity":44,"Duration":223880,"SoundDuration":223880,"Delta":89778981},{"NoteNumber":78,"Velocity":44,"Duration":223880,"SoundDuration":223880,"Delta":89778981},{"NoteNumber":83,"Velocity":58,"Duration":97402,"SoundDuration":97402,"Delta":90002861},{"NoteNumber":81,"Velocity":58,"Duration":97402,"SoundDuration":97402,"Delta":90100264},{"NoteNumber":79,"Velocity":58,"Duration":97402,"SoundDuration":97402,"Delta":90197666},{"NoteNumber":78,"Velocity":58,"Duration":97402,"SoundDuration":97402,"Delta":90295069},{"NoteNumber":76,"Velocity":66,"Duration":397390,"SoundDuration":397390,"Delta":90392471},{"NoteNumber":52,"Velocity":55,"Duration":196721,"SoundDuration":196721,"Delta":90593140},{"NoteNumber":64,"Velocity":62,"Duration":611070,"SoundDuration":611070,"Delta":90789862},{"NoteNumber":67,"Velocity":55,"Duration":209058,"SoundDuration":209058,"Delta":90991204},{"NoteNumber":76,"Velocity":55,"Duration":209058,"SoundDuration":209058,"Delta":90991204},{"NoteNumber":69,"Velocity":60,"Duration":598059,"SoundDuration":598059,"Delta":91200263},{"NoteNumber":78,"Velocity":60,"Duration":598059,"SoundDuration":598059,"Delta":91200263},{"NoteNumber":63,"Velocity":47,"Duration":196721,"SoundDuration":196721,"Delta":91400932},{"NoteNumber":66,"Velocity":51,"Duration":607467,"SoundDuration":607467,"Delta":91597654},{"NoteNumber":69,"Velocity":55,"Duration":204778,"SoundDuration":204778,"Delta":91798323},{"NoteNumber":78,"Velocity":55,"Duration":204778,"SoundDuration":204778,"Delta":91798323},{"NoteNumber":71,"Velocity":60,"Duration":600083,"SoundDuration":600083,"Delta":92003101},{"NoteNumber":79,"Velocity":60,"Duration":600083,"SoundDuration":600083,"Delta":92003101},{"NoteNumber":64,"Velocity":49,"Duration":196721,"SoundDuration":196721,"Delta":92205121},{"NoteNumber":67,"Velocity":54,"Duration":606093,"SoundDuration":606093,"Delta":92401842},{"NoteNumber":71,"Velocity":58,"Duration":204081,"SoundDuration":204081,"Delta":92603185},{"NoteNumber":79,"Velocity":58,"Duration":204081,"SoundDuration":204081,"Delta":92603185},{"NoteNumber":72,"Velocity":66,"Duration":593645,"SoundDuration":593645,"Delta":92807266},{"NoteNumber":81,"Velocity":66,"Duration":593645,"SoundDuration":593645,"Delta":92807266},{"NoteNumber":66,"Velocity":47,"Duration":192307,"SoundDuration":192307,"Delta":93007935},{"NoteNumber":69,"Velocity":51,"Duration":602770,"SoundDuration":602770,"Delta":93200243},{"NoteNumber":78,"Velocity":55,"Duration":204081,"SoundDuration":204081,"Delta":93400912},{"NoteNumber":75,"Velocity":60,"Duration":588347,"SoundDuration":588347,"Delta":93604993},{"NoteNumber":66,"Velocity":53,"Duration":192307,"SoundDuration":192307,"Delta":93803013},{"NoteNumber":63,"Velocity":58,"Duration":598060,"SoundDuration":598060,"Delta":93995321},{"NoteNumber":72,"Velocity":56,"Duration":202020,"SoundDuration":202020,"Delta":94193341},{"NoteNumber":69,"Velocity":60,"Duration":587733,"SoundDuration":587733,"Delta":94395361},{"NoteNumber":60,"Velocity":54,"Duration":191693,"SoundDuration":191693,"Delta":94593381},{"NoteNumber":57,"Velocity":58,"Duration":597408,"SoundDuration":597408,"Delta":94785074},{"NoteNumber":66,"Velocity":56,"Duration":202020,"SoundDuration":202020,"Delta":94983094},{"NoteNumber":63,"Velocity":61,"Duration":587044,"SoundDuration":587044,"Delta":95185114},{"NoteNumber":54,"Velocity":52,"Duration":192307,"SoundDuration":192307,"Delta":95382483},{"NoteNumber":51,"Velocity":50,"Duration":197368,"SoundDuration":197368,"Delta":95574790},{"NoteNumber":63,"Velocity":49,"Duration":95237,"SoundDuration":95237,"Delta":95772159},{"NoteNumber":51,"Velocity":42,"Duration":95237,"SoundDuration":95237,"Delta":95772159},{"NoteNumber":60,"Velocity":49,"Duration":95238,"SoundDuration":95238,"Delta":95867397},{"NoteNumber":48,"Velocity":42,"Duration":95238,"SoundDuration":95238,"Delta":95867397},{"NoteNumber":57,"Velocity":58,"Duration":98360,"SoundDuration":98360,"Delta":95962635},{"NoteNumber":45,"Velocity":55,"Duration":98360,"SoundDuration":98360,"Delta":95962635},{"NoteNumber":60,"Velocity":49,"Duration":95237,"SoundDuration":95237,"Delta":96159356},{"NoteNumber":48,"Velocity":42,"Duration":95237,"SoundDuration":95237,"Delta":96159356},{"NoteNumber":57,"Velocity":49,"Duration":95238,"SoundDuration":95238,"Delta":96254594},{"NoteNumber":45,"Velocity":42,"Duration":95238,"SoundDuration":95238,"Delta":96254594},{"NoteNumber":54,"Velocity":58,"Duration":98039,"SoundDuration":98039,"Delta":96349832},{"NoteNumber":42,"Velocity":56,"Duration":98039,"SoundDuration":98039,"Delta":96349832},{"NoteNumber":57,"Velocity":54,"Duration":94936,"SoundDuration":94936,"Delta":96545911},{"NoteNumber":45,"Velocity":49,"Duration":94936,"SoundDuration":94936,"Delta":96545911},{"NoteNumber":54,"Velocity":54,"Duration":94936,"SoundDuration":94936,"Delta":96640848},{"NoteNumber":42,"Velocity":49,"Duration":94936,"SoundDuration":94936,"Delta":96640848},{"NoteNumber":51,"Velocity":75,"Duration":200669,"SoundDuration":200669,"Delta":96735784},{"NoteNumber":39,"Velocity":63,"Duration":200669,"SoundDuration":200669,"Delta":96735784},{"NoteNumber":84,"Velocity":40,"Duration":94339,"SoundDuration":94339,"Delta":97337791},{"NoteNumber":81,"Velocity":40,"Duration":94339,"SoundDuration":94339,"Delta":97432131},{"NoteNumber":78,"Velocity":44,"Duration":95846,"SoundDuration":95846,"Delta":97526470},{"NoteNumber":81,"Velocity":40,"Duration":93750,"SoundDuration":93750,"Delta":97718164},{"NoteNumber":78,"Velocity":40,"Duration":93750,"SoundDuration":93750,"Delta":97811914},{"NoteNumber":75,"Velocity":44,"Duration":95541,"SoundDuration":95541,"Delta":97905664},{"NoteNumber":78,"Velocity":36,"Duration":94339,"SoundDuration":94339,"Delta":98096747},{"NoteNumber":75,"Velocity":36,"Duration":94339,"SoundDuration":94339,"Delta":98191086},{"NoteNumber":72,"Velocity":43,"Duration":192925,"SoundDuration":192925,"Delta":98285426},{"NoteNumber":60,"Velocity":57,"Duration":204081,"SoundDuration":204081,"Delta":99237315},{"NoteNumber":59,"Velocity":60,"Duration":199335,"SoundDuration":199335,"Delta":99441396},{"NoteNumber":51,"Velocity":52,"Duration":394775,"SoundDuration":394775,"Delta":99441396},{"NoteNumber":69,"Velocity":58,"Duration":195439,"SoundDuration":195439,"Delta":99640732},{"NoteNumber":52,"Velocity":54,"Duration":198675,"SoundDuration":198675,"Delta":99836171},{"NoteNumber":59,"Velocity":56,"Duration":193757,"SoundDuration":193757,"Delta":100034847},{"NoteNumber":67,"Velocity":56,"Duration":193757,"SoundDuration":193757,"Delta":100034847},{"NoteNumber":45,"Velocity":51,"Duration":194489,"SoundDuration":194489,"Delta":100228605},{"NoteNumber":57,"Velocity":55,"Duration":195334,"SoundDuration":195334,"Delta":100423095},{"NoteNumber":66,"Velocity":55,"Duration":195334,"SoundDuration":195334,"Delta":100423095},{"NoteNumber":47,"Velocity":51,"Duration":196292,"SoundDuration":196292,"Delta":100618429},{"NoteNumber":55,"Velocity":55,"Duration":197152,"SoundDuration":197152,"Delta":100814722},{"NoteNumber":64,"Velocity":55,"Duration":197152,"SoundDuration":197152,"Delta":100814722},{"NoteNumber":47,"Velocity":51,"Duration":198019,"SoundDuration":198019,"Delta":101011874},{"NoteNumber":54,"Velocity":55,"Duration":188678,"SoundDuration":188678,"Delta":101209894},{"NoteNumber":63,"Velocity":55,"Duration":188678,"SoundDuration":188678,"Delta":101209894},{"NoteNumber":55,"Velocity":66,"Duration":381048,"SoundDuration":381048,"Delta":101398573},{"NoteNumber":64,"Velocity":66,"Duration":381048,"SoundDuration":381048,"Delta":101398573},{"NoteNumber":52,"Velocity":48,"Duration":187500,"SoundDuration":187500,"Delta":101592122},{"NoteNumber":40,"Velocity":53,"Duration":190476,"SoundDuration":190476,"Delta":101779622},{"NoteNumber":87,"Velocity":50,"Duration":198019,"SoundDuration":198019,"Delta":101970098},{"NoteNumber":88,"Velocity":55,"Duration":398710,"SoundDuration":398710,"Delta":102168118},{"NoteNumber":52,"Velocity":38,"Duration":197368,"SoundDuration":197368,"Delta":102369460},{"NoteNumber":40,"Velocity":43,"Duration":201342,"SoundDuration":201342,"Delta":102566829},{"NoteNumber":64,"Velocity":50,"Duration":196644,"SoundDuration":196644,"Delta":102768171},{"NoteNumber":62,"Velocity":54,"Duration":399362,"SoundDuration":399362,"Delta":102964816},{"NoteNumber":65,"Velocity":54,"Duration":399362,"SoundDuration":399362,"Delta":102964816},{"NoteNumber":52,"Velocity":43,"Duration":198019,"SoundDuration":198019,"Delta":103166158},{"NoteNumber":40,"Velocity":47,"Duration":200000,"SoundDuration":200000,"Delta":103364178},{"NoteNumber":62,"Velocity":46,"Duration":196078,"SoundDuration":196078,"Delta":103564178},{"NoteNumber":65,"Velocity":46,"Duration":196078,"SoundDuration":196078,"Delta":103564178},{"NoteNumber":59,"Velocity":52,"Duration":389004,"SoundDuration":389004,"Delta":103760257},{"NoteNumber":68,"Velocity":52,"Duration":389004,"SoundDuration":389004,"Delta":103760257},{"NoteNumber":52,"Velocity":48,"Duration":196078,"SoundDuration":196078,"Delta":103953183},{"NoteNumber":40,"Velocity":52,"Duration":192307,"SoundDuration":192307,"Delta":104149261},{"NoteNumber":59,"Velocity":50,"Duration":196078,"SoundDuration":196078,"Delta":104341569},{"NoteNumber":68,"Velocity":50,"Duration":196078,"SoundDuration":196078,"Delta":104341569},{"NoteNumber":60,"Velocity":54,"Duration":385868,"SoundDuration":385868,"Delta":104537647},{"NoteNumber":69,"Velocity":54,"Duration":385868,"SoundDuration":385868,"Delta":104537647},{"NoteNumber":52,"Velocity":51,"Duration":194175,"SoundDuration":194175,"Delta":104729341},{"NoteNumber":40,"Velocity":59,"Duration":192307,"SoundDuration":192307,"Delta":104923516},{"NoteNumber":60,"Velocity":51,"Duration":197368,"SoundDuration":197368,"Delta":105115823},{"NoteNumber":69,"Velocity":51,"Duration":197368,"SoundDuration":197368,"Delta":105115823},{"NoteNumber":61,"Velocity":54,"Duration":386522,"SoundDuration":386522,"Delta":105313192},{"NoteNumber":67,"Velocity":54,"Duration":386522,"SoundDuration":386522,"Delta":105313192},{"NoteNumber":51,"Velocity":52,"Duration":195439,"SoundDuration":195439,"Delta":105504275},{"NoteNumber":39,"Velocity":55,"Duration":192307,"SoundDuration":192307,"Delta":105699714},{"NoteNumber":61,"Velocity":52,"Duration":195439,"SoundDuration":195439,"Delta":105892022},{"NoteNumber":67,"Velocity":52,"Duration":195439,"SoundDuration":195439,"Delta":105892022},{"NoteNumber":62,"Velocity":56,"Duration":387747,"SoundDuration":387747,"Delta":106087461},{"NoteNumber":66,"Velocity":56,"Duration":387747,"SoundDuration":387747,"Delta":106087461},{"NoteNumber":50,"Velocity":47,"Duration":195439,"SoundDuration":195439,"Delta":106279769},{"NoteNumber":38,"Velocity":52,"Duration":191693,"SoundDuration":191693,"Delta":106475208},{"NoteNumber":85,"Velocity":53,"Duration":196721,"SoundDuration":196721,"Delta":106666902},{"NoteNumber":86,"Velocity":59,"Duration":383402,"SoundDuration":383402,"Delta":106863623},{"NoteNumber":50,"Velocity":35,"Duration":192925,"SoundDuration":192925,"Delta":107054099},{"NoteNumber":38,"Velocity":40,"Duration":189274,"SoundDuration":189274,"Delta":107247025},{"NoteNumber":62,"Velocity":43,"Duration":199335,"SoundDuration":199335,"Delta":107436300},{"NoteNumber":61,"Velocity":46,"Duration":389627,"SoundDuration":389627,"Delta":107635635},{"NoteNumber":64,"Velocity":46,"Duration":389627,"SoundDuration":389627,"Delta":107635635},{"NoteNumber":50,"Velocity":38,"Duration":196078,"SoundDuration":196078,"Delta":107829184},{"NoteNumber":38,"Velocity":43,"Duration":193548,"SoundDuration":193548,"Delta":108025262},{"NoteNumber":61,"Velocity":38,"Duration":198675,"SoundDuration":198675,"Delta":108218811},{"NoteNumber":64,"Velocity":38,"Duration":198675,"SoundDuration":198675,"Delta":108218811},{"NoteNumber":60,"Velocity":43,"Duration":389103,"SoundDuration":389103,"Delta":108417486},{"NoteNumber":66,"Velocity":43,"Duration":389103,"SoundDuration":389103,"Delta":108417486},{"NoteNumber":50,"Velocity":36,"Duration":198019,"SoundDuration":198019,"Delta":108608569},{"NoteNumber":38,"Velocity":41,"Duration":204778,"SoundDuration":204778,"Delta":108806589},{"NoteNumber":62,"Velocity":51,"Duration":191083,"SoundDuration":191083,"Delta":109011367},{"NoteNumber":67,"Velocity":60,"Duration":281250,"SoundDuration":281250,"Delta":109203231},{"NoteNumber":55,"Velocity":34,"Duration":187500,"SoundDuration":187500,"Delta":109203231},{"NoteNumber":59,"Velocity":40,"Duration":187500,"SoundDuration":187500,"Delta":109203231},{"NoteNumber":55,"Velocity":34,"Duration":187500,"SoundDuration":187500,"Delta":109389950},{"NoteNumber":59,"Velocity":40,"Duration":187500,"SoundDuration":187500,"Delta":109389950},{"NoteNumber":71,"Velocity":48,"Duration":46875,"SoundDuration":46875,"Delta":109483700},{"NoteNumber":69,"Velocity":48,"Duration":46875,"SoundDuration":46875,"Delta":109530575},{"NoteNumber":67,"Velocity":56,"Duration":187500,"SoundDuration":187500,"Delta":109577450},{"NoteNumber":55,"Velocity":34,"Duration":187500,"SoundDuration":187500,"Delta":109577450},{"NoteNumber":59,"Velocity":40,"Duration":187500,"SoundDuration":187500,"Delta":109577450},{"NoteNumber":55,"Velocity":33,"Duration":187500,"SoundDuration":187500,"Delta":109764950},{"NoteNumber":59,"Velocity":39,"Duration":187500,"SoundDuration":187500,"Delta":109764950},{"NoteNumber":55,"Velocity":34,"Duration":187500,"SoundDuration":187500,"Delta":109952450},{"NoteNumber":59,"Velocity":40,"Duration":187500,"SoundDuration":187500,"Delta":109952450},{"NoteNumber":62,"Velocity":53,"Duration":187500,"SoundDuration":187500,"Delta":110139950},{"NoteNumber":55,"Velocity":34,"Duration":187500,"SoundDuration":187500,"Delta":110139950},{"NoteNumber":59,"Velocity":41,"Duration":187500,"SoundDuration":187500,"Delta":110139950},{"NoteNumber":67,"Velocity":53,"Duration":187500,"SoundDuration":187500,"Delta":110327450},{"NoteNumber":55,"Velocity":34,"Duration":187500,"SoundDuration":187500,"Delta":110327450},{"NoteNumber":59,"Velocity":41,"Duration":187500,"SoundDuration":187500,"Delta":110327450},{"NoteNumber":71,"Velocity":53,"Duration":187500,"SoundDuration":187500,"Delta":110514950},{"NoteNumber":55,"Velocity":34,"Duration":187500,"SoundDuration":187500,"Delta":110514950},{"NoteNumber":59,"Velocity":41,"Duration":187500,"SoundDuration":187500,"Delta":110514950},{"NoteNumber":71,"Velocity":57,"Duration":92024,"SoundDuration":92024,"Delta":110702450},{"NoteNumber":55,"Velocity":37,"Duration":368098,"SoundDuration":368098,"Delta":110702450},{"NoteNumber":60,"Velocity":44,"Duration":368098,"SoundDuration":368098,"Delta":110702450},{"NoteNumber":69,"Velocity":54,"Duration":92024,"SoundDuration":92024,"Delta":110794475},{"NoteNumber":67,"Velocity":54,"Duration":92024,"SoundDuration":92024,"Delta":110886499},{"NoteNumber":69,"Velocity":54,"Duration":92024,"SoundDuration":92024,"Delta":110978524},{"NoteNumber":67,"Velocity":57,"Duration":184049,"SoundDuration":184049,"Delta":111070548},{"NoteNumber":55,"Velocity":41,"Duration":184049,"SoundDuration":184049,"Delta":111070548},{"NoteNumber":59,"Velocity":41,"Duration":184049,"SoundDuration":184049,"Delta":111070548},{"NoteNumber":74,"Velocity":54,"Duration":178571,"SoundDuration":178571,"Delta":111254597},{"NoteNumber":74,"Velocity":54,"Duration":89285,"SoundDuration":89285,"Delta":111433169},{"NoteNumber":65,"Velocity":41,"Duration":89285,"SoundDuration":89285,"Delta":111433169},{"NoteNumber":67,"Velocity":41,"Duration":89285,"SoundDuration":89285,"Delta":111433169},{"NoteNumber":74,"Velocity":54,"Duration":89285,"SoundDuration":89285,"Delta":111611740},{"NoteNumber":65,"Velocity":41,"Duration":89285,"SoundDuration":89285,"Delta":111611740},{"NoteNumber":67,"Velocity":41,"Duration":89285,"SoundDuration":89285,"Delta":111611740},{"NoteNumber":74,"Velocity":54,"Duration":89285,"SoundDuration":89285,"Delta":111790312},{"NoteNumber":65,"Velocity":41,"Duration":89285,"SoundDuration":89285,"Delta":111790312},{"NoteNumber":67,"Velocity":41,"Duration":89285,"SoundDuration":89285,"Delta":111790312},{"NoteNumber":74,"Velocity":54,"Duration":87209,"SoundDuration":87209,"Delta":111968883},{"NoteNumber":67,"Velocity":41,"Duration":87209,"SoundDuration":87209,"Delta":111968883},{"NoteNumber":65,"Velocity":41,"Duration":87209,"SoundDuration":87209,"Delta":111968883},{"NoteNumber":74,"Velocity":57,"Duration":268656,"SoundDuration":268656,"Delta":112143302},{"NoteNumber":64,"Velocity":46,"Duration":537313,"SoundDuration":537313,"Delta":112143302},{"NoteNumber":67,"Velocity":46,"Duration":537313,"SoundDuration":537313,"Delta":112143302},{"NoteNumber":76,"Velocity":47,"Duration":44776,"SoundDuration":44776,"Delta":112411958},{"NoteNumber":74,"Velocity":47,"Duration":44776,"SoundDuration":44776,"Delta":112456735},{"NoteNumber":72,"Velocity":52,"Duration":179104,"SoundDuration":179104,"Delta":112501511},{"NoteNumber":71,"Velocity":50,"Duration":179104,"SoundDuration":179104,"Delta":112680615},{"NoteNumber":62,"Velocity":41,"Duration":179104,"SoundDuration":179104,"Delta":112680615},{"NoteNumber":65,"Velocity":41,"Duration":179104,"SoundDuration":179104,"Delta":112680615},{"NoteNumber":69,"Velocity":52,"Duration":184615,"SoundDuration":184615,"Delta":112859720},{"NoteNumber":60,"Velocity":49,"Duration":365338,"SoundDuration":365338,"Delta":112859720},{"NoteNumber":64,"Velocity":49,"Duration":365338,"SoundDuration":365338,"Delta":112859720},{"NoteNumber":81,"Velocity":69,"Duration":361446,"SoundDuration":361446,"Delta":113044335},{"NoteNumber":61,"Velocity":50,"Duration":361446,"SoundDuration":361446,"Delta":113225058},{"NoteNumber":64,"Velocity":50,"Duration":361446,"SoundDuration":361446,"Delta":113225058},{"NoteNumber":79,"Velocity":65,"Duration":180723,"SoundDuration":180723,"Delta":113405781},{"NoteNumber":79,"Velocity":63,"Duration":89552,"SoundDuration":89552,"Delta":113586504},{"NoteNumber":62,"Velocity":46,"Duration":358209,"SoundDuration":358209,"Delta":113586504},{"NoteNumber":78,"Velocity":54,"Duration":89552,"SoundDuration":89552,"Delta":113676056},{"NoteNumber":76,"Velocity":54,"Duration":89552,"SoundDuration":89552,"Delta":113765609},{"NoteNumber":74,"Velocity":54,"Duration":89552,"SoundDuration":89552,"Delta":113855161},{"NoteNumber":74,"Velocity":54,"Duration":183486,"SoundDuration":183486,"Delta":113944713},{"NoteNumber":74,"Velocity":56,"Duration":179104,"SoundDuration":179104,"Delta":114128199},{"NoteNumber":74,"Velocity":54,"Duration":89552,"SoundDuration":89552,"Delta":114307304},{"NoteNumber":76,"Velocity":52,"Duration":89552,"SoundDuration":89552,"Delta":114396856},{"NoteNumber":72,"Velocity":54,"Duration":89552,"SoundDuration":89552,"Delta":114486408},{"NoteNumber":74,"Velocity":52,"Duration":89552,"SoundDuration":89552,"Delta":114575960},{"NoteNumber":71,"Velocity":54,"Duration":89552,"SoundDuration":89552,"Delta":114665513},{"NoteNumber":72,"Velocity":51,"Duration":89552,"SoundDuration":89552,"Delta":114755065},{"NoteNumber":69,"Velocity":54,"Duration":89552,"SoundDuration":89552,"Delta":114844617},{"NoteNumber":71,"Velocity":52,"Duration":89552,"SoundDuration":89552,"Delta":114934169},{"NoteNumber":67,"Velocity":60,"Duration":281250,"SoundDuration":281250,"Delta":115024503},{"NoteNumber":55,"Velocity":34,"Duration":187500,"SoundDuration":187500,"Delta":115024503},{"NoteNumber":59,"Velocity":40,"Duration":187500,"SoundDuration":187500,"Delta":115024503},{"NoteNumber":55,"Velocity":30,"Duration":187500,"SoundDuration":187500,"Delta":115211222},{"NoteNumber":59,"Velocity":36,"Duration":187500,"SoundDuration":187500,"Delta":115211222},{"NoteNumber":71,"Velocity":46,"Duration":46875,"SoundDuration":46875,"Delta":115304972},{"NoteNumber":69,"Velocity":47,"Duration":46875,"SoundDuration":46875,"Delta":115351847},{"NoteNumber":67,"Velocity":56,"Duration":93750,"SoundDuration":93750,"Delta":115398722},{"NoteNumber":55,"Velocity":30,"Duration":187500,"SoundDuration":187500,"Delta":115398722},{"NoteNumber":59,"Velocity":36,"Duration":187500,"SoundDuration":187500,"Delta":115398722},{"NoteNumber":62,"Velocity":48,"Duration":93750,"SoundDuration":93750,"Delta":115492472},{"NoteNumber":71,"Velocity":48,"Duration":93750,"SoundDuration":93750,"Delta":115586222},{"NoteNumber":55,"Velocity":30,"Duration":187500,"SoundDuration":187500,"Delta":115586222},{"NoteNumber":59,"Velocity":36,"Duration":187500,"SoundDuration":187500,"Delta":115586222},{"NoteNumber":69,"Velocity":48,"Duration":93750,"SoundDuration":93750,"Delta":115679972},{"NoteNumber":67,"Velocity":56,"Duration":93750,"SoundDuration":93750,"Delta":115773722},{"NoteNumber":55,"Velocity":34,"Duration":187500,"SoundDuration":187500,"Delta":115773722},{"NoteNumber":59,"Velocity":40,"Duration":187500,"SoundDuration":187500,"Delta":115773722},{"NoteNumber":62,"Velocity":48,"Duration":93750,"SoundDuration":93750,"Delta":115867472},{"NoteNumber":67,"Velocity":48,"Duration":92024,"SoundDuration":92024,"Delta":115961222},{"NoteNumber":55,"Velocity":32,"Duration":184049,"SoundDuration":184049,"Delta":115961222},{"NoteNumber":59,"Velocity":38,"Duration":184049,"SoundDuration":184049,"Delta":115961222},{"NoteNumber":71,"Velocity":48,"Duration":92024,"SoundDuration":92024,"Delta":116053246},{"NoteNumber":74,"Velocity":56,"Duration":92024,"SoundDuration":92024,"Delta":116145271},{"NoteNumber":55,"Velocity":32,"Duration":184049,"SoundDuration":184049,"Delta":116145271},{"NoteNumber":59,"Velocity":38,"Duration":184049,"SoundDuration":184049,"Delta":116145271},{"NoteNumber":71,"Velocity":52,"Duration":92024,"SoundDuration":92024,"Delta":116237295},{"NoteNumber":69,"Velocity":52,"Duration":92024,"SoundDuration":92024,"Delta":116329320},{"NoteNumber":55,"Velocity":32,"Duration":187565,"SoundDuration":187565,"Delta":116329320},{"NoteNumber":59,"Velocity":38,"Duration":187565,"SoundDuration":187565,"Delta":116329320},{"NoteNumber":67,"Velocity":52,"Duration":95541,"SoundDuration":95541,"Delta":116421344},{"NoteNumber":71,"Velocity":59,"Duration":92024,"SoundDuration":92024,"Delta":116516886},{"NoteNumber":55,"Velocity":37,"Duration":368098,"SoundDuration":368098,"Delta":116516886},{"NoteNumber":60,"Velocity":44,"Duration":368098,"SoundDuration":368098,"Delta":116516886},{"NoteNumber":69,"Velocity":52,"Duration":92024,"SoundDuration":92024,"Delta":116608910},{"NoteNumber":67,"Velocity":52,"Duration":92024,"SoundDuration":92024,"Delta":116700935},{"NoteNumber":69,"Velocity":52,"Duration":92024,"SoundDuration":92024,"Delta":116792959},{"NoteNumber":67,"Velocity":54,"Duration":191083,"SoundDuration":191083,"Delta":116884984},{"NoteNumber":55,"Velocity":34,"Duration":191083,"SoundDuration":191083,"Delta":116884984},{"NoteNumber":59,"Velocity":41,"Duration":191083,"SoundDuration":191083,"Delta":116884984},{"NoteNumber":76,"Velocity":54,"Duration":177340,"SoundDuration":177340,"Delta":117076067},{"NoteNumber":75,"Velocity":51,"Duration":88408,"SoundDuration":88408,"Delta":117253407},{"NoteNumber":71,"Velocity":41,"Duration":176643,"SoundDuration":176643,"Delta":117253407},{"NoteNumber":67,"Velocity":41,"Duration":176643,"SoundDuration":176643,"Delta":117253407},{"NoteNumber":76,"Velocity":52,"Duration":88235,"SoundDuration":88235,"Delta":117341816},{"NoteNumber":77,"Velocity":53,"Duration":87976,"SoundDuration":87976,"Delta":117430051},{"NoteNumber":71,"Velocity":38,"Duration":175781,"SoundDuration":175781,"Delta":117430051},{"NoteNumber":67,"Velocity":38,"Duration":175781,"SoundDuration":175781,"Delta":117430051},{"NoteNumber":78,"Velocity":54,"Duration":87805,"SoundDuration":87805,"Delta":117518028},{"NoteNumber":79,"Velocity":56,"Duration":87634,"SoundDuration":87634,"Delta":117605833},{"NoteNumber":71,"Velocity":44,"Duration":175097,"SoundDuration":175097,"Delta":117605833},{"NoteNumber":67,"Velocity":44,"Duration":175097,"SoundDuration":175097,"Delta":117605833},{"NoteNumber":80,"Velocity":57,"Duration":87463,"SoundDuration":87463,"Delta":117693467},{"NoteNumber":81,"Velocity":58,"Duration":87209,"SoundDuration":87209,"Delta":117780930},{"NoteNumber":67,"Velocity":41,"Duration":175127,"SoundDuration":175127,"Delta":117780930},{"NoteNumber":71,"Velocity":41,"Duration":175127,"SoundDuration":175127,"Delta":117780930},{"NoteNumber":82,"Velocity":59,"Duration":87918,"SoundDuration":87918,"Delta":117868139},{"NoteNumber":83,"Velocity":68,"Duration":364742,"SoundDuration":364742,"Delta":117956058},{"NoteNumber":71,"Velocity":46,"Duration":182371,"SoundDuration":182371,"Delta":117956058},{"NoteNumber":67,"Velocity":39,"Duration":182371,"SoundDuration":182371,"Delta":117956058},{"NoteNumber":67,"Velocity":39,"Duration":182371,"SoundDuration":182371,"Delta":118138429},{"NoteNumber":71,"Velocity":46,"Duration":182371,"SoundDuration":182371,"Delta":118138429},{"NoteNumber":81,"Velocity":60,"Duration":89285,"SoundDuration":89285,"Delta":118320800},{"NoteNumber":67,"Velocity":39,"Duration":178571,"SoundDuration":178571,"Delta":118320800},{"NoteNumber":71,"Velocity":46,"Duration":178571,"SoundDuration":178571,"Delta":118320800},{"NoteNumber":79,"Velocity":56,"Duration":89285,"SoundDuration":89285,"Delta":118410085},{"NoteNumber":78,"Velocity":56,"Duration":89285,"SoundDuration":89285,"Delta":118499371},{"NoteNumber":67,"Velocity":39,"Duration":178571,"SoundDuration":178571,"Delta":118499371},{"NoteNumber":71,"Velocity":46,"Duration":178571,"SoundDuration":178571,"Delta":118499371},{"NoteNumber":76,"Velocity":56,"Duration":89285,"SoundDuration":89285,"Delta":118588657},{"NoteNumber":74,"Velocity":60,"Duration":363635,"SoundDuration":363635,"Delta":118677943},{"NoteNumber":66,"Velocity":46,"Duration":181818,"SoundDuration":181818,"Delta":118677943},{"NoteNumber":57,"Velocity":39,"Duration":181818,"SoundDuration":181818,"Delta":118677943},{"NoteNumber":57,"Velocity":39,"Duration":181817,"SoundDuration":181817,"Delta":118859761},{"NoteNumber":66,"Velocity":46,"Duration":181817,"SoundDuration":181817,"Delta":118859761},{"NoteNumber":73,"Velocity":52,"Duration":59701,"SoundDuration":59701,"Delta":119041579},{"NoteNumber":57,"Velocity":39,"Duration":179104,"SoundDuration":179104,"Delta":119041579},{"NoteNumber":64,"Velocity":46,"Duration":179104,"SoundDuration":179104,"Delta":119041579},{"NoteNumber":74,"Velocity":43,"Duration":59701,"SoundDuration":59701,"Delta":119101280},{"NoteNumber":73,"Velocity":48,"Duration":59701,"SoundDuration":59701,"Delta":119160982},{"NoteNumber":74,"Velocity":43,"Duration":46296,"SoundDuration":46296,"Delta":119220683},{"NoteNumber":57,"Velocity":39,"Duration":185185,"SoundDuration":185185,"Delta":119220683},{"NoteNumber":64,"Velocity":46,"Duration":185185,"SoundDuration":185185,"Delta":119220683},{"NoteNumber":73,"Velocity":48,"Duration":46296,"SoundDuration":46296,"Delta":119266979},{"NoteNumber":74,"Velocity":42,"Duration":46296,"SoundDuration":46296,"Delta":119313276},{"NoteNumber":73,"Velocity":47,"Duration":46296,"SoundDuration":46296,"Delta":119359572},{"NoteNumber":74,"Velocity":54,"Duration":89552,"SoundDuration":89552,"Delta":119405868},{"NoteNumber":62,"Velocity":37,"Duration":179104,"SoundDuration":179104,"Delta":119405868},{"NoteNumber":66,"Velocity":44,"Duration":179104,"SoundDuration":179104,"Delta":119405868},{"NoteNumber":76,"Velocity":50,"Duration":89552,"SoundDuration":89552,"Delta":119495420},{"NoteNumber":78,"Velocity":51,"Duration":89552,"SoundDuration":89552,"Delta":119584973},{"NoteNumber":62,"Velocity":32,"Duration":179104,"SoundDuration":179104,"Delta":119584973},{"NoteNumber":66,"Velocity":38,"Duration":179104,"SoundDuration":179104,"Delta":119584973},{"NoteNumber":79,"Velocity":52,"Duration":89552,"SoundDuration":89552,"Delta":119674525},{"NoteNumber":81,"Velocity":53,"Duration":89552,"SoundDuration":89552,"Delta":119764077},{"NoteNumber":62,"Velocity":32,"Duration":179104,"SoundDuration":179104,"Delta":119764077},{"NoteNumber":66,"Velocity":38,"Duration":179104,"SoundDuration":179104,"Delta":119764077},{"NoteNumber":83,"Velocity":54,"Duration":89552,"SoundDuration":89552,"Delta":119853629},{"NoteNumber":85,"Velocity":55,"Duration":90908,"SoundDuration":90908,"Delta":119943182},{"NoteNumber":62,"Velocity":32,"Duration":181818,"SoundDuration":181818,"Delta":119943182},{"NoteNumber":66,"Velocity":38,"Duration":181818,"SoundDuration":181818,"Delta":119943182},{"NoteNumber":86,"Velocity":56,"Duration":90909,"SoundDuration":90909,"Delta":120034091},{"NoteNumber":85,"Velocity":59,"Duration":89552,"SoundDuration":89552,"Delta":120125000},{"NoteNumber":62,"Velocity":36,"Duration":179104,"SoundDuration":179104,"Delta":120125000},{"NoteNumber":67,"Velocity":43,"Duration":179104,"SoundDuration":179104,"Delta":120125000},{"NoteNumber":88,"Velocity":55,"Duration":89552,"SoundDuration":89552,"Delta":120214552},{"NoteNumber":85,"Velocity":55,"Duration":89552,"SoundDuration":89552,"Delta":120304104},{"NoteNumber":62,"Velocity":32,"Duration":179104,"SoundDuration":179104,"Delta":120304104},{"NoteNumber":67,"Velocity":38,"Duration":179104,"SoundDuration":179104,"Delta":120304104},{"NoteNumber":81,"Velocity":55,"Duration":89552,"SoundDuration":89552,"Delta":120393656},{"NoteNumber":79,"Velocity":58,"Duration":89552,"SoundDuration":89552,"Delta":120483209},{"NoteNumber":62,"Velocity":32,"Duration":179372,"SoundDuration":179372,"Delta":120483209},{"NoteNumber":67,"Velocity":38,"Duration":179372,"SoundDuration":179372,"Delta":120483209},{"NoteNumber":83,"Velocity":55,"Duration":89820,"SoundDuration":89820,"Delta":120572761},{"NoteNumber":79,"Velocity":55,"Duration":90090,"SoundDuration":90090,"Delta":120662581},{"NoteNumber":62,"Velocity":32,"Duration":180497,"SoundDuration":180497,"Delta":120662581},{"NoteNumber":67,"Velocity":38,"Duration":180497,"SoundDuration":180497,"Delta":120662581},{"NoteNumber":76,"Velocity":55,"Duration":90406,"SoundDuration":90406,"Delta":120752671},{"NoteNumber":78,"Velocity":57,"Duration":89552,"SoundDuration":89552,"Delta":120843078},{"NoteNumber":62,"Velocity":37,"Duration":179104,"SoundDuration":179104,"Delta":120843078},{"NoteNumber":66,"Velocity":44,"Duration":179104,"SoundDuration":179104,"Delta":120843078},{"NoteNumber":81,"Velocity":53,"Duration":89552,"SoundDuration":89552,"Delta":120932630},{"NoteNumber":79,"Velocity":53,"Duration":89552,"SoundDuration":89552,"Delta":121022183},{"NoteNumber":62,"Velocity":32,"Duration":179104,"SoundDuration":179104,"Delta":121022183},{"NoteNumber":66,"Velocity":38,"Duration":179104,"SoundDuration":179104,"Delta":121022183},{"NoteNumber":78,"Velocity":53,"Duration":89552,"SoundDuration":89552,"Delta":121111735},{"NoteNumber":76,"Velocity":55,"Duration":89552,"SoundDuration":89552,"Delta":121201287},{"NoteNumber":62,"Velocity":32,"Duration":179104,"SoundDuration":179104,"Delta":121201287},{"NoteNumber":66,"Velocity":38,"Duration":179104,"SoundDuration":179104,"Delta":121201287},{"NoteNumber":74,"Velocity":53,"Duration":89552,"SoundDuration":89552,"Delta":121290839},{"NoteNumber":73,"Velocity":53,"Duration":89552,"SoundDuration":89552,"Delta":121380392},{"NoteNumber":62,"Velocity":32,"Duration":179104,"SoundDuration":179104,"Delta":121380392},{"NoteNumber":66,"Velocity":38,"Duration":179104,"SoundDuration":179104,"Delta":121380392},{"NoteNumber":71,"Velocity":53,"Duration":89552,"SoundDuration":89552,"Delta":121469944},{"NoteNumber":69,"Velocity":56,"Duration":89552,"SoundDuration":89552,"Delta":121559496},{"NoteNumber":62,"Velocity":37,"Duration":179104,"SoundDuration":179104,"Delta":121559496},{"NoteNumber":67,"Velocity":44,"Duration":179104,"SoundDuration":179104,"Delta":121559496},{"NoteNumber":71,"Velocity":52,"Duration":89552,"SoundDuration":89552,"Delta":121649048},{"NoteNumber":73,"Velocity":52,"Duration":89552,"SoundDuration":89552,"Delta":121738601},{"NoteNumber":62,"Velocity":32,"Duration":179104,"SoundDuration":179104,"Delta":121738601},{"NoteNumber":67,"Velocity":38,"Duration":179104,"SoundDuration":179104,"Delta":121738601},{"NoteNumber":74,"Velocity":52,"Duration":89552,"SoundDuration":89552,"Delta":121828153},{"NoteNumber":76,"Velocity":55,"Duration":89552,"SoundDuration":89552,"Delta":121917705},{"NoteNumber":62,"Velocity":32,"Duration":179104,"SoundDuration":179104,"Delta":121917705},{"NoteNumber":67,"Velocity":38,"Duration":179104,"SoundDuration":179104,"Delta":121917705},{"NoteNumber":78,"Velocity":51,"Duration":89552,"SoundDuration":89552,"Delta":122007257},{"NoteNumber":79,"Velocity":53,"Duration":89552,"SoundDuration":89552,"Delta":122096810},{"NoteNumber":62,"Velocity":32,"Duration":179104,"SoundDuration":179104,"Delta":122096810},{"NoteNumber":67,"Velocity":38,"Duration":179104,"SoundDuration":179104,"Delta":122096810},{"NoteNumber":76,"Velocity":54,"Duration":89552,"SoundDuration":89552,"Delta":122186362},{"NoteNumber":74,"Velocity":56,"Duration":89463,"SoundDuration":89463,"Delta":122275914},{"NoteNumber":62,"Velocity":38,"Duration":179644,"SoundDuration":179644,"Delta":122275914},{"NoteNumber":66,"Velocity":45,"Duration":179644,"SoundDuration":179644,"Delta":122275914},{"NoteNumber":76,"Velocity":56,"Duration":90180,"SoundDuration":90180,"Delta":122365378},{"NoteNumber":78,"Velocity":59,"Duration":90909,"SoundDuration":90909,"Delta":122455559},{"NoteNumber":62,"Velocity":34,"Duration":182559,"SoundDuration":182559,"Delta":122455559},{"NoteNumber":66,"Velocity":41,"Duration":182559,"SoundDuration":182559,"Delta":122455559},{"NoteNumber":79,"Velocity":61,"Duration":91650,"SoundDuration":91650,"Delta":122546468},{"NoteNumber":81,"Velocity":61,"Duration":92402,"SoundDuration":92402,"Delta":122638118},{"NoteNumber":62,"Velocity":38,"Duration":185571,"SoundDuration":185571,"Delta":122638118},{"NoteNumber":66,"Velocity":45,"Duration":185571,"SoundDuration":185571,"Delta":122638118},{"NoteNumber":83,"Velocity":64,"Duration":93168,"SoundDuration":93168,"Delta":122730521},{"NoteNumber":85,"Velocity":66,"Duration":93896,"SoundDuration":93896,"Delta":122823690},{"NoteNumber":62,"Velocity":34,"Duration":93896,"SoundDuration":93896,"Delta":122823690},{"NoteNumber":66,"Velocity":40,"Duration":93896,"SoundDuration":93896,"Delta":122823690},{"NoteNumber":86,"Velocity":66,"Duration":49342,"SoundDuration":49342,"Delta":122917587},{"NoteNumber":74,"Velocity":64,"Duration":380952,"SoundDuration":380952,"Delta":123015697},{"NoteNumber":62,"Velocity":40,"Duration":380952,"SoundDuration":380952,"Delta":123015697},{"NoteNumber":66,"Velocity":48,"Duration":380952,"SoundDuration":380952,"Delta":123015697},{"NoteNumber":67,"Velocity":60,"Duration":281250,"SoundDuration":281250,"Delta":123778382},{"NoteNumber":55,"Velocity":34,"Duration":187500,"SoundDuration":187500,"Delta":123778382},{"NoteNumber":59,"Velocity":40,"Duration":187500,"SoundDuration":187500,"Delta":123778382},{"NoteNumber":55,"Velocity":30,"Duration":187500,"SoundDuration":187500,"Delta":123965101},{"NoteNumber":59,"Velocity":36,"Duration":187500,"SoundDuration":187500,"Delta":123965101},{"NoteNumber":71,"Velocity":46,"Duration":46875,"SoundDuration":46875,"Delta":124058851},{"NoteNumber":69,"Velocity":47,"Duration":46875,"SoundDuration":46875,"Delta":124105726},{"NoteNumber":67,"Velocity":56,"Duration":93750,"SoundDuration":93750,"Delta":124152601},{"NoteNumber":55,"Velocity":30,"Duration":187500,"SoundDuration":187500,"Delta":124152601},{"NoteNumber":59,"Velocity":36,"Duration":187500,"SoundDuration":187500,"Delta":124152601},{"NoteNumber":62,"Velocity":48,"Duration":93750,"SoundDuration":93750,"Delta":124246351},{"NoteNumber":71,"Velocity":48,"Duration":93750,"SoundDuration":93750,"Delta":124340101},{"NoteNumber":55,"Velocity":30,"Duration":187500,"SoundDuration":187500,"Delta":124340101},{"NoteNumber":59,"Velocity":36,"Duration":187500,"SoundDuration":187500,"Delta":124340101},{"NoteNumber":69,"Velocity":48,"Duration":93750,"SoundDuration":93750,"Delta":124433851},{"NoteNumber":67,"Velocity":56,"Duration":93750,"SoundDuration":93750,"Delta":124527601},{"NoteNumber":55,"Velocity":34,"Duration":187500,"SoundDuration":187500,"Delta":124527601},{"NoteNumber":59,"Velocity":40,"Duration":187500,"SoundDuration":187500,"Delta":124527601},{"NoteNumber":62,"Velocity":48,"Duration":93750,"SoundDuration":93750,"Delta":124621351},{"NoteNumber":67,"Velocity":48,"Duration":92024,"SoundDuration":92024,"Delta":124715101},{"NoteNumber":55,"Velocity":32,"Duration":184049,"SoundDuration":184049,"Delta":124715101},{"NoteNumber":59,"Velocity":38,"Duration":184049,"SoundDuration":184049,"Delta":124715101},{"NoteNumber":71,"Velocity":48,"Duration":92024,"SoundDuration":92024,"Delta":124807125},{"NoteNumber":74,"Velocity":56,"Duration":92024,"SoundDuration":92024,"Delta":124899150},{"NoteNumber":55,"Velocity":32,"Duration":184049,"SoundDuration":184049,"Delta":124899150},{"NoteNumber":59,"Velocity":38,"Duration":184049,"SoundDuration":184049,"Delta":124899150},{"NoteNumber":71,"Velocity":52,"Duration":92024,"SoundDuration":92024,"Delta":124991174},{"NoteNumber":69,"Velocity":52,"Duration":92024,"SoundDuration":92024,"Delta":125083199},{"NoteNumber":55,"Velocity":32,"Duration":188798,"SoundDuration":188798,"Delta":125083199},{"NoteNumber":59,"Velocity":38,"Duration":188798,"SoundDuration":188798,"Delta":125083199},{"NoteNumber":67,"Velocity":52,"Duration":96774,"SoundDuration":96774,"Delta":125175223},{"NoteNumber":71,"Velocity":59,"Duration":92024,"SoundDuration":92024,"Delta":125271997},{"NoteNumber":55,"Velocity":37,"Duration":368098,"SoundDuration":368098,"Delta":125271997},{"NoteNumber":60,"Velocity":44,"Duration":368098,"SoundDuration":368098,"Delta":125271997},{"NoteNumber":69,"Velocity":52,"Duration":92024,"SoundDuration":92024,"Delta":125364022},{"NoteNumber":67,"Velocity":52,"Duration":92024,"SoundDuration":92024,"Delta":125456046},{"NoteNumber":69,"Velocity":52,"Duration":92024,"SoundDuration":92024,"Delta":125548071},{"NoteNumber":67,"Velocity":54,"Duration":191083,"SoundDuration":191083,"Delta":125640095},{"NoteNumber":55,"Velocity":34,"Duration":191083,"SoundDuration":191083,"Delta":125640095},{"NoteNumber":59,"Velocity":41,"Duration":191083,"SoundDuration":191083,"Delta":125640095},{"NoteNumber":74,"Velocity":52,"Duration":188678,"SoundDuration":188678,"Delta":125831178},{"NoteNumber":74,"Velocity":54,"Duration":188679,"SoundDuration":188679,"Delta":126019857},{"NoteNumber":65,"Velocity":38,"Duration":94339,"SoundDuration":94339,"Delta":126019857},{"NoteNumber":67,"Velocity":33,"Duration":94339,"SoundDuration":94339,"Delta":126114197},{"NoteNumber":74,"Velocity":52,"Duration":188678,"SoundDuration":188678,"Delta":126208536},{"NoteNumber":65,"Velocity":38,"Duration":94339,"SoundDuration":94339,"Delta":126208536},{"NoteNumber":67,"Velocity":33,"Duration":94339,"SoundDuration":94339,"Delta":126302876},{"NoteNumber":74,"Velocity":52,"Duration":188679,"SoundDuration":188679,"Delta":126397215},{"NoteNumber":65,"Velocity":38,"Duration":94339,"SoundDuration":94339,"Delta":126397215},{"NoteNumber":67,"Velocity":34,"Duration":94339,"SoundDuration":94339,"Delta":126491555},{"NoteNumber":74,"Velocity":52,"Duration":184615,"SoundDuration":184615,"Delta":126585894},{"NoteNumber":65,"Velocity":38,"Duration":92307,"SoundDuration":92307,"Delta":126585894},{"NoteNumber":67,"Velocity":33,"Duration":92307,"SoundDuration":92307,"Delta":126678202},{"NoteNumber":74,"Velocity":57,"Duration":88495,"SoundDuration":88495,"Delta":126770510},{"NoteNumber":64,"Velocity":52,"Duration":353982,"SoundDuration":353982,"Delta":126770510},{"NoteNumber":79,"Velocity":54,"Duration":88495,"SoundDuration":88495,"Delta":126859005},{"NoteNumber":76,"Velocity":54,"Duration":88495,"SoundDuration":88495,"Delta":126947501},{"NoteNumber":74,"Velocity":54,"Duration":88495,"SoundDuration":88495,"Delta":127035996},{"NoteNumber":72,"Velocity":57,"Duration":88495,"SoundDuration":88495,"Delta":127124492},{"NoteNumber":76,"Velocity":54,"Duration":88495,"SoundDuration":88495,"Delta":127212987},{"NoteNumber":72,"Velocity":54,"Duration":88495,"SoundDuration":88495,"Delta":127301483},{"NoteNumber":64,"Velocity":48,"Duration":88495,"SoundDuration":88495,"Delta":127301483},{"NoteNumber":71,"Velocity":54,"Duration":88495,"SoundDuration":88495,"Delta":127389978},{"NoteNumber":62,"Velocity":48,"Duration":88495,"SoundDuration":88495,"Delta":127389978},{"NoteNumber":69,"Velocity":57,"Duration":91185,"SoundDuration":91185,"Delta":127478474},{"NoteNumber":60,"Velocity":52,"Duration":357028,"SoundDuration":357028,"Delta":127478474},{"NoteNumber":88,"Velocity":57,"Duration":88495,"SoundDuration":88495,"Delta":127569659},{"NoteNumber":84,"Velocity":57,"Duration":88495,"SoundDuration":88495,"Delta":127658155},{"NoteNumber":83,"Velocity":57,"Duration":88852,"SoundDuration":88852,"Delta":127746650},{"NoteNumber":81,"Velocity":57,"Duration":90634,"SoundDuration":90634,"Delta":127835502},{"NoteNumber":84,"Velocity":54,"Duration":88495,"SoundDuration":88495,"Delta":127926137},{"NoteNumber":81,"Velocity":54,"Duration":88495,"SoundDuration":88495,"Delta":128014632},{"NoteNumber":61,"Velocity":52,"Duration":176991,"SoundDuration":176991,"Delta":128014632},{"NoteNumber":79,"Velocity":54,"Duration":88495,"SoundDuration":88495,"Delta":128103128},{"NoteNumber":78,"Velocity":57,"Duration":88495,"SoundDuration":88495,"Delta":128191623},{"NoteNumber":62,"Velocity":58,"Duration":715021,"SoundDuration":715021,"Delta":128191623},{"NoteNumber":79,"Velocity":54,"Duration":88495,"SoundDuration":88495,"Delta":128280119},{"NoteNumber":81,"Velocity":54,"Duration":88495,"SoundDuration":88495,"Delta":128368614},{"NoteNumber":79,"Velocity":54,"Duration":88495,"SoundDuration":88495,"Delta":128457110},{"NoteNumber":78,"Velocity":56,"Duration":88495,"SoundDuration":88495,"Delta":128545605},{"NoteNumber":76,"Velocity":54,"Duration":88495,"SoundDuration":88495,"Delta":128634101},{"NoteNumber":74,"Velocity":54,"Duration":92024,"SoundDuration":92024,"Delta":128722596},{"NoteNumber":73,"Velocity":54,"Duration":92024,"SoundDuration":92024,"Delta":128814621},{"NoteNumber":74,"Velocity":58,"Duration":90909,"SoundDuration":90909,"Delta":128906645},{"NoteNumber":50,"Velocity":52,"Duration":364512,"SoundDuration":364512,"Delta":128906645},{"NoteNumber":86,"Velocity":54,"Duration":91001,"SoundDuration":91001,"Delta":128997554},{"NoteNumber":72,"Velocity":58,"Duration":91185,"SoundDuration":91185,"Delta":129088555},{"NoteNumber":84,"Velocity":53,"Duration":91417,"SoundDuration":91417,"Delta":129179741},{"NoteNumber":71,"Velocity":61,"Duration":91510,"SoundDuration":91510,"Delta":129271158},{"NoteNumber":83,"Velocity":56,"Duration":91743,"SoundDuration":91743,"Delta":129362668},{"NoteNumber":69,"Velocity":61,"Duration":91930,"SoundDuration":91930,"Delta":129454411},{"NoteNumber":81,"Velocity":56,"Duration":92071,"SoundDuration":92071,"Delta":129546342},{"NoteNumber":55,"Velocity":34,"Duration":187500,"SoundDuration":187500,"Delta":129638414},{"NoteNumber":59,"Velocity":40,"Duration":187500,"SoundDuration":187500,"Delta":129638414},{"NoteNumber":67,"Velocity":66,"Duration":281250,"SoundDuration":281250,"Delta":129639195},{"NoteNumber":55,"Velocity":30,"Duration":187500,"SoundDuration":187500,"Delta":129825914},{"NoteNumber":59,"Velocity":36,"Duration":187500,"SoundDuration":187500,"Delta":129825914},{"NoteNumber":71,"Velocity":46,"Duration":46875,"SoundDuration":46875,"Delta":129919664},{"NoteNumber":69,"Velocity":47,"Duration":46875,"SoundDuration":46875,"Delta":129966539},{"NoteNumber":67,"Velocity":56,"Duration":93750,"SoundDuration":93750,"Delta":130013414},{"NoteNumber":55,"Velocity":30,"Duration":187500,"SoundDuration":187500,"Delta":130013414},{"NoteNumber":59,"Velocity":36,"Duration":187500,"SoundDuration":187500,"Delta":130013414},{"NoteNumber":62,"Velocity":48,"Duration":93750,"SoundDuration":93750,"Delta":130107164},{"NoteNumber":71,"Velocity":48,"Duration":93750,"SoundDuration":93750,"Delta":130200914},{"NoteNumber":55,"Velocity":30,"Duration":187500,"SoundDuration":187500,"Delta":130200914},{"NoteNumber":59,"Velocity":36,"Duration":187500,"SoundDuration":187500,"Delta":130200914},{"NoteNumber":69,"Velocity":48,"Duration":93750,"SoundDuration":93750,"Delta":130294664},{"NoteNumber":67,"Velocity":56,"Duration":93750,"SoundDuration":93750,"Delta":130388414},{"NoteNumber":55,"Velocity":34,"Duration":187500,"SoundDuration":187500,"Delta":130388414},{"NoteNumber":59,"Velocity":40,"Duration":187500,"SoundDuration":187500,"Delta":130388414},{"NoteNumber":62,"Velocity":48,"Duration":93750,"SoundDuration":93750,"Delta":130482164},{"NoteNumber":67,"Velocity":48,"Duration":92024,"SoundDuration":92024,"Delta":130575914},{"NoteNumber":55,"Velocity":32,"Duration":184048,"SoundDuration":184048,"Delta":130575914},{"NoteNumber":59,"Velocity":38,"Duration":184048,"SoundDuration":184048,"Delta":130575914},{"NoteNumber":71,"Velocity":48,"Duration":92024,"SoundDuration":92024,"Delta":130667938},{"NoteNumber":74,"Velocity":56,"Duration":92024,"SoundDuration":92024,"Delta":130759963},{"NoteNumber":55,"Velocity":32,"Duration":184049,"SoundDuration":184049,"Delta":130759963},{"NoteNumber":59,"Velocity":38,"Duration":184049,"SoundDuration":184049,"Delta":130759963},{"NoteNumber":71,"Velocity":52,"Duration":92024,"SoundDuration":92024,"Delta":130851987},{"NoteNumber":69,"Velocity":52,"Duration":92024,"SoundDuration":92024,"Delta":130944012},{"NoteNumber":55,"Velocity":32,"Duration":188178,"SoundDuration":188178,"Delta":130944012},{"NoteNumber":59,"Velocity":38,"Duration":188178,"SoundDuration":188178,"Delta":130944012},{"NoteNumber":67,"Velocity":52,"Duration":96153,"SoundDuration":96153,"Delta":131036036},{"NoteNumber":71,"Velocity":59,"Duration":92024,"SoundDuration":92024,"Delta":131132190},{"NoteNumber":55,"Velocity":37,"Duration":368098,"SoundDuration":368098,"Delta":131132190},{"NoteNumber":60,"Velocity":44,"Duration":368098,"SoundDuration":368098,"Delta":131132190},{"NoteNumber":69,"Velocity":52,"Duration":92024,"SoundDuration":92024,"Delta":131224214},{"NoteNumber":67,"Velocity":52,"Duration":92024,"SoundDuration":92024,"Delta":131316239},{"NoteNumber":69,"Velocity":52,"Duration":92024,"SoundDuration":92024,"Delta":131408263},{"NoteNumber":67,"Velocity":54,"Duration":190475,"SoundDuration":190475,"Delta":131500288},{"NoteNumber":55,"Velocity":34,"Duration":190475,"SoundDuration":190475,"Delta":131500288},{"NoteNumber":59,"Velocity":41,"Duration":190475,"SoundDuration":190475,"Delta":131500288},{"NoteNumber":76,"Velocity":54,"Duration":177340,"SoundDuration":177340,"Delta":131690764},{"NoteNumber":75,"Velocity":51,"Duration":88408,"SoundDuration":88408,"Delta":131868104},{"NoteNumber":71,"Velocity":41,"Duration":176644,"SoundDuration":176644,"Delta":131868104},{"NoteNumber":67,"Velocity":41,"Duration":176644,"SoundDuration":176644,"Delta":131868104},{"NoteNumber":76,"Velocity":52,"Duration":88235,"SoundDuration":88235,"Delta":131956513},{"NoteNumber":77,"Velocity":53,"Duration":87976,"SoundDuration":87976,"Delta":132044748},{"NoteNumber":71,"Velocity":38,"Duration":175781,"SoundDuration":175781,"Delta":132044748},{"NoteNumber":67,"Velocity":38,"Duration":175781,"SoundDuration":175781,"Delta":132044748},{"NoteNumber":78,"Velocity":54,"Duration":87805,"SoundDuration":87805,"Delta":132132725},{"NoteNumber":79,"Velocity":56,"Duration":87634,"SoundDuration":87634,"Delta":132220530},{"NoteNumber":71,"Velocity":44,"Duration":175097,"SoundDuration":175097,"Delta":132220530},{"NoteNumber":67,"Velocity":44,"Duration":175097,"SoundDuration":175097,"Delta":132220530},{"NoteNumber":80,"Velocity":57,"Duration":87463,"SoundDuration":87463,"Delta":132308164},{"NoteNumber":81,"Velocity":58,"Duration":87209,"SoundDuration":87209,"Delta":132395627},{"NoteNumber":67,"Velocity":41,"Duration":175127,"SoundDuration":175127,"Delta":132395627},{"NoteNumber":71,"Velocity":41,"Duration":175127,"SoundDuration":175127,"Delta":132395627},{"NoteNumber":82,"Velocity":59,"Duration":87918,"SoundDuration":87918,"Delta":132482836},{"NoteNumber":83,"Velocity":68,"Duration":364742,"SoundDuration":364742,"Delta":132570755},{"NoteNumber":71,"Velocity":46,"Duration":182370,"SoundDuration":182370,"Delta":132570755},{"NoteNumber":67,"Velocity":39,"Duration":182370,"SoundDuration":182370,"Delta":132570755},{"NoteNumber":67,"Velocity":39,"Duration":182371,"SoundDuration":182371,"Delta":132753126},{"NoteNumber":71,"Velocity":46,"Duration":182371,"SoundDuration":182371,"Delta":132753126},{"NoteNumber":81,"Velocity":60,"Duration":89285,"SoundDuration":89285,"Delta":132935497},{"NoteNumber":67,"Velocity":39,"Duration":178571,"SoundDuration":178571,"Delta":132935497},{"NoteNumber":71,"Velocity":46,"Duration":178571,"SoundDuration":178571,"Delta":132935497},{"NoteNumber":79,"Velocity":56,"Duration":89285,"SoundDuration":89285,"Delta":133024782},{"NoteNumber":78,"Velocity":56,"Duration":89285,"SoundDuration":89285,"Delta":133114068},{"NoteNumber":67,"Velocity":39,"Duration":178571,"SoundDuration":178571,"Delta":133114068},{"NoteNumber":71,"Velocity":46,"Duration":178571,"SoundDuration":178571,"Delta":133114068},{"NoteNumber":76,"Velocity":56,"Duration":89285,"SoundDuration":89285,"Delta":133203354},{"NoteNumber":74,"Velocity":60,"Duration":363636,"SoundDuration":363636,"Delta":133292640},{"NoteNumber":66,"Velocity":46,"Duration":181817,"SoundDuration":181817,"Delta":133292640},{"NoteNumber":57,"Velocity":39,"Duration":181817,"SoundDuration":181817,"Delta":133292640},{"NoteNumber":57,"Velocity":39,"Duration":181818,"SoundDuration":181818,"Delta":133474458},{"NoteNumber":66,"Velocity":46,"Duration":181818,"SoundDuration":181818,"Delta":133474458},{"NoteNumber":73,"Velocity":52,"Duration":59701,"SoundDuration":59701,"Delta":133656276},{"NoteNumber":57,"Velocity":39,"Duration":179104,"SoundDuration":179104,"Delta":133656276},{"NoteNumber":64,"Velocity":46,"Duration":179104,"SoundDuration":179104,"Delta":133656276},{"NoteNumber":74,"Velocity":43,"Duration":59701,"SoundDuration":59701,"Delta":133715977},{"NoteNumber":73,"Velocity":48,"Duration":59701,"SoundDuration":59701,"Delta":133775679},{"NoteNumber":74,"Velocity":43,"Duration":46296,"SoundDuration":46296,"Delta":133835380},{"NoteNumber":57,"Velocity":39,"Duration":185184,"SoundDuration":185184,"Delta":133835380},{"NoteNumber":64,"Velocity":46,"Duration":185184,"SoundDuration":185184,"Delta":133835380},{"NoteNumber":73,"Velocity":48,"Duration":46296,"SoundDuration":46296,"Delta":133881676},{"NoteNumber":74,"Velocity":42,"Duration":46296,"SoundDuration":46296,"Delta":133927973},{"NoteNumber":73,"Velocity":47,"Duration":46296,"SoundDuration":46296,"Delta":133974269},{"NoteNumber":74,"Velocity":54,"Duration":89552,"SoundDuration":89552,"Delta":134020565},{"NoteNumber":62,"Velocity":37,"Duration":179104,"SoundDuration":179104,"Delta":134020565},{"NoteNumber":66,"Velocity":44,"Duration":179104,"SoundDuration":179104,"Delta":134020565},{"NoteNumber":76,"Velocity":50,"Duration":89552,"SoundDuration":89552,"Delta":134110117},{"NoteNumber":78,"Velocity":51,"Duration":89552,"SoundDuration":89552,"Delta":134199670},{"NoteNumber":62,"Velocity":32,"Duration":179104,"SoundDuration":179104,"Delta":134199670},{"NoteNumber":66,"Velocity":38,"Duration":179104,"SoundDuration":179104,"Delta":134199670},{"NoteNumber":79,"Velocity":52,"Duration":89552,"SoundDuration":89552,"Delta":134289222},{"NoteNumber":81,"Velocity":53,"Duration":89552,"SoundDuration":89552,"Delta":134378774},{"NoteNumber":62,"Velocity":32,"Duration":179104,"SoundDuration":179104,"Delta":134378774},{"NoteNumber":66,"Velocity":38,"Duration":179104,"SoundDuration":179104,"Delta":134378774},{"NoteNumber":83,"Velocity":54,"Duration":89552,"SoundDuration":89552,"Delta":134468326},{"NoteNumber":85,"Velocity":55,"Duration":90909,"SoundDuration":90909,"Delta":134557879},{"NoteNumber":62,"Velocity":32,"Duration":181817,"SoundDuration":181817,"Delta":134557879},{"NoteNumber":66,"Velocity":38,"Duration":181817,"SoundDuration":181817,"Delta":134557879},{"NoteNumber":86,"Velocity":56,"Duration":90908,"SoundDuration":90908,"Delta":134648788},{"NoteNumber":85,"Velocity":59,"Duration":89552,"SoundDuration":89552,"Delta":134739697},{"NoteNumber":62,"Velocity":36,"Duration":179104,"SoundDuration":179104,"Delta":134739697},{"NoteNumber":67,"Velocity":43,"Duration":179104,"SoundDuration":179104,"Delta":134739697},{"NoteNumber":88,"Velocity":55,"Duration":89552,"SoundDuration":89552,"Delta":134829249},{"NoteNumber":85,"Velocity":55,"Duration":89552,"SoundDuration":89552,"Delta":134918801},{"NoteNumber":62,"Velocity":32,"Duration":179104,"SoundDuration":179104,"Delta":134918801},{"NoteNumber":67,"Velocity":38,"Duration":179104,"SoundDuration":179104,"Delta":134918801},{"NoteNumber":81,"Velocity":55,"Duration":89552,"SoundDuration":89552,"Delta":135008353},{"NoteNumber":79,"Velocity":58,"Duration":89552,"SoundDuration":89552,"Delta":135097906},{"NoteNumber":62,"Velocity":32,"Duration":179372,"SoundDuration":179372,"Delta":135097906},{"NoteNumber":67,"Velocity":38,"Duration":179372,"SoundDuration":179372,"Delta":135097906},{"NoteNumber":83,"Velocity":55,"Duration":89820,"SoundDuration":89820,"Delta":135187458},{"NoteNumber":79,"Velocity":55,"Duration":90090,"SoundDuration":90090,"Delta":135277278},{"NoteNumber":62,"Velocity":32,"Duration":180497,"SoundDuration":180497,"Delta":135277278},{"NoteNumber":67,"Velocity":38,"Duration":180497,"SoundDuration":180497,"Delta":135277278},{"NoteNumber":76,"Velocity":55,"Duration":90406,"SoundDuration":90406,"Delta":135367368},{"NoteNumber":78,"Velocity":57,"Duration":89552,"SoundDuration":89552,"Delta":135457775},{"NoteNumber":62,"Velocity":37,"Duration":179104,"SoundDuration":179104,"Delta":135457775},{"NoteNumber":66,"Velocity":44,"Duration":179104,"SoundDuration":179104,"Delta":135457775},{"NoteNumber":81,"Velocity":53,"Duration":89552,"SoundDuration":89552,"Delta":135547327},{"NoteNumber":79,"Velocity":53,"Duration":89552,"SoundDuration":89552,"Delta":135636880},{"NoteNumber":62,"Velocity":32,"Duration":179104,"SoundDuration":179104,"Delta":135636880},{"NoteNumber":66,"Velocity":38,"Duration":179104,"SoundDuration":179104,"Delta":135636880},{"NoteNumber":78,"Velocity":53,"Duration":89552,"SoundDuration":89552,"Delta":135726432},{"NoteNumber":76,"Velocity":55,"Duration":89552,"SoundDuration":89552,"Delta":135815984},{"NoteNumber":62,"Velocity":32,"Duration":179104,"SoundDuration":179104,"Delta":135815984},{"NoteNumber":66,"Velocity":38,"Duration":179104,"SoundDuration":179104,"Delta":135815984},{"NoteNumber":74,"Velocity":53,"Duration":89552,"SoundDuration":89552,"Delta":135905536},{"NoteNumber":73,"Velocity":53,"Duration":89552,"SoundDuration":89552,"Delta":135995089},{"NoteNumber":62,"Velocity":32,"Duration":179104,"SoundDuration":179104,"Delta":135995089},{"NoteNumber":66,"Velocity":38,"Duration":179104,"SoundDuration":179104,"Delta":135995089},{"NoteNumber":71,"Velocity":53,"Duration":89552,"SoundDuration":89552,"Delta":136084641},{"NoteNumber":69,"Velocity":56,"Duration":89552,"SoundDuration":89552,"Delta":136174193},{"NoteNumber":62,"Velocity":37,"Duration":179104,"SoundDuration":179104,"Delta":136174193},{"NoteNumber":67,"Velocity":44,"Duration":179104,"SoundDuration":179104,"Delta":136174193},{"NoteNumber":71,"Velocity":52,"Duration":89552,"SoundDuration":89552,"Delta":136263745},{"NoteNumber":73,"Velocity":52,"Duration":89552,"SoundDuration":89552,"Delta":136353298},{"NoteNumber":62,"Velocity":32,"Duration":179104,"SoundDuration":179104,"Delta":136353298},{"NoteNumber":67,"Velocity":38,"Duration":179104,"SoundDuration":179104,"Delta":136353298},{"NoteNumber":74,"Velocity":52,"Duration":89552,"SoundDuration":89552,"Delta":136442850},{"NoteNumber":76,"Velocity":55,"Duration":89552,"SoundDuration":89552,"Delta":136532402},{"NoteNumber":62,"Velocity":32,"Duration":179104,"SoundDuration":179104,"Delta":136532402},{"NoteNumber":67,"Velocity":38,"Duration":179104,"SoundDuration":179104,"Delta":136532402},{"NoteNumber":78,"Velocity":51,"Duration":89552,"SoundDuration":89552,"Delta":136621954},{"NoteNumber":79,"Velocity":53,"Duration":89552,"SoundDuration":89552,"Delta":136711507},{"NoteNumber":62,"Velocity":32,"Duration":179104,"SoundDuration":179104,"Delta":136711507},{"NoteNumber":67,"Velocity":38,"Duration":179104,"SoundDuration":179104,"Delta":136711507},{"NoteNumber":76,"Velocity":54,"Duration":89552,"SoundDuration":89552,"Delta":136801059},{"NoteNumber":74,"Velocity":56,"Duration":89911,"SoundDuration":89911,"Delta":136890611},{"NoteNumber":62,"Velocity":38,"Duration":180913,"SoundDuration":180913,"Delta":136890611},{"NoteNumber":66,"Velocity":45,"Duration":180913,"SoundDuration":180913,"Delta":136890611},{"NoteNumber":76,"Velocity":56,"Duration":91002,"SoundDuration":91002,"Delta":136980522},{"NoteNumber":78,"Velocity":59,"Duration":92119,"SoundDuration":92119,"Delta":137071524},{"NoteNumber":62,"Velocity":34,"Duration":185385,"SoundDuration":185385,"Delta":137071524},{"NoteNumber":66,"Velocity":41,"Duration":185385,"SoundDuration":185385,"Delta":137071524},{"NoteNumber":79,"Velocity":61,"Duration":93265,"SoundDuration":93265,"Delta":137163644},{"NoteNumber":81,"Velocity":61,"Duration":94439,"SoundDuration":94439,"Delta":137256909},{"NoteNumber":62,"Velocity":38,"Duration":190083,"SoundDuration":190083,"Delta":137256909},{"NoteNumber":66,"Velocity":45,"Duration":190083,"SoundDuration":190083,"Delta":137256909},{"NoteNumber":83,"Velocity":63,"Duration":95644,"SoundDuration":95644,"Delta":137351349},{"NoteNumber":85,"Velocity":66,"Duration":96932,"SoundDuration":96932,"Delta":137446993},{"NoteNumber":62,"Velocity":34,"Duration":96932,"SoundDuration":96932,"Delta":137446993},{"NoteNumber":66,"Velocity":40,"Duration":96932,"SoundDuration":96932,"Delta":137446993},{"NoteNumber":86,"Velocity":69,"Duration":51020,"SoundDuration":51020,"Delta":137543925},{"NoteNumber":74,"Velocity":66,"Duration":380952,"SoundDuration":380952,"Delta":137644832},{"NoteNumber":62,"Velocity":40,"Duration":380952,"SoundDuration":380952,"Delta":137644832},{"NoteNumber":66,"Velocity":48,"Duration":380952,"SoundDuration":380952,"Delta":137644832},{"NoteNumber":77,"Velocity":54,"Duration":273556,"SoundDuration":273556,"Delta":138406736},{"NoteNumber":58,"Velocity":45,"Duration":91185,"SoundDuration":91185,"Delta":138406736},{"NoteNumber":65,"Velocity":39,"Duration":91185,"SoundDuration":91185,"Delta":138497922},{"NoteNumber":62,"Velocity":45,"Duration":91185,"SoundDuration":91185,"Delta":138589107},{"NoteNumber":74,"Velocity":47,"Duration":45592,"SoundDuration":45592,"Delta":138680293},{"NoteNumber":65,"Velocity":38,"Duration":91185,"SoundDuration":91185,"Delta":138680293},{"NoteNumber":75,"Velocity":47,"Duration":45592,"SoundDuration":45592,"Delta":138725886},{"NoteNumber":77,"Velocity":55,"Duration":182370,"SoundDuration":182370,"Delta":138771478},{"NoteNumber":58,"Velocity":45,"Duration":91185,"SoundDuration":91185,"Delta":138771478},{"NoteNumber":65,"Velocity":41,"Duration":91185,"SoundDuration":91185,"Delta":138862664},{"NoteNumber":89,"Velocity":84,"Duration":405479,"SoundDuration":405479,"Delta":138953849},{"NoteNumber":62,"Velocity":45,"Duration":102739,"SoundDuration":102739,"Delta":138953849},{"NoteNumber":65,"Velocity":39,"Duration":102739,"SoundDuration":102739,"Delta":139056589},{"NoteNumber":60,"Velocity":45,"Duration":99999,"SoundDuration":99999,"Delta":139159329},{"NoteNumber":65,"Velocity":39,"Duration":99999,"SoundDuration":99999,"Delta":139259329},{"NoteNumber":69,"Velocity":51,"Duration":189873,"SoundDuration":189873,"Delta":139359329},{"NoteNumber":63,"Velocity":45,"Duration":94936,"SoundDuration":94936,"Delta":139359329},{"NoteNumber":65,"Velocity":39,"Duration":94936,"SoundDuration":94936,"Delta":139454266},{"NoteNumber":69,"Velocity":51,"Duration":189873,"SoundDuration":189873,"Delta":139549202},{"NoteNumber":60,"Velocity":45,"Duration":94936,"SoundDuration":94936,"Delta":139549202},{"NoteNumber":65,"Velocity":41,"Duration":94936,"SoundDuration":94936,"Delta":139644139},{"NoteNumber":69,"Velocity":51,"Duration":189873,"SoundDuration":189873,"Delta":139739076},{"NoteNumber":63,"Velocity":45,"Duration":94936,"SoundDuration":94936,"Delta":139739076},{"NoteNumber":65,"Velocity":40,"Duration":94936,"SoundDuration":94936,"Delta":139834013},{"NoteNumber":70,"Velocity":54,"Duration":273556,"SoundDuration":273556,"Delta":139928949},{"NoteNumber":58,"Velocity":45,"Duration":91185,"SoundDuration":91185,"Delta":139928949},{"NoteNumber":65,"Velocity":40,"Duration":91185,"SoundDuration":91185,"Delta":140020135},{"NoteNumber":62,"Velocity":45,"Duration":91185,"SoundDuration":91185,"Delta":140111320},{"NoteNumber":70,"Velocity":47,"Duration":45592,"SoundDuration":45592,"Delta":140202506},{"NoteNumber":65,"Velocity":40,"Duration":91185,"SoundDuration":91185,"Delta":140202506},{"NoteNumber":72,"Velocity":47,"Duration":45592,"SoundDuration":45592,"Delta":140248099},{"NoteNumber":74,"Velocity":55,"Duration":182370,"SoundDuration":182370,"Delta":140293691},{"NoteNumber":58,"Velocity":45,"Duration":91185,"SoundDuration":91185,"Delta":140293691},{"NoteNumber":65,"Velocity":40,"Duration":91185,"SoundDuration":91185,"Delta":140384877},{"NoteNumber":86,"Velocity":79,"Duration":412765,"SoundDuration":412765,"Delta":140476062},{"NoteNumber":62,"Velocity":45,"Duration":106382,"SoundDuration":106382,"Delta":140476062},{"NoteNumber":65,"Velocity":39,"Duration":106382,"SoundDuration":106382,"Delta":140582445},{"NoteNumber":57,"Velocity":45,"Duration":99999,"SoundDuration":99999,"Delta":140688828},{"NoteNumber":62,"Velocity":39,"Duration":99999,"SoundDuration":99999,"Delta":140788828},{"NoteNumber":66,"Velocity":51,"Duration":192925,"SoundDuration":192925,"Delta":140888828},{"NoteNumber":60,"Velocity":45,"Duration":96462,"SoundDuration":96462,"Delta":140888828},{"NoteNumber":62,"Velocity":41,"Duration":96462,"SoundDuration":96462,"Delta":140985291},{"NoteNumber":66,"Velocity":51,"Duration":192925,"SoundDuration":192925,"Delta":141081754},{"NoteNumber":57,"Velocity":45,"Duration":96462,"SoundDuration":96462,"Delta":141081754},{"NoteNumber":62,"Velocity":40,"Duration":96462,"SoundDuration":96462,"Delta":141178217},{"NoteNumber":66,"Velocity":51,"Duration":192925,"SoundDuration":192925,"Delta":141274680},{"NoteNumber":60,"Velocity":45,"Duration":96462,"SoundDuration":96462,"Delta":141274680},{"NoteNumber":62,"Velocity":40,"Duration":96462,"SoundDuration":96462,"Delta":141371143},{"NoteNumber":67,"Velocity":59,"Duration":271084,"SoundDuration":271084,"Delta":141467606},{"NoteNumber":55,"Velocity":45,"Duration":90361,"SoundDuration":90361,"Delta":141467606},{"NoteNumber":62,"Velocity":40,"Duration":90361,"SoundDuration":90361,"Delta":141557968},{"NoteNumber":58,"Velocity":45,"Duration":90361,"SoundDuration":90361,"Delta":141648329},{"NoteNumber":67,"Velocity":47,"Duration":45180,"SoundDuration":45180,"Delta":141738691},{"NoteNumber":62,"Velocity":39,"Duration":90361,"SoundDuration":90361,"Delta":141738691},{"NoteNumber":69,"Velocity":47,"Duration":45180,"SoundDuration":45180,"Delta":141783872},{"NoteNumber":70,"Velocity":59,"Duration":180723,"SoundDuration":180723,"Delta":141829052},{"NoteNumber":55,"Velocity":45,"Duration":90361,"SoundDuration":90361,"Delta":141829052},{"NoteNumber":62,"Velocity":40,"Duration":90361,"SoundDuration":90361,"Delta":141919414},{"NoteNumber":82,"Velocity":78,"Duration":406185,"SoundDuration":406185,"Delta":142009775},{"NoteNumber":58,"Velocity":45,"Duration":103092,"SoundDuration":103092,"Delta":142009775},{"NoteNumber":62,"Velocity":40,"Duration":103092,"SoundDuration":103092,"Delta":142112868},{"NoteNumber":51,"Velocity":45,"Duration":99999,"SoundDuration":99999,"Delta":142215961},{"NoteNumber":55,"Velocity":39,"Duration":99999,"SoundDuration":99999,"Delta":142315961},{"NoteNumber":61,"Velocity":55,"Duration":200000,"SoundDuration":200000,"Delta":142415961},{"NoteNumber":54,"Velocity":45,"Duration":100000,"SoundDuration":100000,"Delta":142415961},{"NoteNumber":55,"Velocity":39,"Duration":99999,"SoundDuration":99999,"Delta":142515961},{"NoteNumber":61,"Velocity":55,"Duration":199999,"SoundDuration":199999,"Delta":142615961},{"NoteNumber":51,"Velocity":45,"Duration":99999,"SoundDuration":99999,"Delta":142615961},{"NoteNumber":55,"Velocity":39,"Duration":99999,"SoundDuration":99999,"Delta":142715961},{"NoteNumber":61,"Velocity":55,"Duration":200000,"SoundDuration":200000,"Delta":142815961},{"NoteNumber":54,"Velocity":45,"Duration":99999,"SoundDuration":99999,"Delta":142815961},{"NoteNumber":55,"Velocity":39,"Duration":100000,"SoundDuration":100000,"Delta":142915961},{"NoteNumber":62,"Velocity":54,"Duration":90361,"SoundDuration":90361,"Delta":143015961},{"NoteNumber":50,"Velocity":58,"Duration":361446,"SoundDuration":361446,"Delta":143015961},{"NoteNumber":64,"Velocity":56,"Duration":90361,"SoundDuration":90361,"Delta":143106322},{"NoteNumber":66,"Velocity":57,"Duration":90361,"SoundDuration":90361,"Delta":143196684},{"NoteNumber":67,"Velocity":59,"Duration":90361,"SoundDuration":90361,"Delta":143287045},{"NoteNumber":69,"Velocity":60,"Duration":102739,"SoundDuration":102739,"Delta":143377407},{"NoteNumber":66,"Velocity":57,"Duration":102739,"SoundDuration":102739,"Delta":143480147},{"NoteNumber":67,"Velocity":60,"Duration":105633,"SoundDuration":105633,"Delta":143582886},{"NoteNumber":64,"Velocity":56,"Duration":105633,"SoundDuration":105633,"Delta":143688520},{"NoteNumber":62,"Velocity":68,"Duration":422535,"SoundDuration":422535,"Delta":143794154},{"NoteNumber":38,"Velocity":60,"Duration":105633,"SoundDuration":105633,"Delta":143794154},{"NoteNumber":50,"Velocity":60,"Duration":105633,"SoundDuration":105633,"Delta":143899788},{"NoteNumber":36,"Velocity":60,"Duration":105633,"SoundDuration":105633,"Delta":144005421},{"NoteNumber":48,"Velocity":59,"Duration":105633,"SoundDuration":105633,"Delta":144111055},{"NoteNumber":35,"Velocity":58,"Duration":105633,"SoundDuration":105633,"Delta":144216689},{"NoteNumber":47,"Velocity":57,"Duration":105633,"SoundDuration":105633,"Delta":144322323},{"NoteNumber":33,"Velocity":56,"Duration":105633,"SoundDuration":105633,"Delta":144427956},{"NoteNumber":45,"Velocity":56,"Duration":105633,"SoundDuration":105633,"Delta":144533590},{"NoteNumber":31,"Velocity":65,"Duration":375000,"SoundDuration":375000,"Delta":144639224},{"NoteNumber":67,"Velocity":60,"Duration":281250,"SoundDuration":281250,"Delta":144640005},{"NoteNumber":71,"Velocity":46,"Duration":46875,"SoundDuration":46875,"Delta":144920474},{"NoteNumber":69,"Velocity":47,"Duration":46875,"SoundDuration":46875,"Delta":144967349},{"NoteNumber":67,"Velocity":56,"Duration":93750,"SoundDuration":93750,"Delta":145014224},{"NoteNumber":55,"Velocity":30,"Duration":187500,"SoundDuration":187500,"Delta":145014224},{"NoteNumber":59,"Velocity":36,"Duration":187500,"SoundDuration":187500,"Delta":145014224},{"NoteNumber":62,"Velocity":48,"Duration":93750,"SoundDuration":93750,"Delta":145107974},{"NoteNumber":71,"Velocity":48,"Duration":93750,"SoundDuration":93750,"Delta":145201724},{"NoteNumber":55,"Velocity":30,"Duration":187500,"SoundDuration":187500,"Delta":145201724},{"NoteNumber":59,"Velocity":36,"Duration":187500,"SoundDuration":187500,"Delta":145201724},{"NoteNumber":69,"Velocity":48,"Duration":93750,"SoundDuration":93750,"Delta":145295474},{"NoteNumber":67,"Velocity":56,"Duration":93750,"SoundDuration":93750,"Delta":145389224},{"NoteNumber":55,"Velocity":34,"Duration":187500,"SoundDuration":187500,"Delta":145389224},{"NoteNumber":59,"Velocity":40,"Duration":187500,"SoundDuration":187500,"Delta":145389224},{"NoteNumber":62,"Velocity":48,"Duration":93750,"SoundDuration":93750,"Delta":145482974},{"NoteNumber":67,"Velocity":48,"Duration":92024,"SoundDuration":92024,"Delta":145576724},{"NoteNumber":55,"Velocity":32,"Duration":184048,"SoundDuration":184048,"Delta":145576724},{"NoteNumber":59,"Velocity":38,"Duration":184048,"SoundDuration":184048,"Delta":145576724},{"NoteNumber":71,"Velocity":48,"Duration":92024,"SoundDuration":92024,"Delta":145668748},{"NoteNumber":74,"Velocity":56,"Duration":92024,"SoundDuration":92024,"Delta":145760773},{"NoteNumber":55,"Velocity":32,"Duration":184049,"SoundDuration":184049,"Delta":145760773},{"NoteNumber":59,"Velocity":38,"Duration":184049,"SoundDuration":184049,"Delta":145760773},{"NoteNumber":71,"Velocity":52,"Duration":92024,"SoundDuration":92024,"Delta":145852797},{"NoteNumber":69,"Velocity":52,"Duration":92024,"SoundDuration":92024,"Delta":145944822},{"NoteNumber":55,"Velocity":32,"Duration":187566,"SoundDuration":187566,"Delta":145944822},{"NoteNumber":59,"Velocity":38,"Duration":187566,"SoundDuration":187566,"Delta":145944822},{"NoteNumber":67,"Velocity":52,"Duration":95541,"SoundDuration":95541,"Delta":146036846},{"NoteNumber":71,"Velocity":59,"Duration":92024,"SoundDuration":92024,"Delta":146132388},{"NoteNumber":55,"Velocity":37,"Duration":368098,"SoundDuration":368098,"Delta":146132388},{"NoteNumber":60,"Velocity":44,"Duration":368098,"SoundDuration":368098,"Delta":146132388},{"NoteNumber":69,"Velocity":52,"Duration":92024,"SoundDuration":92024,"Delta":146224412},{"NoteNumber":67,"Velocity":52,"Duration":92024,"SoundDuration":92024,"Delta":146316437},{"NoteNumber":69,"Velocity":52,"Duration":92024,"SoundDuration":92024,"Delta":146408461},{"NoteNumber":67,"Velocity":54,"Duration":192307,"SoundDuration":192307,"Delta":146500486},{"NoteNumber":55,"Velocity":34,"Duration":192307,"SoundDuration":192307,"Delta":146500486},{"NoteNumber":59,"Velocity":41,"Duration":192307,"SoundDuration":192307,"Delta":146500486},{"NoteNumber":88,"Velocity":46,"Duration":91463,"SoundDuration":91463,"Delta":146692793},{"NoteNumber":76,"Velocity":44,"Duration":91463,"SoundDuration":91463,"Delta":146784257},{"NoteNumber":88,"Velocity":47,"Duration":91649,"SoundDuration":91649,"Delta":146875720},{"NoteNumber":74,"Velocity":41,"Duration":183392,"SoundDuration":183392,"Delta":146875720},{"NoteNumber":68,"Velocity":41,"Duration":183392,"SoundDuration":183392,"Delta":146875720},{"NoteNumber":76,"Velocity":44,"Duration":91743,"SoundDuration":91743,"Delta":146967370},{"NoteNumber":88,"Velocity":49,"Duration":91883,"SoundDuration":91883,"Delta":147059113},{"NoteNumber":74,"Velocity":38,"Duration":183908,"SoundDuration":183908,"Delta":147059113},{"NoteNumber":68,"Velocity":38,"Duration":183908,"SoundDuration":183908,"Delta":147059113},{"NoteNumber":76,"Velocity":45,"Duration":92024,"SoundDuration":92024,"Delta":147150997},{"NoteNumber":88,"Velocity":51,"Duration":92118,"SoundDuration":92118,"Delta":147243022},{"NoteNumber":74,"Velocity":44,"Duration":184426,"SoundDuration":184426,"Delta":147243022},{"NoteNumber":68,"Velocity":44,"Duration":184426,"SoundDuration":184426,"Delta":147243022},{"NoteNumber":76,"Velocity":46,"Duration":92307,"SoundDuration":92307,"Delta":147335140},{"NoteNumber":88,"Velocity":52,"Duration":92355,"SoundDuration":92355,"Delta":147427448},{"NoteNumber":68,"Velocity":41,"Duration":185813,"SoundDuration":185813,"Delta":147427448},{"NoteNumber":74,"Velocity":41,"Duration":185813,"SoundDuration":185813,"Delta":147427448},{"NoteNumber":76,"Velocity":49,"Duration":93457,"SoundDuration":93457,"Delta":147519803},{"NoteNumber":88,"Velocity":54,"Duration":228658,"SoundDuration":228658,"Delta":147613261},{"NoteNumber":69,"Velocity":50,"Duration":365854,"SoundDuration":365854,"Delta":147613261},{"NoteNumber":72,"Velocity":50,"Duration":365854,"SoundDuration":365854,"Delta":147613261},{"NoteNumber":86,"Velocity":48,"Duration":45731,"SoundDuration":45731,"Delta":147841920},{"NoteNumber":84,"Velocity":48,"Duration":45731,"SoundDuration":45731,"Delta":147887652},{"NoteNumber":83,"Velocity":47,"Duration":45731,"SoundDuration":45731,"Delta":147933384},{"NoteNumber":81,"Velocity":47,"Duration":190475,"SoundDuration":190475,"Delta":147979115},{"NoteNumber":86,"Velocity":46,"Duration":91185,"SoundDuration":91185,"Delta":148169591},{"NoteNumber":74,"Velocity":44,"Duration":91185,"SoundDuration":91185,"Delta":148260777},{"NoteNumber":86,"Velocity":47,"Duration":91370,"SoundDuration":91370,"Delta":148351962},{"NoteNumber":72,"Velocity":41,"Duration":182834,"SoundDuration":182834,"Delta":148351962},{"NoteNumber":66,"Velocity":41,"Duration":182834,"SoundDuration":182834,"Delta":148351962},{"NoteNumber":74,"Velocity":44,"Duration":91463,"SoundDuration":91463,"Delta":148443333},{"NoteNumber":86,"Velocity":49,"Duration":91603,"SoundDuration":91603,"Delta":148534797},{"NoteNumber":72,"Velocity":38,"Duration":183346,"SoundDuration":183346,"Delta":148534797},{"NoteNumber":66,"Velocity":38,"Duration":183346,"SoundDuration":183346,"Delta":148534797},{"NoteNumber":74,"Velocity":45,"Duration":91743,"SoundDuration":91743,"Delta":148626400},{"NoteNumber":86,"Velocity":51,"Duration":91836,"SoundDuration":91836,"Delta":148718143},{"NoteNumber":72,"Velocity":44,"Duration":183861,"SoundDuration":183861,"Delta":148718143},{"NoteNumber":66,"Velocity":44,"Duration":183861,"SoundDuration":183861,"Delta":148718143},{"NoteNumber":74,"Velocity":46,"Duration":92024,"SoundDuration":92024,"Delta":148809980},{"NoteNumber":86,"Velocity":52,"Duration":92071,"SoundDuration":92071,"Delta":148902004},{"NoteNumber":66,"Velocity":41,"Duration":185529,"SoundDuration":185529,"Delta":148902004},{"NoteNumber":72,"Velocity":41,"Duration":185529,"SoundDuration":185529,"Delta":148902004},{"NoteNumber":74,"Velocity":49,"Duration":93457,"SoundDuration":93457,"Delta":148994076},{"NoteNumber":86,"Velocity":54,"Duration":228658,"SoundDuration":228658,"Delta":149087534},{"NoteNumber":67,"Velocity":50,"Duration":365854,"SoundDuration":365854,"Delta":149087534},{"NoteNumber":71,"Velocity":50,"Duration":365854,"SoundDuration":365854,"Delta":149087534},{"NoteNumber":84,"Velocity":48,"Duration":45731,"SoundDuration":45731,"Delta":149316193},{"NoteNumber":83,"Velocity":48,"Duration":45731,"SoundDuration":45731,"Delta":149361925},{"NoteNumber":81,"Velocity":47,"Duration":45731,"SoundDuration":45731,"Delta":149407656},{"NoteNumber":79,"Velocity":47,"Duration":182926,"SoundDuration":182926,"Delta":149453388},{"NoteNumber":86,"Velocity":39,"Duration":45044,"SoundDuration":45044,"Delta":150780342},{"NoteNumber":84,"Velocity":39,"Duration":45045,"SoundDuration":45045,"Delta":150825387},{"NoteNumber":83,"Velocity":39,"Duration":45044,"SoundDuration":45044,"Delta":150870432},{"NoteNumber":81,"Velocity":39,"Duration":45045,"SoundDuration":45045,"Delta":150915477},{"NoteNumber":79,"Velocity":47,"Duration":90090,"SoundDuration":90090,"Delta":150960522},{"NoteNumber":83,"Velocity":39,"Duration":45045,"SoundDuration":45045,"Delta":151140702},{"NoteNumber":81,"Velocity":39,"Duration":45044,"SoundDuration":45044,"Delta":151185747},{"NoteNumber":79,"Velocity":39,"Duration":45045,"SoundDuration":45045,"Delta":151230792},{"NoteNumber":78,"Velocity":39,"Duration":45044,"SoundDuration":45044,"Delta":151275837},{"NoteNumber":76,"Velocity":50,"Duration":90090,"SoundDuration":90090,"Delta":151320882},{"NoteNumber":79,"Velocity":38,"Duration":45044,"SoundDuration":45044,"Delta":151501062},{"NoteNumber":78,"Velocity":38,"Duration":45045,"SoundDuration":45045,"Delta":151546107},{"NoteNumber":76,"Velocity":38,"Duration":45044,"SoundDuration":45044,"Delta":151591152},{"NoteNumber":74,"Velocity":38,"Duration":45045,"SoundDuration":45045,"Delta":151636197},{"NoteNumber":72,"Velocity":50,"Duration":360359,"SoundDuration":360359,"Delta":151681242},{"NoteNumber":64,"Velocity":34,"Duration":360359,"SoundDuration":360359,"Delta":151681242},{"NoteNumber":67,"Velocity":34,"Duration":360359,"SoundDuration":360359,"Delta":151681242},{"NoteNumber":79,"Velocity":52,"Duration":45731,"SoundDuration":45731,"Delta":152224529},{"NoteNumber":77,"Velocity":52,"Duration":45731,"SoundDuration":45731,"Delta":152270261},{"NoteNumber":75,"Velocity":52,"Duration":45731,"SoundDuration":45731,"Delta":152315993},{"NoteNumber":74,"Velocity":52,"Duration":45731,"SoundDuration":45731,"Delta":152361724},{"NoteNumber":72,"Velocity":63,"Duration":182926,"SoundDuration":182926,"Delta":152407456},{"NoteNumber":63,"Velocity":45,"Duration":91463,"SoundDuration":91463,"Delta":152407456},{"NoteNumber":67,"Velocity":38,"Duration":91463,"SoundDuration":91463,"Delta":152498920},{"NoteNumber":83,"Velocity":63,"Duration":182927,"SoundDuration":182927,"Delta":152590383},{"NoteNumber":63,"Velocity":45,"Duration":91463,"SoundDuration":91463,"Delta":152590383},{"NoteNumber":67,"Velocity":38,"Duration":91463,"SoundDuration":91463,"Delta":152681847},{"NoteNumber":84,"Velocity":71,"Duration":182927,"SoundDuration":182927,"Delta":152773310},{"NoteNumber":63,"Velocity":45,"Duration":91463,"SoundDuration":91463,"Delta":152773310},{"NoteNumber":67,"Velocity":39,"Duration":91463,"SoundDuration":91463,"Delta":152864774},{"NoteNumber":84,"Velocity":66,"Duration":193548,"SoundDuration":193548,"Delta":152956237},{"NoteNumber":63,"Velocity":45,"Duration":96774,"SoundDuration":96774,"Delta":152956237},{"NoteNumber":67,"Velocity":39,"Duration":96774,"SoundDuration":96774,"Delta":153053011},{"NoteNumber":84,"Velocity":64,"Duration":92307,"SoundDuration":92307,"Delta":153149786},{"NoteNumber":62,"Velocity":50,"Duration":370967,"SoundDuration":370967,"Delta":153149786},{"NoteNumber":66,"Velocity":50,"Duration":370967,"SoundDuration":370967,"Delta":153149786},{"NoteNumber":83,"Velocity":57,"Duration":92307,"SoundDuration":92307,"Delta":153242093},{"NoteNumber":84,"Velocity":57,"Duration":92307,"SoundDuration":92307,"Delta":153334401},{"NoteNumber":81,"Velocity":57,"Duration":94043,"SoundDuration":94043,"Delta":153426709},{"NoteNumber":83,"Velocity":64,"Duration":92307,"SoundDuration":92307,"Delta":153520753},{"NoteNumber":67,"Velocity":46,"Duration":370967,"SoundDuration":370967,"Delta":153520753},{"NoteNumber":81,"Velocity":57,"Duration":92307,"SoundDuration":92307,"Delta":153613061},{"NoteNumber":83,"Velocity":57,"Duration":92307,"SoundDuration":92307,"Delta":153705368},{"NoteNumber":79,"Velocity":57,"Duration":94043,"SoundDuration":94043,"Delta":153797676},{"NoteNumber":81,"Velocity":63,"Duration":92592,"SoundDuration":92592,"Delta":153891720},{"NoteNumber":60,"Velocity":49,"Duration":372714,"SoundDuration":372714,"Delta":153891720},{"NoteNumber":72,"Velocity":49,"Duration":372714,"SoundDuration":372714,"Delta":153891720},{"NoteNumber":80,"Velocity":57,"Duration":92592,"SoundDuration":92592,"Delta":153984313},{"NoteNumber":81,"Velocity":57,"Duration":92592,"SoundDuration":92592,"Delta":154076905},{"NoteNumber":76,"Velocity":57,"Duration":94936,"SoundDuration":94936,"Delta":154169498},{"NoteNumber":79,"Velocity":63,"Duration":92592,"SoundDuration":92592,"Delta":154264434},{"NoteNumber":62,"Velocity":47,"Duration":372117,"SoundDuration":372117,"Delta":154264434},{"NoteNumber":72,"Velocity":47,"Duration":372117,"SoundDuration":372117,"Delta":154264434},{"NoteNumber":78,"Velocity":57,"Duration":92592,"SoundDuration":92592,"Delta":154357027},{"NoteNumber":76,"Velocity":57,"Duration":92592,"SoundDuration":92592,"Delta":154449619},{"NoteNumber":74,"Velocity":57,"Duration":94339,"SoundDuration":94339,"Delta":154542212},{"NoteNumber":79,"Velocity":65,"Duration":93167,"SoundDuration":93167,"Delta":154636551},{"NoteNumber":67,"Velocity":39,"Duration":186287,"SoundDuration":186287,"Delta":154636551},{"NoteNumber":71,"Velocity":47,"Duration":186287,"SoundDuration":186287,"Delta":154636551},{"NoteNumber":74,"Velocity":56,"Duration":93119,"SoundDuration":93119,"Delta":154729719},{"NoteNumber":79,"Velocity":58,"Duration":92879,"SoundDuration":92879,"Delta":154822839},{"NoteNumber":67,"Velocity":34,"Duration":185615,"SoundDuration":185615,"Delta":154822839},{"NoteNumber":71,"Velocity":40,"Duration":185615,"SoundDuration":185615,"Delta":154822839},{"NoteNumber":83,"Velocity":61,"Duration":92735,"SoundDuration":92735,"Delta":154915718},{"NoteNumber":86,"Velocity":68,"Duration":92592,"SoundDuration":92592,"Delta":155008454},{"NoteNumber":67,"Velocity":36,"Duration":184947,"SoundDuration":184947,"Delta":155008454},{"NoteNumber":71,"Velocity":43,"Duration":184947,"SoundDuration":184947,"Delta":155008454},{"NoteNumber":83,"Velocity":62,"Duration":92355,"SoundDuration":92355,"Delta":155101046},{"NoteNumber":81,"Velocity":60,"Duration":92260,"SoundDuration":92260,"Delta":155193402},{"NoteNumber":67,"Velocity":34,"Duration":188107,"SoundDuration":188107,"Delta":155193402},{"NoteNumber":71,"Velocity":40,"Duration":188107,"SoundDuration":188107,"Delta":155193402},{"NoteNumber":79,"Velocity":57,"Duration":95846,"SoundDuration":95846,"Delta":155285662},{"NoteNumber":78,"Velocity":64,"Duration":93167,"SoundDuration":93167,"Delta":155381509},{"NoteNumber":67,"Velocity":36,"Duration":186335,"SoundDuration":186335,"Delta":155381509},{"NoteNumber":72,"Velocity":43,"Duration":186335,"SoundDuration":186335,"Delta":155381509},{"NoteNumber":74,"Velocity":56,"Duration":93167,"SoundDuration":93167,"Delta":155474677},{"NoteNumber":78,"Velocity":56,"Duration":93167,"SoundDuration":93167,"Delta":155567844},{"NoteNumber":67,"Velocity":31,"Duration":186335,"SoundDuration":186335,"Delta":155567844},{"NoteNumber":72,"Velocity":37,"Duration":186335,"SoundDuration":186335,"Delta":155567844},{"NoteNumber":81,"Velocity":56,"Duration":93167,"SoundDuration":93167,"Delta":155661012},{"NoteNumber":84,"Velocity":64,"Duration":93167,"SoundDuration":93167,"Delta":155754180},{"NoteNumber":67,"Velocity":36,"Duration":186335,"SoundDuration":186335,"Delta":155754180},{"NoteNumber":72,"Velocity":43,"Duration":186335,"SoundDuration":186335,"Delta":155754180},{"NoteNumber":81,"Velocity":57,"Duration":93167,"SoundDuration":93167,"Delta":155847348},{"NoteNumber":79,"Velocity":57,"Duration":92930,"SoundDuration":92930,"Delta":155940515},{"NoteNumber":67,"Velocity":31,"Duration":187567,"SoundDuration":187567,"Delta":155940515},{"NoteNumber":72,"Velocity":37,"Duration":187567,"SoundDuration":187567,"Delta":155940515},{"NoteNumber":78,"Velocity":57,"Duration":94637,"SoundDuration":94637,"Delta":156033446},{"NoteNumber":79,"Velocity":65,"Duration":93167,"SoundDuration":93167,"Delta":156128083},{"NoteNumber":67,"Velocity":39,"Duration":186287,"SoundDuration":186287,"Delta":156128083},{"NoteNumber":71,"Velocity":47,"Duration":186287,"SoundDuration":186287,"Delta":156128083},{"NoteNumber":74,"Velocity":56,"Duration":93119,"SoundDuration":93119,"Delta":156221251},{"NoteNumber":79,"Velocity":58,"Duration":92879,"SoundDuration":92879,"Delta":156314370},{"NoteNumber":67,"Velocity":34,"Duration":185615,"SoundDuration":185615,"Delta":156314370},{"NoteNumber":71,"Velocity":40,"Duration":185615,"SoundDuration":185615,"Delta":156314370},{"NoteNumber":83,"Velocity":61,"Duration":92735,"SoundDuration":92735,"Delta":156407250},{"NoteNumber":86,"Velocity":68,"Duration":92592,"SoundDuration":92592,"Delta":156499985},{"NoteNumber":67,"Velocity":36,"Duration":184947,"SoundDuration":184947,"Delta":156499985},{"NoteNumber":71,"Velocity":43,"Duration":184947,"SoundDuration":184947,"Delta":156499985},{"NoteNumber":83,"Velocity":62,"Duration":92355,"SoundDuration":92355,"Delta":156592578},{"NoteNumber":81,"Velocity":60,"Duration":92260,"SoundDuration":92260,"Delta":156684933},{"NoteNumber":67,"Velocity":34,"Duration":188107,"SoundDuration":188107,"Delta":156684933},{"NoteNumber":71,"Velocity":40,"Duration":188107,"SoundDuration":188107,"Delta":156684933},{"NoteNumber":79,"Velocity":57,"Duration":95846,"SoundDuration":95846,"Delta":156777194},{"NoteNumber":78,"Velocity":64,"Duration":93167,"SoundDuration":93167,"Delta":156873040},{"NoteNumber":67,"Velocity":36,"Duration":186335,"SoundDuration":186335,"Delta":156873040},{"NoteNumber":72,"Velocity":43,"Duration":186335,"SoundDuration":186335,"Delta":156873040},{"NoteNumber":74,"Velocity":56,"Duration":93167,"SoundDuration":93167,"Delta":156966208},{"NoteNumber":78,"Velocity":56,"Duration":93167,"SoundDuration":93167,"Delta":157059376},{"NoteNumber":67,"Velocity":31,"Duration":186335,"SoundDuration":186335,"Delta":157059376},{"NoteNumber":72,"Velocity":37,"Duration":186335,"SoundDuration":186335,"Delta":157059376},{"NoteNumber":81,"Velocity":56,"Duration":93167,"SoundDuration":93167,"Delta":157152544},{"NoteNumber":84,"Velocity":64,"Duration":93167,"SoundDuration":93167,"Delta":157245711},{"NoteNumber":67,"Velocity":36,"Duration":186335,"SoundDuration":186335,"Delta":157245711},{"NoteNumber":72,"Velocity":43,"Duration":186335,"SoundDuration":186335,"Delta":157245711},{"NoteNumber":81,"Velocity":57,"Duration":93167,"SoundDuration":93167,"Delta":157338879},{"NoteNumber":79,"Velocity":57,"Duration":92930,"SoundDuration":92930,"Delta":157432047},{"NoteNumber":67,"Velocity":31,"Duration":187567,"SoundDuration":187567,"Delta":157432047},{"NoteNumber":72,"Velocity":37,"Duration":187567,"SoundDuration":187567,"Delta":157432047},{"NoteNumber":78,"Velocity":57,"Duration":94637,"SoundDuration":94637,"Delta":157524977},{"NoteNumber":79,"Velocity":65,"Duration":94637,"SoundDuration":94637,"Delta":157619614},{"NoteNumber":67,"Velocity":39,"Duration":378548,"SoundDuration":378548,"Delta":157619614},{"NoteNumber":71,"Velocity":47,"Duration":378548,"SoundDuration":378548,"Delta":157619614},{"NoteNumber":83,"Velocity":59,"Duration":94637,"SoundDuration":94637,"Delta":157714252},{"NoteNumber":79,"Velocity":59,"Duration":94637,"SoundDuration":94637,"Delta":157808889},{"NoteNumber":74,"Velocity":59,"Duration":94637,"SoundDuration":94637,"Delta":157903526},{"NoteNumber":71,"Velocity":65,"Duration":94637,"SoundDuration":94637,"Delta":157998163},{"NoteNumber":67,"Velocity":56,"Duration":94637,"SoundDuration":94637,"Delta":158092801},{"NoteNumber":62,"Velocity":55,"Duration":94637,"SoundDuration":94637,"Delta":158187438},{"NoteNumber":59,"Velocity":54,"Duration":94637,"SoundDuration":94637,"Delta":158282075},{"NoteNumber":55,"Velocity":60,"Duration":189274,"SoundDuration":189274,"Delta":158376712},{"NoteNumber":77,"Velocity":54,"Duration":273556,"SoundDuration":273556,"Delta":159133810},{"NoteNumber":58,"Velocity":45,"Duration":91185,"SoundDuration":91185,"Delta":159133810},{"NoteNumber":65,"Velocity":39,"Duration":91185,"SoundDuration":91185,"Delta":159224996},{"NoteNumber":62,"Velocity":45,"Duration":91185,"SoundDuration":91185,"Delta":159316181},{"NoteNumber":74,"Velocity":47,"Duration":45592,"SoundDuration":45592,"Delta":159407367},{"NoteNumber":65,"Velocity":38,"Duration":91185,"SoundDuration":91185,"Delta":159407367},{"NoteNumber":75,"Velocity":47,"Duration":45592,"SoundDuration":45592,"Delta":159452960},{"NoteNumber":77,"Velocity":55,"Duration":182370,"SoundDuration":182370,"Delta":159498552},{"NoteNumber":58,"Velocity":45,"Duration":91185,"SoundDuration":91185,"Delta":159498552},{"NoteNumber":65,"Velocity":41,"Duration":91185,"SoundDuration":91185,"Delta":159589738},{"NoteNumber":89,"Velocity":84,"Duration":405479,"SoundDuration":405479,"Delta":159680923},{"NoteNumber":62,"Velocity":45,"Duration":102739,"SoundDuration":102739,"Delta":159680923},{"NoteNumber":65,"Velocity":39,"Duration":102739,"SoundDuration":102739,"Delta":159783663},{"NoteNumber":60,"Velocity":45,"Duration":99999,"SoundDuration":99999,"Delta":159886403},{"NoteNumber":65,"Velocity":39,"Duration":99999,"SoundDuration":99999,"Delta":159986403},{"NoteNumber":69,"Velocity":51,"Duration":189873,"SoundDuration":189873,"Delta":160086403},{"NoteNumber":63,"Velocity":45,"Duration":94936,"SoundDuration":94936,"Delta":160086403},{"NoteNumber":65,"Velocity":39,"Duration":94936,"SoundDuration":94936,"Delta":160181340},{"NoteNumber":69,"Velocity":51,"Duration":189873,"SoundDuration":189873,"Delta":160276276},{"NoteNumber":60,"Velocity":45,"Duration":94936,"SoundDuration":94936,"Delta":160276276},{"NoteNumber":65,"Velocity":41,"Duration":94936,"SoundDuration":94936,"Delta":160371213},{"NoteNumber":69,"Velocity":51,"Duration":189873,"SoundDuration":189873,"Delta":160466150},{"NoteNumber":63,"Velocity":45,"Duration":94936,"SoundDuration":94936,"Delta":160466150},{"NoteNumber":65,"Velocity":40,"Duration":94936,"SoundDuration":94936,"Delta":160561087},{"NoteNumber":70,"Velocity":54,"Duration":273556,"SoundDuration":273556,"Delta":160656023},{"NoteNumber":58,"Velocity":45,"Duration":91185,"SoundDuration":91185,"Delta":160656023},{"NoteNumber":65,"Velocity":40,"Duration":91185,"SoundDuration":91185,"Delta":160747209},{"NoteNumber":62,"Velocity":45,"Duration":91185,"SoundDuration":91185,"Delta":160838394},{"NoteNumber":70,"Velocity":47,"Duration":45592,"SoundDuration":45592,"Delta":160929580},{"NoteNumber":65,"Velocity":40,"Duration":91185,"SoundDuration":91185,"Delta":160929580},{"NoteNumber":72,"Velocity":47,"Duration":45592,"SoundDuration":45592,"Delta":160975173},{"NoteNumber":74,"Velocity":55,"Duration":182370,"SoundDuration":182370,"Delta":161020765},{"NoteNumber":58,"Velocity":45,"Duration":91185,"SoundDuration":91185,"Delta":161020765},{"NoteNumber":65,"Velocity":40,"Duration":91185,"SoundDuration":91185,"Delta":161111951},{"NoteNumber":86,"Velocity":79,"Duration":412765,"SoundDuration":412765,"Delta":161203136},{"NoteNumber":62,"Velocity":45,"Duration":106382,"SoundDuration":106382,"Delta":161203136},{"NoteNumber":65,"Velocity":39,"Duration":106382,"SoundDuration":106382,"Delta":161309519},{"NoteNumber":57,"Velocity":45,"Duration":99999,"SoundDuration":99999,"Delta":161415902},{"NoteNumber":62,"Velocity":39,"Duration":99999,"SoundDuration":99999,"Delta":161515902},{"NoteNumber":66,"Velocity":51,"Duration":192925,"SoundDuration":192925,"Delta":161615902},{"NoteNumber":60,"Velocity":45,"Duration":96462,"SoundDuration":96462,"Delta":161615902},{"NoteNumber":62,"Velocity":41,"Duration":96462,"SoundDuration":96462,"Delta":161712365},{"NoteNumber":66,"Velocity":51,"Duration":192925,"SoundDuration":192925,"Delta":161808828},{"NoteNumber":57,"Velocity":45,"Duration":96462,"SoundDuration":96462,"Delta":161808828},{"NoteNumber":62,"Velocity":40,"Duration":96462,"SoundDuration":96462,"Delta":161905291},{"NoteNumber":66,"Velocity":51,"Duration":192925,"SoundDuration":192925,"Delta":162001754},{"NoteNumber":60,"Velocity":45,"Duration":96462,"SoundDuration":96462,"Delta":162001754},{"NoteNumber":62,"Velocity":40,"Duration":96462,"SoundDuration":96462,"Delta":162098217},{"NoteNumber":67,"Velocity":59,"Duration":271084,"SoundDuration":271084,"Delta":162194680},{"NoteNumber":55,"Velocity":45,"Duration":90361,"SoundDuration":90361,"Delta":162194680},{"NoteNumber":62,"Velocity":40,"Duration":90361,"SoundDuration":90361,"Delta":162285042},{"NoteNumber":58,"Velocity":45,"Duration":90361,"SoundDuration":90361,"Delta":162375403},{"NoteNumber":67,"Velocity":47,"Duration":45180,"SoundDuration":45180,"Delta":162465765},{"NoteNumber":62,"Velocity":39,"Duration":90361,"SoundDuration":90361,"Delta":162465765},{"NoteNumber":69,"Velocity":47,"Duration":45180,"SoundDuration":45180,"Delta":162510946},{"NoteNumber":70,"Velocity":59,"Duration":180723,"SoundDuration":180723,"Delta":162556126},{"NoteNumber":55,"Velocity":45,"Duration":90361,"SoundDuration":90361,"Delta":162556126},{"NoteNumber":62,"Velocity":40,"Duration":90361,"SoundDuration":90361,"Delta":162646488},{"NoteNumber":82,"Velocity":78,"Duration":406185,"SoundDuration":406185,"Delta":162736849},{"NoteNumber":58,"Velocity":45,"Duration":103092,"SoundDuration":103092,"Delta":162736849},{"NoteNumber":62,"Velocity":40,"Duration":103092,"SoundDuration":103092,"Delta":162839942},{"NoteNumber":51,"Velocity":45,"Duration":99999,"SoundDuration":99999,"Delta":162943035},{"NoteNumber":55,"Velocity":39,"Duration":99999,"SoundDuration":99999,"Delta":163043035},{"NoteNumber":61,"Velocity":55,"Duration":200000,"SoundDuration":200000,"Delta":163143035},{"NoteNumber":54,"Velocity":45,"Duration":100000,"SoundDuration":100000,"Delta":163143035},{"NoteNumber":55,"Velocity":39,"Duration":99999,"SoundDuration":99999,"Delta":163243035},{"NoteNumber":61,"Velocity":55,"Duration":199999,"SoundDuration":199999,"Delta":163343035},{"NoteNumber":51,"Velocity":45,"Duration":99999,"SoundDuration":99999,"Delta":163343035},{"NoteNumber":55,"Velocity":39,"Duration":99999,"SoundDuration":99999,"Delta":163443035},{"NoteNumber":61,"Velocity":55,"Duration":200000,"SoundDuration":200000,"Delta":163543035},{"NoteNumber":54,"Velocity":45,"Duration":99999,"SoundDuration":99999,"Delta":163543035},{"NoteNumber":55,"Velocity":39,"Duration":100000,"SoundDuration":100000,"Delta":163643035},{"NoteNumber":62,"Velocity":54,"Duration":90361,"SoundDuration":90361,"Delta":163743035},{"NoteNumber":50,"Velocity":58,"Duration":361446,"SoundDuration":361446,"Delta":163743035},{"NoteNumber":64,"Velocity":56,"Duration":90361,"SoundDuration":90361,"Delta":163833396},{"NoteNumber":66,"Velocity":57,"Duration":90361,"SoundDuration":90361,"Delta":163923758},{"NoteNumber":67,"Velocity":59,"Duration":90361,"SoundDuration":90361,"Delta":164014119},{"NoteNumber":69,"Velocity":60,"Duration":102739,"SoundDuration":102739,"Delta":164104481},{"NoteNumber":66,"Velocity":57,"Duration":102739,"SoundDuration":102739,"Delta":164207221},{"NoteNumber":67,"Velocity":60,"Duration":105633,"SoundDuration":105633,"Delta":164309960},{"NoteNumber":64,"Velocity":56,"Duration":105633,"SoundDuration":105633,"Delta":164415594},{"NoteNumber":62,"Velocity":68,"Duration":422535,"SoundDuration":422535,"Delta":164521228},{"NoteNumber":38,"Velocity":58,"Duration":105633,"SoundDuration":105633,"Delta":164521228},{"NoteNumber":50,"Velocity":57,"Duration":105633,"SoundDuration":105633,"Delta":164626862},{"NoteNumber":36,"Velocity":57,"Duration":105633,"SoundDuration":105633,"Delta":164732495},{"NoteNumber":48,"Velocity":56,"Duration":105633,"SoundDuration":105633,"Delta":164838129},{"NoteNumber":35,"Velocity":56,"Duration":105633,"SoundDuration":105633,"Delta":164943763},{"NoteNumber":47,"Velocity":55,"Duration":105633,"SoundDuration":105633,"Delta":165049397},{"NoteNumber":33,"Velocity":55,"Duration":105633,"SoundDuration":105633,"Delta":165155030},{"NoteNumber":45,"Velocity":56,"Duration":105633,"SoundDuration":105633,"Delta":165260664},{"NoteNumber":31,"Velocity":65,"Duration":375000,"SoundDuration":375000,"Delta":165366298},{"NoteNumber":67,"Velocity":60,"Duration":281250,"SoundDuration":281250,"Delta":165367079},{"NoteNumber":71,"Velocity":46,"Duration":46875,"SoundDuration":46875,"Delta":165647548},{"NoteNumber":69,"Velocity":47,"Duration":46875,"SoundDuration":46875,"Delta":165694423},{"NoteNumber":67,"Velocity":56,"Duration":93750,"SoundDuration":93750,"Delta":165741298},{"NoteNumber":55,"Velocity":30,"Duration":187500,"SoundDuration":187500,"Delta":165741298},{"NoteNumber":59,"Velocity":36,"Duration":187500,"SoundDuration":187500,"Delta":165741298},{"NoteNumber":62,"Velocity":48,"Duration":93750,"SoundDuration":93750,"Delta":165835048},{"NoteNumber":71,"Velocity":48,"Duration":93750,"SoundDuration":93750,"Delta":165928798},{"NoteNumber":55,"Velocity":30,"Duration":187500,"SoundDuration":187500,"Delta":165928798},{"NoteNumber":59,"Velocity":36,"Duration":187500,"SoundDuration":187500,"Delta":165928798},{"NoteNumber":69,"Velocity":48,"Duration":93750,"SoundDuration":93750,"Delta":166022548},{"NoteNumber":67,"Velocity":56,"Duration":93750,"SoundDuration":93750,"Delta":166116298},{"NoteNumber":55,"Velocity":34,"Duration":187500,"SoundDuration":187500,"Delta":166116298},{"NoteNumber":59,"Velocity":40,"Duration":187500,"SoundDuration":187500,"Delta":166116298},{"NoteNumber":62,"Velocity":48,"Duration":93750,"SoundDuration":93750,"Delta":166210048},{"NoteNumber":67,"Velocity":48,"Duration":92024,"SoundDuration":92024,"Delta":166303798},{"NoteNumber":55,"Velocity":32,"Duration":184048,"SoundDuration":184048,"Delta":166303798},{"NoteNumber":59,"Velocity":38,"Duration":184048,"SoundDuration":184048,"Delta":166303798},{"NoteNumber":71,"Velocity":48,"Duration":92024,"SoundDuration":92024,"Delta":166395822},{"NoteNumber":74,"Velocity":56,"Duration":92024,"SoundDuration":92024,"Delta":166487847},{"NoteNumber":55,"Velocity":32,"Duration":184049,"SoundDuration":184049,"Delta":166487847},{"NoteNumber":59,"Velocity":38,"Duration":184049,"SoundDuration":184049,"Delta":166487847},{"NoteNumber":71,"Velocity":52,"Duration":92024,"SoundDuration":92024,"Delta":166579871},{"NoteNumber":69,"Velocity":52,"Duration":92024,"SoundDuration":92024,"Delta":166671896},{"NoteNumber":55,"Velocity":32,"Duration":187566,"SoundDuration":187566,"Delta":166671896},{"NoteNumber":59,"Velocity":38,"Duration":187566,"SoundDuration":187566,"Delta":166671896},{"NoteNumber":67,"Velocity":52,"Duration":95541,"SoundDuration":95541,"Delta":166763920},{"NoteNumber":71,"Velocity":59,"Duration":92024,"SoundDuration":92024,"Delta":166859462},{"NoteNumber":55,"Velocity":37,"Duration":368098,"SoundDuration":368098,"Delta":166859462},{"NoteNumber":60,"Velocity":44,"Duration":368098,"SoundDuration":368098,"Delta":166859462},{"NoteNumber":69,"Velocity":52,"Duration":92024,"SoundDuration":92024,"Delta":166951486},{"NoteNumber":67,"Velocity":52,"Duration":92024,"SoundDuration":92024,"Delta":167043511},{"NoteNumber":69,"Velocity":52,"Duration":92024,"SoundDuration":92024,"Delta":167135535},{"NoteNumber":67,"Velocity":54,"Duration":192307,"SoundDuration":192307,"Delta":167227560},{"NoteNumber":55,"Velocity":34,"Duration":192307,"SoundDuration":192307,"Delta":167227560},{"NoteNumber":59,"Velocity":41,"Duration":192307,"SoundDuration":192307,"Delta":167227560},{"NoteNumber":88,"Velocity":46,"Duration":91463,"SoundDuration":91463,"Delta":167419867},{"NoteNumber":76,"Velocity":44,"Duration":91463,"SoundDuration":91463,"Delta":167511331},{"NoteNumber":88,"Velocity":47,"Duration":91649,"SoundDuration":91649,"Delta":167602794},{"NoteNumber":74,"Velocity":41,"Duration":91649,"SoundDuration":91649,"Delta":167602794},{"NoteNumber":68,"Velocity":41,"Duration":91649,"SoundDuration":91649,"Delta":167602794},{"NoteNumber":76,"Velocity":44,"Duration":91743,"SoundDuration":91743,"Delta":167694444},{"NoteNumber":88,"Velocity":49,"Duration":91883,"SoundDuration":91883,"Delta":167786187},{"NoteNumber":74,"Velocity":38,"Duration":91883,"SoundDuration":91883,"Delta":167786187},{"NoteNumber":68,"Velocity":38,"Duration":91883,"SoundDuration":91883,"Delta":167786187},{"NoteNumber":76,"Velocity":45,"Duration":92024,"SoundDuration":92024,"Delta":167878071},{"NoteNumber":88,"Velocity":51,"Duration":92118,"SoundDuration":92118,"Delta":167970096},{"NoteNumber":74,"Velocity":44,"Duration":92118,"SoundDuration":92118,"Delta":167970096},{"NoteNumber":68,"Velocity":44,"Duration":92118,"SoundDuration":92118,"Delta":167970096},{"NoteNumber":76,"Velocity":46,"Duration":92307,"SoundDuration":92307,"Delta":168062214},{"NoteNumber":88,"Velocity":52,"Duration":92355,"SoundDuration":92355,"Delta":168154522},{"NoteNumber":68,"Velocity":41,"Duration":92355,"SoundDuration":92355,"Delta":168154522},{"NoteNumber":74,"Velocity":41,"Duration":92355,"SoundDuration":92355,"Delta":168154522},{"NoteNumber":76,"Velocity":49,"Duration":93457,"SoundDuration":93457,"Delta":168246877},{"NoteNumber":88,"Velocity":54,"Duration":228658,"SoundDuration":228658,"Delta":168340335},{"NoteNumber":69,"Velocity":50,"Duration":365854,"SoundDuration":365854,"Delta":168340335},{"NoteNumber":72,"Velocity":50,"Duration":365854,"SoundDuration":365854,"Delta":168340335},{"NoteNumber":86,"Velocity":48,"Duration":45731,"SoundDuration":45731,"Delta":168568994},{"NoteNumber":84,"Velocity":48,"Duration":45731,"SoundDuration":45731,"Delta":168614726},{"NoteNumber":83,"Velocity":47,"Duration":45731,"SoundDuration":45731,"Delta":168660458},{"NoteNumber":81,"Velocity":47,"Duration":190475,"SoundDuration":190475,"Delta":168706189},{"NoteNumber":86,"Velocity":46,"Duration":91185,"SoundDuration":91185,"Delta":168896665},{"NoteNumber":74,"Velocity":44,"Duration":91185,"SoundDuration":91185,"Delta":168987851},{"NoteNumber":86,"Velocity":47,"Duration":91370,"SoundDuration":91370,"Delta":169079036},{"NoteNumber":72,"Velocity":41,"Duration":91370,"SoundDuration":91370,"Delta":169079036},{"NoteNumber":66,"Velocity":41,"Duration":91370,"SoundDuration":91370,"Delta":169079036},{"NoteNumber":74,"Velocity":44,"Duration":91463,"SoundDuration":91463,"Delta":169170407},{"NoteNumber":86,"Velocity":49,"Duration":91603,"SoundDuration":91603,"Delta":169261871},{"NoteNumber":72,"Velocity":38,"Duration":91603,"SoundDuration":91603,"Delta":169261871},{"NoteNumber":66,"Velocity":38,"Duration":91603,"SoundDuration":91603,"Delta":169261871},{"NoteNumber":74,"Velocity":45,"Duration":91743,"SoundDuration":91743,"Delta":169353474},{"NoteNumber":86,"Velocity":51,"Duration":91836,"SoundDuration":91836,"Delta":169445217},{"NoteNumber":72,"Velocity":44,"Duration":91836,"SoundDuration":91836,"Delta":169445217},{"NoteNumber":66,"Velocity":44,"Duration":91836,"SoundDuration":91836,"Delta":169445217},{"NoteNumber":74,"Velocity":46,"Duration":92024,"SoundDuration":92024,"Delta":169537054},{"NoteNumber":86,"Velocity":52,"Duration":92071,"SoundDuration":92071,"Delta":169629078},{"NoteNumber":66,"Velocity":41,"Duration":92071,"SoundDuration":92071,"Delta":169629078},{"NoteNumber":72,"Velocity":41,"Duration":92071,"SoundDuration":92071,"Delta":169629078},{"NoteNumber":74,"Velocity":49,"Duration":93457,"SoundDuration":93457,"Delta":169721150},{"NoteNumber":86,"Velocity":54,"Duration":228658,"SoundDuration":228658,"Delta":169814608},{"NoteNumber":67,"Velocity":50,"Duration":365854,"SoundDuration":365854,"Delta":169814608},{"NoteNumber":71,"Velocity":50,"Duration":365854,"SoundDuration":365854,"Delta":169814608},{"NoteNumber":84,"Velocity":48,"Duration":45731,"SoundDuration":45731,"Delta":170043267},{"NoteNumber":83,"Velocity":48,"Duration":45731,"SoundDuration":45731,"Delta":170088999},{"NoteNumber":81,"Velocity":47,"Duration":45731,"SoundDuration":45731,"Delta":170134730},{"NoteNumber":79,"Velocity":47,"Duration":182926,"SoundDuration":182926,"Delta":170180462},{"NoteNumber":86,"Velocity":39,"Duration":45044,"SoundDuration":45044,"Delta":171507416},{"NoteNumber":84,"Velocity":39,"Duration":45045,"SoundDuration":45045,"Delta":171552461},{"NoteNumber":83,"Velocity":39,"Duration":45044,"SoundDuration":45044,"Delta":171597506},{"NoteNumber":81,"Velocity":39,"Duration":45045,"SoundDuration":45045,"Delta":171642551},{"NoteNumber":79,"Velocity":47,"Duration":90090,"SoundDuration":90090,"Delta":171687596},{"NoteNumber":83,"Velocity":39,"Duration":45045,"SoundDuration":45045,"Delta":171867776},{"NoteNumber":81,"Velocity":39,"Duration":45044,"SoundDuration":45044,"Delta":171912821},{"NoteNumber":79,"Velocity":39,"Duration":45045,"SoundDuration":45045,"Delta":171957866},{"NoteNumber":78,"Velocity":39,"Duration":45044,"SoundDuration":45044,"Delta":172002911},{"NoteNumber":76,"Velocity":50,"Duration":90090,"SoundDuration":90090,"Delta":172047956},{"NoteNumber":79,"Velocity":38,"Duration":45044,"SoundDuration":45044,"Delta":172228136},{"NoteNumber":78,"Velocity":38,"Duration":45045,"SoundDuration":45045,"Delta":172273181},{"NoteNumber":76,"Velocity":38,"Duration":45044,"SoundDuration":45044,"Delta":172318226},{"NoteNumber":74,"Velocity":38,"Duration":45045,"SoundDuration":45045,"Delta":172363271},{"NoteNumber":72,"Velocity":50,"Duration":360359,"SoundDuration":360359,"Delta":172408316},{"NoteNumber":64,"Velocity":34,"Duration":360359,"SoundDuration":360359,"Delta":172408316},{"NoteNumber":67,"Velocity":34,"Duration":360359,"SoundDuration":360359,"Delta":172408316},{"NoteNumber":79,"Velocity":52,"Duration":45731,"SoundDuration":45731,"Delta":172951603},{"NoteNumber":77,"Velocity":52,"Duration":45731,"SoundDuration":45731,"Delta":172997335},{"NoteNumber":75,"Velocity":52,"Duration":45731,"SoundDuration":45731,"Delta":173043067},{"NoteNumber":74,"Velocity":52,"Duration":45731,"SoundDuration":45731,"Delta":173088798},{"NoteNumber":72,"Velocity":63,"Duration":182926,"SoundDuration":182926,"Delta":173134530},{"NoteNumber":63,"Velocity":45,"Duration":91463,"SoundDuration":91463,"Delta":173134530},{"NoteNumber":67,"Velocity":38,"Duration":91463,"SoundDuration":91463,"Delta":173225994},{"NoteNumber":83,"Velocity":63,"Duration":182927,"SoundDuration":182927,"Delta":173317457},{"NoteNumber":63,"Velocity":45,"Duration":91463,"SoundDuration":91463,"Delta":173317457},{"NoteNumber":67,"Velocity":38,"Duration":91463,"SoundDuration":91463,"Delta":173408921},{"NoteNumber":84,"Velocity":71,"Duration":182927,"SoundDuration":182927,"Delta":173500384},{"NoteNumber":63,"Velocity":45,"Duration":91463,"SoundDuration":91463,"Delta":173500384},{"NoteNumber":67,"Velocity":39,"Duration":91463,"SoundDuration":91463,"Delta":173591848},{"NoteNumber":84,"Velocity":66,"Duration":193548,"SoundDuration":193548,"Delta":173683311},{"NoteNumber":63,"Velocity":45,"Duration":96774,"SoundDuration":96774,"Delta":173683311},{"NoteNumber":67,"Velocity":39,"Duration":96774,"SoundDuration":96774,"Delta":173780085},{"NoteNumber":84,"Velocity":64,"Duration":92307,"SoundDuration":92307,"Delta":173876860},{"NoteNumber":62,"Velocity":50,"Duration":370967,"SoundDuration":370967,"Delta":173876860},{"NoteNumber":66,"Velocity":50,"Duration":370967,"SoundDuration":370967,"Delta":173876860},{"NoteNumber":83,"Velocity":57,"Duration":92307,"SoundDuration":92307,"Delta":173969167},{"NoteNumber":84,"Velocity":57,"Duration":92307,"SoundDuration":92307,"Delta":174061475},{"NoteNumber":81,"Velocity":57,"Duration":94043,"SoundDuration":94043,"Delta":174153783},{"NoteNumber":83,"Velocity":64,"Duration":92307,"SoundDuration":92307,"Delta":174247827},{"NoteNumber":67,"Velocity":46,"Duration":370967,"SoundDuration":370967,"Delta":174247827},{"NoteNumber":81,"Velocity":57,"Duration":92307,"SoundDuration":92307,"Delta":174340135},{"NoteNumber":83,"Velocity":57,"Duration":92307,"SoundDuration":92307,"Delta":174432442},{"NoteNumber":79,"Velocity":57,"Duration":94043,"SoundDuration":94043,"Delta":174524750},{"NoteNumber":81,"Velocity":63,"Duration":92592,"SoundDuration":92592,"Delta":174618794},{"NoteNumber":60,"Velocity":49,"Duration":372714,"SoundDuration":372714,"Delta":174618794},{"NoteNumber":72,"Velocity":49,"Duration":372714,"SoundDuration":372714,"Delta":174618794},{"NoteNumber":80,"Velocity":57,"Duration":92592,"SoundDuration":92592,"Delta":174711387},{"NoteNumber":81,"Velocity":57,"Duration":92592,"SoundDuration":92592,"Delta":174803979},{"NoteNumber":76,"Velocity":57,"Duration":94936,"SoundDuration":94936,"Delta":174896572},{"NoteNumber":79,"Velocity":63,"Duration":92592,"SoundDuration":92592,"Delta":174991508},{"NoteNumber":62,"Velocity":47,"Duration":372117,"SoundDuration":372117,"Delta":174991508},{"NoteNumber":72,"Velocity":47,"Duration":372117,"SoundDuration":372117,"Delta":174991508},{"NoteNumber":78,"Velocity":57,"Duration":92592,"SoundDuration":92592,"Delta":175084101},{"NoteNumber":76,"Velocity":57,"Duration":92592,"SoundDuration":92592,"Delta":175176693},{"NoteNumber":74,"Velocity":57,"Duration":94339,"SoundDuration":94339,"Delta":175269286},{"NoteNumber":79,"Velocity":65,"Duration":93167,"SoundDuration":93167,"Delta":175363625},{"NoteNumber":67,"Velocity":39,"Duration":186287,"SoundDuration":186287,"Delta":175363625},{"NoteNumber":71,"Velocity":47,"Duration":186287,"SoundDuration":186287,"Delta":175363625},{"NoteNumber":74,"Velocity":56,"Duration":93119,"SoundDuration":93119,"Delta":175456793},{"NoteNumber":79,"Velocity":58,"Duration":92879,"SoundDuration":92879,"Delta":175549913},{"NoteNumber":67,"Velocity":34,"Duration":185615,"SoundDuration":185615,"Delta":175549913},{"NoteNumber":71,"Velocity":40,"Duration":185615,"SoundDuration":185615,"Delta":175549913},{"NoteNumber":83,"Velocity":61,"Duration":92735,"SoundDuration":92735,"Delta":175642792},{"NoteNumber":86,"Velocity":68,"Duration":92592,"SoundDuration":92592,"Delta":175735528},{"NoteNumber":67,"Velocity":36,"Duration":184947,"SoundDuration":184947,"Delta":175735528},{"NoteNumber":71,"Velocity":43,"Duration":184947,"SoundDuration":184947,"Delta":175735528},{"NoteNumber":83,"Velocity":62,"Duration":92355,"SoundDuration":92355,"Delta":175828120},{"NoteNumber":81,"Velocity":60,"Duration":92260,"SoundDuration":92260,"Delta":175920476},{"NoteNumber":67,"Velocity":34,"Duration":188107,"SoundDuration":188107,"Delta":175920476},{"NoteNumber":71,"Velocity":40,"Duration":188107,"SoundDuration":188107,"Delta":175920476},{"NoteNumber":79,"Velocity":57,"Duration":95846,"SoundDuration":95846,"Delta":176012736},{"NoteNumber":78,"Velocity":64,"Duration":93167,"SoundDuration":93167,"Delta":176108583},{"NoteNumber":67,"Velocity":36,"Duration":186335,"SoundDuration":186335,"Delta":176108583},{"NoteNumber":72,"Velocity":43,"Duration":186335,"SoundDuration":186335,"Delta":176108583},{"NoteNumber":74,"Velocity":56,"Duration":93167,"SoundDuration":93167,"Delta":176201751},{"NoteNumber":78,"Velocity":56,"Duration":93167,"SoundDuration":93167,"Delta":176294918},{"NoteNumber":67,"Velocity":31,"Duration":186335,"SoundDuration":186335,"Delta":176294918},{"NoteNumber":72,"Velocity":37,"Duration":186335,"SoundDuration":186335,"Delta":176294918},{"NoteNumber":81,"Velocity":56,"Duration":93167,"SoundDuration":93167,"Delta":176388086},{"NoteNumber":84,"Velocity":64,"Duration":93167,"SoundDuration":93167,"Delta":176481254},{"NoteNumber":67,"Velocity":36,"Duration":186335,"SoundDuration":186335,"Delta":176481254},{"NoteNumber":72,"Velocity":43,"Duration":186335,"SoundDuration":186335,"Delta":176481254},{"NoteNumber":81,"Velocity":57,"Duration":93167,"SoundDuration":93167,"Delta":176574422},{"NoteNumber":79,"Velocity":57,"Duration":92930,"SoundDuration":92930,"Delta":176667589},{"NoteNumber":67,"Velocity":31,"Duration":187567,"SoundDuration":187567,"Delta":176667589},{"NoteNumber":72,"Velocity":37,"Duration":187567,"SoundDuration":187567,"Delta":176667589},{"NoteNumber":78,"Velocity":57,"Duration":94637,"SoundDuration":94637,"Delta":176760520},{"NoteNumber":79,"Velocity":65,"Duration":93167,"SoundDuration":93167,"Delta":176855157},{"NoteNumber":67,"Velocity":39,"Duration":186287,"SoundDuration":186287,"Delta":176855157},{"NoteNumber":71,"Velocity":47,"Duration":186287,"SoundDuration":186287,"Delta":176855157},{"NoteNumber":74,"Velocity":56,"Duration":93119,"SoundDuration":93119,"Delta":176948325},{"NoteNumber":79,"Velocity":58,"Duration":92879,"SoundDuration":92879,"Delta":177041444},{"NoteNumber":67,"Velocity":34,"Duration":185615,"SoundDuration":185615,"Delta":177041444},{"NoteNumber":71,"Velocity":40,"Duration":185615,"SoundDuration":185615,"Delta":177041444},{"NoteNumber":83,"Velocity":61,"Duration":92735,"SoundDuration":92735,"Delta":177134324},{"NoteNumber":86,"Velocity":68,"Duration":92592,"SoundDuration":92592,"Delta":177227059},{"NoteNumber":67,"Velocity":36,"Duration":184947,"SoundDuration":184947,"Delta":177227059},{"NoteNumber":71,"Velocity":43,"Duration":184947,"SoundDuration":184947,"Delta":177227059},{"NoteNumber":83,"Velocity":62,"Duration":92355,"SoundDuration":92355,"Delta":177319652},{"NoteNumber":81,"Velocity":60,"Duration":92260,"SoundDuration":92260,"Delta":177412007},{"NoteNumber":67,"Velocity":34,"Duration":188107,"SoundDuration":188107,"Delta":177412007},{"NoteNumber":71,"Velocity":40,"Duration":188107,"SoundDuration":188107,"Delta":177412007},{"NoteNumber":79,"Velocity":57,"Duration":95846,"SoundDuration":95846,"Delta":177504268},{"NoteNumber":78,"Velocity":64,"Duration":93167,"SoundDuration":93167,"Delta":177600114},{"NoteNumber":67,"Velocity":36,"Duration":186335,"SoundDuration":186335,"Delta":177600114},{"NoteNumber":72,"Velocity":43,"Duration":186335,"SoundDuration":186335,"Delta":177600114},{"NoteNumber":74,"Velocity":56,"Duration":93167,"SoundDuration":93167,"Delta":177693282},{"NoteNumber":78,"Velocity":56,"Duration":93167,"SoundDuration":93167,"Delta":177786450},{"NoteNumber":67,"Velocity":31,"Duration":186335,"SoundDuration":186335,"Delta":177786450},{"NoteNumber":72,"Velocity":37,"Duration":186335,"SoundDuration":186335,"Delta":177786450},{"NoteNumber":81,"Velocity":56,"Duration":93167,"SoundDuration":93167,"Delta":177879618},{"NoteNumber":84,"Velocity":64,"Duration":93167,"SoundDuration":93167,"Delta":177972785},{"NoteNumber":67,"Velocity":36,"Duration":186335,"SoundDuration":186335,"Delta":177972785},{"NoteNumber":72,"Velocity":43,"Duration":186335,"SoundDuration":186335,"Delta":177972785},{"NoteNumber":81,"Velocity":57,"Duration":93167,"SoundDuration":93167,"Delta":178065953},{"NoteNumber":79,"Velocity":57,"Duration":92930,"SoundDuration":92930,"Delta":178159121},{"NoteNumber":67,"Velocity":31,"Duration":187662,"SoundDuration":187662,"Delta":178159121},{"NoteNumber":72,"Velocity":37,"Duration":187662,"SoundDuration":187662,"Delta":178159121},{"NoteNumber":78,"Velocity":57,"Duration":94732,"SoundDuration":94732,"Delta":178252051},{"NoteNumber":79,"Velocity":65,"Duration":95298,"SoundDuration":95298,"Delta":178346784},{"NoteNumber":67,"Velocity":39,"Duration":383099,"SoundDuration":383099,"Delta":178346784},{"NoteNumber":71,"Velocity":47,"Duration":383099,"SoundDuration":383099,"Delta":178346784},{"NoteNumber":83,"Velocity":59,"Duration":95615,"SoundDuration":95615,"Delta":178442082},{"NoteNumber":79,"Velocity":59,"Duration":95933,"SoundDuration":95933,"Delta":178537698},{"NoteNumber":74,"Velocity":59,"Duration":96251,"SoundDuration":96251,"Delta":178633631},{"NoteNumber":71,"Velocity":65,"Duration":96276,"SoundDuration":96276,"Delta":178729883},{"NoteNumber":67,"Velocity":56,"Duration":97557,"SoundDuration":97557,"Delta":178826159},{"NoteNumber":62,"Velocity":55,"Duration":99149,"SoundDuration":99149,"Delta":178923717},{"NoteNumber":59,"Velocity":54,"Duration":103539,"SoundDuration":103539,"Delta":179022866},{"NoteNumber":55,"Velocity":60,"Duration":214872,"SoundDuration":214872,"Delta":179126406}],"license":{"name":"Creative Commons Attribution-ShareAlike 3.0 Germany","url":"http://creativecommons.org/licenses/by-sa/3.0/de/deed.en","text":"The MIDI files in this folder were downloaded from http://www.piano-midi.de and are licensed under the Creative Commons Attribution-ShareAlike 3.0 Germany license by Bernd Krueger.\n\nThe MIDI, audio(MP3, OGG) and video files of Bernd Krueger are licensed under the cc-by-sa Germany License . This means, that you can use and adapt the files, as long as you attribute to the copyright holder Name: Bernd Krueger Source: http://www.piano-midi.de The distribution or public playback of the files is only allowed under identical license conditions . The scores are open source.","attribution":"Bernd Krueger","attributionUrl":"http://www.piano-midi.de"}}