{"title":"Scherzo","artist":"Haydn","durationMs":49680,"midiSha256":"78a8372dcb8bebefad22f50509d488e41568d6b693c065d44407d57307cb294c","midiObject":[{"NoteNumber":72,"Velocity":40,"Duration":251446,"SoundDuration":251446,"Delta":0},{"NoteNumber":77,"Velocity":45,"Duration":127866,"SoundDuration":127866,"Delta":251446},{"NoteNumber":65,"Velocity":28,"Duration":511465,"SoundDuration":511465,"Delta":251446},{"NoteNumber":69,"Velocity":34,"Duration":511465,"SoundDuration":511465,"Delta":251446},{"NoteNumber":72,"Velocity":40,"Duration":127866,"SoundDuration":127866,"Delta":379312},{"NoteNumber":77,"Velocity":41,"Duration":127866,"SoundDuration":127866,"Delta":507178},{"NoteNumber":72,"Velocity":42,"Duration":127866,"SoundDuration":127866,"Delta":635044},{"NoteNumber":81,"Velocity":48,"Duration":124162,"SoundDuration":124162,"Delta":762911},{"NoteNumber":77,"Velocity":44,"Duration":124161,"SoundDuration":124161,"Delta":887073},{"NoteNumber":81,"Velocity":44,"Duration":127742,"SoundDuration":127742,"Delta":1011235},{"NoteNumber":77,"Velocity":45,"Duration":139781,"SoundDuration":139781,"Delta":1138977},{"NoteNumber":84,"Velocity":55,"Duration":522556,"SoundDuration":522556,"Delta":1278759},{"NoteNumber":69,"Velocity":39,"Duration":130639,"SoundDuration":130639,"Delta":1278759},{"NoteNumber":65,"Velocity":32,"Duration":130639,"SoundDuration":130639,"Delta":1278759},{"NoteNumber":65,"Velocity":24,"Duration":130639,"SoundDuration":130639,"Delta":1540038},{"NoteNumber":69,"Velocity":28,"Duration":130639,"SoundDuration":130639,"Delta":1540038},{"NoteNumber":82,"Velocity":47,"Duration":125722,"SoundDuration":125722,"Delta":1801316},{"NoteNumber":65,"Velocity":24,"Duration":125722,"SoundDuration":125722,"Delta":1801316},{"NoteNumber":69,"Velocity":28,"Duration":125722,"SoundDuration":125722,"Delta":1801316},{"NoteNumber":81,"Velocity":44,"Duration":125723,"SoundDuration":125723,"Delta":1927039},{"NoteNumber":79,"Velocity":44,"Duration":128402,"SoundDuration":128402,"Delta":2052762},{"NoteNumber":65,"Velocity":24,"Duration":128402,"SoundDuration":128402,"Delta":2052762},{"NoteNumber":69,"Velocity":28,"Duration":128402,"SoundDuration":128402,"Delta":2052762},{"NoteNumber":77,"Velocity":44,"Duration":133761,"SoundDuration":133761,"Delta":2181165},{"NoteNumber":76,"Velocity":44,"Duration":125722,"SoundDuration":125722,"Delta":2314926},{"NoteNumber":67,"Velocity":37,"Duration":125722,"SoundDuration":125722,"Delta":2314926},{"NoteNumber":60,"Velocity":30,"Duration":125722,"SoundDuration":125722,"Delta":2314926},{"NoteNumber":77,"Velocity":45,"Duration":125723,"SoundDuration":125723,"Delta":2440649},{"NoteNumber":79,"Velocity":46,"Duration":125722,"SoundDuration":125722,"Delta":2566372},{"NoteNumber":60,"Velocity":24,"Duration":125722,"SoundDuration":125722,"Delta":2566372},{"NoteNumber":67,"Velocity":29,"Duration":125722,"SoundDuration":125722,"Delta":2566372},{"NoteNumber":76,"Velocity":44,"Duration":125723,"SoundDuration":125723,"Delta":2692095},{"NoteNumber":72,"Velocity":47,"Duration":136599,"SoundDuration":136599,"Delta":2817818},{"NoteNumber":60,"Velocity":24,"Duration":136599,"SoundDuration":136599,"Delta":2817818},{"NoteNumber":67,"Velocity":29,"Duration":136599,"SoundDuration":136599,"Delta":2817818},{"NoteNumber":79,"Velocity":39,"Duration":68299,"SoundDuration":68299,"Delta":3091017},{"NoteNumber":82,"Velocity":47,"Duration":68299,"SoundDuration":68299,"Delta":3091017},{"NoteNumber":60,"Velocity":22,"Duration":68299,"SoundDuration":68299,"Delta":3091017},{"NoteNumber":67,"Velocity":27,"Duration":68299,"SoundDuration":68299,"Delta":3091017},{"NoteNumber":79,"Velocity":39,"Duration":536577,"SoundDuration":536577,"Delta":3381721},{"NoteNumber":82,"Velocity":46,"Duration":536577,"SoundDuration":536577,"Delta":3381721},{"NoteNumber":65,"Velocity":34,"Duration":268288,"SoundDuration":268288,"Delta":3381721},{"NoteNumber":60,"Velocity":26,"Duration":67072,"SoundDuration":67072,"Delta":3650010},{"NoteNumber":81,"Velocity":45,"Duration":261278,"SoundDuration":261278,"Delta":3918298},{"NoteNumber":77,"Velocity":38,"Duration":261278,"SoundDuration":261278,"Delta":3918298},{"NoteNumber":53,"Velocity":32,"Duration":512724,"SoundDuration":512724,"Delta":3918298},{"NoteNumber":72,"Velocity":40,"Duration":251445,"SoundDuration":251445,"Delta":4179577},{"NoteNumber":77,"Velocity":45,"Duration":127323,"SoundDuration":127323,"Delta":4431023},{"NoteNumber":65,"Velocity":28,"Duration":509294,"SoundDuration":509294,"Delta":4431023},{"NoteNumber":69,"Velocity":34,"Duration":509294,"SoundDuration":509294,"Delta":4431023},{"NoteNumber":72,"Velocity":40,"Duration":127323,"SoundDuration":127323,"Delta":4558347},{"NoteNumber":77,"Velocity":41,"Duration":127323,"SoundDuration":127323,"Delta":4685670},{"NoteNumber":72,"Velocity":42,"Duration":127323,"SoundDuration":127323,"Delta":4812994},{"NoteNumber":81,"Velocity":48,"Duration":124678,"SoundDuration":124678,"Delta":4940318},{"NoteNumber":77,"Velocity":44,"Duration":124677,"SoundDuration":124677,"Delta":5064996},{"NoteNumber":81,"Velocity":44,"Duration":128086,"SoundDuration":128086,"Delta":5189674},{"NoteNumber":77,"Velocity":45,"Duration":137855,"SoundDuration":137855,"Delta":5317761},{"NoteNumber":84,"Velocity":55,"Duration":524842,"SoundDuration":524842,"Delta":5455616},{"NoteNumber":69,"Velocity":39,"Duration":131210,"SoundDuration":131210,"Delta":5455616},{"NoteNumber":65,"Velocity":32,"Duration":131210,"SoundDuration":131210,"Delta":5455616},{"NoteNumber":65,"Velocity":24,"Duration":131210,"SoundDuration":131210,"Delta":5718037},{"NoteNumber":69,"Velocity":28,"Duration":131210,"SoundDuration":131210,"Delta":5718037},{"NoteNumber":82,"Velocity":47,"Duration":125722,"SoundDuration":125722,"Delta":5980459},{"NoteNumber":65,"Velocity":24,"Duration":125722,"SoundDuration":125722,"Delta":5980459},{"NoteNumber":69,"Velocity":28,"Duration":125722,"SoundDuration":125722,"Delta":5980459},{"NoteNumber":81,"Velocity":44,"Duration":125722,"SoundDuration":125722,"Delta":6106182},{"NoteNumber":79,"Velocity":44,"Duration":128402,"SoundDuration":128402,"Delta":6231905},{"NoteNumber":65,"Velocity":24,"Duration":128402,"SoundDuration":128402,"Delta":6231905},{"NoteNumber":69,"Velocity":28,"Duration":128402,"SoundDuration":128402,"Delta":6231905},{"NoteNumber":77,"Velocity":44,"Duration":133761,"SoundDuration":133761,"Delta":6360307},{"NoteNumber":79,"Velocity":40,"Duration":127768,"SoundDuration":127768,"Delta":6494068},{"NoteNumber":67,"Velocity":34,"Duration":514613,"SoundDuration":514613,"Delta":6494068},{"NoteNumber":58,"Velocity":28,"Duration":514613,"SoundDuration":514613,"Delta":6494068},{"NoteNumber":81,"Velocity":41,"Duration":127768,"SoundDuration":127768,"Delta":6621837},{"NoteNumber":82,"Velocity":42,"Duration":128653,"SoundDuration":128653,"Delta":6749605},{"NoteNumber":79,"Velocity":40,"Duration":130423,"SoundDuration":130423,"Delta":6878258},{"NoteNumber":77,"Velocity":43,"Duration":134904,"SoundDuration":134904,"Delta":7008682},{"NoteNumber":60,"Velocity":22,"Duration":560170,"SoundDuration":560170,"Delta":7008682},{"NoteNumber":67,"Velocity":27,"Duration":560170,"SoundDuration":560170,"Delta":7008682},{"NoteNumber":76,"Velocity":43,"Duration":134904,"SoundDuration":134904,"Delta":7143586},{"NoteNumber":74,"Velocity":43,"Duration":137783,"SoundDuration":137783,"Delta":7278490},{"NoteNumber":72,"Velocity":43,"Duration":152578,"SoundDuration":152578,"Delta":7416273},{"NoteNumber":77,"Velocity":46,"Duration":504880,"SoundDuration":504880,"Delta":7568852},{"NoteNumber":65,"Velocity":34,"Duration":504880,"SoundDuration":504880,"Delta":7568852},{"NoteNumber":72,"Velocity":40,"Duration":251445,"SoundDuration":251445,"Delta":8326173},{"NoteNumber":77,"Velocity":45,"Duration":127323,"SoundDuration":127323,"Delta":8577619},{"NoteNumber":65,"Velocity":28,"Duration":509294,"SoundDuration":509294,"Delta":8577619},{"NoteNumber":69,"Velocity":34,"Duration":509294,"SoundDuration":509294,"Delta":8577619},{"NoteNumber":72,"Velocity":40,"Duration":127323,"SoundDuration":127323,"Delta":8704943},{"NoteNumber":77,"Velocity":41,"Duration":127323,"SoundDuration":127323,"Delta":8832267},{"NoteNumber":72,"Velocity":42,"Duration":127323,"SoundDuration":127323,"Delta":8959591},{"NoteNumber":81,"Velocity":48,"Duration":125723,"SoundDuration":125723,"Delta":9086914},{"NoteNumber":77,"Velocity":44,"Duration":125722,"SoundDuration":125722,"Delta":9212637},{"NoteNumber":81,"Velocity":44,"Duration":128783,"SoundDuration":128783,"Delta":9338360},{"NoteNumber":77,"Velocity":45,"Duration":134904,"SoundDuration":134904,"Delta":9467144},{"NoteNumber":84,"Velocity":55,"Duration":529474,"SoundDuration":529474,"Delta":9602048},{"NoteNumber":69,"Velocity":39,"Duration":132368,"SoundDuration":132368,"Delta":9602048},{"NoteNumber":65,"Velocity":32,"Duration":132368,"SoundDuration":132368,"Delta":9602048},{"NoteNumber":65,"Velocity":24,"Duration":132368,"SoundDuration":132368,"Delta":9866785},{"NoteNumber":69,"Velocity":28,"Duration":132368,"SoundDuration":132368,"Delta":9866785},{"NoteNumber":82,"Velocity":47,"Duration":126732,"SoundDuration":126732,"Delta":10131522},{"NoteNumber":65,"Velocity":24,"Duration":126732,"SoundDuration":126732,"Delta":10131522},{"NoteNumber":69,"Velocity":28,"Duration":126732,"SoundDuration":126732,"Delta":10131522},{"NoteNumber":81,"Velocity":44,"Duration":126731,"SoundDuration":126731,"Delta":10258254},{"NoteNumber":79,"Velocity":44,"Duration":129075,"SoundDuration":129075,"Delta":10384986},{"NoteNumber":65,"Velocity":24,"Duration":129075,"SoundDuration":129075,"Delta":10384986},{"NoteNumber":69,"Velocity":28,"Duration":129075,"SoundDuration":129075,"Delta":10384986},{"NoteNumber":77,"Velocity":44,"Duration":133761,"SoundDuration":133761,"Delta":10514061},{"NoteNumber":76,"Velocity":44,"Duration":125723,"SoundDuration":125723,"Delta":10647822},{"NoteNumber":67,"Velocity":37,"Duration":125723,"SoundDuration":125723,"Delta":10647822},{"NoteNumber":60,"Velocity":30,"Duration":125723,"SoundDuration":125723,"Delta":10647822},{"NoteNumber":77,"Velocity":45,"Duration":125722,"SoundDuration":125722,"Delta":10773545},{"NoteNumber":79,"Velocity":46,"Duration":125723,"SoundDuration":125723,"Delta":10899268},{"NoteNumber":60,"Velocity":24,"Duration":125723,"SoundDuration":125723,"Delta":10899268},{"NoteNumber":67,"Velocity":29,"Duration":125723,"SoundDuration":125723,"Delta":10899268},{"NoteNumber":76,"Velocity":44,"Duration":125722,"SoundDuration":125722,"Delta":11024991},{"NoteNumber":72,"Velocity":47,"Duration":135980,"SoundDuration":135980,"Delta":11150714},{"NoteNumber":60,"Velocity":24,"Duration":135980,"SoundDuration":135980,"Delta":11150714},{"NoteNumber":67,"Velocity":29,"Duration":135980,"SoundDuration":135980,"Delta":11150714},{"NoteNumber":79,"Velocity":39,"Duration":67990,"SoundDuration":67990,"Delta":11422675},{"NoteNumber":82,"Velocity":47,"Duration":67990,"SoundDuration":67990,"Delta":11422675},{"NoteNumber":60,"Velocity":22,"Duration":67990,"SoundDuration":67990,"Delta":11422675},{"NoteNumber":67,"Velocity":27,"Duration":67990,"SoundDuration":67990,"Delta":11422675},{"NoteNumber":79,"Velocity":39,"Duration":517374,"SoundDuration":517374,"Delta":11715307},{"NoteNumber":82,"Velocity":46,"Duration":517374,"SoundDuration":517374,"Delta":11715307},{"NoteNumber":65,"Velocity":34,"Duration":258687,"SoundDuration":258687,"Delta":11715307},{"NoteNumber":60,"Velocity":26,"Duration":64671,"SoundDuration":64671,"Delta":11973994},{"NoteNumber":81,"Velocity":45,"Duration":258687,"SoundDuration":258687,"Delta":12232682},{"NoteNumber":77,"Velocity":38,"Duration":258687,"SoundDuration":258687,"Delta":12232682},{"NoteNumber":53,"Velocity":32,"Duration":510133,"SoundDuration":510133,"Delta":12232682},{"NoteNumber":72,"Velocity":40,"Duration":251445,"SoundDuration":251445,"Delta":12491369},{"NoteNumber":77,"Velocity":45,"Duration":127323,"SoundDuration":127323,"Delta":12742815},{"NoteNumber":65,"Velocity":28,"Duration":509294,"SoundDuration":509294,"Delta":12742815},{"NoteNumber":69,"Velocity":34,"Duration":509294,"SoundDuration":509294,"Delta":12742815},{"NoteNumber":72,"Velocity":40,"Duration":127323,"SoundDuration":127323,"Delta":12870139},{"NoteNumber":77,"Velocity":42,"Duration":127323,"SoundDuration":127323,"Delta":12997463},{"NoteNumber":72,"Velocity":42,"Duration":127323,"SoundDuration":127323,"Delta":13124786},{"NoteNumber":81,"Velocity":49,"Duration":125723,"SoundDuration":125723,"Delta":13252110},{"NoteNumber":77,"Velocity":44,"Duration":125722,"SoundDuration":125722,"Delta":13377833},{"NoteNumber":81,"Velocity":46,"Duration":128783,"SoundDuration":128783,"Delta":13503556},{"NoteNumber":77,"Velocity":46,"Duration":134904,"SoundDuration":134904,"Delta":13632340},{"NoteNumber":84,"Velocity":48,"Duration":531821,"SoundDuration":531821,"Delta":13767244},{"NoteNumber":69,"Velocity":34,"Duration":132955,"SoundDuration":132955,"Delta":13767244},{"NoteNumber":65,"Velocity":28,"Duration":132955,"SoundDuration":132955,"Delta":13767244},{"NoteNumber":65,"Velocity":24,"Duration":132955,"SoundDuration":132955,"Delta":14033154},{"NoteNumber":69,"Velocity":28,"Duration":132955,"SoundDuration":132955,"Delta":14033154},{"NoteNumber":82,"Velocity":47,"Duration":125723,"SoundDuration":125723,"Delta":14299065},{"NoteNumber":65,"Velocity":24,"Duration":125723,"SoundDuration":125723,"Delta":14299065},{"NoteNumber":69,"Velocity":28,"Duration":125723,"SoundDuration":125723,"Delta":14299065},{"NoteNumber":81,"Velocity":44,"Duration":125722,"SoundDuration":125722,"Delta":14424788},{"NoteNumber":79,"Velocity":44,"Duration":128402,"SoundDuration":128402,"Delta":14550511},{"NoteNumber":65,"Velocity":24,"Duration":128402,"SoundDuration":128402,"Delta":14550511},{"NoteNumber":69,"Velocity":28,"Duration":128402,"SoundDuration":128402,"Delta":14550511},{"NoteNumber":77,"Velocity":44,"Duration":133761,"SoundDuration":133761,"Delta":14678913},{"NoteNumber":79,"Velocity":40,"Duration":127768,"SoundDuration":127768,"Delta":14812674},{"NoteNumber":67,"Velocity":34,"Duration":514613,"SoundDuration":514613,"Delta":14812674},{"NoteNumber":58,"Velocity":28,"Duration":514613,"SoundDuration":514613,"Delta":14812674},{"NoteNumber":81,"Velocity":41,"Duration":127768,"SoundDuration":127768,"Delta":14940443},{"NoteNumber":82,"Velocity":42,"Duration":128653,"SoundDuration":128653,"Delta":15068211},{"NoteNumber":79,"Velocity":40,"Duration":130423,"SoundDuration":130423,"Delta":15196864},{"NoteNumber":77,"Velocity":43,"Duration":134904,"SoundDuration":134904,"Delta":15327288},{"NoteNumber":60,"Velocity":22,"Duration":560170,"SoundDuration":560170,"Delta":15327288},{"NoteNumber":67,"Velocity":27,"Duration":560170,"SoundDuration":560170,"Delta":15327288},{"NoteNumber":76,"Velocity":43,"Duration":134904,"SoundDuration":134904,"Delta":15462192},{"NoteNumber":74,"Velocity":43,"Duration":137783,"SoundDuration":137783,"Delta":15597096},{"NoteNumber":72,"Velocity":43,"Duration":152578,"SoundDuration":152578,"Delta":15734879},{"NoteNumber":77,"Velocity":46,"Duration":504881,"SoundDuration":504881,"Delta":15887458},{"NoteNumber":65,"Velocity":34,"Duration":504881,"SoundDuration":504881,"Delta":15887458},{"NoteNumber":72,"Velocity":42,"Duration":266233,"SoundDuration":266233,"Delta":16649427},{"NoteNumber":82,"Velocity":45,"Duration":126938,"SoundDuration":126938,"Delta":16915661},{"NoteNumber":52,"Velocity":34,"Duration":126938,"SoundDuration":126938,"Delta":16915661},{"NoteNumber":60,"Velocity":24,"Duration":125879,"SoundDuration":125879,"Delta":17042599},{"NoteNumber":82,"Velocity":39,"Duration":125219,"SoundDuration":125219,"Delta":17168479},{"NoteNumber":52,"Velocity":28,"Duration":125219,"SoundDuration":125219,"Delta":17168479},{"NoteNumber":60,"Velocity":25,"Duration":125219,"SoundDuration":125219,"Delta":17293698},{"NoteNumber":82,"Velocity":44,"Duration":125219,"SoundDuration":125219,"Delta":17418918},{"NoteNumber":52,"Velocity":30,"Duration":125219,"SoundDuration":125219,"Delta":17418918},{"NoteNumber":60,"Velocity":25,"Duration":130157,"SoundDuration":130157,"Delta":17544137},{"NoteNumber":86,"Velocity":47,"Duration":130157,"SoundDuration":130157,"Delta":17674294},{"NoteNumber":52,"Velocity":28,"Duration":130157,"SoundDuration":130157,"Delta":17674294},{"NoteNumber":82,"Velocity":43,"Duration":125194,"SoundDuration":125194,"Delta":17804451},{"NoteNumber":60,"Velocity":25,"Duration":125194,"SoundDuration":125194,"Delta":17804451},{"NoteNumber":81,"Velocity":50,"Duration":501371,"SoundDuration":501371,"Delta":17929645},{"NoteNumber":53,"Velocity":37,"Duration":124521,"SoundDuration":124521,"Delta":17929645},{"NoteNumber":60,"Velocity":25,"Duration":125641,"SoundDuration":125641,"Delta":18054167},{"NoteNumber":53,"Velocity":29,"Duration":125992,"SoundDuration":125992,"Delta":18179808},{"NoteNumber":60,"Velocity":27,"Duration":125215,"SoundDuration":125215,"Delta":18305801},{"NoteNumber":53,"Velocity":31,"Duration":124719,"SoundDuration":124719,"Delta":18431016},{"NoteNumber":60,"Velocity":30,"Duration":124719,"SoundDuration":124719,"Delta":18555736},{"NoteNumber":84,"Velocity":50,"Duration":266382,"SoundDuration":266382,"Delta":18680455},{"NoteNumber":53,"Velocity":40,"Duration":133191,"SoundDuration":133191,"Delta":18680455},{"NoteNumber":60,"Velocity":29,"Duration":133191,"SoundDuration":133191,"Delta":18813647},{"NoteNumber":76,"Velocity":57,"Duration":124223,"SoundDuration":124223,"Delta":18946838},{"NoteNumber":55,"Velocity":47,"Duration":124223,"SoundDuration":124223,"Delta":18946838},{"NoteNumber":60,"Velocity":31,"Duration":124223,"SoundDuration":124223,"Delta":19071061},{"NoteNumber":76,"Velocity":45,"Duration":124555,"SoundDuration":124555,"Delta":19195285},{"NoteNumber":55,"Velocity":35,"Duration":124555,"SoundDuration":124555,"Delta":19195285},{"NoteNumber":60,"Velocity":28,"Duration":125219,"SoundDuration":125219,"Delta":19319840},{"NoteNumber":76,"Velocity":50,"Duration":125219,"SoundDuration":125219,"Delta":19445059},{"NoteNumber":55,"Velocity":36,"Duration":125219,"SoundDuration":125219,"Delta":19445059},{"NoteNumber":60,"Velocity":29,"Duration":130157,"SoundDuration":130157,"Delta":19570279},{"NoteNumber":79,"Velocity":54,"Duration":130157,"SoundDuration":130157,"Delta":19700436},{"NoteNumber":55,"Velocity":37,"Duration":130157,"SoundDuration":130157,"Delta":19700436},{"NoteNumber":76,"Velocity":46,"Duration":125219,"SoundDuration":125219,"Delta":19830593},{"NoteNumber":60,"Velocity":34,"Duration":125219,"SoundDuration":125219,"Delta":19830593},{"NoteNumber":77,"Velocity":53,"Duration":500876,"SoundDuration":500876,"Delta":19955812},{"NoteNumber":57,"Velocity":49,"Duration":125219,"SoundDuration":125219,"Delta":19955812},{"NoteNumber":60,"Velocity":34,"Duration":125219,"SoundDuration":125219,"Delta":20081031},{"NoteNumber":57,"Velocity":33,"Duration":125219,"SoundDuration":125219,"Delta":20206251},{"NoteNumber":60,"Velocity":28,"Duration":125219,"SoundDuration":125219,"Delta":20331470},{"NoteNumber":57,"Velocity":36,"Duration":125219,"SoundDuration":125219,"Delta":20456689},{"NoteNumber":60,"Velocity":31,"Duration":125219,"SoundDuration":125219,"Delta":20581908},{"NoteNumber":72,"Velocity":50,"Duration":266233,"SoundDuration":266233,"Delta":20707128},{"NoteNumber":57,"Velocity":36,"Duration":133191,"SoundDuration":133191,"Delta":20707128},{"NoteNumber":60,"Velocity":32,"Duration":133042,"SoundDuration":133042,"Delta":20840319},{"NoteNumber":79,"Velocity":55,"Duration":126938,"SoundDuration":126938,"Delta":20973362},{"NoteNumber":52,"Velocity":40,"Duration":126938,"SoundDuration":126938,"Delta":20973362},{"NoteNumber":60,"Velocity":28,"Duration":125879,"SoundDuration":125879,"Delta":21100300},{"NoteNumber":79,"Velocity":53,"Duration":125219,"SoundDuration":125219,"Delta":21226180},{"NoteNumber":52,"Velocity":32,"Duration":125219,"SoundDuration":125219,"Delta":21226180},{"NoteNumber":60,"Velocity":28,"Duration":125219,"SoundDuration":125219,"Delta":21351399},{"NoteNumber":79,"Velocity":56,"Duration":125219,"SoundDuration":125219,"Delta":21476619},{"NoteNumber":52,"Velocity":34,"Duration":125219,"SoundDuration":125219,"Delta":21476619},{"NoteNumber":60,"Velocity":28,"Duration":130157,"SoundDuration":130157,"Delta":21601838},{"NoteNumber":67,"Velocity":54,"Duration":130157,"SoundDuration":130157,"Delta":21731995},{"NoteNumber":52,"Velocity":31,"Duration":130157,"SoundDuration":130157,"Delta":21731995},{"NoteNumber":70,"Velocity":48,"Duration":125231,"SoundDuration":125231,"Delta":21862152},{"NoteNumber":60,"Velocity":27,"Duration":125231,"SoundDuration":125231,"Delta":21862152},{"NoteNumber":69,"Velocity":54,"Duration":125529,"SoundDuration":125529,"Delta":21987384},{"NoteNumber":53,"Velocity":46,"Duration":497564,"SoundDuration":497564,"Delta":21987384},{"NoteNumber":72,"Velocity":46,"Duration":124641,"SoundDuration":124641,"Delta":22112914},{"NoteNumber":70,"Velocity":54,"Duration":123838,"SoundDuration":123838,"Delta":22237555},{"NoteNumber":69,"Velocity":46,"Duration":123555,"SoundDuration":123555,"Delta":22361393},{"NoteNumber":67,"Velocity":54,"Duration":123216,"SoundDuration":123216,"Delta":22484949},{"NoteNumber":65,"Velocity":46,"Duration":124224,"SoundDuration":124224,"Delta":22608165},{"NoteNumber":64,"Velocity":49,"Duration":127831,"SoundDuration":127831,"Delta":22732390},{"NoteNumber":65,"Velocity":45,"Duration":133191,"SoundDuration":133191,"Delta":22860221},{"NoteNumber":62,"Velocity":45,"Duration":126220,"SoundDuration":126220,"Delta":22993412},{"NoteNumber":58,"Velocity":42,"Duration":516239,"SoundDuration":516239,"Delta":22993412},{"NoteNumber":46,"Velocity":42,"Duration":516239,"SoundDuration":516239,"Delta":22993412},{"NoteNumber":70,"Velocity":51,"Duration":130867,"SoundDuration":130867,"Delta":23119632},{"NoteNumber":74,"Velocity":58,"Duration":131383,"SoundDuration":131383,"Delta":23250500},{"NoteNumber":72,"Velocity":45,"Duration":127768,"SoundDuration":127768,"Delta":23381883},{"NoteNumber":70,"Velocity":54,"Duration":130970,"SoundDuration":130970,"Delta":23509652},{"NoteNumber":69,"Velocity":46,"Duration":133982,"SoundDuration":133982,"Delta":23640622},{"NoteNumber":67,"Velocity":50,"Duration":138172,"SoundDuration":138172,"Delta":23774604},{"NoteNumber":59,"Velocity":44,"Duration":281713,"SoundDuration":281713,"Delta":23774604},{"NoteNumber":65,"Velocity":49,"Duration":143540,"SoundDuration":143540,"Delta":23912777},{"NoteNumber":64,"Velocity":58,"Duration":570520,"SoundDuration":570520,"Delta":24056318},{"NoteNumber":60,"Velocity":49,"Duration":278189,"SoundDuration":278189,"Delta":24056318},{"NoteNumber":55,"Velocity":39,"Duration":142630,"SoundDuration":142630,"Delta":24334508},{"NoteNumber":48,"Velocity":45,"Duration":276956,"SoundDuration":276956,"Delta":24626839},{"NoteNumber":72,"Velocity":40,"Duration":251446,"SoundDuration":251446,"Delta":24903796},{"NoteNumber":77,"Velocity":45,"Duration":126252,"SoundDuration":126252,"Delta":25155242},{"NoteNumber":65,"Velocity":28,"Duration":505008,"SoundDuration":505008,"Delta":25155242},{"NoteNumber":69,"Velocity":34,"Duration":505008,"SoundDuration":505008,"Delta":25155242},{"NoteNumber":72,"Velocity":40,"Duration":126251,"SoundDuration":126251,"Delta":25281494},{"NoteNumber":77,"Velocity":41,"Duration":126252,"SoundDuration":126252,"Delta":25407746},{"NoteNumber":72,"Velocity":42,"Duration":126252,"SoundDuration":126252,"Delta":25533998},{"NoteNumber":81,"Velocity":48,"Duration":125723,"SoundDuration":125723,"Delta":25660250},{"NoteNumber":77,"Velocity":44,"Duration":125723,"SoundDuration":125723,"Delta":25785973},{"NoteNumber":81,"Velocity":44,"Duration":128783,"SoundDuration":128783,"Delta":25911696},{"NoteNumber":77,"Velocity":45,"Duration":134904,"SoundDuration":134904,"Delta":26040479},{"NoteNumber":84,"Velocity":55,"Duration":534188,"SoundDuration":534188,"Delta":26175383},{"NoteNumber":69,"Velocity":39,"Duration":133547,"SoundDuration":133547,"Delta":26175383},{"NoteNumber":65,"Velocity":32,"Duration":133547,"SoundDuration":133547,"Delta":26175383},{"NoteNumber":65,"Velocity":24,"Duration":133547,"SoundDuration":133547,"Delta":26442477},{"NoteNumber":69,"Velocity":28,"Duration":133547,"SoundDuration":133547,"Delta":26442477},{"NoteNumber":82,"Velocity":47,"Duration":124719,"SoundDuration":124719,"Delta":26709571},{"NoteNumber":65,"Velocity":24,"Duration":124719,"SoundDuration":124719,"Delta":26709571},{"NoteNumber":69,"Velocity":28,"Duration":124719,"SoundDuration":124719,"Delta":26709571},{"NoteNumber":81,"Velocity":44,"Duration":124719,"SoundDuration":124719,"Delta":26834291},{"NoteNumber":79,"Velocity":44,"Duration":127733,"SoundDuration":127733,"Delta":26959010},{"NoteNumber":65,"Velocity":24,"Duration":127733,"SoundDuration":127733,"Delta":26959010},{"NoteNumber":69,"Velocity":28,"Duration":127733,"SoundDuration":127733,"Delta":26959010},{"NoteNumber":77,"Velocity":44,"Duration":133761,"SoundDuration":133761,"Delta":27086744},{"NoteNumber":76,"Velocity":44,"Duration":125723,"SoundDuration":125723,"Delta":27220505},{"NoteNumber":67,"Velocity":37,"Duration":125723,"SoundDuration":125723,"Delta":27220505},{"NoteNumber":60,"Velocity":30,"Duration":125723,"SoundDuration":125723,"Delta":27220505},{"NoteNumber":77,"Velocity":45,"Duration":125723,"SoundDuration":125723,"Delta":27346228},{"NoteNumber":79,"Velocity":46,"Duration":125722,"SoundDuration":125722,"Delta":27471951},{"NoteNumber":60,"Velocity":24,"Duration":125722,"SoundDuration":125722,"Delta":27471951},{"NoteNumber":67,"Velocity":29,"Duration":125722,"SoundDuration":125722,"Delta":27471951},{"NoteNumber":76,"Velocity":44,"Duration":125723,"SoundDuration":125723,"Delta":27597674},{"NoteNumber":72,"Velocity":47,"Duration":135980,"SoundDuration":135980,"Delta":27723397},{"NoteNumber":60,"Velocity":24,"Duration":135980,"SoundDuration":135980,"Delta":27723397},{"NoteNumber":67,"Velocity":29,"Duration":135980,"SoundDuration":135980,"Delta":27723397},{"NoteNumber":79,"Velocity":39,"Duration":67990,"SoundDuration":67990,"Delta":27995358},{"NoteNumber":82,"Velocity":47,"Duration":67990,"SoundDuration":67990,"Delta":27995358},{"NoteNumber":60,"Velocity":22,"Duration":67990,"SoundDuration":67990,"Delta":27995358},{"NoteNumber":67,"Velocity":27,"Duration":67990,"SoundDuration":67990,"Delta":27995358},{"NoteNumber":79,"Velocity":39,"Duration":529474,"SoundDuration":529474,"Delta":28284886},{"NoteNumber":82,"Velocity":46,"Duration":529474,"SoundDuration":529474,"Delta":28284886},{"NoteNumber":65,"Velocity":34,"Duration":264737,"SoundDuration":264737,"Delta":28284886},{"NoteNumber":60,"Velocity":26,"Duration":66184,"SoundDuration":66184,"Delta":28549623},{"NoteNumber":81,"Velocity":45,"Duration":259022,"SoundDuration":259022,"Delta":28814360},{"NoteNumber":77,"Velocity":38,"Duration":259022,"SoundDuration":259022,"Delta":28814360},{"NoteNumber":53,"Velocity":32,"Duration":510468,"SoundDuration":510468,"Delta":28814360},{"NoteNumber":72,"Velocity":40,"Duration":251446,"SoundDuration":251446,"Delta":29073382},{"NoteNumber":77,"Velocity":45,"Duration":127866,"SoundDuration":127866,"Delta":29324828},{"NoteNumber":65,"Velocity":28,"Duration":511465,"SoundDuration":511465,"Delta":29324828},{"NoteNumber":69,"Velocity":34,"Duration":511465,"SoundDuration":511465,"Delta":29324828},{"NoteNumber":72,"Velocity":40,"Duration":127866,"SoundDuration":127866,"Delta":29452694},{"NoteNumber":77,"Velocity":41,"Duration":127866,"SoundDuration":127866,"Delta":29580561},{"NoteNumber":72,"Velocity":42,"Duration":127866,"SoundDuration":127866,"Delta":29708427},{"NoteNumber":81,"Velocity":48,"Duration":125723,"SoundDuration":125723,"Delta":29836293},{"NoteNumber":77,"Velocity":44,"Duration":125723,"SoundDuration":125723,"Delta":29962016},{"NoteNumber":81,"Velocity":44,"Duration":128783,"SoundDuration":128783,"Delta":30087739},{"NoteNumber":77,"Velocity":45,"Duration":142436,"SoundDuration":142436,"Delta":30216523},{"NoteNumber":84,"Velocity":55,"Duration":527148,"SoundDuration":527148,"Delta":30358959},{"NoteNumber":69,"Velocity":39,"Duration":131786,"SoundDuration":131786,"Delta":30358959},{"NoteNumber":65,"Velocity":32,"Duration":131786,"SoundDuration":131786,"Delta":30358959},{"NoteNumber":65,"Velocity":24,"Duration":131787,"SoundDuration":131787,"Delta":30622533},{"NoteNumber":69,"Velocity":28,"Duration":131787,"SoundDuration":131787,"Delta":30622533},{"NoteNumber":82,"Velocity":47,"Duration":125723,"SoundDuration":125723,"Delta":30886107},{"NoteNumber":65,"Velocity":24,"Duration":125723,"SoundDuration":125723,"Delta":30886107},{"NoteNumber":69,"Velocity":28,"Duration":125723,"SoundDuration":125723,"Delta":30886107},{"NoteNumber":81,"Velocity":44,"Duration":125723,"SoundDuration":125723,"Delta":31011830},{"NoteNumber":79,"Velocity":44,"Duration":128402,"SoundDuration":128402,"Delta":31137553},{"NoteNumber":65,"Velocity":24,"Duration":128402,"SoundDuration":128402,"Delta":31137553},{"NoteNumber":69,"Velocity":28,"Duration":128402,"SoundDuration":128402,"Delta":31137553},{"NoteNumber":77,"Velocity":44,"Duration":133761,"SoundDuration":133761,"Delta":31265955},{"NoteNumber":79,"Velocity":40,"Duration":127768,"SoundDuration":127768,"Delta":31399717},{"NoteNumber":67,"Velocity":34,"Duration":514613,"SoundDuration":514613,"Delta":31399717},{"NoteNumber":58,"Velocity":28,"Duration":514613,"SoundDuration":514613,"Delta":31399717},{"NoteNumber":81,"Velocity":41,"Duration":127768,"SoundDuration":127768,"Delta":31527485},{"NoteNumber":82,"Velocity":42,"Duration":128653,"SoundDuration":128653,"Delta":31655253},{"NoteNumber":79,"Velocity":40,"Duration":130423,"SoundDuration":130423,"Delta":31783907},{"NoteNumber":77,"Velocity":43,"Duration":134904,"SoundDuration":134904,"Delta":31914330},{"NoteNumber":60,"Velocity":22,"Duration":560950,"SoundDuration":560950,"Delta":31914330},{"NoteNumber":67,"Velocity":27,"Duration":560950,"SoundDuration":560950,"Delta":31914330},{"NoteNumber":76,"Velocity":43,"Duration":134904,"SoundDuration":134904,"Delta":32049234},{"NoteNumber":74,"Velocity":43,"Duration":137783,"SoundDuration":137783,"Delta":32184139},{"NoteNumber":72,"Velocity":43,"Duration":153358,"SoundDuration":153358,"Delta":32321922},{"NoteNumber":77,"Velocity":46,"Duration":504880,"SoundDuration":504880,"Delta":32475280},{"NoteNumber":53,"Velocity":29,"Duration":504880,"SoundDuration":504880,"Delta":32475280},{"NoteNumber":65,"Velocity":34,"Duration":504880,"SoundDuration":504880,"Delta":32475280},{"NoteNumber":72,"Velocity":42,"Duration":266233,"SoundDuration":266233,"Delta":33232602},{"NoteNumber":82,"Velocity":46,"Duration":126938,"SoundDuration":126938,"Delta":33498836},{"NoteNumber":52,"Velocity":35,"Duration":126938,"SoundDuration":126938,"Delta":33498836},{"NoteNumber":60,"Velocity":25,"Duration":125879,"SoundDuration":125879,"Delta":33625774},{"NoteNumber":82,"Velocity":40,"Duration":125219,"SoundDuration":125219,"Delta":33751654},{"NoteNumber":52,"Velocity":28,"Duration":125219,"SoundDuration":125219,"Delta":33751654},{"NoteNumber":60,"Velocity":25,"Duration":125219,"SoundDuration":125219,"Delta":33876873},{"NoteNumber":82,"Velocity":45,"Duration":125219,"SoundDuration":125219,"Delta":34002093},{"NoteNumber":52,"Velocity":31,"Duration":125219,"SoundDuration":125219,"Delta":34002093},{"NoteNumber":60,"Velocity":26,"Duration":130157,"SoundDuration":130157,"Delta":34127312},{"NoteNumber":86,"Velocity":47,"Duration":130157,"SoundDuration":130157,"Delta":34257469},{"NoteNumber":52,"Velocity":28,"Duration":130157,"SoundDuration":130157,"Delta":34257469},{"NoteNumber":82,"Velocity":44,"Duration":125194,"SoundDuration":125194,"Delta":34387626},{"NoteNumber":60,"Velocity":25,"Duration":125194,"SoundDuration":125194,"Delta":34387626},{"NoteNumber":81,"Velocity":51,"Duration":501371,"SoundDuration":501371,"Delta":34512820},{"NoteNumber":53,"Velocity":38,"Duration":124521,"SoundDuration":124521,"Delta":34512820},{"NoteNumber":60,"Velocity":25,"Duration":125641,"SoundDuration":125641,"Delta":34637342},{"NoteNumber":53,"Velocity":29,"Duration":125992,"SoundDuration":125992,"Delta":34762983},{"NoteNumber":60,"Velocity":27,"Duration":125215,"SoundDuration":125215,"Delta":34888976},{"NoteNumber":53,"Velocity":31,"Duration":124719,"SoundDuration":124719,"Delta":35014191},{"NoteNumber":60,"Velocity":30,"Duration":124719,"SoundDuration":124719,"Delta":35138911},{"NoteNumber":84,"Velocity":50,"Duration":266382,"SoundDuration":266382,"Delta":35263630},{"NoteNumber":53,"Velocity":41,"Duration":133191,"SoundDuration":133191,"Delta":35263630},{"NoteNumber":60,"Velocity":29,"Duration":133191,"SoundDuration":133191,"Delta":35396822},{"NoteNumber":76,"Velocity":58,"Duration":124223,"SoundDuration":124223,"Delta":35530013},{"NoteNumber":55,"Velocity":48,"Duration":124223,"SoundDuration":124223,"Delta":35530013},{"NoteNumber":60,"Velocity":31,"Duration":124223,"SoundDuration":124223,"Delta":35654236},{"NoteNumber":76,"Velocity":46,"Duration":124555,"SoundDuration":124555,"Delta":35778460},{"NoteNumber":55,"Velocity":35,"Duration":124555,"SoundDuration":124555,"Delta":35778460},{"NoteNumber":60,"Velocity":28,"Duration":125219,"SoundDuration":125219,"Delta":35903015},{"NoteNumber":76,"Velocity":49,"Duration":125219,"SoundDuration":125219,"Delta":36028234},{"NoteNumber":55,"Velocity":37,"Duration":125219,"SoundDuration":125219,"Delta":36028234},{"NoteNumber":60,"Velocity":30,"Duration":130157,"SoundDuration":130157,"Delta":36153454},{"NoteNumber":79,"Velocity":55,"Duration":130157,"SoundDuration":130157,"Delta":36283611},{"NoteNumber":55,"Velocity":37,"Duration":130157,"SoundDuration":130157,"Delta":36283611},{"NoteNumber":76,"Velocity":50,"Duration":125219,"SoundDuration":125219,"Delta":36413768},{"NoteNumber":60,"Velocity":34,"Duration":125219,"SoundDuration":125219,"Delta":36413768},{"NoteNumber":77,"Velocity":56,"Duration":500877,"SoundDuration":500877,"Delta":36538987},{"NoteNumber":57,"Velocity":47,"Duration":125219,"SoundDuration":125219,"Delta":36538987},{"NoteNumber":60,"Velocity":34,"Duration":125219,"SoundDuration":125219,"Delta":36664206},{"NoteNumber":57,"Velocity":33,"Duration":125219,"SoundDuration":125219,"Delta":36789426},{"NoteNumber":60,"Velocity":28,"Duration":125219,"SoundDuration":125219,"Delta":36914645},{"NoteNumber":57,"Velocity":36,"Duration":125219,"SoundDuration":125219,"Delta":37039864},{"NoteNumber":60,"Velocity":31,"Duration":125219,"SoundDuration":125219,"Delta":37165083},{"NoteNumber":72,"Velocity":50,"Duration":266233,"SoundDuration":266233,"Delta":37290303},{"NoteNumber":57,"Velocity":36,"Duration":133191,"SoundDuration":133191,"Delta":37290303},{"NoteNumber":60,"Velocity":32,"Duration":133042,"SoundDuration":133042,"Delta":37423494},{"NoteNumber":79,"Velocity":62,"Duration":126938,"SoundDuration":126938,"Delta":37556537},{"NoteNumber":52,"Velocity":40,"Duration":126938,"SoundDuration":126938,"Delta":37556537},{"NoteNumber":60,"Velocity":28,"Duration":125879,"SoundDuration":125879,"Delta":37683475},{"NoteNumber":79,"Velocity":55,"Duration":125219,"SoundDuration":125219,"Delta":37809355},{"NoteNumber":52,"Velocity":32,"Duration":125219,"SoundDuration":125219,"Delta":37809355},{"NoteNumber":60,"Velocity":28,"Duration":125219,"SoundDuration":125219,"Delta":37934574},{"NoteNumber":79,"Velocity":62,"Duration":125219,"SoundDuration":125219,"Delta":38059794},{"NoteNumber":52,"Velocity":34,"Duration":125219,"SoundDuration":125219,"Delta":38059794},{"NoteNumber":60,"Velocity":28,"Duration":130157,"SoundDuration":130157,"Delta":38185013},{"NoteNumber":67,"Velocity":54,"Duration":130157,"SoundDuration":130157,"Delta":38315170},{"NoteNumber":52,"Velocity":31,"Duration":130157,"SoundDuration":130157,"Delta":38315170},{"NoteNumber":70,"Velocity":48,"Duration":125231,"SoundDuration":125231,"Delta":38445327},{"NoteNumber":60,"Velocity":27,"Duration":125231,"SoundDuration":125231,"Delta":38445327},{"NoteNumber":69,"Velocity":54,"Duration":125529,"SoundDuration":125529,"Delta":38570559},{"NoteNumber":53,"Velocity":46,"Duration":497564,"SoundDuration":497564,"Delta":38570559},{"NoteNumber":72,"Velocity":46,"Duration":124641,"SoundDuration":124641,"Delta":38696089},{"NoteNumber":70,"Velocity":54,"Duration":123838,"SoundDuration":123838,"Delta":38820730},{"NoteNumber":69,"Velocity":46,"Duration":123555,"SoundDuration":123555,"Delta":38944568},{"NoteNumber":67,"Velocity":54,"Duration":123216,"SoundDuration":123216,"Delta":39068124},{"NoteNumber":65,"Velocity":46,"Duration":124224,"SoundDuration":124224,"Delta":39191340},{"NoteNumber":64,"Velocity":49,"Duration":127831,"SoundDuration":127831,"Delta":39315565},{"NoteNumber":65,"Velocity":45,"Duration":133191,"SoundDuration":133191,"Delta":39443396},{"NoteNumber":62,"Velocity":45,"Duration":126220,"SoundDuration":126220,"Delta":39576587},{"NoteNumber":58,"Velocity":42,"Duration":516239,"SoundDuration":516239,"Delta":39576587},{"NoteNumber":46,"Velocity":42,"Duration":516239,"SoundDuration":516239,"Delta":39576587},{"NoteNumber":70,"Velocity":51,"Duration":130867,"SoundDuration":130867,"Delta":39702807},{"NoteNumber":74,"Velocity":58,"Duration":131383,"SoundDuration":131383,"Delta":39833675},{"NoteNumber":72,"Velocity":45,"Duration":127768,"SoundDuration":127768,"Delta":39965058},{"NoteNumber":70,"Velocity":54,"Duration":130969,"SoundDuration":130969,"Delta":40092827},{"NoteNumber":69,"Velocity":46,"Duration":133982,"SoundDuration":133982,"Delta":40223797},{"NoteNumber":67,"Velocity":50,"Duration":138172,"SoundDuration":138172,"Delta":40357779},{"NoteNumber":59,"Velocity":44,"Duration":281713,"SoundDuration":281713,"Delta":40357779},{"NoteNumber":65,"Velocity":49,"Duration":143540,"SoundDuration":143540,"Delta":40495952},{"NoteNumber":64,"Velocity":58,"Duration":570520,"SoundDuration":570520,"Delta":40639493},{"NoteNumber":60,"Velocity":49,"Duration":278190,"SoundDuration":278190,"Delta":40639493},{"NoteNumber":55,"Velocity":39,"Duration":142630,"SoundDuration":142630,"Delta":40917683},{"NoteNumber":48,"Velocity":45,"Duration":276957,"SoundDuration":276957,"Delta":41210014},{"NoteNumber":72,"Velocity":48,"Duration":251446,"SoundDuration":251446,"Delta":41486971},{"NoteNumber":77,"Velocity":54,"Duration":127323,"SoundDuration":127323,"Delta":41738417},{"NoteNumber":65,"Velocity":33,"Duration":509295,"SoundDuration":509295,"Delta":41738417},{"NoteNumber":69,"Velocity":40,"Duration":509295,"SoundDuration":509295,"Delta":41738417},{"NoteNumber":72,"Velocity":48,"Duration":127323,"SoundDuration":127323,"Delta":41865740},{"NoteNumber":77,"Velocity":49,"Duration":127323,"SoundDuration":127323,"Delta":41993064},{"NoteNumber":72,"Velocity":50,"Duration":127323,"SoundDuration":127323,"Delta":42120388},{"NoteNumber":81,"Velocity":57,"Duration":125723,"SoundDuration":125723,"Delta":42247712},{"NoteNumber":77,"Velocity":52,"Duration":125723,"SoundDuration":125723,"Delta":42373435},{"NoteNumber":81,"Velocity":52,"Duration":128783,"SoundDuration":128783,"Delta":42499158},{"NoteNumber":77,"Velocity":54,"Duration":134904,"SoundDuration":134904,"Delta":42627941},{"NoteNumber":84,"Velocity":63,"Duration":534188,"SoundDuration":534188,"Delta":42762845},{"NoteNumber":69,"Velocity":46,"Duration":133547,"SoundDuration":133547,"Delta":42762845},{"NoteNumber":65,"Velocity":38,"Duration":133547,"SoundDuration":133547,"Delta":42762845},{"NoteNumber":65,"Velocity":28,"Duration":133547,"SoundDuration":133547,"Delta":43029939},{"NoteNumber":69,"Velocity":33,"Duration":133547,"SoundDuration":133547,"Delta":43029939},{"NoteNumber":82,"Velocity":56,"Duration":124719,"SoundDuration":124719,"Delta":43297033},{"NoteNumber":65,"Velocity":28,"Duration":124719,"SoundDuration":124719,"Delta":43297033},{"NoteNumber":69,"Velocity":33,"Duration":124719,"SoundDuration":124719,"Delta":43297033},{"NoteNumber":81,"Velocity":52,"Duration":124719,"SoundDuration":124719,"Delta":43421753},{"NoteNumber":79,"Velocity":52,"Duration":127733,"SoundDuration":127733,"Delta":43546472},{"NoteNumber":65,"Velocity":28,"Duration":127733,"SoundDuration":127733,"Delta":43546472},{"NoteNumber":69,"Velocity":33,"Duration":127733,"SoundDuration":127733,"Delta":43546472},{"NoteNumber":77,"Velocity":52,"Duration":133761,"SoundDuration":133761,"Delta":43674206},{"NoteNumber":76,"Velocity":52,"Duration":125723,"SoundDuration":125723,"Delta":43807967},{"NoteNumber":67,"Velocity":44,"Duration":125723,"SoundDuration":125723,"Delta":43807967},{"NoteNumber":60,"Velocity":36,"Duration":125723,"SoundDuration":125723,"Delta":43807967},{"NoteNumber":77,"Velocity":54,"Duration":125723,"SoundDuration":125723,"Delta":43933690},{"NoteNumber":79,"Velocity":55,"Duration":125723,"SoundDuration":125723,"Delta":44059413},{"NoteNumber":60,"Velocity":28,"Duration":125723,"SoundDuration":125723,"Delta":44059413},{"NoteNumber":67,"Velocity":34,"Duration":125723,"SoundDuration":125723,"Delta":44059413},{"NoteNumber":76,"Velocity":52,"Duration":125723,"SoundDuration":125723,"Delta":44185136},{"NoteNumber":72,"Velocity":56,"Duration":135980,"SoundDuration":135980,"Delta":44310859},{"NoteNumber":60,"Velocity":28,"Duration":135980,"SoundDuration":135980,"Delta":44310859},{"NoteNumber":67,"Velocity":34,"Duration":135980,"SoundDuration":135980,"Delta":44310859},{"NoteNumber":79,"Velocity":46,"Duration":67990,"SoundDuration":67990,"Delta":44582820},{"NoteNumber":82,"Velocity":56,"Duration":67990,"SoundDuration":67990,"Delta":44582820},{"NoteNumber":60,"Velocity":26,"Duration":67990,"SoundDuration":67990,"Delta":44582820},{"NoteNumber":67,"Velocity":32,"Duration":67990,"SoundDuration":67990,"Delta":44582820},{"NoteNumber":79,"Velocity":46,"Duration":529474,"SoundDuration":529474,"Delta":44872348},{"NoteNumber":82,"Velocity":55,"Duration":529474,"SoundDuration":529474,"Delta":44872348},{"NoteNumber":65,"Velocity":40,"Duration":264736,"SoundDuration":264736,"Delta":44872348},{"NoteNumber":60,"Velocity":31,"Duration":66184,"SoundDuration":66184,"Delta":45137085},{"NoteNumber":81,"Velocity":54,"Duration":259022,"SoundDuration":259022,"Delta":45401822},{"NoteNumber":77,"Velocity":45,"Duration":259022,"SoundDuration":259022,"Delta":45401822},{"NoteNumber":53,"Velocity":38,"Duration":510468,"SoundDuration":510468,"Delta":45401822},{"NoteNumber":72,"Velocity":48,"Duration":251446,"SoundDuration":251446,"Delta":45660844},{"NoteNumber":77,"Velocity":54,"Duration":126785,"SoundDuration":126785,"Delta":45912290},{"NoteNumber":65,"Velocity":33,"Duration":507142,"SoundDuration":507142,"Delta":45912290},{"NoteNumber":69,"Velocity":40,"Duration":507142,"SoundDuration":507142,"Delta":45912290},{"NoteNumber":72,"Velocity":48,"Duration":126785,"SoundDuration":126785,"Delta":46039076},{"NoteNumber":77,"Velocity":49,"Duration":126785,"SoundDuration":126785,"Delta":46165861},{"NoteNumber":72,"Velocity":50,"Duration":126785,"SoundDuration":126785,"Delta":46292647},{"NoteNumber":81,"Velocity":57,"Duration":125723,"SoundDuration":125723,"Delta":46419432},{"NoteNumber":77,"Velocity":52,"Duration":125723,"SoundDuration":125723,"Delta":46545155},{"NoteNumber":81,"Velocity":52,"Duration":128783,"SoundDuration":128783,"Delta":46670878},{"NoteNumber":77,"Velocity":54,"Duration":134904,"SoundDuration":134904,"Delta":46799662},{"NoteNumber":84,"Velocity":66,"Duration":527147,"SoundDuration":527147,"Delta":46934566},{"NoteNumber":69,"Velocity":46,"Duration":131787,"SoundDuration":131787,"Delta":46934566},{"NoteNumber":65,"Velocity":38,"Duration":131787,"SoundDuration":131787,"Delta":46934566},{"NoteNumber":65,"Velocity":28,"Duration":131787,"SoundDuration":131787,"Delta":47198140},{"NoteNumber":69,"Velocity":33,"Duration":131787,"SoundDuration":131787,"Delta":47198140},{"NoteNumber":82,"Velocity":56,"Duration":128380,"SoundDuration":128380,"Delta":47461714},{"NoteNumber":65,"Velocity":28,"Duration":128380,"SoundDuration":128380,"Delta":47461714},{"NoteNumber":69,"Velocity":33,"Duration":128380,"SoundDuration":128380,"Delta":47461714},{"NoteNumber":81,"Velocity":52,"Duration":128380,"SoundDuration":128380,"Delta":47590095},{"NoteNumber":79,"Velocity":52,"Duration":138452,"SoundDuration":138452,"Delta":47718475},{"NoteNumber":65,"Velocity":28,"Duration":138452,"SoundDuration":138452,"Delta":47718475},{"NoteNumber":69,"Velocity":33,"Duration":138452,"SoundDuration":138452,"Delta":47718475},{"NoteNumber":77,"Velocity":52,"Duration":138452,"SoundDuration":138452,"Delta":47856928},{"NoteNumber":79,"Velocity":48,"Duration":131222,"SoundDuration":131222,"Delta":47995381},{"NoteNumber":67,"Velocity":40,"Duration":533177,"SoundDuration":533177,"Delta":47995381},{"NoteNumber":58,"Velocity":33,"Duration":533177,"SoundDuration":533177,"Delta":47995381},{"NoteNumber":81,"Velocity":49,"Duration":131222,"SoundDuration":131222,"Delta":48126603},{"NoteNumber":82,"Velocity":50,"Duration":135366,"SoundDuration":135366,"Delta":48257825},{"NoteNumber":79,"Velocity":48,"Duration":135366,"SoundDuration":135366,"Delta":48393192},{"NoteNumber":77,"Velocity":51,"Duration":148794,"SoundDuration":148794,"Delta":48528559},{"NoteNumber":60,"Velocity":26,"Duration":615689,"SoundDuration":615689,"Delta":48528559},{"NoteNumber":67,"Velocity":32,"Duration":615689,"SoundDuration":615689,"Delta":48528559},{"NoteNumber":76,"Velocity":51,"Duration":148794,"SoundDuration":148794,"Delta":48677354},{"NoteNumber":74,"Velocity":51,"Duration":159050,"SoundDuration":159050,"Delta":48826148},{"NoteNumber":72,"Velocity":51,"Duration":159050,"SoundDuration":159050,"Delta":48985198},{"NoteNumber":77,"Velocity":62,"Duration":536481,"SoundDuration":536481,"Delta":49144248},{"NoteNumber":53,"Velocity":27,"Duration":536481,"SoundDuration":536481,"Delta":49144248},{"NoteNumber":65,"Velocity":38,"Duration":536481,"SoundDuration":536481,"Delta":49144248}]}