{"title":"Sonate Hoboken XVI:8 1. Satz","artist":"Haydn","durationMs":121302,"midiSha256":"c5adb1a2f851502b2b4c0555fbbe8a508b343cbf4ef0cea3131fb2f3eb914c3f","midiObject":[{"NoteNumber":74,"Velocity":72,"Duration":250000,"SoundDuration":250000,"Delta":0},{"NoteNumber":79,"Velocity":66,"Duration":83333,"SoundDuration":83333,"Delta":250000},{"NoteNumber":74,"Velocity":72,"Duration":352940,"SoundDuration":352940,"Delta":333334},{"NoteNumber":55,"Velocity":52,"Duration":686274,"SoundDuration":686274,"Delta":333334},{"NoteNumber":59,"Velocity":62,"Duration":686274,"SoundDuration":686274,"Delta":333334},{"NoteNumber":71,"Velocity":72,"Duration":250000,"SoundDuration":250000,"Delta":686275},{"NoteNumber":74,"Velocity":67,"Duration":83333,"SoundDuration":83333,"Delta":936275},{"NoteNumber":71,"Velocity":72,"Duration":333333,"SoundDuration":333333,"Delta":1019608},{"NoteNumber":67,"Velocity":72,"Duration":250000,"SoundDuration":250000,"Delta":1352942},{"NoteNumber":71,"Velocity":66,"Duration":83333,"SoundDuration":83333,"Delta":1602942},{"NoteNumber":67,"Velocity":72,"Duration":690772,"SoundDuration":690772,"Delta":1686275},{"NoteNumber":55,"Velocity":47,"Duration":331491,"SoundDuration":331491,"Delta":2045556},{"NoteNumber":59,"Velocity":56,"Duration":331491,"SoundDuration":331491,"Delta":2045556},{"NoteNumber":55,"Velocity":52,"Duration":662006,"SoundDuration":662006,"Delta":2377048},{"NoteNumber":59,"Velocity":62,"Duration":662006,"SoundDuration":662006,"Delta":2377048},{"NoteNumber":74,"Velocity":72,"Duration":319149,"SoundDuration":319149,"Delta":2719905},{"NoteNumber":72,"Velocity":72,"Duration":105820,"SoundDuration":105820,"Delta":3039054},{"NoteNumber":74,"Velocity":66,"Duration":105820,"SoundDuration":105820,"Delta":3144874},{"NoteNumber":76,"Velocity":66,"Duration":119760,"SoundDuration":119760,"Delta":3250694},{"NoteNumber":74,"Velocity":72,"Duration":331491,"SoundDuration":331491,"Delta":3370455},{"NoteNumber":55,"Velocity":47,"Duration":331491,"SoundDuration":331491,"Delta":3370455},{"NoteNumber":59,"Velocity":56,"Duration":331491,"SoundDuration":331491,"Delta":3370455},{"NoteNumber":55,"Velocity":52,"Duration":656443,"SoundDuration":656443,"Delta":3701946},{"NoteNumber":59,"Velocity":62,"Duration":656443,"SoundDuration":656443,"Delta":3701946},{"NoteNumber":71,"Velocity":72,"Duration":317460,"SoundDuration":317460,"Delta":4040929},{"NoteNumber":69,"Velocity":72,"Duration":105263,"SoundDuration":105263,"Delta":4358390},{"NoteNumber":71,"Velocity":63,"Duration":105263,"SoundDuration":105263,"Delta":4463653},{"NoteNumber":72,"Velocity":64,"Duration":117646,"SoundDuration":117646,"Delta":4568916},{"NoteNumber":71,"Velocity":72,"Duration":331491,"SoundDuration":331491,"Delta":4686563},{"NoteNumber":55,"Velocity":47,"Duration":331491,"SoundDuration":331491,"Delta":4686563},{"NoteNumber":59,"Velocity":56,"Duration":331491,"SoundDuration":331491,"Delta":4686563},{"NoteNumber":55,"Velocity":52,"Duration":678312,"SoundDuration":678312,"Delta":5018055},{"NoteNumber":59,"Velocity":62,"Duration":678312,"SoundDuration":678312,"Delta":5018055},{"NoteNumber":74,"Velocity":72,"Duration":346821,"SoundDuration":346821,"Delta":5349546},{"NoteNumber":76,"Velocity":67,"Duration":40983,"SoundDuration":40983,"Delta":5696367},{"NoteNumber":48,"Velocity":52,"Duration":655738,"SoundDuration":655738,"Delta":5696367},{"NoteNumber":60,"Velocity":62,"Duration":655738,"SoundDuration":655738,"Delta":5696367},{"NoteNumber":78,"Velocity":54,"Duration":40983,"SoundDuration":40983,"Delta":5737351},{"NoteNumber":76,"Velocity":66,"Duration":81967,"SoundDuration":81967,"Delta":5778334},{"NoteNumber":74,"Velocity":61,"Duration":163934,"SoundDuration":163934,"Delta":5860302},{"NoteNumber":76,"Velocity":64,"Duration":163934,"SoundDuration":163934,"Delta":6024236},{"NoteNumber":78,"Velocity":69,"Duration":163934,"SoundDuration":163934,"Delta":6188171},{"NoteNumber":79,"Velocity":74,"Duration":163934,"SoundDuration":163934,"Delta":6352105},{"NoteNumber":47,"Velocity":52,"Duration":680810,"SoundDuration":680810,"Delta":6352105},{"NoteNumber":59,"Velocity":62,"Duration":680810,"SoundDuration":680810,"Delta":6352105},{"NoteNumber":78,"Velocity":67,"Duration":163934,"SoundDuration":163934,"Delta":6516040},{"NoteNumber":76,"Velocity":67,"Duration":176470,"SoundDuration":176470,"Delta":6679974},{"NoteNumber":74,"Velocity":67,"Duration":176470,"SoundDuration":176470,"Delta":6856445},{"NoteNumber":72,"Velocity":61,"Duration":165394,"SoundDuration":165394,"Delta":7032915},{"NoteNumber":57,"Velocity":52,"Duration":327359,"SoundDuration":327359,"Delta":7032915},{"NoteNumber":74,"Velocity":59,"Duration":81383,"SoundDuration":81383,"Delta":7198310},{"NoteNumber":72,"Velocity":52,"Duration":80581,"SoundDuration":80581,"Delta":7279694},{"NoteNumber":74,"Velocity":59,"Duration":81859,"SoundDuration":81859,"Delta":7360275},{"NoteNumber":50,"Velocity":44,"Duration":350916,"SoundDuration":350916,"Delta":7360275},{"NoteNumber":72,"Velocity":52,"Duration":83653,"SoundDuration":83653,"Delta":7442134},{"NoteNumber":71,"Velocity":52,"Duration":85579,"SoundDuration":85579,"Delta":7525788},{"NoteNumber":72,"Velocity":52,"Duration":99824,"SoundDuration":99824,"Delta":7611367},{"NoteNumber":71,"Velocity":62,"Duration":340908,"SoundDuration":340908,"Delta":7711192},{"NoteNumber":55,"Velocity":52,"Duration":694066,"SoundDuration":694066,"Delta":7711192},{"NoteNumber":71,"Velocity":52,"Duration":353157,"SoundDuration":353157,"Delta":8052101},{"NoteNumber":69,"Velocity":56,"Duration":164835,"SoundDuration":164835,"Delta":8405258},{"NoteNumber":48,"Velocity":52,"Duration":1006162,"SoundDuration":1006162,"Delta":8405258},{"NoteNumber":72,"Velocity":47,"Duration":164835,"SoundDuration":164835,"Delta":8570093},{"NoteNumber":71,"Velocity":55,"Duration":173410,"SoundDuration":173410,"Delta":8734928},{"NoteNumber":69,"Velocity":52,"Duration":173410,"SoundDuration":173410,"Delta":8908339},{"NoteNumber":76,"Velocity":59,"Duration":329670,"SoundDuration":329670,"Delta":9081749},{"NoteNumber":67,"Velocity":54,"Duration":363636,"SoundDuration":363636,"Delta":9411420},{"NoteNumber":49,"Velocity":47,"Duration":363636,"SoundDuration":363636,"Delta":9411420},{"NoteNumber":67,"Velocity":51,"Duration":342857,"SoundDuration":342857,"Delta":9775056},{"NoteNumber":50,"Velocity":51,"Duration":342857,"SoundDuration":342857,"Delta":9775056},{"NoteNumber":66,"Velocity":44,"Duration":344157,"SoundDuration":344157,"Delta":10117913},{"NoteNumber":38,"Velocity":46,"Duration":344157,"SoundDuration":344157,"Delta":10117913},{"NoteNumber":50,"Velocity":51,"Duration":178531,"SoundDuration":178531,"Delta":10462071},{"NoteNumber":81,"Velocity":51,"Duration":175931,"SoundDuration":175931,"Delta":10640602},{"NoteNumber":54,"Velocity":46,"Duration":173371,"SoundDuration":173371,"Delta":10816533},{"NoteNumber":81,"Velocity":51,"Duration":170846,"SoundDuration":170846,"Delta":10989905},{"NoteNumber":57,"Velocity":47,"Duration":166008,"SoundDuration":166008,"Delta":11160751},{"NoteNumber":81,"Velocity":53,"Duration":162840,"SoundDuration":162840,"Delta":11326760},{"NoteNumber":62,"Velocity":51,"Duration":162339,"SoundDuration":162339,"Delta":11489601},{"NoteNumber":81,"Velocity":55,"Duration":163615,"SoundDuration":163615,"Delta":11651940},{"NoteNumber":66,"Velocity":56,"Duration":164835,"SoundDuration":164835,"Delta":11815555},{"NoteNumber":81,"Velocity":56,"Duration":164835,"SoundDuration":164835,"Delta":11980391},{"NoteNumber":62,"Velocity":50,"Duration":176470,"SoundDuration":176470,"Delta":12145226},{"NoteNumber":81,"Velocity":58,"Duration":176470,"SoundDuration":176470,"Delta":12321696},{"NoteNumber":79,"Velocity":59,"Duration":113636,"SoundDuration":113636,"Delta":12498167},{"NoteNumber":64,"Velocity":58,"Duration":340908,"SoundDuration":340908,"Delta":12498167},{"NoteNumber":81,"Velocity":51,"Duration":113636,"SoundDuration":113636,"Delta":12611803},{"NoteNumber":79,"Velocity":51,"Duration":113636,"SoundDuration":113636,"Delta":12725440},{"NoteNumber":78,"Velocity":60,"Duration":348164,"SoundDuration":348164,"Delta":12839076},{"NoteNumber":62,"Velocity":51,"Duration":348164,"SoundDuration":348164,"Delta":12839076},{"NoteNumber":76,"Velocity":59,"Duration":111731,"SoundDuration":111731,"Delta":13187241},{"NoteNumber":67,"Velocity":58,"Duration":335195,"SoundDuration":335195,"Delta":13187241},{"NoteNumber":78,"Velocity":51,"Duration":111731,"SoundDuration":111731,"Delta":13298973},{"NoteNumber":76,"Velocity":51,"Duration":111731,"SoundDuration":111731,"Delta":13410705},{"NoteNumber":74,"Velocity":59,"Duration":348836,"SoundDuration":348836,"Delta":13522436},{"NoteNumber":66,"Velocity":52,"Duration":348836,"SoundDuration":348836,"Delta":13522436},{"NoteNumber":73,"Velocity":60,"Duration":111731,"SoundDuration":111731,"Delta":13871273},{"NoteNumber":64,"Velocity":57,"Duration":335195,"SoundDuration":335195,"Delta":13871273},{"NoteNumber":71,"Velocity":51,"Duration":111731,"SoundDuration":111731,"Delta":13983005},{"NoteNumber":69,"Velocity":51,"Duration":111731,"SoundDuration":111731,"Delta":14094737},{"NoteNumber":74,"Velocity":61,"Duration":341616,"SoundDuration":341616,"Delta":14206469},{"NoteNumber":66,"Velocity":51,"Duration":341616,"SoundDuration":341616,"Delta":14206469},{"NoteNumber":45,"Velocity":51,"Duration":178531,"SoundDuration":178531,"Delta":14548086},{"NoteNumber":79,"Velocity":54,"Duration":175931,"SoundDuration":175931,"Delta":14726617},{"NoteNumber":49,"Velocity":46,"Duration":173371,"SoundDuration":173371,"Delta":14902548},{"NoteNumber":79,"Velocity":56,"Duration":170846,"SoundDuration":170846,"Delta":15075920},{"NoteNumber":52,"Velocity":47,"Duration":166008,"SoundDuration":166008,"Delta":15246766},{"NoteNumber":79,"Velocity":59,"Duration":162840,"SoundDuration":162840,"Delta":15412775},{"NoteNumber":57,"Velocity":51,"Duration":162339,"SoundDuration":162339,"Delta":15575616},{"NoteNumber":79,"Velocity":62,"Duration":163615,"SoundDuration":163615,"Delta":15737955},{"NoteNumber":61,"Velocity":56,"Duration":164835,"SoundDuration":164835,"Delta":15901570},{"NoteNumber":79,"Velocity":65,"Duration":164835,"SoundDuration":164835,"Delta":16066406},{"NoteNumber":64,"Velocity":50,"Duration":176470,"SoundDuration":176470,"Delta":16231241},{"NoteNumber":79,"Velocity":67,"Duration":176470,"SoundDuration":176470,"Delta":16407711},{"NoteNumber":78,"Velocity":71,"Duration":113636,"SoundDuration":113636,"Delta":16584182},{"NoteNumber":62,"Velocity":58,"Duration":689074,"SoundDuration":689074,"Delta":16584182},{"NoteNumber":76,"Velocity":62,"Duration":113636,"SoundDuration":113636,"Delta":16697818},{"NoteNumber":74,"Velocity":56,"Duration":113636,"SoundDuration":113636,"Delta":16811455},{"NoteNumber":73,"Velocity":60,"Duration":115607,"SoundDuration":115607,"Delta":16925091},{"NoteNumber":71,"Velocity":55,"Duration":116278,"SoundDuration":116278,"Delta":17040698},{"NoteNumber":69,"Velocity":52,"Duration":116279,"SoundDuration":116279,"Delta":17156977},{"NoteNumber":76,"Velocity":59,"Duration":111731,"SoundDuration":111731,"Delta":17273256},{"NoteNumber":62,"Velocity":58,"Duration":335195,"SoundDuration":335195,"Delta":17273256},{"NoteNumber":78,"Velocity":56,"Duration":111731,"SoundDuration":111731,"Delta":17384988},{"NoteNumber":76,"Velocity":56,"Duration":111731,"SoundDuration":111731,"Delta":17496720},{"NoteNumber":78,"Velocity":59,"Duration":87209,"SoundDuration":87209,"Delta":17608451},{"NoteNumber":61,"Velocity":52,"Duration":348836,"SoundDuration":348836,"Delta":17608451},{"NoteNumber":76,"Velocity":53,"Duration":87209,"SoundDuration":87209,"Delta":17695661},{"NoteNumber":74,"Velocity":59,"Duration":87209,"SoundDuration":87209,"Delta":17782870},{"NoteNumber":76,"Velocity":54,"Duration":87209,"SoundDuration":87209,"Delta":17870079},{"NoteNumber":74,"Velocity":59,"Duration":368097,"SoundDuration":368097,"Delta":17957288},{"NoteNumber":62,"Velocity":58,"Duration":368097,"SoundDuration":368097,"Delta":17957288},{"NoteNumber":86,"Velocity":62,"Duration":340908,"SoundDuration":340908,"Delta":18325386},{"NoteNumber":59,"Velocity":55,"Duration":170454,"SoundDuration":170454,"Delta":18325386},{"NoteNumber":62,"Velocity":44,"Duration":170454,"SoundDuration":170454,"Delta":18495841},{"NoteNumber":85,"Velocity":61,"Duration":340908,"SoundDuration":340908,"Delta":18666295},{"NoteNumber":57,"Velocity":54,"Duration":170454,"SoundDuration":170454,"Delta":18666295},{"NoteNumber":62,"Velocity":50,"Duration":170454,"SoundDuration":170454,"Delta":18836750},{"NoteNumber":83,"Velocity":59,"Duration":357143,"SoundDuration":357143,"Delta":19007204},{"NoteNumber":55,"Velocity":55,"Duration":178571,"SoundDuration":178571,"Delta":19007204},{"NoteNumber":62,"Velocity":47,"Duration":178571,"SoundDuration":178571,"Delta":19185776},{"NoteNumber":81,"Velocity":63,"Duration":337078,"SoundDuration":337078,"Delta":19364347},{"NoteNumber":54,"Velocity":55,"Duration":337078,"SoundDuration":337078,"Delta":19364347},{"NoteNumber":83,"Velocity":70,"Duration":108108,"SoundDuration":108108,"Delta":19701426},{"NoteNumber":55,"Velocity":51,"Duration":324324,"SoundDuration":324324,"Delta":19701426},{"NoteNumber":81,"Velocity":65,"Duration":108108,"SoundDuration":108108,"Delta":19809534},{"NoteNumber":79,"Velocity":65,"Duration":108108,"SoundDuration":108108,"Delta":19917642},{"NoteNumber":78,"Velocity":75,"Duration":335195,"SoundDuration":335195,"Delta":20025750},{"NoteNumber":57,"Velocity":57,"Duration":335195,"SoundDuration":335195,"Delta":20025750},{"NoteNumber":76,"Velocity":73,"Duration":72727,"SoundDuration":72727,"Delta":20360946},{"NoteNumber":45,"Velocity":55,"Duration":363636,"SoundDuration":363636,"Delta":20360946},{"NoteNumber":78,"Velocity":66,"Duration":72727,"SoundDuration":72727,"Delta":20433673},{"NoteNumber":76,"Velocity":67,"Duration":72727,"SoundDuration":72727,"Delta":20506400},{"NoteNumber":74,"Velocity":67,"Duration":72727,"SoundDuration":72727,"Delta":20579128},{"NoteNumber":76,"Velocity":67,"Duration":72727,"SoundDuration":72727,"Delta":20651855},{"NoteNumber":74,"Velocity":76,"Duration":736446,"SoundDuration":736446,"Delta":20724582},{"NoteNumber":50,"Velocity":59,"Duration":180723,"SoundDuration":180723,"Delta":20724582},{"NoteNumber":45,"Velocity":54,"Duration":187500,"SoundDuration":187500,"Delta":21086028},{"NoteNumber":38,"Velocity":50,"Duration":277777,"SoundDuration":277777,"Delta":21461028},{"NoteNumber":74,"Velocity":72,"Duration":250000,"SoundDuration":250000,"Delta":22016584},{"NoteNumber":79,"Velocity":66,"Duration":83333,"SoundDuration":83333,"Delta":22266584},{"NoteNumber":74,"Velocity":72,"Duration":352941,"SoundDuration":352941,"Delta":22349917},{"NoteNumber":55,"Velocity":52,"Duration":686274,"SoundDuration":686274,"Delta":22349917},{"NoteNumber":59,"Velocity":62,"Duration":686274,"SoundDuration":686274,"Delta":22349917},{"NoteNumber":71,"Velocity":72,"Duration":250000,"SoundDuration":250000,"Delta":22702858},{"NoteNumber":74,"Velocity":67,"Duration":83333,"SoundDuration":83333,"Delta":22952859},{"NoteNumber":71,"Velocity":72,"Duration":333333,"SoundDuration":333333,"Delta":23036192},{"NoteNumber":67,"Velocity":72,"Duration":250000,"SoundDuration":250000,"Delta":23369525},{"NoteNumber":71,"Velocity":66,"Duration":83333,"SoundDuration":83333,"Delta":23619526},{"NoteNumber":67,"Velocity":72,"Duration":690773,"SoundDuration":690773,"Delta":23702859},{"NoteNumber":55,"Velocity":47,"Duration":331491,"SoundDuration":331491,"Delta":24062140},{"NoteNumber":59,"Velocity":56,"Duration":331491,"SoundDuration":331491,"Delta":24062140},{"NoteNumber":55,"Velocity":52,"Duration":665437,"SoundDuration":665437,"Delta":24393632},{"NoteNumber":59,"Velocity":62,"Duration":665437,"SoundDuration":665437,"Delta":24393632},{"NoteNumber":74,"Velocity":72,"Duration":322580,"SoundDuration":322580,"Delta":24736489},{"NoteNumber":72,"Velocity":72,"Duration":105820,"SoundDuration":105820,"Delta":25059069},{"NoteNumber":74,"Velocity":66,"Duration":105820,"SoundDuration":105820,"Delta":25164890},{"NoteNumber":76,"Velocity":66,"Duration":119760,"SoundDuration":119760,"Delta":25270710},{"NoteNumber":74,"Velocity":72,"Duration":331491,"SoundDuration":331491,"Delta":25390470},{"NoteNumber":55,"Velocity":47,"Duration":331491,"SoundDuration":331491,"Delta":25390470},{"NoteNumber":59,"Velocity":56,"Duration":331491,"SoundDuration":331491,"Delta":25390470},{"NoteNumber":55,"Velocity":52,"Duration":659838,"SoundDuration":659838,"Delta":25721962},{"NoteNumber":59,"Velocity":62,"Duration":659838,"SoundDuration":659838,"Delta":25721962},{"NoteNumber":71,"Velocity":72,"Duration":320855,"SoundDuration":320855,"Delta":26060945},{"NoteNumber":69,"Velocity":72,"Duration":105263,"SoundDuration":105263,"Delta":26381800},{"NoteNumber":71,"Velocity":63,"Duration":105263,"SoundDuration":105263,"Delta":26487063},{"NoteNumber":72,"Velocity":64,"Duration":117646,"SoundDuration":117646,"Delta":26592327},{"NoteNumber":71,"Velocity":72,"Duration":331491,"SoundDuration":331491,"Delta":26709974},{"NoteNumber":55,"Velocity":47,"Duration":331491,"SoundDuration":331491,"Delta":26709974},{"NoteNumber":59,"Velocity":56,"Duration":331491,"SoundDuration":331491,"Delta":26709974},{"NoteNumber":55,"Velocity":52,"Duration":678312,"SoundDuration":678312,"Delta":27041465},{"NoteNumber":59,"Velocity":62,"Duration":678312,"SoundDuration":678312,"Delta":27041465},{"NoteNumber":74,"Velocity":72,"Duration":346820,"SoundDuration":346820,"Delta":27372957},{"NoteNumber":76,"Velocity":67,"Duration":40983,"SoundDuration":40983,"Delta":27719778},{"NoteNumber":48,"Velocity":52,"Duration":655737,"SoundDuration":655737,"Delta":27719778},{"NoteNumber":60,"Velocity":62,"Duration":655737,"SoundDuration":655737,"Delta":27719778},{"NoteNumber":78,"Velocity":54,"Duration":40983,"SoundDuration":40983,"Delta":27760761},{"NoteNumber":76,"Velocity":66,"Duration":81967,"SoundDuration":81967,"Delta":27801745},{"NoteNumber":74,"Velocity":61,"Duration":163934,"SoundDuration":163934,"Delta":27883712},{"NoteNumber":76,"Velocity":64,"Duration":163934,"SoundDuration":163934,"Delta":28047647},{"NoteNumber":78,"Velocity":69,"Duration":163934,"SoundDuration":163934,"Delta":28211581},{"NoteNumber":79,"Velocity":74,"Duration":163934,"SoundDuration":163934,"Delta":28375516},{"NoteNumber":47,"Velocity":52,"Duration":680810,"SoundDuration":680810,"Delta":28375516},{"NoteNumber":59,"Velocity":62,"Duration":680810,"SoundDuration":680810,"Delta":28375516},{"NoteNumber":78,"Velocity":67,"Duration":163934,"SoundDuration":163934,"Delta":28539450},{"NoteNumber":76,"Velocity":67,"Duration":176470,"SoundDuration":176470,"Delta":28703385},{"NoteNumber":74,"Velocity":67,"Duration":176470,"SoundDuration":176470,"Delta":28879855},{"NoteNumber":72,"Velocity":61,"Duration":165394,"SoundDuration":165394,"Delta":29056326},{"NoteNumber":57,"Velocity":52,"Duration":327359,"SoundDuration":327359,"Delta":29056326},{"NoteNumber":74,"Velocity":59,"Duration":81383,"SoundDuration":81383,"Delta":29221720},{"NoteNumber":72,"Velocity":52,"Duration":80581,"SoundDuration":80581,"Delta":29303104},{"NoteNumber":74,"Velocity":59,"Duration":81859,"SoundDuration":81859,"Delta":29383685},{"NoteNumber":50,"Velocity":44,"Duration":350916,"SoundDuration":350916,"Delta":29383685},{"NoteNumber":72,"Velocity":52,"Duration":83653,"SoundDuration":83653,"Delta":29465545},{"NoteNumber":71,"Velocity":52,"Duration":85579,"SoundDuration":85579,"Delta":29549198},{"NoteNumber":72,"Velocity":52,"Duration":99824,"SoundDuration":99824,"Delta":29634777},{"NoteNumber":71,"Velocity":62,"Duration":340908,"SoundDuration":340908,"Delta":29734602},{"NoteNumber":55,"Velocity":52,"Duration":694066,"SoundDuration":694066,"Delta":29734602},{"NoteNumber":71,"Velocity":52,"Duration":353157,"SoundDuration":353157,"Delta":30075511},{"NoteNumber":69,"Velocity":56,"Duration":164835,"SoundDuration":164835,"Delta":30428668},{"NoteNumber":48,"Velocity":52,"Duration":1006161,"SoundDuration":1006161,"Delta":30428668},{"NoteNumber":72,"Velocity":47,"Duration":164835,"SoundDuration":164835,"Delta":30593504},{"NoteNumber":71,"Velocity":55,"Duration":173410,"SoundDuration":173410,"Delta":30758339},{"NoteNumber":69,"Velocity":52,"Duration":173410,"SoundDuration":173410,"Delta":30931749},{"NoteNumber":76,"Velocity":59,"Duration":329670,"SoundDuration":329670,"Delta":31105160},{"NoteNumber":67,"Velocity":54,"Duration":363636,"SoundDuration":363636,"Delta":31434830},{"NoteNumber":49,"Velocity":47,"Duration":363636,"SoundDuration":363636,"Delta":31434830},{"NoteNumber":67,"Velocity":51,"Duration":342857,"SoundDuration":342857,"Delta":31798467},{"NoteNumber":50,"Velocity":51,"Duration":342857,"SoundDuration":342857,"Delta":31798467},{"NoteNumber":66,"Velocity":44,"Duration":344157,"SoundDuration":344157,"Delta":32141324},{"NoteNumber":38,"Velocity":46,"Duration":344157,"SoundDuration":344157,"Delta":32141324},{"NoteNumber":50,"Velocity":51,"Duration":178531,"SoundDuration":178531,"Delta":32485481},{"NoteNumber":81,"Velocity":51,"Duration":175931,"SoundDuration":175931,"Delta":32664013},{"NoteNumber":54,"Velocity":46,"Duration":173371,"SoundDuration":173371,"Delta":32839944},{"NoteNumber":81,"Velocity":51,"Duration":170846,"SoundDuration":170846,"Delta":33013315},{"NoteNumber":57,"Velocity":47,"Duration":166008,"SoundDuration":166008,"Delta":33184162},{"NoteNumber":81,"Velocity":53,"Duration":162840,"SoundDuration":162840,"Delta":33350170},{"NoteNumber":62,"Velocity":51,"Duration":162339,"SoundDuration":162339,"Delta":33513011},{"NoteNumber":81,"Velocity":55,"Duration":163615,"SoundDuration":163615,"Delta":33675351},{"NoteNumber":66,"Velocity":56,"Duration":164835,"SoundDuration":164835,"Delta":33838966},{"NoteNumber":81,"Velocity":56,"Duration":164835,"SoundDuration":164835,"Delta":34003801},{"NoteNumber":62,"Velocity":50,"Duration":176470,"SoundDuration":176470,"Delta":34168636},{"NoteNumber":81,"Velocity":58,"Duration":176470,"SoundDuration":176470,"Delta":34345107},{"NoteNumber":79,"Velocity":59,"Duration":113636,"SoundDuration":113636,"Delta":34521577},{"NoteNumber":64,"Velocity":58,"Duration":340909,"SoundDuration":340909,"Delta":34521577},{"NoteNumber":81,"Velocity":51,"Duration":113636,"SoundDuration":113636,"Delta":34635214},{"NoteNumber":79,"Velocity":51,"Duration":113636,"SoundDuration":113636,"Delta":34748850},{"NoteNumber":78,"Velocity":60,"Duration":348165,"SoundDuration":348165,"Delta":34862486},{"NoteNumber":62,"Velocity":51,"Duration":348165,"SoundDuration":348165,"Delta":34862486},{"NoteNumber":76,"Velocity":59,"Duration":111731,"SoundDuration":111731,"Delta":35210651},{"NoteNumber":67,"Velocity":58,"Duration":335195,"SoundDuration":335195,"Delta":35210651},{"NoteNumber":78,"Velocity":51,"Duration":111731,"SoundDuration":111731,"Delta":35322383},{"NoteNumber":76,"Velocity":51,"Duration":111731,"SoundDuration":111731,"Delta":35434115},{"NoteNumber":74,"Velocity":59,"Duration":348837,"SoundDuration":348837,"Delta":35545847},{"NoteNumber":66,"Velocity":52,"Duration":348837,"SoundDuration":348837,"Delta":35545847},{"NoteNumber":73,"Velocity":60,"Duration":111731,"SoundDuration":111731,"Delta":35894684},{"NoteNumber":64,"Velocity":57,"Duration":335195,"SoundDuration":335195,"Delta":35894684},{"NoteNumber":71,"Velocity":51,"Duration":111731,"SoundDuration":111731,"Delta":36006416},{"NoteNumber":69,"Velocity":51,"Duration":111731,"SoundDuration":111731,"Delta":36118147},{"NoteNumber":74,"Velocity":61,"Duration":341616,"SoundDuration":341616,"Delta":36229879},{"NoteNumber":66,"Velocity":51,"Duration":341616,"SoundDuration":341616,"Delta":36229879},{"NoteNumber":45,"Velocity":51,"Duration":178531,"SoundDuration":178531,"Delta":36571496},{"NoteNumber":79,"Velocity":54,"Duration":175931,"SoundDuration":175931,"Delta":36750028},{"NoteNumber":49,"Velocity":46,"Duration":173371,"SoundDuration":173371,"Delta":36925959},{"NoteNumber":79,"Velocity":56,"Duration":170846,"SoundDuration":170846,"Delta":37099330},{"NoteNumber":52,"Velocity":47,"Duration":166008,"SoundDuration":166008,"Delta":37270177},{"NoteNumber":79,"Velocity":59,"Duration":162840,"SoundDuration":162840,"Delta":37436185},{"NoteNumber":57,"Velocity":51,"Duration":162339,"SoundDuration":162339,"Delta":37599026},{"NoteNumber":79,"Velocity":62,"Duration":163615,"SoundDuration":163615,"Delta":37761366},{"NoteNumber":61,"Velocity":56,"Duration":164835,"SoundDuration":164835,"Delta":37924981},{"NoteNumber":79,"Velocity":65,"Duration":164835,"SoundDuration":164835,"Delta":38089816},{"NoteNumber":64,"Velocity":50,"Duration":176470,"SoundDuration":176470,"Delta":38254651},{"NoteNumber":79,"Velocity":67,"Duration":176470,"SoundDuration":176470,"Delta":38431122},{"NoteNumber":78,"Velocity":71,"Duration":113636,"SoundDuration":113636,"Delta":38607592},{"NoteNumber":62,"Velocity":58,"Duration":689074,"SoundDuration":689074,"Delta":38607592},{"NoteNumber":76,"Velocity":62,"Duration":113636,"SoundDuration":113636,"Delta":38721229},{"NoteNumber":74,"Velocity":56,"Duration":113636,"SoundDuration":113636,"Delta":38834865},{"NoteNumber":73,"Velocity":60,"Duration":115606,"SoundDuration":115606,"Delta":38948501},{"NoteNumber":71,"Velocity":55,"Duration":116278,"SoundDuration":116278,"Delta":39064108},{"NoteNumber":69,"Velocity":52,"Duration":116279,"SoundDuration":116279,"Delta":39180387},{"NoteNumber":76,"Velocity":59,"Duration":111731,"SoundDuration":111731,"Delta":39296666},{"NoteNumber":62,"Velocity":58,"Duration":335195,"SoundDuration":335195,"Delta":39296666},{"NoteNumber":78,"Velocity":56,"Duration":111731,"SoundDuration":111731,"Delta":39408398},{"NoteNumber":76,"Velocity":56,"Duration":111731,"SoundDuration":111731,"Delta":39520130},{"NoteNumber":78,"Velocity":59,"Duration":87209,"SoundDuration":87209,"Delta":39631862},{"NoteNumber":61,"Velocity":52,"Duration":348837,"SoundDuration":348837,"Delta":39631862},{"NoteNumber":76,"Velocity":53,"Duration":87209,"SoundDuration":87209,"Delta":39719071},{"NoteNumber":74,"Velocity":59,"Duration":87209,"SoundDuration":87209,"Delta":39806280},{"NoteNumber":76,"Velocity":54,"Duration":87209,"SoundDuration":87209,"Delta":39893490},{"NoteNumber":74,"Velocity":59,"Duration":368098,"SoundDuration":368098,"Delta":39980699},{"NoteNumber":62,"Velocity":58,"Duration":368098,"SoundDuration":368098,"Delta":39980699},{"NoteNumber":86,"Velocity":62,"Duration":340909,"SoundDuration":340909,"Delta":40348797},{"NoteNumber":59,"Velocity":55,"Duration":170454,"SoundDuration":170454,"Delta":40348797},{"NoteNumber":62,"Velocity":44,"Duration":170454,"SoundDuration":170454,"Delta":40519251},{"NoteNumber":85,"Velocity":61,"Duration":340908,"SoundDuration":340908,"Delta":40689706},{"NoteNumber":57,"Velocity":54,"Duration":170454,"SoundDuration":170454,"Delta":40689706},{"NoteNumber":62,"Velocity":50,"Duration":170454,"SoundDuration":170454,"Delta":40860160},{"NoteNumber":83,"Velocity":59,"Duration":357143,"SoundDuration":357143,"Delta":41030615},{"NoteNumber":55,"Velocity":55,"Duration":178571,"SoundDuration":178571,"Delta":41030615},{"NoteNumber":62,"Velocity":47,"Duration":178571,"SoundDuration":178571,"Delta":41209186},{"NoteNumber":81,"Velocity":63,"Duration":337078,"SoundDuration":337078,"Delta":41387758},{"NoteNumber":54,"Velocity":55,"Duration":337078,"SoundDuration":337078,"Delta":41387758},{"NoteNumber":83,"Velocity":70,"Duration":108108,"SoundDuration":108108,"Delta":41724836},{"NoteNumber":55,"Velocity":51,"Duration":324324,"SoundDuration":324324,"Delta":41724836},{"NoteNumber":81,"Velocity":65,"Duration":108108,"SoundDuration":108108,"Delta":41832944},{"NoteNumber":79,"Velocity":65,"Duration":108108,"SoundDuration":108108,"Delta":41941053},{"NoteNumber":78,"Velocity":75,"Duration":335195,"SoundDuration":335195,"Delta":42049161},{"NoteNumber":57,"Velocity":57,"Duration":335195,"SoundDuration":335195,"Delta":42049161},{"NoteNumber":76,"Velocity":73,"Duration":72727,"SoundDuration":72727,"Delta":42384356},{"NoteNumber":45,"Velocity":55,"Duration":363636,"SoundDuration":363636,"Delta":42384356},{"NoteNumber":78,"Velocity":66,"Duration":72727,"SoundDuration":72727,"Delta":42457084},{"NoteNumber":76,"Velocity":67,"Duration":72727,"SoundDuration":72727,"Delta":42529811},{"NoteNumber":74,"Velocity":67,"Duration":72727,"SoundDuration":72727,"Delta":42602538},{"NoteNumber":76,"Velocity":67,"Duration":72727,"SoundDuration":72727,"Delta":42675265},{"NoteNumber":74,"Velocity":76,"Duration":743211,"SoundDuration":743211,"Delta":42747993},{"NoteNumber":50,"Velocity":59,"Duration":182926,"SoundDuration":182926,"Delta":42747993},{"NoteNumber":45,"Velocity":54,"Duration":188679,"SoundDuration":188679,"Delta":43113846},{"NoteNumber":38,"Velocity":50,"Duration":218977,"SoundDuration":218977,"Delta":43491205},{"NoteNumber":74,"Velocity":50,"Duration":263622,"SoundDuration":263622,"Delta":43929161},{"NoteNumber":78,"Velocity":43,"Duration":93167,"SoundDuration":93167,"Delta":44192783},{"NoteNumber":74,"Velocity":50,"Duration":355029,"SoundDuration":355029,"Delta":44285951},{"NoteNumber":62,"Velocity":50,"Duration":1395667,"SoundDuration":1395667,"Delta":44285951},{"NoteNumber":66,"Velocity":43,"Duration":344534,"SoundDuration":344534,"Delta":44640980},{"NoteNumber":84,"Velocity":50,"Duration":175042,"SoundDuration":175042,"Delta":44810472},{"NoteNumber":69,"Velocity":43,"Duration":344240,"SoundDuration":344240,"Delta":44985514},{"NoteNumber":78,"Velocity":50,"Duration":171494,"SoundDuration":171494,"Delta":45158260},{"NoteNumber":72,"Velocity":43,"Duration":351863,"SoundDuration":351863,"Delta":45329755},{"NoteNumber":81,"Velocity":50,"Duration":181818,"SoundDuration":181818,"Delta":45499800},{"NoteNumber":71,"Velocity":50,"Duration":340909,"SoundDuration":340909,"Delta":45681619},{"NoteNumber":62,"Velocity":50,"Duration":1385885,"SoundDuration":1385885,"Delta":45681619},{"NoteNumber":79,"Velocity":50,"Duration":170454,"SoundDuration":170454,"Delta":45852073},{"NoteNumber":83,"Velocity":54,"Duration":170454,"SoundDuration":170454,"Delta":46022528},{"NoteNumber":67,"Velocity":46,"Duration":346924,"SoundDuration":346924,"Delta":46022528},{"NoteNumber":74,"Velocity":50,"Duration":176470,"SoundDuration":176470,"Delta":46192982},{"NoteNumber":72,"Velocity":54,"Duration":113636,"SoundDuration":113636,"Delta":46369453},{"NoteNumber":69,"Velocity":46,"Duration":340909,"SoundDuration":340909,"Delta":46369453},{"NoteNumber":74,"Velocity":45,"Duration":113636,"SoundDuration":113636,"Delta":46483089},{"NoteNumber":76,"Velocity":45,"Duration":113636,"SoundDuration":113636,"Delta":46596725},{"NoteNumber":69,"Velocity":52,"Duration":113636,"SoundDuration":113636,"Delta":46710362},{"NoteNumber":66,"Velocity":46,"Duration":357142,"SoundDuration":357142,"Delta":46710362},{"NoteNumber":71,"Velocity":44,"Duration":113636,"SoundDuration":113636,"Delta":46823998},{"NoteNumber":72,"Velocity":44,"Duration":129870,"SoundDuration":129870,"Delta":46937634},{"NoteNumber":71,"Velocity":52,"Duration":113636,"SoundDuration":113636,"Delta":47067505},{"NoteNumber":62,"Velocity":50,"Duration":1038122,"SoundDuration":1038122,"Delta":47067505},{"NoteNumber":67,"Velocity":50,"Duration":340909,"SoundDuration":340909,"Delta":47067505},{"NoteNumber":72,"Velocity":45,"Duration":113636,"SoundDuration":113636,"Delta":47181141},{"NoteNumber":74,"Velocity":45,"Duration":113636,"SoundDuration":113636,"Delta":47294777},{"NoteNumber":72,"Velocity":52,"Duration":113636,"SoundDuration":113636,"Delta":47408414},{"NoteNumber":69,"Velocity":46,"Duration":356304,"SoundDuration":356304,"Delta":47408414},{"NoteNumber":74,"Velocity":46,"Duration":113636,"SoundDuration":113636,"Delta":47522050},{"NoteNumber":76,"Velocity":46,"Duration":129032,"SoundDuration":129032,"Delta":47635686},{"NoteNumber":74,"Velocity":46,"Duration":340909,"SoundDuration":340909,"Delta":47764719},{"NoteNumber":71,"Velocity":50,"Duration":340909,"SoundDuration":340909,"Delta":47764719},{"NoteNumber":74,"Velocity":55,"Duration":265995,"SoundDuration":265995,"Delta":48105628},{"NoteNumber":79,"Velocity":52,"Duration":95541,"SoundDuration":95541,"Delta":48371623},{"NoteNumber":74,"Velocity":58,"Duration":341148,"SoundDuration":341148,"Delta":48467165},{"NoteNumber":66,"Velocity":48,"Duration":335807,"SoundDuration":335807,"Delta":48808314},{"NoteNumber":50,"Velocity":45,"Duration":168659,"SoundDuration":168659,"Delta":48808314},{"NoteNumber":62,"Velocity":39,"Duration":167147,"SoundDuration":167147,"Delta":48976973},{"NoteNumber":67,"Velocity":50,"Duration":333333,"SoundDuration":333333,"Delta":49144121},{"NoteNumber":52,"Velocity":48,"Duration":166666,"SoundDuration":166666,"Delta":49144121},{"NoteNumber":62,"Velocity":41,"Duration":166666,"SoundDuration":166666,"Delta":49310788},{"NoteNumber":69,"Velocity":53,"Duration":346820,"SoundDuration":346820,"Delta":49477454},{"NoteNumber":54,"Velocity":49,"Duration":173410,"SoundDuration":173410,"Delta":49477454},{"NoteNumber":62,"Velocity":43,"Duration":173410,"SoundDuration":173410,"Delta":49650865},{"NoteNumber":71,"Velocity":55,"Duration":340909,"SoundDuration":340909,"Delta":49824275},{"NoteNumber":55,"Velocity":51,"Duration":170454,"SoundDuration":170454,"Delta":49824275},{"NoteNumber":62,"Velocity":45,"Duration":170454,"SoundDuration":170454,"Delta":49994730},{"NoteNumber":72,"Velocity":56,"Duration":66298,"SoundDuration":66298,"Delta":50165184},{"NoteNumber":57,"Velocity":53,"Duration":165745,"SoundDuration":165745,"Delta":50165184},{"NoteNumber":74,"Velocity":60,"Duration":66298,"SoundDuration":66298,"Delta":50231483},{"NoteNumber":72,"Velocity":50,"Duration":66298,"SoundDuration":66298,"Delta":50297781},{"NoteNumber":62,"Velocity":45,"Duration":165745,"SoundDuration":165745,"Delta":50330930},{"NoteNumber":71,"Velocity":52,"Duration":66298,"SoundDuration":66298,"Delta":50364079},{"NoteNumber":72,"Velocity":56,"Duration":66298,"SoundDuration":66298,"Delta":50430378},{"NoteNumber":74,"Velocity":59,"Duration":344827,"SoundDuration":344827,"Delta":50496676},{"NoteNumber":59,"Velocity":50,"Duration":344827,"SoundDuration":344827,"Delta":50496676},{"NoteNumber":79,"Velocity":62,"Duration":261516,"SoundDuration":261516,"Delta":50841503},{"NoteNumber":83,"Velocity":58,"Duration":92024,"SoundDuration":92024,"Delta":51103019},{"NoteNumber":79,"Velocity":65,"Duration":338014,"SoundDuration":338014,"Delta":51195044},{"NoteNumber":71,"Velocity":57,"Duration":342012,"SoundDuration":342012,"Delta":51533059},{"NoteNumber":43,"Velocity":51,"Duration":171822,"SoundDuration":171822,"Delta":51533059},{"NoteNumber":55,"Velocity":44,"Duration":170190,"SoundDuration":170190,"Delta":51704881},{"NoteNumber":72,"Velocity":60,"Duration":336026,"SoundDuration":336026,"Delta":51875071},{"NoteNumber":45,"Velocity":55,"Duration":168801,"SoundDuration":168801,"Delta":51875071},{"NoteNumber":55,"Velocity":47,"Duration":167225,"SoundDuration":167225,"Delta":52043873},{"NoteNumber":74,"Velocity":63,"Duration":333333,"SoundDuration":333333,"Delta":52211098},{"NoteNumber":47,"Velocity":56,"Duration":166666,"SoundDuration":166666,"Delta":52211098},{"NoteNumber":55,"Velocity":49,"Duration":166666,"SoundDuration":166666,"Delta":52377765},{"NoteNumber":76,"Velocity":67,"Duration":348837,"SoundDuration":348837,"Delta":52544432},{"NoteNumber":48,"Velocity":58,"Duration":174418,"SoundDuration":174418,"Delta":52544432},{"NoteNumber":55,"Velocity":51,"Duration":174418,"SoundDuration":174418,"Delta":52718850},{"NoteNumber":77,"Velocity":61,"Duration":65573,"SoundDuration":65573,"Delta":52893269},{"NoteNumber":50,"Velocity":60,"Duration":163934,"SoundDuration":163934,"Delta":52893269},{"NoteNumber":79,"Velocity":66,"Duration":65573,"SoundDuration":65573,"Delta":52958843},{"NoteNumber":77,"Velocity":58,"Duration":65573,"SoundDuration":65573,"Delta":53024416},{"NoteNumber":55,"Velocity":51,"Duration":163934,"SoundDuration":163934,"Delta":53057203},{"NoteNumber":76,"Velocity":60,"Duration":65573,"SoundDuration":65573,"Delta":53089990},{"NoteNumber":77,"Velocity":63,"Duration":65573,"SoundDuration":65573,"Delta":53155564},{"NoteNumber":79,"Velocity":66,"Duration":335195,"SoundDuration":335195,"Delta":53221138},{"NoteNumber":52,"Velocity":57,"Duration":335195,"SoundDuration":335195,"Delta":53221138},{"NoteNumber":76,"Velocity":62,"Duration":259622,"SoundDuration":259622,"Delta":53556333},{"NoteNumber":60,"Velocity":52,"Duration":351646,"SoundDuration":351646,"Delta":53556333},{"NoteNumber":79,"Velocity":55,"Duration":92024,"SoundDuration":92024,"Delta":53815956},{"NoteNumber":74,"Velocity":62,"Duration":335195,"SoundDuration":335195,"Delta":53907980},{"NoteNumber":59,"Velocity":57,"Duration":335195,"SoundDuration":335195,"Delta":53907980},{"NoteNumber":72,"Velocity":58,"Duration":110680,"SoundDuration":110680,"Delta":54243176},{"NoteNumber":57,"Velocity":49,"Duration":325734,"SoundDuration":325734,"Delta":54243176},{"NoteNumber":74,"Velocity":53,"Duration":107526,"SoundDuration":107526,"Delta":54353856},{"NoteNumber":72,"Velocity":53,"Duration":107526,"SoundDuration":107526,"Delta":54461383},{"NoteNumber":71,"Velocity":58,"Duration":335195,"SoundDuration":335195,"Delta":54568910},{"NoteNumber":55,"Velocity":54,"Duration":335195,"SoundDuration":335195,"Delta":54568910},{"NoteNumber":74,"Velocity":58,"Duration":110680,"SoundDuration":110680,"Delta":54904105},{"NoteNumber":59,"Velocity":50,"Duration":325734,"SoundDuration":325734,"Delta":54904105},{"NoteNumber":72,"Velocity":52,"Duration":107526,"SoundDuration":107526,"Delta":55014786},{"NoteNumber":71,"Velocity":52,"Duration":107526,"SoundDuration":107526,"Delta":55122313},{"NoteNumber":69,"Velocity":57,"Duration":335195,"SoundDuration":335195,"Delta":55229840},{"NoteNumber":60,"Velocity":54,"Duration":1026614,"SoundDuration":1026614,"Delta":55229840},{"NoteNumber":72,"Velocity":54,"Duration":110680,"SoundDuration":110680,"Delta":55565035},{"NoteNumber":71,"Velocity":49,"Duration":107526,"SoundDuration":107526,"Delta":55675716},{"NoteNumber":69,"Velocity":49,"Duration":134228,"SoundDuration":134228,"Delta":55783243},{"NoteNumber":76,"Velocity":56,"Duration":338982,"SoundDuration":338982,"Delta":55917471},{"NoteNumber":67,"Velocity":47,"Duration":182926,"SoundDuration":182926,"Delta":56256454},{"NoteNumber":61,"Velocity":48,"Duration":182926,"SoundDuration":182926,"Delta":56256454},{"NoteNumber":67,"Velocity":58,"Duration":90361,"SoundDuration":90361,"Delta":56622307},{"NoteNumber":62,"Velocity":51,"Duration":180723,"SoundDuration":180723,"Delta":56622307},{"NoteNumber":69,"Velocity":49,"Duration":90361,"SoundDuration":90361,"Delta":56712669},{"NoteNumber":67,"Velocity":49,"Duration":180723,"SoundDuration":180723,"Delta":56803030},{"NoteNumber":66,"Velocity":55,"Duration":387096,"SoundDuration":387096,"Delta":56983753},{"NoteNumber":57,"Velocity":46,"Duration":193548,"SoundDuration":193548,"Delta":56983753},{"NoteNumber":50,"Velocity":46,"Duration":193548,"SoundDuration":193548,"Delta":57370850},{"NoteNumber":74,"Velocity":72,"Duration":250000,"SoundDuration":250000,"Delta":57757947},{"NoteNumber":79,"Velocity":66,"Duration":83333,"SoundDuration":83333,"Delta":58007947},{"NoteNumber":74,"Velocity":72,"Duration":352941,"SoundDuration":352941,"Delta":58091281},{"NoteNumber":55,"Velocity":62,"Duration":686274,"SoundDuration":686274,"Delta":58091281},{"NoteNumber":59,"Velocity":62,"Duration":686274,"SoundDuration":686274,"Delta":58091281},{"NoteNumber":71,"Velocity":72,"Duration":250000,"SoundDuration":250000,"Delta":58444222},{"NoteNumber":74,"Velocity":67,"Duration":83333,"SoundDuration":83333,"Delta":58694222},{"NoteNumber":71,"Velocity":72,"Duration":333333,"SoundDuration":333333,"Delta":58777555},{"NoteNumber":67,"Velocity":72,"Duration":250000,"SoundDuration":250000,"Delta":59110889},{"NoteNumber":71,"Velocity":66,"Duration":83333,"SoundDuration":83333,"Delta":59360889},{"NoteNumber":67,"Velocity":72,"Duration":690773,"SoundDuration":690773,"Delta":59444222},{"NoteNumber":31,"Velocity":56,"Duration":331491,"SoundDuration":331491,"Delta":59803504},{"NoteNumber":43,"Velocity":67,"Duration":331491,"SoundDuration":331491,"Delta":59803504},{"NoteNumber":31,"Velocity":62,"Duration":662006,"SoundDuration":662006,"Delta":60134995},{"NoteNumber":43,"Velocity":70,"Duration":662006,"SoundDuration":662006,"Delta":60134995},{"NoteNumber":74,"Velocity":72,"Duration":319149,"SoundDuration":319149,"Delta":60477852},{"NoteNumber":72,"Velocity":72,"Duration":105820,"SoundDuration":105820,"Delta":60797001},{"NoteNumber":74,"Velocity":66,"Duration":105820,"SoundDuration":105820,"Delta":60902821},{"NoteNumber":76,"Velocity":66,"Duration":119760,"SoundDuration":119760,"Delta":61008642},{"NoteNumber":74,"Velocity":72,"Duration":331491,"SoundDuration":331491,"Delta":61128402},{"NoteNumber":55,"Velocity":47,"Duration":331491,"SoundDuration":331491,"Delta":61128402},{"NoteNumber":59,"Velocity":56,"Duration":331491,"SoundDuration":331491,"Delta":61128402},{"NoteNumber":55,"Velocity":52,"Duration":658132,"SoundDuration":658132,"Delta":61459894},{"NoteNumber":59,"Velocity":62,"Duration":658132,"SoundDuration":658132,"Delta":61459894},{"NoteNumber":71,"Velocity":72,"Duration":319149,"SoundDuration":319149,"Delta":61798877},{"NoteNumber":69,"Velocity":72,"Duration":105263,"SoundDuration":105263,"Delta":62118026},{"NoteNumber":71,"Velocity":63,"Duration":105263,"SoundDuration":105263,"Delta":62223289},{"NoteNumber":72,"Velocity":64,"Duration":117647,"SoundDuration":117647,"Delta":62328552},{"NoteNumber":71,"Velocity":72,"Duration":331491,"SoundDuration":331491,"Delta":62446199},{"NoteNumber":55,"Velocity":47,"Duration":331491,"SoundDuration":331491,"Delta":62446199},{"NoteNumber":59,"Velocity":56,"Duration":331491,"SoundDuration":331491,"Delta":62446199},{"NoteNumber":55,"Velocity":52,"Duration":678312,"SoundDuration":678312,"Delta":62777690},{"NoteNumber":59,"Velocity":62,"Duration":678312,"SoundDuration":678312,"Delta":62777690},{"NoteNumber":74,"Velocity":72,"Duration":346821,"SoundDuration":346821,"Delta":63109182},{"NoteNumber":76,"Velocity":67,"Duration":40983,"SoundDuration":40983,"Delta":63456003},{"NoteNumber":48,"Velocity":52,"Duration":655737,"SoundDuration":655737,"Delta":63456003},{"NoteNumber":60,"Velocity":62,"Duration":655737,"SoundDuration":655737,"Delta":63456003},{"NoteNumber":78,"Velocity":54,"Duration":40983,"SoundDuration":40983,"Delta":63496986},{"NoteNumber":76,"Velocity":66,"Duration":81967,"SoundDuration":81967,"Delta":63537970},{"NoteNumber":74,"Velocity":61,"Duration":163934,"SoundDuration":163934,"Delta":63619937},{"NoteNumber":76,"Velocity":64,"Duration":163934,"SoundDuration":163934,"Delta":63783872},{"NoteNumber":78,"Velocity":69,"Duration":163934,"SoundDuration":163934,"Delta":63947806},{"NoteNumber":79,"Velocity":74,"Duration":163934,"SoundDuration":163934,"Delta":64111741},{"NoteNumber":47,"Velocity":52,"Duration":680810,"SoundDuration":680810,"Delta":64111741},{"NoteNumber":59,"Velocity":62,"Duration":680810,"SoundDuration":680810,"Delta":64111741},{"NoteNumber":78,"Velocity":67,"Duration":163934,"SoundDuration":163934,"Delta":64275675},{"NoteNumber":76,"Velocity":67,"Duration":176470,"SoundDuration":176470,"Delta":64439610},{"NoteNumber":74,"Velocity":67,"Duration":176470,"SoundDuration":176470,"Delta":64616080},{"NoteNumber":72,"Velocity":61,"Duration":165394,"SoundDuration":165394,"Delta":64792551},{"NoteNumber":57,"Velocity":52,"Duration":327359,"SoundDuration":327359,"Delta":64792551},{"NoteNumber":74,"Velocity":59,"Duration":81383,"SoundDuration":81383,"Delta":64957945},{"NoteNumber":72,"Velocity":52,"Duration":80581,"SoundDuration":80581,"Delta":65039329},{"NoteNumber":74,"Velocity":59,"Duration":81859,"SoundDuration":81859,"Delta":65119910},{"NoteNumber":50,"Velocity":44,"Duration":350916,"SoundDuration":350916,"Delta":65119910},{"NoteNumber":72,"Velocity":52,"Duration":83653,"SoundDuration":83653,"Delta":65201770},{"NoteNumber":71,"Velocity":52,"Duration":85579,"SoundDuration":85579,"Delta":65285423},{"NoteNumber":72,"Velocity":52,"Duration":99824,"SoundDuration":99824,"Delta":65371003},{"NoteNumber":71,"Velocity":62,"Duration":340908,"SoundDuration":340908,"Delta":65470827},{"NoteNumber":55,"Velocity":52,"Duration":694066,"SoundDuration":694066,"Delta":65470827},{"NoteNumber":71,"Velocity":52,"Duration":353157,"SoundDuration":353157,"Delta":65811736},{"NoteNumber":69,"Velocity":56,"Duration":164835,"SoundDuration":164835,"Delta":66164894},{"NoteNumber":60,"Velocity":52,"Duration":1006162,"SoundDuration":1006162,"Delta":66164894},{"NoteNumber":72,"Velocity":47,"Duration":164835,"SoundDuration":164835,"Delta":66329729},{"NoteNumber":71,"Velocity":55,"Duration":173410,"SoundDuration":173410,"Delta":66494564},{"NoteNumber":69,"Velocity":52,"Duration":173410,"SoundDuration":173410,"Delta":66667975},{"NoteNumber":76,"Velocity":59,"Duration":329670,"SoundDuration":329670,"Delta":66841385},{"NoteNumber":67,"Velocity":54,"Duration":363636,"SoundDuration":363636,"Delta":67171056},{"NoteNumber":61,"Velocity":47,"Duration":363636,"SoundDuration":363636,"Delta":67171056},{"NoteNumber":67,"Velocity":51,"Duration":342856,"SoundDuration":342856,"Delta":67534692},{"NoteNumber":62,"Velocity":51,"Duration":342856,"SoundDuration":342856,"Delta":67534692},{"NoteNumber":66,"Velocity":44,"Duration":344157,"SoundDuration":344157,"Delta":67877549},{"NoteNumber":50,"Velocity":46,"Duration":344157,"SoundDuration":344157,"Delta":67877549},{"NoteNumber":55,"Velocity":51,"Duration":178531,"SoundDuration":178531,"Delta":68221706},{"NoteNumber":86,"Velocity":56,"Duration":175931,"SoundDuration":175931,"Delta":68400238},{"NoteNumber":59,"Velocity":46,"Duration":173371,"SoundDuration":173371,"Delta":68576169},{"NoteNumber":86,"Velocity":56,"Duration":170846,"SoundDuration":170846,"Delta":68749541},{"NoteNumber":62,"Velocity":47,"Duration":166008,"SoundDuration":166008,"Delta":68920387},{"NoteNumber":86,"Velocity":58,"Duration":162840,"SoundDuration":162840,"Delta":69086396},{"NoteNumber":67,"Velocity":51,"Duration":162339,"SoundDuration":162339,"Delta":69249237},{"NoteNumber":86,"Velocity":60,"Duration":163615,"SoundDuration":163615,"Delta":69411576},{"NoteNumber":71,"Velocity":56,"Duration":164835,"SoundDuration":164835,"Delta":69575191},{"NoteNumber":86,"Velocity":61,"Duration":164835,"SoundDuration":164835,"Delta":69740026},{"NoteNumber":67,"Velocity":50,"Duration":176470,"SoundDuration":176470,"Delta":69904862},{"NoteNumber":86,"Velocity":63,"Duration":176470,"SoundDuration":176470,"Delta":70081332},{"NoteNumber":84,"Velocity":64,"Duration":113636,"SoundDuration":113636,"Delta":70257803},{"NoteNumber":69,"Velocity":58,"Duration":340908,"SoundDuration":340908,"Delta":70257803},{"NoteNumber":86,"Velocity":56,"Duration":113636,"SoundDuration":113636,"Delta":70371439},{"NoteNumber":84,"Velocity":56,"Duration":113636,"SoundDuration":113636,"Delta":70485075},{"NoteNumber":83,"Velocity":66,"Duration":348164,"SoundDuration":348164,"Delta":70598712},{"NoteNumber":67,"Velocity":51,"Duration":348164,"SoundDuration":348164,"Delta":70598712},{"NoteNumber":81,"Velocity":59,"Duration":111731,"SoundDuration":111731,"Delta":70946877},{"NoteNumber":72,"Velocity":58,"Duration":335195,"SoundDuration":335195,"Delta":70946877},{"NoteNumber":83,"Velocity":51,"Duration":111731,"SoundDuration":111731,"Delta":71058608},{"NoteNumber":81,"Velocity":51,"Duration":111731,"SoundDuration":111731,"Delta":71170340},{"NoteNumber":79,"Velocity":59,"Duration":348837,"SoundDuration":348837,"Delta":71282072},{"NoteNumber":71,"Velocity":52,"Duration":348837,"SoundDuration":348837,"Delta":71282072},{"NoteNumber":78,"Velocity":60,"Duration":111731,"SoundDuration":111731,"Delta":71630909},{"NoteNumber":69,"Velocity":57,"Duration":335195,"SoundDuration":335195,"Delta":71630909},{"NoteNumber":76,"Velocity":51,"Duration":111731,"SoundDuration":111731,"Delta":71742641},{"NoteNumber":74,"Velocity":51,"Duration":111731,"SoundDuration":111731,"Delta":71854373},{"NoteNumber":79,"Velocity":61,"Duration":341616,"SoundDuration":341616,"Delta":71966105},{"NoteNumber":71,"Velocity":51,"Duration":341616,"SoundDuration":341616,"Delta":71966105},{"NoteNumber":50,"Velocity":69,"Duration":178531,"SoundDuration":178531,"Delta":72307721},{"NoteNumber":84,"Velocity":67,"Duration":175931,"SoundDuration":175931,"Delta":72486253},{"NoteNumber":54,"Velocity":59,"Duration":173371,"SoundDuration":173371,"Delta":72662184},{"NoteNumber":84,"Velocity":68,"Duration":170846,"SoundDuration":170846,"Delta":72835556},{"NoteNumber":57,"Velocity":72,"Duration":166008,"SoundDuration":166008,"Delta":73006402},{"NoteNumber":84,"Velocity":70,"Duration":162840,"SoundDuration":162840,"Delta":73172411},{"NoteNumber":62,"Velocity":62,"Duration":162339,"SoundDuration":162339,"Delta":73335252},{"NoteNumber":84,"Velocity":72,"Duration":163615,"SoundDuration":163615,"Delta":73497591},{"NoteNumber":66,"Velocity":71,"Duration":164835,"SoundDuration":164835,"Delta":73661206},{"NoteNumber":84,"Velocity":73,"Duration":164835,"SoundDuration":164835,"Delta":73826041},{"NoteNumber":69,"Velocity":65,"Duration":176470,"SoundDuration":176470,"Delta":73990877},{"NoteNumber":84,"Velocity":68,"Duration":176470,"SoundDuration":176470,"Delta":74167347},{"NoteNumber":83,"Velocity":74,"Duration":113636,"SoundDuration":113636,"Delta":74343818},{"NoteNumber":67,"Velocity":80,"Duration":689073,"SoundDuration":689073,"Delta":74343818},{"NoteNumber":81,"Velocity":65,"Duration":113636,"SoundDuration":113636,"Delta":74457454},{"NoteNumber":79,"Velocity":65,"Duration":113636,"SoundDuration":113636,"Delta":74571090},{"NoteNumber":78,"Velocity":69,"Duration":115606,"SoundDuration":115606,"Delta":74684727},{"NoteNumber":76,"Velocity":59,"Duration":116279,"SoundDuration":116279,"Delta":74800334},{"NoteNumber":74,"Velocity":59,"Duration":116278,"SoundDuration":116278,"Delta":74916613},{"NoteNumber":81,"Velocity":65,"Duration":111731,"SoundDuration":111731,"Delta":75032892},{"NoteNumber":62,"Velocity":59,"Duration":684032,"SoundDuration":684032,"Delta":75032892},{"NoteNumber":67,"Velocity":67,"Duration":335195,"SoundDuration":335195,"Delta":75032892},{"NoteNumber":83,"Velocity":56,"Duration":111731,"SoundDuration":111731,"Delta":75144623},{"NoteNumber":81,"Velocity":56,"Duration":111731,"SoundDuration":111731,"Delta":75256355},{"NoteNumber":83,"Velocity":59,"Duration":87209,"SoundDuration":87209,"Delta":75368087},{"NoteNumber":66,"Velocity":52,"Duration":348837,"SoundDuration":348837,"Delta":75368087},{"NoteNumber":81,"Velocity":53,"Duration":87209,"SoundDuration":87209,"Delta":75455296},{"NoteNumber":79,"Velocity":59,"Duration":87209,"SoundDuration":87209,"Delta":75542506},{"NoteNumber":81,"Velocity":54,"Duration":87209,"SoundDuration":87209,"Delta":75629715},{"NoteNumber":79,"Velocity":59,"Duration":368098,"SoundDuration":368098,"Delta":75716924},{"NoteNumber":67,"Velocity":58,"Duration":368098,"SoundDuration":368098,"Delta":75716924},{"NoteNumber":79,"Velocity":68,"Duration":340908,"SoundDuration":340908,"Delta":76085022},{"NoteNumber":64,"Velocity":55,"Duration":170454,"SoundDuration":170454,"Delta":76085022},{"NoteNumber":67,"Velocity":44,"Duration":170454,"SoundDuration":170454,"Delta":76255477},{"NoteNumber":78,"Velocity":63,"Duration":340909,"SoundDuration":340909,"Delta":76425931},{"NoteNumber":62,"Velocity":54,"Duration":170454,"SoundDuration":170454,"Delta":76425931},{"NoteNumber":67,"Velocity":50,"Duration":170454,"SoundDuration":170454,"Delta":76596386},{"NoteNumber":76,"Velocity":63,"Duration":357142,"SoundDuration":357142,"Delta":76766840},{"NoteNumber":60,"Velocity":55,"Duration":178571,"SoundDuration":178571,"Delta":76766840},{"NoteNumber":67,"Velocity":47,"Duration":178571,"SoundDuration":178571,"Delta":76945412},{"NoteNumber":74,"Velocity":70,"Duration":337078,"SoundDuration":337078,"Delta":77123983},{"NoteNumber":59,"Velocity":55,"Duration":337078,"SoundDuration":337078,"Delta":77123983},{"NoteNumber":76,"Velocity":70,"Duration":108108,"SoundDuration":108108,"Delta":77461062},{"NoteNumber":60,"Velocity":51,"Duration":324324,"SoundDuration":324324,"Delta":77461062},{"NoteNumber":74,"Velocity":65,"Duration":108108,"SoundDuration":108108,"Delta":77569170},{"NoteNumber":72,"Velocity":65,"Duration":108108,"SoundDuration":108108,"Delta":77677278},{"NoteNumber":71,"Velocity":73,"Duration":335195,"SoundDuration":335195,"Delta":77785386},{"NoteNumber":62,"Velocity":57,"Duration":335195,"SoundDuration":335195,"Delta":77785386},{"NoteNumber":69,"Velocity":73,"Duration":72727,"SoundDuration":72727,"Delta":78120582},{"NoteNumber":50,"Velocity":55,"Duration":363636,"SoundDuration":363636,"Delta":78120582},{"NoteNumber":71,"Velocity":66,"Duration":72727,"SoundDuration":72727,"Delta":78193309},{"NoteNumber":69,"Velocity":67,"Duration":72727,"SoundDuration":72727,"Delta":78266036},{"NoteNumber":67,"Velocity":67,"Duration":72727,"SoundDuration":72727,"Delta":78338763},{"NoteNumber":69,"Velocity":67,"Duration":72727,"SoundDuration":72727,"Delta":78411491},{"NoteNumber":67,"Velocity":76,"Duration":422534,"SoundDuration":422534,"Delta":78484218},{"NoteNumber":55,"Velocity":59,"Duration":422534,"SoundDuration":422534,"Delta":78484218},{"NoteNumber":79,"Velocity":43,"Duration":340908,"SoundDuration":340908,"Delta":78906753},{"NoteNumber":64,"Velocity":38,"Duration":170454,"SoundDuration":170454,"Delta":78906753},{"NoteNumber":67,"Velocity":30,"Duration":170454,"SoundDuration":170454,"Delta":79077208},{"NoteNumber":78,"Velocity":42,"Duration":340909,"SoundDuration":340909,"Delta":79247662},{"NoteNumber":62,"Velocity":37,"Duration":170454,"SoundDuration":170454,"Delta":79247662},{"NoteNumber":67,"Velocity":35,"Duration":170454,"SoundDuration":170454,"Delta":79418117},{"NoteNumber":76,"Velocity":41,"Duration":357142,"SoundDuration":357142,"Delta":79588571},{"NoteNumber":60,"Velocity":38,"Duration":178571,"SoundDuration":178571,"Delta":79588571},{"NoteNumber":67,"Velocity":32,"Duration":178571,"SoundDuration":178571,"Delta":79767143},{"NoteNumber":74,"Velocity":44,"Duration":337078,"SoundDuration":337078,"Delta":79945714},{"NoteNumber":59,"Velocity":38,"Duration":337078,"SoundDuration":337078,"Delta":79945714},{"NoteNumber":76,"Velocity":49,"Duration":108108,"SoundDuration":108108,"Delta":80282793},{"NoteNumber":60,"Velocity":35,"Duration":324324,"SoundDuration":324324,"Delta":80282793},{"NoteNumber":74,"Velocity":45,"Duration":108108,"SoundDuration":108108,"Delta":80390901},{"NoteNumber":72,"Velocity":45,"Duration":108108,"SoundDuration":108108,"Delta":80499009},{"NoteNumber":71,"Velocity":52,"Duration":335195,"SoundDuration":335195,"Delta":80607117},{"NoteNumber":62,"Velocity":39,"Duration":335195,"SoundDuration":335195,"Delta":80607117},{"NoteNumber":69,"Velocity":51,"Duration":72727,"SoundDuration":72727,"Delta":80942313},{"NoteNumber":50,"Velocity":38,"Duration":363636,"SoundDuration":363636,"Delta":80942313},{"NoteNumber":71,"Velocity":46,"Duration":72727,"SoundDuration":72727,"Delta":81015040},{"NoteNumber":69,"Velocity":46,"Duration":72727,"SoundDuration":72727,"Delta":81087767},{"NoteNumber":67,"Velocity":46,"Duration":72727,"SoundDuration":72727,"Delta":81160494},{"NoteNumber":69,"Velocity":46,"Duration":72727,"SoundDuration":72727,"Delta":81233222},{"NoteNumber":67,"Velocity":53,"Duration":747729,"SoundDuration":747729,"Delta":81305949},{"NoteNumber":55,"Velocity":41,"Duration":185185,"SoundDuration":185185,"Delta":81305949},{"NoteNumber":50,"Velocity":37,"Duration":188679,"SoundDuration":188679,"Delta":81676320},{"NoteNumber":43,"Velocity":42,"Duration":277777,"SoundDuration":277777,"Delta":82053678},{"NoteNumber":74,"Velocity":50,"Duration":263622,"SoundDuration":263622,"Delta":82609234},{"NoteNumber":78,"Velocity":43,"Duration":93167,"SoundDuration":93167,"Delta":82872856},{"NoteNumber":74,"Velocity":50,"Duration":355029,"SoundDuration":355029,"Delta":82966024},{"NoteNumber":62,"Velocity":50,"Duration":1395667,"SoundDuration":1395667,"Delta":82966024},{"NoteNumber":66,"Velocity":43,"Duration":344534,"SoundDuration":344534,"Delta":83321053},{"NoteNumber":84,"Velocity":50,"Duration":175042,"SoundDuration":175042,"Delta":83490545},{"NoteNumber":69,"Velocity":43,"Duration":344240,"SoundDuration":344240,"Delta":83665587},{"NoteNumber":78,"Velocity":50,"Duration":171494,"SoundDuration":171494,"Delta":83838333},{"NoteNumber":72,"Velocity":43,"Duration":351863,"SoundDuration":351863,"Delta":84009828},{"NoteNumber":81,"Velocity":50,"Duration":181818,"SoundDuration":181818,"Delta":84179873},{"NoteNumber":71,"Velocity":50,"Duration":340908,"SoundDuration":340908,"Delta":84361691},{"NoteNumber":62,"Velocity":50,"Duration":1385885,"SoundDuration":1385885,"Delta":84361691},{"NoteNumber":79,"Velocity":50,"Duration":170454,"SoundDuration":170454,"Delta":84532146},{"NoteNumber":83,"Velocity":54,"Duration":170454,"SoundDuration":170454,"Delta":84702600},{"NoteNumber":67,"Velocity":46,"Duration":346924,"SoundDuration":346924,"Delta":84702600},{"NoteNumber":74,"Velocity":50,"Duration":176470,"SoundDuration":176470,"Delta":84873055},{"NoteNumber":72,"Velocity":54,"Duration":113636,"SoundDuration":113636,"Delta":85049525},{"NoteNumber":69,"Velocity":46,"Duration":340908,"SoundDuration":340908,"Delta":85049525},{"NoteNumber":74,"Velocity":45,"Duration":113636,"SoundDuration":113636,"Delta":85163162},{"NoteNumber":76,"Velocity":45,"Duration":113636,"SoundDuration":113636,"Delta":85276798},{"NoteNumber":69,"Velocity":52,"Duration":113636,"SoundDuration":113636,"Delta":85390434},{"NoteNumber":66,"Velocity":46,"Duration":357142,"SoundDuration":357142,"Delta":85390434},{"NoteNumber":71,"Velocity":44,"Duration":113636,"SoundDuration":113636,"Delta":85504071},{"NoteNumber":72,"Velocity":44,"Duration":129870,"SoundDuration":129870,"Delta":85617707},{"NoteNumber":71,"Velocity":52,"Duration":113636,"SoundDuration":113636,"Delta":85747577},{"NoteNumber":62,"Velocity":50,"Duration":1038122,"SoundDuration":1038122,"Delta":85747577},{"NoteNumber":67,"Velocity":50,"Duration":340908,"SoundDuration":340908,"Delta":85747577},{"NoteNumber":72,"Velocity":45,"Duration":113636,"SoundDuration":113636,"Delta":85861214},{"NoteNumber":74,"Velocity":45,"Duration":113636,"SoundDuration":113636,"Delta":85974850},{"NoteNumber":72,"Velocity":52,"Duration":113636,"SoundDuration":113636,"Delta":86088486},{"NoteNumber":69,"Velocity":46,"Duration":356305,"SoundDuration":356305,"Delta":86088486},{"NoteNumber":74,"Velocity":46,"Duration":113636,"SoundDuration":113636,"Delta":86202123},{"NoteNumber":76,"Velocity":46,"Duration":129032,"SoundDuration":129032,"Delta":86315759},{"NoteNumber":74,"Velocity":46,"Duration":340908,"SoundDuration":340908,"Delta":86444791},{"NoteNumber":71,"Velocity":50,"Duration":340908,"SoundDuration":340908,"Delta":86444791},{"NoteNumber":74,"Velocity":55,"Duration":265995,"SoundDuration":265995,"Delta":86785700},{"NoteNumber":79,"Velocity":52,"Duration":95541,"SoundDuration":95541,"Delta":87051696},{"NoteNumber":74,"Velocity":58,"Duration":341148,"SoundDuration":341148,"Delta":87147238},{"NoteNumber":66,"Velocity":48,"Duration":335807,"SoundDuration":335807,"Delta":87488386},{"NoteNumber":50,"Velocity":45,"Duration":168659,"SoundDuration":168659,"Delta":87488386},{"NoteNumber":62,"Velocity":39,"Duration":167147,"SoundDuration":167147,"Delta":87657046},{"NoteNumber":67,"Velocity":50,"Duration":333333,"SoundDuration":333333,"Delta":87824194},{"NoteNumber":52,"Velocity":48,"Duration":166666,"SoundDuration":166666,"Delta":87824194},{"NoteNumber":62,"Velocity":41,"Duration":166666,"SoundDuration":166666,"Delta":87990860},{"NoteNumber":69,"Velocity":53,"Duration":346821,"SoundDuration":346821,"Delta":88157527},{"NoteNumber":54,"Velocity":49,"Duration":173410,"SoundDuration":173410,"Delta":88157527},{"NoteNumber":62,"Velocity":43,"Duration":173410,"SoundDuration":173410,"Delta":88330938},{"NoteNumber":71,"Velocity":55,"Duration":340908,"SoundDuration":340908,"Delta":88504348},{"NoteNumber":55,"Velocity":51,"Duration":170454,"SoundDuration":170454,"Delta":88504348},{"NoteNumber":62,"Velocity":45,"Duration":170454,"SoundDuration":170454,"Delta":88674803},{"NoteNumber":72,"Velocity":56,"Duration":66298,"SoundDuration":66298,"Delta":88845257},{"NoteNumber":57,"Velocity":53,"Duration":165745,"SoundDuration":165745,"Delta":88845257},{"NoteNumber":74,"Velocity":60,"Duration":66298,"SoundDuration":66298,"Delta":88911555},{"NoteNumber":72,"Velocity":50,"Duration":66298,"SoundDuration":66298,"Delta":88977854},{"NoteNumber":62,"Velocity":45,"Duration":165745,"SoundDuration":165745,"Delta":89011003},{"NoteNumber":71,"Velocity":52,"Duration":66298,"SoundDuration":66298,"Delta":89044152},{"NoteNumber":72,"Velocity":56,"Duration":66298,"SoundDuration":66298,"Delta":89110450},{"NoteNumber":74,"Velocity":59,"Duration":344827,"SoundDuration":344827,"Delta":89176749},{"NoteNumber":59,"Velocity":50,"Duration":344827,"SoundDuration":344827,"Delta":89176749},{"NoteNumber":79,"Velocity":62,"Duration":261516,"SoundDuration":261516,"Delta":89521576},{"NoteNumber":83,"Velocity":58,"Duration":92024,"SoundDuration":92024,"Delta":89783092},{"NoteNumber":79,"Velocity":65,"Duration":338014,"SoundDuration":338014,"Delta":89875117},{"NoteNumber":71,"Velocity":57,"Duration":342012,"SoundDuration":342012,"Delta":90213131},{"NoteNumber":43,"Velocity":51,"Duration":171822,"SoundDuration":171822,"Delta":90213131},{"NoteNumber":55,"Velocity":44,"Duration":170190,"SoundDuration":170190,"Delta":90384954},{"NoteNumber":72,"Velocity":60,"Duration":336026,"SoundDuration":336026,"Delta":90555144},{"NoteNumber":45,"Velocity":55,"Duration":168801,"SoundDuration":168801,"Delta":90555144},{"NoteNumber":55,"Velocity":47,"Duration":167225,"SoundDuration":167225,"Delta":90723946},{"NoteNumber":74,"Velocity":63,"Duration":333333,"SoundDuration":333333,"Delta":90891171},{"NoteNumber":47,"Velocity":56,"Duration":166666,"SoundDuration":166666,"Delta":90891171},{"NoteNumber":55,"Velocity":49,"Duration":166666,"SoundDuration":166666,"Delta":91057838},{"NoteNumber":76,"Velocity":67,"Duration":348837,"SoundDuration":348837,"Delta":91224505},{"NoteNumber":48,"Velocity":58,"Duration":174418,"SoundDuration":174418,"Delta":91224505},{"NoteNumber":55,"Velocity":51,"Duration":174418,"SoundDuration":174418,"Delta":91398923},{"NoteNumber":77,"Velocity":61,"Duration":65573,"SoundDuration":65573,"Delta":91573342},{"NoteNumber":50,"Velocity":60,"Duration":163934,"SoundDuration":163934,"Delta":91573342},{"NoteNumber":79,"Velocity":66,"Duration":65573,"SoundDuration":65573,"Delta":91638915},{"NoteNumber":77,"Velocity":58,"Duration":65573,"SoundDuration":65573,"Delta":91704489},{"NoteNumber":55,"Velocity":51,"Duration":163934,"SoundDuration":163934,"Delta":91737276},{"NoteNumber":76,"Velocity":60,"Duration":65573,"SoundDuration":65573,"Delta":91770063},{"NoteNumber":77,"Velocity":63,"Duration":65573,"SoundDuration":65573,"Delta":91835637},{"NoteNumber":79,"Velocity":66,"Duration":335195,"SoundDuration":335195,"Delta":91901211},{"NoteNumber":52,"Velocity":57,"Duration":335195,"SoundDuration":335195,"Delta":91901211},{"NoteNumber":76,"Velocity":62,"Duration":259622,"SoundDuration":259622,"Delta":92236406},{"NoteNumber":60,"Velocity":52,"Duration":351646,"SoundDuration":351646,"Delta":92236406},{"NoteNumber":79,"Velocity":55,"Duration":92024,"SoundDuration":92024,"Delta":92496028},{"NoteNumber":74,"Velocity":62,"Duration":335195,"SoundDuration":335195,"Delta":92588053},{"NoteNumber":59,"Velocity":57,"Duration":335195,"SoundDuration":335195,"Delta":92588053},{"NoteNumber":72,"Velocity":58,"Duration":110680,"SoundDuration":110680,"Delta":92923248},{"NoteNumber":57,"Velocity":49,"Duration":325734,"SoundDuration":325734,"Delta":92923248},{"NoteNumber":74,"Velocity":53,"Duration":107526,"SoundDuration":107526,"Delta":93033929},{"NoteNumber":72,"Velocity":53,"Duration":107526,"SoundDuration":107526,"Delta":93141456},{"NoteNumber":71,"Velocity":58,"Duration":335195,"SoundDuration":335195,"Delta":93248983},{"NoteNumber":55,"Velocity":54,"Duration":335195,"SoundDuration":335195,"Delta":93248983},{"NoteNumber":74,"Velocity":58,"Duration":110680,"SoundDuration":110680,"Delta":93584178},{"NoteNumber":59,"Velocity":50,"Duration":325734,"SoundDuration":325734,"Delta":93584178},{"NoteNumber":72,"Velocity":52,"Duration":107526,"SoundDuration":107526,"Delta":93694859},{"NoteNumber":71,"Velocity":52,"Duration":107526,"SoundDuration":107526,"Delta":93802386},{"NoteNumber":69,"Velocity":57,"Duration":335195,"SoundDuration":335195,"Delta":93909912},{"NoteNumber":60,"Velocity":54,"Duration":1026614,"SoundDuration":1026614,"Delta":93909912},{"NoteNumber":72,"Velocity":54,"Duration":110680,"SoundDuration":110680,"Delta":94245108},{"NoteNumber":71,"Velocity":49,"Duration":107526,"SoundDuration":107526,"Delta":94355788},{"NoteNumber":69,"Velocity":49,"Duration":134228,"SoundDuration":134228,"Delta":94463315},{"NoteNumber":76,"Velocity":56,"Duration":338982,"SoundDuration":338982,"Delta":94597543},{"NoteNumber":67,"Velocity":47,"Duration":182926,"SoundDuration":182926,"Delta":94936526},{"NoteNumber":61,"Velocity":48,"Duration":182926,"SoundDuration":182926,"Delta":94936526},{"NoteNumber":67,"Velocity":58,"Duration":90361,"SoundDuration":90361,"Delta":95302380},{"NoteNumber":62,"Velocity":51,"Duration":180723,"SoundDuration":180723,"Delta":95302380},{"NoteNumber":69,"Velocity":49,"Duration":90361,"SoundDuration":90361,"Delta":95392741},{"NoteNumber":67,"Velocity":49,"Duration":180723,"SoundDuration":180723,"Delta":95483103},{"NoteNumber":66,"Velocity":55,"Duration":387096,"SoundDuration":387096,"Delta":95663826},{"NoteNumber":57,"Velocity":46,"Duration":193548,"SoundDuration":193548,"Delta":95663826},{"NoteNumber":50,"Velocity":46,"Duration":193548,"SoundDuration":193548,"Delta":96050923},{"NoteNumber":74,"Velocity":72,"Duration":250000,"SoundDuration":250000,"Delta":96438020},{"NoteNumber":79,"Velocity":66,"Duration":83333,"SoundDuration":83333,"Delta":96688020},{"NoteNumber":74,"Velocity":72,"Duration":352941,"SoundDuration":352941,"Delta":96771353},{"NoteNumber":55,"Velocity":62,"Duration":686274,"SoundDuration":686274,"Delta":96771353},{"NoteNumber":59,"Velocity":62,"Duration":686274,"SoundDuration":686274,"Delta":96771353},{"NoteNumber":71,"Velocity":72,"Duration":250000,"SoundDuration":250000,"Delta":97124294},{"NoteNumber":74,"Velocity":67,"Duration":83333,"SoundDuration":83333,"Delta":97374295},{"NoteNumber":71,"Velocity":72,"Duration":333333,"SoundDuration":333333,"Delta":97457628},{"NoteNumber":67,"Velocity":72,"Duration":250000,"SoundDuration":250000,"Delta":97790961},{"NoteNumber":71,"Velocity":66,"Duration":83333,"SoundDuration":83333,"Delta":98040962},{"NoteNumber":67,"Velocity":72,"Duration":690772,"SoundDuration":690772,"Delta":98124295},{"NoteNumber":31,"Velocity":56,"Duration":331491,"SoundDuration":331491,"Delta":98483576},{"NoteNumber":43,"Velocity":67,"Duration":331491,"SoundDuration":331491,"Delta":98483576},{"NoteNumber":31,"Velocity":62,"Duration":663712,"SoundDuration":663712,"Delta":98815068},{"NoteNumber":43,"Velocity":70,"Duration":663712,"SoundDuration":663712,"Delta":98815068},{"NoteNumber":74,"Velocity":72,"Duration":320855,"SoundDuration":320855,"Delta":99157925},{"NoteNumber":72,"Velocity":72,"Duration":105820,"SoundDuration":105820,"Delta":99478780},{"NoteNumber":74,"Velocity":66,"Duration":105820,"SoundDuration":105820,"Delta":99584601},{"NoteNumber":76,"Velocity":66,"Duration":119760,"SoundDuration":119760,"Delta":99690421},{"NoteNumber":74,"Velocity":72,"Duration":331491,"SoundDuration":331491,"Delta":99810181},{"NoteNumber":55,"Velocity":47,"Duration":331491,"SoundDuration":331491,"Delta":99810181},{"NoteNumber":59,"Velocity":56,"Duration":331491,"SoundDuration":331491,"Delta":99810181},{"NoteNumber":55,"Velocity":52,"Duration":658131,"SoundDuration":658131,"Delta":100141673},{"NoteNumber":59,"Velocity":62,"Duration":658131,"SoundDuration":658131,"Delta":100141673},{"NoteNumber":71,"Velocity":72,"Duration":319148,"SoundDuration":319148,"Delta":100480656},{"NoteNumber":69,"Velocity":72,"Duration":105263,"SoundDuration":105263,"Delta":100799805},{"NoteNumber":71,"Velocity":63,"Duration":105263,"SoundDuration":105263,"Delta":100905068},{"NoteNumber":72,"Velocity":64,"Duration":117646,"SoundDuration":117646,"Delta":101010331},{"NoteNumber":71,"Velocity":72,"Duration":331491,"SoundDuration":331491,"Delta":101127978},{"NoteNumber":55,"Velocity":47,"Duration":331491,"SoundDuration":331491,"Delta":101127978},{"NoteNumber":59,"Velocity":56,"Duration":331491,"SoundDuration":331491,"Delta":101127978},{"NoteNumber":55,"Velocity":52,"Duration":678312,"SoundDuration":678312,"Delta":101459470},{"NoteNumber":59,"Velocity":62,"Duration":678312,"SoundDuration":678312,"Delta":101459470},{"NoteNumber":74,"Velocity":72,"Duration":346821,"SoundDuration":346821,"Delta":101790961},{"NoteNumber":76,"Velocity":67,"Duration":40983,"SoundDuration":40983,"Delta":102137782},{"NoteNumber":48,"Velocity":52,"Duration":655737,"SoundDuration":655737,"Delta":102137782},{"NoteNumber":60,"Velocity":62,"Duration":655737,"SoundDuration":655737,"Delta":102137782},{"NoteNumber":78,"Velocity":54,"Duration":40983,"SoundDuration":40983,"Delta":102178766},{"NoteNumber":76,"Velocity":66,"Duration":81967,"SoundDuration":81967,"Delta":102219749},{"NoteNumber":74,"Velocity":61,"Duration":163934,"SoundDuration":163934,"Delta":102301717},{"NoteNumber":76,"Velocity":64,"Duration":163934,"SoundDuration":163934,"Delta":102465651},{"NoteNumber":78,"Velocity":69,"Duration":163934,"SoundDuration":163934,"Delta":102629586},{"NoteNumber":79,"Velocity":74,"Duration":163934,"SoundDuration":163934,"Delta":102793520},{"NoteNumber":47,"Velocity":52,"Duration":680810,"SoundDuration":680810,"Delta":102793520},{"NoteNumber":59,"Velocity":62,"Duration":680810,"SoundDuration":680810,"Delta":102793520},{"NoteNumber":78,"Velocity":67,"Duration":163934,"SoundDuration":163934,"Delta":102957455},{"NoteNumber":76,"Velocity":67,"Duration":176470,"SoundDuration":176470,"Delta":103121389},{"NoteNumber":74,"Velocity":67,"Duration":176470,"SoundDuration":176470,"Delta":103297860},{"NoteNumber":72,"Velocity":61,"Duration":165394,"SoundDuration":165394,"Delta":103474330},{"NoteNumber":57,"Velocity":52,"Duration":327359,"SoundDuration":327359,"Delta":103474330},{"NoteNumber":74,"Velocity":59,"Duration":81383,"SoundDuration":81383,"Delta":103639725},{"NoteNumber":72,"Velocity":52,"Duration":80581,"SoundDuration":80581,"Delta":103721109},{"NoteNumber":74,"Velocity":59,"Duration":81859,"SoundDuration":81859,"Delta":103801690},{"NoteNumber":50,"Velocity":44,"Duration":350916,"SoundDuration":350916,"Delta":103801690},{"NoteNumber":72,"Velocity":52,"Duration":83653,"SoundDuration":83653,"Delta":103883549},{"NoteNumber":71,"Velocity":52,"Duration":85579,"SoundDuration":85579,"Delta":103967203},{"NoteNumber":72,"Velocity":52,"Duration":99824,"SoundDuration":99824,"Delta":104052782},{"NoteNumber":71,"Velocity":62,"Duration":340908,"SoundDuration":340908,"Delta":104152607},{"NoteNumber":55,"Velocity":52,"Duration":694066,"SoundDuration":694066,"Delta":104152607},{"NoteNumber":71,"Velocity":52,"Duration":353157,"SoundDuration":353157,"Delta":104493516},{"NoteNumber":69,"Velocity":56,"Duration":164835,"SoundDuration":164835,"Delta":104846673},{"NoteNumber":60,"Velocity":52,"Duration":1006162,"SoundDuration":1006162,"Delta":104846673},{"NoteNumber":72,"Velocity":47,"Duration":164835,"SoundDuration":164835,"Delta":105011508},{"NoteNumber":71,"Velocity":55,"Duration":173410,"SoundDuration":173410,"Delta":105176343},{"NoteNumber":69,"Velocity":52,"Duration":173410,"SoundDuration":173410,"Delta":105349754},{"NoteNumber":76,"Velocity":59,"Duration":329670,"SoundDuration":329670,"Delta":105523164},{"NoteNumber":67,"Velocity":54,"Duration":363636,"SoundDuration":363636,"Delta":105852835},{"NoteNumber":61,"Velocity":47,"Duration":363636,"SoundDuration":363636,"Delta":105852835},{"NoteNumber":67,"Velocity":51,"Duration":342856,"SoundDuration":342856,"Delta":106216471},{"NoteNumber":62,"Velocity":51,"Duration":342856,"SoundDuration":342856,"Delta":106216471},{"NoteNumber":66,"Velocity":44,"Duration":344157,"SoundDuration":344157,"Delta":106559328},{"NoteNumber":50,"Velocity":46,"Duration":344157,"SoundDuration":344157,"Delta":106559328},{"NoteNumber":55,"Velocity":51,"Duration":178531,"SoundDuration":178531,"Delta":106903486},{"NoteNumber":86,"Velocity":56,"Duration":175931,"SoundDuration":175931,"Delta":107082017},{"NoteNumber":59,"Velocity":46,"Duration":173371,"SoundDuration":173371,"Delta":107257948},{"NoteNumber":86,"Velocity":56,"Duration":170846,"SoundDuration":170846,"Delta":107431320},{"NoteNumber":62,"Velocity":47,"Duration":166008,"SoundDuration":166008,"Delta":107602166},{"NoteNumber":86,"Velocity":58,"Duration":162840,"SoundDuration":162840,"Delta":107768175},{"NoteNumber":67,"Velocity":51,"Duration":162339,"SoundDuration":162339,"Delta":107931016},{"NoteNumber":86,"Velocity":60,"Duration":163615,"SoundDuration":163615,"Delta":108093355},{"NoteNumber":71,"Velocity":56,"Duration":164835,"SoundDuration":164835,"Delta":108256970},{"NoteNumber":86,"Velocity":61,"Duration":164835,"SoundDuration":164835,"Delta":108421806},{"NoteNumber":67,"Velocity":50,"Duration":176470,"SoundDuration":176470,"Delta":108586641},{"NoteNumber":86,"Velocity":63,"Duration":176470,"SoundDuration":176470,"Delta":108763111},{"NoteNumber":84,"Velocity":64,"Duration":113636,"SoundDuration":113636,"Delta":108939582},{"NoteNumber":69,"Velocity":58,"Duration":340908,"SoundDuration":340908,"Delta":108939582},{"NoteNumber":86,"Velocity":56,"Duration":113636,"SoundDuration":113636,"Delta":109053218},{"NoteNumber":84,"Velocity":56,"Duration":113636,"SoundDuration":113636,"Delta":109166855},{"NoteNumber":83,"Velocity":66,"Duration":348165,"SoundDuration":348165,"Delta":109280491},{"NoteNumber":67,"Velocity":51,"Duration":348165,"SoundDuration":348165,"Delta":109280491},{"NoteNumber":81,"Velocity":59,"Duration":111731,"SoundDuration":111731,"Delta":109628656},{"NoteNumber":72,"Velocity":58,"Duration":335195,"SoundDuration":335195,"Delta":109628656},{"NoteNumber":83,"Velocity":51,"Duration":111731,"SoundDuration":111731,"Delta":109740388},{"NoteNumber":81,"Velocity":51,"Duration":111731,"SoundDuration":111731,"Delta":109852120},{"NoteNumber":79,"Velocity":59,"Duration":348837,"SoundDuration":348837,"Delta":109963851},{"NoteNumber":71,"Velocity":52,"Duration":348837,"SoundDuration":348837,"Delta":109963851},{"NoteNumber":78,"Velocity":60,"Duration":111731,"SoundDuration":111731,"Delta":110312688},{"NoteNumber":69,"Velocity":57,"Duration":335195,"SoundDuration":335195,"Delta":110312688},{"NoteNumber":76,"Velocity":51,"Duration":111731,"SoundDuration":111731,"Delta":110424420},{"NoteNumber":74,"Velocity":51,"Duration":111731,"SoundDuration":111731,"Delta":110536152},{"NoteNumber":79,"Velocity":61,"Duration":341616,"SoundDuration":341616,"Delta":110647884},{"NoteNumber":71,"Velocity":51,"Duration":341616,"SoundDuration":341616,"Delta":110647884},{"NoteNumber":50,"Velocity":69,"Duration":178531,"SoundDuration":178531,"Delta":110989501},{"NoteNumber":84,"Velocity":67,"Duration":175931,"SoundDuration":175931,"Delta":111168032},{"NoteNumber":54,"Velocity":59,"Duration":173371,"SoundDuration":173371,"Delta":111343963},{"NoteNumber":84,"Velocity":68,"Duration":170846,"SoundDuration":170846,"Delta":111517335},{"NoteNumber":57,"Velocity":72,"Duration":166008,"SoundDuration":166008,"Delta":111688181},{"NoteNumber":84,"Velocity":70,"Duration":162840,"SoundDuration":162840,"Delta":111854190},{"NoteNumber":62,"Velocity":62,"Duration":162339,"SoundDuration":162339,"Delta":112017031},{"NoteNumber":84,"Velocity":72,"Duration":163615,"SoundDuration":163615,"Delta":112179370},{"NoteNumber":66,"Velocity":71,"Duration":164835,"SoundDuration":164835,"Delta":112342985},{"NoteNumber":84,"Velocity":73,"Duration":164835,"SoundDuration":164835,"Delta":112507821},{"NoteNumber":69,"Velocity":65,"Duration":176470,"SoundDuration":176470,"Delta":112672656},{"NoteNumber":84,"Velocity":68,"Duration":176470,"SoundDuration":176470,"Delta":112849126},{"NoteNumber":83,"Velocity":74,"Duration":113636,"SoundDuration":113636,"Delta":113025597},{"NoteNumber":67,"Velocity":80,"Duration":689074,"SoundDuration":689074,"Delta":113025597},{"NoteNumber":81,"Velocity":65,"Duration":113636,"SoundDuration":113636,"Delta":113139233},{"NoteNumber":79,"Velocity":65,"Duration":113636,"SoundDuration":113636,"Delta":113252870},{"NoteNumber":78,"Velocity":69,"Duration":115606,"SoundDuration":115606,"Delta":113366506},{"NoteNumber":76,"Velocity":59,"Duration":116279,"SoundDuration":116279,"Delta":113482113},{"NoteNumber":74,"Velocity":59,"Duration":116279,"SoundDuration":116279,"Delta":113598392},{"NoteNumber":81,"Velocity":65,"Duration":111731,"SoundDuration":111731,"Delta":113714671},{"NoteNumber":62,"Velocity":59,"Duration":684032,"SoundDuration":684032,"Delta":113714671},{"NoteNumber":67,"Velocity":67,"Duration":335195,"SoundDuration":335195,"Delta":113714671},{"NoteNumber":83,"Velocity":56,"Duration":111731,"SoundDuration":111731,"Delta":113826403},{"NoteNumber":81,"Velocity":56,"Duration":111731,"SoundDuration":111731,"Delta":113938135},{"NoteNumber":83,"Velocity":59,"Duration":87209,"SoundDuration":87209,"Delta":114049866},{"NoteNumber":66,"Velocity":52,"Duration":348837,"SoundDuration":348837,"Delta":114049866},{"NoteNumber":81,"Velocity":53,"Duration":87209,"SoundDuration":87209,"Delta":114137076},{"NoteNumber":79,"Velocity":59,"Duration":87209,"SoundDuration":87209,"Delta":114224285},{"NoteNumber":81,"Velocity":54,"Duration":87209,"SoundDuration":87209,"Delta":114311494},{"NoteNumber":79,"Velocity":59,"Duration":368098,"SoundDuration":368098,"Delta":114398703},{"NoteNumber":67,"Velocity":58,"Duration":368098,"SoundDuration":368098,"Delta":114398703},{"NoteNumber":79,"Velocity":68,"Duration":340908,"SoundDuration":340908,"Delta":114766801},{"NoteNumber":64,"Velocity":55,"Duration":170454,"SoundDuration":170454,"Delta":114766801},{"NoteNumber":67,"Velocity":44,"Duration":170454,"SoundDuration":170454,"Delta":114937256},{"NoteNumber":78,"Velocity":63,"Duration":340909,"SoundDuration":340909,"Delta":115107710},{"NoteNumber":62,"Velocity":54,"Duration":170454,"SoundDuration":170454,"Delta":115107710},{"NoteNumber":67,"Velocity":50,"Duration":170454,"SoundDuration":170454,"Delta":115278165},{"NoteNumber":76,"Velocity":63,"Duration":357142,"SoundDuration":357142,"Delta":115448619},{"NoteNumber":60,"Velocity":55,"Duration":178571,"SoundDuration":178571,"Delta":115448619},{"NoteNumber":67,"Velocity":47,"Duration":178571,"SoundDuration":178571,"Delta":115627191},{"NoteNumber":74,"Velocity":70,"Duration":337078,"SoundDuration":337078,"Delta":115805762},{"NoteNumber":59,"Velocity":55,"Duration":337078,"SoundDuration":337078,"Delta":115805762},{"NoteNumber":76,"Velocity":70,"Duration":108108,"SoundDuration":108108,"Delta":116142841},{"NoteNumber":60,"Velocity":51,"Duration":324324,"SoundDuration":324324,"Delta":116142841},{"NoteNumber":74,"Velocity":65,"Duration":108108,"SoundDuration":108108,"Delta":116250949},{"NoteNumber":72,"Velocity":65,"Duration":108108,"SoundDuration":108108,"Delta":116359057},{"NoteNumber":71,"Velocity":73,"Duration":335195,"SoundDuration":335195,"Delta":116467165},{"NoteNumber":62,"Velocity":57,"Duration":335195,"SoundDuration":335195,"Delta":116467165},{"NoteNumber":69,"Velocity":73,"Duration":72727,"SoundDuration":72727,"Delta":116802361},{"NoteNumber":50,"Velocity":55,"Duration":363636,"SoundDuration":363636,"Delta":116802361},{"NoteNumber":71,"Velocity":66,"Duration":72727,"SoundDuration":72727,"Delta":116875088},{"NoteNumber":69,"Velocity":67,"Duration":72727,"SoundDuration":72727,"Delta":116947815},{"NoteNumber":67,"Velocity":67,"Duration":72727,"SoundDuration":72727,"Delta":117020543},{"NoteNumber":69,"Velocity":67,"Duration":72727,"SoundDuration":72727,"Delta":117093270},{"NoteNumber":67,"Velocity":76,"Duration":444444,"SoundDuration":444444,"Delta":117165997},{"NoteNumber":55,"Velocity":59,"Duration":444444,"SoundDuration":444444,"Delta":117165997},{"NoteNumber":79,"Velocity":43,"Duration":357142,"SoundDuration":357142,"Delta":117610442},{"NoteNumber":64,"Velocity":38,"Duration":178571,"SoundDuration":178571,"Delta":117610442},{"NoteNumber":67,"Velocity":30,"Duration":178571,"SoundDuration":178571,"Delta":117789013},{"NoteNumber":78,"Velocity":42,"Duration":348837,"SoundDuration":348837,"Delta":117967585},{"NoteNumber":62,"Velocity":37,"Duration":174418,"SoundDuration":174418,"Delta":117967585},{"NoteNumber":67,"Velocity":35,"Duration":174418,"SoundDuration":174418,"Delta":118142003},{"NoteNumber":76,"Velocity":41,"Duration":357142,"SoundDuration":357142,"Delta":118316422},{"NoteNumber":60,"Velocity":38,"Duration":178571,"SoundDuration":178571,"Delta":118316422},{"NoteNumber":67,"Velocity":32,"Duration":178571,"SoundDuration":178571,"Delta":118494993},{"NoteNumber":74,"Velocity":44,"Duration":342856,"SoundDuration":342856,"Delta":118673565},{"NoteNumber":59,"Velocity":38,"Duration":342856,"SoundDuration":342856,"Delta":118673565},{"NoteNumber":76,"Velocity":49,"Duration":108108,"SoundDuration":108108,"Delta":119016422},{"NoteNumber":60,"Velocity":35,"Duration":324324,"SoundDuration":324324,"Delta":119016422},{"NoteNumber":74,"Velocity":45,"Duration":108108,"SoundDuration":108108,"Delta":119124530},{"NoteNumber":72,"Velocity":45,"Duration":108108,"SoundDuration":108108,"Delta":119232638},{"NoteNumber":71,"Velocity":52,"Duration":335195,"SoundDuration":335195,"Delta":119340746},{"NoteNumber":62,"Velocity":39,"Duration":335195,"SoundDuration":335195,"Delta":119340746},{"NoteNumber":69,"Velocity":51,"Duration":74074,"SoundDuration":74074,"Delta":119675942},{"NoteNumber":50,"Velocity":38,"Duration":370370,"SoundDuration":370370,"Delta":119675942},{"NoteNumber":71,"Velocity":46,"Duration":74074,"SoundDuration":74074,"Delta":119750016},{"NoteNumber":69,"Velocity":46,"Duration":74074,"SoundDuration":74074,"Delta":119824090},{"NoteNumber":67,"Velocity":46,"Duration":74074,"SoundDuration":74074,"Delta":119898164},{"NoteNumber":69,"Velocity":46,"Duration":74074,"SoundDuration":74074,"Delta":119972238},{"NoteNumber":67,"Velocity":53,"Duration":950310,"SoundDuration":950310,"Delta":120046312},{"NoteNumber":55,"Velocity":41,"Duration":214285,"SoundDuration":214285,"Delta":120046312},{"NoteNumber":50,"Velocity":37,"Duration":260869,"SoundDuration":260869,"Delta":120474884},{"NoteNumber":43,"Velocity":42,"Duration":306122,"SoundDuration":306122,"Delta":120996623}]}