{"title":"Sonate XVI:35 3. Satz","artist":"Haydn","durationMs":144336,"midiSha256":"1959200f762a13c59d4e3130b410dbaa0302363cf561e1ebefaa80c22a191256","midiObject":[{"NoteNumber":76,"Velocity":45,"Duration":526316,"SoundDuration":526316,"Delta":0},{"NoteNumber":60,"Velocity":27,"Duration":300752,"SoundDuration":300752,"Delta":300752},{"NoteNumber":67,"Velocity":33,"Duration":300752,"SoundDuration":300752,"Delta":300752},{"NoteNumber":77,"Velocity":41,"Duration":75188,"SoundDuration":75188,"Delta":526316},{"NoteNumber":74,"Velocity":45,"Duration":215310,"SoundDuration":215310,"Delta":601504},{"NoteNumber":67,"Velocity":33,"Duration":292630,"SoundDuration":292630,"Delta":601504},{"NoteNumber":65,"Velocity":27,"Duration":292630,"SoundDuration":292630,"Delta":601504},{"NoteNumber":76,"Velocity":41,"Duration":77319,"SoundDuration":77319,"Delta":816814},{"NoteNumber":72,"Velocity":45,"Duration":75188,"SoundDuration":75188,"Delta":894134},{"NoteNumber":64,"Velocity":30,"Duration":75188,"SoundDuration":75188,"Delta":894134},{"NoteNumber":67,"Velocity":36,"Duration":75188,"SoundDuration":75188,"Delta":894134},{"NoteNumber":79,"Velocity":43,"Duration":75187,"SoundDuration":75187,"Delta":1194886},{"NoteNumber":79,"Velocity":43,"Duration":76142,"SoundDuration":76142,"Delta":1495638},{"NoteNumber":79,"Velocity":45,"Duration":147783,"SoundDuration":147783,"Delta":1800207},{"NoteNumber":59,"Velocity":30,"Duration":595613,"SoundDuration":595613,"Delta":1800207},{"NoteNumber":67,"Velocity":36,"Duration":1201859,"SoundDuration":1201859,"Delta":1800207},{"NoteNumber":77,"Velocity":41,"Duration":75187,"SoundDuration":75187,"Delta":1947990},{"NoteNumber":77,"Velocity":45,"Duration":146699,"SoundDuration":146699,"Delta":2098366},{"NoteNumber":76,"Velocity":41,"Duration":75377,"SoundDuration":75377,"Delta":2245066},{"NoteNumber":76,"Velocity":45,"Duration":147419,"SoundDuration":147419,"Delta":2395820},{"NoteNumber":60,"Velocity":33,"Duration":306994,"SoundDuration":306994,"Delta":2395820},{"NoteNumber":74,"Velocity":40,"Duration":79787,"SoundDuration":79787,"Delta":2543240},{"NoteNumber":74,"Velocity":45,"Duration":74812,"SoundDuration":74812,"Delta":2702814},{"NoteNumber":55,"Velocity":36,"Duration":74812,"SoundDuration":74812,"Delta":2702814},{"NoteNumber":71,"Velocity":41,"Duration":74812,"SoundDuration":74812,"Delta":3002066},{"NoteNumber":67,"Velocity":41,"Duration":74812,"SoundDuration":74812,"Delta":3301318},{"NoteNumber":76,"Velocity":72,"Duration":517619,"SoundDuration":517619,"Delta":3600570},{"NoteNumber":60,"Velocity":40,"Duration":293790,"SoundDuration":293790,"Delta":3901322},{"NoteNumber":67,"Velocity":48,"Duration":293790,"SoundDuration":293790,"Delta":3901322},{"NoteNumber":77,"Velocity":59,"Duration":76922,"SoundDuration":76922,"Delta":4118190},{"NoteNumber":74,"Velocity":69,"Duration":227720,"SoundDuration":227720,"Delta":4195113},{"NoteNumber":67,"Velocity":48,"Duration":305440,"SoundDuration":305440,"Delta":4195113},{"NoteNumber":65,"Velocity":40,"Duration":305440,"SoundDuration":305440,"Delta":4195113},{"NoteNumber":76,"Velocity":64,"Duration":77720,"SoundDuration":77720,"Delta":4422833},{"NoteNumber":72,"Velocity":70,"Duration":75000,"SoundDuration":75000,"Delta":4500554},{"NoteNumber":64,"Velocity":44,"Duration":75000,"SoundDuration":75000,"Delta":4500554},{"NoteNumber":67,"Velocity":52,"Duration":75000,"SoundDuration":75000,"Delta":4500554},{"NoteNumber":84,"Velocity":70,"Duration":75000,"SoundDuration":75000,"Delta":4800554},{"NoteNumber":84,"Velocity":70,"Duration":76142,"SoundDuration":76142,"Delta":5100554},{"NoteNumber":60,"Velocity":48,"Duration":76142,"SoundDuration":76142,"Delta":5100554},{"NoteNumber":52,"Velocity":40,"Duration":76142,"SoundDuration":76142,"Delta":5100554},{"NoteNumber":80,"Velocity":67,"Duration":72815,"SoundDuration":72815,"Delta":5405123},{"NoteNumber":53,"Velocity":44,"Duration":72815,"SoundDuration":72815,"Delta":5405123},{"NoteNumber":60,"Velocity":52,"Duration":72815,"SoundDuration":72815,"Delta":5405123},{"NoteNumber":81,"Velocity":59,"Duration":72815,"SoundDuration":72815,"Delta":5477938},{"NoteNumber":76,"Velocity":68,"Duration":72815,"SoundDuration":72815,"Delta":5701887},{"NoteNumber":77,"Velocity":59,"Duration":72815,"SoundDuration":72815,"Delta":5774703},{"NoteNumber":74,"Velocity":70,"Duration":72815,"SoundDuration":72815,"Delta":5997894},{"NoteNumber":55,"Velocity":40,"Duration":72815,"SoundDuration":72815,"Delta":5997894},{"NoteNumber":65,"Velocity":48,"Duration":72815,"SoundDuration":72815,"Delta":5997894},{"NoteNumber":71,"Velocity":58,"Duration":72815,"SoundDuration":72815,"Delta":6070709},{"NoteNumber":72,"Velocity":71,"Duration":76336,"SoundDuration":76336,"Delta":6306126},{"NoteNumber":64,"Velocity":52,"Duration":76336,"SoundDuration":76336,"Delta":6306126},{"NoteNumber":60,"Velocity":44,"Duration":76336,"SoundDuration":76336,"Delta":6306126},{"NoteNumber":76,"Velocity":45,"Duration":526315,"SoundDuration":526315,"Delta":7222159},{"NoteNumber":60,"Velocity":27,"Duration":300752,"SoundDuration":300752,"Delta":7522911},{"NoteNumber":67,"Velocity":33,"Duration":300752,"SoundDuration":300752,"Delta":7522911},{"NoteNumber":77,"Velocity":41,"Duration":75188,"SoundDuration":75188,"Delta":7748474},{"NoteNumber":74,"Velocity":45,"Duration":215827,"SoundDuration":215827,"Delta":7823663},{"NoteNumber":67,"Velocity":33,"Duration":293146,"SoundDuration":293146,"Delta":7823663},{"NoteNumber":65,"Velocity":27,"Duration":293146,"SoundDuration":293146,"Delta":7823663},{"NoteNumber":76,"Velocity":41,"Duration":77319,"SoundDuration":77319,"Delta":8039490},{"NoteNumber":72,"Velocity":45,"Duration":75188,"SoundDuration":75188,"Delta":8116809},{"NoteNumber":64,"Velocity":30,"Duration":75188,"SoundDuration":75188,"Delta":8116809},{"NoteNumber":67,"Velocity":36,"Duration":75188,"SoundDuration":75188,"Delta":8116809},{"NoteNumber":79,"Velocity":43,"Duration":75188,"SoundDuration":75188,"Delta":8417561},{"NoteNumber":79,"Velocity":43,"Duration":76142,"SoundDuration":76142,"Delta":8718314},{"NoteNumber":79,"Velocity":45,"Duration":147783,"SoundDuration":147783,"Delta":9022883},{"NoteNumber":59,"Velocity":30,"Duration":595612,"SoundDuration":595612,"Delta":9022883},{"NoteNumber":67,"Velocity":36,"Duration":1201859,"SoundDuration":1201859,"Delta":9022883},{"NoteNumber":77,"Velocity":41,"Duration":75188,"SoundDuration":75188,"Delta":9170666},{"NoteNumber":77,"Velocity":45,"Duration":146699,"SoundDuration":146699,"Delta":9321042},{"NoteNumber":76,"Velocity":41,"Duration":75376,"SoundDuration":75376,"Delta":9467742},{"NoteNumber":76,"Velocity":45,"Duration":147420,"SoundDuration":147420,"Delta":9618495},{"NoteNumber":60,"Velocity":33,"Duration":306994,"SoundDuration":306994,"Delta":9618495},{"NoteNumber":74,"Velocity":40,"Duration":79787,"SoundDuration":79787,"Delta":9765915},{"NoteNumber":74,"Velocity":45,"Duration":74813,"SoundDuration":74813,"Delta":9925490},{"NoteNumber":55,"Velocity":36,"Duration":74813,"SoundDuration":74813,"Delta":9925490},{"NoteNumber":71,"Velocity":41,"Duration":74813,"SoundDuration":74813,"Delta":10224742},{"NoteNumber":67,"Velocity":41,"Duration":74813,"SoundDuration":74813,"Delta":10523994},{"NoteNumber":76,"Velocity":72,"Duration":526315,"SoundDuration":526315,"Delta":10823246},{"NoteNumber":60,"Velocity":40,"Duration":300752,"SoundDuration":300752,"Delta":11123998},{"NoteNumber":67,"Velocity":48,"Duration":300752,"SoundDuration":300752,"Delta":11123998},{"NoteNumber":77,"Velocity":59,"Duration":75188,"SoundDuration":75188,"Delta":11349562},{"NoteNumber":74,"Velocity":69,"Duration":222647,"SoundDuration":222647,"Delta":11424750},{"NoteNumber":67,"Velocity":48,"Duration":300367,"SoundDuration":300367,"Delta":11424750},{"NoteNumber":65,"Velocity":40,"Duration":300367,"SoundDuration":300367,"Delta":11424750},{"NoteNumber":76,"Velocity":64,"Duration":77720,"SoundDuration":77720,"Delta":11647398},{"NoteNumber":72,"Velocity":70,"Duration":74999,"SoundDuration":74999,"Delta":11725118},{"NoteNumber":64,"Velocity":44,"Duration":74999,"SoundDuration":74999,"Delta":11725118},{"NoteNumber":67,"Velocity":52,"Duration":74999,"SoundDuration":74999,"Delta":11725118},{"NoteNumber":84,"Velocity":70,"Duration":74999,"SoundDuration":74999,"Delta":12025118},{"NoteNumber":84,"Velocity":70,"Duration":76142,"SoundDuration":76142,"Delta":12325118},{"NoteNumber":60,"Velocity":48,"Duration":76142,"SoundDuration":76142,"Delta":12325118},{"NoteNumber":52,"Velocity":40,"Duration":76142,"SoundDuration":76142,"Delta":12325118},{"NoteNumber":80,"Velocity":67,"Duration":72815,"SoundDuration":72815,"Delta":12629687},{"NoteNumber":53,"Velocity":44,"Duration":72815,"SoundDuration":72815,"Delta":12629687},{"NoteNumber":60,"Velocity":52,"Duration":72815,"SoundDuration":72815,"Delta":12629687},{"NoteNumber":81,"Velocity":59,"Duration":72815,"SoundDuration":72815,"Delta":12702502},{"NoteNumber":76,"Velocity":68,"Duration":72815,"SoundDuration":72815,"Delta":12926451},{"NoteNumber":77,"Velocity":59,"Duration":72815,"SoundDuration":72815,"Delta":12999267},{"NoteNumber":74,"Velocity":70,"Duration":72815,"SoundDuration":72815,"Delta":13222458},{"NoteNumber":55,"Velocity":40,"Duration":72815,"SoundDuration":72815,"Delta":13222458},{"NoteNumber":65,"Velocity":48,"Duration":72815,"SoundDuration":72815,"Delta":13222458},{"NoteNumber":71,"Velocity":58,"Duration":72815,"SoundDuration":72815,"Delta":13295274},{"NoteNumber":72,"Velocity":71,"Duration":76335,"SoundDuration":76335,"Delta":13530691},{"NoteNumber":64,"Velocity":52,"Duration":76335,"SoundDuration":76335,"Delta":13530691},{"NoteNumber":60,"Velocity":44,"Duration":76335,"SoundDuration":76335,"Delta":13530691},{"NoteNumber":77,"Velocity":45,"Duration":526315,"SoundDuration":526315,"Delta":14446723},{"NoteNumber":59,"Velocity":27,"Duration":300752,"SoundDuration":300752,"Delta":14747475},{"NoteNumber":67,"Velocity":33,"Duration":300752,"SoundDuration":300752,"Delta":14747475},{"NoteNumber":79,"Velocity":41,"Duration":75188,"SoundDuration":75188,"Delta":14973039},{"NoteNumber":76,"Velocity":45,"Duration":222516,"SoundDuration":222516,"Delta":15048227},{"NoteNumber":67,"Velocity":33,"Duration":299046,"SoundDuration":299046,"Delta":15048227},{"NoteNumber":60,"Velocity":27,"Duration":299046,"SoundDuration":299046,"Delta":15048227},{"NoteNumber":77,"Velocity":41,"Duration":76530,"SoundDuration":76530,"Delta":15270743},{"NoteNumber":74,"Velocity":45,"Duration":74626,"SoundDuration":74626,"Delta":15347273},{"NoteNumber":55,"Velocity":30,"Duration":74626,"SoundDuration":74626,"Delta":15347273},{"NoteNumber":67,"Velocity":36,"Duration":74626,"SoundDuration":74626,"Delta":15347273},{"NoteNumber":71,"Velocity":43,"Duration":74626,"SoundDuration":74626,"Delta":15645780},{"NoteNumber":67,"Velocity":43,"Duration":76142,"SoundDuration":76142,"Delta":15944287},{"NoteNumber":84,"Velocity":65,"Duration":526316,"SoundDuration":526316,"Delta":16248856},{"NoteNumber":64,"Velocity":37,"Duration":300751,"SoundDuration":300751,"Delta":16549608},{"NoteNumber":67,"Velocity":46,"Duration":300751,"SoundDuration":300751,"Delta":16549608},{"NoteNumber":86,"Velocity":57,"Duration":75187,"SoundDuration":75187,"Delta":16775172},{"NoteNumber":83,"Velocity":66,"Duration":221675,"SoundDuration":221675,"Delta":16850360},{"NoteNumber":66,"Velocity":46,"Duration":302976,"SoundDuration":302976,"Delta":16850360},{"NoteNumber":62,"Velocity":37,"Duration":302976,"SoundDuration":302976,"Delta":16850360},{"NoteNumber":84,"Velocity":57,"Duration":81300,"SoundDuration":81300,"Delta":17072036},{"NoteNumber":81,"Velocity":65,"Duration":524999,"SoundDuration":524999,"Delta":17153336},{"NoteNumber":60,"Velocity":37,"Duration":300000,"SoundDuration":300000,"Delta":17453336},{"NoteNumber":64,"Velocity":46,"Duration":300000,"SoundDuration":300000,"Delta":17453336},{"NoteNumber":83,"Velocity":57,"Duration":75000,"SoundDuration":75000,"Delta":17678336},{"NoteNumber":79,"Velocity":66,"Duration":221129,"SoundDuration":221129,"Delta":17753336},{"NoteNumber":62,"Velocity":46,"Duration":301992,"SoundDuration":301992,"Delta":17753336},{"NoteNumber":59,"Velocity":37,"Duration":301992,"SoundDuration":301992,"Delta":17753336},{"NoteNumber":81,"Velocity":57,"Duration":80862,"SoundDuration":80862,"Delta":17974466},{"NoteNumber":78,"Velocity":66,"Duration":225000,"SoundDuration":225000,"Delta":18055329},{"NoteNumber":57,"Velocity":50,"Duration":596924,"SoundDuration":596924,"Delta":18055329},{"NoteNumber":60,"Velocity":50,"Duration":596924,"SoundDuration":596924,"Delta":18055329},{"NoteNumber":81,"Velocity":61,"Duration":74999,"SoundDuration":74999,"Delta":18262829},{"NoteNumber":84,"Velocity":66,"Duration":221243,"SoundDuration":221243,"Delta":18372486},{"NoteNumber":81,"Velocity":62,"Duration":76336,"SoundDuration":76336,"Delta":18575917},{"NoteNumber":78,"Velocity":66,"Duration":222221,"SoundDuration":222221,"Delta":18652253},{"NoteNumber":50,"Velocity":44,"Duration":303565,"SoundDuration":303565,"Delta":18656574},{"NoteNumber":81,"Velocity":63,"Duration":81300,"SoundDuration":81300,"Delta":18874475},{"NoteNumber":79,"Velocity":71,"Duration":74812,"SoundDuration":74812,"Delta":18955776},{"NoteNumber":55,"Velocity":56,"Duration":224439,"SoundDuration":224439,"Delta":18955776},{"NoteNumber":59,"Velocity":50,"Duration":74812,"SoundDuration":74812,"Delta":19180215},{"NoteNumber":79,"Velocity":66,"Duration":74073,"SoundDuration":74073,"Delta":19255028},{"NoteNumber":62,"Velocity":57,"Duration":222221,"SoundDuration":222221,"Delta":19255028},{"NoteNumber":67,"Velocity":50,"Duration":78534,"SoundDuration":78534,"Delta":19477250},{"NoteNumber":79,"Velocity":66,"Duration":74626,"SoundDuration":74626,"Delta":19555784},{"NoteNumber":71,"Velocity":57,"Duration":223880,"SoundDuration":223880,"Delta":19555784},{"NoteNumber":67,"Velocity":53,"Duration":81521,"SoundDuration":81521,"Delta":19779664},{"NoteNumber":78,"Velocity":66,"Duration":224439,"SoundDuration":224439,"Delta":19861186},{"NoteNumber":69,"Velocity":50,"Duration":596524,"SoundDuration":596524,"Delta":19861186},{"NoteNumber":72,"Velocity":50,"Duration":596524,"SoundDuration":596524,"Delta":19861186},{"NoteNumber":81,"Velocity":61,"Duration":74813,"SoundDuration":74813,"Delta":20068169},{"NoteNumber":84,"Velocity":66,"Duration":221697,"SoundDuration":221697,"Delta":20177637},{"NoteNumber":81,"Velocity":62,"Duration":76142,"SoundDuration":76142,"Delta":20381568},{"NoteNumber":78,"Velocity":66,"Duration":221129,"SoundDuration":221129,"Delta":20457710},{"NoteNumber":62,"Velocity":44,"Duration":300559,"SoundDuration":300559,"Delta":20462010},{"NoteNumber":81,"Velocity":63,"Duration":79364,"SoundDuration":79364,"Delta":20678840},{"NoteNumber":79,"Velocity":71,"Duration":74812,"SoundDuration":74812,"Delta":20758205},{"NoteNumber":55,"Velocity":56,"Duration":224439,"SoundDuration":224439,"Delta":20758205},{"NoteNumber":59,"Velocity":50,"Duration":74812,"SoundDuration":74812,"Delta":20982644},{"NoteNumber":79,"Velocity":66,"Duration":78534,"SoundDuration":78534,"Delta":21057457},{"NoteNumber":50,"Velocity":57,"Duration":235602,"SoundDuration":235602,"Delta":21057457},{"NoteNumber":55,"Velocity":50,"Duration":78534,"SoundDuration":78534,"Delta":21293059},{"NoteNumber":79,"Velocity":66,"Duration":81521,"SoundDuration":81521,"Delta":21371593},{"NoteNumber":47,"Velocity":57,"Duration":244565,"SoundDuration":244565,"Delta":21371593},{"NoteNumber":50,"Velocity":53,"Duration":119127,"SoundDuration":119127,"Delta":21611403},{"NoteNumber":79,"Velocity":71,"Duration":739436,"SoundDuration":739436,"Delta":21737616},{"NoteNumber":43,"Velocity":56,"Duration":422534,"SoundDuration":422534,"Delta":21737616},{"NoteNumber":81,"Velocity":41,"Duration":77720,"SoundDuration":77720,"Delta":22477052},{"NoteNumber":77,"Velocity":45,"Duration":227272,"SoundDuration":227272,"Delta":22554773},{"NoteNumber":79,"Velocity":41,"Duration":82191,"SoundDuration":82191,"Delta":22782045},{"NoteNumber":76,"Velocity":45,"Duration":526316,"SoundDuration":526316,"Delta":22864237},{"NoteNumber":60,"Velocity":27,"Duration":300751,"SoundDuration":300751,"Delta":23164989},{"NoteNumber":67,"Velocity":33,"Duration":300751,"SoundDuration":300751,"Delta":23164989},{"NoteNumber":77,"Velocity":41,"Duration":75187,"SoundDuration":75187,"Delta":23390553},{"NoteNumber":74,"Velocity":45,"Duration":218446,"SoundDuration":218446,"Delta":23465741},{"NoteNumber":67,"Velocity":33,"Duration":294976,"SoundDuration":294976,"Delta":23465741},{"NoteNumber":65,"Velocity":27,"Duration":294976,"SoundDuration":294976,"Delta":23465741},{"NoteNumber":76,"Velocity":41,"Duration":76530,"SoundDuration":76530,"Delta":23684187},{"NoteNumber":72,"Velocity":45,"Duration":75188,"SoundDuration":75188,"Delta":23760718},{"NoteNumber":64,"Velocity":30,"Duration":75188,"SoundDuration":75188,"Delta":23760718},{"NoteNumber":67,"Velocity":36,"Duration":75188,"SoundDuration":75188,"Delta":23760718},{"NoteNumber":79,"Velocity":43,"Duration":75188,"SoundDuration":75188,"Delta":24061470},{"NoteNumber":79,"Velocity":43,"Duration":76142,"SoundDuration":76142,"Delta":24362222},{"NoteNumber":79,"Velocity":45,"Duration":147783,"SoundDuration":147783,"Delta":24666791},{"NoteNumber":59,"Velocity":30,"Duration":595613,"SoundDuration":595613,"Delta":24666791},{"NoteNumber":67,"Velocity":36,"Duration":1201859,"SoundDuration":1201859,"Delta":24666791},{"NoteNumber":77,"Velocity":41,"Duration":75188,"SoundDuration":75188,"Delta":24814574},{"NoteNumber":77,"Velocity":45,"Duration":146699,"SoundDuration":146699,"Delta":24964950},{"NoteNumber":76,"Velocity":41,"Duration":75376,"SoundDuration":75376,"Delta":25111650},{"NoteNumber":76,"Velocity":45,"Duration":147420,"SoundDuration":147420,"Delta":25262404},{"NoteNumber":60,"Velocity":33,"Duration":306994,"SoundDuration":306994,"Delta":25262404},{"NoteNumber":74,"Velocity":40,"Duration":79787,"SoundDuration":79787,"Delta":25409824},{"NoteNumber":74,"Velocity":45,"Duration":74812,"SoundDuration":74812,"Delta":25569398},{"NoteNumber":55,"Velocity":36,"Duration":74812,"SoundDuration":74812,"Delta":25569398},{"NoteNumber":71,"Velocity":41,"Duration":74813,"SoundDuration":74813,"Delta":25868650},{"NoteNumber":67,"Velocity":41,"Duration":74813,"SoundDuration":74813,"Delta":26167902},{"NoteNumber":76,"Velocity":72,"Duration":517098,"SoundDuration":517098,"Delta":26467154},{"NoteNumber":60,"Velocity":40,"Duration":292488,"SoundDuration":292488,"Delta":26767906},{"NoteNumber":67,"Velocity":48,"Duration":292488,"SoundDuration":292488,"Delta":26767906},{"NoteNumber":77,"Velocity":59,"Duration":76142,"SoundDuration":76142,"Delta":26984253},{"NoteNumber":74,"Velocity":69,"Duration":227720,"SoundDuration":227720,"Delta":27060395},{"NoteNumber":67,"Velocity":48,"Duration":305440,"SoundDuration":305440,"Delta":27060395},{"NoteNumber":65,"Velocity":40,"Duration":305440,"SoundDuration":305440,"Delta":27060395},{"NoteNumber":76,"Velocity":64,"Duration":77720,"SoundDuration":77720,"Delta":27288115},{"NoteNumber":72,"Velocity":70,"Duration":74999,"SoundDuration":74999,"Delta":27365836},{"NoteNumber":64,"Velocity":44,"Duration":74999,"SoundDuration":74999,"Delta":27365836},{"NoteNumber":67,"Velocity":52,"Duration":74999,"SoundDuration":74999,"Delta":27365836},{"NoteNumber":84,"Velocity":70,"Duration":74999,"SoundDuration":74999,"Delta":27665836},{"NoteNumber":84,"Velocity":70,"Duration":76142,"SoundDuration":76142,"Delta":27965836},{"NoteNumber":60,"Velocity":48,"Duration":76142,"SoundDuration":76142,"Delta":27965836},{"NoteNumber":52,"Velocity":40,"Duration":76142,"SoundDuration":76142,"Delta":27965836},{"NoteNumber":80,"Velocity":67,"Duration":72815,"SoundDuration":72815,"Delta":28270405},{"NoteNumber":53,"Velocity":44,"Duration":72815,"SoundDuration":72815,"Delta":28270405},{"NoteNumber":60,"Velocity":52,"Duration":72815,"SoundDuration":72815,"Delta":28270405},{"NoteNumber":81,"Velocity":59,"Duration":72815,"SoundDuration":72815,"Delta":28343220},{"NoteNumber":76,"Velocity":68,"Duration":72815,"SoundDuration":72815,"Delta":28567169},{"NoteNumber":77,"Velocity":59,"Duration":72815,"SoundDuration":72815,"Delta":28639985},{"NoteNumber":74,"Velocity":70,"Duration":72815,"SoundDuration":72815,"Delta":28863176},{"NoteNumber":55,"Velocity":40,"Duration":72815,"SoundDuration":72815,"Delta":28863176},{"NoteNumber":65,"Velocity":48,"Duration":72815,"SoundDuration":72815,"Delta":28863176},{"NoteNumber":71,"Velocity":58,"Duration":72815,"SoundDuration":72815,"Delta":28935992},{"NoteNumber":72,"Velocity":71,"Duration":76336,"SoundDuration":76336,"Delta":29171409},{"NoteNumber":64,"Velocity":52,"Duration":76336,"SoundDuration":76336,"Delta":29171409},{"NoteNumber":60,"Velocity":44,"Duration":76336,"SoundDuration":76336,"Delta":29171409},{"NoteNumber":77,"Velocity":45,"Duration":526316,"SoundDuration":526316,"Delta":30087441},{"NoteNumber":59,"Velocity":27,"Duration":300751,"SoundDuration":300751,"Delta":30388193},{"NoteNumber":67,"Velocity":33,"Duration":300751,"SoundDuration":300751,"Delta":30388193},{"NoteNumber":79,"Velocity":41,"Duration":75187,"SoundDuration":75187,"Delta":30613757},{"NoteNumber":76,"Velocity":45,"Duration":222515,"SoundDuration":222515,"Delta":30688945},{"NoteNumber":67,"Velocity":33,"Duration":299046,"SoundDuration":299046,"Delta":30688945},{"NoteNumber":60,"Velocity":27,"Duration":299046,"SoundDuration":299046,"Delta":30688945},{"NoteNumber":77,"Velocity":41,"Duration":76530,"SoundDuration":76530,"Delta":30911461},{"NoteNumber":74,"Velocity":45,"Duration":74626,"SoundDuration":74626,"Delta":30987991},{"NoteNumber":55,"Velocity":30,"Duration":74626,"SoundDuration":74626,"Delta":30987991},{"NoteNumber":67,"Velocity":36,"Duration":74626,"SoundDuration":74626,"Delta":30987991},{"NoteNumber":71,"Velocity":43,"Duration":74626,"SoundDuration":74626,"Delta":31286498},{"NoteNumber":67,"Velocity":43,"Duration":76142,"SoundDuration":76142,"Delta":31585005},{"NoteNumber":84,"Velocity":65,"Duration":526315,"SoundDuration":526315,"Delta":31889574},{"NoteNumber":64,"Velocity":37,"Duration":300752,"SoundDuration":300752,"Delta":32190326},{"NoteNumber":67,"Velocity":46,"Duration":300752,"SoundDuration":300752,"Delta":32190326},{"NoteNumber":86,"Velocity":57,"Duration":75188,"SoundDuration":75188,"Delta":32415890},{"NoteNumber":83,"Velocity":66,"Duration":221675,"SoundDuration":221675,"Delta":32491078},{"NoteNumber":66,"Velocity":46,"Duration":302975,"SoundDuration":302975,"Delta":32491078},{"NoteNumber":62,"Velocity":37,"Duration":302975,"SoundDuration":302975,"Delta":32491078},{"NoteNumber":84,"Velocity":57,"Duration":81300,"SoundDuration":81300,"Delta":32712754},{"NoteNumber":81,"Velocity":65,"Duration":524999,"SoundDuration":524999,"Delta":32794054},{"NoteNumber":60,"Velocity":37,"Duration":300000,"SoundDuration":300000,"Delta":33094054},{"NoteNumber":64,"Velocity":46,"Duration":300000,"SoundDuration":300000,"Delta":33094054},{"NoteNumber":83,"Velocity":57,"Duration":75000,"SoundDuration":75000,"Delta":33319054},{"NoteNumber":79,"Velocity":66,"Duration":221130,"SoundDuration":221130,"Delta":33394054},{"NoteNumber":62,"Velocity":46,"Duration":301992,"SoundDuration":301992,"Delta":33394054},{"NoteNumber":59,"Velocity":37,"Duration":301992,"SoundDuration":301992,"Delta":33394054},{"NoteNumber":81,"Velocity":57,"Duration":80862,"SoundDuration":80862,"Delta":33615184},{"NoteNumber":78,"Velocity":66,"Duration":225000,"SoundDuration":225000,"Delta":33696047},{"NoteNumber":57,"Velocity":50,"Duration":596924,"SoundDuration":596924,"Delta":33696047},{"NoteNumber":60,"Velocity":50,"Duration":596924,"SoundDuration":596924,"Delta":33696047},{"NoteNumber":81,"Velocity":61,"Duration":74999,"SoundDuration":74999,"Delta":33903547},{"NoteNumber":84,"Velocity":66,"Duration":221243,"SoundDuration":221243,"Delta":34013204},{"NoteNumber":81,"Velocity":62,"Duration":76335,"SoundDuration":76335,"Delta":34216635},{"NoteNumber":78,"Velocity":66,"Duration":222222,"SoundDuration":222222,"Delta":34292971},{"NoteNumber":50,"Velocity":44,"Duration":303565,"SoundDuration":303565,"Delta":34297292},{"NoteNumber":81,"Velocity":63,"Duration":81300,"SoundDuration":81300,"Delta":34515193},{"NoteNumber":79,"Velocity":71,"Duration":74812,"SoundDuration":74812,"Delta":34596494},{"NoteNumber":55,"Velocity":56,"Duration":224438,"SoundDuration":224438,"Delta":34596494},{"NoteNumber":59,"Velocity":50,"Duration":74813,"SoundDuration":74813,"Delta":34820933},{"NoteNumber":79,"Velocity":66,"Duration":74074,"SoundDuration":74074,"Delta":34895746},{"NoteNumber":62,"Velocity":57,"Duration":222222,"SoundDuration":222222,"Delta":34895746},{"NoteNumber":67,"Velocity":50,"Duration":78533,"SoundDuration":78533,"Delta":35117968},{"NoteNumber":79,"Velocity":66,"Duration":74626,"SoundDuration":74626,"Delta":35196502},{"NoteNumber":71,"Velocity":57,"Duration":223880,"SoundDuration":223880,"Delta":35196502},{"NoteNumber":67,"Velocity":53,"Duration":81521,"SoundDuration":81521,"Delta":35420382},{"NoteNumber":78,"Velocity":66,"Duration":224438,"SoundDuration":224438,"Delta":35501904},{"NoteNumber":69,"Velocity":50,"Duration":596524,"SoundDuration":596524,"Delta":35501904},{"NoteNumber":72,"Velocity":50,"Duration":596524,"SoundDuration":596524,"Delta":35501904},{"NoteNumber":81,"Velocity":61,"Duration":74812,"SoundDuration":74812,"Delta":35708887},{"NoteNumber":84,"Velocity":66,"Duration":221697,"SoundDuration":221697,"Delta":35818355},{"NoteNumber":81,"Velocity":62,"Duration":76142,"SoundDuration":76142,"Delta":36022286},{"NoteNumber":78,"Velocity":66,"Duration":221130,"SoundDuration":221130,"Delta":36098428},{"NoteNumber":62,"Velocity":44,"Duration":300559,"SoundDuration":300559,"Delta":36102728},{"NoteNumber":81,"Velocity":63,"Duration":79365,"SoundDuration":79365,"Delta":36319558},{"NoteNumber":79,"Velocity":71,"Duration":74812,"SoundDuration":74812,"Delta":36398923},{"NoteNumber":55,"Velocity":56,"Duration":224438,"SoundDuration":224438,"Delta":36398923},{"NoteNumber":59,"Velocity":50,"Duration":74813,"SoundDuration":74813,"Delta":36623362},{"NoteNumber":79,"Velocity":66,"Duration":78533,"SoundDuration":78533,"Delta":36698175},{"NoteNumber":50,"Velocity":57,"Duration":235602,"SoundDuration":235602,"Delta":36698175},{"NoteNumber":55,"Velocity":50,"Duration":78533,"SoundDuration":78533,"Delta":36933777},{"NoteNumber":79,"Velocity":66,"Duration":81521,"SoundDuration":81521,"Delta":37012311},{"NoteNumber":47,"Velocity":57,"Duration":244565,"SoundDuration":244565,"Delta":37012311},{"NoteNumber":50,"Velocity":53,"Duration":119127,"SoundDuration":119127,"Delta":37252121},{"NoteNumber":79,"Velocity":71,"Duration":789473,"SoundDuration":789473,"Delta":37378334},{"NoteNumber":43,"Velocity":56,"Duration":451127,"SoundDuration":451127,"Delta":37378334},{"NoteNumber":81,"Velocity":41,"Duration":77720,"SoundDuration":77720,"Delta":38167808},{"NoteNumber":77,"Velocity":45,"Duration":227272,"SoundDuration":227272,"Delta":38245528},{"NoteNumber":79,"Velocity":41,"Duration":82191,"SoundDuration":82191,"Delta":38472801},{"NoteNumber":76,"Velocity":45,"Duration":526316,"SoundDuration":526316,"Delta":38554993},{"NoteNumber":60,"Velocity":27,"Duration":300751,"SoundDuration":300751,"Delta":38855745},{"NoteNumber":67,"Velocity":33,"Duration":300751,"SoundDuration":300751,"Delta":38855745},{"NoteNumber":77,"Velocity":41,"Duration":75187,"SoundDuration":75187,"Delta":39081309},{"NoteNumber":74,"Velocity":45,"Duration":218446,"SoundDuration":218446,"Delta":39156497},{"NoteNumber":67,"Velocity":33,"Duration":294976,"SoundDuration":294976,"Delta":39156497},{"NoteNumber":65,"Velocity":27,"Duration":294976,"SoundDuration":294976,"Delta":39156497},{"NoteNumber":76,"Velocity":41,"Duration":76530,"SoundDuration":76530,"Delta":39374943},{"NoteNumber":72,"Velocity":45,"Duration":78125,"SoundDuration":78125,"Delta":39451474},{"NoteNumber":64,"Velocity":30,"Duration":78125,"SoundDuration":78125,"Delta":39451474},{"NoteNumber":67,"Velocity":36,"Duration":78125,"SoundDuration":78125,"Delta":39451474},{"NoteNumber":79,"Velocity":43,"Duration":75187,"SoundDuration":75187,"Delta":39758100},{"NoteNumber":79,"Velocity":43,"Duration":76142,"SoundDuration":76142,"Delta":40058851},{"NoteNumber":79,"Velocity":45,"Duration":147783,"SoundDuration":147783,"Delta":40363420},{"NoteNumber":59,"Velocity":30,"Duration":595613,"SoundDuration":595613,"Delta":40363420},{"NoteNumber":67,"Velocity":36,"Duration":1201859,"SoundDuration":1201859,"Delta":40363420},{"NoteNumber":77,"Velocity":41,"Duration":75187,"SoundDuration":75187,"Delta":40511204},{"NoteNumber":77,"Velocity":45,"Duration":146699,"SoundDuration":146699,"Delta":40661580},{"NoteNumber":76,"Velocity":41,"Duration":75377,"SoundDuration":75377,"Delta":40808280},{"NoteNumber":76,"Velocity":45,"Duration":147419,"SoundDuration":147419,"Delta":40959033},{"NoteNumber":60,"Velocity":33,"Duration":306994,"SoundDuration":306994,"Delta":40959033},{"NoteNumber":74,"Velocity":40,"Duration":79787,"SoundDuration":79787,"Delta":41106453},{"NoteNumber":74,"Velocity":45,"Duration":74812,"SoundDuration":74812,"Delta":41266028},{"NoteNumber":55,"Velocity":36,"Duration":74812,"SoundDuration":74812,"Delta":41266028},{"NoteNumber":71,"Velocity":41,"Duration":74812,"SoundDuration":74812,"Delta":41565280},{"NoteNumber":67,"Velocity":41,"Duration":74812,"SoundDuration":74812,"Delta":41864532},{"NoteNumber":76,"Velocity":72,"Duration":517098,"SoundDuration":517098,"Delta":42163784},{"NoteNumber":60,"Velocity":40,"Duration":292488,"SoundDuration":292488,"Delta":42464536},{"NoteNumber":67,"Velocity":48,"Duration":292488,"SoundDuration":292488,"Delta":42464536},{"NoteNumber":77,"Velocity":59,"Duration":76142,"SoundDuration":76142,"Delta":42680882},{"NoteNumber":74,"Velocity":69,"Duration":227720,"SoundDuration":227720,"Delta":42757025},{"NoteNumber":67,"Velocity":48,"Duration":305440,"SoundDuration":305440,"Delta":42757025},{"NoteNumber":65,"Velocity":40,"Duration":305440,"SoundDuration":305440,"Delta":42757025},{"NoteNumber":76,"Velocity":64,"Duration":77720,"SoundDuration":77720,"Delta":42984745},{"NoteNumber":72,"Velocity":70,"Duration":75000,"SoundDuration":75000,"Delta":43062465},{"NoteNumber":64,"Velocity":44,"Duration":75000,"SoundDuration":75000,"Delta":43062465},{"NoteNumber":67,"Velocity":52,"Duration":75000,"SoundDuration":75000,"Delta":43062465},{"NoteNumber":84,"Velocity":70,"Duration":75000,"SoundDuration":75000,"Delta":43362465},{"NoteNumber":84,"Velocity":70,"Duration":76142,"SoundDuration":76142,"Delta":43662465},{"NoteNumber":60,"Velocity":48,"Duration":76142,"SoundDuration":76142,"Delta":43662465},{"NoteNumber":52,"Velocity":40,"Duration":76142,"SoundDuration":76142,"Delta":43662465},{"NoteNumber":80,"Velocity":67,"Duration":72815,"SoundDuration":72815,"Delta":43967034},{"NoteNumber":53,"Velocity":44,"Duration":72815,"SoundDuration":72815,"Delta":43967034},{"NoteNumber":60,"Velocity":52,"Duration":72815,"SoundDuration":72815,"Delta":43967034},{"NoteNumber":81,"Velocity":59,"Duration":72815,"SoundDuration":72815,"Delta":44039850},{"NoteNumber":76,"Velocity":68,"Duration":72815,"SoundDuration":72815,"Delta":44263799},{"NoteNumber":77,"Velocity":59,"Duration":72815,"SoundDuration":72815,"Delta":44336614},{"NoteNumber":74,"Velocity":70,"Duration":72815,"SoundDuration":72815,"Delta":44559806},{"NoteNumber":55,"Velocity":40,"Duration":72815,"SoundDuration":72815,"Delta":44559806},{"NoteNumber":65,"Velocity":48,"Duration":72815,"SoundDuration":72815,"Delta":44559806},{"NoteNumber":71,"Velocity":58,"Duration":72815,"SoundDuration":72815,"Delta":44632621},{"NoteNumber":72,"Velocity":71,"Duration":76335,"SoundDuration":76335,"Delta":44868038},{"NoteNumber":64,"Velocity":52,"Duration":76335,"SoundDuration":76335,"Delta":44868038},{"NoteNumber":60,"Velocity":44,"Duration":76335,"SoundDuration":76335,"Delta":44868038},{"NoteNumber":76,"Velocity":45,"Duration":526316,"SoundDuration":526316,"Delta":45784070},{"NoteNumber":72,"Velocity":33,"Duration":75187,"SoundDuration":75187,"Delta":46084822},{"NoteNumber":79,"Velocity":41,"Duration":75187,"SoundDuration":75187,"Delta":46310386},{"NoteNumber":78,"Velocity":45,"Duration":215310,"SoundDuration":215310,"Delta":46385574},{"NoteNumber":69,"Velocity":33,"Duration":71770,"SoundDuration":71770,"Delta":46385574},{"NoteNumber":81,"Velocity":41,"Duration":77319,"SoundDuration":77319,"Delta":46600885},{"NoteNumber":79,"Velocity":45,"Duration":75187,"SoundDuration":75187,"Delta":46678205},{"NoteNumber":71,"Velocity":36,"Duration":75187,"SoundDuration":75187,"Delta":46678205},{"NoteNumber":86,"Velocity":48,"Duration":75187,"SoundDuration":75187,"Delta":46978957},{"NoteNumber":86,"Velocity":48,"Duration":76142,"SoundDuration":76142,"Delta":47279709},{"NoteNumber":86,"Velocity":52,"Duration":147783,"SoundDuration":147783,"Delta":47584278},{"NoteNumber":66,"Velocity":30,"Duration":595613,"SoundDuration":595613,"Delta":47584278},{"NoteNumber":74,"Velocity":36,"Duration":1201859,"SoundDuration":1201859,"Delta":47584278},{"NoteNumber":84,"Velocity":45,"Duration":75187,"SoundDuration":75187,"Delta":47732061},{"NoteNumber":84,"Velocity":52,"Duration":146699,"SoundDuration":146699,"Delta":47882437},{"NoteNumber":83,"Velocity":45,"Duration":75377,"SoundDuration":75377,"Delta":48029137},{"NoteNumber":83,"Velocity":52,"Duration":147419,"SoundDuration":147419,"Delta":48179891},{"NoteNumber":67,"Velocity":33,"Duration":306994,"SoundDuration":306994,"Delta":48179891},{"NoteNumber":81,"Velocity":44,"Duration":79787,"SoundDuration":79787,"Delta":48327310},{"NoteNumber":81,"Velocity":53,"Duration":74812,"SoundDuration":74812,"Delta":48486885},{"NoteNumber":62,"Velocity":36,"Duration":74812,"SoundDuration":74812,"Delta":48486885},{"NoteNumber":78,"Velocity":50,"Duration":74812,"SoundDuration":74812,"Delta":48786137},{"NoteNumber":74,"Velocity":48,"Duration":74812,"SoundDuration":74812,"Delta":49085389},{"NoteNumber":67,"Velocity":54,"Duration":526316,"SoundDuration":526316,"Delta":49384641},{"NoteNumber":83,"Velocity":45,"Duration":75187,"SoundDuration":75187,"Delta":49685393},{"NoteNumber":79,"Velocity":45,"Duration":75187,"SoundDuration":75187,"Delta":49685393},{"NoteNumber":69,"Velocity":49,"Duration":75187,"SoundDuration":75187,"Delta":49910957},{"NoteNumber":83,"Velocity":45,"Duration":71770,"SoundDuration":71770,"Delta":49986145},{"NoteNumber":79,"Velocity":45,"Duration":71770,"SoundDuration":71770,"Delta":49986145},{"NoteNumber":66,"Velocity":55,"Duration":215310,"SoundDuration":215310,"Delta":49986145},{"NoteNumber":67,"Velocity":50,"Duration":77319,"SoundDuration":77319,"Delta":50201456},{"NoteNumber":83,"Velocity":50,"Duration":74074,"SoundDuration":74074,"Delta":50278775},{"NoteNumber":79,"Velocity":50,"Duration":74074,"SoundDuration":74074,"Delta":50278775},{"NoteNumber":64,"Velocity":56,"Duration":222222,"SoundDuration":222222,"Delta":50278775},{"NoteNumber":66,"Velocity":52,"Duration":74073,"SoundDuration":74073,"Delta":50500997},{"NoteNumber":83,"Velocity":45,"Duration":74074,"SoundDuration":74074,"Delta":50575071},{"NoteNumber":79,"Velocity":45,"Duration":74074,"SoundDuration":74074,"Delta":50575071},{"NoteNumber":62,"Velocity":57,"Duration":222222,"SoundDuration":222222,"Delta":50575071},{"NoteNumber":64,"Velocity":53,"Duration":74074,"SoundDuration":74074,"Delta":50797293},{"NoteNumber":83,"Velocity":45,"Duration":74073,"SoundDuration":74073,"Delta":50871367},{"NoteNumber":79,"Velocity":45,"Duration":74073,"SoundDuration":74073,"Delta":50871367},{"NoteNumber":60,"Velocity":59,"Duration":222221,"SoundDuration":222221,"Delta":50871367},{"NoteNumber":62,"Velocity":54,"Duration":91185,"SoundDuration":91185,"Delta":51093589},{"NoteNumber":83,"Velocity":58,"Duration":298507,"SoundDuration":298507,"Delta":51184775},{"NoteNumber":79,"Velocity":58,"Duration":298507,"SoundDuration":298507,"Delta":51184775},{"NoteNumber":59,"Velocity":61,"Duration":223880,"SoundDuration":223880,"Delta":51184775},{"NoteNumber":60,"Velocity":56,"Duration":74626,"SoundDuration":74626,"Delta":51408655},{"NoteNumber":84,"Velocity":50,"Duration":298507,"SoundDuration":298507,"Delta":51483282},{"NoteNumber":81,"Velocity":50,"Duration":298507,"SoundDuration":298507,"Delta":51483282},{"NoteNumber":57,"Velocity":62,"Duration":223880,"SoundDuration":223880,"Delta":51483282},{"NoteNumber":59,"Velocity":57,"Duration":74626,"SoundDuration":74626,"Delta":51707162},{"NoteNumber":86,"Velocity":50,"Duration":310400,"SoundDuration":310400,"Delta":51781789},{"NoteNumber":83,"Velocity":50,"Duration":310400,"SoundDuration":310400,"Delta":51781789},{"NoteNumber":55,"Velocity":63,"Duration":310400,"SoundDuration":310400,"Delta":51781789},{"NoteNumber":84,"Velocity":60,"Duration":99502,"SoundDuration":99502,"Delta":52092189},{"NoteNumber":60,"Velocity":61,"Duration":298507,"SoundDuration":298507,"Delta":52092189},{"NoteNumber":81,"Velocity":51,"Duration":99502,"SoundDuration":99502,"Delta":52191692},{"NoteNumber":76,"Velocity":51,"Duration":99502,"SoundDuration":99502,"Delta":52291194},{"NoteNumber":83,"Velocity":59,"Duration":99502,"SoundDuration":99502,"Delta":52390696},{"NoteNumber":62,"Velocity":63,"Duration":298507,"SoundDuration":298507,"Delta":52390696},{"NoteNumber":79,"Velocity":50,"Duration":99502,"SoundDuration":99502,"Delta":52490199},{"NoteNumber":74,"Velocity":51,"Duration":99502,"SoundDuration":99502,"Delta":52589701},{"NoteNumber":81,"Velocity":59,"Duration":99502,"SoundDuration":99502,"Delta":52689204},{"NoteNumber":62,"Velocity":65,"Duration":303880,"SoundDuration":303880,"Delta":52689204},{"NoteNumber":78,"Velocity":52,"Duration":99502,"SoundDuration":99502,"Delta":52788706},{"NoteNumber":72,"Velocity":52,"Duration":104875,"SoundDuration":104875,"Delta":52888208},{"NoteNumber":67,"Velocity":74,"Duration":426974,"SoundDuration":426974,"Delta":52993084},{"NoteNumber":83,"Velocity":60,"Duration":75000,"SoundDuration":75000,"Delta":53320059},{"NoteNumber":79,"Velocity":51,"Duration":75000,"SoundDuration":75000,"Delta":53320059},{"NoteNumber":69,"Velocity":56,"Duration":100000,"SoundDuration":100000,"Delta":53420059},{"NoteNumber":67,"Velocity":56,"Duration":99999,"SoundDuration":99999,"Delta":53520059},{"NoteNumber":83,"Velocity":59,"Duration":71770,"SoundDuration":71770,"Delta":53620059},{"NoteNumber":79,"Velocity":50,"Duration":71770,"SoundDuration":71770,"Delta":53620059},{"NoteNumber":66,"Velocity":65,"Duration":95693,"SoundDuration":95693,"Delta":53620059},{"NoteNumber":67,"Velocity":56,"Duration":95693,"SoundDuration":95693,"Delta":53715752},{"NoteNumber":66,"Velocity":57,"Duration":101242,"SoundDuration":101242,"Delta":53811446},{"NoteNumber":83,"Velocity":68,"Duration":74074,"SoundDuration":74074,"Delta":53912689},{"NoteNumber":79,"Velocity":57,"Duration":74074,"SoundDuration":74074,"Delta":53912689},{"NoteNumber":64,"Velocity":65,"Duration":98765,"SoundDuration":98765,"Delta":53912689},{"NoteNumber":66,"Velocity":57,"Duration":98765,"SoundDuration":98765,"Delta":54011454},{"NoteNumber":64,"Velocity":57,"Duration":98765,"SoundDuration":98765,"Delta":54110220},{"NoteNumber":83,"Velocity":60,"Duration":74074,"SoundDuration":74074,"Delta":54208985},{"NoteNumber":79,"Velocity":51,"Duration":74074,"SoundDuration":74074,"Delta":54208985},{"NoteNumber":62,"Velocity":65,"Duration":98765,"SoundDuration":98765,"Delta":54208985},{"NoteNumber":64,"Velocity":60,"Duration":98765,"SoundDuration":98765,"Delta":54307750},{"NoteNumber":62,"Velocity":60,"Duration":98765,"SoundDuration":98765,"Delta":54406516},{"NoteNumber":83,"Velocity":59,"Duration":74073,"SoundDuration":74073,"Delta":54505281},{"NoteNumber":79,"Velocity":50,"Duration":74073,"SoundDuration":74073,"Delta":54505281},{"NoteNumber":60,"Velocity":65,"Duration":98765,"SoundDuration":98765,"Delta":54505281},{"NoteNumber":62,"Velocity":59,"Duration":98765,"SoundDuration":98765,"Delta":54604046},{"NoteNumber":60,"Velocity":59,"Duration":115876,"SoundDuration":115876,"Delta":54702812},{"NoteNumber":83,"Velocity":74,"Duration":298507,"SoundDuration":298507,"Delta":54818688},{"NoteNumber":79,"Velocity":62,"Duration":298507,"SoundDuration":298507,"Delta":54818688},{"NoteNumber":59,"Velocity":65,"Duration":99502,"SoundDuration":99502,"Delta":54818688},{"NoteNumber":60,"Velocity":58,"Duration":99502,"SoundDuration":99502,"Delta":54918191},{"NoteNumber":59,"Velocity":58,"Duration":99502,"SoundDuration":99502,"Delta":55017693},{"NoteNumber":84,"Velocity":71,"Duration":298507,"SoundDuration":298507,"Delta":55117195},{"NoteNumber":81,"Velocity":60,"Duration":298507,"SoundDuration":298507,"Delta":55117195},{"NoteNumber":57,"Velocity":65,"Duration":99502,"SoundDuration":99502,"Delta":55117195},{"NoteNumber":59,"Velocity":58,"Duration":99502,"SoundDuration":99502,"Delta":55216698},{"NoteNumber":57,"Velocity":58,"Duration":99502,"SoundDuration":99502,"Delta":55316200},{"NoteNumber":86,"Velocity":75,"Duration":327826,"SoundDuration":327826,"Delta":55415702},{"NoteNumber":83,"Velocity":63,"Duration":327826,"SoundDuration":327826,"Delta":55415702},{"NoteNumber":55,"Velocity":65,"Duration":327826,"SoundDuration":327826,"Delta":55415702},{"NoteNumber":84,"Velocity":75,"Duration":99502,"SoundDuration":99502,"Delta":55743528},{"NoteNumber":60,"Velocity":61,"Duration":298507,"SoundDuration":298507,"Delta":55743528},{"NoteNumber":81,"Velocity":60,"Duration":99502,"SoundDuration":99502,"Delta":55843031},{"NoteNumber":76,"Velocity":60,"Duration":99502,"SoundDuration":99502,"Delta":55942533},{"NoteNumber":83,"Velocity":72,"Duration":99502,"SoundDuration":99502,"Delta":56042035},{"NoteNumber":62,"Velocity":63,"Duration":298507,"SoundDuration":298507,"Delta":56042035},{"NoteNumber":79,"Velocity":57,"Duration":99502,"SoundDuration":99502,"Delta":56141538},{"NoteNumber":74,"Velocity":57,"Duration":99502,"SoundDuration":99502,"Delta":56241040},{"NoteNumber":81,"Velocity":70,"Duration":99502,"SoundDuration":99502,"Delta":56340543},{"NoteNumber":62,"Velocity":65,"Duration":305847,"SoundDuration":305847,"Delta":56340543},{"NoteNumber":78,"Velocity":58,"Duration":99502,"SoundDuration":99502,"Delta":56440045},{"NoteNumber":72,"Velocity":58,"Duration":106842,"SoundDuration":106842,"Delta":56539547},{"NoteNumber":71,"Velocity":70,"Duration":1494804,"SoundDuration":1494804,"Delta":56646390},{"NoteNumber":79,"Velocity":70,"Duration":1791636,"SoundDuration":1791636,"Delta":56646390},{"NoteNumber":55,"Velocity":61,"Duration":297767,"SoundDuration":297767,"Delta":56646390},{"NoteNumber":67,"Velocity":54,"Duration":526316,"SoundDuration":526316,"Delta":57539691},{"NoteNumber":69,"Velocity":46,"Duration":75187,"SoundDuration":75187,"Delta":58066007},{"NoteNumber":65,"Velocity":52,"Duration":219512,"SoundDuration":219512,"Delta":58141195},{"NoteNumber":67,"Velocity":47,"Duration":77319,"SoundDuration":77319,"Delta":58360707},{"NoteNumber":79,"Velocity":54,"Duration":526316,"SoundDuration":526316,"Delta":58438027},{"NoteNumber":64,"Velocity":54,"Duration":1206338,"SoundDuration":1206338,"Delta":58438027},{"NoteNumber":70,"Velocity":53,"Duration":225563,"SoundDuration":225563,"Delta":58738779},{"NoteNumber":81,"Velocity":49,"Duration":75187,"SoundDuration":75187,"Delta":58964343},{"NoteNumber":72,"Velocity":46,"Duration":75187,"SoundDuration":75187,"Delta":58964343},{"NoteNumber":77,"Velocity":55,"Duration":220049,"SoundDuration":220049,"Delta":59039531},{"NoteNumber":69,"Velocity":52,"Duration":220049,"SoundDuration":220049,"Delta":59039531},{"NoteNumber":79,"Velocity":50,"Duration":84033,"SoundDuration":84033,"Delta":59259580},{"NoteNumber":70,"Velocity":52,"Duration":84033,"SoundDuration":84033,"Delta":59259580},{"NoteNumber":76,"Velocity":54,"Duration":526316,"SoundDuration":526316,"Delta":59343613},{"NoteNumber":67,"Velocity":54,"Duration":300752,"SoundDuration":300752,"Delta":59343613},{"NoteNumber":67,"Velocity":46,"Duration":300751,"SoundDuration":300751,"Delta":59644366},{"NoteNumber":70,"Velocity":46,"Duration":300751,"SoundDuration":300751,"Delta":59644366},{"NoteNumber":77,"Velocity":49,"Duration":75187,"SoundDuration":75187,"Delta":59869930},{"NoteNumber":74,"Velocity":55,"Duration":219512,"SoundDuration":219512,"Delta":59945117},{"NoteNumber":65,"Velocity":48,"Duration":302385,"SoundDuration":302385,"Delta":59945117},{"NoteNumber":69,"Velocity":48,"Duration":302385,"SoundDuration":302385,"Delta":59945117},{"NoteNumber":76,"Velocity":50,"Duration":82872,"SoundDuration":82872,"Delta":60164630},{"NoteNumber":73,"Velocity":55,"Duration":301507,"SoundDuration":301507,"Delta":60247503},{"NoteNumber":64,"Velocity":48,"Duration":301507,"SoundDuration":301507,"Delta":60247503},{"NoteNumber":67,"Velocity":48,"Duration":301507,"SoundDuration":301507,"Delta":60247503},{"NoteNumber":70,"Velocity":55,"Duration":301507,"SoundDuration":301507,"Delta":60549011},{"NoteNumber":73,"Velocity":55,"Duration":301507,"SoundDuration":301507,"Delta":60549011},{"NoteNumber":55,"Velocity":53,"Duration":226131,"SoundDuration":226131,"Delta":60549011},{"NoteNumber":57,"Velocity":43,"Duration":75376,"SoundDuration":75376,"Delta":60775142},{"NoteNumber":69,"Velocity":55,"Duration":304621,"SoundDuration":304621,"Delta":60850519},{"NoteNumber":74,"Velocity":55,"Duration":304621,"SoundDuration":304621,"Delta":60850519},{"NoteNumber":53,"Velocity":53,"Duration":220588,"SoundDuration":220588,"Delta":60850519},{"NoteNumber":55,"Velocity":42,"Duration":84033,"SoundDuration":84033,"Delta":61071107},{"NoteNumber":67,"Velocity":55,"Duration":299999,"SoundDuration":299999,"Delta":61155141},{"NoteNumber":76,"Velocity":55,"Duration":299999,"SoundDuration":299999,"Delta":61155141},{"NoteNumber":52,"Velocity":53,"Duration":225000,"SoundDuration":225000,"Delta":61155141},{"NoteNumber":53,"Velocity":42,"Duration":74999,"SoundDuration":74999,"Delta":61380141},{"NoteNumber":77,"Velocity":55,"Duration":222772,"SoundDuration":222772,"Delta":61455141},{"NoteNumber":65,"Velocity":55,"Duration":299302,"SoundDuration":299302,"Delta":61455141},{"NoteNumber":50,"Velocity":53,"Duration":299302,"SoundDuration":299302,"Delta":61455141},{"NoteNumber":79,"Velocity":45,"Duration":76530,"SoundDuration":76530,"Delta":61677913},{"NoteNumber":76,"Velocity":55,"Duration":226131,"SoundDuration":226131,"Delta":61754444},{"NoteNumber":52,"Velocity":53,"Duration":304871,"SoundDuration":304871,"Delta":61754444},{"NoteNumber":55,"Velocity":53,"Duration":304871,"SoundDuration":304871,"Delta":61754444},{"NoteNumber":77,"Velocity":45,"Duration":78740,"SoundDuration":78740,"Delta":61980575},{"NoteNumber":74,"Velocity":60,"Duration":522387,"SoundDuration":522387,"Delta":62059315},{"NoteNumber":53,"Velocity":53,"Duration":597014,"SoundDuration":597014,"Delta":62059315},{"NoteNumber":57,"Velocity":53,"Duration":892380,"SoundDuration":892380,"Delta":62059315},{"NoteNumber":76,"Velocity":49,"Duration":74626,"SoundDuration":74626,"Delta":62581702},{"NoteNumber":72,"Velocity":56,"Duration":214285,"SoundDuration":214285,"Delta":62656329},{"NoteNumber":54,"Velocity":53,"Duration":295366,"SoundDuration":295366,"Delta":62656329},{"NoteNumber":74,"Velocity":47,"Duration":81080,"SoundDuration":81080,"Delta":62870614},{"NoteNumber":67,"Velocity":55,"Duration":310881,"SoundDuration":310881,"Delta":62951695},{"NoteNumber":71,"Velocity":55,"Duration":233160,"SoundDuration":233160,"Delta":62951695},{"NoteNumber":55,"Velocity":53,"Duration":310881,"SoundDuration":310881,"Delta":62951695},{"NoteNumber":74,"Velocity":43,"Duration":77720,"SoundDuration":77720,"Delta":63184856},{"NoteNumber":69,"Velocity":52,"Duration":324323,"SoundDuration":324323,"Delta":63262576},{"NoteNumber":72,"Velocity":52,"Duration":243242,"SoundDuration":243242,"Delta":63262576},{"NoteNumber":76,"Velocity":36,"Duration":81080,"SoundDuration":81080,"Delta":63505819},{"NoteNumber":71,"Velocity":44,"Duration":375719,"SoundDuration":375719,"Delta":63586900},{"NoteNumber":74,"Velocity":44,"Duration":257142,"SoundDuration":257142,"Delta":63586900},{"NoteNumber":77,"Velocity":42,"Duration":118577,"SoundDuration":118577,"Delta":63844043},{"NoteNumber":72,"Velocity":40,"Duration":601504,"SoundDuration":601504,"Delta":63962620},{"NoteNumber":76,"Velocity":48,"Duration":526315,"SoundDuration":526315,"Delta":63962620},{"NoteNumber":64,"Velocity":33,"Duration":300752,"SoundDuration":300752,"Delta":64263372},{"NoteNumber":60,"Velocity":27,"Duration":300752,"SoundDuration":300752,"Delta":64263372},{"NoteNumber":77,"Velocity":41,"Duration":75188,"SoundDuration":75188,"Delta":64488936},{"NoteNumber":71,"Velocity":40,"Duration":292630,"SoundDuration":292630,"Delta":64564124},{"NoteNumber":74,"Velocity":45,"Duration":215310,"SoundDuration":215310,"Delta":64564124},{"NoteNumber":55,"Velocity":27,"Duration":292630,"SoundDuration":292630,"Delta":64564124},{"NoteNumber":65,"Velocity":33,"Duration":292630,"SoundDuration":292630,"Delta":64564124},{"NoteNumber":76,"Velocity":41,"Duration":77319,"SoundDuration":77319,"Delta":64779435},{"NoteNumber":72,"Velocity":45,"Duration":75187,"SoundDuration":75187,"Delta":64856754},{"NoteNumber":60,"Velocity":30,"Duration":75187,"SoundDuration":75187,"Delta":64856754},{"NoteNumber":64,"Velocity":36,"Duration":75187,"SoundDuration":75187,"Delta":64856754},{"NoteNumber":79,"Velocity":43,"Duration":75187,"SoundDuration":75187,"Delta":65157506},{"NoteNumber":79,"Velocity":43,"Duration":76142,"SoundDuration":76142,"Delta":65458259},{"NoteNumber":79,"Velocity":45,"Duration":147783,"SoundDuration":147783,"Delta":65762828},{"NoteNumber":59,"Velocity":30,"Duration":595613,"SoundDuration":595613,"Delta":65762828},{"NoteNumber":67,"Velocity":36,"Duration":1208729,"SoundDuration":1208729,"Delta":65762828},{"NoteNumber":77,"Velocity":41,"Duration":75187,"SoundDuration":75187,"Delta":65910611},{"NoteNumber":77,"Velocity":45,"Duration":146699,"SoundDuration":146699,"Delta":66060987},{"NoteNumber":76,"Velocity":41,"Duration":75377,"SoundDuration":75377,"Delta":66207686},{"NoteNumber":76,"Velocity":45,"Duration":147419,"SoundDuration":147419,"Delta":66358441},{"NoteNumber":60,"Velocity":33,"Duration":306994,"SoundDuration":306994,"Delta":66358441},{"NoteNumber":74,"Velocity":40,"Duration":79787,"SoundDuration":79787,"Delta":66505860},{"NoteNumber":74,"Velocity":45,"Duration":76530,"SoundDuration":76530,"Delta":66665435},{"NoteNumber":55,"Velocity":36,"Duration":76530,"SoundDuration":76530,"Delta":66665435},{"NoteNumber":71,"Velocity":41,"Duration":74813,"SoundDuration":74813,"Delta":66971557},{"NoteNumber":67,"Velocity":41,"Duration":74813,"SoundDuration":74813,"Delta":67270809},{"NoteNumber":76,"Velocity":72,"Duration":517619,"SoundDuration":517619,"Delta":67570061},{"NoteNumber":60,"Velocity":40,"Duration":293790,"SoundDuration":293790,"Delta":67870813},{"NoteNumber":67,"Velocity":48,"Duration":293790,"SoundDuration":293790,"Delta":67870813},{"NoteNumber":77,"Velocity":59,"Duration":76922,"SoundDuration":76922,"Delta":68087681},{"NoteNumber":74,"Velocity":69,"Duration":227720,"SoundDuration":227720,"Delta":68164604},{"NoteNumber":67,"Velocity":48,"Duration":305440,"SoundDuration":305440,"Delta":68164604},{"NoteNumber":65,"Velocity":40,"Duration":305440,"SoundDuration":305440,"Delta":68164604},{"NoteNumber":76,"Velocity":64,"Duration":77720,"SoundDuration":77720,"Delta":68392324},{"NoteNumber":72,"Velocity":70,"Duration":75000,"SoundDuration":75000,"Delta":68470044},{"NoteNumber":64,"Velocity":44,"Duration":75000,"SoundDuration":75000,"Delta":68470044},{"NoteNumber":67,"Velocity":52,"Duration":75000,"SoundDuration":75000,"Delta":68470044},{"NoteNumber":84,"Velocity":70,"Duration":75000,"SoundDuration":75000,"Delta":68770044},{"NoteNumber":84,"Velocity":70,"Duration":76142,"SoundDuration":76142,"Delta":69070044},{"NoteNumber":60,"Velocity":48,"Duration":76142,"SoundDuration":76142,"Delta":69070044},{"NoteNumber":52,"Velocity":40,"Duration":76142,"SoundDuration":76142,"Delta":69070044},{"NoteNumber":80,"Velocity":67,"Duration":72815,"SoundDuration":72815,"Delta":69374613},{"NoteNumber":53,"Velocity":44,"Duration":72815,"SoundDuration":72815,"Delta":69374613},{"NoteNumber":60,"Velocity":52,"Duration":72815,"SoundDuration":72815,"Delta":69374613},{"NoteNumber":81,"Velocity":59,"Duration":72815,"SoundDuration":72815,"Delta":69447429},{"NoteNumber":76,"Velocity":68,"Duration":72815,"SoundDuration":72815,"Delta":69671378},{"NoteNumber":77,"Velocity":59,"Duration":72815,"SoundDuration":72815,"Delta":69744193},{"NoteNumber":74,"Velocity":70,"Duration":72815,"SoundDuration":72815,"Delta":69967385},{"NoteNumber":55,"Velocity":40,"Duration":72815,"SoundDuration":72815,"Delta":69967385},{"NoteNumber":65,"Velocity":48,"Duration":72815,"SoundDuration":72815,"Delta":69967385},{"NoteNumber":71,"Velocity":58,"Duration":72815,"SoundDuration":72815,"Delta":70040200},{"NoteNumber":72,"Velocity":71,"Duration":76335,"SoundDuration":76335,"Delta":70275617},{"NoteNumber":64,"Velocity":52,"Duration":76335,"SoundDuration":76335,"Delta":70275617},{"NoteNumber":60,"Velocity":44,"Duration":76335,"SoundDuration":76335,"Delta":70275617},{"NoteNumber":76,"Velocity":45,"Duration":526315,"SoundDuration":526315,"Delta":71191649},{"NoteNumber":72,"Velocity":33,"Duration":75187,"SoundDuration":75187,"Delta":71492401},{"NoteNumber":79,"Velocity":41,"Duration":75188,"SoundDuration":75188,"Delta":71717965},{"NoteNumber":78,"Velocity":45,"Duration":215310,"SoundDuration":215310,"Delta":71793153},{"NoteNumber":69,"Velocity":33,"Duration":71770,"SoundDuration":71770,"Delta":71793153},{"NoteNumber":81,"Velocity":41,"Duration":77319,"SoundDuration":77319,"Delta":72008464},{"NoteNumber":79,"Velocity":45,"Duration":75187,"SoundDuration":75187,"Delta":72085783},{"NoteNumber":71,"Velocity":36,"Duration":75187,"SoundDuration":75187,"Delta":72085783},{"NoteNumber":86,"Velocity":48,"Duration":75187,"SoundDuration":75187,"Delta":72386535},{"NoteNumber":86,"Velocity":48,"Duration":76142,"SoundDuration":76142,"Delta":72687288},{"NoteNumber":86,"Velocity":52,"Duration":147783,"SoundDuration":147783,"Delta":72991857},{"NoteNumber":66,"Velocity":30,"Duration":595613,"SoundDuration":595613,"Delta":72991857},{"NoteNumber":74,"Velocity":36,"Duration":1201859,"SoundDuration":1201859,"Delta":72991857},{"NoteNumber":84,"Velocity":45,"Duration":75187,"SoundDuration":75187,"Delta":73139640},{"NoteNumber":84,"Velocity":52,"Duration":146699,"SoundDuration":146699,"Delta":73290016},{"NoteNumber":83,"Velocity":45,"Duration":75377,"SoundDuration":75377,"Delta":73436715},{"NoteNumber":83,"Velocity":52,"Duration":147419,"SoundDuration":147419,"Delta":73587470},{"NoteNumber":67,"Velocity":33,"Duration":306994,"SoundDuration":306994,"Delta":73587470},{"NoteNumber":81,"Velocity":44,"Duration":79787,"SoundDuration":79787,"Delta":73734890},{"NoteNumber":81,"Velocity":53,"Duration":74813,"SoundDuration":74813,"Delta":73894464},{"NoteNumber":62,"Velocity":36,"Duration":74813,"SoundDuration":74813,"Delta":73894464},{"NoteNumber":78,"Velocity":50,"Duration":74813,"SoundDuration":74813,"Delta":74193716},{"NoteNumber":74,"Velocity":48,"Duration":74812,"SoundDuration":74812,"Delta":74492968},{"NoteNumber":67,"Velocity":54,"Duration":526315,"SoundDuration":526315,"Delta":74792220},{"NoteNumber":83,"Velocity":45,"Duration":75187,"SoundDuration":75187,"Delta":75092972},{"NoteNumber":79,"Velocity":45,"Duration":75187,"SoundDuration":75187,"Delta":75092972},{"NoteNumber":69,"Velocity":49,"Duration":75188,"SoundDuration":75188,"Delta":75318536},{"NoteNumber":83,"Velocity":45,"Duration":71770,"SoundDuration":71770,"Delta":75393724},{"NoteNumber":79,"Velocity":45,"Duration":71770,"SoundDuration":71770,"Delta":75393724},{"NoteNumber":66,"Velocity":55,"Duration":215310,"SoundDuration":215310,"Delta":75393724},{"NoteNumber":67,"Velocity":50,"Duration":77319,"SoundDuration":77319,"Delta":75609035},{"NoteNumber":83,"Velocity":50,"Duration":74073,"SoundDuration":74073,"Delta":75686354},{"NoteNumber":79,"Velocity":50,"Duration":74073,"SoundDuration":74073,"Delta":75686354},{"NoteNumber":64,"Velocity":56,"Duration":222222,"SoundDuration":222222,"Delta":75686354},{"NoteNumber":66,"Velocity":52,"Duration":74073,"SoundDuration":74073,"Delta":75908576},{"NoteNumber":83,"Velocity":45,"Duration":74073,"SoundDuration":74073,"Delta":75982650},{"NoteNumber":79,"Velocity":45,"Duration":74073,"SoundDuration":74073,"Delta":75982650},{"NoteNumber":62,"Velocity":57,"Duration":222222,"SoundDuration":222222,"Delta":75982650},{"NoteNumber":64,"Velocity":53,"Duration":74073,"SoundDuration":74073,"Delta":76204872},{"NoteNumber":83,"Velocity":45,"Duration":74074,"SoundDuration":74074,"Delta":76278946},{"NoteNumber":79,"Velocity":45,"Duration":74074,"SoundDuration":74074,"Delta":76278946},{"NoteNumber":60,"Velocity":59,"Duration":222222,"SoundDuration":222222,"Delta":76278946},{"NoteNumber":62,"Velocity":54,"Duration":91185,"SoundDuration":91185,"Delta":76501168},{"NoteNumber":83,"Velocity":58,"Duration":298507,"SoundDuration":298507,"Delta":76592354},{"NoteNumber":79,"Velocity":58,"Duration":298507,"SoundDuration":298507,"Delta":76592354},{"NoteNumber":59,"Velocity":61,"Duration":223880,"SoundDuration":223880,"Delta":76592354},{"NoteNumber":60,"Velocity":56,"Duration":74626,"SoundDuration":74626,"Delta":76816234},{"NoteNumber":84,"Velocity":50,"Duration":298507,"SoundDuration":298507,"Delta":76890861},{"NoteNumber":81,"Velocity":50,"Duration":298507,"SoundDuration":298507,"Delta":76890861},{"NoteNumber":57,"Velocity":62,"Duration":223880,"SoundDuration":223880,"Delta":76890861},{"NoteNumber":59,"Velocity":57,"Duration":74626,"SoundDuration":74626,"Delta":77114741},{"NoteNumber":86,"Velocity":50,"Duration":310400,"SoundDuration":310400,"Delta":77189368},{"NoteNumber":83,"Velocity":50,"Duration":310400,"SoundDuration":310400,"Delta":77189368},{"NoteNumber":55,"Velocity":63,"Duration":310400,"SoundDuration":310400,"Delta":77189368},{"NoteNumber":84,"Velocity":60,"Duration":99502,"SoundDuration":99502,"Delta":77499769},{"NoteNumber":60,"Velocity":61,"Duration":298507,"SoundDuration":298507,"Delta":77499769},{"NoteNumber":81,"Velocity":51,"Duration":99502,"SoundDuration":99502,"Delta":77599271},{"NoteNumber":76,"Velocity":51,"Duration":99502,"SoundDuration":99502,"Delta":77698773},{"NoteNumber":83,"Velocity":59,"Duration":99502,"SoundDuration":99502,"Delta":77798276},{"NoteNumber":62,"Velocity":63,"Duration":298507,"SoundDuration":298507,"Delta":77798276},{"NoteNumber":79,"Velocity":50,"Duration":99502,"SoundDuration":99502,"Delta":77897778},{"NoteNumber":74,"Velocity":51,"Duration":99502,"SoundDuration":99502,"Delta":77997280},{"NoteNumber":81,"Velocity":59,"Duration":99502,"SoundDuration":99502,"Delta":78096783},{"NoteNumber":62,"Velocity":65,"Duration":303880,"SoundDuration":303880,"Delta":78096783},{"NoteNumber":78,"Velocity":52,"Duration":99502,"SoundDuration":99502,"Delta":78196285},{"NoteNumber":72,"Velocity":52,"Duration":104875,"SoundDuration":104875,"Delta":78295787},{"NoteNumber":67,"Velocity":74,"Duration":426974,"SoundDuration":426974,"Delta":78400663},{"NoteNumber":83,"Velocity":60,"Duration":75000,"SoundDuration":75000,"Delta":78727638},{"NoteNumber":79,"Velocity":51,"Duration":75000,"SoundDuration":75000,"Delta":78727638},{"NoteNumber":69,"Velocity":56,"Duration":100000,"SoundDuration":100000,"Delta":78827638},{"NoteNumber":67,"Velocity":56,"Duration":99999,"SoundDuration":99999,"Delta":78927638},{"NoteNumber":83,"Velocity":59,"Duration":71770,"SoundDuration":71770,"Delta":79027638},{"NoteNumber":79,"Velocity":50,"Duration":71770,"SoundDuration":71770,"Delta":79027638},{"NoteNumber":66,"Velocity":65,"Duration":95693,"SoundDuration":95693,"Delta":79027638},{"NoteNumber":67,"Velocity":56,"Duration":95693,"SoundDuration":95693,"Delta":79123331},{"NoteNumber":66,"Velocity":57,"Duration":101242,"SoundDuration":101242,"Delta":79219025},{"NoteNumber":79,"Velocity":57,"Duration":74073,"SoundDuration":74073,"Delta":79320268},{"NoteNumber":83,"Velocity":68,"Duration":74073,"SoundDuration":74073,"Delta":79320268},{"NoteNumber":64,"Velocity":65,"Duration":98765,"SoundDuration":98765,"Delta":79320268},{"NoteNumber":66,"Velocity":57,"Duration":98765,"SoundDuration":98765,"Delta":79419033},{"NoteNumber":64,"Velocity":57,"Duration":98765,"SoundDuration":98765,"Delta":79517799},{"NoteNumber":83,"Velocity":60,"Duration":74073,"SoundDuration":74073,"Delta":79616564},{"NoteNumber":79,"Velocity":51,"Duration":74073,"SoundDuration":74073,"Delta":79616564},{"NoteNumber":62,"Velocity":65,"Duration":98765,"SoundDuration":98765,"Delta":79616564},{"NoteNumber":64,"Velocity":60,"Duration":98765,"SoundDuration":98765,"Delta":79715329},{"NoteNumber":62,"Velocity":60,"Duration":98765,"SoundDuration":98765,"Delta":79814095},{"NoteNumber":79,"Velocity":50,"Duration":74074,"SoundDuration":74074,"Delta":79912860},{"NoteNumber":83,"Velocity":59,"Duration":74074,"SoundDuration":74074,"Delta":79912860},{"NoteNumber":60,"Velocity":65,"Duration":98765,"SoundDuration":98765,"Delta":79912860},{"NoteNumber":62,"Velocity":59,"Duration":98765,"SoundDuration":98765,"Delta":80011625},{"NoteNumber":60,"Velocity":59,"Duration":115876,"SoundDuration":115876,"Delta":80110391},{"NoteNumber":83,"Velocity":74,"Duration":298507,"SoundDuration":298507,"Delta":80226267},{"NoteNumber":79,"Velocity":62,"Duration":298507,"SoundDuration":298507,"Delta":80226267},{"NoteNumber":59,"Velocity":65,"Duration":99502,"SoundDuration":99502,"Delta":80226267},{"NoteNumber":60,"Velocity":58,"Duration":99502,"SoundDuration":99502,"Delta":80325770},{"NoteNumber":59,"Velocity":58,"Duration":99502,"SoundDuration":99502,"Delta":80425272},{"NoteNumber":81,"Velocity":60,"Duration":298507,"SoundDuration":298507,"Delta":80524774},{"NoteNumber":84,"Velocity":71,"Duration":298507,"SoundDuration":298507,"Delta":80524774},{"NoteNumber":57,"Velocity":65,"Duration":99502,"SoundDuration":99502,"Delta":80524774},{"NoteNumber":59,"Velocity":58,"Duration":99502,"SoundDuration":99502,"Delta":80624277},{"NoteNumber":57,"Velocity":58,"Duration":99502,"SoundDuration":99502,"Delta":80723779},{"NoteNumber":86,"Velocity":75,"Duration":327826,"SoundDuration":327826,"Delta":80823281},{"NoteNumber":83,"Velocity":63,"Duration":327826,"SoundDuration":327826,"Delta":80823281},{"NoteNumber":55,"Velocity":65,"Duration":327826,"SoundDuration":327826,"Delta":80823281},{"NoteNumber":84,"Velocity":75,"Duration":99502,"SoundDuration":99502,"Delta":81151108},{"NoteNumber":60,"Velocity":61,"Duration":298507,"SoundDuration":298507,"Delta":81151108},{"NoteNumber":81,"Velocity":60,"Duration":99502,"SoundDuration":99502,"Delta":81250610},{"NoteNumber":76,"Velocity":60,"Duration":99502,"SoundDuration":99502,"Delta":81350112},{"NoteNumber":83,"Velocity":72,"Duration":99502,"SoundDuration":99502,"Delta":81449615},{"NoteNumber":62,"Velocity":63,"Duration":298507,"SoundDuration":298507,"Delta":81449615},{"NoteNumber":79,"Velocity":57,"Duration":99502,"SoundDuration":99502,"Delta":81549117},{"NoteNumber":74,"Velocity":57,"Duration":99502,"SoundDuration":99502,"Delta":81648619},{"NoteNumber":81,"Velocity":70,"Duration":99502,"SoundDuration":99502,"Delta":81748122},{"NoteNumber":62,"Velocity":65,"Duration":305847,"SoundDuration":305847,"Delta":81748122},{"NoteNumber":78,"Velocity":58,"Duration":99502,"SoundDuration":99502,"Delta":81847624},{"NoteNumber":72,"Velocity":58,"Duration":106842,"SoundDuration":106842,"Delta":81947126},{"NoteNumber":79,"Velocity":70,"Duration":1791636,"SoundDuration":1791636,"Delta":82053969},{"NoteNumber":71,"Velocity":70,"Duration":1494804,"SoundDuration":1494804,"Delta":82053969},{"NoteNumber":55,"Velocity":61,"Duration":297766,"SoundDuration":297766,"Delta":82053969},{"NoteNumber":67,"Velocity":54,"Duration":526315,"SoundDuration":526315,"Delta":82947270},{"NoteNumber":69,"Velocity":46,"Duration":75188,"SoundDuration":75188,"Delta":83473586},{"NoteNumber":65,"Velocity":52,"Duration":219512,"SoundDuration":219512,"Delta":83548774},{"NoteNumber":67,"Velocity":47,"Duration":77319,"SoundDuration":77319,"Delta":83768286},{"NoteNumber":79,"Velocity":54,"Duration":526315,"SoundDuration":526315,"Delta":83845606},{"NoteNumber":64,"Velocity":54,"Duration":1206338,"SoundDuration":1206338,"Delta":83845606},{"NoteNumber":70,"Velocity":53,"Duration":225563,"SoundDuration":225563,"Delta":84146358},{"NoteNumber":81,"Velocity":49,"Duration":75188,"SoundDuration":75188,"Delta":84371922},{"NoteNumber":72,"Velocity":46,"Duration":75188,"SoundDuration":75188,"Delta":84371922},{"NoteNumber":77,"Velocity":55,"Duration":220049,"SoundDuration":220049,"Delta":84447110},{"NoteNumber":69,"Velocity":52,"Duration":220049,"SoundDuration":220049,"Delta":84447110},{"NoteNumber":79,"Velocity":50,"Duration":84033,"SoundDuration":84033,"Delta":84667159},{"NoteNumber":70,"Velocity":52,"Duration":84033,"SoundDuration":84033,"Delta":84667159},{"NoteNumber":76,"Velocity":54,"Duration":526315,"SoundDuration":526315,"Delta":84751193},{"NoteNumber":67,"Velocity":54,"Duration":300752,"SoundDuration":300752,"Delta":84751193},{"NoteNumber":67,"Velocity":46,"Duration":300752,"SoundDuration":300752,"Delta":85051945},{"NoteNumber":70,"Velocity":46,"Duration":300752,"SoundDuration":300752,"Delta":85051945},{"NoteNumber":77,"Velocity":49,"Duration":75188,"SoundDuration":75188,"Delta":85277509},{"NoteNumber":74,"Velocity":55,"Duration":219512,"SoundDuration":219512,"Delta":85352697},{"NoteNumber":65,"Velocity":48,"Duration":302385,"SoundDuration":302385,"Delta":85352697},{"NoteNumber":69,"Velocity":48,"Duration":302385,"SoundDuration":302385,"Delta":85352697},{"NoteNumber":76,"Velocity":50,"Duration":82873,"SoundDuration":82873,"Delta":85572209},{"NoteNumber":73,"Velocity":55,"Duration":301507,"SoundDuration":301507,"Delta":85655082},{"NoteNumber":64,"Velocity":48,"Duration":301507,"SoundDuration":301507,"Delta":85655082},{"NoteNumber":67,"Velocity":48,"Duration":301507,"SoundDuration":301507,"Delta":85655082},{"NoteNumber":70,"Velocity":55,"Duration":301507,"SoundDuration":301507,"Delta":85956590},{"NoteNumber":73,"Velocity":55,"Duration":301507,"SoundDuration":301507,"Delta":85956590},{"NoteNumber":55,"Velocity":53,"Duration":226130,"SoundDuration":226130,"Delta":85956590},{"NoteNumber":57,"Velocity":43,"Duration":75377,"SoundDuration":75377,"Delta":86182721},{"NoteNumber":74,"Velocity":55,"Duration":304622,"SoundDuration":304622,"Delta":86258098},{"NoteNumber":69,"Velocity":55,"Duration":304622,"SoundDuration":304622,"Delta":86258098},{"NoteNumber":53,"Velocity":53,"Duration":220588,"SoundDuration":220588,"Delta":86258098},{"NoteNumber":55,"Velocity":42,"Duration":84033,"SoundDuration":84033,"Delta":86478686},{"NoteNumber":67,"Velocity":55,"Duration":299999,"SoundDuration":299999,"Delta":86562720},{"NoteNumber":76,"Velocity":55,"Duration":299999,"SoundDuration":299999,"Delta":86562720},{"NoteNumber":52,"Velocity":53,"Duration":224999,"SoundDuration":224999,"Delta":86562720},{"NoteNumber":53,"Velocity":42,"Duration":75000,"SoundDuration":75000,"Delta":86787720},{"NoteNumber":65,"Velocity":55,"Duration":299303,"SoundDuration":299303,"Delta":86862720},{"NoteNumber":77,"Velocity":55,"Duration":222772,"SoundDuration":222772,"Delta":86862720},{"NoteNumber":50,"Velocity":53,"Duration":299303,"SoundDuration":299303,"Delta":86862720},{"NoteNumber":79,"Velocity":45,"Duration":76530,"SoundDuration":76530,"Delta":87085492},{"NoteNumber":76,"Velocity":55,"Duration":226130,"SoundDuration":226130,"Delta":87162023},{"NoteNumber":52,"Velocity":53,"Duration":304871,"SoundDuration":304871,"Delta":87162023},{"NoteNumber":55,"Velocity":53,"Duration":304871,"SoundDuration":304871,"Delta":87162023},{"NoteNumber":77,"Velocity":45,"Duration":78740,"SoundDuration":78740,"Delta":87388154},{"NoteNumber":74,"Velocity":60,"Duration":522387,"SoundDuration":522387,"Delta":87466894},{"NoteNumber":53,"Velocity":53,"Duration":597014,"SoundDuration":597014,"Delta":87466894},{"NoteNumber":57,"Velocity":53,"Duration":892380,"SoundDuration":892380,"Delta":87466894},{"NoteNumber":76,"Velocity":49,"Duration":74626,"SoundDuration":74626,"Delta":87989281},{"NoteNumber":72,"Velocity":56,"Duration":214285,"SoundDuration":214285,"Delta":88063908},{"NoteNumber":54,"Velocity":53,"Duration":295366,"SoundDuration":295366,"Delta":88063908},{"NoteNumber":74,"Velocity":47,"Duration":81080,"SoundDuration":81080,"Delta":88278194},{"NoteNumber":67,"Velocity":55,"Duration":310880,"SoundDuration":310880,"Delta":88359275},{"NoteNumber":71,"Velocity":55,"Duration":233160,"SoundDuration":233160,"Delta":88359275},{"NoteNumber":55,"Velocity":53,"Duration":310880,"SoundDuration":310880,"Delta":88359275},{"NoteNumber":74,"Velocity":43,"Duration":77720,"SoundDuration":77720,"Delta":88592435},{"NoteNumber":69,"Velocity":52,"Duration":324324,"SoundDuration":324324,"Delta":88670156},{"NoteNumber":72,"Velocity":52,"Duration":243243,"SoundDuration":243243,"Delta":88670156},{"NoteNumber":76,"Velocity":36,"Duration":81080,"SoundDuration":81080,"Delta":88913399},{"NoteNumber":71,"Velocity":44,"Duration":375719,"SoundDuration":375719,"Delta":88994480},{"NoteNumber":74,"Velocity":44,"Duration":257142,"SoundDuration":257142,"Delta":88994480},{"NoteNumber":77,"Velocity":42,"Duration":118577,"SoundDuration":118577,"Delta":89251622},{"NoteNumber":72,"Velocity":40,"Duration":601504,"SoundDuration":601504,"Delta":89370199},{"NoteNumber":76,"Velocity":48,"Duration":526315,"SoundDuration":526315,"Delta":89370199},{"NoteNumber":64,"Velocity":33,"Duration":300752,"SoundDuration":300752,"Delta":89670951},{"NoteNumber":60,"Velocity":27,"Duration":300752,"SoundDuration":300752,"Delta":89670951},{"NoteNumber":77,"Velocity":41,"Duration":75188,"SoundDuration":75188,"Delta":89896515},{"NoteNumber":71,"Velocity":40,"Duration":292630,"SoundDuration":292630,"Delta":89971703},{"NoteNumber":74,"Velocity":45,"Duration":215310,"SoundDuration":215310,"Delta":89971703},{"NoteNumber":55,"Velocity":27,"Duration":292630,"SoundDuration":292630,"Delta":89971703},{"NoteNumber":65,"Velocity":33,"Duration":292630,"SoundDuration":292630,"Delta":89971703},{"NoteNumber":76,"Velocity":41,"Duration":77319,"SoundDuration":77319,"Delta":90187014},{"NoteNumber":72,"Velocity":45,"Duration":75187,"SoundDuration":75187,"Delta":90264334},{"NoteNumber":60,"Velocity":30,"Duration":75187,"SoundDuration":75187,"Delta":90264334},{"NoteNumber":64,"Velocity":36,"Duration":75187,"SoundDuration":75187,"Delta":90264334},{"NoteNumber":79,"Velocity":43,"Duration":75187,"SoundDuration":75187,"Delta":90565086},{"NoteNumber":79,"Velocity":43,"Duration":76142,"SoundDuration":76142,"Delta":90865838},{"NoteNumber":79,"Velocity":45,"Duration":147783,"SoundDuration":147783,"Delta":91170407},{"NoteNumber":59,"Velocity":30,"Duration":595613,"SoundDuration":595613,"Delta":91170407},{"NoteNumber":67,"Velocity":36,"Duration":1209512,"SoundDuration":1209512,"Delta":91170407},{"NoteNumber":77,"Velocity":41,"Duration":75187,"SoundDuration":75187,"Delta":91318190},{"NoteNumber":77,"Velocity":45,"Duration":146699,"SoundDuration":146699,"Delta":91468566},{"NoteNumber":76,"Velocity":41,"Duration":75377,"SoundDuration":75377,"Delta":91615266},{"NoteNumber":76,"Velocity":45,"Duration":147419,"SoundDuration":147419,"Delta":91766020},{"NoteNumber":60,"Velocity":33,"Duration":306994,"SoundDuration":306994,"Delta":91766020},{"NoteNumber":74,"Velocity":40,"Duration":79787,"SoundDuration":79787,"Delta":91913440},{"NoteNumber":74,"Velocity":45,"Duration":76726,"SoundDuration":76726,"Delta":92073014},{"NoteNumber":55,"Velocity":36,"Duration":76726,"SoundDuration":76726,"Delta":92073014},{"NoteNumber":71,"Velocity":41,"Duration":74813,"SoundDuration":74813,"Delta":92379919},{"NoteNumber":67,"Velocity":41,"Duration":74813,"SoundDuration":74813,"Delta":92679171},{"NoteNumber":76,"Velocity":72,"Duration":517619,"SoundDuration":517619,"Delta":92978423},{"NoteNumber":60,"Velocity":40,"Duration":293790,"SoundDuration":293790,"Delta":93279175},{"NoteNumber":67,"Velocity":48,"Duration":293790,"SoundDuration":293790,"Delta":93279175},{"NoteNumber":77,"Velocity":59,"Duration":76922,"SoundDuration":76922,"Delta":93496043},{"NoteNumber":74,"Velocity":69,"Duration":227720,"SoundDuration":227720,"Delta":93572966},{"NoteNumber":67,"Velocity":48,"Duration":305440,"SoundDuration":305440,"Delta":93572966},{"NoteNumber":65,"Velocity":40,"Duration":305440,"SoundDuration":305440,"Delta":93572966},{"NoteNumber":76,"Velocity":64,"Duration":77720,"SoundDuration":77720,"Delta":93800686},{"NoteNumber":72,"Velocity":70,"Duration":75000,"SoundDuration":75000,"Delta":93878406},{"NoteNumber":64,"Velocity":44,"Duration":75000,"SoundDuration":75000,"Delta":93878406},{"NoteNumber":67,"Velocity":52,"Duration":75000,"SoundDuration":75000,"Delta":93878406},{"NoteNumber":84,"Velocity":70,"Duration":75000,"SoundDuration":75000,"Delta":94178406},{"NoteNumber":84,"Velocity":70,"Duration":76142,"SoundDuration":76142,"Delta":94478406},{"NoteNumber":60,"Velocity":48,"Duration":76142,"SoundDuration":76142,"Delta":94478406},{"NoteNumber":52,"Velocity":40,"Duration":76142,"SoundDuration":76142,"Delta":94478406},{"NoteNumber":80,"Velocity":67,"Duration":72815,"SoundDuration":72815,"Delta":94782975},{"NoteNumber":53,"Velocity":44,"Duration":72815,"SoundDuration":72815,"Delta":94782975},{"NoteNumber":60,"Velocity":52,"Duration":72815,"SoundDuration":72815,"Delta":94782975},{"NoteNumber":81,"Velocity":59,"Duration":72815,"SoundDuration":72815,"Delta":94855791},{"NoteNumber":76,"Velocity":68,"Duration":72815,"SoundDuration":72815,"Delta":95079740},{"NoteNumber":77,"Velocity":59,"Duration":72815,"SoundDuration":72815,"Delta":95152555},{"NoteNumber":74,"Velocity":70,"Duration":72815,"SoundDuration":72815,"Delta":95375747},{"NoteNumber":55,"Velocity":40,"Duration":72815,"SoundDuration":72815,"Delta":95375747},{"NoteNumber":65,"Velocity":48,"Duration":72815,"SoundDuration":72815,"Delta":95375747},{"NoteNumber":71,"Velocity":58,"Duration":72815,"SoundDuration":72815,"Delta":95448562},{"NoteNumber":72,"Velocity":71,"Duration":76335,"SoundDuration":76335,"Delta":95683979},{"NoteNumber":64,"Velocity":52,"Duration":76335,"SoundDuration":76335,"Delta":95683979},{"NoteNumber":60,"Velocity":44,"Duration":76335,"SoundDuration":76335,"Delta":95683979},{"NoteNumber":72,"Velocity":50,"Duration":305344,"SoundDuration":305344,"Delta":96600011},{"NoteNumber":36,"Velocity":40,"Duration":152671,"SoundDuration":152671,"Delta":96600011},{"NoteNumber":48,"Velocity":28,"Duration":152672,"SoundDuration":152672,"Delta":96752683},{"NoteNumber":71,"Velocity":48,"Duration":305343,"SoundDuration":305343,"Delta":96905355},{"NoteNumber":38,"Velocity":32,"Duration":152671,"SoundDuration":152671,"Delta":96905355},{"NoteNumber":50,"Velocity":28,"Duration":152671,"SoundDuration":152671,"Delta":97058027},{"NoteNumber":72,"Velocity":48,"Duration":311402,"SoundDuration":311402,"Delta":97210699},{"NoteNumber":39,"Velocity":32,"Duration":152671,"SoundDuration":152671,"Delta":97210699},{"NoteNumber":51,"Velocity":28,"Duration":158730,"SoundDuration":158730,"Delta":97363371},{"NoteNumber":72,"Velocity":50,"Duration":920573,"SoundDuration":920573,"Delta":97522101},{"NoteNumber":74,"Velocity":50,"Duration":304569,"SoundDuration":304569,"Delta":97522101},{"NoteNumber":41,"Velocity":40,"Duration":152284,"SoundDuration":152284,"Delta":97522101},{"NoteNumber":53,"Velocity":30,"Duration":152284,"SoundDuration":152284,"Delta":97674386},{"NoteNumber":75,"Velocity":49,"Duration":304569,"SoundDuration":304569,"Delta":97826670},{"NoteNumber":43,"Velocity":34,"Duration":152284,"SoundDuration":152284,"Delta":97826670},{"NoteNumber":55,"Velocity":30,"Duration":152284,"SoundDuration":152284,"Delta":97978955},{"NoteNumber":77,"Velocity":54,"Duration":311435,"SoundDuration":311435,"Delta":98131239},{"NoteNumber":44,"Velocity":34,"Duration":152284,"SoundDuration":152284,"Delta":98131239},{"NoteNumber":56,"Velocity":30,"Duration":159150,"SoundDuration":159150,"Delta":98283524},{"NoteNumber":72,"Velocity":55,"Duration":304569,"SoundDuration":304569,"Delta":98442675},{"NoteNumber":75,"Velocity":55,"Duration":304569,"SoundDuration":304569,"Delta":98442675},{"NoteNumber":43,"Velocity":40,"Duration":152284,"SoundDuration":152284,"Delta":98442675},{"NoteNumber":55,"Velocity":32,"Duration":152284,"SoundDuration":152284,"Delta":98594959},{"NoteNumber":71,"Velocity":45,"Duration":304569,"SoundDuration":304569,"Delta":98747244},{"NoteNumber":74,"Velocity":45,"Duration":304569,"SoundDuration":304569,"Delta":98747244},{"NoteNumber":45,"Velocity":37,"Duration":152284,"SoundDuration":152284,"Delta":98747244},{"NoteNumber":57,"Velocity":34,"Duration":152284,"SoundDuration":152284,"Delta":98899528},{"NoteNumber":67,"Velocity":54,"Duration":312500,"SoundDuration":312500,"Delta":99051813},{"NoteNumber":79,"Velocity":54,"Duration":312500,"SoundDuration":312500,"Delta":99051813},{"NoteNumber":47,"Velocity":39,"Duration":156250,"SoundDuration":156250,"Delta":99051813},{"NoteNumber":59,"Velocity":34,"Duration":156250,"SoundDuration":156250,"Delta":99208063},{"NoteNumber":74,"Velocity":52,"Duration":309692,"SoundDuration":309692,"Delta":99364313},{"NoteNumber":77,"Velocity":52,"Duration":309692,"SoundDuration":309692,"Delta":99364313},{"NoteNumber":48,"Velocity":43,"Duration":154549,"SoundDuration":154549,"Delta":99364313},{"NoteNumber":60,"Velocity":31,"Duration":155142,"SoundDuration":155142,"Delta":99518863},{"NoteNumber":72,"Velocity":46,"Duration":311728,"SoundDuration":311728,"Delta":99674005},{"NoteNumber":75,"Velocity":46,"Duration":311728,"SoundDuration":311728,"Delta":99674005},{"NoteNumber":51,"Velocity":36,"Duration":155625,"SoundDuration":155625,"Delta":99674005},{"NoteNumber":63,"Velocity":31,"Duration":156102,"SoundDuration":156102,"Delta":99829631},{"NoteNumber":71,"Velocity":46,"Duration":326876,"SoundDuration":326876,"Delta":99985734},{"NoteNumber":74,"Velocity":46,"Duration":326876,"SoundDuration":326876,"Delta":99985734},{"NoteNumber":55,"Velocity":31,"Duration":159309,"SoundDuration":159309,"Delta":99985734},{"NoteNumber":67,"Velocity":35,"Duration":167566,"SoundDuration":167566,"Delta":100145044},{"NoteNumber":72,"Velocity":59,"Duration":153452,"SoundDuration":153452,"Delta":100312611},{"NoteNumber":56,"Velocity":34,"Duration":921290,"SoundDuration":921290,"Delta":100312611},{"NoteNumber":68,"Velocity":40,"Duration":921290,"SoundDuration":921290,"Delta":100312611},{"NoteNumber":77,"Velocity":53,"Duration":153452,"SoundDuration":153452,"Delta":100466063},{"NoteNumber":76,"Velocity":57,"Duration":153452,"SoundDuration":153452,"Delta":100619516},{"NoteNumber":79,"Velocity":53,"Duration":153452,"SoundDuration":153452,"Delta":100772968},{"NoteNumber":77,"Velocity":57,"Duration":150000,"SoundDuration":150000,"Delta":100926421},{"NoteNumber":84,"Velocity":61,"Duration":157480,"SoundDuration":157480,"Delta":101076421},{"NoteNumber":82,"Velocity":60,"Duration":153452,"SoundDuration":153452,"Delta":101233901},{"NoteNumber":58,"Velocity":32,"Duration":923010,"SoundDuration":923010,"Delta":101233901},{"NoteNumber":56,"Velocity":32,"Duration":613810,"SoundDuration":613810,"Delta":101233901},{"NoteNumber":65,"Velocity":38,"Duration":613810,"SoundDuration":613810,"Delta":101233901},{"NoteNumber":74,"Velocity":53,"Duration":153452,"SoundDuration":153452,"Delta":101387354},{"NoteNumber":75,"Velocity":58,"Duration":153452,"SoundDuration":153452,"Delta":101540806},{"NoteNumber":74,"Velocity":53,"Duration":153452,"SoundDuration":153452,"Delta":101694259},{"NoteNumber":75,"Velocity":58,"Duration":149625,"SoundDuration":149625,"Delta":101847711},{"NoteNumber":55,"Velocity":31,"Duration":309200,"SoundDuration":309200,"Delta":101847711},{"NoteNumber":63,"Velocity":37,"Duration":309200,"SoundDuration":309200,"Delta":101847711},{"NoteNumber":82,"Velocity":62,"Duration":159574,"SoundDuration":159574,"Delta":101997337},{"NoteNumber":72,"Velocity":61,"Duration":150000,"SoundDuration":150000,"Delta":102156912},{"NoteNumber":56,"Velocity":46,"Duration":306657,"SoundDuration":306657,"Delta":102156912},{"NoteNumber":80,"Velocity":53,"Duration":156657,"SoundDuration":156657,"Delta":102306912},{"NoteNumber":79,"Velocity":58,"Duration":151133,"SoundDuration":151133,"Delta":102463570},{"NoteNumber":58,"Velocity":42,"Duration":307383,"SoundDuration":307383,"Delta":102463570},{"NoteNumber":75,"Velocity":53,"Duration":156250,"SoundDuration":156250,"Delta":102614703},{"NoteNumber":77,"Velocity":59,"Duration":150754,"SoundDuration":150754,"Delta":102770953},{"NoteNumber":46,"Velocity":44,"Duration":310328,"SoundDuration":310328,"Delta":102770953},{"NoteNumber":74,"Velocity":53,"Duration":159574,"SoundDuration":159574,"Delta":102921707},{"NoteNumber":75,"Velocity":64,"Duration":306122,"SoundDuration":306122,"Delta":103081282},{"NoteNumber":51,"Velocity":45,"Duration":306122,"SoundDuration":306122,"Delta":103081282},{"NoteNumber":55,"Velocity":46,"Duration":153060,"SoundDuration":153060,"Delta":103387404},{"NoteNumber":53,"Velocity":44,"Duration":153061,"SoundDuration":153061,"Delta":103540465},{"NoteNumber":51,"Velocity":40,"Duration":153060,"SoundDuration":153060,"Delta":103693526},{"NoteNumber":50,"Velocity":36,"Duration":153061,"SoundDuration":153061,"Delta":103846587},{"NoteNumber":72,"Velocity":50,"Duration":305344,"SoundDuration":305344,"Delta":103999648},{"NoteNumber":36,"Velocity":40,"Duration":152671,"SoundDuration":152671,"Delta":103999648},{"NoteNumber":48,"Velocity":28,"Duration":152672,"SoundDuration":152672,"Delta":104152320},{"NoteNumber":71,"Velocity":48,"Duration":305343,"SoundDuration":305343,"Delta":104304992},{"NoteNumber":38,"Velocity":32,"Duration":152671,"SoundDuration":152671,"Delta":104304992},{"NoteNumber":50,"Velocity":28,"Duration":152671,"SoundDuration":152671,"Delta":104457664},{"NoteNumber":72,"Velocity":48,"Duration":311402,"SoundDuration":311402,"Delta":104610336},{"NoteNumber":39,"Velocity":32,"Duration":152672,"SoundDuration":152672,"Delta":104610336},{"NoteNumber":51,"Velocity":28,"Duration":158730,"SoundDuration":158730,"Delta":104763008},{"NoteNumber":72,"Velocity":50,"Duration":920573,"SoundDuration":920573,"Delta":104921738},{"NoteNumber":74,"Velocity":50,"Duration":304569,"SoundDuration":304569,"Delta":104921738},{"NoteNumber":41,"Velocity":40,"Duration":152284,"SoundDuration":152284,"Delta":104921738},{"NoteNumber":53,"Velocity":30,"Duration":152284,"SoundDuration":152284,"Delta":105074022},{"NoteNumber":75,"Velocity":49,"Duration":304569,"SoundDuration":304569,"Delta":105226307},{"NoteNumber":43,"Velocity":34,"Duration":152284,"SoundDuration":152284,"Delta":105226307},{"NoteNumber":55,"Velocity":30,"Duration":152284,"SoundDuration":152284,"Delta":105378591},{"NoteNumber":77,"Velocity":54,"Duration":311435,"SoundDuration":311435,"Delta":105530876},{"NoteNumber":44,"Velocity":34,"Duration":152284,"SoundDuration":152284,"Delta":105530876},{"NoteNumber":56,"Velocity":30,"Duration":159150,"SoundDuration":159150,"Delta":105683160},{"NoteNumber":72,"Velocity":55,"Duration":304569,"SoundDuration":304569,"Delta":105842311},{"NoteNumber":75,"Velocity":55,"Duration":304569,"SoundDuration":304569,"Delta":105842311},{"NoteNumber":43,"Velocity":40,"Duration":152284,"SoundDuration":152284,"Delta":105842311},{"NoteNumber":55,"Velocity":32,"Duration":152284,"SoundDuration":152284,"Delta":105994596},{"NoteNumber":71,"Velocity":45,"Duration":304569,"SoundDuration":304569,"Delta":106146880},{"NoteNumber":74,"Velocity":45,"Duration":304569,"SoundDuration":304569,"Delta":106146880},{"NoteNumber":45,"Velocity":37,"Duration":152284,"SoundDuration":152284,"Delta":106146880},{"NoteNumber":57,"Velocity":34,"Duration":152284,"SoundDuration":152284,"Delta":106299165},{"NoteNumber":67,"Velocity":54,"Duration":312500,"SoundDuration":312500,"Delta":106451449},{"NoteNumber":79,"Velocity":54,"Duration":312500,"SoundDuration":312500,"Delta":106451449},{"NoteNumber":47,"Velocity":39,"Duration":156250,"SoundDuration":156250,"Delta":106451449},{"NoteNumber":59,"Velocity":34,"Duration":156250,"SoundDuration":156250,"Delta":106607699},{"NoteNumber":74,"Velocity":52,"Duration":309692,"SoundDuration":309692,"Delta":106763949},{"NoteNumber":77,"Velocity":52,"Duration":309692,"SoundDuration":309692,"Delta":106763949},{"NoteNumber":48,"Velocity":43,"Duration":154549,"SoundDuration":154549,"Delta":106763949},{"NoteNumber":60,"Velocity":31,"Duration":155142,"SoundDuration":155142,"Delta":106918499},{"NoteNumber":72,"Velocity":46,"Duration":311728,"SoundDuration":311728,"Delta":107073642},{"NoteNumber":75,"Velocity":46,"Duration":311728,"SoundDuration":311728,"Delta":107073642},{"NoteNumber":51,"Velocity":36,"Duration":155625,"SoundDuration":155625,"Delta":107073642},{"NoteNumber":63,"Velocity":31,"Duration":156102,"SoundDuration":156102,"Delta":107229267},{"NoteNumber":71,"Velocity":46,"Duration":326876,"SoundDuration":326876,"Delta":107385370},{"NoteNumber":74,"Velocity":46,"Duration":326876,"SoundDuration":326876,"Delta":107385370},{"NoteNumber":55,"Velocity":31,"Duration":159309,"SoundDuration":159309,"Delta":107385370},{"NoteNumber":67,"Velocity":35,"Duration":167566,"SoundDuration":167566,"Delta":107544680},{"NoteNumber":72,"Velocity":59,"Duration":153452,"SoundDuration":153452,"Delta":107712247},{"NoteNumber":56,"Velocity":34,"Duration":921290,"SoundDuration":921290,"Delta":107712247},{"NoteNumber":68,"Velocity":40,"Duration":921290,"SoundDuration":921290,"Delta":107712247},{"NoteNumber":77,"Velocity":53,"Duration":153452,"SoundDuration":153452,"Delta":107865700},{"NoteNumber":76,"Velocity":57,"Duration":153452,"SoundDuration":153452,"Delta":108019152},{"NoteNumber":79,"Velocity":53,"Duration":153452,"SoundDuration":153452,"Delta":108172605},{"NoteNumber":77,"Velocity":57,"Duration":150000,"SoundDuration":150000,"Delta":108326057},{"NoteNumber":84,"Velocity":61,"Duration":157480,"SoundDuration":157480,"Delta":108476057},{"NoteNumber":82,"Velocity":60,"Duration":153452,"SoundDuration":153452,"Delta":108633538},{"NoteNumber":58,"Velocity":32,"Duration":923010,"SoundDuration":923010,"Delta":108633538},{"NoteNumber":56,"Velocity":32,"Duration":613810,"SoundDuration":613810,"Delta":108633538},{"NoteNumber":65,"Velocity":38,"Duration":613810,"SoundDuration":613810,"Delta":108633538},{"NoteNumber":74,"Velocity":53,"Duration":153452,"SoundDuration":153452,"Delta":108786990},{"NoteNumber":75,"Velocity":58,"Duration":153452,"SoundDuration":153452,"Delta":108940443},{"NoteNumber":74,"Velocity":53,"Duration":153452,"SoundDuration":153452,"Delta":109093895},{"NoteNumber":75,"Velocity":58,"Duration":149625,"SoundDuration":149625,"Delta":109247348},{"NoteNumber":55,"Velocity":31,"Duration":309200,"SoundDuration":309200,"Delta":109247348},{"NoteNumber":63,"Velocity":37,"Duration":309200,"SoundDuration":309200,"Delta":109247348},{"NoteNumber":82,"Velocity":62,"Duration":159574,"SoundDuration":159574,"Delta":109396974},{"NoteNumber":72,"Velocity":61,"Duration":150000,"SoundDuration":150000,"Delta":109556548},{"NoteNumber":56,"Velocity":46,"Duration":306657,"SoundDuration":306657,"Delta":109556548},{"NoteNumber":80,"Velocity":53,"Duration":156657,"SoundDuration":156657,"Delta":109706548},{"NoteNumber":79,"Velocity":58,"Duration":151133,"SoundDuration":151133,"Delta":109863206},{"NoteNumber":58,"Velocity":42,"Duration":307383,"SoundDuration":307383,"Delta":109863206},{"NoteNumber":75,"Velocity":53,"Duration":156250,"SoundDuration":156250,"Delta":110014340},{"NoteNumber":77,"Velocity":59,"Duration":150754,"SoundDuration":150754,"Delta":110170590},{"NoteNumber":46,"Velocity":44,"Duration":310328,"SoundDuration":310328,"Delta":110170590},{"NoteNumber":74,"Velocity":53,"Duration":159574,"SoundDuration":159574,"Delta":110321344},{"NoteNumber":75,"Velocity":64,"Duration":310078,"SoundDuration":310078,"Delta":110480918},{"NoteNumber":51,"Velocity":45,"Duration":310078,"SoundDuration":310078,"Delta":110480918},{"NoteNumber":46,"Velocity":46,"Duration":332409,"SoundDuration":332409,"Delta":110790996},{"NoteNumber":39,"Velocity":41,"Duration":363635,"SoundDuration":363635,"Delta":111123406},{"NoteNumber":67,"Velocity":55,"Duration":924650,"SoundDuration":924650,"Delta":111487042},{"NoteNumber":79,"Velocity":67,"Duration":152671,"SoundDuration":152671,"Delta":111487042},{"NoteNumber":63,"Velocity":48,"Duration":152671,"SoundDuration":152671,"Delta":111487042},{"NoteNumber":78,"Velocity":57,"Duration":152672,"SoundDuration":152672,"Delta":111639714},{"NoteNumber":62,"Velocity":43,"Duration":152672,"SoundDuration":152672,"Delta":111639714},{"NoteNumber":79,"Velocity":67,"Duration":152671,"SoundDuration":152671,"Delta":111792386},{"NoteNumber":63,"Velocity":48,"Duration":152671,"SoundDuration":152671,"Delta":111792386},{"NoteNumber":75,"Velocity":57,"Duration":152671,"SoundDuration":152671,"Delta":111945058},{"NoteNumber":60,"Velocity":43,"Duration":152671,"SoundDuration":152671,"Delta":111945058},{"NoteNumber":74,"Velocity":67,"Duration":152672,"SoundDuration":152672,"Delta":112097730},{"NoteNumber":62,"Velocity":48,"Duration":152672,"SoundDuration":152672,"Delta":112097730},{"NoteNumber":72,"Velocity":60,"Duration":161290,"SoundDuration":161290,"Delta":112250402},{"NoteNumber":63,"Velocity":42,"Duration":161290,"SoundDuration":161290,"Delta":112250402},{"NoteNumber":71,"Velocity":55,"Duration":943539,"SoundDuration":943539,"Delta":112411693},{"NoteNumber":68,"Velocity":67,"Duration":152671,"SoundDuration":152671,"Delta":112411693},{"NoteNumber":65,"Velocity":43,"Duration":152671,"SoundDuration":152671,"Delta":112411693},{"NoteNumber":67,"Velocity":58,"Duration":152672,"SoundDuration":152672,"Delta":112564365},{"NoteNumber":64,"Velocity":36,"Duration":152672,"SoundDuration":152672,"Delta":112564365},{"NoteNumber":68,"Velocity":67,"Duration":152671,"SoundDuration":152671,"Delta":112717037},{"NoteNumber":65,"Velocity":43,"Duration":151399,"SoundDuration":151399,"Delta":112717037},{"NoteNumber":65,"Velocity":58,"Duration":152671,"SoundDuration":152671,"Delta":112869709},{"NoteNumber":62,"Velocity":38,"Duration":152671,"SoundDuration":152671,"Delta":112869709},{"NoteNumber":67,"Velocity":67,"Duration":152672,"SoundDuration":152672,"Delta":113022381},{"NoteNumber":63,"Velocity":43,"Duration":152672,"SoundDuration":152672,"Delta":113022381},{"NoteNumber":68,"Velocity":58,"Duration":180179,"SoundDuration":180179,"Delta":113175053},{"NoteNumber":65,"Velocity":36,"Duration":180179,"SoundDuration":180179,"Delta":113175053},{"NoteNumber":67,"Velocity":38,"Duration":924650,"SoundDuration":924650,"Delta":113355233},{"NoteNumber":79,"Velocity":46,"Duration":152671,"SoundDuration":152671,"Delta":113355233},{"NoteNumber":63,"Velocity":33,"Duration":152671,"SoundDuration":152671,"Delta":113355233},{"NoteNumber":78,"Velocity":39,"Duration":152672,"SoundDuration":152672,"Delta":113507905},{"NoteNumber":62,"Velocity":30,"Duration":152672,"SoundDuration":152672,"Delta":113507905},{"NoteNumber":79,"Velocity":46,"Duration":152671,"SoundDuration":152671,"Delta":113660577},{"NoteNumber":63,"Velocity":33,"Duration":152671,"SoundDuration":152671,"Delta":113660577},{"NoteNumber":75,"Velocity":39,"Duration":152671,"SoundDuration":152671,"Delta":113813249},{"NoteNumber":60,"Velocity":30,"Duration":152671,"SoundDuration":152671,"Delta":113813249},{"NoteNumber":74,"Velocity":46,"Duration":152672,"SoundDuration":152672,"Delta":113965921},{"NoteNumber":62,"Velocity":33,"Duration":152672,"SoundDuration":152672,"Delta":113965921},{"NoteNumber":72,"Velocity":42,"Duration":161290,"SoundDuration":161290,"Delta":114118593},{"NoteNumber":63,"Velocity":29,"Duration":161290,"SoundDuration":161290,"Delta":114118593},{"NoteNumber":71,"Velocity":38,"Duration":926403,"SoundDuration":926403,"Delta":114279883},{"NoteNumber":68,"Velocity":46,"Duration":152671,"SoundDuration":152671,"Delta":114279883},{"NoteNumber":65,"Velocity":33,"Duration":152671,"SoundDuration":152671,"Delta":114279883},{"NoteNumber":67,"Velocity":40,"Duration":152672,"SoundDuration":152672,"Delta":114432555},{"NoteNumber":64,"Velocity":28,"Duration":152672,"SoundDuration":152672,"Delta":114432555},{"NoteNumber":68,"Velocity":47,"Duration":152671,"SoundDuration":152671,"Delta":114585227},{"NoteNumber":65,"Velocity":33,"Duration":151399,"SoundDuration":151399,"Delta":114585227},{"NoteNumber":65,"Velocity":42,"Duration":152671,"SoundDuration":152671,"Delta":114737899},{"NoteNumber":62,"Velocity":31,"Duration":152671,"SoundDuration":152671,"Delta":114737899},{"NoteNumber":67,"Velocity":49,"Duration":152672,"SoundDuration":152672,"Delta":114890571},{"NoteNumber":63,"Velocity":35,"Duration":152672,"SoundDuration":152672,"Delta":114890571},{"NoteNumber":68,"Velocity":43,"Duration":163043,"SoundDuration":163043,"Delta":115043243},{"NoteNumber":65,"Velocity":30,"Duration":163043,"SoundDuration":163043,"Delta":115043243},{"NoteNumber":72,"Velocity":42,"Duration":926403,"SoundDuration":926403,"Delta":115206287},{"NoteNumber":67,"Velocity":51,"Duration":152671,"SoundDuration":152671,"Delta":115206287},{"NoteNumber":63,"Velocity":36,"Duration":152671,"SoundDuration":152671,"Delta":115206287},{"NoteNumber":65,"Velocity":45,"Duration":152672,"SoundDuration":152672,"Delta":115358959},{"NoteNumber":62,"Velocity":31,"Duration":152672,"SoundDuration":152672,"Delta":115358959},{"NoteNumber":67,"Velocity":52,"Duration":152671,"SoundDuration":152671,"Delta":115511631},{"NoteNumber":63,"Velocity":37,"Duration":151399,"SoundDuration":151399,"Delta":115511631},{"NoteNumber":63,"Velocity":46,"Duration":152671,"SoundDuration":152671,"Delta":115664303},{"NoteNumber":60,"Velocity":35,"Duration":152671,"SoundDuration":152671,"Delta":115664303},{"NoteNumber":65,"Velocity":54,"Duration":152672,"SoundDuration":152672,"Delta":115816975},{"NoteNumber":62,"Velocity":39,"Duration":152672,"SoundDuration":152672,"Delta":115816975},{"NoteNumber":67,"Velocity":48,"Duration":163043,"SoundDuration":163043,"Delta":115969647},{"NoteNumber":63,"Velocity":33,"Duration":163043,"SoundDuration":163043,"Delta":115969647},{"NoteNumber":67,"Velocity":46,"Duration":964950,"SoundDuration":964950,"Delta":116132690},{"NoteNumber":74,"Velocity":56,"Duration":152671,"SoundDuration":152671,"Delta":116132690},{"NoteNumber":59,"Velocity":44,"Duration":152671,"SoundDuration":152671,"Delta":116132690},{"NoteNumber":75,"Velocity":50,"Duration":152672,"SoundDuration":152672,"Delta":116285362},{"NoteNumber":60,"Velocity":38,"Duration":152672,"SoundDuration":152672,"Delta":116285362},{"NoteNumber":77,"Velocity":62,"Duration":151515,"SoundDuration":151515,"Delta":116438034},{"NoteNumber":62,"Velocity":48,"Duration":151515,"SoundDuration":151515,"Delta":116438034},{"NoteNumber":74,"Velocity":56,"Duration":154639,"SoundDuration":154639,"Delta":116589549},{"NoteNumber":59,"Velocity":44,"Duration":154639,"SoundDuration":154639,"Delta":116589549},{"NoteNumber":75,"Velocity":67,"Duration":153452,"SoundDuration":153452,"Delta":116744188},{"NoteNumber":60,"Velocity":54,"Duration":153452,"SoundDuration":153452,"Delta":116744188},{"NoteNumber":72,"Velocity":63,"Duration":200000,"SoundDuration":200000,"Delta":116897641},{"NoteNumber":57,"Velocity":48,"Duration":200000,"SoundDuration":200000,"Delta":116897641},{"NoteNumber":67,"Velocity":73,"Duration":1338566,"SoundDuration":1338566,"Delta":117097641},{"NoteNumber":79,"Velocity":73,"Duration":1655468,"SoundDuration":1655468,"Delta":117097641},{"NoteNumber":55,"Velocity":62,"Duration":1338566,"SoundDuration":1338566,"Delta":117097641},{"NoteNumber":81,"Velocity":41,"Duration":77720,"SoundDuration":77720,"Delta":118753109},{"NoteNumber":77,"Velocity":45,"Duration":227272,"SoundDuration":227272,"Delta":118830829},{"NoteNumber":79,"Velocity":41,"Duration":82191,"SoundDuration":82191,"Delta":119058102},{"NoteNumber":76,"Velocity":45,"Duration":575342,"SoundDuration":575342,"Delta":119140293},{"NoteNumber":60,"Velocity":27,"Duration":328766,"SoundDuration":328766,"Delta":119469060},{"NoteNumber":67,"Velocity":33,"Duration":328766,"SoundDuration":328766,"Delta":119469060},{"NoteNumber":77,"Velocity":41,"Duration":82191,"SoundDuration":82191,"Delta":119715636},{"NoteNumber":74,"Velocity":45,"Duration":215310,"SoundDuration":215310,"Delta":119797827},{"NoteNumber":67,"Velocity":33,"Duration":292630,"SoundDuration":292630,"Delta":119797827},{"NoteNumber":65,"Velocity":27,"Duration":292630,"SoundDuration":292630,"Delta":119797827},{"NoteNumber":76,"Velocity":41,"Duration":77319,"SoundDuration":77319,"Delta":120013138},{"NoteNumber":72,"Velocity":45,"Duration":75187,"SoundDuration":75187,"Delta":120090458},{"NoteNumber":64,"Velocity":30,"Duration":75187,"SoundDuration":75187,"Delta":120090458},{"NoteNumber":67,"Velocity":36,"Duration":75187,"SoundDuration":75187,"Delta":120090458},{"NoteNumber":79,"Velocity":43,"Duration":75187,"SoundDuration":75187,"Delta":120391210},{"NoteNumber":79,"Velocity":43,"Duration":76142,"SoundDuration":76142,"Delta":120691962},{"NoteNumber":79,"Velocity":45,"Duration":147783,"SoundDuration":147783,"Delta":120996531},{"NoteNumber":59,"Velocity":30,"Duration":595613,"SoundDuration":595613,"Delta":120996531},{"NoteNumber":67,"Velocity":36,"Duration":1201859,"SoundDuration":1201859,"Delta":120996531},{"NoteNumber":77,"Velocity":41,"Duration":75187,"SoundDuration":75187,"Delta":121144314},{"NoteNumber":77,"Velocity":45,"Duration":146699,"SoundDuration":146699,"Delta":121294690},{"NoteNumber":76,"Velocity":41,"Duration":75377,"SoundDuration":75377,"Delta":121441390},{"NoteNumber":76,"Velocity":45,"Duration":147419,"SoundDuration":147419,"Delta":121592144},{"NoteNumber":60,"Velocity":33,"Duration":306994,"SoundDuration":306994,"Delta":121592144},{"NoteNumber":74,"Velocity":40,"Duration":79787,"SoundDuration":79787,"Delta":121739564},{"NoteNumber":74,"Velocity":45,"Duration":74813,"SoundDuration":74813,"Delta":121899138},{"NoteNumber":55,"Velocity":36,"Duration":74813,"SoundDuration":74813,"Delta":121899138},{"NoteNumber":71,"Velocity":41,"Duration":74813,"SoundDuration":74813,"Delta":122198390},{"NoteNumber":67,"Velocity":41,"Duration":74812,"SoundDuration":74812,"Delta":122497642},{"NoteNumber":76,"Velocity":72,"Duration":517619,"SoundDuration":517619,"Delta":122796894},{"NoteNumber":60,"Velocity":40,"Duration":293790,"SoundDuration":293790,"Delta":123097646},{"NoteNumber":67,"Velocity":48,"Duration":293790,"SoundDuration":293790,"Delta":123097646},{"NoteNumber":77,"Velocity":59,"Duration":76922,"SoundDuration":76922,"Delta":123314514},{"NoteNumber":74,"Velocity":69,"Duration":227720,"SoundDuration":227720,"Delta":123391437},{"NoteNumber":67,"Velocity":48,"Duration":305440,"SoundDuration":305440,"Delta":123391437},{"NoteNumber":65,"Velocity":40,"Duration":305440,"SoundDuration":305440,"Delta":123391437},{"NoteNumber":76,"Velocity":64,"Duration":77720,"SoundDuration":77720,"Delta":123619157},{"NoteNumber":72,"Velocity":70,"Duration":75000,"SoundDuration":75000,"Delta":123696877},{"NoteNumber":64,"Velocity":44,"Duration":75000,"SoundDuration":75000,"Delta":123696877},{"NoteNumber":67,"Velocity":52,"Duration":75000,"SoundDuration":75000,"Delta":123696877},{"NoteNumber":84,"Velocity":70,"Duration":75000,"SoundDuration":75000,"Delta":123996877},{"NoteNumber":84,"Velocity":70,"Duration":76142,"SoundDuration":76142,"Delta":124296877},{"NoteNumber":80,"Velocity":67,"Duration":72815,"SoundDuration":72815,"Delta":124601446},{"NoteNumber":53,"Velocity":44,"Duration":72815,"SoundDuration":72815,"Delta":124601446},{"NoteNumber":60,"Velocity":52,"Duration":72815,"SoundDuration":72815,"Delta":124601446},{"NoteNumber":81,"Velocity":59,"Duration":72815,"SoundDuration":72815,"Delta":124674262},{"NoteNumber":76,"Velocity":68,"Duration":72815,"SoundDuration":72815,"Delta":124898211},{"NoteNumber":77,"Velocity":59,"Duration":72815,"SoundDuration":72815,"Delta":124971026},{"NoteNumber":74,"Velocity":70,"Duration":72815,"SoundDuration":72815,"Delta":125194218},{"NoteNumber":55,"Velocity":40,"Duration":72815,"SoundDuration":72815,"Delta":125194218},{"NoteNumber":65,"Velocity":48,"Duration":72815,"SoundDuration":72815,"Delta":125194218},{"NoteNumber":71,"Velocity":58,"Duration":72815,"SoundDuration":72815,"Delta":125267033},{"NoteNumber":72,"Velocity":71,"Duration":76335,"SoundDuration":76335,"Delta":125502450},{"NoteNumber":64,"Velocity":52,"Duration":76335,"SoundDuration":76335,"Delta":125502450},{"NoteNumber":60,"Velocity":44,"Duration":76335,"SoundDuration":76335,"Delta":125502450},{"NoteNumber":77,"Velocity":45,"Duration":526315,"SoundDuration":526315,"Delta":126418482},{"NoteNumber":59,"Velocity":27,"Duration":300752,"SoundDuration":300752,"Delta":126719234},{"NoteNumber":67,"Velocity":33,"Duration":300752,"SoundDuration":300752,"Delta":126719234},{"NoteNumber":79,"Velocity":41,"Duration":75188,"SoundDuration":75188,"Delta":126944798},{"NoteNumber":76,"Velocity":45,"Duration":226630,"SoundDuration":226630,"Delta":127019986},{"NoteNumber":67,"Velocity":33,"Duration":307276,"SoundDuration":307276,"Delta":127019986},{"NoteNumber":60,"Velocity":27,"Duration":307276,"SoundDuration":307276,"Delta":127019986},{"NoteNumber":77,"Velocity":41,"Duration":80645,"SoundDuration":80645,"Delta":127246617},{"NoteNumber":74,"Velocity":45,"Duration":73891,"SoundDuration":73891,"Delta":127327262},{"NoteNumber":55,"Velocity":30,"Duration":73891,"SoundDuration":73891,"Delta":127327262},{"NoteNumber":67,"Velocity":36,"Duration":73891,"SoundDuration":73891,"Delta":127327262},{"NoteNumber":71,"Velocity":43,"Duration":74441,"SoundDuration":74441,"Delta":127622829},{"NoteNumber":67,"Velocity":43,"Duration":76142,"SoundDuration":76142,"Delta":127920596},{"NoteNumber":84,"Velocity":65,"Duration":526316,"SoundDuration":526316,"Delta":128225165},{"NoteNumber":64,"Velocity":37,"Duration":300752,"SoundDuration":300752,"Delta":128525917},{"NoteNumber":67,"Velocity":46,"Duration":300752,"SoundDuration":300752,"Delta":128525917},{"NoteNumber":86,"Velocity":57,"Duration":75187,"SoundDuration":75187,"Delta":128751481},{"NoteNumber":83,"Velocity":66,"Duration":221675,"SoundDuration":221675,"Delta":128826669},{"NoteNumber":66,"Velocity":46,"Duration":302976,"SoundDuration":302976,"Delta":128826669},{"NoteNumber":62,"Velocity":37,"Duration":302976,"SoundDuration":302976,"Delta":128826669},{"NoteNumber":84,"Velocity":57,"Duration":81300,"SoundDuration":81300,"Delta":129048345},{"NoteNumber":81,"Velocity":65,"Duration":525000,"SoundDuration":525000,"Delta":129129645},{"NoteNumber":60,"Velocity":37,"Duration":299999,"SoundDuration":299999,"Delta":129429645},{"NoteNumber":64,"Velocity":46,"Duration":299999,"SoundDuration":299999,"Delta":129429645},{"NoteNumber":83,"Velocity":57,"Duration":74999,"SoundDuration":74999,"Delta":129654645},{"NoteNumber":79,"Velocity":66,"Duration":221129,"SoundDuration":221129,"Delta":129729645},{"NoteNumber":62,"Velocity":46,"Duration":301992,"SoundDuration":301992,"Delta":129729645},{"NoteNumber":59,"Velocity":37,"Duration":301992,"SoundDuration":301992,"Delta":129729645},{"NoteNumber":81,"Velocity":57,"Duration":80862,"SoundDuration":80862,"Delta":129950775},{"NoteNumber":78,"Velocity":66,"Duration":224999,"SoundDuration":224999,"Delta":130031638},{"NoteNumber":57,"Velocity":50,"Duration":596924,"SoundDuration":596924,"Delta":130031638},{"NoteNumber":60,"Velocity":50,"Duration":596924,"SoundDuration":596924,"Delta":130031638},{"NoteNumber":81,"Velocity":61,"Duration":74999,"SoundDuration":74999,"Delta":130239138},{"NoteNumber":84,"Velocity":66,"Duration":221243,"SoundDuration":221243,"Delta":130348795},{"NoteNumber":81,"Velocity":62,"Duration":76335,"SoundDuration":76335,"Delta":130552226},{"NoteNumber":78,"Velocity":66,"Duration":222221,"SoundDuration":222221,"Delta":130628562},{"NoteNumber":50,"Velocity":44,"Duration":303565,"SoundDuration":303565,"Delta":130632883},{"NoteNumber":81,"Velocity":63,"Duration":81300,"SoundDuration":81300,"Delta":130850784},{"NoteNumber":79,"Velocity":71,"Duration":74813,"SoundDuration":74813,"Delta":130932085},{"NoteNumber":55,"Velocity":56,"Duration":224438,"SoundDuration":224438,"Delta":130932085},{"NoteNumber":59,"Velocity":50,"Duration":74813,"SoundDuration":74813,"Delta":131156524},{"NoteNumber":79,"Velocity":66,"Duration":74073,"SoundDuration":74073,"Delta":131231337},{"NoteNumber":62,"Velocity":57,"Duration":222221,"SoundDuration":222221,"Delta":131231337},{"NoteNumber":67,"Velocity":50,"Duration":78533,"SoundDuration":78533,"Delta":131453559},{"NoteNumber":79,"Velocity":66,"Duration":74626,"SoundDuration":74626,"Delta":131532093},{"NoteNumber":71,"Velocity":57,"Duration":223880,"SoundDuration":223880,"Delta":131532093},{"NoteNumber":67,"Velocity":53,"Duration":81521,"SoundDuration":81521,"Delta":131755973},{"NoteNumber":78,"Velocity":66,"Duration":224438,"SoundDuration":224438,"Delta":131837495},{"NoteNumber":69,"Velocity":50,"Duration":596524,"SoundDuration":596524,"Delta":131837495},{"NoteNumber":72,"Velocity":50,"Duration":596524,"SoundDuration":596524,"Delta":131837495},{"NoteNumber":81,"Velocity":61,"Duration":74813,"SoundDuration":74813,"Delta":132044478},{"NoteNumber":84,"Velocity":66,"Duration":221697,"SoundDuration":221697,"Delta":132153946},{"NoteNumber":81,"Velocity":62,"Duration":76142,"SoundDuration":76142,"Delta":132357877},{"NoteNumber":78,"Velocity":66,"Duration":221129,"SoundDuration":221129,"Delta":132434019},{"NoteNumber":62,"Velocity":44,"Duration":300559,"SoundDuration":300559,"Delta":132438319},{"NoteNumber":81,"Velocity":63,"Duration":79364,"SoundDuration":79364,"Delta":132655149},{"NoteNumber":79,"Velocity":71,"Duration":74813,"SoundDuration":74813,"Delta":132734514},{"NoteNumber":55,"Velocity":56,"Duration":224438,"SoundDuration":224438,"Delta":132734514},{"NoteNumber":59,"Velocity":50,"Duration":74813,"SoundDuration":74813,"Delta":132958953},{"NoteNumber":79,"Velocity":66,"Duration":78533,"SoundDuration":78533,"Delta":133033766},{"NoteNumber":50,"Velocity":57,"Duration":235602,"SoundDuration":235602,"Delta":133033766},{"NoteNumber":55,"Velocity":50,"Duration":78533,"SoundDuration":78533,"Delta":133269368},{"NoteNumber":79,"Velocity":66,"Duration":81521,"SoundDuration":81521,"Delta":133347902},{"NoteNumber":47,"Velocity":57,"Duration":244565,"SoundDuration":244565,"Delta":133347902},{"NoteNumber":50,"Velocity":53,"Duration":119127,"SoundDuration":119127,"Delta":133587712},{"NoteNumber":79,"Velocity":71,"Duration":554210,"SoundDuration":554210,"Delta":133713925},{"NoteNumber":43,"Velocity":56,"Duration":422535,"SoundDuration":422535,"Delta":133713925},{"NoteNumber":81,"Velocity":42,"Duration":104031,"SoundDuration":104031,"Delta":134268135},{"NoteNumber":79,"Velocity":42,"Duration":103694,"SoundDuration":103694,"Delta":134372167},{"NoteNumber":77,"Velocity":45,"Duration":102040,"SoundDuration":102040,"Delta":134475861},{"NoteNumber":79,"Velocity":40,"Duration":102040,"SoundDuration":102040,"Delta":134577902},{"NoteNumber":77,"Velocity":40,"Duration":104665,"SoundDuration":104665,"Delta":134679942},{"NoteNumber":76,"Velocity":45,"Duration":401002,"SoundDuration":401002,"Delta":134784608},{"NoteNumber":60,"Velocity":27,"Duration":300752,"SoundDuration":300752,"Delta":135085360},{"NoteNumber":67,"Velocity":33,"Duration":300752,"SoundDuration":300752,"Delta":135085360},{"NoteNumber":77,"Velocity":41,"Duration":100250,"SoundDuration":100250,"Delta":135185611},{"NoteNumber":76,"Velocity":41,"Duration":100250,"SoundDuration":100250,"Delta":135285862},{"NoteNumber":74,"Velocity":45,"Duration":97087,"SoundDuration":97087,"Delta":135386112},{"NoteNumber":67,"Velocity":33,"Duration":294976,"SoundDuration":294976,"Delta":135386112},{"NoteNumber":65,"Velocity":27,"Duration":294976,"SoundDuration":294976,"Delta":135386112},{"NoteNumber":76,"Velocity":41,"Duration":97087,"SoundDuration":97087,"Delta":135483200},{"NoteNumber":74,"Velocity":41,"Duration":100802,"SoundDuration":100802,"Delta":135580287},{"NoteNumber":72,"Velocity":45,"Duration":75187,"SoundDuration":75187,"Delta":135681089},{"NoteNumber":64,"Velocity":30,"Duration":75187,"SoundDuration":75187,"Delta":135681089},{"NoteNumber":67,"Velocity":36,"Duration":75187,"SoundDuration":75187,"Delta":135681089},{"NoteNumber":79,"Velocity":44,"Duration":75187,"SoundDuration":75187,"Delta":135831465},{"NoteNumber":79,"Velocity":46,"Duration":75188,"SoundDuration":75188,"Delta":135981841},{"NoteNumber":79,"Velocity":48,"Duration":75187,"SoundDuration":75187,"Delta":136132217},{"NoteNumber":79,"Velocity":51,"Duration":76142,"SoundDuration":76142,"Delta":136282593},{"NoteNumber":79,"Velocity":53,"Duration":76142,"SoundDuration":76142,"Delta":136434878},{"NoteNumber":79,"Velocity":55,"Duration":147783,"SoundDuration":147783,"Delta":136587162},{"NoteNumber":59,"Velocity":30,"Duration":595613,"SoundDuration":595613,"Delta":136587162},{"NoteNumber":67,"Velocity":36,"Duration":1201859,"SoundDuration":1201859,"Delta":136587162},{"NoteNumber":78,"Velocity":49,"Duration":150375,"SoundDuration":150375,"Delta":136734946},{"NoteNumber":77,"Velocity":52,"Duration":146699,"SoundDuration":146699,"Delta":136885322},{"NoteNumber":76,"Velocity":44,"Duration":150754,"SoundDuration":150754,"Delta":137032021},{"NoteNumber":75,"Velocity":47,"Duration":147420,"SoundDuration":147420,"Delta":137182775},{"NoteNumber":60,"Velocity":33,"Duration":306994,"SoundDuration":306994,"Delta":137182775},{"NoteNumber":74,"Velocity":43,"Duration":159574,"SoundDuration":159574,"Delta":137330195},{"NoteNumber":74,"Velocity":50,"Duration":74813,"SoundDuration":74813,"Delta":137489770},{"NoteNumber":55,"Velocity":36,"Duration":74813,"SoundDuration":74813,"Delta":137489770},{"NoteNumber":71,"Velocity":41,"Duration":74813,"SoundDuration":74813,"Delta":137789022},{"NoteNumber":67,"Velocity":41,"Duration":74813,"SoundDuration":74813,"Delta":138088274},{"NoteNumber":76,"Velocity":72,"Duration":396906,"SoundDuration":396906,"Delta":138387526},{"NoteNumber":60,"Velocity":40,"Duration":292488,"SoundDuration":292488,"Delta":138688278},{"NoteNumber":67,"Velocity":48,"Duration":292488,"SoundDuration":292488,"Delta":138688278},{"NoteNumber":77,"Velocity":63,"Duration":96153,"SoundDuration":96153,"Delta":138784432},{"NoteNumber":76,"Velocity":63,"Duration":100180,"SoundDuration":100180,"Delta":138880586},{"NoteNumber":74,"Velocity":69,"Duration":99999,"SoundDuration":99999,"Delta":138980767},{"NoteNumber":67,"Velocity":48,"Duration":305440,"SoundDuration":305440,"Delta":138980767},{"NoteNumber":65,"Velocity":40,"Duration":305440,"SoundDuration":305440,"Delta":138980767},{"NoteNumber":76,"Velocity":65,"Duration":101813,"SoundDuration":101813,"Delta":139080767},{"NoteNumber":74,"Velocity":66,"Duration":103626,"SoundDuration":103626,"Delta":139182580},{"NoteNumber":72,"Velocity":70,"Duration":99999,"SoundDuration":99999,"Delta":139286207},{"NoteNumber":64,"Velocity":44,"Duration":74999,"SoundDuration":74999,"Delta":139286207},{"NoteNumber":67,"Velocity":52,"Duration":74999,"SoundDuration":74999,"Delta":139286207},{"NoteNumber":76,"Velocity":64,"Duration":99999,"SoundDuration":99999,"Delta":139386207},{"NoteNumber":79,"Velocity":65,"Duration":100000,"SoundDuration":100000,"Delta":139486207},{"NoteNumber":76,"Velocity":70,"Duration":99999,"SoundDuration":99999,"Delta":139586207},{"NoteNumber":79,"Velocity":66,"Duration":99999,"SoundDuration":99999,"Delta":139686207},{"NoteNumber":84,"Velocity":66,"Duration":99999,"SoundDuration":99999,"Delta":139786207},{"NoteNumber":79,"Velocity":70,"Duration":101522,"SoundDuration":101522,"Delta":139886207},{"NoteNumber":55,"Velocity":48,"Duration":76142,"SoundDuration":76142,"Delta":139886207},{"NoteNumber":52,"Velocity":40,"Duration":76142,"SoundDuration":76142,"Delta":139886207},{"NoteNumber":84,"Velocity":65,"Duration":101523,"SoundDuration":101523,"Delta":139987730},{"NoteNumber":88,"Velocity":65,"Duration":101522,"SoundDuration":101522,"Delta":140089253},{"NoteNumber":74,"Velocity":76,"Duration":296764,"SoundDuration":296764,"Delta":140190776},{"NoteNumber":53,"Velocity":44,"Duration":72815,"SoundDuration":72815,"Delta":140190776},{"NoteNumber":57,"Velocity":52,"Duration":72815,"SoundDuration":72815,"Delta":140190776},{"NoteNumber":77,"Velocity":68,"Duration":220819,"SoundDuration":220819,"Delta":140487541},{"NoteNumber":74,"Velocity":63,"Duration":75187,"SoundDuration":75187,"Delta":140708360},{"NoteNumber":71,"Velocity":70,"Duration":226931,"SoundDuration":226931,"Delta":140783548},{"NoteNumber":55,"Velocity":40,"Duration":72815,"SoundDuration":72815,"Delta":140783548},{"NoteNumber":65,"Velocity":48,"Duration":72815,"SoundDuration":72815,"Delta":140783548},{"NoteNumber":74,"Velocity":64,"Duration":81300,"SoundDuration":81300,"Delta":141010479},{"NoteNumber":72,"Velocity":70,"Duration":99999,"SoundDuration":99999,"Delta":141091780},{"NoteNumber":64,"Velocity":44,"Duration":74999,"SoundDuration":74999,"Delta":141091780},{"NoteNumber":67,"Velocity":52,"Duration":74999,"SoundDuration":74999,"Delta":141091780},{"NoteNumber":76,"Velocity":64,"Duration":99999,"SoundDuration":99999,"Delta":141191780},{"NoteNumber":79,"Velocity":65,"Duration":100000,"SoundDuration":100000,"Delta":141291780},{"NoteNumber":76,"Velocity":70,"Duration":99999,"SoundDuration":99999,"Delta":141391780},{"NoteNumber":79,"Velocity":66,"Duration":99999,"SoundDuration":99999,"Delta":141491780},{"NoteNumber":84,"Velocity":66,"Duration":99999,"SoundDuration":99999,"Delta":141591780},{"NoteNumber":79,"Velocity":70,"Duration":101522,"SoundDuration":101522,"Delta":141691780},{"NoteNumber":55,"Velocity":48,"Duration":76142,"SoundDuration":76142,"Delta":141691780},{"NoteNumber":52,"Velocity":40,"Duration":76142,"SoundDuration":76142,"Delta":141691780},{"NoteNumber":84,"Velocity":65,"Duration":101523,"SoundDuration":101523,"Delta":141793303},{"NoteNumber":88,"Velocity":65,"Duration":101522,"SoundDuration":101522,"Delta":141894826},{"NoteNumber":74,"Velocity":76,"Duration":296764,"SoundDuration":296764,"Delta":141996349},{"NoteNumber":53,"Velocity":44,"Duration":72815,"SoundDuration":72815,"Delta":141996349},{"NoteNumber":57,"Velocity":52,"Duration":72815,"SoundDuration":72815,"Delta":141996349},{"NoteNumber":77,"Velocity":68,"Duration":220819,"SoundDuration":220819,"Delta":142293114},{"NoteNumber":74,"Velocity":63,"Duration":75187,"SoundDuration":75187,"Delta":142513933},{"NoteNumber":71,"Velocity":70,"Duration":226931,"SoundDuration":226931,"Delta":142589121},{"NoteNumber":55,"Velocity":40,"Duration":72815,"SoundDuration":72815,"Delta":142589121},{"NoteNumber":65,"Velocity":48,"Duration":72815,"SoundDuration":72815,"Delta":142589121},{"NoteNumber":74,"Velocity":64,"Duration":81300,"SoundDuration":81300,"Delta":142816052},{"NoteNumber":72,"Velocity":77,"Duration":83798,"SoundDuration":83798,"Delta":142897353},{"NoteNumber":64,"Velocity":49,"Duration":83798,"SoundDuration":83798,"Delta":142897353},{"NoteNumber":60,"Velocity":41,"Duration":83798,"SoundDuration":83798,"Delta":142897353},{"NoteNumber":84,"Velocity":77,"Duration":83798,"SoundDuration":83798,"Delta":143232549},{"NoteNumber":76,"Velocity":65,"Duration":83798,"SoundDuration":83798,"Delta":143232549},{"NoteNumber":48,"Velocity":45,"Duration":83798,"SoundDuration":83798,"Delta":143232549},{"NoteNumber":60,"Velocity":53,"Duration":83798,"SoundDuration":83798,"Delta":143232549},{"NoteNumber":84,"Velocity":74,"Duration":96104,"SoundDuration":96104,"Delta":143567745},{"NoteNumber":76,"Velocity":62,"Duration":96104,"SoundDuration":96104,"Delta":143567745},{"NoteNumber":48,"Velocity":44,"Duration":96104,"SoundDuration":96104,"Delta":143567745},{"NoteNumber":60,"Velocity":52,"Duration":96104,"SoundDuration":96104,"Delta":143567745},{"NoteNumber":84,"Velocity":76,"Duration":384417,"SoundDuration":384417,"Delta":143952163},{"NoteNumber":76,"Velocity":64,"Duration":384417,"SoundDuration":384417,"Delta":143952163},{"NoteNumber":48,"Velocity":45,"Duration":384417,"SoundDuration":384417,"Delta":143952163},{"NoteNumber":60,"Velocity":53,"Duration":384417,"SoundDuration":384417,"Delta":143952163}]}