{"title":"Sonate XVI:35 1. Satz","artist":"Haydn","durationMs":346032,"midiSha256":"389466d0fa1e0cfbbbdf2c449f5d039b3c7e3cfb360717e2cce125c47bf93ee7","midiObject":[{"NoteNumber":72,"Velocity":50,"Duration":262191,"SoundDuration":262191,"Delta":0},{"NoteNumber":76,"Velocity":50,"Duration":93023,"SoundDuration":93023,"Delta":262191},{"NoteNumber":79,"Velocity":57,"Duration":88736,"SoundDuration":88736,"Delta":355214},{"NoteNumber":60,"Velocity":44,"Duration":88736,"SoundDuration":88736,"Delta":355214},{"NoteNumber":64,"Velocity":52,"Duration":88736,"SoundDuration":88736,"Delta":355214},{"NoteNumber":79,"Velocity":50,"Duration":88736,"SoundDuration":88736,"Delta":710160},{"NoteNumber":79,"Velocity":50,"Duration":91552,"SoundDuration":91552,"Delta":1065107},{"NoteNumber":83,"Velocity":60,"Duration":45776,"SoundDuration":45776,"Delta":1385541},{"NoteNumber":84,"Velocity":71,"Duration":88396,"SoundDuration":88396,"Delta":1431317},{"NoteNumber":79,"Velocity":50,"Duration":88396,"SoundDuration":88396,"Delta":1784903},{"NoteNumber":60,"Velocity":44,"Duration":88396,"SoundDuration":88396,"Delta":1784903},{"NoteNumber":64,"Velocity":52,"Duration":88396,"SoundDuration":88396,"Delta":1784903},{"NoteNumber":79,"Velocity":43,"Duration":88396,"SoundDuration":88396,"Delta":2138489},{"NoteNumber":79,"Velocity":43,"Duration":91917,"SoundDuration":91917,"Delta":2492075},{"NoteNumber":76,"Velocity":50,"Duration":261202,"SoundDuration":261202,"Delta":2859745},{"NoteNumber":72,"Velocity":50,"Duration":93023,"SoundDuration":93023,"Delta":3120948},{"NoteNumber":71,"Velocity":57,"Duration":87729,"SoundDuration":87729,"Delta":3213971},{"NoteNumber":55,"Velocity":44,"Duration":87729,"SoundDuration":87729,"Delta":3213971},{"NoteNumber":65,"Velocity":52,"Duration":87729,"SoundDuration":87729,"Delta":3213971},{"NoteNumber":62,"Velocity":44,"Duration":87729,"SoundDuration":87729,"Delta":3213971},{"NoteNumber":71,"Velocity":53,"Duration":87729,"SoundDuration":87729,"Delta":3564889},{"NoteNumber":65,"Velocity":45,"Duration":87729,"SoundDuration":87729,"Delta":3564889},{"NoteNumber":62,"Velocity":38,"Duration":87729,"SoundDuration":87729,"Delta":3564889},{"NoteNumber":55,"Velocity":38,"Duration":87729,"SoundDuration":87729,"Delta":3564889},{"NoteNumber":72,"Velocity":57,"Duration":90068,"SoundDuration":90068,"Delta":3915807},{"NoteNumber":60,"Velocity":44,"Duration":90068,"SoundDuration":90068,"Delta":3915807},{"NoteNumber":64,"Velocity":52,"Duration":90068,"SoundDuration":90068,"Delta":3915807},{"NoteNumber":55,"Velocity":44,"Duration":90068,"SoundDuration":90068,"Delta":3915807},{"NoteNumber":72,"Velocity":52,"Duration":105633,"SoundDuration":105633,"Delta":4276081},{"NoteNumber":60,"Velocity":39,"Duration":105633,"SoundDuration":105633,"Delta":4276081},{"NoteNumber":55,"Velocity":39,"Duration":105633,"SoundDuration":105633,"Delta":4276081},{"NoteNumber":64,"Velocity":47,"Duration":105633,"SoundDuration":105633,"Delta":4276081},{"NoteNumber":74,"Velocity":57,"Duration":350918,"SoundDuration":350918,"Delta":4698616},{"NoteNumber":55,"Velocity":44,"Duration":350918,"SoundDuration":350918,"Delta":4698616},{"NoteNumber":59,"Velocity":44,"Duration":350918,"SoundDuration":350918,"Delta":4698616},{"NoteNumber":62,"Velocity":52,"Duration":350918,"SoundDuration":350918,"Delta":4698616},{"NoteNumber":67,"Velocity":50,"Duration":261202,"SoundDuration":261202,"Delta":5751370},{"NoteNumber":74,"Velocity":47,"Duration":98013,"SoundDuration":98013,"Delta":6012573},{"NoteNumber":77,"Velocity":58,"Duration":86415,"SoundDuration":86415,"Delta":6110586},{"NoteNumber":67,"Velocity":48,"Duration":86415,"SoundDuration":86415,"Delta":6110586},{"NoteNumber":59,"Velocity":40,"Duration":86415,"SoundDuration":86415,"Delta":6110586},{"NoteNumber":77,"Velocity":50,"Duration":261202,"SoundDuration":261202,"Delta":6456248},{"NoteNumber":79,"Velocity":48,"Duration":102711,"SoundDuration":102711,"Delta":6717451},{"NoteNumber":76,"Velocity":58,"Duration":87067,"SoundDuration":87067,"Delta":6820162},{"NoteNumber":67,"Velocity":48,"Duration":87067,"SoundDuration":87067,"Delta":6820162},{"NoteNumber":60,"Velocity":40,"Duration":87067,"SoundDuration":87067,"Delta":6820162},{"NoteNumber":76,"Velocity":50,"Duration":259246,"SoundDuration":259246,"Delta":7168432},{"NoteNumber":77,"Velocity":50,"Duration":102711,"SoundDuration":102711,"Delta":7427679},{"NoteNumber":74,"Velocity":59,"Duration":86092,"SoundDuration":86092,"Delta":7530390},{"NoteNumber":65,"Velocity":40,"Duration":86092,"SoundDuration":86092,"Delta":7530390},{"NoteNumber":67,"Velocity":48,"Duration":86092,"SoundDuration":86092,"Delta":7530390},{"NoteNumber":74,"Velocity":50,"Duration":262191,"SoundDuration":262191,"Delta":7874762},{"NoteNumber":76,"Velocity":47,"Duration":102012,"SoundDuration":102012,"Delta":8136954},{"NoteNumber":72,"Velocity":57,"Duration":85772,"SoundDuration":85772,"Delta":8238967},{"NoteNumber":67,"Velocity":45,"Duration":85772,"SoundDuration":85772,"Delta":8238967},{"NoteNumber":64,"Velocity":38,"Duration":85772,"SoundDuration":85772,"Delta":8238967},{"NoteNumber":72,"Velocity":52,"Duration":86740,"SoundDuration":86740,"Delta":8582059},{"NoteNumber":74,"Velocity":57,"Duration":86415,"SoundDuration":86415,"Delta":8943604},{"NoteNumber":65,"Velocity":56,"Duration":86415,"SoundDuration":86415,"Delta":8943604},{"NoteNumber":53,"Velocity":47,"Duration":86415,"SoundDuration":86415,"Delta":8943604},{"NoteNumber":74,"Velocity":52,"Duration":86415,"SoundDuration":86415,"Delta":9289266},{"NoteNumber":53,"Velocity":44,"Duration":86415,"SoundDuration":86415,"Delta":9289266},{"NoteNumber":65,"Velocity":52,"Duration":86415,"SoundDuration":86415,"Delta":9289266},{"NoteNumber":71,"Velocity":58,"Duration":86415,"SoundDuration":86415,"Delta":9634928},{"NoteNumber":55,"Velocity":49,"Duration":86415,"SoundDuration":86415,"Delta":9634928},{"NoteNumber":62,"Velocity":58,"Duration":86415,"SoundDuration":86415,"Delta":9634928},{"NoteNumber":71,"Velocity":52,"Duration":90612,"SoundDuration":90612,"Delta":9980590},{"NoteNumber":55,"Velocity":44,"Duration":90612,"SoundDuration":90612,"Delta":9980590},{"NoteNumber":62,"Velocity":52,"Duration":90612,"SoundDuration":90612,"Delta":9980590},{"NoteNumber":72,"Velocity":63,"Duration":342779,"SoundDuration":342779,"Delta":10343040},{"NoteNumber":60,"Velocity":48,"Duration":114259,"SoundDuration":114259,"Delta":10343040},{"NoteNumber":64,"Velocity":36,"Duration":114259,"SoundDuration":114259,"Delta":10457299},{"NoteNumber":67,"Velocity":36,"Duration":114259,"SoundDuration":114259,"Delta":10571559},{"NoteNumber":60,"Velocity":49,"Duration":114259,"SoundDuration":114259,"Delta":10685819},{"NoteNumber":64,"Velocity":38,"Duration":114259,"SoundDuration":114259,"Delta":10800078},{"NoteNumber":67,"Velocity":38,"Duration":114259,"SoundDuration":114259,"Delta":10914338},{"NoteNumber":60,"Velocity":53,"Duration":114259,"SoundDuration":114259,"Delta":11028598},{"NoteNumber":64,"Velocity":43,"Duration":114259,"SoundDuration":114259,"Delta":11142857},{"NoteNumber":67,"Velocity":43,"Duration":114259,"SoundDuration":114259,"Delta":11257117},{"NoteNumber":72,"Velocity":69,"Duration":262191,"SoundDuration":262191,"Delta":11371377},{"NoteNumber":60,"Velocity":54,"Duration":116529,"SoundDuration":116529,"Delta":11371377},{"NoteNumber":64,"Velocity":44,"Duration":116529,"SoundDuration":116529,"Delta":11487906},{"NoteNumber":67,"Velocity":44,"Duration":129776,"SoundDuration":129776,"Delta":11604436},{"NoteNumber":76,"Velocity":71,"Duration":100644,"SoundDuration":100644,"Delta":11633569},{"NoteNumber":79,"Velocity":83,"Duration":88736,"SoundDuration":88736,"Delta":11734213},{"NoteNumber":60,"Velocity":56,"Duration":118315,"SoundDuration":118315,"Delta":11734213},{"NoteNumber":64,"Velocity":43,"Duration":118315,"SoundDuration":118315,"Delta":11852528},{"NoteNumber":67,"Velocity":43,"Duration":118315,"SoundDuration":118315,"Delta":11970843},{"NoteNumber":79,"Velocity":75,"Duration":88736,"SoundDuration":88736,"Delta":12089159},{"NoteNumber":60,"Velocity":56,"Duration":118315,"SoundDuration":118315,"Delta":12089159},{"NoteNumber":64,"Velocity":45,"Duration":118315,"SoundDuration":118315,"Delta":12207474},{"NoteNumber":67,"Velocity":46,"Duration":118315,"SoundDuration":118315,"Delta":12325789},{"NoteNumber":79,"Velocity":76,"Duration":89078,"SoundDuration":89078,"Delta":12444105},{"NoteNumber":60,"Velocity":55,"Duration":118771,"SoundDuration":118771,"Delta":12444105},{"NoteNumber":64,"Velocity":44,"Duration":118771,"SoundDuration":118771,"Delta":12562877},{"NoteNumber":67,"Velocity":45,"Duration":118771,"SoundDuration":118771,"Delta":12681649},{"NoteNumber":83,"Velocity":78,"Duration":44539,"SoundDuration":44539,"Delta":12755881},{"NoteNumber":84,"Velocity":92,"Duration":353585,"SoundDuration":353585,"Delta":12800421},{"NoteNumber":60,"Velocity":72,"Duration":117862,"SoundDuration":117862,"Delta":12800421},{"NoteNumber":64,"Velocity":57,"Duration":117861,"SoundDuration":117861,"Delta":12918283},{"NoteNumber":67,"Velocity":57,"Duration":117862,"SoundDuration":117862,"Delta":13036145},{"NoteNumber":79,"Velocity":85,"Duration":88396,"SoundDuration":88396,"Delta":13154007},{"NoteNumber":60,"Velocity":56,"Duration":117862,"SoundDuration":117862,"Delta":13154007},{"NoteNumber":64,"Velocity":41,"Duration":117861,"SoundDuration":117861,"Delta":13271869},{"NoteNumber":67,"Velocity":41,"Duration":117862,"SoundDuration":117862,"Delta":13389731},{"NoteNumber":79,"Velocity":74,"Duration":88396,"SoundDuration":88396,"Delta":13507593},{"NoteNumber":60,"Velocity":56,"Duration":117862,"SoundDuration":117862,"Delta":13507593},{"NoteNumber":64,"Velocity":44,"Duration":117861,"SoundDuration":117861,"Delta":13625455},{"NoteNumber":67,"Velocity":44,"Duration":117862,"SoundDuration":117862,"Delta":13743317},{"NoteNumber":79,"Velocity":74,"Duration":89078,"SoundDuration":89078,"Delta":13861179},{"NoteNumber":60,"Velocity":56,"Duration":118771,"SoundDuration":118771,"Delta":13861179},{"NoteNumber":64,"Velocity":44,"Duration":118771,"SoundDuration":118771,"Delta":13979951},{"NoteNumber":67,"Velocity":45,"Duration":133470,"SoundDuration":133470,"Delta":14098723},{"NoteNumber":77,"Velocity":69,"Duration":87067,"SoundDuration":87067,"Delta":14232193},{"NoteNumber":60,"Velocity":56,"Duration":116089,"SoundDuration":116089,"Delta":14232193},{"NoteNumber":76,"Velocity":60,"Duration":87067,"SoundDuration":87067,"Delta":14319261},{"NoteNumber":64,"Velocity":44,"Duration":116089,"SoundDuration":116089,"Delta":14348283},{"NoteNumber":74,"Velocity":60,"Duration":87067,"SoundDuration":87067,"Delta":14406328},{"NoteNumber":67,"Velocity":44,"Duration":122045,"SoundDuration":122045,"Delta":14464373},{"NoteNumber":72,"Velocity":60,"Duration":93023,"SoundDuration":93023,"Delta":14493396},{"NoteNumber":71,"Velocity":74,"Duration":87729,"SoundDuration":87729,"Delta":14586419},{"NoteNumber":62,"Velocity":56,"Duration":116972,"SoundDuration":116972,"Delta":14586419},{"NoteNumber":65,"Velocity":42,"Duration":116972,"SoundDuration":116972,"Delta":14703391},{"NoteNumber":67,"Velocity":45,"Duration":116972,"SoundDuration":116972,"Delta":14820364},{"NoteNumber":71,"Velocity":68,"Duration":87729,"SoundDuration":87729,"Delta":14937337},{"NoteNumber":62,"Velocity":56,"Duration":116972,"SoundDuration":116972,"Delta":14937337},{"NoteNumber":65,"Velocity":45,"Duration":116972,"SoundDuration":116972,"Delta":15054309},{"NoteNumber":67,"Velocity":45,"Duration":116972,"SoundDuration":116972,"Delta":15171282},{"NoteNumber":72,"Velocity":74,"Duration":87729,"SoundDuration":87729,"Delta":15288255},{"NoteNumber":60,"Velocity":56,"Duration":116972,"SoundDuration":116972,"Delta":15288255},{"NoteNumber":64,"Velocity":46,"Duration":116972,"SoundDuration":116972,"Delta":15405227},{"NoteNumber":67,"Velocity":50,"Duration":116972,"SoundDuration":116972,"Delta":15522200},{"NoteNumber":72,"Velocity":67,"Duration":87729,"SoundDuration":87729,"Delta":15639173},{"NoteNumber":60,"Velocity":56,"Duration":116972,"SoundDuration":116972,"Delta":15639173},{"NoteNumber":64,"Velocity":46,"Duration":116972,"SoundDuration":116972,"Delta":15756145},{"NoteNumber":67,"Velocity":46,"Duration":178496,"SoundDuration":178496,"Delta":15873118},{"NoteNumber":74,"Velocity":74,"Duration":350918,"SoundDuration":350918,"Delta":16051615},{"NoteNumber":59,"Velocity":63,"Duration":350918,"SoundDuration":350918,"Delta":16051615},{"NoteNumber":67,"Velocity":65,"Duration":261202,"SoundDuration":261202,"Delta":17104369},{"NoteNumber":74,"Velocity":61,"Duration":90122,"SoundDuration":90122,"Delta":17365571},{"NoteNumber":77,"Velocity":75,"Duration":86415,"SoundDuration":86415,"Delta":17455694},{"NoteNumber":55,"Velocity":56,"Duration":115220,"SoundDuration":115220,"Delta":17455694},{"NoteNumber":59,"Velocity":43,"Duration":115220,"SoundDuration":115220,"Delta":17570915},{"NoteNumber":62,"Velocity":45,"Duration":115220,"SoundDuration":115220,"Delta":17686135},{"NoteNumber":77,"Velocity":65,"Duration":261202,"SoundDuration":261202,"Delta":17801356},{"NoteNumber":55,"Velocity":56,"Duration":116089,"SoundDuration":116089,"Delta":17801356},{"NoteNumber":59,"Velocity":45,"Duration":116089,"SoundDuration":116089,"Delta":17917446},{"NoteNumber":62,"Velocity":45,"Duration":130346,"SoundDuration":130346,"Delta":18033536},{"NoteNumber":79,"Velocity":62,"Duration":101324,"SoundDuration":101324,"Delta":18062558},{"NoteNumber":76,"Velocity":75,"Duration":87067,"SoundDuration":87067,"Delta":18163883},{"NoteNumber":55,"Velocity":54,"Duration":116089,"SoundDuration":116089,"Delta":18163883},{"NoteNumber":60,"Velocity":43,"Duration":116089,"SoundDuration":116089,"Delta":18279973},{"NoteNumber":64,"Velocity":44,"Duration":116089,"SoundDuration":116089,"Delta":18396063},{"NoteNumber":76,"Velocity":65,"Duration":259246,"SoundDuration":259246,"Delta":18512153},{"NoteNumber":55,"Velocity":56,"Duration":115220,"SoundDuration":115220,"Delta":18512153},{"NoteNumber":60,"Velocity":46,"Duration":115220,"SoundDuration":115220,"Delta":18627373},{"NoteNumber":64,"Velocity":46,"Duration":129449,"SoundDuration":129449,"Delta":18742594},{"NoteNumber":77,"Velocity":65,"Duration":100643,"SoundDuration":100643,"Delta":18771399},{"NoteNumber":74,"Velocity":76,"Duration":86093,"SoundDuration":86093,"Delta":18872043},{"NoteNumber":55,"Velocity":56,"Duration":114790,"SoundDuration":114790,"Delta":18872043},{"NoteNumber":62,"Velocity":47,"Duration":114790,"SoundDuration":114790,"Delta":18986834},{"NoteNumber":65,"Velocity":47,"Duration":114790,"SoundDuration":114790,"Delta":19101624},{"NoteNumber":74,"Velocity":65,"Duration":262191,"SoundDuration":262191,"Delta":19216415},{"NoteNumber":55,"Velocity":56,"Duration":116529,"SoundDuration":116529,"Delta":19216415},{"NoteNumber":62,"Velocity":44,"Duration":116529,"SoundDuration":116529,"Delta":19332945},{"NoteNumber":65,"Velocity":44,"Duration":128116,"SoundDuration":128116,"Delta":19449474},{"NoteNumber":76,"Velocity":61,"Duration":98983,"SoundDuration":98983,"Delta":19478607},{"NoteNumber":72,"Velocity":74,"Duration":85772,"SoundDuration":85772,"Delta":19577590},{"NoteNumber":57,"Velocity":56,"Duration":114363,"SoundDuration":114363,"Delta":19577590},{"NoteNumber":60,"Velocity":46,"Duration":114364,"SoundDuration":114364,"Delta":19691954},{"NoteNumber":64,"Velocity":46,"Duration":129234,"SoundDuration":129234,"Delta":19806318},{"NoteNumber":72,"Velocity":67,"Duration":86936,"SoundDuration":86936,"Delta":19935553},{"NoteNumber":57,"Velocity":56,"Duration":115915,"SoundDuration":115915,"Delta":19935553},{"NoteNumber":60,"Velocity":45,"Duration":115914,"SoundDuration":115914,"Delta":20051468},{"NoteNumber":64,"Velocity":45,"Duration":130302,"SoundDuration":130302,"Delta":20167383},{"NoteNumber":74,"Velocity":74,"Duration":86415,"SoundDuration":86415,"Delta":20297686},{"NoteNumber":53,"Velocity":56,"Duration":115220,"SoundDuration":115220,"Delta":20297686},{"NoteNumber":57,"Velocity":45,"Duration":115220,"SoundDuration":115220,"Delta":20412907},{"NoteNumber":62,"Velocity":47,"Duration":115220,"SoundDuration":115220,"Delta":20528128},{"NoteNumber":74,"Velocity":67,"Duration":88736,"SoundDuration":88736,"Delta":20643348},{"NoteNumber":53,"Velocity":56,"Duration":118315,"SoundDuration":118315,"Delta":20643348},{"NoteNumber":57,"Velocity":46,"Duration":118315,"SoundDuration":118315,"Delta":20761664},{"NoteNumber":62,"Velocity":46,"Duration":118315,"SoundDuration":118315,"Delta":20879979},{"NoteNumber":71,"Velocity":75,"Duration":86093,"SoundDuration":86093,"Delta":20998294},{"NoteNumber":55,"Velocity":56,"Duration":114790,"SoundDuration":114790,"Delta":20998294},{"NoteNumber":62,"Velocity":43,"Duration":114790,"SoundDuration":114790,"Delta":21113085},{"NoteNumber":65,"Velocity":43,"Duration":114790,"SoundDuration":114790,"Delta":21227876},{"NoteNumber":71,"Velocity":67,"Duration":101009,"SoundDuration":101009,"Delta":21342666},{"NoteNumber":55,"Velocity":56,"Duration":134679,"SoundDuration":134679,"Delta":21342666},{"NoteNumber":62,"Velocity":44,"Duration":134679,"SoundDuration":134679,"Delta":21477346},{"NoteNumber":65,"Velocity":45,"Duration":134679,"SoundDuration":134679,"Delta":21612026},{"NoteNumber":72,"Velocity":81,"Duration":1070214,"SoundDuration":1070214,"Delta":21746706},{"NoteNumber":64,"Velocity":45,"Duration":718389,"SoundDuration":718389,"Delta":21746706},{"NoteNumber":60,"Velocity":60,"Duration":2837963,"SoundDuration":2837963,"Delta":21746706},{"NoteNumber":70,"Velocity":43,"Duration":703224,"SoundDuration":703224,"Delta":22465096},{"NoteNumber":76,"Velocity":50,"Duration":257084,"SoundDuration":257084,"Delta":22816920},{"NoteNumber":79,"Velocity":46,"Duration":94315,"SoundDuration":94315,"Delta":23074004},{"NoteNumber":77,"Velocity":50,"Duration":86415,"SoundDuration":86415,"Delta":23168320},{"NoteNumber":69,"Velocity":45,"Duration":708188,"SoundDuration":708188,"Delta":23168320},{"NoteNumber":77,"Velocity":50,"Duration":261202,"SoundDuration":261202,"Delta":23513982},{"NoteNumber":81,"Velocity":45,"Duration":101324,"SoundDuration":101324,"Delta":23775185},{"NoteNumber":71,"Velocity":50,"Duration":87067,"SoundDuration":87067,"Delta":23876509},{"NoteNumber":65,"Velocity":42,"Duration":708160,"SoundDuration":708160,"Delta":23876509},{"NoteNumber":71,"Velocity":50,"Duration":259246,"SoundDuration":259246,"Delta":24224779},{"NoteNumber":74,"Velocity":45,"Duration":100643,"SoundDuration":100643,"Delta":24484025},{"NoteNumber":72,"Velocity":50,"Duration":86415,"SoundDuration":86415,"Delta":24584669},{"NoteNumber":60,"Velocity":39,"Duration":2824207,"SoundDuration":2824207,"Delta":24584669},{"NoteNumber":64,"Velocity":45,"Duration":708188,"SoundDuration":708188,"Delta":24584669},{"NoteNumber":72,"Velocity":50,"Duration":261202,"SoundDuration":261202,"Delta":24930331},{"NoteNumber":76,"Velocity":50,"Duration":101324,"SoundDuration":101324,"Delta":25191534},{"NoteNumber":79,"Velocity":61,"Duration":87067,"SoundDuration":87067,"Delta":25292858},{"NoteNumber":70,"Velocity":43,"Duration":699670,"SoundDuration":699670,"Delta":25292858},{"NoteNumber":84,"Velocity":57,"Duration":257084,"SoundDuration":257084,"Delta":25641128},{"NoteNumber":76,"Velocity":50,"Duration":94315,"SoundDuration":94315,"Delta":25898212},{"NoteNumber":77,"Velocity":60,"Duration":86415,"SoundDuration":86415,"Delta":25992528},{"NoteNumber":69,"Velocity":45,"Duration":708188,"SoundDuration":708188,"Delta":25992528},{"NoteNumber":81,"Velocity":58,"Duration":261202,"SoundDuration":261202,"Delta":26338190},{"NoteNumber":72,"Velocity":49,"Duration":101324,"SoundDuration":101324,"Delta":26599393},{"NoteNumber":71,"Velocity":59,"Duration":87067,"SoundDuration":87067,"Delta":26700717},{"NoteNumber":65,"Velocity":42,"Duration":708160,"SoundDuration":708160,"Delta":26700717},{"NoteNumber":77,"Velocity":60,"Duration":259246,"SoundDuration":259246,"Delta":27048987},{"NoteNumber":71,"Velocity":54,"Duration":100643,"SoundDuration":100643,"Delta":27308233},{"NoteNumber":72,"Velocity":66,"Duration":88736,"SoundDuration":88736,"Delta":27408877},{"NoteNumber":60,"Velocity":45,"Duration":118315,"SoundDuration":118315,"Delta":27408877},{"NoteNumber":64,"Velocity":36,"Duration":118315,"SoundDuration":118315,"Delta":27527193},{"NoteNumber":67,"Velocity":36,"Duration":118315,"SoundDuration":118315,"Delta":27645508},{"NoteNumber":72,"Velocity":52,"Duration":88736,"SoundDuration":88736,"Delta":27763823},{"NoteNumber":60,"Velocity":45,"Duration":118315,"SoundDuration":118315,"Delta":27763823},{"NoteNumber":64,"Velocity":38,"Duration":118315,"SoundDuration":118315,"Delta":27882139},{"NoteNumber":67,"Velocity":38,"Duration":118315,"SoundDuration":118315,"Delta":28000454},{"NoteNumber":72,"Velocity":51,"Duration":89079,"SoundDuration":89079,"Delta":28118769},{"NoteNumber":60,"Velocity":45,"Duration":118771,"SoundDuration":118771,"Delta":28118769},{"NoteNumber":64,"Velocity":36,"Duration":118771,"SoundDuration":118771,"Delta":28237541},{"NoteNumber":67,"Velocity":36,"Duration":118771,"SoundDuration":118771,"Delta":28356313},{"NoteNumber":76,"Velocity":57,"Duration":88396,"SoundDuration":88396,"Delta":28475085},{"NoteNumber":59,"Velocity":45,"Duration":117861,"SoundDuration":117861,"Delta":28475085},{"NoteNumber":74,"Velocity":50,"Duration":88396,"SoundDuration":88396,"Delta":28563482},{"NoteNumber":62,"Velocity":36,"Duration":117862,"SoundDuration":117862,"Delta":28592947},{"NoteNumber":72,"Velocity":50,"Duration":88396,"SoundDuration":88396,"Delta":28651878},{"NoteNumber":67,"Velocity":37,"Duration":117861,"SoundDuration":117861,"Delta":28710809},{"NoteNumber":74,"Velocity":50,"Duration":88396,"SoundDuration":88396,"Delta":28740275},{"NoteNumber":76,"Velocity":63,"Duration":88736,"SoundDuration":88736,"Delta":28828671},{"NoteNumber":60,"Velocity":45,"Duration":118315,"SoundDuration":118315,"Delta":28828671},{"NoteNumber":64,"Velocity":36,"Duration":118315,"SoundDuration":118315,"Delta":28946987},{"NoteNumber":67,"Velocity":36,"Duration":118315,"SoundDuration":118315,"Delta":29065302},{"NoteNumber":72,"Velocity":52,"Duration":88736,"SoundDuration":88736,"Delta":29183617},{"NoteNumber":60,"Velocity":45,"Duration":118315,"SoundDuration":118315,"Delta":29183617},{"NoteNumber":64,"Velocity":38,"Duration":118315,"SoundDuration":118315,"Delta":29301933},{"NoteNumber":67,"Velocity":38,"Duration":118315,"SoundDuration":118315,"Delta":29420248},{"NoteNumber":72,"Velocity":51,"Duration":89079,"SoundDuration":89079,"Delta":29538563},{"NoteNumber":60,"Velocity":45,"Duration":118771,"SoundDuration":118771,"Delta":29538563},{"NoteNumber":64,"Velocity":36,"Duration":118771,"SoundDuration":118771,"Delta":29657335},{"NoteNumber":67,"Velocity":36,"Duration":118771,"SoundDuration":118771,"Delta":29776107},{"NoteNumber":76,"Velocity":57,"Duration":88396,"SoundDuration":88396,"Delta":29894879},{"NoteNumber":59,"Velocity":45,"Duration":117861,"SoundDuration":117861,"Delta":29894879},{"NoteNumber":74,"Velocity":50,"Duration":88396,"SoundDuration":88396,"Delta":29983276},{"NoteNumber":62,"Velocity":36,"Duration":117862,"SoundDuration":117862,"Delta":30012741},{"NoteNumber":72,"Velocity":50,"Duration":88396,"SoundDuration":88396,"Delta":30071672},{"NoteNumber":67,"Velocity":37,"Duration":117861,"SoundDuration":117861,"Delta":30130603},{"NoteNumber":74,"Velocity":50,"Duration":88396,"SoundDuration":88396,"Delta":30160069},{"NoteNumber":76,"Velocity":63,"Duration":88736,"SoundDuration":88736,"Delta":30248465},{"NoteNumber":60,"Velocity":45,"Duration":118315,"SoundDuration":118315,"Delta":30248465},{"NoteNumber":64,"Velocity":36,"Duration":118315,"SoundDuration":118315,"Delta":30366781},{"NoteNumber":67,"Velocity":36,"Duration":118315,"SoundDuration":118315,"Delta":30485096},{"NoteNumber":72,"Velocity":52,"Duration":88736,"SoundDuration":88736,"Delta":30603411},{"NoteNumber":60,"Velocity":45,"Duration":118315,"SoundDuration":118315,"Delta":30603411},{"NoteNumber":64,"Velocity":38,"Duration":118315,"SoundDuration":118315,"Delta":30721727},{"NoteNumber":67,"Velocity":38,"Duration":118315,"SoundDuration":118315,"Delta":30840042},{"NoteNumber":72,"Velocity":51,"Duration":89079,"SoundDuration":89079,"Delta":30958357},{"NoteNumber":60,"Velocity":45,"Duration":118772,"SoundDuration":118772,"Delta":30958357},{"NoteNumber":64,"Velocity":36,"Duration":118771,"SoundDuration":118771,"Delta":31077129},{"NoteNumber":67,"Velocity":36,"Duration":118771,"SoundDuration":118771,"Delta":31195901},{"NoteNumber":76,"Velocity":57,"Duration":88396,"SoundDuration":88396,"Delta":31314673},{"NoteNumber":59,"Velocity":45,"Duration":117862,"SoundDuration":117862,"Delta":31314673},{"NoteNumber":74,"Velocity":50,"Duration":88396,"SoundDuration":88396,"Delta":31403070},{"NoteNumber":62,"Velocity":36,"Duration":117861,"SoundDuration":117861,"Delta":31432535},{"NoteNumber":72,"Velocity":50,"Duration":88396,"SoundDuration":88396,"Delta":31491466},{"NoteNumber":67,"Velocity":37,"Duration":117862,"SoundDuration":117862,"Delta":31550397},{"NoteNumber":74,"Velocity":50,"Duration":88396,"SoundDuration":88396,"Delta":31579863},{"NoteNumber":76,"Velocity":63,"Duration":88396,"SoundDuration":88396,"Delta":31668259},{"NoteNumber":60,"Velocity":45,"Duration":117862,"SoundDuration":117862,"Delta":31668259},{"NoteNumber":64,"Velocity":36,"Duration":117861,"SoundDuration":117861,"Delta":31786121},{"NoteNumber":67,"Velocity":36,"Duration":117862,"SoundDuration":117862,"Delta":31903983},{"NoteNumber":76,"Velocity":53,"Duration":88396,"SoundDuration":88396,"Delta":32021845},{"NoteNumber":60,"Velocity":45,"Duration":117862,"SoundDuration":117862,"Delta":32021845},{"NoteNumber":64,"Velocity":38,"Duration":117861,"SoundDuration":117861,"Delta":32139707},{"NoteNumber":67,"Velocity":39,"Duration":117862,"SoundDuration":117862,"Delta":32257569},{"NoteNumber":76,"Velocity":53,"Duration":89078,"SoundDuration":89078,"Delta":32375431},{"NoteNumber":60,"Velocity":46,"Duration":118771,"SoundDuration":118771,"Delta":32375431},{"NoteNumber":64,"Velocity":37,"Duration":118771,"SoundDuration":118771,"Delta":32494203},{"NoteNumber":67,"Velocity":37,"Duration":118771,"SoundDuration":118771,"Delta":32612975},{"NoteNumber":79,"Velocity":60,"Duration":88396,"SoundDuration":88396,"Delta":32731747},{"NoteNumber":60,"Velocity":47,"Duration":117862,"SoundDuration":117862,"Delta":32731747},{"NoteNumber":78,"Velocity":53,"Duration":88396,"SoundDuration":88396,"Delta":32820144},{"NoteNumber":62,"Velocity":38,"Duration":117861,"SoundDuration":117861,"Delta":32849609},{"NoteNumber":76,"Velocity":53,"Duration":88396,"SoundDuration":88396,"Delta":32908540},{"NoteNumber":66,"Velocity":39,"Duration":117862,"SoundDuration":117862,"Delta":32967471},{"NoteNumber":78,"Velocity":53,"Duration":88396,"SoundDuration":88396,"Delta":32996937},{"NoteNumber":79,"Velocity":68,"Duration":88736,"SoundDuration":88736,"Delta":33085333},{"NoteNumber":59,"Velocity":48,"Duration":118315,"SoundDuration":118315,"Delta":33085333},{"NoteNumber":62,"Velocity":38,"Duration":118315,"SoundDuration":118315,"Delta":33203649},{"NoteNumber":67,"Velocity":39,"Duration":118315,"SoundDuration":118315,"Delta":33321964},{"NoteNumber":79,"Velocity":57,"Duration":88736,"SoundDuration":88736,"Delta":33440279},{"NoteNumber":59,"Velocity":49,"Duration":118315,"SoundDuration":118315,"Delta":33440279},{"NoteNumber":62,"Velocity":41,"Duration":118315,"SoundDuration":118315,"Delta":33558595},{"NoteNumber":67,"Velocity":42,"Duration":118315,"SoundDuration":118315,"Delta":33676910},{"NoteNumber":79,"Velocity":57,"Duration":89078,"SoundDuration":89078,"Delta":33795225},{"NoteNumber":59,"Velocity":50,"Duration":118771,"SoundDuration":118771,"Delta":33795225},{"NoteNumber":62,"Velocity":40,"Duration":118771,"SoundDuration":118771,"Delta":33913997},{"NoteNumber":67,"Velocity":40,"Duration":118771,"SoundDuration":118771,"Delta":34032769},{"NoteNumber":83,"Velocity":64,"Duration":88396,"SoundDuration":88396,"Delta":34151541},{"NoteNumber":54,"Velocity":51,"Duration":117862,"SoundDuration":117862,"Delta":34151541},{"NoteNumber":81,"Velocity":57,"Duration":88396,"SoundDuration":88396,"Delta":34239938},{"NoteNumber":57,"Velocity":41,"Duration":117861,"SoundDuration":117861,"Delta":34269403},{"NoteNumber":79,"Velocity":57,"Duration":88396,"SoundDuration":88396,"Delta":34328334},{"NoteNumber":62,"Velocity":42,"Duration":117862,"SoundDuration":117862,"Delta":34387265},{"NoteNumber":81,"Velocity":57,"Duration":88396,"SoundDuration":88396,"Delta":34416731},{"NoteNumber":83,"Velocity":73,"Duration":88736,"SoundDuration":88736,"Delta":34505127},{"NoteNumber":55,"Velocity":52,"Duration":118315,"SoundDuration":118315,"Delta":34505127},{"NoteNumber":59,"Velocity":41,"Duration":118315,"SoundDuration":118315,"Delta":34623443},{"NoteNumber":62,"Velocity":42,"Duration":118315,"SoundDuration":118315,"Delta":34741758},{"NoteNumber":79,"Velocity":64,"Duration":88736,"SoundDuration":88736,"Delta":34860073},{"NoteNumber":55,"Velocity":53,"Duration":118315,"SoundDuration":118315,"Delta":34860073},{"NoteNumber":59,"Velocity":44,"Duration":118315,"SoundDuration":118315,"Delta":34978389},{"NoteNumber":62,"Velocity":45,"Duration":118315,"SoundDuration":118315,"Delta":35096704},{"NoteNumber":79,"Velocity":64,"Duration":89078,"SoundDuration":89078,"Delta":35215019},{"NoteNumber":55,"Velocity":54,"Duration":118771,"SoundDuration":118771,"Delta":35215019},{"NoteNumber":59,"Velocity":43,"Duration":118771,"SoundDuration":118771,"Delta":35333791},{"NoteNumber":62,"Velocity":43,"Duration":118771,"SoundDuration":118771,"Delta":35452563},{"NoteNumber":83,"Velocity":69,"Duration":88396,"SoundDuration":88396,"Delta":35571335},{"NoteNumber":54,"Velocity":54,"Duration":117862,"SoundDuration":117862,"Delta":35571335},{"NoteNumber":81,"Velocity":61,"Duration":88396,"SoundDuration":88396,"Delta":35659732},{"NoteNumber":57,"Velocity":43,"Duration":117861,"SoundDuration":117861,"Delta":35689197},{"NoteNumber":79,"Velocity":61,"Duration":88396,"SoundDuration":88396,"Delta":35748128},{"NoteNumber":62,"Velocity":45,"Duration":117862,"SoundDuration":117862,"Delta":35807059},{"NoteNumber":81,"Velocity":61,"Duration":88396,"SoundDuration":88396,"Delta":35836525},{"NoteNumber":83,"Velocity":78,"Duration":88736,"SoundDuration":88736,"Delta":35924921},{"NoteNumber":55,"Velocity":55,"Duration":118315,"SoundDuration":118315,"Delta":35924921},{"NoteNumber":59,"Velocity":44,"Duration":118315,"SoundDuration":118315,"Delta":36043237},{"NoteNumber":62,"Velocity":45,"Duration":118315,"SoundDuration":118315,"Delta":36161552},{"NoteNumber":79,"Velocity":65,"Duration":88736,"SoundDuration":88736,"Delta":36279867},{"NoteNumber":55,"Velocity":56,"Duration":118315,"SoundDuration":118315,"Delta":36279867},{"NoteNumber":59,"Velocity":47,"Duration":118315,"SoundDuration":118315,"Delta":36398183},{"NoteNumber":62,"Velocity":48,"Duration":118315,"SoundDuration":118315,"Delta":36516498},{"NoteNumber":79,"Velocity":65,"Duration":89078,"SoundDuration":89078,"Delta":36634813},{"NoteNumber":55,"Velocity":57,"Duration":118771,"SoundDuration":118771,"Delta":36634813},{"NoteNumber":59,"Velocity":46,"Duration":118771,"SoundDuration":118771,"Delta":36753585},{"NoteNumber":62,"Velocity":46,"Duration":118771,"SoundDuration":118771,"Delta":36872357},{"NoteNumber":79,"Velocity":75,"Duration":117862,"SoundDuration":117862,"Delta":36991129},{"NoteNumber":55,"Velocity":57,"Duration":117862,"SoundDuration":117862,"Delta":36991129},{"NoteNumber":83,"Velocity":69,"Duration":117861,"SoundDuration":117861,"Delta":37108991},{"NoteNumber":59,"Velocity":50,"Duration":117861,"SoundDuration":117861,"Delta":37108991},{"NoteNumber":86,"Velocity":71,"Duration":117862,"SoundDuration":117862,"Delta":37226853},{"NoteNumber":62,"Velocity":50,"Duration":117862,"SoundDuration":117862,"Delta":37226853},{"NoteNumber":84,"Velocity":75,"Duration":345661,"SoundDuration":345661,"Delta":37344715},{"NoteNumber":54,"Velocity":64,"Duration":115220,"SoundDuration":115220,"Delta":37344715},{"NoteNumber":57,"Velocity":53,"Duration":115220,"SoundDuration":115220,"Delta":37459936},{"NoteNumber":62,"Velocity":45,"Duration":115220,"SoundDuration":115220,"Delta":37575157},{"NoteNumber":84,"Velocity":69,"Duration":261202,"SoundDuration":261202,"Delta":37690377},{"NoteNumber":54,"Velocity":56,"Duration":116089,"SoundDuration":116089,"Delta":37690377},{"NoteNumber":57,"Velocity":45,"Duration":116089,"SoundDuration":116089,"Delta":37806467},{"NoteNumber":62,"Velocity":45,"Duration":130346,"SoundDuration":130346,"Delta":37922557},{"NoteNumber":86,"Velocity":65,"Duration":101323,"SoundDuration":101323,"Delta":37951580},{"NoteNumber":83,"Velocity":75,"Duration":87067,"SoundDuration":87067,"Delta":38052904},{"NoteNumber":55,"Velocity":56,"Duration":116089,"SoundDuration":116089,"Delta":38052904},{"NoteNumber":59,"Velocity":43,"Duration":116089,"SoundDuration":116089,"Delta":38168994},{"NoteNumber":62,"Velocity":44,"Duration":116089,"SoundDuration":116089,"Delta":38285084},{"NoteNumber":83,"Velocity":75,"Duration":259246,"SoundDuration":259246,"Delta":38401174},{"NoteNumber":55,"Velocity":56,"Duration":115220,"SoundDuration":115220,"Delta":38401174},{"NoteNumber":59,"Velocity":46,"Duration":115220,"SoundDuration":115220,"Delta":38516394},{"NoteNumber":62,"Velocity":46,"Duration":129449,"SoundDuration":129449,"Delta":38631615},{"NoteNumber":84,"Velocity":70,"Duration":100644,"SoundDuration":100644,"Delta":38660420},{"NoteNumber":81,"Velocity":75,"Duration":86415,"SoundDuration":86415,"Delta":38761064},{"NoteNumber":60,"Velocity":56,"Duration":115220,"SoundDuration":115220,"Delta":38761064},{"NoteNumber":62,"Velocity":43,"Duration":115220,"SoundDuration":115220,"Delta":38876285},{"NoteNumber":66,"Velocity":45,"Duration":115220,"SoundDuration":115220,"Delta":38991506},{"NoteNumber":81,"Velocity":69,"Duration":261202,"SoundDuration":261202,"Delta":39106726},{"NoteNumber":60,"Velocity":56,"Duration":116089,"SoundDuration":116089,"Delta":39106726},{"NoteNumber":62,"Velocity":45,"Duration":116089,"SoundDuration":116089,"Delta":39222816},{"NoteNumber":66,"Velocity":45,"Duration":130346,"SoundDuration":130346,"Delta":39338906},{"NoteNumber":83,"Velocity":65,"Duration":101323,"SoundDuration":101323,"Delta":39367929},{"NoteNumber":79,"Velocity":75,"Duration":87067,"SoundDuration":87067,"Delta":39469253},{"NoteNumber":59,"Velocity":56,"Duration":116089,"SoundDuration":116089,"Delta":39469253},{"NoteNumber":62,"Velocity":43,"Duration":116089,"SoundDuration":116089,"Delta":39585343},{"NoteNumber":67,"Velocity":44,"Duration":116089,"SoundDuration":116089,"Delta":39701433},{"NoteNumber":79,"Velocity":57,"Duration":117862,"SoundDuration":117862,"Delta":39817523},{"NoteNumber":59,"Velocity":39,"Duration":117862,"SoundDuration":117862,"Delta":39817523},{"NoteNumber":83,"Velocity":52,"Duration":117861,"SoundDuration":117861,"Delta":39935385},{"NoteNumber":62,"Velocity":35,"Duration":117861,"SoundDuration":117861,"Delta":39935385},{"NoteNumber":86,"Velocity":53,"Duration":117862,"SoundDuration":117862,"Delta":40053247},{"NoteNumber":67,"Velocity":35,"Duration":117862,"SoundDuration":117862,"Delta":40053247},{"NoteNumber":84,"Velocity":57,"Duration":172831,"SoundDuration":172831,"Delta":40171109},{"NoteNumber":54,"Velocity":39,"Duration":115220,"SoundDuration":115220,"Delta":40171109},{"NoteNumber":57,"Velocity":30,"Duration":115220,"SoundDuration":115220,"Delta":40286329},{"NoteNumber":86,"Velocity":57,"Duration":57610,"SoundDuration":57610,"Delta":40343940},{"NoteNumber":84,"Velocity":49,"Duration":57610,"SoundDuration":57610,"Delta":40401550},{"NoteNumber":62,"Velocity":31,"Duration":115220,"SoundDuration":115220,"Delta":40401550},{"NoteNumber":83,"Velocity":49,"Duration":57610,"SoundDuration":57610,"Delta":40459160},{"NoteNumber":84,"Velocity":52,"Duration":261202,"SoundDuration":261202,"Delta":40516771},{"NoteNumber":54,"Velocity":39,"Duration":116089,"SoundDuration":116089,"Delta":40516771},{"NoteNumber":57,"Velocity":31,"Duration":116089,"SoundDuration":116089,"Delta":40632861},{"NoteNumber":62,"Velocity":31,"Duration":130346,"SoundDuration":130346,"Delta":40748951},{"NoteNumber":86,"Velocity":49,"Duration":101323,"SoundDuration":101323,"Delta":40777973},{"NoteNumber":83,"Velocity":57,"Duration":174134,"SoundDuration":174134,"Delta":40879297},{"NoteNumber":55,"Velocity":39,"Duration":116089,"SoundDuration":116089,"Delta":40879297},{"NoteNumber":59,"Velocity":30,"Duration":116089,"SoundDuration":116089,"Delta":40995387},{"NoteNumber":84,"Velocity":57,"Duration":58044,"SoundDuration":58044,"Delta":41053432},{"NoteNumber":83,"Velocity":50,"Duration":58044,"SoundDuration":58044,"Delta":41111477},{"NoteNumber":62,"Velocity":30,"Duration":116089,"SoundDuration":116089,"Delta":41111477},{"NoteNumber":81,"Velocity":50,"Duration":58044,"SoundDuration":58044,"Delta":41169522},{"NoteNumber":83,"Velocity":57,"Duration":259246,"SoundDuration":259246,"Delta":41227567},{"NoteNumber":55,"Velocity":39,"Duration":115220,"SoundDuration":115220,"Delta":41227567},{"NoteNumber":59,"Velocity":32,"Duration":115220,"SoundDuration":115220,"Delta":41342788},{"NoteNumber":62,"Velocity":32,"Duration":129449,"SoundDuration":129449,"Delta":41458009},{"NoteNumber":84,"Velocity":53,"Duration":100644,"SoundDuration":100644,"Delta":41486814},{"NoteNumber":81,"Velocity":57,"Duration":172831,"SoundDuration":172831,"Delta":41587458},{"NoteNumber":60,"Velocity":39,"Duration":115220,"SoundDuration":115220,"Delta":41587458},{"NoteNumber":62,"Velocity":30,"Duration":115220,"SoundDuration":115220,"Delta":41702678},{"NoteNumber":83,"Velocity":57,"Duration":57610,"SoundDuration":57610,"Delta":41760289},{"NoteNumber":81,"Velocity":51,"Duration":57610,"SoundDuration":57610,"Delta":41817899},{"NoteNumber":66,"Velocity":31,"Duration":115220,"SoundDuration":115220,"Delta":41817899},{"NoteNumber":79,"Velocity":51,"Duration":57610,"SoundDuration":57610,"Delta":41875509},{"NoteNumber":81,"Velocity":52,"Duration":261202,"SoundDuration":261202,"Delta":41933120},{"NoteNumber":60,"Velocity":39,"Duration":116089,"SoundDuration":116089,"Delta":41933120},{"NoteNumber":62,"Velocity":31,"Duration":116089,"SoundDuration":116089,"Delta":42049210},{"NoteNumber":66,"Velocity":31,"Duration":130346,"SoundDuration":130346,"Delta":42165300},{"NoteNumber":83,"Velocity":49,"Duration":101323,"SoundDuration":101323,"Delta":42194322},{"NoteNumber":79,"Velocity":57,"Duration":348269,"SoundDuration":348269,"Delta":42295646},{"NoteNumber":59,"Velocity":39,"Duration":116089,"SoundDuration":116089,"Delta":42295646},{"NoteNumber":62,"Velocity":30,"Duration":116089,"SoundDuration":116089,"Delta":42411736},{"NoteNumber":67,"Velocity":30,"Duration":116089,"SoundDuration":116089,"Delta":42527826},{"NoteNumber":86,"Velocity":66,"Duration":261202,"SoundDuration":261202,"Delta":42643916},{"NoteNumber":59,"Velocity":54,"Duration":116089,"SoundDuration":116089,"Delta":42643916},{"NoteNumber":62,"Velocity":43,"Duration":116089,"SoundDuration":116089,"Delta":42760006},{"NoteNumber":67,"Velocity":44,"Duration":116089,"SoundDuration":116089,"Delta":42876096},{"NoteNumber":83,"Velocity":55,"Duration":87067,"SoundDuration":87067,"Delta":42905119},{"NoteNumber":81,"Velocity":74,"Duration":172831,"SoundDuration":172831,"Delta":42992186},{"NoteNumber":60,"Velocity":54,"Duration":115220,"SoundDuration":115220,"Delta":42992186},{"NoteNumber":64,"Velocity":40,"Duration":115220,"SoundDuration":115220,"Delta":43107407},{"NoteNumber":83,"Velocity":68,"Duration":57610,"SoundDuration":57610,"Delta":43165017},{"NoteNumber":81,"Velocity":59,"Duration":57610,"SoundDuration":57610,"Delta":43222628},{"NoteNumber":69,"Velocity":41,"Duration":115220,"SoundDuration":115220,"Delta":43222628},{"NoteNumber":79,"Velocity":59,"Duration":57610,"SoundDuration":57610,"Delta":43280238},{"NoteNumber":81,"Velocity":62,"Duration":261202,"SoundDuration":261202,"Delta":43337848},{"NoteNumber":60,"Velocity":55,"Duration":116089,"SoundDuration":116089,"Delta":43337848},{"NoteNumber":64,"Velocity":42,"Duration":116089,"SoundDuration":116089,"Delta":43453938},{"NoteNumber":69,"Velocity":42,"Duration":130346,"SoundDuration":130346,"Delta":43570028},{"NoteNumber":83,"Velocity":59,"Duration":101323,"SoundDuration":101323,"Delta":43599051},{"NoteNumber":79,"Velocity":68,"Duration":174134,"SoundDuration":174134,"Delta":43700375},{"NoteNumber":61,"Velocity":53,"Duration":116089,"SoundDuration":116089,"Delta":43700375},{"NoteNumber":64,"Velocity":41,"Duration":116089,"SoundDuration":116089,"Delta":43816465},{"NoteNumber":81,"Velocity":68,"Duration":58044,"SoundDuration":58044,"Delta":43874510},{"NoteNumber":79,"Velocity":60,"Duration":58044,"SoundDuration":58044,"Delta":43932555},{"NoteNumber":69,"Velocity":41,"Duration":116089,"SoundDuration":116089,"Delta":43932555},{"NoteNumber":78,"Velocity":60,"Duration":58044,"SoundDuration":58044,"Delta":43990600},{"NoteNumber":79,"Velocity":68,"Duration":259246,"SoundDuration":259246,"Delta":44048645},{"NoteNumber":61,"Velocity":51,"Duration":115220,"SoundDuration":115220,"Delta":44048645},{"NoteNumber":64,"Velocity":42,"Duration":115220,"SoundDuration":115220,"Delta":44163865},{"NoteNumber":69,"Velocity":43,"Duration":129449,"SoundDuration":129449,"Delta":44279086},{"NoteNumber":81,"Velocity":63,"Duration":100644,"SoundDuration":100644,"Delta":44307891},{"NoteNumber":78,"Velocity":74,"Duration":402575,"SoundDuration":402575,"Delta":44408535},{"NoteNumber":62,"Velocity":58,"Duration":402575,"SoundDuration":402575,"Delta":44408535},{"NoteNumber":74,"Velocity":68,"Duration":95516,"SoundDuration":95516,"Delta":45097662},{"NoteNumber":62,"Velocity":62,"Duration":95516,"SoundDuration":95516,"Delta":45097662},{"NoteNumber":78,"Velocity":79,"Duration":286551,"SoundDuration":286551,"Delta":45193179},{"NoteNumber":66,"Velocity":68,"Duration":286551,"SoundDuration":286551,"Delta":45193179},{"NoteNumber":74,"Velocity":68,"Duration":95517,"SoundDuration":95517,"Delta":45479730},{"NoteNumber":62,"Velocity":62,"Duration":95517,"SoundDuration":95517,"Delta":45479730},{"NoteNumber":81,"Velocity":74,"Duration":286551,"SoundDuration":286551,"Delta":45575247},{"NoteNumber":69,"Velocity":68,"Duration":286551,"SoundDuration":286551,"Delta":45575247},{"NoteNumber":78,"Velocity":68,"Duration":111078,"SoundDuration":111078,"Delta":45861798},{"NoteNumber":66,"Velocity":64,"Duration":111078,"SoundDuration":111078,"Delta":45861798},{"NoteNumber":86,"Velocity":86,"Duration":380856,"SoundDuration":380856,"Delta":45972876},{"NoteNumber":74,"Velocity":80,"Duration":380856,"SoundDuration":380856,"Delta":45972876},{"NoteNumber":62,"Velocity":66,"Duration":95214,"SoundDuration":95214,"Delta":46639374},{"NoteNumber":50,"Velocity":62,"Duration":95214,"SoundDuration":95214,"Delta":46639374},{"NoteNumber":66,"Velocity":77,"Duration":126951,"SoundDuration":126951,"Delta":46734588},{"NoteNumber":54,"Velocity":71,"Duration":126951,"SoundDuration":126951,"Delta":46734588},{"NoteNumber":62,"Velocity":69,"Duration":126952,"SoundDuration":126952,"Delta":46861540},{"NoteNumber":50,"Velocity":62,"Duration":126952,"SoundDuration":126952,"Delta":46861540},{"NoteNumber":66,"Velocity":69,"Duration":126951,"SoundDuration":126951,"Delta":46988492},{"NoteNumber":54,"Velocity":62,"Duration":126951,"SoundDuration":126951,"Delta":46988492},{"NoteNumber":69,"Velocity":80,"Duration":126952,"SoundDuration":126952,"Delta":47115444},{"NoteNumber":57,"Velocity":68,"Duration":126952,"SoundDuration":126952,"Delta":47115444},{"NoteNumber":66,"Velocity":70,"Duration":126952,"SoundDuration":126952,"Delta":47242396},{"NoteNumber":54,"Velocity":64,"Duration":126952,"SoundDuration":126952,"Delta":47242396},{"NoteNumber":69,"Velocity":70,"Duration":142816,"SoundDuration":142816,"Delta":47369348},{"NoteNumber":57,"Velocity":64,"Duration":142816,"SoundDuration":142816,"Delta":47369348},{"NoteNumber":74,"Velocity":84,"Duration":380856,"SoundDuration":380856,"Delta":47512165},{"NoteNumber":62,"Velocity":74,"Duration":380856,"SoundDuration":380856,"Delta":47512165},{"NoteNumber":50,"Velocity":95,"Duration":571283,"SoundDuration":571283,"Delta":48273877},{"NoteNumber":38,"Velocity":84,"Duration":571283,"SoundDuration":571283,"Delta":48273877},{"NoteNumber":50,"Velocity":89,"Duration":190427,"SoundDuration":190427,"Delta":48845161},{"NoteNumber":38,"Velocity":78,"Duration":190427,"SoundDuration":190427,"Delta":48845161},{"NoteNumber":50,"Velocity":97,"Duration":380856,"SoundDuration":380856,"Delta":49035589},{"NoteNumber":38,"Velocity":84,"Duration":380856,"SoundDuration":380856,"Delta":49035589},{"NoteNumber":59,"Velocity":40,"Duration":118315,"SoundDuration":118315,"Delta":50559013},{"NoteNumber":62,"Velocity":32,"Duration":118315,"SoundDuration":118315,"Delta":50679546},{"NoteNumber":67,"Velocity":32,"Duration":118315,"SoundDuration":118315,"Delta":50795643},{"NoteNumber":59,"Velocity":40,"Duration":118315,"SoundDuration":118315,"Delta":50913959},{"NoteNumber":62,"Velocity":34,"Duration":118315,"SoundDuration":118315,"Delta":51034492},{"NoteNumber":67,"Velocity":34,"Duration":118315,"SoundDuration":118315,"Delta":51150589},{"NoteNumber":59,"Velocity":40,"Duration":118771,"SoundDuration":118771,"Delta":51268905},{"NoteNumber":62,"Velocity":32,"Duration":118771,"SoundDuration":118771,"Delta":51389904},{"NoteNumber":67,"Velocity":32,"Duration":118771,"SoundDuration":118771,"Delta":51506449},{"NoteNumber":76,"Velocity":57,"Duration":88396,"SoundDuration":88396,"Delta":51625221},{"NoteNumber":60,"Velocity":40,"Duration":117862,"SoundDuration":117862,"Delta":51625221},{"NoteNumber":74,"Velocity":50,"Duration":88396,"SoundDuration":88396,"Delta":51713617},{"NoteNumber":62,"Velocity":32,"Duration":117861,"SoundDuration":117861,"Delta":51743083},{"NoteNumber":73,"Velocity":50,"Duration":88396,"SoundDuration":88396,"Delta":51802014},{"NoteNumber":66,"Velocity":33,"Duration":117862,"SoundDuration":117862,"Delta":51860945},{"NoteNumber":74,"Velocity":50,"Duration":88396,"SoundDuration":88396,"Delta":51890410},{"NoteNumber":79,"Velocity":63,"Duration":88396,"SoundDuration":88396,"Delta":51978807},{"NoteNumber":59,"Velocity":40,"Duration":117862,"SoundDuration":117862,"Delta":51978807},{"NoteNumber":62,"Velocity":32,"Duration":117862,"SoundDuration":117862,"Delta":52092986},{"NoteNumber":67,"Velocity":32,"Duration":117862,"SoundDuration":117862,"Delta":52214531},{"NoteNumber":79,"Velocity":53,"Duration":88396,"SoundDuration":88396,"Delta":52332393},{"NoteNumber":59,"Velocity":41,"Duration":117862,"SoundDuration":117862,"Delta":52332393},{"NoteNumber":62,"Velocity":35,"Duration":117862,"SoundDuration":117862,"Delta":52446572},{"NoteNumber":67,"Velocity":36,"Duration":117862,"SoundDuration":117862,"Delta":52568117},{"NoteNumber":59,"Velocity":43,"Duration":118771,"SoundDuration":118771,"Delta":52685979},{"NoteNumber":62,"Velocity":35,"Duration":118771,"SoundDuration":118771,"Delta":52804751},{"NoteNumber":67,"Velocity":35,"Duration":118771,"SoundDuration":118771,"Delta":52923523},{"NoteNumber":76,"Velocity":60,"Duration":88396,"SoundDuration":88396,"Delta":53042295},{"NoteNumber":60,"Velocity":45,"Duration":117862,"SoundDuration":117862,"Delta":53042295},{"NoteNumber":74,"Velocity":53,"Duration":88396,"SoundDuration":88396,"Delta":53130691},{"NoteNumber":62,"Velocity":37,"Duration":117861,"SoundDuration":117861,"Delta":53160157},{"NoteNumber":73,"Velocity":53,"Duration":88396,"SoundDuration":88396,"Delta":53219088},{"NoteNumber":66,"Velocity":38,"Duration":117862,"SoundDuration":117862,"Delta":53278019},{"NoteNumber":74,"Velocity":53,"Duration":88396,"SoundDuration":88396,"Delta":53307484},{"NoteNumber":79,"Velocity":68,"Duration":88736,"SoundDuration":88736,"Delta":53395881},{"NoteNumber":59,"Velocity":47,"Duration":118315,"SoundDuration":118315,"Delta":53395881},{"NoteNumber":62,"Velocity":38,"Duration":118315,"SoundDuration":118315,"Delta":53514196},{"NoteNumber":67,"Velocity":39,"Duration":118315,"SoundDuration":118315,"Delta":53632511},{"NoteNumber":79,"Velocity":57,"Duration":88736,"SoundDuration":88736,"Delta":53750827},{"NoteNumber":59,"Velocity":49,"Duration":118315,"SoundDuration":118315,"Delta":53750827},{"NoteNumber":62,"Velocity":41,"Duration":118315,"SoundDuration":118315,"Delta":53869142},{"NoteNumber":67,"Velocity":42,"Duration":118315,"SoundDuration":118315,"Delta":53987457},{"NoteNumber":59,"Velocity":50,"Duration":118771,"SoundDuration":118771,"Delta":54105773},{"NoteNumber":62,"Velocity":40,"Duration":118771,"SoundDuration":118771,"Delta":54224545},{"NoteNumber":67,"Velocity":40,"Duration":118771,"SoundDuration":118771,"Delta":54343317},{"NoteNumber":76,"Velocity":64,"Duration":88396,"SoundDuration":88396,"Delta":54462089},{"NoteNumber":60,"Velocity":51,"Duration":117862,"SoundDuration":117862,"Delta":54462089},{"NoteNumber":74,"Velocity":57,"Duration":88396,"SoundDuration":88396,"Delta":54550485},{"NoteNumber":62,"Velocity":41,"Duration":117861,"SoundDuration":117861,"Delta":54579951},{"NoteNumber":73,"Velocity":57,"Duration":88396,"SoundDuration":88396,"Delta":54638882},{"NoteNumber":66,"Velocity":42,"Duration":117862,"SoundDuration":117862,"Delta":54697813},{"NoteNumber":74,"Velocity":57,"Duration":88396,"SoundDuration":88396,"Delta":54727278},{"NoteNumber":79,"Velocity":73,"Duration":354945,"SoundDuration":354945,"Delta":54815675},{"NoteNumber":59,"Velocity":52,"Duration":118315,"SoundDuration":118315,"Delta":54815675},{"NoteNumber":62,"Velocity":41,"Duration":118315,"SoundDuration":118315,"Delta":54933990},{"NoteNumber":67,"Velocity":42,"Duration":118315,"SoundDuration":118315,"Delta":55052305},{"NoteNumber":81,"Velocity":75,"Duration":88736,"SoundDuration":88736,"Delta":55170621},{"NoteNumber":59,"Velocity":54,"Duration":118315,"SoundDuration":118315,"Delta":55170621},{"NoteNumber":79,"Velocity":63,"Duration":88736,"SoundDuration":88736,"Delta":55259357},{"NoteNumber":62,"Velocity":45,"Duration":118315,"SoundDuration":118315,"Delta":55288936},{"NoteNumber":78,"Velocity":63,"Duration":88736,"SoundDuration":88736,"Delta":55348094},{"NoteNumber":67,"Velocity":46,"Duration":118315,"SoundDuration":118315,"Delta":55407251},{"NoteNumber":79,"Velocity":63,"Duration":88736,"SoundDuration":88736,"Delta":55436830},{"NoteNumber":81,"Velocity":75,"Duration":356315,"SoundDuration":356315,"Delta":55525567},{"NoteNumber":54,"Velocity":56,"Duration":118771,"SoundDuration":118771,"Delta":55525567},{"NoteNumber":57,"Velocity":45,"Duration":118771,"SoundDuration":118771,"Delta":55644339},{"NoteNumber":62,"Velocity":45,"Duration":118771,"SoundDuration":118771,"Delta":55763111},{"NoteNumber":83,"Velocity":75,"Duration":88396,"SoundDuration":88396,"Delta":55881883},{"NoteNumber":54,"Velocity":57,"Duration":117862,"SoundDuration":117862,"Delta":55881883},{"NoteNumber":81,"Velocity":66,"Duration":88396,"SoundDuration":88396,"Delta":55970279},{"NoteNumber":57,"Velocity":46,"Duration":117861,"SoundDuration":117861,"Delta":55999745},{"NoteNumber":79,"Velocity":66,"Duration":88396,"SoundDuration":88396,"Delta":56058676},{"NoteNumber":62,"Velocity":48,"Duration":117862,"SoundDuration":117862,"Delta":56117607},{"NoteNumber":81,"Velocity":66,"Duration":88396,"SoundDuration":88396,"Delta":56147072},{"NoteNumber":83,"Velocity":78,"Duration":354945,"SoundDuration":354945,"Delta":56235469},{"NoteNumber":55,"Velocity":59,"Duration":118315,"SoundDuration":118315,"Delta":56235469},{"NoteNumber":59,"Velocity":48,"Duration":118315,"SoundDuration":118315,"Delta":56353784},{"NoteNumber":62,"Velocity":49,"Duration":118315,"SoundDuration":118315,"Delta":56472099},{"NoteNumber":84,"Velocity":77,"Duration":88736,"SoundDuration":88736,"Delta":56590415},{"NoteNumber":55,"Velocity":62,"Duration":118315,"SoundDuration":118315,"Delta":56590415},{"NoteNumber":83,"Velocity":70,"Duration":88736,"SoundDuration":88736,"Delta":56679151},{"NoteNumber":59,"Velocity":52,"Duration":118315,"SoundDuration":118315,"Delta":56708730},{"NoteNumber":81,"Velocity":70,"Duration":88736,"SoundDuration":88736,"Delta":56767888},{"NoteNumber":62,"Velocity":54,"Duration":118315,"SoundDuration":118315,"Delta":56827045},{"NoteNumber":83,"Velocity":71,"Duration":88736,"SoundDuration":88736,"Delta":56856624},{"NoteNumber":84,"Velocity":81,"Duration":356315,"SoundDuration":356315,"Delta":56945361},{"NoteNumber":52,"Velocity":64,"Duration":118771,"SoundDuration":118771,"Delta":56945361},{"NoteNumber":55,"Velocity":52,"Duration":118771,"SoundDuration":118771,"Delta":57064133},{"NoteNumber":60,"Velocity":52,"Duration":118771,"SoundDuration":118771,"Delta":57182905},{"NoteNumber":86,"Velocity":87,"Duration":90612,"SoundDuration":90612,"Delta":57301677},{"NoteNumber":52,"Velocity":66,"Duration":120816,"SoundDuration":120816,"Delta":57301677},{"NoteNumber":84,"Velocity":75,"Duration":90612,"SoundDuration":90612,"Delta":57392289},{"NoteNumber":55,"Velocity":58,"Duration":120816,"SoundDuration":120816,"Delta":57422493},{"NoteNumber":83,"Velocity":78,"Duration":90612,"SoundDuration":90612,"Delta":57482902},{"NoteNumber":60,"Velocity":59,"Duration":139661,"SoundDuration":139661,"Delta":57543310},{"NoteNumber":84,"Velocity":76,"Duration":109456,"SoundDuration":109456,"Delta":57573514},{"NoteNumber":86,"Velocity":105,"Duration":1107713,"SoundDuration":1107713,"Delta":57682971},{"NoteNumber":47,"Velocity":67,"Duration":120452,"SoundDuration":120452,"Delta":57682971},{"NoteNumber":50,"Velocity":60,"Duration":120452,"SoundDuration":120452,"Delta":57802671},{"NoteNumber":55,"Velocity":61,"Duration":120457,"SoundDuration":120457,"Delta":57922372},{"NoteNumber":47,"Velocity":68,"Duration":121519,"SoundDuration":121519,"Delta":58042072},{"NoteNumber":50,"Velocity":62,"Duration":122585,"SoundDuration":122585,"Delta":58162829},{"NoteNumber":55,"Velocity":62,"Duration":123739,"SoundDuration":123739,"Delta":58286953},{"NoteNumber":47,"Velocity":71,"Duration":378434,"SoundDuration":378434,"Delta":58412250},{"NoteNumber":75,"Velocity":86,"Duration":398564,"SoundDuration":398564,"Delta":58790684},{"NoteNumber":87,"Velocity":103,"Duration":398564,"SoundDuration":398564,"Delta":58790684},{"NoteNumber":76,"Velocity":92,"Duration":369140,"SoundDuration":369140,"Delta":59189249},{"NoteNumber":88,"Velocity":108,"Duration":369140,"SoundDuration":369140,"Delta":59189249},{"NoteNumber":48,"Velocity":72,"Duration":369140,"SoundDuration":369140,"Delta":59189249},{"NoteNumber":36,"Velocity":72,"Duration":369140,"SoundDuration":369140,"Delta":59189249},{"NoteNumber":68,"Velocity":64,"Duration":369140,"SoundDuration":369140,"Delta":59558389},{"NoteNumber":80,"Velocity":75,"Duration":369140,"SoundDuration":369140,"Delta":59558389},{"NoteNumber":69,"Velocity":69,"Duration":369139,"SoundDuration":369139,"Delta":59927529},{"NoteNumber":81,"Velocity":82,"Duration":369139,"SoundDuration":369139,"Delta":59927529},{"NoteNumber":83,"Velocity":89,"Duration":369140,"SoundDuration":369140,"Delta":60296669},{"NoteNumber":71,"Velocity":75,"Duration":369140,"SoundDuration":369140,"Delta":60296669},{"NoteNumber":72,"Velocity":80,"Duration":763773,"SoundDuration":763773,"Delta":60665809},{"NoteNumber":84,"Velocity":95,"Duration":763773,"SoundDuration":763773,"Delta":60665809},{"NoteNumber":74,"Velocity":76,"Duration":377263,"SoundDuration":377263,"Delta":61429582},{"NoteNumber":86,"Velocity":90,"Duration":377263,"SoundDuration":377263,"Delta":61429582},{"NoteNumber":76,"Velocity":72,"Duration":422415,"SoundDuration":422415,"Delta":61806846},{"NoteNumber":88,"Velocity":86,"Duration":422415,"SoundDuration":422415,"Delta":61806846},{"NoteNumber":79,"Velocity":70,"Duration":696421,"SoundDuration":696421,"Delta":62229262},{"NoteNumber":74,"Velocity":59,"Duration":696421,"SoundDuration":696421,"Delta":62229262},{"NoteNumber":71,"Velocity":42,"Duration":742850,"SoundDuration":742850,"Delta":62229262},{"NoteNumber":62,"Velocity":42,"Duration":1515972,"SoundDuration":1515972,"Delta":62229262},{"NoteNumber":83,"Velocity":58,"Duration":46428,"SoundDuration":46428,"Delta":62925684},{"NoteNumber":78,"Velocity":66,"Duration":773122,"SoundDuration":773122,"Delta":62972112},{"NoteNumber":81,"Velocity":66,"Duration":564121,"SoundDuration":564121,"Delta":62972112},{"NoteNumber":72,"Velocity":43,"Duration":773122,"SoundDuration":773122,"Delta":62972112},{"NoteNumber":79,"Velocity":56,"Duration":209001,"SoundDuration":209001,"Delta":63536234},{"NoteNumber":79,"Velocity":66,"Duration":370278,"SoundDuration":370278,"Delta":63745235},{"NoteNumber":67,"Velocity":40,"Duration":370278,"SoundDuration":370278,"Delta":63745235},{"NoteNumber":71,"Velocity":40,"Duration":370278,"SoundDuration":370278,"Delta":63745235},{"NoteNumber":83,"Velocity":57,"Duration":119731,"SoundDuration":119731,"Delta":64856072},{"NoteNumber":79,"Velocity":36,"Duration":374561,"SoundDuration":374561,"Delta":64856072},{"NoteNumber":87,"Velocity":61,"Duration":119731,"SoundDuration":119731,"Delta":64975804},{"NoteNumber":88,"Velocity":61,"Duration":135098,"SoundDuration":135098,"Delta":65095535},{"NoteNumber":86,"Velocity":58,"Duration":89798,"SoundDuration":89798,"Delta":65230634},{"NoteNumber":78,"Velocity":38,"Duration":89798,"SoundDuration":89798,"Delta":65230634},{"NoteNumber":81,"Velocity":38,"Duration":89798,"SoundDuration":89798,"Delta":65230634},{"NoteNumber":86,"Velocity":49,"Duration":89798,"SoundDuration":89798,"Delta":65589829},{"NoteNumber":86,"Velocity":49,"Duration":89798,"SoundDuration":89798,"Delta":65949024},{"NoteNumber":79,"Velocity":57,"Duration":119731,"SoundDuration":119731,"Delta":66321785},{"NoteNumber":76,"Velocity":36,"Duration":374561,"SoundDuration":374561,"Delta":66321785},{"NoteNumber":83,"Velocity":44,"Duration":119731,"SoundDuration":119731,"Delta":66441517},{"NoteNumber":84,"Velocity":44,"Duration":135098,"SoundDuration":135098,"Delta":66561248},{"NoteNumber":83,"Velocity":58,"Duration":89798,"SoundDuration":89798,"Delta":66696347},{"NoteNumber":78,"Velocity":38,"Duration":89798,"SoundDuration":89798,"Delta":66696347},{"NoteNumber":74,"Velocity":38,"Duration":89798,"SoundDuration":89798,"Delta":66696347},{"NoteNumber":83,"Velocity":49,"Duration":89798,"SoundDuration":89798,"Delta":67055542},{"NoteNumber":83,"Velocity":49,"Duration":89798,"SoundDuration":89798,"Delta":67414737},{"NoteNumber":76,"Velocity":57,"Duration":119731,"SoundDuration":119731,"Delta":67773932},{"NoteNumber":72,"Velocity":36,"Duration":374561,"SoundDuration":374561,"Delta":67773932},{"NoteNumber":80,"Velocity":44,"Duration":119731,"SoundDuration":119731,"Delta":67893664},{"NoteNumber":81,"Velocity":44,"Duration":135098,"SoundDuration":135098,"Delta":68013395},{"NoteNumber":79,"Velocity":58,"Duration":89798,"SoundDuration":89798,"Delta":68148494},{"NoteNumber":71,"Velocity":38,"Duration":89798,"SoundDuration":89798,"Delta":68148494},{"NoteNumber":74,"Velocity":38,"Duration":89798,"SoundDuration":89798,"Delta":68148494},{"NoteNumber":79,"Velocity":49,"Duration":89798,"SoundDuration":89798,"Delta":68507689},{"NoteNumber":79,"Velocity":49,"Duration":89798,"SoundDuration":89798,"Delta":68866884},{"NoteNumber":83,"Velocity":61,"Duration":265424,"SoundDuration":265424,"Delta":69226079},{"NoteNumber":71,"Velocity":36,"Duration":353898,"SoundDuration":353898,"Delta":69226079},{"NoteNumber":67,"Velocity":36,"Duration":353898,"SoundDuration":353898,"Delta":69226079},{"NoteNumber":79,"Velocity":54,"Duration":88474,"SoundDuration":88474,"Delta":69491503},{"NoteNumber":76,"Velocity":62,"Duration":88474,"SoundDuration":88474,"Delta":69579978},{"NoteNumber":72,"Velocity":41,"Duration":88474,"SoundDuration":88474,"Delta":69579978},{"NoteNumber":60,"Velocity":41,"Duration":88474,"SoundDuration":88474,"Delta":69579978},{"NoteNumber":84,"Velocity":61,"Duration":268592,"SoundDuration":268592,"Delta":69943797},{"NoteNumber":81,"Velocity":53,"Duration":89530,"SoundDuration":89530,"Delta":70212389},{"NoteNumber":78,"Velocity":61,"Duration":89530,"SoundDuration":89530,"Delta":70301920},{"NoteNumber":69,"Velocity":38,"Duration":89530,"SoundDuration":89530,"Delta":70301920},{"NoteNumber":62,"Velocity":38,"Duration":89530,"SoundDuration":89530,"Delta":70301920},{"NoteNumber":81,"Velocity":60,"Duration":269440,"SoundDuration":269440,"Delta":70666121},{"NoteNumber":78,"Velocity":54,"Duration":91441,"SoundDuration":91441,"Delta":70935561},{"NoteNumber":79,"Velocity":61,"Duration":88736,"SoundDuration":88736,"Delta":71027002},{"NoteNumber":71,"Velocity":41,"Duration":88736,"SoundDuration":88736,"Delta":71027002},{"NoteNumber":67,"Velocity":41,"Duration":88736,"SoundDuration":88736,"Delta":71027002},{"NoteNumber":83,"Velocity":88,"Duration":119731,"SoundDuration":119731,"Delta":72091840},{"NoteNumber":79,"Velocity":70,"Duration":374561,"SoundDuration":374561,"Delta":72091840},{"NoteNumber":87,"Velocity":61,"Duration":119731,"SoundDuration":119731,"Delta":72211572},{"NoteNumber":88,"Velocity":61,"Duration":135098,"SoundDuration":135098,"Delta":72331304},{"NoteNumber":81,"Velocity":72,"Duration":119731,"SoundDuration":119731,"Delta":72466402},{"NoteNumber":78,"Velocity":44,"Duration":89798,"SoundDuration":89798,"Delta":72466402},{"NoteNumber":85,"Velocity":47,"Duration":119731,"SoundDuration":119731,"Delta":72586134},{"NoteNumber":86,"Velocity":47,"Duration":119731,"SoundDuration":119731,"Delta":72705866},{"NoteNumber":81,"Velocity":66,"Duration":119731,"SoundDuration":119731,"Delta":72825597},{"NoteNumber":78,"Velocity":35,"Duration":89798,"SoundDuration":89798,"Delta":72825597},{"NoteNumber":85,"Velocity":47,"Duration":119731,"SoundDuration":119731,"Delta":72945329},{"NoteNumber":86,"Velocity":47,"Duration":119731,"SoundDuration":119731,"Delta":73065061},{"NoteNumber":81,"Velocity":66,"Duration":119731,"SoundDuration":119731,"Delta":73184792},{"NoteNumber":78,"Velocity":35,"Duration":89798,"SoundDuration":89798,"Delta":73184792},{"NoteNumber":85,"Velocity":51,"Duration":119731,"SoundDuration":119731,"Delta":73304524},{"NoteNumber":86,"Velocity":52,"Duration":133297,"SoundDuration":133297,"Delta":73424256},{"NoteNumber":83,"Velocity":88,"Duration":119731,"SoundDuration":119731,"Delta":73557553},{"NoteNumber":79,"Velocity":70,"Duration":374561,"SoundDuration":374561,"Delta":73557553},{"NoteNumber":87,"Velocity":61,"Duration":119731,"SoundDuration":119731,"Delta":73677285},{"NoteNumber":88,"Velocity":61,"Duration":135098,"SoundDuration":135098,"Delta":73797017},{"NoteNumber":81,"Velocity":69,"Duration":119731,"SoundDuration":119731,"Delta":73932115},{"NoteNumber":78,"Velocity":44,"Duration":89798,"SoundDuration":89798,"Delta":73932115},{"NoteNumber":85,"Velocity":54,"Duration":119731,"SoundDuration":119731,"Delta":74051847},{"NoteNumber":86,"Velocity":55,"Duration":119731,"SoundDuration":119731,"Delta":74171579},{"NoteNumber":81,"Velocity":70,"Duration":119731,"SoundDuration":119731,"Delta":74291310},{"NoteNumber":78,"Velocity":32,"Duration":89798,"SoundDuration":89798,"Delta":74291310},{"NoteNumber":85,"Velocity":47,"Duration":119731,"SoundDuration":119731,"Delta":74411042},{"NoteNumber":86,"Velocity":47,"Duration":119731,"SoundDuration":119731,"Delta":74530774},{"NoteNumber":81,"Velocity":67,"Duration":119731,"SoundDuration":119731,"Delta":74650505},{"NoteNumber":78,"Velocity":32,"Duration":89798,"SoundDuration":89798,"Delta":74650505},{"NoteNumber":85,"Velocity":46,"Duration":119731,"SoundDuration":119731,"Delta":74770237},{"NoteNumber":86,"Velocity":49,"Duration":133297,"SoundDuration":133297,"Delta":74889969},{"NoteNumber":79,"Velocity":64,"Duration":119731,"SoundDuration":119731,"Delta":75023266},{"NoteNumber":76,"Velocity":63,"Duration":374561,"SoundDuration":374561,"Delta":75023266},{"NoteNumber":83,"Velocity":50,"Duration":119731,"SoundDuration":119731,"Delta":75142998},{"NoteNumber":84,"Velocity":50,"Duration":135098,"SoundDuration":135098,"Delta":75262730},{"NoteNumber":78,"Velocity":69,"Duration":119731,"SoundDuration":119731,"Delta":75397828},{"NoteNumber":74,"Velocity":39,"Duration":89798,"SoundDuration":89798,"Delta":75397828},{"NoteNumber":82,"Velocity":50,"Duration":119731,"SoundDuration":119731,"Delta":75517560},{"NoteNumber":83,"Velocity":50,"Duration":119731,"SoundDuration":119731,"Delta":75637292},{"NoteNumber":78,"Velocity":66,"Duration":119731,"SoundDuration":119731,"Delta":75757023},{"NoteNumber":74,"Velocity":30,"Duration":89798,"SoundDuration":89798,"Delta":75757023},{"NoteNumber":82,"Velocity":46,"Duration":119731,"SoundDuration":119731,"Delta":75876755},{"NoteNumber":83,"Velocity":46,"Duration":119731,"SoundDuration":119731,"Delta":75996487},{"NoteNumber":78,"Velocity":64,"Duration":119731,"SoundDuration":119731,"Delta":76116218},{"NoteNumber":74,"Velocity":30,"Duration":89798,"SoundDuration":89798,"Delta":76116218},{"NoteNumber":82,"Velocity":46,"Duration":119731,"SoundDuration":119731,"Delta":76235950},{"NoteNumber":83,"Velocity":46,"Duration":133297,"SoundDuration":133297,"Delta":76355682},{"NoteNumber":79,"Velocity":75,"Duration":119731,"SoundDuration":119731,"Delta":76488979},{"NoteNumber":76,"Velocity":58,"Duration":374561,"SoundDuration":374561,"Delta":76488979},{"NoteNumber":83,"Velocity":54,"Duration":119731,"SoundDuration":119731,"Delta":76608711},{"NoteNumber":84,"Velocity":54,"Duration":135098,"SoundDuration":135098,"Delta":76728443},{"NoteNumber":78,"Velocity":69,"Duration":119731,"SoundDuration":119731,"Delta":76863541},{"NoteNumber":74,"Velocity":39,"Duration":89798,"SoundDuration":89798,"Delta":76863541},{"NoteNumber":82,"Velocity":50,"Duration":119731,"SoundDuration":119731,"Delta":76983273},{"NoteNumber":83,"Velocity":50,"Duration":119731,"SoundDuration":119731,"Delta":77103005},{"NoteNumber":78,"Velocity":66,"Duration":119731,"SoundDuration":119731,"Delta":77222736},{"NoteNumber":74,"Velocity":28,"Duration":89798,"SoundDuration":89798,"Delta":77222736},{"NoteNumber":82,"Velocity":47,"Duration":119731,"SoundDuration":119731,"Delta":77342468},{"NoteNumber":83,"Velocity":47,"Duration":119731,"SoundDuration":119731,"Delta":77462200},{"NoteNumber":78,"Velocity":64,"Duration":119731,"SoundDuration":119731,"Delta":77581931},{"NoteNumber":74,"Velocity":28,"Duration":89798,"SoundDuration":89798,"Delta":77581931},{"NoteNumber":82,"Velocity":47,"Duration":119731,"SoundDuration":119731,"Delta":77701663},{"NoteNumber":83,"Velocity":48,"Duration":133297,"SoundDuration":133297,"Delta":77821395},{"NoteNumber":76,"Velocity":70,"Duration":119731,"SoundDuration":119731,"Delta":77954692},{"NoteNumber":72,"Velocity":56,"Duration":374561,"SoundDuration":374561,"Delta":77954692},{"NoteNumber":80,"Velocity":54,"Duration":119731,"SoundDuration":119731,"Delta":78074424},{"NoteNumber":81,"Velocity":54,"Duration":135098,"SoundDuration":135098,"Delta":78194156},{"NoteNumber":74,"Velocity":59,"Duration":119731,"SoundDuration":119731,"Delta":78329254},{"NoteNumber":71,"Velocity":39,"Duration":89798,"SoundDuration":89798,"Delta":78329254},{"NoteNumber":78,"Velocity":48,"Duration":119731,"SoundDuration":119731,"Delta":78448986},{"NoteNumber":79,"Velocity":46,"Duration":119731,"SoundDuration":119731,"Delta":78568718},{"NoteNumber":74,"Velocity":61,"Duration":119731,"SoundDuration":119731,"Delta":78688449},{"NoteNumber":71,"Velocity":28,"Duration":89798,"SoundDuration":89798,"Delta":78688449},{"NoteNumber":78,"Velocity":47,"Duration":119731,"SoundDuration":119731,"Delta":78808181},{"NoteNumber":79,"Velocity":50,"Duration":119731,"SoundDuration":119731,"Delta":78927913},{"NoteNumber":74,"Velocity":62,"Duration":119731,"SoundDuration":119731,"Delta":79047644},{"NoteNumber":71,"Velocity":29,"Duration":89798,"SoundDuration":89798,"Delta":79047644},{"NoteNumber":78,"Velocity":49,"Duration":119731,"SoundDuration":119731,"Delta":79167376},{"NoteNumber":79,"Velocity":49,"Duration":133297,"SoundDuration":133297,"Delta":79287108},{"NoteNumber":76,"Velocity":70,"Duration":119731,"SoundDuration":119731,"Delta":79420405},{"NoteNumber":72,"Velocity":56,"Duration":374561,"SoundDuration":374561,"Delta":79420405},{"NoteNumber":80,"Velocity":54,"Duration":119731,"SoundDuration":119731,"Delta":79540137},{"NoteNumber":81,"Velocity":54,"Duration":135098,"SoundDuration":135098,"Delta":79659869},{"NoteNumber":74,"Velocity":59,"Duration":119731,"SoundDuration":119731,"Delta":79794967},{"NoteNumber":71,"Velocity":39,"Duration":89798,"SoundDuration":89798,"Delta":79794967},{"NoteNumber":78,"Velocity":48,"Duration":119731,"SoundDuration":119731,"Delta":79914699},{"NoteNumber":79,"Velocity":46,"Duration":119731,"SoundDuration":119731,"Delta":80034431},{"NoteNumber":74,"Velocity":61,"Duration":119731,"SoundDuration":119731,"Delta":80154162},{"NoteNumber":71,"Velocity":28,"Duration":89798,"SoundDuration":89798,"Delta":80154162},{"NoteNumber":78,"Velocity":47,"Duration":119731,"SoundDuration":119731,"Delta":80273894},{"NoteNumber":79,"Velocity":50,"Duration":119731,"SoundDuration":119731,"Delta":80393626},{"NoteNumber":74,"Velocity":62,"Duration":119731,"SoundDuration":119731,"Delta":80513357},{"NoteNumber":71,"Velocity":29,"Duration":89798,"SoundDuration":89798,"Delta":80513357},{"NoteNumber":78,"Velocity":49,"Duration":119731,"SoundDuration":119731,"Delta":80633089},{"NoteNumber":79,"Velocity":49,"Duration":133297,"SoundDuration":133297,"Delta":80752821},{"NoteNumber":76,"Velocity":70,"Duration":119731,"SoundDuration":119731,"Delta":80886118},{"NoteNumber":72,"Velocity":56,"Duration":374561,"SoundDuration":374561,"Delta":80886118},{"NoteNumber":80,"Velocity":54,"Duration":119731,"SoundDuration":119731,"Delta":81005850},{"NoteNumber":81,"Velocity":54,"Duration":135098,"SoundDuration":135098,"Delta":81125582},{"NoteNumber":74,"Velocity":72,"Duration":119731,"SoundDuration":119731,"Delta":81260680},{"NoteNumber":71,"Velocity":39,"Duration":89798,"SoundDuration":89798,"Delta":81260680},{"NoteNumber":78,"Velocity":56,"Duration":119731,"SoundDuration":119731,"Delta":81380412},{"NoteNumber":79,"Velocity":56,"Duration":119731,"SoundDuration":119731,"Delta":81500144},{"NoteNumber":74,"Velocity":73,"Duration":119731,"SoundDuration":119731,"Delta":81619875},{"NoteNumber":66,"Velocity":36,"Duration":89798,"SoundDuration":89798,"Delta":81619875},{"NoteNumber":80,"Velocity":62,"Duration":119731,"SoundDuration":119731,"Delta":81739607},{"NoteNumber":81,"Velocity":62,"Duration":119731,"SoundDuration":119731,"Delta":81859339},{"NoteNumber":74,"Velocity":80,"Duration":119731,"SoundDuration":119731,"Delta":81979070},{"NoteNumber":67,"Velocity":41,"Duration":89798,"SoundDuration":89798,"Delta":81979070},{"NoteNumber":82,"Velocity":69,"Duration":119731,"SoundDuration":119731,"Delta":82098802},{"NoteNumber":83,"Velocity":65,"Duration":133297,"SoundDuration":133297,"Delta":82218534},{"NoteNumber":74,"Velocity":83,"Duration":120816,"SoundDuration":120816,"Delta":82351831},{"NoteNumber":69,"Velocity":47,"Duration":90612,"SoundDuration":90612,"Delta":82351831},{"NoteNumber":83,"Velocity":74,"Duration":120816,"SoundDuration":120816,"Delta":82472648},{"NoteNumber":84,"Velocity":74,"Duration":130848,"SoundDuration":130848,"Delta":82593465},{"NoteNumber":74,"Velocity":86,"Duration":130590,"SoundDuration":130590,"Delta":82724313},{"NoteNumber":71,"Velocity":60,"Duration":364527,"SoundDuration":364527,"Delta":82724313},{"NoteNumber":85,"Velocity":93,"Duration":116746,"SoundDuration":116746,"Delta":82854903},{"NoteNumber":86,"Velocity":92,"Duration":117191,"SoundDuration":117191,"Delta":82971650},{"NoteNumber":84,"Velocity":89,"Duration":117723,"SoundDuration":117723,"Delta":83088841},{"NoteNumber":83,"Velocity":88,"Duration":118169,"SoundDuration":118169,"Delta":83206564},{"NoteNumber":81,"Velocity":86,"Duration":118664,"SoundDuration":118664,"Delta":83324733},{"NoteNumber":79,"Velocity":83,"Duration":119167,"SoundDuration":119167,"Delta":83443398},{"NoteNumber":78,"Velocity":82,"Duration":119624,"SoundDuration":119624,"Delta":83562566},{"NoteNumber":76,"Velocity":80,"Duration":120177,"SoundDuration":120177,"Delta":83682190},{"NoteNumber":74,"Velocity":78,"Duration":120648,"SoundDuration":120648,"Delta":83802367},{"NoteNumber":72,"Velocity":76,"Duration":121153,"SoundDuration":121153,"Delta":83923016},{"NoteNumber":71,"Velocity":74,"Duration":121692,"SoundDuration":121692,"Delta":84044169},{"NoteNumber":69,"Velocity":70,"Duration":128172,"SoundDuration":128172,"Delta":84165861},{"NoteNumber":48,"Velocity":65,"Duration":736883,"SoundDuration":736883,"Delta":84165861},{"NoteNumber":76,"Velocity":78,"Duration":123187,"SoundDuration":123187,"Delta":84294034},{"NoteNumber":74,"Velocity":76,"Duration":119195,"SoundDuration":119195,"Delta":84417221},{"NoteNumber":72,"Velocity":73,"Duration":120679,"SoundDuration":120679,"Delta":84536417},{"NoteNumber":60,"Velocity":55,"Duration":366327,"SoundDuration":366327,"Delta":84536417},{"NoteNumber":71,"Velocity":71,"Duration":122039,"SoundDuration":122039,"Delta":84657096},{"NoteNumber":69,"Velocity":69,"Duration":123609,"SoundDuration":123609,"Delta":84779135},{"NoteNumber":67,"Velocity":83,"Duration":360175,"SoundDuration":360175,"Delta":84902744},{"NoteNumber":50,"Velocity":54,"Duration":723779,"SoundDuration":723779,"Delta":84902744},{"NoteNumber":59,"Velocity":54,"Duration":360175,"SoundDuration":360175,"Delta":84902744},{"NoteNumber":66,"Velocity":75,"Duration":89823,"SoundDuration":89823,"Delta":85262920},{"NoteNumber":57,"Velocity":46,"Duration":363604,"SoundDuration":363604,"Delta":85262920},{"NoteNumber":67,"Velocity":67,"Duration":90547,"SoundDuration":90547,"Delta":85352744},{"NoteNumber":66,"Velocity":75,"Duration":183233,"SoundDuration":183233,"Delta":85443291},{"NoteNumber":55,"Velocity":56,"Duration":721567,"SoundDuration":721567,"Delta":85626524},{"NoteNumber":50,"Velocity":56,"Duration":721567,"SoundDuration":721567,"Delta":85626524},{"NoteNumber":47,"Velocity":56,"Duration":721567,"SoundDuration":721567,"Delta":85626524},{"NoteNumber":85,"Velocity":78,"Duration":116746,"SoundDuration":116746,"Delta":85759597},{"NoteNumber":86,"Velocity":78,"Duration":117191,"SoundDuration":117191,"Delta":85876343},{"NoteNumber":84,"Velocity":84,"Duration":117723,"SoundDuration":117723,"Delta":85993534},{"NoteNumber":83,"Velocity":83,"Duration":118169,"SoundDuration":118169,"Delta":86111258},{"NoteNumber":81,"Velocity":81,"Duration":118664,"SoundDuration":118664,"Delta":86229427},{"NoteNumber":79,"Velocity":80,"Duration":119167,"SoundDuration":119167,"Delta":86348091},{"NoteNumber":78,"Velocity":78,"Duration":119624,"SoundDuration":119624,"Delta":86467259},{"NoteNumber":76,"Velocity":77,"Duration":120177,"SoundDuration":120177,"Delta":86586884},{"NoteNumber":74,"Velocity":75,"Duration":120648,"SoundDuration":120648,"Delta":86707061},{"NoteNumber":72,"Velocity":73,"Duration":121153,"SoundDuration":121153,"Delta":86827709},{"NoteNumber":71,"Velocity":72,"Duration":121692,"SoundDuration":121692,"Delta":86948863},{"NoteNumber":69,"Velocity":70,"Duration":128172,"SoundDuration":128172,"Delta":87070555},{"NoteNumber":48,"Velocity":65,"Duration":736883,"SoundDuration":736883,"Delta":87070555},{"NoteNumber":76,"Velocity":78,"Duration":123187,"SoundDuration":123187,"Delta":87198727},{"NoteNumber":74,"Velocity":76,"Duration":119195,"SoundDuration":119195,"Delta":87321914},{"NoteNumber":72,"Velocity":73,"Duration":120679,"SoundDuration":120679,"Delta":87441110},{"NoteNumber":60,"Velocity":55,"Duration":366327,"SoundDuration":366327,"Delta":87441110},{"NoteNumber":71,"Velocity":71,"Duration":122039,"SoundDuration":122039,"Delta":87561789},{"NoteNumber":69,"Velocity":69,"Duration":123609,"SoundDuration":123609,"Delta":87683829},{"NoteNumber":67,"Velocity":83,"Duration":360175,"SoundDuration":360175,"Delta":87807438},{"NoteNumber":50,"Velocity":54,"Duration":723779,"SoundDuration":723779,"Delta":87807438},{"NoteNumber":59,"Velocity":54,"Duration":360175,"SoundDuration":360175,"Delta":87807438},{"NoteNumber":66,"Velocity":75,"Duration":89823,"SoundDuration":89823,"Delta":88167613},{"NoteNumber":57,"Velocity":46,"Duration":363604,"SoundDuration":363604,"Delta":88167613},{"NoteNumber":67,"Velocity":67,"Duration":90547,"SoundDuration":90547,"Delta":88257437},{"NoteNumber":66,"Velocity":75,"Duration":183233,"SoundDuration":183233,"Delta":88347984},{"NoteNumber":67,"Velocity":63,"Duration":354945,"SoundDuration":354945,"Delta":88531218},{"NoteNumber":55,"Velocity":40,"Duration":118315,"SoundDuration":118315,"Delta":88531218},{"NoteNumber":59,"Velocity":32,"Duration":118315,"SoundDuration":118315,"Delta":88649533},{"NoteNumber":62,"Velocity":32,"Duration":118315,"SoundDuration":118315,"Delta":88767848},{"NoteNumber":55,"Velocity":40,"Duration":118315,"SoundDuration":118315,"Delta":88886164},{"NoteNumber":59,"Velocity":34,"Duration":118315,"SoundDuration":118315,"Delta":89004479},{"NoteNumber":62,"Velocity":34,"Duration":118315,"SoundDuration":118315,"Delta":89122794},{"NoteNumber":55,"Velocity":40,"Duration":118772,"SoundDuration":118772,"Delta":89241110},{"NoteNumber":59,"Velocity":32,"Duration":118771,"SoundDuration":118771,"Delta":89359882},{"NoteNumber":62,"Velocity":32,"Duration":118772,"SoundDuration":118772,"Delta":89478654},{"NoteNumber":74,"Velocity":57,"Duration":265189,"SoundDuration":265189,"Delta":89597426},{"NoteNumber":50,"Velocity":40,"Duration":117862,"SoundDuration":117862,"Delta":89597426},{"NoteNumber":54,"Velocity":32,"Duration":117862,"SoundDuration":117862,"Delta":89715288},{"NoteNumber":62,"Velocity":33,"Duration":117861,"SoundDuration":117861,"Delta":89833150},{"NoteNumber":78,"Velocity":57,"Duration":88396,"SoundDuration":88396,"Delta":89862615},{"NoteNumber":79,"Velocity":64,"Duration":88736,"SoundDuration":88736,"Delta":89951012},{"NoteNumber":55,"Velocity":39,"Duration":118315,"SoundDuration":118315,"Delta":89951012},{"NoteNumber":59,"Velocity":29,"Duration":118315,"SoundDuration":118315,"Delta":90069327},{"NoteNumber":62,"Velocity":29,"Duration":118315,"SoundDuration":118315,"Delta":90187642},{"NoteNumber":79,"Velocity":57,"Duration":88736,"SoundDuration":88736,"Delta":90305958},{"NoteNumber":55,"Velocity":39,"Duration":118315,"SoundDuration":118315,"Delta":90305958},{"NoteNumber":59,"Velocity":30,"Duration":118315,"SoundDuration":118315,"Delta":90424273},{"NoteNumber":62,"Velocity":30,"Duration":118315,"SoundDuration":118315,"Delta":90542588},{"NoteNumber":79,"Velocity":57,"Duration":89078,"SoundDuration":89078,"Delta":90660904},{"NoteNumber":55,"Velocity":39,"Duration":118772,"SoundDuration":118772,"Delta":90660904},{"NoteNumber":59,"Velocity":30,"Duration":118771,"SoundDuration":118771,"Delta":90779676},{"NoteNumber":83,"Velocity":54,"Duration":59386,"SoundDuration":59386,"Delta":90839062},{"NoteNumber":81,"Velocity":51,"Duration":59386,"SoundDuration":59386,"Delta":90898448},{"NoteNumber":62,"Velocity":30,"Duration":118772,"SoundDuration":118772,"Delta":90898448},{"NoteNumber":79,"Velocity":51,"Duration":59386,"SoundDuration":59386,"Delta":90957834},{"NoteNumber":81,"Velocity":61,"Duration":265189,"SoundDuration":265189,"Delta":91017220},{"NoteNumber":50,"Velocity":39,"Duration":117862,"SoundDuration":117862,"Delta":91017220},{"NoteNumber":54,"Velocity":33,"Duration":117862,"SoundDuration":117862,"Delta":91135082},{"NoteNumber":62,"Velocity":33,"Duration":117861,"SoundDuration":117861,"Delta":91252944},{"NoteNumber":86,"Velocity":57,"Duration":88396,"SoundDuration":88396,"Delta":91282409},{"NoteNumber":83,"Velocity":63,"Duration":88736,"SoundDuration":88736,"Delta":91370806},{"NoteNumber":55,"Velocity":40,"Duration":118315,"SoundDuration":118315,"Delta":91370806},{"NoteNumber":59,"Velocity":32,"Duration":118315,"SoundDuration":118315,"Delta":91489121},{"NoteNumber":62,"Velocity":32,"Duration":118315,"SoundDuration":118315,"Delta":91607436},{"NoteNumber":79,"Velocity":57,"Duration":88736,"SoundDuration":88736,"Delta":91725752},{"NoteNumber":55,"Velocity":40,"Duration":118315,"SoundDuration":118315,"Delta":91725752},{"NoteNumber":59,"Velocity":34,"Duration":118315,"SoundDuration":118315,"Delta":91844067},{"NoteNumber":62,"Velocity":34,"Duration":118315,"SoundDuration":118315,"Delta":91962382},{"NoteNumber":79,"Velocity":57,"Duration":90908,"SoundDuration":90908,"Delta":92080698},{"NoteNumber":55,"Velocity":40,"Duration":121211,"SoundDuration":121211,"Delta":92080698},{"NoteNumber":59,"Velocity":32,"Duration":121211,"SoundDuration":121211,"Delta":92201910},{"NoteNumber":62,"Velocity":32,"Duration":121211,"SoundDuration":121211,"Delta":92323122},{"NoteNumber":74,"Velocity":81,"Duration":265189,"SoundDuration":265189,"Delta":92444334},{"NoteNumber":50,"Velocity":63,"Duration":117862,"SoundDuration":117862,"Delta":92444334},{"NoteNumber":54,"Velocity":50,"Duration":117862,"SoundDuration":117862,"Delta":92562196},{"NoteNumber":62,"Velocity":52,"Duration":117861,"SoundDuration":117861,"Delta":92680058},{"NoteNumber":78,"Velocity":81,"Duration":88396,"SoundDuration":88396,"Delta":92709523},{"NoteNumber":79,"Velocity":91,"Duration":88736,"SoundDuration":88736,"Delta":92797920},{"NoteNumber":55,"Velocity":62,"Duration":118315,"SoundDuration":118315,"Delta":92797920},{"NoteNumber":59,"Velocity":46,"Duration":118315,"SoundDuration":118315,"Delta":92916235},{"NoteNumber":62,"Velocity":46,"Duration":118315,"SoundDuration":118315,"Delta":93034550},{"NoteNumber":79,"Velocity":81,"Duration":88736,"SoundDuration":88736,"Delta":93152866},{"NoteNumber":55,"Velocity":62,"Duration":118315,"SoundDuration":118315,"Delta":93152866},{"NoteNumber":59,"Velocity":48,"Duration":118315,"SoundDuration":118315,"Delta":93271181},{"NoteNumber":62,"Velocity":48,"Duration":118315,"SoundDuration":118315,"Delta":93389496},{"NoteNumber":79,"Velocity":81,"Duration":89078,"SoundDuration":89078,"Delta":93507812},{"NoteNumber":55,"Velocity":62,"Duration":118772,"SoundDuration":118772,"Delta":93507812},{"NoteNumber":59,"Velocity":48,"Duration":118771,"SoundDuration":118771,"Delta":93626584},{"NoteNumber":83,"Velocity":77,"Duration":59386,"SoundDuration":59386,"Delta":93685970},{"NoteNumber":81,"Velocity":72,"Duration":59386,"SoundDuration":59386,"Delta":93745356},{"NoteNumber":62,"Velocity":48,"Duration":118772,"SoundDuration":118772,"Delta":93745356},{"NoteNumber":79,"Velocity":72,"Duration":59386,"SoundDuration":59386,"Delta":93804742},{"NoteNumber":81,"Velocity":86,"Duration":265189,"SoundDuration":265189,"Delta":93864128},{"NoteNumber":50,"Velocity":62,"Duration":117862,"SoundDuration":117862,"Delta":93864128},{"NoteNumber":54,"Velocity":52,"Duration":117862,"SoundDuration":117862,"Delta":93981990},{"NoteNumber":62,"Velocity":52,"Duration":117861,"SoundDuration":117861,"Delta":94099852},{"NoteNumber":83,"Velocity":81,"Duration":88396,"SoundDuration":88396,"Delta":94129317},{"NoteNumber":79,"Velocity":91,"Duration":354945,"SoundDuration":354945,"Delta":94217714},{"NoteNumber":55,"Velocity":62,"Duration":118315,"SoundDuration":118315,"Delta":94217714},{"NoteNumber":59,"Velocity":46,"Duration":118315,"SoundDuration":118315,"Delta":94336029},{"NoteNumber":62,"Velocity":46,"Duration":118315,"SoundDuration":118315,"Delta":94454344},{"NoteNumber":55,"Velocity":62,"Duration":119713,"SoundDuration":119713,"Delta":94572660},{"NoteNumber":59,"Velocity":48,"Duration":119731,"SoundDuration":119731,"Delta":94692374},{"NoteNumber":62,"Velocity":48,"Duration":120019,"SoundDuration":120019,"Delta":94812105},{"NoteNumber":74,"Velocity":81,"Duration":367227,"SoundDuration":367227,"Delta":94932125},{"NoteNumber":71,"Velocity":81,"Duration":367227,"SoundDuration":367227,"Delta":94932125},{"NoteNumber":55,"Velocity":62,"Duration":122294,"SoundDuration":122294,"Delta":94932125},{"NoteNumber":59,"Velocity":48,"Duration":122294,"SoundDuration":122294,"Delta":95054420},{"NoteNumber":62,"Velocity":48,"Duration":122639,"SoundDuration":122639,"Delta":95176714},{"NoteNumber":55,"Velocity":62,"Duration":126798,"SoundDuration":126798,"Delta":95299353},{"NoteNumber":59,"Velocity":52,"Duration":130203,"SoundDuration":130203,"Delta":95426152},{"NoteNumber":62,"Velocity":52,"Duration":166666,"SoundDuration":166666,"Delta":95556355},{"NoteNumber":71,"Velocity":81,"Duration":361358,"SoundDuration":361358,"Delta":95723021},{"NoteNumber":67,"Velocity":81,"Duration":361358,"SoundDuration":361358,"Delta":95723021},{"NoteNumber":55,"Velocity":62,"Duration":361358,"SoundDuration":361358,"Delta":95723021},{"NoteNumber":72,"Velocity":50,"Duration":262191,"SoundDuration":262191,"Delta":96807098},{"NoteNumber":76,"Velocity":50,"Duration":93023,"SoundDuration":93023,"Delta":97069290},{"NoteNumber":79,"Velocity":57,"Duration":88736,"SoundDuration":88736,"Delta":97162313},{"NoteNumber":64,"Velocity":52,"Duration":88736,"SoundDuration":88736,"Delta":97162313},{"NoteNumber":60,"Velocity":44,"Duration":88736,"SoundDuration":88736,"Delta":97162313},{"NoteNumber":79,"Velocity":50,"Duration":88736,"SoundDuration":88736,"Delta":97517259},{"NoteNumber":79,"Velocity":50,"Duration":91552,"SoundDuration":91552,"Delta":97872205},{"NoteNumber":83,"Velocity":60,"Duration":45776,"SoundDuration":45776,"Delta":98192640},{"NoteNumber":84,"Velocity":71,"Duration":88396,"SoundDuration":88396,"Delta":98238416},{"NoteNumber":79,"Velocity":50,"Duration":88396,"SoundDuration":88396,"Delta":98592002},{"NoteNumber":64,"Velocity":52,"Duration":88396,"SoundDuration":88396,"Delta":98592002},{"NoteNumber":60,"Velocity":44,"Duration":88396,"SoundDuration":88396,"Delta":98592002},{"NoteNumber":79,"Velocity":43,"Duration":88396,"SoundDuration":88396,"Delta":98945588},{"NoteNumber":79,"Velocity":43,"Duration":91917,"SoundDuration":91917,"Delta":99299174},{"NoteNumber":76,"Velocity":50,"Duration":261202,"SoundDuration":261202,"Delta":99666844},{"NoteNumber":72,"Velocity":50,"Duration":93023,"SoundDuration":93023,"Delta":99928047},{"NoteNumber":71,"Velocity":57,"Duration":87729,"SoundDuration":87729,"Delta":100021070},{"NoteNumber":65,"Velocity":52,"Duration":87729,"SoundDuration":87729,"Delta":100021070},{"NoteNumber":55,"Velocity":44,"Duration":87729,"SoundDuration":87729,"Delta":100021070},{"NoteNumber":62,"Velocity":44,"Duration":87729,"SoundDuration":87729,"Delta":100021070},{"NoteNumber":71,"Velocity":53,"Duration":87729,"SoundDuration":87729,"Delta":100371988},{"NoteNumber":55,"Velocity":38,"Duration":87729,"SoundDuration":87729,"Delta":100371988},{"NoteNumber":62,"Velocity":38,"Duration":87729,"SoundDuration":87729,"Delta":100371988},{"NoteNumber":65,"Velocity":45,"Duration":87729,"SoundDuration":87729,"Delta":100371988},{"NoteNumber":72,"Velocity":57,"Duration":90068,"SoundDuration":90068,"Delta":100722906},{"NoteNumber":60,"Velocity":44,"Duration":90068,"SoundDuration":90068,"Delta":100722906},{"NoteNumber":55,"Velocity":44,"Duration":90068,"SoundDuration":90068,"Delta":100722906},{"NoteNumber":64,"Velocity":52,"Duration":90068,"SoundDuration":90068,"Delta":100722906},{"NoteNumber":72,"Velocity":52,"Duration":107913,"SoundDuration":107913,"Delta":101083180},{"NoteNumber":60,"Velocity":39,"Duration":107913,"SoundDuration":107913,"Delta":101083180},{"NoteNumber":64,"Velocity":47,"Duration":107913,"SoundDuration":107913,"Delta":101083180},{"NoteNumber":55,"Velocity":39,"Duration":107913,"SoundDuration":107913,"Delta":101083180},{"NoteNumber":74,"Velocity":57,"Duration":350917,"SoundDuration":350917,"Delta":101514835},{"NoteNumber":59,"Velocity":44,"Duration":350917,"SoundDuration":350917,"Delta":101514835},{"NoteNumber":55,"Velocity":44,"Duration":350917,"SoundDuration":350917,"Delta":101514835},{"NoteNumber":62,"Velocity":52,"Duration":350917,"SoundDuration":350917,"Delta":101514835},{"NoteNumber":67,"Velocity":50,"Duration":261202,"SoundDuration":261202,"Delta":102567589},{"NoteNumber":74,"Velocity":47,"Duration":98013,"SoundDuration":98013,"Delta":102828791},{"NoteNumber":77,"Velocity":58,"Duration":86415,"SoundDuration":86415,"Delta":102926805},{"NoteNumber":59,"Velocity":40,"Duration":86415,"SoundDuration":86415,"Delta":102926805},{"NoteNumber":67,"Velocity":48,"Duration":86415,"SoundDuration":86415,"Delta":102926805},{"NoteNumber":77,"Velocity":50,"Duration":261202,"SoundDuration":261202,"Delta":103272467},{"NoteNumber":79,"Velocity":48,"Duration":102711,"SoundDuration":102711,"Delta":103533669},{"NoteNumber":76,"Velocity":58,"Duration":87067,"SoundDuration":87067,"Delta":103636381},{"NoteNumber":67,"Velocity":48,"Duration":87067,"SoundDuration":87067,"Delta":103636381},{"NoteNumber":60,"Velocity":40,"Duration":87067,"SoundDuration":87067,"Delta":103636381},{"NoteNumber":76,"Velocity":50,"Duration":259246,"SoundDuration":259246,"Delta":103984651},{"NoteNumber":77,"Velocity":50,"Duration":102711,"SoundDuration":102711,"Delta":104243897},{"NoteNumber":74,"Velocity":59,"Duration":86093,"SoundDuration":86093,"Delta":104346609},{"NoteNumber":65,"Velocity":40,"Duration":86093,"SoundDuration":86093,"Delta":104346609},{"NoteNumber":67,"Velocity":48,"Duration":86093,"SoundDuration":86093,"Delta":104346609},{"NoteNumber":74,"Velocity":50,"Duration":262191,"SoundDuration":262191,"Delta":104690981},{"NoteNumber":76,"Velocity":47,"Duration":102012,"SoundDuration":102012,"Delta":104953173},{"NoteNumber":72,"Velocity":57,"Duration":85773,"SoundDuration":85773,"Delta":105055186},{"NoteNumber":67,"Velocity":45,"Duration":85773,"SoundDuration":85773,"Delta":105055186},{"NoteNumber":64,"Velocity":38,"Duration":85773,"SoundDuration":85773,"Delta":105055186},{"NoteNumber":72,"Velocity":52,"Duration":86740,"SoundDuration":86740,"Delta":105398278},{"NoteNumber":74,"Velocity":57,"Duration":86415,"SoundDuration":86415,"Delta":105759822},{"NoteNumber":53,"Velocity":47,"Duration":86415,"SoundDuration":86415,"Delta":105759822},{"NoteNumber":65,"Velocity":56,"Duration":86415,"SoundDuration":86415,"Delta":105759822},{"NoteNumber":74,"Velocity":52,"Duration":86415,"SoundDuration":86415,"Delta":106105484},{"NoteNumber":65,"Velocity":52,"Duration":86415,"SoundDuration":86415,"Delta":106105484},{"NoteNumber":53,"Velocity":44,"Duration":86415,"SoundDuration":86415,"Delta":106105484},{"NoteNumber":71,"Velocity":58,"Duration":86415,"SoundDuration":86415,"Delta":106451146},{"NoteNumber":55,"Velocity":49,"Duration":86415,"SoundDuration":86415,"Delta":106451146},{"NoteNumber":62,"Velocity":58,"Duration":86415,"SoundDuration":86415,"Delta":106451146},{"NoteNumber":71,"Velocity":52,"Duration":90612,"SoundDuration":90612,"Delta":106796808},{"NoteNumber":62,"Velocity":52,"Duration":90612,"SoundDuration":90612,"Delta":106796808},{"NoteNumber":55,"Velocity":44,"Duration":90612,"SoundDuration":90612,"Delta":106796808},{"NoteNumber":72,"Velocity":63,"Duration":342778,"SoundDuration":342778,"Delta":107159258},{"NoteNumber":60,"Velocity":49,"Duration":114259,"SoundDuration":114259,"Delta":107159258},{"NoteNumber":64,"Velocity":36,"Duration":114259,"SoundDuration":114259,"Delta":107273518},{"NoteNumber":67,"Velocity":36,"Duration":114259,"SoundDuration":114259,"Delta":107387778},{"NoteNumber":60,"Velocity":50,"Duration":114259,"SoundDuration":114259,"Delta":107502037},{"NoteNumber":64,"Velocity":38,"Duration":114259,"SoundDuration":114259,"Delta":107616297},{"NoteNumber":67,"Velocity":38,"Duration":114259,"SoundDuration":114259,"Delta":107730557},{"NoteNumber":60,"Velocity":52,"Duration":114259,"SoundDuration":114259,"Delta":107844816},{"NoteNumber":64,"Velocity":43,"Duration":114259,"SoundDuration":114259,"Delta":107959076},{"NoteNumber":67,"Velocity":43,"Duration":114259,"SoundDuration":114259,"Delta":108073336},{"NoteNumber":72,"Velocity":69,"Duration":262191,"SoundDuration":262191,"Delta":108187595},{"NoteNumber":60,"Velocity":53,"Duration":116529,"SoundDuration":116529,"Delta":108187595},{"NoteNumber":64,"Velocity":44,"Duration":116529,"SoundDuration":116529,"Delta":108304125},{"NoteNumber":67,"Velocity":44,"Duration":129776,"SoundDuration":129776,"Delta":108420655},{"NoteNumber":76,"Velocity":71,"Duration":100644,"SoundDuration":100644,"Delta":108449787},{"NoteNumber":79,"Velocity":83,"Duration":88736,"SoundDuration":88736,"Delta":108550431},{"NoteNumber":60,"Velocity":56,"Duration":118315,"SoundDuration":118315,"Delta":108550431},{"NoteNumber":64,"Velocity":43,"Duration":118315,"SoundDuration":118315,"Delta":108668747},{"NoteNumber":67,"Velocity":43,"Duration":118315,"SoundDuration":118315,"Delta":108787062},{"NoteNumber":79,"Velocity":75,"Duration":88736,"SoundDuration":88736,"Delta":108905377},{"NoteNumber":60,"Velocity":56,"Duration":118315,"SoundDuration":118315,"Delta":108905377},{"NoteNumber":64,"Velocity":45,"Duration":118315,"SoundDuration":118315,"Delta":109023693},{"NoteNumber":67,"Velocity":46,"Duration":118315,"SoundDuration":118315,"Delta":109142008},{"NoteNumber":79,"Velocity":76,"Duration":89078,"SoundDuration":89078,"Delta":109260323},{"NoteNumber":60,"Velocity":55,"Duration":118772,"SoundDuration":118772,"Delta":109260323},{"NoteNumber":64,"Velocity":44,"Duration":118771,"SoundDuration":118771,"Delta":109379095},{"NoteNumber":67,"Velocity":45,"Duration":118772,"SoundDuration":118772,"Delta":109497867},{"NoteNumber":83,"Velocity":78,"Duration":44539,"SoundDuration":44539,"Delta":109572100},{"NoteNumber":84,"Velocity":92,"Duration":353586,"SoundDuration":353586,"Delta":109616639},{"NoteNumber":60,"Velocity":69,"Duration":117862,"SoundDuration":117862,"Delta":109616639},{"NoteNumber":64,"Velocity":60,"Duration":117862,"SoundDuration":117862,"Delta":109734501},{"NoteNumber":67,"Velocity":60,"Duration":117862,"SoundDuration":117862,"Delta":109852363},{"NoteNumber":79,"Velocity":85,"Duration":88396,"SoundDuration":88396,"Delta":109970225},{"NoteNumber":60,"Velocity":56,"Duration":117861,"SoundDuration":117861,"Delta":109970225},{"NoteNumber":64,"Velocity":41,"Duration":117862,"SoundDuration":117862,"Delta":110088087},{"NoteNumber":67,"Velocity":41,"Duration":117862,"SoundDuration":117862,"Delta":110205949},{"NoteNumber":79,"Velocity":74,"Duration":88396,"SoundDuration":88396,"Delta":110323811},{"NoteNumber":60,"Velocity":56,"Duration":117862,"SoundDuration":117862,"Delta":110323811},{"NoteNumber":64,"Velocity":44,"Duration":117862,"SoundDuration":117862,"Delta":110441673},{"NoteNumber":67,"Velocity":44,"Duration":117861,"SoundDuration":117861,"Delta":110559535},{"NoteNumber":79,"Velocity":74,"Duration":89078,"SoundDuration":89078,"Delta":110677397},{"NoteNumber":60,"Velocity":56,"Duration":118772,"SoundDuration":118772,"Delta":110677397},{"NoteNumber":64,"Velocity":44,"Duration":118771,"SoundDuration":118771,"Delta":110796169},{"NoteNumber":67,"Velocity":45,"Duration":133470,"SoundDuration":133470,"Delta":110914941},{"NoteNumber":77,"Velocity":69,"Duration":87067,"SoundDuration":87067,"Delta":111048412},{"NoteNumber":60,"Velocity":56,"Duration":116089,"SoundDuration":116089,"Delta":111048412},{"NoteNumber":76,"Velocity":60,"Duration":87067,"SoundDuration":87067,"Delta":111135479},{"NoteNumber":64,"Velocity":44,"Duration":116089,"SoundDuration":116089,"Delta":111164502},{"NoteNumber":74,"Velocity":60,"Duration":87067,"SoundDuration":87067,"Delta":111222547},{"NoteNumber":67,"Velocity":44,"Duration":122045,"SoundDuration":122045,"Delta":111280592},{"NoteNumber":72,"Velocity":60,"Duration":93023,"SoundDuration":93023,"Delta":111309614},{"NoteNumber":71,"Velocity":74,"Duration":87729,"SoundDuration":87729,"Delta":111402637},{"NoteNumber":62,"Velocity":56,"Duration":116972,"SoundDuration":116972,"Delta":111402637},{"NoteNumber":65,"Velocity":42,"Duration":116972,"SoundDuration":116972,"Delta":111519610},{"NoteNumber":67,"Velocity":45,"Duration":116972,"SoundDuration":116972,"Delta":111636583},{"NoteNumber":71,"Velocity":68,"Duration":87729,"SoundDuration":87729,"Delta":111753555},{"NoteNumber":62,"Velocity":56,"Duration":116972,"SoundDuration":116972,"Delta":111753555},{"NoteNumber":65,"Velocity":45,"Duration":116972,"SoundDuration":116972,"Delta":111870528},{"NoteNumber":67,"Velocity":45,"Duration":116972,"SoundDuration":116972,"Delta":111987501},{"NoteNumber":72,"Velocity":74,"Duration":87729,"SoundDuration":87729,"Delta":112104473},{"NoteNumber":60,"Velocity":56,"Duration":116972,"SoundDuration":116972,"Delta":112104473},{"NoteNumber":64,"Velocity":46,"Duration":116972,"SoundDuration":116972,"Delta":112221446},{"NoteNumber":67,"Velocity":50,"Duration":116972,"SoundDuration":116972,"Delta":112338419},{"NoteNumber":72,"Velocity":67,"Duration":87729,"SoundDuration":87729,"Delta":112455391},{"NoteNumber":60,"Velocity":56,"Duration":116972,"SoundDuration":116972,"Delta":112455391},{"NoteNumber":64,"Velocity":46,"Duration":116972,"SoundDuration":116972,"Delta":112572364},{"NoteNumber":67,"Velocity":46,"Duration":187137,"SoundDuration":187137,"Delta":112689337},{"NoteNumber":74,"Velocity":74,"Duration":350917,"SoundDuration":350917,"Delta":112876475},{"NoteNumber":59,"Velocity":63,"Duration":350917,"SoundDuration":350917,"Delta":112876475},{"NoteNumber":67,"Velocity":65,"Duration":261202,"SoundDuration":261202,"Delta":113929229},{"NoteNumber":74,"Velocity":61,"Duration":90122,"SoundDuration":90122,"Delta":114190431},{"NoteNumber":77,"Velocity":75,"Duration":86415,"SoundDuration":86415,"Delta":114280554},{"NoteNumber":55,"Velocity":56,"Duration":115220,"SoundDuration":115220,"Delta":114280554},{"NoteNumber":59,"Velocity":43,"Duration":115220,"SoundDuration":115220,"Delta":114395774},{"NoteNumber":62,"Velocity":45,"Duration":115220,"SoundDuration":115220,"Delta":114510995},{"NoteNumber":77,"Velocity":65,"Duration":261202,"SoundDuration":261202,"Delta":114626216},{"NoteNumber":55,"Velocity":56,"Duration":116089,"SoundDuration":116089,"Delta":114626216},{"NoteNumber":59,"Velocity":45,"Duration":116089,"SoundDuration":116089,"Delta":114742306},{"NoteNumber":62,"Velocity":45,"Duration":130346,"SoundDuration":130346,"Delta":114858396},{"NoteNumber":79,"Velocity":62,"Duration":101324,"SoundDuration":101324,"Delta":114887418},{"NoteNumber":76,"Velocity":75,"Duration":87067,"SoundDuration":87067,"Delta":114988742},{"NoteNumber":55,"Velocity":56,"Duration":116089,"SoundDuration":116089,"Delta":114988742},{"NoteNumber":60,"Velocity":43,"Duration":116089,"SoundDuration":116089,"Delta":115104832},{"NoteNumber":64,"Velocity":44,"Duration":116089,"SoundDuration":116089,"Delta":115220922},{"NoteNumber":76,"Velocity":65,"Duration":259246,"SoundDuration":259246,"Delta":115337012},{"NoteNumber":55,"Velocity":56,"Duration":115220,"SoundDuration":115220,"Delta":115337012},{"NoteNumber":60,"Velocity":46,"Duration":115220,"SoundDuration":115220,"Delta":115452233},{"NoteNumber":64,"Velocity":46,"Duration":129449,"SoundDuration":129449,"Delta":115567454},{"NoteNumber":77,"Velocity":65,"Duration":100644,"SoundDuration":100644,"Delta":115596259},{"NoteNumber":74,"Velocity":76,"Duration":86093,"SoundDuration":86093,"Delta":115696903},{"NoteNumber":55,"Velocity":56,"Duration":114790,"SoundDuration":114790,"Delta":115696903},{"NoteNumber":62,"Velocity":47,"Duration":114790,"SoundDuration":114790,"Delta":115811693},{"NoteNumber":65,"Velocity":47,"Duration":114790,"SoundDuration":114790,"Delta":115926484},{"NoteNumber":74,"Velocity":65,"Duration":262191,"SoundDuration":262191,"Delta":116041275},{"NoteNumber":55,"Velocity":56,"Duration":116529,"SoundDuration":116529,"Delta":116041275},{"NoteNumber":62,"Velocity":44,"Duration":116529,"SoundDuration":116529,"Delta":116157804},{"NoteNumber":65,"Velocity":44,"Duration":128116,"SoundDuration":128116,"Delta":116274334},{"NoteNumber":76,"Velocity":61,"Duration":98983,"SoundDuration":98983,"Delta":116303466},{"NoteNumber":72,"Velocity":74,"Duration":85773,"SoundDuration":85773,"Delta":116402450},{"NoteNumber":57,"Velocity":56,"Duration":114363,"SoundDuration":114363,"Delta":116402450},{"NoteNumber":60,"Velocity":46,"Duration":114364,"SoundDuration":114364,"Delta":116516814},{"NoteNumber":64,"Velocity":46,"Duration":129234,"SoundDuration":129234,"Delta":116631178},{"NoteNumber":72,"Velocity":67,"Duration":86936,"SoundDuration":86936,"Delta":116760413},{"NoteNumber":57,"Velocity":56,"Duration":115915,"SoundDuration":115915,"Delta":116760413},{"NoteNumber":60,"Velocity":45,"Duration":115915,"SoundDuration":115915,"Delta":116876328},{"NoteNumber":64,"Velocity":45,"Duration":130302,"SoundDuration":130302,"Delta":116992243},{"NoteNumber":74,"Velocity":74,"Duration":86415,"SoundDuration":86415,"Delta":117122546},{"NoteNumber":53,"Velocity":56,"Duration":115220,"SoundDuration":115220,"Delta":117122546},{"NoteNumber":57,"Velocity":45,"Duration":115220,"SoundDuration":115220,"Delta":117237767},{"NoteNumber":62,"Velocity":47,"Duration":115220,"SoundDuration":115220,"Delta":117352987},{"NoteNumber":74,"Velocity":67,"Duration":88736,"SoundDuration":88736,"Delta":117468208},{"NoteNumber":53,"Velocity":56,"Duration":118315,"SoundDuration":118315,"Delta":117468208},{"NoteNumber":57,"Velocity":46,"Duration":118315,"SoundDuration":118315,"Delta":117586523},{"NoteNumber":62,"Velocity":46,"Duration":118315,"SoundDuration":118315,"Delta":117704839},{"NoteNumber":71,"Velocity":75,"Duration":86093,"SoundDuration":86093,"Delta":117823154},{"NoteNumber":55,"Velocity":56,"Duration":114790,"SoundDuration":114790,"Delta":117823154},{"NoteNumber":62,"Velocity":43,"Duration":114790,"SoundDuration":114790,"Delta":117937945},{"NoteNumber":65,"Velocity":43,"Duration":114790,"SoundDuration":114790,"Delta":118052735},{"NoteNumber":71,"Velocity":67,"Duration":100334,"SoundDuration":100334,"Delta":118167526},{"NoteNumber":55,"Velocity":56,"Duration":133779,"SoundDuration":133779,"Delta":118167526},{"NoteNumber":62,"Velocity":44,"Duration":133779,"SoundDuration":133779,"Delta":118301305},{"NoteNumber":65,"Velocity":45,"Duration":133779,"SoundDuration":133779,"Delta":118435085},{"NoteNumber":72,"Velocity":81,"Duration":1070213,"SoundDuration":1070213,"Delta":118568864},{"NoteNumber":60,"Velocity":60,"Duration":2837963,"SoundDuration":2837963,"Delta":118568864},{"NoteNumber":64,"Velocity":45,"Duration":718389,"SoundDuration":718389,"Delta":118568864},{"NoteNumber":70,"Velocity":43,"Duration":703224,"SoundDuration":703224,"Delta":119287254},{"NoteNumber":76,"Velocity":50,"Duration":257084,"SoundDuration":257084,"Delta":119639078},{"NoteNumber":79,"Velocity":46,"Duration":94316,"SoundDuration":94316,"Delta":119896162},{"NoteNumber":77,"Velocity":50,"Duration":86415,"SoundDuration":86415,"Delta":119990478},{"NoteNumber":69,"Velocity":45,"Duration":708188,"SoundDuration":708188,"Delta":119990478},{"NoteNumber":77,"Velocity":50,"Duration":261202,"SoundDuration":261202,"Delta":120336140},{"NoteNumber":81,"Velocity":45,"Duration":101324,"SoundDuration":101324,"Delta":120597343},{"NoteNumber":71,"Velocity":50,"Duration":87067,"SoundDuration":87067,"Delta":120698667},{"NoteNumber":65,"Velocity":42,"Duration":708160,"SoundDuration":708160,"Delta":120698667},{"NoteNumber":71,"Velocity":50,"Duration":259246,"SoundDuration":259246,"Delta":121046937},{"NoteNumber":74,"Velocity":45,"Duration":100644,"SoundDuration":100644,"Delta":121306183},{"NoteNumber":72,"Velocity":50,"Duration":86415,"SoundDuration":86415,"Delta":121406827},{"NoteNumber":60,"Velocity":39,"Duration":2824207,"SoundDuration":2824207,"Delta":121406827},{"NoteNumber":64,"Velocity":45,"Duration":708188,"SoundDuration":708188,"Delta":121406827},{"NoteNumber":72,"Velocity":50,"Duration":261202,"SoundDuration":261202,"Delta":121752489},{"NoteNumber":76,"Velocity":50,"Duration":101324,"SoundDuration":101324,"Delta":122013692},{"NoteNumber":79,"Velocity":61,"Duration":87067,"SoundDuration":87067,"Delta":122115016},{"NoteNumber":70,"Velocity":43,"Duration":699670,"SoundDuration":699670,"Delta":122115016},{"NoteNumber":84,"Velocity":57,"Duration":257084,"SoundDuration":257084,"Delta":122463286},{"NoteNumber":76,"Velocity":50,"Duration":94316,"SoundDuration":94316,"Delta":122720370},{"NoteNumber":77,"Velocity":60,"Duration":86415,"SoundDuration":86415,"Delta":122814686},{"NoteNumber":69,"Velocity":45,"Duration":708188,"SoundDuration":708188,"Delta":122814686},{"NoteNumber":81,"Velocity":58,"Duration":261202,"SoundDuration":261202,"Delta":123160348},{"NoteNumber":72,"Velocity":49,"Duration":101324,"SoundDuration":101324,"Delta":123421550},{"NoteNumber":71,"Velocity":59,"Duration":87067,"SoundDuration":87067,"Delta":123522874},{"NoteNumber":65,"Velocity":42,"Duration":708160,"SoundDuration":708160,"Delta":123522874},{"NoteNumber":77,"Velocity":60,"Duration":259246,"SoundDuration":259246,"Delta":123871144},{"NoteNumber":71,"Velocity":54,"Duration":100644,"SoundDuration":100644,"Delta":124130391},{"NoteNumber":72,"Velocity":66,"Duration":88736,"SoundDuration":88736,"Delta":124231035},{"NoteNumber":60,"Velocity":45,"Duration":118315,"SoundDuration":118315,"Delta":124231035},{"NoteNumber":64,"Velocity":35,"Duration":118315,"SoundDuration":118315,"Delta":124349350},{"NoteNumber":67,"Velocity":35,"Duration":118315,"SoundDuration":118315,"Delta":124467666},{"NoteNumber":72,"Velocity":52,"Duration":88736,"SoundDuration":88736,"Delta":124585981},{"NoteNumber":60,"Velocity":45,"Duration":118315,"SoundDuration":118315,"Delta":124585981},{"NoteNumber":64,"Velocity":34,"Duration":118315,"SoundDuration":118315,"Delta":124704296},{"NoteNumber":67,"Velocity":34,"Duration":118315,"SoundDuration":118315,"Delta":124822612},{"NoteNumber":72,"Velocity":51,"Duration":89078,"SoundDuration":89078,"Delta":124940927},{"NoteNumber":60,"Velocity":45,"Duration":118772,"SoundDuration":118772,"Delta":124940927},{"NoteNumber":64,"Velocity":36,"Duration":118771,"SoundDuration":118771,"Delta":125059699},{"NoteNumber":67,"Velocity":36,"Duration":118772,"SoundDuration":118772,"Delta":125178471},{"NoteNumber":76,"Velocity":57,"Duration":88396,"SoundDuration":88396,"Delta":125297243},{"NoteNumber":59,"Velocity":45,"Duration":117862,"SoundDuration":117862,"Delta":125297243},{"NoteNumber":74,"Velocity":50,"Duration":88396,"SoundDuration":88396,"Delta":125385639},{"NoteNumber":62,"Velocity":36,"Duration":117862,"SoundDuration":117862,"Delta":125415105},{"NoteNumber":72,"Velocity":50,"Duration":88396,"SoundDuration":88396,"Delta":125474036},{"NoteNumber":67,"Velocity":37,"Duration":117862,"SoundDuration":117862,"Delta":125532967},{"NoteNumber":74,"Velocity":50,"Duration":88396,"SoundDuration":88396,"Delta":125562432},{"NoteNumber":76,"Velocity":63,"Duration":88736,"SoundDuration":88736,"Delta":125650829},{"NoteNumber":60,"Velocity":45,"Duration":118315,"SoundDuration":118315,"Delta":125650829},{"NoteNumber":64,"Velocity":36,"Duration":118315,"SoundDuration":118315,"Delta":125769144},{"NoteNumber":67,"Velocity":36,"Duration":118315,"SoundDuration":118315,"Delta":125887460},{"NoteNumber":72,"Velocity":52,"Duration":88736,"SoundDuration":88736,"Delta":126005775},{"NoteNumber":60,"Velocity":45,"Duration":118315,"SoundDuration":118315,"Delta":126005775},{"NoteNumber":64,"Velocity":38,"Duration":118315,"SoundDuration":118315,"Delta":126124090},{"NoteNumber":67,"Velocity":38,"Duration":118315,"SoundDuration":118315,"Delta":126242406},{"NoteNumber":72,"Velocity":51,"Duration":89078,"SoundDuration":89078,"Delta":126360721},{"NoteNumber":60,"Velocity":45,"Duration":118772,"SoundDuration":118772,"Delta":126360721},{"NoteNumber":64,"Velocity":36,"Duration":118771,"SoundDuration":118771,"Delta":126479493},{"NoteNumber":67,"Velocity":36,"Duration":118772,"SoundDuration":118772,"Delta":126598265},{"NoteNumber":76,"Velocity":57,"Duration":88396,"SoundDuration":88396,"Delta":126717037},{"NoteNumber":59,"Velocity":45,"Duration":117862,"SoundDuration":117862,"Delta":126717037},{"NoteNumber":74,"Velocity":50,"Duration":88396,"SoundDuration":88396,"Delta":126805433},{"NoteNumber":62,"Velocity":36,"Duration":117862,"SoundDuration":117862,"Delta":126834899},{"NoteNumber":72,"Velocity":50,"Duration":88396,"SoundDuration":88396,"Delta":126893830},{"NoteNumber":67,"Velocity":37,"Duration":117861,"SoundDuration":117861,"Delta":126952761},{"NoteNumber":74,"Velocity":50,"Duration":88396,"SoundDuration":88396,"Delta":126982226},{"NoteNumber":76,"Velocity":63,"Duration":88736,"SoundDuration":88736,"Delta":127070623},{"NoteNumber":60,"Velocity":45,"Duration":118315,"SoundDuration":118315,"Delta":127070623},{"NoteNumber":64,"Velocity":36,"Duration":118315,"SoundDuration":118315,"Delta":127188938},{"NoteNumber":67,"Velocity":36,"Duration":118315,"SoundDuration":118315,"Delta":127307254},{"NoteNumber":72,"Velocity":52,"Duration":88736,"SoundDuration":88736,"Delta":127425569},{"NoteNumber":60,"Velocity":45,"Duration":118315,"SoundDuration":118315,"Delta":127425569},{"NoteNumber":64,"Velocity":38,"Duration":118315,"SoundDuration":118315,"Delta":127543884},{"NoteNumber":67,"Velocity":38,"Duration":118315,"SoundDuration":118315,"Delta":127662200},{"NoteNumber":72,"Velocity":51,"Duration":89078,"SoundDuration":89078,"Delta":127780515},{"NoteNumber":60,"Velocity":45,"Duration":118772,"SoundDuration":118772,"Delta":127780515},{"NoteNumber":64,"Velocity":36,"Duration":118772,"SoundDuration":118772,"Delta":127899287},{"NoteNumber":67,"Velocity":36,"Duration":118771,"SoundDuration":118771,"Delta":128018059},{"NoteNumber":76,"Velocity":57,"Duration":88396,"SoundDuration":88396,"Delta":128136831},{"NoteNumber":59,"Velocity":45,"Duration":117862,"SoundDuration":117862,"Delta":128136831},{"NoteNumber":74,"Velocity":50,"Duration":88396,"SoundDuration":88396,"Delta":128225227},{"NoteNumber":62,"Velocity":36,"Duration":117862,"SoundDuration":117862,"Delta":128254693},{"NoteNumber":72,"Velocity":50,"Duration":88396,"SoundDuration":88396,"Delta":128313624},{"NoteNumber":67,"Velocity":37,"Duration":117862,"SoundDuration":117862,"Delta":128372555},{"NoteNumber":74,"Velocity":50,"Duration":88396,"SoundDuration":88396,"Delta":128402020},{"NoteNumber":76,"Velocity":63,"Duration":88396,"SoundDuration":88396,"Delta":128490417},{"NoteNumber":60,"Velocity":45,"Duration":117862,"SoundDuration":117862,"Delta":128490417},{"NoteNumber":64,"Velocity":36,"Duration":117862,"SoundDuration":117862,"Delta":128608279},{"NoteNumber":67,"Velocity":36,"Duration":117861,"SoundDuration":117861,"Delta":128726141},{"NoteNumber":76,"Velocity":55,"Duration":88396,"SoundDuration":88396,"Delta":128844003},{"NoteNumber":60,"Velocity":45,"Duration":117862,"SoundDuration":117862,"Delta":128844003},{"NoteNumber":64,"Velocity":38,"Duration":117862,"SoundDuration":117862,"Delta":128961865},{"NoteNumber":67,"Velocity":39,"Duration":117862,"SoundDuration":117862,"Delta":129079727},{"NoteNumber":76,"Velocity":55,"Duration":89078,"SoundDuration":89078,"Delta":129197589},{"NoteNumber":60,"Velocity":46,"Duration":118772,"SoundDuration":118772,"Delta":129197589},{"NoteNumber":64,"Velocity":37,"Duration":118772,"SoundDuration":118772,"Delta":129316361},{"NoteNumber":67,"Velocity":37,"Duration":118771,"SoundDuration":118771,"Delta":129435133},{"NoteNumber":79,"Velocity":60,"Duration":88396,"SoundDuration":88396,"Delta":129553905},{"NoteNumber":60,"Velocity":47,"Duration":117862,"SoundDuration":117862,"Delta":129553905},{"NoteNumber":78,"Velocity":53,"Duration":88396,"SoundDuration":88396,"Delta":129642301},{"NoteNumber":62,"Velocity":38,"Duration":117862,"SoundDuration":117862,"Delta":129671767},{"NoteNumber":76,"Velocity":53,"Duration":88396,"SoundDuration":88396,"Delta":129730698},{"NoteNumber":66,"Velocity":39,"Duration":117862,"SoundDuration":117862,"Delta":129789629},{"NoteNumber":78,"Velocity":53,"Duration":88396,"SoundDuration":88396,"Delta":129819094},{"NoteNumber":79,"Velocity":68,"Duration":88736,"SoundDuration":88736,"Delta":129907491},{"NoteNumber":59,"Velocity":48,"Duration":118315,"SoundDuration":118315,"Delta":129907491},{"NoteNumber":62,"Velocity":38,"Duration":118315,"SoundDuration":118315,"Delta":130025806},{"NoteNumber":67,"Velocity":39,"Duration":118315,"SoundDuration":118315,"Delta":130144122},{"NoteNumber":79,"Velocity":57,"Duration":88736,"SoundDuration":88736,"Delta":130262437},{"NoteNumber":59,"Velocity":49,"Duration":118315,"SoundDuration":118315,"Delta":130262437},{"NoteNumber":62,"Velocity":41,"Duration":118315,"SoundDuration":118315,"Delta":130380752},{"NoteNumber":67,"Velocity":42,"Duration":118315,"SoundDuration":118315,"Delta":130499068},{"NoteNumber":79,"Velocity":57,"Duration":89078,"SoundDuration":89078,"Delta":130617383},{"NoteNumber":59,"Velocity":50,"Duration":118772,"SoundDuration":118772,"Delta":130617383},{"NoteNumber":62,"Velocity":40,"Duration":118772,"SoundDuration":118772,"Delta":130736155},{"NoteNumber":67,"Velocity":40,"Duration":118771,"SoundDuration":118771,"Delta":130854927},{"NoteNumber":83,"Velocity":64,"Duration":88396,"SoundDuration":88396,"Delta":130973699},{"NoteNumber":54,"Velocity":51,"Duration":117862,"SoundDuration":117862,"Delta":130973699},{"NoteNumber":81,"Velocity":57,"Duration":88396,"SoundDuration":88396,"Delta":131062095},{"NoteNumber":57,"Velocity":41,"Duration":117862,"SoundDuration":117862,"Delta":131091561},{"NoteNumber":79,"Velocity":57,"Duration":88396,"SoundDuration":88396,"Delta":131150492},{"NoteNumber":62,"Velocity":42,"Duration":117862,"SoundDuration":117862,"Delta":131209423},{"NoteNumber":81,"Velocity":57,"Duration":88396,"SoundDuration":88396,"Delta":131238888},{"NoteNumber":83,"Velocity":73,"Duration":88736,"SoundDuration":88736,"Delta":131327285},{"NoteNumber":55,"Velocity":52,"Duration":118315,"SoundDuration":118315,"Delta":131327285},{"NoteNumber":59,"Velocity":41,"Duration":118315,"SoundDuration":118315,"Delta":131445600},{"NoteNumber":62,"Velocity":42,"Duration":118315,"SoundDuration":118315,"Delta":131563916},{"NoteNumber":79,"Velocity":61,"Duration":88736,"SoundDuration":88736,"Delta":131682231},{"NoteNumber":55,"Velocity":53,"Duration":118315,"SoundDuration":118315,"Delta":131682231},{"NoteNumber":59,"Velocity":44,"Duration":118315,"SoundDuration":118315,"Delta":131800546},{"NoteNumber":62,"Velocity":45,"Duration":118315,"SoundDuration":118315,"Delta":131918862},{"NoteNumber":79,"Velocity":61,"Duration":89078,"SoundDuration":89078,"Delta":132037177},{"NoteNumber":55,"Velocity":54,"Duration":118772,"SoundDuration":118772,"Delta":132037177},{"NoteNumber":59,"Velocity":43,"Duration":118772,"SoundDuration":118772,"Delta":132155949},{"NoteNumber":62,"Velocity":43,"Duration":118771,"SoundDuration":118771,"Delta":132274721},{"NoteNumber":83,"Velocity":69,"Duration":88396,"SoundDuration":88396,"Delta":132393493},{"NoteNumber":54,"Velocity":54,"Duration":117862,"SoundDuration":117862,"Delta":132393493},{"NoteNumber":81,"Velocity":61,"Duration":88396,"SoundDuration":88396,"Delta":132481889},{"NoteNumber":57,"Velocity":43,"Duration":117862,"SoundDuration":117862,"Delta":132511355},{"NoteNumber":79,"Velocity":61,"Duration":88396,"SoundDuration":88396,"Delta":132570286},{"NoteNumber":62,"Velocity":45,"Duration":117862,"SoundDuration":117862,"Delta":132629217},{"NoteNumber":81,"Velocity":61,"Duration":88396,"SoundDuration":88396,"Delta":132658682},{"NoteNumber":83,"Velocity":78,"Duration":88736,"SoundDuration":88736,"Delta":132747079},{"NoteNumber":55,"Velocity":55,"Duration":118315,"SoundDuration":118315,"Delta":132747079},{"NoteNumber":59,"Velocity":44,"Duration":118315,"SoundDuration":118315,"Delta":132865394},{"NoteNumber":62,"Velocity":45,"Duration":118315,"SoundDuration":118315,"Delta":132983710},{"NoteNumber":79,"Velocity":65,"Duration":88736,"SoundDuration":88736,"Delta":133102025},{"NoteNumber":55,"Velocity":56,"Duration":118315,"SoundDuration":118315,"Delta":133102025},{"NoteNumber":59,"Velocity":47,"Duration":118315,"SoundDuration":118315,"Delta":133220340},{"NoteNumber":62,"Velocity":48,"Duration":118315,"SoundDuration":118315,"Delta":133338656},{"NoteNumber":79,"Velocity":65,"Duration":89078,"SoundDuration":89078,"Delta":133456971},{"NoteNumber":55,"Velocity":57,"Duration":118772,"SoundDuration":118772,"Delta":133456971},{"NoteNumber":59,"Velocity":46,"Duration":118772,"SoundDuration":118772,"Delta":133575743},{"NoteNumber":62,"Velocity":46,"Duration":118771,"SoundDuration":118771,"Delta":133694515},{"NoteNumber":79,"Velocity":75,"Duration":117862,"SoundDuration":117862,"Delta":133813287},{"NoteNumber":55,"Velocity":57,"Duration":117862,"SoundDuration":117862,"Delta":133813287},{"NoteNumber":83,"Velocity":69,"Duration":117862,"SoundDuration":117862,"Delta":133931149},{"NoteNumber":59,"Velocity":50,"Duration":117862,"SoundDuration":117862,"Delta":133931149},{"NoteNumber":86,"Velocity":71,"Duration":117862,"SoundDuration":117862,"Delta":134049011},{"NoteNumber":62,"Velocity":50,"Duration":117862,"SoundDuration":117862,"Delta":134049011},{"NoteNumber":84,"Velocity":75,"Duration":345662,"SoundDuration":345662,"Delta":134166873},{"NoteNumber":54,"Velocity":56,"Duration":115220,"SoundDuration":115220,"Delta":134166873},{"NoteNumber":57,"Velocity":43,"Duration":115220,"SoundDuration":115220,"Delta":134282094},{"NoteNumber":62,"Velocity":45,"Duration":115220,"SoundDuration":115220,"Delta":134397314},{"NoteNumber":84,"Velocity":69,"Duration":261202,"SoundDuration":261202,"Delta":134512535},{"NoteNumber":54,"Velocity":56,"Duration":116090,"SoundDuration":116090,"Delta":134512535},{"NoteNumber":57,"Velocity":45,"Duration":116089,"SoundDuration":116089,"Delta":134628625},{"NoteNumber":62,"Velocity":45,"Duration":130346,"SoundDuration":130346,"Delta":134744715},{"NoteNumber":86,"Velocity":65,"Duration":101324,"SoundDuration":101324,"Delta":134773737},{"NoteNumber":83,"Velocity":75,"Duration":87067,"SoundDuration":87067,"Delta":134875061},{"NoteNumber":55,"Velocity":56,"Duration":116090,"SoundDuration":116090,"Delta":134875061},{"NoteNumber":59,"Velocity":43,"Duration":116089,"SoundDuration":116089,"Delta":134991151},{"NoteNumber":62,"Velocity":44,"Duration":116090,"SoundDuration":116090,"Delta":135107241},{"NoteNumber":83,"Velocity":75,"Duration":259246,"SoundDuration":259246,"Delta":135223331},{"NoteNumber":55,"Velocity":56,"Duration":115220,"SoundDuration":115220,"Delta":135223331},{"NoteNumber":59,"Velocity":46,"Duration":115220,"SoundDuration":115220,"Delta":135338552},{"NoteNumber":62,"Velocity":46,"Duration":129449,"SoundDuration":129449,"Delta":135453773},{"NoteNumber":84,"Velocity":70,"Duration":100643,"SoundDuration":100643,"Delta":135482578},{"NoteNumber":81,"Velocity":75,"Duration":86415,"SoundDuration":86415,"Delta":135583222},{"NoteNumber":60,"Velocity":56,"Duration":115220,"SoundDuration":115220,"Delta":135583222},{"NoteNumber":62,"Velocity":43,"Duration":115220,"SoundDuration":115220,"Delta":135698443},{"NoteNumber":66,"Velocity":45,"Duration":115220,"SoundDuration":115220,"Delta":135813663},{"NoteNumber":81,"Velocity":69,"Duration":261202,"SoundDuration":261202,"Delta":135928884},{"NoteNumber":60,"Velocity":56,"Duration":116090,"SoundDuration":116090,"Delta":135928884},{"NoteNumber":62,"Velocity":45,"Duration":116089,"SoundDuration":116089,"Delta":136044974},{"NoteNumber":66,"Velocity":45,"Duration":130346,"SoundDuration":130346,"Delta":136161064},{"NoteNumber":83,"Velocity":65,"Duration":101324,"SoundDuration":101324,"Delta":136190086},{"NoteNumber":79,"Velocity":75,"Duration":87067,"SoundDuration":87067,"Delta":136291410},{"NoteNumber":59,"Velocity":56,"Duration":116090,"SoundDuration":116090,"Delta":136291410},{"NoteNumber":62,"Velocity":43,"Duration":116089,"SoundDuration":116089,"Delta":136407500},{"NoteNumber":67,"Velocity":44,"Duration":116090,"SoundDuration":116090,"Delta":136523590},{"NoteNumber":79,"Velocity":57,"Duration":117862,"SoundDuration":117862,"Delta":136639680},{"NoteNumber":59,"Velocity":39,"Duration":117862,"SoundDuration":117862,"Delta":136639680},{"NoteNumber":83,"Velocity":52,"Duration":117862,"SoundDuration":117862,"Delta":136757542},{"NoteNumber":62,"Velocity":35,"Duration":117862,"SoundDuration":117862,"Delta":136757542},{"NoteNumber":86,"Velocity":53,"Duration":117862,"SoundDuration":117862,"Delta":136875404},{"NoteNumber":67,"Velocity":35,"Duration":117862,"SoundDuration":117862,"Delta":136875404},{"NoteNumber":84,"Velocity":57,"Duration":172831,"SoundDuration":172831,"Delta":136993266},{"NoteNumber":54,"Velocity":39,"Duration":115220,"SoundDuration":115220,"Delta":136993266},{"NoteNumber":57,"Velocity":30,"Duration":115220,"SoundDuration":115220,"Delta":137108487},{"NoteNumber":86,"Velocity":57,"Duration":57610,"SoundDuration":57610,"Delta":137166097},{"NoteNumber":84,"Velocity":49,"Duration":57610,"SoundDuration":57610,"Delta":137223708},{"NoteNumber":62,"Velocity":31,"Duration":115220,"SoundDuration":115220,"Delta":137223708},{"NoteNumber":83,"Velocity":49,"Duration":57610,"SoundDuration":57610,"Delta":137281318},{"NoteNumber":84,"Velocity":52,"Duration":261202,"SoundDuration":261202,"Delta":137338928},{"NoteNumber":54,"Velocity":39,"Duration":116090,"SoundDuration":116090,"Delta":137338928},{"NoteNumber":57,"Velocity":31,"Duration":116089,"SoundDuration":116089,"Delta":137455018},{"NoteNumber":62,"Velocity":31,"Duration":130346,"SoundDuration":130346,"Delta":137571108},{"NoteNumber":86,"Velocity":49,"Duration":101324,"SoundDuration":101324,"Delta":137600131},{"NoteNumber":83,"Velocity":57,"Duration":174135,"SoundDuration":174135,"Delta":137701455},{"NoteNumber":55,"Velocity":39,"Duration":116090,"SoundDuration":116090,"Delta":137701455},{"NoteNumber":59,"Velocity":30,"Duration":116089,"SoundDuration":116089,"Delta":137817545},{"NoteNumber":84,"Velocity":57,"Duration":58044,"SoundDuration":58044,"Delta":137875590},{"NoteNumber":83,"Velocity":50,"Duration":58044,"SoundDuration":58044,"Delta":137933635},{"NoteNumber":62,"Velocity":30,"Duration":116090,"SoundDuration":116090,"Delta":137933635},{"NoteNumber":81,"Velocity":50,"Duration":58045,"SoundDuration":58045,"Delta":137991680},{"NoteNumber":83,"Velocity":57,"Duration":259246,"SoundDuration":259246,"Delta":138049725},{"NoteNumber":55,"Velocity":39,"Duration":115220,"SoundDuration":115220,"Delta":138049725},{"NoteNumber":59,"Velocity":32,"Duration":115220,"SoundDuration":115220,"Delta":138164946},{"NoteNumber":62,"Velocity":32,"Duration":129449,"SoundDuration":129449,"Delta":138280166},{"NoteNumber":84,"Velocity":53,"Duration":100643,"SoundDuration":100643,"Delta":138308971},{"NoteNumber":81,"Velocity":57,"Duration":172831,"SoundDuration":172831,"Delta":138409615},{"NoteNumber":60,"Velocity":39,"Duration":115220,"SoundDuration":115220,"Delta":138409615},{"NoteNumber":62,"Velocity":30,"Duration":115220,"SoundDuration":115220,"Delta":138524836},{"NoteNumber":83,"Velocity":57,"Duration":57610,"SoundDuration":57610,"Delta":138582446},{"NoteNumber":81,"Velocity":51,"Duration":57610,"SoundDuration":57610,"Delta":138640057},{"NoteNumber":66,"Velocity":31,"Duration":115220,"SoundDuration":115220,"Delta":138640057},{"NoteNumber":79,"Velocity":51,"Duration":57610,"SoundDuration":57610,"Delta":138697667},{"NoteNumber":81,"Velocity":52,"Duration":261202,"SoundDuration":261202,"Delta":138755277},{"NoteNumber":60,"Velocity":39,"Duration":116090,"SoundDuration":116090,"Delta":138755277},{"NoteNumber":62,"Velocity":31,"Duration":116089,"SoundDuration":116089,"Delta":138871367},{"NoteNumber":66,"Velocity":31,"Duration":130346,"SoundDuration":130346,"Delta":138987457},{"NoteNumber":83,"Velocity":49,"Duration":101324,"SoundDuration":101324,"Delta":139016480},{"NoteNumber":79,"Velocity":57,"Duration":348270,"SoundDuration":348270,"Delta":139117804},{"NoteNumber":59,"Velocity":39,"Duration":116090,"SoundDuration":116090,"Delta":139117804},{"NoteNumber":62,"Velocity":30,"Duration":116089,"SoundDuration":116089,"Delta":139233894},{"NoteNumber":67,"Velocity":30,"Duration":116090,"SoundDuration":116090,"Delta":139349984},{"NoteNumber":86,"Velocity":66,"Duration":261202,"SoundDuration":261202,"Delta":139466074},{"NoteNumber":59,"Velocity":54,"Duration":116089,"SoundDuration":116089,"Delta":139466074},{"NoteNumber":62,"Velocity":43,"Duration":116090,"SoundDuration":116090,"Delta":139582164},{"NoteNumber":67,"Velocity":44,"Duration":116089,"SoundDuration":116089,"Delta":139698254},{"NoteNumber":83,"Velocity":55,"Duration":87067,"SoundDuration":87067,"Delta":139727276},{"NoteNumber":81,"Velocity":74,"Duration":172831,"SoundDuration":172831,"Delta":139814344},{"NoteNumber":60,"Velocity":54,"Duration":115220,"SoundDuration":115220,"Delta":139814344},{"NoteNumber":64,"Velocity":40,"Duration":115220,"SoundDuration":115220,"Delta":139929565},{"NoteNumber":83,"Velocity":68,"Duration":57610,"SoundDuration":57610,"Delta":139987175},{"NoteNumber":81,"Velocity":59,"Duration":57610,"SoundDuration":57610,"Delta":140044785},{"NoteNumber":69,"Velocity":41,"Duration":115220,"SoundDuration":115220,"Delta":140044785},{"NoteNumber":79,"Velocity":59,"Duration":57610,"SoundDuration":57610,"Delta":140102396},{"NoteNumber":81,"Velocity":62,"Duration":261202,"SoundDuration":261202,"Delta":140160006},{"NoteNumber":60,"Velocity":55,"Duration":116090,"SoundDuration":116090,"Delta":140160006},{"NoteNumber":64,"Velocity":42,"Duration":116089,"SoundDuration":116089,"Delta":140276096},{"NoteNumber":69,"Velocity":42,"Duration":130346,"SoundDuration":130346,"Delta":140392186},{"NoteNumber":83,"Velocity":59,"Duration":101324,"SoundDuration":101324,"Delta":140421208},{"NoteNumber":79,"Velocity":68,"Duration":174135,"SoundDuration":174135,"Delta":140522532},{"NoteNumber":61,"Velocity":53,"Duration":116090,"SoundDuration":116090,"Delta":140522532},{"NoteNumber":64,"Velocity":41,"Duration":116089,"SoundDuration":116089,"Delta":140638622},{"NoteNumber":81,"Velocity":68,"Duration":58044,"SoundDuration":58044,"Delta":140696667},{"NoteNumber":79,"Velocity":60,"Duration":58044,"SoundDuration":58044,"Delta":140754712},{"NoteNumber":69,"Velocity":41,"Duration":116090,"SoundDuration":116090,"Delta":140754712},{"NoteNumber":78,"Velocity":60,"Duration":58045,"SoundDuration":58045,"Delta":140812757},{"NoteNumber":79,"Velocity":68,"Duration":259246,"SoundDuration":259246,"Delta":140870802},{"NoteNumber":61,"Velocity":51,"Duration":115220,"SoundDuration":115220,"Delta":140870802},{"NoteNumber":64,"Velocity":42,"Duration":115220,"SoundDuration":115220,"Delta":140986023},{"NoteNumber":69,"Velocity":43,"Duration":129449,"SoundDuration":129449,"Delta":141101244},{"NoteNumber":81,"Velocity":63,"Duration":100643,"SoundDuration":100643,"Delta":141130049},{"NoteNumber":78,"Velocity":74,"Duration":402576,"SoundDuration":402576,"Delta":141230693},{"NoteNumber":62,"Velocity":58,"Duration":402576,"SoundDuration":402576,"Delta":141230693},{"NoteNumber":74,"Velocity":68,"Duration":95517,"SoundDuration":95517,"Delta":141919820},{"NoteNumber":62,"Velocity":62,"Duration":95517,"SoundDuration":95517,"Delta":141919820},{"NoteNumber":78,"Velocity":79,"Duration":286551,"SoundDuration":286551,"Delta":142015337},{"NoteNumber":66,"Velocity":68,"Duration":286551,"SoundDuration":286551,"Delta":142015337},{"NoteNumber":74,"Velocity":68,"Duration":95517,"SoundDuration":95517,"Delta":142301888},{"NoteNumber":62,"Velocity":62,"Duration":95517,"SoundDuration":95517,"Delta":142301888},{"NoteNumber":81,"Velocity":74,"Duration":286551,"SoundDuration":286551,"Delta":142397405},{"NoteNumber":69,"Velocity":68,"Duration":286551,"SoundDuration":286551,"Delta":142397405},{"NoteNumber":78,"Velocity":68,"Duration":111078,"SoundDuration":111078,"Delta":142683956},{"NoteNumber":66,"Velocity":64,"Duration":111078,"SoundDuration":111078,"Delta":142683956},{"NoteNumber":86,"Velocity":86,"Duration":380855,"SoundDuration":380855,"Delta":142795034},{"NoteNumber":74,"Velocity":80,"Duration":380855,"SoundDuration":380855,"Delta":142795034},{"NoteNumber":62,"Velocity":66,"Duration":95213,"SoundDuration":95213,"Delta":143461532},{"NoteNumber":50,"Velocity":62,"Duration":95213,"SoundDuration":95213,"Delta":143461532},{"NoteNumber":66,"Velocity":77,"Duration":126952,"SoundDuration":126952,"Delta":143556746},{"NoteNumber":54,"Velocity":71,"Duration":126952,"SoundDuration":126952,"Delta":143556746},{"NoteNumber":62,"Velocity":69,"Duration":126951,"SoundDuration":126951,"Delta":143683698},{"NoteNumber":50,"Velocity":62,"Duration":126951,"SoundDuration":126951,"Delta":143683698},{"NoteNumber":66,"Velocity":69,"Duration":126952,"SoundDuration":126952,"Delta":143810650},{"NoteNumber":54,"Velocity":62,"Duration":126952,"SoundDuration":126952,"Delta":143810650},{"NoteNumber":69,"Velocity":80,"Duration":126951,"SoundDuration":126951,"Delta":143937602},{"NoteNumber":57,"Velocity":68,"Duration":126951,"SoundDuration":126951,"Delta":143937602},{"NoteNumber":66,"Velocity":70,"Duration":126951,"SoundDuration":126951,"Delta":144064554},{"NoteNumber":54,"Velocity":64,"Duration":126951,"SoundDuration":126951,"Delta":144064554},{"NoteNumber":69,"Velocity":70,"Duration":142816,"SoundDuration":142816,"Delta":144191506},{"NoteNumber":57,"Velocity":64,"Duration":142816,"SoundDuration":142816,"Delta":144191506},{"NoteNumber":74,"Velocity":84,"Duration":380855,"SoundDuration":380855,"Delta":144334322},{"NoteNumber":62,"Velocity":74,"Duration":380855,"SoundDuration":380855,"Delta":144334322},{"NoteNumber":50,"Velocity":95,"Duration":571284,"SoundDuration":571284,"Delta":145096034},{"NoteNumber":38,"Velocity":84,"Duration":571284,"SoundDuration":571284,"Delta":145096034},{"NoteNumber":50,"Velocity":89,"Duration":190427,"SoundDuration":190427,"Delta":145667318},{"NoteNumber":38,"Velocity":78,"Duration":190427,"SoundDuration":190427,"Delta":145667318},{"NoteNumber":50,"Velocity":97,"Duration":380855,"SoundDuration":380855,"Delta":145857746},{"NoteNumber":38,"Velocity":84,"Duration":380855,"SoundDuration":380855,"Delta":145857746},{"NoteNumber":59,"Velocity":40,"Duration":118315,"SoundDuration":118315,"Delta":147381170},{"NoteNumber":62,"Velocity":32,"Duration":118315,"SoundDuration":118315,"Delta":147501704},{"NoteNumber":67,"Velocity":32,"Duration":118315,"SoundDuration":118315,"Delta":147617801},{"NoteNumber":59,"Velocity":40,"Duration":118315,"SoundDuration":118315,"Delta":147736116},{"NoteNumber":62,"Velocity":34,"Duration":118315,"SoundDuration":118315,"Delta":147856650},{"NoteNumber":67,"Velocity":34,"Duration":118315,"SoundDuration":118315,"Delta":147972747},{"NoteNumber":59,"Velocity":40,"Duration":118772,"SoundDuration":118772,"Delta":148091062},{"NoteNumber":62,"Velocity":32,"Duration":118772,"SoundDuration":118772,"Delta":148212061},{"NoteNumber":67,"Velocity":32,"Duration":118771,"SoundDuration":118771,"Delta":148328606},{"NoteNumber":76,"Velocity":57,"Duration":88396,"SoundDuration":88396,"Delta":148447378},{"NoteNumber":60,"Velocity":40,"Duration":117862,"SoundDuration":117862,"Delta":148447378},{"NoteNumber":74,"Velocity":50,"Duration":88396,"SoundDuration":88396,"Delta":148535775},{"NoteNumber":62,"Velocity":32,"Duration":117862,"SoundDuration":117862,"Delta":148565240},{"NoteNumber":73,"Velocity":50,"Duration":88396,"SoundDuration":88396,"Delta":148624171},{"NoteNumber":66,"Velocity":33,"Duration":117862,"SoundDuration":117862,"Delta":148683102},{"NoteNumber":74,"Velocity":50,"Duration":88396,"SoundDuration":88396,"Delta":148712568},{"NoteNumber":79,"Velocity":63,"Duration":88396,"SoundDuration":88396,"Delta":148800964},{"NoteNumber":59,"Velocity":40,"Duration":117862,"SoundDuration":117862,"Delta":148800964},{"NoteNumber":62,"Velocity":32,"Duration":117862,"SoundDuration":117862,"Delta":148915143},{"NoteNumber":67,"Velocity":32,"Duration":117862,"SoundDuration":117862,"Delta":149036688},{"NoteNumber":79,"Velocity":53,"Duration":88396,"SoundDuration":88396,"Delta":149154550},{"NoteNumber":59,"Velocity":41,"Duration":117861,"SoundDuration":117861,"Delta":149154550},{"NoteNumber":62,"Velocity":35,"Duration":117862,"SoundDuration":117862,"Delta":149268729},{"NoteNumber":67,"Velocity":36,"Duration":117862,"SoundDuration":117862,"Delta":149390274},{"NoteNumber":59,"Velocity":43,"Duration":118772,"SoundDuration":118772,"Delta":149508136},{"NoteNumber":62,"Velocity":35,"Duration":118772,"SoundDuration":118772,"Delta":149626908},{"NoteNumber":67,"Velocity":35,"Duration":118771,"SoundDuration":118771,"Delta":149745680},{"NoteNumber":76,"Velocity":60,"Duration":88396,"SoundDuration":88396,"Delta":149864452},{"NoteNumber":60,"Velocity":45,"Duration":117862,"SoundDuration":117862,"Delta":149864452},{"NoteNumber":74,"Velocity":53,"Duration":88396,"SoundDuration":88396,"Delta":149952849},{"NoteNumber":62,"Velocity":37,"Duration":117862,"SoundDuration":117862,"Delta":149982314},{"NoteNumber":73,"Velocity":53,"Duration":88396,"SoundDuration":88396,"Delta":150041245},{"NoteNumber":66,"Velocity":38,"Duration":117862,"SoundDuration":117862,"Delta":150100176},{"NoteNumber":74,"Velocity":53,"Duration":88396,"SoundDuration":88396,"Delta":150129642},{"NoteNumber":79,"Velocity":68,"Duration":88736,"SoundDuration":88736,"Delta":150218038},{"NoteNumber":59,"Velocity":48,"Duration":118315,"SoundDuration":118315,"Delta":150218038},{"NoteNumber":62,"Velocity":38,"Duration":118315,"SoundDuration":118315,"Delta":150336354},{"NoteNumber":67,"Velocity":39,"Duration":118315,"SoundDuration":118315,"Delta":150454669},{"NoteNumber":79,"Velocity":57,"Duration":88736,"SoundDuration":88736,"Delta":150572984},{"NoteNumber":59,"Velocity":49,"Duration":118315,"SoundDuration":118315,"Delta":150572984},{"NoteNumber":62,"Velocity":41,"Duration":118315,"SoundDuration":118315,"Delta":150691300},{"NoteNumber":67,"Velocity":42,"Duration":118315,"SoundDuration":118315,"Delta":150809615},{"NoteNumber":59,"Velocity":50,"Duration":118772,"SoundDuration":118772,"Delta":150927930},{"NoteNumber":62,"Velocity":40,"Duration":118772,"SoundDuration":118772,"Delta":151046702},{"NoteNumber":67,"Velocity":40,"Duration":118771,"SoundDuration":118771,"Delta":151165474},{"NoteNumber":76,"Velocity":64,"Duration":88396,"SoundDuration":88396,"Delta":151284246},{"NoteNumber":60,"Velocity":51,"Duration":117862,"SoundDuration":117862,"Delta":151284246},{"NoteNumber":74,"Velocity":57,"Duration":88396,"SoundDuration":88396,"Delta":151372643},{"NoteNumber":62,"Velocity":41,"Duration":117862,"SoundDuration":117862,"Delta":151402108},{"NoteNumber":73,"Velocity":57,"Duration":88396,"SoundDuration":88396,"Delta":151461039},{"NoteNumber":66,"Velocity":42,"Duration":117862,"SoundDuration":117862,"Delta":151519970},{"NoteNumber":74,"Velocity":57,"Duration":88396,"SoundDuration":88396,"Delta":151549436},{"NoteNumber":79,"Velocity":73,"Duration":354946,"SoundDuration":354946,"Delta":151637832},{"NoteNumber":59,"Velocity":52,"Duration":118315,"SoundDuration":118315,"Delta":151637832},{"NoteNumber":62,"Velocity":41,"Duration":118315,"SoundDuration":118315,"Delta":151756148},{"NoteNumber":67,"Velocity":42,"Duration":118315,"SoundDuration":118315,"Delta":151874463},{"NoteNumber":81,"Velocity":75,"Duration":88736,"SoundDuration":88736,"Delta":151992778},{"NoteNumber":59,"Velocity":54,"Duration":118315,"SoundDuration":118315,"Delta":151992778},{"NoteNumber":79,"Velocity":63,"Duration":88736,"SoundDuration":88736,"Delta":152081515},{"NoteNumber":62,"Velocity":45,"Duration":118315,"SoundDuration":118315,"Delta":152111094},{"NoteNumber":78,"Velocity":63,"Duration":88736,"SoundDuration":88736,"Delta":152170251},{"NoteNumber":67,"Velocity":46,"Duration":118315,"SoundDuration":118315,"Delta":152229409},{"NoteNumber":79,"Velocity":63,"Duration":88736,"SoundDuration":88736,"Delta":152258988},{"NoteNumber":81,"Velocity":75,"Duration":356315,"SoundDuration":356315,"Delta":152347724},{"NoteNumber":54,"Velocity":56,"Duration":118772,"SoundDuration":118772,"Delta":152347724},{"NoteNumber":57,"Velocity":45,"Duration":118772,"SoundDuration":118772,"Delta":152466496},{"NoteNumber":62,"Velocity":45,"Duration":118771,"SoundDuration":118771,"Delta":152585268},{"NoteNumber":83,"Velocity":75,"Duration":88396,"SoundDuration":88396,"Delta":152704040},{"NoteNumber":54,"Velocity":57,"Duration":117862,"SoundDuration":117862,"Delta":152704040},{"NoteNumber":81,"Velocity":66,"Duration":88396,"SoundDuration":88396,"Delta":152792437},{"NoteNumber":57,"Velocity":46,"Duration":117862,"SoundDuration":117862,"Delta":152821902},{"NoteNumber":79,"Velocity":66,"Duration":88396,"SoundDuration":88396,"Delta":152880833},{"NoteNumber":62,"Velocity":48,"Duration":117862,"SoundDuration":117862,"Delta":152939764},{"NoteNumber":81,"Velocity":66,"Duration":88396,"SoundDuration":88396,"Delta":152969230},{"NoteNumber":83,"Velocity":78,"Duration":354946,"SoundDuration":354946,"Delta":153057626},{"NoteNumber":55,"Velocity":59,"Duration":118315,"SoundDuration":118315,"Delta":153057626},{"NoteNumber":59,"Velocity":48,"Duration":118315,"SoundDuration":118315,"Delta":153175942},{"NoteNumber":62,"Velocity":49,"Duration":118315,"SoundDuration":118315,"Delta":153294257},{"NoteNumber":84,"Velocity":77,"Duration":88736,"SoundDuration":88736,"Delta":153412572},{"NoteNumber":55,"Velocity":62,"Duration":118315,"SoundDuration":118315,"Delta":153412572},{"NoteNumber":83,"Velocity":70,"Duration":88736,"SoundDuration":88736,"Delta":153501309},{"NoteNumber":59,"Velocity":52,"Duration":118315,"SoundDuration":118315,"Delta":153530888},{"NoteNumber":81,"Velocity":70,"Duration":88736,"SoundDuration":88736,"Delta":153590045},{"NoteNumber":62,"Velocity":54,"Duration":118315,"SoundDuration":118315,"Delta":153649203},{"NoteNumber":83,"Velocity":71,"Duration":88736,"SoundDuration":88736,"Delta":153678782},{"NoteNumber":84,"Velocity":81,"Duration":356315,"SoundDuration":356315,"Delta":153767518},{"NoteNumber":52,"Velocity":64,"Duration":118772,"SoundDuration":118772,"Delta":153767518},{"NoteNumber":55,"Velocity":52,"Duration":118772,"SoundDuration":118772,"Delta":153886290},{"NoteNumber":60,"Velocity":52,"Duration":118771,"SoundDuration":118771,"Delta":154005062},{"NoteNumber":86,"Velocity":87,"Duration":90612,"SoundDuration":90612,"Delta":154123834},{"NoteNumber":52,"Velocity":66,"Duration":120816,"SoundDuration":120816,"Delta":154123834},{"NoteNumber":84,"Velocity":75,"Duration":90612,"SoundDuration":90612,"Delta":154214447},{"NoteNumber":55,"Velocity":58,"Duration":120816,"SoundDuration":120816,"Delta":154244651},{"NoteNumber":83,"Velocity":78,"Duration":90612,"SoundDuration":90612,"Delta":154305059},{"NoteNumber":60,"Velocity":59,"Duration":139661,"SoundDuration":139661,"Delta":154365468},{"NoteNumber":84,"Velocity":76,"Duration":109456,"SoundDuration":109456,"Delta":154395672},{"NoteNumber":86,"Velocity":105,"Duration":1107713,"SoundDuration":1107713,"Delta":154505129},{"NoteNumber":47,"Velocity":67,"Duration":120452,"SoundDuration":120452,"Delta":154505129},{"NoteNumber":50,"Velocity":60,"Duration":120452,"SoundDuration":120452,"Delta":154624829},{"NoteNumber":55,"Velocity":61,"Duration":120457,"SoundDuration":120457,"Delta":154744529},{"NoteNumber":47,"Velocity":68,"Duration":121519,"SoundDuration":121519,"Delta":154864229},{"NoteNumber":50,"Velocity":62,"Duration":122585,"SoundDuration":122585,"Delta":154984987},{"NoteNumber":55,"Velocity":62,"Duration":123739,"SoundDuration":123739,"Delta":155109111},{"NoteNumber":47,"Velocity":71,"Duration":378434,"SoundDuration":378434,"Delta":155234408},{"NoteNumber":75,"Velocity":86,"Duration":398564,"SoundDuration":398564,"Delta":155612842},{"NoteNumber":87,"Velocity":103,"Duration":398564,"SoundDuration":398564,"Delta":155612842},{"NoteNumber":88,"Velocity":108,"Duration":369139,"SoundDuration":369139,"Delta":156011407},{"NoteNumber":76,"Velocity":92,"Duration":369139,"SoundDuration":369139,"Delta":156011407},{"NoteNumber":48,"Velocity":72,"Duration":369139,"SoundDuration":369139,"Delta":156011407},{"NoteNumber":36,"Velocity":72,"Duration":369139,"SoundDuration":369139,"Delta":156011407},{"NoteNumber":80,"Velocity":75,"Duration":369140,"SoundDuration":369140,"Delta":156380547},{"NoteNumber":68,"Velocity":64,"Duration":369140,"SoundDuration":369140,"Delta":156380547},{"NoteNumber":81,"Velocity":82,"Duration":369139,"SoundDuration":369139,"Delta":156749687},{"NoteNumber":69,"Velocity":69,"Duration":369139,"SoundDuration":369139,"Delta":156749687},{"NoteNumber":83,"Velocity":89,"Duration":369140,"SoundDuration":369140,"Delta":157118827},{"NoteNumber":71,"Velocity":75,"Duration":369140,"SoundDuration":369140,"Delta":157118827},{"NoteNumber":84,"Velocity":95,"Duration":763772,"SoundDuration":763772,"Delta":157487967},{"NoteNumber":72,"Velocity":80,"Duration":763772,"SoundDuration":763772,"Delta":157487967},{"NoteNumber":86,"Velocity":95,"Duration":377263,"SoundDuration":377263,"Delta":158251740},{"NoteNumber":74,"Velocity":80,"Duration":377263,"SoundDuration":377263,"Delta":158251740},{"NoteNumber":76,"Velocity":76,"Duration":422415,"SoundDuration":422415,"Delta":158629004},{"NoteNumber":88,"Velocity":91,"Duration":422415,"SoundDuration":422415,"Delta":158629004},{"NoteNumber":74,"Velocity":59,"Duration":696421,"SoundDuration":696421,"Delta":159051420},{"NoteNumber":79,"Velocity":70,"Duration":696421,"SoundDuration":696421,"Delta":159051420},{"NoteNumber":71,"Velocity":42,"Duration":742850,"SoundDuration":742850,"Delta":159051420},{"NoteNumber":62,"Velocity":42,"Duration":1515972,"SoundDuration":1515972,"Delta":159051420},{"NoteNumber":83,"Velocity":58,"Duration":46428,"SoundDuration":46428,"Delta":159747842},{"NoteNumber":81,"Velocity":66,"Duration":564121,"SoundDuration":564121,"Delta":159794270},{"NoteNumber":78,"Velocity":66,"Duration":773122,"SoundDuration":773122,"Delta":159794270},{"NoteNumber":72,"Velocity":43,"Duration":773122,"SoundDuration":773122,"Delta":159794270},{"NoteNumber":79,"Velocity":56,"Duration":209001,"SoundDuration":209001,"Delta":160358392},{"NoteNumber":79,"Velocity":66,"Duration":370279,"SoundDuration":370279,"Delta":160567393},{"NoteNumber":67,"Velocity":40,"Duration":370279,"SoundDuration":370279,"Delta":160567393},{"NoteNumber":71,"Velocity":40,"Duration":370279,"SoundDuration":370279,"Delta":160567393},{"NoteNumber":83,"Velocity":57,"Duration":119731,"SoundDuration":119731,"Delta":161678230},{"NoteNumber":79,"Velocity":36,"Duration":374561,"SoundDuration":374561,"Delta":161678230},{"NoteNumber":87,"Velocity":61,"Duration":119731,"SoundDuration":119731,"Delta":161797961},{"NoteNumber":88,"Velocity":61,"Duration":135098,"SoundDuration":135098,"Delta":161917693},{"NoteNumber":86,"Velocity":58,"Duration":89798,"SoundDuration":89798,"Delta":162052792},{"NoteNumber":78,"Velocity":38,"Duration":89798,"SoundDuration":89798,"Delta":162052792},{"NoteNumber":81,"Velocity":38,"Duration":89798,"SoundDuration":89798,"Delta":162052792},{"NoteNumber":86,"Velocity":49,"Duration":89798,"SoundDuration":89798,"Delta":162411987},{"NoteNumber":86,"Velocity":49,"Duration":89798,"SoundDuration":89798,"Delta":162771182},{"NoteNumber":79,"Velocity":57,"Duration":119731,"SoundDuration":119731,"Delta":163143943},{"NoteNumber":76,"Velocity":36,"Duration":374561,"SoundDuration":374561,"Delta":163143943},{"NoteNumber":83,"Velocity":44,"Duration":119731,"SoundDuration":119731,"Delta":163263674},{"NoteNumber":84,"Velocity":44,"Duration":135098,"SoundDuration":135098,"Delta":163383406},{"NoteNumber":83,"Velocity":58,"Duration":89798,"SoundDuration":89798,"Delta":163518505},{"NoteNumber":78,"Velocity":38,"Duration":89798,"SoundDuration":89798,"Delta":163518505},{"NoteNumber":74,"Velocity":38,"Duration":89798,"SoundDuration":89798,"Delta":163518505},{"NoteNumber":83,"Velocity":49,"Duration":89798,"SoundDuration":89798,"Delta":163877700},{"NoteNumber":83,"Velocity":49,"Duration":89798,"SoundDuration":89798,"Delta":164236895},{"NoteNumber":76,"Velocity":57,"Duration":119731,"SoundDuration":119731,"Delta":164596090},{"NoteNumber":72,"Velocity":36,"Duration":374561,"SoundDuration":374561,"Delta":164596090},{"NoteNumber":80,"Velocity":44,"Duration":119731,"SoundDuration":119731,"Delta":164715821},{"NoteNumber":81,"Velocity":44,"Duration":135098,"SoundDuration":135098,"Delta":164835553},{"NoteNumber":79,"Velocity":58,"Duration":89798,"SoundDuration":89798,"Delta":164970652},{"NoteNumber":74,"Velocity":38,"Duration":89798,"SoundDuration":89798,"Delta":164970652},{"NoteNumber":71,"Velocity":38,"Duration":89798,"SoundDuration":89798,"Delta":164970652},{"NoteNumber":79,"Velocity":49,"Duration":89798,"SoundDuration":89798,"Delta":165329847},{"NoteNumber":79,"Velocity":49,"Duration":89798,"SoundDuration":89798,"Delta":165689042},{"NoteNumber":83,"Velocity":61,"Duration":265424,"SoundDuration":265424,"Delta":166048237},{"NoteNumber":71,"Velocity":36,"Duration":353899,"SoundDuration":353899,"Delta":166048237},{"NoteNumber":67,"Velocity":36,"Duration":353899,"SoundDuration":353899,"Delta":166048237},{"NoteNumber":79,"Velocity":54,"Duration":88474,"SoundDuration":88474,"Delta":166313661},{"NoteNumber":76,"Velocity":62,"Duration":88474,"SoundDuration":88474,"Delta":166402136},{"NoteNumber":72,"Velocity":41,"Duration":88474,"SoundDuration":88474,"Delta":166402136},{"NoteNumber":60,"Velocity":41,"Duration":88474,"SoundDuration":88474,"Delta":166402136},{"NoteNumber":84,"Velocity":61,"Duration":268592,"SoundDuration":268592,"Delta":166765955},{"NoteNumber":81,"Velocity":53,"Duration":89530,"SoundDuration":89530,"Delta":167034547},{"NoteNumber":78,"Velocity":61,"Duration":89530,"SoundDuration":89530,"Delta":167124078},{"NoteNumber":62,"Velocity":38,"Duration":89530,"SoundDuration":89530,"Delta":167124078},{"NoteNumber":69,"Velocity":38,"Duration":89530,"SoundDuration":89530,"Delta":167124078},{"NoteNumber":81,"Velocity":60,"Duration":269440,"SoundDuration":269440,"Delta":167488279},{"NoteNumber":78,"Velocity":54,"Duration":91441,"SoundDuration":91441,"Delta":167757719},{"NoteNumber":79,"Velocity":61,"Duration":88736,"SoundDuration":88736,"Delta":167849160},{"NoteNumber":71,"Velocity":41,"Duration":88736,"SoundDuration":88736,"Delta":167849160},{"NoteNumber":67,"Velocity":41,"Duration":88736,"SoundDuration":88736,"Delta":167849160},{"NoteNumber":83,"Velocity":88,"Duration":119731,"SoundDuration":119731,"Delta":168913998},{"NoteNumber":79,"Velocity":70,"Duration":374561,"SoundDuration":374561,"Delta":168913998},{"NoteNumber":87,"Velocity":61,"Duration":119731,"SoundDuration":119731,"Delta":169033730},{"NoteNumber":88,"Velocity":61,"Duration":135098,"SoundDuration":135098,"Delta":169153461},{"NoteNumber":81,"Velocity":72,"Duration":119731,"SoundDuration":119731,"Delta":169288560},{"NoteNumber":78,"Velocity":44,"Duration":89798,"SoundDuration":89798,"Delta":169288560},{"NoteNumber":85,"Velocity":47,"Duration":119731,"SoundDuration":119731,"Delta":169408292},{"NoteNumber":86,"Velocity":47,"Duration":119731,"SoundDuration":119731,"Delta":169528023},{"NoteNumber":81,"Velocity":66,"Duration":119731,"SoundDuration":119731,"Delta":169647755},{"NoteNumber":78,"Velocity":35,"Duration":89798,"SoundDuration":89798,"Delta":169647755},{"NoteNumber":85,"Velocity":47,"Duration":119731,"SoundDuration":119731,"Delta":169767487},{"NoteNumber":86,"Velocity":47,"Duration":119731,"SoundDuration":119731,"Delta":169887218},{"NoteNumber":81,"Velocity":66,"Duration":119731,"SoundDuration":119731,"Delta":170006950},{"NoteNumber":78,"Velocity":35,"Duration":89798,"SoundDuration":89798,"Delta":170006950},{"NoteNumber":85,"Velocity":51,"Duration":119731,"SoundDuration":119731,"Delta":170126682},{"NoteNumber":86,"Velocity":52,"Duration":133297,"SoundDuration":133297,"Delta":170246413},{"NoteNumber":83,"Velocity":88,"Duration":119731,"SoundDuration":119731,"Delta":170379711},{"NoteNumber":79,"Velocity":70,"Duration":374561,"SoundDuration":374561,"Delta":170379711},{"NoteNumber":87,"Velocity":61,"Duration":119731,"SoundDuration":119731,"Delta":170499443},{"NoteNumber":88,"Velocity":61,"Duration":135098,"SoundDuration":135098,"Delta":170619174},{"NoteNumber":81,"Velocity":69,"Duration":119731,"SoundDuration":119731,"Delta":170754273},{"NoteNumber":78,"Velocity":44,"Duration":89798,"SoundDuration":89798,"Delta":170754273},{"NoteNumber":85,"Velocity":54,"Duration":119731,"SoundDuration":119731,"Delta":170874005},{"NoteNumber":86,"Velocity":55,"Duration":119731,"SoundDuration":119731,"Delta":170993736},{"NoteNumber":81,"Velocity":70,"Duration":119731,"SoundDuration":119731,"Delta":171113468},{"NoteNumber":78,"Velocity":32,"Duration":89798,"SoundDuration":89798,"Delta":171113468},{"NoteNumber":85,"Velocity":47,"Duration":119731,"SoundDuration":119731,"Delta":171233200},{"NoteNumber":86,"Velocity":47,"Duration":119731,"SoundDuration":119731,"Delta":171352931},{"NoteNumber":81,"Velocity":67,"Duration":119731,"SoundDuration":119731,"Delta":171472663},{"NoteNumber":78,"Velocity":32,"Duration":89798,"SoundDuration":89798,"Delta":171472663},{"NoteNumber":85,"Velocity":46,"Duration":119731,"SoundDuration":119731,"Delta":171592395},{"NoteNumber":86,"Velocity":49,"Duration":133297,"SoundDuration":133297,"Delta":171712126},{"NoteNumber":79,"Velocity":64,"Duration":119731,"SoundDuration":119731,"Delta":171845424},{"NoteNumber":76,"Velocity":63,"Duration":374561,"SoundDuration":374561,"Delta":171845424},{"NoteNumber":83,"Velocity":50,"Duration":119731,"SoundDuration":119731,"Delta":171965156},{"NoteNumber":84,"Velocity":50,"Duration":135098,"SoundDuration":135098,"Delta":172084887},{"NoteNumber":78,"Velocity":70,"Duration":119731,"SoundDuration":119731,"Delta":172219986},{"NoteNumber":74,"Velocity":39,"Duration":89798,"SoundDuration":89798,"Delta":172219986},{"NoteNumber":82,"Velocity":50,"Duration":119731,"SoundDuration":119731,"Delta":172339718},{"NoteNumber":83,"Velocity":50,"Duration":119731,"SoundDuration":119731,"Delta":172459449},{"NoteNumber":78,"Velocity":66,"Duration":119731,"SoundDuration":119731,"Delta":172579181},{"NoteNumber":74,"Velocity":30,"Duration":89798,"SoundDuration":89798,"Delta":172579181},{"NoteNumber":82,"Velocity":46,"Duration":119731,"SoundDuration":119731,"Delta":172698913},{"NoteNumber":83,"Velocity":46,"Duration":119731,"SoundDuration":119731,"Delta":172818644},{"NoteNumber":78,"Velocity":64,"Duration":119731,"SoundDuration":119731,"Delta":172938376},{"NoteNumber":74,"Velocity":30,"Duration":89798,"SoundDuration":89798,"Delta":172938376},{"NoteNumber":82,"Velocity":46,"Duration":119731,"SoundDuration":119731,"Delta":173058108},{"NoteNumber":83,"Velocity":46,"Duration":133297,"SoundDuration":133297,"Delta":173177839},{"NoteNumber":79,"Velocity":75,"Duration":119731,"SoundDuration":119731,"Delta":173311137},{"NoteNumber":76,"Velocity":58,"Duration":374561,"SoundDuration":374561,"Delta":173311137},{"NoteNumber":83,"Velocity":54,"Duration":119731,"SoundDuration":119731,"Delta":173430869},{"NoteNumber":84,"Velocity":54,"Duration":135098,"SoundDuration":135098,"Delta":173550600},{"NoteNumber":78,"Velocity":72,"Duration":119731,"SoundDuration":119731,"Delta":173685699},{"NoteNumber":74,"Velocity":39,"Duration":89798,"SoundDuration":89798,"Delta":173685699},{"NoteNumber":82,"Velocity":50,"Duration":119731,"SoundDuration":119731,"Delta":173805431},{"NoteNumber":83,"Velocity":50,"Duration":119731,"SoundDuration":119731,"Delta":173925162},{"NoteNumber":78,"Velocity":66,"Duration":119731,"SoundDuration":119731,"Delta":174044894},{"NoteNumber":74,"Velocity":28,"Duration":89798,"SoundDuration":89798,"Delta":174044894},{"NoteNumber":82,"Velocity":47,"Duration":119731,"SoundDuration":119731,"Delta":174164626},{"NoteNumber":83,"Velocity":47,"Duration":119731,"SoundDuration":119731,"Delta":174284357},{"NoteNumber":78,"Velocity":64,"Duration":119731,"SoundDuration":119731,"Delta":174404089},{"NoteNumber":74,"Velocity":28,"Duration":89798,"SoundDuration":89798,"Delta":174404089},{"NoteNumber":82,"Velocity":47,"Duration":119731,"SoundDuration":119731,"Delta":174523821},{"NoteNumber":83,"Velocity":48,"Duration":133297,"SoundDuration":133297,"Delta":174643552},{"NoteNumber":76,"Velocity":70,"Duration":119731,"SoundDuration":119731,"Delta":174776850},{"NoteNumber":72,"Velocity":56,"Duration":374561,"SoundDuration":374561,"Delta":174776850},{"NoteNumber":80,"Velocity":54,"Duration":119731,"SoundDuration":119731,"Delta":174896582},{"NoteNumber":81,"Velocity":54,"Duration":135098,"SoundDuration":135098,"Delta":175016313},{"NoteNumber":74,"Velocity":59,"Duration":119731,"SoundDuration":119731,"Delta":175151412},{"NoteNumber":71,"Velocity":39,"Duration":89798,"SoundDuration":89798,"Delta":175151412},{"NoteNumber":78,"Velocity":48,"Duration":119731,"SoundDuration":119731,"Delta":175271144},{"NoteNumber":79,"Velocity":46,"Duration":119731,"SoundDuration":119731,"Delta":175390875},{"NoteNumber":74,"Velocity":61,"Duration":119731,"SoundDuration":119731,"Delta":175510607},{"NoteNumber":71,"Velocity":28,"Duration":89798,"SoundDuration":89798,"Delta":175510607},{"NoteNumber":78,"Velocity":47,"Duration":119731,"SoundDuration":119731,"Delta":175630339},{"NoteNumber":79,"Velocity":50,"Duration":119731,"SoundDuration":119731,"Delta":175750070},{"NoteNumber":74,"Velocity":62,"Duration":119731,"SoundDuration":119731,"Delta":175869802},{"NoteNumber":71,"Velocity":29,"Duration":89798,"SoundDuration":89798,"Delta":175869802},{"NoteNumber":78,"Velocity":49,"Duration":119731,"SoundDuration":119731,"Delta":175989534},{"NoteNumber":79,"Velocity":49,"Duration":133297,"SoundDuration":133297,"Delta":176109265},{"NoteNumber":76,"Velocity":70,"Duration":119731,"SoundDuration":119731,"Delta":176242563},{"NoteNumber":72,"Velocity":56,"Duration":374561,"SoundDuration":374561,"Delta":176242563},{"NoteNumber":80,"Velocity":54,"Duration":119731,"SoundDuration":119731,"Delta":176362295},{"NoteNumber":81,"Velocity":54,"Duration":135098,"SoundDuration":135098,"Delta":176482026},{"NoteNumber":74,"Velocity":59,"Duration":119731,"SoundDuration":119731,"Delta":176617125},{"NoteNumber":71,"Velocity":39,"Duration":89798,"SoundDuration":89798,"Delta":176617125},{"NoteNumber":78,"Velocity":48,"Duration":119731,"SoundDuration":119731,"Delta":176736857},{"NoteNumber":79,"Velocity":46,"Duration":119731,"SoundDuration":119731,"Delta":176856588},{"NoteNumber":74,"Velocity":61,"Duration":119731,"SoundDuration":119731,"Delta":176976320},{"NoteNumber":71,"Velocity":28,"Duration":89798,"SoundDuration":89798,"Delta":176976320},{"NoteNumber":78,"Velocity":47,"Duration":119731,"SoundDuration":119731,"Delta":177096052},{"NoteNumber":79,"Velocity":50,"Duration":119731,"SoundDuration":119731,"Delta":177215783},{"NoteNumber":74,"Velocity":62,"Duration":119731,"SoundDuration":119731,"Delta":177335515},{"NoteNumber":71,"Velocity":29,"Duration":89798,"SoundDuration":89798,"Delta":177335515},{"NoteNumber":78,"Velocity":49,"Duration":119731,"SoundDuration":119731,"Delta":177455247},{"NoteNumber":79,"Velocity":49,"Duration":133297,"SoundDuration":133297,"Delta":177574978},{"NoteNumber":76,"Velocity":70,"Duration":119731,"SoundDuration":119731,"Delta":177708276},{"NoteNumber":72,"Velocity":56,"Duration":374561,"SoundDuration":374561,"Delta":177708276},{"NoteNumber":80,"Velocity":54,"Duration":119731,"SoundDuration":119731,"Delta":177828008},{"NoteNumber":81,"Velocity":54,"Duration":135098,"SoundDuration":135098,"Delta":177947739},{"NoteNumber":74,"Velocity":72,"Duration":119731,"SoundDuration":119731,"Delta":178082838},{"NoteNumber":71,"Velocity":39,"Duration":89798,"SoundDuration":89798,"Delta":178082838},{"NoteNumber":78,"Velocity":56,"Duration":119731,"SoundDuration":119731,"Delta":178202570},{"NoteNumber":79,"Velocity":56,"Duration":119731,"SoundDuration":119731,"Delta":178322301},{"NoteNumber":74,"Velocity":73,"Duration":119731,"SoundDuration":119731,"Delta":178442033},{"NoteNumber":66,"Velocity":36,"Duration":89798,"SoundDuration":89798,"Delta":178442033},{"NoteNumber":80,"Velocity":62,"Duration":119731,"SoundDuration":119731,"Delta":178561765},{"NoteNumber":81,"Velocity":62,"Duration":119731,"SoundDuration":119731,"Delta":178681496},{"NoteNumber":74,"Velocity":80,"Duration":119731,"SoundDuration":119731,"Delta":178801228},{"NoteNumber":67,"Velocity":41,"Duration":89798,"SoundDuration":89798,"Delta":178801228},{"NoteNumber":82,"Velocity":69,"Duration":119731,"SoundDuration":119731,"Delta":178920960},{"NoteNumber":83,"Velocity":65,"Duration":133297,"SoundDuration":133297,"Delta":179040691},{"NoteNumber":74,"Velocity":83,"Duration":120816,"SoundDuration":120816,"Delta":179173989},{"NoteNumber":69,"Velocity":47,"Duration":90612,"SoundDuration":90612,"Delta":179173989},{"NoteNumber":83,"Velocity":74,"Duration":120816,"SoundDuration":120816,"Delta":179294806},{"NoteNumber":84,"Velocity":74,"Duration":130848,"SoundDuration":130848,"Delta":179415622},{"NoteNumber":74,"Velocity":86,"Duration":133433,"SoundDuration":133433,"Delta":179546471},{"NoteNumber":71,"Velocity":60,"Duration":367370,"SoundDuration":367370,"Delta":179546471},{"NoteNumber":85,"Velocity":93,"Duration":116746,"SoundDuration":116746,"Delta":179679904},{"NoteNumber":86,"Velocity":92,"Duration":117191,"SoundDuration":117191,"Delta":179796650},{"NoteNumber":84,"Velocity":89,"Duration":117723,"SoundDuration":117723,"Delta":179913841},{"NoteNumber":83,"Velocity":88,"Duration":118169,"SoundDuration":118169,"Delta":180031565},{"NoteNumber":81,"Velocity":86,"Duration":118664,"SoundDuration":118664,"Delta":180149734},{"NoteNumber":79,"Velocity":83,"Duration":119167,"SoundDuration":119167,"Delta":180268398},{"NoteNumber":78,"Velocity":82,"Duration":119624,"SoundDuration":119624,"Delta":180387566},{"NoteNumber":76,"Velocity":80,"Duration":120177,"SoundDuration":120177,"Delta":180507191},{"NoteNumber":74,"Velocity":78,"Duration":120648,"SoundDuration":120648,"Delta":180627368},{"NoteNumber":72,"Velocity":76,"Duration":121153,"SoundDuration":121153,"Delta":180748016},{"NoteNumber":71,"Velocity":74,"Duration":121692,"SoundDuration":121692,"Delta":180869170},{"NoteNumber":69,"Velocity":70,"Duration":128172,"SoundDuration":128172,"Delta":180990862},{"NoteNumber":48,"Velocity":65,"Duration":736883,"SoundDuration":736883,"Delta":180990862},{"NoteNumber":76,"Velocity":78,"Duration":123187,"SoundDuration":123187,"Delta":181119034},{"NoteNumber":74,"Velocity":76,"Duration":119195,"SoundDuration":119195,"Delta":181242221},{"NoteNumber":72,"Velocity":73,"Duration":120679,"SoundDuration":120679,"Delta":181361417},{"NoteNumber":60,"Velocity":55,"Duration":366327,"SoundDuration":366327,"Delta":181361417},{"NoteNumber":71,"Velocity":71,"Duration":122039,"SoundDuration":122039,"Delta":181482096},{"NoteNumber":69,"Velocity":69,"Duration":123609,"SoundDuration":123609,"Delta":181604136},{"NoteNumber":67,"Velocity":83,"Duration":360175,"SoundDuration":360175,"Delta":181727745},{"NoteNumber":59,"Velocity":54,"Duration":360175,"SoundDuration":360175,"Delta":181727745},{"NoteNumber":50,"Velocity":54,"Duration":723779,"SoundDuration":723779,"Delta":181727745},{"NoteNumber":66,"Velocity":75,"Duration":89823,"SoundDuration":89823,"Delta":182087920},{"NoteNumber":57,"Velocity":46,"Duration":363604,"SoundDuration":363604,"Delta":182087920},{"NoteNumber":67,"Velocity":67,"Duration":90547,"SoundDuration":90547,"Delta":182177744},{"NoteNumber":66,"Velocity":75,"Duration":183233,"SoundDuration":183233,"Delta":182268291},{"NoteNumber":55,"Velocity":56,"Duration":719084,"SoundDuration":719084,"Delta":182451525},{"NoteNumber":47,"Velocity":56,"Duration":719084,"SoundDuration":719084,"Delta":182451525},{"NoteNumber":50,"Velocity":56,"Duration":719084,"SoundDuration":719084,"Delta":182451525},{"NoteNumber":85,"Velocity":78,"Duration":116746,"SoundDuration":116746,"Delta":182582115},{"NoteNumber":86,"Velocity":78,"Duration":117191,"SoundDuration":117191,"Delta":182698861},{"NoteNumber":84,"Velocity":84,"Duration":117723,"SoundDuration":117723,"Delta":182816052},{"NoteNumber":83,"Velocity":83,"Duration":118169,"SoundDuration":118169,"Delta":182933776},{"NoteNumber":81,"Velocity":81,"Duration":118664,"SoundDuration":118664,"Delta":183051945},{"NoteNumber":79,"Velocity":80,"Duration":119167,"SoundDuration":119167,"Delta":183170609},{"NoteNumber":78,"Velocity":78,"Duration":119624,"SoundDuration":119624,"Delta":183289777},{"NoteNumber":76,"Velocity":77,"Duration":120177,"SoundDuration":120177,"Delta":183409402},{"NoteNumber":74,"Velocity":75,"Duration":120648,"SoundDuration":120648,"Delta":183529579},{"NoteNumber":72,"Velocity":73,"Duration":121153,"SoundDuration":121153,"Delta":183650228},{"NoteNumber":71,"Velocity":72,"Duration":121692,"SoundDuration":121692,"Delta":183771381},{"NoteNumber":69,"Velocity":70,"Duration":128172,"SoundDuration":128172,"Delta":183893073},{"NoteNumber":48,"Velocity":65,"Duration":736883,"SoundDuration":736883,"Delta":183893073},{"NoteNumber":76,"Velocity":78,"Duration":123187,"SoundDuration":123187,"Delta":184021245},{"NoteNumber":74,"Velocity":76,"Duration":119195,"SoundDuration":119195,"Delta":184144432},{"NoteNumber":72,"Velocity":73,"Duration":120679,"SoundDuration":120679,"Delta":184263628},{"NoteNumber":60,"Velocity":55,"Duration":366327,"SoundDuration":366327,"Delta":184263628},{"NoteNumber":71,"Velocity":71,"Duration":122039,"SoundDuration":122039,"Delta":184384308},{"NoteNumber":69,"Velocity":69,"Duration":123609,"SoundDuration":123609,"Delta":184506347},{"NoteNumber":67,"Velocity":83,"Duration":360175,"SoundDuration":360175,"Delta":184629956},{"NoteNumber":50,"Velocity":54,"Duration":723779,"SoundDuration":723779,"Delta":184629956},{"NoteNumber":59,"Velocity":54,"Duration":360175,"SoundDuration":360175,"Delta":184629956},{"NoteNumber":66,"Velocity":75,"Duration":89823,"SoundDuration":89823,"Delta":184990131},{"NoteNumber":57,"Velocity":46,"Duration":363604,"SoundDuration":363604,"Delta":184990131},{"NoteNumber":67,"Velocity":67,"Duration":90547,"SoundDuration":90547,"Delta":185079955},{"NoteNumber":66,"Velocity":75,"Duration":183233,"SoundDuration":183233,"Delta":185170503},{"NoteNumber":67,"Velocity":63,"Duration":354946,"SoundDuration":354946,"Delta":185353736},{"NoteNumber":55,"Velocity":40,"Duration":118315,"SoundDuration":118315,"Delta":185353736},{"NoteNumber":59,"Velocity":32,"Duration":118315,"SoundDuration":118315,"Delta":185472051},{"NoteNumber":62,"Velocity":32,"Duration":118315,"SoundDuration":118315,"Delta":185590367},{"NoteNumber":55,"Velocity":40,"Duration":118315,"SoundDuration":118315,"Delta":185708682},{"NoteNumber":59,"Velocity":34,"Duration":118315,"SoundDuration":118315,"Delta":185826997},{"NoteNumber":62,"Velocity":34,"Duration":118315,"SoundDuration":118315,"Delta":185945313},{"NoteNumber":55,"Velocity":40,"Duration":118772,"SoundDuration":118772,"Delta":186063628},{"NoteNumber":59,"Velocity":32,"Duration":118772,"SoundDuration":118772,"Delta":186182400},{"NoteNumber":62,"Velocity":32,"Duration":118771,"SoundDuration":118771,"Delta":186301172},{"NoteNumber":74,"Velocity":57,"Duration":265189,"SoundDuration":265189,"Delta":186419944},{"NoteNumber":50,"Velocity":40,"Duration":117862,"SoundDuration":117862,"Delta":186419944},{"NoteNumber":54,"Velocity":32,"Duration":117862,"SoundDuration":117862,"Delta":186537806},{"NoteNumber":62,"Velocity":33,"Duration":117862,"SoundDuration":117862,"Delta":186655668},{"NoteNumber":78,"Velocity":57,"Duration":88396,"SoundDuration":88396,"Delta":186685133},{"NoteNumber":79,"Velocity":64,"Duration":88736,"SoundDuration":88736,"Delta":186773530},{"NoteNumber":55,"Velocity":39,"Duration":118315,"SoundDuration":118315,"Delta":186773530},{"NoteNumber":59,"Velocity":29,"Duration":118315,"SoundDuration":118315,"Delta":186891845},{"NoteNumber":62,"Velocity":29,"Duration":118315,"SoundDuration":118315,"Delta":187010161},{"NoteNumber":79,"Velocity":57,"Duration":88736,"SoundDuration":88736,"Delta":187128476},{"NoteNumber":55,"Velocity":39,"Duration":118315,"SoundDuration":118315,"Delta":187128476},{"NoteNumber":59,"Velocity":30,"Duration":118315,"SoundDuration":118315,"Delta":187246791},{"NoteNumber":62,"Velocity":30,"Duration":118315,"SoundDuration":118315,"Delta":187365107},{"NoteNumber":79,"Velocity":57,"Duration":89078,"SoundDuration":89078,"Delta":187483422},{"NoteNumber":55,"Velocity":39,"Duration":118772,"SoundDuration":118772,"Delta":187483422},{"NoteNumber":59,"Velocity":30,"Duration":118772,"SoundDuration":118772,"Delta":187602194},{"NoteNumber":83,"Velocity":54,"Duration":59386,"SoundDuration":59386,"Delta":187661580},{"NoteNumber":81,"Velocity":51,"Duration":59385,"SoundDuration":59385,"Delta":187720966},{"NoteNumber":62,"Velocity":30,"Duration":118771,"SoundDuration":118771,"Delta":187720966},{"NoteNumber":79,"Velocity":51,"Duration":59385,"SoundDuration":59385,"Delta":187780352},{"NoteNumber":81,"Velocity":61,"Duration":265189,"SoundDuration":265189,"Delta":187839738},{"NoteNumber":50,"Velocity":39,"Duration":117862,"SoundDuration":117862,"Delta":187839738},{"NoteNumber":54,"Velocity":33,"Duration":117862,"SoundDuration":117862,"Delta":187957600},{"NoteNumber":62,"Velocity":33,"Duration":117862,"SoundDuration":117862,"Delta":188075462},{"NoteNumber":86,"Velocity":57,"Duration":88396,"SoundDuration":88396,"Delta":188104927},{"NoteNumber":83,"Velocity":63,"Duration":88736,"SoundDuration":88736,"Delta":188193324},{"NoteNumber":55,"Velocity":40,"Duration":118315,"SoundDuration":118315,"Delta":188193324},{"NoteNumber":59,"Velocity":32,"Duration":118315,"SoundDuration":118315,"Delta":188311639},{"NoteNumber":62,"Velocity":32,"Duration":118315,"SoundDuration":118315,"Delta":188429955},{"NoteNumber":79,"Velocity":57,"Duration":88736,"SoundDuration":88736,"Delta":188548270},{"NoteNumber":55,"Velocity":40,"Duration":118315,"SoundDuration":118315,"Delta":188548270},{"NoteNumber":59,"Velocity":34,"Duration":118315,"SoundDuration":118315,"Delta":188666585},{"NoteNumber":62,"Velocity":34,"Duration":118315,"SoundDuration":118315,"Delta":188784901},{"NoteNumber":79,"Velocity":57,"Duration":89078,"SoundDuration":89078,"Delta":188903216},{"NoteNumber":55,"Velocity":40,"Duration":118772,"SoundDuration":118772,"Delta":188903216},{"NoteNumber":59,"Velocity":32,"Duration":118772,"SoundDuration":118772,"Delta":189021988},{"NoteNumber":62,"Velocity":32,"Duration":118771,"SoundDuration":118771,"Delta":189140760},{"NoteNumber":74,"Velocity":81,"Duration":265189,"SoundDuration":265189,"Delta":189259532},{"NoteNumber":50,"Velocity":63,"Duration":117862,"SoundDuration":117862,"Delta":189259532},{"NoteNumber":54,"Velocity":50,"Duration":117862,"SoundDuration":117862,"Delta":189377394},{"NoteNumber":62,"Velocity":52,"Duration":117862,"SoundDuration":117862,"Delta":189495256},{"NoteNumber":78,"Velocity":81,"Duration":88396,"SoundDuration":88396,"Delta":189524721},{"NoteNumber":79,"Velocity":91,"Duration":88736,"SoundDuration":88736,"Delta":189613118},{"NoteNumber":55,"Velocity":62,"Duration":118315,"SoundDuration":118315,"Delta":189613118},{"NoteNumber":59,"Velocity":46,"Duration":118315,"SoundDuration":118315,"Delta":189731433},{"NoteNumber":62,"Velocity":46,"Duration":118315,"SoundDuration":118315,"Delta":189849749},{"NoteNumber":79,"Velocity":81,"Duration":88736,"SoundDuration":88736,"Delta":189968064},{"NoteNumber":55,"Velocity":62,"Duration":118315,"SoundDuration":118315,"Delta":189968064},{"NoteNumber":59,"Velocity":48,"Duration":118315,"SoundDuration":118315,"Delta":190086379},{"NoteNumber":62,"Velocity":48,"Duration":118315,"SoundDuration":118315,"Delta":190204695},{"NoteNumber":79,"Velocity":81,"Duration":89078,"SoundDuration":89078,"Delta":190323010},{"NoteNumber":55,"Velocity":62,"Duration":118772,"SoundDuration":118772,"Delta":190323010},{"NoteNumber":59,"Velocity":48,"Duration":118772,"SoundDuration":118772,"Delta":190441782},{"NoteNumber":83,"Velocity":77,"Duration":59386,"SoundDuration":59386,"Delta":190501168},{"NoteNumber":81,"Velocity":72,"Duration":59385,"SoundDuration":59385,"Delta":190560554},{"NoteNumber":62,"Velocity":48,"Duration":118771,"SoundDuration":118771,"Delta":190560554},{"NoteNumber":79,"Velocity":72,"Duration":59385,"SoundDuration":59385,"Delta":190619940},{"NoteNumber":81,"Velocity":86,"Duration":265189,"SoundDuration":265189,"Delta":190679326},{"NoteNumber":50,"Velocity":62,"Duration":117862,"SoundDuration":117862,"Delta":190679326},{"NoteNumber":54,"Velocity":52,"Duration":117862,"SoundDuration":117862,"Delta":190797188},{"NoteNumber":62,"Velocity":52,"Duration":117862,"SoundDuration":117862,"Delta":190915050},{"NoteNumber":83,"Velocity":81,"Duration":88396,"SoundDuration":88396,"Delta":190944515},{"NoteNumber":79,"Velocity":91,"Duration":354946,"SoundDuration":354946,"Delta":191032912},{"NoteNumber":55,"Velocity":62,"Duration":118315,"SoundDuration":118315,"Delta":191032912},{"NoteNumber":59,"Velocity":46,"Duration":118315,"SoundDuration":118315,"Delta":191151227},{"NoteNumber":62,"Velocity":46,"Duration":118315,"SoundDuration":118315,"Delta":191269543},{"NoteNumber":55,"Velocity":62,"Duration":119713,"SoundDuration":119713,"Delta":191387858},{"NoteNumber":59,"Velocity":48,"Duration":119731,"SoundDuration":119731,"Delta":191507572},{"NoteNumber":62,"Velocity":48,"Duration":120019,"SoundDuration":120019,"Delta":191627304},{"NoteNumber":74,"Velocity":81,"Duration":367227,"SoundDuration":367227,"Delta":191747324},{"NoteNumber":71,"Velocity":81,"Duration":367227,"SoundDuration":367227,"Delta":191747324},{"NoteNumber":55,"Velocity":62,"Duration":122294,"SoundDuration":122294,"Delta":191747324},{"NoteNumber":59,"Velocity":48,"Duration":122294,"SoundDuration":122294,"Delta":191869618},{"NoteNumber":62,"Velocity":48,"Duration":122639,"SoundDuration":122639,"Delta":191991912},{"NoteNumber":55,"Velocity":62,"Duration":126798,"SoundDuration":126798,"Delta":192114551},{"NoteNumber":59,"Velocity":52,"Duration":130203,"SoundDuration":130203,"Delta":192241350},{"NoteNumber":62,"Velocity":52,"Duration":173160,"SoundDuration":173160,"Delta":192371553},{"NoteNumber":71,"Velocity":81,"Duration":361358,"SoundDuration":361358,"Delta":192544713},{"NoteNumber":67,"Velocity":81,"Duration":361358,"SoundDuration":361358,"Delta":192544713},{"NoteNumber":55,"Velocity":62,"Duration":361358,"SoundDuration":361358,"Delta":192544713},{"NoteNumber":79,"Velocity":50,"Duration":261202,"SoundDuration":261202,"Delta":193628790},{"NoteNumber":81,"Velocity":47,"Duration":98013,"SoundDuration":98013,"Delta":193889993},{"NoteNumber":77,"Velocity":58,"Duration":86415,"SoundDuration":86415,"Delta":193988006},{"NoteNumber":67,"Velocity":48,"Duration":86415,"SoundDuration":86415,"Delta":193988006},{"NoteNumber":59,"Velocity":40,"Duration":86415,"SoundDuration":86415,"Delta":193988006},{"NoteNumber":77,"Velocity":50,"Duration":261202,"SoundDuration":261202,"Delta":194333668},{"NoteNumber":79,"Velocity":48,"Duration":102711,"SoundDuration":102711,"Delta":194594871},{"NoteNumber":76,"Velocity":58,"Duration":87067,"SoundDuration":87067,"Delta":194697582},{"NoteNumber":60,"Velocity":40,"Duration":87067,"SoundDuration":87067,"Delta":194697582},{"NoteNumber":67,"Velocity":48,"Duration":87067,"SoundDuration":87067,"Delta":194697582},{"NoteNumber":76,"Velocity":50,"Duration":259246,"SoundDuration":259246,"Delta":195045852},{"NoteNumber":77,"Velocity":50,"Duration":102711,"SoundDuration":102711,"Delta":195305099},{"NoteNumber":74,"Velocity":59,"Duration":86093,"SoundDuration":86093,"Delta":195407810},{"NoteNumber":67,"Velocity":48,"Duration":86093,"SoundDuration":86093,"Delta":195407810},{"NoteNumber":65,"Velocity":40,"Duration":86093,"SoundDuration":86093,"Delta":195407810},{"NoteNumber":74,"Velocity":50,"Duration":262191,"SoundDuration":262191,"Delta":195752182},{"NoteNumber":76,"Velocity":47,"Duration":102012,"SoundDuration":102012,"Delta":196014374},{"NoteNumber":72,"Velocity":57,"Duration":85772,"SoundDuration":85772,"Delta":196116387},{"NoteNumber":67,"Velocity":45,"Duration":85772,"SoundDuration":85772,"Delta":196116387},{"NoteNumber":64,"Velocity":38,"Duration":85772,"SoundDuration":85772,"Delta":196116387},{"NoteNumber":76,"Velocity":63,"Duration":259246,"SoundDuration":259246,"Delta":196459479},{"NoteNumber":72,"Velocity":53,"Duration":361957,"SoundDuration":361957,"Delta":196459479},{"NoteNumber":77,"Velocity":57,"Duration":102711,"SoundDuration":102711,"Delta":196718725},{"NoteNumber":71,"Velocity":56,"Duration":86093,"SoundDuration":86093,"Delta":196821437},{"NoteNumber":74,"Velocity":67,"Duration":86093,"SoundDuration":86093,"Delta":196821437},{"NoteNumber":52,"Velocity":66,"Duration":344371,"SoundDuration":344371,"Delta":196821437},{"NoteNumber":40,"Velocity":56,"Duration":344371,"SoundDuration":344371,"Delta":196821437},{"NoteNumber":71,"Velocity":53,"Duration":364204,"SoundDuration":364204,"Delta":197165809},{"NoteNumber":74,"Velocity":63,"Duration":262191,"SoundDuration":262191,"Delta":197165809},{"NoteNumber":76,"Velocity":60,"Duration":102012,"SoundDuration":102012,"Delta":197428001},{"NoteNumber":69,"Velocity":56,"Duration":91720,"SoundDuration":91720,"Delta":197530014},{"NoteNumber":72,"Velocity":67,"Duration":91720,"SoundDuration":91720,"Delta":197530014},{"NoteNumber":40,"Velocity":55,"Duration":366883,"SoundDuration":366883,"Delta":197530014},{"NoteNumber":52,"Velocity":65,"Duration":366883,"SoundDuration":366883,"Delta":197530014},{"NoteNumber":72,"Velocity":63,"Duration":290247,"SoundDuration":290247,"Delta":197896897},{"NoteNumber":69,"Velocity":53,"Duration":436532,"SoundDuration":436532,"Delta":197896897},{"NoteNumber":74,"Velocity":60,"Duration":146284,"SoundDuration":146284,"Delta":198187144},{"NoteNumber":71,"Velocity":67,"Duration":1236773,"SoundDuration":1236773,"Delta":198333429},{"NoteNumber":68,"Velocity":56,"Duration":1236773,"SoundDuration":1236773,"Delta":198333429},{"NoteNumber":52,"Velocity":65,"Duration":1236773,"SoundDuration":1236773,"Delta":198333429},{"NoteNumber":40,"Velocity":55,"Duration":1236773,"SoundDuration":1236773,"Delta":198333429},{"NoteNumber":77,"Velocity":71,"Duration":87397,"SoundDuration":87397,"Delta":199570203},{"NoteNumber":79,"Velocity":73,"Duration":87397,"SoundDuration":87397,"Delta":199657600},{"NoteNumber":81,"Velocity":75,"Duration":87397,"SoundDuration":87397,"Delta":199744997},{"NoteNumber":82,"Velocity":78,"Duration":100643,"SoundDuration":100643,"Delta":199832395},{"NoteNumber":84,"Velocity":83,"Duration":88736,"SoundDuration":88736,"Delta":199933039},{"NoteNumber":53,"Velocity":56,"Duration":118315,"SoundDuration":118315,"Delta":199933039},{"NoteNumber":57,"Velocity":43,"Duration":118315,"SoundDuration":118315,"Delta":200051354},{"NoteNumber":60,"Velocity":43,"Duration":118315,"SoundDuration":118315,"Delta":200169669},{"NoteNumber":84,"Velocity":75,"Duration":88736,"SoundDuration":88736,"Delta":200287985},{"NoteNumber":53,"Velocity":56,"Duration":118315,"SoundDuration":118315,"Delta":200287985},{"NoteNumber":57,"Velocity":45,"Duration":118315,"SoundDuration":118315,"Delta":200406300},{"NoteNumber":60,"Velocity":46,"Duration":118315,"SoundDuration":118315,"Delta":200524615},{"NoteNumber":84,"Velocity":76,"Duration":89078,"SoundDuration":89078,"Delta":200642931},{"NoteNumber":53,"Velocity":55,"Duration":118772,"SoundDuration":118772,"Delta":200642931},{"NoteNumber":57,"Velocity":44,"Duration":118772,"SoundDuration":118772,"Delta":200761703},{"NoteNumber":60,"Velocity":45,"Duration":118771,"SoundDuration":118771,"Delta":200880475},{"NoteNumber":88,"Velocity":78,"Duration":44539,"SoundDuration":44539,"Delta":200954707},{"NoteNumber":89,"Velocity":92,"Duration":353586,"SoundDuration":353586,"Delta":200999247},{"NoteNumber":53,"Velocity":56,"Duration":117862,"SoundDuration":117862,"Delta":200999247},{"NoteNumber":57,"Velocity":51,"Duration":117862,"SoundDuration":117862,"Delta":201117109},{"NoteNumber":60,"Velocity":51,"Duration":117862,"SoundDuration":117862,"Delta":201234971},{"NoteNumber":84,"Velocity":85,"Duration":88396,"SoundDuration":88396,"Delta":201352833},{"NoteNumber":53,"Velocity":56,"Duration":117862,"SoundDuration":117862,"Delta":201352833},{"NoteNumber":57,"Velocity":41,"Duration":117862,"SoundDuration":117862,"Delta":201470695},{"NoteNumber":60,"Velocity":41,"Duration":117862,"SoundDuration":117862,"Delta":201588557},{"NoteNumber":84,"Velocity":76,"Duration":88396,"SoundDuration":88396,"Delta":201706419},{"NoteNumber":53,"Velocity":56,"Duration":117861,"SoundDuration":117861,"Delta":201706419},{"NoteNumber":57,"Velocity":44,"Duration":117862,"SoundDuration":117862,"Delta":201824281},{"NoteNumber":60,"Velocity":44,"Duration":117862,"SoundDuration":117862,"Delta":201942143},{"NoteNumber":84,"Velocity":76,"Duration":89078,"SoundDuration":89078,"Delta":202060005},{"NoteNumber":53,"Velocity":56,"Duration":118772,"SoundDuration":118772,"Delta":202060005},{"NoteNumber":57,"Velocity":44,"Duration":118772,"SoundDuration":118772,"Delta":202178777},{"NoteNumber":60,"Velocity":45,"Duration":133470,"SoundDuration":133470,"Delta":202297549},{"NoteNumber":82,"Velocity":66,"Duration":87067,"SoundDuration":87067,"Delta":202431019},{"NoteNumber":53,"Velocity":56,"Duration":116090,"SoundDuration":116090,"Delta":202431019},{"NoteNumber":81,"Velocity":68,"Duration":87067,"SoundDuration":87067,"Delta":202518087},{"NoteNumber":57,"Velocity":44,"Duration":116089,"SoundDuration":116089,"Delta":202547109},{"NoteNumber":79,"Velocity":71,"Duration":87067,"SoundDuration":87067,"Delta":202605154},{"NoteNumber":60,"Velocity":44,"Duration":122045,"SoundDuration":122045,"Delta":202663199},{"NoteNumber":77,"Velocity":73,"Duration":93023,"SoundDuration":93023,"Delta":202692222},{"NoteNumber":76,"Velocity":81,"Duration":87729,"SoundDuration":87729,"Delta":202785245},{"NoteNumber":55,"Velocity":56,"Duration":116972,"SoundDuration":116972,"Delta":202785245},{"NoteNumber":58,"Velocity":42,"Duration":116972,"SoundDuration":116972,"Delta":202902218},{"NoteNumber":60,"Velocity":45,"Duration":116972,"SoundDuration":116972,"Delta":203019190},{"NoteNumber":76,"Velocity":73,"Duration":87729,"SoundDuration":87729,"Delta":203136163},{"NoteNumber":55,"Velocity":56,"Duration":116972,"SoundDuration":116972,"Delta":203136163},{"NoteNumber":58,"Velocity":45,"Duration":116972,"SoundDuration":116972,"Delta":203253136},{"NoteNumber":60,"Velocity":45,"Duration":116972,"SoundDuration":116972,"Delta":203370108},{"NoteNumber":77,"Velocity":81,"Duration":87729,"SoundDuration":87729,"Delta":203487081},{"NoteNumber":53,"Velocity":56,"Duration":116972,"SoundDuration":116972,"Delta":203487081},{"NoteNumber":57,"Velocity":46,"Duration":116972,"SoundDuration":116972,"Delta":203604054},{"NoteNumber":60,"Velocity":50,"Duration":116972,"SoundDuration":116972,"Delta":203721026},{"NoteNumber":77,"Velocity":73,"Duration":87729,"SoundDuration":87729,"Delta":203837999},{"NoteNumber":53,"Velocity":56,"Duration":116972,"SoundDuration":116972,"Delta":203837999},{"NoteNumber":57,"Velocity":46,"Duration":116972,"SoundDuration":116972,"Delta":203954972},{"NoteNumber":60,"Velocity":46,"Duration":188817,"SoundDuration":188817,"Delta":204071944},{"NoteNumber":79,"Velocity":79,"Duration":350918,"SoundDuration":350918,"Delta":204260762},{"NoteNumber":52,"Velocity":56,"Duration":116972,"SoundDuration":116972,"Delta":204260762},{"NoteNumber":55,"Velocity":42,"Duration":116972,"SoundDuration":116972,"Delta":204377735},{"NoteNumber":60,"Velocity":42,"Duration":116972,"SoundDuration":116972,"Delta":204494707},{"NoteNumber":52,"Velocity":51,"Duration":116972,"SoundDuration":116972,"Delta":204611680},{"NoteNumber":55,"Velocity":42,"Duration":116972,"SoundDuration":116972,"Delta":204728653},{"NoteNumber":60,"Velocity":43,"Duration":116972,"SoundDuration":116972,"Delta":204845625},{"NoteNumber":52,"Velocity":54,"Duration":116972,"SoundDuration":116972,"Delta":204962598},{"NoteNumber":55,"Velocity":44,"Duration":116972,"SoundDuration":116972,"Delta":205079571},{"NoteNumber":60,"Velocity":45,"Duration":116972,"SoundDuration":116972,"Delta":205196543},{"NoteNumber":72,"Velocity":75,"Duration":261202,"SoundDuration":261202,"Delta":205313516},{"NoteNumber":52,"Velocity":56,"Duration":116090,"SoundDuration":116090,"Delta":205313516},{"NoteNumber":55,"Velocity":46,"Duration":116089,"SoundDuration":116089,"Delta":205429606},{"NoteNumber":60,"Velocity":46,"Duration":119145,"SoundDuration":119145,"Delta":205545696},{"NoteNumber":79,"Velocity":67,"Duration":90122,"SoundDuration":90122,"Delta":205574718},{"NoteNumber":82,"Velocity":78,"Duration":86415,"SoundDuration":86415,"Delta":205664841},{"NoteNumber":52,"Velocity":56,"Duration":115220,"SoundDuration":115220,"Delta":205664841},{"NoteNumber":55,"Velocity":43,"Duration":115220,"SoundDuration":115220,"Delta":205776461},{"NoteNumber":60,"Velocity":45,"Duration":115220,"SoundDuration":115220,"Delta":205895282},{"NoteNumber":82,"Velocity":71,"Duration":261202,"SoundDuration":261202,"Delta":206010503},{"NoteNumber":52,"Velocity":56,"Duration":116090,"SoundDuration":116090,"Delta":206010503},{"NoteNumber":55,"Velocity":45,"Duration":116089,"SoundDuration":116089,"Delta":206122965},{"NoteNumber":60,"Velocity":45,"Duration":130346,"SoundDuration":130346,"Delta":206242683},{"NoteNumber":84,"Velocity":66,"Duration":101324,"SoundDuration":101324,"Delta":206271705},{"NoteNumber":81,"Velocity":78,"Duration":87067,"SoundDuration":87067,"Delta":206373029},{"NoteNumber":53,"Velocity":56,"Duration":116090,"SoundDuration":116090,"Delta":206373029},{"NoteNumber":57,"Velocity":43,"Duration":116089,"SoundDuration":116089,"Delta":206489119},{"NoteNumber":60,"Velocity":44,"Duration":116090,"SoundDuration":116090,"Delta":206605209},{"NoteNumber":81,"Velocity":72,"Duration":259246,"SoundDuration":259246,"Delta":206721299},{"NoteNumber":53,"Velocity":56,"Duration":115220,"SoundDuration":115220,"Delta":206721299},{"NoteNumber":57,"Velocity":46,"Duration":115220,"SoundDuration":115220,"Delta":206836520},{"NoteNumber":60,"Velocity":46,"Duration":129449,"SoundDuration":129449,"Delta":206951741},{"NoteNumber":82,"Velocity":65,"Duration":100643,"SoundDuration":100643,"Delta":206980546},{"NoteNumber":79,"Velocity":78,"Duration":86093,"SoundDuration":86093,"Delta":207081190},{"NoteNumber":58,"Velocity":56,"Duration":114790,"SoundDuration":114790,"Delta":207081190},{"NoteNumber":60,"Velocity":47,"Duration":114790,"SoundDuration":114790,"Delta":207195981},{"NoteNumber":64,"Velocity":47,"Duration":114790,"SoundDuration":114790,"Delta":207310771},{"NoteNumber":79,"Velocity":65,"Duration":262191,"SoundDuration":262191,"Delta":207425562},{"NoteNumber":58,"Velocity":56,"Duration":116529,"SoundDuration":116529,"Delta":207425562},{"NoteNumber":60,"Velocity":44,"Duration":116529,"SoundDuration":116529,"Delta":207542092},{"NoteNumber":64,"Velocity":44,"Duration":128116,"SoundDuration":128116,"Delta":207658621},{"NoteNumber":81,"Velocity":61,"Duration":98983,"SoundDuration":98983,"Delta":207687754},{"NoteNumber":77,"Velocity":74,"Duration":85772,"SoundDuration":85772,"Delta":207786737},{"NoteNumber":57,"Velocity":56,"Duration":114363,"SoundDuration":114363,"Delta":207786737},{"NoteNumber":60,"Velocity":46,"Duration":114363,"SoundDuration":114363,"Delta":207901101},{"NoteNumber":65,"Velocity":46,"Duration":129234,"SoundDuration":129234,"Delta":208015465},{"NoteNumber":77,"Velocity":67,"Duration":86936,"SoundDuration":86936,"Delta":208144700},{"NoteNumber":57,"Velocity":56,"Duration":115915,"SoundDuration":115915,"Delta":208144700},{"NoteNumber":60,"Velocity":45,"Duration":115915,"SoundDuration":115915,"Delta":208260615},{"NoteNumber":65,"Velocity":45,"Duration":130302,"SoundDuration":130302,"Delta":208376530},{"NoteNumber":79,"Velocity":74,"Duration":86415,"SoundDuration":86415,"Delta":208506833},{"NoteNumber":58,"Velocity":56,"Duration":115220,"SoundDuration":115220,"Delta":208506833},{"NoteNumber":62,"Velocity":45,"Duration":115220,"SoundDuration":115220,"Delta":208622054},{"NoteNumber":67,"Velocity":47,"Duration":115220,"SoundDuration":115220,"Delta":208737274},{"NoteNumber":79,"Velocity":67,"Duration":88736,"SoundDuration":88736,"Delta":208852495},{"NoteNumber":58,"Velocity":56,"Duration":118315,"SoundDuration":118315,"Delta":208852495},{"NoteNumber":62,"Velocity":46,"Duration":118315,"SoundDuration":118315,"Delta":208970810},{"NoteNumber":67,"Velocity":46,"Duration":118315,"SoundDuration":118315,"Delta":209089126},{"NoteNumber":76,"Velocity":75,"Duration":86093,"SoundDuration":86093,"Delta":209207441},{"NoteNumber":60,"Velocity":56,"Duration":114790,"SoundDuration":114790,"Delta":209207441},{"NoteNumber":64,"Velocity":43,"Duration":114790,"SoundDuration":114790,"Delta":209322232},{"NoteNumber":67,"Velocity":43,"Duration":114790,"SoundDuration":114790,"Delta":209437022},{"NoteNumber":76,"Velocity":67,"Duration":97062,"SoundDuration":97062,"Delta":209551813},{"NoteNumber":60,"Velocity":56,"Duration":129416,"SoundDuration":129416,"Delta":209551813},{"NoteNumber":64,"Velocity":44,"Duration":129416,"SoundDuration":129416,"Delta":209681229},{"NoteNumber":67,"Velocity":45,"Duration":146520,"SoundDuration":146520,"Delta":209810646},{"NoteNumber":77,"Velocity":66,"Duration":115580,"SoundDuration":115580,"Delta":209957166},{"NoteNumber":65,"Velocity":61,"Duration":86685,"SoundDuration":86685,"Delta":209957166},{"NoteNumber":72,"Velocity":47,"Duration":115580,"SoundDuration":115580,"Delta":210072746},{"NoteNumber":69,"Velocity":47,"Duration":115580,"SoundDuration":115580,"Delta":210188326},{"NoteNumber":77,"Velocity":67,"Duration":115580,"SoundDuration":115580,"Delta":210303907},{"NoteNumber":72,"Velocity":48,"Duration":115580,"SoundDuration":115580,"Delta":210419487},{"NoteNumber":69,"Velocity":48,"Duration":115580,"SoundDuration":115580,"Delta":210535067},{"NoteNumber":77,"Velocity":65,"Duration":115580,"SoundDuration":115580,"Delta":210650648},{"NoteNumber":72,"Velocity":47,"Duration":115580,"SoundDuration":115580,"Delta":210766228},{"NoteNumber":69,"Velocity":47,"Duration":131544,"SoundDuration":131544,"Delta":210881808},{"NoteNumber":76,"Velocity":69,"Duration":119019,"SoundDuration":119019,"Delta":211013353},{"NoteNumber":60,"Velocity":57,"Duration":370453,"SoundDuration":370453,"Delta":211013353},{"NoteNumber":67,"Velocity":68,"Duration":370453,"SoundDuration":370453,"Delta":211013353},{"NoteNumber":72,"Velocity":56,"Duration":119019,"SoundDuration":119019,"Delta":211132372},{"NoteNumber":70,"Velocity":56,"Duration":132415,"SoundDuration":132415,"Delta":211251391},{"NoteNumber":77,"Velocity":66,"Duration":115580,"SoundDuration":115580,"Delta":211383807},{"NoteNumber":65,"Velocity":61,"Duration":86685,"SoundDuration":86685,"Delta":211383807},{"NoteNumber":72,"Velocity":47,"Duration":115580,"SoundDuration":115580,"Delta":211499387},{"NoteNumber":69,"Velocity":47,"Duration":115580,"SoundDuration":115580,"Delta":211614967},{"NoteNumber":77,"Velocity":67,"Duration":115580,"SoundDuration":115580,"Delta":211730548},{"NoteNumber":72,"Velocity":48,"Duration":115580,"SoundDuration":115580,"Delta":211846128},{"NoteNumber":69,"Velocity":48,"Duration":115580,"SoundDuration":115580,"Delta":211961708},{"NoteNumber":77,"Velocity":65,"Duration":115580,"SoundDuration":115580,"Delta":212077289},{"NoteNumber":72,"Velocity":47,"Duration":115580,"SoundDuration":115580,"Delta":212192869},{"NoteNumber":69,"Velocity":47,"Duration":131544,"SoundDuration":131544,"Delta":212308449},{"NoteNumber":76,"Velocity":69,"Duration":119019,"SoundDuration":119019,"Delta":212439994},{"NoteNumber":67,"Velocity":68,"Duration":370453,"SoundDuration":370453,"Delta":212439994},{"NoteNumber":60,"Velocity":57,"Duration":370453,"SoundDuration":370453,"Delta":212439994},{"NoteNumber":72,"Velocity":56,"Duration":119019,"SoundDuration":119019,"Delta":212559013},{"NoteNumber":70,"Velocity":56,"Duration":132415,"SoundDuration":132415,"Delta":212678032},{"NoteNumber":77,"Velocity":66,"Duration":115580,"SoundDuration":115580,"Delta":212810448},{"NoteNumber":65,"Velocity":61,"Duration":86685,"SoundDuration":86685,"Delta":212810448},{"NoteNumber":72,"Velocity":47,"Duration":115580,"SoundDuration":115580,"Delta":212926028},{"NoteNumber":69,"Velocity":47,"Duration":115580,"SoundDuration":115580,"Delta":213041608},{"NoteNumber":77,"Velocity":67,"Duration":115580,"SoundDuration":115580,"Delta":213157189},{"NoteNumber":72,"Velocity":48,"Duration":115580,"SoundDuration":115580,"Delta":213272769},{"NoteNumber":69,"Velocity":48,"Duration":115580,"SoundDuration":115580,"Delta":213388349},{"NoteNumber":77,"Velocity":65,"Duration":115580,"SoundDuration":115580,"Delta":213503930},{"NoteNumber":72,"Velocity":47,"Duration":115580,"SoundDuration":115580,"Delta":213619510},{"NoteNumber":69,"Velocity":47,"Duration":123077,"SoundDuration":123077,"Delta":213735090},{"NoteNumber":78,"Velocity":69,"Duration":119019,"SoundDuration":119019,"Delta":213858167},{"NoteNumber":62,"Velocity":57,"Duration":370453,"SoundDuration":370453,"Delta":213858167},{"NoteNumber":69,"Velocity":68,"Duration":370453,"SoundDuration":370453,"Delta":213858167},{"NoteNumber":74,"Velocity":56,"Duration":119019,"SoundDuration":119019,"Delta":213977187},{"NoteNumber":72,"Velocity":56,"Duration":132415,"SoundDuration":132415,"Delta":214096206},{"NoteNumber":79,"Velocity":66,"Duration":115580,"SoundDuration":115580,"Delta":214228621},{"NoteNumber":67,"Velocity":61,"Duration":86685,"SoundDuration":86685,"Delta":214228621},{"NoteNumber":74,"Velocity":51,"Duration":115580,"SoundDuration":115580,"Delta":214344202},{"NoteNumber":71,"Velocity":51,"Duration":115580,"SoundDuration":115580,"Delta":214459782},{"NoteNumber":79,"Velocity":67,"Duration":115580,"SoundDuration":115580,"Delta":214575362},{"NoteNumber":74,"Velocity":51,"Duration":115580,"SoundDuration":115580,"Delta":214690943},{"NoteNumber":71,"Velocity":51,"Duration":115580,"SoundDuration":115580,"Delta":214806523},{"NoteNumber":79,"Velocity":65,"Duration":115580,"SoundDuration":115580,"Delta":214922103},{"NoteNumber":74,"Velocity":50,"Duration":115580,"SoundDuration":115580,"Delta":215037684},{"NoteNumber":71,"Velocity":50,"Duration":125392,"SoundDuration":125392,"Delta":215153264},{"NoteNumber":80,"Velocity":69,"Duration":119019,"SoundDuration":119019,"Delta":215278656},{"NoteNumber":71,"Velocity":68,"Duration":370453,"SoundDuration":370453,"Delta":215278656},{"NoteNumber":64,"Velocity":57,"Duration":370453,"SoundDuration":370453,"Delta":215278656},{"NoteNumber":76,"Velocity":56,"Duration":119019,"SoundDuration":119019,"Delta":215397675},{"NoteNumber":74,"Velocity":56,"Duration":132415,"SoundDuration":132415,"Delta":215516695},{"NoteNumber":81,"Velocity":67,"Duration":115580,"SoundDuration":115580,"Delta":215649110},{"NoteNumber":69,"Velocity":61,"Duration":86685,"SoundDuration":86685,"Delta":215649110},{"NoteNumber":76,"Velocity":53,"Duration":115580,"SoundDuration":115580,"Delta":215764690},{"NoteNumber":72,"Velocity":53,"Duration":115580,"SoundDuration":115580,"Delta":215880271},{"NoteNumber":81,"Velocity":68,"Duration":115580,"SoundDuration":115580,"Delta":215995851},{"NoteNumber":76,"Velocity":54,"Duration":115580,"SoundDuration":115580,"Delta":216111431},{"NoteNumber":72,"Velocity":54,"Duration":115580,"SoundDuration":115580,"Delta":216227012},{"NoteNumber":81,"Velocity":68,"Duration":115580,"SoundDuration":115580,"Delta":216342592},{"NoteNumber":76,"Velocity":52,"Duration":115580,"SoundDuration":115580,"Delta":216458172},{"NoteNumber":72,"Velocity":52,"Duration":123839,"SoundDuration":123839,"Delta":216573753},{"NoteNumber":83,"Velocity":69,"Duration":119019,"SoundDuration":119019,"Delta":216697592},{"NoteNumber":68,"Velocity":68,"Duration":89264,"SoundDuration":89264,"Delta":216697592},{"NoteNumber":80,"Velocity":56,"Duration":119019,"SoundDuration":119019,"Delta":216816611},{"NoteNumber":76,"Velocity":56,"Duration":132415,"SoundDuration":132415,"Delta":216935630},{"NoteNumber":84,"Velocity":68,"Duration":115580,"SoundDuration":115580,"Delta":217068046},{"NoteNumber":69,"Velocity":61,"Duration":86685,"SoundDuration":86685,"Delta":217068046},{"NoteNumber":81,"Velocity":52,"Duration":115580,"SoundDuration":115580,"Delta":217183626},{"NoteNumber":76,"Velocity":54,"Duration":115580,"SoundDuration":115580,"Delta":217299206},{"NoteNumber":86,"Velocity":73,"Duration":115580,"SoundDuration":115580,"Delta":217414787},{"NoteNumber":71,"Velocity":64,"Duration":346740,"SoundDuration":346740,"Delta":217414787},{"NoteNumber":83,"Velocity":54,"Duration":115580,"SoundDuration":115580,"Delta":217530367},{"NoteNumber":76,"Velocity":54,"Duration":115580,"SoundDuration":115580,"Delta":217645947},{"NoteNumber":88,"Velocity":74,"Duration":115580,"SoundDuration":115580,"Delta":217761528},{"NoteNumber":72,"Velocity":67,"Duration":352741,"SoundDuration":352741,"Delta":217761528},{"NoteNumber":84,"Velocity":54,"Duration":115580,"SoundDuration":115580,"Delta":217877108},{"NoteNumber":76,"Velocity":54,"Duration":121580,"SoundDuration":121580,"Delta":217992688},{"NoteNumber":84,"Velocity":70,"Duration":119019,"SoundDuration":119019,"Delta":218114269},{"NoteNumber":69,"Velocity":60,"Duration":89264,"SoundDuration":89264,"Delta":218114269},{"NoteNumber":81,"Velocity":53,"Duration":119019,"SoundDuration":119019,"Delta":218233288},{"NoteNumber":76,"Velocity":54,"Duration":127795,"SoundDuration":127795,"Delta":218352308},{"NoteNumber":83,"Velocity":62,"Duration":115580,"SoundDuration":115580,"Delta":218480103},{"NoteNumber":64,"Velocity":39,"Duration":1046223,"SoundDuration":1046223,"Delta":218480103},{"NoteNumber":68,"Velocity":57,"Duration":346741,"SoundDuration":346741,"Delta":218480103},{"NoteNumber":80,"Velocity":47,"Duration":115580,"SoundDuration":115580,"Delta":218595684},{"NoteNumber":76,"Velocity":47,"Duration":115580,"SoundDuration":115580,"Delta":218711264},{"NoteNumber":84,"Velocity":61,"Duration":115580,"SoundDuration":115580,"Delta":218826844},{"NoteNumber":69,"Velocity":51,"Duration":346740,"SoundDuration":346740,"Delta":218826844},{"NoteNumber":81,"Velocity":46,"Duration":115580,"SoundDuration":115580,"Delta":218942425},{"NoteNumber":76,"Velocity":46,"Duration":115580,"SoundDuration":115580,"Delta":219058005},{"NoteNumber":83,"Velocity":61,"Duration":115580,"SoundDuration":115580,"Delta":219173585},{"NoteNumber":68,"Velocity":51,"Duration":352741,"SoundDuration":352741,"Delta":219173585},{"NoteNumber":80,"Velocity":47,"Duration":115580,"SoundDuration":115580,"Delta":219289166},{"NoteNumber":76,"Velocity":48,"Duration":121580,"SoundDuration":121580,"Delta":219404746},{"NoteNumber":88,"Velocity":59,"Duration":119019,"SoundDuration":119019,"Delta":219526327},{"NoteNumber":64,"Velocity":33,"Duration":376330,"SoundDuration":376330,"Delta":219526327},{"NoteNumber":83,"Velocity":45,"Duration":119019,"SoundDuration":119019,"Delta":219645346},{"NoteNumber":80,"Velocity":45,"Duration":138291,"SoundDuration":138291,"Delta":219764365},{"NoteNumber":88,"Velocity":57,"Duration":119283,"SoundDuration":119283,"Delta":219902657},{"NoteNumber":65,"Velocity":40,"Duration":89521,"SoundDuration":89521,"Delta":219902657},{"NoteNumber":84,"Velocity":44,"Duration":118367,"SoundDuration":118367,"Delta":220021941},{"NoteNumber":81,"Velocity":45,"Duration":117734,"SoundDuration":117734,"Delta":220140308},{"NoteNumber":88,"Velocity":57,"Duration":117993,"SoundDuration":117993,"Delta":220258042},{"NoteNumber":69,"Velocity":33,"Duration":88495,"SoundDuration":88495,"Delta":220258042},{"NoteNumber":84,"Velocity":41,"Duration":117994,"SoundDuration":117994,"Delta":220376036},{"NoteNumber":81,"Velocity":41,"Duration":117994,"SoundDuration":117994,"Delta":220494030},{"NoteNumber":86,"Velocity":56,"Duration":117993,"SoundDuration":117993,"Delta":220612024},{"NoteNumber":71,"Velocity":41,"Duration":88495,"SoundDuration":88495,"Delta":220612024},{"NoteNumber":83,"Velocity":39,"Duration":117994,"SoundDuration":117994,"Delta":220730018},{"NoteNumber":81,"Velocity":39,"Duration":121580,"SoundDuration":121580,"Delta":220848012},{"NoteNumber":86,"Velocity":58,"Duration":119019,"SoundDuration":119019,"Delta":220969593},{"NoteNumber":74,"Velocity":33,"Duration":371284,"SoundDuration":371284,"Delta":220969593},{"NoteNumber":83,"Velocity":39,"Duration":119019,"SoundDuration":119019,"Delta":221088612},{"NoteNumber":81,"Velocity":40,"Duration":133246,"SoundDuration":133246,"Delta":221207632},{"NoteNumber":86,"Velocity":62,"Duration":119298,"SoundDuration":119298,"Delta":221340878},{"NoteNumber":64,"Velocity":40,"Duration":89536,"SoundDuration":89536,"Delta":221340878},{"NoteNumber":83,"Velocity":44,"Duration":118611,"SoundDuration":118611,"Delta":221460177},{"NoteNumber":80,"Velocity":46,"Duration":117827,"SoundDuration":117827,"Delta":221578788},{"NoteNumber":86,"Velocity":55,"Duration":117301,"SoundDuration":117301,"Delta":221696615},{"NoteNumber":68,"Velocity":33,"Duration":87976,"SoundDuration":87976,"Delta":221696615},{"NoteNumber":83,"Velocity":42,"Duration":117302,"SoundDuration":117302,"Delta":221813917},{"NoteNumber":80,"Velocity":43,"Duration":117301,"SoundDuration":117301,"Delta":221931219},{"NoteNumber":85,"Velocity":58,"Duration":117301,"SoundDuration":117301,"Delta":222048521},{"NoteNumber":69,"Velocity":41,"Duration":87976,"SoundDuration":87976,"Delta":222048521},{"NoteNumber":81,"Velocity":44,"Duration":117301,"SoundDuration":117301,"Delta":222165823},{"NoteNumber":79,"Velocity":45,"Duration":121212,"SoundDuration":121212,"Delta":222283125},{"NoteNumber":85,"Velocity":55,"Duration":119019,"SoundDuration":119019,"Delta":222404337},{"NoteNumber":73,"Velocity":35,"Duration":361094,"SoundDuration":361094,"Delta":222404337},{"NoteNumber":81,"Velocity":46,"Duration":119019,"SoundDuration":119019,"Delta":222523357},{"NoteNumber":79,"Velocity":46,"Duration":123056,"SoundDuration":123056,"Delta":222642376},{"NoteNumber":84,"Velocity":66,"Duration":119470,"SoundDuration":119470,"Delta":222765432},{"NoteNumber":62,"Velocity":44,"Duration":89708,"SoundDuration":89708,"Delta":222765432},{"NoteNumber":81,"Velocity":48,"Duration":118335,"SoundDuration":118335,"Delta":222884903},{"NoteNumber":78,"Velocity":51,"Duration":117330,"SoundDuration":117330,"Delta":223003238},{"NoteNumber":84,"Velocity":60,"Duration":116206,"SoundDuration":116206,"Delta":223120569},{"NoteNumber":66,"Velocity":37,"Duration":87256,"SoundDuration":87256,"Delta":223120569},{"NoteNumber":81,"Velocity":47,"Duration":115606,"SoundDuration":115606,"Delta":223236775},{"NoteNumber":78,"Velocity":47,"Duration":115607,"SoundDuration":115607,"Delta":223352382},{"NoteNumber":83,"Velocity":67,"Duration":115607,"SoundDuration":115607,"Delta":223467989},{"NoteNumber":67,"Velocity":48,"Duration":86705,"SoundDuration":86705,"Delta":223467989},{"NoteNumber":79,"Velocity":46,"Duration":115606,"SoundDuration":115606,"Delta":223583596},{"NoteNumber":77,"Velocity":46,"Duration":123456,"SoundDuration":123456,"Delta":223699203},{"NoteNumber":83,"Velocity":61,"Duration":119019,"SoundDuration":119019,"Delta":223822660},{"NoteNumber":71,"Velocity":39,"Duration":370453,"SoundDuration":370453,"Delta":223822660},{"NoteNumber":79,"Velocity":47,"Duration":119019,"SoundDuration":119019,"Delta":223941679},{"NoteNumber":77,"Velocity":48,"Duration":132415,"SoundDuration":132415,"Delta":224060698},{"NoteNumber":82,"Velocity":67,"Duration":115580,"SoundDuration":115580,"Delta":224193114},{"NoteNumber":60,"Velocity":48,"Duration":86685,"SoundDuration":86685,"Delta":224193114},{"NoteNumber":79,"Velocity":53,"Duration":115580,"SoundDuration":115580,"Delta":224308694},{"NoteNumber":76,"Velocity":55,"Duration":115580,"SoundDuration":115580,"Delta":224424274},{"NoteNumber":82,"Velocity":66,"Duration":115580,"SoundDuration":115580,"Delta":224539855},{"NoteNumber":64,"Velocity":40,"Duration":86685,"SoundDuration":86685,"Delta":224539855},{"NoteNumber":79,"Velocity":51,"Duration":115580,"SoundDuration":115580,"Delta":224655435},{"NoteNumber":76,"Velocity":51,"Duration":115580,"SoundDuration":115580,"Delta":224771015},{"NoteNumber":81,"Velocity":67,"Duration":115580,"SoundDuration":115580,"Delta":224886596},{"NoteNumber":65,"Velocity":51,"Duration":86685,"SoundDuration":86685,"Delta":224886596},{"NoteNumber":77,"Velocity":50,"Duration":115580,"SoundDuration":115580,"Delta":225002176},{"NoteNumber":72,"Velocity":50,"Duration":123839,"SoundDuration":123839,"Delta":225117756},{"NoteNumber":81,"Velocity":66,"Duration":119019,"SoundDuration":119019,"Delta":225241595},{"NoteNumber":69,"Velocity":42,"Duration":89264,"SoundDuration":89264,"Delta":225241595},{"NoteNumber":77,"Velocity":51,"Duration":119019,"SoundDuration":119019,"Delta":225360615},{"NoteNumber":72,"Velocity":52,"Duration":124610,"SoundDuration":124610,"Delta":225479634},{"NoteNumber":82,"Velocity":73,"Duration":115580,"SoundDuration":115580,"Delta":225604245},{"NoteNumber":64,"Velocity":60,"Duration":86685,"SoundDuration":86685,"Delta":225604245},{"NoteNumber":79,"Velocity":57,"Duration":115580,"SoundDuration":115580,"Delta":225719825},{"NoteNumber":72,"Velocity":60,"Duration":115580,"SoundDuration":115580,"Delta":225835405},{"NoteNumber":82,"Velocity":72,"Duration":115580,"SoundDuration":115580,"Delta":225950986},{"NoteNumber":60,"Velocity":51,"Duration":86685,"SoundDuration":86685,"Delta":225950986},{"NoteNumber":79,"Velocity":55,"Duration":115580,"SoundDuration":115580,"Delta":226066566},{"NoteNumber":72,"Velocity":55,"Duration":115580,"SoundDuration":115580,"Delta":226182146},{"NoteNumber":81,"Velocity":73,"Duration":115580,"SoundDuration":115580,"Delta":226297727},{"NoteNumber":65,"Velocity":65,"Duration":86685,"SoundDuration":86685,"Delta":226297727},{"NoteNumber":77,"Velocity":54,"Duration":115580,"SoundDuration":115580,"Delta":226413307},{"NoteNumber":72,"Velocity":54,"Duration":119403,"SoundDuration":119403,"Delta":226528887},{"NoteNumber":81,"Velocity":71,"Duration":119019,"SoundDuration":119019,"Delta":226648290},{"NoteNumber":69,"Velocity":57,"Duration":89264,"SoundDuration":89264,"Delta":226648290},{"NoteNumber":77,"Velocity":55,"Duration":119019,"SoundDuration":119019,"Delta":226767310},{"NoteNumber":72,"Velocity":57,"Duration":132415,"SoundDuration":132415,"Delta":226886329},{"NoteNumber":81,"Velocity":82,"Duration":115580,"SoundDuration":115580,"Delta":227018744},{"NoteNumber":41,"Velocity":62,"Duration":86685,"SoundDuration":86685,"Delta":227018744},{"NoteNumber":53,"Velocity":73,"Duration":86685,"SoundDuration":86685,"Delta":227018744},{"NoteNumber":77,"Velocity":65,"Duration":115580,"SoundDuration":115580,"Delta":227134325},{"NoteNumber":72,"Velocity":67,"Duration":115580,"SoundDuration":115580,"Delta":227249905},{"NoteNumber":81,"Velocity":80,"Duration":115580,"SoundDuration":115580,"Delta":227365485},{"NoteNumber":45,"Velocity":56,"Duration":86685,"SoundDuration":86685,"Delta":227365485},{"NoteNumber":57,"Velocity":67,"Duration":86685,"SoundDuration":86685,"Delta":227365485},{"NoteNumber":77,"Velocity":61,"Duration":115580,"SoundDuration":115580,"Delta":227481066},{"NoteNumber":72,"Velocity":61,"Duration":115580,"SoundDuration":115580,"Delta":227596646},{"NoteNumber":81,"Velocity":80,"Duration":115580,"SoundDuration":115580,"Delta":227712226},{"NoteNumber":52,"Velocity":75,"Duration":86685,"SoundDuration":86685,"Delta":227712226},{"NoteNumber":40,"Velocity":63,"Duration":86685,"SoundDuration":86685,"Delta":227712226},{"NoteNumber":76,"Velocity":58,"Duration":115580,"SoundDuration":115580,"Delta":227827807},{"NoteNumber":72,"Velocity":58,"Duration":121951,"SoundDuration":121951,"Delta":227943387},{"NoteNumber":81,"Velocity":76,"Duration":119019,"SoundDuration":119019,"Delta":228065338},{"NoteNumber":45,"Velocity":57,"Duration":89264,"SoundDuration":89264,"Delta":228065338},{"NoteNumber":57,"Velocity":68,"Duration":89264,"SoundDuration":89264,"Delta":228065338},{"NoteNumber":76,"Velocity":58,"Duration":119019,"SoundDuration":119019,"Delta":228184358},{"NoteNumber":72,"Velocity":60,"Duration":132415,"SoundDuration":132415,"Delta":228303377},{"NoteNumber":81,"Velocity":82,"Duration":115580,"SoundDuration":115580,"Delta":228435792},{"NoteNumber":39,"Velocity":66,"Duration":86685,"SoundDuration":86685,"Delta":228435792},{"NoteNumber":51,"Velocity":78,"Duration":86685,"SoundDuration":86685,"Delta":228435792},{"NoteNumber":78,"Velocity":65,"Duration":115580,"SoundDuration":115580,"Delta":228551373},{"NoteNumber":72,"Velocity":67,"Duration":115580,"SoundDuration":115580,"Delta":228666953},{"NoteNumber":81,"Velocity":80,"Duration":115580,"SoundDuration":115580,"Delta":228782533},{"NoteNumber":42,"Velocity":61,"Duration":86685,"SoundDuration":86685,"Delta":228782533},{"NoteNumber":54,"Velocity":72,"Duration":86685,"SoundDuration":86685,"Delta":228782533},{"NoteNumber":78,"Velocity":61,"Duration":115580,"SoundDuration":115580,"Delta":228898114},{"NoteNumber":72,"Velocity":61,"Duration":115580,"SoundDuration":115580,"Delta":229013694},{"NoteNumber":81,"Velocity":80,"Duration":115580,"SoundDuration":115580,"Delta":229129274},{"NoteNumber":45,"Velocity":64,"Duration":86685,"SoundDuration":86685,"Delta":229129274},{"NoteNumber":57,"Velocity":76,"Duration":86685,"SoundDuration":86685,"Delta":229129274},{"NoteNumber":78,"Velocity":58,"Duration":115580,"SoundDuration":115580,"Delta":229244855},{"NoteNumber":72,"Velocity":58,"Duration":119760,"SoundDuration":119760,"Delta":229360435},{"NoteNumber":81,"Velocity":76,"Duration":116959,"SoundDuration":116959,"Delta":229480195},{"NoteNumber":60,"Velocity":70,"Duration":87719,"SoundDuration":87719,"Delta":229480195},{"NoteNumber":48,"Velocity":59,"Duration":87719,"SoundDuration":87719,"Delta":229480195},{"NoteNumber":78,"Velocity":58,"Duration":116958,"SoundDuration":116958,"Delta":229597154},{"NoteNumber":72,"Velocity":60,"Duration":121580,"SoundDuration":121580,"Delta":229714113},{"NoteNumber":81,"Velocity":82,"Duration":115580,"SoundDuration":115580,"Delta":229835694},{"NoteNumber":63,"Velocity":76,"Duration":86685,"SoundDuration":86685,"Delta":229835694},{"NoteNumber":51,"Velocity":64,"Duration":86685,"SoundDuration":86685,"Delta":229835694},{"NoteNumber":78,"Velocity":65,"Duration":115580,"SoundDuration":115580,"Delta":229951274},{"NoteNumber":72,"Velocity":67,"Duration":115580,"SoundDuration":115580,"Delta":230066855},{"NoteNumber":81,"Velocity":80,"Duration":115580,"SoundDuration":115580,"Delta":230182435},{"NoteNumber":54,"Velocity":57,"Duration":86685,"SoundDuration":86685,"Delta":230182435},{"NoteNumber":66,"Velocity":68,"Duration":86685,"SoundDuration":86685,"Delta":230182435},{"NoteNumber":78,"Velocity":61,"Duration":115580,"SoundDuration":115580,"Delta":230298015},{"NoteNumber":72,"Velocity":61,"Duration":115580,"SoundDuration":115580,"Delta":230413596},{"NoteNumber":81,"Velocity":80,"Duration":115580,"SoundDuration":115580,"Delta":230529176},{"NoteNumber":69,"Velocity":79,"Duration":86685,"SoundDuration":86685,"Delta":230529176},{"NoteNumber":57,"Velocity":67,"Duration":86685,"SoundDuration":86685,"Delta":230529176},{"NoteNumber":78,"Velocity":58,"Duration":115580,"SoundDuration":115580,"Delta":230644756},{"NoteNumber":72,"Velocity":58,"Duration":118343,"SoundDuration":118343,"Delta":230760337},{"NoteNumber":81,"Velocity":76,"Duration":119019,"SoundDuration":119019,"Delta":230878680},{"NoteNumber":51,"Velocity":71,"Duration":381407,"SoundDuration":381407,"Delta":230878680},{"NoteNumber":39,"Velocity":60,"Duration":381407,"SoundDuration":381407,"Delta":230878680},{"NoteNumber":78,"Velocity":58,"Duration":119019,"SoundDuration":119019,"Delta":230997699},{"NoteNumber":72,"Velocity":60,"Duration":143369,"SoundDuration":143369,"Delta":231116719},{"NoteNumber":81,"Velocity":89,"Duration":113959,"SoundDuration":113959,"Delta":231260088},{"NoteNumber":52,"Velocity":82,"Duration":4124757,"SoundDuration":4124757,"Delta":231260088},{"NoteNumber":40,"Velocity":69,"Duration":4124757,"SoundDuration":4124757,"Delta":231260088},{"NoteNumber":76,"Velocity":66,"Duration":113960,"SoundDuration":113960,"Delta":231374048},{"NoteNumber":72,"Velocity":65,"Duration":113959,"SoundDuration":113959,"Delta":231488008},{"NoteNumber":81,"Velocity":84,"Duration":113959,"SoundDuration":113959,"Delta":231601968},{"NoteNumber":76,"Velocity":66,"Duration":113959,"SoundDuration":113959,"Delta":231715928},{"NoteNumber":72,"Velocity":66,"Duration":113960,"SoundDuration":113960,"Delta":231829888},{"NoteNumber":80,"Velocity":86,"Duration":113959,"SoundDuration":113959,"Delta":231943848},{"NoteNumber":74,"Velocity":63,"Duration":113959,"SoundDuration":113959,"Delta":232054247},{"NoteNumber":71,"Velocity":63,"Duration":113960,"SoundDuration":113960,"Delta":232171768},{"NoteNumber":80,"Velocity":82,"Duration":113959,"SoundDuration":113959,"Delta":232285728},{"NoteNumber":74,"Velocity":60,"Duration":113959,"SoundDuration":113959,"Delta":232399688},{"NoteNumber":71,"Velocity":64,"Duration":117302,"SoundDuration":117302,"Delta":232513648},{"NoteNumber":77,"Velocity":75,"Duration":114285,"SoundDuration":114285,"Delta":232630950},{"NoteNumber":72,"Velocity":55,"Duration":114285,"SoundDuration":114285,"Delta":232745236},{"NoteNumber":69,"Velocity":54,"Duration":114285,"SoundDuration":114285,"Delta":232859521},{"NoteNumber":77,"Velocity":74,"Duration":114285,"SoundDuration":114285,"Delta":232973807},{"NoteNumber":72,"Velocity":53,"Duration":114285,"SoundDuration":114285,"Delta":233088093},{"NoteNumber":69,"Velocity":54,"Duration":114285,"SoundDuration":114285,"Delta":233202378},{"NoteNumber":76,"Velocity":72,"Duration":114285,"SoundDuration":114285,"Delta":233316664},{"NoteNumber":71,"Velocity":52,"Duration":114285,"SoundDuration":114285,"Delta":233430950},{"NoteNumber":68,"Velocity":52,"Duration":114285,"SoundDuration":114285,"Delta":233545235},{"NoteNumber":76,"Velocity":68,"Duration":114285,"SoundDuration":114285,"Delta":233659521},{"NoteNumber":71,"Velocity":52,"Duration":114285,"SoundDuration":114285,"Delta":233773807},{"NoteNumber":68,"Velocity":55,"Duration":116959,"SoundDuration":116959,"Delta":233888092},{"NoteNumber":75,"Velocity":71,"Duration":114613,"SoundDuration":114613,"Delta":234005051},{"NoteNumber":69,"Velocity":49,"Duration":114613,"SoundDuration":114613,"Delta":234119665},{"NoteNumber":66,"Velocity":49,"Duration":114613,"SoundDuration":114613,"Delta":234234278},{"NoteNumber":75,"Velocity":67,"Duration":114613,"SoundDuration":114613,"Delta":234348891},{"NoteNumber":69,"Velocity":47,"Duration":114613,"SoundDuration":114613,"Delta":234463505},{"NoteNumber":66,"Velocity":53,"Duration":114613,"SoundDuration":114613,"Delta":234578118},{"NoteNumber":74,"Velocity":69,"Duration":114613,"SoundDuration":114613,"Delta":234692731},{"NoteNumber":71,"Velocity":50,"Duration":114613,"SoundDuration":114613,"Delta":234807345},{"NoteNumber":68,"Velocity":50,"Duration":114613,"SoundDuration":114613,"Delta":234921958},{"NoteNumber":74,"Velocity":63,"Duration":114613,"SoundDuration":114613,"Delta":235036571},{"NoteNumber":71,"Velocity":47,"Duration":114613,"SoundDuration":114613,"Delta":235151185},{"NoteNumber":68,"Velocity":46,"Duration":119047,"SoundDuration":119047,"Delta":235265798},{"NoteNumber":72,"Velocity":58,"Duration":114613,"SoundDuration":114613,"Delta":235384846},{"NoteNumber":57,"Velocity":40,"Duration":692114,"SoundDuration":692114,"Delta":235384846},{"NoteNumber":45,"Velocity":40,"Duration":692114,"SoundDuration":692114,"Delta":235384846},{"NoteNumber":69,"Velocity":44,"Duration":114613,"SoundDuration":114613,"Delta":235499459},{"NoteNumber":64,"Velocity":47,"Duration":114613,"SoundDuration":114613,"Delta":235614072},{"NoteNumber":72,"Velocity":53,"Duration":114613,"SoundDuration":114613,"Delta":235728686},{"NoteNumber":69,"Velocity":43,"Duration":114613,"SoundDuration":114613,"Delta":235839717},{"NoteNumber":64,"Velocity":45,"Duration":119047,"SoundDuration":119047,"Delta":235957912},{"NoteNumber":69,"Velocity":58,"Duration":114613,"SoundDuration":114613,"Delta":236076960},{"NoteNumber":36,"Velocity":38,"Duration":692114,"SoundDuration":692114,"Delta":236076960},{"NoteNumber":48,"Velocity":38,"Duration":692114,"SoundDuration":692114,"Delta":236076960},{"NoteNumber":64,"Velocity":46,"Duration":114613,"SoundDuration":114613,"Delta":236191573},{"NoteNumber":60,"Velocity":46,"Duration":114613,"SoundDuration":114613,"Delta":236306187},{"NoteNumber":69,"Velocity":53,"Duration":114613,"SoundDuration":114613,"Delta":236420800},{"NoteNumber":64,"Velocity":44,"Duration":114613,"SoundDuration":114613,"Delta":236535413},{"NoteNumber":60,"Velocity":44,"Duration":119047,"SoundDuration":119047,"Delta":236650027},{"NoteNumber":70,"Velocity":58,"Duration":114613,"SoundDuration":114613,"Delta":236769074},{"NoteNumber":38,"Velocity":40,"Duration":692114,"SoundDuration":692114,"Delta":236769074},{"NoteNumber":50,"Velocity":40,"Duration":692114,"SoundDuration":692114,"Delta":236769074},{"NoteNumber":65,"Velocity":47,"Duration":114613,"SoundDuration":114613,"Delta":236883688},{"NoteNumber":62,"Velocity":47,"Duration":114613,"SoundDuration":114613,"Delta":236998301},{"NoteNumber":70,"Velocity":53,"Duration":114613,"SoundDuration":114613,"Delta":237112914},{"NoteNumber":65,"Velocity":45,"Duration":114613,"SoundDuration":114613,"Delta":237227528},{"NoteNumber":62,"Velocity":45,"Duration":119047,"SoundDuration":119047,"Delta":237342141},{"NoteNumber":68,"Velocity":54,"Duration":114613,"SoundDuration":114613,"Delta":237461189},{"NoteNumber":52,"Velocity":36,"Duration":691736,"SoundDuration":691736,"Delta":237461189},{"NoteNumber":40,"Velocity":36,"Duration":691736,"SoundDuration":691736,"Delta":237461189},{"NoteNumber":62,"Velocity":43,"Duration":114613,"SoundDuration":114613,"Delta":237575802},{"NoteNumber":59,"Velocity":43,"Duration":114613,"SoundDuration":114613,"Delta":237690415},{"NoteNumber":68,"Velocity":53,"Duration":114613,"SoundDuration":114613,"Delta":237805029},{"NoteNumber":62,"Velocity":38,"Duration":114613,"SoundDuration":114613,"Delta":237919642},{"NoteNumber":59,"Velocity":38,"Duration":118670,"SoundDuration":118670,"Delta":238034255},{"NoteNumber":67,"Velocity":43,"Duration":115624,"SoundDuration":115624,"Delta":238152926},{"NoteNumber":45,"Velocity":40,"Duration":5375775,"SoundDuration":5375775,"Delta":238152926},{"NoteNumber":64,"Velocity":36,"Duration":116584,"SoundDuration":116584,"Delta":238268550},{"NoteNumber":61,"Velocity":36,"Duration":117578,"SoundDuration":117578,"Delta":238385135},{"NoteNumber":67,"Velocity":43,"Duration":118572,"SoundDuration":118572,"Delta":238502713},{"NoteNumber":49,"Velocity":34,"Duration":5025987,"SoundDuration":5025987,"Delta":238502713},{"NoteNumber":64,"Velocity":37,"Duration":119582,"SoundDuration":119582,"Delta":238621285},{"NoteNumber":61,"Velocity":37,"Duration":120609,"SoundDuration":120609,"Delta":238740867},{"NoteNumber":67,"Velocity":48,"Duration":121655,"SoundDuration":121655,"Delta":238861477},{"NoteNumber":52,"Velocity":37,"Duration":4667223,"SoundDuration":4667223,"Delta":238861477},{"NoteNumber":64,"Velocity":35,"Duration":122718,"SoundDuration":122718,"Delta":238983133},{"NoteNumber":61,"Velocity":36,"Duration":123724,"SoundDuration":123724,"Delta":239105851},{"NoteNumber":67,"Velocity":48,"Duration":139859,"SoundDuration":139859,"Delta":239229576},{"NoteNumber":55,"Velocity":40,"Duration":419579,"SoundDuration":419579,"Delta":239229576},{"NoteNumber":64,"Velocity":36,"Duration":139859,"SoundDuration":139859,"Delta":239369436},{"NoteNumber":61,"Velocity":37,"Duration":139859,"SoundDuration":139859,"Delta":239509296},{"NoteNumber":61,"Velocity":53,"Duration":2264150,"SoundDuration":2264150,"Delta":239649156},{"NoteNumber":64,"Velocity":53,"Duration":2264150,"SoundDuration":2264150,"Delta":239649156},{"NoteNumber":67,"Velocity":53,"Duration":2264150,"SoundDuration":2264150,"Delta":239649156},{"NoteNumber":58,"Velocity":43,"Duration":2264150,"SoundDuration":2264150,"Delta":239649156},{"NoteNumber":65,"Velocity":48,"Duration":764330,"SoundDuration":764330,"Delta":241913306},{"NoteNumber":57,"Velocity":37,"Duration":764330,"SoundDuration":764330,"Delta":241913306},{"NoteNumber":64,"Velocity":45,"Duration":851064,"SoundDuration":851064,"Delta":242677637},{"NoteNumber":55,"Velocity":32,"Duration":851064,"SoundDuration":851064,"Delta":242677637},{"NoteNumber":65,"Velocity":41,"Duration":114613,"SoundDuration":114613,"Delta":243528701},{"NoteNumber":50,"Velocity":30,"Duration":1035954,"SoundDuration":1035954,"Delta":243528701},{"NoteNumber":53,"Velocity":36,"Duration":1035954,"SoundDuration":1035954,"Delta":243528701},{"NoteNumber":62,"Velocity":32,"Duration":114613,"SoundDuration":114613,"Delta":243643314},{"NoteNumber":57,"Velocity":33,"Duration":114613,"SoundDuration":114613,"Delta":243757927},{"NoteNumber":65,"Velocity":41,"Duration":114613,"SoundDuration":114613,"Delta":243872541},{"NoteNumber":62,"Velocity":35,"Duration":114613,"SoundDuration":114613,"Delta":243987154},{"NoteNumber":57,"Velocity":35,"Duration":119047,"SoundDuration":119047,"Delta":244101767},{"NoteNumber":65,"Velocity":41,"Duration":114613,"SoundDuration":114613,"Delta":244220815},{"NoteNumber":62,"Velocity":35,"Duration":114613,"SoundDuration":114613,"Delta":244335428},{"NoteNumber":57,"Velocity":35,"Duration":114613,"SoundDuration":114613,"Delta":244450042},{"NoteNumber":65,"Velocity":41,"Duration":114613,"SoundDuration":114613,"Delta":244564655},{"NoteNumber":52,"Velocity":32,"Duration":348274,"SoundDuration":348274,"Delta":244564655},{"NoteNumber":48,"Velocity":27,"Duration":348274,"SoundDuration":348274,"Delta":244564655},{"NoteNumber":62,"Velocity":34,"Duration":114613,"SoundDuration":114613,"Delta":244679268},{"NoteNumber":57,"Velocity":34,"Duration":119047,"SoundDuration":119047,"Delta":244793882},{"NoteNumber":65,"Velocity":41,"Duration":114677,"SoundDuration":114677,"Delta":244912929},{"NoteNumber":50,"Velocity":36,"Duration":1078784,"SoundDuration":1078784,"Delta":244912929},{"NoteNumber":47,"Velocity":30,"Duration":1078784,"SoundDuration":1078784,"Delta":244912929},{"NoteNumber":62,"Velocity":32,"Duration":115434,"SoundDuration":115434,"Delta":245027607},{"NoteNumber":55,"Velocity":33,"Duration":116341,"SoundDuration":116341,"Delta":245143041},{"NoteNumber":65,"Velocity":41,"Duration":117298,"SoundDuration":117298,"Delta":245259382},{"NoteNumber":62,"Velocity":35,"Duration":118267,"SoundDuration":118267,"Delta":245376681},{"NoteNumber":55,"Velocity":35,"Duration":124481,"SoundDuration":124481,"Delta":245494948},{"NoteNumber":65,"Velocity":41,"Duration":121188,"SoundDuration":121188,"Delta":245619430},{"NoteNumber":62,"Velocity":35,"Duration":124055,"SoundDuration":124055,"Delta":245740619},{"NoteNumber":55,"Velocity":35,"Duration":127040,"SoundDuration":127040,"Delta":245864674},{"NoteNumber":65,"Velocity":41,"Duration":142486,"SoundDuration":142486,"Delta":245991714},{"NoteNumber":45,"Velocity":27,"Duration":693272,"SoundDuration":693272,"Delta":245991714},{"NoteNumber":48,"Velocity":32,"Duration":693272,"SoundDuration":693272,"Delta":245991714},{"NoteNumber":62,"Velocity":34,"Duration":176953,"SoundDuration":176953,"Delta":246134200},{"NoteNumber":55,"Velocity":34,"Duration":373831,"SoundDuration":373831,"Delta":246311154},{"NoteNumber":62,"Velocity":34,"Duration":1664982,"SoundDuration":1664982,"Delta":246684986},{"NoteNumber":65,"Velocity":41,"Duration":1664982,"SoundDuration":1664982,"Delta":246684986},{"NoteNumber":55,"Velocity":34,"Duration":1664982,"SoundDuration":1664982,"Delta":246684986},{"NoteNumber":43,"Velocity":27,"Duration":1664982,"SoundDuration":1664982,"Delta":246684986},{"NoteNumber":47,"Velocity":32,"Duration":1664982,"SoundDuration":1664982,"Delta":246684986},{"NoteNumber":60,"Velocity":50,"Duration":262191,"SoundDuration":262191,"Delta":248572191},{"NoteNumber":64,"Velocity":50,"Duration":93023,"SoundDuration":93023,"Delta":248834382},{"NoteNumber":67,"Velocity":57,"Duration":88736,"SoundDuration":88736,"Delta":248927406},{"NoteNumber":52,"Velocity":52,"Duration":88736,"SoundDuration":88736,"Delta":248927406},{"NoteNumber":48,"Velocity":44,"Duration":88736,"SoundDuration":88736,"Delta":248927406},{"NoteNumber":67,"Velocity":50,"Duration":88736,"SoundDuration":88736,"Delta":249282352},{"NoteNumber":67,"Velocity":50,"Duration":91552,"SoundDuration":91552,"Delta":249637298},{"NoteNumber":71,"Velocity":60,"Duration":45776,"SoundDuration":45776,"Delta":249957732},{"NoteNumber":72,"Velocity":71,"Duration":88396,"SoundDuration":88396,"Delta":250003509},{"NoteNumber":67,"Velocity":50,"Duration":88396,"SoundDuration":88396,"Delta":250357095},{"NoteNumber":52,"Velocity":52,"Duration":88396,"SoundDuration":88396,"Delta":250357095},{"NoteNumber":48,"Velocity":44,"Duration":88396,"SoundDuration":88396,"Delta":250357095},{"NoteNumber":67,"Velocity":43,"Duration":88396,"SoundDuration":88396,"Delta":250710681},{"NoteNumber":67,"Velocity":43,"Duration":91917,"SoundDuration":91917,"Delta":251064267},{"NoteNumber":64,"Velocity":50,"Duration":261202,"SoundDuration":261202,"Delta":251431937},{"NoteNumber":60,"Velocity":50,"Duration":93023,"SoundDuration":93023,"Delta":251693139},{"NoteNumber":59,"Velocity":57,"Duration":87729,"SoundDuration":87729,"Delta":251786162},{"NoteNumber":43,"Velocity":44,"Duration":87729,"SoundDuration":87729,"Delta":251786162},{"NoteNumber":50,"Velocity":44,"Duration":87729,"SoundDuration":87729,"Delta":251786162},{"NoteNumber":53,"Velocity":52,"Duration":87729,"SoundDuration":87729,"Delta":251786162},{"NoteNumber":59,"Velocity":53,"Duration":87729,"SoundDuration":87729,"Delta":252137080},{"NoteNumber":50,"Velocity":38,"Duration":87729,"SoundDuration":87729,"Delta":252137080},{"NoteNumber":43,"Velocity":38,"Duration":87729,"SoundDuration":87729,"Delta":252137080},{"NoteNumber":53,"Velocity":45,"Duration":87729,"SoundDuration":87729,"Delta":252137080},{"NoteNumber":60,"Velocity":57,"Duration":90068,"SoundDuration":90068,"Delta":252487998},{"NoteNumber":43,"Velocity":44,"Duration":90068,"SoundDuration":90068,"Delta":252487998},{"NoteNumber":48,"Velocity":44,"Duration":90068,"SoundDuration":90068,"Delta":252487998},{"NoteNumber":52,"Velocity":52,"Duration":90068,"SoundDuration":90068,"Delta":252487998},{"NoteNumber":60,"Velocity":52,"Duration":107142,"SoundDuration":107142,"Delta":252848272},{"NoteNumber":52,"Velocity":47,"Duration":107142,"SoundDuration":107142,"Delta":252848272},{"NoteNumber":43,"Velocity":39,"Duration":107142,"SoundDuration":107142,"Delta":252848272},{"NoteNumber":48,"Velocity":39,"Duration":107142,"SoundDuration":107142,"Delta":252848272},{"NoteNumber":62,"Velocity":57,"Duration":350918,"SoundDuration":350918,"Delta":253276843},{"NoteNumber":47,"Velocity":44,"Duration":350918,"SoundDuration":350918,"Delta":253276843},{"NoteNumber":50,"Velocity":52,"Duration":350918,"SoundDuration":350918,"Delta":253276843},{"NoteNumber":43,"Velocity":44,"Duration":350918,"SoundDuration":350918,"Delta":253276843},{"NoteNumber":55,"Velocity":50,"Duration":261202,"SoundDuration":261202,"Delta":254329597},{"NoteNumber":62,"Velocity":47,"Duration":98013,"SoundDuration":98013,"Delta":254590800},{"NoteNumber":65,"Velocity":58,"Duration":86415,"SoundDuration":86415,"Delta":254688813},{"NoteNumber":55,"Velocity":48,"Duration":86415,"SoundDuration":86415,"Delta":254688813},{"NoteNumber":47,"Velocity":40,"Duration":86415,"SoundDuration":86415,"Delta":254688813},{"NoteNumber":65,"Velocity":50,"Duration":261202,"SoundDuration":261202,"Delta":255034475},{"NoteNumber":67,"Velocity":48,"Duration":102711,"SoundDuration":102711,"Delta":255295678},{"NoteNumber":64,"Velocity":58,"Duration":87067,"SoundDuration":87067,"Delta":255398389},{"NoteNumber":55,"Velocity":48,"Duration":87067,"SoundDuration":87067,"Delta":255398389},{"NoteNumber":48,"Velocity":40,"Duration":87067,"SoundDuration":87067,"Delta":255398389},{"NoteNumber":64,"Velocity":50,"Duration":259246,"SoundDuration":259246,"Delta":255746659},{"NoteNumber":65,"Velocity":50,"Duration":102711,"SoundDuration":102711,"Delta":256005906},{"NoteNumber":62,"Velocity":59,"Duration":86093,"SoundDuration":86093,"Delta":256108617},{"NoteNumber":55,"Velocity":48,"Duration":86093,"SoundDuration":86093,"Delta":256108617},{"NoteNumber":53,"Velocity":40,"Duration":86093,"SoundDuration":86093,"Delta":256108617},{"NoteNumber":62,"Velocity":50,"Duration":262191,"SoundDuration":262191,"Delta":256452989},{"NoteNumber":64,"Velocity":47,"Duration":102012,"SoundDuration":102012,"Delta":256715181},{"NoteNumber":60,"Velocity":57,"Duration":85773,"SoundDuration":85773,"Delta":256817194},{"NoteNumber":52,"Velocity":38,"Duration":85773,"SoundDuration":85773,"Delta":256817194},{"NoteNumber":55,"Velocity":45,"Duration":85773,"SoundDuration":85773,"Delta":256817194},{"NoteNumber":60,"Velocity":52,"Duration":86740,"SoundDuration":86740,"Delta":257160286},{"NoteNumber":62,"Velocity":57,"Duration":86415,"SoundDuration":86415,"Delta":257521831},{"NoteNumber":41,"Velocity":47,"Duration":86415,"SoundDuration":86415,"Delta":257521831},{"NoteNumber":53,"Velocity":56,"Duration":86415,"SoundDuration":86415,"Delta":257521831},{"NoteNumber":62,"Velocity":52,"Duration":86415,"SoundDuration":86415,"Delta":257867493},{"NoteNumber":53,"Velocity":52,"Duration":86415,"SoundDuration":86415,"Delta":257867493},{"NoteNumber":41,"Velocity":44,"Duration":86415,"SoundDuration":86415,"Delta":257867493},{"NoteNumber":59,"Velocity":58,"Duration":86415,"SoundDuration":86415,"Delta":258213155},{"NoteNumber":43,"Velocity":49,"Duration":86415,"SoundDuration":86415,"Delta":258213155},{"NoteNumber":50,"Velocity":58,"Duration":86415,"SoundDuration":86415,"Delta":258213155},{"NoteNumber":59,"Velocity":52,"Duration":90612,"SoundDuration":90612,"Delta":258558817},{"NoteNumber":43,"Velocity":44,"Duration":90612,"SoundDuration":90612,"Delta":258558817},{"NoteNumber":50,"Velocity":52,"Duration":90612,"SoundDuration":90612,"Delta":258558817},{"NoteNumber":60,"Velocity":55,"Duration":120816,"SoundDuration":120816,"Delta":258921267},{"NoteNumber":63,"Velocity":43,"Duration":120816,"SoundDuration":120816,"Delta":259042084},{"NoteNumber":67,"Velocity":43,"Duration":120816,"SoundDuration":120816,"Delta":259162900},{"NoteNumber":60,"Velocity":56,"Duration":120816,"SoundDuration":120816,"Delta":259283717},{"NoteNumber":63,"Velocity":42,"Duration":120816,"SoundDuration":120816,"Delta":259404534},{"NoteNumber":67,"Velocity":42,"Duration":120816,"SoundDuration":120816,"Delta":259525350},{"NoteNumber":60,"Velocity":55,"Duration":120816,"SoundDuration":120816,"Delta":259646167},{"NoteNumber":63,"Velocity":44,"Duration":120816,"SoundDuration":120816,"Delta":259766984},{"NoteNumber":67,"Velocity":45,"Duration":120816,"SoundDuration":120816,"Delta":259887800},{"NoteNumber":72,"Velocity":71,"Duration":87397,"SoundDuration":87397,"Delta":260008617},{"NoteNumber":60,"Velocity":56,"Duration":116529,"SoundDuration":116529,"Delta":260008617},{"NoteNumber":74,"Velocity":73,"Duration":87397,"SoundDuration":87397,"Delta":260096014},{"NoteNumber":63,"Velocity":51,"Duration":116529,"SoundDuration":116529,"Delta":260125147},{"NoteNumber":75,"Velocity":75,"Duration":87397,"SoundDuration":87397,"Delta":260183411},{"NoteNumber":67,"Velocity":51,"Duration":129776,"SoundDuration":129776,"Delta":260241676},{"NoteNumber":77,"Velocity":78,"Duration":100643,"SoundDuration":100643,"Delta":260270809},{"NoteNumber":79,"Velocity":83,"Duration":88736,"SoundDuration":88736,"Delta":260371453},{"NoteNumber":60,"Velocity":56,"Duration":118315,"SoundDuration":118315,"Delta":260371453},{"NoteNumber":63,"Velocity":43,"Duration":118315,"SoundDuration":118315,"Delta":260489768},{"NoteNumber":67,"Velocity":43,"Duration":118315,"SoundDuration":118315,"Delta":260608083},{"NoteNumber":79,"Velocity":75,"Duration":88736,"SoundDuration":88736,"Delta":260726399},{"NoteNumber":60,"Velocity":56,"Duration":118315,"SoundDuration":118315,"Delta":260726399},{"NoteNumber":63,"Velocity":45,"Duration":118315,"SoundDuration":118315,"Delta":260844714},{"NoteNumber":67,"Velocity":46,"Duration":118315,"SoundDuration":118315,"Delta":260963029},{"NoteNumber":79,"Velocity":76,"Duration":89079,"SoundDuration":89079,"Delta":261081345},{"NoteNumber":60,"Velocity":55,"Duration":118771,"SoundDuration":118771,"Delta":261081345},{"NoteNumber":63,"Velocity":44,"Duration":118772,"SoundDuration":118772,"Delta":261200117},{"NoteNumber":67,"Velocity":45,"Duration":118771,"SoundDuration":118771,"Delta":261318889},{"NoteNumber":83,"Velocity":78,"Duration":44539,"SoundDuration":44539,"Delta":261393121},{"NoteNumber":84,"Velocity":92,"Duration":353586,"SoundDuration":353586,"Delta":261437661},{"NoteNumber":60,"Velocity":56,"Duration":117862,"SoundDuration":117862,"Delta":261437661},{"NoteNumber":63,"Velocity":51,"Duration":117862,"SoundDuration":117862,"Delta":261555523},{"NoteNumber":67,"Velocity":51,"Duration":117862,"SoundDuration":117862,"Delta":261673385},{"NoteNumber":79,"Velocity":85,"Duration":88396,"SoundDuration":88396,"Delta":261791247},{"NoteNumber":60,"Velocity":56,"Duration":117862,"SoundDuration":117862,"Delta":261791247},{"NoteNumber":63,"Velocity":41,"Duration":117862,"SoundDuration":117862,"Delta":261909109},{"NoteNumber":67,"Velocity":41,"Duration":117862,"SoundDuration":117862,"Delta":262026971},{"NoteNumber":79,"Velocity":74,"Duration":88396,"SoundDuration":88396,"Delta":262144833},{"NoteNumber":60,"Velocity":56,"Duration":117862,"SoundDuration":117862,"Delta":262144833},{"NoteNumber":63,"Velocity":44,"Duration":117862,"SoundDuration":117862,"Delta":262262695},{"NoteNumber":67,"Velocity":44,"Duration":117862,"SoundDuration":117862,"Delta":262380557},{"NoteNumber":79,"Velocity":74,"Duration":89079,"SoundDuration":89079,"Delta":262498419},{"NoteNumber":60,"Velocity":56,"Duration":118771,"SoundDuration":118771,"Delta":262498419},{"NoteNumber":63,"Velocity":44,"Duration":118772,"SoundDuration":118772,"Delta":262617191},{"NoteNumber":67,"Velocity":45,"Duration":133470,"SoundDuration":133470,"Delta":262735963},{"NoteNumber":72,"Velocity":71,"Duration":87067,"SoundDuration":87067,"Delta":262869433},{"NoteNumber":60,"Velocity":56,"Duration":116089,"SoundDuration":116089,"Delta":262869433},{"NoteNumber":74,"Velocity":73,"Duration":87067,"SoundDuration":87067,"Delta":262956501},{"NoteNumber":63,"Velocity":44,"Duration":116090,"SoundDuration":116090,"Delta":262985523},{"NoteNumber":75,"Velocity":75,"Duration":87067,"SoundDuration":87067,"Delta":263043568},{"NoteNumber":67,"Velocity":44,"Duration":122045,"SoundDuration":122045,"Delta":263101613},{"NoteNumber":77,"Velocity":78,"Duration":93023,"SoundDuration":93023,"Delta":263130636},{"NoteNumber":79,"Velocity":83,"Duration":88736,"SoundDuration":88736,"Delta":263223659},{"NoteNumber":58,"Velocity":56,"Duration":118315,"SoundDuration":118315,"Delta":263223659},{"NoteNumber":64,"Velocity":43,"Duration":118315,"SoundDuration":118315,"Delta":263341974},{"NoteNumber":67,"Velocity":43,"Duration":118315,"SoundDuration":118315,"Delta":263460290},{"NoteNumber":79,"Velocity":75,"Duration":88736,"SoundDuration":88736,"Delta":263578605},{"NoteNumber":58,"Velocity":56,"Duration":118315,"SoundDuration":118315,"Delta":263578605},{"NoteNumber":64,"Velocity":45,"Duration":118315,"SoundDuration":118315,"Delta":263696920},{"NoteNumber":67,"Velocity":46,"Duration":118315,"SoundDuration":118315,"Delta":263815236},{"NoteNumber":79,"Velocity":76,"Duration":89079,"SoundDuration":89079,"Delta":263933551},{"NoteNumber":58,"Velocity":55,"Duration":118771,"SoundDuration":118771,"Delta":263933551},{"NoteNumber":64,"Velocity":44,"Duration":118772,"SoundDuration":118772,"Delta":264052323},{"NoteNumber":67,"Velocity":45,"Duration":118771,"SoundDuration":118771,"Delta":264171095},{"NoteNumber":83,"Velocity":78,"Duration":44539,"SoundDuration":44539,"Delta":264245327},{"NoteNumber":84,"Velocity":92,"Duration":353586,"SoundDuration":353586,"Delta":264289867},{"NoteNumber":58,"Velocity":56,"Duration":117862,"SoundDuration":117862,"Delta":264289867},{"NoteNumber":64,"Velocity":51,"Duration":117862,"SoundDuration":117862,"Delta":264407729},{"NoteNumber":67,"Velocity":51,"Duration":117862,"SoundDuration":117862,"Delta":264525591},{"NoteNumber":79,"Velocity":85,"Duration":88396,"SoundDuration":88396,"Delta":264643453},{"NoteNumber":58,"Velocity":56,"Duration":117862,"SoundDuration":117862,"Delta":264643453},{"NoteNumber":64,"Velocity":41,"Duration":117862,"SoundDuration":117862,"Delta":264761315},{"NoteNumber":67,"Velocity":41,"Duration":117862,"SoundDuration":117862,"Delta":264879177},{"NoteNumber":79,"Velocity":74,"Duration":88396,"SoundDuration":88396,"Delta":264997039},{"NoteNumber":58,"Velocity":56,"Duration":117862,"SoundDuration":117862,"Delta":264997039},{"NoteNumber":64,"Velocity":44,"Duration":117862,"SoundDuration":117862,"Delta":265114901},{"NoteNumber":67,"Velocity":44,"Duration":117862,"SoundDuration":117862,"Delta":265232763},{"NoteNumber":79,"Velocity":74,"Duration":89079,"SoundDuration":89079,"Delta":265350625},{"NoteNumber":58,"Velocity":56,"Duration":118771,"SoundDuration":118771,"Delta":265350625},{"NoteNumber":64,"Velocity":44,"Duration":118772,"SoundDuration":118772,"Delta":265469397},{"NoteNumber":67,"Velocity":45,"Duration":133470,"SoundDuration":133470,"Delta":265588169},{"NoteNumber":73,"Velocity":71,"Duration":87067,"SoundDuration":87067,"Delta":265721639},{"NoteNumber":58,"Velocity":56,"Duration":116089,"SoundDuration":116089,"Delta":265721639},{"NoteNumber":74,"Velocity":73,"Duration":87067,"SoundDuration":87067,"Delta":265808707},{"NoteNumber":64,"Velocity":44,"Duration":116090,"SoundDuration":116090,"Delta":265837729},{"NoteNumber":76,"Velocity":75,"Duration":87067,"SoundDuration":87067,"Delta":265895774},{"NoteNumber":67,"Velocity":44,"Duration":122045,"SoundDuration":122045,"Delta":265953819},{"NoteNumber":77,"Velocity":78,"Duration":93023,"SoundDuration":93023,"Delta":265982842},{"NoteNumber":79,"Velocity":85,"Duration":88396,"SoundDuration":88396,"Delta":266075865},{"NoteNumber":57,"Velocity":50,"Duration":117862,"SoundDuration":117862,"Delta":266075865},{"NoteNumber":64,"Velocity":38,"Duration":117862,"SoundDuration":117862,"Delta":266193727},{"NoteNumber":67,"Velocity":38,"Duration":117862,"SoundDuration":117862,"Delta":266311589},{"NoteNumber":79,"Velocity":76,"Duration":88396,"SoundDuration":88396,"Delta":266429451},{"NoteNumber":57,"Velocity":50,"Duration":117862,"SoundDuration":117862,"Delta":266429451},{"NoteNumber":64,"Velocity":39,"Duration":117862,"SoundDuration":117862,"Delta":266547313},{"NoteNumber":67,"Velocity":39,"Duration":117862,"SoundDuration":117862,"Delta":266665175},{"NoteNumber":79,"Velocity":76,"Duration":89079,"SoundDuration":89079,"Delta":266783037},{"NoteNumber":57,"Velocity":50,"Duration":118771,"SoundDuration":118771,"Delta":266783037},{"NoteNumber":64,"Velocity":39,"Duration":118772,"SoundDuration":118772,"Delta":266901809},{"NoteNumber":67,"Velocity":40,"Duration":133470,"SoundDuration":133470,"Delta":267020581},{"NoteNumber":79,"Velocity":80,"Duration":116089,"SoundDuration":116089,"Delta":267154052},{"NoteNumber":57,"Velocity":50,"Duration":116089,"SoundDuration":116089,"Delta":267154052},{"NoteNumber":85,"Velocity":73,"Duration":116090,"SoundDuration":116090,"Delta":267270142},{"NoteNumber":64,"Velocity":39,"Duration":116090,"SoundDuration":116090,"Delta":267270142},{"NoteNumber":88,"Velocity":73,"Duration":122045,"SoundDuration":122045,"Delta":267386232},{"NoteNumber":67,"Velocity":39,"Duration":122045,"SoundDuration":122045,"Delta":267386232},{"NoteNumber":77,"Velocity":85,"Duration":88396,"SoundDuration":88396,"Delta":267508277},{"NoteNumber":57,"Velocity":50,"Duration":117862,"SoundDuration":117862,"Delta":267508277},{"NoteNumber":62,"Velocity":36,"Duration":117862,"SoundDuration":117862,"Delta":267626139},{"NoteNumber":65,"Velocity":36,"Duration":117862,"SoundDuration":117862,"Delta":267744001},{"NoteNumber":77,"Velocity":74,"Duration":88396,"SoundDuration":88396,"Delta":267861863},{"NoteNumber":57,"Velocity":50,"Duration":117862,"SoundDuration":117862,"Delta":267861863},{"NoteNumber":62,"Velocity":39,"Duration":117862,"SoundDuration":117862,"Delta":267979725},{"NoteNumber":65,"Velocity":39,"Duration":117862,"SoundDuration":117862,"Delta":268097587},{"NoteNumber":77,"Velocity":74,"Duration":89079,"SoundDuration":89079,"Delta":268215449},{"NoteNumber":57,"Velocity":50,"Duration":118771,"SoundDuration":118771,"Delta":268215449},{"NoteNumber":62,"Velocity":39,"Duration":118772,"SoundDuration":118772,"Delta":268334221},{"NoteNumber":65,"Velocity":40,"Duration":133470,"SoundDuration":133470,"Delta":268452993},{"NoteNumber":77,"Velocity":80,"Duration":116089,"SoundDuration":116089,"Delta":268586464},{"NoteNumber":57,"Velocity":50,"Duration":116089,"SoundDuration":116089,"Delta":268586464},{"NoteNumber":81,"Velocity":73,"Duration":116090,"SoundDuration":116090,"Delta":268702554},{"NoteNumber":62,"Velocity":39,"Duration":116090,"SoundDuration":116090,"Delta":268702554},{"NoteNumber":86,"Velocity":73,"Duration":122045,"SoundDuration":122045,"Delta":268818644},{"NoteNumber":65,"Velocity":39,"Duration":122045,"SoundDuration":122045,"Delta":268818644},{"NoteNumber":77,"Velocity":75,"Duration":345662,"SoundDuration":345662,"Delta":268940690},{"NoteNumber":55,"Velocity":50,"Duration":115220,"SoundDuration":115220,"Delta":268940690},{"NoteNumber":59,"Velocity":38,"Duration":115220,"SoundDuration":115220,"Delta":269055910},{"NoteNumber":62,"Velocity":40,"Duration":115220,"SoundDuration":115220,"Delta":269171131},{"NoteNumber":77,"Velocity":69,"Duration":261202,"SoundDuration":261202,"Delta":269286352},{"NoteNumber":55,"Velocity":50,"Duration":116089,"SoundDuration":116089,"Delta":269286352},{"NoteNumber":59,"Velocity":40,"Duration":116090,"SoundDuration":116090,"Delta":269402442},{"NoteNumber":62,"Velocity":40,"Duration":130346,"SoundDuration":130346,"Delta":269518532},{"NoteNumber":79,"Velocity":65,"Duration":101323,"SoundDuration":101323,"Delta":269547554},{"NoteNumber":76,"Velocity":75,"Duration":87067,"SoundDuration":87067,"Delta":269648878},{"NoteNumber":55,"Velocity":50,"Duration":116089,"SoundDuration":116089,"Delta":269648878},{"NoteNumber":60,"Velocity":38,"Duration":116090,"SoundDuration":116090,"Delta":269764968},{"NoteNumber":64,"Velocity":39,"Duration":116089,"SoundDuration":116089,"Delta":269881058},{"NoteNumber":76,"Velocity":75,"Duration":259246,"SoundDuration":259246,"Delta":269997148},{"NoteNumber":55,"Velocity":50,"Duration":115220,"SoundDuration":115220,"Delta":269997148},{"NoteNumber":60,"Velocity":41,"Duration":115220,"SoundDuration":115220,"Delta":270112369},{"NoteNumber":64,"Velocity":41,"Duration":129449,"SoundDuration":129449,"Delta":270227589},{"NoteNumber":77,"Velocity":70,"Duration":100643,"SoundDuration":100643,"Delta":270256395},{"NoteNumber":74,"Velocity":75,"Duration":86415,"SoundDuration":86415,"Delta":270357039},{"NoteNumber":55,"Velocity":50,"Duration":115220,"SoundDuration":115220,"Delta":270357039},{"NoteNumber":62,"Velocity":38,"Duration":115220,"SoundDuration":115220,"Delta":270472259},{"NoteNumber":65,"Velocity":40,"Duration":115220,"SoundDuration":115220,"Delta":270587480},{"NoteNumber":74,"Velocity":69,"Duration":261202,"SoundDuration":261202,"Delta":270702701},{"NoteNumber":55,"Velocity":50,"Duration":116089,"SoundDuration":116089,"Delta":270702701},{"NoteNumber":62,"Velocity":40,"Duration":116090,"SoundDuration":116090,"Delta":270818791},{"NoteNumber":65,"Velocity":40,"Duration":130346,"SoundDuration":130346,"Delta":270934881},{"NoteNumber":76,"Velocity":65,"Duration":101323,"SoundDuration":101323,"Delta":270963903},{"NoteNumber":72,"Velocity":75,"Duration":87067,"SoundDuration":87067,"Delta":271065227},{"NoteNumber":55,"Velocity":50,"Duration":116089,"SoundDuration":116089,"Delta":271065227},{"NoteNumber":60,"Velocity":43,"Duration":116090,"SoundDuration":116090,"Delta":271181317},{"NoteNumber":64,"Velocity":44,"Duration":116089,"SoundDuration":116089,"Delta":271297407},{"NoteNumber":72,"Velocity":57,"Duration":117862,"SoundDuration":117862,"Delta":271413497},{"NoteNumber":55,"Velocity":39,"Duration":117862,"SoundDuration":117862,"Delta":271413497},{"NoteNumber":76,"Velocity":52,"Duration":117862,"SoundDuration":117862,"Delta":271531359},{"NoteNumber":60,"Velocity":35,"Duration":117862,"SoundDuration":117862,"Delta":271531359},{"NoteNumber":79,"Velocity":53,"Duration":117862,"SoundDuration":117862,"Delta":271649221},{"NoteNumber":64,"Velocity":35,"Duration":117862,"SoundDuration":117862,"Delta":271649221},{"NoteNumber":77,"Velocity":57,"Duration":172830,"SoundDuration":172830,"Delta":271767083},{"NoteNumber":55,"Velocity":39,"Duration":115220,"SoundDuration":115220,"Delta":271767083},{"NoteNumber":59,"Velocity":30,"Duration":115220,"SoundDuration":115220,"Delta":271882304},{"NoteNumber":79,"Velocity":57,"Duration":57610,"SoundDuration":57610,"Delta":271939914},{"NoteNumber":77,"Velocity":49,"Duration":57610,"SoundDuration":57610,"Delta":271997524},{"NoteNumber":62,"Velocity":31,"Duration":115220,"SoundDuration":115220,"Delta":271997524},{"NoteNumber":76,"Velocity":49,"Duration":57610,"SoundDuration":57610,"Delta":272055135},{"NoteNumber":77,"Velocity":52,"Duration":261202,"SoundDuration":261202,"Delta":272112745},{"NoteNumber":55,"Velocity":39,"Duration":116089,"SoundDuration":116089,"Delta":272112745},{"NoteNumber":59,"Velocity":31,"Duration":116090,"SoundDuration":116090,"Delta":272228835},{"NoteNumber":62,"Velocity":31,"Duration":130346,"SoundDuration":130346,"Delta":272344925},{"NoteNumber":79,"Velocity":49,"Duration":101323,"SoundDuration":101323,"Delta":272373948},{"NoteNumber":76,"Velocity":57,"Duration":174134,"SoundDuration":174134,"Delta":272475272},{"NoteNumber":55,"Velocity":39,"Duration":116089,"SoundDuration":116089,"Delta":272475272},{"NoteNumber":60,"Velocity":30,"Duration":116090,"SoundDuration":116090,"Delta":272591362},{"NoteNumber":77,"Velocity":57,"Duration":58045,"SoundDuration":58045,"Delta":272649407},{"NoteNumber":76,"Velocity":50,"Duration":58044,"SoundDuration":58044,"Delta":272707452},{"NoteNumber":64,"Velocity":30,"Duration":116089,"SoundDuration":116089,"Delta":272707452},{"NoteNumber":74,"Velocity":50,"Duration":58044,"SoundDuration":58044,"Delta":272765497},{"NoteNumber":76,"Velocity":57,"Duration":259246,"SoundDuration":259246,"Delta":272823542},{"NoteNumber":55,"Velocity":39,"Duration":115220,"SoundDuration":115220,"Delta":272823542},{"NoteNumber":60,"Velocity":32,"Duration":115220,"SoundDuration":115220,"Delta":272938762},{"NoteNumber":64,"Velocity":32,"Duration":129449,"SoundDuration":129449,"Delta":273053983},{"NoteNumber":77,"Velocity":53,"Duration":100643,"SoundDuration":100643,"Delta":273082788},{"NoteNumber":74,"Velocity":57,"Duration":172830,"SoundDuration":172830,"Delta":273183432},{"NoteNumber":55,"Velocity":39,"Duration":115220,"SoundDuration":115220,"Delta":273183432},{"NoteNumber":62,"Velocity":30,"Duration":115220,"SoundDuration":115220,"Delta":273298653},{"NoteNumber":76,"Velocity":61,"Duration":57610,"SoundDuration":57610,"Delta":273356263},{"NoteNumber":74,"Velocity":53,"Duration":57610,"SoundDuration":57610,"Delta":273413873},{"NoteNumber":65,"Velocity":31,"Duration":115220,"SoundDuration":115220,"Delta":273413873},{"NoteNumber":72,"Velocity":53,"Duration":57610,"SoundDuration":57610,"Delta":273471484},{"NoteNumber":74,"Velocity":53,"Duration":261202,"SoundDuration":261202,"Delta":273529094},{"NoteNumber":55,"Velocity":45,"Duration":116089,"SoundDuration":116089,"Delta":273529094},{"NoteNumber":62,"Velocity":36,"Duration":116090,"SoundDuration":116090,"Delta":273645184},{"NoteNumber":65,"Velocity":36,"Duration":130346,"SoundDuration":130346,"Delta":273761274},{"NoteNumber":76,"Velocity":55,"Duration":101323,"SoundDuration":101323,"Delta":273790297},{"NoteNumber":72,"Velocity":65,"Duration":174134,"SoundDuration":174134,"Delta":273891621},{"NoteNumber":55,"Velocity":50,"Duration":116089,"SoundDuration":116089,"Delta":273891621},{"NoteNumber":60,"Velocity":38,"Duration":116090,"SoundDuration":116090,"Delta":274007711},{"NoteNumber":74,"Velocity":61,"Duration":58045,"SoundDuration":58045,"Delta":274065756},{"NoteNumber":72,"Velocity":55,"Duration":58044,"SoundDuration":58044,"Delta":274123801},{"NoteNumber":64,"Velocity":38,"Duration":116089,"SoundDuration":116089,"Delta":274123801},{"NoteNumber":71,"Velocity":56,"Duration":58044,"SoundDuration":58044,"Delta":274181846},{"NoteNumber":72,"Velocity":57,"Duration":261202,"SoundDuration":261202,"Delta":274239891},{"NoteNumber":55,"Velocity":54,"Duration":116089,"SoundDuration":116089,"Delta":274239891},{"NoteNumber":60,"Velocity":43,"Duration":116089,"SoundDuration":116089,"Delta":274355981},{"NoteNumber":64,"Velocity":44,"Duration":116090,"SoundDuration":116090,"Delta":274472071},{"NoteNumber":74,"Velocity":61,"Duration":87067,"SoundDuration":87067,"Delta":274501093},{"NoteNumber":71,"Velocity":74,"Duration":348269,"SoundDuration":348269,"Delta":274588161},{"NoteNumber":55,"Velocity":58,"Duration":348269,"SoundDuration":348269,"Delta":274588161},{"NoteNumber":67,"Velocity":68,"Duration":95517,"SoundDuration":95517,"Delta":275222982},{"NoteNumber":55,"Velocity":62,"Duration":95517,"SoundDuration":95517,"Delta":275222982},{"NoteNumber":71,"Velocity":79,"Duration":286550,"SoundDuration":286550,"Delta":275318499},{"NoteNumber":59,"Velocity":68,"Duration":286550,"SoundDuration":286550,"Delta":275318499},{"NoteNumber":67,"Velocity":68,"Duration":95517,"SoundDuration":95517,"Delta":275605050},{"NoteNumber":55,"Velocity":62,"Duration":95517,"SoundDuration":95517,"Delta":275605050},{"NoteNumber":74,"Velocity":74,"Duration":286550,"SoundDuration":286550,"Delta":275700567},{"NoteNumber":62,"Velocity":68,"Duration":286550,"SoundDuration":286550,"Delta":275700567},{"NoteNumber":71,"Velocity":68,"Duration":111078,"SoundDuration":111078,"Delta":275987118},{"NoteNumber":59,"Velocity":64,"Duration":111078,"SoundDuration":111078,"Delta":275987118},{"NoteNumber":79,"Velocity":86,"Duration":380855,"SoundDuration":380855,"Delta":276098196},{"NoteNumber":67,"Velocity":80,"Duration":380855,"SoundDuration":380855,"Delta":276098196},{"NoteNumber":55,"Velocity":66,"Duration":95213,"SoundDuration":95213,"Delta":276764694},{"NoteNumber":43,"Velocity":62,"Duration":95213,"SoundDuration":95213,"Delta":276764694},{"NoteNumber":59,"Velocity":77,"Duration":126952,"SoundDuration":126952,"Delta":276859908},{"NoteNumber":47,"Velocity":71,"Duration":126952,"SoundDuration":126952,"Delta":276859908},{"NoteNumber":55,"Velocity":69,"Duration":126952,"SoundDuration":126952,"Delta":276986860},{"NoteNumber":43,"Velocity":62,"Duration":126952,"SoundDuration":126952,"Delta":276986860},{"NoteNumber":59,"Velocity":69,"Duration":126951,"SoundDuration":126951,"Delta":277113812},{"NoteNumber":47,"Velocity":62,"Duration":126951,"SoundDuration":126951,"Delta":277113812},{"NoteNumber":62,"Velocity":80,"Duration":126952,"SoundDuration":126952,"Delta":277240764},{"NoteNumber":50,"Velocity":68,"Duration":126952,"SoundDuration":126952,"Delta":277240764},{"NoteNumber":59,"Velocity":70,"Duration":126952,"SoundDuration":126952,"Delta":277367716},{"NoteNumber":47,"Velocity":64,"Duration":126952,"SoundDuration":126952,"Delta":277367716},{"NoteNumber":62,"Velocity":70,"Duration":142816,"SoundDuration":142816,"Delta":277494668},{"NoteNumber":50,"Velocity":64,"Duration":142816,"SoundDuration":142816,"Delta":277494668},{"NoteNumber":67,"Velocity":84,"Duration":380855,"SoundDuration":380855,"Delta":277637484},{"NoteNumber":55,"Velocity":74,"Duration":380855,"SoundDuration":380855,"Delta":277637484},{"NoteNumber":43,"Velocity":95,"Duration":571283,"SoundDuration":571283,"Delta":278399196},{"NoteNumber":31,"Velocity":84,"Duration":571283,"SoundDuration":571283,"Delta":278399196},{"NoteNumber":43,"Velocity":89,"Duration":190427,"SoundDuration":190427,"Delta":278970480},{"NoteNumber":31,"Velocity":78,"Duration":190427,"SoundDuration":190427,"Delta":278970480},{"NoteNumber":43,"Velocity":97,"Duration":380856,"SoundDuration":380856,"Delta":279160908},{"NoteNumber":31,"Velocity":84,"Duration":380856,"SoundDuration":380856,"Delta":279160908},{"NoteNumber":52,"Velocity":45,"Duration":118315,"SoundDuration":118315,"Delta":280684332},{"NoteNumber":55,"Velocity":36,"Duration":118315,"SoundDuration":118315,"Delta":280804866},{"NoteNumber":60,"Velocity":36,"Duration":118315,"SoundDuration":118315,"Delta":280920963},{"NoteNumber":52,"Velocity":45,"Duration":118315,"SoundDuration":118315,"Delta":281039278},{"NoteNumber":55,"Velocity":38,"Duration":118315,"SoundDuration":118315,"Delta":281159812},{"NoteNumber":60,"Velocity":38,"Duration":118315,"SoundDuration":118315,"Delta":281275909},{"NoteNumber":52,"Velocity":45,"Duration":118771,"SoundDuration":118771,"Delta":281394224},{"NoteNumber":55,"Velocity":36,"Duration":118771,"SoundDuration":118771,"Delta":281515223},{"NoteNumber":60,"Velocity":36,"Duration":118771,"SoundDuration":118771,"Delta":281631768},{"NoteNumber":69,"Velocity":57,"Duration":88396,"SoundDuration":88396,"Delta":281750540},{"NoteNumber":53,"Velocity":45,"Duration":117862,"SoundDuration":117862,"Delta":281750540},{"NoteNumber":67,"Velocity":50,"Duration":88396,"SoundDuration":88396,"Delta":281838937},{"NoteNumber":55,"Velocity":36,"Duration":117862,"SoundDuration":117862,"Delta":281868402},{"NoteNumber":66,"Velocity":50,"Duration":88396,"SoundDuration":88396,"Delta":281927333},{"NoteNumber":59,"Velocity":37,"Duration":117862,"SoundDuration":117862,"Delta":281986264},{"NoteNumber":67,"Velocity":50,"Duration":88396,"SoundDuration":88396,"Delta":282015730},{"NoteNumber":72,"Velocity":63,"Duration":88396,"SoundDuration":88396,"Delta":282104126},{"NoteNumber":52,"Velocity":45,"Duration":117862,"SoundDuration":117862,"Delta":282104126},{"NoteNumber":55,"Velocity":36,"Duration":117862,"SoundDuration":117862,"Delta":282218305},{"NoteNumber":60,"Velocity":36,"Duration":117862,"SoundDuration":117862,"Delta":282339850},{"NoteNumber":72,"Velocity":53,"Duration":88396,"SoundDuration":88396,"Delta":282457712},{"NoteNumber":52,"Velocity":45,"Duration":117862,"SoundDuration":117862,"Delta":282457712},{"NoteNumber":55,"Velocity":38,"Duration":117862,"SoundDuration":117862,"Delta":282571891},{"NoteNumber":60,"Velocity":39,"Duration":117862,"SoundDuration":117862,"Delta":282693436},{"NoteNumber":52,"Velocity":46,"Duration":118771,"SoundDuration":118771,"Delta":282811298},{"NoteNumber":55,"Velocity":37,"Duration":118772,"SoundDuration":118772,"Delta":282930070},{"NoteNumber":60,"Velocity":37,"Duration":118771,"SoundDuration":118771,"Delta":283048842},{"NoteNumber":69,"Velocity":60,"Duration":88396,"SoundDuration":88396,"Delta":283167614},{"NoteNumber":53,"Velocity":47,"Duration":117862,"SoundDuration":117862,"Delta":283167614},{"NoteNumber":67,"Velocity":53,"Duration":88396,"SoundDuration":88396,"Delta":283256011},{"NoteNumber":55,"Velocity":38,"Duration":117862,"SoundDuration":117862,"Delta":283285476},{"NoteNumber":66,"Velocity":53,"Duration":88396,"SoundDuration":88396,"Delta":283344407},{"NoteNumber":59,"Velocity":39,"Duration":117862,"SoundDuration":117862,"Delta":283403338},{"NoteNumber":67,"Velocity":53,"Duration":88396,"SoundDuration":88396,"Delta":283432804},{"NoteNumber":72,"Velocity":68,"Duration":88736,"SoundDuration":88736,"Delta":283521200},{"NoteNumber":52,"Velocity":48,"Duration":118315,"SoundDuration":118315,"Delta":283521200},{"NoteNumber":55,"Velocity":38,"Duration":118315,"SoundDuration":118315,"Delta":283639515},{"NoteNumber":60,"Velocity":39,"Duration":118315,"SoundDuration":118315,"Delta":283757831},{"NoteNumber":72,"Velocity":57,"Duration":88736,"SoundDuration":88736,"Delta":283876146},{"NoteNumber":52,"Velocity":49,"Duration":118315,"SoundDuration":118315,"Delta":283876146},{"NoteNumber":55,"Velocity":41,"Duration":118315,"SoundDuration":118315,"Delta":283994461},{"NoteNumber":60,"Velocity":42,"Duration":118315,"SoundDuration":118315,"Delta":284112777},{"NoteNumber":52,"Velocity":50,"Duration":118771,"SoundDuration":118771,"Delta":284231092},{"NoteNumber":55,"Velocity":40,"Duration":118772,"SoundDuration":118772,"Delta":284349864},{"NoteNumber":60,"Velocity":40,"Duration":118771,"SoundDuration":118771,"Delta":284468636},{"NoteNumber":69,"Velocity":64,"Duration":88396,"SoundDuration":88396,"Delta":284587408},{"NoteNumber":53,"Velocity":51,"Duration":117862,"SoundDuration":117862,"Delta":284587408},{"NoteNumber":67,"Velocity":57,"Duration":88396,"SoundDuration":88396,"Delta":284675805},{"NoteNumber":55,"Velocity":41,"Duration":117862,"SoundDuration":117862,"Delta":284705270},{"NoteNumber":66,"Velocity":57,"Duration":88396,"SoundDuration":88396,"Delta":284764201},{"NoteNumber":59,"Velocity":42,"Duration":117862,"SoundDuration":117862,"Delta":284823132},{"NoteNumber":67,"Velocity":57,"Duration":88396,"SoundDuration":88396,"Delta":284852598},{"NoteNumber":72,"Velocity":73,"Duration":354945,"SoundDuration":354945,"Delta":284940994},{"NoteNumber":52,"Velocity":52,"Duration":118315,"SoundDuration":118315,"Delta":284940994},{"NoteNumber":55,"Velocity":41,"Duration":118315,"SoundDuration":118315,"Delta":285059309},{"NoteNumber":60,"Velocity":42,"Duration":118315,"SoundDuration":118315,"Delta":285177625},{"NoteNumber":74,"Velocity":78,"Duration":88736,"SoundDuration":88736,"Delta":285295940},{"NoteNumber":52,"Velocity":54,"Duration":118315,"SoundDuration":118315,"Delta":285295940},{"NoteNumber":72,"Velocity":65,"Duration":88736,"SoundDuration":88736,"Delta":285384677},{"NoteNumber":55,"Velocity":45,"Duration":118315,"SoundDuration":118315,"Delta":285414255},{"NoteNumber":71,"Velocity":66,"Duration":88736,"SoundDuration":88736,"Delta":285473413},{"NoteNumber":60,"Velocity":46,"Duration":118315,"SoundDuration":118315,"Delta":285532571},{"NoteNumber":72,"Velocity":66,"Duration":88736,"SoundDuration":88736,"Delta":285562150},{"NoteNumber":74,"Velocity":80,"Duration":356315,"SoundDuration":356315,"Delta":285650886},{"NoteNumber":47,"Velocity":61,"Duration":118771,"SoundDuration":118771,"Delta":285650886},{"NoteNumber":50,"Velocity":51,"Duration":118772,"SoundDuration":118772,"Delta":285769658},{"NoteNumber":55,"Velocity":52,"Duration":118771,"SoundDuration":118771,"Delta":285888430},{"NoteNumber":76,"Velocity":82,"Duration":88396,"SoundDuration":88396,"Delta":286007202},{"NoteNumber":47,"Velocity":62,"Duration":117862,"SoundDuration":117862,"Delta":286007202},{"NoteNumber":74,"Velocity":68,"Duration":88396,"SoundDuration":88396,"Delta":286095599},{"NoteNumber":50,"Velocity":52,"Duration":117862,"SoundDuration":117862,"Delta":286125064},{"NoteNumber":72,"Velocity":68,"Duration":88396,"SoundDuration":88396,"Delta":286183995},{"NoteNumber":55,"Velocity":52,"Duration":117862,"SoundDuration":117862,"Delta":286242926},{"NoteNumber":74,"Velocity":69,"Duration":88396,"SoundDuration":88396,"Delta":286272392},{"NoteNumber":76,"Velocity":85,"Duration":354945,"SoundDuration":354945,"Delta":286360788},{"NoteNumber":48,"Velocity":65,"Duration":118315,"SoundDuration":118315,"Delta":286360788},{"NoteNumber":52,"Velocity":54,"Duration":118315,"SoundDuration":118315,"Delta":286479103},{"NoteNumber":55,"Velocity":52,"Duration":118315,"SoundDuration":118315,"Delta":286597419},{"NoteNumber":77,"Velocity":86,"Duration":88736,"SoundDuration":88736,"Delta":286715734},{"NoteNumber":48,"Velocity":69,"Duration":118315,"SoundDuration":118315,"Delta":286715734},{"NoteNumber":76,"Velocity":75,"Duration":88736,"SoundDuration":88736,"Delta":286804471},{"NoteNumber":52,"Velocity":52,"Duration":118315,"SoundDuration":118315,"Delta":286834049},{"NoteNumber":74,"Velocity":75,"Duration":88736,"SoundDuration":88736,"Delta":286893207},{"NoteNumber":55,"Velocity":54,"Duration":118315,"SoundDuration":118315,"Delta":286952365},{"NoteNumber":76,"Velocity":76,"Duration":88736,"SoundDuration":88736,"Delta":286981944},{"NoteNumber":77,"Velocity":85,"Duration":356315,"SoundDuration":356315,"Delta":287070680},{"NoteNumber":50,"Velocity":66,"Duration":118771,"SoundDuration":118771,"Delta":287070680},{"NoteNumber":53,"Velocity":56,"Duration":118772,"SoundDuration":118772,"Delta":287189452},{"NoteNumber":59,"Velocity":56,"Duration":118771,"SoundDuration":118771,"Delta":287308224},{"NoteNumber":79,"Velocity":87,"Duration":90612,"SoundDuration":90612,"Delta":287426996},{"NoteNumber":50,"Velocity":71,"Duration":120816,"SoundDuration":120816,"Delta":287426996},{"NoteNumber":77,"Velocity":75,"Duration":90612,"SoundDuration":90612,"Delta":287517609},{"NoteNumber":53,"Velocity":58,"Duration":120816,"SoundDuration":120816,"Delta":287547813},{"NoteNumber":76,"Velocity":78,"Duration":90612,"SoundDuration":90612,"Delta":287608221},{"NoteNumber":59,"Velocity":59,"Duration":139661,"SoundDuration":139661,"Delta":287668629},{"NoteNumber":77,"Velocity":76,"Duration":109457,"SoundDuration":109457,"Delta":287698834},{"NoteNumber":79,"Velocity":98,"Duration":1107713,"SoundDuration":1107713,"Delta":287808291},{"NoteNumber":52,"Velocity":74,"Duration":120452,"SoundDuration":120452,"Delta":287808291},{"NoteNumber":55,"Velocity":60,"Duration":120452,"SoundDuration":120452,"Delta":287927991},{"NoteNumber":60,"Velocity":61,"Duration":120457,"SoundDuration":120457,"Delta":288047691},{"NoteNumber":52,"Velocity":73,"Duration":121519,"SoundDuration":121519,"Delta":288167391},{"NoteNumber":55,"Velocity":62,"Duration":122585,"SoundDuration":122585,"Delta":288288148},{"NoteNumber":60,"Velocity":62,"Duration":123739,"SoundDuration":123739,"Delta":288412272},{"NoteNumber":52,"Velocity":76,"Duration":378434,"SoundDuration":378434,"Delta":288537569},{"NoteNumber":68,"Velocity":77,"Duration":398565,"SoundDuration":398565,"Delta":288916004},{"NoteNumber":80,"Velocity":92,"Duration":398565,"SoundDuration":398565,"Delta":288916004},{"NoteNumber":69,"Velocity":82,"Duration":369140,"SoundDuration":369140,"Delta":289314569},{"NoteNumber":81,"Velocity":97,"Duration":369140,"SoundDuration":369140,"Delta":289314569},{"NoteNumber":53,"Velocity":72,"Duration":369140,"SoundDuration":369140,"Delta":289314569},{"NoteNumber":41,"Velocity":72,"Duration":369140,"SoundDuration":369140,"Delta":289314569},{"NoteNumber":71,"Velocity":71,"Duration":369139,"SoundDuration":369139,"Delta":289683709},{"NoteNumber":83,"Velocity":84,"Duration":369139,"SoundDuration":369139,"Delta":289683709},{"NoteNumber":84,"Velocity":88,"Duration":369140,"SoundDuration":369140,"Delta":290052849},{"NoteNumber":72,"Velocity":75,"Duration":369140,"SoundDuration":369140,"Delta":290052849},{"NoteNumber":85,"Velocity":90,"Duration":369140,"SoundDuration":369140,"Delta":290421989},{"NoteNumber":73,"Velocity":76,"Duration":369140,"SoundDuration":369140,"Delta":290421989},{"NoteNumber":74,"Velocity":81,"Duration":369140,"SoundDuration":369140,"Delta":290791129},{"NoteNumber":86,"Velocity":96,"Duration":369140,"SoundDuration":369140,"Delta":290791129},{"NoteNumber":76,"Velocity":81,"Duration":394632,"SoundDuration":394632,"Delta":291160269},{"NoteNumber":88,"Velocity":96,"Duration":394632,"SoundDuration":394632,"Delta":291160269},{"NoteNumber":77,"Velocity":80,"Duration":799680,"SoundDuration":799680,"Delta":291554902},{"NoteNumber":89,"Velocity":95,"Duration":377264,"SoundDuration":377264,"Delta":291554902},{"NoteNumber":86,"Velocity":93,"Duration":422415,"SoundDuration":422415,"Delta":291932166},{"NoteNumber":84,"Velocity":70,"Duration":696421,"SoundDuration":696421,"Delta":292354582},{"NoteNumber":79,"Velocity":59,"Duration":696421,"SoundDuration":696421,"Delta":292354582},{"NoteNumber":67,"Velocity":42,"Duration":1515972,"SoundDuration":1515972,"Delta":292354582},{"NoteNumber":76,"Velocity":42,"Duration":742849,"SoundDuration":742849,"Delta":292354582},{"NoteNumber":88,"Velocity":58,"Duration":46428,"SoundDuration":46428,"Delta":293051004},{"NoteNumber":86,"Velocity":66,"Duration":564121,"SoundDuration":564121,"Delta":293097432},{"NoteNumber":83,"Velocity":66,"Duration":773122,"SoundDuration":773122,"Delta":293097432},{"NoteNumber":77,"Velocity":43,"Duration":773122,"SoundDuration":773122,"Delta":293097432},{"NoteNumber":84,"Velocity":56,"Duration":209001,"SoundDuration":209001,"Delta":293661553},{"NoteNumber":84,"Velocity":66,"Duration":370278,"SoundDuration":370278,"Delta":293870554},{"NoteNumber":76,"Velocity":40,"Duration":370278,"SoundDuration":370278,"Delta":293870554},{"NoteNumber":72,"Velocity":40,"Duration":370278,"SoundDuration":370278,"Delta":293870554},{"NoteNumber":76,"Velocity":57,"Duration":119731,"SoundDuration":119731,"Delta":294981391},{"NoteNumber":72,"Velocity":36,"Duration":374562,"SoundDuration":374562,"Delta":294981391},{"NoteNumber":80,"Velocity":61,"Duration":119731,"SoundDuration":119731,"Delta":295101123},{"NoteNumber":81,"Velocity":61,"Duration":135098,"SoundDuration":135098,"Delta":295220855},{"NoteNumber":79,"Velocity":58,"Duration":89798,"SoundDuration":89798,"Delta":295355953},{"NoteNumber":74,"Velocity":38,"Duration":89798,"SoundDuration":89798,"Delta":295355953},{"NoteNumber":71,"Velocity":38,"Duration":89798,"SoundDuration":89798,"Delta":295355953},{"NoteNumber":79,"Velocity":49,"Duration":89798,"SoundDuration":89798,"Delta":295715148},{"NoteNumber":79,"Velocity":49,"Duration":89798,"SoundDuration":89798,"Delta":296074343},{"NoteNumber":72,"Velocity":57,"Duration":119731,"SoundDuration":119731,"Delta":296447104},{"NoteNumber":69,"Velocity":36,"Duration":374562,"SoundDuration":374562,"Delta":296447104},{"NoteNumber":76,"Velocity":44,"Duration":119731,"SoundDuration":119731,"Delta":296566836},{"NoteNumber":77,"Velocity":44,"Duration":135098,"SoundDuration":135098,"Delta":296686568},{"NoteNumber":76,"Velocity":58,"Duration":89798,"SoundDuration":89798,"Delta":296821666},{"NoteNumber":71,"Velocity":38,"Duration":89798,"SoundDuration":89798,"Delta":296821666},{"NoteNumber":67,"Velocity":38,"Duration":89798,"SoundDuration":89798,"Delta":296821666},{"NoteNumber":76,"Velocity":49,"Duration":89798,"SoundDuration":89798,"Delta":297180861},{"NoteNumber":76,"Velocity":49,"Duration":89798,"SoundDuration":89798,"Delta":297540056},{"NoteNumber":69,"Velocity":57,"Duration":119731,"SoundDuration":119731,"Delta":297899251},{"NoteNumber":65,"Velocity":36,"Duration":374562,"SoundDuration":374562,"Delta":297899251},{"NoteNumber":73,"Velocity":44,"Duration":119731,"SoundDuration":119731,"Delta":298018983},{"NoteNumber":74,"Velocity":44,"Duration":135098,"SoundDuration":135098,"Delta":298138715},{"NoteNumber":72,"Velocity":58,"Duration":89798,"SoundDuration":89798,"Delta":298273813},{"NoteNumber":67,"Velocity":38,"Duration":89798,"SoundDuration":89798,"Delta":298273813},{"NoteNumber":64,"Velocity":38,"Duration":89798,"SoundDuration":89798,"Delta":298273813},{"NoteNumber":72,"Velocity":49,"Duration":89798,"SoundDuration":89798,"Delta":298633008},{"NoteNumber":72,"Velocity":49,"Duration":89798,"SoundDuration":89798,"Delta":298992203},{"NoteNumber":76,"Velocity":61,"Duration":265424,"SoundDuration":265424,"Delta":299351398},{"NoteNumber":60,"Velocity":36,"Duration":353899,"SoundDuration":353899,"Delta":299351398},{"NoteNumber":64,"Velocity":36,"Duration":353899,"SoundDuration":353899,"Delta":299351398},{"NoteNumber":72,"Velocity":54,"Duration":88474,"SoundDuration":88474,"Delta":299616822},{"NoteNumber":69,"Velocity":62,"Duration":88474,"SoundDuration":88474,"Delta":299705297},{"NoteNumber":65,"Velocity":41,"Duration":88474,"SoundDuration":88474,"Delta":299705297},{"NoteNumber":53,"Velocity":41,"Duration":88474,"SoundDuration":88474,"Delta":299705297},{"NoteNumber":77,"Velocity":61,"Duration":268592,"SoundDuration":268592,"Delta":300069116},{"NoteNumber":74,"Velocity":53,"Duration":89530,"SoundDuration":89530,"Delta":300337708},{"NoteNumber":71,"Velocity":61,"Duration":89530,"SoundDuration":89530,"Delta":300427239},{"NoteNumber":55,"Velocity":38,"Duration":89530,"SoundDuration":89530,"Delta":300427239},{"NoteNumber":62,"Velocity":38,"Duration":89530,"SoundDuration":89530,"Delta":300427239},{"NoteNumber":74,"Velocity":60,"Duration":269440,"SoundDuration":269440,"Delta":300791440},{"NoteNumber":71,"Velocity":54,"Duration":91441,"SoundDuration":91441,"Delta":301060881},{"NoteNumber":72,"Velocity":61,"Duration":88736,"SoundDuration":88736,"Delta":301152322},{"NoteNumber":64,"Velocity":41,"Duration":88736,"SoundDuration":88736,"Delta":301152322},{"NoteNumber":60,"Velocity":41,"Duration":88736,"SoundDuration":88736,"Delta":301152322},{"NoteNumber":76,"Velocity":88,"Duration":119731,"SoundDuration":119731,"Delta":302217160},{"NoteNumber":72,"Velocity":70,"Duration":374562,"SoundDuration":374562,"Delta":302217160},{"NoteNumber":80,"Velocity":61,"Duration":119731,"SoundDuration":119731,"Delta":302336891},{"NoteNumber":81,"Velocity":61,"Duration":135098,"SoundDuration":135098,"Delta":302456623},{"NoteNumber":74,"Velocity":72,"Duration":119731,"SoundDuration":119731,"Delta":302591722},{"NoteNumber":71,"Velocity":44,"Duration":89798,"SoundDuration":89798,"Delta":302591722},{"NoteNumber":78,"Velocity":47,"Duration":119731,"SoundDuration":119731,"Delta":302711453},{"NoteNumber":79,"Velocity":47,"Duration":119731,"SoundDuration":119731,"Delta":302831185},{"NoteNumber":74,"Velocity":66,"Duration":119731,"SoundDuration":119731,"Delta":302950917},{"NoteNumber":71,"Velocity":35,"Duration":89798,"SoundDuration":89798,"Delta":302950917},{"NoteNumber":78,"Velocity":47,"Duration":119731,"SoundDuration":119731,"Delta":303070648},{"NoteNumber":79,"Velocity":47,"Duration":119731,"SoundDuration":119731,"Delta":303190380},{"NoteNumber":74,"Velocity":66,"Duration":119731,"SoundDuration":119731,"Delta":303310112},{"NoteNumber":71,"Velocity":35,"Duration":89798,"SoundDuration":89798,"Delta":303310112},{"NoteNumber":78,"Velocity":51,"Duration":119731,"SoundDuration":119731,"Delta":303429843},{"NoteNumber":79,"Velocity":52,"Duration":133297,"SoundDuration":133297,"Delta":303549575},{"NoteNumber":76,"Velocity":88,"Duration":119731,"SoundDuration":119731,"Delta":303682873},{"NoteNumber":72,"Velocity":70,"Duration":374562,"SoundDuration":374562,"Delta":303682873},{"NoteNumber":80,"Velocity":61,"Duration":119731,"SoundDuration":119731,"Delta":303802604},{"NoteNumber":81,"Velocity":61,"Duration":135098,"SoundDuration":135098,"Delta":303922336},{"NoteNumber":74,"Velocity":69,"Duration":119731,"SoundDuration":119731,"Delta":304057435},{"NoteNumber":71,"Velocity":44,"Duration":89798,"SoundDuration":89798,"Delta":304057435},{"NoteNumber":78,"Velocity":54,"Duration":119731,"SoundDuration":119731,"Delta":304177166},{"NoteNumber":79,"Velocity":55,"Duration":119731,"SoundDuration":119731,"Delta":304296898},{"NoteNumber":74,"Velocity":70,"Duration":119731,"SoundDuration":119731,"Delta":304416630},{"NoteNumber":71,"Velocity":32,"Duration":89798,"SoundDuration":89798,"Delta":304416630},{"NoteNumber":78,"Velocity":47,"Duration":119731,"SoundDuration":119731,"Delta":304536361},{"NoteNumber":79,"Velocity":47,"Duration":119731,"SoundDuration":119731,"Delta":304656093},{"NoteNumber":74,"Velocity":67,"Duration":119731,"SoundDuration":119731,"Delta":304775825},{"NoteNumber":71,"Velocity":32,"Duration":89798,"SoundDuration":89798,"Delta":304775825},{"NoteNumber":78,"Velocity":46,"Duration":119731,"SoundDuration":119731,"Delta":304895556},{"NoteNumber":79,"Velocity":49,"Duration":133297,"SoundDuration":133297,"Delta":305015288},{"NoteNumber":72,"Velocity":64,"Duration":119731,"SoundDuration":119731,"Delta":305148586},{"NoteNumber":69,"Velocity":63,"Duration":374562,"SoundDuration":374562,"Delta":305148586},{"NoteNumber":76,"Velocity":50,"Duration":119731,"SoundDuration":119731,"Delta":305268317},{"NoteNumber":77,"Velocity":50,"Duration":135098,"SoundDuration":135098,"Delta":305388049},{"NoteNumber":71,"Velocity":65,"Duration":119731,"SoundDuration":119731,"Delta":305523148},{"NoteNumber":67,"Velocity":39,"Duration":89798,"SoundDuration":89798,"Delta":305523148},{"NoteNumber":75,"Velocity":50,"Duration":119731,"SoundDuration":119731,"Delta":305642879},{"NoteNumber":76,"Velocity":50,"Duration":119731,"SoundDuration":119731,"Delta":305762611},{"NoteNumber":71,"Velocity":66,"Duration":119731,"SoundDuration":119731,"Delta":305882343},{"NoteNumber":67,"Velocity":30,"Duration":89798,"SoundDuration":89798,"Delta":305882343},{"NoteNumber":75,"Velocity":46,"Duration":119731,"SoundDuration":119731,"Delta":306002074},{"NoteNumber":76,"Velocity":46,"Duration":119731,"SoundDuration":119731,"Delta":306121806},{"NoteNumber":71,"Velocity":64,"Duration":119731,"SoundDuration":119731,"Delta":306241538},{"NoteNumber":67,"Velocity":30,"Duration":89798,"SoundDuration":89798,"Delta":306241538},{"NoteNumber":75,"Velocity":46,"Duration":119731,"SoundDuration":119731,"Delta":306361269},{"NoteNumber":76,"Velocity":46,"Duration":133297,"SoundDuration":133297,"Delta":306481001},{"NoteNumber":72,"Velocity":75,"Duration":119731,"SoundDuration":119731,"Delta":306614299},{"NoteNumber":69,"Velocity":58,"Duration":374562,"SoundDuration":374562,"Delta":306614299},{"NoteNumber":76,"Velocity":54,"Duration":119731,"SoundDuration":119731,"Delta":306734030},{"NoteNumber":77,"Velocity":54,"Duration":135098,"SoundDuration":135098,"Delta":306853762},{"NoteNumber":71,"Velocity":69,"Duration":119731,"SoundDuration":119731,"Delta":306988861},{"NoteNumber":67,"Velocity":39,"Duration":89798,"SoundDuration":89798,"Delta":306988861},{"NoteNumber":75,"Velocity":50,"Duration":119731,"SoundDuration":119731,"Delta":307108592},{"NoteNumber":76,"Velocity":50,"Duration":119731,"SoundDuration":119731,"Delta":307228324},{"NoteNumber":71,"Velocity":66,"Duration":119731,"SoundDuration":119731,"Delta":307348056},{"NoteNumber":67,"Velocity":28,"Duration":89798,"SoundDuration":89798,"Delta":307348056},{"NoteNumber":75,"Velocity":47,"Duration":119731,"SoundDuration":119731,"Delta":307467787},{"NoteNumber":76,"Velocity":47,"Duration":119731,"SoundDuration":119731,"Delta":307587519},{"NoteNumber":71,"Velocity":64,"Duration":119731,"SoundDuration":119731,"Delta":307707251},{"NoteNumber":67,"Velocity":28,"Duration":89798,"SoundDuration":89798,"Delta":307707251},{"NoteNumber":75,"Velocity":47,"Duration":119731,"SoundDuration":119731,"Delta":307826982},{"NoteNumber":76,"Velocity":48,"Duration":133297,"SoundDuration":133297,"Delta":307946714},{"NoteNumber":69,"Velocity":70,"Duration":119731,"SoundDuration":119731,"Delta":308080012},{"NoteNumber":65,"Velocity":56,"Duration":374562,"SoundDuration":374562,"Delta":308080012},{"NoteNumber":73,"Velocity":54,"Duration":119731,"SoundDuration":119731,"Delta":308199743},{"NoteNumber":74,"Velocity":54,"Duration":135098,"SoundDuration":135098,"Delta":308319475},{"NoteNumber":67,"Velocity":59,"Duration":119731,"SoundDuration":119731,"Delta":308454574},{"NoteNumber":64,"Velocity":39,"Duration":89798,"SoundDuration":89798,"Delta":308454574},{"NoteNumber":71,"Velocity":48,"Duration":119731,"SoundDuration":119731,"Delta":308574305},{"NoteNumber":72,"Velocity":46,"Duration":119731,"SoundDuration":119731,"Delta":308694037},{"NoteNumber":67,"Velocity":61,"Duration":119731,"SoundDuration":119731,"Delta":308813769},{"NoteNumber":64,"Velocity":28,"Duration":89798,"SoundDuration":89798,"Delta":308813769},{"NoteNumber":71,"Velocity":47,"Duration":119731,"SoundDuration":119731,"Delta":308933500},{"NoteNumber":72,"Velocity":50,"Duration":119731,"SoundDuration":119731,"Delta":309053232},{"NoteNumber":67,"Velocity":62,"Duration":119731,"SoundDuration":119731,"Delta":309172964},{"NoteNumber":64,"Velocity":29,"Duration":89798,"SoundDuration":89798,"Delta":309172964},{"NoteNumber":71,"Velocity":49,"Duration":119731,"SoundDuration":119731,"Delta":309292695},{"NoteNumber":72,"Velocity":49,"Duration":133297,"SoundDuration":133297,"Delta":309412427},{"NoteNumber":69,"Velocity":70,"Duration":119731,"SoundDuration":119731,"Delta":309545725},{"NoteNumber":65,"Velocity":56,"Duration":374562,"SoundDuration":374562,"Delta":309545725},{"NoteNumber":73,"Velocity":54,"Duration":119731,"SoundDuration":119731,"Delta":309665456},{"NoteNumber":74,"Velocity":54,"Duration":135098,"SoundDuration":135098,"Delta":309785188},{"NoteNumber":67,"Velocity":59,"Duration":119731,"SoundDuration":119731,"Delta":309920287},{"NoteNumber":64,"Velocity":39,"Duration":89798,"SoundDuration":89798,"Delta":309920287},{"NoteNumber":71,"Velocity":48,"Duration":119731,"SoundDuration":119731,"Delta":310040018},{"NoteNumber":72,"Velocity":46,"Duration":119731,"SoundDuration":119731,"Delta":310159750},{"NoteNumber":67,"Velocity":61,"Duration":119731,"SoundDuration":119731,"Delta":310279482},{"NoteNumber":64,"Velocity":28,"Duration":89798,"SoundDuration":89798,"Delta":310279482},{"NoteNumber":71,"Velocity":47,"Duration":119731,"SoundDuration":119731,"Delta":310399213},{"NoteNumber":72,"Velocity":50,"Duration":119731,"SoundDuration":119731,"Delta":310518945},{"NoteNumber":67,"Velocity":62,"Duration":119731,"SoundDuration":119731,"Delta":310638677},{"NoteNumber":64,"Velocity":29,"Duration":89798,"SoundDuration":89798,"Delta":310638677},{"NoteNumber":71,"Velocity":49,"Duration":119731,"SoundDuration":119731,"Delta":310758408},{"NoteNumber":72,"Velocity":49,"Duration":133297,"SoundDuration":133297,"Delta":310878140},{"NoteNumber":69,"Velocity":70,"Duration":119731,"SoundDuration":119731,"Delta":311011438},{"NoteNumber":65,"Velocity":56,"Duration":374562,"SoundDuration":374562,"Delta":311011438},{"NoteNumber":73,"Velocity":54,"Duration":119731,"SoundDuration":119731,"Delta":311131169},{"NoteNumber":74,"Velocity":54,"Duration":135098,"SoundDuration":135098,"Delta":311250901},{"NoteNumber":67,"Velocity":72,"Duration":119731,"SoundDuration":119731,"Delta":311386000},{"NoteNumber":64,"Velocity":39,"Duration":89798,"SoundDuration":89798,"Delta":311386000},{"NoteNumber":71,"Velocity":60,"Duration":119731,"SoundDuration":119731,"Delta":311505731},{"NoteNumber":72,"Velocity":61,"Duration":119731,"SoundDuration":119731,"Delta":311625463},{"NoteNumber":67,"Velocity":73,"Duration":119731,"SoundDuration":119731,"Delta":311745195},{"NoteNumber":59,"Velocity":36,"Duration":89798,"SoundDuration":89798,"Delta":311745195},{"NoteNumber":73,"Velocity":65,"Duration":119731,"SoundDuration":119731,"Delta":311864926},{"NoteNumber":74,"Velocity":65,"Duration":119731,"SoundDuration":119731,"Delta":311984658},{"NoteNumber":67,"Velocity":80,"Duration":119731,"SoundDuration":119731,"Delta":312104390},{"NoteNumber":60,"Velocity":41,"Duration":89798,"SoundDuration":89798,"Delta":312104390},{"NoteNumber":75,"Velocity":72,"Duration":119731,"SoundDuration":119731,"Delta":312224121},{"NoteNumber":76,"Velocity":72,"Duration":133297,"SoundDuration":133297,"Delta":312343853},{"NoteNumber":67,"Velocity":87,"Duration":120816,"SoundDuration":120816,"Delta":312477151},{"NoteNumber":62,"Velocity":47,"Duration":90612,"SoundDuration":90612,"Delta":312477151},{"NoteNumber":76,"Velocity":77,"Duration":120816,"SoundDuration":120816,"Delta":312597967},{"NoteNumber":77,"Velocity":78,"Duration":130848,"SoundDuration":130848,"Delta":312718784},{"NoteNumber":67,"Velocity":86,"Duration":130590,"SoundDuration":130590,"Delta":312849632},{"NoteNumber":64,"Velocity":60,"Duration":364527,"SoundDuration":364527,"Delta":312849632},{"NoteNumber":78,"Velocity":93,"Duration":116746,"SoundDuration":116746,"Delta":312980223},{"NoteNumber":79,"Velocity":92,"Duration":117191,"SoundDuration":117191,"Delta":313096969},{"NoteNumber":77,"Velocity":89,"Duration":117723,"SoundDuration":117723,"Delta":313214160},{"NoteNumber":76,"Velocity":88,"Duration":118169,"SoundDuration":118169,"Delta":313331883},{"NoteNumber":74,"Velocity":86,"Duration":118664,"SoundDuration":118664,"Delta":313450053},{"NoteNumber":72,"Velocity":83,"Duration":119167,"SoundDuration":119167,"Delta":313568717},{"NoteNumber":71,"Velocity":82,"Duration":119624,"SoundDuration":119624,"Delta":313687885},{"NoteNumber":69,"Velocity":80,"Duration":120177,"SoundDuration":120177,"Delta":313807510},{"NoteNumber":67,"Velocity":78,"Duration":120648,"SoundDuration":120648,"Delta":313927687},{"NoteNumber":65,"Velocity":76,"Duration":121153,"SoundDuration":121153,"Delta":314048335},{"NoteNumber":64,"Velocity":74,"Duration":121692,"SoundDuration":121692,"Delta":314169488},{"NoteNumber":62,"Velocity":70,"Duration":128172,"SoundDuration":128172,"Delta":314291181},{"NoteNumber":41,"Velocity":65,"Duration":736883,"SoundDuration":736883,"Delta":314291181},{"NoteNumber":69,"Velocity":78,"Duration":123187,"SoundDuration":123187,"Delta":314419353},{"NoteNumber":67,"Velocity":76,"Duration":119195,"SoundDuration":119195,"Delta":314542540},{"NoteNumber":65,"Velocity":73,"Duration":120679,"SoundDuration":120679,"Delta":314661736},{"NoteNumber":53,"Velocity":55,"Duration":366327,"SoundDuration":366327,"Delta":314661736},{"NoteNumber":64,"Velocity":71,"Duration":122039,"SoundDuration":122039,"Delta":314782415},{"NoteNumber":62,"Velocity":69,"Duration":123609,"SoundDuration":123609,"Delta":314904455},{"NoteNumber":60,"Velocity":83,"Duration":360175,"SoundDuration":360175,"Delta":315028064},{"NoteNumber":52,"Velocity":54,"Duration":360175,"SoundDuration":360175,"Delta":315028064},{"NoteNumber":43,"Velocity":54,"Duration":723779,"SoundDuration":723779,"Delta":315028064},{"NoteNumber":59,"Velocity":75,"Duration":89823,"SoundDuration":89823,"Delta":315388239},{"NoteNumber":50,"Velocity":46,"Duration":363604,"SoundDuration":363604,"Delta":315388239},{"NoteNumber":60,"Velocity":67,"Duration":90547,"SoundDuration":90547,"Delta":315478063},{"NoteNumber":59,"Velocity":75,"Duration":183233,"SoundDuration":183233,"Delta":315568610},{"NoteNumber":40,"Velocity":70,"Duration":719084,"SoundDuration":719084,"Delta":315751844},{"NoteNumber":43,"Velocity":70,"Duration":719084,"SoundDuration":719084,"Delta":315751844},{"NoteNumber":48,"Velocity":70,"Duration":719084,"SoundDuration":719084,"Delta":315751844},{"NoteNumber":78,"Velocity":78,"Duration":116746,"SoundDuration":116746,"Delta":315882434},{"NoteNumber":79,"Velocity":89,"Duration":117191,"SoundDuration":117191,"Delta":315999180},{"NoteNumber":77,"Velocity":84,"Duration":117723,"SoundDuration":117723,"Delta":316116371},{"NoteNumber":76,"Velocity":83,"Duration":118169,"SoundDuration":118169,"Delta":316234095},{"NoteNumber":74,"Velocity":81,"Duration":118664,"SoundDuration":118664,"Delta":316352264},{"NoteNumber":72,"Velocity":80,"Duration":119167,"SoundDuration":119167,"Delta":316470928},{"NoteNumber":71,"Velocity":78,"Duration":119624,"SoundDuration":119624,"Delta":316590096},{"NoteNumber":69,"Velocity":77,"Duration":120177,"SoundDuration":120177,"Delta":316709721},{"NoteNumber":67,"Velocity":79,"Duration":120648,"SoundDuration":120648,"Delta":316829898},{"NoteNumber":65,"Velocity":81,"Duration":121153,"SoundDuration":121153,"Delta":316950547},{"NoteNumber":64,"Velocity":83,"Duration":121692,"SoundDuration":121692,"Delta":317071700},{"NoteNumber":62,"Velocity":86,"Duration":786885,"SoundDuration":786885,"Delta":317193392},{"NoteNumber":53,"Velocity":73,"Duration":786885,"SoundDuration":786885,"Delta":317193392},{"NoteNumber":57,"Velocity":73,"Duration":786885,"SoundDuration":786885,"Delta":317193392},{"NoteNumber":81,"Velocity":82,"Duration":1818181,"SoundDuration":1818181,"Delta":317980278},{"NoteNumber":72,"Velocity":69,"Duration":1818181,"SoundDuration":1818181,"Delta":317980278},{"NoteNumber":75,"Velocity":69,"Duration":1818181,"SoundDuration":1818181,"Delta":317980278},{"NoteNumber":78,"Velocity":69,"Duration":1818181,"SoundDuration":1818181,"Delta":317980278},{"NoteNumber":63,"Velocity":73,"Duration":1818181,"SoundDuration":1818181,"Delta":317980278},{"NoteNumber":57,"Velocity":62,"Duration":1818181,"SoundDuration":1818181,"Delta":317980278},{"NoteNumber":60,"Velocity":62,"Duration":1818181,"SoundDuration":1818181,"Delta":317980278},{"NoteNumber":54,"Velocity":62,"Duration":1818181,"SoundDuration":1818181,"Delta":317980278},{"NoteNumber":55,"Velocity":42,"Duration":118694,"SoundDuration":118694,"Delta":319798460},{"NoteNumber":60,"Velocity":32,"Duration":118694,"SoundDuration":118694,"Delta":319917154},{"NoteNumber":64,"Velocity":32,"Duration":118694,"SoundDuration":118694,"Delta":320035849},{"NoteNumber":55,"Velocity":42,"Duration":118694,"SoundDuration":118694,"Delta":320154543},{"NoteNumber":60,"Velocity":34,"Duration":118694,"SoundDuration":118694,"Delta":320273237},{"NoteNumber":64,"Velocity":34,"Duration":118694,"SoundDuration":118694,"Delta":320391932},{"NoteNumber":55,"Velocity":42,"Duration":118694,"SoundDuration":118694,"Delta":320510626},{"NoteNumber":60,"Velocity":33,"Duration":118694,"SoundDuration":118694,"Delta":320629320},{"NoteNumber":64,"Velocity":33,"Duration":118694,"SoundDuration":118694,"Delta":320748015},{"NoteNumber":72,"Velocity":57,"Duration":87397,"SoundDuration":87397,"Delta":320866709},{"NoteNumber":55,"Velocity":45,"Duration":116529,"SoundDuration":116529,"Delta":320866709},{"NoteNumber":74,"Velocity":60,"Duration":87397,"SoundDuration":87397,"Delta":320954106},{"NoteNumber":60,"Velocity":34,"Duration":116529,"SoundDuration":116529,"Delta":320983239},{"NoteNumber":76,"Velocity":62,"Duration":87397,"SoundDuration":87397,"Delta":321041503},{"NoteNumber":64,"Velocity":34,"Duration":129776,"SoundDuration":129776,"Delta":321099768},{"NoteNumber":77,"Velocity":65,"Duration":100643,"SoundDuration":100643,"Delta":321128901},{"NoteNumber":79,"Velocity":75,"Duration":88736,"SoundDuration":88736,"Delta":321229545},{"NoteNumber":55,"Velocity":47,"Duration":118315,"SoundDuration":118315,"Delta":321229545},{"NoteNumber":60,"Velocity":34,"Duration":118315,"SoundDuration":118315,"Delta":321347860},{"NoteNumber":64,"Velocity":34,"Duration":118315,"SoundDuration":118315,"Delta":321466175},{"NoteNumber":79,"Velocity":64,"Duration":88736,"SoundDuration":88736,"Delta":321584491},{"NoteNumber":55,"Velocity":47,"Duration":118315,"SoundDuration":118315,"Delta":321584491},{"NoteNumber":60,"Velocity":36,"Duration":118315,"SoundDuration":118315,"Delta":321702806},{"NoteNumber":64,"Velocity":36,"Duration":118315,"SoundDuration":118315,"Delta":321821121},{"NoteNumber":79,"Velocity":64,"Duration":89079,"SoundDuration":89079,"Delta":321939437},{"NoteNumber":55,"Velocity":50,"Duration":118771,"SoundDuration":118771,"Delta":321939437},{"NoteNumber":60,"Velocity":36,"Duration":118772,"SoundDuration":118772,"Delta":322058209},{"NoteNumber":64,"Velocity":36,"Duration":118771,"SoundDuration":118771,"Delta":322176981},{"NoteNumber":83,"Velocity":78,"Duration":44539,"SoundDuration":44539,"Delta":322251213},{"NoteNumber":84,"Velocity":92,"Duration":353586,"SoundDuration":353586,"Delta":322295753},{"NoteNumber":55,"Velocity":69,"Duration":117862,"SoundDuration":117862,"Delta":322295753},{"NoteNumber":60,"Velocity":56,"Duration":117862,"SoundDuration":117862,"Delta":322413615},{"NoteNumber":64,"Velocity":56,"Duration":117862,"SoundDuration":117862,"Delta":322531477},{"NoteNumber":79,"Velocity":85,"Duration":88396,"SoundDuration":88396,"Delta":322649339},{"NoteNumber":55,"Velocity":47,"Duration":117862,"SoundDuration":117862,"Delta":322649339},{"NoteNumber":60,"Velocity":34,"Duration":117862,"SoundDuration":117862,"Delta":322767201},{"NoteNumber":64,"Velocity":34,"Duration":117862,"SoundDuration":117862,"Delta":322885063},{"NoteNumber":79,"Velocity":67,"Duration":88396,"SoundDuration":88396,"Delta":323002925},{"NoteNumber":55,"Velocity":47,"Duration":117862,"SoundDuration":117862,"Delta":323002925},{"NoteNumber":60,"Velocity":37,"Duration":117862,"SoundDuration":117862,"Delta":323120787},{"NoteNumber":64,"Velocity":37,"Duration":117862,"SoundDuration":117862,"Delta":323238649},{"NoteNumber":79,"Velocity":67,"Duration":89079,"SoundDuration":89079,"Delta":323356511},{"NoteNumber":55,"Velocity":47,"Duration":118771,"SoundDuration":118771,"Delta":323356511},{"NoteNumber":60,"Velocity":37,"Duration":118772,"SoundDuration":118772,"Delta":323475283},{"NoteNumber":64,"Velocity":38,"Duration":133470,"SoundDuration":133470,"Delta":323594055},{"NoteNumber":77,"Velocity":67,"Duration":87067,"SoundDuration":87067,"Delta":323727525},{"NoteNumber":55,"Velocity":47,"Duration":116089,"SoundDuration":116089,"Delta":323727525},{"NoteNumber":76,"Velocity":54,"Duration":87067,"SoundDuration":87067,"Delta":323814593},{"NoteNumber":60,"Velocity":37,"Duration":116090,"SoundDuration":116090,"Delta":323843615},{"NoteNumber":74,"Velocity":54,"Duration":87067,"SoundDuration":87067,"Delta":323901660},{"NoteNumber":64,"Velocity":37,"Duration":122045,"SoundDuration":122045,"Delta":323959705},{"NoteNumber":72,"Velocity":58,"Duration":93023,"SoundDuration":93023,"Delta":323988728},{"NoteNumber":71,"Velocity":70,"Duration":87729,"SoundDuration":87729,"Delta":324081751},{"NoteNumber":55,"Velocity":47,"Duration":116972,"SoundDuration":116972,"Delta":324081751},{"NoteNumber":62,"Velocity":35,"Duration":116972,"SoundDuration":116972,"Delta":324198724},{"NoteNumber":65,"Velocity":38,"Duration":116972,"SoundDuration":116972,"Delta":324315696},{"NoteNumber":71,"Velocity":59,"Duration":87729,"SoundDuration":87729,"Delta":324432669},{"NoteNumber":55,"Velocity":47,"Duration":116972,"SoundDuration":116972,"Delta":324432669},{"NoteNumber":62,"Velocity":38,"Duration":116972,"SoundDuration":116972,"Delta":324549642},{"NoteNumber":65,"Velocity":38,"Duration":116972,"SoundDuration":116972,"Delta":324666614},{"NoteNumber":72,"Velocity":66,"Duration":87729,"SoundDuration":87729,"Delta":324783587},{"NoteNumber":55,"Velocity":47,"Duration":116972,"SoundDuration":116972,"Delta":324783587},{"NoteNumber":60,"Velocity":39,"Duration":116972,"SoundDuration":116972,"Delta":324900560},{"NoteNumber":64,"Velocity":42,"Duration":116972,"SoundDuration":116972,"Delta":325017532},{"NoteNumber":72,"Velocity":57,"Duration":87729,"SoundDuration":87729,"Delta":325134505},{"NoteNumber":55,"Velocity":47,"Duration":116972,"SoundDuration":116972,"Delta":325134505},{"NoteNumber":60,"Velocity":39,"Duration":116972,"SoundDuration":116972,"Delta":325251478},{"NoteNumber":64,"Velocity":39,"Duration":190016,"SoundDuration":190016,"Delta":325368450},{"NoteNumber":74,"Velocity":70,"Duration":357098,"SoundDuration":357098,"Delta":325558467},{"NoteNumber":55,"Velocity":47,"Duration":121384,"SoundDuration":121384,"Delta":325558467},{"NoteNumber":59,"Velocity":35,"Duration":118982,"SoundDuration":118982,"Delta":325679851},{"NoteNumber":62,"Velocity":38,"Duration":116731,"SoundDuration":116731,"Delta":325798834},{"NoteNumber":55,"Velocity":47,"Duration":116279,"SoundDuration":116279,"Delta":325915565},{"NoteNumber":59,"Velocity":38,"Duration":116278,"SoundDuration":116278,"Delta":326031844},{"NoteNumber":62,"Velocity":38,"Duration":116279,"SoundDuration":116279,"Delta":326148123},{"NoteNumber":55,"Velocity":47,"Duration":116278,"SoundDuration":116278,"Delta":326264402},{"NoteNumber":59,"Velocity":39,"Duration":116279,"SoundDuration":116279,"Delta":326380681},{"NoteNumber":62,"Velocity":42,"Duration":116279,"SoundDuration":116279,"Delta":326496960},{"NoteNumber":67,"Velocity":70,"Duration":261202,"SoundDuration":261202,"Delta":326613239},{"NoteNumber":55,"Velocity":47,"Duration":116089,"SoundDuration":116089,"Delta":326613239},{"NoteNumber":59,"Velocity":39,"Duration":116090,"SoundDuration":116090,"Delta":326729329},{"NoteNumber":62,"Velocity":39,"Duration":119145,"SoundDuration":119145,"Delta":326845419},{"NoteNumber":74,"Velocity":54,"Duration":90122,"SoundDuration":90122,"Delta":326874442},{"NoteNumber":77,"Velocity":67,"Duration":86415,"SoundDuration":86415,"Delta":326964564},{"NoteNumber":55,"Velocity":47,"Duration":115220,"SoundDuration":115220,"Delta":326964564},{"NoteNumber":59,"Velocity":36,"Duration":115220,"SoundDuration":115220,"Delta":327079785},{"NoteNumber":62,"Velocity":38,"Duration":115220,"SoundDuration":115220,"Delta":327195006},{"NoteNumber":77,"Velocity":58,"Duration":261202,"SoundDuration":261202,"Delta":327310226},{"NoteNumber":55,"Velocity":54,"Duration":116089,"SoundDuration":116089,"Delta":327310226},{"NoteNumber":59,"Velocity":41,"Duration":116090,"SoundDuration":116090,"Delta":327426316},{"NoteNumber":62,"Velocity":41,"Duration":130346,"SoundDuration":130346,"Delta":327542406},{"NoteNumber":79,"Velocity":55,"Duration":101323,"SoundDuration":101323,"Delta":327571429},{"NoteNumber":76,"Velocity":67,"Duration":87067,"SoundDuration":87067,"Delta":327672753},{"NoteNumber":55,"Velocity":51,"Duration":116089,"SoundDuration":116089,"Delta":327672753},{"NoteNumber":60,"Velocity":39,"Duration":116090,"SoundDuration":116090,"Delta":327788843},{"NoteNumber":64,"Velocity":40,"Duration":116089,"SoundDuration":116089,"Delta":327904933},{"NoteNumber":76,"Velocity":58,"Duration":259246,"SoundDuration":259246,"Delta":328021023},{"NoteNumber":55,"Velocity":47,"Duration":115220,"SoundDuration":115220,"Delta":328021023},{"NoteNumber":60,"Velocity":39,"Duration":115220,"SoundDuration":115220,"Delta":328136244},{"NoteNumber":64,"Velocity":39,"Duration":129449,"SoundDuration":129449,"Delta":328251464},{"NoteNumber":77,"Velocity":58,"Duration":100643,"SoundDuration":100643,"Delta":328280269},{"NoteNumber":74,"Velocity":68,"Duration":86093,"SoundDuration":86093,"Delta":328380913},{"NoteNumber":55,"Velocity":47,"Duration":114790,"SoundDuration":114790,"Delta":328380913},{"NoteNumber":62,"Velocity":39,"Duration":114790,"SoundDuration":114790,"Delta":328495704},{"NoteNumber":65,"Velocity":39,"Duration":114790,"SoundDuration":114790,"Delta":328610495},{"NoteNumber":74,"Velocity":58,"Duration":262191,"SoundDuration":262191,"Delta":328725285},{"NoteNumber":55,"Velocity":53,"Duration":116529,"SoundDuration":116529,"Delta":328725285},{"NoteNumber":62,"Velocity":40,"Duration":116529,"SoundDuration":116529,"Delta":328841815},{"NoteNumber":65,"Velocity":37,"Duration":128116,"SoundDuration":128116,"Delta":328958345},{"NoteNumber":76,"Velocity":54,"Duration":98983,"SoundDuration":98983,"Delta":328987477},{"NoteNumber":72,"Velocity":66,"Duration":85773,"SoundDuration":85773,"Delta":329086461},{"NoteNumber":57,"Velocity":51,"Duration":114364,"SoundDuration":114364,"Delta":329086461},{"NoteNumber":60,"Velocity":39,"Duration":114363,"SoundDuration":114363,"Delta":329200825},{"NoteNumber":64,"Velocity":39,"Duration":129234,"SoundDuration":129234,"Delta":329315189},{"NoteNumber":72,"Velocity":60,"Duration":86936,"SoundDuration":86936,"Delta":329444424},{"NoteNumber":57,"Velocity":47,"Duration":115914,"SoundDuration":115914,"Delta":329444424},{"NoteNumber":60,"Velocity":38,"Duration":115915,"SoundDuration":115915,"Delta":329560339},{"NoteNumber":64,"Velocity":38,"Duration":130302,"SoundDuration":130302,"Delta":329676254},{"NoteNumber":74,"Velocity":66,"Duration":86415,"SoundDuration":86415,"Delta":329806557},{"NoteNumber":53,"Velocity":47,"Duration":115220,"SoundDuration":115220,"Delta":329806557},{"NoteNumber":57,"Velocity":38,"Duration":115220,"SoundDuration":115220,"Delta":329921777},{"NoteNumber":62,"Velocity":39,"Duration":115220,"SoundDuration":115220,"Delta":330036998},{"NoteNumber":74,"Velocity":60,"Duration":88736,"SoundDuration":88736,"Delta":330152219},{"NoteNumber":53,"Velocity":47,"Duration":118315,"SoundDuration":118315,"Delta":330152219},{"NoteNumber":57,"Velocity":39,"Duration":118315,"SoundDuration":118315,"Delta":330270534},{"NoteNumber":62,"Velocity":39,"Duration":118315,"SoundDuration":118315,"Delta":330388849},{"NoteNumber":71,"Velocity":67,"Duration":86093,"SoundDuration":86093,"Delta":330507165},{"NoteNumber":55,"Velocity":47,"Duration":114790,"SoundDuration":114790,"Delta":330507165},{"NoteNumber":62,"Velocity":36,"Duration":114790,"SoundDuration":114790,"Delta":330621955},{"NoteNumber":65,"Velocity":36,"Duration":114790,"SoundDuration":114790,"Delta":330736746},{"NoteNumber":71,"Velocity":60,"Duration":97062,"SoundDuration":97062,"Delta":330851537},{"NoteNumber":55,"Velocity":47,"Duration":129416,"SoundDuration":129416,"Delta":330851537},{"NoteNumber":62,"Velocity":37,"Duration":129416,"SoundDuration":129416,"Delta":330980953},{"NoteNumber":65,"Velocity":38,"Duration":129416,"SoundDuration":129416,"Delta":331110369},{"NoteNumber":72,"Velocity":87,"Duration":354945,"SoundDuration":354945,"Delta":331239786},{"NoteNumber":60,"Velocity":70,"Duration":118315,"SoundDuration":118315,"Delta":331239786},{"NoteNumber":64,"Velocity":52,"Duration":118315,"SoundDuration":118315,"Delta":331358101},{"NoteNumber":67,"Velocity":51,"Duration":118315,"SoundDuration":118315,"Delta":331476416},{"NoteNumber":60,"Velocity":65,"Duration":118315,"SoundDuration":118315,"Delta":331594732},{"NoteNumber":64,"Velocity":51,"Duration":118315,"SoundDuration":118315,"Delta":331713047},{"NoteNumber":67,"Velocity":51,"Duration":118315,"SoundDuration":118315,"Delta":331831362},{"NoteNumber":60,"Velocity":68,"Duration":118771,"SoundDuration":118771,"Delta":331949678},{"NoteNumber":64,"Velocity":55,"Duration":118772,"SoundDuration":118772,"Delta":332068450},{"NoteNumber":67,"Velocity":55,"Duration":118771,"SoundDuration":118771,"Delta":332187222},{"NoteNumber":79,"Velocity":79,"Duration":265189,"SoundDuration":265189,"Delta":332305994},{"NoteNumber":55,"Velocity":69,"Duration":117862,"SoundDuration":117862,"Delta":332305994},{"NoteNumber":59,"Velocity":57,"Duration":117862,"SoundDuration":117862,"Delta":332423856},{"NoteNumber":67,"Velocity":58,"Duration":117862,"SoundDuration":117862,"Delta":332541718},{"NoteNumber":83,"Velocity":78,"Duration":88396,"SoundDuration":88396,"Delta":332571183},{"NoteNumber":84,"Velocity":91,"Duration":88736,"SoundDuration":88736,"Delta":332659580},{"NoteNumber":60,"Velocity":79,"Duration":118315,"SoundDuration":118315,"Delta":332659580},{"NoteNumber":64,"Velocity":59,"Duration":118315,"SoundDuration":118315,"Delta":332777895},{"NoteNumber":67,"Velocity":59,"Duration":118315,"SoundDuration":118315,"Delta":332896210},{"NoteNumber":84,"Velocity":80,"Duration":88736,"SoundDuration":88736,"Delta":333014526},{"NoteNumber":60,"Velocity":66,"Duration":118315,"SoundDuration":118315,"Delta":333014526},{"NoteNumber":64,"Velocity":55,"Duration":118315,"SoundDuration":118315,"Delta":333132841},{"NoteNumber":67,"Velocity":55,"Duration":118315,"SoundDuration":118315,"Delta":333251156},{"NoteNumber":84,"Velocity":79,"Duration":89079,"SoundDuration":89079,"Delta":333369472},{"NoteNumber":60,"Velocity":67,"Duration":118771,"SoundDuration":118771,"Delta":333369472},{"NoteNumber":64,"Velocity":55,"Duration":118772,"SoundDuration":118772,"Delta":333488244},{"NoteNumber":67,"Velocity":54,"Duration":118771,"SoundDuration":118771,"Delta":333607016},{"NoteNumber":88,"Velocity":87,"Duration":88396,"SoundDuration":88396,"Delta":333725788},{"NoteNumber":55,"Velocity":70,"Duration":117862,"SoundDuration":117862,"Delta":333725788},{"NoteNumber":86,"Velocity":82,"Duration":88396,"SoundDuration":88396,"Delta":333814184},{"NoteNumber":59,"Velocity":58,"Duration":117862,"SoundDuration":117862,"Delta":333843650},{"NoteNumber":84,"Velocity":82,"Duration":88396,"SoundDuration":88396,"Delta":333902581},{"NoteNumber":67,"Velocity":56,"Duration":117862,"SoundDuration":117862,"Delta":333961512},{"NoteNumber":86,"Velocity":82,"Duration":88396,"SoundDuration":88396,"Delta":333990977},{"NoteNumber":88,"Velocity":91,"Duration":88736,"SoundDuration":88736,"Delta":334079374},{"NoteNumber":60,"Velocity":79,"Duration":118315,"SoundDuration":118315,"Delta":334079374},{"NoteNumber":64,"Velocity":60,"Duration":118315,"SoundDuration":118315,"Delta":334197689},{"NoteNumber":67,"Velocity":58,"Duration":118315,"SoundDuration":118315,"Delta":334316004},{"NoteNumber":84,"Velocity":76,"Duration":88736,"SoundDuration":88736,"Delta":334434320},{"NoteNumber":60,"Velocity":74,"Duration":118315,"SoundDuration":118315,"Delta":334434320},{"NoteNumber":64,"Velocity":59,"Duration":118315,"SoundDuration":118315,"Delta":334552635},{"NoteNumber":67,"Velocity":60,"Duration":118315,"SoundDuration":118315,"Delta":334670950},{"NoteNumber":84,"Velocity":76,"Duration":89079,"SoundDuration":89079,"Delta":334789266},{"NoteNumber":60,"Velocity":71,"Duration":118771,"SoundDuration":118771,"Delta":334789266},{"NoteNumber":64,"Velocity":59,"Duration":118772,"SoundDuration":118772,"Delta":334908038},{"NoteNumber":67,"Velocity":59,"Duration":118771,"SoundDuration":118771,"Delta":335026810},{"NoteNumber":79,"Velocity":81,"Duration":265189,"SoundDuration":265189,"Delta":335145582},{"NoteNumber":55,"Velocity":75,"Duration":117862,"SoundDuration":117862,"Delta":335145582},{"NoteNumber":59,"Velocity":60,"Duration":117862,"SoundDuration":117862,"Delta":335263444},{"NoteNumber":67,"Velocity":60,"Duration":117862,"SoundDuration":117862,"Delta":335381306},{"NoteNumber":83,"Velocity":81,"Duration":88396,"SoundDuration":88396,"Delta":335410771},{"NoteNumber":84,"Velocity":91,"Duration":88736,"SoundDuration":88736,"Delta":335499168},{"NoteNumber":60,"Velocity":74,"Duration":118315,"SoundDuration":118315,"Delta":335499168},{"NoteNumber":64,"Velocity":55,"Duration":118315,"SoundDuration":118315,"Delta":335617483},{"NoteNumber":67,"Velocity":55,"Duration":118315,"SoundDuration":118315,"Delta":335735798},{"NoteNumber":84,"Velocity":81,"Duration":88736,"SoundDuration":88736,"Delta":335854114},{"NoteNumber":60,"Velocity":74,"Duration":118315,"SoundDuration":118315,"Delta":335854114},{"NoteNumber":64,"Velocity":57,"Duration":118315,"SoundDuration":118315,"Delta":335972429},{"NoteNumber":67,"Velocity":57,"Duration":118315,"SoundDuration":118315,"Delta":336090744},{"NoteNumber":84,"Velocity":81,"Duration":89079,"SoundDuration":89079,"Delta":336209060},{"NoteNumber":60,"Velocity":74,"Duration":118771,"SoundDuration":118771,"Delta":336209060},{"NoteNumber":64,"Velocity":57,"Duration":118772,"SoundDuration":118772,"Delta":336327832},{"NoteNumber":88,"Velocity":77,"Duration":59386,"SoundDuration":59386,"Delta":336387218},{"NoteNumber":86,"Velocity":72,"Duration":59385,"SoundDuration":59385,"Delta":336446604},{"NoteNumber":67,"Velocity":57,"Duration":118771,"SoundDuration":118771,"Delta":336446604},{"NoteNumber":84,"Velocity":72,"Duration":59386,"SoundDuration":59386,"Delta":336505990},{"NoteNumber":86,"Velocity":86,"Duration":265189,"SoundDuration":265189,"Delta":336565376},{"NoteNumber":55,"Velocity":74,"Duration":117862,"SoundDuration":117862,"Delta":336565376},{"NoteNumber":59,"Velocity":62,"Duration":117862,"SoundDuration":117862,"Delta":336683238},{"NoteNumber":67,"Velocity":62,"Duration":117862,"SoundDuration":117862,"Delta":336801100},{"NoteNumber":88,"Velocity":81,"Duration":88396,"SoundDuration":88396,"Delta":336830565},{"NoteNumber":84,"Velocity":87,"Duration":354945,"SoundDuration":354945,"Delta":336918962},{"NoteNumber":60,"Velocity":70,"Duration":118315,"SoundDuration":118315,"Delta":336918962},{"NoteNumber":64,"Velocity":41,"Duration":118315,"SoundDuration":118315,"Delta":337037277},{"NoteNumber":67,"Velocity":41,"Duration":118315,"SoundDuration":118315,"Delta":337155592},{"NoteNumber":60,"Velocity":49,"Duration":118315,"SoundDuration":118315,"Delta":337273908},{"NoteNumber":64,"Velocity":37,"Duration":118315,"SoundDuration":118315,"Delta":337392223},{"NoteNumber":67,"Velocity":36,"Duration":118315,"SoundDuration":118315,"Delta":337510538},{"NoteNumber":60,"Velocity":45,"Duration":118771,"SoundDuration":118771,"Delta":337628854},{"NoteNumber":64,"Velocity":34,"Duration":118772,"SoundDuration":118772,"Delta":337747626},{"NoteNumber":67,"Velocity":34,"Duration":118771,"SoundDuration":118771,"Delta":337866398},{"NoteNumber":79,"Velocity":63,"Duration":265189,"SoundDuration":265189,"Delta":337985170},{"NoteNumber":55,"Velocity":41,"Duration":117862,"SoundDuration":117862,"Delta":337985170},{"NoteNumber":59,"Velocity":34,"Duration":117862,"SoundDuration":117862,"Delta":338103032},{"NoteNumber":67,"Velocity":34,"Duration":117862,"SoundDuration":117862,"Delta":338220894},{"NoteNumber":83,"Velocity":62,"Duration":88396,"SoundDuration":88396,"Delta":338250359},{"NoteNumber":84,"Velocity":72,"Duration":88736,"SoundDuration":88736,"Delta":338338756},{"NoteNumber":60,"Velocity":47,"Duration":118315,"SoundDuration":118315,"Delta":338338756},{"NoteNumber":64,"Velocity":35,"Duration":118315,"SoundDuration":118315,"Delta":338457071},{"NoteNumber":67,"Velocity":35,"Duration":118315,"SoundDuration":118315,"Delta":338575386},{"NoteNumber":84,"Velocity":64,"Duration":88736,"SoundDuration":88736,"Delta":338693702},{"NoteNumber":60,"Velocity":39,"Duration":118315,"SoundDuration":118315,"Delta":338693702},{"NoteNumber":64,"Velocity":33,"Duration":118315,"SoundDuration":118315,"Delta":338812017},{"NoteNumber":67,"Velocity":33,"Duration":118315,"SoundDuration":118315,"Delta":338930332},{"NoteNumber":84,"Velocity":63,"Duration":89079,"SoundDuration":89079,"Delta":339048648},{"NoteNumber":60,"Velocity":40,"Duration":118771,"SoundDuration":118771,"Delta":339048648},{"NoteNumber":64,"Velocity":33,"Duration":118772,"SoundDuration":118772,"Delta":339167420},{"NoteNumber":67,"Velocity":33,"Duration":118771,"SoundDuration":118771,"Delta":339286192},{"NoteNumber":88,"Velocity":69,"Duration":88396,"SoundDuration":88396,"Delta":339404964},{"NoteNumber":55,"Velocity":42,"Duration":117862,"SoundDuration":117862,"Delta":339404964},{"NoteNumber":86,"Velocity":65,"Duration":88396,"SoundDuration":88396,"Delta":339493360},{"NoteNumber":59,"Velocity":34,"Duration":117862,"SoundDuration":117862,"Delta":339522826},{"NoteNumber":84,"Velocity":65,"Duration":88396,"SoundDuration":88396,"Delta":339581757},{"NoteNumber":67,"Velocity":34,"Duration":117862,"SoundDuration":117862,"Delta":339640688},{"NoteNumber":86,"Velocity":65,"Duration":88396,"SoundDuration":88396,"Delta":339670153},{"NoteNumber":88,"Velocity":72,"Duration":88736,"SoundDuration":88736,"Delta":339758550},{"NoteNumber":60,"Velocity":47,"Duration":118315,"SoundDuration":118315,"Delta":339758550},{"NoteNumber":64,"Velocity":36,"Duration":118315,"SoundDuration":118315,"Delta":339876865},{"NoteNumber":67,"Velocity":34,"Duration":118315,"SoundDuration":118315,"Delta":339995180},{"NoteNumber":84,"Velocity":60,"Duration":88736,"SoundDuration":88736,"Delta":340113496},{"NoteNumber":60,"Velocity":44,"Duration":118315,"SoundDuration":118315,"Delta":340113496},{"NoteNumber":64,"Velocity":35,"Duration":118315,"SoundDuration":118315,"Delta":340231811},{"NoteNumber":67,"Velocity":36,"Duration":118315,"SoundDuration":118315,"Delta":340350126},{"NoteNumber":84,"Velocity":60,"Duration":89079,"SoundDuration":89079,"Delta":340468442},{"NoteNumber":60,"Velocity":42,"Duration":118771,"SoundDuration":118771,"Delta":340468442},{"NoteNumber":64,"Velocity":35,"Duration":118772,"SoundDuration":118772,"Delta":340587214},{"NoteNumber":67,"Velocity":35,"Duration":118771,"SoundDuration":118771,"Delta":340705986},{"NoteNumber":79,"Velocity":64,"Duration":265189,"SoundDuration":265189,"Delta":340824758},{"NoteNumber":55,"Velocity":45,"Duration":117862,"SoundDuration":117862,"Delta":340824758},{"NoteNumber":59,"Velocity":36,"Duration":117862,"SoundDuration":117862,"Delta":340942620},{"NoteNumber":67,"Velocity":36,"Duration":117862,"SoundDuration":117862,"Delta":341060482},{"NoteNumber":83,"Velocity":64,"Duration":88396,"SoundDuration":88396,"Delta":341089947},{"NoteNumber":84,"Velocity":72,"Duration":88736,"SoundDuration":88736,"Delta":341178344},{"NoteNumber":60,"Velocity":44,"Duration":118315,"SoundDuration":118315,"Delta":341178344},{"NoteNumber":64,"Velocity":33,"Duration":118315,"SoundDuration":118315,"Delta":341296659},{"NoteNumber":67,"Velocity":33,"Duration":118315,"SoundDuration":118315,"Delta":341414974},{"NoteNumber":84,"Velocity":64,"Duration":88736,"SoundDuration":88736,"Delta":341533290},{"NoteNumber":60,"Velocity":44,"Duration":118315,"SoundDuration":118315,"Delta":341533290},{"NoteNumber":64,"Velocity":34,"Duration":118315,"SoundDuration":118315,"Delta":341651605},{"NoteNumber":67,"Velocity":34,"Duration":118315,"SoundDuration":118315,"Delta":341769920},{"NoteNumber":84,"Velocity":64,"Duration":89079,"SoundDuration":89079,"Delta":341888236},{"NoteNumber":60,"Velocity":44,"Duration":118771,"SoundDuration":118771,"Delta":341888236},{"NoteNumber":64,"Velocity":34,"Duration":118772,"SoundDuration":118772,"Delta":342007008},{"NoteNumber":88,"Velocity":61,"Duration":59386,"SoundDuration":59386,"Delta":342066394},{"NoteNumber":86,"Velocity":57,"Duration":59385,"SoundDuration":59385,"Delta":342125780},{"NoteNumber":67,"Velocity":34,"Duration":118771,"SoundDuration":118771,"Delta":342125780},{"NoteNumber":84,"Velocity":57,"Duration":59386,"SoundDuration":59386,"Delta":342185166},{"NoteNumber":86,"Velocity":68,"Duration":265189,"SoundDuration":265189,"Delta":342244552},{"NoteNumber":55,"Velocity":44,"Duration":117862,"SoundDuration":117862,"Delta":342244552},{"NoteNumber":59,"Velocity":37,"Duration":117862,"SoundDuration":117862,"Delta":342362414},{"NoteNumber":67,"Velocity":37,"Duration":117862,"SoundDuration":117862,"Delta":342480276},{"NoteNumber":88,"Velocity":64,"Duration":88396,"SoundDuration":88396,"Delta":342509741},{"NoteNumber":84,"Velocity":70,"Duration":354945,"SoundDuration":354945,"Delta":342598138},{"NoteNumber":60,"Velocity":62,"Duration":118315,"SoundDuration":118315,"Delta":342598138},{"NoteNumber":64,"Velocity":44,"Duration":118315,"SoundDuration":118315,"Delta":342716453},{"NoteNumber":67,"Velocity":47,"Duration":118315,"SoundDuration":118315,"Delta":342834768},{"NoteNumber":60,"Velocity":65,"Duration":119047,"SoundDuration":119047,"Delta":342953084},{"NoteNumber":64,"Velocity":50,"Duration":119047,"SoundDuration":119047,"Delta":343072131},{"NoteNumber":67,"Velocity":54,"Duration":119047,"SoundDuration":119047,"Delta":343191179},{"NoteNumber":79,"Velocity":81,"Duration":352940,"SoundDuration":352940,"Delta":343310227},{"NoteNumber":76,"Velocity":68,"Duration":352940,"SoundDuration":352940,"Delta":343310227},{"NoteNumber":60,"Velocity":69,"Duration":117646,"SoundDuration":117646,"Delta":343310227},{"NoteNumber":64,"Velocity":56,"Duration":117647,"SoundDuration":117647,"Delta":343427874},{"NoteNumber":67,"Velocity":56,"Duration":117646,"SoundDuration":117646,"Delta":343545521},{"NoteNumber":60,"Velocity":69,"Duration":117647,"SoundDuration":117647,"Delta":343663168},{"NoteNumber":64,"Velocity":58,"Duration":117646,"SoundDuration":117646,"Delta":343780815},{"NoteNumber":67,"Velocity":58,"Duration":117646,"SoundDuration":117646,"Delta":343898462},{"NoteNumber":76,"Velocity":79,"Duration":354945,"SoundDuration":354945,"Delta":344016109},{"NoteNumber":72,"Velocity":67,"Duration":354945,"SoundDuration":354945,"Delta":344016109},{"NoteNumber":60,"Velocity":70,"Duration":118315,"SoundDuration":118315,"Delta":344016109},{"NoteNumber":64,"Velocity":56,"Duration":118315,"SoundDuration":118315,"Delta":344134424},{"NoteNumber":67,"Velocity":56,"Duration":118315,"SoundDuration":118315,"Delta":344252739},{"NoteNumber":60,"Velocity":67,"Duration":119713,"SoundDuration":119713,"Delta":344371055},{"NoteNumber":64,"Velocity":52,"Duration":119731,"SoundDuration":119731,"Delta":344490769},{"NoteNumber":67,"Velocity":52,"Duration":148739,"SoundDuration":148739,"Delta":344610500},{"NoteNumber":52,"Velocity":63,"Duration":367227,"SoundDuration":367227,"Delta":344759239},{"NoteNumber":55,"Velocity":75,"Duration":367227,"SoundDuration":367227,"Delta":344759239},{"NoteNumber":60,"Velocity":68,"Duration":122294,"SoundDuration":122294,"Delta":344759239},{"NoteNumber":64,"Velocity":52,"Duration":122294,"SoundDuration":122294,"Delta":344881534},{"NoteNumber":67,"Velocity":52,"Duration":122639,"SoundDuration":122639,"Delta":345003828},{"NoteNumber":60,"Velocity":66,"Duration":126798,"SoundDuration":126798,"Delta":345126467},{"NoteNumber":64,"Velocity":52,"Duration":130203,"SoundDuration":130203,"Delta":345253266},{"NoteNumber":67,"Velocity":52,"Duration":194174,"SoundDuration":194174,"Delta":345383469},{"NoteNumber":52,"Velocity":70,"Duration":454544,"SoundDuration":454544,"Delta":345577643},{"NoteNumber":48,"Velocity":59,"Duration":454544,"SoundDuration":454544,"Delta":345577643},{"NoteNumber":60,"Velocity":82,"Duration":454544,"SoundDuration":454544,"Delta":345577643}]}