{"title":"Etüde Opus 10 No. 5","artist":"Godowsky","durationMs":90058,"midiSha256":"83bb4e9339200b23f25229702107c7f63154b763e0a204ec99b024e546e69030","midiObject":[{"NoteNumber":60,"Velocity":69,"Duration":764381,"SoundDuration":764381,"Delta":0},{"NoteNumber":55,"Velocity":69,"Duration":672187,"SoundDuration":672187,"Delta":0},{"NoteNumber":64,"Velocity":79,"Duration":856689,"SoundDuration":856689,"Delta":0},{"NoteNumber":36,"Velocity":77,"Duration":109488,"SoundDuration":109488,"Delta":0},{"NoteNumber":24,"Velocity":73,"Duration":1134124,"SoundDuration":1134124,"Delta":0},{"NoteNumber":100,"Velocity":66,"Duration":95541,"SoundDuration":95541,"Delta":109488},{"NoteNumber":36,"Velocity":59,"Duration":1024635,"SoundDuration":1024635,"Delta":109488},{"NoteNumber":96,"Velocity":63,"Duration":95541,"SoundDuration":95541,"Delta":205030},{"NoteNumber":43,"Velocity":62,"Duration":95541,"SoundDuration":95541,"Delta":205030},{"NoteNumber":91,"Velocity":60,"Duration":95541,"SoundDuration":95541,"Delta":300572},{"NoteNumber":48,"Velocity":59,"Duration":95541,"SoundDuration":95541,"Delta":300572},{"NoteNumber":84,"Velocity":66,"Duration":92024,"SoundDuration":92024,"Delta":396113},{"NoteNumber":52,"Velocity":70,"Duration":92024,"SoundDuration":92024,"Delta":396113},{"NoteNumber":88,"Velocity":56,"Duration":92024,"SoundDuration":92024,"Delta":488138},{"NoteNumber":48,"Velocity":59,"Duration":92024,"SoundDuration":92024,"Delta":488138},{"NoteNumber":84,"Velocity":60,"Duration":92024,"SoundDuration":92024,"Delta":580162},{"NoteNumber":55,"Velocity":62,"Duration":553962,"SoundDuration":553962,"Delta":580162},{"NoteNumber":79,"Velocity":57,"Duration":92194,"SoundDuration":92194,"Delta":672187},{"NoteNumber":60,"Velocity":60,"Duration":276809,"SoundDuration":276809,"Delta":672187},{"NoteNumber":72,"Velocity":56,"Duration":92307,"SoundDuration":92307,"Delta":764381},{"NoteNumber":64,"Velocity":76,"Duration":369743,"SoundDuration":369743,"Delta":764381},{"NoteNumber":79,"Velocity":50,"Duration":92307,"SoundDuration":92307,"Delta":856689},{"NoteNumber":60,"Velocity":61,"Duration":277435,"SoundDuration":277435,"Delta":856689},{"NoteNumber":84,"Velocity":55,"Duration":92535,"SoundDuration":92535,"Delta":948996},{"NoteNumber":67,"Velocity":63,"Duration":92535,"SoundDuration":92535,"Delta":948996},{"NoteNumber":88,"Velocity":52,"Duration":92592,"SoundDuration":92592,"Delta":1041532},{"NoteNumber":72,"Velocity":62,"Duration":92592,"SoundDuration":92592,"Delta":1041532},{"NoteNumber":84,"Velocity":60,"Duration":92592,"SoundDuration":92592,"Delta":1134124},{"NoteNumber":76,"Velocity":76,"Duration":92592,"SoundDuration":92592,"Delta":1134124},{"NoteNumber":79,"Velocity":48,"Duration":92821,"SoundDuration":92821,"Delta":1226717},{"NoteNumber":72,"Velocity":62,"Duration":92821,"SoundDuration":92821,"Delta":1226717},{"NoteNumber":72,"Velocity":50,"Duration":92879,"SoundDuration":92879,"Delta":1319539},{"NoteNumber":67,"Velocity":69,"Duration":92879,"SoundDuration":92879,"Delta":1319539},{"NoteNumber":76,"Velocity":48,"Duration":92879,"SoundDuration":92879,"Delta":1412418},{"NoteNumber":60,"Velocity":60,"Duration":92879,"SoundDuration":92879,"Delta":1412418},{"NoteNumber":72,"Velocity":54,"Duration":93167,"SoundDuration":93167,"Delta":1505297},{"NoteNumber":64,"Velocity":70,"Duration":93167,"SoundDuration":93167,"Delta":1505297},{"NoteNumber":67,"Velocity":44,"Duration":93167,"SoundDuration":93167,"Delta":1598465},{"NoteNumber":60,"Velocity":57,"Duration":91614,"SoundDuration":91614,"Delta":1598465},{"NoteNumber":60,"Velocity":47,"Duration":93225,"SoundDuration":93225,"Delta":1691633},{"NoteNumber":55,"Velocity":61,"Duration":93225,"SoundDuration":93225,"Delta":1691633},{"NoteNumber":64,"Velocity":75,"Duration":492755,"SoundDuration":492755,"Delta":1784859},{"NoteNumber":48,"Velocity":56,"Duration":94339,"SoundDuration":94339,"Delta":1784859},{"NoteNumber":60,"Velocity":51,"Duration":94637,"SoundDuration":94637,"Delta":1879198},{"NoteNumber":52,"Velocity":63,"Duration":94637,"SoundDuration":94637,"Delta":1879198},{"NoteNumber":55,"Velocity":41,"Duration":94637,"SoundDuration":94637,"Delta":1973835},{"NoteNumber":48,"Velocity":54,"Duration":94637,"SoundDuration":94637,"Delta":1973835},{"NoteNumber":52,"Velocity":46,"Duration":94637,"SoundDuration":94637,"Delta":2068473},{"NoteNumber":43,"Velocity":57,"Duration":94637,"SoundDuration":94637,"Delta":2068473},{"NoteNumber":48,"Velocity":40,"Duration":114503,"SoundDuration":114503,"Delta":2163110},{"NoteNumber":36,"Velocity":54,"Duration":114503,"SoundDuration":114503,"Delta":2163110},{"NoteNumber":60,"Velocity":61,"Duration":758915,"SoundDuration":758915,"Delta":2277614},{"NoteNumber":57,"Velocity":61,"Duration":666890,"SoundDuration":666890,"Delta":2277614},{"NoteNumber":65,"Velocity":77,"Duration":850939,"SoundDuration":850939,"Delta":2277614},{"NoteNumber":29,"Velocity":73,"Duration":1127636,"SoundDuration":1127636,"Delta":2277614},{"NoteNumber":41,"Velocity":77,"Duration":1127636,"SoundDuration":1127636,"Delta":2277614},{"NoteNumber":101,"Velocity":62,"Duration":94936,"SoundDuration":94936,"Delta":2383621},{"NoteNumber":36,"Velocity":59,"Duration":94936,"SoundDuration":94936,"Delta":2383621},{"NoteNumber":96,"Velocity":59,"Duration":94936,"SoundDuration":94936,"Delta":2478557},{"NoteNumber":45,"Velocity":62,"Duration":94936,"SoundDuration":94936,"Delta":2478557},{"NoteNumber":93,"Velocity":57,"Duration":94936,"SoundDuration":94936,"Delta":2573494},{"NoteNumber":48,"Velocity":59,"Duration":94936,"SoundDuration":94936,"Delta":2573494},{"NoteNumber":84,"Velocity":61,"Duration":92024,"SoundDuration":92024,"Delta":2668431},{"NoteNumber":53,"Velocity":70,"Duration":92024,"SoundDuration":92024,"Delta":2668431},{"NoteNumber":89,"Velocity":54,"Duration":92024,"SoundDuration":92024,"Delta":2760455},{"NoteNumber":48,"Velocity":59,"Duration":92024,"SoundDuration":92024,"Delta":2760455},{"NoteNumber":84,"Velocity":56,"Duration":92024,"SoundDuration":92024,"Delta":2852480},{"NoteNumber":57,"Velocity":62,"Duration":552770,"SoundDuration":552770,"Delta":2852480},{"NoteNumber":81,"Velocity":47,"Duration":92024,"SoundDuration":92024,"Delta":2944504},{"NoteNumber":60,"Velocity":60,"Duration":276130,"SoundDuration":276130,"Delta":2944504},{"NoteNumber":72,"Velocity":52,"Duration":92024,"SoundDuration":92024,"Delta":3036529},{"NoteNumber":65,"Velocity":73,"Duration":368721,"SoundDuration":368721,"Delta":3036529},{"NoteNumber":81,"Velocity":47,"Duration":92081,"SoundDuration":92081,"Delta":3128553},{"NoteNumber":60,"Velocity":61,"Duration":276696,"SoundDuration":276696,"Delta":3128553},{"NoteNumber":84,"Velocity":49,"Duration":92307,"SoundDuration":92307,"Delta":3220635},{"NoteNumber":69,"Velocity":63,"Duration":92307,"SoundDuration":92307,"Delta":3220635},{"NoteNumber":88,"Velocity":48,"Duration":92307,"SoundDuration":92307,"Delta":3312942},{"NoteNumber":72,"Velocity":62,"Duration":92307,"SoundDuration":92307,"Delta":3312942},{"NoteNumber":84,"Velocity":57,"Duration":92307,"SoundDuration":92307,"Delta":3405250},{"NoteNumber":76,"Velocity":73,"Duration":92307,"SoundDuration":92307,"Delta":3405250},{"NoteNumber":81,"Velocity":48,"Duration":92307,"SoundDuration":92307,"Delta":3497558},{"NoteNumber":72,"Velocity":64,"Duration":92307,"SoundDuration":92307,"Delta":3497558},{"NoteNumber":72,"Velocity":50,"Duration":92307,"SoundDuration":92307,"Delta":3589866},{"NoteNumber":69,"Velocity":72,"Duration":92307,"SoundDuration":92307,"Delta":3589866},{"NoteNumber":76,"Velocity":48,"Duration":92421,"SoundDuration":92421,"Delta":3682173},{"NoteNumber":60,"Velocity":58,"Duration":92421,"SoundDuration":92421,"Delta":3682173},{"NoteNumber":72,"Velocity":54,"Duration":93458,"SoundDuration":93458,"Delta":3774595},{"NoteNumber":64,"Velocity":66,"Duration":93458,"SoundDuration":93458,"Delta":3774595},{"NoteNumber":69,"Velocity":44,"Duration":93458,"SoundDuration":93458,"Delta":3868053},{"NoteNumber":60,"Velocity":57,"Duration":91900,"SoundDuration":91900,"Delta":3868053},{"NoteNumber":60,"Velocity":47,"Duration":93457,"SoundDuration":93457,"Delta":3961511},{"NoteNumber":57,"Velocity":61,"Duration":93457,"SoundDuration":93457,"Delta":3961511},{"NoteNumber":64,"Velocity":70,"Duration":110293,"SoundDuration":110293,"Delta":4054969},{"NoteNumber":48,"Velocity":56,"Duration":110293,"SoundDuration":110293,"Delta":4054969},{"NoteNumber":62,"Velocity":76,"Duration":406057,"SoundDuration":406057,"Delta":4165263},{"NoteNumber":30,"Velocity":59,"Duration":406057,"SoundDuration":406057,"Delta":4165263},{"NoteNumber":42,"Velocity":72,"Duration":406057,"SoundDuration":406057,"Delta":4165263},{"NoteNumber":60,"Velocity":41,"Duration":98039,"SoundDuration":98039,"Delta":4263302},{"NoteNumber":57,"Velocity":47,"Duration":98039,"SoundDuration":98039,"Delta":4361341},{"NoteNumber":50,"Velocity":44,"Duration":111940,"SoundDuration":111940,"Delta":4459381},{"NoteNumber":62,"Velocity":77,"Duration":838704,"SoundDuration":838704,"Delta":4571321},{"NoteNumber":59,"Velocity":69,"Duration":746735,"SoundDuration":746735,"Delta":4571321},{"NoteNumber":55,"Velocity":69,"Duration":654992,"SoundDuration":654992,"Delta":4571321},{"NoteNumber":43,"Velocity":77,"Duration":288635,"SoundDuration":288635,"Delta":4571321},{"NoteNumber":31,"Velocity":73,"Duration":1115230,"SoundDuration":1115230,"Delta":4571321},{"NoteNumber":98,"Velocity":65,"Duration":95541,"SoundDuration":95541,"Delta":4672672},{"NoteNumber":35,"Velocity":59,"Duration":95541,"SoundDuration":95541,"Delta":4672672},{"NoteNumber":95,"Velocity":62,"Duration":91743,"SoundDuration":91743,"Delta":4768214},{"NoteNumber":43,"Velocity":62,"Duration":918338,"SoundDuration":918338,"Delta":4768214},{"NoteNumber":91,"Velocity":59,"Duration":91687,"SoundDuration":91687,"Delta":4859957},{"NoteNumber":47,"Velocity":59,"Duration":91687,"SoundDuration":91687,"Delta":4859957},{"NoteNumber":83,"Velocity":64,"Duration":91463,"SoundDuration":91463,"Delta":4951644},{"NoteNumber":50,"Velocity":70,"Duration":91463,"SoundDuration":91463,"Delta":4951644},{"NoteNumber":86,"Velocity":55,"Duration":91463,"SoundDuration":91463,"Delta":5043107},{"NoteNumber":47,"Velocity":59,"Duration":91463,"SoundDuration":91463,"Delta":5043107},{"NoteNumber":83,"Velocity":59,"Duration":91743,"SoundDuration":91743,"Delta":5134571},{"NoteNumber":55,"Velocity":62,"Duration":551980,"SoundDuration":551980,"Delta":5134571},{"NoteNumber":78,"Velocity":54,"Duration":91743,"SoundDuration":91743,"Delta":5226314},{"NoteNumber":59,"Velocity":60,"Duration":275735,"SoundDuration":275735,"Delta":5226314},{"NoteNumber":71,"Velocity":52,"Duration":91968,"SoundDuration":91968,"Delta":5318057},{"NoteNumber":62,"Velocity":73,"Duration":368494,"SoundDuration":368494,"Delta":5318057},{"NoteNumber":76,"Velocity":64,"Duration":92024,"SoundDuration":92024,"Delta":5410025},{"NoteNumber":59,"Velocity":61,"Duration":276526,"SoundDuration":276526,"Delta":5410025},{"NoteNumber":79,"Velocity":45,"Duration":92194,"SoundDuration":92194,"Delta":5502050},{"NoteNumber":67,"Velocity":68,"Duration":92194,"SoundDuration":92194,"Delta":5502050},{"NoteNumber":86,"Velocity":45,"Duration":92307,"SoundDuration":92307,"Delta":5594244},{"NoteNumber":71,"Velocity":62,"Duration":92307,"SoundDuration":92307,"Delta":5594244},{"NoteNumber":81,"Velocity":55,"Duration":92478,"SoundDuration":92478,"Delta":5686552},{"NoteNumber":74,"Velocity":71,"Duration":92478,"SoundDuration":92478,"Delta":5686552},{"NoteNumber":78,"Velocity":45,"Duration":92592,"SoundDuration":92592,"Delta":5779030},{"NoteNumber":69,"Velocity":62,"Duration":92592,"SoundDuration":92592,"Delta":5779030},{"NoteNumber":72,"Velocity":49,"Duration":92707,"SoundDuration":92707,"Delta":5871623},{"NoteNumber":66,"Velocity":67,"Duration":92707,"SoundDuration":92707,"Delta":5871623},{"NoteNumber":74,"Velocity":46,"Duration":92879,"SoundDuration":92879,"Delta":5964330},{"NoteNumber":60,"Velocity":60,"Duration":92879,"SoundDuration":92879,"Delta":5964330},{"NoteNumber":69,"Velocity":52,"Duration":92936,"SoundDuration":92936,"Delta":6057209},{"NoteNumber":62,"Velocity":66,"Duration":92936,"SoundDuration":92936,"Delta":6057209},{"NoteNumber":66,"Velocity":44,"Duration":93167,"SoundDuration":93167,"Delta":6150146},{"NoteNumber":57,"Velocity":57,"Duration":93167,"SoundDuration":93167,"Delta":6150146},{"NoteNumber":60,"Velocity":47,"Duration":93225,"SoundDuration":93225,"Delta":6243314},{"NoteNumber":54,"Velocity":61,"Duration":93225,"SoundDuration":93225,"Delta":6243314},{"NoteNumber":62,"Velocity":72,"Duration":514169,"SoundDuration":514169,"Delta":6336540},{"NoteNumber":48,"Velocity":56,"Duration":102388,"SoundDuration":102388,"Delta":6336540},{"NoteNumber":57,"Velocity":52,"Duration":96774,"SoundDuration":96774,"Delta":6438929},{"NoteNumber":26,"Velocity":59,"Duration":411780,"SoundDuration":411780,"Delta":6438929},{"NoteNumber":38,"Velocity":72,"Duration":411780,"SoundDuration":411780,"Delta":6438929},{"NoteNumber":54,"Velocity":42,"Duration":96774,"SoundDuration":96774,"Delta":6535703},{"NoteNumber":48,"Velocity":46,"Duration":96774,"SoundDuration":96774,"Delta":6632477},{"NoteNumber":50,"Velocity":42,"Duration":121457,"SoundDuration":121457,"Delta":6729252},{"NoteNumber":53,"Velocity":65,"Duration":661453,"SoundDuration":661453,"Delta":6850709},{"NoteNumber":60,"Velocity":69,"Duration":938149,"SoundDuration":938149,"Delta":6850709},{"NoteNumber":62,"Velocity":77,"Duration":845842,"SoundDuration":845842,"Delta":6850709},{"NoteNumber":56,"Velocity":69,"Duration":753534,"SoundDuration":753534,"Delta":6850709},{"NoteNumber":43,"Velocity":77,"Duration":1122879,"SoundDuration":1122879,"Delta":6850709},{"NoteNumber":31,"Velocity":73,"Duration":1122879,"SoundDuration":1122879,"Delta":6850709},{"NoteNumber":98,"Velocity":65,"Duration":95238,"SoundDuration":95238,"Delta":6954515},{"NoteNumber":36,"Velocity":59,"Duration":95238,"SoundDuration":95238,"Delta":6954515},{"NoteNumber":92,"Velocity":63,"Duration":93167,"SoundDuration":93167,"Delta":7049753},{"NoteNumber":41,"Velocity":62,"Duration":93167,"SoundDuration":93167,"Delta":7049753},{"NoteNumber":89,"Velocity":61,"Duration":93167,"SoundDuration":93167,"Delta":7142921},{"NoteNumber":44,"Velocity":59,"Duration":93167,"SoundDuration":93167,"Delta":7142921},{"NoteNumber":84,"Velocity":65,"Duration":92024,"SoundDuration":92024,"Delta":7236089},{"NoteNumber":50,"Velocity":70,"Duration":92024,"SoundDuration":92024,"Delta":7236089},{"NoteNumber":86,"Velocity":55,"Duration":92024,"SoundDuration":92024,"Delta":7328113},{"NoteNumber":48,"Velocity":59,"Duration":92024,"SoundDuration":92024,"Delta":7328113},{"NoteNumber":80,"Velocity":59,"Duration":92024,"SoundDuration":92024,"Delta":7420138},{"NoteNumber":53,"Velocity":62,"Duration":553450,"SoundDuration":553450,"Delta":7420138},{"NoteNumber":77,"Velocity":55,"Duration":92081,"SoundDuration":92081,"Delta":7512162},{"NoteNumber":56,"Velocity":60,"Duration":461426,"SoundDuration":461426,"Delta":7512162},{"NoteNumber":72,"Velocity":56,"Duration":92307,"SoundDuration":92307,"Delta":7604243},{"NoteNumber":62,"Velocity":73,"Duration":369344,"SoundDuration":369344,"Delta":7604243},{"NoteNumber":77,"Velocity":47,"Duration":92307,"SoundDuration":92307,"Delta":7696551},{"NoteNumber":60,"Velocity":61,"Duration":277037,"SoundDuration":277037,"Delta":7696551},{"NoteNumber":80,"Velocity":49,"Duration":92307,"SoundDuration":92307,"Delta":7788859},{"NoteNumber":65,"Velocity":63,"Duration":92307,"SoundDuration":92307,"Delta":7788859},{"NoteNumber":86,"Velocity":48,"Duration":92421,"SoundDuration":92421,"Delta":7881167},{"NoteNumber":68,"Velocity":62,"Duration":92421,"SoundDuration":92421,"Delta":7881167},{"NoteNumber":79,"Velocity":60,"Duration":92592,"SoundDuration":92592,"Delta":7973588},{"NoteNumber":74,"Velocity":72,"Duration":92592,"SoundDuration":92592,"Delta":7973588},{"NoteNumber":77,"Velocity":48,"Duration":92592,"SoundDuration":92592,"Delta":8066181},{"NoteNumber":67,"Velocity":64,"Duration":92592,"SoundDuration":92592,"Delta":8066181},{"NoteNumber":71,"Velocity":50,"Duration":92592,"SoundDuration":92592,"Delta":8158773},{"NoteNumber":65,"Velocity":68,"Duration":92592,"SoundDuration":92592,"Delta":8158773},{"NoteNumber":74,"Velocity":48,"Duration":92764,"SoundDuration":92764,"Delta":8251366},{"NoteNumber":59,"Velocity":62,"Duration":92764,"SoundDuration":92764,"Delta":8251366},{"NoteNumber":67,"Velocity":54,"Duration":92879,"SoundDuration":92879,"Delta":8344130},{"NoteNumber":62,"Velocity":66,"Duration":92879,"SoundDuration":92879,"Delta":8344130},{"NoteNumber":65,"Velocity":44,"Duration":92879,"SoundDuration":92879,"Delta":8437010},{"NoteNumber":55,"Velocity":57,"Duration":92879,"SoundDuration":92879,"Delta":8437010},{"NoteNumber":59,"Velocity":47,"Duration":92879,"SoundDuration":92879,"Delta":8529889},{"NoteNumber":53,"Velocity":62,"Duration":92879,"SoundDuration":92879,"Delta":8529889},{"NoteNumber":63,"Velocity":76,"Duration":524896,"SoundDuration":524896,"Delta":8622768},{"NoteNumber":47,"Velocity":56,"Duration":111940,"SoundDuration":111940,"Delta":8622768},{"NoteNumber":59,"Velocity":52,"Duration":99337,"SoundDuration":99337,"Delta":8734708},{"NoteNumber":43,"Velocity":72,"Duration":412955,"SoundDuration":412955,"Delta":8734708},{"NoteNumber":31,"Velocity":59,"Duration":412955,"SoundDuration":412955,"Delta":8734708},{"NoteNumber":55,"Velocity":40,"Duration":99337,"SoundDuration":99337,"Delta":8834046},{"NoteNumber":53,"Velocity":43,"Duration":99337,"SoundDuration":99337,"Delta":8933384},{"NoteNumber":47,"Velocity":37,"Duration":114942,"SoundDuration":114942,"Delta":9032722},{"NoteNumber":64,"Velocity":77,"Duration":849269,"SoundDuration":849269,"Delta":9147664},{"NoteNumber":60,"Velocity":69,"Duration":756961,"SoundDuration":756961,"Delta":9147664},{"NoteNumber":55,"Velocity":69,"Duration":664880,"SoundDuration":664880,"Delta":9147664},{"NoteNumber":36,"Velocity":77,"Duration":103092,"SoundDuration":103092,"Delta":9147664},{"NoteNumber":24,"Velocity":73,"Duration":1126363,"SoundDuration":1126363,"Delta":9147664},{"NoteNumber":100,"Velocity":68,"Duration":95238,"SoundDuration":95238,"Delta":9250757},{"NoteNumber":36,"Velocity":59,"Duration":1023270,"SoundDuration":1023270,"Delta":9250757},{"NoteNumber":96,"Velocity":65,"Duration":95238,"SoundDuration":95238,"Delta":9345995},{"NoteNumber":43,"Velocity":62,"Duration":95238,"SoundDuration":95238,"Delta":9345995},{"NoteNumber":91,"Velocity":62,"Duration":95238,"SoundDuration":95238,"Delta":9441233},{"NoteNumber":48,"Velocity":59,"Duration":95238,"SoundDuration":95238,"Delta":9441233},{"NoteNumber":84,"Velocity":65,"Duration":92024,"SoundDuration":92024,"Delta":9536471},{"NoteNumber":52,"Velocity":70,"Duration":92024,"SoundDuration":92024,"Delta":9536471},{"NoteNumber":88,"Velocity":55,"Duration":92024,"SoundDuration":92024,"Delta":9628495},{"NoteNumber":48,"Velocity":59,"Duration":92024,"SoundDuration":92024,"Delta":9628495},{"NoteNumber":84,"Velocity":59,"Duration":92024,"SoundDuration":92024,"Delta":9720520},{"NoteNumber":55,"Velocity":62,"Duration":553507,"SoundDuration":553507,"Delta":9720520},{"NoteNumber":79,"Velocity":47,"Duration":92081,"SoundDuration":92081,"Delta":9812544},{"NoteNumber":60,"Velocity":60,"Duration":276696,"SoundDuration":276696,"Delta":9812544},{"NoteNumber":72,"Velocity":56,"Duration":92307,"SoundDuration":92307,"Delta":9904626},{"NoteNumber":64,"Velocity":76,"Duration":369401,"SoundDuration":369401,"Delta":9904626},{"NoteNumber":79,"Velocity":47,"Duration":92307,"SoundDuration":92307,"Delta":9996933},{"NoteNumber":60,"Velocity":61,"Duration":277094,"SoundDuration":277094,"Delta":9996933},{"NoteNumber":84,"Velocity":49,"Duration":92307,"SoundDuration":92307,"Delta":10089241},{"NoteNumber":67,"Velocity":63,"Duration":92307,"SoundDuration":92307,"Delta":10089241},{"NoteNumber":88,"Velocity":48,"Duration":92478,"SoundDuration":92478,"Delta":10181549},{"NoteNumber":72,"Velocity":62,"Duration":92478,"SoundDuration":92478,"Delta":10181549},{"NoteNumber":84,"Velocity":60,"Duration":92592,"SoundDuration":92592,"Delta":10274027},{"NoteNumber":76,"Velocity":72,"Duration":92592,"SoundDuration":92592,"Delta":10274027},{"NoteNumber":79,"Velocity":48,"Duration":92592,"SoundDuration":92592,"Delta":10366620},{"NoteNumber":72,"Velocity":62,"Duration":92592,"SoundDuration":92592,"Delta":10366620},{"NoteNumber":72,"Velocity":50,"Duration":92592,"SoundDuration":92592,"Delta":10459212},{"NoteNumber":67,"Velocity":69,"Duration":92592,"SoundDuration":92592,"Delta":10459212},{"NoteNumber":76,"Velocity":48,"Duration":92821,"SoundDuration":92821,"Delta":10551805},{"NoteNumber":60,"Velocity":60,"Duration":92821,"SoundDuration":92821,"Delta":10551805},{"NoteNumber":72,"Velocity":54,"Duration":92879,"SoundDuration":92879,"Delta":10644627},{"NoteNumber":64,"Velocity":70,"Duration":92879,"SoundDuration":92879,"Delta":10644627},{"NoteNumber":67,"Velocity":44,"Duration":92879,"SoundDuration":92879,"Delta":10737506},{"NoteNumber":60,"Velocity":57,"Duration":91331,"SoundDuration":91331,"Delta":10737506},{"NoteNumber":60,"Velocity":47,"Duration":92936,"SoundDuration":92936,"Delta":10830385},{"NoteNumber":55,"Velocity":62,"Duration":92936,"SoundDuration":92936,"Delta":10830385},{"NoteNumber":64,"Velocity":74,"Duration":500105,"SoundDuration":500105,"Delta":10923322},{"NoteNumber":48,"Velocity":56,"Duration":94339,"SoundDuration":94339,"Delta":10923322},{"NoteNumber":60,"Velocity":51,"Duration":97087,"SoundDuration":97087,"Delta":11017662},{"NoteNumber":52,"Velocity":63,"Duration":97087,"SoundDuration":97087,"Delta":11017662},{"NoteNumber":55,"Velocity":40,"Duration":97087,"SoundDuration":97087,"Delta":11114749},{"NoteNumber":48,"Velocity":54,"Duration":97087,"SoundDuration":97087,"Delta":11114749},{"NoteNumber":52,"Velocity":44,"Duration":97087,"SoundDuration":97087,"Delta":11211837},{"NoteNumber":43,"Velocity":57,"Duration":97087,"SoundDuration":97087,"Delta":11211837},{"NoteNumber":48,"Velocity":40,"Duration":114503,"SoundDuration":114503,"Delta":11308924},{"NoteNumber":36,"Velocity":54,"Duration":114503,"SoundDuration":114503,"Delta":11308924},{"NoteNumber":65,"Velocity":77,"Duration":843877,"SoundDuration":843877,"Delta":11423428},{"NoteNumber":57,"Velocity":61,"Duration":1121313,"SoundDuration":1121313,"Delta":11423428},{"NoteNumber":60,"Velocity":61,"Duration":751626,"SoundDuration":751626,"Delta":11423428},{"NoteNumber":45,"Velocity":77,"Duration":1121313,"SoundDuration":1121313,"Delta":11423428},{"NoteNumber":33,"Velocity":73,"Duration":1121313,"SoundDuration":1121313,"Delta":11423428},{"NoteNumber":101,"Velocity":66,"Duration":94936,"SoundDuration":94936,"Delta":11522766},{"NoteNumber":36,"Velocity":59,"Duration":94936,"SoundDuration":94936,"Delta":11522766},{"NoteNumber":96,"Velocity":64,"Duration":94936,"SoundDuration":94936,"Delta":11617703},{"NoteNumber":41,"Velocity":62,"Duration":94936,"SoundDuration":94936,"Delta":11617703},{"NoteNumber":93,"Velocity":62,"Duration":94936,"SoundDuration":94936,"Delta":11712639},{"NoteNumber":48,"Velocity":59,"Duration":94936,"SoundDuration":94936,"Delta":11712639},{"NoteNumber":84,"Velocity":67,"Duration":91742,"SoundDuration":91742,"Delta":11807576},{"NoteNumber":53,"Velocity":70,"Duration":91742,"SoundDuration":91742,"Delta":11807576},{"NoteNumber":89,"Velocity":55,"Duration":91743,"SoundDuration":91743,"Delta":11899319},{"NoteNumber":48,"Velocity":59,"Duration":91743,"SoundDuration":91743,"Delta":11899319},{"NoteNumber":84,"Velocity":59,"Duration":91968,"SoundDuration":91968,"Delta":11991062},{"NoteNumber":53,"Velocity":62,"Duration":91968,"SoundDuration":91968,"Delta":11991062},{"NoteNumber":81,"Velocity":47,"Duration":92024,"SoundDuration":92024,"Delta":12083030},{"NoteNumber":60,"Velocity":60,"Duration":276583,"SoundDuration":276583,"Delta":12083030},{"NoteNumber":72,"Velocity":56,"Duration":92251,"SoundDuration":92251,"Delta":12175055},{"NoteNumber":65,"Velocity":73,"Duration":277094,"SoundDuration":277094,"Delta":12175055},{"NoteNumber":81,"Velocity":47,"Duration":92307,"SoundDuration":92307,"Delta":12267306},{"NoteNumber":60,"Velocity":61,"Duration":277435,"SoundDuration":277435,"Delta":12267306},{"NoteNumber":84,"Velocity":49,"Duration":92535,"SoundDuration":92535,"Delta":12359614},{"NoteNumber":65,"Velocity":63,"Duration":185128,"SoundDuration":185128,"Delta":12359614},{"NoteNumber":88,"Velocity":48,"Duration":92592,"SoundDuration":92592,"Delta":12452149},{"NoteNumber":72,"Velocity":62,"Duration":92592,"SoundDuration":92592,"Delta":12452149},{"NoteNumber":81,"Velocity":57,"Duration":92821,"SoundDuration":92821,"Delta":12544742},{"NoteNumber":76,"Velocity":75,"Duration":92821,"SoundDuration":92821,"Delta":12544742},{"NoteNumber":78,"Velocity":48,"Duration":92879,"SoundDuration":92879,"Delta":12637564},{"NoteNumber":72,"Velocity":64,"Duration":92879,"SoundDuration":92879,"Delta":12637564},{"NoteNumber":72,"Velocity":50,"Duration":93110,"SoundDuration":93110,"Delta":12730443},{"NoteNumber":66,"Velocity":71,"Duration":93110,"SoundDuration":93110,"Delta":12730443},{"NoteNumber":76,"Velocity":48,"Duration":93167,"SoundDuration":93167,"Delta":12823553},{"NoteNumber":60,"Velocity":58,"Duration":93167,"SoundDuration":93167,"Delta":12823553},{"NoteNumber":69,"Velocity":54,"Duration":93399,"SoundDuration":93399,"Delta":12916721},{"NoteNumber":64,"Velocity":66,"Duration":93399,"SoundDuration":93399,"Delta":12916721},{"NoteNumber":66,"Velocity":44,"Duration":93458,"SoundDuration":93458,"Delta":13010121},{"NoteNumber":60,"Velocity":57,"Duration":91900,"SoundDuration":91900,"Delta":13010121},{"NoteNumber":60,"Velocity":47,"Duration":93458,"SoundDuration":93458,"Delta":13103579},{"NoteNumber":54,"Velocity":62,"Duration":93458,"SoundDuration":93458,"Delta":13103579},{"NoteNumber":64,"Velocity":72,"Duration":516351,"SoundDuration":516351,"Delta":13197037},{"NoteNumber":48,"Velocity":56,"Duration":110293,"SoundDuration":110293,"Delta":13197037},{"NoteNumber":57,"Velocity":54,"Duration":98039,"SoundDuration":98039,"Delta":13307331},{"NoteNumber":52,"Velocity":63,"Duration":98039,"SoundDuration":98039,"Delta":13307331},{"NoteNumber":54,"Velocity":39,"Duration":98039,"SoundDuration":98039,"Delta":13405370},{"NoteNumber":48,"Velocity":54,"Duration":98039,"SoundDuration":98039,"Delta":13405370},{"NoteNumber":52,"Velocity":46,"Duration":98039,"SoundDuration":98039,"Delta":13503409},{"NoteNumber":42,"Velocity":57,"Duration":98039,"SoundDuration":98039,"Delta":13503409},{"NoteNumber":48,"Velocity":41,"Duration":111940,"SoundDuration":111940,"Delta":13601448},{"NoteNumber":36,"Velocity":54,"Duration":111940,"SoundDuration":111940,"Delta":13601448},{"NoteNumber":55,"Velocity":61,"Duration":655304,"SoundDuration":655304,"Delta":13713389},{"NoteNumber":60,"Velocity":61,"Duration":747103,"SoundDuration":747103,"Delta":13713389},{"NoteNumber":62,"Velocity":75,"Duration":839128,"SoundDuration":839128,"Delta":13713389},{"NoteNumber":31,"Velocity":65,"Duration":1115258,"SoundDuration":1115258,"Delta":13713389},{"NoteNumber":43,"Velocity":75,"Duration":288332,"SoundDuration":288332,"Delta":13713389},{"NoteNumber":98,"Velocity":63,"Duration":95238,"SoundDuration":95238,"Delta":13814740},{"NoteNumber":36,"Velocity":53,"Duration":95238,"SoundDuration":95238,"Delta":13814740},{"NoteNumber":96,"Velocity":60,"Duration":91742,"SoundDuration":91742,"Delta":13909978},{"NoteNumber":43,"Velocity":56,"Duration":918668,"SoundDuration":918668,"Delta":13909978},{"NoteNumber":91,"Velocity":61,"Duration":91743,"SoundDuration":91743,"Delta":14001721},{"NoteNumber":48,"Velocity":53,"Duration":91743,"SoundDuration":91743,"Delta":14001721},{"NoteNumber":84,"Velocity":66,"Duration":91743,"SoundDuration":91743,"Delta":14093464},{"NoteNumber":50,"Velocity":62,"Duration":91743,"SoundDuration":91743,"Delta":14093464},{"NoteNumber":86,"Velocity":51,"Duration":91742,"SoundDuration":91742,"Delta":14185207},{"NoteNumber":48,"Velocity":53,"Duration":91742,"SoundDuration":91742,"Delta":14185207},{"NoteNumber":84,"Velocity":55,"Duration":91743,"SoundDuration":91743,"Delta":14276950},{"NoteNumber":55,"Velocity":56,"Duration":551696,"SoundDuration":551696,"Delta":14276950},{"NoteNumber":79,"Velocity":51,"Duration":91799,"SoundDuration":91799,"Delta":14368693},{"NoteNumber":60,"Velocity":54,"Duration":275848,"SoundDuration":275848,"Delta":14368693},{"NoteNumber":72,"Velocity":46,"Duration":92024,"SoundDuration":92024,"Delta":14460492},{"NoteNumber":62,"Velocity":65,"Duration":368154,"SoundDuration":368154,"Delta":14460492},{"NoteNumber":79,"Velocity":57,"Duration":92024,"SoundDuration":92024,"Delta":14552517},{"NoteNumber":60,"Velocity":55,"Duration":276130,"SoundDuration":276130,"Delta":14552517},{"NoteNumber":84,"Velocity":40,"Duration":92024,"SoundDuration":92024,"Delta":14644541},{"NoteNumber":67,"Velocity":60,"Duration":92024,"SoundDuration":92024,"Delta":14644541},{"NoteNumber":86,"Velocity":40,"Duration":92081,"SoundDuration":92081,"Delta":14736566},{"NoteNumber":72,"Velocity":56,"Duration":92081,"SoundDuration":92081,"Delta":14736566},{"NoteNumber":83,"Velocity":49,"Duration":92307,"SoundDuration":92307,"Delta":14828647},{"NoteNumber":74,"Velocity":66,"Duration":92307,"SoundDuration":92307,"Delta":14828647},{"NoteNumber":79,"Velocity":40,"Duration":92307,"SoundDuration":92307,"Delta":14920954},{"NoteNumber":71,"Velocity":56,"Duration":92307,"SoundDuration":92307,"Delta":14920954},{"NoteNumber":71,"Velocity":43,"Duration":92307,"SoundDuration":92307,"Delta":15013262},{"NoteNumber":67,"Velocity":59,"Duration":92307,"SoundDuration":92307,"Delta":15013262},{"NoteNumber":74,"Velocity":41,"Duration":92364,"SoundDuration":92364,"Delta":15105570},{"NoteNumber":59,"Velocity":54,"Duration":92364,"SoundDuration":92364,"Delta":15105570},{"NoteNumber":71,"Velocity":46,"Duration":92592,"SoundDuration":92592,"Delta":15197935},{"NoteNumber":62,"Velocity":59,"Duration":92592,"SoundDuration":92592,"Delta":15197935},{"NoteNumber":67,"Velocity":39,"Duration":92592,"SoundDuration":92592,"Delta":15290527},{"NoteNumber":59,"Velocity":51,"Duration":92592,"SoundDuration":92592,"Delta":15290527},{"NoteNumber":59,"Velocity":42,"Duration":92592,"SoundDuration":92592,"Delta":15383120},{"NoteNumber":55,"Velocity":56,"Duration":92592,"SoundDuration":92592,"Delta":15383120},{"NoteNumber":62,"Velocity":71,"Duration":510822,"SoundDuration":510822,"Delta":15475712},{"NoteNumber":47,"Velocity":50,"Duration":102389,"SoundDuration":102389,"Delta":15475712},{"NoteNumber":59,"Velocity":46,"Duration":96774,"SoundDuration":96774,"Delta":15578101},{"NoteNumber":50,"Velocity":57,"Duration":96774,"SoundDuration":96774,"Delta":15578101},{"NoteNumber":55,"Velocity":40,"Duration":96774,"SoundDuration":96774,"Delta":15674875},{"NoteNumber":47,"Velocity":48,"Duration":96774,"SoundDuration":96774,"Delta":15674875},{"NoteNumber":50,"Velocity":42,"Duration":214884,"SoundDuration":214884,"Delta":15771650},{"NoteNumber":43,"Velocity":52,"Duration":96774,"SoundDuration":96774,"Delta":15771650},{"NoteNumber":35,"Velocity":47,"Duration":118110,"SoundDuration":118110,"Delta":15868424},{"NoteNumber":47,"Velocity":47,"Duration":118110,"SoundDuration":118110,"Delta":15868424},{"NoteNumber":62,"Velocity":58,"Duration":750504,"SoundDuration":750504,"Delta":15986534},{"NoteNumber":55,"Velocity":58,"Duration":658761,"SoundDuration":658761,"Delta":15986534},{"NoteNumber":64,"Velocity":74,"Duration":842395,"SoundDuration":842395,"Delta":15986534},{"NoteNumber":24,"Velocity":61,"Duration":1118844,"SoundDuration":1118844,"Delta":15986534},{"NoteNumber":36,"Velocity":74,"Duration":1118844,"SoundDuration":1118844,"Delta":15986534},{"NoteNumber":100,"Velocity":57,"Duration":95237,"SoundDuration":95237,"Delta":16089627},{"NoteNumber":38,"Velocity":50,"Duration":95237,"SoundDuration":95237,"Delta":16089627},{"NoteNumber":98,"Velocity":54,"Duration":93167,"SoundDuration":93167,"Delta":16184865},{"NoteNumber":43,"Velocity":51,"Duration":93167,"SoundDuration":93167,"Delta":16184865},{"NoteNumber":91,"Velocity":51,"Duration":92613,"SoundDuration":92613,"Delta":16278033},{"NoteNumber":50,"Velocity":48,"Duration":92613,"SoundDuration":92613,"Delta":16278033},{"NoteNumber":86,"Velocity":58,"Duration":91463,"SoundDuration":91463,"Delta":16370647},{"NoteNumber":52,"Velocity":57,"Duration":91463,"SoundDuration":91463,"Delta":16370647},{"NoteNumber":88,"Velocity":43,"Duration":91463,"SoundDuration":91463,"Delta":16462110},{"NoteNumber":50,"Velocity":47,"Duration":91463,"SoundDuration":91463,"Delta":16462110},{"NoteNumber":86,"Velocity":49,"Duration":91722,"SoundDuration":91722,"Delta":16553574},{"NoteNumber":55,"Velocity":49,"Duration":551804,"SoundDuration":551804,"Delta":16553574},{"NoteNumber":79,"Velocity":43,"Duration":91743,"SoundDuration":91743,"Delta":16645296},{"NoteNumber":62,"Velocity":47,"Duration":275658,"SoundDuration":275658,"Delta":16645296},{"NoteNumber":74,"Velocity":42,"Duration":91890,"SoundDuration":91890,"Delta":16737039},{"NoteNumber":64,"Velocity":57,"Duration":368339,"SoundDuration":368339,"Delta":16737039},{"NoteNumber":79,"Velocity":36,"Duration":92024,"SoundDuration":92024,"Delta":16828929},{"NoteNumber":62,"Velocity":47,"Duration":276448,"SoundDuration":276448,"Delta":16828929},{"NoteNumber":86,"Velocity":36,"Duration":92116,"SoundDuration":92116,"Delta":16920954},{"NoteNumber":67,"Velocity":47,"Duration":92116,"SoundDuration":92116,"Delta":16920954},{"NoteNumber":88,"Velocity":35,"Duration":92307,"SoundDuration":92307,"Delta":17013070},{"NoteNumber":74,"Velocity":46,"Duration":92307,"SoundDuration":92307,"Delta":17013070},{"NoteNumber":84,"Velocity":44,"Duration":92307,"SoundDuration":92307,"Delta":17105378},{"NoteNumber":76,"Velocity":59,"Duration":92307,"SoundDuration":92307,"Delta":17105378},{"NoteNumber":79,"Velocity":34,"Duration":92571,"SoundDuration":92571,"Delta":17197686},{"NoteNumber":72,"Velocity":50,"Duration":92571,"SoundDuration":92571,"Delta":17197686},{"NoteNumber":76,"Velocity":36,"Duration":92592,"SoundDuration":92592,"Delta":17290257},{"NoteNumber":67,"Velocity":51,"Duration":92592,"SoundDuration":92592,"Delta":17290257},{"NoteNumber":79,"Velocity":34,"Duration":92800,"SoundDuration":92800,"Delta":17382850},{"NoteNumber":60,"Velocity":46,"Duration":92800,"SoundDuration":92800,"Delta":17382850},{"NoteNumber":72,"Velocity":38,"Duration":95541,"SoundDuration":95541,"Delta":17475650},{"NoteNumber":64,"Velocity":46,"Duration":95541,"SoundDuration":95541,"Delta":17475650},{"NoteNumber":67,"Velocity":30,"Duration":95541,"SoundDuration":95541,"Delta":17571191},{"NoteNumber":60,"Velocity":40,"Duration":93949,"SoundDuration":93949,"Delta":17571191},{"NoteNumber":60,"Velocity":32,"Duration":95541,"SoundDuration":95541,"Delta":17666733},{"NoteNumber":55,"Velocity":42,"Duration":95541,"SoundDuration":95541,"Delta":17666733},{"NoteNumber":64,"Velocity":53,"Duration":522313,"SoundDuration":522313,"Delta":17762274},{"NoteNumber":48,"Velocity":41,"Duration":111940,"SoundDuration":111940,"Delta":17762274},{"NoteNumber":60,"Velocity":34,"Duration":99337,"SoundDuration":99337,"Delta":17874215},{"NoteNumber":52,"Velocity":42,"Duration":99337,"SoundDuration":99337,"Delta":17874215},{"NoteNumber":55,"Velocity":29,"Duration":99337,"SoundDuration":99337,"Delta":17973552},{"NoteNumber":48,"Velocity":36,"Duration":99337,"SoundDuration":99337,"Delta":17973552},{"NoteNumber":52,"Velocity":31,"Duration":592075,"SoundDuration":592075,"Delta":18072890},{"NoteNumber":43,"Velocity":38,"Duration":99337,"SoundDuration":99337,"Delta":18072890},{"NoteNumber":48,"Velocity":35,"Duration":112359,"SoundDuration":112359,"Delta":18172228},{"NoteNumber":36,"Velocity":35,"Duration":112359,"SoundDuration":112359,"Delta":18172228},{"NoteNumber":60,"Velocity":44,"Duration":712047,"SoundDuration":712047,"Delta":18228408},{"NoteNumber":64,"Velocity":54,"Duration":747892,"SoundDuration":747892,"Delta":18284587},{"NoteNumber":33,"Velocity":45,"Duration":1116592,"SoundDuration":1116592,"Delta":18284587},{"NoteNumber":45,"Velocity":54,"Duration":1116592,"SoundDuration":1116592,"Delta":18284587},{"NoteNumber":101,"Velocity":43,"Duration":95541,"SoundDuration":95541,"Delta":18385939},{"NoteNumber":40,"Velocity":37,"Duration":95541,"SoundDuration":95541,"Delta":18385939},{"NoteNumber":100,"Velocity":40,"Duration":91742,"SoundDuration":91742,"Delta":18481480},{"NoteNumber":48,"Velocity":39,"Duration":91742,"SoundDuration":91742,"Delta":18481480},{"NoteNumber":96,"Velocity":38,"Duration":91743,"SoundDuration":91743,"Delta":18573223},{"NoteNumber":52,"Velocity":37,"Duration":275228,"SoundDuration":275228,"Delta":18573223},{"NoteNumber":88,"Velocity":42,"Duration":91743,"SoundDuration":91743,"Delta":18664966},{"NoteNumber":53,"Velocity":45,"Duration":91743,"SoundDuration":91743,"Delta":18664966},{"NoteNumber":89,"Velocity":35,"Duration":91742,"SoundDuration":91742,"Delta":18756709},{"NoteNumber":52,"Velocity":37,"Duration":644470,"SoundDuration":644470,"Delta":18756709},{"NoteNumber":88,"Velocity":37,"Duration":92003,"SoundDuration":92003,"Delta":18848452},{"NoteNumber":60,"Velocity":39,"Duration":552727,"SoundDuration":552727,"Delta":18848452},{"NoteNumber":84,"Velocity":34,"Duration":92024,"SoundDuration":92024,"Delta":18940456},{"NoteNumber":64,"Velocity":37,"Duration":276108,"SoundDuration":276108,"Delta":18940456},{"NoteNumber":76,"Velocity":33,"Duration":92024,"SoundDuration":92024,"Delta":19032480},{"NoteNumber":65,"Velocity":45,"Duration":92024,"SoundDuration":92024,"Delta":19032480},{"NoteNumber":84,"Velocity":40,"Duration":92059,"SoundDuration":92059,"Delta":19124505},{"NoteNumber":64,"Velocity":38,"Duration":276675,"SoundDuration":276675,"Delta":19124505},{"NoteNumber":88,"Velocity":28,"Duration":92307,"SoundDuration":92307,"Delta":19216564},{"NoteNumber":72,"Velocity":43,"Duration":92307,"SoundDuration":92307,"Delta":19216564},{"NoteNumber":89,"Velocity":28,"Duration":92307,"SoundDuration":92307,"Delta":19308872},{"NoteNumber":76,"Velocity":39,"Duration":92307,"SoundDuration":92307,"Delta":19308872},{"NoteNumber":86,"Velocity":34,"Duration":92307,"SoundDuration":92307,"Delta":19401180},{"NoteNumber":77,"Velocity":49,"Duration":369893,"SoundDuration":369893,"Delta":19401180},{"NoteNumber":83,"Velocity":28,"Duration":92400,"SoundDuration":92400,"Delta":19493488},{"NoteNumber":74,"Velocity":39,"Duration":92400,"SoundDuration":92400,"Delta":19493488},{"NoteNumber":74,"Velocity":30,"Duration":92592,"SoundDuration":92592,"Delta":19585888},{"NoteNumber":71,"Velocity":42,"Duration":92592,"SoundDuration":92592,"Delta":19585888},{"NoteNumber":77,"Velocity":29,"Duration":92592,"SoundDuration":92592,"Delta":19678481},{"NoteNumber":62,"Velocity":38,"Duration":92592,"SoundDuration":92592,"Delta":19678481},{"NoteNumber":74,"Velocity":33,"Duration":92592,"SoundDuration":92592,"Delta":19771073},{"NoteNumber":65,"Velocity":42,"Duration":92592,"SoundDuration":92592,"Delta":19771073},{"NoteNumber":71,"Velocity":27,"Duration":92743,"SoundDuration":92743,"Delta":19863666},{"NoteNumber":62,"Velocity":36,"Duration":91195,"SoundDuration":91195,"Delta":19863666},{"NoteNumber":62,"Velocity":29,"Duration":92879,"SoundDuration":92879,"Delta":19956409},{"NoteNumber":59,"Velocity":37,"Duration":92879,"SoundDuration":92879,"Delta":19956409},{"NoteNumber":65,"Velocity":51,"Duration":514169,"SoundDuration":514169,"Delta":20049288},{"NoteNumber":50,"Velocity":35,"Duration":102388,"SoundDuration":102388,"Delta":20049288},{"NoteNumber":62,"Velocity":33,"Duration":96774,"SoundDuration":96774,"Delta":20151677},{"NoteNumber":33,"Velocity":37,"Duration":411780,"SoundDuration":411780,"Delta":20151677},{"NoteNumber":45,"Velocity":45,"Duration":411780,"SoundDuration":411780,"Delta":20151677},{"NoteNumber":59,"Velocity":28,"Duration":96774,"SoundDuration":96774,"Delta":20248451},{"NoteNumber":53,"Velocity":29,"Duration":96774,"SoundDuration":96774,"Delta":20345225},{"NoteNumber":50,"Velocity":27,"Duration":121457,"SoundDuration":121457,"Delta":20442000},{"NoteNumber":64,"Velocity":54,"Duration":839466,"SoundDuration":839466,"Delta":20563457},{"NoteNumber":59,"Velocity":44,"Duration":655607,"SoundDuration":655607,"Delta":20563457},{"NoteNumber":52,"Velocity":44,"Duration":472121,"SoundDuration":472121,"Delta":20563457},{"NoteNumber":32,"Velocity":45,"Duration":1115745,"SoundDuration":1115745,"Delta":20563457},{"NoteNumber":44,"Velocity":54,"Duration":1115745,"SoundDuration":1115745,"Delta":20563457},{"NoteNumber":100,"Velocity":44,"Duration":95541,"SoundDuration":95541,"Delta":20664808},{"NoteNumber":38,"Velocity":37,"Duration":95541,"SoundDuration":95541,"Delta":20664808},{"NoteNumber":98,"Velocity":40,"Duration":91743,"SoundDuration":91743,"Delta":20760350},{"NoteNumber":47,"Velocity":39,"Duration":91743,"SoundDuration":91743,"Delta":20760350},{"NoteNumber":95,"Velocity":37,"Duration":91742,"SoundDuration":91742,"Delta":20852093},{"NoteNumber":50,"Velocity":37,"Duration":91742,"SoundDuration":91742,"Delta":20852093},{"NoteNumber":86,"Velocity":42,"Duration":91742,"SoundDuration":91742,"Delta":20943836},{"NoteNumber":52,"Velocity":45,"Duration":735366,"SoundDuration":735366,"Delta":20943836},{"NoteNumber":88,"Velocity":34,"Duration":91743,"SoundDuration":91743,"Delta":21035579},{"NoteNumber":50,"Velocity":37,"Duration":91743,"SoundDuration":91743,"Delta":21035579},{"NoteNumber":86,"Velocity":36,"Duration":91743,"SoundDuration":91743,"Delta":21127322},{"NoteNumber":59,"Velocity":39,"Duration":551880,"SoundDuration":551880,"Delta":21127322},{"NoteNumber":83,"Velocity":29,"Duration":91834,"SoundDuration":91834,"Delta":21219065},{"NoteNumber":62,"Velocity":37,"Duration":91834,"SoundDuration":91834,"Delta":21219065},{"NoteNumber":74,"Velocity":33,"Duration":92024,"SoundDuration":92024,"Delta":21310899},{"NoteNumber":64,"Velocity":45,"Duration":368303,"SoundDuration":368303,"Delta":21310899},{"NoteNumber":83,"Velocity":40,"Duration":92024,"SoundDuration":92024,"Delta":21402924},{"NoteNumber":62,"Velocity":38,"Duration":92024,"SoundDuration":92024,"Delta":21402924},{"NoteNumber":86,"Velocity":28,"Duration":92024,"SoundDuration":92024,"Delta":21494948},{"NoteNumber":71,"Velocity":43,"Duration":92024,"SoundDuration":92024,"Delta":21494948},{"NoteNumber":88,"Velocity":28,"Duration":92229,"SoundDuration":92229,"Delta":21586973},{"NoteNumber":74,"Velocity":39,"Duration":92229,"SoundDuration":92229,"Delta":21586973},{"NoteNumber":84,"Velocity":34,"Duration":92307,"SoundDuration":92307,"Delta":21679203},{"NoteNumber":76,"Velocity":49,"Duration":92307,"SoundDuration":92307,"Delta":21679203},{"NoteNumber":81,"Velocity":28,"Duration":92307,"SoundDuration":92307,"Delta":21771510},{"NoteNumber":72,"Velocity":39,"Duration":92307,"SoundDuration":92307,"Delta":21771510},{"NoteNumber":72,"Velocity":30,"Duration":92343,"SoundDuration":92343,"Delta":21863818},{"NoteNumber":69,"Velocity":42,"Duration":92343,"SoundDuration":92343,"Delta":21863818},{"NoteNumber":76,"Velocity":29,"Duration":92592,"SoundDuration":92592,"Delta":21956162},{"NoteNumber":60,"Velocity":38,"Duration":92592,"SoundDuration":92592,"Delta":21956162},{"NoteNumber":72,"Velocity":33,"Duration":92592,"SoundDuration":92592,"Delta":22048754},{"NoteNumber":64,"Velocity":42,"Duration":92592,"SoundDuration":92592,"Delta":22048754},{"NoteNumber":69,"Velocity":27,"Duration":92592,"SoundDuration":92592,"Delta":22141347},{"NoteNumber":60,"Velocity":36,"Duration":91049,"SoundDuration":91049,"Delta":22141347},{"NoteNumber":60,"Velocity":29,"Duration":92800,"SoundDuration":92800,"Delta":22233939},{"NoteNumber":57,"Velocity":45,"Duration":92800,"SoundDuration":92800,"Delta":22233939},{"NoteNumber":64,"Velocity":51,"Duration":514169,"SoundDuration":514169,"Delta":22326739},{"NoteNumber":48,"Velocity":42,"Duration":102388,"SoundDuration":102388,"Delta":22326739},{"NoteNumber":60,"Velocity":38,"Duration":96774,"SoundDuration":96774,"Delta":22429128},{"NoteNumber":43,"Velocity":45,"Duration":411780,"SoundDuration":411780,"Delta":22429128},{"NoteNumber":31,"Velocity":37,"Duration":411780,"SoundDuration":411780,"Delta":22429128},{"NoteNumber":57,"Velocity":42,"Duration":96774,"SoundDuration":96774,"Delta":22525903},{"NoteNumber":52,"Velocity":46,"Duration":96774,"SoundDuration":96774,"Delta":22622677},{"NoteNumber":48,"Velocity":40,"Duration":121457,"SoundDuration":121457,"Delta":22719451},{"NoteNumber":57,"Velocity":48,"Duration":716371,"SoundDuration":716371,"Delta":22780180},{"NoteNumber":60,"Velocity":44,"Duration":778031,"SoundDuration":778031,"Delta":22810544},{"NoteNumber":69,"Velocity":60,"Duration":1024116,"SoundDuration":1024116,"Delta":22840909},{"NoteNumber":29,"Velocity":50,"Duration":1116423,"SoundDuration":1116423,"Delta":22840909},{"NoteNumber":41,"Velocity":60,"Duration":1116423,"SoundDuration":1116423,"Delta":22840909},{"NoteNumber":100,"Velocity":48,"Duration":95541,"SoundDuration":95541,"Delta":22942260},{"NoteNumber":36,"Velocity":41,"Duration":95541,"SoundDuration":95541,"Delta":22942260},{"NoteNumber":96,"Velocity":44,"Duration":91743,"SoundDuration":91743,"Delta":23037801},{"NoteNumber":45,"Velocity":43,"Duration":91743,"SoundDuration":91743,"Delta":23037801},{"NoteNumber":93,"Velocity":41,"Duration":91743,"SoundDuration":91743,"Delta":23129544},{"NoteNumber":48,"Velocity":41,"Duration":91743,"SoundDuration":91743,"Delta":23129544},{"NoteNumber":88,"Velocity":46,"Duration":91742,"SoundDuration":91742,"Delta":23221287},{"NoteNumber":52,"Velocity":49,"Duration":91742,"SoundDuration":91742,"Delta":23221287},{"NoteNumber":91,"Velocity":38,"Duration":91743,"SoundDuration":91743,"Delta":23313030},{"NoteNumber":48,"Velocity":41,"Duration":91743,"SoundDuration":91743,"Delta":23313030},{"NoteNumber":88,"Velocity":40,"Duration":91778,"SoundDuration":91778,"Delta":23404773},{"NoteNumber":57,"Velocity":43,"Duration":552559,"SoundDuration":552559,"Delta":23404773},{"NoteNumber":84,"Velocity":32,"Duration":92024,"SoundDuration":92024,"Delta":23496552},{"NoteNumber":60,"Velocity":41,"Duration":276165,"SoundDuration":276165,"Delta":23496552},{"NoteNumber":72,"Velocity":35,"Duration":92024,"SoundDuration":92024,"Delta":23588576},{"NoteNumber":64,"Velocity":50,"Duration":92024,"SoundDuration":92024,"Delta":23588576},{"NoteNumber":81,"Velocity":44,"Duration":92116,"SoundDuration":92116,"Delta":23680601},{"NoteNumber":60,"Velocity":42,"Duration":276732,"SoundDuration":276732,"Delta":23680601},{"NoteNumber":84,"Velocity":32,"Duration":92307,"SoundDuration":92307,"Delta":23772717},{"NoteNumber":69,"Velocity":48,"Duration":184615,"SoundDuration":184615,"Delta":23772717},{"NoteNumber":87,"Velocity":32,"Duration":92307,"SoundDuration":92307,"Delta":23865025},{"NoteNumber":72,"Velocity":44,"Duration":92307,"SoundDuration":92307,"Delta":23865025},{"NoteNumber":83,"Velocity":38,"Duration":92400,"SoundDuration":92400,"Delta":23957333},{"NoteNumber":75,"Velocity":54,"Duration":92400,"SoundDuration":92400,"Delta":23957333},{"NoteNumber":81,"Velocity":32,"Duration":92592,"SoundDuration":92592,"Delta":24049733},{"NoteNumber":71,"Velocity":44,"Duration":92592,"SoundDuration":92592,"Delta":24049733},{"NoteNumber":71,"Velocity":34,"Duration":92592,"SoundDuration":92592,"Delta":24142325},{"NoteNumber":69,"Velocity":47,"Duration":92592,"SoundDuration":92592,"Delta":24142325},{"NoteNumber":75,"Velocity":33,"Duration":92743,"SoundDuration":92743,"Delta":24234918},{"NoteNumber":59,"Velocity":42,"Duration":92743,"SoundDuration":92743,"Delta":24234918},{"NoteNumber":71,"Velocity":36,"Duration":92879,"SoundDuration":92879,"Delta":24327661},{"NoteNumber":63,"Velocity":48,"Duration":92879,"SoundDuration":92879,"Delta":24327661},{"NoteNumber":69,"Velocity":31,"Duration":92879,"SoundDuration":92879,"Delta":24420540},{"NoteNumber":59,"Velocity":40,"Duration":92879,"SoundDuration":92879,"Delta":24420540},{"NoteNumber":59,"Velocity":33,"Duration":93088,"SoundDuration":93088,"Delta":24513419},{"NoteNumber":57,"Velocity":42,"Duration":93088,"SoundDuration":93088,"Delta":24513419},{"NoteNumber":63,"Velocity":58,"Duration":514169,"SoundDuration":514169,"Delta":24606508},{"NoteNumber":47,"Velocity":40,"Duration":102388,"SoundDuration":102388,"Delta":24606508},{"NoteNumber":59,"Velocity":36,"Duration":96774,"SoundDuration":96774,"Delta":24708897},{"NoteNumber":29,"Velocity":42,"Duration":411780,"SoundDuration":411780,"Delta":24708897},{"NoteNumber":41,"Velocity":51,"Duration":411780,"SoundDuration":411780,"Delta":24708897},{"NoteNumber":57,"Velocity":32,"Duration":96774,"SoundDuration":96774,"Delta":24805671},{"NoteNumber":51,"Velocity":33,"Duration":96774,"SoundDuration":96774,"Delta":24902445},{"NoteNumber":47,"Velocity":31,"Duration":121457,"SoundDuration":121457,"Delta":24999220},{"NoteNumber":59,"Velocity":51,"Duration":751408,"SoundDuration":751408,"Delta":25120677},{"NoteNumber":52,"Velocity":51,"Duration":476647,"SoundDuration":476647,"Delta":25120677},{"NoteNumber":64,"Velocity":63,"Duration":843151,"SoundDuration":843151,"Delta":25120677},{"NoteNumber":57,"Velocity":51,"Duration":659665,"SoundDuration":659665,"Delta":25120677},{"NoteNumber":28,"Velocity":53,"Duration":1119035,"SoundDuration":1119035,"Delta":25120677},{"NoteNumber":40,"Velocity":63,"Duration":1119035,"SoundDuration":1119035,"Delta":25120677},{"NoteNumber":100,"Velocity":51,"Duration":96509,"SoundDuration":96509,"Delta":25225379},{"NoteNumber":35,"Velocity":43,"Duration":96509,"SoundDuration":96509,"Delta":25225379},{"NoteNumber":95,"Velocity":46,"Duration":92376,"SoundDuration":92376,"Delta":25321889},{"NoteNumber":45,"Velocity":45,"Duration":92376,"SoundDuration":92376,"Delta":25321889},{"NoteNumber":93,"Velocity":43,"Duration":91596,"SoundDuration":91596,"Delta":25414265},{"NoteNumber":47,"Velocity":43,"Duration":91596,"SoundDuration":91596,"Delta":25414265},{"NoteNumber":83,"Velocity":49,"Duration":91463,"SoundDuration":91463,"Delta":25505862},{"NoteNumber":52,"Velocity":52,"Duration":733850,"SoundDuration":733850,"Delta":25505862},{"NoteNumber":88,"Velocity":40,"Duration":91463,"SoundDuration":91463,"Delta":25597325},{"NoteNumber":47,"Velocity":44,"Duration":91463,"SoundDuration":91463,"Delta":25597325},{"NoteNumber":83,"Velocity":43,"Duration":91554,"SoundDuration":91554,"Delta":25688789},{"NoteNumber":57,"Velocity":46,"Duration":550923,"SoundDuration":550923,"Delta":25688789},{"NoteNumber":81,"Velocity":34,"Duration":91743,"SoundDuration":91743,"Delta":25780343},{"NoteNumber":59,"Velocity":44,"Duration":275320,"SoundDuration":275320,"Delta":25780343},{"NoteNumber":71,"Velocity":37,"Duration":91742,"SoundDuration":91742,"Delta":25872086},{"NoteNumber":64,"Velocity":53,"Duration":367626,"SoundDuration":367626,"Delta":25872086},{"NoteNumber":81,"Velocity":47,"Duration":91834,"SoundDuration":91834,"Delta":25963829},{"NoteNumber":59,"Velocity":45,"Duration":275883,"SoundDuration":275883,"Delta":25963829},{"NoteNumber":83,"Velocity":33,"Duration":92024,"SoundDuration":92024,"Delta":26055663},{"NoteNumber":69,"Velocity":51,"Duration":92024,"SoundDuration":92024,"Delta":26055663},{"NoteNumber":88,"Velocity":33,"Duration":92024,"SoundDuration":92024,"Delta":26147688},{"NoteNumber":71,"Velocity":46,"Duration":92024,"SoundDuration":92024,"Delta":26147688},{"NoteNumber":83,"Velocity":46,"Duration":92116,"SoundDuration":92116,"Delta":26239712},{"NoteNumber":76,"Velocity":57,"Duration":92116,"SoundDuration":92116,"Delta":26239712},{"NoteNumber":80,"Velocity":36,"Duration":92307,"SoundDuration":92307,"Delta":26331829},{"NoteNumber":71,"Velocity":46,"Duration":92307,"SoundDuration":92307,"Delta":26331829},{"NoteNumber":71,"Velocity":39,"Duration":92307,"SoundDuration":92307,"Delta":26424137},{"NoteNumber":68,"Velocity":52,"Duration":92307,"SoundDuration":92307,"Delta":26424137},{"NoteNumber":76,"Velocity":36,"Duration":92400,"SoundDuration":92400,"Delta":26516444},{"NoteNumber":59,"Velocity":49,"Duration":92400,"SoundDuration":92400,"Delta":26516444},{"NoteNumber":71,"Velocity":44,"Duration":92592,"SoundDuration":92592,"Delta":26608845},{"NoteNumber":64,"Velocity":61,"Duration":92592,"SoundDuration":92592,"Delta":26608845},{"NoteNumber":68,"Velocity":40,"Duration":92592,"SoundDuration":92592,"Delta":26716869},{"NoteNumber":59,"Velocity":48,"Duration":92592,"SoundDuration":92592,"Delta":26716869},{"NoteNumber":59,"Velocity":43,"Duration":92733,"SoundDuration":92733,"Delta":26809462},{"NoteNumber":56,"Velocity":59,"Duration":92733,"SoundDuration":92733,"Delta":26809462},{"NoteNumber":64,"Velocity":67,"Duration":509406,"SoundDuration":509406,"Delta":26886715},{"NoteNumber":47,"Velocity":54,"Duration":100804,"SoundDuration":100804,"Delta":26886715},{"NoteNumber":59,"Velocity":52,"Duration":97710,"SoundDuration":97710,"Delta":26987519},{"NoteNumber":40,"Velocity":65,"Duration":408602,"SoundDuration":408602,"Delta":26987519},{"NoteNumber":28,"Velocity":54,"Duration":408602,"SoundDuration":408602,"Delta":26987519},{"NoteNumber":56,"Velocity":47,"Duration":96774,"SoundDuration":96774,"Delta":27101359},{"NoteNumber":52,"Velocity":53,"Duration":96774,"SoundDuration":96774,"Delta":27198133},{"NoteNumber":47,"Velocity":57,"Duration":117343,"SoundDuration":117343,"Delta":27278778},{"NoteNumber":67,"Velocity":77,"Duration":839839,"SoundDuration":839839,"Delta":27396122},{"NoteNumber":61,"Velocity":69,"Duration":747780,"SoundDuration":747780,"Delta":27396122},{"NoteNumber":57,"Velocity":69,"Duration":655755,"SoundDuration":655755,"Delta":27396122},{"NoteNumber":45,"Velocity":77,"Duration":288635,"SoundDuration":288635,"Delta":27396122},{"NoteNumber":33,"Velocity":73,"Duration":1116969,"SoundDuration":1116969,"Delta":27396122},{"NoteNumber":103,"Velocity":65,"Duration":95541,"SoundDuration":95541,"Delta":27497473},{"NoteNumber":40,"Velocity":59,"Duration":95541,"SoundDuration":95541,"Delta":27497473},{"NoteNumber":97,"Velocity":62,"Duration":91743,"SoundDuration":91743,"Delta":27593014},{"NoteNumber":45,"Velocity":62,"Duration":920076,"SoundDuration":920076,"Delta":27593014},{"NoteNumber":93,"Velocity":59,"Duration":91743,"SoundDuration":91743,"Delta":27684757},{"NoteNumber":49,"Velocity":59,"Duration":91743,"SoundDuration":91743,"Delta":27684757},{"NoteNumber":88,"Velocity":64,"Duration":91742,"SoundDuration":91742,"Delta":27776500},{"NoteNumber":55,"Velocity":70,"Duration":91742,"SoundDuration":91742,"Delta":27776500},{"NoteNumber":91,"Velocity":55,"Duration":91743,"SoundDuration":91743,"Delta":27868243},{"NoteNumber":52,"Velocity":59,"Duration":91743,"SoundDuration":91743,"Delta":27868243},{"NoteNumber":85,"Velocity":59,"Duration":91890,"SoundDuration":91890,"Delta":27959986},{"NoteNumber":57,"Velocity":62,"Duration":553104,"SoundDuration":553104,"Delta":27959986},{"NoteNumber":81,"Velocity":54,"Duration":92024,"SoundDuration":92024,"Delta":28051877},{"NoteNumber":61,"Velocity":60,"Duration":461214,"SoundDuration":461214,"Delta":28051877},{"NoteNumber":76,"Velocity":52,"Duration":92059,"SoundDuration":92059,"Delta":28143902},{"NoteNumber":67,"Velocity":73,"Duration":369189,"SoundDuration":369189,"Delta":28143902},{"NoteNumber":81,"Velocity":64,"Duration":92307,"SoundDuration":92307,"Delta":28235962},{"NoteNumber":64,"Velocity":61,"Duration":92307,"SoundDuration":92307,"Delta":28235962},{"NoteNumber":85,"Velocity":45,"Duration":92307,"SoundDuration":92307,"Delta":28328269},{"NoteNumber":69,"Velocity":68,"Duration":92307,"SoundDuration":92307,"Delta":28328269},{"NoteNumber":91,"Velocity":45,"Duration":92514,"SoundDuration":92514,"Delta":28420577},{"NoteNumber":73,"Velocity":62,"Duration":92514,"SoundDuration":92514,"Delta":28420577},{"NoteNumber":85,"Velocity":55,"Duration":92592,"SoundDuration":92592,"Delta":28513091},{"NoteNumber":79,"Velocity":73,"Duration":92592,"SoundDuration":92592,"Delta":28513091},{"NoteNumber":81,"Velocity":45,"Duration":92685,"SoundDuration":92685,"Delta":28605684},{"NoteNumber":73,"Velocity":62,"Duration":92685,"SoundDuration":92685,"Delta":28605684},{"NoteNumber":76,"Velocity":49,"Duration":92879,"SoundDuration":92879,"Delta":28698369},{"NoteNumber":69,"Velocity":67,"Duration":92879,"SoundDuration":92879,"Delta":28698369},{"NoteNumber":79,"Velocity":46,"Duration":92879,"SoundDuration":92879,"Delta":28791249},{"NoteNumber":64,"Velocity":60,"Duration":92879,"SoundDuration":92879,"Delta":28791249},{"NoteNumber":73,"Velocity":52,"Duration":93146,"SoundDuration":93146,"Delta":28884128},{"NoteNumber":67,"Velocity":66,"Duration":93146,"SoundDuration":93146,"Delta":28884128},{"NoteNumber":69,"Velocity":44,"Duration":93167,"SoundDuration":93167,"Delta":28977274},{"NoteNumber":61,"Velocity":57,"Duration":93167,"SoundDuration":93167,"Delta":28977274},{"NoteNumber":64,"Velocity":47,"Duration":93320,"SoundDuration":93320,"Delta":29070442},{"NoteNumber":57,"Velocity":61,"Duration":93320,"SoundDuration":93320,"Delta":29070442},{"NoteNumber":67,"Velocity":44,"Duration":102388,"SoundDuration":102388,"Delta":29163762},{"NoteNumber":52,"Velocity":56,"Duration":102388,"SoundDuration":102388,"Delta":29163762},{"NoteNumber":66,"Velocity":75,"Duration":411780,"SoundDuration":411780,"Delta":29266151},{"NoteNumber":38,"Velocity":72,"Duration":411780,"SoundDuration":411780,"Delta":29266151},{"NoteNumber":26,"Velocity":59,"Duration":411780,"SoundDuration":411780,"Delta":29266151},{"NoteNumber":60,"Velocity":39,"Duration":96774,"SoundDuration":96774,"Delta":29362925},{"NoteNumber":57,"Velocity":43,"Duration":96774,"SoundDuration":96774,"Delta":29459699},{"NoteNumber":50,"Velocity":38,"Duration":121457,"SoundDuration":121457,"Delta":29556474},{"NoteNumber":55,"Velocity":69,"Duration":654769,"SoundDuration":654769,"Delta":29677931},{"NoteNumber":60,"Velocity":69,"Duration":746512,"SoundDuration":746512,"Delta":29677931},{"NoteNumber":65,"Velocity":77,"Duration":838255,"SoundDuration":838255,"Delta":29677931},{"NoteNumber":31,"Velocity":73,"Duration":1114082,"SoundDuration":1114082,"Delta":29677931},{"NoteNumber":43,"Velocity":77,"Duration":288635,"SoundDuration":288635,"Delta":29677931},{"NoteNumber":101,"Velocity":65,"Duration":95541,"SoundDuration":95541,"Delta":29779282},{"NoteNumber":38,"Velocity":59,"Duration":95541,"SoundDuration":95541,"Delta":29779282},{"NoteNumber":96,"Velocity":62,"Duration":91743,"SoundDuration":91743,"Delta":29874824},{"NoteNumber":43,"Velocity":62,"Duration":917189,"SoundDuration":917189,"Delta":29874824},{"NoteNumber":91,"Velocity":59,"Duration":91708,"SoundDuration":91708,"Delta":29966567},{"NoteNumber":48,"Velocity":59,"Duration":91708,"SoundDuration":91708,"Delta":29966567},{"NoteNumber":86,"Velocity":64,"Duration":91463,"SoundDuration":91463,"Delta":30058275},{"NoteNumber":53,"Velocity":70,"Duration":91463,"SoundDuration":91463,"Delta":30058275},{"NoteNumber":89,"Velocity":55,"Duration":91463,"SoundDuration":91463,"Delta":30149739},{"NoteNumber":50,"Velocity":59,"Duration":91463,"SoundDuration":91463,"Delta":30149739},{"NoteNumber":84,"Velocity":59,"Duration":91498,"SoundDuration":91498,"Delta":30241202},{"NoteNumber":55,"Velocity":62,"Duration":550811,"SoundDuration":550811,"Delta":30241202},{"NoteNumber":79,"Velocity":54,"Duration":91742,"SoundDuration":91742,"Delta":30332700},{"NoteNumber":60,"Velocity":60,"Duration":459313,"SoundDuration":459313,"Delta":30332700},{"NoteNumber":74,"Velocity":52,"Duration":91743,"SoundDuration":91743,"Delta":30424443},{"NoteNumber":65,"Velocity":73,"Duration":367570,"SoundDuration":367570,"Delta":30424443},{"NoteNumber":79,"Velocity":64,"Duration":91778,"SoundDuration":91778,"Delta":30516186},{"NoteNumber":62,"Velocity":61,"Duration":91778,"SoundDuration":91778,"Delta":30516186},{"NoteNumber":84,"Velocity":45,"Duration":92024,"SoundDuration":92024,"Delta":30607965},{"NoteNumber":67,"Velocity":68,"Duration":92024,"SoundDuration":92024,"Delta":30607965},{"NoteNumber":89,"Velocity":45,"Duration":92024,"SoundDuration":92024,"Delta":30699989},{"NoteNumber":72,"Velocity":62,"Duration":92024,"SoundDuration":92024,"Delta":30699989},{"NoteNumber":83,"Velocity":55,"Duration":92116,"SoundDuration":92116,"Delta":30792014},{"NoteNumber":77,"Velocity":74,"Duration":92116,"SoundDuration":92116,"Delta":30792014},{"NoteNumber":79,"Velocity":45,"Duration":92307,"SoundDuration":92307,"Delta":30884130},{"NoteNumber":71,"Velocity":62,"Duration":92307,"SoundDuration":92307,"Delta":30884130},{"NoteNumber":74,"Velocity":49,"Duration":92307,"SoundDuration":92307,"Delta":30976438},{"NoteNumber":67,"Velocity":64,"Duration":92307,"SoundDuration":92307,"Delta":30976438},{"NoteNumber":77,"Velocity":46,"Duration":92400,"SoundDuration":92400,"Delta":31068746},{"NoteNumber":62,"Velocity":60,"Duration":92400,"SoundDuration":92400,"Delta":31068746},{"NoteNumber":71,"Velocity":52,"Duration":92592,"SoundDuration":92592,"Delta":31161146},{"NoteNumber":65,"Velocity":66,"Duration":92592,"SoundDuration":92592,"Delta":31161146},{"NoteNumber":67,"Velocity":44,"Duration":92592,"SoundDuration":92592,"Delta":31253739},{"NoteNumber":59,"Velocity":57,"Duration":92592,"SoundDuration":92592,"Delta":31253739},{"NoteNumber":62,"Velocity":47,"Duration":92743,"SoundDuration":92743,"Delta":31346331},{"NoteNumber":55,"Velocity":61,"Duration":92743,"SoundDuration":92743,"Delta":31346331},{"NoteNumber":65,"Velocity":44,"Duration":102388,"SoundDuration":102388,"Delta":31439074},{"NoteNumber":50,"Velocity":56,"Duration":102388,"SoundDuration":102388,"Delta":31439074},{"NoteNumber":64,"Velocity":76,"Duration":411780,"SoundDuration":411780,"Delta":31541463},{"NoteNumber":24,"Velocity":59,"Duration":411780,"SoundDuration":411780,"Delta":31541463},{"NoteNumber":36,"Velocity":72,"Duration":411780,"SoundDuration":411780,"Delta":31541463},{"NoteNumber":59,"Velocity":41,"Duration":96774,"SoundDuration":96774,"Delta":31638237},{"NoteNumber":55,"Velocity":45,"Duration":96774,"SoundDuration":96774,"Delta":31735012},{"NoteNumber":48,"Velocity":39,"Duration":121457,"SoundDuration":121457,"Delta":31831786},{"NoteNumber":58,"Velocity":69,"Duration":746624,"SoundDuration":746624,"Delta":31953243},{"NoteNumber":55,"Velocity":69,"Duration":654881,"SoundDuration":654881,"Delta":31953243},{"NoteNumber":64,"Velocity":77,"Duration":838439,"SoundDuration":838439,"Delta":31953243},{"NoteNumber":48,"Velocity":77,"Duration":563233,"SoundDuration":563233,"Delta":31953243},{"NoteNumber":36,"Velocity":73,"Duration":101351,"SoundDuration":101351,"Delta":31953243},{"NoteNumber":100,"Velocity":65,"Duration":95541,"SoundDuration":95541,"Delta":32054595},{"NoteNumber":36,"Velocity":59,"Duration":1013405,"SoundDuration":1013405,"Delta":32054595},{"NoteNumber":94,"Velocity":62,"Duration":91743,"SoundDuration":91743,"Delta":32150136},{"NoteNumber":43,"Velocity":62,"Duration":91743,"SoundDuration":91743,"Delta":32150136},{"NoteNumber":91,"Velocity":59,"Duration":91670,"SoundDuration":91670,"Delta":32241879},{"NoteNumber":46,"Velocity":59,"Duration":91670,"SoundDuration":91670,"Delta":32241879},{"NoteNumber":84,"Velocity":64,"Duration":91463,"SoundDuration":91463,"Delta":32333550},{"NoteNumber":52,"Velocity":70,"Duration":91463,"SoundDuration":91463,"Delta":32333550},{"NoteNumber":88,"Velocity":55,"Duration":91463,"SoundDuration":91463,"Delta":32425013},{"NoteNumber":48,"Velocity":59,"Duration":642986,"SoundDuration":642986,"Delta":32425013},{"NoteNumber":82,"Velocity":59,"Duration":91647,"SoundDuration":91647,"Delta":32516477},{"NoteNumber":55,"Velocity":62,"Duration":551522,"SoundDuration":551522,"Delta":32516477},{"NoteNumber":79,"Velocity":54,"Duration":91743,"SoundDuration":91743,"Delta":32608124},{"NoteNumber":58,"Velocity":60,"Duration":459875,"SoundDuration":459875,"Delta":32608124},{"NoteNumber":72,"Velocity":52,"Duration":91815,"SoundDuration":91815,"Delta":32699867},{"NoteNumber":64,"Velocity":70,"Duration":368132,"SoundDuration":368132,"Delta":32699867},{"NoteNumber":79,"Velocity":64,"Duration":92024,"SoundDuration":92024,"Delta":32791683},{"NoteNumber":60,"Velocity":59,"Duration":92024,"SoundDuration":92024,"Delta":32791683},{"NoteNumber":82,"Velocity":45,"Duration":92024,"SoundDuration":92024,"Delta":32883708},{"NoteNumber":67,"Velocity":68,"Duration":92024,"SoundDuration":92024,"Delta":32883708},{"NoteNumber":87,"Velocity":45,"Duration":92267,"SoundDuration":92267,"Delta":32975732},{"NoteNumber":70,"Velocity":62,"Duration":92267,"SoundDuration":92267,"Delta":32975732},{"NoteNumber":82,"Velocity":55,"Duration":92307,"SoundDuration":92307,"Delta":33068000},{"NoteNumber":75,"Velocity":69,"Duration":92307,"SoundDuration":92307,"Delta":33068000},{"NoteNumber":78,"Velocity":45,"Duration":92438,"SoundDuration":92438,"Delta":33160307},{"NoteNumber":70,"Velocity":59,"Duration":92438,"SoundDuration":92438,"Delta":33160307},{"NoteNumber":72,"Velocity":50,"Duration":92592,"SoundDuration":92592,"Delta":33252746},{"NoteNumber":63,"Velocity":64,"Duration":92592,"SoundDuration":92592,"Delta":33252746},{"NoteNumber":75,"Velocity":46,"Duration":92609,"SoundDuration":92609,"Delta":33345338},{"NoteNumber":60,"Velocity":61,"Duration":92609,"SoundDuration":92609,"Delta":33345338},{"NoteNumber":70,"Velocity":53,"Duration":92879,"SoundDuration":92879,"Delta":33437947},{"NoteNumber":63,"Velocity":67,"Duration":92879,"SoundDuration":92879,"Delta":33437947},{"NoteNumber":66,"Velocity":44,"Duration":92879,"SoundDuration":92879,"Delta":33530827},{"NoteNumber":58,"Velocity":58,"Duration":92879,"SoundDuration":92879,"Delta":33530827},{"NoteNumber":60,"Velocity":48,"Duration":93069,"SoundDuration":93069,"Delta":33623706},{"NoteNumber":51,"Velocity":62,"Duration":93069,"SoundDuration":93069,"Delta":33623706},{"NoteNumber":63,"Velocity":76,"Duration":514169,"SoundDuration":514169,"Delta":33716775},{"NoteNumber":48,"Velocity":57,"Duration":102389,"SoundDuration":102389,"Delta":33716775},{"NoteNumber":58,"Velocity":53,"Duration":96774,"SoundDuration":96774,"Delta":33819164},{"NoteNumber":30,"Velocity":60,"Duration":411780,"SoundDuration":411780,"Delta":33819164},{"NoteNumber":42,"Velocity":74,"Duration":411780,"SoundDuration":411780,"Delta":33819164},{"NoteNumber":51,"Velocity":43,"Duration":96774,"SoundDuration":96774,"Delta":33915938},{"NoteNumber":48,"Velocity":48,"Duration":96774,"SoundDuration":96774,"Delta":34012713},{"NoteNumber":46,"Velocity":41,"Duration":121457,"SoundDuration":121457,"Delta":34109487},{"NoteNumber":51,"Velocity":71,"Duration":471643,"SoundDuration":471643,"Delta":34230944},{"NoteNumber":63,"Velocity":79,"Duration":837587,"SoundDuration":837587,"Delta":34230944},{"NoteNumber":57,"Velocity":71,"Duration":745844,"SoundDuration":745844,"Delta":34230944},{"NoteNumber":29,"Velocity":75,"Duration":1113694,"SoundDuration":1113694,"Delta":34230944},{"NoteNumber":41,"Velocity":79,"Duration":1113694,"SoundDuration":1113694,"Delta":34230944},{"NoteNumber":99,"Velocity":67,"Duration":95541,"SoundDuration":95541,"Delta":34332296},{"NoteNumber":36,"Velocity":60,"Duration":95541,"SoundDuration":95541,"Delta":34332296},{"NoteNumber":93,"Velocity":64,"Duration":91743,"SoundDuration":91743,"Delta":34427837},{"NoteNumber":39,"Velocity":64,"Duration":91743,"SoundDuration":91743,"Delta":34427837},{"NoteNumber":87,"Velocity":61,"Duration":91743,"SoundDuration":91743,"Delta":34519580},{"NoteNumber":45,"Velocity":61,"Duration":91743,"SoundDuration":91743,"Delta":34519580},{"NoteNumber":84,"Velocity":66,"Duration":91264,"SoundDuration":91264,"Delta":34611323},{"NoteNumber":51,"Velocity":72,"Duration":273929,"SoundDuration":273929,"Delta":34611323},{"NoteNumber":87,"Velocity":57,"Duration":91201,"SoundDuration":91201,"Delta":34702588},{"NoteNumber":48,"Velocity":61,"Duration":91201,"SoundDuration":91201,"Delta":34702588},{"NoteNumber":81,"Velocity":61,"Duration":91463,"SoundDuration":91463,"Delta":34793789},{"NoteNumber":51,"Velocity":64,"Duration":550849,"SoundDuration":550849,"Delta":34793789},{"NoteNumber":75,"Velocity":56,"Duration":91535,"SoundDuration":91535,"Delta":34885253},{"NoteNumber":57,"Velocity":62,"Duration":459386,"SoundDuration":459386,"Delta":34885253},{"NoteNumber":72,"Velocity":54,"Duration":91742,"SoundDuration":91742,"Delta":34976789},{"NoteNumber":63,"Velocity":76,"Duration":275639,"SoundDuration":275639,"Delta":34976789},{"NoteNumber":75,"Velocity":67,"Duration":91872,"SoundDuration":91872,"Delta":35068532},{"NoteNumber":60,"Velocity":64,"Duration":91872,"SoundDuration":91872,"Delta":35068532},{"NoteNumber":81,"Velocity":47,"Duration":92024,"SoundDuration":92024,"Delta":35160404},{"NoteNumber":63,"Velocity":71,"Duration":184235,"SoundDuration":184235,"Delta":35160404},{"NoteNumber":87,"Velocity":47,"Duration":92210,"SoundDuration":92210,"Delta":35252428},{"NoteNumber":69,"Velocity":65,"Duration":92210,"SoundDuration":92210,"Delta":35252428},{"NoteNumber":80,"Velocity":57,"Duration":92307,"SoundDuration":92307,"Delta":35344639},{"NoteNumber":75,"Velocity":73,"Duration":92307,"SoundDuration":92307,"Delta":35344639},{"NoteNumber":75,"Velocity":47,"Duration":92552,"SoundDuration":92552,"Delta":35436947},{"NoteNumber":68,"Velocity":65,"Duration":92552,"SoundDuration":92552,"Delta":35436947},{"NoteNumber":71,"Velocity":51,"Duration":92609,"SoundDuration":92609,"Delta":35529499},{"NoteNumber":63,"Velocity":65,"Duration":92609,"SoundDuration":92609,"Delta":35529499},{"NoteNumber":75,"Velocity":48,"Duration":92879,"SoundDuration":92879,"Delta":35622108},{"NoteNumber":59,"Velocity":63,"Duration":92879,"SoundDuration":92879,"Delta":35622108},{"NoteNumber":68,"Velocity":55,"Duration":92953,"SoundDuration":92953,"Delta":35714987},{"NoteNumber":63,"Velocity":70,"Duration":92953,"SoundDuration":92953,"Delta":35714987},{"NoteNumber":63,"Velocity":46,"Duration":93167,"SoundDuration":93167,"Delta":35807941},{"NoteNumber":56,"Velocity":60,"Duration":93167,"SoundDuration":93167,"Delta":35807941},{"NoteNumber":59,"Velocity":50,"Duration":93300,"SoundDuration":93300,"Delta":35901109},{"NoteNumber":51,"Velocity":64,"Duration":93300,"SoundDuration":93300,"Delta":35901109},{"NoteNumber":63,"Velocity":76,"Duration":514169,"SoundDuration":514169,"Delta":35994410},{"NoteNumber":47,"Velocity":58,"Duration":102389,"SoundDuration":102389,"Delta":35994410},{"NoteNumber":59,"Velocity":55,"Duration":96774,"SoundDuration":96774,"Delta":36096799},{"NoteNumber":41,"Velocity":76,"Duration":411780,"SoundDuration":411780,"Delta":36096799},{"NoteNumber":29,"Velocity":62,"Duration":411780,"SoundDuration":411780,"Delta":36096799},{"NoteNumber":56,"Velocity":44,"Duration":96774,"SoundDuration":96774,"Delta":36193573},{"NoteNumber":51,"Velocity":48,"Duration":96774,"SoundDuration":96774,"Delta":36290347},{"NoteNumber":47,"Velocity":44,"Duration":121457,"SoundDuration":121457,"Delta":36387121},{"NoteNumber":56,"Velocity":74,"Duration":747761,"SoundDuration":747761,"Delta":36508579},{"NoteNumber":50,"Velocity":74,"Duration":472121,"SoundDuration":472121,"Delta":36508579},{"NoteNumber":62,"Velocity":82,"Duration":839802,"SoundDuration":839802,"Delta":36508579},{"NoteNumber":34,"Velocity":77,"Duration":101351,"SoundDuration":101351,"Delta":36508579},{"NoteNumber":46,"Velocity":82,"Duration":563864,"SoundDuration":563864,"Delta":36508579},{"NoteNumber":98,"Velocity":69,"Duration":95541,"SoundDuration":95541,"Delta":36609930},{"NoteNumber":34,"Velocity":63,"Duration":1015618,"SoundDuration":1015618,"Delta":36609930},{"NoteNumber":92,"Velocity":66,"Duration":91743,"SoundDuration":91743,"Delta":36705472},{"NoteNumber":41,"Velocity":66,"Duration":91743,"SoundDuration":91743,"Delta":36705472},{"NoteNumber":89,"Velocity":63,"Duration":91743,"SoundDuration":91743,"Delta":36797215},{"NoteNumber":44,"Velocity":63,"Duration":91743,"SoundDuration":91743,"Delta":36797215},{"NoteNumber":82,"Velocity":69,"Duration":91742,"SoundDuration":91742,"Delta":36888958},{"NoteNumber":50,"Velocity":75,"Duration":736591,"SoundDuration":736591,"Delta":36888958},{"NoteNumber":86,"Velocity":58,"Duration":91743,"SoundDuration":91743,"Delta":36980701},{"NoteNumber":46,"Velocity":64,"Duration":644848,"SoundDuration":644848,"Delta":36980701},{"NoteNumber":80,"Velocity":64,"Duration":91872,"SoundDuration":91872,"Delta":37072444},{"NoteNumber":53,"Velocity":67,"Duration":91872,"SoundDuration":91872,"Delta":37072444},{"NoteNumber":77,"Velocity":57,"Duration":92024,"SoundDuration":92024,"Delta":37164316},{"NoteNumber":56,"Velocity":65,"Duration":461233,"SoundDuration":461233,"Delta":37164316},{"NoteNumber":70,"Velocity":56,"Duration":92041,"SoundDuration":92041,"Delta":37256340},{"NoteNumber":62,"Velocity":78,"Duration":369208,"SoundDuration":369208,"Delta":37256340},{"NoteNumber":77,"Velocity":69,"Duration":92307,"SoundDuration":92307,"Delta":37348381},{"NoteNumber":58,"Velocity":66,"Duration":92307,"SoundDuration":92307,"Delta":37348381},{"NoteNumber":80,"Velocity":49,"Duration":92307,"SoundDuration":92307,"Delta":37440689},{"NoteNumber":65,"Velocity":74,"Duration":92307,"SoundDuration":92307,"Delta":37440689},{"NoteNumber":86,"Velocity":49,"Duration":92552,"SoundDuration":92552,"Delta":37532997},{"NoteNumber":68,"Velocity":67,"Duration":92552,"SoundDuration":92552,"Delta":37532997},{"NoteNumber":80,"Velocity":59,"Duration":92592,"SoundDuration":92592,"Delta":37625549},{"NoteNumber":74,"Velocity":77,"Duration":92592,"SoundDuration":92592,"Delta":37625549},{"NoteNumber":76,"Velocity":49,"Duration":92723,"SoundDuration":92723,"Delta":37718141},{"NoteNumber":68,"Velocity":67,"Duration":92723,"SoundDuration":92723,"Delta":37718141},{"NoteNumber":70,"Velocity":53,"Duration":92879,"SoundDuration":92879,"Delta":37810865},{"NoteNumber":64,"Velocity":70,"Duration":92879,"SoundDuration":92879,"Delta":37810865},{"NoteNumber":74,"Velocity":50,"Duration":92896,"SoundDuration":92896,"Delta":37903745},{"NoteNumber":58,"Velocity":65,"Duration":92896,"SoundDuration":92896,"Delta":37903745},{"NoteNumber":68,"Velocity":57,"Duration":93167,"SoundDuration":93167,"Delta":37996641},{"NoteNumber":62,"Velocity":73,"Duration":93167,"SoundDuration":93167,"Delta":37996641},{"NoteNumber":64,"Velocity":48,"Duration":93167,"SoundDuration":93167,"Delta":38089808},{"NoteNumber":56,"Velocity":63,"Duration":93167,"SoundDuration":93167,"Delta":38089808},{"NoteNumber":58,"Velocity":52,"Duration":93416,"SoundDuration":93416,"Delta":38182976},{"NoteNumber":52,"Velocity":67,"Duration":93416,"SoundDuration":93416,"Delta":38182976},{"NoteNumber":62,"Velocity":79,"Duration":514169,"SoundDuration":514169,"Delta":38276393},{"NoteNumber":46,"Velocity":60,"Duration":102389,"SoundDuration":102389,"Delta":38276393},{"NoteNumber":56,"Velocity":57,"Duration":96774,"SoundDuration":96774,"Delta":38378782},{"NoteNumber":50,"Velocity":67,"Duration":96774,"SoundDuration":96774,"Delta":38378782},{"NoteNumber":52,"Velocity":45,"Duration":96774,"SoundDuration":96774,"Delta":38475556},{"NoteNumber":44,"Velocity":58,"Duration":96774,"SoundDuration":96774,"Delta":38475556},{"NoteNumber":50,"Velocity":50,"Duration":96774,"SoundDuration":96774,"Delta":38572331},{"NoteNumber":40,"Velocity":65,"Duration":96774,"SoundDuration":96774,"Delta":38572331},{"NoteNumber":46,"Velocity":43,"Duration":121457,"SoundDuration":121457,"Delta":38669105},{"NoteNumber":34,"Velocity":58,"Duration":121457,"SoundDuration":121457,"Delta":38669105},{"NoteNumber":57,"Velocity":76,"Duration":748566,"SoundDuration":748566,"Delta":38790562},{"NoteNumber":62,"Velocity":86,"Duration":840874,"SoundDuration":840874,"Delta":38790562},{"NoteNumber":50,"Velocity":76,"Duration":472419,"SoundDuration":472419,"Delta":38790562},{"NoteNumber":52,"Velocity":76,"Duration":656468,"SoundDuration":656468,"Delta":38790562},{"NoteNumber":45,"Velocity":86,"Duration":380395,"SoundDuration":380395,"Delta":38790562},{"NoteNumber":33,"Velocity":80,"Duration":101351,"SoundDuration":101351,"Delta":38790562},{"NoteNumber":98,"Velocity":72,"Duration":95541,"SoundDuration":95541,"Delta":38891914},{"NoteNumber":33,"Velocity":65,"Duration":1016633,"SoundDuration":1016633,"Delta":38891914},{"NoteNumber":93,"Velocity":69,"Duration":91743,"SoundDuration":91743,"Delta":38987455},{"NoteNumber":40,"Velocity":69,"Duration":91743,"SoundDuration":91743,"Delta":38987455},{"NoteNumber":88,"Velocity":65,"Duration":91759,"SoundDuration":91759,"Delta":39079198},{"NoteNumber":45,"Velocity":65,"Duration":275808,"SoundDuration":275808,"Delta":39079198},{"NoteNumber":81,"Velocity":71,"Duration":92024,"SoundDuration":92024,"Delta":39170957},{"NoteNumber":50,"Velocity":77,"Duration":737589,"SoundDuration":737589,"Delta":39170957},{"NoteNumber":86,"Velocity":60,"Duration":92024,"SoundDuration":92024,"Delta":39262982},{"NoteNumber":45,"Velocity":66,"Duration":645565,"SoundDuration":645565,"Delta":39262982},{"NoteNumber":81,"Velocity":66,"Duration":92024,"SoundDuration":92024,"Delta":39355006},{"NoteNumber":52,"Velocity":69,"Duration":553540,"SoundDuration":553540,"Delta":39355006},{"NoteNumber":76,"Velocity":59,"Duration":92097,"SoundDuration":92097,"Delta":39447031},{"NoteNumber":57,"Velocity":67,"Duration":276713,"SoundDuration":276713,"Delta":39447031},{"NoteNumber":69,"Velocity":57,"Duration":92307,"SoundDuration":92307,"Delta":39539129},{"NoteNumber":62,"Velocity":81,"Duration":369418,"SoundDuration":369418,"Delta":39539129},{"NoteNumber":76,"Velocity":72,"Duration":92307,"SoundDuration":92307,"Delta":39631436},{"NoteNumber":57,"Velocity":68,"Duration":277110,"SoundDuration":277110,"Delta":39631436},{"NoteNumber":81,"Velocity":50,"Duration":92307,"SoundDuration":92307,"Delta":39723744},{"NoteNumber":64,"Velocity":76,"Duration":92307,"SoundDuration":92307,"Delta":39723744},{"NoteNumber":85,"Velocity":50,"Duration":92495,"SoundDuration":92495,"Delta":39816052},{"NoteNumber":69,"Velocity":69,"Duration":92495,"SoundDuration":92495,"Delta":39816052},{"NoteNumber":81,"Velocity":61,"Duration":92592,"SoundDuration":92592,"Delta":39908547},{"NoteNumber":73,"Velocity":82,"Duration":92592,"SoundDuration":92592,"Delta":39908547},{"NoteNumber":76,"Velocity":51,"Duration":92592,"SoundDuration":92592,"Delta":40001140},{"NoteNumber":69,"Velocity":70,"Duration":92592,"SoundDuration":92592,"Delta":40001140},{"NoteNumber":69,"Velocity":55,"Duration":92609,"SoundDuration":92609,"Delta":40093732},{"NoteNumber":64,"Velocity":72,"Duration":92609,"SoundDuration":92609,"Delta":40093732},{"NoteNumber":73,"Velocity":52,"Duration":92879,"SoundDuration":92879,"Delta":40186341},{"NoteNumber":57,"Velocity":68,"Duration":92879,"SoundDuration":92879,"Delta":40186341},{"NoteNumber":69,"Velocity":58,"Duration":92879,"SoundDuration":92879,"Delta":40279221},{"NoteNumber":61,"Velocity":75,"Duration":92879,"SoundDuration":92879,"Delta":40279221},{"NoteNumber":64,"Velocity":50,"Duration":92879,"SoundDuration":92879,"Delta":40372100},{"NoteNumber":57,"Velocity":64,"Duration":92879,"SoundDuration":92879,"Delta":40372100},{"NoteNumber":57,"Velocity":54,"Duration":93011,"SoundDuration":93011,"Delta":40464979},{"NoteNumber":52,"Velocity":70,"Duration":93011,"SoundDuration":93011,"Delta":40464979},{"NoteNumber":61,"Velocity":85,"Duration":514169,"SoundDuration":514169,"Delta":40557991},{"NoteNumber":45,"Velocity":63,"Duration":102389,"SoundDuration":102389,"Delta":40557991},{"NoteNumber":57,"Velocity":58,"Duration":96774,"SoundDuration":96774,"Delta":40660380},{"NoteNumber":49,"Velocity":70,"Duration":96774,"SoundDuration":96774,"Delta":40660380},{"NoteNumber":52,"Velocity":47,"Duration":96774,"SoundDuration":96774,"Delta":40757154},{"NoteNumber":45,"Velocity":60,"Duration":96774,"SoundDuration":96774,"Delta":40757154},{"NoteNumber":49,"Velocity":54,"Duration":96774,"SoundDuration":96774,"Delta":40853928},{"NoteNumber":40,"Velocity":67,"Duration":96774,"SoundDuration":96774,"Delta":40853928},{"NoteNumber":45,"Velocity":46,"Duration":121457,"SoundDuration":121457,"Delta":40950702},{"NoteNumber":33,"Velocity":59,"Duration":121457,"SoundDuration":121457,"Delta":40950702},{"NoteNumber":60,"Velocity":76,"Duration":839391,"SoundDuration":839391,"Delta":41072160},{"NoteNumber":66,"Velocity":76,"Duration":1115991,"SoundDuration":1115991,"Delta":41072160},{"NoteNumber":72,"Velocity":88,"Duration":1115991,"SoundDuration":1115991,"Delta":41072160},{"NoteNumber":26,"Velocity":70,"Duration":1115991,"SoundDuration":1115991,"Delta":41072160},{"NoteNumber":38,"Velocity":77,"Duration":288635,"SoundDuration":288635,"Delta":41072160},{"NoteNumber":84,"Velocity":73,"Duration":95541,"SoundDuration":95541,"Delta":41173511},{"NoteNumber":96,"Velocity":78,"Duration":95541,"SoundDuration":95541,"Delta":41173511},{"NoteNumber":33,"Velocity":71,"Duration":95541,"SoundDuration":95541,"Delta":41173511},{"NoteNumber":90,"Velocity":74,"Duration":91743,"SoundDuration":91743,"Delta":41269053},{"NoteNumber":38,"Velocity":74,"Duration":919098,"SoundDuration":919098,"Delta":41269053},{"NoteNumber":86,"Velocity":70,"Duration":91743,"SoundDuration":91743,"Delta":41360796},{"NoteNumber":42,"Velocity":70,"Duration":91743,"SoundDuration":91743,"Delta":41360796},{"NoteNumber":81,"Velocity":76,"Duration":91743,"SoundDuration":91743,"Delta":41452539},{"NoteNumber":48,"Velocity":83,"Duration":91743,"SoundDuration":91743,"Delta":41452539},{"NoteNumber":84,"Velocity":63,"Duration":91743,"SoundDuration":91743,"Delta":41544282},{"NoteNumber":45,"Velocity":70,"Duration":91743,"SoundDuration":91743,"Delta":41544282},{"NoteNumber":78,"Velocity":70,"Duration":91743,"SoundDuration":91743,"Delta":41636025},{"NoteNumber":50,"Velocity":73,"Duration":91743,"SoundDuration":91743,"Delta":41636025},{"NoteNumber":74,"Velocity":62,"Duration":91759,"SoundDuration":91759,"Delta":41727768},{"NoteNumber":54,"Velocity":71,"Duration":91759,"SoundDuration":91759,"Delta":41727768},{"NoteNumber":69,"Velocity":60,"Duration":92024,"SoundDuration":92024,"Delta":41819527},{"NoteNumber":60,"Velocity":84,"Duration":368624,"SoundDuration":368624,"Delta":41819527},{"NoteNumber":74,"Velocity":75,"Duration":92024,"SoundDuration":92024,"Delta":41911551},{"NoteNumber":57,"Velocity":71,"Duration":92024,"SoundDuration":92024,"Delta":41911551},{"NoteNumber":78,"Velocity":58,"Duration":92267,"SoundDuration":92267,"Delta":42003576},{"NoteNumber":62,"Velocity":77,"Duration":92267,"SoundDuration":92267,"Delta":42003576},{"NoteNumber":84,"Velocity":58,"Duration":92307,"SoundDuration":92307,"Delta":42095844},{"NoteNumber":66,"Velocity":71,"Duration":92307,"SoundDuration":92307,"Delta":42095844},{"NoteNumber":77,"Velocity":62,"Duration":92495,"SoundDuration":92495,"Delta":42188151},{"NoteNumber":72,"Velocity":82,"Duration":373484,"SoundDuration":373484,"Delta":42188151},{"NoteNumber":74,"Velocity":52,"Duration":92592,"SoundDuration":92592,"Delta":42280647},{"NoteNumber":65,"Velocity":71,"Duration":92592,"SoundDuration":92592,"Delta":42280647},{"NoteNumber":69,"Velocity":56,"Duration":92723,"SoundDuration":92723,"Delta":42373239},{"NoteNumber":62,"Velocity":79,"Duration":92723,"SoundDuration":92723,"Delta":42373239},{"NoteNumber":72,"Velocity":52,"Duration":95672,"SoundDuration":95672,"Delta":42465963},{"NoteNumber":57,"Velocity":70,"Duration":95672,"SoundDuration":95672,"Delta":42465963},{"NoteNumber":71,"Velocity":62,"Duration":90518,"SoundDuration":90518,"Delta":42561636},{"NoteNumber":83,"Velocity":75,"Duration":90518,"SoundDuration":90518,"Delta":42561636},{"NoteNumber":60,"Velocity":79,"Duration":366962,"SoundDuration":366962,"Delta":42561636},{"NoteNumber":81,"Velocity":63,"Duration":91199,"SoundDuration":91199,"Delta":42652155},{"NoteNumber":69,"Velocity":53,"Duration":91199,"SoundDuration":91199,"Delta":42652155},{"NoteNumber":53,"Velocity":64,"Duration":91199,"SoundDuration":91199,"Delta":42652155},{"NoteNumber":79,"Velocity":66,"Duration":91905,"SoundDuration":91905,"Delta":42743354},{"NoteNumber":67,"Velocity":56,"Duration":91905,"SoundDuration":91905,"Delta":42743354},{"NoteNumber":50,"Velocity":76,"Duration":91905,"SoundDuration":91905,"Delta":42743354},{"NoteNumber":65,"Velocity":58,"Duration":93338,"SoundDuration":93338,"Delta":42835260},{"NoteNumber":77,"Velocity":69,"Duration":93338,"SoundDuration":93338,"Delta":42835260},{"NoteNumber":45,"Velocity":61,"Duration":93338,"SoundDuration":93338,"Delta":42835260},{"NoteNumber":76,"Velocity":70,"Duration":95133,"SoundDuration":95133,"Delta":42928598},{"NoteNumber":64,"Velocity":60,"Duration":95133,"SoundDuration":95133,"Delta":42928598},{"NoteNumber":47,"Velocity":77,"Duration":414365,"SoundDuration":414365,"Delta":42928598},{"NoteNumber":74,"Velocity":73,"Duration":97293,"SoundDuration":97293,"Delta":43023732},{"NoteNumber":62,"Velocity":61,"Duration":97293,"SoundDuration":97293,"Delta":43023732},{"NoteNumber":41,"Velocity":59,"Duration":97293,"SoundDuration":97293,"Delta":43023732},{"NoteNumber":60,"Velocity":62,"Duration":98481,"SoundDuration":98481,"Delta":43121026},{"NoteNumber":72,"Velocity":75,"Duration":98481,"SoundDuration":98481,"Delta":43121026},{"NoteNumber":38,"Velocity":72,"Duration":98481,"SoundDuration":98481,"Delta":43121026},{"NoteNumber":71,"Velocity":78,"Duration":123456,"SoundDuration":123456,"Delta":43219507},{"NoteNumber":59,"Velocity":64,"Duration":123456,"SoundDuration":123456,"Delta":43219507},{"NoteNumber":31,"Velocity":66,"Duration":123456,"SoundDuration":123456,"Delta":43219507},{"NoteNumber":71,"Velocity":88,"Duration":1119687,"SoundDuration":1119687,"Delta":43342964},{"NoteNumber":64,"Velocity":76,"Duration":1119687,"SoundDuration":1119687,"Delta":43342964},{"NoteNumber":59,"Velocity":76,"Duration":841950,"SoundDuration":841950,"Delta":43342964},{"NoteNumber":36,"Velocity":77,"Duration":288635,"SoundDuration":288635,"Delta":43342964},{"NoteNumber":24,"Velocity":71,"Duration":1119687,"SoundDuration":1119687,"Delta":43342964},{"NoteNumber":83,"Velocity":73,"Duration":95541,"SoundDuration":95541,"Delta":43444315},{"NoteNumber":95,"Velocity":78,"Duration":95541,"SoundDuration":95541,"Delta":43444315},{"NoteNumber":31,"Velocity":71,"Duration":95541,"SoundDuration":95541,"Delta":43444315},{"NoteNumber":88,"Velocity":74,"Duration":91743,"SoundDuration":91743,"Delta":43539857},{"NoteNumber":36,"Velocity":74,"Duration":922794,"SoundDuration":922794,"Delta":43539857},{"NoteNumber":84,"Velocity":70,"Duration":91775,"SoundDuration":91775,"Delta":43631600},{"NoteNumber":40,"Velocity":70,"Duration":91775,"SoundDuration":91775,"Delta":43631600},{"NoteNumber":79,"Velocity":76,"Duration":92307,"SoundDuration":92307,"Delta":43723376},{"NoteNumber":47,"Velocity":83,"Duration":92307,"SoundDuration":92307,"Delta":43723376},{"NoteNumber":83,"Velocity":63,"Duration":92307,"SoundDuration":92307,"Delta":43815683},{"NoteNumber":43,"Velocity":70,"Duration":92307,"SoundDuration":92307,"Delta":43815683},{"NoteNumber":76,"Velocity":70,"Duration":92307,"SoundDuration":92307,"Delta":43907991},{"NoteNumber":48,"Velocity":73,"Duration":92307,"SoundDuration":92307,"Delta":43907991},{"NoteNumber":72,"Velocity":62,"Duration":92307,"SoundDuration":92307,"Delta":44000299},{"NoteNumber":52,"Velocity":71,"Duration":92307,"SoundDuration":92307,"Delta":44000299},{"NoteNumber":67,"Velocity":60,"Duration":92307,"SoundDuration":92307,"Delta":44092607},{"NoteNumber":59,"Velocity":84,"Duration":370044,"SoundDuration":370044,"Delta":44092607},{"NoteNumber":72,"Velocity":75,"Duration":92552,"SoundDuration":92552,"Delta":44184914},{"NoteNumber":55,"Velocity":71,"Duration":92552,"SoundDuration":92552,"Delta":44184914},{"NoteNumber":76,"Velocity":58,"Duration":92592,"SoundDuration":92592,"Delta":44277467},{"NoteNumber":60,"Velocity":77,"Duration":92592,"SoundDuration":92592,"Delta":44277467},{"NoteNumber":83,"Velocity":58,"Duration":92592,"SoundDuration":92592,"Delta":44370059},{"NoteNumber":64,"Velocity":71,"Duration":92592,"SoundDuration":92592,"Delta":44370059},{"NoteNumber":76,"Velocity":62,"Duration":92592,"SoundDuration":92592,"Delta":44462652},{"NoteNumber":71,"Velocity":84,"Duration":376564,"SoundDuration":376564,"Delta":44462652},{"NoteNumber":72,"Velocity":52,"Duration":92592,"SoundDuration":92592,"Delta":44555244},{"NoteNumber":64,"Velocity":72,"Duration":92592,"SoundDuration":92592,"Delta":44555244},{"NoteNumber":65,"Velocity":56,"Duration":92838,"SoundDuration":92838,"Delta":44647837},{"NoteNumber":60,"Velocity":78,"Duration":92838,"SoundDuration":92838,"Delta":44647837},{"NoteNumber":71,"Velocity":52,"Duration":98540,"SoundDuration":98540,"Delta":44740675},{"NoteNumber":53,"Velocity":71,"Duration":98540,"SoundDuration":98540,"Delta":44740675},{"NoteNumber":81,"Velocity":75,"Duration":90389,"SoundDuration":90389,"Delta":44839216},{"NoteNumber":69,"Velocity":62,"Duration":90389,"SoundDuration":90389,"Delta":44839216},{"NoteNumber":59,"Velocity":84,"Duration":368033,"SoundDuration":368033,"Delta":44839216},{"NoteNumber":79,"Velocity":63,"Duration":91401,"SoundDuration":91401,"Delta":44929606},{"NoteNumber":67,"Velocity":53,"Duration":91401,"SoundDuration":91401,"Delta":44929606},{"NoteNumber":52,"Velocity":64,"Duration":91401,"SoundDuration":91401,"Delta":44929606},{"NoteNumber":65,"Velocity":56,"Duration":92394,"SoundDuration":92394,"Delta":45021007},{"NoteNumber":77,"Velocity":66,"Duration":92394,"SoundDuration":92394,"Delta":45021007},{"NoteNumber":48,"Velocity":76,"Duration":92394,"SoundDuration":92394,"Delta":45021007},{"NoteNumber":76,"Velocity":69,"Duration":93848,"SoundDuration":93848,"Delta":45113401},{"NoteNumber":64,"Velocity":58,"Duration":93848,"SoundDuration":93848,"Delta":45113401},{"NoteNumber":41,"Velocity":61,"Duration":93848,"SoundDuration":93848,"Delta":45113401},{"NoteNumber":62,"Velocity":60,"Duration":95076,"SoundDuration":95076,"Delta":45207249},{"NoteNumber":74,"Velocity":70,"Duration":95076,"SoundDuration":95076,"Delta":45207249},{"NoteNumber":45,"Velocity":83,"Duration":409817,"SoundDuration":409817,"Delta":45207249},{"NoteNumber":72,"Velocity":73,"Duration":96453,"SoundDuration":96453,"Delta":45302326},{"NoteNumber":60,"Velocity":61,"Duration":96453,"SoundDuration":96453,"Delta":45302326},{"NoteNumber":40,"Velocity":59,"Duration":96453,"SoundDuration":96453,"Delta":45302326},{"NoteNumber":59,"Velocity":62,"Duration":97804,"SoundDuration":97804,"Delta":45398780},{"NoteNumber":71,"Velocity":75,"Duration":97804,"SoundDuration":97804,"Delta":45398780},{"NoteNumber":36,"Velocity":72,"Duration":97804,"SoundDuration":97804,"Delta":45398780},{"NoteNumber":69,"Velocity":78,"Duration":120482,"SoundDuration":120482,"Delta":45496585},{"NoteNumber":57,"Velocity":64,"Duration":120482,"SoundDuration":120482,"Delta":45496585},{"NoteNumber":29,"Velocity":66,"Duration":120482,"SoundDuration":120482,"Delta":45496585},{"NoteNumber":69,"Velocity":88,"Duration":658414,"SoundDuration":658414,"Delta":45617067},{"NoteNumber":62,"Velocity":76,"Duration":1119650,"SoundDuration":1119650,"Delta":45617067},{"NoteNumber":57,"Velocity":76,"Duration":475797,"SoundDuration":475797,"Delta":45617067},{"NoteNumber":35,"Velocity":77,"Duration":1119650,"SoundDuration":1119650,"Delta":45617067},{"NoteNumber":23,"Velocity":69,"Duration":1119650,"SoundDuration":1119650,"Delta":45617067},{"NoteNumber":93,"Velocity":78,"Duration":95541,"SoundDuration":95541,"Delta":45718418},{"NoteNumber":81,"Velocity":73,"Duration":95541,"SoundDuration":95541,"Delta":45718418},{"NoteNumber":41,"Velocity":71,"Duration":95541,"SoundDuration":95541,"Delta":45718418},{"NoteNumber":86,"Velocity":73,"Duration":91743,"SoundDuration":91743,"Delta":45813959},{"NoteNumber":47,"Velocity":73,"Duration":91743,"SoundDuration":91743,"Delta":45813959},{"NoteNumber":83,"Velocity":70,"Duration":96799,"SoundDuration":96799,"Delta":45905702},{"NoteNumber":50,"Velocity":63,"Duration":96799,"SoundDuration":96799,"Delta":45905702},{"NoteNumber":77,"Velocity":79,"Duration":90361,"SoundDuration":90361,"Delta":46002502},{"NoteNumber":65,"Velocity":66,"Duration":90361,"SoundDuration":90361,"Delta":46002502},{"NoteNumber":57,"Velocity":75,"Duration":734214,"SoundDuration":734214,"Delta":46002502},{"NoteNumber":67,"Velocity":56,"Duration":90504,"SoundDuration":90504,"Delta":46092864},{"NoteNumber":79,"Velocity":66,"Duration":90504,"SoundDuration":90504,"Delta":46092864},{"NoteNumber":55,"Velocity":60,"Duration":90504,"SoundDuration":90504,"Delta":46092864},{"NoteNumber":81,"Velocity":70,"Duration":92112,"SoundDuration":92112,"Delta":46183369},{"NoteNumber":69,"Velocity":59,"Duration":553348,"SoundDuration":553348,"Delta":46183369},{"NoteNumber":53,"Velocity":61,"Duration":92112,"SoundDuration":92112,"Delta":46183369},{"NoteNumber":71,"Velocity":60,"Duration":92747,"SoundDuration":92747,"Delta":46275481},{"NoteNumber":83,"Velocity":72,"Duration":92747,"SoundDuration":92747,"Delta":46275481},{"NoteNumber":52,"Velocity":64,"Duration":92747,"SoundDuration":92747,"Delta":46275481},{"NoteNumber":72,"Velocity":60,"Duration":92518,"SoundDuration":92518,"Delta":46368229},{"NoteNumber":84,"Velocity":73,"Duration":92518,"SoundDuration":92518,"Delta":46368229},{"NoteNumber":50,"Velocity":65,"Duration":92518,"SoundDuration":92518,"Delta":46368229},{"NoteNumber":86,"Velocity":76,"Duration":92234,"SoundDuration":92234,"Delta":46460748},{"NoteNumber":74,"Velocity":64,"Duration":92234,"SoundDuration":92234,"Delta":46460748},{"NoteNumber":48,"Velocity":67,"Duration":92234,"SoundDuration":92234,"Delta":46460748},{"NoteNumber":88,"Velocity":78,"Duration":92008,"SoundDuration":92008,"Delta":46552982},{"NoteNumber":76,"Velocity":66,"Duration":92008,"SoundDuration":92008,"Delta":46552982},{"NoteNumber":47,"Velocity":69,"Duration":92008,"SoundDuration":92008,"Delta":46552982},{"NoteNumber":77,"Velocity":67,"Duration":91726,"SoundDuration":91726,"Delta":46644990},{"NoteNumber":89,"Velocity":79,"Duration":91726,"SoundDuration":91726,"Delta":46644990},{"NoteNumber":45,"Velocity":71,"Duration":91726,"SoundDuration":91726,"Delta":46644990},{"NoteNumber":91,"Velocity":86,"Duration":365853,"SoundDuration":365853,"Delta":46736717},{"NoteNumber":79,"Velocity":79,"Duration":91463,"SoundDuration":91463,"Delta":46736717},{"NoteNumber":40,"Velocity":81,"Duration":365853,"SoundDuration":365853,"Delta":46736717},{"NoteNumber":86,"Velocity":74,"Duration":91463,"SoundDuration":91463,"Delta":46828181},{"NoteNumber":47,"Velocity":57,"Duration":91463,"SoundDuration":91463,"Delta":46828181},{"NoteNumber":83,"Velocity":79,"Duration":91463,"SoundDuration":91463,"Delta":46919644},{"NoteNumber":50,"Velocity":62,"Duration":91463,"SoundDuration":91463,"Delta":46919644},{"NoteNumber":76,"Velocity":66,"Duration":91463,"SoundDuration":91463,"Delta":47011108},{"NoteNumber":55,"Velocity":54,"Duration":91463,"SoundDuration":91463,"Delta":47011108},{"NoteNumber":79,"Velocity":73,"Duration":91463,"SoundDuration":91463,"Delta":47102571},{"NoteNumber":52,"Velocity":64,"Duration":91463,"SoundDuration":91463,"Delta":47102571},{"NoteNumber":74,"Velocity":61,"Duration":91463,"SoundDuration":91463,"Delta":47194035},{"NoteNumber":59,"Velocity":55,"Duration":91463,"SoundDuration":91463,"Delta":47194035},{"NoteNumber":71,"Velocity":68,"Duration":91463,"SoundDuration":91463,"Delta":47285498},{"NoteNumber":62,"Velocity":60,"Duration":91463,"SoundDuration":91463,"Delta":47285498},{"NoteNumber":64,"Velocity":60,"Duration":91463,"SoundDuration":91463,"Delta":47376962},{"NoteNumber":67,"Velocity":55,"Duration":91463,"SoundDuration":91463,"Delta":47376962},{"NoteNumber":69,"Velocity":71,"Duration":93808,"SoundDuration":93808,"Delta":47468425},{"NoteNumber":60,"Velocity":66,"Duration":93808,"SoundDuration":93808,"Delta":47468425},{"NoteNumber":72,"Velocity":67,"Duration":93808,"SoundDuration":93808,"Delta":47562234},{"NoteNumber":57,"Velocity":58,"Duration":93808,"SoundDuration":93808,"Delta":47562234},{"NoteNumber":79,"Velocity":75,"Duration":96730,"SoundDuration":96730,"Delta":47656043},{"NoteNumber":52,"Velocity":60,"Duration":96730,"SoundDuration":96730,"Delta":47656043},{"NoteNumber":76,"Velocity":70,"Duration":120482,"SoundDuration":120482,"Delta":47752773},{"NoteNumber":55,"Velocity":61,"Duration":120482,"SoundDuration":120482,"Delta":47752773},{"NoteNumber":77,"Velocity":84,"Duration":91743,"SoundDuration":91743,"Delta":47873255},{"NoteNumber":89,"Velocity":89,"Duration":366971,"SoundDuration":366971,"Delta":47873255},{"NoteNumber":38,"Velocity":86,"Duration":366971,"SoundDuration":366971,"Delta":47873255},{"NoteNumber":84,"Velocity":78,"Duration":91743,"SoundDuration":91743,"Delta":47964998},{"NoteNumber":45,"Velocity":60,"Duration":91743,"SoundDuration":91743,"Delta":47964998},{"NoteNumber":81,"Velocity":84,"Duration":91743,"SoundDuration":91743,"Delta":48056741},{"NoteNumber":48,"Velocity":66,"Duration":91743,"SoundDuration":91743,"Delta":48056741},{"NoteNumber":74,"Velocity":70,"Duration":91742,"SoundDuration":91742,"Delta":48148484},{"NoteNumber":53,"Velocity":57,"Duration":91742,"SoundDuration":91742,"Delta":48148484},{"NoteNumber":77,"Velocity":77,"Duration":92020,"SoundDuration":92020,"Delta":48240227},{"NoteNumber":50,"Velocity":68,"Duration":92020,"SoundDuration":92020,"Delta":48240227},{"NoteNumber":72,"Velocity":63,"Duration":92307,"SoundDuration":92307,"Delta":48332247},{"NoteNumber":57,"Velocity":57,"Duration":92307,"SoundDuration":92307,"Delta":48332247},{"NoteNumber":69,"Velocity":71,"Duration":92307,"SoundDuration":92307,"Delta":48424555},{"NoteNumber":60,"Velocity":63,"Duration":92307,"SoundDuration":92307,"Delta":48424555},{"NoteNumber":62,"Velocity":63,"Duration":92307,"SoundDuration":92307,"Delta":48516863},{"NoteNumber":65,"Velocity":58,"Duration":92307,"SoundDuration":92307,"Delta":48516863},{"NoteNumber":67,"Velocity":67,"Duration":94696,"SoundDuration":94696,"Delta":48609171},{"NoteNumber":59,"Velocity":62,"Duration":94696,"SoundDuration":94696,"Delta":48609171},{"NoteNumber":71,"Velocity":62,"Duration":94697,"SoundDuration":94697,"Delta":48703868},{"NoteNumber":55,"Velocity":54,"Duration":94697,"SoundDuration":94697,"Delta":48703868},{"NoteNumber":77,"Velocity":69,"Duration":95795,"SoundDuration":95795,"Delta":48798565},{"NoteNumber":50,"Velocity":56,"Duration":95795,"SoundDuration":95795,"Delta":48798565},{"NoteNumber":74,"Velocity":64,"Duration":120482,"SoundDuration":120482,"Delta":48894360},{"NoteNumber":53,"Velocity":56,"Duration":120482,"SoundDuration":120482,"Delta":48894360},{"NoteNumber":88,"Velocity":88,"Duration":366972,"SoundDuration":366972,"Delta":49014842},{"NoteNumber":76,"Velocity":84,"Duration":91743,"SoundDuration":91743,"Delta":49014842},{"NoteNumber":36,"Velocity":86,"Duration":366972,"SoundDuration":366972,"Delta":49014842},{"NoteNumber":83,"Velocity":78,"Duration":91743,"SoundDuration":91743,"Delta":49106585},{"NoteNumber":43,"Velocity":60,"Duration":91743,"SoundDuration":91743,"Delta":49106585},{"NoteNumber":79,"Velocity":84,"Duration":91743,"SoundDuration":91743,"Delta":49198328},{"NoteNumber":47,"Velocity":66,"Duration":91743,"SoundDuration":91743,"Delta":49198328},{"NoteNumber":72,"Velocity":70,"Duration":91743,"SoundDuration":91743,"Delta":49290071},{"NoteNumber":52,"Velocity":57,"Duration":91743,"SoundDuration":91743,"Delta":49290071},{"NoteNumber":76,"Velocity":77,"Duration":92020,"SoundDuration":92020,"Delta":49381814},{"NoteNumber":48,"Velocity":68,"Duration":92020,"SoundDuration":92020,"Delta":49381814},{"NoteNumber":71,"Velocity":63,"Duration":92307,"SoundDuration":92307,"Delta":49473834},{"NoteNumber":55,"Velocity":57,"Duration":92307,"SoundDuration":92307,"Delta":49473834},{"NoteNumber":67,"Velocity":71,"Duration":92307,"SoundDuration":92307,"Delta":49566142},{"NoteNumber":59,"Velocity":63,"Duration":92307,"SoundDuration":92307,"Delta":49566142},{"NoteNumber":60,"Velocity":63,"Duration":92307,"SoundDuration":92307,"Delta":49658450},{"NoteNumber":64,"Velocity":58,"Duration":92307,"SoundDuration":92307,"Delta":49658450},{"NoteNumber":65,"Velocity":67,"Duration":94696,"SoundDuration":94696,"Delta":49750757},{"NoteNumber":57,"Velocity":62,"Duration":94696,"SoundDuration":94696,"Delta":49750757},{"NoteNumber":69,"Velocity":62,"Duration":94697,"SoundDuration":94697,"Delta":49845454},{"NoteNumber":53,"Velocity":54,"Duration":94697,"SoundDuration":94697,"Delta":49845454},{"NoteNumber":76,"Velocity":69,"Duration":95795,"SoundDuration":95795,"Delta":49940151},{"NoteNumber":48,"Velocity":56,"Duration":95795,"SoundDuration":95795,"Delta":49940151},{"NoteNumber":72,"Velocity":64,"Duration":120482,"SoundDuration":120482,"Delta":50035947},{"NoteNumber":52,"Velocity":56,"Duration":120482,"SoundDuration":120482,"Delta":50035947},{"NoteNumber":74,"Velocity":84,"Duration":91743,"SoundDuration":91743,"Delta":50156429},{"NoteNumber":86,"Velocity":89,"Duration":366972,"SoundDuration":366972,"Delta":50156429},{"NoteNumber":35,"Velocity":86,"Duration":366972,"SoundDuration":366972,"Delta":50156429},{"NoteNumber":81,"Velocity":78,"Duration":91743,"SoundDuration":91743,"Delta":50248172},{"NoteNumber":41,"Velocity":60,"Duration":91743,"SoundDuration":91743,"Delta":50248172},{"NoteNumber":77,"Velocity":84,"Duration":91743,"SoundDuration":91743,"Delta":50339915},{"NoteNumber":45,"Velocity":66,"Duration":91743,"SoundDuration":91743,"Delta":50339915},{"NoteNumber":71,"Velocity":70,"Duration":91743,"SoundDuration":91743,"Delta":50431658},{"NoteNumber":50,"Velocity":57,"Duration":91743,"SoundDuration":91743,"Delta":50431658},{"NoteNumber":74,"Velocity":77,"Duration":92020,"SoundDuration":92020,"Delta":50523401},{"NoteNumber":47,"Velocity":68,"Duration":92020,"SoundDuration":92020,"Delta":50523401},{"NoteNumber":69,"Velocity":63,"Duration":92307,"SoundDuration":92307,"Delta":50615421},{"NoteNumber":53,"Velocity":57,"Duration":92307,"SoundDuration":92307,"Delta":50615421},{"NoteNumber":65,"Velocity":71,"Duration":92307,"SoundDuration":92307,"Delta":50707729},{"NoteNumber":57,"Velocity":63,"Duration":92307,"SoundDuration":92307,"Delta":50707729},{"NoteNumber":59,"Velocity":63,"Duration":92307,"SoundDuration":92307,"Delta":50800036},{"NoteNumber":62,"Velocity":58,"Duration":92307,"SoundDuration":92307,"Delta":50800036},{"NoteNumber":65,"Velocity":68,"Duration":94696,"SoundDuration":94696,"Delta":50892344},{"NoteNumber":57,"Velocity":63,"Duration":94696,"SoundDuration":94696,"Delta":50892344},{"NoteNumber":69,"Velocity":63,"Duration":94697,"SoundDuration":94697,"Delta":50987041},{"NoteNumber":53,"Velocity":55,"Duration":94697,"SoundDuration":94697,"Delta":50987041},{"NoteNumber":74,"Velocity":70,"Duration":95795,"SoundDuration":95795,"Delta":51081738},{"NoteNumber":47,"Velocity":57,"Duration":95795,"SoundDuration":95795,"Delta":51081738},{"NoteNumber":71,"Velocity":66,"Duration":120482,"SoundDuration":120482,"Delta":51177533},{"NoteNumber":50,"Velocity":57,"Duration":120482,"SoundDuration":120482,"Delta":51177533},{"NoteNumber":75,"Velocity":86,"Duration":91743,"SoundDuration":91743,"Delta":51298015},{"NoteNumber":87,"Velocity":93,"Duration":366972,"SoundDuration":366972,"Delta":51298015},{"NoteNumber":35,"Velocity":88,"Duration":366972,"SoundDuration":366972,"Delta":51298015},{"NoteNumber":81,"Velocity":79,"Duration":91743,"SoundDuration":91743,"Delta":51389758},{"NoteNumber":42,"Velocity":61,"Duration":91743,"SoundDuration":91743,"Delta":51389758},{"NoteNumber":78,"Velocity":86,"Duration":91743,"SoundDuration":91743,"Delta":51481501},{"NoteNumber":45,"Velocity":68,"Duration":91743,"SoundDuration":91743,"Delta":51481501},{"NoteNumber":71,"Velocity":72,"Duration":91743,"SoundDuration":91743,"Delta":51573244},{"NoteNumber":51,"Velocity":58,"Duration":91743,"SoundDuration":91743,"Delta":51573244},{"NoteNumber":75,"Velocity":80,"Duration":92020,"SoundDuration":92020,"Delta":51664987},{"NoteNumber":47,"Velocity":70,"Duration":92020,"SoundDuration":92020,"Delta":51664987},{"NoteNumber":69,"Velocity":65,"Duration":92307,"SoundDuration":92307,"Delta":51757008},{"NoteNumber":54,"Velocity":59,"Duration":92307,"SoundDuration":92307,"Delta":51757008},{"NoteNumber":66,"Velocity":74,"Duration":92307,"SoundDuration":92307,"Delta":51849315},{"NoteNumber":57,"Velocity":66,"Duration":92307,"SoundDuration":92307,"Delta":51849315},{"NoteNumber":59,"Velocity":66,"Duration":92307,"SoundDuration":92307,"Delta":51941623},{"NoteNumber":63,"Velocity":61,"Duration":92307,"SoundDuration":92307,"Delta":51941623},{"NoteNumber":66,"Velocity":70,"Duration":94696,"SoundDuration":94696,"Delta":52033931},{"NoteNumber":57,"Velocity":65,"Duration":94696,"SoundDuration":94696,"Delta":52033931},{"NoteNumber":69,"Velocity":65,"Duration":94697,"SoundDuration":94697,"Delta":52128628},{"NoteNumber":54,"Velocity":55,"Duration":94697,"SoundDuration":94697,"Delta":52128628},{"NoteNumber":75,"Velocity":73,"Duration":95795,"SoundDuration":95795,"Delta":52223325},{"NoteNumber":47,"Velocity":59,"Duration":95795,"SoundDuration":95795,"Delta":52223325},{"NoteNumber":71,"Velocity":68,"Duration":120482,"SoundDuration":120482,"Delta":52319120},{"NoteNumber":51,"Velocity":59,"Duration":120482,"SoundDuration":120482,"Delta":52319120},{"NoteNumber":88,"Velocity":92,"Duration":366972,"SoundDuration":366972,"Delta":52439602},{"NoteNumber":76,"Velocity":85,"Duration":91743,"SoundDuration":91743,"Delta":52439602},{"NoteNumber":28,"Velocity":87,"Duration":91743,"SoundDuration":91743,"Delta":52439602},{"NoteNumber":80,"Velocity":78,"Duration":91743,"SoundDuration":91743,"Delta":52531345},{"NoteNumber":35,"Velocity":61,"Duration":91743,"SoundDuration":91743,"Delta":52531345},{"NoteNumber":76,"Velocity":87,"Duration":91743,"SoundDuration":91743,"Delta":52623088},{"NoteNumber":40,"Velocity":68,"Duration":91743,"SoundDuration":91743,"Delta":52623088},{"NoteNumber":71,"Velocity":73,"Duration":91743,"SoundDuration":91743,"Delta":52714831},{"NoteNumber":44,"Velocity":59,"Duration":91743,"SoundDuration":91743,"Delta":52714831},{"NoteNumber":76,"Velocity":81,"Duration":92020,"SoundDuration":92020,"Delta":52806574},{"NoteNumber":40,"Velocity":71,"Duration":92020,"SoundDuration":92020,"Delta":52806574},{"NoteNumber":68,"Velocity":68,"Duration":92307,"SoundDuration":92307,"Delta":52898595},{"NoteNumber":47,"Velocity":61,"Duration":92307,"SoundDuration":92307,"Delta":52898595},{"NoteNumber":64,"Velocity":76,"Duration":92307,"SoundDuration":92307,"Delta":52990902},{"NoteNumber":52,"Velocity":68,"Duration":92307,"SoundDuration":92307,"Delta":52990902},{"NoteNumber":59,"Velocity":68,"Duration":92307,"SoundDuration":92307,"Delta":53083210},{"NoteNumber":56,"Velocity":62,"Duration":92307,"SoundDuration":92307,"Delta":53083210},{"NoteNumber":64,"Velocity":76,"Duration":93372,"SoundDuration":93372,"Delta":53175518},{"NoteNumber":52,"Velocity":71,"Duration":93372,"SoundDuration":93372,"Delta":53175518},{"NoteNumber":68,"Velocity":73,"Duration":93225,"SoundDuration":93225,"Delta":53268890},{"NoteNumber":59,"Velocity":63,"Duration":93225,"SoundDuration":93225,"Delta":53268890},{"NoteNumber":71,"Velocity":80,"Duration":93225,"SoundDuration":93225,"Delta":53362116},{"NoteNumber":64,"Velocity":66,"Duration":93225,"SoundDuration":93225,"Delta":53362116},{"NoteNumber":76,"Velocity":76,"Duration":93225,"SoundDuration":93225,"Delta":53455341},{"NoteNumber":68,"Velocity":67,"Duration":93225,"SoundDuration":93225,"Delta":53455341},{"NoteNumber":83,"Velocity":80,"Duration":93516,"SoundDuration":93516,"Delta":53548567},{"NoteNumber":80,"Velocity":71,"Duration":93516,"SoundDuration":93516,"Delta":53548567},{"NoteNumber":64,"Velocity":78,"Duration":93516,"SoundDuration":93516,"Delta":53548567},{"NoteNumber":88,"Velocity":84,"Duration":94251,"SoundDuration":94251,"Delta":53642084},{"NoteNumber":71,"Velocity":70,"Duration":94251,"SoundDuration":94251,"Delta":53642084},{"NoteNumber":92,"Velocity":87,"Duration":94997,"SoundDuration":94997,"Delta":53736335},{"NoteNumber":76,"Velocity":73,"Duration":94997,"SoundDuration":94997,"Delta":53736335},{"NoteNumber":95,"Velocity":90,"Duration":95816,"SoundDuration":95816,"Delta":53831332},{"NoteNumber":80,"Velocity":77,"Duration":95816,"SoundDuration":95816,"Delta":53831332},{"NoteNumber":92,"Velocity":78,"Duration":424328,"SoundDuration":424328,"Delta":53927149},{"NoteNumber":100,"Velocity":92,"Duration":424328,"SoundDuration":424328,"Delta":53927149},{"NoteNumber":88,"Velocity":78,"Duration":424328,"SoundDuration":424328,"Delta":53927149},{"NoteNumber":83,"Velocity":79,"Duration":424328,"SoundDuration":424328,"Delta":53927149},{"NoteNumber":76,"Velocity":67,"Duration":424328,"SoundDuration":424328,"Delta":53927149},{"NoteNumber":55,"Velocity":72,"Duration":467335,"SoundDuration":467335,"Delta":54351477},{"NoteNumber":67,"Velocity":91,"Duration":467335,"SoundDuration":467335,"Delta":54351477},{"NoteNumber":65,"Velocity":76,"Duration":467335,"SoundDuration":467335,"Delta":54351477},{"NoteNumber":59,"Velocity":76,"Duration":467335,"SoundDuration":467335,"Delta":54351477},{"NoteNumber":38,"Velocity":76,"Duration":467335,"SoundDuration":467335,"Delta":54351477},{"NoteNumber":50,"Velocity":107,"Duration":467335,"SoundDuration":467335,"Delta":54351477},{"NoteNumber":43,"Velocity":76,"Duration":200668,"SoundDuration":200668,"Delta":54351477},{"NoteNumber":31,"Velocity":81,"Duration":266666,"SoundDuration":266666,"Delta":54552146},{"NoteNumber":43,"Velocity":107,"Duration":266666,"SoundDuration":266666,"Delta":54552146},{"NoteNumber":72,"Velocity":84,"Duration":839785,"SoundDuration":839785,"Delta":54818813},{"NoteNumber":76,"Velocity":99,"Duration":1116742,"SoundDuration":1116742,"Delta":54818813},{"NoteNumber":67,"Velocity":75,"Duration":1024361,"SoundDuration":1024361,"Delta":54818813},{"NoteNumber":64,"Velocity":75,"Duration":839785,"SoundDuration":839785,"Delta":54818813},{"NoteNumber":28,"Velocity":68,"Duration":1116742,"SoundDuration":1116742,"Delta":54818813},{"NoteNumber":36,"Velocity":86,"Duration":101351,"SoundDuration":101351,"Delta":54818813},{"NoteNumber":24,"Velocity":65,"Duration":1116742,"SoundDuration":1116742,"Delta":54818813},{"NoteNumber":31,"Velocity":77,"Duration":1116742,"SoundDuration":1116742,"Delta":54818813},{"NoteNumber":100,"Velocity":89,"Duration":95541,"SoundDuration":95541,"Delta":54920164},{"NoteNumber":36,"Velocity":80,"Duration":1015391,"SoundDuration":1015391,"Delta":54920164},{"NoteNumber":96,"Velocity":85,"Duration":91743,"SoundDuration":91743,"Delta":55015706},{"NoteNumber":43,"Velocity":85,"Duration":91743,"SoundDuration":91743,"Delta":55015706},{"NoteNumber":91,"Velocity":80,"Duration":91743,"SoundDuration":91743,"Delta":55107449},{"NoteNumber":48,"Velocity":80,"Duration":91743,"SoundDuration":91743,"Delta":55107449},{"NoteNumber":84,"Velocity":87,"Duration":91743,"SoundDuration":91743,"Delta":55199192},{"NoteNumber":52,"Velocity":89,"Duration":91743,"SoundDuration":91743,"Delta":55199192},{"NoteNumber":88,"Velocity":77,"Duration":91743,"SoundDuration":91743,"Delta":55290935},{"NoteNumber":48,"Velocity":79,"Duration":91743,"SoundDuration":91743,"Delta":55290935},{"NoteNumber":84,"Velocity":82,"Duration":91872,"SoundDuration":91872,"Delta":55382678},{"NoteNumber":55,"Velocity":83,"Duration":91872,"SoundDuration":91872,"Delta":55382678},{"NoteNumber":79,"Velocity":75,"Duration":92024,"SoundDuration":92024,"Delta":55474550},{"NoteNumber":60,"Velocity":80,"Duration":92024,"SoundDuration":92024,"Delta":55474550},{"NoteNumber":72,"Velocity":69,"Duration":368981,"SoundDuration":368981,"Delta":55566574},{"NoteNumber":64,"Velocity":88,"Duration":368981,"SoundDuration":368981,"Delta":55566574},{"NoteNumber":79,"Velocity":79,"Duration":92267,"SoundDuration":92267,"Delta":55658599},{"NoteNumber":60,"Velocity":77,"Duration":92267,"SoundDuration":92267,"Delta":55658599},{"NoteNumber":84,"Velocity":72,"Duration":92307,"SoundDuration":92307,"Delta":55750866},{"NoteNumber":67,"Velocity":83,"Duration":184689,"SoundDuration":184689,"Delta":55750866},{"NoteNumber":88,"Velocity":72,"Duration":92381,"SoundDuration":92381,"Delta":55843174},{"NoteNumber":72,"Velocity":76,"Duration":92381,"SoundDuration":92381,"Delta":55843174},{"NoteNumber":84,"Velocity":89,"Duration":92592,"SoundDuration":92592,"Delta":55935555},{"NoteNumber":76,"Velocity":89,"Duration":92592,"SoundDuration":92592,"Delta":55935555},{"NoteNumber":79,"Velocity":66,"Duration":92592,"SoundDuration":92592,"Delta":56028148},{"NoteNumber":72,"Velocity":76,"Duration":92592,"SoundDuration":92592,"Delta":56028148},{"NoteNumber":72,"Velocity":72,"Duration":92781,"SoundDuration":92781,"Delta":56120740},{"NoteNumber":67,"Velocity":82,"Duration":92781,"SoundDuration":92781,"Delta":56120740},{"NoteNumber":74,"Velocity":67,"Duration":97585,"SoundDuration":97585,"Delta":56213522},{"NoteNumber":60,"Velocity":73,"Duration":97585,"SoundDuration":97585,"Delta":56213522},{"NoteNumber":76,"Velocity":61,"Duration":90681,"SoundDuration":90681,"Delta":56311107},{"NoteNumber":88,"Velocity":79,"Duration":90681,"SoundDuration":90681,"Delta":56311107},{"NoteNumber":64,"Velocity":87,"Duration":90681,"SoundDuration":90681,"Delta":56311107},{"NoteNumber":86,"Velocity":67,"Duration":91734,"SoundDuration":91734,"Delta":56401788},{"NoteNumber":74,"Velocity":51,"Duration":91734,"SoundDuration":91734,"Delta":56401788},{"NoteNumber":60,"Velocity":72,"Duration":91734,"SoundDuration":91734,"Delta":56401788},{"NoteNumber":72,"Velocity":54,"Duration":92813,"SoundDuration":92813,"Delta":56493523},{"NoteNumber":84,"Velocity":69,"Duration":92813,"SoundDuration":92813,"Delta":56493523},{"NoteNumber":55,"Velocity":78,"Duration":92813,"SoundDuration":92813,"Delta":56493523},{"NoteNumber":83,"Velocity":73,"Duration":93454,"SoundDuration":93454,"Delta":56586336},{"NoteNumber":71,"Velocity":56,"Duration":93454,"SoundDuration":93454,"Delta":56586336},{"NoteNumber":48,"Velocity":71,"Duration":93454,"SoundDuration":93454,"Delta":56586336},{"NoteNumber":69,"Velocity":58,"Duration":95133,"SoundDuration":95133,"Delta":56679790},{"NoteNumber":81,"Velocity":73,"Duration":95133,"SoundDuration":95133,"Delta":56679790},{"NoteNumber":52,"Velocity":82,"Duration":95133,"SoundDuration":95133,"Delta":56679790},{"NoteNumber":67,"Velocity":60,"Duration":97293,"SoundDuration":97293,"Delta":56774924},{"NoteNumber":79,"Velocity":77,"Duration":97293,"SoundDuration":97293,"Delta":56774924},{"NoteNumber":48,"Velocity":63,"Duration":97293,"SoundDuration":97293,"Delta":56774924},{"NoteNumber":65,"Velocity":60,"Duration":98481,"SoundDuration":98481,"Delta":56872218},{"NoteNumber":77,"Velocity":78,"Duration":98481,"SoundDuration":98481,"Delta":56872218},{"NoteNumber":43,"Velocity":74,"Duration":98481,"SoundDuration":98481,"Delta":56872218},{"NoteNumber":76,"Velocity":80,"Duration":123456,"SoundDuration":123456,"Delta":56970699},{"NoteNumber":64,"Velocity":61,"Duration":123456,"SoundDuration":123456,"Delta":56970699},{"NoteNumber":36,"Velocity":61,"Duration":123456,"SoundDuration":123456,"Delta":56970699},{"NoteNumber":69,"Velocity":75,"Duration":1023519,"SoundDuration":1023519,"Delta":57094156},{"NoteNumber":72,"Velocity":84,"Duration":839001,"SoundDuration":839001,"Delta":57094156},{"NoteNumber":65,"Velocity":75,"Duration":839001,"SoundDuration":839001,"Delta":57094156},{"NoteNumber":77,"Velocity":99,"Duration":1116072,"SoundDuration":1116072,"Delta":57094156},{"NoteNumber":24,"Velocity":65,"Duration":1116072,"SoundDuration":1116072,"Delta":57094156},{"NoteNumber":33,"Velocity":77,"Duration":1116072,"SoundDuration":1116072,"Delta":57094156},{"NoteNumber":36,"Velocity":86,"Duration":101351,"SoundDuration":101351,"Delta":57094156},{"NoteNumber":29,"Velocity":68,"Duration":1116072,"SoundDuration":1116072,"Delta":57094156},{"NoteNumber":101,"Velocity":89,"Duration":95541,"SoundDuration":95541,"Delta":57195507},{"NoteNumber":36,"Velocity":80,"Duration":1014720,"SoundDuration":1014720,"Delta":57195507},{"NoteNumber":96,"Velocity":85,"Duration":91743,"SoundDuration":91743,"Delta":57291048},{"NoteNumber":45,"Velocity":85,"Duration":91743,"SoundDuration":91743,"Delta":57291048},{"NoteNumber":93,"Velocity":80,"Duration":91726,"SoundDuration":91726,"Delta":57382791},{"NoteNumber":48,"Velocity":80,"Duration":91726,"SoundDuration":91726,"Delta":57382791},{"NoteNumber":84,"Velocity":87,"Duration":91463,"SoundDuration":91463,"Delta":57474518},{"NoteNumber":53,"Velocity":89,"Duration":91463,"SoundDuration":91463,"Delta":57474518},{"NoteNumber":89,"Velocity":77,"Duration":91535,"SoundDuration":91535,"Delta":57565982},{"NoteNumber":48,"Velocity":79,"Duration":91535,"SoundDuration":91535,"Delta":57565982},{"NoteNumber":84,"Velocity":82,"Duration":91742,"SoundDuration":91742,"Delta":57657517},{"NoteNumber":57,"Velocity":83,"Duration":91742,"SoundDuration":91742,"Delta":57657517},{"NoteNumber":81,"Velocity":75,"Duration":91872,"SoundDuration":91872,"Delta":57749260},{"NoteNumber":60,"Velocity":80,"Duration":91872,"SoundDuration":91872,"Delta":57749260},{"NoteNumber":72,"Velocity":69,"Duration":369095,"SoundDuration":369095,"Delta":57841132},{"NoteNumber":65,"Velocity":88,"Duration":369095,"SoundDuration":369095,"Delta":57841132},{"NoteNumber":81,"Velocity":79,"Duration":92210,"SoundDuration":92210,"Delta":57933157},{"NoteNumber":60,"Velocity":77,"Duration":92210,"SoundDuration":92210,"Delta":57933157},{"NoteNumber":84,"Velocity":72,"Duration":92307,"SoundDuration":92307,"Delta":58025368},{"NoteNumber":69,"Velocity":83,"Duration":184859,"SoundDuration":184859,"Delta":58025368},{"NoteNumber":88,"Velocity":72,"Duration":92552,"SoundDuration":92552,"Delta":58117676},{"NoteNumber":72,"Velocity":76,"Duration":92552,"SoundDuration":92552,"Delta":58117676},{"NoteNumber":81,"Velocity":89,"Duration":92609,"SoundDuration":92609,"Delta":58210228},{"NoteNumber":76,"Velocity":89,"Duration":92609,"SoundDuration":92609,"Delta":58210228},{"NoteNumber":78,"Velocity":66,"Duration":92879,"SoundDuration":92879,"Delta":58302837},{"NoteNumber":72,"Velocity":73,"Duration":92879,"SoundDuration":92879,"Delta":58302837},{"NoteNumber":72,"Velocity":72,"Duration":92953,"SoundDuration":92953,"Delta":58395716},{"NoteNumber":69,"Velocity":78,"Duration":92953,"SoundDuration":92953,"Delta":58395716},{"NoteNumber":74,"Velocity":67,"Duration":97627,"SoundDuration":97627,"Delta":58488670},{"NoteNumber":60,"Velocity":70,"Duration":97627,"SoundDuration":97627,"Delta":58488670},{"NoteNumber":76,"Velocity":61,"Duration":89895,"SoundDuration":89895,"Delta":58586298},{"NoteNumber":88,"Velocity":79,"Duration":89895,"SoundDuration":89895,"Delta":58586298},{"NoteNumber":64,"Velocity":87,"Duration":89895,"SoundDuration":89895,"Delta":58586298},{"NoteNumber":74,"Velocity":51,"Duration":90900,"SoundDuration":90900,"Delta":58676193},{"NoteNumber":86,"Velocity":67,"Duration":90900,"SoundDuration":90900,"Delta":58676193},{"NoteNumber":60,"Velocity":72,"Duration":90900,"SoundDuration":90900,"Delta":58676193},{"NoteNumber":72,"Velocity":54,"Duration":91959,"SoundDuration":91959,"Delta":58767094},{"NoteNumber":84,"Velocity":69,"Duration":91959,"SoundDuration":91959,"Delta":58767094},{"NoteNumber":57,"Velocity":75,"Duration":91959,"SoundDuration":91959,"Delta":58767094},{"NoteNumber":83,"Velocity":73,"Duration":93360,"SoundDuration":93360,"Delta":58859054},{"NoteNumber":71,"Velocity":56,"Duration":93360,"SoundDuration":93360,"Delta":58859054},{"NoteNumber":48,"Velocity":69,"Duration":93360,"SoundDuration":93360,"Delta":58859054},{"NoteNumber":69,"Velocity":58,"Duration":95133,"SoundDuration":95133,"Delta":58952414},{"NoteNumber":81,"Velocity":73,"Duration":95133,"SoundDuration":95133,"Delta":58952414},{"NoteNumber":52,"Velocity":76,"Duration":95133,"SoundDuration":95133,"Delta":58952414},{"NoteNumber":79,"Velocity":77,"Duration":97293,"SoundDuration":97293,"Delta":59047548},{"NoteNumber":67,"Velocity":60,"Duration":97293,"SoundDuration":97293,"Delta":59047548},{"NoteNumber":48,"Velocity":63,"Duration":97293,"SoundDuration":97293,"Delta":59047548},{"NoteNumber":66,"Velocity":60,"Duration":98481,"SoundDuration":98481,"Delta":59144842},{"NoteNumber":78,"Velocity":78,"Duration":98481,"SoundDuration":98481,"Delta":59144842},{"NoteNumber":45,"Velocity":74,"Duration":98481,"SoundDuration":98481,"Delta":59144842},{"NoteNumber":76,"Velocity":80,"Duration":123456,"SoundDuration":123456,"Delta":59243323},{"NoteNumber":64,"Velocity":61,"Duration":123456,"SoundDuration":123456,"Delta":59243323},{"NoteNumber":36,"Velocity":61,"Duration":123456,"SoundDuration":123456,"Delta":59243323},{"NoteNumber":62,"Velocity":71,"Duration":839057,"SoundDuration":839057,"Delta":59366780},{"NoteNumber":71,"Velocity":79,"Duration":839057,"SoundDuration":839057,"Delta":59366780},{"NoteNumber":74,"Velocity":94,"Duration":1116298,"SoundDuration":1116298,"Delta":59366780},{"NoteNumber":67,"Velocity":71,"Duration":1023706,"SoundDuration":1023706,"Delta":59366780},{"NoteNumber":35,"Velocity":64,"Duration":101351,"SoundDuration":101351,"Delta":59366780},{"NoteNumber":31,"Velocity":60,"Duration":1116298,"SoundDuration":1116298,"Delta":59366780},{"NoteNumber":43,"Velocity":80,"Duration":288635,"SoundDuration":288635,"Delta":59366780},{"NoteNumber":38,"Velocity":73,"Duration":1116298,"SoundDuration":1116298,"Delta":59366780},{"NoteNumber":98,"Velocity":84,"Duration":95541,"SoundDuration":95541,"Delta":59468131},{"NoteNumber":35,"Velocity":76,"Duration":1014947,"SoundDuration":1014947,"Delta":59468131},{"NoteNumber":95,"Velocity":79,"Duration":91743,"SoundDuration":91743,"Delta":59563672},{"NoteNumber":43,"Velocity":79,"Duration":919406,"SoundDuration":919406,"Delta":59563672},{"NoteNumber":91,"Velocity":75,"Duration":91726,"SoundDuration":91726,"Delta":59655415},{"NoteNumber":47,"Velocity":75,"Duration":91726,"SoundDuration":91726,"Delta":59655415},{"NoteNumber":83,"Velocity":82,"Duration":91463,"SoundDuration":91463,"Delta":59747142},{"NoteNumber":50,"Velocity":84,"Duration":91463,"SoundDuration":91463,"Delta":59747142},{"NoteNumber":86,"Velocity":73,"Duration":91535,"SoundDuration":91535,"Delta":59838605},{"NoteNumber":47,"Velocity":75,"Duration":91535,"SoundDuration":91535,"Delta":59838605},{"NoteNumber":83,"Velocity":78,"Duration":91742,"SoundDuration":91742,"Delta":59930141},{"NoteNumber":55,"Velocity":78,"Duration":91742,"SoundDuration":91742,"Delta":59930141},{"NoteNumber":78,"Velocity":71,"Duration":91928,"SoundDuration":91928,"Delta":60021884},{"NoteNumber":59,"Velocity":76,"Duration":91928,"SoundDuration":91928,"Delta":60021884},{"NoteNumber":71,"Velocity":65,"Duration":369265,"SoundDuration":369265,"Delta":60113812},{"NoteNumber":62,"Velocity":83,"Duration":369265,"SoundDuration":369265,"Delta":60113812},{"NoteNumber":76,"Velocity":75,"Duration":92267,"SoundDuration":92267,"Delta":60205837},{"NoteNumber":59,"Velocity":73,"Duration":92267,"SoundDuration":92267,"Delta":60205837},{"NoteNumber":79,"Velocity":68,"Duration":92381,"SoundDuration":92381,"Delta":60298105},{"NoteNumber":67,"Velocity":78,"Duration":184973,"SoundDuration":184973,"Delta":60298105},{"NoteNumber":86,"Velocity":68,"Duration":92592,"SoundDuration":92592,"Delta":60390486},{"NoteNumber":71,"Velocity":72,"Duration":92592,"SoundDuration":92592,"Delta":60390486},{"NoteNumber":81,"Velocity":84,"Duration":92723,"SoundDuration":92723,"Delta":60483078},{"NoteNumber":74,"Velocity":84,"Duration":92723,"SoundDuration":92723,"Delta":60483078},{"NoteNumber":78,"Velocity":62,"Duration":92879,"SoundDuration":92879,"Delta":60575802},{"NoteNumber":69,"Velocity":69,"Duration":92879,"SoundDuration":92879,"Delta":60575802},{"NoteNumber":71,"Velocity":68,"Duration":93126,"SoundDuration":93126,"Delta":60668682},{"NoteNumber":66,"Velocity":74,"Duration":93126,"SoundDuration":93126,"Delta":60668682},{"NoteNumber":72,"Velocity":63,"Duration":100800,"SoundDuration":100800,"Delta":60761808},{"NoteNumber":60,"Velocity":66,"Duration":100800,"SoundDuration":100800,"Delta":60761808},{"NoteNumber":74,"Velocity":57,"Duration":90240,"SoundDuration":90240,"Delta":60862609},{"NoteNumber":86,"Velocity":75,"Duration":90240,"SoundDuration":90240,"Delta":60862609},{"NoteNumber":62,"Velocity":82,"Duration":90240,"SoundDuration":90240,"Delta":60862609},{"NoteNumber":72,"Velocity":49,"Duration":90956,"SoundDuration":90956,"Delta":60952849},{"NoteNumber":84,"Velocity":63,"Duration":90956,"SoundDuration":90956,"Delta":60952849},{"NoteNumber":57,"Velocity":68,"Duration":90956,"SoundDuration":90956,"Delta":60952849},{"NoteNumber":71,"Velocity":51,"Duration":91959,"SoundDuration":91959,"Delta":61043805},{"NoteNumber":83,"Velocity":65,"Duration":91959,"SoundDuration":91959,"Delta":61043805},{"NoteNumber":54,"Velocity":71,"Duration":91959,"SoundDuration":91959,"Delta":61043805},{"NoteNumber":69,"Velocity":53,"Duration":93360,"SoundDuration":93360,"Delta":61135765},{"NoteNumber":81,"Velocity":69,"Duration":93360,"SoundDuration":93360,"Delta":61135765},{"NoteNumber":48,"Velocity":65,"Duration":93360,"SoundDuration":93360,"Delta":61135765},{"NoteNumber":79,"Velocity":69,"Duration":95133,"SoundDuration":95133,"Delta":61229125},{"NoteNumber":67,"Velocity":55,"Duration":95133,"SoundDuration":95133,"Delta":61229125},{"NoteNumber":50,"Velocity":72,"Duration":95133,"SoundDuration":95133,"Delta":61229125},{"NoteNumber":78,"Velocity":73,"Duration":97293,"SoundDuration":97293,"Delta":61324259},{"NoteNumber":66,"Velocity":56,"Duration":97293,"SoundDuration":97293,"Delta":61324259},{"NoteNumber":45,"Velocity":59,"Duration":97293,"SoundDuration":97293,"Delta":61324259},{"NoteNumber":64,"Velocity":56,"Duration":98481,"SoundDuration":98481,"Delta":61421553},{"NoteNumber":76,"Velocity":73,"Duration":98481,"SoundDuration":98481,"Delta":61421553},{"NoteNumber":42,"Velocity":71,"Duration":98481,"SoundDuration":98481,"Delta":61421553},{"NoteNumber":74,"Velocity":75,"Duration":123456,"SoundDuration":123456,"Delta":61520034},{"NoteNumber":62,"Velocity":57,"Duration":123456,"SoundDuration":123456,"Delta":61520034},{"NoteNumber":36,"Velocity":57,"Duration":123456,"SoundDuration":123456,"Delta":61520034},{"NoteNumber":62,"Velocity":57,"Duration":838087,"SoundDuration":838087,"Delta":61643491},{"NoteNumber":68,"Velocity":75,"Duration":1113637,"SoundDuration":1113637,"Delta":61643491},{"NoteNumber":74,"Velocity":89,"Duration":1113637,"SoundDuration":1113637,"Delta":61643491},{"NoteNumber":65,"Velocity":65,"Duration":1021613,"SoundDuration":1021613,"Delta":61643491},{"NoteNumber":60,"Velocity":58,"Duration":929830,"SoundDuration":929830,"Delta":61643491},{"NoteNumber":36,"Velocity":60,"Duration":101351,"SoundDuration":101351,"Delta":61643491},{"NoteNumber":43,"Velocity":76,"Duration":1113637,"SoundDuration":1113637,"Delta":61643491},{"NoteNumber":31,"Velocity":57,"Duration":1113637,"SoundDuration":1113637,"Delta":61643491},{"NoteNumber":38,"Velocity":69,"Duration":1113637,"SoundDuration":1113637,"Delta":61643491},{"NoteNumber":98,"Velocity":79,"Duration":95541,"SoundDuration":95541,"Delta":61744842},{"NoteNumber":36,"Velocity":72,"Duration":1012286,"SoundDuration":1012286,"Delta":61744842},{"NoteNumber":92,"Velocity":75,"Duration":91743,"SoundDuration":91743,"Delta":61840384},{"NoteNumber":41,"Velocity":75,"Duration":91743,"SoundDuration":91743,"Delta":61840384},{"NoteNumber":89,"Velocity":71,"Duration":91703,"SoundDuration":91703,"Delta":61932127},{"NoteNumber":44,"Velocity":71,"Duration":91703,"SoundDuration":91703,"Delta":61932127},{"NoteNumber":84,"Velocity":78,"Duration":91463,"SoundDuration":91463,"Delta":62023830},{"NoteNumber":50,"Velocity":80,"Duration":91463,"SoundDuration":91463,"Delta":62023830},{"NoteNumber":86,"Velocity":69,"Duration":91463,"SoundDuration":91463,"Delta":62115293},{"NoteNumber":48,"Velocity":71,"Duration":91463,"SoundDuration":91463,"Delta":62115293},{"NoteNumber":80,"Velocity":74,"Duration":91463,"SoundDuration":91463,"Delta":62206757},{"NoteNumber":53,"Velocity":74,"Duration":91463,"SoundDuration":91463,"Delta":62206757},{"NoteNumber":77,"Velocity":66,"Duration":91614,"SoundDuration":91614,"Delta":62298220},{"NoteNumber":56,"Velocity":72,"Duration":91614,"SoundDuration":91614,"Delta":62298220},{"NoteNumber":72,"Velocity":62,"Duration":91743,"SoundDuration":91743,"Delta":62389835},{"NoteNumber":62,"Velocity":79,"Duration":367293,"SoundDuration":367293,"Delta":62389835},{"NoteNumber":77,"Velocity":71,"Duration":91742,"SoundDuration":91742,"Delta":62481578},{"NoteNumber":60,"Velocity":69,"Duration":275550,"SoundDuration":275550,"Delta":62481578},{"NoteNumber":80,"Velocity":64,"Duration":91782,"SoundDuration":91782,"Delta":62573321},{"NoteNumber":65,"Velocity":74,"Duration":183807,"SoundDuration":183807,"Delta":62573321},{"NoteNumber":86,"Velocity":64,"Duration":92024,"SoundDuration":92024,"Delta":62665104},{"NoteNumber":68,"Velocity":68,"Duration":92024,"SoundDuration":92024,"Delta":62665104},{"NoteNumber":79,"Velocity":80,"Duration":92024,"SoundDuration":92024,"Delta":62757129},{"NoteNumber":74,"Velocity":80,"Duration":92024,"SoundDuration":92024,"Delta":62757129},{"NoteNumber":77,"Velocity":59,"Duration":92024,"SoundDuration":92024,"Delta":62849153},{"NoteNumber":67,"Velocity":65,"Duration":92024,"SoundDuration":92024,"Delta":62849153},{"NoteNumber":71,"Velocity":64,"Duration":92234,"SoundDuration":92234,"Delta":62941178},{"NoteNumber":65,"Velocity":70,"Duration":92234,"SoundDuration":92234,"Delta":62941178},{"NoteNumber":72,"Velocity":60,"Duration":98231,"SoundDuration":98231,"Delta":63033412},{"NoteNumber":59,"Velocity":62,"Duration":98231,"SoundDuration":98231,"Delta":63033412},{"NoteNumber":86,"Velocity":71,"Duration":90488,"SoundDuration":90488,"Delta":63131644},{"NoteNumber":74,"Velocity":54,"Duration":90488,"SoundDuration":90488,"Delta":63131644},{"NoteNumber":62,"Velocity":70,"Duration":90488,"SoundDuration":90488,"Delta":63131644},{"NoteNumber":84,"Velocity":62,"Duration":91873,"SoundDuration":91873,"Delta":63222132},{"NoteNumber":72,"Velocity":62,"Duration":91873,"SoundDuration":91873,"Delta":63222132},{"NoteNumber":55,"Velocity":57,"Duration":91873,"SoundDuration":91873,"Delta":63222132},{"NoteNumber":83,"Velocity":59,"Duration":93275,"SoundDuration":93275,"Delta":63314006},{"NoteNumber":71,"Velocity":59,"Duration":93275,"SoundDuration":93275,"Delta":63314006},{"NoteNumber":53,"Velocity":60,"Duration":93275,"SoundDuration":93275,"Delta":63314006},{"NoteNumber":69,"Velocity":57,"Duration":93485,"SoundDuration":93485,"Delta":63407281},{"NoteNumber":81,"Velocity":57,"Duration":93485,"SoundDuration":93485,"Delta":63407281},{"NoteNumber":47,"Velocity":54,"Duration":93485,"SoundDuration":93485,"Delta":63407281},{"NoteNumber":67,"Velocity":54,"Duration":95133,"SoundDuration":95133,"Delta":63500767},{"NoteNumber":79,"Velocity":54,"Duration":95133,"SoundDuration":95133,"Delta":63500767},{"NoteNumber":50,"Velocity":61,"Duration":95133,"SoundDuration":95133,"Delta":63500767},{"NoteNumber":77,"Velocity":52,"Duration":97293,"SoundDuration":97293,"Delta":63595901},{"NoteNumber":65,"Velocity":52,"Duration":97293,"SoundDuration":97293,"Delta":63595901},{"NoteNumber":43,"Velocity":50,"Duration":97293,"SoundDuration":97293,"Delta":63595901},{"NoteNumber":76,"Velocity":49,"Duration":98481,"SoundDuration":98481,"Delta":63693195},{"NoteNumber":64,"Velocity":49,"Duration":98481,"SoundDuration":98481,"Delta":63693195},{"NoteNumber":40,"Velocity":60,"Duration":98481,"SoundDuration":98481,"Delta":63693195},{"NoteNumber":74,"Velocity":46,"Duration":196078,"SoundDuration":196078,"Delta":63791676},{"NoteNumber":62,"Velocity":46,"Duration":196078,"SoundDuration":196078,"Delta":63791676},{"NoteNumber":35,"Velocity":48,"Duration":196078,"SoundDuration":196078,"Delta":63791676},{"NoteNumber":64,"Velocity":38,"Duration":838311,"SoundDuration":838311,"Delta":63987754},{"NoteNumber":72,"Velocity":43,"Duration":838311,"SoundDuration":838311,"Delta":63987754},{"NoteNumber":76,"Velocity":51,"Duration":1114304,"SoundDuration":1114304,"Delta":63987754},{"NoteNumber":67,"Velocity":38,"Duration":1022263,"SoundDuration":1022263,"Delta":63987754},{"NoteNumber":36,"Velocity":44,"Duration":101351,"SoundDuration":101351,"Delta":63987754},{"NoteNumber":28,"Velocity":35,"Duration":1114304,"SoundDuration":1114304,"Delta":63987754},{"NoteNumber":24,"Velocity":33,"Duration":1114304,"SoundDuration":1114304,"Delta":63987754},{"NoteNumber":31,"Velocity":39,"Duration":1114304,"SoundDuration":1114304,"Delta":63987754},{"NoteNumber":100,"Velocity":45,"Duration":95541,"SoundDuration":95541,"Delta":64089106},{"NoteNumber":36,"Velocity":41,"Duration":1012953,"SoundDuration":1012953,"Delta":64089106},{"NoteNumber":96,"Velocity":43,"Duration":91742,"SoundDuration":91742,"Delta":64184647},{"NoteNumber":43,"Velocity":43,"Duration":91742,"SoundDuration":91742,"Delta":64184647},{"NoteNumber":91,"Velocity":41,"Duration":91726,"SoundDuration":91726,"Delta":64276390},{"NoteNumber":48,"Velocity":41,"Duration":91726,"SoundDuration":91726,"Delta":64276390},{"NoteNumber":84,"Velocity":45,"Duration":91463,"SoundDuration":91463,"Delta":64368117},{"NoteNumber":52,"Velocity":45,"Duration":91463,"SoundDuration":91463,"Delta":64368117},{"NoteNumber":88,"Velocity":40,"Duration":91463,"SoundDuration":91463,"Delta":64459580},{"NoteNumber":48,"Velocity":41,"Duration":91463,"SoundDuration":91463,"Delta":64459580},{"NoteNumber":84,"Velocity":43,"Duration":91535,"SoundDuration":91535,"Delta":64551044},{"NoteNumber":55,"Velocity":43,"Duration":91535,"SoundDuration":91535,"Delta":64551044},{"NoteNumber":79,"Velocity":38,"Duration":91743,"SoundDuration":91743,"Delta":64642580},{"NoteNumber":60,"Velocity":41,"Duration":91743,"SoundDuration":91743,"Delta":64642580},{"NoteNumber":72,"Velocity":36,"Duration":367736,"SoundDuration":367736,"Delta":64734323},{"NoteNumber":64,"Velocity":46,"Duration":367736,"SoundDuration":367736,"Delta":64734323},{"NoteNumber":79,"Velocity":41,"Duration":91928,"SoundDuration":91928,"Delta":64826066},{"NoteNumber":60,"Velocity":40,"Duration":91928,"SoundDuration":91928,"Delta":64826066},{"NoteNumber":84,"Velocity":38,"Duration":92024,"SoundDuration":92024,"Delta":64917994},{"NoteNumber":67,"Velocity":44,"Duration":184065,"SoundDuration":184065,"Delta":64917994},{"NoteNumber":88,"Velocity":38,"Duration":92041,"SoundDuration":92041,"Delta":65010018},{"NoteNumber":72,"Velocity":40,"Duration":92041,"SoundDuration":92041,"Delta":65010018},{"NoteNumber":84,"Velocity":47,"Duration":92307,"SoundDuration":92307,"Delta":65102059},{"NoteNumber":76,"Velocity":47,"Duration":92307,"SoundDuration":92307,"Delta":65102059},{"NoteNumber":79,"Velocity":35,"Duration":92307,"SoundDuration":92307,"Delta":65194367},{"NoteNumber":72,"Velocity":40,"Duration":92307,"SoundDuration":92307,"Delta":65194367},{"NoteNumber":72,"Velocity":38,"Duration":92438,"SoundDuration":92438,"Delta":65286675},{"NoteNumber":67,"Velocity":44,"Duration":92438,"SoundDuration":92438,"Delta":65286675},{"NoteNumber":74,"Velocity":36,"Duration":97890,"SoundDuration":97890,"Delta":65379113},{"NoteNumber":60,"Velocity":39,"Duration":97890,"SoundDuration":97890,"Delta":65379113},{"NoteNumber":76,"Velocity":41,"Duration":90219,"SoundDuration":90219,"Delta":65477004},{"NoteNumber":88,"Velocity":54,"Duration":90219,"SoundDuration":90219,"Delta":65477004},{"NoteNumber":64,"Velocity":46,"Duration":90219,"SoundDuration":90219,"Delta":65477004},{"NoteNumber":74,"Velocity":34,"Duration":91232,"SoundDuration":91232,"Delta":65567224},{"NoteNumber":86,"Velocity":45,"Duration":91232,"SoundDuration":91232,"Delta":65567224},{"NoteNumber":60,"Velocity":39,"Duration":91232,"SoundDuration":91232,"Delta":65567224},{"NoteNumber":72,"Velocity":36,"Duration":92470,"SoundDuration":92470,"Delta":65658457},{"NoteNumber":84,"Velocity":46,"Duration":92470,"SoundDuration":92470,"Delta":65658457},{"NoteNumber":55,"Velocity":43,"Duration":92470,"SoundDuration":92470,"Delta":65658457},{"NoteNumber":83,"Velocity":50,"Duration":93391,"SoundDuration":93391,"Delta":65750928},{"NoteNumber":71,"Velocity":37,"Duration":93391,"SoundDuration":93391,"Delta":65750928},{"NoteNumber":48,"Velocity":38,"Duration":93391,"SoundDuration":93391,"Delta":65750928},{"NoteNumber":69,"Velocity":40,"Duration":95133,"SoundDuration":95133,"Delta":65844319},{"NoteNumber":81,"Velocity":50,"Duration":95133,"SoundDuration":95133,"Delta":65844319},{"NoteNumber":52,"Velocity":51,"Duration":95133,"SoundDuration":95133,"Delta":65844319},{"NoteNumber":79,"Velocity":54,"Duration":97293,"SoundDuration":97293,"Delta":65939453},{"NoteNumber":67,"Velocity":41,"Duration":97293,"SoundDuration":97293,"Delta":65939453},{"NoteNumber":48,"Velocity":44,"Duration":97293,"SoundDuration":97293,"Delta":65939453},{"NoteNumber":65,"Velocity":41,"Duration":98481,"SoundDuration":98481,"Delta":66036747},{"NoteNumber":77,"Velocity":54,"Duration":98481,"SoundDuration":98481,"Delta":66036747},{"NoteNumber":43,"Velocity":51,"Duration":98481,"SoundDuration":98481,"Delta":66036747},{"NoteNumber":64,"Velocity":42,"Duration":123456,"SoundDuration":123456,"Delta":66135228},{"NoteNumber":76,"Velocity":55,"Duration":123456,"SoundDuration":123456,"Delta":66135228},{"NoteNumber":36,"Velocity":46,"Duration":123456,"SoundDuration":123456,"Delta":66135228},{"NoteNumber":69,"Velocity":45,"Duration":1021517,"SoundDuration":1021517,"Delta":66258685},{"NoteNumber":72,"Velocity":51,"Duration":838031,"SoundDuration":838031,"Delta":66258685},{"NoteNumber":65,"Velocity":45,"Duration":838031,"SoundDuration":838031,"Delta":66258685},{"NoteNumber":77,"Velocity":61,"Duration":1113356,"SoundDuration":1113356,"Delta":66258685},{"NoteNumber":33,"Velocity":39,"Duration":1113356,"SoundDuration":1113356,"Delta":66258685},{"NoteNumber":36,"Velocity":41,"Duration":101351,"SoundDuration":101351,"Delta":66258685},{"NoteNumber":45,"Velocity":52,"Duration":1113356,"SoundDuration":1113356,"Delta":66258685},{"NoteNumber":41,"Velocity":46,"Duration":196892,"SoundDuration":196892,"Delta":66258685},{"NoteNumber":101,"Velocity":54,"Duration":95541,"SoundDuration":95541,"Delta":66360036},{"NoteNumber":36,"Velocity":49,"Duration":1012005,"SoundDuration":1012005,"Delta":66360036},{"NoteNumber":96,"Velocity":51,"Duration":91742,"SoundDuration":91742,"Delta":66455577},{"NoteNumber":41,"Velocity":51,"Duration":916464,"SoundDuration":916464,"Delta":66455577},{"NoteNumber":93,"Velocity":49,"Duration":91743,"SoundDuration":91743,"Delta":66547320},{"NoteNumber":48,"Velocity":49,"Duration":91743,"SoundDuration":91743,"Delta":66547320},{"NoteNumber":84,"Velocity":54,"Duration":91479,"SoundDuration":91479,"Delta":66639063},{"NoteNumber":53,"Velocity":54,"Duration":91479,"SoundDuration":91479,"Delta":66639063},{"NoteNumber":89,"Velocity":47,"Duration":91463,"SoundDuration":91463,"Delta":66730543},{"NoteNumber":48,"Velocity":49,"Duration":91463,"SoundDuration":91463,"Delta":66730543},{"NoteNumber":84,"Velocity":51,"Duration":91463,"SoundDuration":91463,"Delta":66822007},{"NoteNumber":57,"Velocity":51,"Duration":91463,"SoundDuration":91463,"Delta":66822007},{"NoteNumber":81,"Velocity":45,"Duration":91503,"SoundDuration":91503,"Delta":66913470},{"NoteNumber":60,"Velocity":49,"Duration":91503,"SoundDuration":91503,"Delta":66913470},{"NoteNumber":72,"Velocity":43,"Duration":367068,"SoundDuration":367068,"Delta":67004973},{"NoteNumber":65,"Velocity":55,"Duration":367068,"SoundDuration":367068,"Delta":67004973},{"NoteNumber":81,"Velocity":49,"Duration":91742,"SoundDuration":91742,"Delta":67096716},{"NoteNumber":60,"Velocity":47,"Duration":91742,"SoundDuration":91742,"Delta":67096716},{"NoteNumber":84,"Velocity":45,"Duration":91743,"SoundDuration":91743,"Delta":67188459},{"NoteNumber":69,"Velocity":52,"Duration":183582,"SoundDuration":183582,"Delta":67188459},{"NoteNumber":88,"Velocity":45,"Duration":91839,"SoundDuration":91839,"Delta":67280202},{"NoteNumber":72,"Velocity":47,"Duration":91839,"SoundDuration":91839,"Delta":67280202},{"NoteNumber":81,"Velocity":56,"Duration":92024,"SoundDuration":92024,"Delta":67372041},{"NoteNumber":76,"Velocity":56,"Duration":92024,"SoundDuration":92024,"Delta":67372041},{"NoteNumber":78,"Velocity":41,"Duration":92024,"SoundDuration":92024,"Delta":67464066},{"NoteNumber":72,"Velocity":45,"Duration":92024,"SoundDuration":92024,"Delta":67464066},{"NoteNumber":72,"Velocity":45,"Duration":92024,"SoundDuration":92024,"Delta":67556090},{"NoteNumber":66,"Velocity":49,"Duration":92024,"SoundDuration":92024,"Delta":67556090},{"NoteNumber":76,"Velocity":43,"Duration":92013,"SoundDuration":92013,"Delta":67648115},{"NoteNumber":60,"Velocity":45,"Duration":92013,"SoundDuration":92013,"Delta":67648115},{"NoteNumber":69,"Velocity":51,"Duration":91881,"SoundDuration":91881,"Delta":67740128},{"NoteNumber":64,"Velocity":55,"Duration":91881,"SoundDuration":91881,"Delta":67740128},{"NoteNumber":66,"Velocity":44,"Duration":92360,"SoundDuration":92360,"Delta":67832010},{"NoteNumber":60,"Velocity":46,"Duration":92360,"SoundDuration":92360,"Delta":67832010},{"NoteNumber":60,"Velocity":45,"Duration":92733,"SoundDuration":92733,"Delta":67924370},{"NoteNumber":54,"Velocity":49,"Duration":92733,"SoundDuration":92733,"Delta":67924370},{"NoteNumber":62,"Velocity":47,"Duration":93391,"SoundDuration":93391,"Delta":68017103},{"NoteNumber":48,"Velocity":45,"Duration":93391,"SoundDuration":93391,"Delta":68017103},{"NoteNumber":63,"Velocity":53,"Duration":95133,"SoundDuration":95133,"Delta":68110494},{"NoteNumber":32,"Velocity":49,"Duration":414365,"SoundDuration":414365,"Delta":68110494},{"NoteNumber":36,"Velocity":49,"Duration":414365,"SoundDuration":414365,"Delta":68110494},{"NoteNumber":44,"Velocity":51,"Duration":414365,"SoundDuration":414365,"Delta":68110494},{"NoteNumber":60,"Velocity":54,"Duration":97293,"SoundDuration":97293,"Delta":68205628},{"NoteNumber":54,"Velocity":56,"Duration":98481,"SoundDuration":98481,"Delta":68302922},{"NoteNumber":48,"Velocity":59,"Duration":123456,"SoundDuration":123456,"Delta":68401403},{"NoteNumber":31,"Velocity":51,"Duration":1115197,"SoundDuration":1115197,"Delta":68524860},{"NoteNumber":36,"Velocity":54,"Duration":101351,"SoundDuration":101351,"Delta":68524860},{"NoteNumber":38,"Velocity":61,"Duration":1115197,"SoundDuration":1115197,"Delta":68524860},{"NoteNumber":43,"Velocity":67,"Duration":288635,"SoundDuration":288635,"Delta":68524860},{"NoteNumber":98,"Velocity":65,"Duration":95541,"SoundDuration":95541,"Delta":68626211},{"NoteNumber":36,"Velocity":59,"Duration":1013846,"SoundDuration":1013846,"Delta":68626211},{"NoteNumber":96,"Velocity":61,"Duration":91742,"SoundDuration":91742,"Delta":68721753},{"NoteNumber":43,"Velocity":61,"Duration":918305,"SoundDuration":918305,"Delta":68721753},{"NoteNumber":91,"Velocity":59,"Duration":91703,"SoundDuration":91703,"Delta":68813496},{"NoteNumber":48,"Velocity":59,"Duration":91703,"SoundDuration":91703,"Delta":68813496},{"NoteNumber":84,"Velocity":64,"Duration":91463,"SoundDuration":91463,"Delta":68905199},{"NoteNumber":50,"Velocity":65,"Duration":91463,"SoundDuration":91463,"Delta":68905199},{"NoteNumber":86,"Velocity":58,"Duration":91463,"SoundDuration":91463,"Delta":68996663},{"NoteNumber":48,"Velocity":60,"Duration":91463,"SoundDuration":91463,"Delta":68996663},{"NoteNumber":84,"Velocity":61,"Duration":91726,"SoundDuration":91726,"Delta":69088126},{"NoteNumber":55,"Velocity":61,"Duration":91726,"SoundDuration":91726,"Delta":69088126},{"NoteNumber":79,"Velocity":55,"Duration":91743,"SoundDuration":91743,"Delta":69179853},{"NoteNumber":60,"Velocity":60,"Duration":91743,"SoundDuration":91743,"Delta":69179853},{"NoteNumber":72,"Velocity":51,"Duration":91951,"SoundDuration":91951,"Delta":69271596},{"NoteNumber":62,"Velocity":67,"Duration":91951,"SoundDuration":91951,"Delta":69271596},{"NoteNumber":79,"Velocity":60,"Duration":92024,"SoundDuration":92024,"Delta":69363548},{"NoteNumber":60,"Velocity":58,"Duration":92024,"SoundDuration":92024,"Delta":69363548},{"NoteNumber":84,"Velocity":56,"Duration":92177,"SoundDuration":92177,"Delta":69455572},{"NoteNumber":67,"Velocity":63,"Duration":92177,"SoundDuration":92177,"Delta":69455572},{"NoteNumber":86,"Velocity":56,"Duration":92307,"SoundDuration":92307,"Delta":69547750},{"NoteNumber":72,"Velocity":58,"Duration":92307,"SoundDuration":92307,"Delta":69547750},{"NoteNumber":83,"Velocity":69,"Duration":92405,"SoundDuration":92405,"Delta":69640058},{"NoteNumber":74,"Velocity":69,"Duration":92405,"SoundDuration":92405,"Delta":69640058},{"NoteNumber":79,"Velocity":50,"Duration":92592,"SoundDuration":92592,"Delta":69732463},{"NoteNumber":71,"Velocity":58,"Duration":92592,"SoundDuration":92592,"Delta":69732463},{"NoteNumber":71,"Velocity":56,"Duration":92690,"SoundDuration":92690,"Delta":69825055},{"NoteNumber":67,"Velocity":63,"Duration":92690,"SoundDuration":92690,"Delta":69825055},{"NoteNumber":72,"Velocity":53,"Duration":99479,"SoundDuration":99479,"Delta":69917746},{"NoteNumber":59,"Velocity":57,"Duration":99479,"SoundDuration":99479,"Delta":69917746},{"NoteNumber":74,"Velocity":73,"Duration":91821,"SoundDuration":91821,"Delta":70017226},{"NoteNumber":62,"Velocity":66,"Duration":91821,"SoundDuration":91821,"Delta":70017226},{"NoteNumber":76,"Velocity":62,"Duration":89785,"SoundDuration":89785,"Delta":70109048},{"NoteNumber":64,"Velocity":46,"Duration":89785,"SoundDuration":89785,"Delta":70109048},{"NoteNumber":59,"Velocity":57,"Duration":89785,"SoundDuration":89785,"Delta":70109048},{"NoteNumber":65,"Velocity":48,"Duration":89499,"SoundDuration":89499,"Delta":70198834},{"NoteNumber":77,"Velocity":63,"Duration":89499,"SoundDuration":89499,"Delta":70198834},{"NoteNumber":55,"Velocity":63,"Duration":89499,"SoundDuration":89499,"Delta":70198834},{"NoteNumber":79,"Velocity":67,"Duration":92351,"SoundDuration":92351,"Delta":70288333},{"NoteNumber":67,"Velocity":51,"Duration":92351,"SoundDuration":92351,"Delta":70288333},{"NoteNumber":47,"Velocity":56,"Duration":92351,"SoundDuration":92351,"Delta":70288333},{"NoteNumber":69,"Velocity":54,"Duration":95133,"SoundDuration":95133,"Delta":70380685},{"NoteNumber":81,"Velocity":68,"Duration":95133,"SoundDuration":95133,"Delta":70380685},{"NoteNumber":50,"Velocity":68,"Duration":95133,"SoundDuration":95133,"Delta":70380685},{"NoteNumber":83,"Velocity":74,"Duration":97293,"SoundDuration":97293,"Delta":70475819},{"NoteNumber":71,"Velocity":56,"Duration":97293,"SoundDuration":97293,"Delta":70475819},{"NoteNumber":47,"Velocity":51,"Duration":97293,"SoundDuration":97293,"Delta":70475819},{"NoteNumber":84,"Velocity":75,"Duration":98481,"SoundDuration":98481,"Delta":70573112},{"NoteNumber":72,"Velocity":56,"Duration":98481,"SoundDuration":98481,"Delta":70573112},{"NoteNumber":43,"Velocity":62,"Duration":98481,"SoundDuration":98481,"Delta":70573112},{"NoteNumber":86,"Velocity":76,"Duration":123456,"SoundDuration":123456,"Delta":70671593},{"NoteNumber":74,"Velocity":57,"Duration":123456,"SoundDuration":123456,"Delta":70671593},{"NoteNumber":35,"Velocity":49,"Duration":123456,"SoundDuration":123456,"Delta":70671593},{"NoteNumber":30,"Velocity":56,"Duration":1114352,"SoundDuration":1114352,"Delta":70795050},{"NoteNumber":38,"Velocity":67,"Duration":1114352,"SoundDuration":1114352,"Delta":70795050},{"NoteNumber":36,"Velocity":58,"Duration":101351,"SoundDuration":101351,"Delta":70795050},{"NoteNumber":42,"Velocity":75,"Duration":1114352,"SoundDuration":1114352,"Delta":70795050},{"NoteNumber":98,"Velocity":72,"Duration":95541,"SoundDuration":95541,"Delta":70896401},{"NoteNumber":36,"Velocity":65,"Duration":1013000,"SoundDuration":1013000,"Delta":70896401},{"NoteNumber":96,"Velocity":67,"Duration":91742,"SoundDuration":91742,"Delta":70991943},{"NoteNumber":45,"Velocity":67,"Duration":91742,"SoundDuration":91742,"Delta":70991943},{"NoteNumber":93,"Velocity":65,"Duration":91703,"SoundDuration":91703,"Delta":71083686},{"NoteNumber":48,"Velocity":65,"Duration":91703,"SoundDuration":91703,"Delta":71083686},{"NoteNumber":84,"Velocity":71,"Duration":91463,"SoundDuration":91463,"Delta":71175389},{"NoteNumber":50,"Velocity":72,"Duration":91463,"SoundDuration":91463,"Delta":71175389},{"NoteNumber":86,"Velocity":64,"Duration":91463,"SoundDuration":91463,"Delta":71266853},{"NoteNumber":48,"Velocity":66,"Duration":91463,"SoundDuration":91463,"Delta":71266853},{"NoteNumber":84,"Velocity":68,"Duration":91558,"SoundDuration":91558,"Delta":71358316},{"NoteNumber":57,"Velocity":68,"Duration":91558,"SoundDuration":91558,"Delta":71358316},{"NoteNumber":81,"Velocity":61,"Duration":91742,"SoundDuration":91742,"Delta":71449875},{"NoteNumber":60,"Velocity":66,"Duration":91742,"SoundDuration":91742,"Delta":71449875},{"NoteNumber":72,"Velocity":56,"Duration":91742,"SoundDuration":91742,"Delta":71541618},{"NoteNumber":62,"Velocity":73,"Duration":91742,"SoundDuration":91742,"Delta":71541618},{"NoteNumber":81,"Velocity":66,"Duration":91951,"SoundDuration":91951,"Delta":71633361},{"NoteNumber":60,"Velocity":64,"Duration":91951,"SoundDuration":91951,"Delta":71633361},{"NoteNumber":84,"Velocity":62,"Duration":92024,"SoundDuration":92024,"Delta":71725313},{"NoteNumber":69,"Velocity":69,"Duration":92024,"SoundDuration":92024,"Delta":71725313},{"NoteNumber":87,"Velocity":62,"Duration":92064,"SoundDuration":92064,"Delta":71817338},{"NoteNumber":72,"Velocity":64,"Duration":92064,"SoundDuration":92064,"Delta":71817338},{"NoteNumber":84,"Velocity":75,"Duration":92307,"SoundDuration":92307,"Delta":71909402},{"NoteNumber":75,"Velocity":75,"Duration":92307,"SoundDuration":92307,"Delta":71909402},{"NoteNumber":81,"Velocity":55,"Duration":92307,"SoundDuration":92307,"Delta":72001710},{"NoteNumber":72,"Velocity":64,"Duration":92307,"SoundDuration":92307,"Delta":72001710},{"NoteNumber":72,"Velocity":62,"Duration":92461,"SoundDuration":92461,"Delta":72094018},{"NoteNumber":69,"Velocity":69,"Duration":92461,"SoundDuration":92461,"Delta":72094018},{"NoteNumber":74,"Velocity":57,"Duration":107081,"SoundDuration":107081,"Delta":72186480},{"NoteNumber":60,"Velocity":63,"Duration":107081,"SoundDuration":107081,"Delta":72186480},{"NoteNumber":75,"Velocity":80,"Duration":92479,"SoundDuration":92479,"Delta":72293561},{"NoteNumber":63,"Velocity":75,"Duration":92479,"SoundDuration":92479,"Delta":72293561},{"NoteNumber":77,"Velocity":68,"Duration":90366,"SoundDuration":90366,"Delta":72386040},{"NoteNumber":65,"Velocity":50,"Duration":90366,"SoundDuration":90366,"Delta":72386040},{"NoteNumber":59,"Velocity":63,"Duration":90366,"SoundDuration":90366,"Delta":72386040},{"NoteNumber":67,"Velocity":52,"Duration":92862,"SoundDuration":92862,"Delta":72476407},{"NoteNumber":79,"Velocity":69,"Duration":92862,"SoundDuration":92862,"Delta":72476407},{"NoteNumber":57,"Velocity":69,"Duration":92862,"SoundDuration":92862,"Delta":72476407},{"NoteNumber":69,"Velocity":55,"Duration":95051,"SoundDuration":95051,"Delta":72569269},{"NoteNumber":81,"Velocity":74,"Duration":95051,"SoundDuration":95051,"Delta":72569269},{"NoteNumber":47,"Velocity":62,"Duration":95051,"SoundDuration":95051,"Delta":72569269},{"NoteNumber":83,"Velocity":75,"Duration":97431,"SoundDuration":97431,"Delta":72664321},{"NoteNumber":71,"Velocity":59,"Duration":97431,"SoundDuration":97431,"Delta":72664321},{"NoteNumber":51,"Velocity":75,"Duration":97431,"SoundDuration":97431,"Delta":72664321},{"NoteNumber":72,"Velocity":62,"Duration":100248,"SoundDuration":100248,"Delta":72761752},{"NoteNumber":84,"Velocity":81,"Duration":100248,"SoundDuration":100248,"Delta":72761752},{"NoteNumber":47,"Velocity":56,"Duration":100248,"SoundDuration":100248,"Delta":72761752},{"NoteNumber":86,"Velocity":83,"Duration":101350,"SoundDuration":101350,"Delta":72862001},{"NoteNumber":74,"Velocity":62,"Duration":101350,"SoundDuration":101350,"Delta":72862001},{"NoteNumber":45,"Velocity":68,"Duration":101350,"SoundDuration":101350,"Delta":72862001},{"NoteNumber":75,"Velocity":63,"Duration":123456,"SoundDuration":123456,"Delta":72963351},{"NoteNumber":87,"Velocity":84,"Duration":123456,"SoundDuration":123456,"Delta":72963351},{"NoteNumber":35,"Velocity":54,"Duration":123456,"SoundDuration":123456,"Delta":72963351},{"NoteNumber":80,"Velocity":84,"Duration":746735,"SoundDuration":746735,"Delta":73086808},{"NoteNumber":83,"Velocity":84,"Duration":471858,"SoundDuration":471858,"Delta":73086808},{"NoteNumber":76,"Velocity":84,"Duration":1115254,"SoundDuration":1115254,"Delta":73086808},{"NoteNumber":40,"Velocity":79,"Duration":1115254,"SoundDuration":1115254,"Delta":73086808},{"NoteNumber":32,"Velocity":62,"Duration":1115254,"SoundDuration":1115254,"Delta":73086808},{"NoteNumber":35,"Velocity":71,"Duration":101351,"SoundDuration":101351,"Delta":73086808},{"NoteNumber":28,"Velocity":59,"Duration":1115254,"SoundDuration":1115254,"Delta":73086808},{"NoteNumber":88,"Velocity":84,"Duration":559099,"SoundDuration":559099,"Delta":73091031},{"NoteNumber":100,"Velocity":83,"Duration":95541,"SoundDuration":95541,"Delta":73188159},{"NoteNumber":35,"Velocity":75,"Duration":1013903,"SoundDuration":1013903,"Delta":73188159},{"NoteNumber":95,"Velocity":78,"Duration":91742,"SoundDuration":91742,"Delta":73283700},{"NoteNumber":44,"Velocity":78,"Duration":91742,"SoundDuration":91742,"Delta":73283700},{"NoteNumber":92,"Velocity":75,"Duration":91743,"SoundDuration":91743,"Delta":73375443},{"NoteNumber":47,"Velocity":75,"Duration":91743,"SoundDuration":91743,"Delta":73375443},{"NoteNumber":83,"Velocity":82,"Duration":274614,"SoundDuration":274614,"Delta":73467186},{"NoteNumber":52,"Velocity":83,"Duration":91479,"SoundDuration":91479,"Delta":73467186},{"NoteNumber":88,"Velocity":73,"Duration":643395,"SoundDuration":643395,"Delta":73558666},{"NoteNumber":47,"Velocity":75,"Duration":91463,"SoundDuration":91463,"Delta":73558666},{"NoteNumber":83,"Velocity":78,"Duration":459624,"SoundDuration":459624,"Delta":73650130},{"NoteNumber":56,"Velocity":78,"Duration":91670,"SoundDuration":91670,"Delta":73650130},{"NoteNumber":80,"Velocity":70,"Duration":275719,"SoundDuration":275719,"Delta":73741801},{"NoteNumber":59,"Velocity":75,"Duration":91743,"SoundDuration":91743,"Delta":73741801},{"NoteNumber":71,"Velocity":64,"Duration":91951,"SoundDuration":91951,"Delta":73833544},{"NoteNumber":64,"Velocity":84,"Duration":91951,"SoundDuration":91951,"Delta":73833544},{"NoteNumber":80,"Velocity":75,"Duration":276566,"SoundDuration":276566,"Delta":73925495},{"NoteNumber":59,"Velocity":73,"Duration":92024,"SoundDuration":92024,"Delta":73925495},{"NoteNumber":83,"Velocity":70,"Duration":184542,"SoundDuration":184542,"Delta":74017520},{"NoteNumber":68,"Velocity":79,"Duration":92234,"SoundDuration":92234,"Delta":74017520},{"NoteNumber":88,"Velocity":70,"Duration":96153,"SoundDuration":96153,"Delta":74109754},{"NoteNumber":71,"Velocity":73,"Duration":92307,"SoundDuration":92307,"Delta":74109754},{"NoteNumber":83,"Velocity":85,"Duration":92518,"SoundDuration":92518,"Delta":74202062},{"NoteNumber":76,"Velocity":85,"Duration":92518,"SoundDuration":92518,"Delta":74202062},{"NoteNumber":80,"Velocity":62,"Duration":92592,"SoundDuration":92592,"Delta":74294581},{"NoteNumber":71,"Velocity":73,"Duration":92592,"SoundDuration":92592,"Delta":74294581},{"NoteNumber":76,"Velocity":70,"Duration":92805,"SoundDuration":92805,"Delta":74387174},{"NoteNumber":68,"Velocity":79,"Duration":92805,"SoundDuration":92805,"Delta":74387174},{"NoteNumber":78,"Velocity":64,"Duration":100779,"SoundDuration":100779,"Delta":74479979},{"NoteNumber":59,"Velocity":71,"Duration":100779,"SoundDuration":100779,"Delta":74479979},{"NoteNumber":68,"Velocity":90,"Duration":95606,"SoundDuration":95606,"Delta":74580758},{"NoteNumber":80,"Velocity":90,"Duration":95606,"SoundDuration":95606,"Delta":74580758},{"NoteNumber":64,"Velocity":84,"Duration":95606,"SoundDuration":95606,"Delta":74580758},{"NoteNumber":69,"Velocity":57,"Duration":96399,"SoundDuration":96399,"Delta":74676365},{"NoteNumber":81,"Velocity":77,"Duration":96399,"SoundDuration":96399,"Delta":74676365},{"NoteNumber":59,"Velocity":71,"Duration":96399,"SoundDuration":96399,"Delta":74676365},{"NoteNumber":83,"Velocity":78,"Duration":100708,"SoundDuration":100708,"Delta":74772764},{"NoteNumber":71,"Velocity":59,"Duration":100708,"SoundDuration":100708,"Delta":74772764},{"NoteNumber":56,"Velocity":78,"Duration":100708,"SoundDuration":100708,"Delta":74772764},{"NoteNumber":72,"Velocity":62,"Duration":105452,"SoundDuration":105452,"Delta":74873473},{"NoteNumber":84,"Velocity":83,"Duration":105452,"SoundDuration":105452,"Delta":74873473},{"NoteNumber":47,"Velocity":70,"Duration":105452,"SoundDuration":105452,"Delta":74873473},{"NoteNumber":74,"Velocity":66,"Duration":108474,"SoundDuration":108474,"Delta":74978925},{"NoteNumber":86,"Velocity":83,"Duration":108474,"SoundDuration":108474,"Delta":74978925},{"NoteNumber":52,"Velocity":83,"Duration":108474,"SoundDuration":108474,"Delta":74978925},{"NoteNumber":88,"Velocity":90,"Duration":110212,"SoundDuration":110212,"Delta":75087400},{"NoteNumber":76,"Velocity":69,"Duration":110212,"SoundDuration":110212,"Delta":75087400},{"NoteNumber":47,"Velocity":62,"Duration":110212,"SoundDuration":110212,"Delta":75087400},{"NoteNumber":90,"Velocity":92,"Duration":112292,"SoundDuration":112292,"Delta":75197613},{"NoteNumber":78,"Velocity":69,"Duration":112292,"SoundDuration":112292,"Delta":75197613},{"NoteNumber":44,"Velocity":75,"Duration":112292,"SoundDuration":112292,"Delta":75197613},{"NoteNumber":80,"Velocity":70,"Duration":123456,"SoundDuration":123456,"Delta":75309905},{"NoteNumber":92,"Velocity":93,"Duration":123456,"SoundDuration":123456,"Delta":75309905},{"NoteNumber":35,"Velocity":60,"Duration":123456,"SoundDuration":123456,"Delta":75309905},{"NoteNumber":86,"Velocity":72,"Duration":472121,"SoundDuration":472121,"Delta":75433362},{"NoteNumber":93,"Velocity":95,"Duration":380378,"SoundDuration":380378,"Delta":75433362},{"NoteNumber":89,"Velocity":80,"Duration":564017,"SoundDuration":564017,"Delta":75433362},{"NoteNumber":81,"Velocity":72,"Duration":748332,"SoundDuration":748332,"Delta":75433362},{"NoteNumber":38,"Velocity":82,"Duration":101351,"SoundDuration":101351,"Delta":75433362},{"NoteNumber":36,"Velocity":74,"Duration":1136025,"SoundDuration":1136025,"Delta":75433362},{"NoteNumber":26,"Velocity":62,"Duration":1136025,"SoundDuration":1136025,"Delta":75433362},{"NoteNumber":33,"Velocity":65,"Duration":1136025,"SoundDuration":1136025,"Delta":75433362},{"NoteNumber":101,"Velocity":85,"Duration":95541,"SoundDuration":95541,"Delta":75534713},{"NoteNumber":38,"Velocity":77,"Duration":1034674,"SoundDuration":1034674,"Delta":75534713},{"NoteNumber":96,"Velocity":81,"Duration":91742,"SoundDuration":91742,"Delta":75630255},{"NoteNumber":45,"Velocity":81,"Duration":91742,"SoundDuration":91742,"Delta":75630255},{"NoteNumber":93,"Velocity":77,"Duration":847389,"SoundDuration":847389,"Delta":75721998},{"NoteNumber":48,"Velocity":77,"Duration":91743,"SoundDuration":91743,"Delta":75721998},{"NoteNumber":86,"Velocity":84,"Duration":755646,"SoundDuration":755646,"Delta":75813741},{"NoteNumber":53,"Velocity":86,"Duration":91743,"SoundDuration":91743,"Delta":75813741},{"NoteNumber":89,"Velocity":75,"Duration":663903,"SoundDuration":663903,"Delta":75905484},{"NoteNumber":50,"Velocity":77,"Duration":91895,"SoundDuration":91895,"Delta":75905484},{"NoteNumber":84,"Velocity":80,"Duration":92024,"SoundDuration":92024,"Delta":75997379},{"NoteNumber":57,"Velocity":81,"Duration":92024,"SoundDuration":92024,"Delta":75997379},{"NoteNumber":81,"Velocity":73,"Duration":277288,"SoundDuration":277288,"Delta":76089404},{"NoteNumber":60,"Velocity":78,"Duration":92291,"SoundDuration":92291,"Delta":76089404},{"NoteNumber":74,"Velocity":68,"Duration":92405,"SoundDuration":92405,"Delta":76181695},{"NoteNumber":65,"Velocity":87,"Duration":92405,"SoundDuration":92405,"Delta":76181695},{"NoteNumber":81,"Velocity":78,"Duration":295287,"SoundDuration":295287,"Delta":76274100},{"NoteNumber":62,"Velocity":76,"Duration":92592,"SoundDuration":92592,"Delta":76274100},{"NoteNumber":84,"Velocity":72,"Duration":92805,"SoundDuration":92805,"Delta":76366692},{"NoteNumber":69,"Velocity":83,"Duration":92805,"SoundDuration":92805,"Delta":76366692},{"NoteNumber":89,"Velocity":72,"Duration":109889,"SoundDuration":109889,"Delta":76459498},{"NoteNumber":72,"Velocity":69,"Duration":109889,"SoundDuration":109889,"Delta":76459498},{"NoteNumber":83,"Velocity":67,"Duration":94883,"SoundDuration":94883,"Delta":76569388},{"NoteNumber":77,"Velocity":80,"Duration":94883,"SoundDuration":94883,"Delta":76569388},{"NoteNumber":84,"Velocity":62,"Duration":93275,"SoundDuration":93275,"Delta":76664271},{"NoteNumber":71,"Velocity":68,"Duration":93275,"SoundDuration":93275,"Delta":76664271},{"NoteNumber":83,"Velocity":69,"Duration":92129,"SoundDuration":92129,"Delta":76757546},{"NoteNumber":71,"Velocity":38,"Duration":92129,"SoundDuration":92129,"Delta":76757546},{"NoteNumber":77,"Velocity":49,"Duration":92129,"SoundDuration":92129,"Delta":76757546},{"NoteNumber":67,"Velocity":75,"Duration":92129,"SoundDuration":92129,"Delta":76757546},{"NoteNumber":84,"Velocity":68,"Duration":91011,"SoundDuration":91011,"Delta":76849676},{"NoteNumber":62,"Velocity":68,"Duration":91011,"SoundDuration":91011,"Delta":76849676},{"NoteNumber":77,"Velocity":51,"Duration":90634,"SoundDuration":90634,"Delta":76940687},{"NoteNumber":83,"Velocity":72,"Duration":90634,"SoundDuration":90634,"Delta":76940687},{"NoteNumber":71,"Velocity":40,"Duration":90634,"SoundDuration":90634,"Delta":76940687},{"NoteNumber":65,"Velocity":79,"Duration":362330,"SoundDuration":362330,"Delta":76940687},{"NoteNumber":84,"Velocity":68,"Duration":90634,"SoundDuration":90634,"Delta":77031322},{"NoteNumber":59,"Velocity":69,"Duration":90634,"SoundDuration":90634,"Delta":77031322},{"NoteNumber":77,"Velocity":53,"Duration":90634,"SoundDuration":90634,"Delta":77121956},{"NoteNumber":71,"Velocity":42,"Duration":90634,"SoundDuration":90634,"Delta":77121956},{"NoteNumber":83,"Velocity":74,"Duration":90634,"SoundDuration":90634,"Delta":77121956},{"NoteNumber":55,"Velocity":76,"Duration":90634,"SoundDuration":90634,"Delta":77121956},{"NoteNumber":84,"Velocity":70,"Duration":90427,"SoundDuration":90427,"Delta":77212591},{"NoteNumber":50,"Velocity":72,"Duration":90427,"SoundDuration":90427,"Delta":77212591},{"NoteNumber":77,"Velocity":54,"Duration":60460,"SoundDuration":60460,"Delta":77303018},{"NoteNumber":71,"Velocity":43,"Duration":60460,"SoundDuration":60460,"Delta":77303018},{"NoteNumber":83,"Velocity":77,"Duration":60460,"SoundDuration":60460,"Delta":77303018},{"NoteNumber":53,"Velocity":69,"Duration":90938,"SoundDuration":90938,"Delta":77303018},{"NoteNumber":59,"Velocity":87,"Duration":395368,"SoundDuration":395368,"Delta":77303018},{"NoteNumber":84,"Velocity":74,"Duration":61134,"SoundDuration":61134,"Delta":77363478},{"NoteNumber":50,"Velocity":73,"Duration":92509,"SoundDuration":92509,"Delta":77393957},{"NoteNumber":71,"Velocity":40,"Duration":61853,"SoundDuration":61853,"Delta":77424613},{"NoteNumber":83,"Velocity":73,"Duration":61853,"SoundDuration":61853,"Delta":77424613},{"NoteNumber":77,"Velocity":51,"Duration":61853,"SoundDuration":61853,"Delta":77424613},{"NoteNumber":69,"Velocity":64,"Duration":93897,"SoundDuration":93897,"Delta":77486466},{"NoteNumber":81,"Velocity":80,"Duration":93897,"SoundDuration":93897,"Delta":77486466},{"NoteNumber":43,"Velocity":79,"Duration":93897,"SoundDuration":93897,"Delta":77486466},{"NoteNumber":83,"Velocity":76,"Duration":118022,"SoundDuration":118022,"Delta":77580364},{"NoteNumber":71,"Velocity":61,"Duration":118022,"SoundDuration":118022,"Delta":77580364},{"NoteNumber":31,"Velocity":71,"Duration":118022,"SoundDuration":118022,"Delta":77580364},{"NoteNumber":76,"Velocity":79,"Duration":1080970,"SoundDuration":1080970,"Delta":77698386},{"NoteNumber":84,"Velocity":94,"Duration":457673,"SoundDuration":457673,"Delta":77698386},{"NoteNumber":72,"Velocity":79,"Duration":812345,"SoundDuration":812345,"Delta":77698386},{"NoteNumber":24,"Velocity":61,"Duration":1080970,"SoundDuration":1080970,"Delta":77698386},{"NoteNumber":36,"Velocity":81,"Duration":101351,"SoundDuration":101351,"Delta":77698386},{"NoteNumber":28,"Velocity":64,"Duration":1080970,"SoundDuration":1080970,"Delta":77698386},{"NoteNumber":31,"Velocity":73,"Duration":1080970,"SoundDuration":1080970,"Delta":77698386},{"NoteNumber":100,"Velocity":84,"Duration":91933,"SoundDuration":91933,"Delta":77799738},{"NoteNumber":36,"Velocity":72,"Duration":979619,"SoundDuration":979619,"Delta":77799738},{"NoteNumber":96,"Velocity":80,"Duration":88381,"SoundDuration":88381,"Delta":77891671},{"NoteNumber":43,"Velocity":77,"Duration":88381,"SoundDuration":88381,"Delta":77891671},{"NoteNumber":91,"Velocity":76,"Duration":87976,"SoundDuration":87976,"Delta":77980053},{"NoteNumber":48,"Velocity":72,"Duration":87976,"SoundDuration":87976,"Delta":77980053},{"NoteNumber":84,"Velocity":82,"Duration":264869,"SoundDuration":264869,"Delta":78068029},{"NoteNumber":52,"Velocity":80,"Duration":88030,"SoundDuration":88030,"Delta":78068029},{"NoteNumber":88,"Velocity":73,"Duration":88289,"SoundDuration":88289,"Delta":78156060},{"NoteNumber":48,"Velocity":69,"Duration":88289,"SoundDuration":88289,"Delta":78156060},{"NoteNumber":84,"Velocity":78,"Duration":535008,"SoundDuration":535008,"Delta":78244349},{"NoteNumber":55,"Velocity":77,"Duration":88550,"SoundDuration":88550,"Delta":78244349},{"NoteNumber":79,"Velocity":72,"Duration":88812,"SoundDuration":88812,"Delta":78332899},{"NoteNumber":60,"Velocity":69,"Duration":88812,"SoundDuration":88812,"Delta":78332899},{"NoteNumber":72,"Velocity":66,"Duration":357645,"SoundDuration":357645,"Delta":78421711},{"NoteNumber":64,"Velocity":80,"Duration":89020,"SoundDuration":89020,"Delta":78421711},{"NoteNumber":82,"Velocity":75,"Duration":89274,"SoundDuration":89274,"Delta":78510732},{"NoteNumber":60,"Velocity":73,"Duration":89274,"SoundDuration":89274,"Delta":78510732},{"NoteNumber":91,"Velocity":69,"Duration":89541,"SoundDuration":89541,"Delta":78600007},{"NoteNumber":70,"Velocity":75,"Duration":89541,"SoundDuration":89541,"Delta":78600007},{"NoteNumber":90,"Velocity":69,"Duration":89809,"SoundDuration":89809,"Delta":78689548},{"NoteNumber":72,"Velocity":67,"Duration":89809,"SoundDuration":89809,"Delta":78689548},{"NoteNumber":84,"Velocity":77,"Duration":90078,"SoundDuration":90078,"Delta":78779357},{"NoteNumber":78,"Velocity":79,"Duration":90078,"SoundDuration":90078,"Delta":78779357},{"NoteNumber":79,"Velocity":64,"Duration":90126,"SoundDuration":90126,"Delta":78869436},{"NoteNumber":72,"Velocity":66,"Duration":90126,"SoundDuration":90126,"Delta":78869436},{"NoteNumber":76,"Velocity":69,"Duration":92879,"SoundDuration":92879,"Delta":78959562},{"NoteNumber":69,"Velocity":73,"Duration":92879,"SoundDuration":92879,"Delta":78959562},{"NoteNumber":78,"Velocity":77,"Duration":360423,"SoundDuration":360423,"Delta":79052441},{"NoteNumber":63,"Velocity":66,"Duration":97561,"SoundDuration":97561,"Delta":79052441},{"NoteNumber":72,"Velocity":72,"Duration":87262,"SoundDuration":87262,"Delta":79150002},{"NoteNumber":66,"Velocity":75,"Duration":351203,"SoundDuration":351203,"Delta":79150002},{"NoteNumber":69,"Velocity":65,"Duration":87619,"SoundDuration":87619,"Delta":79237264},{"NoteNumber":60,"Velocity":67,"Duration":87619,"SoundDuration":87619,"Delta":79237264},{"NoteNumber":63,"Velocity":67,"Duration":87981,"SoundDuration":87981,"Delta":79324884},{"NoteNumber":57,"Velocity":66,"Duration":87981,"SoundDuration":87981,"Delta":79324884},{"NoteNumber":77,"Velocity":74,"Duration":358698,"SoundDuration":358698,"Delta":79412865},{"NoteNumber":51,"Velocity":64,"Duration":88341,"SoundDuration":88341,"Delta":79412865},{"NoteNumber":71,"Velocity":68,"Duration":88709,"SoundDuration":88709,"Delta":79501206},{"NoteNumber":65,"Velocity":74,"Duration":372052,"SoundDuration":372052,"Delta":79501206},{"NoteNumber":68,"Velocity":59,"Duration":89128,"SoundDuration":89128,"Delta":79589916},{"NoteNumber":59,"Velocity":60,"Duration":89128,"SoundDuration":89128,"Delta":79589916},{"NoteNumber":62,"Velocity":67,"Duration":92518,"SoundDuration":92518,"Delta":79679045},{"NoteNumber":56,"Velocity":65,"Duration":92518,"SoundDuration":92518,"Delta":79679045},{"NoteNumber":77,"Velocity":57,"Duration":101695,"SoundDuration":101695,"Delta":79771563},{"NoteNumber":50,"Velocity":59,"Duration":101695,"SoundDuration":101695,"Delta":79771563},{"NoteNumber":36,"Velocity":88,"Duration":97087,"SoundDuration":97087,"Delta":79873258},{"NoteNumber":24,"Velocity":70,"Duration":1069096,"SoundDuration":1069096,"Delta":79873258},{"NoteNumber":100,"Velocity":79,"Duration":91264,"SoundDuration":91264,"Delta":79970346},{"NoteNumber":36,"Velocity":65,"Duration":972009,"SoundDuration":972009,"Delta":79970346},{"NoteNumber":96,"Velocity":75,"Duration":87463,"SoundDuration":87463,"Delta":80061610},{"NoteNumber":43,"Velocity":71,"Duration":87463,"SoundDuration":87463,"Delta":80061610},{"NoteNumber":91,"Velocity":71,"Duration":87506,"SoundDuration":87506,"Delta":80149074},{"NoteNumber":48,"Velocity":65,"Duration":87506,"SoundDuration":87506,"Delta":80149074},{"NoteNumber":84,"Velocity":77,"Duration":87719,"SoundDuration":87719,"Delta":80236580},{"NoteNumber":52,"Velocity":72,"Duration":87719,"SoundDuration":87719,"Delta":80236580},{"NoteNumber":88,"Velocity":70,"Duration":87826,"SoundDuration":87826,"Delta":80324299},{"NoteNumber":48,"Velocity":68,"Duration":87826,"SoundDuration":87826,"Delta":80324299},{"NoteNumber":84,"Velocity":74,"Duration":87976,"SoundDuration":87976,"Delta":80412126},{"NoteNumber":55,"Velocity":74,"Duration":87976,"SoundDuration":87976,"Delta":80412126},{"NoteNumber":79,"Velocity":68,"Duration":88084,"SoundDuration":88084,"Delta":80500102},{"NoteNumber":60,"Velocity":67,"Duration":88084,"SoundDuration":88084,"Delta":80500102},{"NoteNumber":72,"Velocity":62,"Duration":88235,"SoundDuration":88235,"Delta":80588186},{"NoteNumber":64,"Velocity":74,"Duration":88235,"SoundDuration":88235,"Delta":80588186},{"NoteNumber":79,"Velocity":72,"Duration":88408,"SoundDuration":88408,"Delta":80676422},{"NoteNumber":60,"Velocity":66,"Duration":88408,"SoundDuration":88408,"Delta":80676422},{"NoteNumber":84,"Velocity":65,"Duration":88495,"SoundDuration":88495,"Delta":80764830},{"NoteNumber":67,"Velocity":69,"Duration":88495,"SoundDuration":88495,"Delta":80764830},{"NoteNumber":87,"Velocity":65,"Duration":89029,"SoundDuration":89029,"Delta":80853326},{"NoteNumber":72,"Velocity":64,"Duration":89029,"SoundDuration":89029,"Delta":80853326},{"NoteNumber":84,"Velocity":73,"Duration":87048,"SoundDuration":87048,"Delta":80942355},{"NoteNumber":75,"Velocity":74,"Duration":87048,"SoundDuration":87048,"Delta":80942355},{"NoteNumber":78,"Velocity":60,"Duration":86455,"SoundDuration":86455,"Delta":81029404},{"NoteNumber":69,"Velocity":63,"Duration":86455,"SoundDuration":86455,"Delta":81029404},{"NoteNumber":72,"Velocity":65,"Duration":91473,"SoundDuration":91473,"Delta":81115859},{"NoteNumber":66,"Velocity":69,"Duration":91473,"SoundDuration":91473,"Delta":81115859},{"NoteNumber":75,"Velocity":73,"Duration":360587,"SoundDuration":360587,"Delta":81207333},{"NoteNumber":60,"Velocity":62,"Duration":97558,"SoundDuration":97558,"Delta":81207333},{"NoteNumber":69,"Velocity":68,"Duration":87061,"SoundDuration":87061,"Delta":81304892},{"NoteNumber":63,"Velocity":73,"Duration":352003,"SoundDuration":352003,"Delta":81304892},{"NoteNumber":66,"Velocity":61,"Duration":87672,"SoundDuration":87672,"Delta":81391953},{"NoteNumber":57,"Velocity":60,"Duration":87672,"SoundDuration":87672,"Delta":81391953},{"NoteNumber":60,"Velocity":63,"Duration":88294,"SoundDuration":88294,"Delta":81479626},{"NoteNumber":54,"Velocity":66,"Duration":88294,"SoundDuration":88294,"Delta":81479626},{"NoteNumber":74,"Velocity":70,"Duration":366066,"SoundDuration":366066,"Delta":81567920},{"NoteNumber":48,"Velocity":60,"Duration":88975,"SoundDuration":88975,"Delta":81567920},{"NoteNumber":68,"Velocity":63,"Duration":90214,"SoundDuration":90214,"Delta":81656895},{"NoteNumber":62,"Velocity":69,"Duration":380539,"SoundDuration":380539,"Delta":81656895},{"NoteNumber":65,"Velocity":59,"Duration":92044,"SoundDuration":92044,"Delta":81747110},{"NoteNumber":56,"Velocity":69,"Duration":92044,"SoundDuration":92044,"Delta":81747110},{"NoteNumber":59,"Velocity":63,"Duration":94832,"SoundDuration":94832,"Delta":81839155},{"NoteNumber":53,"Velocity":61,"Duration":94832,"SoundDuration":94832,"Delta":81839155},{"NoteNumber":74,"Velocity":58,"Duration":103448,"SoundDuration":103448,"Delta":81933987},{"NoteNumber":47,"Velocity":55,"Duration":103448,"SoundDuration":103448,"Delta":81933987},{"NoteNumber":31,"Velocity":76,"Duration":1055758,"SoundDuration":1055758,"Delta":82037435},{"NoteNumber":43,"Velocity":91,"Duration":277077,"SoundDuration":277077,"Delta":82037435},{"NoteNumber":97,"Velocity":75,"Duration":93457,"SoundDuration":93457,"Delta":82134837},{"NoteNumber":34,"Velocity":68,"Duration":93457,"SoundDuration":93457,"Delta":82134837},{"NoteNumber":91,"Velocity":71,"Duration":86216,"SoundDuration":86216,"Delta":82228295},{"NoteNumber":40,"Velocity":71,"Duration":86216,"SoundDuration":86216,"Delta":82228295},{"NoteNumber":88,"Velocity":67,"Duration":85816,"SoundDuration":85816,"Delta":82314512},{"NoteNumber":43,"Velocity":67,"Duration":778681,"SoundDuration":778681,"Delta":82314512},{"NoteNumber":82,"Velocity":74,"Duration":85960,"SoundDuration":85960,"Delta":82400329},{"NoteNumber":49,"Velocity":76,"Duration":85960,"SoundDuration":85960,"Delta":82400329},{"NoteNumber":85,"Velocity":66,"Duration":86186,"SoundDuration":86186,"Delta":82486289},{"NoteNumber":46,"Velocity":68,"Duration":86186,"SoundDuration":86186,"Delta":82486289},{"NoteNumber":79,"Velocity":71,"Duration":86372,"SoundDuration":86372,"Delta":82572475},{"NoteNumber":52,"Velocity":71,"Duration":86372,"SoundDuration":86372,"Delta":82572475},{"NoteNumber":76,"Velocity":63,"Duration":86496,"SoundDuration":86496,"Delta":82658848},{"NoteNumber":55,"Velocity":69,"Duration":86496,"SoundDuration":86496,"Delta":82658848},{"NoteNumber":70,"Velocity":59,"Duration":86705,"SoundDuration":86705,"Delta":82745345},{"NoteNumber":61,"Velocity":75,"Duration":86705,"SoundDuration":86705,"Delta":82745345},{"NoteNumber":76,"Velocity":68,"Duration":86872,"SoundDuration":86872,"Delta":82832050},{"NoteNumber":58,"Velocity":66,"Duration":86872,"SoundDuration":86872,"Delta":82832050},{"NoteNumber":79,"Velocity":62,"Duration":87061,"SoundDuration":87061,"Delta":82918923},{"NoteNumber":64,"Velocity":67,"Duration":87061,"SoundDuration":87061,"Delta":82918923},{"NoteNumber":85,"Velocity":62,"Duration":87209,"SoundDuration":87209,"Delta":83005984},{"NoteNumber":67,"Velocity":61,"Duration":87209,"SoundDuration":87209,"Delta":83005984},{"NoteNumber":78,"Velocity":69,"Duration":87442,"SoundDuration":87442,"Delta":83093194},{"NoteNumber":73,"Velocity":72,"Duration":87442,"SoundDuration":87442,"Delta":83093194},{"NoteNumber":75,"Velocity":57,"Duration":87284,"SoundDuration":87284,"Delta":83180636},{"NoteNumber":66,"Velocity":60,"Duration":87284,"SoundDuration":87284,"Delta":83180636},{"NoteNumber":69,"Velocity":62,"Duration":88145,"SoundDuration":88145,"Delta":83267920},{"NoteNumber":63,"Velocity":65,"Duration":88145,"SoundDuration":88145,"Delta":83267920},{"NoteNumber":73,"Velocity":70,"Duration":354547,"SoundDuration":354547,"Delta":83356066},{"NoteNumber":57,"Velocity":59,"Duration":97139,"SoundDuration":97139,"Delta":83356066},{"NoteNumber":66,"Velocity":61,"Duration":85346,"SoundDuration":85346,"Delta":83453206},{"NoteNumber":61,"Velocity":69,"Duration":344159,"SoundDuration":344159,"Delta":83453206},{"NoteNumber":63,"Velocity":54,"Duration":85808,"SoundDuration":85808,"Delta":83538552},{"NoteNumber":54,"Velocity":59,"Duration":85808,"SoundDuration":85808,"Delta":83538552},{"NoteNumber":57,"Velocity":54,"Duration":86252,"SoundDuration":86252,"Delta":83624361},{"NoteNumber":51,"Velocity":65,"Duration":86252,"SoundDuration":86252,"Delta":83624361},{"NoteNumber":72,"Velocity":65,"Duration":356292,"SoundDuration":356292,"Delta":83710613},{"NoteNumber":45,"Velocity":60,"Duration":86751,"SoundDuration":86751,"Delta":83710613},{"NoteNumber":66,"Velocity":60,"Duration":87205,"SoundDuration":87205,"Delta":83797365},{"NoteNumber":60,"Velocity":68,"Duration":377454,"SoundDuration":377454,"Delta":83797365},{"NoteNumber":63,"Velocity":53,"Duration":88099,"SoundDuration":88099,"Delta":83884570},{"NoteNumber":54,"Velocity":59,"Duration":88099,"SoundDuration":88099,"Delta":83884570},{"NoteNumber":57,"Velocity":57,"Duration":94236,"SoundDuration":94236,"Delta":83972670},{"NoteNumber":51,"Velocity":63,"Duration":94236,"SoundDuration":94236,"Delta":83972670},{"NoteNumber":72,"Velocity":52,"Duration":107913,"SoundDuration":107913,"Delta":84066906},{"NoteNumber":45,"Velocity":57,"Duration":107913,"SoundDuration":107913,"Delta":84066906},{"NoteNumber":31,"Velocity":72,"Duration":1039947,"SoundDuration":1039947,"Delta":84174820},{"NoteNumber":43,"Velocity":85,"Duration":1039947,"SoundDuration":1039947,"Delta":84174820},{"NoteNumber":96,"Velocity":71,"Duration":88288,"SoundDuration":88288,"Delta":84272859},{"NoteNumber":32,"Velocity":64,"Duration":88288,"SoundDuration":88288,"Delta":84272859},{"NoteNumber":89,"Velocity":68,"Duration":84507,"SoundDuration":84507,"Delta":84361147},{"NoteNumber":38,"Velocity":68,"Duration":84507,"SoundDuration":84507,"Delta":84361147},{"NoteNumber":86,"Velocity":66,"Duration":84725,"SoundDuration":84725,"Delta":84445654},{"NoteNumber":41,"Velocity":66,"Duration":84725,"SoundDuration":84725,"Delta":84445654},{"NoteNumber":80,"Velocity":73,"Duration":84905,"SoundDuration":84905,"Delta":84530380},{"NoteNumber":48,"Velocity":74,"Duration":84905,"SoundDuration":84905,"Delta":84530380},{"NoteNumber":84,"Velocity":66,"Duration":85086,"SoundDuration":85086,"Delta":84615286},{"NoteNumber":44,"Velocity":68,"Duration":85086,"SoundDuration":85086,"Delta":84615286},{"NoteNumber":77,"Velocity":72,"Duration":85267,"SoundDuration":85267,"Delta":84700372},{"NoteNumber":50,"Velocity":72,"Duration":85267,"SoundDuration":85267,"Delta":84700372},{"NoteNumber":74,"Velocity":65,"Duration":85470,"SoundDuration":85470,"Delta":84785640},{"NoteNumber":53,"Velocity":69,"Duration":85470,"SoundDuration":85470,"Delta":84785640},{"NoteNumber":68,"Velocity":62,"Duration":85632,"SoundDuration":85632,"Delta":84871110},{"NoteNumber":60,"Velocity":79,"Duration":85632,"SoundDuration":85632,"Delta":84871110},{"NoteNumber":74,"Velocity":72,"Duration":85816,"SoundDuration":85816,"Delta":84956743},{"NoteNumber":56,"Velocity":69,"Duration":85816,"SoundDuration":85816,"Delta":84956743},{"NoteNumber":77,"Velocity":67,"Duration":86001,"SoundDuration":86001,"Delta":85042559},{"NoteNumber":62,"Velocity":73,"Duration":86001,"SoundDuration":86001,"Delta":85042559},{"NoteNumber":84,"Velocity":68,"Duration":86207,"SoundDuration":86207,"Delta":85128560},{"NoteNumber":65,"Velocity":66,"Duration":86207,"SoundDuration":86207,"Delta":85128560},{"NoteNumber":77,"Velocity":77,"Duration":86434,"SoundDuration":86434,"Delta":85214767},{"NoteNumber":72,"Velocity":81,"Duration":86434,"SoundDuration":86434,"Delta":85214767},{"NoteNumber":74,"Velocity":63,"Duration":86681,"SoundDuration":86681,"Delta":85301202},{"NoteNumber":65,"Velocity":67,"Duration":86681,"SoundDuration":86681,"Delta":85301202},{"NoteNumber":68,"Velocity":70,"Duration":89730,"SoundDuration":89730,"Delta":85387883},{"NoteNumber":62,"Velocity":74,"Duration":89730,"SoundDuration":89730,"Delta":85387883},{"NoteNumber":72,"Velocity":78,"Duration":362405,"SoundDuration":362405,"Delta":85477614},{"NoteNumber":56,"Velocity":68,"Duration":97576,"SoundDuration":97576,"Delta":85477614},{"NoteNumber":65,"Velocity":74,"Duration":87690,"SoundDuration":87690,"Delta":85575190},{"NoteNumber":60,"Velocity":82,"Duration":355434,"SoundDuration":355434,"Delta":85575190},{"NoteNumber":62,"Velocity":69,"Duration":88020,"SoundDuration":88020,"Delta":85662880},{"NoteNumber":53,"Velocity":68,"Duration":88020,"SoundDuration":88020,"Delta":85662880},{"NoteNumber":56,"Velocity":72,"Duration":89119,"SoundDuration":89119,"Delta":85750901},{"NoteNumber":50,"Velocity":75,"Duration":89119,"SoundDuration":89119,"Delta":85750901},{"NoteNumber":71,"Velocity":84,"Duration":377897,"SoundDuration":377897,"Delta":85840020},{"NoteNumber":44,"Velocity":69,"Duration":90605,"SoundDuration":90605,"Delta":85840020},{"NoteNumber":65,"Velocity":77,"Duration":93624,"SoundDuration":93624,"Delta":85930625},{"NoteNumber":59,"Velocity":82,"Duration":410749,"SoundDuration":410749,"Delta":85930625},{"NoteNumber":62,"Velocity":80,"Duration":96610,"SoundDuration":96610,"Delta":86024250},{"NoteNumber":53,"Velocity":65,"Duration":96610,"SoundDuration":96610,"Delta":86024250},{"NoteNumber":55,"Velocity":84,"Duration":97057,"SoundDuration":97057,"Delta":86120860},{"NoteNumber":50,"Velocity":79,"Duration":97057,"SoundDuration":97057,"Delta":86120860},{"NoteNumber":71,"Velocity":87,"Duration":123456,"SoundDuration":123456,"Delta":86217918},{"NoteNumber":43,"Velocity":84,"Duration":123456,"SoundDuration":123456,"Delta":86217918},{"NoteNumber":36,"Velocity":98,"Duration":1065324,"SoundDuration":1065324,"Delta":86341374},{"NoteNumber":24,"Velocity":83,"Duration":1065324,"SoundDuration":1065324,"Delta":86341374},{"NoteNumber":96,"Velocity":85,"Duration":95541,"SoundDuration":95541,"Delta":86442726},{"NoteNumber":31,"Velocity":77,"Duration":95541,"SoundDuration":95541,"Delta":86442726},{"NoteNumber":91,"Velocity":82,"Duration":87927,"SoundDuration":87927,"Delta":86538267},{"NoteNumber":40,"Velocity":82,"Duration":87927,"SoundDuration":87927,"Delta":86538267},{"NoteNumber":88,"Velocity":77,"Duration":87213,"SoundDuration":87213,"Delta":86626194},{"NoteNumber":43,"Velocity":77,"Duration":87213,"SoundDuration":87213,"Delta":86626194},{"NoteNumber":79,"Velocity":83,"Duration":86883,"SoundDuration":86883,"Delta":86713408},{"NoteNumber":48,"Velocity":83,"Duration":86883,"SoundDuration":86883,"Delta":86713408},{"NoteNumber":84,"Velocity":76,"Duration":86582,"SoundDuration":86582,"Delta":86800291},{"NoteNumber":43,"Velocity":77,"Duration":86582,"SoundDuration":86582,"Delta":86800291},{"NoteNumber":79,"Velocity":81,"Duration":86283,"SoundDuration":86283,"Delta":86886873},{"NoteNumber":52,"Velocity":82,"Duration":86283,"SoundDuration":86283,"Delta":86886873},{"NoteNumber":76,"Velocity":74,"Duration":85964,"SoundDuration":85964,"Delta":86973157},{"NoteNumber":55,"Velocity":78,"Duration":85964,"SoundDuration":85964,"Delta":86973157},{"NoteNumber":67,"Velocity":68,"Duration":85956,"SoundDuration":85956,"Delta":87059121},{"NoteNumber":60,"Velocity":88,"Duration":85956,"SoundDuration":85956,"Delta":87059121},{"NoteNumber":76,"Velocity":78,"Duration":86574,"SoundDuration":86574,"Delta":87145078},{"NoteNumber":55,"Velocity":76,"Duration":86574,"SoundDuration":86574,"Delta":87145078},{"NoteNumber":79,"Velocity":73,"Duration":87205,"SoundDuration":87205,"Delta":87231652},{"NoteNumber":64,"Velocity":78,"Duration":87205,"SoundDuration":87205,"Delta":87231652},{"NoteNumber":84,"Velocity":73,"Duration":87841,"SoundDuration":87841,"Delta":87318857},{"NoteNumber":67,"Velocity":71,"Duration":87841,"SoundDuration":87841,"Delta":87318857},{"NoteNumber":79,"Velocity":81,"Duration":88491,"SoundDuration":88491,"Delta":87406699},{"NoteNumber":72,"Velocity":85,"Duration":88491,"SoundDuration":88491,"Delta":87406699},{"NoteNumber":76,"Velocity":66,"Duration":89146,"SoundDuration":89146,"Delta":87495191},{"NoteNumber":67,"Velocity":69,"Duration":89146,"SoundDuration":89146,"Delta":87495191},{"NoteNumber":67,"Velocity":73,"Duration":89967,"SoundDuration":89967,"Delta":87584338},{"NoteNumber":64,"Velocity":76,"Duration":89967,"SoundDuration":89967,"Delta":87584338},{"NoteNumber":72,"Velocity":81,"Duration":97585,"SoundDuration":97585,"Delta":87674305},{"NoteNumber":55,"Velocity":69,"Duration":97585,"SoundDuration":97585,"Delta":87674305},{"NoteNumber":67,"Velocity":76,"Duration":90681,"SoundDuration":90681,"Delta":87771890},{"NoteNumber":60,"Velocity":84,"Duration":90681,"SoundDuration":90681,"Delta":87771890},{"NoteNumber":64,"Velocity":69,"Duration":91734,"SoundDuration":91734,"Delta":87862572},{"NoteNumber":55,"Velocity":68,"Duration":91734,"SoundDuration":91734,"Delta":87862572},{"NoteNumber":55,"Velocity":72,"Duration":92813,"SoundDuration":92813,"Delta":87954306},{"NoteNumber":52,"Velocity":75,"Duration":92813,"SoundDuration":92813,"Delta":87954306},{"NoteNumber":60,"Velocity":83,"Duration":94592,"SoundDuration":94592,"Delta":88047120},{"NoteNumber":43,"Velocity":68,"Duration":94592,"SoundDuration":94592,"Delta":88047120},{"NoteNumber":55,"Velocity":73,"Duration":98913,"SoundDuration":98913,"Delta":88141712},{"NoteNumber":48,"Velocity":81,"Duration":98913,"SoundDuration":98913,"Delta":88141712},{"NoteNumber":52,"Velocity":66,"Duration":103773,"SoundDuration":103773,"Delta":88240626},{"NoteNumber":43,"Velocity":63,"Duration":103773,"SoundDuration":103773,"Delta":88240626},{"NoteNumber":43,"Velocity":72,"Duration":108740,"SoundDuration":108740,"Delta":88344399},{"NoteNumber":40,"Velocity":69,"Duration":108740,"SoundDuration":108740,"Delta":88344399},{"NoteNumber":48,"Velocity":66,"Duration":123456,"SoundDuration":123456,"Delta":88453140},{"NoteNumber":31,"Velocity":63,"Duration":123456,"SoundDuration":123456,"Delta":88453140},{"NoteNumber":36,"Velocity":96,"Duration":1481481,"SoundDuration":1481481,"Delta":88576596},{"NoteNumber":24,"Velocity":82,"Duration":1481481,"SoundDuration":1481481,"Delta":88576596}],"license":{"name":"Creative Commons Attribution-ShareAlike 3.0 Germany","url":"http://creativecommons.org/licenses/by-sa/3.0/de/deed.en","text":"The MIDI, audio (MP3, OGG) and video files of Bernd Krueger are licensed under the cc-by-sa Germany License. This means that you can use and adapt the files, as long as you attribute the copyright holder.\n\nName: Bernd Krueger\nSource: http://www.piano-midi.de\n\nThe distribution or public playback of the files is only allowed under identical license conditions.\n\nThe scores are open source.","attribution":"MIDI files by Bernd Krueger (piano-midi.de)","attributionUrl":"http://www.piano-midi.de"}}