{"title":"Brahms: Intermezzo Opus 117 Nr. 2","artist":"Brahms","durationMs":223049,"midiSha256":"c2b156c6285b62729422b7f0c48962d2533af08344c442d4b8b08fe0bf69393d","midiObject":[{"NoteNumber":73,"Velocity":38,"Duration":225496,"SoundDuration":225496,"Delta":0},{"NoteNumber":72,"Velocity":42,"Duration":200642,"SoundDuration":200642,"Delta":225496},{"NoteNumber":39,"Velocity":25,"Duration":200642,"SoundDuration":200642,"Delta":225496},{"NoteNumber":66,"Velocity":27,"Duration":200642,"SoundDuration":200642,"Delta":426138},{"NoteNumber":60,"Velocity":26,"Duration":208913,"SoundDuration":208913,"Delta":626780},{"NoteNumber":72,"Velocity":34,"Duration":208913,"SoundDuration":208913,"Delta":835694},{"NoteNumber":70,"Velocity":41,"Duration":802568,"SoundDuration":802568,"Delta":1044607},{"NoteNumber":37,"Velocity":29,"Duration":401284,"SoundDuration":401284,"Delta":1044607},{"NoteNumber":65,"Velocity":27,"Duration":200641,"SoundDuration":200641,"Delta":1245249},{"NoteNumber":58,"Velocity":27,"Duration":200642,"SoundDuration":200642,"Delta":1445891},{"NoteNumber":52,"Velocity":28,"Duration":234082,"SoundDuration":234082,"Delta":1646533},{"NoteNumber":53,"Velocity":31,"Duration":200642,"SoundDuration":200642,"Delta":1847175},{"NoteNumber":58,"Velocity":20,"Duration":200642,"SoundDuration":200642,"Delta":2047817},{"NoteNumber":65,"Velocity":19,"Duration":200641,"SoundDuration":200641,"Delta":2248459},{"NoteNumber":70,"Velocity":38,"Duration":292376,"SoundDuration":292376,"Delta":2449101},{"NoteNumber":72,"Velocity":42,"Duration":200642,"SoundDuration":200642,"Delta":2674597},{"NoteNumber":39,"Velocity":25,"Duration":200642,"SoundDuration":200642,"Delta":2674597},{"NoteNumber":66,"Velocity":27,"Duration":200642,"SoundDuration":200642,"Delta":2875239},{"NoteNumber":60,"Velocity":26,"Duration":219426,"SoundDuration":219426,"Delta":3075881},{"NoteNumber":72,"Velocity":43,"Duration":219426,"SoundDuration":219426,"Delta":3295308},{"NoteNumber":77,"Velocity":47,"Duration":802568,"SoundDuration":802568,"Delta":3514735},{"NoteNumber":37,"Velocity":29,"Duration":401284,"SoundDuration":401284,"Delta":3514735},{"NoteNumber":70,"Velocity":27,"Duration":200642,"SoundDuration":200642,"Delta":3715377},{"NoteNumber":65,"Velocity":27,"Duration":200641,"SoundDuration":200641,"Delta":3916019},{"NoteNumber":57,"Velocity":28,"Duration":234082,"SoundDuration":234082,"Delta":4116661},{"NoteNumber":58,"Velocity":31,"Duration":200642,"SoundDuration":200642,"Delta":4317303},{"NoteNumber":65,"Velocity":20,"Duration":200642,"SoundDuration":200642,"Delta":4517945},{"NoteNumber":70,"Velocity":19,"Duration":200641,"SoundDuration":200641,"Delta":4718587},{"NoteNumber":77,"Velocity":43,"Duration":211864,"SoundDuration":211864,"Delta":4919229},{"NoteNumber":80,"Velocity":56,"Duration":200642,"SoundDuration":200642,"Delta":5131093},{"NoteNumber":34,"Velocity":25,"Duration":401284,"SoundDuration":401284,"Delta":5131093},{"NoteNumber":73,"Velocity":27,"Duration":200642,"SoundDuration":200642,"Delta":5331735},{"NoteNumber":68,"Velocity":34,"Duration":206044,"SoundDuration":206044,"Delta":5532377},{"NoteNumber":80,"Velocity":39,"Duration":206043,"SoundDuration":206043,"Delta":5738421},{"NoteNumber":78,"Velocity":49,"Duration":200642,"SoundDuration":200642,"Delta":5944465},{"NoteNumber":39,"Velocity":29,"Duration":401284,"SoundDuration":401284,"Delta":5944465},{"NoteNumber":73,"Velocity":27,"Duration":200642,"SoundDuration":200642,"Delta":6145107},{"NoteNumber":66,"Velocity":27,"Duration":200641,"SoundDuration":200641,"Delta":6345749},{"NoteNumber":57,"Velocity":26,"Duration":234082,"SoundDuration":234082,"Delta":6546391},{"NoteNumber":58,"Velocity":31,"Duration":200641,"SoundDuration":200641,"Delta":6747033},{"NoteNumber":61,"Velocity":20,"Duration":200642,"SoundDuration":200642,"Delta":6947675},{"NoteNumber":70,"Velocity":19,"Duration":200642,"SoundDuration":200642,"Delta":7148317},{"NoteNumber":73,"Velocity":38,"Duration":294064,"SoundDuration":294064,"Delta":7348959},{"NoteNumber":78,"Velocity":42,"Duration":205704,"SoundDuration":205704,"Delta":7574455},{"NoteNumber":32,"Velocity":25,"Duration":411409,"SoundDuration":411409,"Delta":7574455},{"NoteNumber":72,"Velocity":27,"Duration":205704,"SoundDuration":205704,"Delta":7780160},{"NoteNumber":66,"Velocity":26,"Duration":200534,"SoundDuration":200534,"Delta":7985865},{"NoteNumber":78,"Velocity":34,"Duration":200534,"SoundDuration":200534,"Delta":8186400},{"NoteNumber":77,"Velocity":41,"Duration":200642,"SoundDuration":200642,"Delta":8386934},{"NoteNumber":37,"Velocity":29,"Duration":401284,"SoundDuration":401284,"Delta":8386934},{"NoteNumber":72,"Velocity":27,"Duration":200642,"SoundDuration":200642,"Delta":8587576},{"NoteNumber":65,"Velocity":25,"Duration":200642,"SoundDuration":200642,"Delta":8788218},{"NoteNumber":55,"Velocity":22,"Duration":234082,"SoundDuration":234082,"Delta":8988860},{"NoteNumber":56,"Velocity":27,"Duration":200642,"SoundDuration":200642,"Delta":9189502},{"NoteNumber":60,"Velocity":18,"Duration":200641,"SoundDuration":200641,"Delta":9390144},{"NoteNumber":68,"Velocity":17,"Duration":200642,"SoundDuration":200642,"Delta":9590786},{"NoteNumber":72,"Velocity":34,"Duration":219426,"SoundDuration":219426,"Delta":9791428},{"NoteNumber":77,"Velocity":41,"Duration":200642,"SoundDuration":200642,"Delta":10010855},{"NoteNumber":30,"Velocity":29,"Duration":401284,"SoundDuration":401284,"Delta":10010855},{"NoteNumber":70,"Velocity":27,"Duration":200642,"SoundDuration":200642,"Delta":10211497},{"NoteNumber":65,"Velocity":27,"Duration":200642,"SoundDuration":200642,"Delta":10412139},{"NoteNumber":77,"Velocity":34,"Duration":219426,"SoundDuration":219426,"Delta":10612781},{"NoteNumber":75,"Velocity":41,"Duration":200642,"SoundDuration":200642,"Delta":10832208},{"NoteNumber":36,"Velocity":29,"Duration":401284,"SoundDuration":401284,"Delta":10832208},{"NoteNumber":70,"Velocity":27,"Duration":200642,"SoundDuration":200642,"Delta":11032850},{"NoteNumber":63,"Velocity":27,"Duration":200642,"SoundDuration":200642,"Delta":11233492},{"NoteNumber":73,"Velocity":34,"Duration":219426,"SoundDuration":219426,"Delta":11434134},{"NoteNumber":72,"Velocity":41,"Duration":200642,"SoundDuration":200642,"Delta":11653560},{"NoteNumber":39,"Velocity":29,"Duration":401284,"SoundDuration":401284,"Delta":11653560},{"NoteNumber":66,"Velocity":27,"Duration":200642,"SoundDuration":200642,"Delta":11854202},{"NoteNumber":60,"Velocity":27,"Duration":200642,"SoundDuration":200642,"Delta":12054844},{"NoteNumber":53,"Velocity":26,"Duration":234082,"SoundDuration":234082,"Delta":12255486},{"NoteNumber":54,"Velocity":31,"Duration":200642,"SoundDuration":200642,"Delta":12456128},{"NoteNumber":58,"Velocity":20,"Duration":200642,"SoundDuration":200642,"Delta":12656770},{"NoteNumber":66,"Velocity":19,"Duration":200642,"SoundDuration":200642,"Delta":12857412},{"NoteNumber":77,"Velocity":38,"Duration":307974,"SoundDuration":307974,"Delta":13058054},{"NoteNumber":75,"Velocity":42,"Duration":208275,"SoundDuration":208275,"Delta":13296604},{"NoteNumber":29,"Velocity":25,"Duration":413980,"SoundDuration":413980,"Delta":13296604},{"NoteNumber":69,"Velocity":27,"Duration":205704,"SoundDuration":205704,"Delta":13504879},{"NoteNumber":63,"Velocity":26,"Duration":206044,"SoundDuration":206044,"Delta":13710584},{"NoteNumber":73,"Velocity":34,"Duration":206044,"SoundDuration":206044,"Delta":13916628},{"NoteNumber":72,"Velocity":41,"Duration":203141,"SoundDuration":203141,"Delta":14122672},{"NoteNumber":41,"Velocity":29,"Duration":403783,"SoundDuration":403783,"Delta":14122672},{"NoteNumber":69,"Velocity":27,"Duration":200642,"SoundDuration":200642,"Delta":14325814},{"NoteNumber":63,"Velocity":27,"Duration":200642,"SoundDuration":200642,"Delta":14526456},{"NoteNumber":52,"Velocity":28,"Duration":234082,"SoundDuration":234082,"Delta":14727098},{"NoteNumber":53,"Velocity":31,"Duration":200641,"SoundDuration":200641,"Delta":14927740},{"NoteNumber":57,"Velocity":20,"Duration":200642,"SoundDuration":200642,"Delta":15128382},{"NoteNumber":65,"Velocity":19,"Duration":200641,"SoundDuration":200641,"Delta":15329024},{"NoteNumber":78,"Velocity":38,"Duration":293246,"SoundDuration":293246,"Delta":15529666},{"NoteNumber":77,"Velocity":42,"Duration":802282,"SoundDuration":802282,"Delta":15755162},{"NoteNumber":72,"Velocity":27,"Duration":203252,"SoundDuration":203252,"Delta":15958414},{"NoteNumber":69,"Velocity":26,"Duration":197889,"SoundDuration":197889,"Delta":16161666},{"NoteNumber":65,"Velocity":24,"Duration":197889,"SoundDuration":197889,"Delta":16359555},{"NoteNumber":76,"Velocity":42,"Duration":774425,"SoundDuration":774425,"Delta":16557445},{"NoteNumber":72,"Velocity":27,"Duration":194855,"SoundDuration":194855,"Delta":16752300},{"NoteNumber":69,"Velocity":26,"Duration":192357,"SoundDuration":192357,"Delta":16947156},{"NoteNumber":65,"Velocity":24,"Duration":192356,"SoundDuration":192356,"Delta":17139513},{"NoteNumber":75,"Velocity":42,"Duration":781728,"SoundDuration":781728,"Delta":17331870},{"NoteNumber":72,"Velocity":27,"Duration":190355,"SoundDuration":190355,"Delta":17522225},{"NoteNumber":69,"Velocity":26,"Duration":205704,"SoundDuration":205704,"Delta":17712581},{"NoteNumber":65,"Velocity":24,"Duration":195312,"SoundDuration":195312,"Delta":17918286},{"NoteNumber":73,"Velocity":41,"Duration":3665882,"SoundDuration":3665882,"Delta":18113598},{"NoteNumber":69,"Velocity":33,"Duration":3470570,"SoundDuration":3470570,"Delta":18308911},{"NoteNumber":66,"Velocity":28,"Duration":3275257,"SoundDuration":3275257,"Delta":18504223},{"NoteNumber":61,"Velocity":22,"Duration":190355,"SoundDuration":190355,"Delta":18694579},{"NoteNumber":57,"Velocity":24,"Duration":190844,"SoundDuration":190844,"Delta":18884934},{"NoteNumber":54,"Velocity":24,"Duration":192801,"SoundDuration":192801,"Delta":19075779},{"NoteNumber":49,"Velocity":24,"Duration":192802,"SoundDuration":192802,"Delta":19268581},{"NoteNumber":45,"Velocity":22,"Duration":194810,"SoundDuration":194810,"Delta":19461383},{"NoteNumber":42,"Velocity":22,"Duration":195312,"SoundDuration":195312,"Delta":19656193},{"NoteNumber":37,"Velocity":22,"Duration":195827,"SoundDuration":195827,"Delta":19851505},{"NoteNumber":33,"Velocity":22,"Duration":197889,"SoundDuration":197889,"Delta":20047333},{"NoteNumber":30,"Velocity":22,"Duration":197889,"SoundDuration":197889,"Delta":20245222},{"NoteNumber":27,"Velocity":22,"Duration":200005,"SoundDuration":200005,"Delta":20443112},{"NoteNumber":39,"Velocity":21,"Duration":200534,"SoundDuration":200534,"Delta":20643117},{"NoteNumber":42,"Velocity":22,"Duration":200534,"SoundDuration":200534,"Delta":20843652},{"NoteNumber":45,"Velocity":23,"Duration":200534,"SoundDuration":200534,"Delta":21044187},{"NoteNumber":51,"Velocity":24,"Duration":200534,"SoundDuration":200534,"Delta":21244721},{"NoteNumber":54,"Velocity":26,"Duration":200534,"SoundDuration":200534,"Delta":21445256},{"NoteNumber":57,"Velocity":27,"Duration":200534,"SoundDuration":200534,"Delta":21645791},{"NoteNumber":73,"Velocity":38,"Duration":292376,"SoundDuration":292376,"Delta":21846326},{"NoteNumber":72,"Velocity":42,"Duration":200641,"SoundDuration":200641,"Delta":22071822},{"NoteNumber":39,"Velocity":25,"Duration":401284,"SoundDuration":401284,"Delta":22071822},{"NoteNumber":66,"Velocity":27,"Duration":200642,"SoundDuration":200642,"Delta":22272464},{"NoteNumber":60,"Velocity":26,"Duration":208913,"SoundDuration":208913,"Delta":22473106},{"NoteNumber":72,"Velocity":34,"Duration":208913,"SoundDuration":208913,"Delta":22682019},{"NoteNumber":70,"Velocity":41,"Duration":802568,"SoundDuration":802568,"Delta":22890933},{"NoteNumber":37,"Velocity":29,"Duration":401284,"SoundDuration":401284,"Delta":22890933},{"NoteNumber":65,"Velocity":27,"Duration":200642,"SoundDuration":200642,"Delta":23091575},{"NoteNumber":58,"Velocity":27,"Duration":200641,"SoundDuration":200641,"Delta":23292217},{"NoteNumber":52,"Velocity":28,"Duration":234082,"SoundDuration":234082,"Delta":23492859},{"NoteNumber":53,"Velocity":31,"Duration":200641,"SoundDuration":200641,"Delta":23693501},{"NoteNumber":58,"Velocity":20,"Duration":200642,"SoundDuration":200642,"Delta":23894143},{"NoteNumber":65,"Velocity":19,"Duration":200641,"SoundDuration":200641,"Delta":24094785},{"NoteNumber":70,"Velocity":38,"Duration":239484,"SoundDuration":239484,"Delta":24295427},{"NoteNumber":72,"Velocity":42,"Duration":200641,"SoundDuration":200641,"Delta":24501471},{"NoteNumber":39,"Velocity":25,"Duration":401284,"SoundDuration":401284,"Delta":24501471},{"NoteNumber":66,"Velocity":27,"Duration":200642,"SoundDuration":200642,"Delta":24702113},{"NoteNumber":60,"Velocity":26,"Duration":200534,"SoundDuration":200534,"Delta":24902755},{"NoteNumber":72,"Velocity":34,"Duration":200534,"SoundDuration":200534,"Delta":25103290},{"NoteNumber":77,"Velocity":46,"Duration":802568,"SoundDuration":802568,"Delta":25303825},{"NoteNumber":37,"Velocity":29,"Duration":401284,"SoundDuration":401284,"Delta":25303825},{"NoteNumber":72,"Velocity":27,"Duration":601926,"SoundDuration":601926,"Delta":25504467},{"NoteNumber":65,"Velocity":27,"Duration":200641,"SoundDuration":200641,"Delta":25705109},{"NoteNumber":57,"Velocity":28,"Duration":234082,"SoundDuration":234082,"Delta":25905751},{"NoteNumber":58,"Velocity":31,"Duration":200641,"SoundDuration":200641,"Delta":26106393},{"NoteNumber":65,"Velocity":20,"Duration":200642,"SoundDuration":200642,"Delta":26307035},{"NoteNumber":70,"Velocity":19,"Duration":200641,"SoundDuration":200641,"Delta":26507677},{"NoteNumber":77,"Velocity":46,"Duration":258048,"SoundDuration":258048,"Delta":26708319},{"NoteNumber":82,"Velocity":54,"Duration":195312,"SoundDuration":195312,"Delta":26933815},{"NoteNumber":36,"Velocity":30,"Duration":390625,"SoundDuration":390625,"Delta":26933815},{"NoteNumber":76,"Velocity":33,"Duration":195312,"SoundDuration":195312,"Delta":27129127},{"NoteNumber":70,"Velocity":41,"Duration":200534,"SoundDuration":200534,"Delta":27324440},{"NoteNumber":82,"Velocity":49,"Duration":208275,"SoundDuration":208275,"Delta":27524974},{"NoteNumber":81,"Velocity":60,"Duration":200641,"SoundDuration":200641,"Delta":27733250},{"NoteNumber":41,"Velocity":35,"Duration":401284,"SoundDuration":401284,"Delta":27733250},{"NoteNumber":75,"Velocity":32,"Duration":200642,"SoundDuration":200642,"Delta":27933892},{"NoteNumber":69,"Velocity":32,"Duration":200641,"SoundDuration":200641,"Delta":28134534},{"NoteNumber":59,"Velocity":38,"Duration":234082,"SoundDuration":234082,"Delta":28335176},{"NoteNumber":60,"Velocity":42,"Duration":200641,"SoundDuration":200641,"Delta":28535818},{"NoteNumber":63,"Velocity":38,"Duration":200642,"SoundDuration":200642,"Delta":28736460},{"NoteNumber":72,"Velocity":23,"Duration":200641,"SoundDuration":200641,"Delta":28937102},{"NoteNumber":77,"Velocity":45,"Duration":225496,"SoundDuration":225496,"Delta":29137744},{"NoteNumber":80,"Velocity":52,"Duration":205704,"SoundDuration":205704,"Delta":29363240},{"NoteNumber":34,"Velocity":30,"Duration":411409,"SoundDuration":411409,"Delta":29363240},{"NoteNumber":74,"Velocity":33,"Duration":205704,"SoundDuration":205704,"Delta":29568945},{"NoteNumber":68,"Velocity":32,"Duration":211864,"SoundDuration":211864,"Delta":29774650},{"NoteNumber":80,"Velocity":43,"Duration":211864,"SoundDuration":211864,"Delta":29986514},{"NoteNumber":79,"Velocity":51,"Duration":200641,"SoundDuration":200641,"Delta":30198379},{"NoteNumber":39,"Velocity":35,"Duration":401284,"SoundDuration":401284,"Delta":30198379},{"NoteNumber":73,"Velocity":32,"Duration":200642,"SoundDuration":200642,"Delta":30399021},{"NoteNumber":67,"Velocity":32,"Duration":200642,"SoundDuration":200642,"Delta":30599663},{"NoteNumber":57,"Velocity":31,"Duration":234082,"SoundDuration":234082,"Delta":30800305},{"NoteNumber":58,"Velocity":37,"Duration":200642,"SoundDuration":200642,"Delta":31000947},{"NoteNumber":61,"Velocity":21,"Duration":200642,"SoundDuration":200642,"Delta":31201589},{"NoteNumber":70,"Velocity":20,"Duration":200642,"SoundDuration":200642,"Delta":31402231},{"NoteNumber":75,"Velocity":41,"Duration":206043,"SoundDuration":206043,"Delta":31602873},{"NoteNumber":78,"Velocity":49,"Duration":200642,"SoundDuration":200642,"Delta":31808917},{"NoteNumber":32,"Velocity":35,"Duration":401283,"SoundDuration":401283,"Delta":31808917},{"NoteNumber":72,"Velocity":32,"Duration":200641,"SoundDuration":200641,"Delta":32009559},{"NoteNumber":66,"Velocity":32,"Duration":200642,"SoundDuration":200642,"Delta":32210201},{"NoteNumber":78,"Velocity":41,"Duration":219426,"SoundDuration":219426,"Delta":32410843},{"NoteNumber":77,"Velocity":49,"Duration":200642,"SoundDuration":200642,"Delta":32630269},{"NoteNumber":37,"Velocity":35,"Duration":401283,"SoundDuration":401283,"Delta":32630269},{"NoteNumber":71,"Velocity":32,"Duration":200641,"SoundDuration":200641,"Delta":32830911},{"NoteNumber":65,"Velocity":32,"Duration":200642,"SoundDuration":200642,"Delta":33031553},{"NoteNumber":75,"Velocity":41,"Duration":219426,"SoundDuration":219426,"Delta":33232195},{"NoteNumber":73,"Velocity":49,"Duration":200642,"SoundDuration":200642,"Delta":33451622},{"NoteNumber":49,"Velocity":35,"Duration":401283,"SoundDuration":401283,"Delta":33451622},{"NoteNumber":71,"Velocity":32,"Duration":200641,"SoundDuration":200641,"Delta":33652264},{"NoteNumber":65,"Velocity":32,"Duration":200642,"SoundDuration":200642,"Delta":33852906},{"NoteNumber":55,"Velocity":33,"Duration":234082,"SoundDuration":234082,"Delta":34053548},{"NoteNumber":56,"Velocity":37,"Duration":200641,"SoundDuration":200641,"Delta":34254190},{"NoteNumber":59,"Velocity":24,"Duration":200642,"SoundDuration":200642,"Delta":34454832},{"NoteNumber":68,"Velocity":23,"Duration":200642,"SoundDuration":200642,"Delta":34655474},{"NoteNumber":76,"Velocity":45,"Duration":273262,"SoundDuration":273262,"Delta":34856116},{"NoteNumber":77,"Velocity":50,"Duration":208275,"SoundDuration":208275,"Delta":35094665},{"NoteNumber":36,"Velocity":30,"Duration":413980,"SoundDuration":413980,"Delta":35094665},{"NoteNumber":68,"Velocity":32,"Duration":205704,"SoundDuration":205704,"Delta":35302941},{"NoteNumber":65,"Velocity":31,"Duration":219426,"SoundDuration":219426,"Delta":35508646},{"NoteNumber":73,"Velocity":41,"Duration":219426,"SoundDuration":219426,"Delta":35728072},{"NoteNumber":72,"Velocity":49,"Duration":203141,"SoundDuration":203141,"Delta":35947499},{"NoteNumber":48,"Velocity":35,"Duration":403783,"SoundDuration":403783,"Delta":35947499},{"NoteNumber":68,"Velocity":32,"Duration":200642,"SoundDuration":200642,"Delta":36150641},{"NoteNumber":65,"Velocity":32,"Duration":200641,"SoundDuration":200641,"Delta":36351283},{"NoteNumber":52,"Velocity":33,"Duration":234082,"SoundDuration":234082,"Delta":36551925},{"NoteNumber":53,"Velocity":37,"Duration":200642,"SoundDuration":200642,"Delta":36752567},{"NoteNumber":56,"Velocity":24,"Duration":200641,"SoundDuration":200641,"Delta":36953209},{"NoteNumber":65,"Velocity":23,"Duration":200642,"SoundDuration":200642,"Delta":37153851},{"NoteNumber":72,"Velocity":45,"Duration":225496,"SoundDuration":225496,"Delta":37354493},{"NoteNumber":73,"Velocity":50,"Duration":776229,"SoundDuration":776229,"Delta":37579989},{"NoteNumber":67,"Velocity":32,"Duration":195312,"SoundDuration":195312,"Delta":37775302},{"NoteNumber":64,"Velocity":31,"Duration":192802,"SoundDuration":192802,"Delta":37970614},{"NoteNumber":60,"Velocity":29,"Duration":192802,"SoundDuration":192802,"Delta":38163416},{"NoteNumber":70,"Velocity":50,"Duration":802034,"SoundDuration":802034,"Delta":38356218},{"NoteNumber":67,"Velocity":32,"Duration":195312,"SoundDuration":195312,"Delta":38551531},{"NoteNumber":61,"Velocity":31,"Duration":205704,"SoundDuration":205704,"Delta":38746843},{"NoteNumber":60,"Velocity":29,"Duration":205704,"SoundDuration":205704,"Delta":38952548},{"NoteNumber":67,"Velocity":50,"Duration":812693,"SoundDuration":812693,"Delta":39158253},{"NoteNumber":64,"Velocity":32,"Duration":200641,"SoundDuration":200641,"Delta":39358895},{"NoteNumber":58,"Velocity":31,"Duration":205704,"SoundDuration":205704,"Delta":39559537},{"NoteNumber":60,"Velocity":29,"Duration":205704,"SoundDuration":205704,"Delta":39765242},{"NoteNumber":70,"Velocity":49,"Duration":2477311,"SoundDuration":2477311,"Delta":39970947},{"NoteNumber":65,"Velocity":39,"Duration":203251,"SoundDuration":203251,"Delta":40174199},{"NoteNumber":60,"Velocity":34,"Duration":203251,"SoundDuration":203251,"Delta":40377451},{"NoteNumber":53,"Velocity":27,"Duration":206043,"SoundDuration":206043,"Delta":40580703},{"NoteNumber":48,"Velocity":32,"Duration":206043,"SoundDuration":206043,"Delta":40786747},{"NoteNumber":44,"Velocity":33,"Duration":206044,"SoundDuration":206044,"Delta":40992791},{"NoteNumber":68,"Velocity":51,"Duration":211864,"SoundDuration":211864,"Delta":41198835},{"NoteNumber":41,"Velocity":42,"Duration":211864,"SoundDuration":211864,"Delta":41198835},{"NoteNumber":80,"Velocity":54,"Duration":224550,"SoundDuration":224550,"Delta":41410699},{"NoteNumber":36,"Velocity":45,"Duration":224550,"SoundDuration":224550,"Delta":41410699},{"NoteNumber":78,"Velocity":58,"Duration":203251,"SoundDuration":203251,"Delta":41635250},{"NoteNumber":32,"Velocity":55,"Duration":203251,"SoundDuration":203251,"Delta":41635250},{"NoteNumber":72,"Velocity":32,"Duration":203251,"SoundDuration":203251,"Delta":41838502},{"NoteNumber":44,"Velocity":34,"Duration":203251,"SoundDuration":203251,"Delta":41838502},{"NoteNumber":66,"Velocity":39,"Duration":203251,"SoundDuration":203251,"Delta":42041754},{"NoteNumber":78,"Velocity":49,"Duration":203252,"SoundDuration":203252,"Delta":42245006},{"NoteNumber":77,"Velocity":49,"Duration":200642,"SoundDuration":200642,"Delta":42448258},{"NoteNumber":37,"Velocity":35,"Duration":401283,"SoundDuration":401283,"Delta":42448258},{"NoteNumber":71,"Velocity":32,"Duration":200641,"SoundDuration":200641,"Delta":42648900},{"NoteNumber":65,"Velocity":32,"Duration":200642,"SoundDuration":200642,"Delta":42849542},{"NoteNumber":75,"Velocity":41,"Duration":219426,"SoundDuration":219426,"Delta":43050184},{"NoteNumber":73,"Velocity":49,"Duration":200642,"SoundDuration":200642,"Delta":43269610},{"NoteNumber":49,"Velocity":35,"Duration":401283,"SoundDuration":401283,"Delta":43269610},{"NoteNumber":71,"Velocity":32,"Duration":200641,"SoundDuration":200641,"Delta":43470252},{"NoteNumber":65,"Velocity":32,"Duration":200642,"SoundDuration":200642,"Delta":43670894},{"NoteNumber":55,"Velocity":28,"Duration":234082,"SoundDuration":234082,"Delta":43871536},{"NoteNumber":56,"Velocity":37,"Duration":200641,"SoundDuration":200641,"Delta":44072178},{"NoteNumber":59,"Velocity":24,"Duration":200642,"SoundDuration":200642,"Delta":44272820},{"NoteNumber":68,"Velocity":23,"Duration":200642,"SoundDuration":200642,"Delta":44473462},{"NoteNumber":74,"Velocity":45,"Duration":273262,"SoundDuration":273262,"Delta":44674104},{"NoteNumber":73,"Velocity":50,"Duration":208275,"SoundDuration":208275,"Delta":44912654},{"NoteNumber":37,"Velocity":30,"Duration":413980,"SoundDuration":413980,"Delta":44912654},{"NoteNumber":68,"Velocity":31,"Duration":205704,"SoundDuration":205704,"Delta":45120930},{"NoteNumber":65,"Velocity":30,"Duration":219426,"SoundDuration":219426,"Delta":45326634},{"NoteNumber":72,"Velocity":39,"Duration":219426,"SoundDuration":219426,"Delta":45546061},{"NoteNumber":71,"Velocity":47,"Duration":203141,"SoundDuration":203141,"Delta":45765488},{"NoteNumber":49,"Velocity":33,"Duration":403783,"SoundDuration":403783,"Delta":45765488},{"NoteNumber":68,"Velocity":31,"Duration":200642,"SoundDuration":200642,"Delta":45968630},{"NoteNumber":62,"Velocity":30,"Duration":200641,"SoundDuration":200641,"Delta":46169272},{"NoteNumber":52,"Velocity":31,"Duration":234082,"SoundDuration":234082,"Delta":46369914},{"NoteNumber":53,"Velocity":35,"Duration":200642,"SoundDuration":200642,"Delta":46570556},{"NoteNumber":56,"Velocity":22,"Duration":200641,"SoundDuration":200641,"Delta":46771198},{"NoteNumber":65,"Velocity":21,"Duration":200642,"SoundDuration":200642,"Delta":46971840},{"NoteNumber":73,"Velocity":41,"Duration":225496,"SoundDuration":225496,"Delta":47172482},{"NoteNumber":71,"Velocity":46,"Duration":807567,"SoundDuration":807567,"Delta":47397978},{"NoteNumber":68,"Velocity":29,"Duration":200641,"SoundDuration":200641,"Delta":47598620},{"NoteNumber":62,"Velocity":28,"Duration":203141,"SoundDuration":203141,"Delta":47799262},{"NoteNumber":30,"Velocity":26,"Duration":203141,"SoundDuration":203141,"Delta":48002404},{"NoteNumber":69,"Velocity":45,"Duration":812693,"SoundDuration":812693,"Delta":48205545},{"NoteNumber":66,"Velocity":28,"Duration":200641,"SoundDuration":200641,"Delta":48406187},{"NoteNumber":61,"Velocity":27,"Duration":205704,"SoundDuration":205704,"Delta":48606829},{"NoteNumber":30,"Velocity":25,"Duration":205704,"SoundDuration":205704,"Delta":48812534},{"NoteNumber":68,"Velocity":44,"Duration":812693,"SoundDuration":812693,"Delta":49018239},{"NoteNumber":65,"Velocity":27,"Duration":200641,"SoundDuration":200641,"Delta":49218881},{"NoteNumber":59,"Velocity":26,"Duration":205704,"SoundDuration":205704,"Delta":49419523},{"NoteNumber":30,"Velocity":24,"Duration":205704,"SoundDuration":205704,"Delta":49625228},{"NoteNumber":66,"Velocity":41,"Duration":4414203,"SoundDuration":4414203,"Delta":49830933},{"NoteNumber":62,"Velocity":33,"Duration":1535783,"SoundDuration":1535783,"Delta":50041552},{"NoteNumber":57,"Velocity":28,"Duration":3991415,"SoundDuration":3991415,"Delta":50253721},{"NoteNumber":54,"Velocity":22,"Duration":216512,"SoundDuration":216512,"Delta":50467966},{"NoteNumber":50,"Velocity":22,"Duration":217046,"SoundDuration":217046,"Delta":50684479},{"NoteNumber":45,"Velocity":22,"Duration":220723,"SoundDuration":220723,"Delta":50901526},{"NoteNumber":42,"Velocity":22,"Duration":225088,"SoundDuration":225088,"Delta":51122250},{"NoteNumber":38,"Velocity":19,"Duration":229997,"SoundDuration":229997,"Delta":51347339},{"NoteNumber":61,"Velocity":28,"Duration":2667800,"SoundDuration":2667800,"Delta":51577336},{"NoteNumber":33,"Velocity":18,"Duration":233288,"SoundDuration":233288,"Delta":51577336},{"NoteNumber":30,"Velocity":18,"Duration":239860,"SoundDuration":239860,"Delta":51810625},{"NoteNumber":33,"Velocity":17,"Duration":247090,"SoundDuration":247090,"Delta":52050485},{"NoteNumber":38,"Velocity":17,"Duration":251355,"SoundDuration":251355,"Delta":52297576},{"NoteNumber":42,"Velocity":16,"Duration":338630,"SoundDuration":338630,"Delta":52548931},{"NoteNumber":45,"Velocity":15,"Duration":351492,"SoundDuration":351492,"Delta":52887562},{"NoteNumber":50,"Velocity":13,"Duration":365056,"SoundDuration":365056,"Delta":53239054},{"NoteNumber":54,"Velocity":15,"Duration":641025,"SoundDuration":641025,"Delta":53604111},{"NoteNumber":56,"Velocity":29,"Duration":414957,"SoundDuration":414957,"Delta":54245137},{"NoteNumber":60,"Velocity":29,"Duration":851004,"SoundDuration":851004,"Delta":54245137},{"NoteNumber":65,"Velocity":37,"Duration":414957,"SoundDuration":414957,"Delta":54245137},{"NoteNumber":32,"Velocity":20,"Duration":851004,"SoundDuration":851004,"Delta":54245137},{"NoteNumber":54,"Velocity":27,"Duration":436046,"SoundDuration":436046,"Delta":54660094},{"NoteNumber":63,"Velocity":34,"Duration":436046,"SoundDuration":436046,"Delta":54660094},{"NoteNumber":54,"Velocity":29,"Duration":436046,"SoundDuration":436046,"Delta":55096141},{"NoteNumber":60,"Velocity":29,"Duration":436046,"SoundDuration":436046,"Delta":55096141},{"NoteNumber":63,"Velocity":37,"Duration":436046,"SoundDuration":436046,"Delta":55096141},{"NoteNumber":37,"Velocity":17,"Duration":1037650,"SoundDuration":1037650,"Delta":55096141},{"NoteNumber":53,"Velocity":26,"Duration":1225867,"SoundDuration":1225867,"Delta":55532187},{"NoteNumber":61,"Velocity":37,"Duration":1225867,"SoundDuration":1225867,"Delta":55532187},{"NoteNumber":43,"Velocity":22,"Duration":401069,"SoundDuration":401069,"Delta":55933257},{"NoteNumber":44,"Velocity":21,"Duration":1232181,"SoundDuration":1232181,"Delta":56334326},{"NoteNumber":73,"Velocity":40,"Duration":390625,"SoundDuration":390625,"Delta":56758055},{"NoteNumber":65,"Velocity":34,"Duration":390625,"SoundDuration":390625,"Delta":56758055},{"NoteNumber":56,"Velocity":22,"Duration":1579660,"SoundDuration":1579660,"Delta":56758055},{"NoteNumber":66,"Velocity":30,"Duration":417827,"SoundDuration":417827,"Delta":57148680},{"NoteNumber":72,"Velocity":30,"Duration":417827,"SoundDuration":417827,"Delta":57148680},{"NoteNumber":75,"Velocity":37,"Duration":417827,"SoundDuration":417827,"Delta":57148680},{"NoteNumber":75,"Velocity":39,"Duration":192802,"SoundDuration":192802,"Delta":57566507},{"NoteNumber":72,"Velocity":34,"Duration":192802,"SoundDuration":192802,"Delta":57566507},{"NoteNumber":66,"Velocity":34,"Duration":192802,"SoundDuration":192802,"Delta":57566507},{"NoteNumber":49,"Velocity":25,"Duration":1967706,"SoundDuration":1967706,"Delta":57566507},{"NoteNumber":65,"Velocity":29,"Duration":1359788,"SoundDuration":1359788,"Delta":57759309},{"NoteNumber":77,"Velocity":30,"Duration":1263387,"SoundDuration":1263387,"Delta":57855710},{"NoteNumber":80,"Velocity":42,"Duration":1166986,"SoundDuration":1166986,"Delta":57952111},{"NoteNumber":60,"Velocity":22,"Duration":385604,"SoundDuration":385604,"Delta":58337715},{"NoteNumber":61,"Velocity":26,"Duration":1630401,"SoundDuration":1630401,"Delta":58723319},{"NoteNumber":77,"Velocity":40,"Duration":211864,"SoundDuration":211864,"Delta":59119098},{"NoteNumber":73,"Velocity":34,"Duration":211864,"SoundDuration":211864,"Delta":59119098},{"NoteNumber":66,"Velocity":33,"Duration":599030,"SoundDuration":599030,"Delta":59330962},{"NoteNumber":78,"Velocity":34,"Duration":603336,"SoundDuration":603336,"Delta":59432588},{"NoteNumber":82,"Velocity":42,"Duration":395778,"SoundDuration":395778,"Delta":59534214},{"NoteNumber":49,"Velocity":22,"Duration":2394680,"SoundDuration":2394680,"Delta":59534214},{"NoteNumber":56,"Velocity":22,"Duration":1215285,"SoundDuration":1215285,"Delta":59534214},{"NoteNumber":72,"Velocity":35,"Duration":211864,"SoundDuration":211864,"Delta":59929992},{"NoteNumber":75,"Velocity":42,"Duration":211864,"SoundDuration":211864,"Delta":59929992},{"NoteNumber":65,"Velocity":29,"Duration":1207836,"SoundDuration":1207836,"Delta":60141857},{"NoteNumber":77,"Velocity":30,"Duration":1101904,"SoundDuration":1101904,"Delta":60247789},{"NoteNumber":80,"Velocity":42,"Duration":995971,"SoundDuration":995971,"Delta":60353721},{"NoteNumber":55,"Velocity":22,"Duration":395778,"SoundDuration":395778,"Delta":60749499},{"NoteNumber":56,"Velocity":26,"Duration":1584179,"SoundDuration":1584179,"Delta":61145277},{"NoteNumber":61,"Velocity":27,"Duration":386498,"SoundDuration":386498,"Delta":61349693},{"NoteNumber":73,"Velocity":26,"Duration":476993,"SoundDuration":476993,"Delta":61451901},{"NoteNumber":77,"Velocity":39,"Duration":374786,"SoundDuration":374786,"Delta":61554108},{"NoteNumber":72,"Velocity":35,"Duration":232991,"SoundDuration":232991,"Delta":61928894},{"NoteNumber":68,"Velocity":29,"Duration":232991,"SoundDuration":232991,"Delta":61928894},{"NoteNumber":46,"Velocity":19,"Duration":800562,"SoundDuration":800562,"Delta":61928894},{"NoteNumber":53,"Velocity":19,"Duration":800562,"SoundDuration":800562,"Delta":61928894},{"NoteNumber":58,"Velocity":26,"Duration":567570,"SoundDuration":567570,"Delta":62161886},{"NoteNumber":70,"Velocity":34,"Duration":459470,"SoundDuration":459470,"Delta":62269986},{"NoteNumber":73,"Velocity":42,"Duration":351370,"SoundDuration":351370,"Delta":62378086},{"NoteNumber":65,"Velocity":29,"Duration":1190339,"SoundDuration":1190339,"Delta":62729457},{"NoteNumber":68,"Velocity":29,"Duration":1190339,"SoundDuration":1190339,"Delta":62729457},{"NoteNumber":39,"Velocity":26,"Duration":403334,"SoundDuration":403334,"Delta":62729457},{"NoteNumber":46,"Velocity":22,"Duration":386898,"SoundDuration":386898,"Delta":63132791},{"NoteNumber":51,"Velocity":23,"Duration":400106,"SoundDuration":400106,"Delta":63519689},{"NoteNumber":66,"Velocity":30,"Duration":400106,"SoundDuration":400106,"Delta":63919796},{"NoteNumber":63,"Velocity":30,"Duration":400106,"SoundDuration":400106,"Delta":63919796},{"NoteNumber":58,"Velocity":24,"Duration":400106,"SoundDuration":400106,"Delta":63919796},{"NoteNumber":66,"Velocity":31,"Duration":787706,"SoundDuration":787706,"Delta":64319902},{"NoteNumber":63,"Velocity":31,"Duration":787706,"SoundDuration":787706,"Delta":64319902},{"NoteNumber":58,"Velocity":30,"Duration":387600,"SoundDuration":387600,"Delta":64720009},{"NoteNumber":46,"Velocity":30,"Duration":387600,"SoundDuration":387600,"Delta":64720009},{"NoteNumber":65,"Velocity":42,"Duration":800213,"SoundDuration":800213,"Delta":65107609},{"NoteNumber":68,"Velocity":42,"Duration":800213,"SoundDuration":800213,"Delta":65107609},{"NoteNumber":59,"Velocity":40,"Duration":440117,"SoundDuration":440117,"Delta":65107609},{"NoteNumber":38,"Velocity":30,"Duration":800213,"SoundDuration":800213,"Delta":65107609},{"NoteNumber":47,"Velocity":33,"Duration":440117,"SoundDuration":440117,"Delta":65107609},{"NoteNumber":58,"Velocity":31,"Duration":440117,"SoundDuration":440117,"Delta":65507716},{"NoteNumber":46,"Velocity":26,"Duration":440117,"SoundDuration":440117,"Delta":65507716},{"NoteNumber":63,"Velocity":39,"Duration":800213,"SoundDuration":800213,"Delta":65907823},{"NoteNumber":66,"Velocity":39,"Duration":800213,"SoundDuration":800213,"Delta":65907823},{"NoteNumber":57,"Velocity":34,"Duration":440117,"SoundDuration":440117,"Delta":65907823},{"NoteNumber":45,"Velocity":28,"Duration":440117,"SoundDuration":440117,"Delta":65907823},{"NoteNumber":39,"Velocity":28,"Duration":800213,"SoundDuration":800213,"Delta":65907823},{"NoteNumber":58,"Velocity":31,"Duration":440117,"SoundDuration":440117,"Delta":66307930},{"NoteNumber":46,"Velocity":26,"Duration":440117,"SoundDuration":440117,"Delta":66307930},{"NoteNumber":59,"Velocity":37,"Duration":443346,"SoundDuration":443346,"Delta":66708036},{"NoteNumber":66,"Velocity":39,"Duration":832508,"SoundDuration":832508,"Delta":66708036},{"NoteNumber":63,"Velocity":39,"Duration":832508,"SoundDuration":832508,"Delta":66708036},{"NoteNumber":47,"Velocity":31,"Duration":443346,"SoundDuration":443346,"Delta":66708036},{"NoteNumber":39,"Velocity":28,"Duration":832508,"SoundDuration":832508,"Delta":66708036},{"NoteNumber":60,"Velocity":31,"Duration":432401,"SoundDuration":432401,"Delta":67108143},{"NoteNumber":48,"Velocity":26,"Duration":432401,"SoundDuration":432401,"Delta":67108143},{"NoteNumber":63,"Velocity":37,"Duration":443667,"SoundDuration":443667,"Delta":67540544},{"NoteNumber":66,"Velocity":42,"Duration":806668,"SoundDuration":806668,"Delta":67540544},{"NoteNumber":56,"Velocity":42,"Duration":806668,"SoundDuration":806668,"Delta":67540544},{"NoteNumber":51,"Velocity":31,"Duration":443667,"SoundDuration":443667,"Delta":67540544},{"NoteNumber":41,"Velocity":30,"Duration":806668,"SoundDuration":806668,"Delta":67540544},{"NoteNumber":61,"Velocity":32,"Duration":442305,"SoundDuration":442305,"Delta":67943879},{"NoteNumber":49,"Velocity":27,"Duration":442305,"SoundDuration":442305,"Delta":67943879},{"NoteNumber":65,"Velocity":40,"Duration":800783,"SoundDuration":800783,"Delta":68347213},{"NoteNumber":56,"Velocity":40,"Duration":800783,"SoundDuration":800783,"Delta":68347213},{"NoteNumber":60,"Velocity":39,"Duration":430818,"SoundDuration":430818,"Delta":68347213},{"NoteNumber":41,"Velocity":31,"Duration":800783,"SoundDuration":800783,"Delta":68347213},{"NoteNumber":48,"Velocity":32,"Duration":430818,"SoundDuration":430818,"Delta":68347213},{"NoteNumber":61,"Velocity":34,"Duration":450555,"SoundDuration":450555,"Delta":68736924},{"NoteNumber":49,"Velocity":30,"Duration":450555,"SoundDuration":450555,"Delta":68736924},{"NoteNumber":65,"Velocity":44,"Duration":846018,"SoundDuration":846018,"Delta":69147996},{"NoteNumber":53,"Velocity":44,"Duration":846018,"SoundDuration":846018,"Delta":69147996},{"NoteNumber":60,"Velocity":46,"Duration":434324,"SoundDuration":434324,"Delta":69147996},{"NoteNumber":37,"Velocity":33,"Duration":846018,"SoundDuration":846018,"Delta":69147996},{"NoteNumber":48,"Velocity":39,"Duration":434324,"SoundDuration":434324,"Delta":69147996},{"NoteNumber":58,"Velocity":38,"Duration":451177,"SoundDuration":451177,"Delta":69542837},{"NoteNumber":46,"Velocity":32,"Duration":451177,"SoundDuration":451177,"Delta":69542837},{"NoteNumber":57,"Velocity":51,"Duration":449713,"SoundDuration":449713,"Delta":69994015},{"NoteNumber":65,"Velocity":56,"Duration":814583,"SoundDuration":814583,"Delta":69994015},{"NoteNumber":53,"Velocity":56,"Duration":814583,"SoundDuration":814583,"Delta":69994015},{"NoteNumber":45,"Velocity":43,"Duration":449713,"SoundDuration":449713,"Delta":69994015},{"NoteNumber":42,"Velocity":39,"Duration":814583,"SoundDuration":814583,"Delta":69994015},{"NoteNumber":58,"Velocity":39,"Duration":445998,"SoundDuration":445998,"Delta":70402845},{"NoteNumber":46,"Velocity":32,"Duration":445998,"SoundDuration":445998,"Delta":70402845},{"NoteNumber":61,"Velocity":43,"Duration":449028,"SoundDuration":449028,"Delta":70808598},{"NoteNumber":51,"Velocity":45,"Duration":829559,"SoundDuration":829559,"Delta":70808598},{"NoteNumber":63,"Velocity":45,"Duration":829559,"SoundDuration":829559,"Delta":70808598},{"NoteNumber":49,"Velocity":36,"Duration":449028,"SoundDuration":449028,"Delta":70808598},{"NoteNumber":42,"Velocity":34,"Duration":829559,"SoundDuration":829559,"Delta":70808598},{"NoteNumber":60,"Velocity":33,"Duration":464655,"SoundDuration":464655,"Delta":71216179},{"NoteNumber":48,"Velocity":28,"Duration":464655,"SoundDuration":464655,"Delta":71216179},{"NoteNumber":64,"Velocity":38,"Duration":969291,"SoundDuration":969291,"Delta":71638157},{"NoteNumber":52,"Velocity":38,"Duration":969291,"SoundDuration":969291,"Delta":71638157},{"NoteNumber":58,"Velocity":39,"Duration":498398,"SoundDuration":498398,"Delta":71638157},{"NoteNumber":46,"Velocity":33,"Duration":498398,"SoundDuration":498398,"Delta":71638157},{"NoteNumber":42,"Velocity":30,"Duration":969291,"SoundDuration":969291,"Delta":71638157},{"NoteNumber":60,"Velocity":28,"Duration":519703,"SoundDuration":519703,"Delta":72087745},{"NoteNumber":48,"Velocity":24,"Duration":2237827,"SoundDuration":2237827,"Delta":72087745},{"NoteNumber":65,"Velocity":33,"Duration":1718123,"SoundDuration":1718123,"Delta":72607448},{"NoteNumber":53,"Velocity":33,"Duration":1718123,"SoundDuration":1718123,"Delta":72607448},{"NoteNumber":58,"Velocity":24,"Duration":1145386,"SoundDuration":1145386,"Delta":72607448},{"NoteNumber":41,"Velocity":24,"Duration":1718123,"SoundDuration":1718123,"Delta":72607448},{"NoteNumber":57,"Velocity":21,"Duration":572737,"SoundDuration":572737,"Delta":73752835},{"NoteNumber":56,"Velocity":29,"Duration":414957,"SoundDuration":414957,"Delta":74325572},{"NoteNumber":60,"Velocity":29,"Duration":851004,"SoundDuration":851004,"Delta":74325572},{"NoteNumber":65,"Velocity":37,"Duration":414957,"SoundDuration":414957,"Delta":74325572},{"NoteNumber":32,"Velocity":20,"Duration":851004,"SoundDuration":851004,"Delta":74325572},{"NoteNumber":54,"Velocity":27,"Duration":436046,"SoundDuration":436046,"Delta":74740530},{"NoteNumber":63,"Velocity":34,"Duration":436046,"SoundDuration":436046,"Delta":74740530},{"NoteNumber":54,"Velocity":29,"Duration":436046,"SoundDuration":436046,"Delta":75176576},{"NoteNumber":60,"Velocity":29,"Duration":436046,"SoundDuration":436046,"Delta":75176576},{"NoteNumber":63,"Velocity":37,"Duration":436046,"SoundDuration":436046,"Delta":75176576},{"NoteNumber":37,"Velocity":17,"Duration":636581,"SoundDuration":636581,"Delta":75176576},{"NoteNumber":53,"Velocity":26,"Duration":1225867,"SoundDuration":1225867,"Delta":75612623},{"NoteNumber":61,"Velocity":37,"Duration":1225867,"SoundDuration":1225867,"Delta":75612623},{"NoteNumber":43,"Velocity":22,"Duration":401069,"SoundDuration":401069,"Delta":76013692},{"NoteNumber":44,"Velocity":21,"Duration":1232180,"SoundDuration":1232180,"Delta":76414762},{"NoteNumber":73,"Velocity":38,"Duration":390625,"SoundDuration":390625,"Delta":76838491},{"NoteNumber":65,"Velocity":32,"Duration":390625,"SoundDuration":390625,"Delta":76838491},{"NoteNumber":56,"Velocity":20,"Duration":5150593,"SoundDuration":5150593,"Delta":76838491},{"NoteNumber":66,"Velocity":28,"Duration":417827,"SoundDuration":417827,"Delta":77229116},{"NoteNumber":72,"Velocity":28,"Duration":417827,"SoundDuration":417827,"Delta":77229116},{"NoteNumber":75,"Velocity":35,"Duration":417827,"SoundDuration":417827,"Delta":77229116},{"NoteNumber":75,"Velocity":37,"Duration":192802,"SoundDuration":192802,"Delta":77646943},{"NoteNumber":72,"Velocity":32,"Duration":192802,"SoundDuration":192802,"Delta":77646943},{"NoteNumber":66,"Velocity":32,"Duration":192802,"SoundDuration":192802,"Delta":77646943},{"NoteNumber":49,"Velocity":23,"Duration":1967706,"SoundDuration":1967706,"Delta":77646943},{"NoteNumber":65,"Velocity":27,"Duration":1359788,"SoundDuration":1359788,"Delta":77839745},{"NoteNumber":77,"Velocity":28,"Duration":1263387,"SoundDuration":1263387,"Delta":77936146},{"NoteNumber":80,"Velocity":39,"Duration":1166986,"SoundDuration":1166986,"Delta":78032547},{"NoteNumber":58,"Velocity":22,"Duration":385604,"SoundDuration":385604,"Delta":78418151},{"NoteNumber":59,"Velocity":26,"Duration":2026179,"SoundDuration":2026179,"Delta":78803755},{"NoteNumber":77,"Velocity":40,"Duration":211864,"SoundDuration":211864,"Delta":79199533},{"NoteNumber":73,"Velocity":34,"Duration":211864,"SoundDuration":211864,"Delta":79199533},{"NoteNumber":66,"Velocity":37,"Duration":599030,"SoundDuration":599030,"Delta":79411398},{"NoteNumber":78,"Velocity":41,"Duration":603336,"SoundDuration":603336,"Delta":79513024},{"NoteNumber":82,"Velocity":46,"Duration":395778,"SoundDuration":395778,"Delta":79614650},{"NoteNumber":49,"Velocity":35,"Duration":2374434,"SoundDuration":2374434,"Delta":79614650},{"NoteNumber":71,"Velocity":35,"Duration":211864,"SoundDuration":211864,"Delta":80010428},{"NoteNumber":75,"Velocity":42,"Duration":211864,"SoundDuration":211864,"Delta":80010428},{"NoteNumber":65,"Velocity":29,"Duration":1207836,"SoundDuration":1207836,"Delta":80222292},{"NoteNumber":77,"Velocity":30,"Duration":1101904,"SoundDuration":1101904,"Delta":80328224},{"NoteNumber":80,"Velocity":42,"Duration":995971,"SoundDuration":995971,"Delta":80434157},{"NoteNumber":58,"Velocity":22,"Duration":395778,"SoundDuration":395778,"Delta":80829935},{"NoteNumber":59,"Velocity":26,"Duration":1548160,"SoundDuration":1548160,"Delta":81225713},{"NoteNumber":61,"Velocity":30,"Duration":372341,"SoundDuration":372341,"Delta":81430128},{"NoteNumber":73,"Velocity":33,"Duration":463826,"SoundDuration":463826,"Delta":81525258},{"NoteNumber":77,"Velocity":39,"Duration":368696,"SoundDuration":368696,"Delta":81620387},{"NoteNumber":71,"Velocity":35,"Duration":232991,"SoundDuration":232991,"Delta":81989084},{"NoteNumber":68,"Velocity":29,"Duration":232991,"SoundDuration":232991,"Delta":81989084},{"NoteNumber":49,"Velocity":19,"Duration":784789,"SoundDuration":784789,"Delta":81989084},{"NoteNumber":53,"Velocity":19,"Duration":784789,"SoundDuration":784789,"Delta":81989084},{"NoteNumber":58,"Velocity":19,"Duration":551797,"SoundDuration":551797,"Delta":82222075},{"NoteNumber":70,"Velocity":30,"Duration":451584,"SoundDuration":451584,"Delta":82322289},{"NoteNumber":73,"Velocity":38,"Duration":351370,"SoundDuration":351370,"Delta":82422503},{"NoteNumber":65,"Velocity":31,"Duration":1192655,"SoundDuration":1192655,"Delta":82773873},{"NoteNumber":69,"Velocity":40,"Duration":1192655,"SoundDuration":1192655,"Delta":82773873},{"NoteNumber":42,"Velocity":35,"Duration":403334,"SoundDuration":403334,"Delta":82773873},{"NoteNumber":49,"Velocity":29,"Duration":389213,"SoundDuration":389213,"Delta":83177208},{"NoteNumber":54,"Velocity":29,"Duration":400106,"SoundDuration":400106,"Delta":83566422},{"NoteNumber":70,"Velocity":37,"Duration":400106,"SoundDuration":400106,"Delta":83966528},{"NoteNumber":66,"Velocity":37,"Duration":400106,"SoundDuration":400106,"Delta":83966528},{"NoteNumber":61,"Velocity":29,"Duration":400106,"SoundDuration":400106,"Delta":83966528},{"NoteNumber":70,"Velocity":37,"Duration":816889,"SoundDuration":816889,"Delta":84366635},{"NoteNumber":66,"Velocity":37,"Duration":816889,"SoundDuration":816889,"Delta":84366635},{"NoteNumber":61,"Velocity":29,"Duration":416782,"SoundDuration":416782,"Delta":84766742},{"NoteNumber":49,"Velocity":29,"Duration":416782,"SoundDuration":416782,"Delta":84766742},{"NoteNumber":66,"Velocity":40,"Duration":789681,"SoundDuration":789681,"Delta":85183524},{"NoteNumber":69,"Velocity":40,"Duration":789681,"SoundDuration":789681,"Delta":85183524},{"NoteNumber":62,"Velocity":39,"Duration":434324,"SoundDuration":434324,"Delta":85183524},{"NoteNumber":42,"Velocity":28,"Duration":789681,"SoundDuration":789681,"Delta":85183524},{"NoteNumber":50,"Velocity":32,"Duration":434324,"SoundDuration":434324,"Delta":85183524},{"NoteNumber":61,"Velocity":29,"Duration":434324,"SoundDuration":434324,"Delta":85578365},{"NoteNumber":49,"Velocity":25,"Duration":434324,"SoundDuration":434324,"Delta":85578365},{"NoteNumber":66,"Velocity":37,"Duration":789681,"SoundDuration":789681,"Delta":85973206},{"NoteNumber":70,"Velocity":37,"Duration":789681,"SoundDuration":789681,"Delta":85973206},{"NoteNumber":60,"Velocity":33,"Duration":434324,"SoundDuration":434324,"Delta":85973206},{"NoteNumber":48,"Velocity":27,"Duration":434324,"SoundDuration":434324,"Delta":85973206},{"NoteNumber":42,"Velocity":27,"Duration":789681,"SoundDuration":789681,"Delta":85973206},{"NoteNumber":61,"Velocity":29,"Duration":434324,"SoundDuration":434324,"Delta":86368047},{"NoteNumber":49,"Velocity":25,"Duration":434324,"SoundDuration":434324,"Delta":86368047},{"NoteNumber":62,"Velocity":36,"Duration":438080,"SoundDuration":438080,"Delta":86762887},{"NoteNumber":70,"Velocity":38,"Duration":827241,"SoundDuration":827241,"Delta":86762887},{"NoteNumber":66,"Velocity":38,"Duration":827241,"SoundDuration":827241,"Delta":86762887},{"NoteNumber":50,"Velocity":30,"Duration":438080,"SoundDuration":438080,"Delta":86762887},{"NoteNumber":42,"Velocity":28,"Duration":827241,"SoundDuration":827241,"Delta":86762887},{"NoteNumber":61,"Velocity":30,"Duration":432401,"SoundDuration":432401,"Delta":87157728},{"NoteNumber":49,"Velocity":26,"Duration":432401,"SoundDuration":432401,"Delta":87157728},{"NoteNumber":63,"Velocity":37,"Duration":443667,"SoundDuration":443667,"Delta":87590129},{"NoteNumber":71,"Velocity":48,"Duration":806668,"SoundDuration":806668,"Delta":87590129},{"NoteNumber":68,"Velocity":44,"Duration":806668,"SoundDuration":806668,"Delta":87590129},{"NoteNumber":51,"Velocity":31,"Duration":443667,"SoundDuration":443667,"Delta":87590129},{"NoteNumber":41,"Velocity":29,"Duration":806668,"SoundDuration":806668,"Delta":87590129},{"NoteNumber":61,"Velocity":33,"Duration":443667,"SoundDuration":443667,"Delta":87993464},{"NoteNumber":49,"Velocity":28,"Duration":443667,"SoundDuration":443667,"Delta":87993464},{"NoteNumber":70,"Velocity":42,"Duration":806668,"SoundDuration":806668,"Delta":88396798},{"NoteNumber":66,"Velocity":42,"Duration":806668,"SoundDuration":806668,"Delta":88396798},{"NoteNumber":60,"Velocity":40,"Duration":443667,"SoundDuration":443667,"Delta":88396798},{"NoteNumber":42,"Velocity":31,"Duration":806668,"SoundDuration":806668,"Delta":88396798},{"NoteNumber":48,"Velocity":34,"Duration":443667,"SoundDuration":443667,"Delta":88396798},{"NoteNumber":61,"Velocity":36,"Duration":443667,"SoundDuration":443667,"Delta":88800132},{"NoteNumber":49,"Velocity":31,"Duration":443667,"SoundDuration":443667,"Delta":88800132},{"NoteNumber":67,"Velocity":47,"Duration":877787,"SoundDuration":877787,"Delta":89203466},{"NoteNumber":55,"Velocity":47,"Duration":877787,"SoundDuration":877787,"Delta":89203466},{"NoteNumber":63,"Velocity":49,"Duration":443667,"SoundDuration":443667,"Delta":89203466},{"NoteNumber":46,"Velocity":35,"Duration":877787,"SoundDuration":877787,"Delta":89203466},{"NoteNumber":51,"Velocity":41,"Duration":403334,"SoundDuration":403334,"Delta":89203466},{"NoteNumber":61,"Velocity":40,"Duration":474452,"SoundDuration":474452,"Delta":89606801},{"NoteNumber":49,"Velocity":35,"Duration":883283,"SoundDuration":883283,"Delta":89606801},{"NoteNumber":65,"Velocity":56,"Duration":408830,"SoundDuration":408830,"Delta":90081253},{"NoteNumber":68,"Velocity":62,"Duration":814583,"SoundDuration":814583,"Delta":90081253},{"NoteNumber":56,"Velocity":62,"Duration":814583,"SoundDuration":814583,"Delta":90081253},{"NoteNumber":44,"Velocity":42,"Duration":814583,"SoundDuration":814583,"Delta":90081253},{"NoteNumber":61,"Velocity":41,"Duration":445998,"SoundDuration":445998,"Delta":90490084},{"NoteNumber":53,"Velocity":35,"Duration":445998,"SoundDuration":445998,"Delta":90490084},{"NoteNumber":60,"Velocity":45,"Duration":407580,"SoundDuration":407580,"Delta":90895837},{"NoteNumber":54,"Velocity":47,"Duration":1853616,"SoundDuration":1853616,"Delta":90895837},{"NoteNumber":66,"Velocity":47,"Duration":1853616,"SoundDuration":1853616,"Delta":90895837},{"NoteNumber":51,"Velocity":37,"Duration":449028,"SoundDuration":449028,"Delta":90895837},{"NoteNumber":44,"Velocity":36,"Duration":1279146,"SoundDuration":1279146,"Delta":90895837},{"NoteNumber":58,"Velocity":34,"Duration":464655,"SoundDuration":464655,"Delta":91303418},{"NoteNumber":49,"Velocity":29,"Duration":464655,"SoundDuration":464655,"Delta":91303418},{"NoteNumber":56,"Velocity":38,"Duration":507457,"SoundDuration":507457,"Delta":91725396},{"NoteNumber":48,"Velocity":33,"Duration":449587,"SoundDuration":449587,"Delta":91725396},{"NoteNumber":60,"Velocity":30,"Duration":574470,"SoundDuration":574470,"Delta":92174984},{"NoteNumber":44,"Velocity":26,"Duration":2862528,"SoundDuration":2862528,"Delta":92174984},{"NoteNumber":65,"Velocity":32,"Duration":2288058,"SoundDuration":2288058,"Delta":92749454},{"NoteNumber":53,"Velocity":32,"Duration":2288058,"SoundDuration":2288058,"Delta":92749454},{"NoteNumber":63,"Velocity":23,"Duration":1145346,"SoundDuration":1145346,"Delta":92749454},{"NoteNumber":37,"Velocity":23,"Duration":2288058,"SoundDuration":2288058,"Delta":92749454},{"NoteNumber":61,"Velocity":20,"Duration":761808,"SoundDuration":761808,"Delta":93894800},{"NoteNumber":73,"Velocity":25,"Duration":189921,"SoundDuration":189921,"Delta":95037512},{"NoteNumber":61,"Velocity":21,"Duration":189921,"SoundDuration":189921,"Delta":95037512},{"NoteNumber":49,"Velocity":15,"Duration":189921,"SoundDuration":189921,"Delta":95037512},{"NoteNumber":72,"Velocity":29,"Duration":200053,"SoundDuration":200053,"Delta":95227434},{"NoteNumber":60,"Velocity":24,"Duration":200053,"SoundDuration":200053,"Delta":95227434},{"NoteNumber":48,"Velocity":24,"Duration":200053,"SoundDuration":200053,"Delta":95227434},{"NoteNumber":72,"Velocity":28,"Duration":185230,"SoundDuration":185230,"Delta":95827594},{"NoteNumber":60,"Velocity":23,"Duration":185230,"SoundDuration":185230,"Delta":95827594},{"NoteNumber":48,"Velocity":15,"Duration":185230,"SoundDuration":185230,"Delta":95827594},{"NoteNumber":58,"Velocity":12,"Duration":789681,"SoundDuration":789681,"Delta":96012825},{"NoteNumber":70,"Velocity":15,"Duration":789681,"SoundDuration":789681,"Delta":96012825},{"NoteNumber":46,"Velocity":22,"Duration":592261,"SoundDuration":592261,"Delta":96012825},{"NoteNumber":40,"Velocity":21,"Duration":197420,"SoundDuration":197420,"Delta":96605086},{"NoteNumber":65,"Velocity":31,"Duration":765885,"SoundDuration":765885,"Delta":96802506},{"NoteNumber":41,"Velocity":26,"Duration":188964,"SoundDuration":188964,"Delta":96802506},{"NoteNumber":45,"Velocity":21,"Duration":188964,"SoundDuration":188964,"Delta":96991471},{"NoteNumber":53,"Velocity":25,"Duration":188964,"SoundDuration":188964,"Delta":97180435},{"NoteNumber":41,"Velocity":21,"Duration":198991,"SoundDuration":198991,"Delta":97369400},{"NoteNumber":42,"Velocity":28,"Duration":186613,"SoundDuration":186613,"Delta":97568391},{"NoteNumber":46,"Velocity":21,"Duration":186613,"SoundDuration":186613,"Delta":97755005},{"NoteNumber":54,"Velocity":21,"Duration":186613,"SoundDuration":186613,"Delta":97941619},{"NoteNumber":77,"Velocity":27,"Duration":234762,"SoundDuration":234762,"Delta":98128232},{"NoteNumber":76,"Velocity":34,"Duration":182083,"SoundDuration":182083,"Delta":98332648},{"NoteNumber":73,"Velocity":28,"Duration":182082,"SoundDuration":182082,"Delta":98514731},{"NoteNumber":64,"Velocity":29,"Duration":182083,"SoundDuration":182083,"Delta":98696814},{"NoteNumber":76,"Velocity":24,"Duration":232387,"SoundDuration":232387,"Delta":98878897},{"NoteNumber":54,"Velocity":21,"Duration":232387,"SoundDuration":232387,"Delta":98878897},{"NoteNumber":75,"Velocity":31,"Duration":184320,"SoundDuration":184320,"Delta":99080564},{"NoteNumber":55,"Velocity":26,"Duration":184320,"SoundDuration":184320,"Delta":99080564},{"NoteNumber":73,"Velocity":25,"Duration":184320,"SoundDuration":184320,"Delta":99264884},{"NoteNumber":58,"Velocity":21,"Duration":184320,"SoundDuration":184320,"Delta":99264884},{"NoteNumber":63,"Velocity":25,"Duration":184320,"SoundDuration":184320,"Delta":99449205},{"NoteNumber":67,"Velocity":25,"Duration":184320,"SoundDuration":184320,"Delta":99449205},{"NoteNumber":55,"Velocity":21,"Duration":229711,"SoundDuration":229711,"Delta":99633525},{"NoteNumber":56,"Velocity":28,"Duration":184320,"SoundDuration":184320,"Delta":99832517},{"NoteNumber":60,"Velocity":21,"Duration":184320,"SoundDuration":184320,"Delta":100016838},{"NoteNumber":68,"Velocity":21,"Duration":184320,"SoundDuration":184320,"Delta":100201158},{"NoteNumber":80,"Velocity":27,"Duration":221722,"SoundDuration":221722,"Delta":100385479},{"NoteNumber":78,"Velocity":34,"Duration":182083,"SoundDuration":182083,"Delta":100576854},{"NoteNumber":75,"Velocity":28,"Duration":182082,"SoundDuration":182082,"Delta":100758937},{"NoteNumber":66,"Velocity":29,"Duration":182083,"SoundDuration":182083,"Delta":100941020},{"NoteNumber":78,"Velocity":24,"Duration":232387,"SoundDuration":232387,"Delta":101123103},{"NoteNumber":44,"Velocity":21,"Duration":232387,"SoundDuration":232387,"Delta":101123103},{"NoteNumber":77,"Velocity":31,"Duration":184320,"SoundDuration":184320,"Delta":101324770},{"NoteNumber":45,"Velocity":26,"Duration":184320,"SoundDuration":184320,"Delta":101324770},{"NoteNumber":75,"Velocity":25,"Duration":184320,"SoundDuration":184320,"Delta":101509091},{"NoteNumber":48,"Velocity":21,"Duration":184320,"SoundDuration":184320,"Delta":101509091},{"NoteNumber":65,"Velocity":25,"Duration":184320,"SoundDuration":184320,"Delta":101693411},{"NoteNumber":57,"Velocity":25,"Duration":184320,"SoundDuration":184320,"Delta":101693411},{"NoteNumber":45,"Velocity":21,"Duration":230094,"SoundDuration":230094,"Delta":101877732},{"NoteNumber":46,"Velocity":28,"Duration":186613,"SoundDuration":186613,"Delta":102076723},{"NoteNumber":50,"Velocity":21,"Duration":186613,"SoundDuration":186613,"Delta":102263337},{"NoteNumber":58,"Velocity":21,"Duration":186613,"SoundDuration":186613,"Delta":102449951},{"NoteNumber":82,"Velocity":27,"Duration":237222,"SoundDuration":237222,"Delta":102636564},{"NoteNumber":80,"Velocity":34,"Duration":179899,"SoundDuration":179899,"Delta":102843804},{"NoteNumber":77,"Velocity":28,"Duration":179899,"SoundDuration":179899,"Delta":103023703},{"NoteNumber":58,"Velocity":21,"Duration":179899,"SoundDuration":179899,"Delta":103023703},{"NoteNumber":68,"Velocity":30,"Duration":179899,"SoundDuration":179899,"Delta":103203602},{"NoteNumber":59,"Velocity":28,"Duration":179899,"SoundDuration":179899,"Delta":103203602},{"NoteNumber":62,"Velocity":23,"Duration":177767,"SoundDuration":177767,"Delta":103383502},{"NoteNumber":71,"Velocity":35,"Duration":193848,"SoundDuration":193848,"Delta":103561269},{"NoteNumber":82,"Velocity":37,"Duration":209882,"SoundDuration":209882,"Delta":103755117},{"NoteNumber":59,"Velocity":29,"Duration":209882,"SoundDuration":209882,"Delta":103755117},{"NoteNumber":80,"Velocity":45,"Duration":179899,"SoundDuration":179899,"Delta":103935017},{"NoteNumber":60,"Velocity":38,"Duration":179899,"SoundDuration":179899,"Delta":103935017},{"NoteNumber":77,"Velocity":41,"Duration":179899,"SoundDuration":179899,"Delta":104114916},{"NoteNumber":65,"Velocity":26,"Duration":179899,"SoundDuration":179899,"Delta":104114916},{"NoteNumber":68,"Velocity":51,"Duration":179899,"SoundDuration":179899,"Delta":104294815},{"NoteNumber":72,"Velocity":38,"Duration":179899,"SoundDuration":179899,"Delta":104294815},{"NoteNumber":60,"Velocity":31,"Duration":197889,"SoundDuration":197889,"Delta":104474714},{"NoteNumber":61,"Velocity":41,"Duration":200065,"SoundDuration":200065,"Delta":104654614},{"NoteNumber":82,"Velocity":49,"Duration":211771,"SoundDuration":211771,"Delta":104834513},{"NoteNumber":65,"Velocity":30,"Duration":211771,"SoundDuration":211771,"Delta":104834513},{"NoteNumber":80,"Velocity":43,"Duration":176512,"SoundDuration":176512,"Delta":105028633},{"NoteNumber":73,"Velocity":29,"Duration":176512,"SoundDuration":176512,"Delta":105028633},{"NoteNumber":77,"Velocity":32,"Duration":176512,"SoundDuration":176512,"Delta":105205146},{"NoteNumber":71,"Velocity":28,"Duration":192315,"SoundDuration":192315,"Delta":105381658},{"NoteNumber":70,"Velocity":31,"Duration":191905,"SoundDuration":191905,"Delta":105556527},{"NoteNumber":68,"Velocity":36,"Duration":173857,"SoundDuration":173857,"Delta":105730987},{"NoteNumber":65,"Velocity":29,"Duration":172453,"SoundDuration":172453,"Delta":105904844},{"NoteNumber":59,"Velocity":27,"Duration":189698,"SoundDuration":189698,"Delta":106077298},{"NoteNumber":58,"Velocity":29,"Duration":187934,"SoundDuration":187934,"Delta":106249751},{"NoteNumber":56,"Velocity":31,"Duration":187542,"SoundDuration":187542,"Delta":106420636},{"NoteNumber":53,"Velocity":28,"Duration":170493,"SoundDuration":170493,"Delta":106591130},{"NoteNumber":47,"Velocity":29,"Duration":170493,"SoundDuration":170493,"Delta":106761623},{"NoteNumber":36,"Velocity":27,"Duration":200020,"SoundDuration":200020,"Delta":106932116},{"NoteNumber":37,"Velocity":34,"Duration":170493,"SoundDuration":170493,"Delta":107115088},{"NoteNumber":44,"Velocity":30,"Duration":170493,"SoundDuration":170493,"Delta":107285581},{"NoteNumber":47,"Velocity":30,"Duration":187542,"SoundDuration":187542,"Delta":107456074},{"NoteNumber":48,"Velocity":36,"Duration":186368,"SoundDuration":186368,"Delta":107626567},{"NoteNumber":49,"Velocity":29,"Duration":170493,"SoundDuration":170493,"Delta":107795887},{"NoteNumber":56,"Velocity":26,"Duration":170591,"SoundDuration":170591,"Delta":107966380},{"NoteNumber":59,"Velocity":30,"Duration":189698,"SoundDuration":189698,"Delta":108136971},{"NoteNumber":60,"Velocity":32,"Duration":189698,"SoundDuration":189698,"Delta":108309425},{"NoteNumber":61,"Velocity":36,"Duration":174057,"SoundDuration":174057,"Delta":108481878},{"NoteNumber":68,"Velocity":32,"Duration":174459,"SoundDuration":174459,"Delta":108655936},{"NoteNumber":71,"Velocity":26,"Duration":175693,"SoundDuration":175693,"Delta":108830395},{"NoteNumber":80,"Velocity":34,"Duration":218446,"SoundDuration":218446,"Delta":109006089},{"NoteNumber":79,"Velocity":34,"Duration":172061,"SoundDuration":172061,"Delta":109207171},{"NoteNumber":76,"Velocity":30,"Duration":171663,"SoundDuration":171663,"Delta":109379232},{"NoteNumber":70,"Velocity":27,"Duration":188830,"SoundDuration":188830,"Delta":109550896},{"NoteNumber":68,"Velocity":28,"Duration":188830,"SoundDuration":188830,"Delta":109722560},{"NoteNumber":67,"Velocity":33,"Duration":173253,"SoundDuration":173253,"Delta":109894224},{"NoteNumber":64,"Velocity":27,"Duration":173651,"SoundDuration":173651,"Delta":110067478},{"NoteNumber":58,"Velocity":24,"Duration":191016,"SoundDuration":191016,"Delta":110241129},{"NoteNumber":56,"Velocity":26,"Duration":191097,"SoundDuration":191097,"Delta":110414780},{"NoteNumber":55,"Velocity":27,"Duration":174459,"SoundDuration":174459,"Delta":110588432},{"NoteNumber":52,"Velocity":24,"Duration":178613,"SoundDuration":178613,"Delta":110762891},{"NoteNumber":46,"Velocity":25,"Duration":174459,"SoundDuration":174459,"Delta":110941505},{"NoteNumber":35,"Velocity":22,"Duration":192074,"SoundDuration":192074,"Delta":111115964},{"NoteNumber":36,"Velocity":28,"Duration":177767,"SoundDuration":177767,"Delta":111290261},{"NoteNumber":43,"Velocity":25,"Duration":177767,"SoundDuration":177767,"Delta":111468029},{"NoteNumber":46,"Velocity":25,"Duration":197462,"SoundDuration":197462,"Delta":111645796},{"NoteNumber":47,"Velocity":29,"Duration":197889,"SoundDuration":197889,"Delta":111825269},{"NoteNumber":48,"Velocity":23,"Duration":182541,"SoundDuration":182541,"Delta":112005168},{"NoteNumber":55,"Velocity":21,"Duration":185696,"SoundDuration":185696,"Delta":112187709},{"NoteNumber":58,"Velocity":23,"Duration":206920,"SoundDuration":206920,"Delta":112373406},{"NoteNumber":59,"Velocity":25,"Duration":209548,"SoundDuration":209548,"Delta":112561430},{"NoteNumber":60,"Velocity":28,"Duration":193353,"SoundDuration":193353,"Delta":112751841},{"NoteNumber":67,"Velocity":24,"Duration":195878,"SoundDuration":195878,"Delta":112945195},{"NoteNumber":76,"Velocity":27,"Duration":731886,"SoundDuration":731886,"Delta":113141074},{"NoteNumber":79,"Velocity":27,"Duration":731886,"SoundDuration":731886,"Delta":113141074},{"NoteNumber":82,"Velocity":27,"Duration":731886,"SoundDuration":731886,"Delta":113141074},{"NoteNumber":85,"Velocity":34,"Duration":365943,"SoundDuration":365943,"Delta":113141074},{"NoteNumber":70,"Velocity":20,"Duration":182971,"SoundDuration":182971,"Delta":113141074},{"NoteNumber":84,"Velocity":33,"Duration":365943,"SoundDuration":365943,"Delta":113507017},{"NoteNumber":67,"Velocity":20,"Duration":760783,"SoundDuration":760783,"Delta":113872960},{"NoteNumber":64,"Velocity":20,"Duration":760783,"SoundDuration":760783,"Delta":113872960},{"NoteNumber":59,"Velocity":26,"Duration":365943,"SoundDuration":365943,"Delta":113872960},{"NoteNumber":60,"Velocity":24,"Duration":394840,"SoundDuration":394840,"Delta":114238903},{"NoteNumber":63,"Velocity":22,"Duration":780734,"SoundDuration":780734,"Delta":114633743},{"NoteNumber":66,"Velocity":22,"Duration":780734,"SoundDuration":780734,"Delta":114633743},{"NoteNumber":70,"Velocity":22,"Duration":780734,"SoundDuration":780734,"Delta":114633743},{"NoteNumber":73,"Velocity":28,"Duration":382750,"SoundDuration":382750,"Delta":114633743},{"NoteNumber":72,"Velocity":27,"Duration":397983,"SoundDuration":397983,"Delta":115016494},{"NoteNumber":54,"Velocity":16,"Duration":884334,"SoundDuration":884334,"Delta":115414478},{"NoteNumber":51,"Velocity":16,"Duration":884334,"SoundDuration":884334,"Delta":115414478},{"NoteNumber":47,"Velocity":20,"Duration":422654,"SoundDuration":422654,"Delta":115414478},{"NoteNumber":48,"Velocity":18,"Duration":461680,"SoundDuration":461680,"Delta":115837132},{"NoteNumber":51,"Velocity":17,"Duration":2297265,"SoundDuration":2297265,"Delta":116298812},{"NoteNumber":53,"Velocity":17,"Duration":2297265,"SoundDuration":2297265,"Delta":116298812},{"NoteNumber":57,"Velocity":17,"Duration":2297265,"SoundDuration":2297265,"Delta":116298812},{"NoteNumber":61,"Velocity":22,"Duration":577145,"SoundDuration":577145,"Delta":116298812},{"NoteNumber":60,"Velocity":21,"Duration":1720120,"SoundDuration":1720120,"Delta":116875957},{"NoteNumber":28,"Velocity":22,"Duration":375262,"SoundDuration":375262,"Delta":117501218},{"NoteNumber":29,"Velocity":22,"Duration":539697,"SoundDuration":539697,"Delta":117876480},{"NoteNumber":41,"Velocity":19,"Duration":179899,"SoundDuration":179899,"Delta":118416178},{"NoteNumber":45,"Velocity":22,"Duration":179899,"SoundDuration":179899,"Delta":118596077},{"NoteNumber":48,"Velocity":22,"Duration":179899,"SoundDuration":179899,"Delta":118775977},{"NoteNumber":85,"Velocity":25,"Duration":179899,"SoundDuration":179899,"Delta":118955876},{"NoteNumber":51,"Velocity":19,"Duration":179899,"SoundDuration":179899,"Delta":118955876},{"NoteNumber":75,"Velocity":19,"Duration":179428,"SoundDuration":179428,"Delta":119135775},{"NoteNumber":54,"Velocity":19,"Duration":179428,"SoundDuration":179428,"Delta":119135775},{"NoteNumber":84,"Velocity":25,"Duration":167461,"SoundDuration":167461,"Delta":119315204},{"NoteNumber":57,"Velocity":19,"Duration":167461,"SoundDuration":167461,"Delta":119315204},{"NoteNumber":78,"Velocity":19,"Duration":166703,"SoundDuration":166703,"Delta":119482666},{"NoteNumber":60,"Velocity":22,"Duration":166703,"SoundDuration":166703,"Delta":119482666},{"NoteNumber":82,"Velocity":25,"Duration":166703,"SoundDuration":166703,"Delta":119649370},{"NoteNumber":66,"Velocity":19,"Duration":166703,"SoundDuration":166703,"Delta":119649370},{"NoteNumber":72,"Velocity":19,"Duration":166703,"SoundDuration":166703,"Delta":119816073},{"NoteNumber":63,"Velocity":19,"Duration":166703,"SoundDuration":166703,"Delta":119816073},{"NoteNumber":81,"Velocity":25,"Duration":168202,"SoundDuration":168202,"Delta":119982777},{"NoteNumber":54,"Velocity":22,"Duration":168202,"SoundDuration":168202,"Delta":119982777},{"NoteNumber":75,"Velocity":19,"Duration":168577,"SoundDuration":168577,"Delta":120150980},{"NoteNumber":57,"Velocity":19,"Duration":168577,"SoundDuration":168577,"Delta":120150980},{"NoteNumber":80,"Velocity":24,"Duration":168577,"SoundDuration":168577,"Delta":120319557},{"NoteNumber":63,"Velocity":19,"Duration":168577,"SoundDuration":168577,"Delta":120319557},{"NoteNumber":69,"Velocity":19,"Duration":168140,"SoundDuration":168140,"Delta":120488134},{"NoteNumber":60,"Velocity":19,"Duration":168140,"SoundDuration":168140,"Delta":120488134},{"NoteNumber":78,"Velocity":25,"Duration":166703,"SoundDuration":166703,"Delta":120656274},{"NoteNumber":51,"Velocity":22,"Duration":166703,"SoundDuration":166703,"Delta":120656274},{"NoteNumber":72,"Velocity":19,"Duration":168546,"SoundDuration":168546,"Delta":120822978},{"NoteNumber":54,"Velocity":21,"Duration":168546,"SoundDuration":168546,"Delta":120822978},{"NoteNumber":77,"Velocity":25,"Duration":169982,"SoundDuration":169982,"Delta":120991524},{"NoteNumber":60,"Velocity":21,"Duration":169982,"SoundDuration":169982,"Delta":120991524},{"NoteNumber":66,"Velocity":19,"Duration":171440,"SoundDuration":171440,"Delta":121161506},{"NoteNumber":57,"Velocity":21,"Duration":171440,"SoundDuration":171440,"Delta":121161506},{"NoteNumber":75,"Velocity":25,"Duration":172921,"SoundDuration":172921,"Delta":121332947},{"NoteNumber":48,"Velocity":24,"Duration":172921,"SoundDuration":172921,"Delta":121332947},{"NoteNumber":69,"Velocity":19,"Duration":174459,"SoundDuration":174459,"Delta":121505868},{"NoteNumber":51,"Velocity":19,"Duration":174459,"SoundDuration":174459,"Delta":121505868},{"NoteNumber":57,"Velocity":19,"Duration":176477,"SoundDuration":176477,"Delta":121680328},{"NoteNumber":54,"Velocity":19,"Duration":178053,"SoundDuration":178053,"Delta":121856806},{"NoteNumber":51,"Velocity":24,"Duration":179654,"SoundDuration":179654,"Delta":122034859},{"NoteNumber":48,"Velocity":19,"Duration":181280,"SoundDuration":181280,"Delta":122214513},{"NoteNumber":73,"Velocity":24,"Duration":182971,"SoundDuration":182971,"Delta":122395794},{"NoteNumber":45,"Velocity":19,"Duration":182971,"SoundDuration":182971,"Delta":122395794},{"NoteNumber":63,"Velocity":19,"Duration":185193,"SoundDuration":185193,"Delta":122578766},{"NoteNumber":42,"Velocity":19,"Duration":185193,"SoundDuration":185193,"Delta":122578766},{"NoteNumber":72,"Velocity":25,"Duration":192357,"SoundDuration":192357,"Delta":122763959},{"NoteNumber":39,"Velocity":22,"Duration":192357,"SoundDuration":192357,"Delta":122763959},{"NoteNumber":66,"Velocity":19,"Duration":192357,"SoundDuration":192357,"Delta":122956316},{"NoteNumber":45,"Velocity":20,"Duration":192357,"SoundDuration":192357,"Delta":122956316},{"NoteNumber":54,"Velocity":20,"Duration":192357,"SoundDuration":192357,"Delta":123148673},{"NoteNumber":73,"Velocity":22,"Duration":202757,"SoundDuration":202757,"Delta":123936198},{"NoteNumber":39,"Velocity":22,"Duration":202757,"SoundDuration":202757,"Delta":123936198},{"NoteNumber":65,"Velocity":19,"Duration":202757,"SoundDuration":202757,"Delta":124138955},{"NoteNumber":44,"Velocity":21,"Duration":202757,"SoundDuration":202757,"Delta":124138955},{"NoteNumber":71,"Velocity":25,"Duration":202757,"SoundDuration":202757,"Delta":124341713},{"NoteNumber":53,"Velocity":21,"Duration":405514,"SoundDuration":405514,"Delta":124341713},{"NoteNumber":68,"Velocity":19,"Duration":202757,"SoundDuration":202757,"Delta":124544470},{"NoteNumber":59,"Velocity":25,"Duration":220653,"SoundDuration":220653,"Delta":124747228},{"NoteNumber":71,"Velocity":34,"Duration":197420,"SoundDuration":197420,"Delta":124967881},{"NoteNumber":70,"Velocity":41,"Duration":401284,"SoundDuration":401284,"Delta":125165301},{"NoteNumber":38,"Velocity":29,"Duration":401284,"SoundDuration":401284,"Delta":125165301},{"NoteNumber":68,"Velocity":27,"Duration":200642,"SoundDuration":200642,"Delta":125365943},{"NoteNumber":58,"Velocity":27,"Duration":200642,"SoundDuration":200642,"Delta":125566585},{"NoteNumber":52,"Velocity":26,"Duration":234082,"SoundDuration":234082,"Delta":125767227},{"NoteNumber":53,"Velocity":31,"Duration":200642,"SoundDuration":200642,"Delta":125967869},{"NoteNumber":56,"Velocity":20,"Duration":200642,"SoundDuration":200642,"Delta":126168511},{"NoteNumber":65,"Velocity":19,"Duration":200642,"SoundDuration":200642,"Delta":126369153},{"NoteNumber":70,"Velocity":38,"Duration":258936,"SoundDuration":258936,"Delta":126569795},{"NoteNumber":71,"Velocity":42,"Duration":200641,"SoundDuration":200641,"Delta":126795292},{"NoteNumber":39,"Velocity":25,"Duration":401284,"SoundDuration":401284,"Delta":126795292},{"NoteNumber":68,"Velocity":27,"Duration":200642,"SoundDuration":200642,"Delta":126995934},{"NoteNumber":59,"Velocity":26,"Duration":219426,"SoundDuration":219426,"Delta":127196576},{"NoteNumber":71,"Velocity":34,"Duration":219426,"SoundDuration":219426,"Delta":127416002},{"NoteNumber":77,"Velocity":41,"Duration":200641,"SoundDuration":200641,"Delta":127635429},{"NoteNumber":38,"Velocity":29,"Duration":401284,"SoundDuration":401284,"Delta":127635429},{"NoteNumber":68,"Velocity":27,"Duration":200642,"SoundDuration":200642,"Delta":127836071},{"NoteNumber":65,"Velocity":27,"Duration":200641,"SoundDuration":200641,"Delta":128036713},{"NoteNumber":57,"Velocity":28,"Duration":234082,"SoundDuration":234082,"Delta":128237355},{"NoteNumber":58,"Velocity":32,"Duration":200641,"SoundDuration":200641,"Delta":128437997},{"NoteNumber":65,"Velocity":20,"Duration":200642,"SoundDuration":200642,"Delta":128638639},{"NoteNumber":70,"Velocity":19,"Duration":200641,"SoundDuration":200641,"Delta":128839281},{"NoteNumber":77,"Velocity":43,"Duration":245304,"SoundDuration":245304,"Delta":129039923},{"NoteNumber":80,"Velocity":53,"Duration":200641,"SoundDuration":200641,"Delta":129251787},{"NoteNumber":34,"Velocity":30,"Duration":401284,"SoundDuration":401284,"Delta":129251787},{"NoteNumber":74,"Velocity":32,"Duration":200642,"SoundDuration":200642,"Delta":129452429},{"NoteNumber":68,"Velocity":42,"Duration":206043,"SoundDuration":206043,"Delta":129653071},{"NoteNumber":80,"Velocity":47,"Duration":206044,"SoundDuration":206044,"Delta":129859115},{"NoteNumber":78,"Velocity":58,"Duration":200641,"SoundDuration":200641,"Delta":130065159},{"NoteNumber":39,"Velocity":35,"Duration":401284,"SoundDuration":401284,"Delta":130065159},{"NoteNumber":75,"Velocity":32,"Duration":200642,"SoundDuration":200642,"Delta":130265801},{"NoteNumber":66,"Velocity":32,"Duration":200641,"SoundDuration":200641,"Delta":130466443},{"NoteNumber":57,"Velocity":33,"Duration":234082,"SoundDuration":234082,"Delta":130667085},{"NoteNumber":58,"Velocity":37,"Duration":200641,"SoundDuration":200641,"Delta":130867727},{"NoteNumber":61,"Velocity":24,"Duration":200642,"SoundDuration":200642,"Delta":131068369},{"NoteNumber":70,"Velocity":23,"Duration":200641,"SoundDuration":200641,"Delta":131269011},{"NoteNumber":73,"Velocity":45,"Duration":259780,"SoundDuration":259780,"Delta":131469653},{"NoteNumber":78,"Velocity":50,"Duration":205704,"SoundDuration":205704,"Delta":131695149},{"NoteNumber":32,"Velocity":30,"Duration":411409,"SoundDuration":411409,"Delta":131695149},{"NoteNumber":72,"Velocity":32,"Duration":205704,"SoundDuration":205704,"Delta":131900854},{"NoteNumber":66,"Velocity":31,"Duration":200534,"SoundDuration":200534,"Delta":132106559},{"NoteNumber":78,"Velocity":41,"Duration":200534,"SoundDuration":200534,"Delta":132307094},{"NoteNumber":77,"Velocity":49,"Duration":200641,"SoundDuration":200641,"Delta":132507629},{"NoteNumber":37,"Velocity":35,"Duration":401284,"SoundDuration":401284,"Delta":132507629},{"NoteNumber":72,"Velocity":32,"Duration":200642,"SoundDuration":200642,"Delta":132708271},{"NoteNumber":65,"Velocity":32,"Duration":200641,"SoundDuration":200641,"Delta":132908913},{"NoteNumber":55,"Velocity":26,"Duration":234082,"SoundDuration":234082,"Delta":133109555},{"NoteNumber":56,"Velocity":29,"Duration":200641,"SoundDuration":200641,"Delta":133310197},{"NoteNumber":60,"Velocity":18,"Duration":200642,"SoundDuration":200642,"Delta":133510839},{"NoteNumber":68,"Velocity":18,"Duration":200641,"SoundDuration":200641,"Delta":133711481},{"NoteNumber":72,"Velocity":41,"Duration":219426,"SoundDuration":219426,"Delta":133912123},{"NoteNumber":77,"Velocity":49,"Duration":200641,"SoundDuration":200641,"Delta":134131549},{"NoteNumber":30,"Velocity":35,"Duration":401284,"SoundDuration":401284,"Delta":134131549},{"NoteNumber":70,"Velocity":32,"Duration":200642,"SoundDuration":200642,"Delta":134332191},{"NoteNumber":65,"Velocity":32,"Duration":200641,"SoundDuration":200641,"Delta":134532833},{"NoteNumber":77,"Velocity":41,"Duration":219426,"SoundDuration":219426,"Delta":134733475},{"NoteNumber":75,"Velocity":49,"Duration":200641,"SoundDuration":200641,"Delta":134952902},{"NoteNumber":36,"Velocity":35,"Duration":401284,"SoundDuration":401284,"Delta":134952902},{"NoteNumber":70,"Velocity":32,"Duration":200642,"SoundDuration":200642,"Delta":135153544},{"NoteNumber":63,"Velocity":32,"Duration":200641,"SoundDuration":200641,"Delta":135354186},{"NoteNumber":73,"Velocity":41,"Duration":219426,"SoundDuration":219426,"Delta":135554828},{"NoteNumber":72,"Velocity":49,"Duration":200641,"SoundDuration":200641,"Delta":135774254},{"NoteNumber":39,"Velocity":35,"Duration":401284,"SoundDuration":401284,"Delta":135774254},{"NoteNumber":66,"Velocity":32,"Duration":200642,"SoundDuration":200642,"Delta":135974896},{"NoteNumber":60,"Velocity":32,"Duration":200641,"SoundDuration":200641,"Delta":136175538},{"NoteNumber":53,"Velocity":33,"Duration":234082,"SoundDuration":234082,"Delta":136376180},{"NoteNumber":54,"Velocity":37,"Duration":200642,"SoundDuration":200642,"Delta":136576822},{"NoteNumber":58,"Velocity":24,"Duration":200641,"SoundDuration":200641,"Delta":136777464},{"NoteNumber":66,"Velocity":23,"Duration":200642,"SoundDuration":200642,"Delta":136978106},{"NoteNumber":77,"Velocity":45,"Duration":273262,"SoundDuration":273262,"Delta":137178748},{"NoteNumber":75,"Velocity":50,"Duration":208275,"SoundDuration":208275,"Delta":137417298},{"NoteNumber":29,"Velocity":30,"Duration":413980,"SoundDuration":413980,"Delta":137417298},{"NoteNumber":69,"Velocity":32,"Duration":205704,"SoundDuration":205704,"Delta":137625574},{"NoteNumber":63,"Velocity":31,"Duration":206043,"SoundDuration":206043,"Delta":137831278},{"NoteNumber":73,"Velocity":41,"Duration":206044,"SoundDuration":206044,"Delta":138037322},{"NoteNumber":72,"Velocity":49,"Duration":203141,"SoundDuration":203141,"Delta":138243366},{"NoteNumber":41,"Velocity":35,"Duration":203141,"SoundDuration":203141,"Delta":138243366},{"NoteNumber":69,"Velocity":32,"Duration":200641,"SoundDuration":200641,"Delta":138446508},{"NoteNumber":63,"Velocity":32,"Duration":200642,"SoundDuration":200642,"Delta":138647150},{"NoteNumber":52,"Velocity":33,"Duration":234082,"SoundDuration":234082,"Delta":138847792},{"NoteNumber":53,"Velocity":37,"Duration":200641,"SoundDuration":200641,"Delta":139048434},{"NoteNumber":57,"Velocity":24,"Duration":200642,"SoundDuration":200642,"Delta":139249076},{"NoteNumber":65,"Velocity":23,"Duration":200641,"SoundDuration":200641,"Delta":139449718},{"NoteNumber":78,"Velocity":45,"Duration":225496,"SoundDuration":225496,"Delta":139650360},{"NoteNumber":77,"Velocity":50,"Duration":802282,"SoundDuration":802282,"Delta":139875856},{"NoteNumber":72,"Velocity":31,"Duration":203252,"SoundDuration":203252,"Delta":140079108},{"NoteNumber":69,"Velocity":30,"Duration":197889,"SoundDuration":197889,"Delta":140282360},{"NoteNumber":65,"Velocity":28,"Duration":197889,"SoundDuration":197889,"Delta":140480250},{"NoteNumber":76,"Velocity":47,"Duration":766314,"SoundDuration":766314,"Delta":140678139},{"NoteNumber":72,"Velocity":30,"Duration":192802,"SoundDuration":192802,"Delta":140870941},{"NoteNumber":69,"Velocity":28,"Duration":190355,"SoundDuration":190355,"Delta":141063743},{"NoteNumber":65,"Velocity":26,"Duration":190355,"SoundDuration":190355,"Delta":141254098},{"NoteNumber":75,"Velocity":45,"Duration":781728,"SoundDuration":781728,"Delta":141444453},{"NoteNumber":72,"Velocity":28,"Duration":190355,"SoundDuration":190355,"Delta":141634809},{"NoteNumber":69,"Velocity":27,"Duration":205704,"SoundDuration":205704,"Delta":141825164},{"NoteNumber":65,"Velocity":25,"Duration":195312,"SoundDuration":195312,"Delta":142030869},{"NoteNumber":73,"Velocity":41,"Duration":3131123,"SoundDuration":3131123,"Delta":142226182},{"NoteNumber":69,"Velocity":33,"Duration":2935810,"SoundDuration":2935810,"Delta":142421494},{"NoteNumber":66,"Velocity":28,"Duration":2740498,"SoundDuration":2740498,"Delta":142616807},{"NoteNumber":61,"Velocity":22,"Duration":190355,"SoundDuration":190355,"Delta":142807162},{"NoteNumber":57,"Velocity":24,"Duration":190844,"SoundDuration":190844,"Delta":142997517},{"NoteNumber":54,"Velocity":24,"Duration":192802,"SoundDuration":192802,"Delta":143188362},{"NoteNumber":49,"Velocity":24,"Duration":192802,"SoundDuration":192802,"Delta":143381164},{"NoteNumber":45,"Velocity":22,"Duration":194810,"SoundDuration":194810,"Delta":143573966},{"NoteNumber":42,"Velocity":22,"Duration":195312,"SoundDuration":195312,"Delta":143768776},{"NoteNumber":37,"Velocity":22,"Duration":195827,"SoundDuration":195827,"Delta":143964089},{"NoteNumber":33,"Velocity":22,"Duration":197889,"SoundDuration":197889,"Delta":144159917},{"NoteNumber":30,"Velocity":22,"Duration":197889,"SoundDuration":197889,"Delta":144357806},{"NoteNumber":27,"Velocity":22,"Duration":400540,"SoundDuration":400540,"Delta":144555695},{"NoteNumber":85,"Velocity":32,"Duration":200534,"SoundDuration":200534,"Delta":144755701},{"NoteNumber":83,"Velocity":29,"Duration":200534,"SoundDuration":200534,"Delta":144956235},{"NoteNumber":39,"Velocity":21,"Duration":200534,"SoundDuration":200534,"Delta":144956235},{"NoteNumber":81,"Velocity":28,"Duration":200534,"SoundDuration":200534,"Delta":145156770},{"NoteNumber":42,"Velocity":22,"Duration":200534,"SoundDuration":200534,"Delta":145156770},{"NoteNumber":80,"Velocity":31,"Duration":200534,"SoundDuration":200534,"Delta":145357305},{"NoteNumber":45,"Velocity":23,"Duration":200534,"SoundDuration":200534,"Delta":145357305},{"NoteNumber":78,"Velocity":28,"Duration":200534,"SoundDuration":200534,"Delta":145557840},{"NoteNumber":51,"Velocity":24,"Duration":200534,"SoundDuration":200534,"Delta":145557840},{"NoteNumber":75,"Velocity":28,"Duration":200534,"SoundDuration":200534,"Delta":145758374},{"NoteNumber":54,"Velocity":26,"Duration":200534,"SoundDuration":200534,"Delta":145758374},{"NoteNumber":73,"Velocity":28,"Duration":200534,"SoundDuration":200534,"Delta":145958909},{"NoteNumber":57,"Velocity":27,"Duration":200534,"SoundDuration":200534,"Delta":145958909},{"NoteNumber":72,"Velocity":35,"Duration":200641,"SoundDuration":200641,"Delta":146159444},{"NoteNumber":39,"Velocity":25,"Duration":401284,"SoundDuration":401284,"Delta":146159444},{"NoteNumber":66,"Velocity":27,"Duration":200642,"SoundDuration":200642,"Delta":146360086},{"NoteNumber":60,"Velocity":26,"Duration":208913,"SoundDuration":208913,"Delta":146560728},{"NoteNumber":72,"Velocity":34,"Duration":208913,"SoundDuration":208913,"Delta":146769642},{"NoteNumber":70,"Velocity":41,"Duration":802568,"SoundDuration":802568,"Delta":146978555},{"NoteNumber":37,"Velocity":29,"Duration":401284,"SoundDuration":401284,"Delta":146978555},{"NoteNumber":65,"Velocity":27,"Duration":200642,"SoundDuration":200642,"Delta":147179197},{"NoteNumber":58,"Velocity":27,"Duration":200641,"SoundDuration":200641,"Delta":147379839},{"NoteNumber":52,"Velocity":28,"Duration":234082,"SoundDuration":234082,"Delta":147580481},{"NoteNumber":53,"Velocity":31,"Duration":200641,"SoundDuration":200641,"Delta":147781123},{"NoteNumber":58,"Velocity":20,"Duration":200642,"SoundDuration":200642,"Delta":147981765},{"NoteNumber":65,"Velocity":19,"Duration":200641,"SoundDuration":200641,"Delta":148182407},{"NoteNumber":70,"Velocity":40,"Duration":206043,"SoundDuration":206043,"Delta":148383049},{"NoteNumber":73,"Velocity":47,"Duration":200641,"SoundDuration":200641,"Delta":148589093},{"NoteNumber":40,"Velocity":30,"Duration":401284,"SoundDuration":401284,"Delta":148589093},{"NoteNumber":66,"Velocity":32,"Duration":200642,"SoundDuration":200642,"Delta":148789735},{"NoteNumber":58,"Velocity":31,"Duration":200534,"SoundDuration":200534,"Delta":148990377},{"NoteNumber":73,"Velocity":45,"Duration":200534,"SoundDuration":200534,"Delta":149190912},{"NoteNumber":78,"Velocity":58,"Duration":200641,"SoundDuration":200641,"Delta":149391447},{"NoteNumber":39,"Velocity":35,"Duration":401284,"SoundDuration":401284,"Delta":149391447},{"NoteNumber":71,"Velocity":32,"Duration":200642,"SoundDuration":200642,"Delta":149592089},{"NoteNumber":66,"Velocity":32,"Duration":200641,"SoundDuration":200641,"Delta":149792731},{"NoteNumber":53,"Velocity":33,"Duration":234082,"SoundDuration":234082,"Delta":149993373},{"NoteNumber":54,"Velocity":37,"Duration":200641,"SoundDuration":200641,"Delta":150194015},{"NoteNumber":59,"Velocity":24,"Duration":200642,"SoundDuration":200642,"Delta":150394657},{"NoteNumber":66,"Velocity":23,"Duration":200641,"SoundDuration":200641,"Delta":150595299},{"NoteNumber":75,"Velocity":47,"Duration":225496,"SoundDuration":225496,"Delta":150795941},{"NoteNumber":73,"Velocity":56,"Duration":195312,"SoundDuration":195312,"Delta":151021437},{"NoteNumber":40,"Velocity":30,"Duration":390625,"SoundDuration":390625,"Delta":151021437},{"NoteNumber":67,"Velocity":33,"Duration":195312,"SoundDuration":195312,"Delta":151216749},{"NoteNumber":58,"Velocity":43,"Duration":200534,"SoundDuration":200534,"Delta":151412062},{"NoteNumber":70,"Velocity":49,"Duration":208275,"SoundDuration":208275,"Delta":151612597},{"NoteNumber":71,"Velocity":60,"Duration":200641,"SoundDuration":200641,"Delta":151820872},{"NoteNumber":39,"Velocity":35,"Duration":401284,"SoundDuration":401284,"Delta":151820872},{"NoteNumber":66,"Velocity":32,"Duration":200642,"SoundDuration":200642,"Delta":152021514},{"NoteNumber":59,"Velocity":32,"Duration":200641,"SoundDuration":200641,"Delta":152222156},{"NoteNumber":53,"Velocity":33,"Duration":234082,"SoundDuration":234082,"Delta":152422798},{"NoteNumber":54,"Velocity":37,"Duration":200641,"SoundDuration":200641,"Delta":152623440},{"NoteNumber":59,"Velocity":24,"Duration":200642,"SoundDuration":200642,"Delta":152824082},{"NoteNumber":66,"Velocity":23,"Duration":200641,"SoundDuration":200641,"Delta":153024724},{"NoteNumber":71,"Velocity":51,"Duration":225496,"SoundDuration":225496,"Delta":153225366},{"NoteNumber":72,"Velocity":47,"Duration":205704,"SoundDuration":205704,"Delta":153450862},{"NoteNumber":75,"Velocity":57,"Duration":205704,"SoundDuration":205704,"Delta":153450862},{"NoteNumber":42,"Velocity":33,"Duration":411409,"SoundDuration":411409,"Delta":153450862},{"NoteNumber":68,"Velocity":36,"Duration":205704,"SoundDuration":205704,"Delta":153656567},{"NoteNumber":60,"Velocity":36,"Duration":211864,"SoundDuration":211864,"Delta":153862272},{"NoteNumber":75,"Velocity":50,"Duration":211864,"SoundDuration":211864,"Delta":154074136},{"NoteNumber":80,"Velocity":62,"Duration":200641,"SoundDuration":200641,"Delta":154286001},{"NoteNumber":41,"Velocity":42,"Duration":401284,"SoundDuration":401284,"Delta":154286001},{"NoteNumber":73,"Velocity":35,"Duration":200642,"SoundDuration":200642,"Delta":154486643},{"NoteNumber":68,"Velocity":35,"Duration":200641,"SoundDuration":200641,"Delta":154687285},{"NoteNumber":55,"Velocity":38,"Duration":234082,"SoundDuration":234082,"Delta":154887927},{"NoteNumber":56,"Velocity":48,"Duration":200641,"SoundDuration":200641,"Delta":155088569},{"NoteNumber":61,"Velocity":26,"Duration":200642,"SoundDuration":200642,"Delta":155289211},{"NoteNumber":68,"Velocity":25,"Duration":200641,"SoundDuration":200641,"Delta":155489853},{"NoteNumber":73,"Velocity":49,"Duration":206043,"SoundDuration":206043,"Delta":155690495},{"NoteNumber":80,"Velocity":58,"Duration":200641,"SoundDuration":200641,"Delta":155896539},{"NoteNumber":40,"Velocity":41,"Duration":401284,"SoundDuration":401284,"Delta":155896539},{"NoteNumber":73,"Velocity":38,"Duration":200642,"SoundDuration":200642,"Delta":156097181},{"NoteNumber":68,"Velocity":39,"Duration":200641,"SoundDuration":200641,"Delta":156297823},{"NoteNumber":80,"Velocity":51,"Duration":219426,"SoundDuration":219426,"Delta":156498465},{"NoteNumber":85,"Velocity":70,"Duration":200641,"SoundDuration":200641,"Delta":156717891},{"NoteNumber":39,"Velocity":45,"Duration":401284,"SoundDuration":401284,"Delta":156717891},{"NoteNumber":79,"Velocity":38,"Duration":200642,"SoundDuration":200642,"Delta":156918533},{"NoteNumber":73,"Velocity":38,"Duration":200641,"SoundDuration":200641,"Delta":157119175},{"NoteNumber":57,"Velocity":38,"Duration":234082,"SoundDuration":234082,"Delta":157319817},{"NoteNumber":58,"Velocity":45,"Duration":200641,"SoundDuration":200641,"Delta":157520459},{"NoteNumber":61,"Velocity":28,"Duration":200642,"SoundDuration":200642,"Delta":157721101},{"NoteNumber":70,"Velocity":27,"Duration":200641,"SoundDuration":200641,"Delta":157921743},{"NoteNumber":73,"Velocity":53,"Duration":206043,"SoundDuration":206043,"Delta":158122385},{"NoteNumber":78,"Velocity":61,"Duration":200641,"SoundDuration":200641,"Delta":158328429},{"NoteNumber":38,"Velocity":45,"Duration":401284,"SoundDuration":401284,"Delta":158328429},{"NoteNumber":72,"Velocity":42,"Duration":200642,"SoundDuration":200642,"Delta":158529071},{"NoteNumber":66,"Velocity":42,"Duration":200641,"SoundDuration":200641,"Delta":158729713},{"NoteNumber":78,"Velocity":56,"Duration":219426,"SoundDuration":219426,"Delta":158930355},{"NoteNumber":83,"Velocity":66,"Duration":200641,"SoundDuration":200641,"Delta":159149782},{"NoteNumber":37,"Velocity":48,"Duration":401284,"SoundDuration":401284,"Delta":159149782},{"NoteNumber":77,"Velocity":41,"Duration":200642,"SoundDuration":200642,"Delta":159350424},{"NoteNumber":71,"Velocity":41,"Duration":200641,"SoundDuration":200641,"Delta":159551066},{"NoteNumber":55,"Velocity":42,"Duration":234082,"SoundDuration":234082,"Delta":159751708},{"NoteNumber":56,"Velocity":48,"Duration":200641,"SoundDuration":200641,"Delta":159952350},{"NoteNumber":59,"Velocity":30,"Duration":200642,"SoundDuration":200642,"Delta":160152992},{"NoteNumber":68,"Velocity":29,"Duration":200641,"SoundDuration":200641,"Delta":160353634},{"NoteNumber":71,"Velocity":53,"Duration":206043,"SoundDuration":206043,"Delta":160554276},{"NoteNumber":76,"Velocity":66,"Duration":200641,"SoundDuration":200641,"Delta":160760320},{"NoteNumber":36,"Velocity":47,"Duration":401284,"SoundDuration":401284,"Delta":160760320},{"NoteNumber":70,"Velocity":44,"Duration":200642,"SoundDuration":200642,"Delta":160960962},{"NoteNumber":64,"Velocity":45,"Duration":200641,"SoundDuration":200641,"Delta":161161604},{"NoteNumber":76,"Velocity":49,"Duration":219426,"SoundDuration":219426,"Delta":161362246},{"NoteNumber":81,"Velocity":69,"Duration":806562,"SoundDuration":806562,"Delta":161581673},{"NoteNumber":35,"Velocity":51,"Duration":411409,"SoundDuration":411409,"Delta":161581673},{"NoteNumber":75,"Velocity":47,"Duration":205704,"SoundDuration":205704,"Delta":161787377},{"NoteNumber":69,"Velocity":46,"Duration":197576,"SoundDuration":197576,"Delta":161993082},{"NoteNumber":59,"Velocity":42,"Duration":197576,"SoundDuration":197576,"Delta":162190659},{"NoteNumber":78,"Velocity":69,"Duration":774425,"SoundDuration":774425,"Delta":162388235},{"NoteNumber":75,"Velocity":47,"Duration":192357,"SoundDuration":192357,"Delta":162580592},{"NoteNumber":69,"Velocity":46,"Duration":194855,"SoundDuration":194855,"Delta":162772949},{"NoteNumber":47,"Velocity":42,"Duration":194855,"SoundDuration":194855,"Delta":162967805},{"NoteNumber":75,"Velocity":69,"Duration":834905,"SoundDuration":834905,"Delta":163162661},{"NoteNumber":69,"Velocity":47,"Duration":202922,"SoundDuration":202922,"Delta":163365583},{"NoteNumber":66,"Velocity":46,"Duration":214530,"SoundDuration":214530,"Delta":163568505},{"NoteNumber":35,"Velocity":42,"Duration":214530,"SoundDuration":214530,"Delta":163783036},{"NoteNumber":69,"Velocity":69,"Duration":806271,"SoundDuration":806271,"Delta":163997567},{"NoteNumber":63,"Velocity":43,"Duration":202922,"SoundDuration":202922,"Delta":164200489},{"NoteNumber":57,"Velocity":42,"Duration":200213,"SoundDuration":200213,"Delta":164403411},{"NoteNumber":47,"Velocity":39,"Duration":200213,"SoundDuration":200213,"Delta":164603624},{"NoteNumber":68,"Velocity":66,"Duration":779554,"SoundDuration":779554,"Delta":164803838},{"NoteNumber":63,"Velocity":43,"Duration":192357,"SoundDuration":192357,"Delta":164996195},{"NoteNumber":57,"Velocity":42,"Duration":197420,"SoundDuration":197420,"Delta":165188552},{"NoteNumber":35,"Velocity":39,"Duration":197420,"SoundDuration":197420,"Delta":165385972},{"NoteNumber":66,"Velocity":66,"Duration":898294,"SoundDuration":898294,"Delta":165583393},{"NoteNumber":63,"Velocity":43,"Duration":214530,"SoundDuration":214530,"Delta":165797923},{"NoteNumber":57,"Velocity":42,"Duration":205704,"SoundDuration":205704,"Delta":166012454},{"NoteNumber":47,"Velocity":39,"Duration":263527,"SoundDuration":263527,"Delta":166218159},{"NoteNumber":57,"Velocity":36,"Duration":131763,"SoundDuration":131763,"Delta":166349923},{"NoteNumber":63,"Velocity":36,"Duration":131763,"SoundDuration":131763,"Delta":166349923},{"NoteNumber":65,"Velocity":42,"Duration":131763,"SoundDuration":131763,"Delta":166349923},{"NoteNumber":87,"Velocity":76,"Duration":795555,"SoundDuration":795555,"Delta":166481687},{"NoteNumber":36,"Velocity":42,"Duration":405844,"SoundDuration":405844,"Delta":166481687},{"NoteNumber":41,"Velocity":42,"Duration":405844,"SoundDuration":405844,"Delta":166481687},{"NoteNumber":48,"Velocity":51,"Duration":405844,"SoundDuration":405844,"Delta":166481687},{"NoteNumber":81,"Velocity":47,"Duration":202922,"SoundDuration":202922,"Delta":166684609},{"NoteNumber":75,"Velocity":46,"Duration":194855,"SoundDuration":194855,"Delta":166887531},{"NoteNumber":65,"Velocity":42,"Duration":194855,"SoundDuration":194855,"Delta":167082387},{"NoteNumber":60,"Velocity":36,"Duration":194855,"SoundDuration":194855,"Delta":167082387},{"NoteNumber":81,"Velocity":69,"Duration":790138,"SoundDuration":790138,"Delta":167277243},{"NoteNumber":75,"Velocity":47,"Duration":200213,"SoundDuration":200213,"Delta":167477456},{"NoteNumber":69,"Velocity":46,"Duration":194855,"SoundDuration":194855,"Delta":167677670},{"NoteNumber":60,"Velocity":42,"Duration":194855,"SoundDuration":194855,"Delta":167872525},{"NoteNumber":53,"Velocity":36,"Duration":194855,"SoundDuration":194855,"Delta":167872525},{"NoteNumber":75,"Velocity":70,"Duration":790995,"SoundDuration":790995,"Delta":168067381},{"NoteNumber":69,"Velocity":47,"Duration":200642,"SoundDuration":200642,"Delta":168268023},{"NoteNumber":63,"Velocity":46,"Duration":194855,"SoundDuration":194855,"Delta":168468665},{"NoteNumber":48,"Velocity":36,"Duration":194855,"SoundDuration":194855,"Delta":168663521},{"NoteNumber":53,"Velocity":42,"Duration":194855,"SoundDuration":194855,"Delta":168663521},{"NoteNumber":69,"Velocity":65,"Duration":781486,"SoundDuration":781486,"Delta":168858377},{"NoteNumber":63,"Velocity":40,"Duration":197941,"SoundDuration":197941,"Delta":169056318},{"NoteNumber":57,"Velocity":39,"Duration":192802,"SoundDuration":192802,"Delta":169254259},{"NoteNumber":41,"Velocity":30,"Duration":192802,"SoundDuration":192802,"Delta":169447061},{"NoteNumber":48,"Velocity":36,"Duration":192802,"SoundDuration":192802,"Delta":169447061},{"NoteNumber":68,"Velocity":63,"Duration":802034,"SoundDuration":802034,"Delta":169639863},{"NoteNumber":63,"Velocity":39,"Duration":195312,"SoundDuration":195312,"Delta":169835176},{"NoteNumber":57,"Velocity":37,"Duration":205704,"SoundDuration":205704,"Delta":170030488},{"NoteNumber":29,"Velocity":35,"Duration":205704,"SoundDuration":205704,"Delta":170236193},{"NoteNumber":66,"Velocity":61,"Duration":824295,"SoundDuration":824295,"Delta":170441898},{"NoteNumber":63,"Velocity":37,"Duration":200642,"SoundDuration":200642,"Delta":170642540},{"NoteNumber":57,"Velocity":36,"Duration":211505,"SoundDuration":211505,"Delta":170843182},{"NoteNumber":41,"Velocity":28,"Duration":211505,"SoundDuration":211505,"Delta":171054688},{"NoteNumber":48,"Velocity":33,"Duration":211505,"SoundDuration":211505,"Delta":171054688},{"NoteNumber":65,"Velocity":58,"Duration":867237,"SoundDuration":867237,"Delta":171266194},{"NoteNumber":60,"Velocity":35,"Duration":215205,"SoundDuration":215205,"Delta":171477178},{"NoteNumber":57,"Velocity":33,"Duration":218604,"SoundDuration":218604,"Delta":171692383},{"NoteNumber":29,"Velocity":30,"Duration":222443,"SoundDuration":222443,"Delta":171910988},{"NoteNumber":64,"Velocity":52,"Duration":931050,"SoundDuration":931050,"Delta":172133431},{"NoteNumber":60,"Velocity":31,"Duration":230235,"SoundDuration":230235,"Delta":172359903},{"NoteNumber":57,"Velocity":29,"Duration":235047,"SoundDuration":235047,"Delta":172590139},{"NoteNumber":41,"Velocity":23,"Duration":239296,"SoundDuration":239296,"Delta":172825186},{"NoteNumber":48,"Velocity":27,"Duration":239296,"SoundDuration":239296,"Delta":172825186},{"NoteNumber":63,"Velocity":46,"Duration":2586121,"SoundDuration":2586121,"Delta":173064482},{"NoteNumber":60,"Velocity":28,"Duration":2260075,"SoundDuration":2260075,"Delta":173390528},{"NoteNumber":57,"Velocity":26,"Duration":1924944,"SoundDuration":1924944,"Delta":173725659},{"NoteNumber":29,"Velocity":25,"Duration":1581166,"SoundDuration":1581166,"Delta":174069437},{"NoteNumber":53,"Velocity":29,"Duration":981349,"SoundDuration":981349,"Delta":175650604},{"NoteNumber":57,"Velocity":29,"Duration":981349,"SoundDuration":981349,"Delta":175650604},{"NoteNumber":62,"Velocity":37,"Duration":462677,"SoundDuration":462677,"Delta":175650604},{"NoteNumber":41,"Velocity":24,"Duration":981349,"SoundDuration":981349,"Delta":175650604},{"NoteNumber":60,"Velocity":34,"Duration":518672,"SoundDuration":518672,"Delta":176113281},{"NoteNumber":51,"Velocity":20,"Duration":518672,"SoundDuration":518672,"Delta":176113281},{"NoteNumber":53,"Velocity":29,"Duration":2005628,"SoundDuration":2005628,"Delta":176631953},{"NoteNumber":57,"Velocity":29,"Duration":509857,"SoundDuration":509857,"Delta":176631953},{"NoteNumber":60,"Velocity":37,"Duration":509857,"SoundDuration":509857,"Delta":176631953},{"NoteNumber":51,"Velocity":20,"Duration":509857,"SoundDuration":509857,"Delta":176631953},{"NoteNumber":41,"Velocity":17,"Duration":1011194,"SoundDuration":1011194,"Delta":176631953},{"NoteNumber":58,"Velocity":37,"Duration":1495770,"SoundDuration":1495770,"Delta":177141811},{"NoteNumber":50,"Velocity":22,"Duration":4230722,"SoundDuration":4230722,"Delta":177141811},{"NoteNumber":40,"Velocity":22,"Duration":501337,"SoundDuration":501337,"Delta":177643148},{"NoteNumber":41,"Velocity":21,"Duration":3228048,"SoundDuration":3228048,"Delta":178144485},{"NoteNumber":76,"Velocity":39,"Duration":455649,"SoundDuration":455649,"Delta":178637581},{"NoteNumber":77,"Velocity":34,"Duration":455649,"SoundDuration":455649,"Delta":179093231},{"NoteNumber":74,"Velocity":38,"Duration":442216,"SoundDuration":442216,"Delta":179548881},{"NoteNumber":70,"Velocity":31,"Duration":469924,"SoundDuration":469924,"Delta":179991098},{"NoteNumber":65,"Velocity":32,"Duration":448833,"SoundDuration":448833,"Delta":180461023},{"NoteNumber":62,"Velocity":25,"Duration":462677,"SoundDuration":462677,"Delta":180909856},{"NoteNumber":56,"Velocity":29,"Duration":462677,"SoundDuration":462677,"Delta":181372533},{"NoteNumber":61,"Velocity":29,"Duration":462677,"SoundDuration":462677,"Delta":181372533},{"NoteNumber":65,"Velocity":37,"Duration":462677,"SoundDuration":462677,"Delta":181372533},{"NoteNumber":41,"Velocity":24,"Duration":981349,"SoundDuration":981349,"Delta":181372533},{"NoteNumber":57,"Velocity":29,"Duration":518672,"SoundDuration":518672,"Delta":181835211},{"NoteNumber":60,"Velocity":29,"Duration":518672,"SoundDuration":518672,"Delta":181835211},{"NoteNumber":63,"Velocity":34,"Duration":518672,"SoundDuration":518672,"Delta":181835211},{"NoteNumber":54,"Velocity":20,"Duration":518672,"SoundDuration":518672,"Delta":181835211},{"NoteNumber":57,"Velocity":29,"Duration":509857,"SoundDuration":509857,"Delta":182353883},{"NoteNumber":60,"Velocity":29,"Duration":509857,"SoundDuration":509857,"Delta":182353883},{"NoteNumber":63,"Velocity":37,"Duration":509857,"SoundDuration":509857,"Delta":182353883},{"NoteNumber":54,"Velocity":20,"Duration":509857,"SoundDuration":509857,"Delta":182353883},{"NoteNumber":41,"Velocity":17,"Duration":1011194,"SoundDuration":1011194,"Delta":182353883},{"NoteNumber":56,"Velocity":29,"Duration":1495770,"SoundDuration":1495770,"Delta":182863740},{"NoteNumber":61,"Velocity":37,"Duration":1495770,"SoundDuration":1495770,"Delta":182863740},{"NoteNumber":53,"Velocity":22,"Duration":4230722,"SoundDuration":4230722,"Delta":182863740},{"NoteNumber":40,"Velocity":22,"Duration":501337,"SoundDuration":501337,"Delta":183365077},{"NoteNumber":41,"Velocity":21,"Duration":3228048,"SoundDuration":3228048,"Delta":183866414},{"NoteNumber":79,"Velocity":39,"Duration":455649,"SoundDuration":455649,"Delta":184359511},{"NoteNumber":80,"Velocity":34,"Duration":455649,"SoundDuration":455649,"Delta":184815161},{"NoteNumber":77,"Velocity":38,"Duration":442216,"SoundDuration":442216,"Delta":185270811},{"NoteNumber":73,"Velocity":31,"Duration":469924,"SoundDuration":469924,"Delta":185713028},{"NoteNumber":68,"Velocity":32,"Duration":448833,"SoundDuration":448833,"Delta":186182953},{"NoteNumber":65,"Velocity":25,"Duration":462677,"SoundDuration":462677,"Delta":186631786},{"NoteNumber":73,"Velocity":68,"Duration":462677,"SoundDuration":462677,"Delta":187094463},{"NoteNumber":41,"Velocity":36,"Duration":981349,"SoundDuration":981349,"Delta":187094463},{"NoteNumber":60,"Velocity":43,"Duration":1028529,"SoundDuration":1028529,"Delta":187557140},{"NoteNumber":66,"Velocity":43,"Duration":1028529,"SoundDuration":1028529,"Delta":187557140},{"NoteNumber":72,"Velocity":49,"Duration":518672,"SoundDuration":518672,"Delta":187557140},{"NoteNumber":51,"Velocity":25,"Duration":1028529,"SoundDuration":1028529,"Delta":187557140},{"NoteNumber":57,"Velocity":30,"Duration":1028529,"SoundDuration":1028529,"Delta":187557140},{"NoteNumber":72,"Velocity":63,"Duration":509857,"SoundDuration":509857,"Delta":188075812},{"NoteNumber":41,"Velocity":26,"Duration":1011194,"SoundDuration":1011194,"Delta":188075812},{"NoteNumber":58,"Velocity":43,"Duration":1958448,"SoundDuration":1958448,"Delta":188585670},{"NoteNumber":65,"Velocity":43,"Duration":1958448,"SoundDuration":1958448,"Delta":188585670},{"NoteNumber":70,"Velocity":70,"Duration":1495770,"SoundDuration":1495770,"Delta":188585670},{"NoteNumber":50,"Velocity":25,"Duration":1958448,"SoundDuration":1958448,"Delta":188585670},{"NoteNumber":53,"Velocity":32,"Duration":1958448,"SoundDuration":1958448,"Delta":188585670},{"NoteNumber":40,"Velocity":58,"Duration":501337,"SoundDuration":501337,"Delta":189087007},{"NoteNumber":41,"Velocity":51,"Duration":2485640,"SoundDuration":2485640,"Delta":189588344},{"NoteNumber":70,"Velocity":68,"Duration":462677,"SoundDuration":462677,"Delta":190081440},{"NoteNumber":59,"Velocity":43,"Duration":1028529,"SoundDuration":1028529,"Delta":190544118},{"NoteNumber":65,"Velocity":43,"Duration":1028529,"SoundDuration":1028529,"Delta":190544118},{"NoteNumber":71,"Velocity":49,"Duration":518672,"SoundDuration":518672,"Delta":190544118},{"NoteNumber":49,"Velocity":25,"Duration":1028529,"SoundDuration":1028529,"Delta":190544118},{"NoteNumber":53,"Velocity":30,"Duration":1028529,"SoundDuration":1028529,"Delta":190544118},{"NoteNumber":71,"Velocity":65,"Duration":509857,"SoundDuration":509857,"Delta":191062790},{"NoteNumber":60,"Velocity":43,"Duration":1958448,"SoundDuration":1958448,"Delta":191572647},{"NoteNumber":64,"Velocity":43,"Duration":1958448,"SoundDuration":1958448,"Delta":191572647},{"NoteNumber":72,"Velocity":70,"Duration":1495770,"SoundDuration":1495770,"Delta":191572647},{"NoteNumber":48,"Velocity":25,"Duration":1958448,"SoundDuration":1958448,"Delta":191572647},{"NoteNumber":55,"Velocity":32,"Duration":1958448,"SoundDuration":1958448,"Delta":191572647},{"NoteNumber":40,"Velocity":56,"Duration":501337,"SoundDuration":501337,"Delta":192073984},{"NoteNumber":41,"Velocity":49,"Duration":2485640,"SoundDuration":2485640,"Delta":192575321},{"NoteNumber":72,"Velocity":62,"Duration":462677,"SoundDuration":462677,"Delta":193068418},{"NoteNumber":58,"Velocity":40,"Duration":1028529,"SoundDuration":1028529,"Delta":193531095},{"NoteNumber":64,"Velocity":40,"Duration":1028529,"SoundDuration":1028529,"Delta":193531095},{"NoteNumber":70,"Velocity":46,"Duration":518672,"SoundDuration":518672,"Delta":193531095},{"NoteNumber":48,"Velocity":23,"Duration":1028529,"SoundDuration":1028529,"Delta":193531095},{"NoteNumber":55,"Velocity":28,"Duration":1028529,"SoundDuration":1028529,"Delta":193531095},{"NoteNumber":70,"Velocity":60,"Duration":509857,"SoundDuration":509857,"Delta":194049767},{"NoteNumber":56,"Velocity":39,"Duration":1958448,"SoundDuration":1958448,"Delta":194559625},{"NoteNumber":65,"Velocity":39,"Duration":1958448,"SoundDuration":1958448,"Delta":194559625},{"NoteNumber":68,"Velocity":64,"Duration":1495770,"SoundDuration":1495770,"Delta":194559625},{"NoteNumber":49,"Velocity":23,"Duration":1958448,"SoundDuration":1958448,"Delta":194559625},{"NoteNumber":53,"Velocity":29,"Duration":1958448,"SoundDuration":1958448,"Delta":194559625},{"NoteNumber":40,"Velocity":50,"Duration":501337,"SoundDuration":501337,"Delta":195060962},{"NoteNumber":41,"Velocity":44,"Duration":2485640,"SoundDuration":2485640,"Delta":195562299},{"NoteNumber":68,"Velocity":60,"Duration":462677,"SoundDuration":462677,"Delta":196055395},{"NoteNumber":57,"Velocity":37,"Duration":1028529,"SoundDuration":1028529,"Delta":196518073},{"NoteNumber":63,"Velocity":37,"Duration":1028529,"SoundDuration":1028529,"Delta":196518073},{"NoteNumber":69,"Velocity":43,"Duration":518672,"SoundDuration":518672,"Delta":196518073},{"NoteNumber":47,"Velocity":22,"Duration":1028529,"SoundDuration":1028529,"Delta":196518073},{"NoteNumber":53,"Velocity":26,"Duration":1028529,"SoundDuration":1028529,"Delta":196518073},{"NoteNumber":69,"Velocity":51,"Duration":509857,"SoundDuration":509857,"Delta":197036745},{"NoteNumber":58,"Velocity":36,"Duration":2023568,"SoundDuration":2023568,"Delta":197546602},{"NoteNumber":62,"Velocity":36,"Duration":2023568,"SoundDuration":2023568,"Delta":197546602},{"NoteNumber":70,"Velocity":59,"Duration":1495770,"SoundDuration":1495770,"Delta":197546602},{"NoteNumber":46,"Velocity":21,"Duration":2023568,"SoundDuration":2023568,"Delta":197546602},{"NoteNumber":53,"Velocity":27,"Duration":2023568,"SoundDuration":2023568,"Delta":197546602},{"NoteNumber":40,"Velocity":46,"Duration":501337,"SoundDuration":501337,"Delta":198047939},{"NoteNumber":41,"Velocity":40,"Duration":2771054,"SoundDuration":2771054,"Delta":198549276},{"NoteNumber":58,"Velocity":52,"Duration":1699254,"SoundDuration":1699254,"Delta":199042373},{"NoteNumber":61,"Velocity":38,"Duration":557206,"SoundDuration":557206,"Delta":199570170},{"NoteNumber":46,"Velocity":19,"Duration":1171457,"SoundDuration":1171457,"Delta":199570170},{"NoteNumber":53,"Velocity":23,"Duration":1171457,"SoundDuration":1171457,"Delta":199570170},{"NoteNumber":61,"Velocity":50,"Duration":614250,"SoundDuration":614250,"Delta":200127377},{"NoteNumber":60,"Velocity":44,"Duration":1759333,"SoundDuration":1759333,"Delta":200741627},{"NoteNumber":53,"Velocity":32,"Duration":2386424,"SoundDuration":2386424,"Delta":200741627},{"NoteNumber":58,"Velocity":32,"Duration":3947783,"SoundDuration":3947783,"Delta":200741627},{"NoteNumber":65,"Velocity":52,"Duration":1759333,"SoundDuration":1759333,"Delta":200741627},{"NoteNumber":48,"Velocity":24,"Duration":3947783,"SoundDuration":3947783,"Delta":200741627},{"NoteNumber":40,"Velocity":40,"Duration":578703,"SoundDuration":578703,"Delta":201320331},{"NoteNumber":41,"Velocity":34,"Duration":2790375,"SoundDuration":2790375,"Delta":201899035},{"NoteNumber":53,"Velocity":39,"Duration":627090,"SoundDuration":627090,"Delta":202500961},{"NoteNumber":60,"Velocity":32,"Duration":700279,"SoundDuration":700279,"Delta":203128051},{"NoteNumber":60,"Velocity":33,"Duration":861079,"SoundDuration":861079,"Delta":203828331},{"NoteNumber":63,"Velocity":27,"Duration":1368613,"SoundDuration":1368613,"Delta":204689410},{"NoteNumber":57,"Velocity":22,"Duration":1368613,"SoundDuration":1368613,"Delta":204689410},{"NoteNumber":54,"Velocity":22,"Duration":1368613,"SoundDuration":1368613,"Delta":204689410},{"NoteNumber":29,"Velocity":25,"Duration":3616979,"SoundDuration":3616979,"Delta":204689410},{"NoteNumber":61,"Velocity":24,"Duration":1434034,"SoundDuration":1434034,"Delta":206058023},{"NoteNumber":57,"Velocity":20,"Duration":1434034,"SoundDuration":1434034,"Delta":206058023},{"NoteNumber":53,"Velocity":20,"Duration":1434034,"SoundDuration":1434034,"Delta":206058023},{"NoteNumber":60,"Velocity":22,"Duration":4072541,"SoundDuration":4072541,"Delta":207492058},{"NoteNumber":57,"Velocity":18,"Duration":4072541,"SoundDuration":4072541,"Delta":207492058},{"NoteNumber":51,"Velocity":18,"Duration":4072541,"SoundDuration":4072541,"Delta":207492058},{"NoteNumber":22,"Velocity":25,"Duration":654450,"SoundDuration":654450,"Delta":209120722},{"NoteNumber":34,"Velocity":21,"Duration":612494,"SoundDuration":612494,"Delta":209775173},{"NoteNumber":41,"Velocity":21,"Duration":588466,"SoundDuration":588466,"Delta":210387668},{"NoteNumber":46,"Velocity":21,"Duration":588465,"SoundDuration":588465,"Delta":210976134},{"NoteNumber":58,"Velocity":22,"Duration":1152412,"SoundDuration":1152412,"Delta":211564600},{"NoteNumber":49,"Velocity":21,"Duration":588466,"SoundDuration":588466,"Delta":211564600},{"NoteNumber":53,"Velocity":21,"Duration":588465,"SoundDuration":588465,"Delta":212153066},{"NoteNumber":46,"Velocity":22,"Duration":2353864,"SoundDuration":2353864,"Delta":212741532},{"NoteNumber":58,"Velocity":26,"Duration":588466,"SoundDuration":588466,"Delta":212741532},{"NoteNumber":61,"Velocity":25,"Duration":588466,"SoundDuration":588466,"Delta":213329998},{"NoteNumber":65,"Velocity":20,"Duration":588465,"SoundDuration":588465,"Delta":213918464},{"NoteNumber":70,"Velocity":20,"Duration":588466,"SoundDuration":588466,"Delta":214506930},{"NoteNumber":73,"Velocity":20,"Duration":707894,"SoundDuration":707894,"Delta":215095396},{"NoteNumber":34,"Velocity":19,"Duration":1743091,"SoundDuration":1743091,"Delta":215095396},{"NoteNumber":89,"Velocity":20,"Duration":1035196,"SoundDuration":1035196,"Delta":215803290},{"NoteNumber":77,"Velocity":17,"Duration":1035196,"SoundDuration":1035196,"Delta":215803290},{"NoteNumber":82,"Velocity":18,"Duration":6211180,"SoundDuration":6211180,"Delta":216838487},{"NoteNumber":94,"Velocity":22,"Duration":6211180,"SoundDuration":6211180,"Delta":216838487},{"NoteNumber":49,"Velocity":19,"Duration":6211180,"SoundDuration":6211180,"Delta":216838487},{"NoteNumber":41,"Velocity":16,"Duration":6211180,"SoundDuration":6211180,"Delta":216838487},{"NoteNumber":34,"Velocity":16,"Duration":6211180,"SoundDuration":6211180,"Delta":216838487}],"license":{"name":"Creative Commons Attribution-ShareAlike 3.0 Germany","url":"http://creativecommons.org/licenses/by-sa/3.0/de/deed.en","text":"The MIDI, audio (MP3, OGG) and video files of Bernd Krueger are licensed under the cc-by-sa Germany License. This means that you can use and adapt the files, as long as you attribute the copyright holder.\n\nName: Bernd Krueger\nSource: http://www.piano-midi.de\n\nThe distribution or public playback of the files is only allowed under identical license conditions.\n\nThe scores are open source.","attribution":"MIDI files by Bernd Krueger (piano-midi.de)","attributionUrl":"http://www.piano-midi.de"}}