{"title":"Intermezzo in A minor, Op. 116 No. 2","artist":"Brahms","durationMs":160234,"midiSha256":"ec9522b907937d500ee7d45a9b395fd0fbd878c6515291035c094bb7e15426b6","midiObject":[{"NoteNumber":72,"Velocity":56,"Duration":411128,"SoundDuration":411128,"Delta":0},{"NoteNumber":69,"Velocity":50,"Duration":411128,"SoundDuration":411128,"Delta":0},{"NoteNumber":33,"Velocity":43,"Duration":274085,"SoundDuration":274085,"Delta":0},{"NoteNumber":45,"Velocity":45,"Duration":274085,"SoundDuration":274085,"Delta":274085},{"NoteNumber":72,"Velocity":60,"Duration":430599,"SoundDuration":430599,"Delta":411128},{"NoteNumber":69,"Velocity":54,"Duration":430599,"SoundDuration":430599,"Delta":411128},{"NoteNumber":52,"Velocity":48,"Duration":293556,"SoundDuration":293556,"Delta":548170},{"NoteNumber":74,"Velocity":37,"Duration":1644512,"SoundDuration":1644512,"Delta":841727},{"NoteNumber":65,"Velocity":33,"Duration":1644512,"SoundDuration":1644512,"Delta":841727},{"NoteNumber":69,"Velocity":33,"Duration":1644512,"SoundDuration":1644512,"Delta":841727},{"NoteNumber":45,"Velocity":31,"Duration":1644512,"SoundDuration":1644512,"Delta":841727},{"NoteNumber":50,"Velocity":35,"Duration":1644512,"SoundDuration":1644512,"Delta":841727},{"NoteNumber":69,"Velocity":51,"Duration":411128,"SoundDuration":411128,"Delta":2486239},{"NoteNumber":72,"Velocity":57,"Duration":411128,"SoundDuration":411128,"Delta":2486239},{"NoteNumber":33,"Velocity":40,"Duration":274085,"SoundDuration":274085,"Delta":2486239},{"NoteNumber":45,"Velocity":46,"Duration":274085,"SoundDuration":274085,"Delta":2760324},{"NoteNumber":72,"Velocity":59,"Duration":432550,"SoundDuration":432550,"Delta":2897367},{"NoteNumber":69,"Velocity":53,"Duration":432550,"SoundDuration":432550,"Delta":2897367},{"NoteNumber":52,"Velocity":49,"Duration":295508,"SoundDuration":295508,"Delta":3034409},{"NoteNumber":62,"Velocity":33,"Duration":1644511,"SoundDuration":1644511,"Delta":3329918},{"NoteNumber":71,"Velocity":37,"Duration":1644511,"SoundDuration":1644511,"Delta":3329918},{"NoteNumber":68,"Velocity":33,"Duration":1644511,"SoundDuration":1644511,"Delta":3329918},{"NoteNumber":45,"Velocity":29,"Duration":1644511,"SoundDuration":1644511,"Delta":3329918},{"NoteNumber":53,"Velocity":33,"Duration":1644511,"SoundDuration":1644511,"Delta":3329918},{"NoteNumber":69,"Velocity":56,"Duration":411128,"SoundDuration":411128,"Delta":4974430},{"NoteNumber":66,"Velocity":50,"Duration":411128,"SoundDuration":411128,"Delta":4974430},{"NoteNumber":33,"Velocity":42,"Duration":274085,"SoundDuration":274085,"Delta":4974430},{"NoteNumber":45,"Velocity":42,"Duration":274085,"SoundDuration":274085,"Delta":5248515},{"NoteNumber":66,"Velocity":48,"Duration":430598,"SoundDuration":430598,"Delta":5385558},{"NoteNumber":69,"Velocity":54,"Duration":430598,"SoundDuration":430598,"Delta":5385558},{"NoteNumber":48,"Velocity":42,"Duration":293556,"SoundDuration":293556,"Delta":5522600},{"NoteNumber":72,"Velocity":52,"Duration":841515,"SoundDuration":841515,"Delta":5816157},{"NoteNumber":60,"Velocity":47,"Duration":841515,"SoundDuration":841515,"Delta":5816157},{"NoteNumber":45,"Velocity":32,"Duration":1683029,"SoundDuration":1683029,"Delta":5816157},{"NoteNumber":51,"Velocity":36,"Duration":1683029,"SoundDuration":1683029,"Delta":5816157},{"NoteNumber":66,"Velocity":43,"Duration":841514,"SoundDuration":841514,"Delta":6657672},{"NoteNumber":69,"Velocity":48,"Duration":841514,"SoundDuration":841514,"Delta":6657672},{"NoteNumber":64,"Velocity":39,"Duration":841515,"SoundDuration":841515,"Delta":7499187},{"NoteNumber":68,"Velocity":45,"Duration":841515,"SoundDuration":841515,"Delta":7499187},{"NoteNumber":40,"Velocity":33,"Duration":280505,"SoundDuration":280505,"Delta":7499187},{"NoteNumber":47,"Velocity":30,"Duration":280504,"SoundDuration":280504,"Delta":7779692},{"NoteNumber":52,"Velocity":29,"Duration":2053554,"SoundDuration":2053554,"Delta":8060197},{"NoteNumber":59,"Velocity":33,"Duration":1773049,"SoundDuration":1773049,"Delta":8340702},{"NoteNumber":68,"Velocity":33,"Duration":1773049,"SoundDuration":1773049,"Delta":8340702},{"NoteNumber":71,"Velocity":37,"Duration":1773049,"SoundDuration":1773049,"Delta":8340702},{"NoteNumber":40,"Velocity":28,"Duration":1773049,"SoundDuration":1773049,"Delta":8340702},{"NoteNumber":72,"Velocity":55,"Duration":397088,"SoundDuration":397088,"Delta":10113752},{"NoteNumber":69,"Velocity":49,"Duration":397088,"SoundDuration":397088,"Delta":10113752},{"NoteNumber":33,"Velocity":42,"Duration":264725,"SoundDuration":264725,"Delta":10113752},{"NoteNumber":45,"Velocity":46,"Duration":264725,"SoundDuration":264725,"Delta":10378477},{"NoteNumber":69,"Velocity":52,"Duration":420215,"SoundDuration":420215,"Delta":10510840},{"NoteNumber":72,"Velocity":58,"Duration":420215,"SoundDuration":420215,"Delta":10510840},{"NoteNumber":52,"Velocity":50,"Duration":287852,"SoundDuration":287852,"Delta":10643202},{"NoteNumber":76,"Velocity":53,"Duration":1588352,"SoundDuration":1588352,"Delta":10931055},{"NoteNumber":64,"Velocity":47,"Duration":1588352,"SoundDuration":1588352,"Delta":10931055},{"NoteNumber":73,"Velocity":47,"Duration":1588352,"SoundDuration":1588352,"Delta":10931055},{"NoteNumber":45,"Velocity":40,"Duration":1588352,"SoundDuration":1588352,"Delta":10931055},{"NoteNumber":57,"Velocity":46,"Duration":1588352,"SoundDuration":1588352,"Delta":10931055},{"NoteNumber":74,"Velocity":56,"Duration":402955,"SoundDuration":402955,"Delta":12519407},{"NoteNumber":77,"Velocity":63,"Duration":402955,"SoundDuration":402955,"Delta":12519407},{"NoteNumber":38,"Velocity":48,"Duration":268636,"SoundDuration":268636,"Delta":12519407},{"NoteNumber":50,"Velocity":51,"Duration":268636,"SoundDuration":268636,"Delta":12788044},{"NoteNumber":77,"Velocity":68,"Duration":422170,"SoundDuration":422170,"Delta":12922362},{"NoteNumber":74,"Velocity":60,"Duration":422170,"SoundDuration":422170,"Delta":12922362},{"NoteNumber":57,"Velocity":54,"Duration":287852,"SoundDuration":287852,"Delta":13056680},{"NoteNumber":69,"Velocity":59,"Duration":1727116,"SoundDuration":1727116,"Delta":13344533},{"NoteNumber":81,"Velocity":67,"Duration":1727116,"SoundDuration":1727116,"Delta":13344533},{"NoteNumber":78,"Velocity":59,"Duration":1727116,"SoundDuration":1727116,"Delta":13344533},{"NoteNumber":51,"Velocity":46,"Duration":1727116,"SoundDuration":1727116,"Delta":13344533},{"NoteNumber":60,"Velocity":51,"Duration":1727116,"SoundDuration":1727116,"Delta":13344533},{"NoteNumber":67,"Velocity":61,"Duration":452284,"SoundDuration":452284,"Delta":15071649},{"NoteNumber":72,"Velocity":61,"Duration":1735707,"SoundDuration":1735707,"Delta":15071649},{"NoteNumber":79,"Velocity":69,"Duration":452284,"SoundDuration":452284,"Delta":15071649},{"NoteNumber":40,"Velocity":49,"Duration":301522,"SoundDuration":301522,"Delta":15071649},{"NoteNumber":52,"Velocity":49,"Duration":301522,"SoundDuration":301522,"Delta":15373172},{"NoteNumber":67,"Velocity":61,"Duration":452283,"SoundDuration":452283,"Delta":15523933},{"NoteNumber":79,"Velocity":69,"Duration":452283,"SoundDuration":452283,"Delta":15523933},{"NoteNumber":55,"Velocity":49,"Duration":301522,"SoundDuration":301522,"Delta":15674694},{"NoteNumber":76,"Velocity":69,"Duration":831139,"SoundDuration":831139,"Delta":15976217},{"NoteNumber":68,"Velocity":61,"Duration":831139,"SoundDuration":831139,"Delta":15976217},{"NoteNumber":60,"Velocity":46,"Duration":1246709,"SoundDuration":1246709,"Delta":15976217},{"NoteNumber":52,"Velocity":40,"Duration":831139,"SoundDuration":831139,"Delta":15976217},{"NoteNumber":72,"Velocity":59,"Duration":832459,"SoundDuration":832459,"Delta":16807357},{"NoteNumber":69,"Velocity":53,"Duration":832459,"SoundDuration":832459,"Delta":16807357},{"NoteNumber":53,"Velocity":39,"Duration":832459,"SoundDuration":832459,"Delta":16807357},{"NoteNumber":57,"Velocity":26,"Duration":416889,"SoundDuration":416889,"Delta":17222927},{"NoteNumber":71,"Velocity":55,"Duration":862813,"SoundDuration":862813,"Delta":17639817},{"NoteNumber":68,"Velocity":49,"Duration":862813,"SoundDuration":862813,"Delta":17639817},{"NoteNumber":64,"Velocity":49,"Duration":2588439,"SoundDuration":2588439,"Delta":17639817},{"NoteNumber":76,"Velocity":55,"Duration":2588439,"SoundDuration":2588439,"Delta":17639817},{"NoteNumber":52,"Velocity":48,"Duration":431406,"SoundDuration":431406,"Delta":17639817},{"NoteNumber":52,"Velocity":45,"Duration":2157032,"SoundDuration":2157032,"Delta":18071223},{"NoteNumber":69,"Velocity":52,"Duration":1725625,"SoundDuration":1725625,"Delta":18502630},{"NoteNumber":48,"Velocity":40,"Duration":862812,"SoundDuration":862812,"Delta":18502630},{"NoteNumber":45,"Velocity":36,"Duration":862812,"SoundDuration":862812,"Delta":19365443},{"NoteNumber":59,"Velocity":35,"Duration":913520,"SoundDuration":913520,"Delta":20228256},{"NoteNumber":56,"Velocity":35,"Duration":913520,"SoundDuration":913520,"Delta":20228256},{"NoteNumber":64,"Velocity":40,"Duration":2939520,"SoundDuration":2939520,"Delta":20228256},{"NoteNumber":52,"Velocity":40,"Duration":2939520,"SoundDuration":2939520,"Delta":20228256},{"NoteNumber":40,"Velocity":39,"Duration":456759,"SoundDuration":456759,"Delta":20228256},{"NoteNumber":40,"Velocity":39,"Duration":456760,"SoundDuration":456760,"Delta":20685016},{"NoteNumber":57,"Velocity":34,"Duration":2025999,"SoundDuration":2025999,"Delta":21141776},{"NoteNumber":36,"Velocity":42,"Duration":1012999,"SoundDuration":1012999,"Delta":21141776},{"NoteNumber":33,"Velocity":32,"Duration":1263501,"SoundDuration":1263501,"Delta":22154776},{"NoteNumber":69,"Velocity":38,"Duration":375751,"SoundDuration":375751,"Delta":23167776},{"NoteNumber":72,"Velocity":44,"Duration":375751,"SoundDuration":375751,"Delta":23167776},{"NoteNumber":45,"Velocity":29,"Duration":250500,"SoundDuration":250500,"Delta":23418277},{"NoteNumber":69,"Velocity":38,"Duration":375751,"SoundDuration":375751,"Delta":23543527},{"NoteNumber":72,"Velocity":44,"Duration":375751,"SoundDuration":375751,"Delta":23543527},{"NoteNumber":52,"Velocity":28,"Duration":250500,"SoundDuration":250500,"Delta":23668778},{"NoteNumber":71,"Velocity":42,"Duration":397088,"SoundDuration":397088,"Delta":23919279},{"NoteNumber":65,"Velocity":42,"Duration":397088,"SoundDuration":397088,"Delta":23919279},{"NoteNumber":74,"Velocity":47,"Duration":397088,"SoundDuration":397088,"Delta":23919279},{"NoteNumber":45,"Velocity":28,"Duration":264725,"SoundDuration":264725,"Delta":23919279},{"NoteNumber":50,"Velocity":28,"Duration":264725,"SoundDuration":264725,"Delta":24184004},{"NoteNumber":69,"Velocity":38,"Duration":397088,"SoundDuration":397088,"Delta":24316367},{"NoteNumber":72,"Velocity":44,"Duration":397088,"SoundDuration":397088,"Delta":24316367},{"NoteNumber":53,"Velocity":28,"Duration":264725,"SoundDuration":264725,"Delta":24448729},{"NoteNumber":65,"Velocity":38,"Duration":827130,"SoundDuration":827130,"Delta":24713455},{"NoteNumber":71,"Velocity":38,"Duration":827130,"SoundDuration":827130,"Delta":24713455},{"NoteNumber":74,"Velocity":38,"Duration":827130,"SoundDuration":827130,"Delta":24713455},{"NoteNumber":45,"Velocity":28,"Duration":827130,"SoundDuration":827130,"Delta":24713455},{"NoteNumber":72,"Velocity":47,"Duration":379843,"SoundDuration":379843,"Delta":25540585},{"NoteNumber":69,"Velocity":42,"Duration":379843,"SoundDuration":379843,"Delta":25540585},{"NoteNumber":33,"Velocity":28,"Duration":253228,"SoundDuration":253228,"Delta":25540585},{"NoteNumber":45,"Velocity":29,"Duration":253228,"SoundDuration":253228,"Delta":25793813},{"NoteNumber":69,"Velocity":42,"Duration":379842,"SoundDuration":379842,"Delta":25920428},{"NoteNumber":72,"Velocity":47,"Duration":379842,"SoundDuration":379842,"Delta":25920428},{"NoteNumber":52,"Velocity":30,"Duration":253228,"SoundDuration":253228,"Delta":26047042},{"NoteNumber":71,"Velocity":44,"Duration":401659,"SoundDuration":401659,"Delta":26300271},{"NoteNumber":62,"Velocity":39,"Duration":401659,"SoundDuration":401659,"Delta":26300271},{"NoteNumber":68,"Velocity":39,"Duration":401659,"SoundDuration":401659,"Delta":26300271},{"NoteNumber":45,"Velocity":29,"Duration":267773,"SoundDuration":267773,"Delta":26300271},{"NoteNumber":53,"Velocity":28,"Duration":267773,"SoundDuration":267773,"Delta":26568044},{"NoteNumber":65,"Velocity":38,"Duration":401659,"SoundDuration":401659,"Delta":26701931},{"NoteNumber":69,"Velocity":38,"Duration":401659,"SoundDuration":401659,"Delta":26701931},{"NoteNumber":50,"Velocity":28,"Duration":267773,"SoundDuration":267773,"Delta":26835817},{"NoteNumber":68,"Velocity":37,"Duration":803319,"SoundDuration":803319,"Delta":27103591},{"NoteNumber":71,"Velocity":37,"Duration":803319,"SoundDuration":803319,"Delta":27103591},{"NoteNumber":62,"Velocity":37,"Duration":803319,"SoundDuration":803319,"Delta":27103591},{"NoteNumber":45,"Velocity":28,"Duration":803319,"SoundDuration":803319,"Delta":27103591},{"NoteNumber":69,"Velocity":45,"Duration":377786,"SoundDuration":377786,"Delta":27906911},{"NoteNumber":66,"Velocity":39,"Duration":377786,"SoundDuration":377786,"Delta":27906911},{"NoteNumber":33,"Velocity":29,"Duration":251857,"SoundDuration":251857,"Delta":27906911},{"NoteNumber":45,"Velocity":32,"Duration":251857,"SoundDuration":251857,"Delta":28158768},{"NoteNumber":69,"Velocity":46,"Duration":755572,"SoundDuration":755572,"Delta":28284697},{"NoteNumber":66,"Velocity":40,"Duration":377786,"SoundDuration":377786,"Delta":28284697},{"NoteNumber":48,"Velocity":34,"Duration":251857,"SoundDuration":251857,"Delta":28410625},{"NoteNumber":60,"Velocity":46,"Duration":377786,"SoundDuration":377786,"Delta":28662483},{"NoteNumber":72,"Velocity":51,"Duration":377786,"SoundDuration":377786,"Delta":28662483},{"NoteNumber":45,"Velocity":37,"Duration":251857,"SoundDuration":251857,"Delta":28662483},{"NoteNumber":54,"Velocity":35,"Duration":251857,"SoundDuration":251857,"Delta":28914340},{"NoteNumber":71,"Velocity":48,"Duration":377786,"SoundDuration":377786,"Delta":29040269},{"NoteNumber":68,"Velocity":43,"Duration":377786,"SoundDuration":377786,"Delta":29040269},{"NoteNumber":51,"Velocity":35,"Duration":251857,"SoundDuration":251857,"Delta":29166197},{"NoteNumber":60,"Velocity":43,"Duration":377785,"SoundDuration":377785,"Delta":29418055},{"NoteNumber":72,"Velocity":48,"Duration":377785,"SoundDuration":377785,"Delta":29418055},{"NoteNumber":69,"Velocity":43,"Duration":377785,"SoundDuration":377785,"Delta":29418055},{"NoteNumber":45,"Velocity":33,"Duration":251857,"SoundDuration":251857,"Delta":29418055},{"NoteNumber":54,"Velocity":33,"Duration":251857,"SoundDuration":251857,"Delta":29669912},{"NoteNumber":69,"Velocity":46,"Duration":377786,"SoundDuration":377786,"Delta":29795841},{"NoteNumber":66,"Velocity":40,"Duration":377786,"SoundDuration":377786,"Delta":29795841},{"NoteNumber":51,"Velocity":33,"Duration":251857,"SoundDuration":251857,"Delta":29921769},{"NoteNumber":64,"Velocity":39,"Duration":791557,"SoundDuration":791557,"Delta":30173627},{"NoteNumber":68,"Velocity":45,"Duration":791557,"SoundDuration":791557,"Delta":30173627},{"NoteNumber":40,"Velocity":30,"Duration":2443311,"SoundDuration":2443311,"Delta":30173627},{"NoteNumber":47,"Velocity":32,"Duration":263852,"SoundDuration":263852,"Delta":30437479},{"NoteNumber":52,"Velocity":32,"Duration":1915606,"SoundDuration":1915606,"Delta":30701331},{"NoteNumber":68,"Velocity":34,"Duration":1651754,"SoundDuration":1651754,"Delta":30965184},{"NoteNumber":71,"Velocity":38,"Duration":1651754,"SoundDuration":1651754,"Delta":30965184},{"NoteNumber":59,"Velocity":34,"Duration":1651754,"SoundDuration":1651754,"Delta":30965184},{"NoteNumber":72,"Velocity":58,"Duration":369776,"SoundDuration":369776,"Delta":32616938},{"NoteNumber":69,"Velocity":52,"Duration":369776,"SoundDuration":369776,"Delta":32616938},{"NoteNumber":33,"Velocity":43,"Duration":246518,"SoundDuration":246518,"Delta":32616938},{"NoteNumber":45,"Velocity":43,"Duration":246517,"SoundDuration":246517,"Delta":32863456},{"NoteNumber":72,"Velocity":58,"Duration":369776,"SoundDuration":369776,"Delta":32986715},{"NoteNumber":69,"Velocity":52,"Duration":369776,"SoundDuration":369776,"Delta":32986715},{"NoteNumber":52,"Velocity":43,"Duration":246518,"SoundDuration":246518,"Delta":33109974},{"NoteNumber":76,"Velocity":58,"Duration":369776,"SoundDuration":369776,"Delta":33356492},{"NoteNumber":73,"Velocity":52,"Duration":369776,"SoundDuration":369776,"Delta":33356492},{"NoteNumber":64,"Velocity":52,"Duration":369776,"SoundDuration":369776,"Delta":33356492},{"NoteNumber":45,"Velocity":43,"Duration":246518,"SoundDuration":246518,"Delta":33356492},{"NoteNumber":57,"Velocity":43,"Duration":246518,"SoundDuration":246518,"Delta":33603010},{"NoteNumber":71,"Velocity":52,"Duration":369776,"SoundDuration":369776,"Delta":33726269},{"NoteNumber":65,"Velocity":52,"Duration":369776,"SoundDuration":369776,"Delta":33726269},{"NoteNumber":74,"Velocity":58,"Duration":369776,"SoundDuration":369776,"Delta":33726269},{"NoteNumber":50,"Velocity":43,"Duration":246517,"SoundDuration":246517,"Delta":33849528},{"NoteNumber":76,"Velocity":58,"Duration":739554,"SoundDuration":739554,"Delta":34096046},{"NoteNumber":64,"Velocity":52,"Duration":369777,"SoundDuration":369777,"Delta":34096046},{"NoteNumber":73,"Velocity":58,"Duration":739554,"SoundDuration":739554,"Delta":34096046},{"NoteNumber":45,"Velocity":45,"Duration":246518,"SoundDuration":246518,"Delta":34096046},{"NoteNumber":57,"Velocity":45,"Duration":246518,"SoundDuration":246518,"Delta":34342564},{"NoteNumber":79,"Velocity":61,"Duration":369776,"SoundDuration":369776,"Delta":34465823},{"NoteNumber":69,"Velocity":55,"Duration":369776,"SoundDuration":369776,"Delta":34465823},{"NoteNumber":52,"Velocity":46,"Duration":246518,"SoundDuration":246518,"Delta":34589082},{"NoteNumber":74,"Velocity":52,"Duration":369776,"SoundDuration":369776,"Delta":34835600},{"NoteNumber":77,"Velocity":58,"Duration":369776,"SoundDuration":369776,"Delta":34835600},{"NoteNumber":69,"Velocity":52,"Duration":369776,"SoundDuration":369776,"Delta":34835600},{"NoteNumber":38,"Velocity":42,"Duration":246517,"SoundDuration":246517,"Delta":34835600},{"NoteNumber":50,"Velocity":44,"Duration":246518,"SoundDuration":246518,"Delta":35082118},{"NoteNumber":74,"Velocity":52,"Duration":369776,"SoundDuration":369776,"Delta":35205377},{"NoteNumber":69,"Velocity":52,"Duration":369776,"SoundDuration":369776,"Delta":35205377},{"NoteNumber":77,"Velocity":58,"Duration":369776,"SoundDuration":369776,"Delta":35205377},{"NoteNumber":57,"Velocity":44,"Duration":246518,"SoundDuration":246518,"Delta":35328636},{"NoteNumber":81,"Velocity":63,"Duration":369776,"SoundDuration":369776,"Delta":35575154},{"NoteNumber":78,"Velocity":56,"Duration":369776,"SoundDuration":369776,"Delta":35575154},{"NoteNumber":72,"Velocity":56,"Duration":369776,"SoundDuration":369776,"Delta":35575154},{"NoteNumber":51,"Velocity":47,"Duration":246518,"SoundDuration":246518,"Delta":35575154},{"NoteNumber":60,"Velocity":46,"Duration":246517,"SoundDuration":246517,"Delta":35821672},{"NoteNumber":77,"Velocity":60,"Duration":369776,"SoundDuration":369776,"Delta":35944931},{"NoteNumber":80,"Velocity":60,"Duration":369776,"SoundDuration":369776,"Delta":35944931},{"NoteNumber":71,"Velocity":54,"Duration":369776,"SoundDuration":369776,"Delta":35944931},{"NoteNumber":57,"Velocity":46,"Duration":246518,"SoundDuration":246518,"Delta":36068190},{"NoteNumber":81,"Velocity":66,"Duration":796284,"SoundDuration":796284,"Delta":36314708},{"NoteNumber":72,"Velocity":58,"Duration":398142,"SoundDuration":398142,"Delta":36314708},{"NoteNumber":78,"Velocity":58,"Duration":796284,"SoundDuration":796284,"Delta":36314708},{"NoteNumber":51,"Velocity":48,"Duration":265428,"SoundDuration":265428,"Delta":36314708},{"NoteNumber":60,"Velocity":49,"Duration":265428,"SoundDuration":265428,"Delta":36580136},{"NoteNumber":84,"Velocity":67,"Duration":398142,"SoundDuration":398142,"Delta":36712850},{"NoteNumber":57,"Velocity":49,"Duration":265428,"SoundDuration":265428,"Delta":36845564},{"NoteNumber":79,"Velocity":68,"Duration":418176,"SoundDuration":418176,"Delta":37110992},{"NoteNumber":72,"Velocity":60,"Duration":418176,"SoundDuration":418176,"Delta":37110992},{"NoteNumber":67,"Velocity":60,"Duration":418176,"SoundDuration":418176,"Delta":37110992},{"NoteNumber":40,"Velocity":50,"Duration":278784,"SoundDuration":278784,"Delta":37110992},{"NoteNumber":52,"Velocity":46,"Duration":278784,"SoundDuration":278784,"Delta":37389776},{"NoteNumber":72,"Velocity":61,"Duration":1212352,"SoundDuration":1212352,"Delta":37529168},{"NoteNumber":67,"Velocity":61,"Duration":418176,"SoundDuration":418176,"Delta":37529168},{"NoteNumber":79,"Velocity":61,"Duration":418176,"SoundDuration":418176,"Delta":37529168},{"NoteNumber":55,"Velocity":47,"Duration":278784,"SoundDuration":278784,"Delta":37668560},{"NoteNumber":68,"Velocity":60,"Duration":794176,"SoundDuration":794176,"Delta":37947345},{"NoteNumber":77,"Velocity":68,"Duration":397087,"SoundDuration":397087,"Delta":37947345},{"NoteNumber":52,"Velocity":51,"Duration":794176,"SoundDuration":794176,"Delta":37947345},{"NoteNumber":60,"Velocity":47,"Duration":529450,"SoundDuration":529450,"Delta":38212070},{"NoteNumber":76,"Velocity":64,"Duration":397088,"SoundDuration":397088,"Delta":38344433},{"NoteNumber":74,"Velocity":63,"Duration":397087,"SoundDuration":397087,"Delta":38741521},{"NoteNumber":69,"Velocity":56,"Duration":794176,"SoundDuration":794176,"Delta":38741521},{"NoteNumber":53,"Velocity":50,"Duration":794176,"SoundDuration":794176,"Delta":38741521},{"NoteNumber":57,"Velocity":47,"Duration":529450,"SoundDuration":529450,"Delta":39006246},{"NoteNumber":72,"Velocity":57,"Duration":397088,"SoundDuration":397088,"Delta":39138609},{"NoteNumber":71,"Velocity":56,"Duration":812787,"SoundDuration":812787,"Delta":39535697},{"NoteNumber":64,"Velocity":50,"Duration":2438364,"SoundDuration":2438364,"Delta":39535697},{"NoteNumber":68,"Velocity":50,"Duration":812787,"SoundDuration":812787,"Delta":39535697},{"NoteNumber":76,"Velocity":56,"Duration":2438364,"SoundDuration":2438364,"Delta":39535697},{"NoteNumber":52,"Velocity":49,"Duration":406393,"SoundDuration":406393,"Delta":39535697},{"NoteNumber":52,"Velocity":49,"Duration":2031970,"SoundDuration":2031970,"Delta":39942091},{"NoteNumber":69,"Velocity":55,"Duration":1625576,"SoundDuration":1625576,"Delta":40348485},{"NoteNumber":50,"Velocity":48,"Duration":406394,"SoundDuration":406394,"Delta":40348485},{"NoteNumber":48,"Velocity":46,"Duration":423327,"SoundDuration":423327,"Delta":40754879},{"NoteNumber":47,"Velocity":43,"Duration":423327,"SoundDuration":423327,"Delta":41161273},{"NoteNumber":45,"Velocity":40,"Duration":406393,"SoundDuration":406393,"Delta":41567667},{"NoteNumber":59,"Velocity":40,"Duration":855233,"SoundDuration":855233,"Delta":41974061},{"NoteNumber":56,"Velocity":36,"Duration":855233,"SoundDuration":855233,"Delta":41974061},{"NoteNumber":64,"Velocity":40,"Duration":2839706,"SoundDuration":2839706,"Delta":41974061},{"NoteNumber":52,"Velocity":36,"Duration":2839706,"SoundDuration":2839706,"Delta":41974061},{"NoteNumber":40,"Velocity":39,"Duration":430389,"SoundDuration":430389,"Delta":42398904},{"NoteNumber":57,"Velocity":40,"Duration":1984473,"SoundDuration":1984473,"Delta":42829294},{"NoteNumber":38,"Velocity":37,"Duration":452167,"SoundDuration":452167,"Delta":42829294},{"NoteNumber":36,"Velocity":35,"Duration":467484,"SoundDuration":467484,"Delta":43263087},{"NoteNumber":35,"Velocity":33,"Duration":492629,"SoundDuration":492629,"Delta":43711523},{"NoteNumber":33,"Velocity":31,"Duration":637324,"SoundDuration":637324,"Delta":44176442},{"NoteNumber":76,"Velocity":45,"Duration":154274,"SoundDuration":154274,"Delta":44813767},{"NoteNumber":68,"Velocity":35,"Duration":306283,"SoundDuration":306283,"Delta":44813767},{"NoteNumber":64,"Velocity":29,"Duration":306283,"SoundDuration":306283,"Delta":44813767},{"NoteNumber":88,"Velocity":50,"Duration":152009,"SoundDuration":152009,"Delta":44968041},{"NoteNumber":86,"Velocity":51,"Duration":149449,"SoundDuration":149449,"Delta":45120051},{"NoteNumber":69,"Velocity":28,"Duration":584624,"SoundDuration":584624,"Delta":45120051},{"NoteNumber":65,"Velocity":23,"Duration":296775,"SoundDuration":296775,"Delta":45120051},{"NoteNumber":74,"Velocity":47,"Duration":147325,"SoundDuration":147325,"Delta":45269501},{"NoteNumber":77,"Velocity":48,"Duration":144923,"SoundDuration":144923,"Delta":45416826},{"NoteNumber":62,"Velocity":28,"Duration":287849,"SoundDuration":287849,"Delta":45416826},{"NoteNumber":89,"Velocity":50,"Duration":142925,"SoundDuration":142925,"Delta":45561750},{"NoteNumber":88,"Velocity":52,"Duration":141296,"SoundDuration":141296,"Delta":45704676},{"NoteNumber":68,"Velocity":33,"Duration":282592,"SoundDuration":282592,"Delta":45704676},{"NoteNumber":64,"Velocity":28,"Duration":282592,"SoundDuration":282592,"Delta":45704676},{"NoteNumber":76,"Velocity":48,"Duration":141296,"SoundDuration":141296,"Delta":45845972},{"NoteNumber":74,"Velocity":49,"Duration":141296,"SoundDuration":141296,"Delta":45987268},{"NoteNumber":69,"Velocity":30,"Duration":565184,"SoundDuration":565184,"Delta":45987268},{"NoteNumber":65,"Velocity":25,"Duration":282592,"SoundDuration":282592,"Delta":45987268},{"NoteNumber":86,"Velocity":54,"Duration":141296,"SoundDuration":141296,"Delta":46128564},{"NoteNumber":84,"Velocity":51,"Duration":141296,"SoundDuration":141296,"Delta":46269861},{"NoteNumber":62,"Velocity":29,"Duration":282592,"SoundDuration":282592,"Delta":46269861},{"NoteNumber":72,"Velocity":51,"Duration":141296,"SoundDuration":141296,"Delta":46411157},{"NoteNumber":71,"Velocity":55,"Duration":141296,"SoundDuration":141296,"Delta":46552453},{"NoteNumber":64,"Velocity":29,"Duration":282592,"SoundDuration":282592,"Delta":46552453},{"NoteNumber":68,"Velocity":35,"Duration":282592,"SoundDuration":282592,"Delta":46552453},{"NoteNumber":83,"Velocity":56,"Duration":141296,"SoundDuration":141296,"Delta":46693749},{"NoteNumber":86,"Velocity":52,"Duration":141296,"SoundDuration":141296,"Delta":46835046},{"NoteNumber":65,"Velocity":28,"Duration":282592,"SoundDuration":282592,"Delta":46835046},{"NoteNumber":69,"Velocity":33,"Duration":565184,"SoundDuration":565184,"Delta":46835046},{"NoteNumber":74,"Velocity":54,"Duration":141296,"SoundDuration":141296,"Delta":46976342},{"NoteNumber":72,"Velocity":51,"Duration":141296,"SoundDuration":141296,"Delta":47117638},{"NoteNumber":62,"Velocity":29,"Duration":282592,"SoundDuration":282592,"Delta":47117638},{"NoteNumber":84,"Velocity":51,"Duration":141296,"SoundDuration":141296,"Delta":47258934},{"NoteNumber":83,"Velocity":56,"Duration":141296,"SoundDuration":141296,"Delta":47400231},{"NoteNumber":68,"Velocity":35,"Duration":283127,"SoundDuration":283127,"Delta":47400231},{"NoteNumber":64,"Velocity":29,"Duration":283127,"SoundDuration":283127,"Delta":47400231},{"NoteNumber":74,"Velocity":49,"Duration":141831,"SoundDuration":141831,"Delta":47541527},{"NoteNumber":69,"Velocity":52,"Duration":142378,"SoundDuration":142378,"Delta":47683358},{"NoteNumber":69,"Velocity":27,"Duration":573241,"SoundDuration":573241,"Delta":47683358},{"NoteNumber":65,"Velocity":32,"Duration":285413,"SoundDuration":285413,"Delta":47683358},{"NoteNumber":81,"Velocity":48,"Duration":721160,"SoundDuration":721160,"Delta":47825737},{"NoteNumber":62,"Velocity":29,"Duration":287827,"SoundDuration":287827,"Delta":47968771},{"NoteNumber":59,"Velocity":29,"Duration":290297,"SoundDuration":290297,"Delta":48256599},{"NoteNumber":63,"Velocity":34,"Duration":290297,"SoundDuration":290297,"Delta":48256599},{"NoteNumber":69,"Velocity":49,"Duration":882687,"SoundDuration":882687,"Delta":48546897},{"NoteNumber":60,"Velocity":24,"Duration":292799,"SoundDuration":292799,"Delta":48546897},{"NoteNumber":64,"Velocity":29,"Duration":588149,"SoundDuration":588149,"Delta":48546897},{"NoteNumber":81,"Velocity":44,"Duration":736630,"SoundDuration":736630,"Delta":48692954},{"NoteNumber":57,"Velocity":26,"Duration":295350,"SoundDuration":295350,"Delta":48839697},{"NoteNumber":59,"Velocity":24,"Duration":294537,"SoundDuration":294537,"Delta":49135047},{"NoteNumber":63,"Velocity":29,"Duration":294537,"SoundDuration":294537,"Delta":49135047},{"NoteNumber":67,"Velocity":53,"Duration":145603,"SoundDuration":145603,"Delta":49429584},{"NoteNumber":64,"Velocity":27,"Duration":575592,"SoundDuration":575592,"Delta":49429584},{"NoteNumber":60,"Velocity":23,"Duration":289959,"SoundDuration":289959,"Delta":49429584},{"NoteNumber":79,"Velocity":51,"Duration":144356,"SoundDuration":144356,"Delta":49575188},{"NoteNumber":78,"Velocity":54,"Duration":143363,"SoundDuration":143363,"Delta":49719544},{"NoteNumber":57,"Velocity":25,"Duration":285632,"SoundDuration":285632,"Delta":49719544},{"NoteNumber":66,"Velocity":50,"Duration":142268,"SoundDuration":142268,"Delta":49862908},{"NoteNumber":71,"Velocity":51,"Duration":141296,"SoundDuration":141296,"Delta":50005176},{"NoteNumber":59,"Velocity":25,"Duration":282592,"SoundDuration":282592,"Delta":50005176},{"NoteNumber":63,"Velocity":30,"Duration":282592,"SoundDuration":282592,"Delta":50005176},{"NoteNumber":83,"Velocity":54,"Duration":141296,"SoundDuration":141296,"Delta":50146472},{"NoteNumber":81,"Velocity":57,"Duration":141296,"SoundDuration":141296,"Delta":50287769},{"NoteNumber":64,"Velocity":28,"Duration":565184,"SoundDuration":565184,"Delta":50287769},{"NoteNumber":60,"Velocity":23,"Duration":282592,"SoundDuration":282592,"Delta":50287769},{"NoteNumber":69,"Velocity":52,"Duration":141296,"SoundDuration":141296,"Delta":50429065},{"NoteNumber":67,"Velocity":52,"Duration":141296,"SoundDuration":141296,"Delta":50570361},{"NoteNumber":57,"Velocity":26,"Duration":282592,"SoundDuration":282592,"Delta":50570361},{"NoteNumber":79,"Velocity":55,"Duration":141296,"SoundDuration":141296,"Delta":50711657},{"NoteNumber":78,"Velocity":59,"Duration":141296,"SoundDuration":141296,"Delta":50852954},{"NoteNumber":59,"Velocity":27,"Duration":282592,"SoundDuration":282592,"Delta":50852954},{"NoteNumber":63,"Velocity":32,"Duration":282592,"SoundDuration":282592,"Delta":50852954},{"NoteNumber":66,"Velocity":53,"Duration":141296,"SoundDuration":141296,"Delta":50994250},{"NoteNumber":69,"Velocity":54,"Duration":141296,"SoundDuration":141296,"Delta":51135546},{"NoteNumber":60,"Velocity":24,"Duration":282592,"SoundDuration":282592,"Delta":51135546},{"NoteNumber":64,"Velocity":29,"Duration":282592,"SoundDuration":282592,"Delta":51135546},{"NoteNumber":81,"Velocity":56,"Duration":141296,"SoundDuration":141296,"Delta":51276842},{"NoteNumber":84,"Velocity":59,"Duration":141296,"SoundDuration":141296,"Delta":51418139},{"NoteNumber":57,"Velocity":28,"Duration":282592,"SoundDuration":282592,"Delta":51418139},{"NoteNumber":66,"Velocity":33,"Duration":282592,"SoundDuration":282592,"Delta":51418139},{"NoteNumber":72,"Velocity":55,"Duration":141296,"SoundDuration":141296,"Delta":51559435},{"NoteNumber":71,"Velocity":56,"Duration":141296,"SoundDuration":141296,"Delta":51700731},{"NoteNumber":64,"Velocity":29,"Duration":282592,"SoundDuration":282592,"Delta":51700731},{"NoteNumber":68,"Velocity":34,"Duration":282592,"SoundDuration":282592,"Delta":51700731},{"NoteNumber":83,"Velocity":60,"Duration":141296,"SoundDuration":141296,"Delta":51842027},{"NoteNumber":86,"Velocity":61,"Duration":141296,"SoundDuration":141296,"Delta":51983324},{"NoteNumber":69,"Velocity":30,"Duration":565184,"SoundDuration":565184,"Delta":51983324},{"NoteNumber":65,"Velocity":25,"Duration":282592,"SoundDuration":282592,"Delta":51983324},{"NoteNumber":74,"Velocity":56,"Duration":141296,"SoundDuration":141296,"Delta":52124620},{"NoteNumber":77,"Velocity":57,"Duration":141296,"SoundDuration":141296,"Delta":52265916},{"NoteNumber":62,"Velocity":29,"Duration":282592,"SoundDuration":282592,"Delta":52265916},{"NoteNumber":89,"Velocity":64,"Duration":141296,"SoundDuration":141296,"Delta":52407212},{"NoteNumber":88,"Velocity":65,"Duration":141296,"SoundDuration":141296,"Delta":52548509},{"NoteNumber":64,"Velocity":29,"Duration":282592,"SoundDuration":282592,"Delta":52548509},{"NoteNumber":68,"Velocity":35,"Duration":282592,"SoundDuration":282592,"Delta":52548509},{"NoteNumber":76,"Velocity":58,"Duration":141296,"SoundDuration":141296,"Delta":52689805},{"NoteNumber":74,"Velocity":58,"Duration":141296,"SoundDuration":141296,"Delta":52831101},{"NoteNumber":69,"Velocity":32,"Duration":565184,"SoundDuration":565184,"Delta":52831101},{"NoteNumber":65,"Velocity":27,"Duration":282592,"SoundDuration":282592,"Delta":52831101},{"NoteNumber":86,"Velocity":61,"Duration":141296,"SoundDuration":141296,"Delta":52972397},{"NoteNumber":89,"Velocity":68,"Duration":141296,"SoundDuration":141296,"Delta":53113694},{"NoteNumber":62,"Velocity":29,"Duration":282592,"SoundDuration":282592,"Delta":53113694},{"NoteNumber":77,"Velocity":60,"Duration":141296,"SoundDuration":141296,"Delta":53254990},{"NoteNumber":76,"Velocity":60,"Duration":141296,"SoundDuration":141296,"Delta":53396286},{"NoteNumber":64,"Velocity":30,"Duration":282592,"SoundDuration":282592,"Delta":53396286},{"NoteNumber":68,"Velocity":36,"Duration":282592,"SoundDuration":282592,"Delta":53396286},{"NoteNumber":88,"Velocity":65,"Duration":141296,"SoundDuration":141296,"Delta":53537582},{"NoteNumber":86,"Velocity":69,"Duration":141296,"SoundDuration":141296,"Delta":53678879},{"NoteNumber":69,"Velocity":35,"Duration":565184,"SoundDuration":565184,"Delta":53678879},{"NoteNumber":65,"Velocity":29,"Duration":282592,"SoundDuration":282592,"Delta":53678879},{"NoteNumber":74,"Velocity":61,"Duration":141296,"SoundDuration":141296,"Delta":53820175},{"NoteNumber":77,"Velocity":63,"Duration":141296,"SoundDuration":141296,"Delta":53961471},{"NoteNumber":62,"Velocity":31,"Duration":282592,"SoundDuration":282592,"Delta":53961471},{"NoteNumber":89,"Velocity":66,"Duration":141296,"SoundDuration":141296,"Delta":54102767},{"NoteNumber":88,"Velocity":67,"Duration":141296,"SoundDuration":141296,"Delta":54244064},{"NoteNumber":64,"Velocity":31,"Duration":282592,"SoundDuration":282592,"Delta":54244064},{"NoteNumber":68,"Velocity":37,"Duration":282592,"SoundDuration":282592,"Delta":54244064},{"NoteNumber":76,"Velocity":59,"Duration":141296,"SoundDuration":141296,"Delta":54385360},{"NoteNumber":74,"Velocity":59,"Duration":141296,"SoundDuration":141296,"Delta":54526656},{"NoteNumber":69,"Velocity":35,"Duration":565184,"SoundDuration":565184,"Delta":54526656},{"NoteNumber":65,"Velocity":29,"Duration":282592,"SoundDuration":282592,"Delta":54526656},{"NoteNumber":86,"Velocity":60,"Duration":141296,"SoundDuration":141296,"Delta":54667952},{"NoteNumber":84,"Velocity":59,"Duration":141296,"SoundDuration":141296,"Delta":54809249},{"NoteNumber":62,"Velocity":29,"Duration":282592,"SoundDuration":282592,"Delta":54809249},{"NoteNumber":72,"Velocity":54,"Duration":141296,"SoundDuration":141296,"Delta":54950545},{"NoteNumber":71,"Velocity":54,"Duration":141296,"SoundDuration":141296,"Delta":55091841},{"NoteNumber":64,"Velocity":29,"Duration":282592,"SoundDuration":282592,"Delta":55091841},{"NoteNumber":68,"Velocity":34,"Duration":282592,"SoundDuration":282592,"Delta":55091841},{"NoteNumber":83,"Velocity":59,"Duration":141296,"SoundDuration":141296,"Delta":55233137},{"NoteNumber":86,"Velocity":60,"Duration":141296,"SoundDuration":141296,"Delta":55374434},{"NoteNumber":69,"Velocity":29,"Duration":565184,"SoundDuration":565184,"Delta":55374434},{"NoteNumber":65,"Velocity":24,"Duration":282592,"SoundDuration":282592,"Delta":55374434},{"NoteNumber":74,"Velocity":54,"Duration":141296,"SoundDuration":141296,"Delta":55515730},{"NoteNumber":72,"Velocity":50,"Duration":141296,"SoundDuration":141296,"Delta":55657026},{"NoteNumber":62,"Velocity":25,"Duration":282592,"SoundDuration":282592,"Delta":55657026},{"NoteNumber":84,"Velocity":51,"Duration":141296,"SoundDuration":141296,"Delta":55798322},{"NoteNumber":83,"Velocity":54,"Duration":141296,"SoundDuration":141296,"Delta":55939619},{"NoteNumber":68,"Velocity":35,"Duration":283127,"SoundDuration":283127,"Delta":55939619},{"NoteNumber":64,"Velocity":29,"Duration":283127,"SoundDuration":283127,"Delta":55939619},{"NoteNumber":74,"Velocity":46,"Duration":141831,"SoundDuration":141831,"Delta":56080915},{"NoteNumber":69,"Velocity":50,"Duration":142378,"SoundDuration":142378,"Delta":56222746},{"NoteNumber":69,"Velocity":32,"Duration":573241,"SoundDuration":573241,"Delta":56222746},{"NoteNumber":65,"Velocity":27,"Duration":285413,"SoundDuration":285413,"Delta":56222746},{"NoteNumber":81,"Velocity":46,"Duration":721160,"SoundDuration":721160,"Delta":56365125},{"NoteNumber":62,"Velocity":29,"Duration":287828,"SoundDuration":287828,"Delta":56508160},{"NoteNumber":59,"Velocity":29,"Duration":290297,"SoundDuration":290297,"Delta":56795988},{"NoteNumber":63,"Velocity":34,"Duration":290297,"SoundDuration":290297,"Delta":56795988},{"NoteNumber":69,"Velocity":49,"Duration":882687,"SoundDuration":882687,"Delta":57086285},{"NoteNumber":60,"Velocity":24,"Duration":292799,"SoundDuration":292799,"Delta":57086285},{"NoteNumber":64,"Velocity":29,"Duration":588149,"SoundDuration":588149,"Delta":57086285},{"NoteNumber":81,"Velocity":42,"Duration":736630,"SoundDuration":736630,"Delta":57232342},{"NoteNumber":57,"Velocity":26,"Duration":295350,"SoundDuration":295350,"Delta":57379085},{"NoteNumber":59,"Velocity":24,"Duration":294537,"SoundDuration":294537,"Delta":57674435},{"NoteNumber":63,"Velocity":29,"Duration":294537,"SoundDuration":294537,"Delta":57674435},{"NoteNumber":67,"Velocity":49,"Duration":145603,"SoundDuration":145603,"Delta":57968972},{"NoteNumber":64,"Velocity":27,"Duration":575592,"SoundDuration":575592,"Delta":57968972},{"NoteNumber":60,"Velocity":23,"Duration":289959,"SoundDuration":289959,"Delta":57968972},{"NoteNumber":79,"Velocity":57,"Duration":144356,"SoundDuration":144356,"Delta":58114576},{"NoteNumber":78,"Velocity":57,"Duration":143363,"SoundDuration":143363,"Delta":58258932},{"NoteNumber":57,"Velocity":28,"Duration":285632,"SoundDuration":285632,"Delta":58258932},{"NoteNumber":66,"Velocity":53,"Duration":142268,"SoundDuration":142268,"Delta":58402296},{"NoteNumber":71,"Velocity":53,"Duration":141296,"SoundDuration":141296,"Delta":58544564},{"NoteNumber":59,"Velocity":28,"Duration":282592,"SoundDuration":282592,"Delta":58544564},{"NoteNumber":63,"Velocity":33,"Duration":282592,"SoundDuration":282592,"Delta":58544564},{"NoteNumber":83,"Velocity":58,"Duration":141296,"SoundDuration":141296,"Delta":58685861},{"NoteNumber":81,"Velocity":63,"Duration":141296,"SoundDuration":141296,"Delta":58827157},{"NoteNumber":64,"Velocity":31,"Duration":565184,"SoundDuration":565184,"Delta":58827157},{"NoteNumber":60,"Velocity":26,"Duration":282592,"SoundDuration":282592,"Delta":58827157},{"NoteNumber":69,"Velocity":57,"Duration":141296,"SoundDuration":141296,"Delta":58968453},{"NoteNumber":67,"Velocity":57,"Duration":141296,"SoundDuration":141296,"Delta":59109749},{"NoteNumber":57,"Velocity":31,"Duration":282592,"SoundDuration":282592,"Delta":59109749},{"NoteNumber":79,"Velocity":67,"Duration":141296,"SoundDuration":141296,"Delta":59251046},{"NoteNumber":78,"Velocity":67,"Duration":141296,"SoundDuration":141296,"Delta":59392342},{"NoteNumber":59,"Velocity":31,"Duration":282592,"SoundDuration":282592,"Delta":59392342},{"NoteNumber":63,"Velocity":37,"Duration":282592,"SoundDuration":282592,"Delta":59392342},{"NoteNumber":66,"Velocity":58,"Duration":141296,"SoundDuration":141296,"Delta":59533638},{"NoteNumber":69,"Velocity":58,"Duration":141296,"SoundDuration":141296,"Delta":59674934},{"NoteNumber":60,"Velocity":28,"Duration":282592,"SoundDuration":282592,"Delta":59674934},{"NoteNumber":64,"Velocity":33,"Duration":282592,"SoundDuration":282592,"Delta":59674934},{"NoteNumber":81,"Velocity":65,"Duration":141296,"SoundDuration":141296,"Delta":59816231},{"NoteNumber":84,"Velocity":71,"Duration":141296,"SoundDuration":141296,"Delta":59957527},{"NoteNumber":57,"Velocity":34,"Duration":282592,"SoundDuration":282592,"Delta":59957527},{"NoteNumber":66,"Velocity":40,"Duration":282592,"SoundDuration":282592,"Delta":59957527},{"NoteNumber":72,"Velocity":68,"Duration":141296,"SoundDuration":141296,"Delta":60098823},{"NoteNumber":71,"Velocity":68,"Duration":141296,"SoundDuration":141296,"Delta":60240119},{"NoteNumber":64,"Velocity":34,"Duration":282592,"SoundDuration":282592,"Delta":60240119},{"NoteNumber":68,"Velocity":40,"Duration":282592,"SoundDuration":282592,"Delta":60240119},{"NoteNumber":83,"Velocity":70,"Duration":141296,"SoundDuration":141296,"Delta":60381416},{"NoteNumber":86,"Velocity":75,"Duration":141296,"SoundDuration":141296,"Delta":60522712},{"NoteNumber":69,"Velocity":39,"Duration":283234,"SoundDuration":283234,"Delta":60522712},{"NoteNumber":65,"Velocity":33,"Duration":283234,"SoundDuration":283234,"Delta":60522712},{"NoteNumber":74,"Velocity":72,"Duration":141938,"SoundDuration":141938,"Delta":60664008},{"NoteNumber":77,"Velocity":72,"Duration":141937,"SoundDuration":141937,"Delta":60805946},{"NoteNumber":71,"Velocity":39,"Duration":283875,"SoundDuration":283875,"Delta":60805946},{"NoteNumber":62,"Velocity":37,"Duration":283875,"SoundDuration":283875,"Delta":60805946},{"NoteNumber":89,"Velocity":75,"Duration":141938,"SoundDuration":141938,"Delta":60947884},{"NoteNumber":88,"Velocity":79,"Duration":142598,"SoundDuration":142598,"Delta":61089822},{"NoteNumber":69,"Velocity":37,"Duration":285198,"SoundDuration":285198,"Delta":61089822},{"NoteNumber":73,"Velocity":45,"Duration":285198,"SoundDuration":285198,"Delta":61089822},{"NoteNumber":76,"Velocity":74,"Duration":142599,"SoundDuration":142599,"Delta":61232421},{"NoteNumber":79,"Velocity":74,"Duration":142598,"SoundDuration":142598,"Delta":61375020},{"NoteNumber":74,"Velocity":43,"Duration":570395,"SoundDuration":570395,"Delta":61375020},{"NoteNumber":70,"Velocity":35,"Duration":285198,"SoundDuration":285198,"Delta":61375020},{"NoteNumber":91,"Velocity":76,"Duration":142599,"SoundDuration":142599,"Delta":61517619},{"NoteNumber":89,"Velocity":79,"Duration":142598,"SoundDuration":142598,"Delta":61660218},{"NoteNumber":67,"Velocity":40,"Duration":285197,"SoundDuration":285197,"Delta":61660218},{"NoteNumber":77,"Velocity":74,"Duration":142598,"SoundDuration":142598,"Delta":61802817},{"NoteNumber":76,"Velocity":74,"Duration":142925,"SoundDuration":142925,"Delta":61945416},{"NoteNumber":69,"Velocity":40,"Duration":287060,"SoundDuration":287060,"Delta":61945416},{"NoteNumber":73,"Velocity":49,"Duration":287060,"SoundDuration":287060,"Delta":61945416},{"NoteNumber":88,"Velocity":74,"Duration":144134,"SoundDuration":144134,"Delta":62088342},{"NoteNumber":91,"Velocity":79,"Duration":145263,"SoundDuration":145263,"Delta":62232476},{"NoteNumber":74,"Velocity":47,"Duration":588425,"SoundDuration":588425,"Delta":62232476},{"NoteNumber":70,"Velocity":39,"Duration":291777,"SoundDuration":291777,"Delta":62232476},{"NoteNumber":79,"Velocity":74,"Duration":146514,"SoundDuration":146514,"Delta":62377740},{"NoteNumber":77,"Velocity":74,"Duration":147675,"SoundDuration":147675,"Delta":62524254},{"NoteNumber":67,"Velocity":40,"Duration":296647,"SoundDuration":296647,"Delta":62524254},{"NoteNumber":89,"Velocity":75,"Duration":148972,"SoundDuration":148972,"Delta":62671929},{"NoteNumber":88,"Velocity":80,"Duration":150168,"SoundDuration":150168,"Delta":62820902},{"NoteNumber":73,"Velocity":49,"Duration":301685,"SoundDuration":301685,"Delta":62820902},{"NoteNumber":69,"Velocity":40,"Duration":301685,"SoundDuration":301685,"Delta":62820902},{"NoteNumber":76,"Velocity":76,"Duration":151516,"SoundDuration":151516,"Delta":62971071},{"NoteNumber":81,"Velocity":75,"Duration":155563,"SoundDuration":155563,"Delta":63122588},{"NoteNumber":74,"Velocity":47,"Duration":912658,"SoundDuration":912658,"Delta":63122588},{"NoteNumber":65,"Velocity":39,"Duration":307940,"SoundDuration":307940,"Delta":63122588},{"NoteNumber":93,"Velocity":73,"Duration":152377,"SoundDuration":152377,"Delta":63278152},{"NoteNumber":89,"Velocity":80,"Duration":152007,"SoundDuration":152007,"Delta":63430529},{"NoteNumber":70,"Velocity":40,"Duration":303523,"SoundDuration":303523,"Delta":63430529},{"NoteNumber":77,"Velocity":74,"Duration":151515,"SoundDuration":151515,"Delta":63582536},{"NoteNumber":79,"Velocity":74,"Duration":150905,"SoundDuration":150905,"Delta":63734052},{"NoteNumber":64,"Velocity":40,"Duration":301194,"SoundDuration":301194,"Delta":63734052},{"NoteNumber":91,"Velocity":72,"Duration":150288,"SoundDuration":150288,"Delta":63884957},{"NoteNumber":88,"Velocity":78,"Duration":149806,"SoundDuration":149806,"Delta":64035246},{"NoteNumber":72,"Velocity":45,"Duration":595901,"SoundDuration":595901,"Delta":64035246},{"NoteNumber":69,"Velocity":37,"Duration":299134,"SoundDuration":299134,"Delta":64035246},{"NoteNumber":76,"Velocity":69,"Duration":149328,"SoundDuration":149328,"Delta":64185052},{"NoteNumber":77,"Velocity":69,"Duration":148735,"SoundDuration":148735,"Delta":64334380},{"NoteNumber":62,"Velocity":38,"Duration":296767,"SoundDuration":296767,"Delta":64334380},{"NoteNumber":89,"Velocity":72,"Duration":148031,"SoundDuration":148031,"Delta":64483116},{"NoteNumber":86,"Velocity":71,"Duration":147556,"SoundDuration":147556,"Delta":64631147},{"NoteNumber":70,"Velocity":45,"Duration":587214,"SoundDuration":587214,"Delta":64631147},{"NoteNumber":67,"Velocity":37,"Duration":294644,"SoundDuration":294644,"Delta":64631147},{"NoteNumber":74,"Velocity":66,"Duration":147088,"SoundDuration":147088,"Delta":64778704},{"NoteNumber":76,"Velocity":64,"Duration":146627,"SoundDuration":146627,"Delta":64925792},{"NoteNumber":61,"Velocity":34,"Duration":292570,"SoundDuration":292570,"Delta":64925792},{"NoteNumber":88,"Velocity":60,"Duration":145942,"SoundDuration":145942,"Delta":65072419},{"NoteNumber":85,"Velocity":58,"Duration":145490,"SoundDuration":145490,"Delta":65218362},{"NoteNumber":69,"Velocity":44,"Duration":1149507,"SoundDuration":1149507,"Delta":65218362},{"NoteNumber":65,"Velocity":36,"Duration":290411,"SoundDuration":290411,"Delta":65218362},{"NoteNumber":73,"Velocity":56,"Duration":144921,"SoundDuration":144921,"Delta":65363853},{"NoteNumber":76,"Velocity":55,"Duration":144467,"SoundDuration":144467,"Delta":65508774},{"NoteNumber":59,"Velocity":36,"Duration":574668,"SoundDuration":574668,"Delta":65508774},{"NoteNumber":88,"Velocity":57,"Duration":143912,"SoundDuration":143912,"Delta":65653241},{"NoteNumber":86,"Velocity":60,"Duration":143362,"SoundDuration":143362,"Delta":65797154},{"NoteNumber":74,"Velocity":52,"Duration":142925,"SoundDuration":142925,"Delta":65940517},{"NoteNumber":72,"Velocity":51,"Duration":142488,"SoundDuration":142488,"Delta":66083442},{"NoteNumber":62,"Velocity":34,"Duration":284426,"SoundDuration":284426,"Delta":66083442},{"NoteNumber":84,"Velocity":56,"Duration":141937,"SoundDuration":141937,"Delta":66225931},{"NoteNumber":83,"Velocity":55,"Duration":141296,"SoundDuration":141296,"Delta":66367869},{"NoteNumber":68,"Velocity":39,"Duration":282592,"SoundDuration":282592,"Delta":66367869},{"NoteNumber":64,"Velocity":33,"Duration":282592,"SoundDuration":282592,"Delta":66367869},{"NoteNumber":71,"Velocity":48,"Duration":141296,"SoundDuration":141296,"Delta":66509166},{"NoteNumber":74,"Velocity":49,"Duration":141296,"SoundDuration":141296,"Delta":66650462},{"NoteNumber":69,"Velocity":35,"Duration":567110,"SoundDuration":567110,"Delta":66650462},{"NoteNumber":65,"Velocity":29,"Duration":283234,"SoundDuration":283234,"Delta":66650462},{"NoteNumber":86,"Velocity":53,"Duration":141937,"SoundDuration":141937,"Delta":66791758},{"NoteNumber":84,"Velocity":53,"Duration":141938,"SoundDuration":141938,"Delta":66933696},{"NoteNumber":62,"Velocity":33,"Duration":283876,"SoundDuration":283876,"Delta":66933696},{"NoteNumber":72,"Velocity":48,"Duration":141937,"SoundDuration":141937,"Delta":67075634},{"NoteNumber":71,"Velocity":48,"Duration":142599,"SoundDuration":142599,"Delta":67217572},{"NoteNumber":64,"Velocity":33,"Duration":285197,"SoundDuration":285197,"Delta":67217572},{"NoteNumber":68,"Velocity":39,"Duration":285197,"SoundDuration":285197,"Delta":67217572},{"NoteNumber":83,"Velocity":48,"Duration":142598,"SoundDuration":142598,"Delta":67360171},{"NoteNumber":86,"Velocity":48,"Duration":572357,"SoundDuration":572357,"Delta":67502770},{"NoteNumber":69,"Velocity":31,"Duration":572357,"SoundDuration":572357,"Delta":67502770},{"NoteNumber":65,"Velocity":26,"Duration":285851,"SoundDuration":285851,"Delta":67502770},{"NoteNumber":74,"Velocity":48,"Duration":429758,"SoundDuration":429758,"Delta":67645369},{"NoteNumber":62,"Velocity":29,"Duration":286505,"SoundDuration":286505,"Delta":67788622},{"NoteNumber":72,"Velocity":42,"Duration":143912,"SoundDuration":143912,"Delta":68075127},{"NoteNumber":68,"Velocity":34,"Duration":287824,"SoundDuration":287824,"Delta":68075127},{"NoteNumber":64,"Velocity":29,"Duration":287824,"SoundDuration":287824,"Delta":68075127},{"NoteNumber":84,"Velocity":40,"Duration":431737,"SoundDuration":431737,"Delta":68219040},{"NoteNumber":69,"Velocity":29,"Duration":575649,"SoundDuration":575649,"Delta":68362952},{"NoteNumber":65,"Velocity":24,"Duration":287824,"SoundDuration":287824,"Delta":68362952},{"NoteNumber":83,"Velocity":43,"Duration":575650,"SoundDuration":575650,"Delta":68650777},{"NoteNumber":62,"Velocity":28,"Duration":287824,"SoundDuration":287824,"Delta":68650777},{"NoteNumber":71,"Velocity":37,"Duration":431737,"SoundDuration":431737,"Delta":68794690},{"NoteNumber":64,"Velocity":28,"Duration":287825,"SoundDuration":287825,"Delta":68938602},{"NoteNumber":68,"Velocity":33,"Duration":287825,"SoundDuration":287825,"Delta":68938602},{"NoteNumber":69,"Velocity":38,"Duration":1467217,"SoundDuration":1467217,"Delta":69226427},{"NoteNumber":61,"Velocity":24,"Duration":287824,"SoundDuration":287824,"Delta":69226427},{"NoteNumber":69,"Velocity":29,"Duration":287824,"SoundDuration":287824,"Delta":69226427},{"NoteNumber":81,"Velocity":35,"Duration":1323305,"SoundDuration":1323305,"Delta":69370340},{"NoteNumber":62,"Velocity":23,"Duration":287824,"SoundDuration":287824,"Delta":69514252},{"NoteNumber":65,"Velocity":27,"Duration":287824,"SoundDuration":287824,"Delta":69514252},{"NoteNumber":59,"Velocity":22,"Duration":288830,"SoundDuration":288830,"Delta":69802077},{"NoteNumber":67,"Velocity":26,"Duration":288830,"SoundDuration":288830,"Delta":69802077},{"NoteNumber":61,"Velocity":22,"Duration":291888,"SoundDuration":291888,"Delta":70090908},{"NoteNumber":64,"Velocity":26,"Duration":291888,"SoundDuration":291888,"Delta":70090908},{"NoteNumber":57,"Velocity":21,"Duration":310848,"SoundDuration":310848,"Delta":70382797},{"NoteNumber":65,"Velocity":25,"Duration":310848,"SoundDuration":310848,"Delta":70382797},{"NoteNumber":69,"Velocity":35,"Duration":2241887,"SoundDuration":2241887,"Delta":70693645},{"NoteNumber":59,"Velocity":21,"Duration":319954,"SoundDuration":319954,"Delta":70693645},{"NoteNumber":62,"Velocity":25,"Duration":319954,"SoundDuration":319954,"Delta":70693645},{"NoteNumber":81,"Velocity":33,"Duration":2083282,"SoundDuration":2083282,"Delta":70852249},{"NoteNumber":55,"Velocity":19,"Duration":331325,"SoundDuration":331325,"Delta":71013600},{"NoteNumber":64,"Velocity":24,"Duration":331325,"SoundDuration":331325,"Delta":71013600},{"NoteNumber":57,"Velocity":18,"Duration":343850,"SoundDuration":343850,"Delta":71344925},{"NoteNumber":61,"Velocity":23,"Duration":343850,"SoundDuration":343850,"Delta":71344925},{"NoteNumber":54,"Velocity":18,"Duration":357021,"SoundDuration":357021,"Delta":71688775},{"NoteNumber":64,"Velocity":23,"Duration":357021,"SoundDuration":357021,"Delta":71688775},{"NoteNumber":53,"Velocity":18,"Duration":371601,"SoundDuration":371601,"Delta":72045797},{"NoteNumber":57,"Velocity":23,"Duration":371601,"SoundDuration":371601,"Delta":72045797},{"NoteNumber":50,"Velocity":18,"Duration":518134,"SoundDuration":518134,"Delta":72417398},{"NoteNumber":62,"Velocity":23,"Duration":518134,"SoundDuration":518134,"Delta":72417398},{"NoteNumber":57,"Velocity":54,"Duration":2487864,"SoundDuration":2487864,"Delta":72935532},{"NoteNumber":61,"Velocity":54,"Duration":807428,"SoundDuration":807428,"Delta":72935532},{"NoteNumber":69,"Velocity":60,"Duration":807428,"SoundDuration":807428,"Delta":72935532},{"NoteNumber":33,"Velocity":51,"Duration":269142,"SoundDuration":269142,"Delta":72935532},{"NoteNumber":45,"Velocity":48,"Duration":2218721,"SoundDuration":2218721,"Delta":73204675},{"NoteNumber":52,"Velocity":43,"Duration":269142,"SoundDuration":269142,"Delta":73473818},{"NoteNumber":62,"Velocity":37,"Duration":1815007,"SoundDuration":1815007,"Delta":73608389},{"NoteNumber":68,"Velocity":55,"Duration":210054,"SoundDuration":210054,"Delta":73742960},{"NoteNumber":50,"Velocity":37,"Duration":1680436,"SoundDuration":1680436,"Delta":73742960},{"NoteNumber":66,"Velocity":52,"Duration":1470381,"SoundDuration":1470381,"Delta":73953015},{"NoteNumber":57,"Velocity":52,"Duration":807428,"SoundDuration":807428,"Delta":75423396},{"NoteNumber":61,"Velocity":52,"Duration":807428,"SoundDuration":807428,"Delta":75423396},{"NoteNumber":69,"Velocity":58,"Duration":807428,"SoundDuration":807428,"Delta":75423396},{"NoteNumber":33,"Velocity":44,"Duration":269142,"SoundDuration":269142,"Delta":75423396},{"NoteNumber":45,"Velocity":42,"Duration":2218721,"SoundDuration":2218721,"Delta":75692539},{"NoteNumber":52,"Velocity":37,"Duration":269142,"SoundDuration":269142,"Delta":75961682},{"NoteNumber":59,"Velocity":30,"Duration":1815007,"SoundDuration":1815007,"Delta":76096253},{"NoteNumber":64,"Velocity":53,"Duration":210054,"SoundDuration":210054,"Delta":76230824},{"NoteNumber":54,"Velocity":32,"Duration":1680436,"SoundDuration":1680436,"Delta":76230824},{"NoteNumber":62,"Velocity":48,"Duration":1470381,"SoundDuration":1470381,"Delta":76440879},{"NoteNumber":57,"Velocity":47,"Duration":2443814,"SoundDuration":2443814,"Delta":77911260},{"NoteNumber":66,"Velocity":52,"Duration":807428,"SoundDuration":807428,"Delta":77911260},{"NoteNumber":33,"Velocity":47,"Duration":269142,"SoundDuration":269142,"Delta":77911260},{"NoteNumber":45,"Velocity":42,"Duration":2174671,"SoundDuration":2174671,"Delta":78180403},{"NoteNumber":49,"Velocity":42,"Duration":269142,"SoundDuration":269142,"Delta":78449546},{"NoteNumber":61,"Velocity":50,"Duration":807428,"SoundDuration":807428,"Delta":78718688},{"NoteNumber":51,"Velocity":42,"Duration":1636386,"SoundDuration":1636386,"Delta":78718688},{"NoteNumber":66,"Velocity":44,"Duration":828958,"SoundDuration":828958,"Delta":79526116},{"NoteNumber":56,"Velocity":35,"Duration":2537711,"SoundDuration":2537711,"Delta":80355074},{"NoteNumber":64,"Velocity":39,"Duration":845904,"SoundDuration":845904,"Delta":80355074},{"NoteNumber":40,"Velocity":39,"Duration":1691807,"SoundDuration":1691807,"Delta":80355074},{"NoteNumber":47,"Velocity":34,"Duration":422952,"SoundDuration":422952,"Delta":80778026},{"NoteNumber":59,"Velocity":38,"Duration":1691807,"SoundDuration":1691807,"Delta":81200978},{"NoteNumber":52,"Velocity":32,"Duration":1691807,"SoundDuration":1691807,"Delta":81200978},{"NoteNumber":69,"Velocity":35,"Duration":836126,"SoundDuration":836126,"Delta":82892786},{"NoteNumber":81,"Velocity":48,"Duration":414479,"SoundDuration":414479,"Delta":82892786},{"NoteNumber":73,"Velocity":35,"Duration":836126,"SoundDuration":836126,"Delta":82892786},{"NoteNumber":45,"Velocity":39,"Duration":276319,"SoundDuration":276319,"Delta":82892786},{"NoteNumber":57,"Velocity":39,"Duration":276319,"SoundDuration":276319,"Delta":83169106},{"NoteNumber":81,"Velocity":48,"Duration":421647,"SoundDuration":421647,"Delta":83307265},{"NoteNumber":64,"Velocity":39,"Duration":283488,"SoundDuration":283488,"Delta":83445425},{"NoteNumber":80,"Velocity":43,"Duration":214408,"SoundDuration":214408,"Delta":83514505},{"NoteNumber":78,"Velocity":37,"Duration":1715265,"SoundDuration":1715265,"Delta":83728913},{"NoteNumber":74,"Velocity":25,"Duration":1715265,"SoundDuration":1715265,"Delta":83728913},{"NoteNumber":69,"Velocity":25,"Duration":1715265,"SoundDuration":1715265,"Delta":83728913},{"NoteNumber":57,"Velocity":25,"Duration":1715265,"SoundDuration":1715265,"Delta":83728913},{"NoteNumber":62,"Velocity":28,"Duration":1715265,"SoundDuration":1715265,"Delta":83728913},{"NoteNumber":73,"Velocity":32,"Duration":836126,"SoundDuration":836126,"Delta":85444179},{"NoteNumber":69,"Velocity":32,"Duration":836126,"SoundDuration":836126,"Delta":85444179},{"NoteNumber":81,"Velocity":44,"Duration":414479,"SoundDuration":414479,"Delta":85444179},{"NoteNumber":45,"Velocity":36,"Duration":276319,"SoundDuration":276319,"Delta":85444179},{"NoteNumber":57,"Velocity":36,"Duration":276319,"SoundDuration":276319,"Delta":85720498},{"NoteNumber":81,"Velocity":44,"Duration":421647,"SoundDuration":421647,"Delta":85858658},{"NoteNumber":64,"Velocity":36,"Duration":283488,"SoundDuration":283488,"Delta":85996818},{"NoteNumber":76,"Velocity":40,"Duration":214408,"SoundDuration":214408,"Delta":86065897},{"NoteNumber":71,"Velocity":25,"Duration":1715265,"SoundDuration":1715265,"Delta":86280306},{"NoteNumber":74,"Velocity":35,"Duration":1715265,"SoundDuration":1715265,"Delta":86280306},{"NoteNumber":57,"Velocity":24,"Duration":1715265,"SoundDuration":1715265,"Delta":86280306},{"NoteNumber":66,"Velocity":27,"Duration":1715265,"SoundDuration":1715265,"Delta":86280306},{"NoteNumber":69,"Velocity":42,"Duration":2443814,"SoundDuration":2443814,"Delta":87995572},{"NoteNumber":78,"Velocity":47,"Duration":403713,"SoundDuration":403713,"Delta":87995572},{"NoteNumber":45,"Velocity":42,"Duration":269142,"SoundDuration":269142,"Delta":87995572},{"NoteNumber":57,"Velocity":42,"Duration":269142,"SoundDuration":269142,"Delta":88264714},{"NoteNumber":78,"Velocity":47,"Duration":403714,"SoundDuration":403714,"Delta":88399286},{"NoteNumber":61,"Velocity":39,"Duration":269142,"SoundDuration":269142,"Delta":88533857},{"NoteNumber":73,"Velocity":39,"Duration":807428,"SoundDuration":807428,"Delta":88803000},{"NoteNumber":57,"Velocity":32,"Duration":1636386,"SoundDuration":1636386,"Delta":88803000},{"NoteNumber":63,"Velocity":36,"Duration":1636386,"SoundDuration":1636386,"Delta":88803000},{"NoteNumber":78,"Velocity":39,"Duration":828958,"SoundDuration":828958,"Delta":89610428},{"NoteNumber":68,"Velocity":33,"Duration":2555003,"SoundDuration":2555003,"Delta":90439386},{"NoteNumber":76,"Velocity":37,"Duration":851668,"SoundDuration":851668,"Delta":90439386},{"NoteNumber":52,"Velocity":38,"Duration":2555003,"SoundDuration":2555003,"Delta":90439386},{"NoteNumber":59,"Velocity":30,"Duration":425834,"SoundDuration":425834,"Delta":90865220},{"NoteNumber":71,"Velocity":32,"Duration":1703335,"SoundDuration":1703335,"Delta":91291054},{"NoteNumber":64,"Velocity":32,"Duration":1703335,"SoundDuration":1703335,"Delta":91291054},{"NoteNumber":33,"Velocity":54,"Duration":269142,"SoundDuration":269142,"Delta":92994390},{"NoteNumber":45,"Velocity":46,"Duration":1361782,"SoundDuration":1361782,"Delta":93263532},{"NoteNumber":57,"Velocity":46,"Duration":2073115,"SoundDuration":2073115,"Delta":93398104},{"NoteNumber":66,"Velocity":49,"Duration":403714,"SoundDuration":403714,"Delta":93398104},{"NoteNumber":49,"Velocity":51,"Duration":269142,"SoundDuration":269142,"Delta":93532675},{"NoteNumber":61,"Velocity":59,"Duration":411748,"SoundDuration":411748,"Delta":93801818},{"NoteNumber":51,"Velocity":58,"Duration":1669401,"SoundDuration":1669401,"Delta":93801818},{"NoteNumber":68,"Velocity":51,"Duration":411748,"SoundDuration":411748,"Delta":94213566},{"NoteNumber":61,"Velocity":50,"Duration":422951,"SoundDuration":422951,"Delta":94625315},{"NoteNumber":45,"Velocity":46,"Duration":845904,"SoundDuration":845904,"Delta":94625315},{"NoteNumber":66,"Velocity":46,"Duration":422952,"SoundDuration":422952,"Delta":95048267},{"NoteNumber":40,"Velocity":49,"Duration":403713,"SoundDuration":403713,"Delta":95471219},{"NoteNumber":47,"Velocity":54,"Duration":403713,"SoundDuration":403713,"Delta":95471219},{"NoteNumber":56,"Velocity":53,"Duration":293274,"SoundDuration":293274,"Delta":95874933},{"NoteNumber":64,"Velocity":64,"Duration":293274,"SoundDuration":293274,"Delta":95874933},{"NoteNumber":52,"Velocity":54,"Duration":293274,"SoundDuration":293274,"Delta":96265965},{"NoteNumber":59,"Velocity":61,"Duration":293274,"SoundDuration":293274,"Delta":96265965},{"NoteNumber":68,"Velocity":58,"Duration":293274,"SoundDuration":293274,"Delta":96656998},{"NoteNumber":76,"Velocity":69,"Duration":293274,"SoundDuration":293274,"Delta":96656998},{"NoteNumber":64,"Velocity":59,"Duration":293274,"SoundDuration":293274,"Delta":97048030},{"NoteNumber":71,"Velocity":67,"Duration":293274,"SoundDuration":293274,"Delta":97048030},{"NoteNumber":88,"Velocity":78,"Duration":391032,"SoundDuration":391032,"Delta":97439063},{"NoteNumber":76,"Velocity":66,"Duration":391032,"SoundDuration":391032,"Delta":97439063},{"NoteNumber":80,"Velocity":66,"Duration":391032,"SoundDuration":391032,"Delta":97439063},{"NoteNumber":77,"Velocity":68,"Duration":382165,"SoundDuration":382165,"Delta":97830095},{"NoteNumber":83,"Velocity":80,"Duration":382165,"SoundDuration":382165,"Delta":97830095},{"NoteNumber":64,"Velocity":66,"Duration":2334405,"SoundDuration":2334405,"Delta":97830095},{"NoteNumber":74,"Velocity":66,"Duration":382165,"SoundDuration":382165,"Delta":97830095},{"NoteNumber":86,"Velocity":73,"Duration":394737,"SoundDuration":394737,"Delta":98212261},{"NoteNumber":74,"Velocity":61,"Duration":394737,"SoundDuration":394737,"Delta":98212261},{"NoteNumber":71,"Velocity":57,"Duration":394737,"SoundDuration":394737,"Delta":98212261},{"NoteNumber":77,"Velocity":60,"Duration":382165,"SoundDuration":382165,"Delta":98606998},{"NoteNumber":81,"Velocity":72,"Duration":382165,"SoundDuration":382165,"Delta":98606998},{"NoteNumber":72,"Velocity":61,"Duration":382165,"SoundDuration":382165,"Delta":98606998},{"NoteNumber":84,"Velocity":70,"Duration":392156,"SoundDuration":392156,"Delta":98989163},{"NoteNumber":72,"Velocity":58,"Duration":392156,"SoundDuration":392156,"Delta":98989163},{"NoteNumber":69,"Velocity":57,"Duration":392156,"SoundDuration":392156,"Delta":98989163},{"NoteNumber":79,"Velocity":77,"Duration":384615,"SoundDuration":384615,"Delta":99381320},{"NoteNumber":74,"Velocity":65,"Duration":384615,"SoundDuration":384615,"Delta":99381320},{"NoteNumber":71,"Velocity":61,"Duration":384615,"SoundDuration":384615,"Delta":99381320},{"NoteNumber":83,"Velocity":65,"Duration":398565,"SoundDuration":398565,"Delta":99765936},{"NoteNumber":71,"Velocity":54,"Duration":398565,"SoundDuration":398565,"Delta":99765936},{"NoteNumber":67,"Velocity":55,"Duration":398565,"SoundDuration":398565,"Delta":99765936},{"NoteNumber":77,"Velocity":76,"Duration":398564,"SoundDuration":398564,"Delta":100164501},{"NoteNumber":72,"Velocity":65,"Duration":755877,"SoundDuration":755877,"Delta":100164501},{"NoteNumber":64,"Velocity":38,"Duration":2185129,"SoundDuration":2185129,"Delta":100164501},{"NoteNumber":69,"Velocity":58,"Duration":755877,"SoundDuration":755877,"Delta":100164501},{"NoteNumber":81,"Velocity":63,"Duration":357313,"SoundDuration":357313,"Delta":100563066},{"NoteNumber":74,"Velocity":59,"Duration":357312,"SoundDuration":357312,"Delta":100920379},{"NoteNumber":79,"Velocity":67,"Duration":357312,"SoundDuration":357312,"Delta":100920379},{"NoteNumber":71,"Velocity":56,"Duration":357312,"SoundDuration":357312,"Delta":100920379},{"NoteNumber":77,"Velocity":61,"Duration":357313,"SoundDuration":357313,"Delta":101277692},{"NoteNumber":72,"Velocity":54,"Duration":357313,"SoundDuration":357313,"Delta":101277692},{"NoteNumber":69,"Velocity":53,"Duration":357313,"SoundDuration":357313,"Delta":101277692},{"NoteNumber":76,"Velocity":59,"Duration":357313,"SoundDuration":357313,"Delta":101635005},{"NoteNumber":71,"Velocity":53,"Duration":357313,"SoundDuration":357313,"Delta":101635005},{"NoteNumber":67,"Velocity":52,"Duration":357313,"SoundDuration":357313,"Delta":101635005},{"NoteNumber":75,"Velocity":55,"Duration":357312,"SoundDuration":357312,"Delta":101992318},{"NoteNumber":69,"Velocity":50,"Duration":357312,"SoundDuration":357312,"Delta":101992318},{"NoteNumber":65,"Velocity":47,"Duration":357312,"SoundDuration":357312,"Delta":101992318},{"NoteNumber":68,"Velocity":47,"Duration":357313,"SoundDuration":357313,"Delta":102349631},{"NoteNumber":76,"Velocity":52,"Duration":357313,"SoundDuration":357313,"Delta":102349631},{"NoteNumber":64,"Velocity":44,"Duration":357313,"SoundDuration":357313,"Delta":102349631},{"NoteNumber":79,"Velocity":57,"Duration":363592,"SoundDuration":363592,"Delta":102706944},{"NoteNumber":73,"Velocity":57,"Duration":363592,"SoundDuration":363592,"Delta":102706944},{"NoteNumber":57,"Velocity":48,"Duration":363592,"SoundDuration":363592,"Delta":102706944},{"NoteNumber":72,"Velocity":50,"Duration":363947,"SoundDuration":363947,"Delta":103070536},{"NoteNumber":78,"Velocity":55,"Duration":363947,"SoundDuration":363947,"Delta":103070536},{"NoteNumber":50,"Velocity":46,"Duration":363947,"SoundDuration":363947,"Delta":103070536},{"NoteNumber":71,"Velocity":47,"Duration":365719,"SoundDuration":365719,"Delta":103434483},{"NoteNumber":77,"Velocity":52,"Duration":365719,"SoundDuration":365719,"Delta":103434483},{"NoteNumber":43,"Velocity":38,"Duration":365719,"SoundDuration":365719,"Delta":103434483},{"NoteNumber":70,"Velocity":44,"Duration":366796,"SoundDuration":366796,"Delta":103800203},{"NoteNumber":76,"Velocity":49,"Duration":366796,"SoundDuration":366796,"Delta":103800203},{"NoteNumber":36,"Velocity":37,"Duration":366796,"SoundDuration":366796,"Delta":103800203},{"NoteNumber":69,"Velocity":46,"Duration":367872,"SoundDuration":367872,"Delta":104167000},{"NoteNumber":75,"Velocity":46,"Duration":367872,"SoundDuration":367872,"Delta":104167000},{"NoteNumber":41,"Velocity":34,"Duration":367872,"SoundDuration":367872,"Delta":104167000},{"NoteNumber":74,"Velocity":44,"Duration":369354,"SoundDuration":369354,"Delta":104534872},{"NoteNumber":68,"Velocity":38,"Duration":369354,"SoundDuration":369354,"Delta":104534872},{"NoteNumber":40,"Velocity":32,"Duration":369354,"SoundDuration":369354,"Delta":104534872},{"NoteNumber":73,"Velocity":42,"Duration":370096,"SoundDuration":370096,"Delta":104904227},{"NoteNumber":67,"Velocity":37,"Duration":370096,"SoundDuration":370096,"Delta":104904227},{"NoteNumber":45,"Velocity":32,"Duration":370096,"SoundDuration":370096,"Delta":104904227},{"NoteNumber":74,"Velocity":44,"Duration":347342,"SoundDuration":347342,"Delta":105274323},{"NoteNumber":66,"Velocity":38,"Duration":347342,"SoundDuration":347342,"Delta":105274323},{"NoteNumber":38,"Velocity":32,"Duration":347342,"SoundDuration":347342,"Delta":105274323},{"NoteNumber":65,"Velocity":37,"Duration":347343,"SoundDuration":347343,"Delta":105621666},{"NoteNumber":71,"Velocity":42,"Duration":347343,"SoundDuration":347343,"Delta":105621666},{"NoteNumber":31,"Velocity":32,"Duration":347343,"SoundDuration":347343,"Delta":105621666},{"NoteNumber":72,"Velocity":44,"Duration":347336,"SoundDuration":347336,"Delta":105969009},{"NoteNumber":64,"Velocity":38,"Duration":347336,"SoundDuration":347336,"Delta":105969009},{"NoteNumber":36,"Velocity":32,"Duration":347336,"SoundDuration":347336,"Delta":105969009},{"NoteNumber":67,"Velocity":44,"Duration":353267,"SoundDuration":353267,"Delta":106316346},{"NoteNumber":73,"Velocity":49,"Duration":353267,"SoundDuration":353267,"Delta":106316346},{"NoteNumber":45,"Velocity":32,"Duration":353267,"SoundDuration":353267,"Delta":106316346},{"NoteNumber":66,"Velocity":47,"Duration":352614,"SoundDuration":352614,"Delta":106669613},{"NoteNumber":74,"Velocity":52,"Duration":352614,"SoundDuration":352614,"Delta":106669613},{"NoteNumber":38,"Velocity":35,"Duration":352614,"SoundDuration":352614,"Delta":106669613},{"NoteNumber":65,"Velocity":40,"Duration":355289,"SoundDuration":355289,"Delta":107022228},{"NoteNumber":71,"Velocity":46,"Duration":355289,"SoundDuration":355289,"Delta":107022228},{"NoteNumber":31,"Velocity":35,"Duration":355289,"SoundDuration":355289,"Delta":107022228},{"NoteNumber":64,"Velocity":36,"Duration":398565,"SoundDuration":398565,"Delta":107377517},{"NoteNumber":72,"Velocity":40,"Duration":398565,"SoundDuration":398565,"Delta":107377517},{"NoteNumber":36,"Velocity":31,"Duration":398565,"SoundDuration":398565,"Delta":107377517},{"NoteNumber":73,"Velocity":34,"Duration":398564,"SoundDuration":398564,"Delta":107776082},{"NoteNumber":67,"Velocity":30,"Duration":398564,"SoundDuration":398564,"Delta":107776082},{"NoteNumber":45,"Velocity":31,"Duration":398564,"SoundDuration":398564,"Delta":107776082},{"NoteNumber":74,"Velocity":34,"Duration":488374,"SoundDuration":488374,"Delta":108174647},{"NoteNumber":66,"Velocity":30,"Duration":488374,"SoundDuration":488374,"Delta":108174647},{"NoteNumber":38,"Velocity":28,"Duration":488374,"SoundDuration":488374,"Delta":108174647},{"NoteNumber":71,"Velocity":31,"Duration":508335,"SoundDuration":508335,"Delta":108663022},{"NoteNumber":65,"Velocity":28,"Duration":508335,"SoundDuration":508335,"Delta":108663022},{"NoteNumber":26,"Velocity":28,"Duration":508335,"SoundDuration":508335,"Delta":108663022},{"NoteNumber":72,"Velocity":45,"Duration":401337,"SoundDuration":401337,"Delta":109171357},{"NoteNumber":64,"Velocity":39,"Duration":401337,"SoundDuration":401337,"Delta":109171357},{"NoteNumber":69,"Velocity":45,"Duration":401337,"SoundDuration":401337,"Delta":109171357},{"NoteNumber":33,"Velocity":37,"Duration":267558,"SoundDuration":267558,"Delta":109171357},{"NoteNumber":45,"Velocity":35,"Duration":267558,"SoundDuration":267558,"Delta":109438916},{"NoteNumber":72,"Velocity":48,"Duration":420312,"SoundDuration":420312,"Delta":109572695},{"NoteNumber":69,"Velocity":43,"Duration":420312,"SoundDuration":420312,"Delta":109572695},{"NoteNumber":52,"Velocity":37,"Duration":286533,"SoundDuration":286533,"Delta":109706475},{"NoteNumber":74,"Velocity":33,"Duration":1605351,"SoundDuration":1605351,"Delta":109993008},{"NoteNumber":65,"Velocity":29,"Duration":1605351,"SoundDuration":1605351,"Delta":109993008},{"NoteNumber":69,"Velocity":29,"Duration":1605351,"SoundDuration":1605351,"Delta":109993008},{"NoteNumber":45,"Velocity":28,"Duration":1605351,"SoundDuration":1605351,"Delta":109993008},{"NoteNumber":50,"Velocity":31,"Duration":1605351,"SoundDuration":1605351,"Delta":109993008},{"NoteNumber":72,"Velocity":46,"Duration":401338,"SoundDuration":401338,"Delta":111598360},{"NoteNumber":69,"Velocity":40,"Duration":401338,"SoundDuration":401338,"Delta":111598360},{"NoteNumber":33,"Velocity":32,"Duration":267558,"SoundDuration":267558,"Delta":111598360},{"NoteNumber":45,"Velocity":36,"Duration":267558,"SoundDuration":267558,"Delta":111865918},{"NoteNumber":72,"Velocity":47,"Duration":422212,"SoundDuration":422212,"Delta":111999698},{"NoteNumber":69,"Velocity":42,"Duration":422212,"SoundDuration":422212,"Delta":111999698},{"NoteNumber":52,"Velocity":38,"Duration":288433,"SoundDuration":288433,"Delta":112133477},{"NoteNumber":68,"Velocity":29,"Duration":1605351,"SoundDuration":1605351,"Delta":112421911},{"NoteNumber":62,"Velocity":33,"Duration":1605351,"SoundDuration":1605351,"Delta":112421911},{"NoteNumber":71,"Velocity":33,"Duration":1605351,"SoundDuration":1605351,"Delta":112421911},{"NoteNumber":45,"Velocity":26,"Duration":1605351,"SoundDuration":1605351,"Delta":112421911},{"NoteNumber":53,"Velocity":29,"Duration":1605351,"SoundDuration":1605351,"Delta":112421911},{"NoteNumber":66,"Velocity":39,"Duration":401338,"SoundDuration":401338,"Delta":114027263},{"NoteNumber":69,"Velocity":45,"Duration":401338,"SoundDuration":401338,"Delta":114027263},{"NoteNumber":33,"Velocity":33,"Duration":267558,"SoundDuration":267558,"Delta":114027263},{"NoteNumber":45,"Velocity":33,"Duration":267558,"SoundDuration":267558,"Delta":114294821},{"NoteNumber":66,"Velocity":37,"Duration":420312,"SoundDuration":420312,"Delta":114428601},{"NoteNumber":69,"Velocity":43,"Duration":420312,"SoundDuration":420312,"Delta":114428601},{"NoteNumber":48,"Velocity":33,"Duration":286533,"SoundDuration":286533,"Delta":114562380},{"NoteNumber":60,"Velocity":37,"Duration":821579,"SoundDuration":821579,"Delta":114848913},{"NoteNumber":72,"Velocity":42,"Duration":821579,"SoundDuration":821579,"Delta":114848913},{"NoteNumber":45,"Velocity":25,"Duration":1643159,"SoundDuration":1643159,"Delta":114848913},{"NoteNumber":51,"Velocity":28,"Duration":1643159,"SoundDuration":1643159,"Delta":114848913},{"NoteNumber":69,"Velocity":37,"Duration":821579,"SoundDuration":821579,"Delta":115670493},{"NoteNumber":66,"Velocity":33,"Duration":821579,"SoundDuration":821579,"Delta":115670493},{"NoteNumber":68,"Velocity":35,"Duration":821580,"SoundDuration":821580,"Delta":116492073},{"NoteNumber":64,"Velocity":31,"Duration":821580,"SoundDuration":821580,"Delta":116492073},{"NoteNumber":40,"Velocity":26,"Duration":2552182,"SoundDuration":2552182,"Delta":116492073},{"NoteNumber":47,"Velocity":27,"Duration":273859,"SoundDuration":273859,"Delta":116765933},{"NoteNumber":52,"Velocity":27,"Duration":2004462,"SoundDuration":2004462,"Delta":117039793},{"NoteNumber":68,"Velocity":26,"Duration":1730602,"SoundDuration":1730602,"Delta":117313653},{"NoteNumber":59,"Velocity":26,"Duration":1730602,"SoundDuration":1730602,"Delta":117313653},{"NoteNumber":71,"Velocity":29,"Duration":1730602,"SoundDuration":1730602,"Delta":117313653},{"NoteNumber":69,"Velocity":44,"Duration":387596,"SoundDuration":387596,"Delta":119044255},{"NoteNumber":72,"Velocity":49,"Duration":387596,"SoundDuration":387596,"Delta":119044255},{"NoteNumber":33,"Velocity":37,"Duration":258397,"SoundDuration":258397,"Delta":119044255},{"NoteNumber":45,"Velocity":40,"Duration":258397,"SoundDuration":258397,"Delta":119302653},{"NoteNumber":72,"Velocity":52,"Duration":410176,"SoundDuration":410176,"Delta":119431852},{"NoteNumber":69,"Velocity":47,"Duration":410176,"SoundDuration":410176,"Delta":119431852},{"NoteNumber":52,"Velocity":45,"Duration":280977,"SoundDuration":280977,"Delta":119561051},{"NoteNumber":73,"Velocity":42,"Duration":1550387,"SoundDuration":1550387,"Delta":119842029},{"NoteNumber":64,"Velocity":42,"Duration":1550387,"SoundDuration":1550387,"Delta":119842029},{"NoteNumber":76,"Velocity":47,"Duration":1550387,"SoundDuration":1550387,"Delta":119842029},{"NoteNumber":45,"Velocity":36,"Duration":1550387,"SoundDuration":1550387,"Delta":119842029},{"NoteNumber":57,"Velocity":40,"Duration":1550387,"SoundDuration":1550387,"Delta":119842029},{"NoteNumber":74,"Velocity":50,"Duration":393339,"SoundDuration":393339,"Delta":121392417},{"NoteNumber":77,"Velocity":56,"Duration":393339,"SoundDuration":393339,"Delta":121392417},{"NoteNumber":38,"Velocity":43,"Duration":262226,"SoundDuration":262226,"Delta":121392417},{"NoteNumber":50,"Velocity":46,"Duration":262226,"SoundDuration":262226,"Delta":121654643},{"NoteNumber":74,"Velocity":54,"Duration":412090,"SoundDuration":412090,"Delta":121785756},{"NoteNumber":77,"Velocity":60,"Duration":412090,"SoundDuration":412090,"Delta":121785756},{"NoteNumber":57,"Velocity":48,"Duration":280977,"SoundDuration":280977,"Delta":121916869},{"NoteNumber":78,"Velocity":53,"Duration":1685866,"SoundDuration":1685866,"Delta":122197847},{"NoteNumber":69,"Velocity":53,"Duration":1685866,"SoundDuration":1685866,"Delta":122197847},{"NoteNumber":81,"Velocity":59,"Duration":1685866,"SoundDuration":1685866,"Delta":122197847},{"NoteNumber":51,"Velocity":40,"Duration":1685866,"SoundDuration":1685866,"Delta":122197847},{"NoteNumber":60,"Velocity":46,"Duration":1685866,"SoundDuration":1685866,"Delta":122197847},{"NoteNumber":79,"Velocity":61,"Duration":441501,"SoundDuration":441501,"Delta":123883713},{"NoteNumber":72,"Velocity":55,"Duration":1694251,"SoundDuration":1694251,"Delta":123883713},{"NoteNumber":67,"Velocity":55,"Duration":441501,"SoundDuration":441501,"Delta":123883713},{"NoteNumber":40,"Velocity":44,"Duration":294334,"SoundDuration":294334,"Delta":123883713},{"NoteNumber":52,"Velocity":44,"Duration":294333,"SoundDuration":294333,"Delta":124178047},{"NoteNumber":67,"Velocity":55,"Duration":441501,"SoundDuration":441501,"Delta":124325214},{"NoteNumber":79,"Velocity":61,"Duration":441501,"SoundDuration":441501,"Delta":124325214},{"NoteNumber":55,"Velocity":44,"Duration":294334,"SoundDuration":294334,"Delta":124472381},{"NoteNumber":76,"Velocity":61,"Duration":811249,"SoundDuration":811249,"Delta":124766715},{"NoteNumber":68,"Velocity":55,"Duration":811249,"SoundDuration":811249,"Delta":124766715},{"NoteNumber":60,"Velocity":40,"Duration":1216873,"SoundDuration":1216873,"Delta":124766715},{"NoteNumber":52,"Velocity":36,"Duration":811249,"SoundDuration":811249,"Delta":124766715},{"NoteNumber":69,"Velocity":47,"Duration":812539,"SoundDuration":812539,"Delta":125577964},{"NoteNumber":72,"Velocity":53,"Duration":812539,"SoundDuration":812539,"Delta":125577964},{"NoteNumber":53,"Velocity":37,"Duration":812539,"SoundDuration":812539,"Delta":125577964},{"NoteNumber":57,"Velocity":32,"Duration":406915,"SoundDuration":406915,"Delta":125983588},{"NoteNumber":64,"Velocity":44,"Duration":2526668,"SoundDuration":2526668,"Delta":126390504},{"NoteNumber":68,"Velocity":44,"Duration":842222,"SoundDuration":842222,"Delta":126390504},{"NoteNumber":71,"Velocity":49,"Duration":842222,"SoundDuration":842222,"Delta":126390504},{"NoteNumber":76,"Velocity":49,"Duration":2526668,"SoundDuration":2526668,"Delta":126390504},{"NoteNumber":52,"Velocity":47,"Duration":421111,"SoundDuration":421111,"Delta":126390504},{"NoteNumber":52,"Velocity":46,"Duration":2105557,"SoundDuration":2105557,"Delta":126811615},{"NoteNumber":69,"Velocity":52,"Duration":1684446,"SoundDuration":1684446,"Delta":127232727},{"NoteNumber":48,"Velocity":44,"Duration":842223,"SoundDuration":842223,"Delta":127232727},{"NoteNumber":45,"Velocity":46,"Duration":842222,"SoundDuration":842222,"Delta":128074950},{"NoteNumber":59,"Velocity":35,"Duration":891795,"SoundDuration":891795,"Delta":128917173},{"NoteNumber":52,"Velocity":31,"Duration":2869382,"SoundDuration":2869382,"Delta":128917173},{"NoteNumber":56,"Velocity":31,"Duration":891795,"SoundDuration":891795,"Delta":128917173},{"NoteNumber":64,"Velocity":35,"Duration":2869382,"SoundDuration":2869382,"Delta":128917173},{"NoteNumber":40,"Velocity":35,"Duration":445897,"SoundDuration":445897,"Delta":129363070},{"NoteNumber":57,"Velocity":30,"Duration":1977587,"SoundDuration":1977587,"Delta":129808968},{"NoteNumber":36,"Velocity":37,"Duration":988794,"SoundDuration":988794,"Delta":129808968},{"NoteNumber":33,"Velocity":28,"Duration":1233322,"SoundDuration":1233322,"Delta":130797762},{"NoteNumber":72,"Velocity":38,"Duration":366793,"SoundDuration":366793,"Delta":131786556},{"NoteNumber":69,"Velocity":34,"Duration":366793,"SoundDuration":366793,"Delta":131786556},{"NoteNumber":45,"Velocity":26,"Duration":244528,"SoundDuration":244528,"Delta":132031084},{"NoteNumber":69,"Velocity":34,"Duration":366793,"SoundDuration":366793,"Delta":132153349},{"NoteNumber":72,"Velocity":38,"Duration":366793,"SoundDuration":366793,"Delta":132153349},{"NoteNumber":52,"Velocity":25,"Duration":244528,"SoundDuration":244528,"Delta":132275613},{"NoteNumber":71,"Velocity":37,"Duration":387596,"SoundDuration":387596,"Delta":132520142},{"NoteNumber":74,"Velocity":42,"Duration":387596,"SoundDuration":387596,"Delta":132520142},{"NoteNumber":65,"Velocity":37,"Duration":387596,"SoundDuration":387596,"Delta":132520142},{"NoteNumber":45,"Velocity":25,"Duration":258397,"SoundDuration":258397,"Delta":132520142},{"NoteNumber":50,"Velocity":25,"Duration":258397,"SoundDuration":258397,"Delta":132778540},{"NoteNumber":72,"Velocity":38,"Duration":387596,"SoundDuration":387596,"Delta":132907739},{"NoteNumber":69,"Velocity":34,"Duration":387596,"SoundDuration":387596,"Delta":132907739},{"NoteNumber":53,"Velocity":25,"Duration":258397,"SoundDuration":258397,"Delta":133036938},{"NoteNumber":71,"Velocity":36,"Duration":807210,"SoundDuration":807210,"Delta":133295336},{"NoteNumber":65,"Velocity":36,"Duration":807210,"SoundDuration":807210,"Delta":133295336},{"NoteNumber":74,"Velocity":40,"Duration":807210,"SoundDuration":807210,"Delta":133295336},{"NoteNumber":45,"Velocity":25,"Duration":807210,"SoundDuration":807210,"Delta":133295336},{"NoteNumber":69,"Velocity":37,"Duration":370782,"SoundDuration":370782,"Delta":134102547},{"NoteNumber":72,"Velocity":42,"Duration":370782,"SoundDuration":370782,"Delta":134102547},{"NoteNumber":33,"Velocity":25,"Duration":247188,"SoundDuration":247188,"Delta":134102547},{"NoteNumber":45,"Velocity":26,"Duration":247188,"SoundDuration":247188,"Delta":134349735},{"NoteNumber":72,"Velocity":35,"Duration":370782,"SoundDuration":370782,"Delta":134473329},{"NoteNumber":69,"Velocity":35,"Duration":370782,"SoundDuration":370782,"Delta":134473329},{"NoteNumber":52,"Velocity":27,"Duration":247188,"SoundDuration":247188,"Delta":134596923},{"NoteNumber":68,"Velocity":40,"Duration":392054,"SoundDuration":392054,"Delta":134844112},{"NoteNumber":62,"Velocity":40,"Duration":392054,"SoundDuration":392054,"Delta":134844112},{"NoteNumber":71,"Velocity":40,"Duration":392054,"SoundDuration":392054,"Delta":134844112},{"NoteNumber":45,"Velocity":28,"Duration":261369,"SoundDuration":261369,"Delta":134844112},{"NoteNumber":53,"Velocity":27,"Duration":261369,"SoundDuration":261369,"Delta":135105481},{"NoteNumber":65,"Velocity":37,"Duration":392054,"SoundDuration":392054,"Delta":135236166},{"NoteNumber":69,"Velocity":37,"Duration":392054,"SoundDuration":392054,"Delta":135236166},{"NoteNumber":50,"Velocity":27,"Duration":261369,"SoundDuration":261369,"Delta":135366851},{"NoteNumber":62,"Velocity":36,"Duration":784109,"SoundDuration":784109,"Delta":135628221},{"NoteNumber":71,"Velocity":36,"Duration":784109,"SoundDuration":784109,"Delta":135628221},{"NoteNumber":68,"Velocity":36,"Duration":784109,"SoundDuration":784109,"Delta":135628221},{"NoteNumber":45,"Velocity":27,"Duration":784109,"SoundDuration":784109,"Delta":135628221},{"NoteNumber":66,"Velocity":35,"Duration":368731,"SoundDuration":368731,"Delta":136412330},{"NoteNumber":69,"Velocity":39,"Duration":368731,"SoundDuration":368731,"Delta":136412330},{"NoteNumber":33,"Velocity":26,"Duration":245821,"SoundDuration":245821,"Delta":136412330},{"NoteNumber":45,"Velocity":28,"Duration":245821,"SoundDuration":245821,"Delta":136658151},{"NoteNumber":66,"Velocity":36,"Duration":368731,"SoundDuration":368731,"Delta":136781061},{"NoteNumber":69,"Velocity":40,"Duration":737462,"SoundDuration":737462,"Delta":136781061},{"NoteNumber":48,"Velocity":30,"Duration":245820,"SoundDuration":245820,"Delta":136903972},{"NoteNumber":60,"Velocity":40,"Duration":368731,"SoundDuration":368731,"Delta":137149793},{"NoteNumber":72,"Velocity":46,"Duration":368731,"SoundDuration":368731,"Delta":137149793},{"NoteNumber":45,"Velocity":33,"Duration":245821,"SoundDuration":245821,"Delta":137149793},{"NoteNumber":54,"Velocity":31,"Duration":245821,"SoundDuration":245821,"Delta":137395614},{"NoteNumber":68,"Velocity":37,"Duration":368731,"SoundDuration":368731,"Delta":137518524},{"NoteNumber":71,"Velocity":43,"Duration":368731,"SoundDuration":368731,"Delta":137518524},{"NoteNumber":51,"Velocity":31,"Duration":245821,"SoundDuration":245821,"Delta":137641435},{"NoteNumber":69,"Velocity":37,"Duration":368731,"SoundDuration":368731,"Delta":137887256},{"NoteNumber":60,"Velocity":37,"Duration":368731,"SoundDuration":368731,"Delta":137887256},{"NoteNumber":72,"Velocity":43,"Duration":368731,"SoundDuration":368731,"Delta":137887256},{"NoteNumber":45,"Velocity":29,"Duration":245820,"SoundDuration":245820,"Delta":137887256},{"NoteNumber":54,"Velocity":29,"Duration":245821,"SoundDuration":245821,"Delta":138133077},{"NoteNumber":66,"Velocity":36,"Duration":368731,"SoundDuration":368731,"Delta":138255987},{"NoteNumber":69,"Velocity":40,"Duration":368731,"SoundDuration":368731,"Delta":138255987},{"NoteNumber":51,"Velocity":29,"Duration":245821,"SoundDuration":245821,"Delta":138378898},{"NoteNumber":64,"Velocity":35,"Duration":772599,"SoundDuration":772599,"Delta":138624719},{"NoteNumber":68,"Velocity":39,"Duration":772599,"SoundDuration":772599,"Delta":138624719},{"NoteNumber":40,"Velocity":27,"Duration":2385285,"SoundDuration":2385285,"Delta":138624719},{"NoteNumber":47,"Velocity":28,"Duration":257532,"SoundDuration":257532,"Delta":138882252},{"NoteNumber":52,"Velocity":28,"Duration":1870219,"SoundDuration":1870219,"Delta":139139785},{"NoteNumber":59,"Velocity":30,"Duration":1612685,"SoundDuration":1612685,"Delta":139397318},{"NoteNumber":71,"Velocity":34,"Duration":1612685,"SoundDuration":1612685,"Delta":139397318},{"NoteNumber":68,"Velocity":30,"Duration":1612685,"SoundDuration":1612685,"Delta":139397318},{"NoteNumber":69,"Velocity":40,"Duration":386149,"SoundDuration":386149,"Delta":141010004},{"NoteNumber":72,"Velocity":46,"Duration":386149,"SoundDuration":386149,"Delta":141010004},{"NoteNumber":33,"Velocity":35,"Duration":257433,"SoundDuration":257433,"Delta":141010004},{"NoteNumber":45,"Velocity":37,"Duration":257433,"SoundDuration":257433,"Delta":141267437},{"NoteNumber":69,"Velocity":40,"Duration":386150,"SoundDuration":386150,"Delta":141396154},{"NoteNumber":72,"Velocity":46,"Duration":386150,"SoundDuration":386150,"Delta":141396154},{"NoteNumber":52,"Velocity":39,"Duration":257433,"SoundDuration":257433,"Delta":141524870},{"NoteNumber":67,"Velocity":47,"Duration":784652,"SoundDuration":784652,"Delta":141782304},{"NoteNumber":73,"Velocity":47,"Duration":784652,"SoundDuration":784652,"Delta":141782304},{"NoteNumber":76,"Velocity":53,"Duration":784652,"SoundDuration":784652,"Delta":141782304},{"NoteNumber":45,"Velocity":42,"Duration":257841,"SoundDuration":257841,"Delta":141782304},{"NoteNumber":57,"Velocity":44,"Duration":261103,"SoundDuration":261103,"Delta":142040145},{"NoteNumber":50,"Velocity":47,"Duration":265706,"SoundDuration":265706,"Delta":142301249},{"NoteNumber":71,"Velocity":53,"Duration":825518,"SoundDuration":825518,"Delta":142566956},{"NoteNumber":77,"Velocity":59,"Duration":825518,"SoundDuration":825518,"Delta":142566956},{"NoteNumber":65,"Velocity":53,"Duration":825518,"SoundDuration":825518,"Delta":142566956},{"NoteNumber":62,"Velocity":46,"Duration":270479,"SoundDuration":270479,"Delta":142566956},{"NoteNumber":57,"Velocity":48,"Duration":2886644,"SoundDuration":2886644,"Delta":142837435},{"NoteNumber":69,"Velocity":50,"Duration":2611684,"SoundDuration":2611684,"Delta":143112395},{"NoteNumber":79,"Velocity":72,"Duration":2331605,"SoundDuration":2331605,"Delta":143392474},{"NoteNumber":73,"Velocity":64,"Duration":2331605,"SoundDuration":2331605,"Delta":143392474},{"NoteNumber":64,"Velocity":53,"Duration":2331605,"SoundDuration":2331605,"Delta":143392474},{"NoteNumber":77,"Velocity":56,"Duration":388600,"SoundDuration":388600,"Delta":145724080},{"NoteNumber":74,"Velocity":50,"Duration":388600,"SoundDuration":388600,"Delta":145724080},{"NoteNumber":38,"Velocity":42,"Duration":259067,"SoundDuration":259067,"Delta":145724080},{"NoteNumber":50,"Velocity":45,"Duration":259067,"SoundDuration":259067,"Delta":145983147},{"NoteNumber":74,"Velocity":55,"Duration":388600,"SoundDuration":388600,"Delta":146112681},{"NoteNumber":77,"Velocity":61,"Duration":388600,"SoundDuration":388600,"Delta":146112681},{"NoteNumber":57,"Velocity":49,"Duration":259067,"SoundDuration":259067,"Delta":146242215},{"NoteNumber":78,"Velocity":63,"Duration":388594,"SoundDuration":388594,"Delta":146501282},{"NoteNumber":81,"Velocity":70,"Duration":388594,"SoundDuration":388594,"Delta":146501282},{"NoteNumber":72,"Velocity":70,"Duration":388594,"SoundDuration":388594,"Delta":146501282},{"NoteNumber":50,"Velocity":52,"Duration":258250,"SoundDuration":258250,"Delta":146501282},{"NoteNumber":62,"Velocity":55,"Duration":261508,"SoundDuration":261508,"Delta":146759532},{"NoteNumber":79,"Velocity":72,"Duration":396015,"SoundDuration":396015,"Delta":146889876},{"NoteNumber":70,"Velocity":57,"Duration":396015,"SoundDuration":396015,"Delta":146889876},{"NoteNumber":55,"Velocity":54,"Duration":264850,"SoundDuration":264850,"Delta":147021041},{"NoteNumber":76,"Velocity":65,"Duration":405065,"SoundDuration":405065,"Delta":147285892},{"NoteNumber":73,"Velocity":65,"Duration":405065,"SoundDuration":405065,"Delta":147285892},{"NoteNumber":82,"Velocity":72,"Duration":405065,"SoundDuration":405065,"Delta":147285892},{"NoteNumber":67,"Velocity":58,"Duration":269157,"SoundDuration":269157,"Delta":147285892},{"NoteNumber":62,"Velocity":58,"Duration":1389261,"SoundDuration":1389261,"Delta":147555049},{"NoteNumber":69,"Velocity":64,"Duration":413135,"SoundDuration":413135,"Delta":147690957},{"NoteNumber":81,"Velocity":71,"Duration":413135,"SoundDuration":413135,"Delta":147690957},{"NoteNumber":78,"Velocity":64,"Duration":413135,"SoundDuration":413135,"Delta":147690957},{"NoteNumber":74,"Velocity":63,"Duration":276335,"SoundDuration":276335,"Delta":147827758},{"NoteNumber":72,"Velocity":73,"Duration":2404347,"SoundDuration":2404347,"Delta":148104093},{"NoteNumber":84,"Velocity":81,"Duration":2404347,"SoundDuration":2404347,"Delta":148104093},{"NoteNumber":78,"Velocity":73,"Duration":2404347,"SoundDuration":2404347,"Delta":148104093},{"NoteNumber":69,"Velocity":66,"Duration":2404347,"SoundDuration":2404347,"Delta":148104093},{"NoteNumber":63,"Velocity":60,"Duration":1564130,"SoundDuration":1564130,"Delta":148944311},{"NoteNumber":72,"Velocity":54,"Duration":1630528,"SoundDuration":1630528,"Delta":150508441},{"NoteNumber":67,"Velocity":54,"Duration":836353,"SoundDuration":836353,"Delta":150508441},{"NoteNumber":79,"Velocity":60,"Duration":418176,"SoundDuration":418176,"Delta":150508441},{"NoteNumber":40,"Velocity":45,"Duration":278784,"SoundDuration":278784,"Delta":150508441},{"NoteNumber":52,"Velocity":45,"Duration":278784,"SoundDuration":278784,"Delta":150787225},{"NoteNumber":79,"Velocity":60,"Duration":418176,"SoundDuration":418176,"Delta":150926617},{"NoteNumber":55,"Velocity":42,"Duration":278784,"SoundDuration":278784,"Delta":151066009},{"NoteNumber":77,"Velocity":56,"Duration":397087,"SoundDuration":397087,"Delta":151344794},{"NoteNumber":68,"Velocity":56,"Duration":794175,"SoundDuration":794175,"Delta":151344794},{"NoteNumber":52,"Velocity":40,"Duration":794175,"SoundDuration":794175,"Delta":151344794},{"NoteNumber":60,"Velocity":37,"Duration":529450,"SoundDuration":529450,"Delta":151609519},{"NoteNumber":76,"Velocity":54,"Duration":397087,"SoundDuration":397087,"Delta":151741882},{"NoteNumber":74,"Velocity":54,"Duration":397087,"SoundDuration":397087,"Delta":152138970},{"NoteNumber":69,"Velocity":54,"Duration":794175,"SoundDuration":794175,"Delta":152138970},{"NoteNumber":53,"Velocity":37,"Duration":794175,"SoundDuration":794175,"Delta":152138970},{"NoteNumber":57,"Velocity":37,"Duration":529450,"SoundDuration":529450,"Delta":152403695},{"NoteNumber":72,"Velocity":50,"Duration":397087,"SoundDuration":397087,"Delta":152536058},{"NoteNumber":68,"Velocity":45,"Duration":812788,"SoundDuration":812788,"Delta":152933146},{"NoteNumber":76,"Velocity":50,"Duration":2438364,"SoundDuration":2438364,"Delta":152933146},{"NoteNumber":64,"Velocity":45,"Duration":2438364,"SoundDuration":2438364,"Delta":152933146},{"NoteNumber":71,"Velocity":50,"Duration":812788,"SoundDuration":812788,"Delta":152933146},{"NoteNumber":52,"Velocity":37,"Duration":406394,"SoundDuration":406394,"Delta":152933146},{"NoteNumber":52,"Velocity":34,"Duration":2031970,"SoundDuration":2031970,"Delta":153339540},{"NoteNumber":69,"Velocity":49,"Duration":1625575,"SoundDuration":1625575,"Delta":153745934},{"NoteNumber":50,"Velocity":37,"Duration":423327,"SoundDuration":423327,"Delta":153745934},{"NoteNumber":48,"Velocity":35,"Duration":423327,"SoundDuration":423327,"Delta":154152328},{"NoteNumber":47,"Velocity":38,"Duration":423327,"SoundDuration":423327,"Delta":154558722},{"NoteNumber":45,"Velocity":34,"Duration":406394,"SoundDuration":406394,"Delta":154965116},{"NoteNumber":56,"Velocity":32,"Duration":1738518,"SoundDuration":1738518,"Delta":155371510},{"NoteNumber":64,"Velocity":36,"Duration":1738518,"SoundDuration":1738518,"Delta":155371510},{"NoteNumber":59,"Velocity":36,"Duration":1738518,"SoundDuration":1738518,"Delta":155371510},{"NoteNumber":52,"Velocity":32,"Duration":3762550,"SoundDuration":3762550,"Delta":155371510},{"NoteNumber":40,"Velocity":31,"Duration":430301,"SoundDuration":430301,"Delta":155793521},{"NoteNumber":38,"Velocity":29,"Duration":886206,"SoundDuration":886206,"Delta":156223822},{"NoteNumber":57,"Velocity":29,"Duration":2024032,"SoundDuration":2024032,"Delta":157110029},{"NoteNumber":36,"Velocity":27,"Duration":923518,"SoundDuration":923518,"Delta":157110029},{"NoteNumber":35,"Velocity":25,"Duration":1100514,"SoundDuration":1100514,"Delta":158033547},{"NoteNumber":33,"Velocity":26,"Duration":1100514,"SoundDuration":1100514,"Delta":159134061}]}