{"title":"Intermezzo in E minor, Op. 116 No. 5","artist":"Brahms","durationMs":170100,"midiSha256":"7f1d80c6f5888a5df56322845f1be098b780eef82eb1218b2f1ee7d4dcc470bb","midiObject":[{"NoteNumber":71,"Velocity":39,"Duration":370370,"SoundDuration":370370,"Delta":0},{"NoteNumber":59,"Velocity":31,"Duration":370370,"SoundDuration":370370,"Delta":0},{"NoteNumber":67,"Velocity":31,"Duration":370370,"SoundDuration":370370,"Delta":0},{"NoteNumber":64,"Velocity":24,"Duration":370370,"SoundDuration":370370,"Delta":0},{"NoteNumber":52,"Velocity":19,"Duration":370370,"SoundDuration":370370,"Delta":0},{"NoteNumber":55,"Velocity":19,"Duration":370370,"SoundDuration":370370,"Delta":0},{"NoteNumber":72,"Velocity":33,"Duration":140625,"SoundDuration":140625,"Delta":370370},{"NoteNumber":51,"Velocity":25,"Duration":140625,"SoundDuration":140625,"Delta":370370},{"NoteNumber":79,"Velocity":40,"Duration":375000,"SoundDuration":375000,"Delta":1094207},{"NoteNumber":71,"Velocity":32,"Duration":375000,"SoundDuration":375000,"Delta":1094207},{"NoteNumber":76,"Velocity":32,"Duration":375000,"SoundDuration":375000,"Delta":1094207},{"NoteNumber":52,"Velocity":24,"Duration":375000,"SoundDuration":375000,"Delta":1094207},{"NoteNumber":43,"Velocity":19,"Duration":375000,"SoundDuration":375000,"Delta":1094207},{"NoteNumber":47,"Velocity":19,"Duration":375000,"SoundDuration":375000,"Delta":1094207},{"NoteNumber":70,"Velocity":33,"Duration":140625,"SoundDuration":140625,"Delta":1469207},{"NoteNumber":54,"Velocity":26,"Duration":140625,"SoundDuration":140625,"Delta":1469207},{"NoteNumber":71,"Velocity":39,"Duration":370370,"SoundDuration":370370,"Delta":2193044},{"NoteNumber":59,"Velocity":31,"Duration":370370,"SoundDuration":370370,"Delta":2193044},{"NoteNumber":67,"Velocity":31,"Duration":370370,"SoundDuration":370370,"Delta":2193044},{"NoteNumber":64,"Velocity":24,"Duration":370370,"SoundDuration":370370,"Delta":2193044},{"NoteNumber":52,"Velocity":19,"Duration":370370,"SoundDuration":370370,"Delta":2193044},{"NoteNumber":55,"Velocity":19,"Duration":370370,"SoundDuration":370370,"Delta":2193044},{"NoteNumber":72,"Velocity":33,"Duration":140625,"SoundDuration":140625,"Delta":2563415},{"NoteNumber":51,"Velocity":25,"Duration":140625,"SoundDuration":140625,"Delta":2563415},{"NoteNumber":79,"Velocity":40,"Duration":365853,"SoundDuration":365853,"Delta":3313415},{"NoteNumber":71,"Velocity":32,"Duration":365853,"SoundDuration":365853,"Delta":3313415},{"NoteNumber":76,"Velocity":32,"Duration":365853,"SoundDuration":365853,"Delta":3313415},{"NoteNumber":52,"Velocity":24,"Duration":365853,"SoundDuration":365853,"Delta":3313415},{"NoteNumber":43,"Velocity":19,"Duration":365853,"SoundDuration":365853,"Delta":3313415},{"NoteNumber":47,"Velocity":19,"Duration":365853,"SoundDuration":365853,"Delta":3313415},{"NoteNumber":64,"Velocity":33,"Duration":142405,"SoundDuration":142405,"Delta":3679268},{"NoteNumber":55,"Velocity":26,"Duration":142405,"SoundDuration":142405,"Delta":3679268},{"NoteNumber":72,"Velocity":42,"Duration":370370,"SoundDuration":370370,"Delta":4416158},{"NoteNumber":60,"Velocity":34,"Duration":370370,"SoundDuration":370370,"Delta":4416158},{"NoteNumber":69,"Velocity":34,"Duration":370370,"SoundDuration":370370,"Delta":4416158},{"NoteNumber":66,"Velocity":27,"Duration":370370,"SoundDuration":370370,"Delta":4416158},{"NoteNumber":54,"Velocity":20,"Duration":370370,"SoundDuration":370370,"Delta":4416158},{"NoteNumber":57,"Velocity":20,"Duration":370370,"SoundDuration":370370,"Delta":4416158},{"NoteNumber":74,"Velocity":36,"Duration":140625,"SoundDuration":140625,"Delta":4786529},{"NoteNumber":53,"Velocity":27,"Duration":140625,"SoundDuration":140625,"Delta":4786529},{"NoteNumber":81,"Velocity":42,"Duration":375000,"SoundDuration":375000,"Delta":5510365},{"NoteNumber":72,"Velocity":33,"Duration":375000,"SoundDuration":375000,"Delta":5510365},{"NoteNumber":78,"Velocity":33,"Duration":375000,"SoundDuration":375000,"Delta":5510365},{"NoteNumber":54,"Velocity":25,"Duration":375000,"SoundDuration":375000,"Delta":5510365},{"NoteNumber":45,"Velocity":20,"Duration":375000,"SoundDuration":375000,"Delta":5510365},{"NoteNumber":48,"Velocity":20,"Duration":375000,"SoundDuration":375000,"Delta":5510365},{"NoteNumber":71,"Velocity":34,"Duration":138888,"SoundDuration":138888,"Delta":5885365},{"NoteNumber":55,"Velocity":27,"Duration":138888,"SoundDuration":138888,"Delta":5885365},{"NoteNumber":72,"Velocity":39,"Duration":375000,"SoundDuration":375000,"Delta":6585407},{"NoteNumber":60,"Velocity":31,"Duration":375000,"SoundDuration":375000,"Delta":6585407},{"NoteNumber":69,"Velocity":31,"Duration":375000,"SoundDuration":375000,"Delta":6585407},{"NoteNumber":66,"Velocity":24,"Duration":375000,"SoundDuration":375000,"Delta":6585407},{"NoteNumber":54,"Velocity":19,"Duration":375000,"SoundDuration":375000,"Delta":6585407},{"NoteNumber":57,"Velocity":19,"Duration":375000,"SoundDuration":375000,"Delta":6585407},{"NoteNumber":74,"Velocity":33,"Duration":138888,"SoundDuration":138888,"Delta":6960407},{"NoteNumber":53,"Velocity":25,"Duration":138888,"SoundDuration":138888,"Delta":6960407},{"NoteNumber":81,"Velocity":40,"Duration":370370,"SoundDuration":370370,"Delta":7683718},{"NoteNumber":72,"Velocity":32,"Duration":370370,"SoundDuration":370370,"Delta":7683718},{"NoteNumber":78,"Velocity":32,"Duration":370370,"SoundDuration":370370,"Delta":7683718},{"NoteNumber":54,"Velocity":24,"Duration":370370,"SoundDuration":370370,"Delta":7683718},{"NoteNumber":45,"Velocity":19,"Duration":370370,"SoundDuration":370370,"Delta":7683718},{"NoteNumber":48,"Velocity":19,"Duration":370370,"SoundDuration":370370,"Delta":7683718},{"NoteNumber":66,"Velocity":33,"Duration":138888,"SoundDuration":138888,"Delta":8054089},{"NoteNumber":57,"Velocity":26,"Duration":138888,"SoundDuration":138888,"Delta":8054089},{"NoteNumber":74,"Velocity":46,"Duration":352940,"SoundDuration":352940,"Delta":8809075},{"NoteNumber":62,"Velocity":37,"Duration":352940,"SoundDuration":352940,"Delta":8809075},{"NoteNumber":71,"Velocity":37,"Duration":352940,"SoundDuration":352940,"Delta":8809075},{"NoteNumber":67,"Velocity":37,"Duration":352940,"SoundDuration":352940,"Delta":8809075},{"NoteNumber":55,"Velocity":28,"Duration":352940,"SoundDuration":352940,"Delta":8809075},{"NoteNumber":59,"Velocity":28,"Duration":352940,"SoundDuration":352940,"Delta":8809075},{"NoteNumber":76,"Velocity":39,"Duration":187500,"SoundDuration":187500,"Delta":9162016},{"NoteNumber":54,"Velocity":29,"Duration":187500,"SoundDuration":187500,"Delta":9162016},{"NoteNumber":83,"Velocity":52,"Duration":389610,"SoundDuration":389610,"Delta":9912016},{"NoteNumber":74,"Velocity":42,"Duration":389610,"SoundDuration":389610,"Delta":9912016},{"NoteNumber":80,"Velocity":42,"Duration":389610,"SoundDuration":389610,"Delta":9912016},{"NoteNumber":56,"Velocity":41,"Duration":389610,"SoundDuration":389610,"Delta":9912016},{"NoteNumber":47,"Velocity":33,"Duration":389610,"SoundDuration":389610,"Delta":9912016},{"NoteNumber":50,"Velocity":33,"Duration":389610,"SoundDuration":389610,"Delta":9912016},{"NoteNumber":68,"Velocity":58,"Duration":194805,"SoundDuration":194805,"Delta":10301626},{"NoteNumber":62,"Velocity":42,"Duration":194805,"SoundDuration":194805,"Delta":10301626},{"NoteNumber":76,"Velocity":55,"Duration":379747,"SoundDuration":379747,"Delta":11040073},{"NoteNumber":64,"Velocity":45,"Duration":379747,"SoundDuration":379747,"Delta":11040073},{"NoteNumber":72,"Velocity":45,"Duration":379747,"SoundDuration":379747,"Delta":11040073},{"NoteNumber":69,"Velocity":45,"Duration":379747,"SoundDuration":379747,"Delta":11040073},{"NoteNumber":57,"Velocity":35,"Duration":379747,"SoundDuration":379747,"Delta":11040073},{"NoteNumber":60,"Velocity":35,"Duration":379747,"SoundDuration":379747,"Delta":11040073},{"NoteNumber":77,"Velocity":58,"Duration":189873,"SoundDuration":189873,"Delta":11419820},{"NoteNumber":56,"Velocity":50,"Duration":189873,"SoundDuration":189873,"Delta":11419820},{"NoteNumber":85,"Velocity":60,"Duration":389610,"SoundDuration":389610,"Delta":12189178},{"NoteNumber":76,"Velocity":47,"Duration":389610,"SoundDuration":389610,"Delta":12189178},{"NoteNumber":82,"Velocity":47,"Duration":389610,"SoundDuration":389610,"Delta":12189178},{"NoteNumber":58,"Velocity":46,"Duration":389610,"SoundDuration":389610,"Delta":12189178},{"NoteNumber":49,"Velocity":35,"Duration":389610,"SoundDuration":389610,"Delta":12189178},{"NoteNumber":52,"Velocity":35,"Duration":389610,"SoundDuration":389610,"Delta":12189178},{"NoteNumber":70,"Velocity":64,"Duration":180723,"SoundDuration":180723,"Delta":12578788},{"NoteNumber":64,"Velocity":49,"Duration":180723,"SoundDuration":180723,"Delta":12578788},{"NoteNumber":77,"Velocity":50,"Duration":428571,"SoundDuration":428571,"Delta":13297378},{"NoteNumber":65,"Velocity":40,"Duration":428571,"SoundDuration":428571,"Delta":13297378},{"NoteNumber":74,"Velocity":40,"Duration":428571,"SoundDuration":428571,"Delta":13297378},{"NoteNumber":71,"Velocity":40,"Duration":428571,"SoundDuration":428571,"Delta":13297378},{"NoteNumber":59,"Velocity":30,"Duration":428571,"SoundDuration":428571,"Delta":13297378},{"NoteNumber":62,"Velocity":30,"Duration":428571,"SoundDuration":428571,"Delta":13297378},{"NoteNumber":79,"Velocity":50,"Duration":296052,"SoundDuration":296052,"Delta":13725949},{"NoteNumber":50,"Velocity":31,"Duration":296052,"SoundDuration":296052,"Delta":13725949},{"NoteNumber":85,"Velocity":46,"Duration":428571,"SoundDuration":428571,"Delta":14537353},{"NoteNumber":78,"Velocity":36,"Duration":702961,"SoundDuration":702961,"Delta":14537353},{"NoteNumber":61,"Velocity":35,"Duration":428571,"SoundDuration":428571,"Delta":14537353},{"NoteNumber":52,"Velocity":27,"Duration":428571,"SoundDuration":428571,"Delta":14537353},{"NoteNumber":55,"Velocity":27,"Duration":428571,"SoundDuration":428571,"Delta":14537353},{"NoteNumber":67,"Velocity":35,"Duration":274390,"SoundDuration":274390,"Delta":14965924},{"NoteNumber":66,"Velocity":26,"Duration":274390,"SoundDuration":274390,"Delta":14965924},{"NoteNumber":83,"Velocity":43,"Duration":428571,"SoundDuration":428571,"Delta":15697631},{"NoteNumber":76,"Velocity":34,"Duration":732625,"SoundDuration":732625,"Delta":15697631},{"NoteNumber":59,"Velocity":33,"Duration":428571,"SoundDuration":428571,"Delta":15697631},{"NoteNumber":54,"Velocity":26,"Duration":428571,"SoundDuration":428571,"Delta":15697631},{"NoteNumber":66,"Velocity":33,"Duration":304054,"SoundDuration":304054,"Delta":16126203},{"NoteNumber":64,"Velocity":25,"Duration":304054,"SoundDuration":304054,"Delta":16126203},{"NoteNumber":82,"Velocity":41,"Duration":866528,"SoundDuration":866528,"Delta":16921219},{"NoteNumber":74,"Velocity":32,"Duration":679028,"SoundDuration":679028,"Delta":16921219},{"NoteNumber":58,"Velocity":31,"Duration":866528,"SoundDuration":866528,"Delta":16921219},{"NoteNumber":54,"Velocity":24,"Duration":866528,"SoundDuration":866528,"Delta":16921219},{"NoteNumber":66,"Velocity":26,"Duration":326087,"SoundDuration":326087,"Delta":17274160},{"NoteNumber":73,"Velocity":34,"Duration":187500,"SoundDuration":187500,"Delta":17600247},{"NoteNumber":64,"Velocity":25,"Duration":187500,"SoundDuration":187500,"Delta":17600247},{"NoteNumber":78,"Velocity":52,"Duration":370370,"SoundDuration":370370,"Delta":17975247},{"NoteNumber":66,"Velocity":42,"Duration":370370,"SoundDuration":370370,"Delta":17975247},{"NoteNumber":74,"Velocity":42,"Duration":370370,"SoundDuration":370370,"Delta":17975247},{"NoteNumber":71,"Velocity":42,"Duration":370370,"SoundDuration":370370,"Delta":17975247},{"NoteNumber":59,"Velocity":32,"Duration":370370,"SoundDuration":370370,"Delta":17975247},{"NoteNumber":62,"Velocity":32,"Duration":370370,"SoundDuration":370370,"Delta":17975247},{"NoteNumber":83,"Velocity":44,"Duration":187500,"SoundDuration":187500,"Delta":18345617},{"NoteNumber":50,"Velocity":33,"Duration":187500,"SoundDuration":187500,"Delta":18345617},{"NoteNumber":88,"Velocity":60,"Duration":370370,"SoundDuration":370370,"Delta":19069454},{"NoteNumber":81,"Velocity":46,"Duration":562678,"SoundDuration":562678,"Delta":19069454},{"NoteNumber":85,"Velocity":46,"Duration":370370,"SoundDuration":370370,"Delta":19069454},{"NoteNumber":61,"Velocity":45,"Duration":370370,"SoundDuration":370370,"Delta":19069454},{"NoteNumber":52,"Velocity":34,"Duration":370370,"SoundDuration":370370,"Delta":19069454},{"NoteNumber":57,"Velocity":34,"Duration":370370,"SoundDuration":370370,"Delta":19069454},{"NoteNumber":73,"Velocity":48,"Duration":192307,"SoundDuration":192307,"Delta":19439825},{"NoteNumber":69,"Velocity":38,"Duration":192307,"SoundDuration":192307,"Delta":19439825},{"NoteNumber":86,"Velocity":50,"Duration":365853,"SoundDuration":365853,"Delta":20190294},{"NoteNumber":79,"Velocity":39,"Duration":555727,"SoundDuration":555727,"Delta":20190294},{"NoteNumber":83,"Velocity":39,"Duration":365853,"SoundDuration":365853,"Delta":20190294},{"NoteNumber":62,"Velocity":38,"Duration":365853,"SoundDuration":365853,"Delta":20190294},{"NoteNumber":54,"Velocity":30,"Duration":365853,"SoundDuration":365853,"Delta":20190294},{"NoteNumber":59,"Velocity":30,"Duration":365853,"SoundDuration":365853,"Delta":20190294},{"NoteNumber":71,"Velocity":40,"Duration":189873,"SoundDuration":189873,"Delta":20556147},{"NoteNumber":67,"Velocity":32,"Duration":189873,"SoundDuration":189873,"Delta":20556147},{"NoteNumber":85,"Velocity":40,"Duration":348836,"SoundDuration":348836,"Delta":21315641},{"NoteNumber":78,"Velocity":32,"Duration":678507,"SoundDuration":678507,"Delta":21315641},{"NoteNumber":82,"Velocity":32,"Duration":348836,"SoundDuration":348836,"Delta":21315641},{"NoteNumber":64,"Velocity":31,"Duration":348836,"SoundDuration":348836,"Delta":21315641},{"NoteNumber":54,"Velocity":24,"Duration":348836,"SoundDuration":348836,"Delta":21315641},{"NoteNumber":61,"Velocity":24,"Duration":348836,"SoundDuration":348836,"Delta":21315641},{"NoteNumber":70,"Velocity":33,"Duration":329670,"SoundDuration":329670,"Delta":21664478},{"NoteNumber":66,"Velocity":26,"Duration":329670,"SoundDuration":329670,"Delta":21664478},{"NoteNumber":76,"Velocity":33,"Duration":389610,"SoundDuration":389610,"Delta":21994149},{"NoteNumber":64,"Velocity":32,"Duration":2432406,"SoundDuration":2432406,"Delta":22383759},{"NoteNumber":70,"Velocity":32,"Duration":441176,"SoundDuration":441176,"Delta":22383759},{"NoteNumber":35,"Velocity":37,"Duration":441176,"SoundDuration":441176,"Delta":22383759},{"NoteNumber":73,"Velocity":39,"Duration":2475100,"SoundDuration":2475100,"Delta":22824936},{"NoteNumber":47,"Velocity":44,"Duration":4105535,"SoundDuration":4105535,"Delta":22824936},{"NoteNumber":52,"Velocity":39,"Duration":422534,"SoundDuration":422534,"Delta":23614410},{"NoteNumber":55,"Velocity":43,"Duration":779220,"SoundDuration":779220,"Delta":24036945},{"NoteNumber":63,"Velocity":36,"Duration":2440392,"SoundDuration":2440392,"Delta":24816166},{"NoteNumber":54,"Velocity":37,"Duration":483871,"SoundDuration":483871,"Delta":24816166},{"NoteNumber":69,"Velocity":39,"Duration":1630434,"SoundDuration":1630434,"Delta":25300037},{"NoteNumber":72,"Velocity":39,"Duration":1630434,"SoundDuration":1630434,"Delta":25300037},{"NoteNumber":57,"Velocity":38,"Duration":1630434,"SoundDuration":1630434,"Delta":25300037},{"NoteNumber":71,"Velocity":39,"Duration":370370,"SoundDuration":370370,"Delta":27463985},{"NoteNumber":59,"Velocity":31,"Duration":370370,"SoundDuration":370370,"Delta":27463985},{"NoteNumber":67,"Velocity":31,"Duration":370370,"SoundDuration":370370,"Delta":27463985},{"NoteNumber":64,"Velocity":24,"Duration":370370,"SoundDuration":370370,"Delta":27463985},{"NoteNumber":52,"Velocity":19,"Duration":370370,"SoundDuration":370370,"Delta":27463985},{"NoteNumber":55,"Velocity":19,"Duration":370370,"SoundDuration":370370,"Delta":27463985},{"NoteNumber":72,"Velocity":33,"Duration":140625,"SoundDuration":140625,"Delta":27834356},{"NoteNumber":51,"Velocity":25,"Duration":140625,"SoundDuration":140625,"Delta":27834356},{"NoteNumber":79,"Velocity":40,"Duration":375000,"SoundDuration":375000,"Delta":28558193},{"NoteNumber":71,"Velocity":32,"Duration":375000,"SoundDuration":375000,"Delta":28558193},{"NoteNumber":76,"Velocity":32,"Duration":375000,"SoundDuration":375000,"Delta":28558193},{"NoteNumber":52,"Velocity":24,"Duration":375000,"SoundDuration":375000,"Delta":28558193},{"NoteNumber":43,"Velocity":19,"Duration":375000,"SoundDuration":375000,"Delta":28558193},{"NoteNumber":47,"Velocity":19,"Duration":375000,"SoundDuration":375000,"Delta":28558193},{"NoteNumber":70,"Velocity":33,"Duration":140625,"SoundDuration":140625,"Delta":28933193},{"NoteNumber":54,"Velocity":26,"Duration":140625,"SoundDuration":140625,"Delta":28933193},{"NoteNumber":71,"Velocity":39,"Duration":370370,"SoundDuration":370370,"Delta":29608193},{"NoteNumber":59,"Velocity":31,"Duration":370370,"SoundDuration":370370,"Delta":29608193},{"NoteNumber":67,"Velocity":31,"Duration":370370,"SoundDuration":370370,"Delta":29608193},{"NoteNumber":64,"Velocity":24,"Duration":370370,"SoundDuration":370370,"Delta":29608193},{"NoteNumber":52,"Velocity":19,"Duration":370370,"SoundDuration":370370,"Delta":29608193},{"NoteNumber":55,"Velocity":19,"Duration":370370,"SoundDuration":370370,"Delta":29608193},{"NoteNumber":72,"Velocity":33,"Duration":140625,"SoundDuration":140625,"Delta":29978563},{"NoteNumber":51,"Velocity":25,"Duration":140625,"SoundDuration":140625,"Delta":29978563},{"NoteNumber":79,"Velocity":40,"Duration":365853,"SoundDuration":365853,"Delta":30728563},{"NoteNumber":71,"Velocity":32,"Duration":365853,"SoundDuration":365853,"Delta":30728563},{"NoteNumber":76,"Velocity":32,"Duration":365853,"SoundDuration":365853,"Delta":30728563},{"NoteNumber":52,"Velocity":24,"Duration":365853,"SoundDuration":365853,"Delta":30728563},{"NoteNumber":43,"Velocity":19,"Duration":365853,"SoundDuration":365853,"Delta":30728563},{"NoteNumber":47,"Velocity":19,"Duration":365853,"SoundDuration":365853,"Delta":30728563},{"NoteNumber":64,"Velocity":33,"Duration":142405,"SoundDuration":142405,"Delta":31094417},{"NoteNumber":55,"Velocity":26,"Duration":142405,"SoundDuration":142405,"Delta":31094417},{"NoteNumber":72,"Velocity":42,"Duration":370370,"SoundDuration":370370,"Delta":31831307},{"NoteNumber":60,"Velocity":34,"Duration":370370,"SoundDuration":370370,"Delta":31831307},{"NoteNumber":69,"Velocity":34,"Duration":370370,"SoundDuration":370370,"Delta":31831307},{"NoteNumber":66,"Velocity":27,"Duration":370370,"SoundDuration":370370,"Delta":31831307},{"NoteNumber":54,"Velocity":20,"Duration":370370,"SoundDuration":370370,"Delta":31831307},{"NoteNumber":57,"Velocity":20,"Duration":370370,"SoundDuration":370370,"Delta":31831307},{"NoteNumber":74,"Velocity":36,"Duration":135542,"SoundDuration":135542,"Delta":32201677},{"NoteNumber":53,"Velocity":27,"Duration":135542,"SoundDuration":135542,"Delta":32201677},{"NoteNumber":81,"Velocity":42,"Duration":375000,"SoundDuration":375000,"Delta":32911960},{"NoteNumber":72,"Velocity":33,"Duration":375000,"SoundDuration":375000,"Delta":32911960},{"NoteNumber":78,"Velocity":33,"Duration":375000,"SoundDuration":375000,"Delta":32911960},{"NoteNumber":54,"Velocity":25,"Duration":375000,"SoundDuration":375000,"Delta":32911960},{"NoteNumber":45,"Velocity":20,"Duration":375000,"SoundDuration":375000,"Delta":32911960},{"NoteNumber":48,"Velocity":20,"Duration":375000,"SoundDuration":375000,"Delta":32911960},{"NoteNumber":71,"Velocity":34,"Duration":138888,"SoundDuration":138888,"Delta":33286960},{"NoteNumber":55,"Velocity":27,"Duration":138888,"SoundDuration":138888,"Delta":33286960},{"NoteNumber":72,"Velocity":39,"Duration":375000,"SoundDuration":375000,"Delta":33951448},{"NoteNumber":60,"Velocity":31,"Duration":375000,"SoundDuration":375000,"Delta":33951448},{"NoteNumber":69,"Velocity":31,"Duration":375000,"SoundDuration":375000,"Delta":33951448},{"NoteNumber":66,"Velocity":24,"Duration":375000,"SoundDuration":375000,"Delta":33951448},{"NoteNumber":54,"Velocity":19,"Duration":375000,"SoundDuration":375000,"Delta":33951448},{"NoteNumber":57,"Velocity":19,"Duration":375000,"SoundDuration":375000,"Delta":33951448},{"NoteNumber":74,"Velocity":33,"Duration":138888,"SoundDuration":138888,"Delta":34326448},{"NoteNumber":53,"Velocity":25,"Duration":138888,"SoundDuration":138888,"Delta":34326448},{"NoteNumber":81,"Velocity":40,"Duration":370370,"SoundDuration":370370,"Delta":35049760},{"NoteNumber":72,"Velocity":32,"Duration":370370,"SoundDuration":370370,"Delta":35049760},{"NoteNumber":78,"Velocity":32,"Duration":370370,"SoundDuration":370370,"Delta":35049760},{"NoteNumber":54,"Velocity":24,"Duration":370370,"SoundDuration":370370,"Delta":35049760},{"NoteNumber":45,"Velocity":19,"Duration":370370,"SoundDuration":370370,"Delta":35049760},{"NoteNumber":48,"Velocity":19,"Duration":370370,"SoundDuration":370370,"Delta":35049760},{"NoteNumber":66,"Velocity":33,"Duration":138888,"SoundDuration":138888,"Delta":35420130},{"NoteNumber":57,"Velocity":26,"Duration":138888,"SoundDuration":138888,"Delta":35420130},{"NoteNumber":74,"Velocity":46,"Duration":352941,"SoundDuration":352941,"Delta":36139338},{"NoteNumber":62,"Velocity":37,"Duration":352941,"SoundDuration":352941,"Delta":36139338},{"NoteNumber":71,"Velocity":37,"Duration":352941,"SoundDuration":352941,"Delta":36139338},{"NoteNumber":67,"Velocity":37,"Duration":352941,"SoundDuration":352941,"Delta":36139338},{"NoteNumber":55,"Velocity":28,"Duration":352941,"SoundDuration":352941,"Delta":36139338},{"NoteNumber":59,"Velocity":28,"Duration":352941,"SoundDuration":352941,"Delta":36139338},{"NoteNumber":76,"Velocity":39,"Duration":187500,"SoundDuration":187500,"Delta":36492279},{"NoteNumber":54,"Velocity":29,"Duration":187500,"SoundDuration":187500,"Delta":36492279},{"NoteNumber":83,"Velocity":52,"Duration":365853,"SoundDuration":365853,"Delta":37242279},{"NoteNumber":74,"Velocity":42,"Duration":365853,"SoundDuration":365853,"Delta":37242279},{"NoteNumber":80,"Velocity":42,"Duration":365853,"SoundDuration":365853,"Delta":37242279},{"NoteNumber":56,"Velocity":41,"Duration":365853,"SoundDuration":365853,"Delta":37242279},{"NoteNumber":47,"Velocity":33,"Duration":365853,"SoundDuration":365853,"Delta":37242279},{"NoteNumber":50,"Velocity":33,"Duration":365853,"SoundDuration":365853,"Delta":37242279},{"NoteNumber":68,"Velocity":58,"Duration":194805,"SoundDuration":194805,"Delta":37608132},{"NoteNumber":62,"Velocity":42,"Duration":194805,"SoundDuration":194805,"Delta":37608132},{"NoteNumber":76,"Velocity":55,"Duration":384615,"SoundDuration":384615,"Delta":38323830},{"NoteNumber":64,"Velocity":45,"Duration":384615,"SoundDuration":384615,"Delta":38323830},{"NoteNumber":72,"Velocity":45,"Duration":384615,"SoundDuration":384615,"Delta":38323830},{"NoteNumber":69,"Velocity":45,"Duration":384615,"SoundDuration":384615,"Delta":38323830},{"NoteNumber":57,"Velocity":35,"Duration":384615,"SoundDuration":384615,"Delta":38323830},{"NoteNumber":60,"Velocity":35,"Duration":384615,"SoundDuration":384615,"Delta":38323830},{"NoteNumber":77,"Velocity":58,"Duration":192307,"SoundDuration":192307,"Delta":38708445},{"NoteNumber":56,"Velocity":50,"Duration":192307,"SoundDuration":192307,"Delta":38708445},{"NoteNumber":85,"Velocity":60,"Duration":389610,"SoundDuration":389610,"Delta":39482671},{"NoteNumber":76,"Velocity":47,"Duration":389610,"SoundDuration":389610,"Delta":39482671},{"NoteNumber":82,"Velocity":47,"Duration":389610,"SoundDuration":389610,"Delta":39482671},{"NoteNumber":58,"Velocity":46,"Duration":389610,"SoundDuration":389610,"Delta":39482671},{"NoteNumber":49,"Velocity":35,"Duration":389610,"SoundDuration":389610,"Delta":39482671},{"NoteNumber":52,"Velocity":35,"Duration":389610,"SoundDuration":389610,"Delta":39482671},{"NoteNumber":70,"Velocity":64,"Duration":180723,"SoundDuration":180723,"Delta":39872282},{"NoteNumber":64,"Velocity":49,"Duration":180723,"SoundDuration":180723,"Delta":39872282},{"NoteNumber":77,"Velocity":50,"Duration":428571,"SoundDuration":428571,"Delta":40590871},{"NoteNumber":65,"Velocity":40,"Duration":428571,"SoundDuration":428571,"Delta":40590871},{"NoteNumber":74,"Velocity":40,"Duration":428571,"SoundDuration":428571,"Delta":40590871},{"NoteNumber":71,"Velocity":40,"Duration":428571,"SoundDuration":428571,"Delta":40590871},{"NoteNumber":59,"Velocity":30,"Duration":428571,"SoundDuration":428571,"Delta":40590871},{"NoteNumber":62,"Velocity":30,"Duration":428571,"SoundDuration":428571,"Delta":40590871},{"NoteNumber":79,"Velocity":50,"Duration":296052,"SoundDuration":296052,"Delta":41019442},{"NoteNumber":50,"Velocity":31,"Duration":296052,"SoundDuration":296052,"Delta":41019442},{"NoteNumber":85,"Velocity":46,"Duration":428571,"SoundDuration":428571,"Delta":41830846},{"NoteNumber":78,"Velocity":36,"Duration":687192,"SoundDuration":687192,"Delta":41830846},{"NoteNumber":61,"Velocity":35,"Duration":428571,"SoundDuration":428571,"Delta":41830846},{"NoteNumber":52,"Velocity":27,"Duration":428571,"SoundDuration":428571,"Delta":41830846},{"NoteNumber":55,"Velocity":27,"Duration":428571,"SoundDuration":428571,"Delta":41830846},{"NoteNumber":67,"Velocity":35,"Duration":258620,"SoundDuration":258620,"Delta":42259417},{"NoteNumber":66,"Velocity":26,"Duration":258620,"SoundDuration":258620,"Delta":42259417},{"NoteNumber":83,"Velocity":43,"Duration":428571,"SoundDuration":428571,"Delta":42949072},{"NoteNumber":76,"Velocity":34,"Duration":732625,"SoundDuration":732625,"Delta":42949072},{"NoteNumber":59,"Velocity":33,"Duration":428571,"SoundDuration":428571,"Delta":42949072},{"NoteNumber":54,"Velocity":26,"Duration":428571,"SoundDuration":428571,"Delta":42949072},{"NoteNumber":66,"Velocity":33,"Duration":304054,"SoundDuration":304054,"Delta":43377644},{"NoteNumber":64,"Velocity":25,"Duration":304054,"SoundDuration":304054,"Delta":43377644},{"NoteNumber":82,"Velocity":41,"Duration":866528,"SoundDuration":866528,"Delta":44153420},{"NoteNumber":74,"Velocity":32,"Duration":679028,"SoundDuration":679028,"Delta":44153420},{"NoteNumber":58,"Velocity":31,"Duration":866528,"SoundDuration":866528,"Delta":44153420},{"NoteNumber":54,"Velocity":24,"Duration":866528,"SoundDuration":866528,"Delta":44153420},{"NoteNumber":66,"Velocity":26,"Duration":326087,"SoundDuration":326087,"Delta":44506361},{"NoteNumber":73,"Velocity":34,"Duration":187500,"SoundDuration":187500,"Delta":44832448},{"NoteNumber":64,"Velocity":25,"Duration":187500,"SoundDuration":187500,"Delta":44832448},{"NoteNumber":78,"Velocity":52,"Duration":370370,"SoundDuration":370370,"Delta":45207448},{"NoteNumber":66,"Velocity":42,"Duration":370370,"SoundDuration":370370,"Delta":45207448},{"NoteNumber":74,"Velocity":42,"Duration":370370,"SoundDuration":370370,"Delta":45207448},{"NoteNumber":71,"Velocity":42,"Duration":370370,"SoundDuration":370370,"Delta":45207448},{"NoteNumber":59,"Velocity":32,"Duration":370370,"SoundDuration":370370,"Delta":45207448},{"NoteNumber":62,"Velocity":32,"Duration":370370,"SoundDuration":370370,"Delta":45207448},{"NoteNumber":83,"Velocity":44,"Duration":187500,"SoundDuration":187500,"Delta":45577818},{"NoteNumber":50,"Velocity":33,"Duration":187500,"SoundDuration":187500,"Delta":45577818},{"NoteNumber":88,"Velocity":60,"Duration":370370,"SoundDuration":370370,"Delta":46301655},{"NoteNumber":81,"Velocity":46,"Duration":570370,"SoundDuration":570370,"Delta":46301655},{"NoteNumber":85,"Velocity":46,"Duration":370370,"SoundDuration":370370,"Delta":46301655},{"NoteNumber":61,"Velocity":45,"Duration":370370,"SoundDuration":370370,"Delta":46301655},{"NoteNumber":52,"Velocity":34,"Duration":370370,"SoundDuration":370370,"Delta":46301655},{"NoteNumber":57,"Velocity":34,"Duration":370370,"SoundDuration":370370,"Delta":46301655},{"NoteNumber":73,"Velocity":48,"Duration":200000,"SoundDuration":200000,"Delta":46672026},{"NoteNumber":69,"Velocity":38,"Duration":200000,"SoundDuration":200000,"Delta":46672026},{"NoteNumber":86,"Velocity":50,"Duration":365853,"SoundDuration":365853,"Delta":47437879},{"NoteNumber":79,"Velocity":39,"Duration":555726,"SoundDuration":555726,"Delta":47437879},{"NoteNumber":83,"Velocity":39,"Duration":365853,"SoundDuration":365853,"Delta":47437879},{"NoteNumber":62,"Velocity":38,"Duration":365853,"SoundDuration":365853,"Delta":47437879},{"NoteNumber":54,"Velocity":30,"Duration":365853,"SoundDuration":365853,"Delta":47437879},{"NoteNumber":59,"Velocity":30,"Duration":365853,"SoundDuration":365853,"Delta":47437879},{"NoteNumber":71,"Velocity":40,"Duration":189873,"SoundDuration":189873,"Delta":47803733},{"NoteNumber":67,"Velocity":32,"Duration":189873,"SoundDuration":189873,"Delta":47803733},{"NoteNumber":85,"Velocity":40,"Duration":348837,"SoundDuration":348837,"Delta":48563227},{"NoteNumber":78,"Velocity":32,"Duration":678507,"SoundDuration":678507,"Delta":48563227},{"NoteNumber":82,"Velocity":32,"Duration":348837,"SoundDuration":348837,"Delta":48563227},{"NoteNumber":64,"Velocity":31,"Duration":348837,"SoundDuration":348837,"Delta":48563227},{"NoteNumber":54,"Velocity":24,"Duration":348837,"SoundDuration":348837,"Delta":48563227},{"NoteNumber":61,"Velocity":24,"Duration":348837,"SoundDuration":348837,"Delta":48563227},{"NoteNumber":70,"Velocity":33,"Duration":329670,"SoundDuration":329670,"Delta":48912064},{"NoteNumber":66,"Velocity":26,"Duration":329670,"SoundDuration":329670,"Delta":48912064},{"NoteNumber":76,"Velocity":33,"Duration":389610,"SoundDuration":389610,"Delta":49241734},{"NoteNumber":64,"Velocity":32,"Duration":1253101,"SoundDuration":1253101,"Delta":49631345},{"NoteNumber":70,"Velocity":32,"Duration":483871,"SoundDuration":483871,"Delta":49631345},{"NoteNumber":35,"Velocity":37,"Duration":483871,"SoundDuration":483871,"Delta":49631345},{"NoteNumber":73,"Velocity":39,"Duration":1881309,"SoundDuration":1881309,"Delta":50115216},{"NoteNumber":42,"Velocity":44,"Duration":769230,"SoundDuration":769230,"Delta":50115216},{"NoteNumber":63,"Velocity":39,"Duration":399999,"SoundDuration":399999,"Delta":50884447},{"NoteNumber":47,"Velocity":39,"Duration":399999,"SoundDuration":399999,"Delta":50884447},{"NoteNumber":66,"Velocity":43,"Duration":1803105,"SoundDuration":1803105,"Delta":51284447},{"NoteNumber":51,"Velocity":43,"Duration":712078,"SoundDuration":712078,"Delta":51284447},{"NoteNumber":71,"Velocity":36,"Duration":379747,"SoundDuration":379747,"Delta":51996525},{"NoteNumber":35,"Velocity":40,"Duration":379747,"SoundDuration":379747,"Delta":51996525},{"NoteNumber":75,"Velocity":39,"Duration":1081650,"SoundDuration":1081650,"Delta":52376272},{"NoteNumber":44,"Velocity":47,"Duration":711279,"SoundDuration":711279,"Delta":52376272},{"NoteNumber":64,"Velocity":41,"Duration":370370,"SoundDuration":370370,"Delta":53087552},{"NoteNumber":47,"Velocity":39,"Duration":370370,"SoundDuration":370370,"Delta":53087552},{"NoteNumber":68,"Velocity":45,"Duration":1094945,"SoundDuration":1094945,"Delta":53457922},{"NoteNumber":52,"Velocity":43,"Duration":715198,"SoundDuration":715198,"Delta":53457922},{"NoteNumber":60,"Velocity":40,"Duration":379747,"SoundDuration":379747,"Delta":54173120},{"NoteNumber":35,"Velocity":40,"Duration":379747,"SoundDuration":379747,"Delta":54173120},{"NoteNumber":63,"Velocity":44,"Duration":1804961,"SoundDuration":1804961,"Delta":54552867},{"NoteNumber":41,"Velocity":47,"Duration":711279,"SoundDuration":711279,"Delta":54552867},{"NoteNumber":53,"Velocity":41,"Duration":370370,"SoundDuration":370370,"Delta":55264147},{"NoteNumber":44,"Velocity":39,"Duration":370370,"SoundDuration":370370,"Delta":55264147},{"NoteNumber":56,"Velocity":45,"Duration":1822266,"SoundDuration":1822266,"Delta":55634517},{"NoteNumber":47,"Velocity":43,"Duration":723311,"SoundDuration":723311,"Delta":55634517},{"NoteNumber":61,"Velocity":36,"Duration":379747,"SoundDuration":379747,"Delta":56357829},{"NoteNumber":35,"Velocity":40,"Duration":379747,"SoundDuration":379747,"Delta":56357829},{"NoteNumber":59,"Velocity":44,"Duration":1089578,"SoundDuration":1089578,"Delta":56737576},{"NoteNumber":40,"Velocity":47,"Duration":719207,"SoundDuration":719207,"Delta":56737576},{"NoteNumber":54,"Velocity":36,"Duration":370370,"SoundDuration":370370,"Delta":57456783},{"NoteNumber":43,"Velocity":33,"Duration":370370,"SoundDuration":370370,"Delta":57456783},{"NoteNumber":47,"Velocity":27,"Duration":1102077,"SoundDuration":1102077,"Delta":57827154},{"NoteNumber":49,"Velocity":27,"Duration":1102077,"SoundDuration":1102077,"Delta":57827154},{"NoteNumber":52,"Velocity":33,"Duration":1102077,"SoundDuration":1102077,"Delta":57827154},{"NoteNumber":58,"Velocity":42,"Duration":365853,"SoundDuration":365853,"Delta":58197524},{"NoteNumber":70,"Velocity":45,"Duration":365853,"SoundDuration":365853,"Delta":58563378},{"NoteNumber":73,"Velocity":49,"Duration":1027344,"SoundDuration":1027344,"Delta":58929231},{"NoteNumber":47,"Velocity":42,"Duration":348837,"SoundDuration":348837,"Delta":58929231},{"NoteNumber":51,"Velocity":36,"Duration":329670,"SoundDuration":329670,"Delta":59278068},{"NoteNumber":63,"Velocity":36,"Duration":348837,"SoundDuration":348837,"Delta":59607739},{"NoteNumber":66,"Velocity":41,"Duration":1008496,"SoundDuration":1008496,"Delta":59956576},{"NoteNumber":59,"Velocity":40,"Duration":337078,"SoundDuration":337078,"Delta":60279156},{"NoteNumber":71,"Velocity":47,"Duration":348837,"SoundDuration":348837,"Delta":60616235},{"NoteNumber":35,"Velocity":34,"Duration":174418,"SoundDuration":174418,"Delta":60616235},{"NoteNumber":75,"Velocity":50,"Duration":1019325,"SoundDuration":1019325,"Delta":60965072},{"NoteNumber":47,"Velocity":43,"Duration":344827,"SoundDuration":344827,"Delta":60965072},{"NoteNumber":52,"Velocity":36,"Duration":329670,"SoundDuration":329670,"Delta":61309899},{"NoteNumber":64,"Velocity":36,"Duration":344827,"SoundDuration":344827,"Delta":61639570},{"NoteNumber":68,"Velocity":41,"Duration":1016106,"SoundDuration":1016106,"Delta":61984397},{"NoteNumber":60,"Velocity":48,"Duration":337078,"SoundDuration":337078,"Delta":62310484},{"NoteNumber":72,"Velocity":56,"Duration":352941,"SoundDuration":352941,"Delta":62647563},{"NoteNumber":35,"Velocity":40,"Duration":176470,"SoundDuration":176470,"Delta":62647563},{"NoteNumber":75,"Velocity":60,"Duration":1004074,"SoundDuration":1004074,"Delta":63000504},{"NoteNumber":47,"Velocity":51,"Duration":340908,"SoundDuration":340908,"Delta":63000504},{"NoteNumber":53,"Velocity":43,"Duration":326087,"SoundDuration":326087,"Delta":63341413},{"NoteNumber":65,"Velocity":43,"Duration":337078,"SoundDuration":337078,"Delta":63667500},{"NoteNumber":68,"Velocity":49,"Duration":1085628,"SoundDuration":1085628,"Delta":64004578},{"NoteNumber":61,"Velocity":55,"Duration":352941,"SoundDuration":352941,"Delta":64357519},{"NoteNumber":73,"Velocity":63,"Duration":379746,"SoundDuration":379746,"Delta":64710460},{"NoteNumber":35,"Velocity":50,"Duration":189873,"SoundDuration":189873,"Delta":64710460},{"NoteNumber":80,"Velocity":71,"Duration":1019751,"SoundDuration":1019751,"Delta":65090207},{"NoteNumber":47,"Velocity":62,"Duration":348837,"SoundDuration":348837,"Delta":65090207},{"NoteNumber":52,"Velocity":52,"Duration":326087,"SoundDuration":326087,"Delta":65439044},{"NoteNumber":64,"Velocity":52,"Duration":344827,"SoundDuration":344827,"Delta":65765131},{"NoteNumber":70,"Velocity":66,"Duration":1021767,"SoundDuration":1021767,"Delta":66109959},{"NoteNumber":66,"Velocity":68,"Duration":333333,"SoundDuration":333333,"Delta":66432539},{"NoteNumber":78,"Velocity":74,"Duration":365853,"SoundDuration":365853,"Delta":66765873},{"NoteNumber":35,"Velocity":46,"Duration":182926,"SoundDuration":182926,"Delta":66765873},{"NoteNumber":76,"Velocity":80,"Duration":1046605,"SoundDuration":1046605,"Delta":67131726},{"NoteNumber":47,"Velocity":66,"Duration":344827,"SoundDuration":344827,"Delta":67131726},{"NoteNumber":54,"Velocity":57,"Duration":352941,"SoundDuration":352941,"Delta":67476554},{"NoteNumber":66,"Velocity":57,"Duration":348837,"SoundDuration":348837,"Delta":67829495},{"NoteNumber":69,"Velocity":66,"Duration":1071735,"SoundDuration":1071735,"Delta":68178332},{"NoteNumber":35,"Velocity":46,"Duration":1071735,"SoundDuration":1071735,"Delta":68178332},{"NoteNumber":63,"Velocity":68,"Duration":352941,"SoundDuration":352941,"Delta":68531273},{"NoteNumber":75,"Velocity":73,"Duration":365853,"SoundDuration":365853,"Delta":68884214},{"NoteNumber":72,"Velocity":80,"Duration":1038491,"SoundDuration":1038491,"Delta":69250067},{"NoteNumber":47,"Velocity":66,"Duration":344827,"SoundDuration":344827,"Delta":69250067},{"NoteNumber":54,"Velocity":57,"Duration":348837,"SoundDuration":348837,"Delta":69594895},{"NoteNumber":64,"Velocity":57,"Duration":344827,"SoundDuration":344827,"Delta":69943732},{"NoteNumber":63,"Velocity":66,"Duration":1071735,"SoundDuration":1071735,"Delta":70288559},{"NoteNumber":35,"Velocity":46,"Duration":1071735,"SoundDuration":1071735,"Delta":70288559},{"NoteNumber":57,"Velocity":68,"Duration":352941,"SoundDuration":352941,"Delta":70641500},{"NoteNumber":69,"Velocity":73,"Duration":365853,"SoundDuration":365853,"Delta":70994441},{"NoteNumber":66,"Velocity":81,"Duration":1034482,"SoundDuration":1034482,"Delta":71360295},{"NoteNumber":48,"Velocity":66,"Duration":689655,"SoundDuration":689655,"Delta":71360295},{"NoteNumber":57,"Velocity":57,"Duration":344827,"SoundDuration":344827,"Delta":71705122},{"NoteNumber":64,"Velocity":57,"Duration":344827,"SoundDuration":344827,"Delta":72049950},{"NoteNumber":63,"Velocity":66,"Duration":1071735,"SoundDuration":1071735,"Delta":72394777},{"NoteNumber":47,"Velocity":46,"Duration":705882,"SoundDuration":705882,"Delta":72394777},{"NoteNumber":57,"Velocity":68,"Duration":352941,"SoundDuration":352941,"Delta":72747718},{"NoteNumber":69,"Velocity":73,"Duration":365853,"SoundDuration":365853,"Delta":73100659},{"NoteNumber":72,"Velocity":81,"Duration":1034482,"SoundDuration":1034482,"Delta":73466513},{"NoteNumber":45,"Velocity":66,"Duration":689655,"SoundDuration":689655,"Delta":73466513},{"NoteNumber":54,"Velocity":57,"Duration":344827,"SoundDuration":344827,"Delta":73811340},{"NoteNumber":64,"Velocity":57,"Duration":344827,"SoundDuration":344827,"Delta":74156168},{"NoteNumber":63,"Velocity":66,"Duration":1071735,"SoundDuration":1071735,"Delta":74500995},{"NoteNumber":47,"Velocity":46,"Duration":705882,"SoundDuration":705882,"Delta":74500995},{"NoteNumber":57,"Velocity":68,"Duration":352941,"SoundDuration":352941,"Delta":74853936},{"NoteNumber":69,"Velocity":73,"Duration":365853,"SoundDuration":365853,"Delta":75206877},{"NoteNumber":66,"Velocity":81,"Duration":1034482,"SoundDuration":1034482,"Delta":75572731},{"NoteNumber":48,"Velocity":66,"Duration":689655,"SoundDuration":689655,"Delta":75572731},{"NoteNumber":57,"Velocity":57,"Duration":344827,"SoundDuration":344827,"Delta":75917558},{"NoteNumber":64,"Velocity":57,"Duration":344827,"SoundDuration":344827,"Delta":76262386},{"NoteNumber":63,"Velocity":66,"Duration":1071735,"SoundDuration":1071735,"Delta":76607213},{"NoteNumber":47,"Velocity":46,"Duration":705882,"SoundDuration":705882,"Delta":76607213},{"NoteNumber":57,"Velocity":68,"Duration":352941,"SoundDuration":352941,"Delta":76960154},{"NoteNumber":69,"Velocity":73,"Duration":365853,"SoundDuration":365853,"Delta":77313095},{"NoteNumber":72,"Velocity":81,"Duration":2561955,"SoundDuration":2561955,"Delta":77678949},{"NoteNumber":45,"Velocity":66,"Duration":718794,"SoundDuration":718794,"Delta":77678949},{"NoteNumber":54,"Velocity":57,"Duration":352941,"SoundDuration":352941,"Delta":78044802},{"NoteNumber":64,"Velocity":57,"Duration":189873,"SoundDuration":189873,"Delta":78397743},{"NoteNumber":42,"Velocity":66,"Duration":731707,"SoundDuration":731707,"Delta":78777490},{"NoteNumber":57,"Velocity":57,"Duration":365853,"SoundDuration":365853,"Delta":79143344},{"NoteNumber":64,"Velocity":57,"Duration":182926,"SoundDuration":182926,"Delta":79509197},{"NoteNumber":47,"Velocity":48,"Duration":365853,"SoundDuration":365853,"Delta":79875051},{"NoteNumber":57,"Velocity":39,"Duration":394737,"SoundDuration":394737,"Delta":80240904},{"NoteNumber":71,"Velocity":44,"Duration":361446,"SoundDuration":361446,"Delta":80635641},{"NoteNumber":69,"Velocity":37,"Duration":361446,"SoundDuration":361446,"Delta":80635641},{"NoteNumber":63,"Velocity":37,"Duration":361446,"SoundDuration":361446,"Delta":80635641},{"NoteNumber":66,"Velocity":37,"Duration":361446,"SoundDuration":361446,"Delta":80997087},{"NoteNumber":59,"Velocity":27,"Duration":379746,"SoundDuration":379746,"Delta":81358533},{"NoteNumber":71,"Velocity":43,"Duration":361446,"SoundDuration":361446,"Delta":81738280},{"NoteNumber":69,"Velocity":36,"Duration":361446,"SoundDuration":361446,"Delta":81738280},{"NoteNumber":64,"Velocity":36,"Duration":361446,"SoundDuration":361446,"Delta":81738280},{"NoteNumber":72,"Velocity":36,"Duration":361446,"SoundDuration":361446,"Delta":82099726},{"NoteNumber":57,"Velocity":27,"Duration":384615,"SoundDuration":384615,"Delta":82461172},{"NoteNumber":47,"Velocity":23,"Duration":384615,"SoundDuration":384615,"Delta":82461172},{"NoteNumber":71,"Velocity":42,"Duration":361446,"SoundDuration":361446,"Delta":82845788},{"NoteNumber":69,"Velocity":35,"Duration":361446,"SoundDuration":361446,"Delta":82845788},{"NoteNumber":63,"Velocity":35,"Duration":361446,"SoundDuration":361446,"Delta":82845788},{"NoteNumber":66,"Velocity":37,"Duration":361446,"SoundDuration":361446,"Delta":83207234},{"NoteNumber":59,"Velocity":26,"Duration":370370,"SoundDuration":370370,"Delta":83568680},{"NoteNumber":75,"Velocity":40,"Duration":361446,"SoundDuration":361446,"Delta":83939050},{"NoteNumber":72,"Velocity":34,"Duration":361446,"SoundDuration":361446,"Delta":83939050},{"NoteNumber":67,"Velocity":34,"Duration":361446,"SoundDuration":361446,"Delta":83939050},{"NoteNumber":76,"Velocity":35,"Duration":361446,"SoundDuration":361446,"Delta":84300496},{"NoteNumber":47,"Velocity":15,"Duration":370370,"SoundDuration":370370,"Delta":84661942},{"NoteNumber":57,"Velocity":21,"Duration":370370,"SoundDuration":370370,"Delta":84661942},{"NoteNumber":75,"Velocity":37,"Duration":361446,"SoundDuration":361446,"Delta":85032313},{"NoteNumber":72,"Velocity":31,"Duration":361446,"SoundDuration":361446,"Delta":85032313},{"NoteNumber":66,"Velocity":31,"Duration":361446,"SoundDuration":361446,"Delta":85032313},{"NoteNumber":69,"Velocity":32,"Duration":361446,"SoundDuration":361446,"Delta":85393759},{"NoteNumber":59,"Velocity":21,"Duration":375000,"SoundDuration":375000,"Delta":85755205},{"NoteNumber":75,"Velocity":34,"Duration":361446,"SoundDuration":361446,"Delta":86130205},{"NoteNumber":72,"Velocity":29,"Duration":361446,"SoundDuration":361446,"Delta":86130205},{"NoteNumber":67,"Velocity":29,"Duration":361446,"SoundDuration":361446,"Delta":86130205},{"NoteNumber":76,"Velocity":29,"Duration":361446,"SoundDuration":361446,"Delta":86491651},{"NoteNumber":47,"Velocity":13,"Duration":375000,"SoundDuration":375000,"Delta":86853097},{"NoteNumber":57,"Velocity":17,"Duration":375000,"SoundDuration":375000,"Delta":86853097},{"NoteNumber":75,"Velocity":30,"Duration":361446,"SoundDuration":361446,"Delta":87228097},{"NoteNumber":72,"Velocity":26,"Duration":361446,"SoundDuration":361446,"Delta":87228097},{"NoteNumber":66,"Velocity":26,"Duration":361446,"SoundDuration":361446,"Delta":87228097},{"NoteNumber":69,"Velocity":26,"Duration":361446,"SoundDuration":361446,"Delta":87589543},{"NoteNumber":59,"Velocity":22,"Duration":405405,"SoundDuration":405405,"Delta":87950989},{"NoteNumber":76,"Velocity":31,"Duration":370370,"SoundDuration":370370,"Delta":88356394},{"NoteNumber":64,"Velocity":24,"Duration":370370,"SoundDuration":370370,"Delta":88356394},{"NoteNumber":72,"Velocity":24,"Duration":370370,"SoundDuration":370370,"Delta":88356394},{"NoteNumber":69,"Velocity":24,"Duration":370370,"SoundDuration":370370,"Delta":88356394},{"NoteNumber":57,"Velocity":19,"Duration":370370,"SoundDuration":370370,"Delta":88356394},{"NoteNumber":60,"Velocity":19,"Duration":370370,"SoundDuration":370370,"Delta":88356394},{"NoteNumber":77,"Velocity":26,"Duration":187500,"SoundDuration":187500,"Delta":88726765},{"NoteNumber":56,"Velocity":20,"Duration":187500,"SoundDuration":187500,"Delta":88726765},{"NoteNumber":84,"Velocity":32,"Duration":375000,"SoundDuration":375000,"Delta":89450602},{"NoteNumber":76,"Velocity":25,"Duration":375000,"SoundDuration":375000,"Delta":89450602},{"NoteNumber":81,"Velocity":25,"Duration":375000,"SoundDuration":375000,"Delta":89450602},{"NoteNumber":57,"Velocity":24,"Duration":375000,"SoundDuration":375000,"Delta":89450602},{"NoteNumber":48,"Velocity":19,"Duration":375000,"SoundDuration":375000,"Delta":89450602},{"NoteNumber":52,"Velocity":19,"Duration":375000,"SoundDuration":375000,"Delta":89450602},{"NoteNumber":75,"Velocity":26,"Duration":187500,"SoundDuration":187500,"Delta":89825602},{"NoteNumber":59,"Velocity":20,"Duration":187500,"SoundDuration":187500,"Delta":89825602},{"NoteNumber":76,"Velocity":31,"Duration":370370,"SoundDuration":370370,"Delta":90549439},{"NoteNumber":64,"Velocity":24,"Duration":370370,"SoundDuration":370370,"Delta":90549439},{"NoteNumber":72,"Velocity":24,"Duration":370370,"SoundDuration":370370,"Delta":90549439},{"NoteNumber":69,"Velocity":24,"Duration":370370,"SoundDuration":370370,"Delta":90549439},{"NoteNumber":57,"Velocity":19,"Duration":370370,"SoundDuration":370370,"Delta":90549439},{"NoteNumber":60,"Velocity":19,"Duration":370370,"SoundDuration":370370,"Delta":90549439},{"NoteNumber":77,"Velocity":26,"Duration":187500,"SoundDuration":187500,"Delta":90919809},{"NoteNumber":56,"Velocity":20,"Duration":187500,"SoundDuration":187500,"Delta":90919809},{"NoteNumber":84,"Velocity":32,"Duration":365853,"SoundDuration":365853,"Delta":91669809},{"NoteNumber":75,"Velocity":25,"Duration":365853,"SoundDuration":365853,"Delta":91669809},{"NoteNumber":81,"Velocity":25,"Duration":365853,"SoundDuration":365853,"Delta":91669809},{"NoteNumber":57,"Velocity":24,"Duration":365853,"SoundDuration":365853,"Delta":91669809},{"NoteNumber":48,"Velocity":19,"Duration":365853,"SoundDuration":365853,"Delta":91669809},{"NoteNumber":54,"Velocity":19,"Duration":365853,"SoundDuration":365853,"Delta":91669809},{"NoteNumber":69,"Velocity":26,"Duration":189873,"SoundDuration":189873,"Delta":92035663},{"NoteNumber":63,"Velocity":20,"Duration":189873,"SoundDuration":189873,"Delta":92035663},{"NoteNumber":74,"Velocity":33,"Duration":370370,"SoundDuration":370370,"Delta":92772553},{"NoteNumber":62,"Velocity":27,"Duration":370370,"SoundDuration":370370,"Delta":92772553},{"NoteNumber":71,"Velocity":27,"Duration":370370,"SoundDuration":370370,"Delta":92772553},{"NoteNumber":67,"Velocity":27,"Duration":370370,"SoundDuration":370370,"Delta":92772553},{"NoteNumber":55,"Velocity":20,"Duration":370370,"SoundDuration":370370,"Delta":92772553},{"NoteNumber":59,"Velocity":20,"Duration":370370,"SoundDuration":370370,"Delta":92772553},{"NoteNumber":75,"Velocity":28,"Duration":187500,"SoundDuration":187500,"Delta":93142923},{"NoteNumber":54,"Velocity":21,"Duration":187500,"SoundDuration":187500,"Delta":93142923},{"NoteNumber":83,"Velocity":33,"Duration":375000,"SoundDuration":375000,"Delta":93866760},{"NoteNumber":74,"Velocity":26,"Duration":375000,"SoundDuration":375000,"Delta":93866760},{"NoteNumber":79,"Velocity":26,"Duration":375000,"SoundDuration":375000,"Delta":93866760},{"NoteNumber":55,"Velocity":25,"Duration":375000,"SoundDuration":375000,"Delta":93866760},{"NoteNumber":47,"Velocity":20,"Duration":375000,"SoundDuration":375000,"Delta":93866760},{"NoteNumber":50,"Velocity":20,"Duration":375000,"SoundDuration":375000,"Delta":93866760},{"NoteNumber":73,"Velocity":27,"Duration":185185,"SoundDuration":185185,"Delta":94241760},{"NoteNumber":57,"Velocity":21,"Duration":185185,"SoundDuration":185185,"Delta":94241760},{"NoteNumber":74,"Velocity":31,"Duration":375000,"SoundDuration":375000,"Delta":94960968},{"NoteNumber":62,"Velocity":24,"Duration":375000,"SoundDuration":375000,"Delta":94960968},{"NoteNumber":71,"Velocity":24,"Duration":375000,"SoundDuration":375000,"Delta":94960968},{"NoteNumber":67,"Velocity":24,"Duration":375000,"SoundDuration":375000,"Delta":94960968},{"NoteNumber":55,"Velocity":19,"Duration":375000,"SoundDuration":375000,"Delta":94960968},{"NoteNumber":59,"Velocity":19,"Duration":375000,"SoundDuration":375000,"Delta":94960968},{"NoteNumber":75,"Velocity":26,"Duration":185185,"SoundDuration":185185,"Delta":95335968},{"NoteNumber":54,"Velocity":20,"Duration":185185,"SoundDuration":185185,"Delta":95335968},{"NoteNumber":82,"Velocity":35,"Duration":370370,"SoundDuration":370370,"Delta":96059279},{"NoteNumber":73,"Velocity":27,"Duration":370370,"SoundDuration":370370,"Delta":96059279},{"NoteNumber":79,"Velocity":27,"Duration":370370,"SoundDuration":370370,"Delta":96059279},{"NoteNumber":55,"Velocity":26,"Duration":370370,"SoundDuration":370370,"Delta":96059279},{"NoteNumber":46,"Velocity":20,"Duration":370370,"SoundDuration":370370,"Delta":96059279},{"NoteNumber":52,"Velocity":20,"Duration":370370,"SoundDuration":370370,"Delta":96059279},{"NoteNumber":67,"Velocity":28,"Duration":185185,"SoundDuration":185185,"Delta":96429650},{"NoteNumber":61,"Velocity":22,"Duration":185185,"SoundDuration":185185,"Delta":96429650},{"NoteNumber":72,"Velocity":60,"Duration":352941,"SoundDuration":352941,"Delta":97184636},{"NoteNumber":60,"Velocity":46,"Duration":352941,"SoundDuration":352941,"Delta":97184636},{"NoteNumber":69,"Velocity":46,"Duration":352941,"SoundDuration":352941,"Delta":97184636},{"NoteNumber":65,"Velocity":43,"Duration":352941,"SoundDuration":352941,"Delta":97184636},{"NoteNumber":53,"Velocity":33,"Duration":352941,"SoundDuration":352941,"Delta":97184636},{"NoteNumber":57,"Velocity":33,"Duration":352941,"SoundDuration":352941,"Delta":97184636},{"NoteNumber":73,"Velocity":54,"Duration":281250,"SoundDuration":281250,"Delta":97537577},{"NoteNumber":52,"Velocity":37,"Duration":281250,"SoundDuration":281250,"Delta":97537577},{"NoteNumber":72,"Velocity":62,"Duration":389610,"SoundDuration":389610,"Delta":98287577},{"NoteNumber":65,"Velocity":49,"Duration":389610,"SoundDuration":389610,"Delta":98287577},{"NoteNumber":69,"Velocity":49,"Duration":389610,"SoundDuration":389610,"Delta":98287577},{"NoteNumber":60,"Velocity":54,"Duration":389610,"SoundDuration":389610,"Delta":98287577},{"NoteNumber":53,"Velocity":42,"Duration":389610,"SoundDuration":389610,"Delta":98287577},{"NoteNumber":57,"Velocity":42,"Duration":389610,"SoundDuration":389610,"Delta":98287577},{"NoteNumber":74,"Velocity":55,"Duration":292207,"SoundDuration":292207,"Delta":98677187},{"NoteNumber":52,"Velocity":44,"Duration":292207,"SoundDuration":292207,"Delta":98677187},{"NoteNumber":81,"Velocity":72,"Duration":384615,"SoundDuration":384615,"Delta":99451413},{"NoteNumber":72,"Velocity":57,"Duration":384615,"SoundDuration":384615,"Delta":99451413},{"NoteNumber":77,"Velocity":57,"Duration":384615,"SoundDuration":384615,"Delta":99451413},{"NoteNumber":53,"Velocity":58,"Duration":384615,"SoundDuration":384615,"Delta":99451413},{"NoteNumber":45,"Velocity":46,"Duration":384615,"SoundDuration":384615,"Delta":99451413},{"NoteNumber":48,"Velocity":46,"Duration":384615,"SoundDuration":384615,"Delta":99451413},{"NoteNumber":71,"Velocity":66,"Duration":288461,"SoundDuration":288461,"Delta":99836029},{"NoteNumber":56,"Velocity":52,"Duration":288461,"SoundDuration":288461,"Delta":99836029},{"NoteNumber":77,"Velocity":74,"Duration":410959,"SoundDuration":410959,"Delta":100605260},{"NoteNumber":69,"Velocity":58,"Duration":410959,"SoundDuration":410959,"Delta":100605260},{"NoteNumber":72,"Velocity":58,"Duration":410959,"SoundDuration":410959,"Delta":100605260},{"NoteNumber":57,"Velocity":62,"Duration":410959,"SoundDuration":410959,"Delta":100605260},{"NoteNumber":48,"Velocity":49,"Duration":410959,"SoundDuration":410959,"Delta":100605260},{"NoteNumber":53,"Velocity":49,"Duration":410959,"SoundDuration":410959,"Delta":100605260},{"NoteNumber":67,"Velocity":67,"Duration":308219,"SoundDuration":308219,"Delta":101016219},{"NoteNumber":59,"Velocity":56,"Duration":308219,"SoundDuration":308219,"Delta":101016219},{"NoteNumber":69,"Velocity":53,"Duration":2491370,"SoundDuration":2491370,"Delta":101838137},{"NoteNumber":65,"Velocity":63,"Duration":428571,"SoundDuration":428571,"Delta":101838137},{"NoteNumber":72,"Velocity":60,"Duration":2491370,"SoundDuration":2491370,"Delta":101838137},{"NoteNumber":53,"Velocity":48,"Duration":1644788,"SoundDuration":1644788,"Delta":101838137},{"NoteNumber":57,"Velocity":47,"Duration":2491370,"SoundDuration":2491370,"Delta":101838137},{"NoteNumber":60,"Velocity":52,"Duration":2491370,"SoundDuration":2491370,"Delta":101838137},{"NoteNumber":64,"Velocity":69,"Duration":1216216,"SoundDuration":1216216,"Delta":102266708},{"NoteNumber":63,"Velocity":66,"Duration":2574004,"SoundDuration":2574004,"Delta":103482925},{"NoteNumber":54,"Velocity":48,"Duration":3456357,"SoundDuration":3456357,"Delta":103482925},{"NoteNumber":72,"Velocity":50,"Duration":422534,"SoundDuration":422534,"Delta":104329507},{"NoteNumber":57,"Velocity":42,"Duration":422534,"SoundDuration":422534,"Delta":104329507},{"NoteNumber":71,"Velocity":50,"Duration":1304888,"SoundDuration":1304888,"Delta":104752042},{"NoteNumber":59,"Velocity":42,"Duration":1304888,"SoundDuration":1304888,"Delta":104752042},{"NoteNumber":64,"Velocity":38,"Duration":882352,"SoundDuration":882352,"Delta":106056930},{"NoteNumber":70,"Velocity":45,"Duration":882352,"SoundDuration":882352,"Delta":106056930},{"NoteNumber":61,"Velocity":37,"Duration":882352,"SoundDuration":882352,"Delta":106056930},{"NoteNumber":70,"Velocity":36,"Duration":410959,"SoundDuration":410959,"Delta":106939283},{"NoteNumber":35,"Velocity":40,"Duration":410959,"SoundDuration":410959,"Delta":106939283},{"NoteNumber":73,"Velocity":39,"Duration":1881309,"SoundDuration":1881309,"Delta":107350242},{"NoteNumber":42,"Velocity":44,"Duration":769231,"SoundDuration":769231,"Delta":107350242},{"NoteNumber":63,"Velocity":39,"Duration":400000,"SoundDuration":400000,"Delta":108119473},{"NoteNumber":47,"Velocity":39,"Duration":400000,"SoundDuration":400000,"Delta":108119473},{"NoteNumber":66,"Velocity":43,"Duration":1828715,"SoundDuration":1828715,"Delta":108519473},{"NoteNumber":51,"Velocity":43,"Duration":712078,"SoundDuration":712078,"Delta":108519473},{"NoteNumber":71,"Velocity":36,"Duration":379746,"SoundDuration":379746,"Delta":109231551},{"NoteNumber":35,"Velocity":40,"Duration":379746,"SoundDuration":379746,"Delta":109231551},{"NoteNumber":75,"Velocity":39,"Duration":1107260,"SoundDuration":1107260,"Delta":109611298},{"NoteNumber":44,"Velocity":47,"Duration":736890,"SoundDuration":736890,"Delta":109611298},{"NoteNumber":64,"Velocity":41,"Duration":370370,"SoundDuration":370370,"Delta":110348188},{"NoteNumber":47,"Velocity":39,"Duration":370370,"SoundDuration":370370,"Delta":110348188},{"NoteNumber":68,"Velocity":45,"Duration":1094944,"SoundDuration":1094944,"Delta":110718559},{"NoteNumber":52,"Velocity":43,"Duration":715197,"SoundDuration":715197,"Delta":110718559},{"NoteNumber":60,"Velocity":40,"Duration":379746,"SoundDuration":379746,"Delta":111433757},{"NoteNumber":35,"Velocity":40,"Duration":379746,"SoundDuration":379746,"Delta":111433757},{"NoteNumber":63,"Velocity":44,"Duration":1804961,"SoundDuration":1804961,"Delta":111813504},{"NoteNumber":41,"Velocity":47,"Duration":711279,"SoundDuration":711279,"Delta":111813504},{"NoteNumber":53,"Velocity":41,"Duration":370370,"SoundDuration":370370,"Delta":112524783},{"NoteNumber":44,"Velocity":39,"Duration":370370,"SoundDuration":370370,"Delta":112524783},{"NoteNumber":56,"Velocity":45,"Duration":1849468,"SoundDuration":1849468,"Delta":112895154},{"NoteNumber":47,"Velocity":43,"Duration":723311,"SoundDuration":723311,"Delta":112895154},{"NoteNumber":61,"Velocity":36,"Duration":410959,"SoundDuration":410959,"Delta":113618465},{"NoteNumber":35,"Velocity":40,"Duration":410959,"SoundDuration":410959,"Delta":113618465},{"NoteNumber":59,"Velocity":44,"Duration":1085568,"SoundDuration":1085568,"Delta":114029424},{"NoteNumber":40,"Velocity":47,"Duration":715198,"SoundDuration":715198,"Delta":114029424},{"NoteNumber":54,"Velocity":36,"Duration":370370,"SoundDuration":370370,"Delta":114744622},{"NoteNumber":43,"Velocity":33,"Duration":370370,"SoundDuration":370370,"Delta":114744622},{"NoteNumber":49,"Velocity":27,"Duration":1061377,"SoundDuration":1061377,"Delta":115114993},{"NoteNumber":52,"Velocity":33,"Duration":1061377,"SoundDuration":1061377,"Delta":115114993},{"NoteNumber":47,"Velocity":27,"Duration":1061377,"SoundDuration":1061377,"Delta":115114993},{"NoteNumber":58,"Velocity":42,"Duration":365853,"SoundDuration":365853,"Delta":115444663},{"NoteNumber":70,"Velocity":45,"Duration":365853,"SoundDuration":365853,"Delta":115810517},{"NoteNumber":73,"Velocity":49,"Duration":1016823,"SoundDuration":1016823,"Delta":116176370},{"NoteNumber":47,"Velocity":42,"Duration":348837,"SoundDuration":348837,"Delta":116176370},{"NoteNumber":51,"Velocity":36,"Duration":319148,"SoundDuration":319148,"Delta":116525207},{"NoteNumber":63,"Velocity":36,"Duration":348837,"SoundDuration":348837,"Delta":116844356},{"NoteNumber":66,"Velocity":41,"Duration":1008496,"SoundDuration":1008496,"Delta":117193193},{"NoteNumber":59,"Velocity":40,"Duration":337078,"SoundDuration":337078,"Delta":117515774},{"NoteNumber":71,"Velocity":47,"Duration":348837,"SoundDuration":348837,"Delta":117852852},{"NoteNumber":35,"Velocity":34,"Duration":174418,"SoundDuration":174418,"Delta":117852852},{"NoteNumber":75,"Velocity":50,"Duration":1019325,"SoundDuration":1019325,"Delta":118201689},{"NoteNumber":47,"Velocity":43,"Duration":344827,"SoundDuration":344827,"Delta":118201689},{"NoteNumber":52,"Velocity":36,"Duration":329670,"SoundDuration":329670,"Delta":118546517},{"NoteNumber":64,"Velocity":36,"Duration":344827,"SoundDuration":344827,"Delta":118876187},{"NoteNumber":68,"Velocity":41,"Duration":1005808,"SoundDuration":1005808,"Delta":119221015},{"NoteNumber":60,"Velocity":48,"Duration":337078,"SoundDuration":337078,"Delta":119536804},{"NoteNumber":72,"Velocity":56,"Duration":352941,"SoundDuration":352941,"Delta":119873883},{"NoteNumber":35,"Velocity":40,"Duration":176470,"SoundDuration":176470,"Delta":119873883},{"NoteNumber":75,"Velocity":60,"Duration":1004074,"SoundDuration":1004074,"Delta":120226824},{"NoteNumber":47,"Velocity":51,"Duration":340908,"SoundDuration":340908,"Delta":120226824},{"NoteNumber":53,"Velocity":43,"Duration":326087,"SoundDuration":326087,"Delta":120567733},{"NoteNumber":65,"Velocity":43,"Duration":337078,"SoundDuration":337078,"Delta":120893820},{"NoteNumber":68,"Velocity":49,"Duration":1090029,"SoundDuration":1090029,"Delta":121230898},{"NoteNumber":61,"Velocity":55,"Duration":348837,"SoundDuration":348837,"Delta":121592344},{"NoteNumber":73,"Velocity":63,"Duration":379746,"SoundDuration":379746,"Delta":121941181},{"NoteNumber":35,"Velocity":50,"Duration":189873,"SoundDuration":189873,"Delta":121941181},{"NoteNumber":80,"Velocity":73,"Duration":1019751,"SoundDuration":1019751,"Delta":122320928},{"NoteNumber":47,"Velocity":62,"Duration":348837,"SoundDuration":348837,"Delta":122320928},{"NoteNumber":52,"Velocity":52,"Duration":326087,"SoundDuration":326087,"Delta":122669765},{"NoteNumber":64,"Velocity":52,"Duration":344827,"SoundDuration":344827,"Delta":122995852},{"NoteNumber":70,"Velocity":66,"Duration":1021767,"SoundDuration":1021767,"Delta":123340680},{"NoteNumber":66,"Velocity":68,"Duration":333333,"SoundDuration":333333,"Delta":123663260},{"NoteNumber":78,"Velocity":73,"Duration":365853,"SoundDuration":365853,"Delta":123996594},{"NoteNumber":35,"Velocity":46,"Duration":182926,"SoundDuration":182926,"Delta":123996594},{"NoteNumber":76,"Velocity":80,"Duration":1046605,"SoundDuration":1046605,"Delta":124362447},{"NoteNumber":47,"Velocity":66,"Duration":344827,"SoundDuration":344827,"Delta":124362447},{"NoteNumber":54,"Velocity":57,"Duration":352941,"SoundDuration":352941,"Delta":124707275},{"NoteNumber":66,"Velocity":57,"Duration":348837,"SoundDuration":348837,"Delta":125060216},{"NoteNumber":69,"Velocity":66,"Duration":1071735,"SoundDuration":1071735,"Delta":125409053},{"NoteNumber":35,"Velocity":46,"Duration":1071735,"SoundDuration":1071735,"Delta":125409053},{"NoteNumber":63,"Velocity":68,"Duration":352941,"SoundDuration":352941,"Delta":125761994},{"NoteNumber":75,"Velocity":73,"Duration":365853,"SoundDuration":365853,"Delta":126114935},{"NoteNumber":72,"Velocity":80,"Duration":1030743,"SoundDuration":1030743,"Delta":126480788},{"NoteNumber":47,"Velocity":66,"Duration":337078,"SoundDuration":337078,"Delta":126480788},{"NoteNumber":54,"Velocity":57,"Duration":348837,"SoundDuration":348837,"Delta":126817867},{"NoteNumber":64,"Velocity":57,"Duration":344827,"SoundDuration":344827,"Delta":127166704},{"NoteNumber":63,"Velocity":66,"Duration":1071735,"SoundDuration":1071735,"Delta":127511531},{"NoteNumber":35,"Velocity":46,"Duration":1071735,"SoundDuration":1071735,"Delta":127511531},{"NoteNumber":57,"Velocity":68,"Duration":352941,"SoundDuration":352941,"Delta":127864472},{"NoteNumber":69,"Velocity":73,"Duration":365853,"SoundDuration":365853,"Delta":128217413},{"NoteNumber":66,"Velocity":81,"Duration":1034482,"SoundDuration":1034482,"Delta":128583267},{"NoteNumber":48,"Velocity":66,"Duration":689654,"SoundDuration":689654,"Delta":128583267},{"NoteNumber":57,"Velocity":57,"Duration":344827,"SoundDuration":344827,"Delta":128928094},{"NoteNumber":64,"Velocity":57,"Duration":344827,"SoundDuration":344827,"Delta":129272922},{"NoteNumber":63,"Velocity":66,"Duration":1071735,"SoundDuration":1071735,"Delta":129617749},{"NoteNumber":47,"Velocity":46,"Duration":705882,"SoundDuration":705882,"Delta":129617749},{"NoteNumber":57,"Velocity":68,"Duration":352941,"SoundDuration":352941,"Delta":129970690},{"NoteNumber":69,"Velocity":73,"Duration":365853,"SoundDuration":365853,"Delta":130323631},{"NoteNumber":72,"Velocity":81,"Duration":1022988,"SoundDuration":1022988,"Delta":130689485},{"NoteNumber":45,"Velocity":66,"Duration":678161,"SoundDuration":678161,"Delta":130689485},{"NoteNumber":54,"Velocity":57,"Duration":333333,"SoundDuration":333333,"Delta":131034312},{"NoteNumber":64,"Velocity":57,"Duration":344827,"SoundDuration":344827,"Delta":131367646},{"NoteNumber":63,"Velocity":66,"Duration":1071735,"SoundDuration":1071735,"Delta":131712473},{"NoteNumber":47,"Velocity":46,"Duration":705882,"SoundDuration":705882,"Delta":131712473},{"NoteNumber":57,"Velocity":68,"Duration":352941,"SoundDuration":352941,"Delta":132065414},{"NoteNumber":69,"Velocity":73,"Duration":365853,"SoundDuration":365853,"Delta":132418355},{"NoteNumber":66,"Velocity":81,"Duration":1034482,"SoundDuration":1034482,"Delta":132784209},{"NoteNumber":48,"Velocity":66,"Duration":689654,"SoundDuration":689654,"Delta":132784209},{"NoteNumber":57,"Velocity":57,"Duration":344827,"SoundDuration":344827,"Delta":133129036},{"NoteNumber":64,"Velocity":57,"Duration":344827,"SoundDuration":344827,"Delta":133473864},{"NoteNumber":63,"Velocity":66,"Duration":1095492,"SoundDuration":1095492,"Delta":133818691},{"NoteNumber":47,"Velocity":46,"Duration":705882,"SoundDuration":705882,"Delta":133818691},{"NoteNumber":57,"Velocity":68,"Duration":352941,"SoundDuration":352941,"Delta":134171632},{"NoteNumber":69,"Velocity":73,"Duration":389610,"SoundDuration":389610,"Delta":134524573},{"NoteNumber":72,"Velocity":81,"Duration":2561955,"SoundDuration":2561955,"Delta":134914184},{"NoteNumber":45,"Velocity":66,"Duration":718794,"SoundDuration":718794,"Delta":134914184},{"NoteNumber":54,"Velocity":57,"Duration":352940,"SoundDuration":352940,"Delta":135280037},{"NoteNumber":64,"Velocity":57,"Duration":189873,"SoundDuration":189873,"Delta":135632978},{"NoteNumber":42,"Velocity":66,"Duration":731707,"SoundDuration":731707,"Delta":136012725},{"NoteNumber":57,"Velocity":57,"Duration":365853,"SoundDuration":365853,"Delta":136378579},{"NoteNumber":64,"Velocity":57,"Duration":182926,"SoundDuration":182926,"Delta":136744432},{"NoteNumber":47,"Velocity":48,"Duration":365853,"SoundDuration":365853,"Delta":137110286},{"NoteNumber":57,"Velocity":39,"Duration":394736,"SoundDuration":394736,"Delta":137476139},{"NoteNumber":71,"Velocity":44,"Duration":361446,"SoundDuration":361446,"Delta":137870876},{"NoteNumber":69,"Velocity":37,"Duration":361446,"SoundDuration":361446,"Delta":137870876},{"NoteNumber":63,"Velocity":37,"Duration":361446,"SoundDuration":361446,"Delta":137870876},{"NoteNumber":66,"Velocity":37,"Duration":361446,"SoundDuration":361446,"Delta":138232322},{"NoteNumber":59,"Velocity":27,"Duration":400000,"SoundDuration":400000,"Delta":138593768},{"NoteNumber":69,"Velocity":36,"Duration":361446,"SoundDuration":361446,"Delta":138993768},{"NoteNumber":64,"Velocity":36,"Duration":361446,"SoundDuration":361446,"Delta":138993768},{"NoteNumber":71,"Velocity":43,"Duration":361446,"SoundDuration":361446,"Delta":138993768},{"NoteNumber":72,"Velocity":36,"Duration":361446,"SoundDuration":361446,"Delta":139355214},{"NoteNumber":57,"Velocity":27,"Duration":384615,"SoundDuration":384615,"Delta":139716660},{"NoteNumber":47,"Velocity":23,"Duration":384615,"SoundDuration":384615,"Delta":139716660},{"NoteNumber":71,"Velocity":42,"Duration":361446,"SoundDuration":361446,"Delta":140101276},{"NoteNumber":69,"Velocity":35,"Duration":361446,"SoundDuration":361446,"Delta":140101276},{"NoteNumber":63,"Velocity":35,"Duration":361446,"SoundDuration":361446,"Delta":140101276},{"NoteNumber":66,"Velocity":37,"Duration":361446,"SoundDuration":361446,"Delta":140462722},{"NoteNumber":59,"Velocity":26,"Duration":370370,"SoundDuration":370370,"Delta":140824168},{"NoteNumber":72,"Velocity":34,"Duration":361446,"SoundDuration":361446,"Delta":141194538},{"NoteNumber":67,"Velocity":34,"Duration":361446,"SoundDuration":361446,"Delta":141194538},{"NoteNumber":75,"Velocity":40,"Duration":361446,"SoundDuration":361446,"Delta":141194538},{"NoteNumber":76,"Velocity":35,"Duration":361446,"SoundDuration":361446,"Delta":141555984},{"NoteNumber":47,"Velocity":15,"Duration":370370,"SoundDuration":370370,"Delta":141917430},{"NoteNumber":57,"Velocity":21,"Duration":370370,"SoundDuration":370370,"Delta":141917430},{"NoteNumber":75,"Velocity":37,"Duration":361446,"SoundDuration":361446,"Delta":142287801},{"NoteNumber":72,"Velocity":31,"Duration":361446,"SoundDuration":361446,"Delta":142287801},{"NoteNumber":66,"Velocity":31,"Duration":361446,"SoundDuration":361446,"Delta":142287801},{"NoteNumber":69,"Velocity":32,"Duration":361446,"SoundDuration":361446,"Delta":142649247},{"NoteNumber":59,"Velocity":21,"Duration":375000,"SoundDuration":375000,"Delta":143010693},{"NoteNumber":75,"Velocity":34,"Duration":361446,"SoundDuration":361446,"Delta":143385693},{"NoteNumber":72,"Velocity":29,"Duration":361446,"SoundDuration":361446,"Delta":143385693},{"NoteNumber":67,"Velocity":29,"Duration":361446,"SoundDuration":361446,"Delta":143385693},{"NoteNumber":76,"Velocity":29,"Duration":361446,"SoundDuration":361446,"Delta":143747139},{"NoteNumber":57,"Velocity":17,"Duration":375000,"SoundDuration":375000,"Delta":144108585},{"NoteNumber":47,"Velocity":13,"Duration":375000,"SoundDuration":375000,"Delta":144108585},{"NoteNumber":75,"Velocity":30,"Duration":361446,"SoundDuration":361446,"Delta":144483585},{"NoteNumber":66,"Velocity":26,"Duration":361446,"SoundDuration":361446,"Delta":144483585},{"NoteNumber":72,"Velocity":26,"Duration":361446,"SoundDuration":361446,"Delta":144483585},{"NoteNumber":69,"Velocity":26,"Duration":361446,"SoundDuration":361446,"Delta":144845031},{"NoteNumber":59,"Velocity":17,"Duration":399305,"SoundDuration":399305,"Delta":145206477},{"NoteNumber":76,"Velocity":31,"Duration":370370,"SoundDuration":370370,"Delta":145623143},{"NoteNumber":64,"Velocity":24,"Duration":370370,"SoundDuration":370370,"Delta":145623143},{"NoteNumber":72,"Velocity":24,"Duration":370370,"SoundDuration":370370,"Delta":145623143},{"NoteNumber":57,"Velocity":19,"Duration":370370,"SoundDuration":370370,"Delta":145623143},{"NoteNumber":60,"Velocity":19,"Duration":370370,"SoundDuration":370370,"Delta":145623143},{"NoteNumber":69,"Velocity":24,"Duration":370370,"SoundDuration":370370,"Delta":145623143},{"NoteNumber":77,"Velocity":26,"Duration":187500,"SoundDuration":187500,"Delta":145993514},{"NoteNumber":56,"Velocity":20,"Duration":187500,"SoundDuration":187500,"Delta":145993514},{"NoteNumber":76,"Velocity":25,"Duration":375000,"SoundDuration":375000,"Delta":146717351},{"NoteNumber":81,"Velocity":25,"Duration":375000,"SoundDuration":375000,"Delta":146717351},{"NoteNumber":84,"Velocity":32,"Duration":375000,"SoundDuration":375000,"Delta":146717351},{"NoteNumber":57,"Velocity":24,"Duration":375000,"SoundDuration":375000,"Delta":146717351},{"NoteNumber":48,"Velocity":19,"Duration":375000,"SoundDuration":375000,"Delta":146717351},{"NoteNumber":52,"Velocity":19,"Duration":375000,"SoundDuration":375000,"Delta":146717351},{"NoteNumber":75,"Velocity":26,"Duration":187500,"SoundDuration":187500,"Delta":147092351},{"NoteNumber":59,"Velocity":20,"Duration":187500,"SoundDuration":187500,"Delta":147092351},{"NoteNumber":76,"Velocity":31,"Duration":370370,"SoundDuration":370370,"Delta":147816188},{"NoteNumber":64,"Velocity":24,"Duration":370370,"SoundDuration":370370,"Delta":147816188},{"NoteNumber":72,"Velocity":24,"Duration":370370,"SoundDuration":370370,"Delta":147816188},{"NoteNumber":69,"Velocity":24,"Duration":370370,"SoundDuration":370370,"Delta":147816188},{"NoteNumber":60,"Velocity":19,"Duration":370370,"SoundDuration":370370,"Delta":147816188},{"NoteNumber":57,"Velocity":19,"Duration":370370,"SoundDuration":370370,"Delta":147816188},{"NoteNumber":77,"Velocity":26,"Duration":182926,"SoundDuration":182926,"Delta":148186558},{"NoteNumber":56,"Velocity":20,"Duration":182926,"SoundDuration":182926,"Delta":148186558},{"NoteNumber":75,"Velocity":25,"Duration":365853,"SoundDuration":365853,"Delta":148918265},{"NoteNumber":81,"Velocity":25,"Duration":365853,"SoundDuration":365853,"Delta":148918265},{"NoteNumber":84,"Velocity":32,"Duration":365853,"SoundDuration":365853,"Delta":148918265},{"NoteNumber":57,"Velocity":24,"Duration":365853,"SoundDuration":365853,"Delta":148918265},{"NoteNumber":54,"Velocity":19,"Duration":365853,"SoundDuration":365853,"Delta":148918265},{"NoteNumber":48,"Velocity":19,"Duration":365853,"SoundDuration":365853,"Delta":148918265},{"NoteNumber":69,"Velocity":26,"Duration":189873,"SoundDuration":189873,"Delta":149284119},{"NoteNumber":63,"Velocity":20,"Duration":189873,"SoundDuration":189873,"Delta":149284119},{"NoteNumber":74,"Velocity":33,"Duration":370370,"SoundDuration":370370,"Delta":150021009},{"NoteNumber":62,"Velocity":27,"Duration":370370,"SoundDuration":370370,"Delta":150021009},{"NoteNumber":71,"Velocity":27,"Duration":370370,"SoundDuration":370370,"Delta":150021009},{"NoteNumber":55,"Velocity":20,"Duration":370370,"SoundDuration":370370,"Delta":150021009},{"NoteNumber":59,"Velocity":20,"Duration":370370,"SoundDuration":370370,"Delta":150021009},{"NoteNumber":67,"Velocity":27,"Duration":370370,"SoundDuration":370370,"Delta":150021009},{"NoteNumber":75,"Velocity":28,"Duration":187500,"SoundDuration":187500,"Delta":150391379},{"NoteNumber":54,"Velocity":21,"Duration":187500,"SoundDuration":187500,"Delta":150391379},{"NoteNumber":83,"Velocity":33,"Duration":375000,"SoundDuration":375000,"Delta":151115216},{"NoteNumber":74,"Velocity":26,"Duration":375000,"SoundDuration":375000,"Delta":151115216},{"NoteNumber":79,"Velocity":26,"Duration":375000,"SoundDuration":375000,"Delta":151115216},{"NoteNumber":55,"Velocity":25,"Duration":375000,"SoundDuration":375000,"Delta":151115216},{"NoteNumber":47,"Velocity":20,"Duration":375000,"SoundDuration":375000,"Delta":151115216},{"NoteNumber":50,"Velocity":20,"Duration":375000,"SoundDuration":375000,"Delta":151115216},{"NoteNumber":73,"Velocity":27,"Duration":185185,"SoundDuration":185185,"Delta":151490216},{"NoteNumber":57,"Velocity":21,"Duration":185185,"SoundDuration":185185,"Delta":151490216},{"NoteNumber":74,"Velocity":31,"Duration":375000,"SoundDuration":375000,"Delta":152209424},{"NoteNumber":71,"Velocity":24,"Duration":375000,"SoundDuration":375000,"Delta":152209424},{"NoteNumber":62,"Velocity":24,"Duration":375000,"SoundDuration":375000,"Delta":152209424},{"NoteNumber":67,"Velocity":24,"Duration":375000,"SoundDuration":375000,"Delta":152209424},{"NoteNumber":55,"Velocity":19,"Duration":375000,"SoundDuration":375000,"Delta":152209424},{"NoteNumber":59,"Velocity":19,"Duration":375000,"SoundDuration":375000,"Delta":152209424},{"NoteNumber":75,"Velocity":26,"Duration":185185,"SoundDuration":185185,"Delta":152584424},{"NoteNumber":54,"Velocity":20,"Duration":185185,"SoundDuration":185185,"Delta":152584424},{"NoteNumber":82,"Velocity":35,"Duration":370370,"SoundDuration":370370,"Delta":153307735},{"NoteNumber":73,"Velocity":27,"Duration":370370,"SoundDuration":370370,"Delta":153307735},{"NoteNumber":79,"Velocity":27,"Duration":370370,"SoundDuration":370370,"Delta":153307735},{"NoteNumber":55,"Velocity":26,"Duration":370370,"SoundDuration":370370,"Delta":153307735},{"NoteNumber":52,"Velocity":20,"Duration":370370,"SoundDuration":370370,"Delta":153307735},{"NoteNumber":46,"Velocity":20,"Duration":370370,"SoundDuration":370370,"Delta":153307735},{"NoteNumber":67,"Velocity":28,"Duration":185185,"SoundDuration":185185,"Delta":153678106},{"NoteNumber":61,"Velocity":22,"Duration":185185,"SoundDuration":185185,"Delta":153678106},{"NoteNumber":60,"Velocity":46,"Duration":352940,"SoundDuration":352940,"Delta":154433092},{"NoteNumber":69,"Velocity":46,"Duration":352940,"SoundDuration":352940,"Delta":154433092},{"NoteNumber":72,"Velocity":60,"Duration":352940,"SoundDuration":352940,"Delta":154433092},{"NoteNumber":65,"Velocity":43,"Duration":352940,"SoundDuration":352940,"Delta":154433092},{"NoteNumber":53,"Velocity":33,"Duration":352940,"SoundDuration":352940,"Delta":154433092},{"NoteNumber":57,"Velocity":33,"Duration":352940,"SoundDuration":352940,"Delta":154433092},{"NoteNumber":73,"Velocity":54,"Duration":281250,"SoundDuration":281250,"Delta":154786033},{"NoteNumber":52,"Velocity":37,"Duration":281250,"SoundDuration":281250,"Delta":154786033},{"NoteNumber":72,"Velocity":62,"Duration":389610,"SoundDuration":389610,"Delta":155536033},{"NoteNumber":65,"Velocity":49,"Duration":389610,"SoundDuration":389610,"Delta":155536033},{"NoteNumber":69,"Velocity":49,"Duration":389610,"SoundDuration":389610,"Delta":155536033},{"NoteNumber":53,"Velocity":42,"Duration":389610,"SoundDuration":389610,"Delta":155536033},{"NoteNumber":57,"Velocity":42,"Duration":389610,"SoundDuration":389610,"Delta":155536033},{"NoteNumber":60,"Velocity":54,"Duration":389610,"SoundDuration":389610,"Delta":155536033},{"NoteNumber":74,"Velocity":55,"Duration":292207,"SoundDuration":292207,"Delta":155925643},{"NoteNumber":52,"Velocity":44,"Duration":292207,"SoundDuration":292207,"Delta":155925643},{"NoteNumber":72,"Velocity":57,"Duration":384615,"SoundDuration":384615,"Delta":156699869},{"NoteNumber":77,"Velocity":57,"Duration":384615,"SoundDuration":384615,"Delta":156699869},{"NoteNumber":81,"Velocity":72,"Duration":384615,"SoundDuration":384615,"Delta":156699869},{"NoteNumber":53,"Velocity":58,"Duration":384615,"SoundDuration":384615,"Delta":156699869},{"NoteNumber":45,"Velocity":46,"Duration":384615,"SoundDuration":384615,"Delta":156699869},{"NoteNumber":48,"Velocity":46,"Duration":384615,"SoundDuration":384615,"Delta":156699869},{"NoteNumber":71,"Velocity":66,"Duration":288461,"SoundDuration":288461,"Delta":157084485},{"NoteNumber":56,"Velocity":52,"Duration":288461,"SoundDuration":288461,"Delta":157084485},{"NoteNumber":77,"Velocity":74,"Duration":410958,"SoundDuration":410958,"Delta":157853716},{"NoteNumber":69,"Velocity":58,"Duration":410958,"SoundDuration":410958,"Delta":157853716},{"NoteNumber":72,"Velocity":58,"Duration":410958,"SoundDuration":410958,"Delta":157853716},{"NoteNumber":57,"Velocity":62,"Duration":410958,"SoundDuration":410958,"Delta":157853716},{"NoteNumber":48,"Velocity":49,"Duration":410958,"SoundDuration":410958,"Delta":157853716},{"NoteNumber":53,"Velocity":49,"Duration":410958,"SoundDuration":410958,"Delta":157853716},{"NoteNumber":67,"Velocity":67,"Duration":308219,"SoundDuration":308219,"Delta":158264675},{"NoteNumber":59,"Velocity":56,"Duration":308219,"SoundDuration":308219,"Delta":158264675},{"NoteNumber":69,"Velocity":52,"Duration":3462277,"SoundDuration":3462277,"Delta":159086593},{"NoteNumber":65,"Velocity":63,"Duration":428571,"SoundDuration":428571,"Delta":159086593},{"NoteNumber":72,"Velocity":60,"Duration":3462277,"SoundDuration":3462277,"Delta":159086593},{"NoteNumber":57,"Velocity":47,"Duration":3462277,"SoundDuration":3462277,"Delta":159086593},{"NoteNumber":60,"Velocity":52,"Duration":3462277,"SoundDuration":3462277,"Delta":159086593},{"NoteNumber":53,"Velocity":48,"Duration":3462277,"SoundDuration":3462277,"Delta":159086593},{"NoteNumber":64,"Velocity":69,"Duration":3033706,"SoundDuration":3033706,"Delta":159515164},{"NoteNumber":57,"Velocity":40,"Duration":2222223,"SoundDuration":2222223,"Delta":162548871},{"NoteNumber":71,"Velocity":50,"Duration":2222223,"SoundDuration":2222223,"Delta":162548871},{"NoteNumber":63,"Velocity":40,"Duration":1111111,"SoundDuration":1111111,"Delta":162548871},{"NoteNumber":42,"Velocity":30,"Duration":2222223,"SoundDuration":2222223,"Delta":162548871},{"NoteNumber":54,"Velocity":35,"Duration":2222223,"SoundDuration":2222223,"Delta":162548871},{"NoteNumber":47,"Velocity":30,"Duration":2222223,"SoundDuration":2222223,"Delta":162548871},{"NoteNumber":69,"Velocity":43,"Duration":1111111,"SoundDuration":1111111,"Delta":163659982},{"NoteNumber":59,"Velocity":49,"Duration":1111111,"SoundDuration":1111111,"Delta":164771094},{"NoteNumber":68,"Velocity":47,"Duration":1111111,"SoundDuration":1111111,"Delta":164771094},{"NoteNumber":71,"Velocity":53,"Duration":4837733,"SoundDuration":4837733,"Delta":164771094},{"NoteNumber":35,"Velocity":30,"Duration":2378716,"SoundDuration":2378716,"Delta":164771094},{"NoteNumber":47,"Velocity":38,"Duration":2378716,"SoundDuration":2378716,"Delta":164771094},{"NoteNumber":57,"Velocity":48,"Duration":2743015,"SoundDuration":2743015,"Delta":165882205},{"NoteNumber":66,"Velocity":55,"Duration":2743015,"SoundDuration":2743015,"Delta":165882205},{"NoteNumber":63,"Velocity":49,"Duration":2743015,"SoundDuration":2743015,"Delta":165882205},{"NoteNumber":28,"Velocity":30,"Duration":2950820,"SoundDuration":2950820,"Delta":167149810},{"NoteNumber":40,"Velocity":35,"Duration":2950820,"SoundDuration":2950820,"Delta":167149810},{"NoteNumber":56,"Velocity":39,"Duration":983606,"SoundDuration":983606,"Delta":168625221},{"NoteNumber":64,"Velocity":39,"Duration":983606,"SoundDuration":983606,"Delta":168625221}],"license":{"name":"Creative Commons Attribution-ShareAlike 3.0 Germany","url":"http://creativecommons.org/licenses/by-sa/3.0/de/deed.en","text":"The MIDI files in this folder were downloaded from http://www.piano-midi.de and are licensed under the Creative Commons Attribution-ShareAlike 3.0 Germany license by Bernd Krueger.\n\nThe MIDI, audio(MP3, OGG) and video files of Bernd Krueger are licensed under the cc-by-sa Germany License . This means, that you can use and adapt the files, as long as you attribute to the copyright holder Name: Bernd Krueger Source: http://www.piano-midi.de The distribution or public playback of the files is only allowed under identical license conditions . The scores are open source.","attribution":"Bernd Krueger","attributionUrl":"http://www.piano-midi.de"}}