{"title":"Intermezzo, Op. 117 No. 1 in E-flat major","artist":"Brahms","durationMs":273164,"midiSha256":"4d23f6b79301e2199168efa15e0b8a85dd8fb5ea5c0eb691fa2cf9402e159f8b","midiObject":[{"NoteNumber":70,"Velocity":36,"Duration":689814,"SoundDuration":689814,"Delta":0},{"NoteNumber":39,"Velocity":25,"Duration":689814,"SoundDuration":689814,"Delta":0},{"NoteNumber":63,"Velocity":23,"Duration":1319608,"SoundDuration":1319608,"Delta":689814},{"NoteNumber":75,"Velocity":40,"Duration":1319608,"SoundDuration":1319608,"Delta":689814},{"NoteNumber":51,"Velocity":19,"Duration":1319608,"SoundDuration":1319608,"Delta":689814},{"NoteNumber":55,"Velocity":19,"Duration":1319608,"SoundDuration":1319608,"Delta":689814},{"NoteNumber":74,"Velocity":36,"Duration":674309,"SoundDuration":674309,"Delta":1335114},{"NoteNumber":63,"Velocity":23,"Duration":674309,"SoundDuration":674309,"Delta":2009423},{"NoteNumber":75,"Velocity":23,"Duration":674309,"SoundDuration":674309,"Delta":2009423},{"NoteNumber":72,"Velocity":33,"Duration":674309,"SoundDuration":674309,"Delta":2009423},{"NoteNumber":51,"Velocity":19,"Duration":674309,"SoundDuration":674309,"Delta":2009423},{"NoteNumber":55,"Velocity":19,"Duration":674309,"SoundDuration":674309,"Delta":2009423},{"NoteNumber":63,"Velocity":25,"Duration":1348618,"SoundDuration":1348618,"Delta":2683732},{"NoteNumber":75,"Velocity":25,"Duration":1348618,"SoundDuration":1348618,"Delta":2683732},{"NoteNumber":70,"Velocity":37,"Duration":1348618,"SoundDuration":1348618,"Delta":2683732},{"NoteNumber":51,"Velocity":21,"Duration":1348618,"SoundDuration":1348618,"Delta":2683732},{"NoteNumber":55,"Velocity":21,"Duration":1348618,"SoundDuration":1348618,"Delta":2683732},{"NoteNumber":63,"Velocity":23,"Duration":674309,"SoundDuration":674309,"Delta":4032350},{"NoteNumber":75,"Velocity":23,"Duration":674309,"SoundDuration":674309,"Delta":4032350},{"NoteNumber":68,"Velocity":33,"Duration":337154,"SoundDuration":337154,"Delta":4032350},{"NoteNumber":39,"Velocity":23,"Duration":674309,"SoundDuration":674309,"Delta":4032350},{"NoteNumber":67,"Velocity":31,"Duration":337154,"SoundDuration":337154,"Delta":4369504},{"NoteNumber":75,"Velocity":28,"Duration":1379628,"SoundDuration":1379628,"Delta":4706659},{"NoteNumber":65,"Velocity":36,"Duration":689814,"SoundDuration":689814,"Delta":4706659},{"NoteNumber":51,"Velocity":23,"Duration":1379628,"SoundDuration":1379628,"Delta":4706659},{"NoteNumber":55,"Velocity":23,"Duration":1379628,"SoundDuration":1379628,"Delta":4706659},{"NoteNumber":63,"Velocity":32,"Duration":689814,"SoundDuration":689814,"Delta":5396473},{"NoteNumber":75,"Velocity":24,"Duration":740923,"SoundDuration":740923,"Delta":6086287},{"NoteNumber":67,"Velocity":36,"Duration":740923,"SoundDuration":740923,"Delta":6086287},{"NoteNumber":51,"Velocity":20,"Duration":740923,"SoundDuration":740923,"Delta":6086287},{"NoteNumber":55,"Velocity":20,"Duration":740923,"SoundDuration":740923,"Delta":6086287},{"NoteNumber":63,"Velocity":22,"Duration":1481847,"SoundDuration":1481847,"Delta":6827211},{"NoteNumber":75,"Velocity":22,"Duration":1481847,"SoundDuration":1481847,"Delta":6827211},{"NoteNumber":70,"Velocity":32,"Duration":1481847,"SoundDuration":1481847,"Delta":6827211},{"NoteNumber":51,"Velocity":18,"Duration":1481847,"SoundDuration":1481847,"Delta":6827211},{"NoteNumber":55,"Velocity":18,"Duration":1481847,"SoundDuration":1481847,"Delta":6827211},{"NoteNumber":63,"Velocity":23,"Duration":726866,"SoundDuration":726866,"Delta":8309058},{"NoteNumber":75,"Velocity":23,"Duration":726866,"SoundDuration":726866,"Delta":8309058},{"NoteNumber":72,"Velocity":33,"Duration":337154,"SoundDuration":337154,"Delta":8309058},{"NoteNumber":31,"Velocity":23,"Duration":726866,"SoundDuration":726866,"Delta":8309058},{"NoteNumber":74,"Velocity":31,"Duration":389711,"SoundDuration":389711,"Delta":8646212},{"NoteNumber":63,"Velocity":23,"Duration":1348618,"SoundDuration":1348618,"Delta":9035924},{"NoteNumber":75,"Velocity":40,"Duration":1348618,"SoundDuration":1348618,"Delta":9035924},{"NoteNumber":43,"Velocity":16,"Duration":1348618,"SoundDuration":1348618,"Delta":9035924},{"NoteNumber":51,"Velocity":19,"Duration":1348618,"SoundDuration":1348618,"Delta":9035924},{"NoteNumber":55,"Velocity":19,"Duration":1348618,"SoundDuration":1348618,"Delta":9035924},{"NoteNumber":74,"Velocity":36,"Duration":674308,"SoundDuration":674308,"Delta":9710233},{"NoteNumber":63,"Velocity":23,"Duration":681972,"SoundDuration":681972,"Delta":10384542},{"NoteNumber":75,"Velocity":23,"Duration":681972,"SoundDuration":681972,"Delta":10384542},{"NoteNumber":72,"Velocity":33,"Duration":681972,"SoundDuration":681972,"Delta":10384542},{"NoteNumber":43,"Velocity":16,"Duration":681972,"SoundDuration":681972,"Delta":10384542},{"NoteNumber":51,"Velocity":19,"Duration":681972,"SoundDuration":681972,"Delta":10384542},{"NoteNumber":55,"Velocity":19,"Duration":681972,"SoundDuration":681972,"Delta":10384542},{"NoteNumber":63,"Velocity":25,"Duration":1363946,"SoundDuration":1363946,"Delta":11066515},{"NoteNumber":75,"Velocity":25,"Duration":1363946,"SoundDuration":1363946,"Delta":11066515},{"NoteNumber":70,"Velocity":37,"Duration":1363946,"SoundDuration":1363946,"Delta":11066515},{"NoteNumber":43,"Velocity":17,"Duration":1363946,"SoundDuration":1363946,"Delta":11066515},{"NoteNumber":51,"Velocity":21,"Duration":1363946,"SoundDuration":1363946,"Delta":11066515},{"NoteNumber":55,"Velocity":21,"Duration":1363946,"SoundDuration":1363946,"Delta":11066515},{"NoteNumber":63,"Velocity":23,"Duration":697836,"SoundDuration":697836,"Delta":12430461},{"NoteNumber":75,"Velocity":23,"Duration":697836,"SoundDuration":697836,"Delta":12430461},{"NoteNumber":68,"Velocity":33,"Duration":348918,"SoundDuration":348918,"Delta":12430461},{"NoteNumber":34,"Velocity":23,"Duration":697836,"SoundDuration":697836,"Delta":12430461},{"NoteNumber":67,"Velocity":31,"Duration":348918,"SoundDuration":348918,"Delta":12779379},{"NoteNumber":75,"Velocity":28,"Duration":1361279,"SoundDuration":1361279,"Delta":13128297},{"NoteNumber":70,"Velocity":36,"Duration":674308,"SoundDuration":674308,"Delta":13128297},{"NoteNumber":46,"Velocity":23,"Duration":1361279,"SoundDuration":1361279,"Delta":13128297},{"NoteNumber":55,"Velocity":23,"Duration":1361279,"SoundDuration":1361279,"Delta":13128297},{"NoteNumber":63,"Velocity":32,"Duration":686970,"SoundDuration":686970,"Delta":13802606},{"NoteNumber":67,"Velocity":25,"Duration":164871,"SoundDuration":164871,"Delta":14324705},{"NoteNumber":74,"Velocity":21,"Duration":740923,"SoundDuration":740923,"Delta":14489577},{"NoteNumber":65,"Velocity":32,"Duration":740923,"SoundDuration":740923,"Delta":14489577},{"NoteNumber":46,"Velocity":18,"Duration":740923,"SoundDuration":740923,"Delta":14489577},{"NoteNumber":56,"Velocity":18,"Duration":740923,"SoundDuration":740923,"Delta":14489577},{"NoteNumber":63,"Velocity":20,"Duration":1071684,"SoundDuration":1071684,"Delta":15230500},{"NoteNumber":75,"Velocity":20,"Duration":1412670,"SoundDuration":1412670,"Delta":15230500},{"NoteNumber":51,"Velocity":16,"Duration":1412670,"SoundDuration":1412670,"Delta":15230500},{"NoteNumber":55,"Velocity":16,"Duration":1412670,"SoundDuration":1412670,"Delta":15230500},{"NoteNumber":67,"Velocity":20,"Duration":340986,"SoundDuration":340986,"Delta":16302184},{"NoteNumber":70,"Velocity":23,"Duration":329742,"SoundDuration":329742,"Delta":16643171},{"NoteNumber":39,"Velocity":23,"Duration":691275,"SoundDuration":691275,"Delta":16643171},{"NoteNumber":79,"Velocity":23,"Duration":361533,"SoundDuration":361533,"Delta":16972914},{"NoteNumber":80,"Velocity":26,"Duration":1363945,"SoundDuration":1363945,"Delta":17334447},{"NoteNumber":68,"Velocity":23,"Duration":1363945,"SoundDuration":1363945,"Delta":17334447},{"NoteNumber":77,"Velocity":40,"Duration":681972,"SoundDuration":681972,"Delta":17334447},{"NoteNumber":51,"Velocity":19,"Duration":1363945,"SoundDuration":1363945,"Delta":17334447},{"NoteNumber":60,"Velocity":19,"Duration":1363945,"SoundDuration":1363945,"Delta":17334447},{"NoteNumber":72,"Velocity":30,"Duration":681972,"SoundDuration":681972,"Delta":18016420},{"NoteNumber":74,"Velocity":33,"Duration":723065,"SoundDuration":723065,"Delta":18698393},{"NoteNumber":65,"Velocity":23,"Duration":723065,"SoundDuration":723065,"Delta":18698393},{"NoteNumber":77,"Velocity":23,"Duration":723065,"SoundDuration":723065,"Delta":18698393},{"NoteNumber":51,"Velocity":19,"Duration":723065,"SoundDuration":723065,"Delta":18698393},{"NoteNumber":56,"Velocity":19,"Duration":723065,"SoundDuration":723065,"Delta":18698393},{"NoteNumber":67,"Velocity":25,"Duration":1425585,"SoundDuration":1425585,"Delta":19421459},{"NoteNumber":79,"Velocity":25,"Duration":1425585,"SoundDuration":1425585,"Delta":19421459},{"NoteNumber":70,"Velocity":37,"Duration":1425585,"SoundDuration":1425585,"Delta":19421459},{"NoteNumber":51,"Velocity":21,"Duration":1425585,"SoundDuration":1425585,"Delta":19421459},{"NoteNumber":58,"Velocity":21,"Duration":1425585,"SoundDuration":1425585,"Delta":19421459},{"NoteNumber":75,"Velocity":23,"Duration":340986,"SoundDuration":340986,"Delta":20506058},{"NoteNumber":70,"Velocity":23,"Duration":681972,"SoundDuration":681972,"Delta":20847044},{"NoteNumber":82,"Velocity":26,"Duration":681972,"SoundDuration":681972,"Delta":20847044},{"NoteNumber":79,"Velocity":34,"Duration":340986,"SoundDuration":340986,"Delta":20847044},{"NoteNumber":39,"Velocity":23,"Duration":681972,"SoundDuration":681972,"Delta":20847044},{"NoteNumber":75,"Velocity":35,"Duration":340986,"SoundDuration":340986,"Delta":21188031},{"NoteNumber":80,"Velocity":26,"Duration":1333794,"SoundDuration":1333794,"Delta":21529017},{"NoteNumber":68,"Velocity":23,"Duration":1333794,"SoundDuration":1333794,"Delta":21529017},{"NoteNumber":77,"Velocity":40,"Duration":659485,"SoundDuration":659485,"Delta":21529017},{"NoteNumber":51,"Velocity":19,"Duration":1333794,"SoundDuration":1333794,"Delta":21529017},{"NoteNumber":60,"Velocity":19,"Duration":1333794,"SoundDuration":1333794,"Delta":21529017},{"NoteNumber":72,"Velocity":33,"Duration":674309,"SoundDuration":674309,"Delta":22188503},{"NoteNumber":74,"Velocity":33,"Duration":723065,"SoundDuration":723065,"Delta":22862812},{"NoteNumber":65,"Velocity":23,"Duration":723065,"SoundDuration":723065,"Delta":22862812},{"NoteNumber":77,"Velocity":23,"Duration":723065,"SoundDuration":723065,"Delta":22862812},{"NoteNumber":51,"Velocity":19,"Duration":723065,"SoundDuration":723065,"Delta":22862812},{"NoteNumber":56,"Velocity":19,"Duration":723065,"SoundDuration":723065,"Delta":22862812},{"NoteNumber":67,"Velocity":23,"Duration":1420902,"SoundDuration":1420902,"Delta":23585878},{"NoteNumber":79,"Velocity":23,"Duration":1420902,"SoundDuration":1420902,"Delta":23585878},{"NoteNumber":75,"Velocity":40,"Duration":723065,"SoundDuration":723065,"Delta":23585878},{"NoteNumber":51,"Velocity":19,"Duration":1420902,"SoundDuration":1420902,"Delta":23585878},{"NoteNumber":58,"Velocity":19,"Duration":1420902,"SoundDuration":1420902,"Delta":23585878},{"NoteNumber":70,"Velocity":36,"Duration":697836,"SoundDuration":697836,"Delta":24308944},{"NoteNumber":75,"Velocity":28,"Duration":681972,"SoundDuration":681972,"Delta":25006780},{"NoteNumber":72,"Velocity":40,"Duration":681972,"SoundDuration":681972,"Delta":25006780},{"NoteNumber":67,"Velocity":28,"Duration":681972,"SoundDuration":681972,"Delta":25006780},{"NoteNumber":39,"Velocity":29,"Duration":681972,"SoundDuration":681972,"Delta":25006780},{"NoteNumber":51,"Velocity":29,"Duration":681972,"SoundDuration":681972,"Delta":25006780},{"NoteNumber":77,"Velocity":37,"Duration":1363946,"SoundDuration":1363946,"Delta":25688753},{"NoteNumber":74,"Velocity":43,"Duration":1363946,"SoundDuration":1363946,"Delta":25688753},{"NoteNumber":65,"Velocity":37,"Duration":1363946,"SoundDuration":1363946,"Delta":25688753},{"NoteNumber":58,"Velocity":30,"Duration":681972,"SoundDuration":681972,"Delta":25688753},{"NoteNumber":46,"Velocity":25,"Duration":681972,"SoundDuration":681972,"Delta":25688753},{"NoteNumber":57,"Velocity":35,"Duration":681973,"SoundDuration":681973,"Delta":26370726},{"NoteNumber":45,"Velocity":29,"Duration":681973,"SoundDuration":681973,"Delta":26370726},{"NoteNumber":82,"Velocity":53,"Duration":1428912,"SoundDuration":1428912,"Delta":27052699},{"NoteNumber":74,"Velocity":45,"Duration":1428912,"SoundDuration":1428912,"Delta":27052699},{"NoteNumber":70,"Velocity":45,"Duration":1428912,"SoundDuration":1428912,"Delta":27052699},{"NoteNumber":55,"Velocity":39,"Duration":714455,"SoundDuration":714455,"Delta":27052699},{"NoteNumber":43,"Velocity":32,"Duration":714455,"SoundDuration":714455,"Delta":27052699},{"NoteNumber":53,"Velocity":39,"Duration":1428912,"SoundDuration":1428912,"Delta":27767155},{"NoteNumber":41,"Velocity":32,"Duration":1428912,"SoundDuration":1428912,"Delta":27767155},{"NoteNumber":74,"Velocity":50,"Duration":714455,"SoundDuration":714455,"Delta":28481611},{"NoteNumber":70,"Velocity":43,"Duration":714455,"SoundDuration":714455,"Delta":28481611},{"NoteNumber":70,"Velocity":42,"Duration":707616,"SoundDuration":707616,"Delta":29196067},{"NoteNumber":77,"Velocity":42,"Duration":707616,"SoundDuration":707616,"Delta":29196067},{"NoteNumber":81,"Velocity":50,"Duration":707616,"SoundDuration":707616,"Delta":29196067},{"NoteNumber":51,"Velocity":42,"Duration":337154,"SoundDuration":337154,"Delta":29196067},{"NoteNumber":39,"Velocity":36,"Duration":337154,"SoundDuration":337154,"Delta":29196067},{"NoteNumber":38,"Velocity":37,"Duration":370461,"SoundDuration":370461,"Delta":29533222},{"NoteNumber":50,"Velocity":42,"Duration":370461,"SoundDuration":370461,"Delta":29533222},{"NoteNumber":70,"Velocity":41,"Duration":689813,"SoundDuration":689813,"Delta":29903683},{"NoteNumber":75,"Velocity":41,"Duration":689813,"SoundDuration":689813,"Delta":29903683},{"NoteNumber":79,"Velocity":51,"Duration":689813,"SoundDuration":689813,"Delta":29903683},{"NoteNumber":53,"Velocity":41,"Duration":1379627,"SoundDuration":1379627,"Delta":29903683},{"NoteNumber":41,"Velocity":36,"Duration":1379627,"SoundDuration":1379627,"Delta":29903683},{"NoteNumber":77,"Velocity":43,"Duration":689813,"SoundDuration":689813,"Delta":30593497},{"NoteNumber":74,"Velocity":36,"Duration":689813,"SoundDuration":689813,"Delta":30593497},{"NoteNumber":69,"Velocity":36,"Duration":689813,"SoundDuration":689813,"Delta":30593497},{"NoteNumber":75,"Velocity":35,"Duration":348918,"SoundDuration":348918,"Delta":31283311},{"NoteNumber":72,"Velocity":28,"Duration":348918,"SoundDuration":348918,"Delta":31283311},{"NoteNumber":67,"Velocity":28,"Duration":348918,"SoundDuration":348918,"Delta":31283311},{"NoteNumber":46,"Velocity":23,"Duration":743758,"SoundDuration":743758,"Delta":31283311},{"NoteNumber":34,"Velocity":19,"Duration":743758,"SoundDuration":743758,"Delta":31283311},{"NoteNumber":65,"Velocity":25,"Duration":246775,"SoundDuration":246775,"Delta":31632229},{"NoteNumber":70,"Velocity":25,"Duration":246775,"SoundDuration":246775,"Delta":31632229},{"NoteNumber":74,"Velocity":30,"Duration":246775,"SoundDuration":246775,"Delta":31632229},{"NoteNumber":63,"Velocity":20,"Duration":854113,"SoundDuration":854113,"Delta":31879005},{"NoteNumber":68,"Velocity":24,"Duration":1584181,"SoundDuration":1584181,"Delta":31928360},{"NoteNumber":72,"Velocity":26,"Duration":755403,"SoundDuration":755403,"Delta":31977715},{"NoteNumber":77,"Velocity":34,"Duration":706048,"SoundDuration":706048,"Delta":32027070},{"NoteNumber":46,"Velocity":27,"Duration":1485471,"SoundDuration":1485471,"Delta":32027070},{"NoteNumber":34,"Velocity":22,"Duration":1485471,"SoundDuration":1485471,"Delta":32027070},{"NoteNumber":70,"Velocity":33,"Duration":779423,"SoundDuration":779423,"Delta":32733119},{"NoteNumber":62,"Velocity":28,"Duration":779423,"SoundDuration":779423,"Delta":32733119},{"NoteNumber":72,"Velocity":30,"Duration":442608,"SoundDuration":442608,"Delta":33512542},{"NoteNumber":63,"Velocity":25,"Duration":442608,"SoundDuration":442608,"Delta":33512542},{"NoteNumber":60,"Velocity":25,"Duration":442608,"SoundDuration":442608,"Delta":33512542},{"NoteNumber":56,"Velocity":23,"Duration":716431,"SoundDuration":716431,"Delta":33512542},{"NoteNumber":46,"Velocity":19,"Duration":716431,"SoundDuration":716431,"Delta":33512542},{"NoteNumber":70,"Velocity":30,"Duration":547645,"SoundDuration":547645,"Delta":33955150},{"NoteNumber":65,"Velocity":25,"Duration":547645,"SoundDuration":547645,"Delta":33955150},{"NoteNumber":62,"Velocity":25,"Duration":547645,"SoundDuration":547645,"Delta":33955150},{"NoteNumber":39,"Velocity":19,"Duration":1639535,"SoundDuration":1639535,"Delta":34228973},{"NoteNumber":63,"Velocity":23,"Duration":1365712,"SoundDuration":1365712,"Delta":34502795},{"NoteNumber":75,"Velocity":40,"Duration":1365712,"SoundDuration":1365712,"Delta":34502795},{"NoteNumber":55,"Velocity":19,"Duration":1365712,"SoundDuration":1365712,"Delta":34502795},{"NoteNumber":74,"Velocity":34,"Duration":674309,"SoundDuration":674309,"Delta":35194199},{"NoteNumber":63,"Velocity":23,"Duration":674309,"SoundDuration":674309,"Delta":35868508},{"NoteNumber":75,"Velocity":23,"Duration":674309,"SoundDuration":674309,"Delta":35868508},{"NoteNumber":72,"Velocity":33,"Duration":674309,"SoundDuration":674309,"Delta":35868508},{"NoteNumber":51,"Velocity":19,"Duration":674309,"SoundDuration":674309,"Delta":35868508},{"NoteNumber":55,"Velocity":19,"Duration":674309,"SoundDuration":674309,"Delta":35868508},{"NoteNumber":63,"Velocity":25,"Duration":1348618,"SoundDuration":1348618,"Delta":36542817},{"NoteNumber":75,"Velocity":25,"Duration":1348618,"SoundDuration":1348618,"Delta":36542817},{"NoteNumber":70,"Velocity":37,"Duration":1348618,"SoundDuration":1348618,"Delta":36542817},{"NoteNumber":51,"Velocity":21,"Duration":1348618,"SoundDuration":1348618,"Delta":36542817},{"NoteNumber":55,"Velocity":21,"Duration":1348618,"SoundDuration":1348618,"Delta":36542817},{"NoteNumber":63,"Velocity":23,"Duration":674308,"SoundDuration":674308,"Delta":37891435},{"NoteNumber":75,"Velocity":23,"Duration":674308,"SoundDuration":674308,"Delta":37891435},{"NoteNumber":68,"Velocity":33,"Duration":337154,"SoundDuration":337154,"Delta":37891435},{"NoteNumber":39,"Velocity":23,"Duration":674308,"SoundDuration":674308,"Delta":37891435},{"NoteNumber":67,"Velocity":31,"Duration":337154,"SoundDuration":337154,"Delta":38228589},{"NoteNumber":75,"Velocity":28,"Duration":1379627,"SoundDuration":1379627,"Delta":38565744},{"NoteNumber":65,"Velocity":36,"Duration":689813,"SoundDuration":689813,"Delta":38565744},{"NoteNumber":51,"Velocity":23,"Duration":1379627,"SoundDuration":1379627,"Delta":38565744},{"NoteNumber":55,"Velocity":23,"Duration":1379627,"SoundDuration":1379627,"Delta":38565744},{"NoteNumber":63,"Velocity":32,"Duration":689813,"SoundDuration":689813,"Delta":39255558},{"NoteNumber":75,"Velocity":24,"Duration":740923,"SoundDuration":740923,"Delta":39945372},{"NoteNumber":67,"Velocity":36,"Duration":740923,"SoundDuration":740923,"Delta":39945372},{"NoteNumber":51,"Velocity":20,"Duration":740923,"SoundDuration":740923,"Delta":39945372},{"NoteNumber":55,"Velocity":20,"Duration":740923,"SoundDuration":740923,"Delta":39945372},{"NoteNumber":63,"Velocity":22,"Duration":1481847,"SoundDuration":1481847,"Delta":40686295},{"NoteNumber":75,"Velocity":22,"Duration":1481847,"SoundDuration":1481847,"Delta":40686295},{"NoteNumber":70,"Velocity":32,"Duration":1481847,"SoundDuration":1481847,"Delta":40686295},{"NoteNumber":51,"Velocity":18,"Duration":1481847,"SoundDuration":1481847,"Delta":40686295},{"NoteNumber":55,"Velocity":18,"Duration":1481847,"SoundDuration":1481847,"Delta":40686295},{"NoteNumber":63,"Velocity":23,"Duration":726865,"SoundDuration":726865,"Delta":42168142},{"NoteNumber":75,"Velocity":23,"Duration":726865,"SoundDuration":726865,"Delta":42168142},{"NoteNumber":72,"Velocity":33,"Duration":337154,"SoundDuration":337154,"Delta":42168142},{"NoteNumber":36,"Velocity":23,"Duration":726865,"SoundDuration":726865,"Delta":42168142},{"NoteNumber":74,"Velocity":31,"Duration":389711,"SoundDuration":389711,"Delta":42505297},{"NoteNumber":63,"Velocity":23,"Duration":1348618,"SoundDuration":1348618,"Delta":42895008},{"NoteNumber":75,"Velocity":40,"Duration":1348618,"SoundDuration":1348618,"Delta":42895008},{"NoteNumber":48,"Velocity":16,"Duration":1348618,"SoundDuration":1348618,"Delta":42895008},{"NoteNumber":55,"Velocity":19,"Duration":1348618,"SoundDuration":1348618,"Delta":42895008},{"NoteNumber":74,"Velocity":33,"Duration":674309,"SoundDuration":674309,"Delta":43569317},{"NoteNumber":63,"Velocity":23,"Duration":681972,"SoundDuration":681972,"Delta":44243626},{"NoteNumber":75,"Velocity":23,"Duration":681972,"SoundDuration":681972,"Delta":44243626},{"NoteNumber":72,"Velocity":33,"Duration":681972,"SoundDuration":681972,"Delta":44243626},{"NoteNumber":48,"Velocity":16,"Duration":681972,"SoundDuration":681972,"Delta":44243626},{"NoteNumber":55,"Velocity":19,"Duration":681972,"SoundDuration":681972,"Delta":44243626},{"NoteNumber":63,"Velocity":25,"Duration":1363945,"SoundDuration":1363945,"Delta":44925599},{"NoteNumber":75,"Velocity":25,"Duration":1363945,"SoundDuration":1363945,"Delta":44925599},{"NoteNumber":70,"Velocity":37,"Duration":1363945,"SoundDuration":1363945,"Delta":44925599},{"NoteNumber":48,"Velocity":17,"Duration":1363945,"SoundDuration":1363945,"Delta":44925599},{"NoteNumber":55,"Velocity":21,"Duration":1363945,"SoundDuration":1363945,"Delta":44925599},{"NoteNumber":63,"Velocity":23,"Duration":697836,"SoundDuration":697836,"Delta":46289545},{"NoteNumber":75,"Velocity":23,"Duration":697836,"SoundDuration":697836,"Delta":46289545},{"NoteNumber":69,"Velocity":33,"Duration":348918,"SoundDuration":348918,"Delta":46289545},{"NoteNumber":41,"Velocity":23,"Duration":697836,"SoundDuration":697836,"Delta":46289545},{"NoteNumber":67,"Velocity":31,"Duration":348918,"SoundDuration":348918,"Delta":46638464},{"NoteNumber":65,"Velocity":23,"Duration":1361279,"SoundDuration":1361279,"Delta":46987382},{"NoteNumber":75,"Velocity":28,"Duration":1361279,"SoundDuration":1361279,"Delta":46987382},{"NoteNumber":69,"Velocity":36,"Duration":674309,"SoundDuration":674309,"Delta":46987382},{"NoteNumber":53,"Velocity":23,"Duration":1361279,"SoundDuration":1361279,"Delta":46987382},{"NoteNumber":60,"Velocity":23,"Duration":1361279,"SoundDuration":1361279,"Delta":46987382},{"NoteNumber":70,"Velocity":32,"Duration":686970,"SoundDuration":686970,"Delta":47661691},{"NoteNumber":65,"Velocity":19,"Duration":740923,"SoundDuration":740923,"Delta":48348662},{"NoteNumber":75,"Velocity":24,"Duration":740923,"SoundDuration":740923,"Delta":48348662},{"NoteNumber":72,"Velocity":36,"Duration":740923,"SoundDuration":740923,"Delta":48348662},{"NoteNumber":53,"Velocity":20,"Duration":740923,"SoundDuration":740923,"Delta":48348662},{"NoteNumber":57,"Velocity":20,"Duration":740923,"SoundDuration":740923,"Delta":48348662},{"NoteNumber":75,"Velocity":42,"Duration":1071683,"SoundDuration":1071683,"Delta":49089585},{"NoteNumber":70,"Velocity":26,"Duration":1071683,"SoundDuration":1071683,"Delta":49089585},{"NoteNumber":65,"Velocity":26,"Duration":1071683,"SoundDuration":1071683,"Delta":49089585},{"NoteNumber":77,"Velocity":26,"Duration":1412670,"SoundDuration":1412670,"Delta":49089585},{"NoteNumber":46,"Velocity":20,"Duration":1412670,"SoundDuration":1412670,"Delta":49089585},{"NoteNumber":58,"Velocity":20,"Duration":1412670,"SoundDuration":1412670,"Delta":49089585},{"NoteNumber":74,"Velocity":35,"Duration":340986,"SoundDuration":340986,"Delta":50161269},{"NoteNumber":82,"Velocity":38,"Duration":691275,"SoundDuration":691275,"Delta":50502256},{"NoteNumber":72,"Velocity":29,"Duration":329742,"SoundDuration":329742,"Delta":50502256},{"NoteNumber":62,"Velocity":16,"Duration":510509,"SoundDuration":510509,"Delta":50502256},{"NoteNumber":58,"Velocity":16,"Duration":510509,"SoundDuration":510509,"Delta":50502256},{"NoteNumber":68,"Velocity":19,"Duration":510509,"SoundDuration":510509,"Delta":50502256},{"NoteNumber":70,"Velocity":23,"Duration":361533,"SoundDuration":361533,"Delta":50831998},{"NoteNumber":51,"Velocity":19,"Duration":1331798,"SoundDuration":1331798,"Delta":51012765},{"NoteNumber":58,"Velocity":19,"Duration":1241415,"SoundDuration":1241415,"Delta":51103148},{"NoteNumber":75,"Velocity":23,"Duration":1319608,"SoundDuration":1319608,"Delta":51193531},{"NoteNumber":87,"Velocity":40,"Duration":1319608,"SoundDuration":1319608,"Delta":51193531},{"NoteNumber":67,"Velocity":19,"Duration":1151031,"SoundDuration":1151031,"Delta":51193531},{"NoteNumber":86,"Velocity":36,"Duration":674309,"SoundDuration":674309,"Delta":51838831},{"NoteNumber":51,"Velocity":19,"Duration":1473208,"SoundDuration":1473208,"Delta":52344563},{"NoteNumber":58,"Velocity":19,"Duration":1388919,"SoundDuration":1388919,"Delta":52428852},{"NoteNumber":75,"Velocity":23,"Duration":652315,"SoundDuration":652315,"Delta":52513140},{"NoteNumber":87,"Velocity":23,"Duration":1304631,"SoundDuration":1304631,"Delta":52513140},{"NoteNumber":84,"Velocity":33,"Duration":652315,"SoundDuration":652315,"Delta":52513140},{"NoteNumber":67,"Velocity":19,"Duration":1304631,"SoundDuration":1304631,"Delta":52513140},{"NoteNumber":74,"Velocity":34,"Duration":652315,"SoundDuration":652315,"Delta":53165456},{"NoteNumber":82,"Velocity":40,"Duration":652315,"SoundDuration":652315,"Delta":53165456},{"NoteNumber":75,"Velocity":23,"Duration":1304631,"SoundDuration":1304631,"Delta":53817771},{"NoteNumber":72,"Velocity":30,"Duration":652315,"SoundDuration":652315,"Delta":53817771},{"NoteNumber":80,"Velocity":36,"Duration":652315,"SoundDuration":652315,"Delta":53817771},{"NoteNumber":51,"Velocity":16,"Duration":1304631,"SoundDuration":1304631,"Delta":53817771},{"NoteNumber":58,"Velocity":19,"Duration":1304631,"SoundDuration":1304631,"Delta":53817771},{"NoteNumber":70,"Velocity":26,"Duration":652315,"SoundDuration":652315,"Delta":54470087},{"NoteNumber":79,"Velocity":31,"Duration":652315,"SoundDuration":652315,"Delta":54470087},{"NoteNumber":68,"Velocity":24,"Duration":645299,"SoundDuration":645299,"Delta":55122402},{"NoteNumber":75,"Velocity":24,"Duration":645299,"SoundDuration":645299,"Delta":55122402},{"NoteNumber":77,"Velocity":33,"Duration":645299,"SoundDuration":645299,"Delta":55122402},{"NoteNumber":51,"Velocity":16,"Duration":1294107,"SoundDuration":1294107,"Delta":55122402},{"NoteNumber":58,"Velocity":19,"Duration":1294107,"SoundDuration":1294107,"Delta":55122402},{"NoteNumber":67,"Velocity":24,"Duration":326157,"SoundDuration":326157,"Delta":55767702},{"NoteNumber":75,"Velocity":29,"Duration":648807,"SoundDuration":648807,"Delta":55767702},{"NoteNumber":65,"Velocity":20,"Duration":322650,"SoundDuration":322650,"Delta":56093860},{"NoteNumber":63,"Velocity":19,"Duration":322649,"SoundDuration":322649,"Delta":56416510},{"NoteNumber":72,"Velocity":27,"Duration":645299,"SoundDuration":645299,"Delta":56416510},{"NoteNumber":51,"Velocity":16,"Duration":1304785,"SoundDuration":1304785,"Delta":56416510},{"NoteNumber":55,"Velocity":19,"Duration":1304785,"SoundDuration":1304785,"Delta":56416510},{"NoteNumber":67,"Velocity":22,"Duration":322650,"SoundDuration":322650,"Delta":56739160},{"NoteNumber":70,"Velocity":32,"Duration":1355483,"SoundDuration":1355483,"Delta":57136002},{"NoteNumber":43,"Velocity":16,"Duration":1458113,"SoundDuration":1458113,"Delta":57721296},{"NoteNumber":51,"Velocity":16,"Duration":1458113,"SoundDuration":1458113,"Delta":57721296},{"NoteNumber":55,"Velocity":19,"Duration":1458113,"SoundDuration":1458113,"Delta":57721296},{"NoteNumber":63,"Velocity":23,"Duration":768299,"SoundDuration":768299,"Delta":58411110},{"NoteNumber":72,"Velocity":33,"Duration":357227,"SoundDuration":357227,"Delta":58411110},{"NoteNumber":74,"Velocity":31,"Duration":411071,"SoundDuration":411071,"Delta":58768338},{"NoteNumber":63,"Velocity":23,"Duration":1395673,"SoundDuration":1395673,"Delta":59179409},{"NoteNumber":75,"Velocity":40,"Duration":1395673,"SoundDuration":1395673,"Delta":59179409},{"NoteNumber":45,"Velocity":16,"Duration":1395673,"SoundDuration":1395673,"Delta":59179409},{"NoteNumber":51,"Velocity":19,"Duration":1395673,"SoundDuration":1395673,"Delta":59179409},{"NoteNumber":55,"Velocity":19,"Duration":1395673,"SoundDuration":1395673,"Delta":59179409},{"NoteNumber":74,"Velocity":35,"Duration":697836,"SoundDuration":697836,"Delta":59877246},{"NoteNumber":63,"Velocity":23,"Duration":714455,"SoundDuration":714455,"Delta":60575082},{"NoteNumber":75,"Velocity":23,"Duration":714455,"SoundDuration":714455,"Delta":60575082},{"NoteNumber":72,"Velocity":33,"Duration":714455,"SoundDuration":714455,"Delta":60575082},{"NoteNumber":46,"Velocity":16,"Duration":1428911,"SoundDuration":1428911,"Delta":60575082},{"NoteNumber":51,"Velocity":19,"Duration":1428911,"SoundDuration":1428911,"Delta":60575082},{"NoteNumber":55,"Velocity":19,"Duration":1428911,"SoundDuration":1428911,"Delta":60575082},{"NoteNumber":70,"Velocity":37,"Duration":1428911,"SoundDuration":1428911,"Delta":61289538},{"NoteNumber":63,"Velocity":23,"Duration":1483884,"SoundDuration":1483884,"Delta":62003994},{"NoteNumber":75,"Velocity":23,"Duration":1483884,"SoundDuration":1483884,"Delta":62003994},{"NoteNumber":48,"Velocity":17,"Duration":1483884,"SoundDuration":1483884,"Delta":62003994},{"NoteNumber":51,"Velocity":21,"Duration":1483884,"SoundDuration":1483884,"Delta":62003994},{"NoteNumber":55,"Velocity":21,"Duration":1483884,"SoundDuration":1483884,"Delta":62003994},{"NoteNumber":68,"Velocity":33,"Duration":384714,"SoundDuration":384714,"Delta":62718450},{"NoteNumber":67,"Velocity":31,"Duration":384714,"SoundDuration":384714,"Delta":63103164},{"NoteNumber":75,"Velocity":28,"Duration":1504599,"SoundDuration":1504599,"Delta":63487878},{"NoteNumber":70,"Velocity":36,"Duration":723066,"SoundDuration":723066,"Delta":63487878},{"NoteNumber":46,"Velocity":23,"Duration":1504599,"SoundDuration":1504599,"Delta":63487878},{"NoteNumber":55,"Velocity":23,"Duration":1504599,"SoundDuration":1504599,"Delta":63487878},{"NoteNumber":63,"Velocity":32,"Duration":781533,"SoundDuration":781533,"Delta":64210944},{"NoteNumber":67,"Velocity":25,"Duration":185230,"SoundDuration":185230,"Delta":64807247},{"NoteNumber":74,"Velocity":21,"Duration":833565,"SoundDuration":833565,"Delta":64992478},{"NoteNumber":65,"Velocity":32,"Duration":833565,"SoundDuration":833565,"Delta":64992478},{"NoteNumber":46,"Velocity":18,"Duration":833565,"SoundDuration":833565,"Delta":64992478},{"NoteNumber":56,"Velocity":18,"Duration":833565,"SoundDuration":833565,"Delta":64992478},{"NoteNumber":63,"Velocity":20,"Duration":1714776,"SoundDuration":1714776,"Delta":65826043},{"NoteNumber":75,"Velocity":20,"Duration":1714776,"SoundDuration":1714776,"Delta":65826043},{"NoteNumber":51,"Velocity":16,"Duration":1714776,"SoundDuration":1714776,"Delta":65826043},{"NoteNumber":55,"Velocity":16,"Duration":1714776,"SoundDuration":1714776,"Delta":65826043},{"NoteNumber":76,"Velocity":33,"Duration":385703,"SoundDuration":385703,"Delta":67540819},{"NoteNumber":64,"Velocity":28,"Duration":385703,"SoundDuration":385703,"Delta":67540819},{"NoteNumber":40,"Velocity":19,"Duration":385703,"SoundDuration":385703,"Delta":67540819},{"NoteNumber":52,"Velocity":23,"Duration":385703,"SoundDuration":385703,"Delta":67540819},{"NoteNumber":78,"Velocity":36,"Duration":436173,"SoundDuration":436173,"Delta":67926522},{"NoteNumber":66,"Velocity":30,"Duration":436173,"SoundDuration":436173,"Delta":67926522},{"NoteNumber":42,"Velocity":21,"Duration":436173,"SoundDuration":436173,"Delta":67926522},{"NoteNumber":54,"Velocity":25,"Duration":436173,"SoundDuration":436173,"Delta":67926522},{"NoteNumber":68,"Velocity":34,"Duration":791765,"SoundDuration":791765,"Delta":68362695},{"NoteNumber":80,"Velocity":40,"Duration":791765,"SoundDuration":791765,"Delta":68362695},{"NoteNumber":44,"Velocity":23,"Duration":791765,"SoundDuration":791765,"Delta":68362695},{"NoteNumber":56,"Velocity":28,"Duration":791765,"SoundDuration":791765,"Delta":68362695},{"NoteNumber":78,"Velocity":35,"Duration":791765,"SoundDuration":791765,"Delta":69154461},{"NoteNumber":66,"Velocity":29,"Duration":791765,"SoundDuration":791765,"Delta":69154461},{"NoteNumber":42,"Velocity":20,"Duration":791765,"SoundDuration":791765,"Delta":69154461},{"NoteNumber":54,"Velocity":24,"Duration":791765,"SoundDuration":791765,"Delta":69154461},{"NoteNumber":76,"Velocity":25,"Duration":835887,"SoundDuration":835887,"Delta":69946226},{"NoteNumber":64,"Velocity":21,"Duration":835887,"SoundDuration":835887,"Delta":69946226},{"NoteNumber":40,"Velocity":14,"Duration":835887,"SoundDuration":835887,"Delta":69946226},{"NoteNumber":52,"Velocity":17,"Duration":835887,"SoundDuration":835887,"Delta":69946226},{"NoteNumber":75,"Velocity":25,"Duration":1671774,"SoundDuration":1671774,"Delta":70782114},{"NoteNumber":63,"Velocity":21,"Duration":1671774,"SoundDuration":1671774,"Delta":70782114},{"NoteNumber":39,"Velocity":14,"Duration":1671774,"SoundDuration":1671774,"Delta":70782114},{"NoteNumber":51,"Velocity":17,"Duration":1671774,"SoundDuration":1671774,"Delta":70782114},{"NoteNumber":63,"Velocity":27,"Duration":845118,"SoundDuration":845118,"Delta":72453889},{"NoteNumber":61,"Velocity":22,"Duration":845118,"SoundDuration":845118,"Delta":72453889},{"NoteNumber":51,"Velocity":22,"Duration":845118,"SoundDuration":845118,"Delta":72453889},{"NoteNumber":37,"Velocity":19,"Duration":395882,"SoundDuration":395882,"Delta":72453889},{"NoteNumber":49,"Velocity":23,"Duration":395882,"SoundDuration":395882,"Delta":72453889},{"NoteNumber":35,"Velocity":21,"Duration":449236,"SoundDuration":449236,"Delta":72849771},{"NoteNumber":47,"Velocity":25,"Duration":449236,"SoundDuration":449236,"Delta":72849771},{"NoteNumber":51,"Velocity":27,"Duration":1562906,"SoundDuration":1562906,"Delta":73299008},{"NoteNumber":59,"Velocity":27,"Duration":1562906,"SoundDuration":1562906,"Delta":73299008},{"NoteNumber":63,"Velocity":32,"Duration":1562906,"SoundDuration":1562906,"Delta":73299008},{"NoteNumber":34,"Velocity":23,"Duration":781453,"SoundDuration":781453,"Delta":73299008},{"NoteNumber":46,"Velocity":28,"Duration":781453,"SoundDuration":781453,"Delta":73299008},{"NoteNumber":32,"Velocity":20,"Duration":781453,"SoundDuration":781453,"Delta":74080461},{"NoteNumber":44,"Velocity":24,"Duration":781453,"SoundDuration":781453,"Delta":74080461},{"NoteNumber":63,"Velocity":23,"Duration":872346,"SoundDuration":872346,"Delta":74861915},{"NoteNumber":56,"Velocity":19,"Duration":872346,"SoundDuration":872346,"Delta":74861915},{"NoteNumber":51,"Velocity":19,"Duration":872346,"SoundDuration":872346,"Delta":74861915},{"NoteNumber":35,"Velocity":16,"Duration":872346,"SoundDuration":872346,"Delta":74861915},{"NoteNumber":47,"Velocity":20,"Duration":872346,"SoundDuration":872346,"Delta":74861915},{"NoteNumber":63,"Velocity":23,"Duration":1648804,"SoundDuration":1648804,"Delta":75734261},{"NoteNumber":51,"Velocity":19,"Duration":1648804,"SoundDuration":1648804,"Delta":75734261},{"NoteNumber":39,"Velocity":17,"Duration":1648804,"SoundDuration":1648804,"Delta":75734261},{"NoteNumber":76,"Velocity":33,"Duration":385703,"SoundDuration":385703,"Delta":77383066},{"NoteNumber":64,"Velocity":28,"Duration":385703,"SoundDuration":385703,"Delta":77383066},{"NoteNumber":51,"Velocity":19,"Duration":821876,"SoundDuration":821876,"Delta":77383066},{"NoteNumber":61,"Velocity":23,"Duration":821876,"SoundDuration":821876,"Delta":77383066},{"NoteNumber":78,"Velocity":36,"Duration":436173,"SoundDuration":436173,"Delta":77768769},{"NoteNumber":66,"Velocity":30,"Duration":436173,"SoundDuration":436173,"Delta":77768769},{"NoteNumber":68,"Velocity":34,"Duration":791765,"SoundDuration":791765,"Delta":78204943},{"NoteNumber":80,"Velocity":40,"Duration":791765,"SoundDuration":791765,"Delta":78204943},{"NoteNumber":51,"Velocity":23,"Duration":1583530,"SoundDuration":1583530,"Delta":78204943},{"NoteNumber":59,"Velocity":28,"Duration":1583530,"SoundDuration":1583530,"Delta":78204943},{"NoteNumber":66,"Velocity":33,"Duration":791765,"SoundDuration":791765,"Delta":78996708},{"NoteNumber":78,"Velocity":33,"Duration":791765,"SoundDuration":791765,"Delta":78996708},{"NoteNumber":76,"Velocity":25,"Duration":835887,"SoundDuration":835887,"Delta":79788474},{"NoteNumber":64,"Velocity":21,"Duration":835887,"SoundDuration":835887,"Delta":79788474},{"NoteNumber":51,"Velocity":14,"Duration":835887,"SoundDuration":835887,"Delta":79788474},{"NoteNumber":56,"Velocity":17,"Duration":835887,"SoundDuration":835887,"Delta":79788474},{"NoteNumber":75,"Velocity":25,"Duration":1671774,"SoundDuration":1671774,"Delta":80624361},{"NoteNumber":63,"Velocity":21,"Duration":1671774,"SoundDuration":1671774,"Delta":80624361},{"NoteNumber":51,"Velocity":14,"Duration":1671774,"SoundDuration":1671774,"Delta":80624361},{"NoteNumber":63,"Velocity":17,"Duration":1671774,"SoundDuration":1671774,"Delta":80624361},{"NoteNumber":76,"Velocity":33,"Duration":385703,"SoundDuration":385703,"Delta":82296136},{"NoteNumber":64,"Velocity":28,"Duration":385703,"SoundDuration":385703,"Delta":82296136},{"NoteNumber":37,"Velocity":19,"Duration":821876,"SoundDuration":821876,"Delta":82296136},{"NoteNumber":49,"Velocity":23,"Duration":821876,"SoundDuration":821876,"Delta":82296136},{"NoteNumber":75,"Velocity":30,"Duration":436173,"SoundDuration":436173,"Delta":82681839},{"NoteNumber":78,"Velocity":36,"Duration":436173,"SoundDuration":436173,"Delta":82681839},{"NoteNumber":66,"Velocity":30,"Duration":436173,"SoundDuration":436173,"Delta":82681839},{"NoteNumber":76,"Velocity":34,"Duration":824402,"SoundDuration":824402,"Delta":83118012},{"NoteNumber":68,"Velocity":34,"Duration":824402,"SoundDuration":824402,"Delta":83118012},{"NoteNumber":80,"Velocity":40,"Duration":824402,"SoundDuration":824402,"Delta":83118012},{"NoteNumber":34,"Velocity":23,"Duration":1648804,"SoundDuration":1648804,"Delta":83118012},{"NoteNumber":46,"Velocity":28,"Duration":1648804,"SoundDuration":1648804,"Delta":83118012},{"NoteNumber":75,"Velocity":29,"Duration":824402,"SoundDuration":824402,"Delta":83942415},{"NoteNumber":78,"Velocity":35,"Duration":824402,"SoundDuration":824402,"Delta":83942415},{"NoteNumber":66,"Velocity":29,"Duration":824402,"SoundDuration":824402,"Delta":83942415},{"NoteNumber":73,"Velocity":21,"Duration":898472,"SoundDuration":898472,"Delta":84766817},{"NoteNumber":76,"Velocity":25,"Duration":898472,"SoundDuration":898472,"Delta":84766817},{"NoteNumber":64,"Velocity":21,"Duration":898472,"SoundDuration":898472,"Delta":84766817},{"NoteNumber":31,"Velocity":14,"Duration":1869660,"SoundDuration":1869660,"Delta":84766817},{"NoteNumber":43,"Velocity":17,"Duration":1869660,"SoundDuration":1869660,"Delta":84766817},{"NoteNumber":75,"Velocity":21,"Duration":971187,"SoundDuration":971187,"Delta":85665290},{"NoteNumber":63,"Velocity":17,"Duration":971187,"SoundDuration":971187,"Delta":85665290},{"NoteNumber":71,"Velocity":17,"Duration":971187,"SoundDuration":971187,"Delta":85665290},{"NoteNumber":70,"Velocity":15,"Duration":1115656,"SoundDuration":1115656,"Delta":86636478},{"NoteNumber":73,"Velocity":18,"Duration":1115656,"SoundDuration":1115656,"Delta":86636478},{"NoteNumber":61,"Velocity":15,"Duration":1115656,"SoundDuration":1115656,"Delta":86636478},{"NoteNumber":32,"Velocity":11,"Duration":3443042,"SoundDuration":3443042,"Delta":86636478},{"NoteNumber":44,"Velocity":14,"Duration":3443042,"SoundDuration":3443042,"Delta":86636478},{"NoteNumber":59,"Velocity":13,"Duration":2327385,"SoundDuration":2327385,"Delta":87752134},{"NoteNumber":71,"Velocity":16,"Duration":2327385,"SoundDuration":2327385,"Delta":87752134},{"NoteNumber":68,"Velocity":13,"Duration":2327385,"SoundDuration":2327385,"Delta":87752134},{"NoteNumber":34,"Velocity":16,"Duration":493583,"SoundDuration":493583,"Delta":90079520},{"NoteNumber":46,"Velocity":16,"Duration":449236,"SoundDuration":449236,"Delta":90573103},{"NoteNumber":66,"Velocity":23,"Duration":1803758,"SoundDuration":1803758,"Delta":91022340},{"NoteNumber":70,"Velocity":27,"Duration":872346,"SoundDuration":872346,"Delta":91022340},{"NoteNumber":51,"Velocity":15,"Duration":436173,"SoundDuration":436173,"Delta":91022340},{"NoteNumber":54,"Velocity":16,"Duration":436173,"SoundDuration":436173,"Delta":91458513},{"NoteNumber":58,"Velocity":17,"Duration":412201,"SoundDuration":412201,"Delta":91894686},{"NoteNumber":68,"Velocity":26,"Duration":1715134,"SoundDuration":1715134,"Delta":92826098},{"NoteNumber":71,"Velocity":31,"Duration":872346,"SoundDuration":872346,"Delta":92826098},{"NoteNumber":34,"Velocity":19,"Duration":436173,"SoundDuration":436173,"Delta":92826098},{"NoteNumber":46,"Velocity":19,"Duration":436173,"SoundDuration":436173,"Delta":93262271},{"NoteNumber":59,"Velocity":18,"Duration":406614,"SoundDuration":406614,"Delta":93698445},{"NoteNumber":53,"Velocity":17,"Duration":406614,"SoundDuration":406614,"Delta":93698445},{"NoteNumber":56,"Velocity":17,"Duration":436173,"SoundDuration":436173,"Delta":94105059},{"NoteNumber":65,"Velocity":23,"Duration":885409,"SoundDuration":885409,"Delta":94541232},{"NoteNumber":68,"Velocity":28,"Duration":885409,"SoundDuration":885409,"Delta":94541232},{"NoteNumber":56,"Velocity":16,"Duration":442608,"SoundDuration":442608,"Delta":95426642},{"NoteNumber":34,"Velocity":16,"Duration":442608,"SoundDuration":442608,"Delta":95426642},{"NoteNumber":46,"Velocity":16,"Duration":417943,"SoundDuration":417943,"Delta":95869250},{"NoteNumber":77,"Velocity":23,"Duration":836049,"SoundDuration":836049,"Delta":96287194},{"NoteNumber":80,"Velocity":27,"Duration":1804496,"SoundDuration":1804496,"Delta":96287194},{"NoteNumber":50,"Velocity":15,"Duration":423848,"SoundDuration":423848,"Delta":96287194},{"NoteNumber":53,"Velocity":16,"Duration":412201,"SoundDuration":412201,"Delta":96711043},{"NoteNumber":68,"Velocity":17,"Duration":449236,"SoundDuration":449236,"Delta":97123244},{"NoteNumber":78,"Velocity":26,"Duration":885216,"SoundDuration":885216,"Delta":98091691},{"NoteNumber":82,"Velocity":31,"Duration":1740026,"SoundDuration":1740026,"Delta":98091691},{"NoteNumber":34,"Velocity":19,"Duration":442608,"SoundDuration":442608,"Delta":98091691},{"NoteNumber":46,"Velocity":19,"Duration":442608,"SoundDuration":442608,"Delta":98534299},{"NoteNumber":70,"Velocity":18,"Duration":442608,"SoundDuration":442608,"Delta":98976908},{"NoteNumber":51,"Velocity":17,"Duration":442608,"SoundDuration":442608,"Delta":98976908},{"NoteNumber":54,"Velocity":17,"Duration":412201,"SoundDuration":412201,"Delta":99419516},{"NoteNumber":75,"Velocity":23,"Duration":861437,"SoundDuration":861437,"Delta":99831718},{"NoteNumber":78,"Velocity":28,"Duration":861437,"SoundDuration":861437,"Delta":99831718},{"NoteNumber":66,"Velocity":18,"Duration":449236,"SoundDuration":449236,"Delta":100693155},{"NoteNumber":34,"Velocity":18,"Duration":449236,"SoundDuration":449236,"Delta":100693155},{"NoteNumber":46,"Velocity":16,"Duration":449236,"SoundDuration":449236,"Delta":101142391},{"NoteNumber":63,"Velocity":21,"Duration":1803758,"SoundDuration":1803758,"Delta":101591628},{"NoteNumber":66,"Velocity":26,"Duration":872346,"SoundDuration":872346,"Delta":101591628},{"NoteNumber":47,"Velocity":14,"Duration":436173,"SoundDuration":436173,"Delta":101591628},{"NoteNumber":51,"Velocity":14,"Duration":436173,"SoundDuration":436173,"Delta":102027801},{"NoteNumber":54,"Velocity":15,"Duration":412201,"SoundDuration":412201,"Delta":102463974},{"NoteNumber":59,"Velocity":21,"Duration":1715134,"SoundDuration":1715134,"Delta":103395386},{"NoteNumber":63,"Velocity":21,"Duration":872346,"SoundDuration":872346,"Delta":103395386},{"NoteNumber":65,"Velocity":26,"Duration":872346,"SoundDuration":872346,"Delta":103395386},{"NoteNumber":32,"Velocity":16,"Duration":436173,"SoundDuration":436173,"Delta":103395386},{"NoteNumber":44,"Velocity":16,"Duration":436173,"SoundDuration":436173,"Delta":103831559},{"NoteNumber":53,"Velocity":16,"Duration":406614,"SoundDuration":406614,"Delta":104267732},{"NoteNumber":47,"Velocity":15,"Duration":406614,"SoundDuration":406614,"Delta":104267732},{"NoteNumber":51,"Velocity":15,"Duration":436173,"SoundDuration":436173,"Delta":104674347},{"NoteNumber":59,"Velocity":21,"Duration":885409,"SoundDuration":885409,"Delta":105110520},{"NoteNumber":63,"Velocity":21,"Duration":885409,"SoundDuration":885409,"Delta":105110520},{"NoteNumber":65,"Velocity":26,"Duration":885409,"SoundDuration":885409,"Delta":105110520},{"NoteNumber":32,"Velocity":18,"Duration":456065,"SoundDuration":456065,"Delta":105995930},{"NoteNumber":44,"Velocity":18,"Duration":449236,"SoundDuration":449236,"Delta":106451995},{"NoteNumber":70,"Velocity":24,"Duration":872346,"SoundDuration":872346,"Delta":106901231},{"NoteNumber":73,"Velocity":24,"Duration":872346,"SoundDuration":872346,"Delta":106901231},{"NoteNumber":77,"Velocity":29,"Duration":1803758,"SoundDuration":1803758,"Delta":106901231},{"NoteNumber":46,"Velocity":16,"Duration":436173,"SoundDuration":436173,"Delta":106901231},{"NoteNumber":49,"Velocity":16,"Duration":436173,"SoundDuration":436173,"Delta":107337405},{"NoteNumber":65,"Velocity":17,"Duration":412201,"SoundDuration":412201,"Delta":107773578},{"NoteNumber":70,"Velocity":24,"Duration":872346,"SoundDuration":872346,"Delta":108704990},{"NoteNumber":73,"Velocity":24,"Duration":872346,"SoundDuration":872346,"Delta":108704990},{"NoteNumber":75,"Velocity":29,"Duration":1715134,"SoundDuration":1715134,"Delta":108704990},{"NoteNumber":30,"Velocity":18,"Duration":436173,"SoundDuration":436173,"Delta":108704990},{"NoteNumber":42,"Velocity":18,"Duration":436173,"SoundDuration":436173,"Delta":109141163},{"NoteNumber":63,"Velocity":18,"Duration":406614,"SoundDuration":406614,"Delta":109577336},{"NoteNumber":46,"Velocity":17,"Duration":406614,"SoundDuration":406614,"Delta":109577336},{"NoteNumber":49,"Velocity":17,"Duration":436173,"SoundDuration":436173,"Delta":109983951},{"NoteNumber":70,"Velocity":24,"Duration":885409,"SoundDuration":885409,"Delta":110420124},{"NoteNumber":73,"Velocity":24,"Duration":885409,"SoundDuration":885409,"Delta":110420124},{"NoteNumber":75,"Velocity":29,"Duration":885409,"SoundDuration":885409,"Delta":110420124},{"NoteNumber":30,"Velocity":14,"Duration":449236,"SoundDuration":449236,"Delta":111305534},{"NoteNumber":42,"Velocity":14,"Duration":449236,"SoundDuration":449236,"Delta":111754770},{"NoteNumber":58,"Velocity":20,"Duration":872346,"SoundDuration":872346,"Delta":112204006},{"NoteNumber":60,"Velocity":20,"Duration":872346,"SoundDuration":872346,"Delta":112204006},{"NoteNumber":64,"Velocity":25,"Duration":1803758,"SoundDuration":1803758,"Delta":112204006},{"NoteNumber":46,"Velocity":13,"Duration":436173,"SoundDuration":436173,"Delta":112204006},{"NoteNumber":48,"Velocity":14,"Duration":436173,"SoundDuration":436173,"Delta":112640179},{"NoteNumber":52,"Velocity":15,"Duration":931411,"SoundDuration":931411,"Delta":113076352},{"NoteNumber":58,"Velocity":24,"Duration":872346,"SoundDuration":872346,"Delta":114007764},{"NoteNumber":60,"Velocity":24,"Duration":872346,"SoundDuration":872346,"Delta":114007764},{"NoteNumber":65,"Velocity":29,"Duration":1715134,"SoundDuration":1715134,"Delta":114007764},{"NoteNumber":29,"Velocity":18,"Duration":436173,"SoundDuration":436173,"Delta":114007764},{"NoteNumber":41,"Velocity":17,"Duration":436173,"SoundDuration":436173,"Delta":114443938},{"NoteNumber":53,"Velocity":16,"Duration":842787,"SoundDuration":842787,"Delta":114880111},{"NoteNumber":46,"Velocity":15,"Duration":406614,"SoundDuration":406614,"Delta":114880111},{"NoteNumber":48,"Velocity":15,"Duration":436173,"SoundDuration":436173,"Delta":115286725},{"NoteNumber":58,"Velocity":20,"Duration":885409,"SoundDuration":885409,"Delta":115722898},{"NoteNumber":60,"Velocity":25,"Duration":885409,"SoundDuration":885409,"Delta":115722898},{"NoteNumber":65,"Velocity":21,"Duration":2640384,"SoundDuration":2640384,"Delta":116608308},{"NoteNumber":69,"Velocity":21,"Duration":2640384,"SoundDuration":2640384,"Delta":116608308},{"NoteNumber":77,"Velocity":25,"Duration":2640384,"SoundDuration":2640384,"Delta":116608308},{"NoteNumber":75,"Velocity":21,"Duration":2640384,"SoundDuration":2640384,"Delta":116608308},{"NoteNumber":41,"Velocity":17,"Duration":2640384,"SoundDuration":2640384,"Delta":116608308},{"NoteNumber":45,"Velocity":17,"Duration":2640384,"SoundDuration":2640384,"Delta":116608308},{"NoteNumber":53,"Velocity":21,"Duration":2640384,"SoundDuration":2640384,"Delta":116608308},{"NoteNumber":51,"Velocity":17,"Duration":2640384,"SoundDuration":2640384,"Delta":116608308},{"NoteNumber":73,"Velocity":21,"Duration":847696,"SoundDuration":847696,"Delta":117506780},{"NoteNumber":49,"Velocity":17,"Duration":847696,"SoundDuration":847696,"Delta":117506780},{"NoteNumber":72,"Velocity":21,"Duration":894215,"SoundDuration":894215,"Delta":118354477},{"NoteNumber":48,"Velocity":17,"Duration":894215,"SoundDuration":894215,"Delta":118354477},{"NoteNumber":75,"Velocity":21,"Duration":1695393,"SoundDuration":1695393,"Delta":119248693},{"NoteNumber":65,"Velocity":21,"Duration":2582348,"SoundDuration":2582348,"Delta":119248693},{"NoteNumber":70,"Velocity":21,"Duration":2582348,"SoundDuration":2582348,"Delta":119248693},{"NoteNumber":77,"Velocity":25,"Duration":2582348,"SoundDuration":2582348,"Delta":119248693},{"NoteNumber":51,"Velocity":17,"Duration":1695393,"SoundDuration":1695393,"Delta":119248693},{"NoteNumber":41,"Velocity":17,"Duration":2582348,"SoundDuration":2582348,"Delta":119248693},{"NoteNumber":46,"Velocity":17,"Duration":2582348,"SoundDuration":2582348,"Delta":119248693},{"NoteNumber":53,"Velocity":21,"Duration":2582348,"SoundDuration":2582348,"Delta":119248693},{"NoteNumber":73,"Velocity":19,"Duration":886954,"SoundDuration":886954,"Delta":120944087},{"NoteNumber":49,"Velocity":16,"Duration":886954,"SoundDuration":886954,"Delta":120944087},{"NoteNumber":30,"Velocity":32,"Duration":449236,"SoundDuration":449236,"Delta":121831041},{"NoteNumber":42,"Velocity":20,"Duration":449236,"SoundDuration":449236,"Delta":122280278},{"NoteNumber":58,"Velocity":31,"Duration":872346,"SoundDuration":872346,"Delta":122729514},{"NoteNumber":60,"Velocity":31,"Duration":872346,"SoundDuration":872346,"Delta":122729514},{"NoteNumber":64,"Velocity":40,"Duration":1803758,"SoundDuration":1803758,"Delta":122729514},{"NoteNumber":46,"Velocity":19,"Duration":436173,"SoundDuration":436173,"Delta":122729514},{"NoteNumber":48,"Velocity":20,"Duration":436173,"SoundDuration":436173,"Delta":123165687},{"NoteNumber":52,"Velocity":23,"Duration":931411,"SoundDuration":931411,"Delta":123601860},{"NoteNumber":58,"Velocity":36,"Duration":872346,"SoundDuration":872346,"Delta":124533272},{"NoteNumber":63,"Velocity":36,"Duration":1715134,"SoundDuration":1715134,"Delta":124533272},{"NoteNumber":66,"Velocity":46,"Duration":1715134,"SoundDuration":1715134,"Delta":124533272},{"NoteNumber":24,"Velocity":38,"Duration":436173,"SoundDuration":436173,"Delta":124533272},{"NoteNumber":36,"Velocity":27,"Duration":436173,"SoundDuration":436173,"Delta":124969446},{"NoteNumber":54,"Velocity":24,"Duration":842787,"SoundDuration":842787,"Delta":125405619},{"NoteNumber":39,"Velocity":23,"Duration":406614,"SoundDuration":406614,"Delta":125405619},{"NoteNumber":46,"Velocity":23,"Duration":436173,"SoundDuration":436173,"Delta":125812233},{"NoteNumber":54,"Velocity":31,"Duration":914032,"SoundDuration":914032,"Delta":126248406},{"NoteNumber":51,"Velocity":31,"Duration":914032,"SoundDuration":914032,"Delta":126248406},{"NoteNumber":60,"Velocity":40,"Duration":914032,"SoundDuration":914032,"Delta":126248406},{"NoteNumber":65,"Velocity":21,"Duration":2694589,"SoundDuration":2694589,"Delta":127162439},{"NoteNumber":69,"Velocity":21,"Duration":2694589,"SoundDuration":2694589,"Delta":127162439},{"NoteNumber":77,"Velocity":25,"Duration":2694589,"SoundDuration":2694589,"Delta":127162439},{"NoteNumber":75,"Velocity":21,"Duration":2694589,"SoundDuration":2694589,"Delta":127162439},{"NoteNumber":41,"Velocity":17,"Duration":2694589,"SoundDuration":2694589,"Delta":127162439},{"NoteNumber":45,"Velocity":17,"Duration":2694589,"SoundDuration":2694589,"Delta":127162439},{"NoteNumber":53,"Velocity":21,"Duration":2694589,"SoundDuration":2694589,"Delta":127162439},{"NoteNumber":51,"Velocity":17,"Duration":2694589,"SoundDuration":2694589,"Delta":127162439},{"NoteNumber":73,"Velocity":21,"Duration":847697,"SoundDuration":847697,"Delta":128047656},{"NoteNumber":49,"Velocity":17,"Duration":847697,"SoundDuration":847697,"Delta":128047656},{"NoteNumber":72,"Velocity":21,"Duration":961675,"SoundDuration":961675,"Delta":128895353},{"NoteNumber":48,"Velocity":17,"Duration":961675,"SoundDuration":961675,"Delta":128895353},{"NoteNumber":68,"Velocity":18,"Duration":940733,"SoundDuration":940733,"Delta":129857029},{"NoteNumber":70,"Velocity":18,"Duration":3060070,"SoundDuration":3060070,"Delta":129857029},{"NoteNumber":80,"Velocity":22,"Duration":940733,"SoundDuration":940733,"Delta":129857029},{"NoteNumber":74,"Velocity":18,"Duration":3060070,"SoundDuration":3060070,"Delta":129857029},{"NoteNumber":44,"Velocity":15,"Duration":940733,"SoundDuration":940733,"Delta":129857029},{"NoteNumber":46,"Velocity":15,"Duration":3060070,"SoundDuration":3060070,"Delta":129857029},{"NoteNumber":56,"Velocity":18,"Duration":940733,"SoundDuration":940733,"Delta":129857029},{"NoteNumber":50,"Velocity":15,"Duration":3060070,"SoundDuration":3060070,"Delta":129857029},{"NoteNumber":66,"Velocity":14,"Duration":1003680,"SoundDuration":1003680,"Delta":130797763},{"NoteNumber":78,"Velocity":17,"Duration":1003680,"SoundDuration":1003680,"Delta":130797763},{"NoteNumber":42,"Velocity":11,"Duration":1003680,"SoundDuration":1003680,"Delta":130797763},{"NoteNumber":54,"Velocity":14,"Duration":1003680,"SoundDuration":1003680,"Delta":130797763},{"NoteNumber":65,"Velocity":13,"Duration":1115656,"SoundDuration":1115656,"Delta":131801443},{"NoteNumber":77,"Velocity":16,"Duration":1115656,"SoundDuration":1115656,"Delta":131801443},{"NoteNumber":41,"Velocity":11,"Duration":1115656,"SoundDuration":1115656,"Delta":131801443},{"NoteNumber":53,"Velocity":13,"Duration":1115656,"SoundDuration":1115656,"Delta":131801443},{"NoteNumber":39,"Velocity":18,"Duration":493583,"SoundDuration":493583,"Delta":132917099},{"NoteNumber":46,"Velocity":18,"Duration":449236,"SoundDuration":449236,"Delta":133410683},{"NoteNumber":66,"Velocity":26,"Duration":1803758,"SoundDuration":1803758,"Delta":133859919},{"NoteNumber":70,"Velocity":31,"Duration":872346,"SoundDuration":872346,"Delta":133859919},{"NoteNumber":51,"Velocity":17,"Duration":436173,"SoundDuration":436173,"Delta":133859919},{"NoteNumber":54,"Velocity":18,"Duration":436173,"SoundDuration":436173,"Delta":134296092},{"NoteNumber":58,"Velocity":19,"Duration":412201,"SoundDuration":412201,"Delta":134732265},{"NoteNumber":68,"Velocity":29,"Duration":1715133,"SoundDuration":1715133,"Delta":135663678},{"NoteNumber":71,"Velocity":35,"Duration":872346,"SoundDuration":872346,"Delta":135663678},{"NoteNumber":32,"Velocity":21,"Duration":436173,"SoundDuration":436173,"Delta":135663678},{"NoteNumber":44,"Velocity":21,"Duration":436173,"SoundDuration":436173,"Delta":136099851},{"NoteNumber":59,"Velocity":20,"Duration":406614,"SoundDuration":406614,"Delta":136536024},{"NoteNumber":47,"Velocity":19,"Duration":406614,"SoundDuration":406614,"Delta":136536024},{"NoteNumber":52,"Velocity":19,"Duration":436173,"SoundDuration":436173,"Delta":136942638},{"NoteNumber":64,"Velocity":26,"Duration":885409,"SoundDuration":885409,"Delta":137378811},{"NoteNumber":68,"Velocity":32,"Duration":885409,"SoundDuration":885409,"Delta":137378811},{"NoteNumber":56,"Velocity":18,"Duration":442608,"SoundDuration":442608,"Delta":138264221},{"NoteNumber":34,"Velocity":18,"Duration":442608,"SoundDuration":442608,"Delta":138264221},{"NoteNumber":46,"Velocity":18,"Duration":417943,"SoundDuration":417943,"Delta":138706829},{"NoteNumber":70,"Velocity":26,"Duration":836049,"SoundDuration":836049,"Delta":139124773},{"NoteNumber":73,"Velocity":26,"Duration":1804496,"SoundDuration":1804496,"Delta":139124773},{"NoteNumber":76,"Velocity":26,"Duration":1804496,"SoundDuration":1804496,"Delta":139124773},{"NoteNumber":80,"Velocity":31,"Duration":1804496,"SoundDuration":1804496,"Delta":139124773},{"NoteNumber":49,"Velocity":17,"Duration":423848,"SoundDuration":423848,"Delta":139124773},{"NoteNumber":52,"Velocity":18,"Duration":412201,"SoundDuration":412201,"Delta":139548622},{"NoteNumber":68,"Velocity":19,"Duration":449236,"SoundDuration":449236,"Delta":139960823},{"NoteNumber":73,"Velocity":29,"Duration":885217,"SoundDuration":885217,"Delta":140929270},{"NoteNumber":79,"Velocity":29,"Duration":1740026,"SoundDuration":1740026,"Delta":140929270},{"NoteNumber":82,"Velocity":35,"Duration":1740026,"SoundDuration":1740026,"Delta":140929270},{"NoteNumber":39,"Velocity":21,"Duration":442608,"SoundDuration":442608,"Delta":140929270},{"NoteNumber":46,"Velocity":21,"Duration":442608,"SoundDuration":442608,"Delta":141371879},{"NoteNumber":70,"Velocity":20,"Duration":442608,"SoundDuration":442608,"Delta":141814487},{"NoteNumber":51,"Velocity":19,"Duration":442608,"SoundDuration":442608,"Delta":141814487},{"NoteNumber":55,"Velocity":19,"Duration":412201,"SoundDuration":412201,"Delta":142257096},{"NoteNumber":61,"Velocity":26,"Duration":861437,"SoundDuration":861437,"Delta":142669297},{"NoteNumber":70,"Velocity":26,"Duration":861437,"SoundDuration":861437,"Delta":142669297},{"NoteNumber":73,"Velocity":32,"Duration":861437,"SoundDuration":861437,"Delta":142669297},{"NoteNumber":32,"Velocity":20,"Duration":449236,"SoundDuration":449236,"Delta":143530734},{"NoteNumber":39,"Velocity":18,"Duration":449236,"SoundDuration":449236,"Delta":143979971},{"NoteNumber":60,"Velocity":24,"Duration":872346,"SoundDuration":872346,"Delta":144429207},{"NoteNumber":63,"Velocity":24,"Duration":1803758,"SoundDuration":1803758,"Delta":144429207},{"NoteNumber":66,"Velocity":29,"Duration":1803758,"SoundDuration":1803758,"Delta":144429207},{"NoteNumber":44,"Velocity":16,"Duration":436173,"SoundDuration":436173,"Delta":144429207},{"NoteNumber":48,"Velocity":16,"Duration":436173,"SoundDuration":436173,"Delta":144865380},{"NoteNumber":54,"Velocity":17,"Duration":412201,"SoundDuration":412201,"Delta":145301553},{"NoteNumber":59,"Velocity":24,"Duration":872346,"SoundDuration":872346,"Delta":146232965},{"NoteNumber":63,"Velocity":24,"Duration":1715133,"SoundDuration":1715133,"Delta":146232965},{"NoteNumber":66,"Velocity":29,"Duration":1715133,"SoundDuration":1715133,"Delta":146232965},{"NoteNumber":32,"Velocity":18,"Duration":436173,"SoundDuration":436173,"Delta":146232965},{"NoteNumber":39,"Velocity":18,"Duration":436173,"SoundDuration":436173,"Delta":146669139},{"NoteNumber":54,"Velocity":18,"Duration":406614,"SoundDuration":406614,"Delta":147105312},{"NoteNumber":44,"Velocity":17,"Duration":406614,"SoundDuration":406614,"Delta":147105312},{"NoteNumber":47,"Velocity":17,"Duration":436173,"SoundDuration":436173,"Delta":147511926},{"NoteNumber":59,"Velocity":24,"Duration":885409,"SoundDuration":885409,"Delta":147948099},{"NoteNumber":63,"Velocity":24,"Duration":885409,"SoundDuration":885409,"Delta":147948099},{"NoteNumber":64,"Velocity":29,"Duration":885409,"SoundDuration":885409,"Delta":147948099},{"NoteNumber":34,"Velocity":20,"Duration":456065,"SoundDuration":456065,"Delta":148833509},{"NoteNumber":46,"Velocity":20,"Duration":449236,"SoundDuration":449236,"Delta":149289575},{"NoteNumber":76,"Velocity":27,"Duration":1803758,"SoundDuration":1803758,"Delta":149738811},{"NoteNumber":70,"Velocity":27,"Duration":872346,"SoundDuration":872346,"Delta":149738811},{"NoteNumber":73,"Velocity":27,"Duration":1803758,"SoundDuration":1803758,"Delta":149738811},{"NoteNumber":80,"Velocity":33,"Duration":1803758,"SoundDuration":1803758,"Delta":149738811},{"NoteNumber":49,"Velocity":18,"Duration":436173,"SoundDuration":436173,"Delta":149738811},{"NoteNumber":52,"Velocity":18,"Duration":436173,"SoundDuration":436173,"Delta":150174984},{"NoteNumber":68,"Velocity":19,"Duration":412201,"SoundDuration":412201,"Delta":150611157},{"NoteNumber":70,"Velocity":27,"Duration":872346,"SoundDuration":872346,"Delta":151542569},{"NoteNumber":73,"Velocity":27,"Duration":1715133,"SoundDuration":1715133,"Delta":151542569},{"NoteNumber":76,"Velocity":33,"Duration":1715133,"SoundDuration":1715133,"Delta":151542569},{"NoteNumber":31,"Velocity":20,"Duration":436173,"SoundDuration":436173,"Delta":151542569},{"NoteNumber":43,"Velocity":20,"Duration":436173,"SoundDuration":436173,"Delta":151978743},{"NoteNumber":64,"Velocity":20,"Duration":406614,"SoundDuration":406614,"Delta":152414916},{"NoteNumber":46,"Velocity":19,"Duration":406614,"SoundDuration":406614,"Delta":152414916},{"NoteNumber":51,"Velocity":19,"Duration":436173,"SoundDuration":436173,"Delta":152821530},{"NoteNumber":70,"Velocity":27,"Duration":885409,"SoundDuration":885409,"Delta":153257703},{"NoteNumber":73,"Velocity":27,"Duration":885409,"SoundDuration":885409,"Delta":153257703},{"NoteNumber":75,"Velocity":33,"Duration":885409,"SoundDuration":885409,"Delta":153257703},{"NoteNumber":32,"Velocity":16,"Duration":449236,"SoundDuration":449236,"Delta":154143113},{"NoteNumber":39,"Velocity":16,"Duration":449236,"SoundDuration":449236,"Delta":154592349},{"NoteNumber":59,"Velocity":23,"Duration":872346,"SoundDuration":872346,"Delta":155041585},{"NoteNumber":62,"Velocity":28,"Duration":1803758,"SoundDuration":1803758,"Delta":155041585},{"NoteNumber":44,"Velocity":14,"Duration":436173,"SoundDuration":436173,"Delta":155041585},{"NoteNumber":47,"Velocity":16,"Duration":436173,"SoundDuration":436173,"Delta":155477759},{"NoteNumber":53,"Velocity":17,"Duration":931412,"SoundDuration":931412,"Delta":155913932},{"NoteNumber":58,"Velocity":27,"Duration":872346,"SoundDuration":872346,"Delta":156845344},{"NoteNumber":63,"Velocity":33,"Duration":1715133,"SoundDuration":1715133,"Delta":156845344},{"NoteNumber":30,"Velocity":20,"Duration":436173,"SoundDuration":436173,"Delta":156845344},{"NoteNumber":39,"Velocity":19,"Duration":436173,"SoundDuration":436173,"Delta":157281517},{"NoteNumber":51,"Velocity":18,"Duration":842787,"SoundDuration":842787,"Delta":157717690},{"NoteNumber":42,"Velocity":17,"Duration":406614,"SoundDuration":406614,"Delta":157717690},{"NoteNumber":46,"Velocity":17,"Duration":436173,"SoundDuration":436173,"Delta":158124305},{"NoteNumber":54,"Velocity":23,"Duration":885409,"SoundDuration":885409,"Delta":158560478},{"NoteNumber":58,"Velocity":28,"Duration":885409,"SoundDuration":885409,"Delta":158560478},{"NoteNumber":58,"Velocity":21,"Duration":2640385,"SoundDuration":2640385,"Delta":159445887},{"NoteNumber":62,"Velocity":21,"Duration":2640385,"SoundDuration":2640385,"Delta":159445887},{"NoteNumber":70,"Velocity":25,"Duration":2640385,"SoundDuration":2640385,"Delta":159445887},{"NoteNumber":68,"Velocity":21,"Duration":2640385,"SoundDuration":2640385,"Delta":159445887},{"NoteNumber":46,"Velocity":17,"Duration":2640385,"SoundDuration":2640385,"Delta":159445887},{"NoteNumber":56,"Velocity":21,"Duration":2640385,"SoundDuration":2640385,"Delta":159445887},{"NoteNumber":50,"Velocity":17,"Duration":2640385,"SoundDuration":2640385,"Delta":159445887},{"NoteNumber":66,"Velocity":21,"Duration":847697,"SoundDuration":847697,"Delta":160344360},{"NoteNumber":54,"Velocity":17,"Duration":847697,"SoundDuration":847697,"Delta":160344360},{"NoteNumber":65,"Velocity":21,"Duration":894215,"SoundDuration":894215,"Delta":161192057},{"NoteNumber":53,"Velocity":17,"Duration":894215,"SoundDuration":894215,"Delta":161192057},{"NoteNumber":68,"Velocity":21,"Duration":1695393,"SoundDuration":1695393,"Delta":162086272},{"NoteNumber":58,"Velocity":21,"Duration":2582348,"SoundDuration":2582348,"Delta":162086272},{"NoteNumber":63,"Velocity":21,"Duration":2582348,"SoundDuration":2582348,"Delta":162086272},{"NoteNumber":70,"Velocity":25,"Duration":2582348,"SoundDuration":2582348,"Delta":162086272},{"NoteNumber":56,"Velocity":17,"Duration":1695393,"SoundDuration":1695393,"Delta":162086272},{"NoteNumber":46,"Velocity":17,"Duration":2582348,"SoundDuration":2582348,"Delta":162086272},{"NoteNumber":51,"Velocity":21,"Duration":2582348,"SoundDuration":2582348,"Delta":162086272},{"NoteNumber":66,"Velocity":19,"Duration":886954,"SoundDuration":886954,"Delta":163781666},{"NoteNumber":54,"Velocity":16,"Duration":886954,"SoundDuration":886954,"Delta":163781666},{"NoteNumber":32,"Velocity":27,"Duration":449236,"SoundDuration":449236,"Delta":164668621},{"NoteNumber":44,"Velocity":18,"Duration":449236,"SoundDuration":449236,"Delta":165117857},{"NoteNumber":68,"Velocity":27,"Duration":872346,"SoundDuration":872346,"Delta":165567093},{"NoteNumber":71,"Velocity":27,"Duration":1803758,"SoundDuration":1803758,"Delta":165567093},{"NoteNumber":76,"Velocity":34,"Duration":1803758,"SoundDuration":1803758,"Delta":165567093},{"NoteNumber":47,"Velocity":17,"Duration":436173,"SoundDuration":436173,"Delta":165567093},{"NoteNumber":52,"Velocity":18,"Duration":436173,"SoundDuration":436173,"Delta":166003267},{"NoteNumber":64,"Velocity":19,"Duration":931412,"SoundDuration":931412,"Delta":166439440},{"NoteNumber":66,"Velocity":29,"Duration":872346,"SoundDuration":872346,"Delta":167370852},{"NoteNumber":70,"Velocity":29,"Duration":1715133,"SoundDuration":1715133,"Delta":167370852},{"NoteNumber":75,"Velocity":36,"Duration":1715133,"SoundDuration":1715133,"Delta":167370852},{"NoteNumber":34,"Velocity":26,"Duration":436173,"SoundDuration":436173,"Delta":167370852},{"NoteNumber":42,"Velocity":21,"Duration":436173,"SoundDuration":436173,"Delta":167807025},{"NoteNumber":63,"Velocity":19,"Duration":842787,"SoundDuration":842787,"Delta":168243198},{"NoteNumber":46,"Velocity":18,"Duration":406614,"SoundDuration":406614,"Delta":168243198},{"NoteNumber":51,"Velocity":17,"Duration":436173,"SoundDuration":436173,"Delta":168649813},{"NoteNumber":66,"Velocity":23,"Duration":885409,"SoundDuration":885409,"Delta":169085986},{"NoteNumber":70,"Velocity":30,"Duration":885409,"SoundDuration":885409,"Delta":169085986},{"NoteNumber":50,"Velocity":21,"Duration":2695417,"SoundDuration":2695417,"Delta":169971395},{"NoteNumber":58,"Velocity":25,"Duration":2695417,"SoundDuration":2695417,"Delta":169971395},{"NoteNumber":56,"Velocity":21,"Duration":2695417,"SoundDuration":2695417,"Delta":169971395},{"NoteNumber":44,"Velocity":17,"Duration":1796944,"SoundDuration":1796944,"Delta":169971395},{"NoteNumber":46,"Velocity":21,"Duration":2695417,"SoundDuration":2695417,"Delta":169971395},{"NoteNumber":42,"Velocity":17,"Duration":1796944,"SoundDuration":1796944,"Delta":171768340},{"NoteNumber":50,"Velocity":21,"Duration":2695417,"SoundDuration":2695417,"Delta":172666813},{"NoteNumber":56,"Velocity":21,"Duration":2695417,"SoundDuration":2695417,"Delta":172666813},{"NoteNumber":58,"Velocity":25,"Duration":2695417,"SoundDuration":2695417,"Delta":172666813},{"NoteNumber":46,"Velocity":17,"Duration":2695417,"SoundDuration":2695417,"Delta":172666813},{"NoteNumber":41,"Velocity":17,"Duration":1796945,"SoundDuration":1796945,"Delta":173565285},{"NoteNumber":61,"Velocity":17,"Duration":1796944,"SoundDuration":1796944,"Delta":175362230},{"NoteNumber":51,"Velocity":21,"Duration":2695417,"SoundDuration":2695417,"Delta":175362230},{"NoteNumber":55,"Velocity":21,"Duration":2695417,"SoundDuration":2695417,"Delta":175362230},{"NoteNumber":63,"Velocity":25,"Duration":2695417,"SoundDuration":2695417,"Delta":175362230},{"NoteNumber":49,"Velocity":14,"Duration":1796944,"SoundDuration":1796944,"Delta":175362230},{"NoteNumber":39,"Velocity":17,"Duration":2695417,"SoundDuration":2695417,"Delta":175362230},{"NoteNumber":59,"Velocity":16,"Duration":1796944,"SoundDuration":1796944,"Delta":177159175},{"NoteNumber":47,"Velocity":13,"Duration":1796944,"SoundDuration":1796944,"Delta":177159175},{"NoteNumber":63,"Velocity":23,"Duration":2695417,"SoundDuration":2695417,"Delta":178057648},{"NoteNumber":55,"Velocity":19,"Duration":2695417,"SoundDuration":2695417,"Delta":178057648},{"NoteNumber":51,"Velocity":19,"Duration":2695417,"SoundDuration":2695417,"Delta":178057648},{"NoteNumber":39,"Velocity":15,"Duration":2695417,"SoundDuration":2695417,"Delta":178057648},{"NoteNumber":58,"Velocity":15,"Duration":561545,"SoundDuration":561545,"Delta":178956120},{"NoteNumber":46,"Velocity":12,"Duration":561545,"SoundDuration":561545,"Delta":178956120},{"NoteNumber":39,"Velocity":17,"Duration":1623740,"SoundDuration":1623740,"Delta":180528447},{"NoteNumber":46,"Velocity":17,"Duration":1511431,"SoundDuration":1511431,"Delta":180640756},{"NoteNumber":67,"Velocity":22,"Duration":1399122,"SoundDuration":1399122,"Delta":180753065},{"NoteNumber":63,"Velocity":22,"Duration":1399122,"SoundDuration":1399122,"Delta":180753065},{"NoteNumber":75,"Velocity":39,"Duration":1399122,"SoundDuration":1399122,"Delta":180753065},{"NoteNumber":55,"Velocity":17,"Duration":1399122,"SoundDuration":1399122,"Delta":180753065},{"NoteNumber":62,"Velocity":23,"Duration":674308,"SoundDuration":674308,"Delta":181477878},{"NoteNumber":74,"Velocity":34,"Duration":674308,"SoundDuration":674308,"Delta":181477878},{"NoteNumber":87,"Velocity":27,"Duration":674308,"SoundDuration":674308,"Delta":182152187},{"NoteNumber":79,"Velocity":27,"Duration":674308,"SoundDuration":674308,"Delta":182152187},{"NoteNumber":60,"Velocity":22,"Duration":674308,"SoundDuration":674308,"Delta":182152187},{"NoteNumber":63,"Velocity":22,"Duration":674308,"SoundDuration":674308,"Delta":182152187},{"NoteNumber":75,"Velocity":22,"Duration":674308,"SoundDuration":674308,"Delta":182152187},{"NoteNumber":72,"Velocity":31,"Duration":674308,"SoundDuration":674308,"Delta":182152187},{"NoteNumber":87,"Velocity":29,"Duration":1348618,"SoundDuration":1348618,"Delta":182826496},{"NoteNumber":79,"Velocity":29,"Duration":1348618,"SoundDuration":1348618,"Delta":182826496},{"NoteNumber":58,"Velocity":23,"Duration":1348618,"SoundDuration":1348618,"Delta":182826496},{"NoteNumber":63,"Velocity":23,"Duration":1348618,"SoundDuration":1348618,"Delta":182826496},{"NoteNumber":75,"Velocity":23,"Duration":1348618,"SoundDuration":1348618,"Delta":182826496},{"NoteNumber":70,"Velocity":35,"Duration":1348618,"SoundDuration":1348618,"Delta":182826496},{"NoteNumber":56,"Velocity":23,"Duration":337154,"SoundDuration":337154,"Delta":184175114},{"NoteNumber":63,"Velocity":23,"Duration":337154,"SoundDuration":337154,"Delta":184175114},{"NoteNumber":68,"Velocity":33,"Duration":337154,"SoundDuration":337154,"Delta":184175114},{"NoteNumber":46,"Velocity":23,"Duration":674308,"SoundDuration":674308,"Delta":184175114},{"NoteNumber":39,"Velocity":23,"Duration":674308,"SoundDuration":674308,"Delta":184175114},{"NoteNumber":55,"Velocity":21,"Duration":337154,"SoundDuration":337154,"Delta":184512269},{"NoteNumber":67,"Velocity":31,"Duration":337154,"SoundDuration":337154,"Delta":184512269},{"NoteNumber":55,"Velocity":28,"Duration":1379627,"SoundDuration":1379627,"Delta":184849423},{"NoteNumber":65,"Velocity":36,"Duration":689814,"SoundDuration":689814,"Delta":184849423},{"NoteNumber":39,"Velocity":23,"Duration":689814,"SoundDuration":689814,"Delta":184849423},{"NoteNumber":46,"Velocity":23,"Duration":689814,"SoundDuration":689814,"Delta":184849423},{"NoteNumber":53,"Velocity":23,"Duration":689814,"SoundDuration":689814,"Delta":184849423},{"NoteNumber":63,"Velocity":32,"Duration":689813,"SoundDuration":689813,"Delta":185539237},{"NoteNumber":51,"Velocity":23,"Duration":689813,"SoundDuration":689813,"Delta":185539237},{"NoteNumber":87,"Velocity":34,"Duration":740923,"SoundDuration":740923,"Delta":186229051},{"NoteNumber":79,"Velocity":34,"Duration":740923,"SoundDuration":740923,"Delta":186229051},{"NoteNumber":55,"Velocity":27,"Duration":740923,"SoundDuration":740923,"Delta":186229051},{"NoteNumber":63,"Velocity":27,"Duration":740923,"SoundDuration":740923,"Delta":186229051},{"NoteNumber":75,"Velocity":27,"Duration":740923,"SoundDuration":740923,"Delta":186229051},{"NoteNumber":67,"Velocity":41,"Duration":740923,"SoundDuration":740923,"Delta":186229051},{"NoteNumber":87,"Velocity":31,"Duration":1481846,"SoundDuration":1481846,"Delta":186969975},{"NoteNumber":79,"Velocity":31,"Duration":1481846,"SoundDuration":1481846,"Delta":186969975},{"NoteNumber":58,"Velocity":25,"Duration":1481846,"SoundDuration":1481846,"Delta":186969975},{"NoteNumber":63,"Velocity":25,"Duration":1481846,"SoundDuration":1481846,"Delta":186969975},{"NoteNumber":75,"Velocity":25,"Duration":1481846,"SoundDuration":1481846,"Delta":186969975},{"NoteNumber":70,"Velocity":36,"Duration":1481846,"SoundDuration":1481846,"Delta":186969975},{"NoteNumber":60,"Velocity":35,"Duration":337154,"SoundDuration":337154,"Delta":188451822},{"NoteNumber":72,"Velocity":40,"Duration":337154,"SoundDuration":337154,"Delta":188451822},{"NoteNumber":43,"Velocity":21,"Duration":726866,"SoundDuration":726866,"Delta":188451822},{"NoteNumber":51,"Velocity":26,"Duration":726866,"SoundDuration":726866,"Delta":188451822},{"NoteNumber":62,"Velocity":33,"Duration":389711,"SoundDuration":389711,"Delta":188788976},{"NoteNumber":74,"Velocity":38,"Duration":389711,"SoundDuration":389711,"Delta":188788976},{"NoteNumber":70,"Velocity":28,"Duration":674308,"SoundDuration":674308,"Delta":189178688},{"NoteNumber":63,"Velocity":28,"Duration":674308,"SoundDuration":674308,"Delta":189178688},{"NoteNumber":75,"Velocity":50,"Duration":674308,"SoundDuration":674308,"Delta":189178688},{"NoteNumber":43,"Velocity":18,"Duration":1348617,"SoundDuration":1348617,"Delta":189178688},{"NoteNumber":51,"Velocity":21,"Duration":1348617,"SoundDuration":1348617,"Delta":189178688},{"NoteNumber":62,"Velocity":27,"Duration":674308,"SoundDuration":674308,"Delta":189852997},{"NoteNumber":74,"Velocity":35,"Duration":674308,"SoundDuration":674308,"Delta":189852997},{"NoteNumber":87,"Velocity":32,"Duration":681972,"SoundDuration":681972,"Delta":190527306},{"NoteNumber":79,"Velocity":32,"Duration":681972,"SoundDuration":681972,"Delta":190527306},{"NoteNumber":60,"Velocity":26,"Duration":681972,"SoundDuration":681972,"Delta":190527306},{"NoteNumber":63,"Velocity":26,"Duration":681972,"SoundDuration":681972,"Delta":190527306},{"NoteNumber":75,"Velocity":26,"Duration":681972,"SoundDuration":681972,"Delta":190527306},{"NoteNumber":72,"Velocity":37,"Duration":681972,"SoundDuration":681972,"Delta":190527306},{"NoteNumber":87,"Velocity":35,"Duration":1363945,"SoundDuration":1363945,"Delta":191209279},{"NoteNumber":79,"Velocity":35,"Duration":1363945,"SoundDuration":1363945,"Delta":191209279},{"NoteNumber":58,"Velocity":28,"Duration":1363945,"SoundDuration":1363945,"Delta":191209279},{"NoteNumber":63,"Velocity":28,"Duration":1363945,"SoundDuration":1363945,"Delta":191209279},{"NoteNumber":75,"Velocity":28,"Duration":1363945,"SoundDuration":1363945,"Delta":191209279},{"NoteNumber":70,"Velocity":42,"Duration":1363945,"SoundDuration":1363945,"Delta":191209279},{"NoteNumber":56,"Velocity":26,"Duration":348918,"SoundDuration":348918,"Delta":192573225},{"NoteNumber":63,"Velocity":26,"Duration":348918,"SoundDuration":348918,"Delta":192573225},{"NoteNumber":68,"Velocity":37,"Duration":348918,"SoundDuration":348918,"Delta":192573225},{"NoteNumber":34,"Velocity":23,"Duration":697836,"SoundDuration":697836,"Delta":192573225},{"NoteNumber":46,"Velocity":26,"Duration":697836,"SoundDuration":697836,"Delta":192573225},{"NoteNumber":55,"Velocity":24,"Duration":348918,"SoundDuration":348918,"Delta":192922143},{"NoteNumber":67,"Velocity":35,"Duration":348918,"SoundDuration":348918,"Delta":192922143},{"NoteNumber":58,"Velocity":32,"Duration":1361279,"SoundDuration":1361279,"Delta":193271061},{"NoteNumber":70,"Velocity":41,"Duration":674308,"SoundDuration":674308,"Delta":193271061},{"NoteNumber":51,"Velocity":26,"Duration":1361279,"SoundDuration":1361279,"Delta":193271061},{"NoteNumber":46,"Velocity":26,"Duration":1361279,"SoundDuration":1361279,"Delta":193271061},{"NoteNumber":55,"Velocity":26,"Duration":1361279,"SoundDuration":1361279,"Delta":193271061},{"NoteNumber":63,"Velocity":36,"Duration":686970,"SoundDuration":686970,"Delta":193945370},{"NoteNumber":67,"Velocity":28,"Duration":164871,"SoundDuration":164871,"Delta":194467470},{"NoteNumber":56,"Velocity":24,"Duration":740923,"SoundDuration":740923,"Delta":194632341},{"NoteNumber":62,"Velocity":24,"Duration":740923,"SoundDuration":740923,"Delta":194632341},{"NoteNumber":65,"Velocity":36,"Duration":740923,"SoundDuration":740923,"Delta":194632341},{"NoteNumber":34,"Velocity":20,"Duration":740923,"SoundDuration":740923,"Delta":194632341},{"NoteNumber":46,"Velocity":20,"Duration":740923,"SoundDuration":740923,"Delta":194632341},{"NoteNumber":63,"Velocity":23,"Duration":1071684,"SoundDuration":1071684,"Delta":195373265},{"NoteNumber":55,"Velocity":23,"Duration":1412670,"SoundDuration":1412670,"Delta":195373265},{"NoteNumber":39,"Velocity":18,"Duration":1412670,"SoundDuration":1412670,"Delta":195373265},{"NoteNumber":46,"Velocity":18,"Duration":1412670,"SoundDuration":1412670,"Delta":195373265},{"NoteNumber":67,"Velocity":23,"Duration":340986,"SoundDuration":340986,"Delta":196444949},{"NoteNumber":67,"Velocity":23,"Duration":691275,"SoundDuration":691275,"Delta":196785935},{"NoteNumber":70,"Velocity":26,"Duration":329742,"SoundDuration":329742,"Delta":196785935},{"NoteNumber":39,"Velocity":26,"Duration":691275,"SoundDuration":691275,"Delta":196785935},{"NoteNumber":79,"Velocity":26,"Duration":361533,"SoundDuration":361533,"Delta":197115678},{"NoteNumber":80,"Velocity":29,"Duration":1363945,"SoundDuration":1363945,"Delta":197477211},{"NoteNumber":68,"Velocity":26,"Duration":1363945,"SoundDuration":1363945,"Delta":197477211},{"NoteNumber":77,"Velocity":46,"Duration":681972,"SoundDuration":681972,"Delta":197477211},{"NoteNumber":51,"Velocity":21,"Duration":1363945,"SoundDuration":1363945,"Delta":197477211},{"NoteNumber":60,"Velocity":21,"Duration":1363945,"SoundDuration":1363945,"Delta":197477211},{"NoteNumber":72,"Velocity":37,"Duration":681972,"SoundDuration":681972,"Delta":198159184},{"NoteNumber":74,"Velocity":37,"Duration":723065,"SoundDuration":723065,"Delta":198841157},{"NoteNumber":65,"Velocity":26,"Duration":723065,"SoundDuration":723065,"Delta":198841157},{"NoteNumber":77,"Velocity":26,"Duration":723065,"SoundDuration":723065,"Delta":198841157},{"NoteNumber":51,"Velocity":21,"Duration":723065,"SoundDuration":723065,"Delta":198841157},{"NoteNumber":56,"Velocity":21,"Duration":723065,"SoundDuration":723065,"Delta":198841157},{"NoteNumber":67,"Velocity":28,"Duration":1425585,"SoundDuration":1425585,"Delta":199564223},{"NoteNumber":79,"Velocity":28,"Duration":1425585,"SoundDuration":1425585,"Delta":199564223},{"NoteNumber":70,"Velocity":42,"Duration":1425585,"SoundDuration":1425585,"Delta":199564223},{"NoteNumber":51,"Velocity":24,"Duration":1425585,"SoundDuration":1425585,"Delta":199564223},{"NoteNumber":58,"Velocity":24,"Duration":1425585,"SoundDuration":1425585,"Delta":199564223},{"NoteNumber":75,"Velocity":26,"Duration":340986,"SoundDuration":340986,"Delta":200648822},{"NoteNumber":70,"Velocity":26,"Duration":681972,"SoundDuration":681972,"Delta":200989808},{"NoteNumber":82,"Velocity":29,"Duration":681972,"SoundDuration":681972,"Delta":200989808},{"NoteNumber":79,"Velocity":39,"Duration":340986,"SoundDuration":340986,"Delta":200989808},{"NoteNumber":39,"Velocity":26,"Duration":681972,"SoundDuration":681972,"Delta":200989808},{"NoteNumber":75,"Velocity":37,"Duration":340986,"SoundDuration":340986,"Delta":201330795},{"NoteNumber":80,"Velocity":29,"Duration":1333794,"SoundDuration":1333794,"Delta":201671781},{"NoteNumber":68,"Velocity":26,"Duration":1333794,"SoundDuration":1333794,"Delta":201671781},{"NoteNumber":77,"Velocity":46,"Duration":329742,"SoundDuration":329742,"Delta":201671781},{"NoteNumber":51,"Velocity":21,"Duration":1333794,"SoundDuration":1333794,"Delta":201671781},{"NoteNumber":60,"Velocity":21,"Duration":1333794,"SoundDuration":1333794,"Delta":201671781},{"NoteNumber":75,"Velocity":37,"Duration":329742,"SoundDuration":329742,"Delta":202001524},{"NoteNumber":77,"Velocity":41,"Duration":337154,"SoundDuration":337154,"Delta":202331267},{"NoteNumber":72,"Velocity":34,"Duration":337154,"SoundDuration":337154,"Delta":202668421},{"NoteNumber":75,"Velocity":37,"Duration":361533,"SoundDuration":361533,"Delta":203005576},{"NoteNumber":65,"Velocity":26,"Duration":723065,"SoundDuration":723065,"Delta":203005576},{"NoteNumber":77,"Velocity":26,"Duration":723065,"SoundDuration":723065,"Delta":203005576},{"NoteNumber":51,"Velocity":21,"Duration":723065,"SoundDuration":723065,"Delta":203005576},{"NoteNumber":56,"Velocity":21,"Duration":723065,"SoundDuration":723065,"Delta":203005576},{"NoteNumber":74,"Velocity":33,"Duration":361532,"SoundDuration":361532,"Delta":203367109},{"NoteNumber":67,"Velocity":26,"Duration":1420902,"SoundDuration":1420902,"Delta":203728642},{"NoteNumber":79,"Velocity":26,"Duration":1420902,"SoundDuration":1420902,"Delta":203728642},{"NoteNumber":75,"Velocity":46,"Duration":361533,"SoundDuration":361533,"Delta":203728642},{"NoteNumber":51,"Velocity":21,"Duration":1420902,"SoundDuration":1420902,"Delta":203728642},{"NoteNumber":58,"Velocity":21,"Duration":1420902,"SoundDuration":1420902,"Delta":203728642},{"NoteNumber":74,"Velocity":41,"Duration":361533,"SoundDuration":361533,"Delta":204090175},{"NoteNumber":75,"Velocity":41,"Duration":348918,"SoundDuration":348918,"Delta":204451708},{"NoteNumber":70,"Velocity":36,"Duration":348918,"SoundDuration":348918,"Delta":204800626},{"NoteNumber":75,"Velocity":33,"Duration":681972,"SoundDuration":681972,"Delta":205149544},{"NoteNumber":72,"Velocity":47,"Duration":340986,"SoundDuration":340986,"Delta":205149544},{"NoteNumber":67,"Velocity":33,"Duration":681972,"SoundDuration":681972,"Delta":205149544},{"NoteNumber":39,"Velocity":35,"Duration":681972,"SoundDuration":681972,"Delta":205149544},{"NoteNumber":51,"Velocity":35,"Duration":681972,"SoundDuration":681972,"Delta":205149544},{"NoteNumber":70,"Velocity":43,"Duration":340986,"SoundDuration":340986,"Delta":205490531},{"NoteNumber":77,"Velocity":39,"Duration":1363945,"SoundDuration":1363945,"Delta":205831517},{"NoteNumber":74,"Velocity":49,"Duration":340986,"SoundDuration":340986,"Delta":205831517},{"NoteNumber":65,"Velocity":39,"Duration":1363945,"SoundDuration":1363945,"Delta":205831517},{"NoteNumber":58,"Velocity":34,"Duration":681972,"SoundDuration":681972,"Delta":205831517},{"NoteNumber":46,"Velocity":27,"Duration":681972,"SoundDuration":681972,"Delta":205831517},{"NoteNumber":72,"Velocity":44,"Duration":340986,"SoundDuration":340986,"Delta":206172504},{"NoteNumber":74,"Velocity":50,"Duration":340986,"SoundDuration":340986,"Delta":206513490},{"NoteNumber":57,"Velocity":37,"Duration":681972,"SoundDuration":681972,"Delta":206513490},{"NoteNumber":45,"Velocity":31,"Duration":681972,"SoundDuration":681972,"Delta":206513490},{"NoteNumber":70,"Velocity":43,"Duration":340986,"SoundDuration":340986,"Delta":206854477},{"NoteNumber":75,"Velocity":57,"Duration":714456,"SoundDuration":714456,"Delta":207195463},{"NoteNumber":72,"Velocity":48,"Duration":357227,"SoundDuration":357227,"Delta":207195463},{"NoteNumber":63,"Velocity":48,"Duration":714456,"SoundDuration":714456,"Delta":207195463},{"NoteNumber":46,"Velocity":34,"Duration":714456,"SoundDuration":714456,"Delta":207195463},{"NoteNumber":55,"Velocity":41,"Duration":714456,"SoundDuration":714456,"Delta":207195463},{"NoteNumber":43,"Velocity":34,"Duration":714456,"SoundDuration":714456,"Delta":207195463},{"NoteNumber":70,"Velocity":46,"Duration":357228,"SoundDuration":357228,"Delta":207552691},{"NoteNumber":65,"Velocity":49,"Duration":1452491,"SoundDuration":1452491,"Delta":207909919},{"NoteNumber":74,"Velocity":57,"Duration":357227,"SoundDuration":357227,"Delta":207909919},{"NoteNumber":77,"Velocity":49,"Duration":1452491,"SoundDuration":1452491,"Delta":207909919},{"NoteNumber":46,"Velocity":42,"Duration":1452491,"SoundDuration":1452491,"Delta":207909919},{"NoteNumber":53,"Velocity":53,"Duration":1452491,"SoundDuration":1452491,"Delta":207909919},{"NoteNumber":41,"Velocity":42,"Duration":1452491,"SoundDuration":1452491,"Delta":207909919},{"NoteNumber":72,"Velocity":55,"Duration":357227,"SoundDuration":357227,"Delta":208267147},{"NoteNumber":74,"Velocity":61,"Duration":357227,"SoundDuration":357227,"Delta":208624375},{"NoteNumber":70,"Velocity":55,"Duration":380807,"SoundDuration":380807,"Delta":208981603},{"NoteNumber":81,"Velocity":62,"Duration":745614,"SoundDuration":745614,"Delta":209362411},{"NoteNumber":77,"Velocity":62,"Duration":745614,"SoundDuration":745614,"Delta":209362411},{"NoteNumber":69,"Velocity":53,"Duration":349731,"SoundDuration":349731,"Delta":209362411},{"NoteNumber":51,"Velocity":46,"Duration":349731,"SoundDuration":349731,"Delta":209362411},{"NoteNumber":39,"Velocity":40,"Duration":349731,"SoundDuration":349731,"Delta":209362411},{"NoteNumber":70,"Velocity":46,"Duration":395882,"SoundDuration":395882,"Delta":209712142},{"NoteNumber":38,"Velocity":41,"Duration":395882,"SoundDuration":395882,"Delta":209712142},{"NoteNumber":50,"Velocity":47,"Duration":395882,"SoundDuration":395882,"Delta":209712142},{"NoteNumber":75,"Velocity":51,"Duration":689814,"SoundDuration":689814,"Delta":210108025},{"NoteNumber":70,"Velocity":51,"Duration":344907,"SoundDuration":344907,"Delta":210108025},{"NoteNumber":79,"Velocity":62,"Duration":689814,"SoundDuration":689814,"Delta":210108025},{"NoteNumber":53,"Velocity":51,"Duration":1379627,"SoundDuration":1379627,"Delta":210108025},{"NoteNumber":41,"Velocity":43,"Duration":1379627,"SoundDuration":1379627,"Delta":210108025},{"NoteNumber":67,"Velocity":49,"Duration":344907,"SoundDuration":344907,"Delta":210452932},{"NoteNumber":77,"Velocity":55,"Duration":689813,"SoundDuration":689813,"Delta":210797839},{"NoteNumber":69,"Velocity":46,"Duration":344906,"SoundDuration":344906,"Delta":210797839},{"NoteNumber":74,"Velocity":46,"Duration":689813,"SoundDuration":689813,"Delta":210797839},{"NoteNumber":67,"Velocity":38,"Duration":344907,"SoundDuration":344907,"Delta":211142746},{"NoteNumber":72,"Velocity":37,"Duration":348918,"SoundDuration":348918,"Delta":211487653},{"NoteNumber":67,"Velocity":37,"Duration":348918,"SoundDuration":348918,"Delta":211487653},{"NoteNumber":75,"Velocity":46,"Duration":348918,"SoundDuration":348918,"Delta":211487653},{"NoteNumber":46,"Velocity":31,"Duration":743758,"SoundDuration":743758,"Delta":211487653},{"NoteNumber":34,"Velocity":25,"Duration":743758,"SoundDuration":743758,"Delta":211487653},{"NoteNumber":70,"Velocity":32,"Duration":394840,"SoundDuration":394840,"Delta":211836571},{"NoteNumber":65,"Velocity":32,"Duration":394840,"SoundDuration":394840,"Delta":211836571},{"NoteNumber":74,"Velocity":39,"Duration":394840,"SoundDuration":394840,"Delta":211836571},{"NoteNumber":68,"Velocity":29,"Duration":1485471,"SoundDuration":1485471,"Delta":212231412},{"NoteNumber":63,"Velocity":25,"Duration":353024,"SoundDuration":353024,"Delta":212231412},{"NoteNumber":72,"Velocity":42,"Duration":706048,"SoundDuration":706048,"Delta":212231412},{"NoteNumber":46,"Velocity":34,"Duration":1485471,"SoundDuration":1485471,"Delta":212231412},{"NoteNumber":34,"Velocity":27,"Duration":1485471,"SoundDuration":1485471,"Delta":212231412},{"NoteNumber":60,"Velocity":33,"Duration":353024,"SoundDuration":353024,"Delta":212584436},{"NoteNumber":67,"Velocity":32,"Duration":779423,"SoundDuration":779423,"Delta":212937461},{"NoteNumber":62,"Velocity":32,"Duration":389711,"SoundDuration":389711,"Delta":212937461},{"NoteNumber":70,"Velocity":38,"Duration":779423,"SoundDuration":779423,"Delta":212937461},{"NoteNumber":58,"Velocity":27,"Duration":389711,"SoundDuration":389711,"Delta":213327172},{"NoteNumber":70,"Velocity":33,"Duration":1013893,"SoundDuration":1013893,"Delta":213716884},{"NoteNumber":63,"Velocity":27,"Duration":456065,"SoundDuration":456065,"Delta":213716884},{"NoteNumber":68,"Velocity":33,"Duration":456065,"SoundDuration":456065,"Delta":213716884},{"NoteNumber":60,"Velocity":27,"Duration":456065,"SoundDuration":456065,"Delta":213716884},{"NoteNumber":46,"Velocity":20,"Duration":734979,"SoundDuration":734979,"Delta":213716884},{"NoteNumber":62,"Velocity":27,"Duration":557828,"SoundDuration":557828,"Delta":214172949},{"NoteNumber":65,"Velocity":27,"Duration":557828,"SoundDuration":557828,"Delta":214172949},{"NoteNumber":56,"Velocity":24,"Duration":278914,"SoundDuration":278914,"Delta":214172949},{"NoteNumber":39,"Velocity":20,"Duration":1652686,"SoundDuration":1652686,"Delta":214451863},{"NoteNumber":63,"Velocity":23,"Duration":1373772,"SoundDuration":1373772,"Delta":214730778},{"NoteNumber":75,"Velocity":40,"Duration":1373772,"SoundDuration":1373772,"Delta":214730778},{"NoteNumber":55,"Velocity":19,"Duration":1373772,"SoundDuration":1373772,"Delta":214730778},{"NoteNumber":74,"Velocity":36,"Duration":674308,"SoundDuration":674308,"Delta":215430241},{"NoteNumber":63,"Velocity":23,"Duration":674308,"SoundDuration":674308,"Delta":216104550},{"NoteNumber":75,"Velocity":23,"Duration":674308,"SoundDuration":674308,"Delta":216104550},{"NoteNumber":72,"Velocity":33,"Duration":674308,"SoundDuration":674308,"Delta":216104550},{"NoteNumber":51,"Velocity":19,"Duration":674308,"SoundDuration":674308,"Delta":216104550},{"NoteNumber":55,"Velocity":19,"Duration":674308,"SoundDuration":674308,"Delta":216104550},{"NoteNumber":63,"Velocity":25,"Duration":1348618,"SoundDuration":1348618,"Delta":216778859},{"NoteNumber":75,"Velocity":25,"Duration":1348618,"SoundDuration":1348618,"Delta":216778859},{"NoteNumber":70,"Velocity":37,"Duration":1348618,"SoundDuration":1348618,"Delta":216778859},{"NoteNumber":51,"Velocity":21,"Duration":1348618,"SoundDuration":1348618,"Delta":216778859},{"NoteNumber":55,"Velocity":21,"Duration":1348618,"SoundDuration":1348618,"Delta":216778859},{"NoteNumber":63,"Velocity":23,"Duration":674308,"SoundDuration":674308,"Delta":218127477},{"NoteNumber":75,"Velocity":23,"Duration":674308,"SoundDuration":674308,"Delta":218127477},{"NoteNumber":68,"Velocity":33,"Duration":337154,"SoundDuration":337154,"Delta":218127477},{"NoteNumber":39,"Velocity":23,"Duration":674308,"SoundDuration":674308,"Delta":218127477},{"NoteNumber":67,"Velocity":31,"Duration":337154,"SoundDuration":337154,"Delta":218464632},{"NoteNumber":75,"Velocity":28,"Duration":1379627,"SoundDuration":1379627,"Delta":218801786},{"NoteNumber":65,"Velocity":36,"Duration":689814,"SoundDuration":689814,"Delta":218801786},{"NoteNumber":51,"Velocity":23,"Duration":1379627,"SoundDuration":1379627,"Delta":218801786},{"NoteNumber":55,"Velocity":23,"Duration":1379627,"SoundDuration":1379627,"Delta":218801786},{"NoteNumber":63,"Velocity":32,"Duration":689813,"SoundDuration":689813,"Delta":219491600},{"NoteNumber":75,"Velocity":24,"Duration":740923,"SoundDuration":740923,"Delta":220181414},{"NoteNumber":67,"Velocity":36,"Duration":740923,"SoundDuration":740923,"Delta":220181414},{"NoteNumber":51,"Velocity":20,"Duration":740923,"SoundDuration":740923,"Delta":220181414},{"NoteNumber":55,"Velocity":20,"Duration":740923,"SoundDuration":740923,"Delta":220181414},{"NoteNumber":63,"Velocity":22,"Duration":1481846,"SoundDuration":1481846,"Delta":220922338},{"NoteNumber":75,"Velocity":22,"Duration":1481846,"SoundDuration":1481846,"Delta":220922338},{"NoteNumber":70,"Velocity":32,"Duration":1481846,"SoundDuration":1481846,"Delta":220922338},{"NoteNumber":51,"Velocity":18,"Duration":1481846,"SoundDuration":1481846,"Delta":220922338},{"NoteNumber":55,"Velocity":18,"Duration":1481846,"SoundDuration":1481846,"Delta":220922338},{"NoteNumber":63,"Velocity":23,"Duration":726866,"SoundDuration":726866,"Delta":222404185},{"NoteNumber":75,"Velocity":23,"Duration":726866,"SoundDuration":726866,"Delta":222404185},{"NoteNumber":72,"Velocity":33,"Duration":337154,"SoundDuration":337154,"Delta":222404185},{"NoteNumber":36,"Velocity":23,"Duration":726866,"SoundDuration":726866,"Delta":222404185},{"NoteNumber":74,"Velocity":31,"Duration":389711,"SoundDuration":389711,"Delta":222741339},{"NoteNumber":63,"Velocity":23,"Duration":1348617,"SoundDuration":1348617,"Delta":223131051},{"NoteNumber":75,"Velocity":40,"Duration":1348617,"SoundDuration":1348617,"Delta":223131051},{"NoteNumber":48,"Velocity":16,"Duration":1348617,"SoundDuration":1348617,"Delta":223131051},{"NoteNumber":55,"Velocity":19,"Duration":1348617,"SoundDuration":1348617,"Delta":223131051},{"NoteNumber":74,"Velocity":36,"Duration":674308,"SoundDuration":674308,"Delta":223805360},{"NoteNumber":63,"Velocity":23,"Duration":681972,"SoundDuration":681972,"Delta":224479669},{"NoteNumber":75,"Velocity":23,"Duration":681972,"SoundDuration":681972,"Delta":224479669},{"NoteNumber":72,"Velocity":33,"Duration":681972,"SoundDuration":681972,"Delta":224479669},{"NoteNumber":48,"Velocity":16,"Duration":681972,"SoundDuration":681972,"Delta":224479669},{"NoteNumber":55,"Velocity":19,"Duration":681972,"SoundDuration":681972,"Delta":224479669},{"NoteNumber":63,"Velocity":25,"Duration":1363945,"SoundDuration":1363945,"Delta":225161642},{"NoteNumber":75,"Velocity":25,"Duration":1363945,"SoundDuration":1363945,"Delta":225161642},{"NoteNumber":70,"Velocity":37,"Duration":1363945,"SoundDuration":1363945,"Delta":225161642},{"NoteNumber":48,"Velocity":17,"Duration":1363945,"SoundDuration":1363945,"Delta":225161642},{"NoteNumber":55,"Velocity":21,"Duration":1363945,"SoundDuration":1363945,"Delta":225161642},{"NoteNumber":63,"Velocity":23,"Duration":697836,"SoundDuration":697836,"Delta":226525588},{"NoteNumber":75,"Velocity":23,"Duration":697836,"SoundDuration":697836,"Delta":226525588},{"NoteNumber":69,"Velocity":33,"Duration":348918,"SoundDuration":348918,"Delta":226525588},{"NoteNumber":38,"Velocity":23,"Duration":697836,"SoundDuration":697836,"Delta":226525588},{"NoteNumber":67,"Velocity":31,"Duration":348918,"SoundDuration":348918,"Delta":226874506},{"NoteNumber":63,"Velocity":20,"Duration":1361279,"SoundDuration":1361279,"Delta":227223424},{"NoteNumber":75,"Velocity":28,"Duration":1361279,"SoundDuration":1361279,"Delta":227223424},{"NoteNumber":69,"Velocity":36,"Duration":674308,"SoundDuration":674308,"Delta":227223424},{"NoteNumber":50,"Velocity":19,"Duration":1361279,"SoundDuration":1361279,"Delta":227223424},{"NoteNumber":54,"Velocity":23,"Duration":1361279,"SoundDuration":1361279,"Delta":227223424},{"NoteNumber":60,"Velocity":23,"Duration":1361279,"SoundDuration":1361279,"Delta":227223424},{"NoteNumber":70,"Velocity":32,"Duration":686970,"SoundDuration":686970,"Delta":227897733},{"NoteNumber":62,"Velocity":19,"Duration":740923,"SoundDuration":740923,"Delta":228584704},{"NoteNumber":74,"Velocity":24,"Duration":740923,"SoundDuration":740923,"Delta":228584704},{"NoteNumber":72,"Velocity":36,"Duration":740923,"SoundDuration":740923,"Delta":228584704},{"NoteNumber":50,"Velocity":20,"Duration":740923,"SoundDuration":740923,"Delta":228584704},{"NoteNumber":54,"Velocity":20,"Duration":740923,"SoundDuration":740923,"Delta":228584704},{"NoteNumber":57,"Velocity":20,"Duration":740923,"SoundDuration":740923,"Delta":228584704},{"NoteNumber":70,"Velocity":26,"Duration":1071684,"SoundDuration":1071684,"Delta":229325627},{"NoteNumber":62,"Velocity":26,"Duration":1071684,"SoundDuration":1071684,"Delta":229325627},{"NoteNumber":74,"Velocity":26,"Duration":1412670,"SoundDuration":1412670,"Delta":229325627},{"NoteNumber":46,"Velocity":20,"Duration":1412670,"SoundDuration":1412670,"Delta":229325627},{"NoteNumber":58,"Velocity":20,"Duration":1412670,"SoundDuration":1412670,"Delta":229325627},{"NoteNumber":74,"Velocity":24,"Duration":340986,"SoundDuration":340986,"Delta":230397311},{"NoteNumber":82,"Velocity":41,"Duration":691275,"SoundDuration":691275,"Delta":230738298},{"NoteNumber":72,"Velocity":23,"Duration":329742,"SoundDuration":329742,"Delta":230738298},{"NoteNumber":62,"Velocity":16,"Duration":510509,"SoundDuration":510509,"Delta":230738298},{"NoteNumber":58,"Velocity":16,"Duration":510509,"SoundDuration":510509,"Delta":230738298},{"NoteNumber":68,"Velocity":19,"Duration":510509,"SoundDuration":510509,"Delta":230738298},{"NoteNumber":70,"Velocity":32,"Duration":361533,"SoundDuration":361533,"Delta":231068041},{"NoteNumber":51,"Velocity":19,"Duration":1331798,"SoundDuration":1331798,"Delta":231248807},{"NoteNumber":58,"Velocity":19,"Duration":1241414,"SoundDuration":1241414,"Delta":231339190},{"NoteNumber":75,"Velocity":23,"Duration":1319608,"SoundDuration":1319608,"Delta":231429574},{"NoteNumber":87,"Velocity":44,"Duration":982454,"SoundDuration":982454,"Delta":231429574},{"NoteNumber":67,"Velocity":19,"Duration":1151031,"SoundDuration":1151031,"Delta":231429574},{"NoteNumber":86,"Velocity":39,"Duration":337154,"SoundDuration":337154,"Delta":232412028},{"NoteNumber":51,"Velocity":19,"Duration":657813,"SoundDuration":657813,"Delta":232580605},{"NoteNumber":58,"Velocity":19,"Duration":573525,"SoundDuration":573525,"Delta":232664894},{"NoteNumber":87,"Velocity":31,"Duration":326157,"SoundDuration":326157,"Delta":232749183},{"NoteNumber":75,"Velocity":31,"Duration":978473,"SoundDuration":978473,"Delta":232749183},{"NoteNumber":67,"Velocity":19,"Duration":489236,"SoundDuration":489236,"Delta":232749183},{"NoteNumber":84,"Velocity":36,"Duration":326157,"SoundDuration":326157,"Delta":233075340},{"NoteNumber":51,"Velocity":19,"Duration":1467709,"SoundDuration":1467709,"Delta":233238419},{"NoteNumber":58,"Velocity":19,"Duration":1386170,"SoundDuration":1386170,"Delta":233319959},{"NoteNumber":87,"Velocity":34,"Duration":326157,"SoundDuration":326157,"Delta":233401498},{"NoteNumber":67,"Velocity":19,"Duration":1304631,"SoundDuration":1304631,"Delta":233401498},{"NoteNumber":74,"Velocity":34,"Duration":326157,"SoundDuration":326157,"Delta":233727656},{"NoteNumber":82,"Velocity":44,"Duration":652315,"SoundDuration":652315,"Delta":233727656},{"NoteNumber":75,"Velocity":23,"Duration":326157,"SoundDuration":326157,"Delta":234053814},{"NoteNumber":72,"Velocity":30,"Duration":326157,"SoundDuration":326157,"Delta":234379971},{"NoteNumber":80,"Velocity":39,"Duration":652315,"SoundDuration":652315,"Delta":234379971},{"NoteNumber":75,"Velocity":26,"Duration":326157,"SoundDuration":326157,"Delta":234706129},{"NoteNumber":51,"Velocity":16,"Duration":652315,"SoundDuration":652315,"Delta":234706129},{"NoteNumber":58,"Velocity":19,"Duration":652315,"SoundDuration":652315,"Delta":234706129},{"NoteNumber":70,"Velocity":26,"Duration":648807,"SoundDuration":648807,"Delta":235032287},{"NoteNumber":79,"Velocity":37,"Duration":326157,"SoundDuration":326157,"Delta":235032287},{"NoteNumber":77,"Velocity":36,"Duration":322650,"SoundDuration":322650,"Delta":235358445},{"NoteNumber":51,"Velocity":16,"Duration":1132782,"SoundDuration":1132782,"Delta":235358445},{"NoteNumber":58,"Velocity":19,"Duration":1132782,"SoundDuration":1132782,"Delta":235358445},{"NoteNumber":68,"Velocity":24,"Duration":648807,"SoundDuration":648807,"Delta":235681095},{"NoteNumber":74,"Velocity":36,"Duration":322649,"SoundDuration":322649,"Delta":235681095},{"NoteNumber":75,"Velocity":37,"Duration":326157,"SoundDuration":326157,"Delta":236003745},{"NoteNumber":67,"Velocity":29,"Duration":322650,"SoundDuration":322650,"Delta":236329902},{"NoteNumber":79,"Velocity":38,"Duration":322650,"SoundDuration":322650,"Delta":236329902},{"NoteNumber":51,"Velocity":16,"Duration":645299,"SoundDuration":645299,"Delta":236491227},{"NoteNumber":56,"Velocity":19,"Duration":564637,"SoundDuration":564637,"Delta":236571890},{"NoteNumber":82,"Velocity":39,"Duration":1649692,"SoundDuration":1649692,"Delta":236652552},{"NoteNumber":65,"Velocity":26,"Duration":322649,"SoundDuration":322649,"Delta":236652552},{"NoteNumber":62,"Velocity":30,"Duration":322650,"SoundDuration":322650,"Delta":236975202},{"NoteNumber":51,"Velocity":16,"Duration":1510624,"SoundDuration":1510624,"Delta":237136527},{"NoteNumber":55,"Velocity":19,"Duration":1429961,"SoundDuration":1429961,"Delta":237217190},{"NoteNumber":63,"Velocity":28,"Duration":329742,"SoundDuration":329742,"Delta":237297852},{"NoteNumber":67,"Velocity":33,"Duration":329742,"SoundDuration":329742,"Delta":237627595},{"NoteNumber":70,"Velocity":44,"Duration":689814,"SoundDuration":689814,"Delta":237957338},{"NoteNumber":72,"Velocity":47,"Duration":344907,"SoundDuration":344907,"Delta":238302245},{"NoteNumber":74,"Velocity":49,"Duration":357227,"SoundDuration":357227,"Delta":238647152},{"NoteNumber":43,"Velocity":25,"Duration":768299,"SoundDuration":768299,"Delta":238647152},{"NoteNumber":51,"Velocity":25,"Duration":2163972,"SoundDuration":2163972,"Delta":238647152},{"NoteNumber":55,"Velocity":28,"Duration":2163972,"SoundDuration":2163972,"Delta":238647152},{"NoteNumber":77,"Velocity":46,"Duration":411071,"SoundDuration":411071,"Delta":239004380},{"NoteNumber":63,"Velocity":28,"Duration":1395672,"SoundDuration":1395672,"Delta":239415451},{"NoteNumber":75,"Velocity":52,"Duration":1395672,"SoundDuration":1395672,"Delta":239415451},{"NoteNumber":45,"Velocity":20,"Duration":1395672,"SoundDuration":1395672,"Delta":239415451},{"NoteNumber":74,"Velocity":42,"Duration":697836,"SoundDuration":697836,"Delta":240113288},{"NoteNumber":63,"Velocity":25,"Duration":714456,"SoundDuration":714456,"Delta":240811124},{"NoteNumber":75,"Velocity":25,"Duration":714456,"SoundDuration":714456,"Delta":240811124},{"NoteNumber":72,"Velocity":36,"Duration":714456,"SoundDuration":714456,"Delta":240811124},{"NoteNumber":46,"Velocity":17,"Duration":1428911,"SoundDuration":1428911,"Delta":240811124},{"NoteNumber":51,"Velocity":21,"Duration":1428911,"SoundDuration":1428911,"Delta":240811124},{"NoteNumber":55,"Velocity":21,"Duration":1428911,"SoundDuration":1428911,"Delta":240811124},{"NoteNumber":70,"Velocity":38,"Duration":1428911,"SoundDuration":1428911,"Delta":241525580},{"NoteNumber":63,"Velocity":23,"Duration":1483884,"SoundDuration":1483884,"Delta":242240036},{"NoteNumber":75,"Velocity":23,"Duration":1483884,"SoundDuration":1483884,"Delta":242240036},{"NoteNumber":48,"Velocity":17,"Duration":1483884,"SoundDuration":1483884,"Delta":242240036},{"NoteNumber":51,"Velocity":21,"Duration":1483884,"SoundDuration":1483884,"Delta":242240036},{"NoteNumber":55,"Velocity":21,"Duration":1483884,"SoundDuration":1483884,"Delta":242240036},{"NoteNumber":68,"Velocity":33,"Duration":384714,"SoundDuration":384714,"Delta":242954492},{"NoteNumber":67,"Velocity":31,"Duration":384714,"SoundDuration":384714,"Delta":243339206},{"NoteNumber":75,"Velocity":28,"Duration":1533068,"SoundDuration":1533068,"Delta":243723920},{"NoteNumber":70,"Velocity":36,"Duration":723065,"SoundDuration":723065,"Delta":243723920},{"NoteNumber":46,"Velocity":23,"Duration":1533068,"SoundDuration":1533068,"Delta":243723920},{"NoteNumber":55,"Velocity":23,"Duration":1533068,"SoundDuration":1533068,"Delta":243723920},{"NoteNumber":63,"Velocity":32,"Duration":810002,"SoundDuration":810002,"Delta":244446986},{"NoteNumber":67,"Velocity":25,"Duration":416782,"SoundDuration":416782,"Delta":245256989},{"NoteNumber":74,"Velocity":21,"Duration":2333993,"SoundDuration":2333993,"Delta":245256989},{"NoteNumber":46,"Velocity":18,"Duration":2333993,"SoundDuration":2333993,"Delta":245256989},{"NoteNumber":56,"Velocity":18,"Duration":2333993,"SoundDuration":2333993,"Delta":245256989},{"NoteNumber":65,"Velocity":32,"Duration":1917211,"SoundDuration":1917211,"Delta":245673771},{"NoteNumber":44,"Velocity":22,"Duration":3072397,"SoundDuration":3072397,"Delta":247590983},{"NoteNumber":51,"Velocity":22,"Duration":2965223,"SoundDuration":2965223,"Delta":247698156},{"NoteNumber":63,"Velocity":35,"Duration":2858050,"SoundDuration":2858050,"Delta":247805330},{"NoteNumber":75,"Velocity":35,"Duration":2858050,"SoundDuration":2858050,"Delta":247805330},{"NoteNumber":72,"Velocity":31,"Duration":952683,"SoundDuration":952683,"Delta":247805330},{"NoteNumber":60,"Velocity":27,"Duration":2858050,"SoundDuration":2858050,"Delta":247805330},{"NoteNumber":70,"Velocity":21,"Duration":1905366,"SoundDuration":1905366,"Delta":248758013},{"NoteNumber":63,"Velocity":23,"Duration":3051882,"SoundDuration":3051882,"Delta":250663380},{"NoteNumber":75,"Velocity":23,"Duration":3051882,"SoundDuration":3051882,"Delta":250663380},{"NoteNumber":69,"Velocity":21,"Duration":1017293,"SoundDuration":1017293,"Delta":250663380},{"NoteNumber":48,"Velocity":15,"Duration":3051882,"SoundDuration":3051882,"Delta":250663380},{"NoteNumber":51,"Velocity":18,"Duration":3051882,"SoundDuration":3051882,"Delta":250663380},{"NoteNumber":68,"Velocity":17,"Duration":2034588,"SoundDuration":2034588,"Delta":251680674},{"NoteNumber":63,"Velocity":17,"Duration":1071811,"SoundDuration":1071811,"Delta":253715262},{"NoteNumber":75,"Velocity":17,"Duration":3215434,"SoundDuration":3215434,"Delta":253715262},{"NoteNumber":67,"Velocity":18,"Duration":1071811,"SoundDuration":1071811,"Delta":253715262},{"NoteNumber":46,"Velocity":14,"Duration":3215434,"SoundDuration":3215434,"Delta":253715262},{"NoteNumber":55,"Velocity":14,"Duration":3215434,"SoundDuration":3215434,"Delta":253715262},{"NoteNumber":70,"Velocity":21,"Duration":1071811,"SoundDuration":1071811,"Delta":254787074},{"NoteNumber":63,"Velocity":21,"Duration":1071811,"SoundDuration":1071811,"Delta":255858885},{"NoteNumber":74,"Velocity":17,"Duration":4740008,"SoundDuration":4740008,"Delta":256930697},{"NoteNumber":67,"Velocity":19,"Duration":577144,"SoundDuration":577144,"Delta":256930697},{"NoteNumber":46,"Velocity":14,"Duration":4740008,"SoundDuration":4740008,"Delta":256930697},{"NoteNumber":56,"Velocity":14,"Duration":4740008,"SoundDuration":4740008,"Delta":256930697},{"NoteNumber":65,"Velocity":18,"Duration":3524294,"SoundDuration":3524294,"Delta":257507842},{"NoteNumber":63,"Velocity":17,"Duration":638569,"SoundDuration":638569,"Delta":261032136},{"NoteNumber":63,"Velocity":21,"Duration":2554278,"SoundDuration":2554278,"Delta":261670706},{"NoteNumber":75,"Velocity":24,"Duration":2554278,"SoundDuration":2554278,"Delta":261670706},{"NoteNumber":51,"Velocity":13,"Duration":2554278,"SoundDuration":2554278,"Delta":261670706},{"NoteNumber":55,"Velocity":17,"Duration":2554278,"SoundDuration":2554278,"Delta":261670706},{"NoteNumber":46,"Velocity":12,"Duration":2554277,"SoundDuration":2554277,"Delta":265502123},{"NoteNumber":55,"Velocity":15,"Duration":2554277,"SoundDuration":2554277,"Delta":265502123},{"NoteNumber":58,"Velocity":15,"Duration":2554277,"SoundDuration":2554277,"Delta":265502123},{"NoteNumber":27,"Velocity":10,"Duration":2554277,"SoundDuration":2554277,"Delta":265502123},{"NoteNumber":39,"Velocity":12,"Duration":2554277,"SoundDuration":2554277,"Delta":265502123},{"NoteNumber":67,"Velocity":20,"Duration":3831416,"SoundDuration":3831416,"Delta":269333540},{"NoteNumber":75,"Velocity":24,"Duration":3831416,"SoundDuration":3831416,"Delta":269333540},{"NoteNumber":79,"Velocity":24,"Duration":3831416,"SoundDuration":3831416,"Delta":269333540},{"NoteNumber":51,"Velocity":11,"Duration":3831416,"SoundDuration":3831416,"Delta":269333540},{"NoteNumber":55,"Velocity":11,"Duration":3831416,"SoundDuration":3831416,"Delta":269333540},{"NoteNumber":63,"Velocity":14,"Duration":3831416,"SoundDuration":3831416,"Delta":269333540}],"license":{"name":"Creative Commons Attribution-ShareAlike 3.0 Germany","url":"http://creativecommons.org/licenses/by-sa/3.0/de/deed.en","text":"The MIDI files in this folder were downloaded from http://www.piano-midi.de and are licensed under the Creative Commons Attribution-ShareAlike 3.0 Germany license by Bernd Krueger.\n\nThe MIDI, audio(MP3, OGG) and video files of Bernd Krueger are licensed under the cc-by-sa Germany License . This means, that you can use and adapt the files, as long as you attribute to the copyright holder Name: Bernd Krueger Source: http://www.piano-midi.de The distribution or public playback of the files is only allowed under identical license conditions . The scores are open source.","attribution":"Bernd Krueger","attributionUrl":"http://www.piano-midi.de"}}