{"title":"Piano Sonata No. 1 in C major, Op. 1: IV. Finale: Allegro con fuoco","artist":"Brahms","durationMs":414933,"midiSha256":"a347c5db99cd54caff091b1a2dff67ad84be5dd58e150e1b17ded01eb18211dd","midiObject":[{"NoteNumber":72,"Velocity":67,"Duration":149626,"SoundDuration":149626,"Delta":0},{"NoteNumber":76,"Velocity":67,"Duration":130922,"SoundDuration":130922,"Delta":18703},{"NoteNumber":84,"Velocity":80,"Duration":112219,"SoundDuration":112219,"Delta":37407},{"NoteNumber":36,"Velocity":60,"Duration":74813,"SoundDuration":74813,"Delta":37407},{"NoteNumber":43,"Velocity":49,"Duration":74813,"SoundDuration":74813,"Delta":187033},{"NoteNumber":60,"Velocity":45,"Duration":74813,"SoundDuration":74813,"Delta":336659},{"NoteNumber":64,"Velocity":54,"Duration":74813,"SoundDuration":74813,"Delta":336659},{"NoteNumber":48,"Velocity":49,"Duration":74813,"SoundDuration":74813,"Delta":336659},{"NoteNumber":64,"Velocity":59,"Duration":74813,"SoundDuration":74813,"Delta":486285},{"NoteNumber":60,"Velocity":50,"Duration":74813,"SoundDuration":74813,"Delta":486285},{"NoteNumber":36,"Velocity":56,"Duration":74813,"SoundDuration":74813,"Delta":486285},{"NoteNumber":62,"Velocity":45,"Duration":74813,"SoundDuration":74813,"Delta":635911},{"NoteNumber":65,"Velocity":53,"Duration":74813,"SoundDuration":74813,"Delta":635911},{"NoteNumber":43,"Velocity":44,"Duration":74813,"SoundDuration":74813,"Delta":635911},{"NoteNumber":67,"Velocity":53,"Duration":74813,"SoundDuration":74813,"Delta":785537},{"NoteNumber":64,"Velocity":45,"Duration":74813,"SoundDuration":74813,"Delta":785537},{"NoteNumber":48,"Velocity":44,"Duration":74813,"SoundDuration":74813,"Delta":785537},{"NoteNumber":65,"Velocity":50,"Duration":74813,"SoundDuration":74813,"Delta":935163},{"NoteNumber":69,"Velocity":59,"Duration":74813,"SoundDuration":74813,"Delta":935163},{"NoteNumber":36,"Velocity":56,"Duration":74813,"SoundDuration":74813,"Delta":935163},{"NoteNumber":67,"Velocity":54,"Duration":76922,"SoundDuration":76922,"Delta":1084789},{"NoteNumber":64,"Velocity":45,"Duration":76922,"SoundDuration":76922,"Delta":1084789},{"NoteNumber":43,"Velocity":46,"Duration":76922,"SoundDuration":76922,"Delta":1084789},{"NoteNumber":72,"Velocity":67,"Duration":150401,"SoundDuration":150401,"Delta":1200173},{"NoteNumber":76,"Velocity":67,"Duration":131170,"SoundDuration":131170,"Delta":1219404},{"NoteNumber":84,"Velocity":80,"Duration":111940,"SoundDuration":111940,"Delta":1238635},{"NoteNumber":48,"Velocity":46,"Duration":74626,"SoundDuration":74626,"Delta":1238635},{"NoteNumber":64,"Velocity":59,"Duration":74626,"SoundDuration":74626,"Delta":1387888},{"NoteNumber":60,"Velocity":50,"Duration":74626,"SoundDuration":74626,"Delta":1387888},{"NoteNumber":36,"Velocity":60,"Duration":74626,"SoundDuration":74626,"Delta":1387888},{"NoteNumber":62,"Velocity":45,"Duration":74626,"SoundDuration":74626,"Delta":1537142},{"NoteNumber":65,"Velocity":53,"Duration":74626,"SoundDuration":74626,"Delta":1537142},{"NoteNumber":43,"Velocity":49,"Duration":74626,"SoundDuration":74626,"Delta":1537142},{"NoteNumber":67,"Velocity":53,"Duration":74626,"SoundDuration":74626,"Delta":1686395},{"NoteNumber":64,"Velocity":45,"Duration":74626,"SoundDuration":74626,"Delta":1686395},{"NoteNumber":48,"Velocity":49,"Duration":74626,"SoundDuration":74626,"Delta":1686395},{"NoteNumber":65,"Velocity":50,"Duration":74626,"SoundDuration":74626,"Delta":1835649},{"NoteNumber":69,"Velocity":59,"Duration":74626,"SoundDuration":74626,"Delta":1835649},{"NoteNumber":36,"Velocity":56,"Duration":74626,"SoundDuration":74626,"Delta":1835649},{"NoteNumber":64,"Velocity":45,"Duration":74626,"SoundDuration":74626,"Delta":1984902},{"NoteNumber":67,"Velocity":54,"Duration":74626,"SoundDuration":74626,"Delta":1984902},{"NoteNumber":43,"Velocity":44,"Duration":74626,"SoundDuration":74626,"Delta":1984902},{"NoteNumber":69,"Velocity":53,"Duration":74626,"SoundDuration":74626,"Delta":2134156},{"NoteNumber":65,"Velocity":45,"Duration":74626,"SoundDuration":74626,"Delta":2134156},{"NoteNumber":48,"Velocity":44,"Duration":74626,"SoundDuration":74626,"Delta":2134156},{"NoteNumber":71,"Velocity":59,"Duration":74626,"SoundDuration":74626,"Delta":2283409},{"NoteNumber":67,"Velocity":50,"Duration":74626,"SoundDuration":74626,"Delta":2283409},{"NoteNumber":36,"Velocity":56,"Duration":74626,"SoundDuration":74626,"Delta":2283409},{"NoteNumber":72,"Velocity":54,"Duration":74626,"SoundDuration":74626,"Delta":2432663},{"NoteNumber":69,"Velocity":45,"Duration":74626,"SoundDuration":74626,"Delta":2432663},{"NoteNumber":43,"Velocity":46,"Duration":74626,"SoundDuration":74626,"Delta":2432663},{"NoteNumber":74,"Velocity":53,"Duration":76335,"SoundDuration":76335,"Delta":2581916},{"NoteNumber":71,"Velocity":45,"Duration":76335,"SoundDuration":76335,"Delta":2581916},{"NoteNumber":48,"Velocity":46,"Duration":76335,"SoundDuration":76335,"Delta":2581916},{"NoteNumber":76,"Velocity":67,"Duration":149830,"SoundDuration":149830,"Delta":2696420},{"NoteNumber":79,"Velocity":67,"Duration":137107,"SoundDuration":137107,"Delta":2709143},{"NoteNumber":84,"Velocity":67,"Duration":124385,"SoundDuration":124385,"Delta":2721865},{"NoteNumber":88,"Velocity":80,"Duration":111662,"SoundDuration":111662,"Delta":2734588},{"NoteNumber":36,"Velocity":60,"Duration":74441,"SoundDuration":74441,"Delta":2734588},{"NoteNumber":43,"Velocity":49,"Duration":74441,"SoundDuration":74441,"Delta":2883472},{"NoteNumber":64,"Velocity":45,"Duration":74441,"SoundDuration":74441,"Delta":3032355},{"NoteNumber":67,"Velocity":54,"Duration":74441,"SoundDuration":74441,"Delta":3032355},{"NoteNumber":48,"Velocity":49,"Duration":74441,"SoundDuration":74441,"Delta":3032355},{"NoteNumber":67,"Velocity":60,"Duration":74441,"SoundDuration":74441,"Delta":3181239},{"NoteNumber":64,"Velocity":51,"Duration":74441,"SoundDuration":74441,"Delta":3181239},{"NoteNumber":36,"Velocity":57,"Duration":74441,"SoundDuration":74441,"Delta":3181239},{"NoteNumber":65,"Velocity":46,"Duration":74441,"SoundDuration":74441,"Delta":3330122},{"NoteNumber":69,"Velocity":56,"Duration":74441,"SoundDuration":74441,"Delta":3330122},{"NoteNumber":43,"Velocity":46,"Duration":74441,"SoundDuration":74441,"Delta":3330122},{"NoteNumber":71,"Velocity":57,"Duration":74441,"SoundDuration":74441,"Delta":3479006},{"NoteNumber":67,"Velocity":48,"Duration":74441,"SoundDuration":74441,"Delta":3479006},{"NoteNumber":48,"Velocity":47,"Duration":74441,"SoundDuration":74441,"Delta":3479006},{"NoteNumber":72,"Velocity":65,"Duration":74441,"SoundDuration":74441,"Delta":3627889},{"NoteNumber":69,"Velocity":55,"Duration":74441,"SoundDuration":74441,"Delta":3627889},{"NoteNumber":36,"Velocity":62,"Duration":74441,"SoundDuration":74441,"Delta":3627889},{"NoteNumber":71,"Velocity":61,"Duration":76922,"SoundDuration":76922,"Delta":3776773},{"NoteNumber":67,"Velocity":51,"Duration":76922,"SoundDuration":76922,"Delta":3776773},{"NoteNumber":43,"Velocity":52,"Duration":76922,"SoundDuration":76922,"Delta":3776773},{"NoteNumber":76,"Velocity":78,"Duration":150401,"SoundDuration":150401,"Delta":3892157},{"NoteNumber":79,"Velocity":78,"Duration":137581,"SoundDuration":137581,"Delta":3904978},{"NoteNumber":84,"Velocity":78,"Duration":124760,"SoundDuration":124760,"Delta":3917798},{"NoteNumber":88,"Velocity":93,"Duration":111940,"SoundDuration":111940,"Delta":3930619},{"NoteNumber":48,"Velocity":53,"Duration":74626,"SoundDuration":74626,"Delta":3930619},{"NoteNumber":67,"Velocity":54,"Duration":74626,"SoundDuration":74626,"Delta":4079872},{"NoteNumber":71,"Velocity":65,"Duration":74626,"SoundDuration":74626,"Delta":4079872},{"NoteNumber":36,"Velocity":66,"Duration":74626,"SoundDuration":74626,"Delta":4079872},{"NoteNumber":72,"Velocity":60,"Duration":74626,"SoundDuration":74626,"Delta":4229126},{"NoteNumber":69,"Velocity":50,"Duration":74626,"SoundDuration":74626,"Delta":4229126},{"NoteNumber":43,"Velocity":55,"Duration":74626,"SoundDuration":74626,"Delta":4229126},{"NoteNumber":71,"Velocity":51,"Duration":74626,"SoundDuration":74626,"Delta":4378379},{"NoteNumber":74,"Velocity":62,"Duration":74626,"SoundDuration":74626,"Delta":4378379},{"NoteNumber":48,"Velocity":56,"Duration":74626,"SoundDuration":74626,"Delta":4378379},{"NoteNumber":76,"Velocity":71,"Duration":74626,"SoundDuration":74626,"Delta":4527633},{"NoteNumber":72,"Velocity":59,"Duration":74626,"SoundDuration":74626,"Delta":4527633},{"NoteNumber":36,"Velocity":67,"Duration":74626,"SoundDuration":74626,"Delta":4527633},{"NoteNumber":71,"Velocity":56,"Duration":74626,"SoundDuration":74626,"Delta":4676886},{"NoteNumber":74,"Velocity":66,"Duration":74626,"SoundDuration":74626,"Delta":4676886},{"NoteNumber":43,"Velocity":54,"Duration":74626,"SoundDuration":74626,"Delta":4676886},{"NoteNumber":72,"Velocity":56,"Duration":74626,"SoundDuration":74626,"Delta":4826140},{"NoteNumber":76,"Velocity":67,"Duration":74626,"SoundDuration":74626,"Delta":4826140},{"NoteNumber":48,"Velocity":55,"Duration":74626,"SoundDuration":74626,"Delta":4826140},{"NoteNumber":78,"Velocity":77,"Duration":74626,"SoundDuration":74626,"Delta":4975393},{"NoteNumber":74,"Velocity":64,"Duration":74626,"SoundDuration":74626,"Delta":4975393},{"NoteNumber":36,"Velocity":72,"Duration":74626,"SoundDuration":74626,"Delta":4975393},{"NoteNumber":79,"Velocity":72,"Duration":76922,"SoundDuration":76922,"Delta":5124647},{"NoteNumber":76,"Velocity":60,"Duration":76922,"SoundDuration":76922,"Delta":5124647},{"NoteNumber":43,"Velocity":61,"Duration":76922,"SoundDuration":76922,"Delta":5124647},{"NoteNumber":78,"Velocity":61,"Duration":82873,"SoundDuration":82873,"Delta":5278493},{"NoteNumber":81,"Velocity":72,"Duration":82873,"SoundDuration":82873,"Delta":5278493},{"NoteNumber":48,"Velocity":62,"Duration":82873,"SoundDuration":82873,"Delta":5278493},{"NoteNumber":91,"Velocity":76,"Duration":615383,"SoundDuration":615383,"Delta":5444239},{"NoteNumber":83,"Velocity":76,"Duration":615383,"SoundDuration":615383,"Delta":5444239},{"NoteNumber":95,"Velocity":90,"Duration":615383,"SoundDuration":615383,"Delta":5444239},{"NoteNumber":35,"Velocity":73,"Duration":76922,"SoundDuration":76922,"Delta":5444239},{"NoteNumber":43,"Velocity":52,"Duration":76922,"SoundDuration":76922,"Delta":5598085},{"NoteNumber":47,"Velocity":53,"Duration":76922,"SoundDuration":76922,"Delta":5751931},{"NoteNumber":35,"Velocity":71,"Duration":76922,"SoundDuration":76922,"Delta":5905777},{"NoteNumber":93,"Velocity":81,"Duration":76923,"SoundDuration":76923,"Delta":6059623},{"NoteNumber":81,"Velocity":68,"Duration":76923,"SoundDuration":76923,"Delta":6059623},{"NoteNumber":90,"Velocity":68,"Duration":76923,"SoundDuration":76923,"Delta":6059623},{"NoteNumber":43,"Velocity":56,"Duration":76923,"SoundDuration":76923,"Delta":6059623},{"NoteNumber":79,"Velocity":68,"Duration":76922,"SoundDuration":76922,"Delta":6213469},{"NoteNumber":91,"Velocity":81,"Duration":76922,"SoundDuration":76922,"Delta":6213469},{"NoteNumber":88,"Velocity":68,"Duration":76922,"SoundDuration":76922,"Delta":6213469},{"NoteNumber":47,"Velocity":56,"Duration":76922,"SoundDuration":76922,"Delta":6213469},{"NoteNumber":90,"Velocity":76,"Duration":615383,"SoundDuration":615383,"Delta":6367315},{"NoteNumber":81,"Velocity":76,"Duration":615383,"SoundDuration":615383,"Delta":6367315},{"NoteNumber":93,"Velocity":90,"Duration":615383,"SoundDuration":615383,"Delta":6367315},{"NoteNumber":35,"Velocity":73,"Duration":76922,"SoundDuration":76922,"Delta":6367315},{"NoteNumber":42,"Velocity":52,"Duration":76922,"SoundDuration":76922,"Delta":6521161},{"NoteNumber":47,"Velocity":53,"Duration":76923,"SoundDuration":76923,"Delta":6675007},{"NoteNumber":35,"Velocity":71,"Duration":76923,"SoundDuration":76923,"Delta":6828853},{"NoteNumber":88,"Velocity":68,"Duration":76923,"SoundDuration":76923,"Delta":6982699},{"NoteNumber":91,"Velocity":81,"Duration":76923,"SoundDuration":76923,"Delta":6982699},{"NoteNumber":79,"Velocity":68,"Duration":76923,"SoundDuration":76923,"Delta":6982699},{"NoteNumber":42,"Velocity":56,"Duration":76923,"SoundDuration":76923,"Delta":6982699},{"NoteNumber":90,"Velocity":81,"Duration":76923,"SoundDuration":76923,"Delta":7136545},{"NoteNumber":87,"Velocity":68,"Duration":76923,"SoundDuration":76923,"Delta":7136545},{"NoteNumber":78,"Velocity":68,"Duration":76923,"SoundDuration":76923,"Delta":7136545},{"NoteNumber":47,"Velocity":56,"Duration":76923,"SoundDuration":76923,"Delta":7136545},{"NoteNumber":88,"Velocity":76,"Duration":76923,"SoundDuration":76923,"Delta":7290391},{"NoteNumber":79,"Velocity":76,"Duration":76923,"SoundDuration":76923,"Delta":7290391},{"NoteNumber":91,"Velocity":90,"Duration":76923,"SoundDuration":76923,"Delta":7290391},{"NoteNumber":35,"Velocity":71,"Duration":76923,"SoundDuration":76923,"Delta":7290391},{"NoteNumber":90,"Velocity":81,"Duration":76922,"SoundDuration":76922,"Delta":7444237},{"NoteNumber":87,"Velocity":68,"Duration":76922,"SoundDuration":76922,"Delta":7444237},{"NoteNumber":78,"Velocity":68,"Duration":76922,"SoundDuration":76922,"Delta":7444237},{"NoteNumber":40,"Velocity":56,"Duration":76922,"SoundDuration":76922,"Delta":7444237},{"NoteNumber":85,"Velocity":68,"Duration":76922,"SoundDuration":76922,"Delta":7598083},{"NoteNumber":88,"Velocity":81,"Duration":76922,"SoundDuration":76922,"Delta":7598083},{"NoteNumber":76,"Velocity":68,"Duration":76922,"SoundDuration":76922,"Delta":7598083},{"NoteNumber":47,"Velocity":56,"Duration":76922,"SoundDuration":76922,"Delta":7598083},{"NoteNumber":78,"Velocity":76,"Duration":76923,"SoundDuration":76923,"Delta":7751929},{"NoteNumber":87,"Velocity":76,"Duration":76923,"SoundDuration":76923,"Delta":7751929},{"NoteNumber":90,"Velocity":90,"Duration":76923,"SoundDuration":76923,"Delta":7751929},{"NoteNumber":35,"Velocity":71,"Duration":76923,"SoundDuration":76923,"Delta":7751929},{"NoteNumber":39,"Velocity":56,"Duration":78740,"SoundDuration":78740,"Delta":7905775},{"NoteNumber":71,"Velocity":68,"Duration":83799,"SoundDuration":83799,"Delta":8063255},{"NoteNumber":83,"Velocity":81,"Duration":83799,"SoundDuration":83799,"Delta":8063255},{"NoteNumber":47,"Velocity":56,"Duration":83799,"SoundDuration":83799,"Delta":8063255},{"NoteNumber":83,"Velocity":76,"Duration":607594,"SoundDuration":607594,"Delta":8230853},{"NoteNumber":95,"Velocity":90,"Duration":607594,"SoundDuration":607594,"Delta":8230853},{"NoteNumber":92,"Velocity":76,"Duration":607594,"SoundDuration":607594,"Delta":8230853},{"NoteNumber":28,"Velocity":73,"Duration":75949,"SoundDuration":75949,"Delta":8230853},{"NoteNumber":35,"Velocity":52,"Duration":75949,"SoundDuration":75949,"Delta":8382752},{"NoteNumber":40,"Velocity":53,"Duration":75949,"SoundDuration":75949,"Delta":8534650},{"NoteNumber":28,"Velocity":71,"Duration":75949,"SoundDuration":75949,"Delta":8686549},{"NoteNumber":81,"Velocity":68,"Duration":75949,"SoundDuration":75949,"Delta":8838447},{"NoteNumber":93,"Velocity":81,"Duration":75949,"SoundDuration":75949,"Delta":8838447},{"NoteNumber":90,"Velocity":68,"Duration":75949,"SoundDuration":75949,"Delta":8838447},{"NoteNumber":35,"Velocity":56,"Duration":75949,"SoundDuration":75949,"Delta":8838447},{"NoteNumber":80,"Velocity":68,"Duration":77921,"SoundDuration":77921,"Delta":8990346},{"NoteNumber":92,"Velocity":81,"Duration":77921,"SoundDuration":77921,"Delta":8990346},{"NoteNumber":88,"Velocity":68,"Duration":77921,"SoundDuration":77921,"Delta":8990346},{"NoteNumber":40,"Velocity":56,"Duration":77921,"SoundDuration":77921,"Delta":8990346},{"NoteNumber":81,"Velocity":76,"Duration":607594,"SoundDuration":607594,"Delta":9146190},{"NoteNumber":93,"Velocity":90,"Duration":607594,"SoundDuration":607594,"Delta":9146190},{"NoteNumber":90,"Velocity":76,"Duration":607594,"SoundDuration":607594,"Delta":9146190},{"NoteNumber":28,"Velocity":73,"Duration":75949,"SoundDuration":75949,"Delta":9146190},{"NoteNumber":35,"Velocity":52,"Duration":75949,"SoundDuration":75949,"Delta":9298088},{"NoteNumber":40,"Velocity":53,"Duration":75949,"SoundDuration":75949,"Delta":9449987},{"NoteNumber":28,"Velocity":71,"Duration":75949,"SoundDuration":75949,"Delta":9601885},{"NoteNumber":88,"Velocity":68,"Duration":75949,"SoundDuration":75949,"Delta":9753784},{"NoteNumber":92,"Velocity":81,"Duration":75949,"SoundDuration":75949,"Delta":9753784},{"NoteNumber":80,"Velocity":68,"Duration":75949,"SoundDuration":75949,"Delta":9753784},{"NoteNumber":35,"Velocity":56,"Duration":75949,"SoundDuration":75949,"Delta":9753784},{"NoteNumber":90,"Velocity":81,"Duration":78740,"SoundDuration":78740,"Delta":9905682},{"NoteNumber":78,"Velocity":68,"Duration":78740,"SoundDuration":78740,"Delta":9905682},{"NoteNumber":87,"Velocity":68,"Duration":78740,"SoundDuration":78740,"Delta":9905682},{"NoteNumber":40,"Velocity":56,"Duration":78740,"SoundDuration":78740,"Delta":9905682},{"NoteNumber":88,"Velocity":76,"Duration":76142,"SoundDuration":76142,"Delta":10063163},{"NoteNumber":80,"Velocity":76,"Duration":76142,"SoundDuration":76142,"Delta":10063163},{"NoteNumber":92,"Velocity":90,"Duration":76142,"SoundDuration":76142,"Delta":10063163},{"NoteNumber":28,"Velocity":71,"Duration":76142,"SoundDuration":76142,"Delta":10063163},{"NoteNumber":87,"Velocity":68,"Duration":76142,"SoundDuration":76142,"Delta":10215447},{"NoteNumber":78,"Velocity":68,"Duration":76142,"SoundDuration":76142,"Delta":10215447},{"NoteNumber":90,"Velocity":81,"Duration":76142,"SoundDuration":76142,"Delta":10215447},{"NoteNumber":35,"Velocity":56,"Duration":76142,"SoundDuration":76142,"Delta":10215447},{"NoteNumber":76,"Velocity":68,"Duration":76142,"SoundDuration":76142,"Delta":10367732},{"NoteNumber":88,"Velocity":81,"Duration":76142,"SoundDuration":76142,"Delta":10367732},{"NoteNumber":85,"Velocity":68,"Duration":76142,"SoundDuration":76142,"Delta":10367732},{"NoteNumber":40,"Velocity":56,"Duration":76142,"SoundDuration":76142,"Delta":10367732},{"NoteNumber":78,"Velocity":76,"Duration":76142,"SoundDuration":76142,"Delta":10520016},{"NoteNumber":90,"Velocity":90,"Duration":76142,"SoundDuration":76142,"Delta":10520016},{"NoteNumber":87,"Velocity":76,"Duration":76142,"SoundDuration":76142,"Delta":10520016},{"NoteNumber":28,"Velocity":71,"Duration":76142,"SoundDuration":76142,"Delta":10520016},{"NoteNumber":35,"Velocity":56,"Duration":76142,"SoundDuration":76142,"Delta":10672301},{"NoteNumber":71,"Velocity":68,"Duration":83799,"SoundDuration":83799,"Delta":10824585},{"NoteNumber":83,"Velocity":81,"Duration":83799,"SoundDuration":83799,"Delta":10824585},{"NoteNumber":40,"Velocity":56,"Duration":83799,"SoundDuration":83799,"Delta":10824585},{"NoteNumber":83,"Velocity":82,"Duration":78947,"SoundDuration":78947,"Delta":10992183},{"NoteNumber":92,"Velocity":97,"Duration":78947,"SoundDuration":78947,"Delta":10992183},{"NoteNumber":95,"Velocity":97,"Duration":78947,"SoundDuration":78947,"Delta":10992183},{"NoteNumber":28,"Velocity":71,"Duration":78947,"SoundDuration":78947,"Delta":10992183},{"NoteNumber":88,"Velocity":77,"Duration":348836,"SoundDuration":348836,"Delta":11307972},{"NoteNumber":92,"Velocity":91,"Duration":348836,"SoundDuration":348836,"Delta":11307972},{"NoteNumber":80,"Velocity":77,"Duration":348836,"SoundDuration":348836,"Delta":11307972},{"NoteNumber":52,"Velocity":53,"Duration":348836,"SoundDuration":348836,"Delta":11307972},{"NoteNumber":56,"Velocity":53,"Duration":348836,"SoundDuration":348836,"Delta":11307972},{"NoteNumber":59,"Velocity":53,"Duration":348836,"SoundDuration":348836,"Delta":11307972},{"NoteNumber":64,"Velocity":63,"Duration":348836,"SoundDuration":348836,"Delta":11307972},{"NoteNumber":88,"Velocity":77,"Duration":523255,"SoundDuration":523255,"Delta":11656809},{"NoteNumber":93,"Velocity":91,"Duration":523255,"SoundDuration":523255,"Delta":11656809},{"NoteNumber":81,"Velocity":77,"Duration":523255,"SoundDuration":523255,"Delta":11656809},{"NoteNumber":61,"Velocity":53,"Duration":523255,"SoundDuration":523255,"Delta":11656809},{"NoteNumber":52,"Velocity":53,"Duration":523255,"SoundDuration":523255,"Delta":11656809},{"NoteNumber":57,"Velocity":53,"Duration":523255,"SoundDuration":523255,"Delta":11656809},{"NoteNumber":64,"Velocity":63,"Duration":523255,"SoundDuration":523255,"Delta":11656809},{"NoteNumber":88,"Velocity":75,"Duration":259061,"SoundDuration":259061,"Delta":12180065},{"NoteNumber":90,"Velocity":89,"Duration":259061,"SoundDuration":259061,"Delta":12180065},{"NoteNumber":78,"Velocity":75,"Duration":259061,"SoundDuration":259061,"Delta":12180065},{"NoteNumber":57,"Velocity":52,"Duration":259061,"SoundDuration":259061,"Delta":12180065},{"NoteNumber":64,"Velocity":62,"Duration":259061,"SoundDuration":259061,"Delta":12180065},{"NoteNumber":52,"Velocity":52,"Duration":259061,"SoundDuration":259061,"Delta":12180065},{"NoteNumber":54,"Velocity":52,"Duration":259061,"SoundDuration":259061,"Delta":12180065},{"NoteNumber":88,"Velocity":67,"Duration":83841,"SoundDuration":83841,"Delta":12439126},{"NoteNumber":80,"Velocity":67,"Duration":83841,"SoundDuration":83841,"Delta":12439126},{"NoteNumber":92,"Velocity":79,"Duration":83841,"SoundDuration":83841,"Delta":12439126},{"NoteNumber":59,"Velocity":46,"Duration":83841,"SoundDuration":83841,"Delta":12439126},{"NoteNumber":52,"Velocity":46,"Duration":83841,"SoundDuration":83841,"Delta":12439126},{"NoteNumber":56,"Velocity":46,"Duration":83841,"SoundDuration":83841,"Delta":12439126},{"NoteNumber":64,"Velocity":55,"Duration":83841,"SoundDuration":83841,"Delta":12439126},{"NoteNumber":92,"Velocity":88,"Duration":82644,"SoundDuration":82644,"Delta":12530590},{"NoteNumber":88,"Velocity":74,"Duration":82644,"SoundDuration":82644,"Delta":12530590},{"NoteNumber":80,"Velocity":74,"Duration":82644,"SoundDuration":82644,"Delta":12530590},{"NoteNumber":64,"Velocity":61,"Duration":82644,"SoundDuration":82644,"Delta":12530590},{"NoteNumber":52,"Velocity":51,"Duration":82644,"SoundDuration":82644,"Delta":12530590},{"NoteNumber":56,"Velocity":51,"Duration":82644,"SoundDuration":82644,"Delta":12530590},{"NoteNumber":59,"Velocity":51,"Duration":82644,"SoundDuration":82644,"Delta":12530590},{"NoteNumber":76,"Velocity":69,"Duration":355029,"SoundDuration":355029,"Delta":12861169},{"NoteNumber":68,"Velocity":69,"Duration":355029,"SoundDuration":355029,"Delta":12861169},{"NoteNumber":80,"Velocity":81,"Duration":355029,"SoundDuration":355029,"Delta":12861169},{"NoteNumber":52,"Velocity":56,"Duration":355029,"SoundDuration":355029,"Delta":12861169},{"NoteNumber":40,"Velocity":47,"Duration":355029,"SoundDuration":355029,"Delta":12861169},{"NoteNumber":47,"Velocity":47,"Duration":355029,"SoundDuration":355029,"Delta":12861169},{"NoteNumber":81,"Velocity":81,"Duration":532545,"SoundDuration":532545,"Delta":13216199},{"NoteNumber":76,"Velocity":69,"Duration":532545,"SoundDuration":532545,"Delta":13216199},{"NoteNumber":69,"Velocity":69,"Duration":532545,"SoundDuration":532545,"Delta":13216199},{"NoteNumber":52,"Velocity":56,"Duration":532545,"SoundDuration":532545,"Delta":13216199},{"NoteNumber":40,"Velocity":47,"Duration":532545,"SoundDuration":532545,"Delta":13216199},{"NoteNumber":49,"Velocity":47,"Duration":532545,"SoundDuration":532545,"Delta":13216199},{"NoteNumber":66,"Velocity":67,"Duration":255858,"SoundDuration":255858,"Delta":13748744},{"NoteNumber":76,"Velocity":67,"Duration":255858,"SoundDuration":255858,"Delta":13748744},{"NoteNumber":78,"Velocity":80,"Duration":255858,"SoundDuration":255858,"Delta":13748744},{"NoteNumber":45,"Velocity":46,"Duration":255858,"SoundDuration":255858,"Delta":13748744},{"NoteNumber":52,"Velocity":55,"Duration":255858,"SoundDuration":255858,"Delta":13748744},{"NoteNumber":40,"Velocity":46,"Duration":255858,"SoundDuration":255858,"Delta":13748744},{"NoteNumber":76,"Velocity":60,"Duration":85403,"SoundDuration":85403,"Delta":14012366},{"NoteNumber":80,"Velocity":71,"Duration":85403,"SoundDuration":85403,"Delta":14012366},{"NoteNumber":68,"Velocity":60,"Duration":85403,"SoundDuration":85403,"Delta":14012366},{"NoteNumber":40,"Velocity":41,"Duration":93167,"SoundDuration":93167,"Delta":14012366},{"NoteNumber":47,"Velocity":41,"Duration":93167,"SoundDuration":93167,"Delta":14012366},{"NoteNumber":52,"Velocity":49,"Duration":93167,"SoundDuration":93167,"Delta":14012366},{"NoteNumber":76,"Velocity":66,"Duration":84033,"SoundDuration":84033,"Delta":14105534},{"NoteNumber":68,"Velocity":66,"Duration":84033,"SoundDuration":84033,"Delta":14105534},{"NoteNumber":80,"Velocity":79,"Duration":84033,"SoundDuration":84033,"Delta":14105534},{"NoteNumber":40,"Velocity":60,"Duration":84033,"SoundDuration":84033,"Delta":14105534},{"NoteNumber":47,"Velocity":49,"Duration":75949,"SoundDuration":75949,"Delta":14273601},{"NoteNumber":76,"Velocity":67,"Duration":186981,"SoundDuration":186981,"Delta":14387524},{"NoteNumber":80,"Velocity":67,"Duration":167993,"SoundDuration":167993,"Delta":14406512},{"NoteNumber":88,"Velocity":80,"Duration":149006,"SoundDuration":149006,"Delta":14425499},{"NoteNumber":52,"Velocity":49,"Duration":99337,"SoundDuration":99337,"Delta":14425499},{"NoteNumber":52,"Velocity":66,"Duration":75949,"SoundDuration":75949,"Delta":14624175},{"NoteNumber":64,"Velocity":79,"Duration":75949,"SoundDuration":75949,"Delta":14624175},{"NoteNumber":28,"Velocity":56,"Duration":75949,"SoundDuration":75949,"Delta":14624175},{"NoteNumber":35,"Velocity":44,"Duration":75949,"SoundDuration":75949,"Delta":14776073},{"NoteNumber":40,"Velocity":44,"Duration":75949,"SoundDuration":75949,"Delta":14927972},{"NoteNumber":28,"Velocity":56,"Duration":75949,"SoundDuration":75949,"Delta":15079870},{"NoteNumber":35,"Velocity":46,"Duration":75949,"SoundDuration":75949,"Delta":15231769},{"NoteNumber":76,"Velocity":67,"Duration":186489,"SoundDuration":186489,"Delta":15345692},{"NoteNumber":80,"Velocity":67,"Duration":167502,"SoundDuration":167502,"Delta":15364680},{"NoteNumber":88,"Velocity":80,"Duration":148514,"SoundDuration":148514,"Delta":15383667},{"NoteNumber":40,"Velocity":46,"Duration":99009,"SoundDuration":99009,"Delta":15383667},{"NoteNumber":64,"Velocity":79,"Duration":75949,"SoundDuration":75949,"Delta":15581687},{"NoteNumber":52,"Velocity":66,"Duration":75949,"SoundDuration":75949,"Delta":15581687},{"NoteNumber":28,"Velocity":56,"Duration":75949,"SoundDuration":75949,"Delta":15581687},{"NoteNumber":35,"Velocity":44,"Duration":75949,"SoundDuration":75949,"Delta":15733586},{"NoteNumber":40,"Velocity":44,"Duration":75949,"SoundDuration":75949,"Delta":15885484},{"NoteNumber":28,"Velocity":56,"Duration":75949,"SoundDuration":75949,"Delta":16037383},{"NoteNumber":35,"Velocity":46,"Duration":75949,"SoundDuration":75949,"Delta":16189281},{"NoteNumber":40,"Velocity":46,"Duration":75949,"SoundDuration":75949,"Delta":16341180},{"NoteNumber":28,"Velocity":56,"Duration":75949,"SoundDuration":75949,"Delta":16493078},{"NoteNumber":35,"Velocity":46,"Duration":75949,"SoundDuration":75949,"Delta":16644977},{"NoteNumber":40,"Velocity":46,"Duration":75949,"SoundDuration":75949,"Delta":16796875},{"NoteNumber":28,"Velocity":50,"Duration":75949,"SoundDuration":75949,"Delta":16948774},{"NoteNumber":35,"Velocity":36,"Duration":75949,"SoundDuration":75949,"Delta":17100672},{"NoteNumber":64,"Velocity":52,"Duration":179930,"SoundDuration":179930,"Delta":17214596},{"NoteNumber":68,"Velocity":51,"Duration":160943,"SoundDuration":160943,"Delta":17233583},{"NoteNumber":76,"Velocity":61,"Duration":141955,"SoundDuration":141955,"Delta":17252571},{"NoteNumber":40,"Velocity":33,"Duration":94637,"SoundDuration":94637,"Delta":17252571},{"NoteNumber":52,"Velocity":55,"Duration":75949,"SoundDuration":75949,"Delta":17441845},{"NoteNumber":28,"Velocity":39,"Duration":75949,"SoundDuration":75949,"Delta":17441845},{"NoteNumber":35,"Velocity":28,"Duration":75949,"SoundDuration":75949,"Delta":17593744},{"NoteNumber":40,"Velocity":27,"Duration":75949,"SoundDuration":75949,"Delta":17745642},{"NoteNumber":28,"Velocity":34,"Duration":75949,"SoundDuration":75949,"Delta":17897541},{"NoteNumber":35,"Velocity":27,"Duration":75949,"SoundDuration":75949,"Delta":18049439},{"NoteNumber":68,"Velocity":40,"Duration":94936,"SoundDuration":94936,"Delta":18201338},{"NoteNumber":64,"Velocity":40,"Duration":94936,"SoundDuration":94936,"Delta":18201338},{"NoteNumber":76,"Velocity":48,"Duration":94936,"SoundDuration":94936,"Delta":18201338},{"NoteNumber":40,"Velocity":27,"Duration":94936,"SoundDuration":94936,"Delta":18201338},{"NoteNumber":52,"Velocity":46,"Duration":75949,"SoundDuration":75949,"Delta":18391211},{"NoteNumber":28,"Velocity":30,"Duration":75949,"SoundDuration":75949,"Delta":18391211},{"NoteNumber":35,"Velocity":21,"Duration":75949,"SoundDuration":75949,"Delta":18543110},{"NoteNumber":40,"Velocity":20,"Duration":75949,"SoundDuration":75949,"Delta":18695008},{"NoteNumber":28,"Velocity":27,"Duration":75949,"SoundDuration":75949,"Delta":18846907},{"NoteNumber":35,"Velocity":20,"Duration":75949,"SoundDuration":75949,"Delta":18998805},{"NoteNumber":40,"Velocity":20,"Duration":75949,"SoundDuration":75949,"Delta":19150704},{"NoteNumber":28,"Velocity":26,"Duration":85470,"SoundDuration":85470,"Delta":19302602},{"NoteNumber":72,"Velocity":67,"Duration":149626,"SoundDuration":149626,"Delta":19772687},{"NoteNumber":76,"Velocity":67,"Duration":130922,"SoundDuration":130922,"Delta":19791390},{"NoteNumber":84,"Velocity":80,"Duration":112219,"SoundDuration":112219,"Delta":19810094},{"NoteNumber":36,"Velocity":60,"Duration":74812,"SoundDuration":74812,"Delta":19810094},{"NoteNumber":43,"Velocity":49,"Duration":74812,"SoundDuration":74812,"Delta":19959720},{"NoteNumber":60,"Velocity":45,"Duration":74813,"SoundDuration":74813,"Delta":20109346},{"NoteNumber":64,"Velocity":54,"Duration":74813,"SoundDuration":74813,"Delta":20109346},{"NoteNumber":48,"Velocity":49,"Duration":74813,"SoundDuration":74813,"Delta":20109346},{"NoteNumber":60,"Velocity":50,"Duration":74812,"SoundDuration":74812,"Delta":20258972},{"NoteNumber":64,"Velocity":59,"Duration":74812,"SoundDuration":74812,"Delta":20258972},{"NoteNumber":36,"Velocity":56,"Duration":74812,"SoundDuration":74812,"Delta":20258972},{"NoteNumber":62,"Velocity":45,"Duration":74812,"SoundDuration":74812,"Delta":20408598},{"NoteNumber":65,"Velocity":53,"Duration":74812,"SoundDuration":74812,"Delta":20408598},{"NoteNumber":43,"Velocity":44,"Duration":74812,"SoundDuration":74812,"Delta":20408598},{"NoteNumber":67,"Velocity":53,"Duration":74813,"SoundDuration":74813,"Delta":20558224},{"NoteNumber":64,"Velocity":45,"Duration":74813,"SoundDuration":74813,"Delta":20558224},{"NoteNumber":48,"Velocity":44,"Duration":74813,"SoundDuration":74813,"Delta":20558224},{"NoteNumber":69,"Velocity":59,"Duration":74812,"SoundDuration":74812,"Delta":20707850},{"NoteNumber":65,"Velocity":50,"Duration":74812,"SoundDuration":74812,"Delta":20707850},{"NoteNumber":36,"Velocity":56,"Duration":74812,"SoundDuration":74812,"Delta":20707850},{"NoteNumber":64,"Velocity":45,"Duration":76923,"SoundDuration":76923,"Delta":20857476},{"NoteNumber":67,"Velocity":54,"Duration":76923,"SoundDuration":76923,"Delta":20857476},{"NoteNumber":43,"Velocity":46,"Duration":76923,"SoundDuration":76923,"Delta":20857476},{"NoteNumber":72,"Velocity":67,"Duration":150401,"SoundDuration":150401,"Delta":20972860},{"NoteNumber":76,"Velocity":67,"Duration":131170,"SoundDuration":131170,"Delta":20992091},{"NoteNumber":84,"Velocity":80,"Duration":111940,"SoundDuration":111940,"Delta":21011322},{"NoteNumber":48,"Velocity":46,"Duration":74626,"SoundDuration":74626,"Delta":21011322},{"NoteNumber":64,"Velocity":59,"Duration":74626,"SoundDuration":74626,"Delta":21160575},{"NoteNumber":60,"Velocity":50,"Duration":74626,"SoundDuration":74626,"Delta":21160575},{"NoteNumber":36,"Velocity":60,"Duration":74626,"SoundDuration":74626,"Delta":21160575},{"NoteNumber":65,"Velocity":53,"Duration":74626,"SoundDuration":74626,"Delta":21309829},{"NoteNumber":62,"Velocity":45,"Duration":74626,"SoundDuration":74626,"Delta":21309829},{"NoteNumber":43,"Velocity":49,"Duration":74626,"SoundDuration":74626,"Delta":21309829},{"NoteNumber":67,"Velocity":53,"Duration":74626,"SoundDuration":74626,"Delta":21459082},{"NoteNumber":64,"Velocity":45,"Duration":74626,"SoundDuration":74626,"Delta":21459082},{"NoteNumber":48,"Velocity":49,"Duration":74626,"SoundDuration":74626,"Delta":21459082},{"NoteNumber":65,"Velocity":50,"Duration":74626,"SoundDuration":74626,"Delta":21608336},{"NoteNumber":69,"Velocity":59,"Duration":74626,"SoundDuration":74626,"Delta":21608336},{"NoteNumber":36,"Velocity":56,"Duration":74626,"SoundDuration":74626,"Delta":21608336},{"NoteNumber":67,"Velocity":54,"Duration":74626,"SoundDuration":74626,"Delta":21757589},{"NoteNumber":64,"Velocity":45,"Duration":74626,"SoundDuration":74626,"Delta":21757589},{"NoteNumber":43,"Velocity":44,"Duration":74626,"SoundDuration":74626,"Delta":21757589},{"NoteNumber":65,"Velocity":45,"Duration":74626,"SoundDuration":74626,"Delta":21906843},{"NoteNumber":69,"Velocity":53,"Duration":74626,"SoundDuration":74626,"Delta":21906843},{"NoteNumber":48,"Velocity":44,"Duration":74626,"SoundDuration":74626,"Delta":21906843},{"NoteNumber":67,"Velocity":50,"Duration":74626,"SoundDuration":74626,"Delta":22056096},{"NoteNumber":71,"Velocity":59,"Duration":74626,"SoundDuration":74626,"Delta":22056096},{"NoteNumber":36,"Velocity":56,"Duration":74626,"SoundDuration":74626,"Delta":22056096},{"NoteNumber":69,"Velocity":45,"Duration":74626,"SoundDuration":74626,"Delta":22205350},{"NoteNumber":72,"Velocity":54,"Duration":74626,"SoundDuration":74626,"Delta":22205350},{"NoteNumber":43,"Velocity":46,"Duration":74626,"SoundDuration":74626,"Delta":22205350},{"NoteNumber":71,"Velocity":45,"Duration":76336,"SoundDuration":76336,"Delta":22354603},{"NoteNumber":74,"Velocity":53,"Duration":76336,"SoundDuration":76336,"Delta":22354603},{"NoteNumber":48,"Velocity":46,"Duration":76336,"SoundDuration":76336,"Delta":22354603},{"NoteNumber":76,"Velocity":67,"Duration":149830,"SoundDuration":149830,"Delta":22469107},{"NoteNumber":79,"Velocity":67,"Duration":137107,"SoundDuration":137107,"Delta":22481830},{"NoteNumber":84,"Velocity":67,"Duration":124385,"SoundDuration":124385,"Delta":22494552},{"NoteNumber":88,"Velocity":80,"Duration":111662,"SoundDuration":111662,"Delta":22507275},{"NoteNumber":36,"Velocity":60,"Duration":74441,"SoundDuration":74441,"Delta":22507275},{"NoteNumber":43,"Velocity":49,"Duration":74441,"SoundDuration":74441,"Delta":22656159},{"NoteNumber":64,"Velocity":45,"Duration":74441,"SoundDuration":74441,"Delta":22805042},{"NoteNumber":67,"Velocity":54,"Duration":74441,"SoundDuration":74441,"Delta":22805042},{"NoteNumber":48,"Velocity":49,"Duration":74441,"SoundDuration":74441,"Delta":22805042},{"NoteNumber":64,"Velocity":51,"Duration":74441,"SoundDuration":74441,"Delta":22953926},{"NoteNumber":67,"Velocity":60,"Duration":74441,"SoundDuration":74441,"Delta":22953926},{"NoteNumber":36,"Velocity":57,"Duration":74441,"SoundDuration":74441,"Delta":22953926},{"NoteNumber":69,"Velocity":56,"Duration":74441,"SoundDuration":74441,"Delta":23102809},{"NoteNumber":65,"Velocity":46,"Duration":74441,"SoundDuration":74441,"Delta":23102809},{"NoteNumber":43,"Velocity":46,"Duration":74441,"SoundDuration":74441,"Delta":23102809},{"NoteNumber":67,"Velocity":48,"Duration":74441,"SoundDuration":74441,"Delta":23251693},{"NoteNumber":71,"Velocity":57,"Duration":74441,"SoundDuration":74441,"Delta":23251693},{"NoteNumber":48,"Velocity":47,"Duration":74441,"SoundDuration":74441,"Delta":23251693},{"NoteNumber":72,"Velocity":65,"Duration":74441,"SoundDuration":74441,"Delta":23400576},{"NoteNumber":69,"Velocity":55,"Duration":74441,"SoundDuration":74441,"Delta":23400576},{"NoteNumber":36,"Velocity":62,"Duration":74441,"SoundDuration":74441,"Delta":23400576},{"NoteNumber":67,"Velocity":51,"Duration":76923,"SoundDuration":76923,"Delta":23549460},{"NoteNumber":71,"Velocity":61,"Duration":76923,"SoundDuration":76923,"Delta":23549460},{"NoteNumber":43,"Velocity":52,"Duration":76923,"SoundDuration":76923,"Delta":23549460},{"NoteNumber":76,"Velocity":78,"Duration":150401,"SoundDuration":150401,"Delta":23664844},{"NoteNumber":79,"Velocity":78,"Duration":137581,"SoundDuration":137581,"Delta":23677665},{"NoteNumber":84,"Velocity":78,"Duration":124760,"SoundDuration":124760,"Delta":23690485},{"NoteNumber":88,"Velocity":93,"Duration":111940,"SoundDuration":111940,"Delta":23703306},{"NoteNumber":48,"Velocity":53,"Duration":74626,"SoundDuration":74626,"Delta":23703306},{"NoteNumber":71,"Velocity":65,"Duration":74626,"SoundDuration":74626,"Delta":23852559},{"NoteNumber":67,"Velocity":54,"Duration":74626,"SoundDuration":74626,"Delta":23852559},{"NoteNumber":36,"Velocity":66,"Duration":74626,"SoundDuration":74626,"Delta":23852559},{"NoteNumber":69,"Velocity":50,"Duration":74626,"SoundDuration":74626,"Delta":24001813},{"NoteNumber":72,"Velocity":60,"Duration":74626,"SoundDuration":74626,"Delta":24001813},{"NoteNumber":43,"Velocity":55,"Duration":74626,"SoundDuration":74626,"Delta":24001813},{"NoteNumber":74,"Velocity":62,"Duration":74626,"SoundDuration":74626,"Delta":24151066},{"NoteNumber":71,"Velocity":51,"Duration":74626,"SoundDuration":74626,"Delta":24151066},{"NoteNumber":48,"Velocity":56,"Duration":74626,"SoundDuration":74626,"Delta":24151066},{"NoteNumber":72,"Velocity":59,"Duration":74626,"SoundDuration":74626,"Delta":24300320},{"NoteNumber":76,"Velocity":71,"Duration":74626,"SoundDuration":74626,"Delta":24300320},{"NoteNumber":36,"Velocity":67,"Duration":74626,"SoundDuration":74626,"Delta":24300320},{"NoteNumber":74,"Velocity":66,"Duration":74626,"SoundDuration":74626,"Delta":24449573},{"NoteNumber":71,"Velocity":56,"Duration":74626,"SoundDuration":74626,"Delta":24449573},{"NoteNumber":43,"Velocity":54,"Duration":74626,"SoundDuration":74626,"Delta":24449573},{"NoteNumber":76,"Velocity":67,"Duration":74626,"SoundDuration":74626,"Delta":24598827},{"NoteNumber":72,"Velocity":56,"Duration":74626,"SoundDuration":74626,"Delta":24598827},{"NoteNumber":48,"Velocity":55,"Duration":74626,"SoundDuration":74626,"Delta":24598827},{"NoteNumber":74,"Velocity":64,"Duration":74626,"SoundDuration":74626,"Delta":24748080},{"NoteNumber":78,"Velocity":77,"Duration":74626,"SoundDuration":74626,"Delta":24748080},{"NoteNumber":36,"Velocity":72,"Duration":74626,"SoundDuration":74626,"Delta":24748080},{"NoteNumber":79,"Velocity":72,"Duration":76923,"SoundDuration":76923,"Delta":24897334},{"NoteNumber":76,"Velocity":60,"Duration":76923,"SoundDuration":76923,"Delta":24897334},{"NoteNumber":43,"Velocity":61,"Duration":76923,"SoundDuration":76923,"Delta":24897334},{"NoteNumber":78,"Velocity":61,"Duration":82872,"SoundDuration":82872,"Delta":25051180},{"NoteNumber":81,"Velocity":72,"Duration":82872,"SoundDuration":82872,"Delta":25051180},{"NoteNumber":48,"Velocity":62,"Duration":82872,"SoundDuration":82872,"Delta":25051180},{"NoteNumber":83,"Velocity":76,"Duration":615383,"SoundDuration":615383,"Delta":25216926},{"NoteNumber":95,"Velocity":90,"Duration":615383,"SoundDuration":615383,"Delta":25216926},{"NoteNumber":91,"Velocity":76,"Duration":615383,"SoundDuration":615383,"Delta":25216926},{"NoteNumber":35,"Velocity":73,"Duration":76923,"SoundDuration":76923,"Delta":25216926},{"NoteNumber":43,"Velocity":52,"Duration":76922,"SoundDuration":76922,"Delta":25370772},{"NoteNumber":47,"Velocity":53,"Duration":76923,"SoundDuration":76923,"Delta":25524618},{"NoteNumber":35,"Velocity":71,"Duration":76923,"SoundDuration":76923,"Delta":25678464},{"NoteNumber":90,"Velocity":68,"Duration":76923,"SoundDuration":76923,"Delta":25832310},{"NoteNumber":81,"Velocity":68,"Duration":76923,"SoundDuration":76923,"Delta":25832310},{"NoteNumber":93,"Velocity":81,"Duration":76923,"SoundDuration":76923,"Delta":25832310},{"NoteNumber":43,"Velocity":56,"Duration":76923,"SoundDuration":76923,"Delta":25832310},{"NoteNumber":79,"Velocity":68,"Duration":76923,"SoundDuration":76923,"Delta":25986156},{"NoteNumber":91,"Velocity":81,"Duration":76923,"SoundDuration":76923,"Delta":25986156},{"NoteNumber":88,"Velocity":68,"Duration":76923,"SoundDuration":76923,"Delta":25986156},{"NoteNumber":47,"Velocity":56,"Duration":76923,"SoundDuration":76923,"Delta":25986156},{"NoteNumber":81,"Velocity":76,"Duration":615383,"SoundDuration":615383,"Delta":26140002},{"NoteNumber":90,"Velocity":76,"Duration":615383,"SoundDuration":615383,"Delta":26140002},{"NoteNumber":93,"Velocity":90,"Duration":615383,"SoundDuration":615383,"Delta":26140002},{"NoteNumber":35,"Velocity":73,"Duration":76922,"SoundDuration":76922,"Delta":26140002},{"NoteNumber":42,"Velocity":52,"Duration":76923,"SoundDuration":76923,"Delta":26293848},{"NoteNumber":47,"Velocity":53,"Duration":76922,"SoundDuration":76922,"Delta":26447694},{"NoteNumber":35,"Velocity":71,"Duration":76923,"SoundDuration":76923,"Delta":26601540},{"NoteNumber":91,"Velocity":81,"Duration":76923,"SoundDuration":76923,"Delta":26755386},{"NoteNumber":88,"Velocity":68,"Duration":76923,"SoundDuration":76923,"Delta":26755386},{"NoteNumber":79,"Velocity":68,"Duration":76923,"SoundDuration":76923,"Delta":26755386},{"NoteNumber":42,"Velocity":56,"Duration":76923,"SoundDuration":76923,"Delta":26755386},{"NoteNumber":78,"Velocity":68,"Duration":76923,"SoundDuration":76923,"Delta":26909232},{"NoteNumber":87,"Velocity":68,"Duration":76923,"SoundDuration":76923,"Delta":26909232},{"NoteNumber":90,"Velocity":81,"Duration":76923,"SoundDuration":76923,"Delta":26909232},{"NoteNumber":47,"Velocity":56,"Duration":76923,"SoundDuration":76923,"Delta":26909232},{"NoteNumber":91,"Velocity":90,"Duration":76923,"SoundDuration":76923,"Delta":27063078},{"NoteNumber":79,"Velocity":76,"Duration":76923,"SoundDuration":76923,"Delta":27063078},{"NoteNumber":88,"Velocity":76,"Duration":76923,"SoundDuration":76923,"Delta":27063078},{"NoteNumber":35,"Velocity":71,"Duration":76923,"SoundDuration":76923,"Delta":27063078},{"NoteNumber":78,"Velocity":68,"Duration":76922,"SoundDuration":76922,"Delta":27216924},{"NoteNumber":87,"Velocity":68,"Duration":76922,"SoundDuration":76922,"Delta":27216924},{"NoteNumber":90,"Velocity":81,"Duration":76922,"SoundDuration":76922,"Delta":27216924},{"NoteNumber":40,"Velocity":56,"Duration":76922,"SoundDuration":76922,"Delta":27216924},{"NoteNumber":88,"Velocity":81,"Duration":76923,"SoundDuration":76923,"Delta":27370770},{"NoteNumber":85,"Velocity":68,"Duration":76923,"SoundDuration":76923,"Delta":27370770},{"NoteNumber":76,"Velocity":68,"Duration":76923,"SoundDuration":76923,"Delta":27370770},{"NoteNumber":47,"Velocity":56,"Duration":76923,"SoundDuration":76923,"Delta":27370770},{"NoteNumber":78,"Velocity":76,"Duration":76923,"SoundDuration":76923,"Delta":27524616},{"NoteNumber":87,"Velocity":76,"Duration":76923,"SoundDuration":76923,"Delta":27524616},{"NoteNumber":90,"Velocity":90,"Duration":76923,"SoundDuration":76923,"Delta":27524616},{"NoteNumber":35,"Velocity":71,"Duration":76923,"SoundDuration":76923,"Delta":27524616},{"NoteNumber":39,"Velocity":56,"Duration":78740,"SoundDuration":78740,"Delta":27678462},{"NoteNumber":83,"Velocity":81,"Duration":83798,"SoundDuration":83798,"Delta":27835942},{"NoteNumber":71,"Velocity":68,"Duration":83798,"SoundDuration":83798,"Delta":27835942},{"NoteNumber":47,"Velocity":56,"Duration":83798,"SoundDuration":83798,"Delta":27835942},{"NoteNumber":83,"Velocity":76,"Duration":607593,"SoundDuration":607593,"Delta":28003540},{"NoteNumber":92,"Velocity":76,"Duration":607593,"SoundDuration":607593,"Delta":28003540},{"NoteNumber":95,"Velocity":90,"Duration":607593,"SoundDuration":607593,"Delta":28003540},{"NoteNumber":28,"Velocity":73,"Duration":75949,"SoundDuration":75949,"Delta":28003540},{"NoteNumber":35,"Velocity":52,"Duration":75949,"SoundDuration":75949,"Delta":28155439},{"NoteNumber":40,"Velocity":53,"Duration":75949,"SoundDuration":75949,"Delta":28307337},{"NoteNumber":28,"Velocity":71,"Duration":75949,"SoundDuration":75949,"Delta":28459236},{"NoteNumber":93,"Velocity":81,"Duration":75949,"SoundDuration":75949,"Delta":28611134},{"NoteNumber":90,"Velocity":68,"Duration":75949,"SoundDuration":75949,"Delta":28611134},{"NoteNumber":81,"Velocity":68,"Duration":75949,"SoundDuration":75949,"Delta":28611134},{"NoteNumber":35,"Velocity":56,"Duration":75949,"SoundDuration":75949,"Delta":28611134},{"NoteNumber":80,"Velocity":68,"Duration":77922,"SoundDuration":77922,"Delta":28763033},{"NoteNumber":88,"Velocity":68,"Duration":77922,"SoundDuration":77922,"Delta":28763033},{"NoteNumber":92,"Velocity":81,"Duration":77922,"SoundDuration":77922,"Delta":28763033},{"NoteNumber":40,"Velocity":56,"Duration":77922,"SoundDuration":77922,"Delta":28763033},{"NoteNumber":90,"Velocity":76,"Duration":607593,"SoundDuration":607593,"Delta":28918877},{"NoteNumber":81,"Velocity":76,"Duration":607593,"SoundDuration":607593,"Delta":28918877},{"NoteNumber":93,"Velocity":90,"Duration":607593,"SoundDuration":607593,"Delta":28918877},{"NoteNumber":28,"Velocity":73,"Duration":75949,"SoundDuration":75949,"Delta":28918877},{"NoteNumber":35,"Velocity":52,"Duration":75949,"SoundDuration":75949,"Delta":29070775},{"NoteNumber":40,"Velocity":53,"Duration":75949,"SoundDuration":75949,"Delta":29222673},{"NoteNumber":28,"Velocity":71,"Duration":75949,"SoundDuration":75949,"Delta":29374572},{"NoteNumber":80,"Velocity":68,"Duration":75949,"SoundDuration":75949,"Delta":29526470},{"NoteNumber":92,"Velocity":81,"Duration":75949,"SoundDuration":75949,"Delta":29526470},{"NoteNumber":88,"Velocity":68,"Duration":75949,"SoundDuration":75949,"Delta":29526470},{"NoteNumber":35,"Velocity":56,"Duration":75949,"SoundDuration":75949,"Delta":29526470},{"NoteNumber":87,"Velocity":68,"Duration":78740,"SoundDuration":78740,"Delta":29678369},{"NoteNumber":78,"Velocity":68,"Duration":78740,"SoundDuration":78740,"Delta":29678369},{"NoteNumber":90,"Velocity":81,"Duration":78740,"SoundDuration":78740,"Delta":29678369},{"NoteNumber":40,"Velocity":56,"Duration":78740,"SoundDuration":78740,"Delta":29678369},{"NoteNumber":80,"Velocity":76,"Duration":76142,"SoundDuration":76142,"Delta":29835849},{"NoteNumber":92,"Velocity":90,"Duration":76142,"SoundDuration":76142,"Delta":29835849},{"NoteNumber":88,"Velocity":76,"Duration":76142,"SoundDuration":76142,"Delta":29835849},{"NoteNumber":28,"Velocity":71,"Duration":76142,"SoundDuration":76142,"Delta":29835849},{"NoteNumber":78,"Velocity":68,"Duration":76142,"SoundDuration":76142,"Delta":29988134},{"NoteNumber":87,"Velocity":68,"Duration":76142,"SoundDuration":76142,"Delta":29988134},{"NoteNumber":90,"Velocity":81,"Duration":76142,"SoundDuration":76142,"Delta":29988134},{"NoteNumber":35,"Velocity":56,"Duration":76142,"SoundDuration":76142,"Delta":29988134},{"NoteNumber":88,"Velocity":81,"Duration":76142,"SoundDuration":76142,"Delta":30140418},{"NoteNumber":85,"Velocity":68,"Duration":76142,"SoundDuration":76142,"Delta":30140418},{"NoteNumber":76,"Velocity":68,"Duration":76142,"SoundDuration":76142,"Delta":30140418},{"NoteNumber":40,"Velocity":56,"Duration":76142,"SoundDuration":76142,"Delta":30140418},{"NoteNumber":78,"Velocity":76,"Duration":76142,"SoundDuration":76142,"Delta":30292703},{"NoteNumber":87,"Velocity":76,"Duration":76142,"SoundDuration":76142,"Delta":30292703},{"NoteNumber":90,"Velocity":90,"Duration":76142,"SoundDuration":76142,"Delta":30292703},{"NoteNumber":28,"Velocity":71,"Duration":76142,"SoundDuration":76142,"Delta":30292703},{"NoteNumber":35,"Velocity":56,"Duration":76142,"SoundDuration":76142,"Delta":30444988},{"NoteNumber":83,"Velocity":81,"Duration":83798,"SoundDuration":83798,"Delta":30597272},{"NoteNumber":71,"Velocity":68,"Duration":83798,"SoundDuration":83798,"Delta":30597272},{"NoteNumber":40,"Velocity":56,"Duration":83798,"SoundDuration":83798,"Delta":30597272},{"NoteNumber":83,"Velocity":82,"Duration":78947,"SoundDuration":78947,"Delta":30764870},{"NoteNumber":92,"Velocity":97,"Duration":78947,"SoundDuration":78947,"Delta":30764870},{"NoteNumber":95,"Velocity":97,"Duration":78947,"SoundDuration":78947,"Delta":30764870},{"NoteNumber":28,"Velocity":71,"Duration":78947,"SoundDuration":78947,"Delta":30764870},{"NoteNumber":92,"Velocity":91,"Duration":362538,"SoundDuration":362538,"Delta":31104033},{"NoteNumber":88,"Velocity":77,"Duration":362538,"SoundDuration":362538,"Delta":31104033},{"NoteNumber":80,"Velocity":77,"Duration":362538,"SoundDuration":362538,"Delta":31104033},{"NoteNumber":52,"Velocity":53,"Duration":362538,"SoundDuration":362538,"Delta":31104033},{"NoteNumber":56,"Velocity":53,"Duration":362538,"SoundDuration":362538,"Delta":31104033},{"NoteNumber":64,"Velocity":63,"Duration":362538,"SoundDuration":362538,"Delta":31104033},{"NoteNumber":59,"Velocity":53,"Duration":362538,"SoundDuration":362538,"Delta":31104033},{"NoteNumber":81,"Velocity":77,"Duration":543807,"SoundDuration":543807,"Delta":31466571},{"NoteNumber":88,"Velocity":77,"Duration":543807,"SoundDuration":543807,"Delta":31466571},{"NoteNumber":93,"Velocity":91,"Duration":543807,"SoundDuration":543807,"Delta":31466571},{"NoteNumber":64,"Velocity":63,"Duration":543807,"SoundDuration":543807,"Delta":31466571},{"NoteNumber":52,"Velocity":53,"Duration":543807,"SoundDuration":543807,"Delta":31466571},{"NoteNumber":61,"Velocity":53,"Duration":543807,"SoundDuration":543807,"Delta":31466571},{"NoteNumber":57,"Velocity":53,"Duration":543807,"SoundDuration":543807,"Delta":31466571},{"NoteNumber":90,"Velocity":89,"Duration":266917,"SoundDuration":266917,"Delta":32010378},{"NoteNumber":78,"Velocity":75,"Duration":266917,"SoundDuration":266917,"Delta":32010378},{"NoteNumber":88,"Velocity":75,"Duration":266917,"SoundDuration":266917,"Delta":32010378},{"NoteNumber":64,"Velocity":62,"Duration":266917,"SoundDuration":266917,"Delta":32010378},{"NoteNumber":52,"Velocity":52,"Duration":266917,"SoundDuration":266917,"Delta":32010378},{"NoteNumber":57,"Velocity":52,"Duration":266917,"SoundDuration":266917,"Delta":32010378},{"NoteNumber":54,"Velocity":52,"Duration":266917,"SoundDuration":266917,"Delta":32010378},{"NoteNumber":88,"Velocity":67,"Duration":88424,"SoundDuration":88424,"Delta":32277296},{"NoteNumber":80,"Velocity":67,"Duration":88424,"SoundDuration":88424,"Delta":32277296},{"NoteNumber":92,"Velocity":79,"Duration":88424,"SoundDuration":88424,"Delta":32277296},{"NoteNumber":56,"Velocity":46,"Duration":88424,"SoundDuration":88424,"Delta":32277296},{"NoteNumber":52,"Velocity":46,"Duration":88424,"SoundDuration":88424,"Delta":32277296},{"NoteNumber":64,"Velocity":55,"Duration":88424,"SoundDuration":88424,"Delta":32277296},{"NoteNumber":59,"Velocity":46,"Duration":88424,"SoundDuration":88424,"Delta":32277296},{"NoteNumber":92,"Velocity":88,"Duration":82644,"SoundDuration":82644,"Delta":32373759},{"NoteNumber":88,"Velocity":74,"Duration":82644,"SoundDuration":82644,"Delta":32373759},{"NoteNumber":80,"Velocity":74,"Duration":82644,"SoundDuration":82644,"Delta":32373759},{"NoteNumber":56,"Velocity":51,"Duration":82644,"SoundDuration":82644,"Delta":32373759},{"NoteNumber":64,"Velocity":61,"Duration":82644,"SoundDuration":82644,"Delta":32373759},{"NoteNumber":59,"Velocity":51,"Duration":82644,"SoundDuration":82644,"Delta":32373759},{"NoteNumber":52,"Velocity":51,"Duration":82644,"SoundDuration":82644,"Delta":32373759},{"NoteNumber":68,"Velocity":69,"Duration":364741,"SoundDuration":364741,"Delta":32704338},{"NoteNumber":76,"Velocity":69,"Duration":364741,"SoundDuration":364741,"Delta":32704338},{"NoteNumber":80,"Velocity":81,"Duration":364741,"SoundDuration":364741,"Delta":32704338},{"NoteNumber":40,"Velocity":47,"Duration":364741,"SoundDuration":364741,"Delta":32704338},{"NoteNumber":52,"Velocity":56,"Duration":364741,"SoundDuration":364741,"Delta":32704338},{"NoteNumber":47,"Velocity":47,"Duration":364741,"SoundDuration":364741,"Delta":32704338},{"NoteNumber":76,"Velocity":69,"Duration":547113,"SoundDuration":547113,"Delta":33069080},{"NoteNumber":69,"Velocity":69,"Duration":547113,"SoundDuration":547113,"Delta":33069080},{"NoteNumber":81,"Velocity":81,"Duration":547113,"SoundDuration":547113,"Delta":33069080},{"NoteNumber":52,"Velocity":56,"Duration":547113,"SoundDuration":547113,"Delta":33069080},{"NoteNumber":40,"Velocity":47,"Duration":547113,"SoundDuration":547113,"Delta":33069080},{"NoteNumber":49,"Velocity":47,"Duration":547113,"SoundDuration":547113,"Delta":33069080},{"NoteNumber":66,"Velocity":67,"Duration":263636,"SoundDuration":263636,"Delta":33616193},{"NoteNumber":78,"Velocity":80,"Duration":263636,"SoundDuration":263636,"Delta":33616193},{"NoteNumber":76,"Velocity":67,"Duration":263636,"SoundDuration":263636,"Delta":33616193},{"NoteNumber":52,"Velocity":55,"Duration":263636,"SoundDuration":263636,"Delta":33616193},{"NoteNumber":40,"Velocity":46,"Duration":263636,"SoundDuration":263636,"Delta":33616193},{"NoteNumber":45,"Velocity":46,"Duration":263636,"SoundDuration":263636,"Delta":33616193},{"NoteNumber":68,"Velocity":60,"Duration":88709,"SoundDuration":88709,"Delta":33887894},{"NoteNumber":76,"Velocity":60,"Duration":88709,"SoundDuration":88709,"Delta":33887894},{"NoteNumber":80,"Velocity":71,"Duration":88709,"SoundDuration":88709,"Delta":33887894},{"NoteNumber":40,"Velocity":41,"Duration":96774,"SoundDuration":96774,"Delta":33887894},{"NoteNumber":52,"Velocity":49,"Duration":96774,"SoundDuration":96774,"Delta":33887894},{"NoteNumber":47,"Velocity":41,"Duration":96774,"SoundDuration":96774,"Delta":33887894},{"NoteNumber":68,"Velocity":66,"Duration":84033,"SoundDuration":84033,"Delta":33984668},{"NoteNumber":80,"Velocity":79,"Duration":84033,"SoundDuration":84033,"Delta":33984668},{"NoteNumber":76,"Velocity":66,"Duration":84033,"SoundDuration":84033,"Delta":33984668},{"NoteNumber":40,"Velocity":60,"Duration":84033,"SoundDuration":84033,"Delta":33984668},{"NoteNumber":47,"Velocity":49,"Duration":75949,"SoundDuration":75949,"Delta":34152735},{"NoteNumber":76,"Velocity":67,"Duration":186981,"SoundDuration":186981,"Delta":34266659},{"NoteNumber":80,"Velocity":67,"Duration":167993,"SoundDuration":167993,"Delta":34285647},{"NoteNumber":88,"Velocity":80,"Duration":149006,"SoundDuration":149006,"Delta":34304634},{"NoteNumber":52,"Velocity":49,"Duration":99337,"SoundDuration":99337,"Delta":34304634},{"NoteNumber":64,"Velocity":79,"Duration":75949,"SoundDuration":75949,"Delta":34503309},{"NoteNumber":52,"Velocity":66,"Duration":75949,"SoundDuration":75949,"Delta":34503309},{"NoteNumber":28,"Velocity":56,"Duration":75949,"SoundDuration":75949,"Delta":34503309},{"NoteNumber":35,"Velocity":44,"Duration":75949,"SoundDuration":75949,"Delta":34655208},{"NoteNumber":40,"Velocity":44,"Duration":75949,"SoundDuration":75949,"Delta":34807106},{"NoteNumber":28,"Velocity":56,"Duration":75949,"SoundDuration":75949,"Delta":34959005},{"NoteNumber":35,"Velocity":46,"Duration":75949,"SoundDuration":75949,"Delta":35110903},{"NoteNumber":76,"Velocity":67,"Duration":186489,"SoundDuration":186489,"Delta":35224827},{"NoteNumber":80,"Velocity":67,"Duration":167502,"SoundDuration":167502,"Delta":35243815},{"NoteNumber":88,"Velocity":80,"Duration":148515,"SoundDuration":148515,"Delta":35262802},{"NoteNumber":40,"Velocity":46,"Duration":99009,"SoundDuration":99009,"Delta":35262802},{"NoteNumber":52,"Velocity":66,"Duration":75949,"SoundDuration":75949,"Delta":35460822},{"NoteNumber":64,"Velocity":79,"Duration":75949,"SoundDuration":75949,"Delta":35460822},{"NoteNumber":28,"Velocity":56,"Duration":75949,"SoundDuration":75949,"Delta":35460822},{"NoteNumber":35,"Velocity":44,"Duration":75949,"SoundDuration":75949,"Delta":35612720},{"NoteNumber":40,"Velocity":44,"Duration":75949,"SoundDuration":75949,"Delta":35764619},{"NoteNumber":28,"Velocity":56,"Duration":75949,"SoundDuration":75949,"Delta":35916517},{"NoteNumber":35,"Velocity":46,"Duration":75949,"SoundDuration":75949,"Delta":36068416},{"NoteNumber":40,"Velocity":46,"Duration":75949,"SoundDuration":75949,"Delta":36220314},{"NoteNumber":28,"Velocity":56,"Duration":81967,"SoundDuration":81967,"Delta":36372213},{"NoteNumber":76,"Velocity":74,"Duration":81967,"SoundDuration":81967,"Delta":36700082},{"NoteNumber":69,"Velocity":73,"Duration":81967,"SoundDuration":81967,"Delta":36864017},{"NoteNumber":73,"Velocity":87,"Duration":81967,"SoundDuration":81967,"Delta":36864017},{"NoteNumber":81,"Velocity":87,"Duration":81967,"SoundDuration":81967,"Delta":36864017},{"NoteNumber":33,"Velocity":67,"Duration":81967,"SoundDuration":81967,"Delta":36864017},{"NoteNumber":64,"Velocity":55,"Duration":78125,"SoundDuration":78125,"Delta":37027951},{"NoteNumber":61,"Velocity":46,"Duration":78125,"SoundDuration":78125,"Delta":37027951},{"NoteNumber":62,"Velocity":55,"Duration":80429,"SoundDuration":80429,"Delta":37184201},{"NoteNumber":59,"Velocity":46,"Duration":80429,"SoundDuration":80429,"Delta":37184201},{"NoteNumber":57,"Velocity":51,"Duration":149739,"SoundDuration":149739,"Delta":37345059},{"NoteNumber":61,"Velocity":60,"Duration":149739,"SoundDuration":149739,"Delta":37345059},{"NoteNumber":61,"Velocity":49,"Duration":78125,"SoundDuration":78125,"Delta":37501309},{"NoteNumber":57,"Velocity":41,"Duration":78125,"SoundDuration":78125,"Delta":37501309},{"NoteNumber":52,"Velocity":41,"Duration":79575,"SoundDuration":79575,"Delta":37657559},{"NoteNumber":59,"Velocity":49,"Duration":79575,"SoundDuration":79575,"Delta":37657559},{"NoteNumber":49,"Velocity":49,"Duration":79575,"SoundDuration":79575,"Delta":37816710},{"NoteNumber":57,"Velocity":58,"Duration":79575,"SoundDuration":79575,"Delta":37816710},{"NoteNumber":40,"Velocity":74,"Duration":81967,"SoundDuration":81967,"Delta":38135012},{"NoteNumber":45,"Velocity":87,"Duration":81967,"SoundDuration":81967,"Delta":38298946},{"NoteNumber":61,"Velocity":46,"Duration":78125,"SoundDuration":78125,"Delta":38462881},{"NoteNumber":64,"Velocity":55,"Duration":78125,"SoundDuration":78125,"Delta":38462881},{"NoteNumber":59,"Velocity":46,"Duration":80429,"SoundDuration":80429,"Delta":38619131},{"NoteNumber":62,"Velocity":55,"Duration":80429,"SoundDuration":80429,"Delta":38619131},{"NoteNumber":57,"Velocity":51,"Duration":78125,"SoundDuration":78125,"Delta":38779989},{"NoteNumber":61,"Velocity":60,"Duration":78125,"SoundDuration":78125,"Delta":38779989},{"NoteNumber":57,"Velocity":41,"Duration":78125,"SoundDuration":78125,"Delta":38936239},{"NoteNumber":61,"Velocity":49,"Duration":78125,"SoundDuration":78125,"Delta":38936239},{"NoteNumber":52,"Velocity":41,"Duration":79575,"SoundDuration":79575,"Delta":39092489},{"NoteNumber":59,"Velocity":49,"Duration":79575,"SoundDuration":79575,"Delta":39092489},{"NoteNumber":33,"Velocity":41,"Duration":79575,"SoundDuration":79575,"Delta":39092489},{"NoteNumber":57,"Velocity":58,"Duration":79575,"SoundDuration":79575,"Delta":39251640},{"NoteNumber":49,"Velocity":49,"Duration":79575,"SoundDuration":79575,"Delta":39251640},{"NoteNumber":33,"Velocity":41,"Duration":79575,"SoundDuration":79575,"Delta":39251640},{"NoteNumber":35,"Velocity":58,"Duration":79575,"SoundDuration":79575,"Delta":39410791},{"NoteNumber":69,"Velocity":74,"Duration":81967,"SoundDuration":81967,"Delta":39569942},{"NoteNumber":37,"Velocity":64,"Duration":81967,"SoundDuration":81967,"Delta":39569942},{"NoteNumber":65,"Velocity":73,"Duration":81967,"SoundDuration":81967,"Delta":39733876},{"NoteNumber":77,"Velocity":87,"Duration":81967,"SoundDuration":81967,"Delta":39733876},{"NoteNumber":38,"Velocity":67,"Duration":81967,"SoundDuration":81967,"Delta":39733876},{"NoteNumber":65,"Velocity":46,"Duration":78125,"SoundDuration":78125,"Delta":39897811},{"NoteNumber":69,"Velocity":55,"Duration":78125,"SoundDuration":78125,"Delta":39897811},{"NoteNumber":64,"Velocity":46,"Duration":80429,"SoundDuration":80429,"Delta":40054061},{"NoteNumber":67,"Velocity":55,"Duration":80429,"SoundDuration":80429,"Delta":40054061},{"NoteNumber":62,"Velocity":51,"Duration":78125,"SoundDuration":78125,"Delta":40214919},{"NoteNumber":65,"Velocity":60,"Duration":78125,"SoundDuration":78125,"Delta":40214919},{"NoteNumber":62,"Velocity":41,"Duration":78125,"SoundDuration":78125,"Delta":40371169},{"NoteNumber":65,"Velocity":49,"Duration":78125,"SoundDuration":78125,"Delta":40371169},{"NoteNumber":57,"Velocity":41,"Duration":79575,"SoundDuration":79575,"Delta":40527419},{"NoteNumber":64,"Velocity":49,"Duration":79575,"SoundDuration":79575,"Delta":40527419},{"NoteNumber":62,"Velocity":58,"Duration":79575,"SoundDuration":79575,"Delta":40686570},{"NoteNumber":53,"Velocity":49,"Duration":79575,"SoundDuration":79575,"Delta":40686570},{"NoteNumber":45,"Velocity":74,"Duration":81967,"SoundDuration":81967,"Delta":41004872},{"NoteNumber":50,"Velocity":87,"Duration":81967,"SoundDuration":81967,"Delta":41168806},{"NoteNumber":65,"Velocity":46,"Duration":78125,"SoundDuration":78125,"Delta":41332741},{"NoteNumber":69,"Velocity":55,"Duration":78125,"SoundDuration":78125,"Delta":41332741},{"NoteNumber":64,"Velocity":46,"Duration":80429,"SoundDuration":80429,"Delta":41488991},{"NoteNumber":67,"Velocity":55,"Duration":80429,"SoundDuration":80429,"Delta":41488991},{"NoteNumber":62,"Velocity":51,"Duration":78125,"SoundDuration":78125,"Delta":41649849},{"NoteNumber":65,"Velocity":60,"Duration":78125,"SoundDuration":78125,"Delta":41649849},{"NoteNumber":65,"Velocity":49,"Duration":78125,"SoundDuration":78125,"Delta":41806099},{"NoteNumber":62,"Velocity":41,"Duration":78125,"SoundDuration":78125,"Delta":41806099},{"NoteNumber":64,"Velocity":49,"Duration":79575,"SoundDuration":79575,"Delta":41962349},{"NoteNumber":57,"Velocity":41,"Duration":79575,"SoundDuration":79575,"Delta":41962349},{"NoteNumber":38,"Velocity":41,"Duration":79575,"SoundDuration":79575,"Delta":41962349},{"NoteNumber":53,"Velocity":49,"Duration":79575,"SoundDuration":79575,"Delta":42121500},{"NoteNumber":62,"Velocity":58,"Duration":79575,"SoundDuration":79575,"Delta":42121500},{"NoteNumber":38,"Velocity":41,"Duration":79575,"SoundDuration":79575,"Delta":42121500},{"NoteNumber":39,"Velocity":58,"Duration":79575,"SoundDuration":79575,"Delta":42280651},{"NoteNumber":72,"Velocity":74,"Duration":81967,"SoundDuration":81967,"Delta":42439802},{"NoteNumber":40,"Velocity":64,"Duration":81967,"SoundDuration":81967,"Delta":42439802},{"NoteNumber":69,"Velocity":73,"Duration":81967,"SoundDuration":81967,"Delta":42603736},{"NoteNumber":81,"Velocity":87,"Duration":81967,"SoundDuration":81967,"Delta":42603736},{"NoteNumber":41,"Velocity":67,"Duration":81967,"SoundDuration":81967,"Delta":42603736},{"NoteNumber":69,"Velocity":46,"Duration":78125,"SoundDuration":78125,"Delta":42767671},{"NoteNumber":72,"Velocity":55,"Duration":78125,"SoundDuration":78125,"Delta":42767671},{"NoteNumber":70,"Velocity":55,"Duration":80429,"SoundDuration":80429,"Delta":42923921},{"NoteNumber":67,"Velocity":46,"Duration":80429,"SoundDuration":80429,"Delta":42923921},{"NoteNumber":69,"Velocity":60,"Duration":78125,"SoundDuration":78125,"Delta":43084779},{"NoteNumber":65,"Velocity":51,"Duration":78125,"SoundDuration":78125,"Delta":43084779},{"NoteNumber":69,"Velocity":49,"Duration":78125,"SoundDuration":78125,"Delta":43241029},{"NoteNumber":65,"Velocity":41,"Duration":78125,"SoundDuration":78125,"Delta":43241029},{"NoteNumber":60,"Velocity":41,"Duration":79575,"SoundDuration":79575,"Delta":43397279},{"NoteNumber":67,"Velocity":49,"Duration":79575,"SoundDuration":79575,"Delta":43397279},{"NoteNumber":65,"Velocity":58,"Duration":79575,"SoundDuration":79575,"Delta":43556430},{"NoteNumber":57,"Velocity":49,"Duration":79575,"SoundDuration":79575,"Delta":43556430},{"NoteNumber":48,"Velocity":74,"Duration":81967,"SoundDuration":81967,"Delta":43874732},{"NoteNumber":53,"Velocity":87,"Duration":81967,"SoundDuration":81967,"Delta":44038666},{"NoteNumber":72,"Velocity":55,"Duration":78125,"SoundDuration":78125,"Delta":44202601},{"NoteNumber":69,"Velocity":46,"Duration":78125,"SoundDuration":78125,"Delta":44202601},{"NoteNumber":67,"Velocity":46,"Duration":80429,"SoundDuration":80429,"Delta":44358851},{"NoteNumber":70,"Velocity":55,"Duration":80429,"SoundDuration":80429,"Delta":44358851},{"NoteNumber":65,"Velocity":51,"Duration":78125,"SoundDuration":78125,"Delta":44519709},{"NoteNumber":69,"Velocity":60,"Duration":78125,"SoundDuration":78125,"Delta":44519709},{"NoteNumber":65,"Velocity":41,"Duration":78125,"SoundDuration":78125,"Delta":44675959},{"NoteNumber":69,"Velocity":49,"Duration":78125,"SoundDuration":78125,"Delta":44675959},{"NoteNumber":67,"Velocity":49,"Duration":79575,"SoundDuration":79575,"Delta":44832209},{"NoteNumber":60,"Velocity":41,"Duration":79575,"SoundDuration":79575,"Delta":44832209},{"NoteNumber":41,"Velocity":41,"Duration":79575,"SoundDuration":79575,"Delta":44832209},{"NoteNumber":65,"Velocity":58,"Duration":79575,"SoundDuration":79575,"Delta":44991360},{"NoteNumber":57,"Velocity":49,"Duration":79575,"SoundDuration":79575,"Delta":44991360},{"NoteNumber":41,"Velocity":41,"Duration":79575,"SoundDuration":79575,"Delta":44991360},{"NoteNumber":43,"Velocity":58,"Duration":79575,"SoundDuration":79575,"Delta":45150511},{"NoteNumber":77,"Velocity":74,"Duration":81967,"SoundDuration":81967,"Delta":45309662},{"NoteNumber":45,"Velocity":64,"Duration":81967,"SoundDuration":81967,"Delta":45309662},{"NoteNumber":74,"Velocity":73,"Duration":81967,"SoundDuration":81967,"Delta":45473596},{"NoteNumber":86,"Velocity":87,"Duration":81967,"SoundDuration":81967,"Delta":45473596},{"NoteNumber":46,"Velocity":67,"Duration":81967,"SoundDuration":81967,"Delta":45473596},{"NoteNumber":70,"Velocity":46,"Duration":78125,"SoundDuration":78125,"Delta":45637531},{"NoteNumber":74,"Velocity":55,"Duration":78125,"SoundDuration":78125,"Delta":45637531},{"NoteNumber":72,"Velocity":55,"Duration":80429,"SoundDuration":80429,"Delta":45793781},{"NoteNumber":65,"Velocity":46,"Duration":80429,"SoundDuration":80429,"Delta":45793781},{"NoteNumber":62,"Velocity":51,"Duration":78125,"SoundDuration":78125,"Delta":45954639},{"NoteNumber":70,"Velocity":60,"Duration":78125,"SoundDuration":78125,"Delta":45954639},{"NoteNumber":44,"Velocity":41,"Duration":78125,"SoundDuration":78125,"Delta":46110889},{"NoteNumber":45,"Velocity":41,"Duration":79575,"SoundDuration":79575,"Delta":46267139},{"NoteNumber":47,"Velocity":45,"Duration":79575,"SoundDuration":79575,"Delta":46426290},{"NoteNumber":47,"Velocity":43,"Duration":79575,"SoundDuration":79575,"Delta":46585441},{"NoteNumber":74,"Velocity":64,"Duration":81967,"SoundDuration":81967,"Delta":46744592},{"NoteNumber":48,"Velocity":45,"Duration":81967,"SoundDuration":81967,"Delta":46744592},{"NoteNumber":83,"Velocity":73,"Duration":81967,"SoundDuration":81967,"Delta":46908526},{"NoteNumber":71,"Velocity":62,"Duration":81967,"SoundDuration":81967,"Delta":46908526},{"NoteNumber":50,"Velocity":55,"Duration":81967,"SoundDuration":81967,"Delta":46908526},{"NoteNumber":71,"Velocity":55,"Duration":78125,"SoundDuration":78125,"Delta":47072461},{"NoteNumber":68,"Velocity":46,"Duration":78125,"SoundDuration":78125,"Delta":47072461},{"NoteNumber":69,"Velocity":55,"Duration":80429,"SoundDuration":80429,"Delta":47228711},{"NoteNumber":66,"Velocity":46,"Duration":80429,"SoundDuration":80429,"Delta":47228711},{"NoteNumber":68,"Velocity":60,"Duration":78125,"SoundDuration":78125,"Delta":47389569},{"NoteNumber":65,"Velocity":51,"Duration":78125,"SoundDuration":78125,"Delta":47389569},{"NoteNumber":47,"Velocity":41,"Duration":78125,"SoundDuration":78125,"Delta":47545819},{"NoteNumber":48,"Velocity":41,"Duration":79575,"SoundDuration":79575,"Delta":47702069},{"NoteNumber":50,"Velocity":45,"Duration":79575,"SoundDuration":79575,"Delta":47861220},{"NoteNumber":50,"Velocity":43,"Duration":79575,"SoundDuration":79575,"Delta":48020371},{"NoteNumber":71,"Velocity":48,"Duration":81967,"SoundDuration":81967,"Delta":48179522},{"NoteNumber":52,"Velocity":45,"Duration":81967,"SoundDuration":81967,"Delta":48179522},{"NoteNumber":68,"Velocity":49,"Duration":81967,"SoundDuration":81967,"Delta":48343456},{"NoteNumber":80,"Velocity":58,"Duration":81967,"SoundDuration":81967,"Delta":48343456},{"NoteNumber":53,"Velocity":55,"Duration":81967,"SoundDuration":81967,"Delta":48343456},{"NoteNumber":68,"Velocity":51,"Duration":78125,"SoundDuration":78125,"Delta":48507391},{"NoteNumber":65,"Velocity":43,"Duration":78125,"SoundDuration":78125,"Delta":48507391},{"NoteNumber":67,"Velocity":48,"Duration":80429,"SoundDuration":80429,"Delta":48663641},{"NoteNumber":64,"Velocity":40,"Duration":80429,"SoundDuration":80429,"Delta":48663641},{"NoteNumber":65,"Velocity":45,"Duration":78125,"SoundDuration":78125,"Delta":48824499},{"NoteNumber":62,"Velocity":38,"Duration":78125,"SoundDuration":78125,"Delta":48824499},{"NoteNumber":53,"Velocity":36,"Duration":78125,"SoundDuration":78125,"Delta":48980749},{"NoteNumber":55,"Velocity":36,"Duration":79575,"SoundDuration":79575,"Delta":49136999},{"NoteNumber":56,"Velocity":43,"Duration":79575,"SoundDuration":79575,"Delta":49296150},{"NoteNumber":56,"Velocity":39,"Duration":79575,"SoundDuration":79575,"Delta":49455301},{"NoteNumber":71,"Velocity":74,"Duration":163934,"SoundDuration":163934,"Delta":49614452},{"NoteNumber":57,"Velocity":49,"Duration":81967,"SoundDuration":81967,"Delta":49614452},{"NoteNumber":77,"Velocity":83,"Duration":81967,"SoundDuration":81967,"Delta":49778386},{"NoteNumber":65,"Velocity":71,"Duration":81967,"SoundDuration":81967,"Delta":49778386},{"NoteNumber":59,"Velocity":61,"Duration":81967,"SoundDuration":81967,"Delta":49778386},{"NoteNumber":65,"Velocity":49,"Duration":478142,"SoundDuration":478142,"Delta":50106255},{"NoteNumber":62,"Velocity":41,"Duration":478142,"SoundDuration":478142,"Delta":50106255},{"NoteNumber":59,"Velocity":34,"Duration":478142,"SoundDuration":478142,"Delta":50106255},{"NoteNumber":65,"Velocity":49,"Duration":491803,"SoundDuration":491803,"Delta":50598059},{"NoteNumber":62,"Velocity":41,"Duration":491803,"SoundDuration":491803,"Delta":50598059},{"NoteNumber":59,"Velocity":34,"Duration":491803,"SoundDuration":491803,"Delta":50598059},{"NoteNumber":71,"Velocity":74,"Duration":163934,"SoundDuration":163934,"Delta":51089862},{"NoteNumber":66,"Velocity":71,"Duration":81967,"SoundDuration":81967,"Delta":51253797},{"NoteNumber":78,"Velocity":83,"Duration":81967,"SoundDuration":81967,"Delta":51253797},{"NoteNumber":59,"Velocity":65,"Duration":81967,"SoundDuration":81967,"Delta":51253797},{"NoteNumber":63,"Velocity":65,"Duration":81967,"SoundDuration":81967,"Delta":51253797},{"NoteNumber":66,"Velocity":49,"Duration":478142,"SoundDuration":478142,"Delta":51581666},{"NoteNumber":63,"Velocity":41,"Duration":478142,"SoundDuration":478142,"Delta":51581666},{"NoteNumber":59,"Velocity":34,"Duration":478142,"SoundDuration":478142,"Delta":51581666},{"NoteNumber":66,"Velocity":49,"Duration":491803,"SoundDuration":491803,"Delta":52073469},{"NoteNumber":63,"Velocity":41,"Duration":491803,"SoundDuration":491803,"Delta":52073469},{"NoteNumber":59,"Velocity":34,"Duration":491803,"SoundDuration":491803,"Delta":52073469},{"NoteNumber":71,"Velocity":74,"Duration":163934,"SoundDuration":163934,"Delta":52565273},{"NoteNumber":67,"Velocity":71,"Duration":81967,"SoundDuration":81967,"Delta":52729207},{"NoteNumber":74,"Velocity":71,"Duration":81967,"SoundDuration":81967,"Delta":52729207},{"NoteNumber":79,"Velocity":83,"Duration":81967,"SoundDuration":81967,"Delta":52729207},{"NoteNumber":77,"Velocity":71,"Duration":81967,"SoundDuration":81967,"Delta":52729207},{"NoteNumber":62,"Velocity":55,"Duration":491803,"SoundDuration":491803,"Delta":52729207},{"NoteNumber":55,"Velocity":55,"Duration":491803,"SoundDuration":491803,"Delta":52729207},{"NoteNumber":65,"Velocity":65,"Duration":491803,"SoundDuration":491803,"Delta":52729207},{"NoteNumber":67,"Velocity":60,"Duration":478142,"SoundDuration":478142,"Delta":53057076},{"NoteNumber":71,"Velocity":60,"Duration":478142,"SoundDuration":478142,"Delta":53057076},{"NoteNumber":74,"Velocity":60,"Duration":478142,"SoundDuration":478142,"Delta":53057076},{"NoteNumber":79,"Velocity":71,"Duration":478142,"SoundDuration":478142,"Delta":53057076},{"NoteNumber":77,"Velocity":60,"Duration":478142,"SoundDuration":478142,"Delta":53057076},{"NoteNumber":71,"Velocity":62,"Duration":478142,"SoundDuration":478142,"Delta":53548880},{"NoteNumber":67,"Velocity":62,"Duration":478142,"SoundDuration":478142,"Delta":53548880},{"NoteNumber":79,"Velocity":74,"Duration":491803,"SoundDuration":491803,"Delta":53548880},{"NoteNumber":74,"Velocity":62,"Duration":478142,"SoundDuration":478142,"Delta":53548880},{"NoteNumber":77,"Velocity":62,"Duration":478142,"SoundDuration":478142,"Delta":53548880},{"NoteNumber":31,"Velocity":60,"Duration":81967,"SoundDuration":81967,"Delta":53548880},{"NoteNumber":43,"Velocity":60,"Duration":81967,"SoundDuration":81967,"Delta":53548880},{"NoteNumber":43,"Velocity":64,"Duration":81967,"SoundDuration":81967,"Delta":53712814},{"NoteNumber":31,"Velocity":64,"Duration":81967,"SoundDuration":81967,"Delta":53712814},{"NoteNumber":45,"Velocity":67,"Duration":81967,"SoundDuration":81967,"Delta":53876749},{"NoteNumber":33,"Velocity":67,"Duration":81967,"SoundDuration":81967,"Delta":53876749},{"NoteNumber":71,"Velocity":66,"Duration":102459,"SoundDuration":102459,"Delta":54040683},{"NoteNumber":74,"Velocity":66,"Duration":102459,"SoundDuration":102459,"Delta":54040683},{"NoteNumber":77,"Velocity":78,"Duration":102459,"SoundDuration":102459,"Delta":54040683},{"NoteNumber":79,"Velocity":78,"Duration":102459,"SoundDuration":102459,"Delta":54040683},{"NoteNumber":67,"Velocity":66,"Duration":102459,"SoundDuration":102459,"Delta":54040683},{"NoteNumber":47,"Velocity":70,"Duration":81967,"SoundDuration":81967,"Delta":54040683},{"NoteNumber":35,"Velocity":70,"Duration":81967,"SoundDuration":81967,"Delta":54040683},{"NoteNumber":79,"Velocity":76,"Duration":143442,"SoundDuration":143442,"Delta":54143143},{"NoteNumber":83,"Velocity":79,"Duration":122950,"SoundDuration":122950,"Delta":54163634},{"NoteNumber":89,"Velocity":83,"Duration":102459,"SoundDuration":102459,"Delta":54184126},{"NoteNumber":91,"Velocity":87,"Duration":81967,"SoundDuration":81967,"Delta":54204618},{"NoteNumber":36,"Velocity":73,"Duration":81967,"SoundDuration":81967,"Delta":54204618},{"NoteNumber":43,"Velocity":60,"Duration":81967,"SoundDuration":81967,"Delta":54368552},{"NoteNumber":67,"Velocity":60,"Duration":491803,"SoundDuration":491803,"Delta":54532487},{"NoteNumber":79,"Velocity":71,"Duration":491803,"SoundDuration":491803,"Delta":54532487},{"NoteNumber":77,"Velocity":60,"Duration":491803,"SoundDuration":491803,"Delta":54532487},{"NoteNumber":48,"Velocity":60,"Duration":81967,"SoundDuration":81967,"Delta":54532487},{"NoteNumber":36,"Velocity":70,"Duration":81967,"SoundDuration":81967,"Delta":54696421},{"NoteNumber":43,"Velocity":59,"Duration":81967,"SoundDuration":81967,"Delta":54860356},{"NoteNumber":67,"Velocity":60,"Duration":81967,"SoundDuration":81967,"Delta":55024290},{"NoteNumber":77,"Velocity":60,"Duration":81967,"SoundDuration":81967,"Delta":55024290},{"NoteNumber":79,"Velocity":71,"Duration":81967,"SoundDuration":81967,"Delta":55024290},{"NoteNumber":48,"Velocity":59,"Duration":81967,"SoundDuration":81967,"Delta":55024290},{"NoteNumber":67,"Velocity":58,"Duration":81967,"SoundDuration":81967,"Delta":55188225},{"NoteNumber":79,"Velocity":69,"Duration":81967,"SoundDuration":81967,"Delta":55188225},{"NoteNumber":77,"Velocity":58,"Duration":81967,"SoundDuration":81967,"Delta":55188225},{"NoteNumber":36,"Velocity":66,"Duration":81967,"SoundDuration":81967,"Delta":55188225},{"NoteNumber":77,"Velocity":62,"Duration":81967,"SoundDuration":81967,"Delta":55352159},{"NoteNumber":69,"Velocity":62,"Duration":81967,"SoundDuration":81967,"Delta":55352159},{"NoteNumber":81,"Velocity":73,"Duration":81967,"SoundDuration":81967,"Delta":55352159},{"NoteNumber":43,"Velocity":59,"Duration":81967,"SoundDuration":81967,"Delta":55352159},{"NoteNumber":83,"Velocity":77,"Duration":81967,"SoundDuration":81967,"Delta":55516094},{"NoteNumber":77,"Velocity":65,"Duration":81967,"SoundDuration":81967,"Delta":55516094},{"NoteNumber":71,"Velocity":65,"Duration":81967,"SoundDuration":81967,"Delta":55516094},{"NoteNumber":48,"Velocity":59,"Duration":81967,"SoundDuration":81967,"Delta":55516094},{"NoteNumber":76,"Velocity":69,"Duration":81967,"SoundDuration":81967,"Delta":55680028},{"NoteNumber":72,"Velocity":69,"Duration":81967,"SoundDuration":81967,"Delta":55680028},{"NoteNumber":84,"Velocity":82,"Duration":81967,"SoundDuration":81967,"Delta":55680028},{"NoteNumber":36,"Velocity":66,"Duration":81967,"SoundDuration":81967,"Delta":55680028},{"NoteNumber":43,"Velocity":49,"Duration":74812,"SoundDuration":74812,"Delta":55843963},{"NoteNumber":60,"Velocity":45,"Duration":74812,"SoundDuration":74812,"Delta":55993589},{"NoteNumber":64,"Velocity":54,"Duration":74812,"SoundDuration":74812,"Delta":55993589},{"NoteNumber":48,"Velocity":49,"Duration":74812,"SoundDuration":74812,"Delta":55993589},{"NoteNumber":64,"Velocity":59,"Duration":74812,"SoundDuration":74812,"Delta":56143215},{"NoteNumber":60,"Velocity":50,"Duration":74812,"SoundDuration":74812,"Delta":56143215},{"NoteNumber":36,"Velocity":56,"Duration":74812,"SoundDuration":74812,"Delta":56143215},{"NoteNumber":65,"Velocity":53,"Duration":74812,"SoundDuration":74812,"Delta":56292841},{"NoteNumber":62,"Velocity":45,"Duration":74812,"SoundDuration":74812,"Delta":56292841},{"NoteNumber":43,"Velocity":44,"Duration":74812,"SoundDuration":74812,"Delta":56292841},{"NoteNumber":64,"Velocity":45,"Duration":74812,"SoundDuration":74812,"Delta":56442467},{"NoteNumber":67,"Velocity":53,"Duration":74812,"SoundDuration":74812,"Delta":56442467},{"NoteNumber":48,"Velocity":44,"Duration":74812,"SoundDuration":74812,"Delta":56442467},{"NoteNumber":65,"Velocity":50,"Duration":74812,"SoundDuration":74812,"Delta":56592093},{"NoteNumber":69,"Velocity":59,"Duration":74812,"SoundDuration":74812,"Delta":56592093},{"NoteNumber":36,"Velocity":56,"Duration":74812,"SoundDuration":74812,"Delta":56592093},{"NoteNumber":64,"Velocity":45,"Duration":76923,"SoundDuration":76923,"Delta":56741719},{"NoteNumber":67,"Velocity":54,"Duration":76923,"SoundDuration":76923,"Delta":56741719},{"NoteNumber":43,"Velocity":46,"Duration":76923,"SoundDuration":76923,"Delta":56741719},{"NoteNumber":72,"Velocity":67,"Duration":150401,"SoundDuration":150401,"Delta":56857103},{"NoteNumber":76,"Velocity":67,"Duration":131170,"SoundDuration":131170,"Delta":56876334},{"NoteNumber":84,"Velocity":80,"Duration":111940,"SoundDuration":111940,"Delta":56895565},{"NoteNumber":48,"Velocity":46,"Duration":74626,"SoundDuration":74626,"Delta":56895565},{"NoteNumber":60,"Velocity":50,"Duration":74626,"SoundDuration":74626,"Delta":57044818},{"NoteNumber":64,"Velocity":59,"Duration":74626,"SoundDuration":74626,"Delta":57044818},{"NoteNumber":36,"Velocity":60,"Duration":74626,"SoundDuration":74626,"Delta":57044818},{"NoteNumber":62,"Velocity":45,"Duration":74626,"SoundDuration":74626,"Delta":57194072},{"NoteNumber":65,"Velocity":53,"Duration":74626,"SoundDuration":74626,"Delta":57194072},{"NoteNumber":43,"Velocity":49,"Duration":74626,"SoundDuration":74626,"Delta":57194072},{"NoteNumber":67,"Velocity":53,"Duration":74626,"SoundDuration":74626,"Delta":57343325},{"NoteNumber":64,"Velocity":45,"Duration":74626,"SoundDuration":74626,"Delta":57343325},{"NoteNumber":48,"Velocity":49,"Duration":74626,"SoundDuration":74626,"Delta":57343325},{"NoteNumber":69,"Velocity":59,"Duration":74626,"SoundDuration":74626,"Delta":57492579},{"NoteNumber":65,"Velocity":50,"Duration":74626,"SoundDuration":74626,"Delta":57492579},{"NoteNumber":36,"Velocity":56,"Duration":74626,"SoundDuration":74626,"Delta":57492579},{"NoteNumber":67,"Velocity":54,"Duration":74626,"SoundDuration":74626,"Delta":57641832},{"NoteNumber":64,"Velocity":45,"Duration":74626,"SoundDuration":74626,"Delta":57641832},{"NoteNumber":43,"Velocity":44,"Duration":74626,"SoundDuration":74626,"Delta":57641832},{"NoteNumber":65,"Velocity":45,"Duration":74626,"SoundDuration":74626,"Delta":57791086},{"NoteNumber":69,"Velocity":53,"Duration":74626,"SoundDuration":74626,"Delta":57791086},{"NoteNumber":48,"Velocity":44,"Duration":74626,"SoundDuration":74626,"Delta":57791086},{"NoteNumber":71,"Velocity":59,"Duration":74626,"SoundDuration":74626,"Delta":57940339},{"NoteNumber":67,"Velocity":50,"Duration":74626,"SoundDuration":74626,"Delta":57940339},{"NoteNumber":35,"Velocity":56,"Duration":74626,"SoundDuration":74626,"Delta":57940339},{"NoteNumber":69,"Velocity":45,"Duration":74626,"SoundDuration":74626,"Delta":58089593},{"NoteNumber":72,"Velocity":54,"Duration":74626,"SoundDuration":74626,"Delta":58089593},{"NoteNumber":43,"Velocity":46,"Duration":74626,"SoundDuration":74626,"Delta":58089593},{"NoteNumber":74,"Velocity":53,"Duration":76335,"SoundDuration":76335,"Delta":58238846},{"NoteNumber":71,"Velocity":45,"Duration":76335,"SoundDuration":76335,"Delta":58238846},{"NoteNumber":47,"Velocity":46,"Duration":76335,"SoundDuration":76335,"Delta":58238846},{"NoteNumber":76,"Velocity":67,"Duration":149830,"SoundDuration":149830,"Delta":58353350},{"NoteNumber":79,"Velocity":67,"Duration":137107,"SoundDuration":137107,"Delta":58366073},{"NoteNumber":85,"Velocity":67,"Duration":124385,"SoundDuration":124385,"Delta":58378796},{"NoteNumber":88,"Velocity":80,"Duration":111662,"SoundDuration":111662,"Delta":58391518},{"NoteNumber":33,"Velocity":60,"Duration":74441,"SoundDuration":74441,"Delta":58391518},{"NoteNumber":40,"Velocity":49,"Duration":74441,"SoundDuration":74441,"Delta":58540402},{"NoteNumber":61,"Velocity":45,"Duration":74441,"SoundDuration":74441,"Delta":58689285},{"NoteNumber":64,"Velocity":54,"Duration":74441,"SoundDuration":74441,"Delta":58689285},{"NoteNumber":45,"Velocity":49,"Duration":74441,"SoundDuration":74441,"Delta":58689285},{"NoteNumber":61,"Velocity":51,"Duration":74441,"SoundDuration":74441,"Delta":58838169},{"NoteNumber":64,"Velocity":60,"Duration":74441,"SoundDuration":74441,"Delta":58838169},{"NoteNumber":33,"Velocity":57,"Duration":74441,"SoundDuration":74441,"Delta":58838169},{"NoteNumber":62,"Velocity":46,"Duration":74441,"SoundDuration":74441,"Delta":58987052},{"NoteNumber":65,"Velocity":56,"Duration":74441,"SoundDuration":74441,"Delta":58987052},{"NoteNumber":40,"Velocity":46,"Duration":74441,"SoundDuration":74441,"Delta":58987052},{"NoteNumber":64,"Velocity":48,"Duration":74441,"SoundDuration":74441,"Delta":59135936},{"NoteNumber":67,"Velocity":57,"Duration":74441,"SoundDuration":74441,"Delta":59135936},{"NoteNumber":45,"Velocity":47,"Duration":74441,"SoundDuration":74441,"Delta":59135936},{"NoteNumber":69,"Velocity":65,"Duration":74441,"SoundDuration":74441,"Delta":59284819},{"NoteNumber":65,"Velocity":55,"Duration":74441,"SoundDuration":74441,"Delta":59284819},{"NoteNumber":33,"Velocity":62,"Duration":74441,"SoundDuration":74441,"Delta":59284819},{"NoteNumber":67,"Velocity":61,"Duration":76923,"SoundDuration":76923,"Delta":59433703},{"NoteNumber":64,"Velocity":51,"Duration":76923,"SoundDuration":76923,"Delta":59433703},{"NoteNumber":40,"Velocity":52,"Duration":76923,"SoundDuration":76923,"Delta":59433703},{"NoteNumber":76,"Velocity":78,"Duration":150401,"SoundDuration":150401,"Delta":59549087},{"NoteNumber":79,"Velocity":78,"Duration":137581,"SoundDuration":137581,"Delta":59561908},{"NoteNumber":85,"Velocity":78,"Duration":124760,"SoundDuration":124760,"Delta":59574728},{"NoteNumber":88,"Velocity":93,"Duration":111940,"SoundDuration":111940,"Delta":59587549},{"NoteNumber":45,"Velocity":53,"Duration":74626,"SoundDuration":74626,"Delta":59587549},{"NoteNumber":64,"Velocity":50,"Duration":74626,"SoundDuration":74626,"Delta":59736802},{"NoteNumber":67,"Velocity":59,"Duration":74626,"SoundDuration":74626,"Delta":59736802},{"NoteNumber":33,"Velocity":60,"Duration":74626,"SoundDuration":74626,"Delta":59736802},{"NoteNumber":69,"Velocity":53,"Duration":74626,"SoundDuration":74626,"Delta":59886056},{"NoteNumber":65,"Velocity":45,"Duration":74626,"SoundDuration":74626,"Delta":59886056},{"NoteNumber":40,"Velocity":49,"Duration":74626,"SoundDuration":74626,"Delta":59886056},{"NoteNumber":67,"Velocity":45,"Duration":74626,"SoundDuration":74626,"Delta":60035309},{"NoteNumber":71,"Velocity":53,"Duration":74626,"SoundDuration":74626,"Delta":60035309},{"NoteNumber":45,"Velocity":49,"Duration":74626,"SoundDuration":74626,"Delta":60035309},{"NoteNumber":69,"Velocity":50,"Duration":74626,"SoundDuration":74626,"Delta":60184563},{"NoteNumber":73,"Velocity":59,"Duration":74626,"SoundDuration":74626,"Delta":60184563},{"NoteNumber":33,"Velocity":56,"Duration":74626,"SoundDuration":74626,"Delta":60184563},{"NoteNumber":71,"Velocity":54,"Duration":74626,"SoundDuration":74626,"Delta":60333816},{"NoteNumber":67,"Velocity":45,"Duration":74626,"SoundDuration":74626,"Delta":60333816},{"NoteNumber":40,"Velocity":44,"Duration":74626,"SoundDuration":74626,"Delta":60333816},{"NoteNumber":73,"Velocity":53,"Duration":74626,"SoundDuration":74626,"Delta":60483070},{"NoteNumber":69,"Velocity":45,"Duration":74626,"SoundDuration":74626,"Delta":60483070},{"NoteNumber":45,"Velocity":44,"Duration":74626,"SoundDuration":74626,"Delta":60483070},{"NoteNumber":71,"Velocity":50,"Duration":74626,"SoundDuration":74626,"Delta":60632323},{"NoteNumber":74,"Velocity":59,"Duration":74626,"SoundDuration":74626,"Delta":60632323},{"NoteNumber":31,"Velocity":56,"Duration":74626,"SoundDuration":74626,"Delta":60632323},{"NoteNumber":76,"Velocity":54,"Duration":74626,"SoundDuration":74626,"Delta":60781577},{"NoteNumber":73,"Velocity":45,"Duration":74626,"SoundDuration":74626,"Delta":60781577},{"NoteNumber":40,"Velocity":46,"Duration":74626,"SoundDuration":74626,"Delta":60781577},{"NoteNumber":76,"Velocity":45,"Duration":76335,"SoundDuration":76335,"Delta":60930830},{"NoteNumber":79,"Velocity":53,"Duration":76335,"SoundDuration":76335,"Delta":60930830},{"NoteNumber":43,"Velocity":46,"Duration":76335,"SoundDuration":76335,"Delta":60930830},{"NoteNumber":81,"Velocity":67,"Duration":149830,"SoundDuration":149830,"Delta":61045334},{"NoteNumber":84,"Velocity":67,"Duration":137107,"SoundDuration":137107,"Delta":61058057},{"NoteNumber":89,"Velocity":67,"Duration":124385,"SoundDuration":124385,"Delta":61070780},{"NoteNumber":93,"Velocity":80,"Duration":111662,"SoundDuration":111662,"Delta":61083502},{"NoteNumber":29,"Velocity":60,"Duration":74441,"SoundDuration":74441,"Delta":61083502},{"NoteNumber":36,"Velocity":49,"Duration":74441,"SoundDuration":74441,"Delta":61232386},{"NoteNumber":65,"Velocity":45,"Duration":74441,"SoundDuration":74441,"Delta":61381269},{"NoteNumber":69,"Velocity":54,"Duration":74441,"SoundDuration":74441,"Delta":61381269},{"NoteNumber":41,"Velocity":49,"Duration":74441,"SoundDuration":74441,"Delta":61381269},{"NoteNumber":69,"Velocity":60,"Duration":74441,"SoundDuration":74441,"Delta":61530153},{"NoteNumber":65,"Velocity":51,"Duration":74441,"SoundDuration":74441,"Delta":61530153},{"NoteNumber":29,"Velocity":57,"Duration":74441,"SoundDuration":74441,"Delta":61530153},{"NoteNumber":67,"Velocity":46,"Duration":74441,"SoundDuration":74441,"Delta":61679036},{"NoteNumber":70,"Velocity":56,"Duration":74441,"SoundDuration":74441,"Delta":61679036},{"NoteNumber":36,"Velocity":46,"Duration":74441,"SoundDuration":74441,"Delta":61679036},{"NoteNumber":69,"Velocity":48,"Duration":74441,"SoundDuration":74441,"Delta":61827920},{"NoteNumber":72,"Velocity":57,"Duration":74441,"SoundDuration":74441,"Delta":61827920},{"NoteNumber":41,"Velocity":47,"Duration":74441,"SoundDuration":74441,"Delta":61827920},{"NoteNumber":70,"Velocity":55,"Duration":74441,"SoundDuration":74441,"Delta":61976803},{"NoteNumber":74,"Velocity":65,"Duration":74441,"SoundDuration":74441,"Delta":61976803},{"NoteNumber":29,"Velocity":62,"Duration":74441,"SoundDuration":74441,"Delta":61976803},{"NoteNumber":69,"Velocity":51,"Duration":76923,"SoundDuration":76923,"Delta":62125687},{"NoteNumber":72,"Velocity":61,"Duration":76923,"SoundDuration":76923,"Delta":62125687},{"NoteNumber":36,"Velocity":52,"Duration":76923,"SoundDuration":76923,"Delta":62125687},{"NoteNumber":81,"Velocity":78,"Duration":150401,"SoundDuration":150401,"Delta":62241071},{"NoteNumber":84,"Velocity":78,"Duration":137581,"SoundDuration":137581,"Delta":62253892},{"NoteNumber":89,"Velocity":78,"Duration":124760,"SoundDuration":124760,"Delta":62266712},{"NoteNumber":93,"Velocity":93,"Duration":111940,"SoundDuration":111940,"Delta":62279533},{"NoteNumber":41,"Velocity":53,"Duration":74626,"SoundDuration":74626,"Delta":62279533},{"NoteNumber":83,"Velocity":65,"Duration":74626,"SoundDuration":74626,"Delta":62428786},{"NoteNumber":79,"Velocity":54,"Duration":74626,"SoundDuration":74626,"Delta":62428786},{"NoteNumber":71,"Velocity":54,"Duration":74626,"SoundDuration":74626,"Delta":62428786},{"NoteNumber":29,"Velocity":66,"Duration":74626,"SoundDuration":74626,"Delta":62428786},{"NoteNumber":81,"Velocity":50,"Duration":74626,"SoundDuration":74626,"Delta":62578040},{"NoteNumber":72,"Velocity":50,"Duration":74626,"SoundDuration":74626,"Delta":62578040},{"NoteNumber":84,"Velocity":60,"Duration":74626,"SoundDuration":74626,"Delta":62578040},{"NoteNumber":31,"Velocity":55,"Duration":74626,"SoundDuration":74626,"Delta":62578040},{"NoteNumber":83,"Velocity":51,"Duration":74626,"SoundDuration":74626,"Delta":62727293},{"NoteNumber":86,"Velocity":62,"Duration":74626,"SoundDuration":74626,"Delta":62727293},{"NoteNumber":74,"Velocity":51,"Duration":74626,"SoundDuration":74626,"Delta":62727293},{"NoteNumber":41,"Velocity":56,"Duration":74626,"SoundDuration":74626,"Delta":62727293},{"NoteNumber":84,"Velocity":59,"Duration":74626,"SoundDuration":74626,"Delta":62876547},{"NoteNumber":76,"Velocity":59,"Duration":74626,"SoundDuration":74626,"Delta":62876547},{"NoteNumber":88,"Velocity":71,"Duration":74626,"SoundDuration":74626,"Delta":62876547},{"NoteNumber":29,"Velocity":67,"Duration":74626,"SoundDuration":74626,"Delta":62876547},{"NoteNumber":86,"Velocity":56,"Duration":74626,"SoundDuration":74626,"Delta":63025800},{"NoteNumber":77,"Velocity":56,"Duration":74626,"SoundDuration":74626,"Delta":63025800},{"NoteNumber":89,"Velocity":66,"Duration":74626,"SoundDuration":74626,"Delta":63025800},{"NoteNumber":31,"Velocity":54,"Duration":74626,"SoundDuration":74626,"Delta":63025800},{"NoteNumber":79,"Velocity":56,"Duration":74626,"SoundDuration":74626,"Delta":63175054},{"NoteNumber":91,"Velocity":67,"Duration":74626,"SoundDuration":74626,"Delta":63175054},{"NoteNumber":83,"Velocity":56,"Duration":74626,"SoundDuration":74626,"Delta":63175054},{"NoteNumber":41,"Velocity":55,"Duration":74626,"SoundDuration":74626,"Delta":63175054},{"NoteNumber":79,"Velocity":64,"Duration":74626,"SoundDuration":74626,"Delta":63324307},{"NoteNumber":83,"Velocity":64,"Duration":74626,"SoundDuration":74626,"Delta":63324307},{"NoteNumber":91,"Velocity":77,"Duration":74626,"SoundDuration":74626,"Delta":63324307},{"NoteNumber":29,"Velocity":72,"Duration":74626,"SoundDuration":74626,"Delta":63324307},{"NoteNumber":83,"Velocity":60,"Duration":76922,"SoundDuration":76922,"Delta":63473561},{"NoteNumber":91,"Velocity":72,"Duration":76922,"SoundDuration":76922,"Delta":63473561},{"NoteNumber":79,"Velocity":60,"Duration":76922,"SoundDuration":76922,"Delta":63473561},{"NoteNumber":31,"Velocity":61,"Duration":76922,"SoundDuration":76922,"Delta":63473561},{"NoteNumber":91,"Velocity":72,"Duration":82873,"SoundDuration":82873,"Delta":63627407},{"NoteNumber":79,"Velocity":61,"Duration":82873,"SoundDuration":82873,"Delta":63627407},{"NoteNumber":83,"Velocity":61,"Duration":82873,"SoundDuration":82873,"Delta":63627407},{"NoteNumber":41,"Velocity":62,"Duration":82873,"SoundDuration":82873,"Delta":63627407},{"NoteNumber":79,"Velocity":76,"Duration":616667,"SoundDuration":616667,"Delta":63793153},{"NoteNumber":84,"Velocity":76,"Duration":616667,"SoundDuration":616667,"Delta":63793153},{"NoteNumber":91,"Velocity":90,"Duration":616667,"SoundDuration":616667,"Delta":63793153},{"NoteNumber":28,"Velocity":68,"Duration":78328,"SoundDuration":78328,"Delta":63793153},{"NoteNumber":40,"Velocity":80,"Duration":78328,"SoundDuration":78328,"Delta":63793153},{"NoteNumber":26,"Velocity":48,"Duration":76142,"SoundDuration":76142,"Delta":63949811},{"NoteNumber":38,"Velocity":57,"Duration":76142,"SoundDuration":76142,"Delta":63949811},{"NoteNumber":24,"Velocity":49,"Duration":76142,"SoundDuration":76142,"Delta":64102095},{"NoteNumber":36,"Velocity":58,"Duration":76142,"SoundDuration":76142,"Delta":64102095},{"NoteNumber":38,"Velocity":78,"Duration":615853,"SoundDuration":615853,"Delta":64254380},{"NoteNumber":26,"Velocity":66,"Duration":615853,"SoundDuration":615853,"Delta":64254380},{"NoteNumber":84,"Velocity":68,"Duration":76142,"SoundDuration":76142,"Delta":64409820},{"NoteNumber":89,"Velocity":81,"Duration":76142,"SoundDuration":76142,"Delta":64409820},{"NoteNumber":77,"Velocity":68,"Duration":76142,"SoundDuration":76142,"Delta":64409820},{"NoteNumber":76,"Velocity":68,"Duration":76142,"SoundDuration":76142,"Delta":64562105},{"NoteNumber":88,"Velocity":81,"Duration":76142,"SoundDuration":76142,"Delta":64562105},{"NoteNumber":84,"Velocity":68,"Duration":76142,"SoundDuration":76142,"Delta":64562105},{"NoteNumber":84,"Velocity":76,"Duration":616663,"SoundDuration":616663,"Delta":64714389},{"NoteNumber":89,"Velocity":90,"Duration":616663,"SoundDuration":616663,"Delta":64714389},{"NoteNumber":77,"Velocity":76,"Duration":616663,"SoundDuration":616663,"Delta":64714389},{"NoteNumber":36,"Velocity":48,"Duration":76142,"SoundDuration":76142,"Delta":64870233},{"NoteNumber":48,"Velocity":57,"Duration":76142,"SoundDuration":76142,"Delta":64870233},{"NoteNumber":35,"Velocity":49,"Duration":76142,"SoundDuration":76142,"Delta":65022518},{"NoteNumber":47,"Velocity":58,"Duration":76142,"SoundDuration":76142,"Delta":65022518},{"NoteNumber":36,"Velocity":66,"Duration":614686,"SoundDuration":614686,"Delta":65174802},{"NoteNumber":48,"Velocity":78,"Duration":614686,"SoundDuration":614686,"Delta":65174802},{"NoteNumber":88,"Velocity":81,"Duration":75949,"SoundDuration":75949,"Delta":65331052},{"NoteNumber":76,"Velocity":68,"Duration":75949,"SoundDuration":75949,"Delta":65331052},{"NoteNumber":84,"Velocity":68,"Duration":75949,"SoundDuration":75949,"Delta":65331052},{"NoteNumber":84,"Velocity":68,"Duration":75949,"SoundDuration":75949,"Delta":65482951},{"NoteNumber":86,"Velocity":81,"Duration":75949,"SoundDuration":75949,"Delta":65482951},{"NoteNumber":74,"Velocity":68,"Duration":75949,"SoundDuration":75949,"Delta":65482951},{"NoteNumber":84,"Velocity":76,"Duration":77319,"SoundDuration":77319,"Delta":65634849},{"NoteNumber":88,"Velocity":90,"Duration":77319,"SoundDuration":77319,"Delta":65634849},{"NoteNumber":76,"Velocity":76,"Duration":77319,"SoundDuration":77319,"Delta":65634849},{"NoteNumber":74,"Velocity":68,"Duration":75949,"SoundDuration":75949,"Delta":65789488},{"NoteNumber":86,"Velocity":81,"Duration":75949,"SoundDuration":75949,"Delta":65789488},{"NoteNumber":47,"Velocity":57,"Duration":75949,"SoundDuration":75949,"Delta":65789488},{"NoteNumber":35,"Velocity":48,"Duration":75949,"SoundDuration":75949,"Delta":65789488},{"NoteNumber":72,"Velocity":68,"Duration":75949,"SoundDuration":75949,"Delta":65941387},{"NoteNumber":84,"Velocity":81,"Duration":75949,"SoundDuration":75949,"Delta":65941387},{"NoteNumber":33,"Velocity":49,"Duration":75949,"SoundDuration":75949,"Delta":65941387},{"NoteNumber":45,"Velocity":58,"Duration":75949,"SoundDuration":75949,"Delta":65941387},{"NoteNumber":74,"Velocity":76,"Duration":75949,"SoundDuration":75949,"Delta":66093285},{"NoteNumber":86,"Velocity":90,"Duration":75949,"SoundDuration":75949,"Delta":66093285},{"NoteNumber":35,"Velocity":48,"Duration":75949,"SoundDuration":75949,"Delta":66093285},{"NoteNumber":47,"Velocity":57,"Duration":75949,"SoundDuration":75949,"Delta":66093285},{"NoteNumber":79,"Velocity":81,"Duration":83798,"SoundDuration":83798,"Delta":66402664},{"NoteNumber":67,"Velocity":68,"Duration":83798,"SoundDuration":83798,"Delta":66402664},{"NoteNumber":43,"Velocity":57,"Duration":83798,"SoundDuration":83798,"Delta":66402664},{"NoteNumber":31,"Velocity":48,"Duration":83798,"SoundDuration":83798,"Delta":66402664},{"NoteNumber":91,"Velocity":90,"Duration":615895,"SoundDuration":615895,"Delta":66570262},{"NoteNumber":84,"Velocity":76,"Duration":615895,"SoundDuration":615895,"Delta":66570262},{"NoteNumber":79,"Velocity":76,"Duration":615895,"SoundDuration":615895,"Delta":66570262},{"NoteNumber":39,"Velocity":68,"Duration":77720,"SoundDuration":77720,"Delta":66570262},{"NoteNumber":51,"Velocity":80,"Duration":77720,"SoundDuration":77720,"Delta":66570262},{"NoteNumber":50,"Velocity":57,"Duration":75949,"SoundDuration":75949,"Delta":66725703},{"NoteNumber":38,"Velocity":48,"Duration":75949,"SoundDuration":75949,"Delta":66725703},{"NoteNumber":48,"Velocity":58,"Duration":75949,"SoundDuration":75949,"Delta":66877601},{"NoteNumber":36,"Velocity":49,"Duration":75949,"SoundDuration":75949,"Delta":66877601},{"NoteNumber":38,"Velocity":66,"Duration":617476,"SoundDuration":617476,"Delta":67029500},{"NoteNumber":50,"Velocity":78,"Duration":617476,"SoundDuration":617476,"Delta":67029500},{"NoteNumber":77,"Velocity":68,"Duration":76142,"SoundDuration":76142,"Delta":67186158},{"NoteNumber":89,"Velocity":81,"Duration":76142,"SoundDuration":76142,"Delta":67186158},{"NoteNumber":84,"Velocity":68,"Duration":76142,"SoundDuration":76142,"Delta":67186158},{"NoteNumber":84,"Velocity":68,"Duration":76142,"SoundDuration":76142,"Delta":67338442},{"NoteNumber":87,"Velocity":81,"Duration":76142,"SoundDuration":76142,"Delta":67338442},{"NoteNumber":75,"Velocity":68,"Duration":76142,"SoundDuration":76142,"Delta":67338442},{"NoteNumber":89,"Velocity":90,"Duration":615937,"SoundDuration":615937,"Delta":67490727},{"NoteNumber":84,"Velocity":76,"Duration":615937,"SoundDuration":615937,"Delta":67490727},{"NoteNumber":77,"Velocity":76,"Duration":615937,"SoundDuration":615937,"Delta":67490727},{"NoteNumber":48,"Velocity":57,"Duration":75757,"SoundDuration":75757,"Delta":67646977},{"NoteNumber":36,"Velocity":48,"Duration":75757,"SoundDuration":75757,"Delta":67646977},{"NoteNumber":47,"Velocity":58,"Duration":75757,"SoundDuration":75757,"Delta":67798492},{"NoteNumber":35,"Velocity":49,"Duration":75757,"SoundDuration":75757,"Delta":67798492},{"NoteNumber":48,"Velocity":78,"Duration":612739,"SoundDuration":612739,"Delta":67950007},{"NoteNumber":36,"Velocity":66,"Duration":612739,"SoundDuration":612739,"Delta":67950007},{"NoteNumber":87,"Velocity":81,"Duration":75949,"SoundDuration":75949,"Delta":68106665},{"NoteNumber":84,"Velocity":68,"Duration":75949,"SoundDuration":75949,"Delta":68106665},{"NoteNumber":75,"Velocity":68,"Duration":75949,"SoundDuration":75949,"Delta":68106665},{"NoteNumber":74,"Velocity":68,"Duration":75949,"SoundDuration":75949,"Delta":68258563},{"NoteNumber":84,"Velocity":68,"Duration":75949,"SoundDuration":75949,"Delta":68258563},{"NoteNumber":86,"Velocity":81,"Duration":75949,"SoundDuration":75949,"Delta":68258563},{"NoteNumber":87,"Velocity":90,"Duration":76142,"SoundDuration":76142,"Delta":68410462},{"NoteNumber":75,"Velocity":76,"Duration":76142,"SoundDuration":76142,"Delta":68410462},{"NoteNumber":84,"Velocity":76,"Duration":76142,"SoundDuration":76142,"Delta":68410462},{"NoteNumber":86,"Velocity":81,"Duration":76142,"SoundDuration":76142,"Delta":68562746},{"NoteNumber":74,"Velocity":68,"Duration":76142,"SoundDuration":76142,"Delta":68562746},{"NoteNumber":47,"Velocity":57,"Duration":76142,"SoundDuration":76142,"Delta":68562746},{"NoteNumber":35,"Velocity":48,"Duration":76142,"SoundDuration":76142,"Delta":68562746},{"NoteNumber":72,"Velocity":68,"Duration":76142,"SoundDuration":76142,"Delta":68715031},{"NoteNumber":84,"Velocity":81,"Duration":76142,"SoundDuration":76142,"Delta":68715031},{"NoteNumber":33,"Velocity":49,"Duration":76142,"SoundDuration":76142,"Delta":68715031},{"NoteNumber":45,"Velocity":58,"Duration":76142,"SoundDuration":76142,"Delta":68715031},{"NoteNumber":74,"Velocity":76,"Duration":76142,"SoundDuration":76142,"Delta":68867315},{"NoteNumber":86,"Velocity":90,"Duration":76142,"SoundDuration":76142,"Delta":68867315},{"NoteNumber":47,"Velocity":57,"Duration":76142,"SoundDuration":76142,"Delta":68867315},{"NoteNumber":35,"Velocity":48,"Duration":76142,"SoundDuration":76142,"Delta":68867315},{"NoteNumber":67,"Velocity":68,"Duration":83798,"SoundDuration":83798,"Delta":69171884},{"NoteNumber":79,"Velocity":81,"Duration":83798,"SoundDuration":83798,"Delta":69171884},{"NoteNumber":31,"Velocity":48,"Duration":83798,"SoundDuration":83798,"Delta":69171884},{"NoteNumber":43,"Velocity":57,"Duration":83798,"SoundDuration":83798,"Delta":69171884},{"NoteNumber":36,"Velocity":60,"Duration":120846,"SoundDuration":120846,"Delta":69297583},{"NoteNumber":43,"Velocity":60,"Duration":99896,"SoundDuration":99896,"Delta":69318533},{"NoteNumber":91,"Velocity":97,"Duration":78947,"SoundDuration":78947,"Delta":69339482},{"NoteNumber":79,"Velocity":82,"Duration":78947,"SoundDuration":78947,"Delta":69339482},{"NoteNumber":84,"Velocity":97,"Duration":78947,"SoundDuration":78947,"Delta":69339482},{"NoteNumber":52,"Velocity":71,"Duration":78947,"SoundDuration":78947,"Delta":69339482},{"NoteNumber":88,"Velocity":91,"Duration":347825,"SoundDuration":347825,"Delta":69655271},{"NoteNumber":76,"Velocity":77,"Duration":347825,"SoundDuration":347825,"Delta":69655271},{"NoteNumber":84,"Velocity":77,"Duration":347825,"SoundDuration":347825,"Delta":69655271},{"NoteNumber":60,"Velocity":63,"Duration":347825,"SoundDuration":347825,"Delta":69655271},{"NoteNumber":48,"Velocity":53,"Duration":347825,"SoundDuration":347825,"Delta":69655271},{"NoteNumber":55,"Velocity":53,"Duration":347825,"SoundDuration":347825,"Delta":69655271},{"NoteNumber":52,"Velocity":53,"Duration":347825,"SoundDuration":347825,"Delta":69655271},{"NoteNumber":84,"Velocity":77,"Duration":521738,"SoundDuration":521738,"Delta":70003097},{"NoteNumber":89,"Velocity":91,"Duration":521738,"SoundDuration":521738,"Delta":70003097},{"NoteNumber":77,"Velocity":77,"Duration":521738,"SoundDuration":521738,"Delta":70003097},{"NoteNumber":53,"Velocity":53,"Duration":521738,"SoundDuration":521738,"Delta":70003097},{"NoteNumber":57,"Velocity":53,"Duration":521738,"SoundDuration":521738,"Delta":70003097},{"NoteNumber":60,"Velocity":63,"Duration":521738,"SoundDuration":521738,"Delta":70003097},{"NoteNumber":48,"Velocity":53,"Duration":521738,"SoundDuration":521738,"Delta":70003097},{"NoteNumber":84,"Velocity":75,"Duration":261055,"SoundDuration":261055,"Delta":70524836},{"NoteNumber":86,"Velocity":89,"Duration":261055,"SoundDuration":261055,"Delta":70524836},{"NoteNumber":74,"Velocity":75,"Duration":261055,"SoundDuration":261055,"Delta":70524836},{"NoteNumber":50,"Velocity":52,"Duration":261055,"SoundDuration":261055,"Delta":70524836},{"NoteNumber":48,"Velocity":52,"Duration":261055,"SoundDuration":261055,"Delta":70524836},{"NoteNumber":53,"Velocity":52,"Duration":261055,"SoundDuration":261055,"Delta":70524836},{"NoteNumber":60,"Velocity":62,"Duration":261055,"SoundDuration":261055,"Delta":70524836},{"NoteNumber":84,"Velocity":67,"Duration":85669,"SoundDuration":85669,"Delta":70785892},{"NoteNumber":88,"Velocity":79,"Duration":85669,"SoundDuration":85669,"Delta":70785892},{"NoteNumber":76,"Velocity":67,"Duration":85669,"SoundDuration":85669,"Delta":70785892},{"NoteNumber":60,"Velocity":55,"Duration":85669,"SoundDuration":85669,"Delta":70785892},{"NoteNumber":48,"Velocity":46,"Duration":85669,"SoundDuration":85669,"Delta":70785892},{"NoteNumber":55,"Velocity":46,"Duration":85669,"SoundDuration":85669,"Delta":70785892},{"NoteNumber":52,"Velocity":46,"Duration":85669,"SoundDuration":85669,"Delta":70785892},{"NoteNumber":76,"Velocity":74,"Duration":82644,"SoundDuration":82644,"Delta":70879350},{"NoteNumber":88,"Velocity":88,"Duration":82644,"SoundDuration":82644,"Delta":70879350},{"NoteNumber":84,"Velocity":74,"Duration":82644,"SoundDuration":82644,"Delta":70879350},{"NoteNumber":48,"Velocity":51,"Duration":82644,"SoundDuration":82644,"Delta":70879350},{"NoteNumber":52,"Velocity":51,"Duration":82644,"SoundDuration":82644,"Delta":70879350},{"NoteNumber":55,"Velocity":51,"Duration":82644,"SoundDuration":82644,"Delta":70879350},{"NoteNumber":60,"Velocity":61,"Duration":82644,"SoundDuration":82644,"Delta":70879350},{"NoteNumber":64,"Velocity":69,"Duration":353982,"SoundDuration":353982,"Delta":71209929},{"NoteNumber":72,"Velocity":69,"Duration":353982,"SoundDuration":353982,"Delta":71209929},{"NoteNumber":76,"Velocity":81,"Duration":353982,"SoundDuration":353982,"Delta":71209929},{"NoteNumber":43,"Velocity":47,"Duration":353982,"SoundDuration":353982,"Delta":71209929},{"NoteNumber":48,"Velocity":56,"Duration":353982,"SoundDuration":353982,"Delta":71209929},{"NoteNumber":36,"Velocity":47,"Duration":353982,"SoundDuration":353982,"Delta":71209929},{"NoteNumber":65,"Velocity":69,"Duration":530973,"SoundDuration":530973,"Delta":71563911},{"NoteNumber":77,"Velocity":81,"Duration":530973,"SoundDuration":530973,"Delta":71563911},{"NoteNumber":72,"Velocity":69,"Duration":530973,"SoundDuration":530973,"Delta":71563911},{"NoteNumber":48,"Velocity":56,"Duration":530973,"SoundDuration":530973,"Delta":71563911},{"NoteNumber":36,"Velocity":47,"Duration":530973,"SoundDuration":530973,"Delta":71563911},{"NoteNumber":45,"Velocity":47,"Duration":530973,"SoundDuration":530973,"Delta":71563911},{"NoteNumber":72,"Velocity":67,"Duration":259388,"SoundDuration":259388,"Delta":72094884},{"NoteNumber":62,"Velocity":67,"Duration":259388,"SoundDuration":259388,"Delta":72094884},{"NoteNumber":74,"Velocity":80,"Duration":259388,"SoundDuration":259388,"Delta":72094884},{"NoteNumber":41,"Velocity":46,"Duration":259388,"SoundDuration":259388,"Delta":72094884},{"NoteNumber":36,"Velocity":46,"Duration":259388,"SoundDuration":259388,"Delta":72094884},{"NoteNumber":48,"Velocity":55,"Duration":259388,"SoundDuration":259388,"Delta":72094884},{"NoteNumber":76,"Velocity":71,"Duration":86477,"SoundDuration":86477,"Delta":72362134},{"NoteNumber":64,"Velocity":60,"Duration":86477,"SoundDuration":86477,"Delta":72362134},{"NoteNumber":72,"Velocity":60,"Duration":86477,"SoundDuration":86477,"Delta":72362134},{"NoteNumber":43,"Velocity":41,"Duration":94339,"SoundDuration":94339,"Delta":72362134},{"NoteNumber":36,"Velocity":41,"Duration":94339,"SoundDuration":94339,"Delta":72362134},{"NoteNumber":48,"Velocity":49,"Duration":94339,"SoundDuration":94339,"Delta":72362134},{"NoteNumber":72,"Velocity":66,"Duration":84033,"SoundDuration":84033,"Delta":72456474},{"NoteNumber":64,"Velocity":66,"Duration":84033,"SoundDuration":84033,"Delta":72456474},{"NoteNumber":76,"Velocity":79,"Duration":84033,"SoundDuration":84033,"Delta":72456474},{"NoteNumber":36,"Velocity":60,"Duration":84033,"SoundDuration":84033,"Delta":72456474},{"NoteNumber":43,"Velocity":49,"Duration":75949,"SoundDuration":75949,"Delta":72624541},{"NoteNumber":72,"Velocity":67,"Duration":186981,"SoundDuration":186981,"Delta":72738465},{"NoteNumber":76,"Velocity":67,"Duration":167993,"SoundDuration":167993,"Delta":72757452},{"NoteNumber":84,"Velocity":80,"Duration":149006,"SoundDuration":149006,"Delta":72776439},{"NoteNumber":48,"Velocity":49,"Duration":99337,"SoundDuration":99337,"Delta":72776439},{"NoteNumber":60,"Velocity":79,"Duration":75949,"SoundDuration":75949,"Delta":72975115},{"NoteNumber":36,"Velocity":56,"Duration":75949,"SoundDuration":75949,"Delta":72975115},{"NoteNumber":43,"Velocity":44,"Duration":75949,"SoundDuration":75949,"Delta":73127013},{"NoteNumber":48,"Velocity":44,"Duration":75949,"SoundDuration":75949,"Delta":73278912},{"NoteNumber":36,"Velocity":56,"Duration":75949,"SoundDuration":75949,"Delta":73430810},{"NoteNumber":43,"Velocity":46,"Duration":75949,"SoundDuration":75949,"Delta":73582709},{"NoteNumber":72,"Velocity":67,"Duration":186489,"SoundDuration":186489,"Delta":73696633},{"NoteNumber":76,"Velocity":67,"Duration":167502,"SoundDuration":167502,"Delta":73715620},{"NoteNumber":84,"Velocity":80,"Duration":148515,"SoundDuration":148515,"Delta":73734607},{"NoteNumber":48,"Velocity":46,"Duration":99010,"SoundDuration":99010,"Delta":73734607},{"NoteNumber":60,"Velocity":79,"Duration":75949,"SoundDuration":75949,"Delta":73932627},{"NoteNumber":36,"Velocity":56,"Duration":75949,"SoundDuration":75949,"Delta":73932627},{"NoteNumber":43,"Velocity":44,"Duration":75949,"SoundDuration":75949,"Delta":74084526},{"NoteNumber":48,"Velocity":44,"Duration":75949,"SoundDuration":75949,"Delta":74236424},{"NoteNumber":36,"Velocity":56,"Duration":75949,"SoundDuration":75949,"Delta":74388323},{"NoteNumber":43,"Velocity":46,"Duration":75949,"SoundDuration":75949,"Delta":74540221},{"NoteNumber":48,"Velocity":46,"Duration":75949,"SoundDuration":75949,"Delta":74692120},{"NoteNumber":36,"Velocity":56,"Duration":75949,"SoundDuration":75949,"Delta":74844018},{"NoteNumber":43,"Velocity":35,"Duration":75949,"SoundDuration":75949,"Delta":74995917},{"NoteNumber":48,"Velocity":35,"Duration":75949,"SoundDuration":75949,"Delta":75147815},{"NoteNumber":33,"Velocity":43,"Duration":75949,"SoundDuration":75949,"Delta":75299714},{"NoteNumber":38,"Velocity":29,"Duration":75949,"SoundDuration":75949,"Delta":75451612},{"NoteNumber":72,"Velocity":42,"Duration":198917,"SoundDuration":198917,"Delta":75546549},{"NoteNumber":74,"Velocity":42,"Duration":179930,"SoundDuration":179930,"Delta":75565536},{"NoteNumber":78,"Velocity":41,"Duration":160943,"SoundDuration":160943,"Delta":75584524},{"NoteNumber":84,"Velocity":49,"Duration":141955,"SoundDuration":141955,"Delta":75603511},{"NoteNumber":45,"Velocity":29,"Duration":94637,"SoundDuration":94637,"Delta":75603511},{"NoteNumber":60,"Velocity":44,"Duration":75949,"SoundDuration":75949,"Delta":75792785},{"NoteNumber":33,"Velocity":38,"Duration":75949,"SoundDuration":75949,"Delta":75792785},{"NoteNumber":38,"Velocity":32,"Duration":75949,"SoundDuration":75949,"Delta":75944684},{"NoteNumber":45,"Velocity":32,"Duration":75949,"SoundDuration":75949,"Delta":76096582},{"NoteNumber":33,"Velocity":40,"Duration":75949,"SoundDuration":75949,"Delta":76248481},{"NoteNumber":38,"Velocity":32,"Duration":75949,"SoundDuration":75949,"Delta":76400379},{"NoteNumber":72,"Velocity":39,"Duration":199367,"SoundDuration":199367,"Delta":76495316},{"NoteNumber":74,"Velocity":39,"Duration":180379,"SoundDuration":180379,"Delta":76514303},{"NoteNumber":78,"Velocity":38,"Duration":161392,"SoundDuration":161392,"Delta":76533291},{"NoteNumber":84,"Velocity":46,"Duration":142405,"SoundDuration":142405,"Delta":76552278},{"NoteNumber":45,"Velocity":31,"Duration":94936,"SoundDuration":94936,"Delta":76552278},{"NoteNumber":60,"Velocity":37,"Duration":75949,"SoundDuration":75949,"Delta":76742151},{"NoteNumber":33,"Velocity":38,"Duration":75949,"SoundDuration":75949,"Delta":76742151},{"NoteNumber":38,"Velocity":26,"Duration":75949,"SoundDuration":75949,"Delta":76894050},{"NoteNumber":45,"Velocity":26,"Duration":75949,"SoundDuration":75949,"Delta":77045948},{"NoteNumber":33,"Velocity":35,"Duration":75949,"SoundDuration":75949,"Delta":77197847},{"NoteNumber":38,"Velocity":25,"Duration":75949,"SoundDuration":75949,"Delta":77349745},{"NoteNumber":45,"Velocity":28,"Duration":75949,"SoundDuration":75949,"Delta":77501644},{"NoteNumber":33,"Velocity":35,"Duration":85470,"SoundDuration":85470,"Delta":77653542},{"NoteNumber":38,"Velocity":25,"Duration":85470,"SoundDuration":85470,"Delta":77824482},{"NoteNumber":45,"Velocity":25,"Duration":85470,"SoundDuration":85470,"Delta":77995422},{"NoteNumber":31,"Velocity":34,"Duration":257020,"SoundDuration":257020,"Delta":78123627},{"NoteNumber":43,"Velocity":34,"Duration":214285,"SoundDuration":214285,"Delta":78166362},{"NoteNumber":50,"Velocity":29,"Duration":214285,"SoundDuration":214285,"Delta":78380648},{"NoteNumber":62,"Velocity":34,"Duration":187074,"SoundDuration":187074,"Delta":78594933},{"NoteNumber":67,"Velocity":34,"Duration":187074,"SoundDuration":187074,"Delta":78594933},{"NoteNumber":71,"Velocity":40,"Duration":187074,"SoundDuration":187074,"Delta":78594933},{"NoteNumber":55,"Velocity":30,"Duration":204081,"SoundDuration":204081,"Delta":78594933},{"NoteNumber":71,"Velocity":48,"Duration":1059480,"SoundDuration":1059480,"Delta":78799015},{"NoteNumber":67,"Velocity":40,"Duration":1059480,"SoundDuration":1059480,"Delta":78799015},{"NoteNumber":62,"Velocity":40,"Duration":1059480,"SoundDuration":1059480,"Delta":78799015},{"NoteNumber":59,"Velocity":34,"Duration":214285,"SoundDuration":214285,"Delta":78799015},{"NoteNumber":55,"Velocity":29,"Duration":213522,"SoundDuration":213522,"Delta":79013300},{"NoteNumber":50,"Velocity":29,"Duration":213523,"SoundDuration":213523,"Delta":79226823},{"NoteNumber":40,"Velocity":38,"Duration":213522,"SoundDuration":213522,"Delta":79440346},{"NoteNumber":55,"Velocity":28,"Duration":213522,"SoundDuration":213522,"Delta":79653869},{"NoteNumber":64,"Velocity":33,"Duration":204081,"SoundDuration":204081,"Delta":79867392},{"NoteNumber":67,"Velocity":33,"Duration":204081,"SoundDuration":204081,"Delta":79867392},{"NoteNumber":74,"Velocity":39,"Duration":204081,"SoundDuration":204081,"Delta":79867392},{"NoteNumber":71,"Velocity":33,"Duration":204081,"SoundDuration":204081,"Delta":79867392},{"NoteNumber":59,"Velocity":28,"Duration":204081,"SoundDuration":204081,"Delta":79867392},{"NoteNumber":64,"Velocity":40,"Duration":851063,"SoundDuration":851063,"Delta":80071474},{"NoteNumber":67,"Velocity":40,"Duration":851063,"SoundDuration":851063,"Delta":80071474},{"NoteNumber":71,"Velocity":40,"Duration":851063,"SoundDuration":851063,"Delta":80071474},{"NoteNumber":74,"Velocity":48,"Duration":851063,"SoundDuration":851063,"Delta":80071474},{"NoteNumber":62,"Velocity":32,"Duration":212766,"SoundDuration":212766,"Delta":80071474},{"NoteNumber":52,"Velocity":32,"Duration":638298,"SoundDuration":638298,"Delta":80071474},{"NoteNumber":59,"Velocity":34,"Duration":212766,"SoundDuration":212766,"Delta":80284240},{"NoteNumber":55,"Velocity":36,"Duration":212766,"SoundDuration":212766,"Delta":80497006},{"NoteNumber":45,"Velocity":41,"Duration":212765,"SoundDuration":212765,"Delta":80709772},{"NoteNumber":33,"Velocity":41,"Duration":212765,"SoundDuration":212765,"Delta":80709772},{"NoteNumber":60,"Velocity":31,"Duration":2161304,"SoundDuration":2161304,"Delta":80922538},{"NoteNumber":76,"Velocity":45,"Duration":215686,"SoundDuration":215686,"Delta":81169451},{"NoteNumber":72,"Velocity":45,"Duration":215686,"SoundDuration":215686,"Delta":81169451},{"NoteNumber":69,"Velocity":45,"Duration":215686,"SoundDuration":215686,"Delta":81169451},{"NoteNumber":79,"Velocity":54,"Duration":215686,"SoundDuration":215686,"Delta":81169451},{"NoteNumber":64,"Velocity":31,"Duration":1914391,"SoundDuration":1914391,"Delta":81169451},{"NoteNumber":69,"Velocity":49,"Duration":1679097,"SoundDuration":1679097,"Delta":81404745},{"NoteNumber":79,"Velocity":58,"Duration":1679097,"SoundDuration":1679097,"Delta":81404745},{"NoteNumber":72,"Velocity":49,"Duration":1679097,"SoundDuration":1679097,"Delta":81404745},{"NoteNumber":76,"Velocity":49,"Duration":1679097,"SoundDuration":1679097,"Delta":81404745},{"NoteNumber":57,"Velocity":31,"Duration":1679097,"SoundDuration":1679097,"Delta":81404745},{"NoteNumber":67,"Velocity":31,"Duration":1679097,"SoundDuration":1679097,"Delta":81404745},{"NoteNumber":67,"Velocity":42,"Duration":210526,"SoundDuration":210526,"Delta":83083843},{"NoteNumber":69,"Velocity":42,"Duration":210526,"SoundDuration":210526,"Delta":83083843},{"NoteNumber":76,"Velocity":50,"Duration":210526,"SoundDuration":210526,"Delta":83083843},{"NoteNumber":57,"Velocity":29,"Duration":210526,"SoundDuration":210526,"Delta":83083843},{"NoteNumber":64,"Velocity":35,"Duration":210526,"SoundDuration":210526,"Delta":83083843},{"NoteNumber":55,"Velocity":29,"Duration":210526,"SoundDuration":210526,"Delta":83083843},{"NoteNumber":72,"Velocity":54,"Duration":421053,"SoundDuration":421053,"Delta":83294369},{"NoteNumber":67,"Velocity":45,"Duration":421053,"SoundDuration":421053,"Delta":83294369},{"NoteNumber":64,"Velocity":45,"Duration":421053,"SoundDuration":421053,"Delta":83294369},{"NoteNumber":60,"Velocity":38,"Duration":421053,"SoundDuration":421053,"Delta":83294369},{"NoteNumber":52,"Velocity":32,"Duration":421053,"SoundDuration":421053,"Delta":83294369},{"NoteNumber":55,"Velocity":32,"Duration":421053,"SoundDuration":421053,"Delta":83294369},{"NoteNumber":62,"Velocity":39,"Duration":235293,"SoundDuration":235293,"Delta":83715422},{"NoteNumber":67,"Velocity":39,"Duration":235293,"SoundDuration":235293,"Delta":83715422},{"NoteNumber":71,"Velocity":46,"Duration":235293,"SoundDuration":235293,"Delta":83715422},{"NoteNumber":55,"Velocity":28,"Duration":235293,"SoundDuration":235293,"Delta":83715422},{"NoteNumber":50,"Velocity":28,"Duration":235293,"SoundDuration":235293,"Delta":83715422},{"NoteNumber":59,"Velocity":33,"Duration":235293,"SoundDuration":235293,"Delta":83715422},{"NoteNumber":66,"Velocity":42,"Duration":427046,"SoundDuration":427046,"Delta":83950716},{"NoteNumber":59,"Velocity":42,"Duration":427046,"SoundDuration":427046,"Delta":83950716},{"NoteNumber":68,"Velocity":50,"Duration":427046,"SoundDuration":427046,"Delta":83950716},{"NoteNumber":38,"Velocity":42,"Duration":213522,"SoundDuration":213522,"Delta":83950716},{"NoteNumber":60,"Velocity":39,"Duration":213522,"SoundDuration":213522,"Delta":84377762},{"NoteNumber":69,"Velocity":47,"Duration":213522,"SoundDuration":213522,"Delta":84377762},{"NoteNumber":66,"Velocity":39,"Duration":213522,"SoundDuration":213522,"Delta":84377762},{"NoteNumber":57,"Velocity":33,"Duration":213522,"SoundDuration":213522,"Delta":84377762},{"NoteNumber":48,"Velocity":28,"Duration":213522,"SoundDuration":213522,"Delta":84377762},{"NoteNumber":72,"Velocity":53,"Duration":670506,"SoundDuration":670506,"Delta":84591285},{"NoteNumber":64,"Velocity":45,"Duration":670506,"SoundDuration":670506,"Delta":84591285},{"NoteNumber":52,"Velocity":32,"Duration":670506,"SoundDuration":670506,"Delta":84591285},{"NoteNumber":60,"Velocity":38,"Duration":670506,"SoundDuration":670506,"Delta":84591285},{"NoteNumber":62,"Velocity":42,"Duration":428570,"SoundDuration":428570,"Delta":85261792},{"NoteNumber":66,"Velocity":50,"Duration":428570,"SoundDuration":428570,"Delta":85261792},{"NoteNumber":50,"Velocity":29,"Duration":428570,"SoundDuration":428570,"Delta":85261792},{"NoteNumber":57,"Velocity":35,"Duration":428570,"SoundDuration":428570,"Delta":85261792},{"NoteNumber":43,"Velocity":34,"Duration":214285,"SoundDuration":214285,"Delta":85904648},{"NoteNumber":50,"Velocity":29,"Duration":214285,"SoundDuration":214285,"Delta":86118934},{"NoteNumber":71,"Velocity":40,"Duration":187074,"SoundDuration":187074,"Delta":86333219},{"NoteNumber":62,"Velocity":34,"Duration":187074,"SoundDuration":187074,"Delta":86333219},{"NoteNumber":67,"Velocity":34,"Duration":187074,"SoundDuration":187074,"Delta":86333219},{"NoteNumber":55,"Velocity":30,"Duration":204081,"SoundDuration":204081,"Delta":86333219},{"NoteNumber":62,"Velocity":40,"Duration":1044019,"SoundDuration":1044019,"Delta":86537301},{"NoteNumber":67,"Velocity":40,"Duration":1044019,"SoundDuration":1044019,"Delta":86537301},{"NoteNumber":71,"Velocity":48,"Duration":1044019,"SoundDuration":1044019,"Delta":86537301},{"NoteNumber":59,"Velocity":34,"Duration":214285,"SoundDuration":214285,"Delta":86537301},{"NoteNumber":55,"Velocity":29,"Duration":211267,"SoundDuration":211267,"Delta":86751586},{"NoteNumber":50,"Velocity":29,"Duration":209058,"SoundDuration":209058,"Delta":86962854},{"NoteNumber":40,"Velocity":38,"Duration":209059,"SoundDuration":209059,"Delta":87171913},{"NoteNumber":55,"Velocity":28,"Duration":209058,"SoundDuration":209058,"Delta":87380972},{"NoteNumber":71,"Velocity":33,"Duration":204081,"SoundDuration":204081,"Delta":87590031},{"NoteNumber":67,"Velocity":33,"Duration":204081,"SoundDuration":204081,"Delta":87590031},{"NoteNumber":64,"Velocity":33,"Duration":204081,"SoundDuration":204081,"Delta":87590031},{"NoteNumber":74,"Velocity":39,"Duration":204081,"SoundDuration":204081,"Delta":87590031},{"NoteNumber":59,"Velocity":28,"Duration":204081,"SoundDuration":204081,"Delta":87590031},{"NoteNumber":64,"Velocity":40,"Duration":831322,"SoundDuration":831322,"Delta":87794112},{"NoteNumber":74,"Velocity":48,"Duration":831322,"SoundDuration":831322,"Delta":87794112},{"NoteNumber":67,"Velocity":40,"Duration":831322,"SoundDuration":831322,"Delta":87794112},{"NoteNumber":71,"Velocity":40,"Duration":831322,"SoundDuration":831322,"Delta":87794112},{"NoteNumber":62,"Velocity":32,"Duration":212766,"SoundDuration":212766,"Delta":87794112},{"NoteNumber":52,"Velocity":32,"Duration":625136,"SoundDuration":625136,"Delta":87794112},{"NoteNumber":59,"Velocity":34,"Duration":206185,"SoundDuration":206185,"Delta":88006878},{"NoteNumber":55,"Velocity":36,"Duration":206185,"SoundDuration":206185,"Delta":88213064},{"NoteNumber":45,"Velocity":41,"Duration":206185,"SoundDuration":206185,"Delta":88419249},{"NoteNumber":33,"Velocity":41,"Duration":206185,"SoundDuration":206185,"Delta":88419249},{"NoteNumber":64,"Velocity":31,"Duration":2216178,"SoundDuration":2216178,"Delta":88625435},{"NoteNumber":73,"Velocity":49,"Duration":229166,"SoundDuration":229166,"Delta":88912516},{"NoteNumber":76,"Velocity":49,"Duration":229166,"SoundDuration":229166,"Delta":88912516},{"NoteNumber":83,"Velocity":59,"Duration":229166,"SoundDuration":229166,"Delta":88912516},{"NoteNumber":79,"Velocity":49,"Duration":229166,"SoundDuration":229166,"Delta":88912516},{"NoteNumber":67,"Velocity":34,"Duration":1929097,"SoundDuration":1929097,"Delta":88912516},{"NoteNumber":76,"Velocity":53,"Duration":1679097,"SoundDuration":1679097,"Delta":89162516},{"NoteNumber":83,"Velocity":63,"Duration":1679097,"SoundDuration":1679097,"Delta":89162516},{"NoteNumber":79,"Velocity":53,"Duration":1679097,"SoundDuration":1679097,"Delta":89162516},{"NoteNumber":73,"Velocity":53,"Duration":1679097,"SoundDuration":1679097,"Delta":89162516},{"NoteNumber":61,"Velocity":34,"Duration":1679097,"SoundDuration":1679097,"Delta":89162516},{"NoteNumber":71,"Velocity":34,"Duration":1679097,"SoundDuration":1679097,"Delta":89162516},{"NoteNumber":81,"Velocity":50,"Duration":210526,"SoundDuration":210526,"Delta":90841614},{"NoteNumber":73,"Velocity":42,"Duration":210526,"SoundDuration":210526,"Delta":90841614},{"NoteNumber":76,"Velocity":42,"Duration":210526,"SoundDuration":210526,"Delta":90841614},{"NoteNumber":61,"Velocity":29,"Duration":210526,"SoundDuration":210526,"Delta":90841614},{"NoteNumber":64,"Velocity":29,"Duration":210526,"SoundDuration":210526,"Delta":90841614},{"NoteNumber":69,"Velocity":35,"Duration":210526,"SoundDuration":210526,"Delta":90841614},{"NoteNumber":71,"Velocity":45,"Duration":421053,"SoundDuration":421053,"Delta":91052140},{"NoteNumber":73,"Velocity":45,"Duration":421053,"SoundDuration":421053,"Delta":91052140},{"NoteNumber":79,"Velocity":54,"Duration":421053,"SoundDuration":421053,"Delta":91052140},{"NoteNumber":59,"Velocity":32,"Duration":421053,"SoundDuration":421053,"Delta":91052140},{"NoteNumber":67,"Velocity":38,"Duration":421053,"SoundDuration":421053,"Delta":91052140},{"NoteNumber":61,"Velocity":32,"Duration":421053,"SoundDuration":421053,"Delta":91052140},{"NoteNumber":78,"Velocity":46,"Duration":235293,"SoundDuration":235293,"Delta":91473193},{"NoteNumber":73,"Velocity":39,"Duration":235293,"SoundDuration":235293,"Delta":91473193},{"NoteNumber":69,"Velocity":39,"Duration":235293,"SoundDuration":235293,"Delta":91473193},{"NoteNumber":61,"Velocity":28,"Duration":235293,"SoundDuration":235293,"Delta":91473193},{"NoteNumber":66,"Velocity":33,"Duration":235293,"SoundDuration":235293,"Delta":91473193},{"NoteNumber":57,"Velocity":28,"Duration":235293,"SoundDuration":235293,"Delta":91473193},{"NoteNumber":66,"Velocity":41,"Duration":213522,"SoundDuration":213522,"Delta":91708487},{"NoteNumber":73,"Velocity":41,"Duration":213522,"SoundDuration":213522,"Delta":91708487},{"NoteNumber":75,"Velocity":49,"Duration":213522,"SoundDuration":213522,"Delta":91708487},{"NoteNumber":33,"Velocity":35,"Duration":213522,"SoundDuration":213522,"Delta":91708487},{"NoteNumber":45,"Velocity":42,"Duration":213522,"SoundDuration":213522,"Delta":91708487},{"NoteNumber":73,"Velocity":37,"Duration":213523,"SoundDuration":213523,"Delta":91922010},{"NoteNumber":67,"Velocity":37,"Duration":213523,"SoundDuration":213523,"Delta":91922010},{"NoteNumber":76,"Velocity":44,"Duration":213523,"SoundDuration":213523,"Delta":91922010},{"NoteNumber":71,"Velocity":37,"Duration":213522,"SoundDuration":213522,"Delta":92135533},{"NoteNumber":79,"Velocity":44,"Duration":213522,"SoundDuration":213522,"Delta":92135533},{"NoteNumber":73,"Velocity":44,"Duration":213522,"SoundDuration":213522,"Delta":92135533},{"NoteNumber":61,"Velocity":26,"Duration":213522,"SoundDuration":213522,"Delta":92135533},{"NoteNumber":59,"Velocity":26,"Duration":213522,"SoundDuration":213522,"Delta":92135533},{"NoteNumber":67,"Velocity":31,"Duration":213522,"SoundDuration":213522,"Delta":92135533},{"NoteNumber":73,"Velocity":43,"Duration":1070664,"SoundDuration":1070664,"Delta":92349056},{"NoteNumber":69,"Velocity":43,"Duration":1070664,"SoundDuration":1070664,"Delta":92349056},{"NoteNumber":78,"Velocity":51,"Duration":1070664,"SoundDuration":1070664,"Delta":92349056},{"NoteNumber":61,"Velocity":31,"Duration":1070664,"SoundDuration":1070664,"Delta":92349056},{"NoteNumber":66,"Velocity":37,"Duration":1070664,"SoundDuration":1070664,"Delta":92349056},{"NoteNumber":57,"Velocity":31,"Duration":1070664,"SoundDuration":1070664,"Delta":92349056},{"NoteNumber":67,"Velocity":33,"Duration":232557,"SoundDuration":232557,"Delta":93419721},{"NoteNumber":76,"Velocity":39,"Duration":232557,"SoundDuration":232557,"Delta":93419721},{"NoteNumber":73,"Velocity":39,"Duration":232557,"SoundDuration":232557,"Delta":93419721},{"NoteNumber":64,"Velocity":30,"Duration":232557,"SoundDuration":232557,"Delta":93419721},{"NoteNumber":55,"Velocity":25,"Duration":232557,"SoundDuration":232557,"Delta":93419721},{"NoteNumber":61,"Velocity":30,"Duration":232557,"SoundDuration":232557,"Delta":93419721},{"NoteNumber":66,"Velocity":38,"Duration":666666,"SoundDuration":666666,"Delta":93652279},{"NoteNumber":69,"Velocity":38,"Duration":1120547,"SoundDuration":1120547,"Delta":93652279},{"NoteNumber":74,"Velocity":45,"Duration":1120547,"SoundDuration":1120547,"Delta":93652279},{"NoteNumber":50,"Velocity":36,"Duration":222222,"SoundDuration":222222,"Delta":93652279},{"NoteNumber":38,"Velocity":30,"Duration":222222,"SoundDuration":222222,"Delta":93652279},{"NoteNumber":54,"Velocity":29,"Duration":222222,"SoundDuration":222222,"Delta":93874501},{"NoteNumber":57,"Velocity":29,"Duration":222222,"SoundDuration":222222,"Delta":94096723},{"NoteNumber":66,"Velocity":38,"Duration":111110,"SoundDuration":111110,"Delta":94318945},{"NoteNumber":76,"Velocity":36,"Duration":222222,"SoundDuration":222222,"Delta":94772827},{"NoteNumber":72,"Velocity":42,"Duration":444444,"SoundDuration":444444,"Delta":94995049},{"NoteNumber":71,"Velocity":32,"Duration":245901,"SoundDuration":245901,"Delta":95439493},{"NoteNumber":68,"Velocity":41,"Duration":444444,"SoundDuration":444444,"Delta":95685395},{"NoteNumber":38,"Velocity":29,"Duration":222222,"SoundDuration":222222,"Delta":95685395},{"NoteNumber":69,"Velocity":35,"Duration":222222,"SoundDuration":222222,"Delta":96129839},{"NoteNumber":72,"Velocity":40,"Duration":1117024,"SoundDuration":1117024,"Delta":96352061},{"NoteNumber":64,"Velocity":29,"Duration":222222,"SoundDuration":222222,"Delta":96802420},{"NoteNumber":60,"Velocity":34,"Duration":444444,"SoundDuration":444444,"Delta":97024642},{"NoteNumber":67,"Velocity":34,"Duration":235293,"SoundDuration":235293,"Delta":97469086},{"NoteNumber":59,"Velocity":29,"Duration":235293,"SoundDuration":235293,"Delta":97469086},{"NoteNumber":65,"Velocity":41,"Duration":444444,"SoundDuration":444444,"Delta":97704380},{"NoteNumber":62,"Velocity":34,"Duration":666666,"SoundDuration":666666,"Delta":97704380},{"NoteNumber":56,"Velocity":36,"Duration":444444,"SoundDuration":444444,"Delta":97704380},{"NoteNumber":50,"Velocity":30,"Duration":2020845,"SoundDuration":2020845,"Delta":97704380},{"NoteNumber":66,"Velocity":35,"Duration":222222,"SoundDuration":222222,"Delta":98148824},{"NoteNumber":57,"Velocity":29,"Duration":222222,"SoundDuration":222222,"Delta":98151602},{"NoteNumber":60,"Velocity":35,"Duration":1117024,"SoundDuration":1117024,"Delta":98371046},{"NoteNumber":69,"Velocity":39,"Duration":903820,"SoundDuration":903820,"Delta":98821405},{"NoteNumber":79,"Velocity":36,"Duration":222222,"SoundDuration":222222,"Delta":98821405},{"NoteNumber":76,"Velocity":42,"Duration":444444,"SoundDuration":444444,"Delta":99043627},{"NoteNumber":72,"Velocity":32,"Duration":237154,"SoundDuration":237154,"Delta":99488071},{"NoteNumber":55,"Velocity":29,"Duration":237154,"SoundDuration":237154,"Delta":99488071},{"NoteNumber":62,"Velocity":34,"Duration":444444,"SoundDuration":444444,"Delta":99725225},{"NoteNumber":68,"Velocity":34,"Duration":444444,"SoundDuration":444444,"Delta":99725225},{"NoteNumber":71,"Velocity":41,"Duration":444444,"SoundDuration":444444,"Delta":99725225},{"NoteNumber":50,"Velocity":30,"Duration":666666,"SoundDuration":666666,"Delta":99725225},{"NoteNumber":53,"Velocity":36,"Duration":444444,"SoundDuration":444444,"Delta":99725225},{"NoteNumber":72,"Velocity":35,"Duration":222222,"SoundDuration":222222,"Delta":100169669},{"NoteNumber":69,"Velocity":29,"Duration":222222,"SoundDuration":222222,"Delta":100169669},{"NoteNumber":54,"Velocity":29,"Duration":222222,"SoundDuration":222222,"Delta":100169669},{"NoteNumber":62,"Velocity":34,"Duration":673508,"SoundDuration":673508,"Delta":100391891},{"NoteNumber":72,"Velocity":40,"Duration":1116312,"SoundDuration":1116312,"Delta":100391891},{"NoteNumber":76,"Velocity":40,"Duration":1116312,"SoundDuration":1116312,"Delta":100391891},{"NoteNumber":38,"Velocity":29,"Duration":222221,"SoundDuration":222221,"Delta":100391891},{"NoteNumber":67,"Velocity":29,"Duration":221401,"SoundDuration":221401,"Delta":100843998},{"NoteNumber":64,"Velocity":34,"Duration":442804,"SoundDuration":442804,"Delta":101065400},{"NoteNumber":71,"Velocity":34,"Duration":236220,"SoundDuration":236220,"Delta":101508204},{"NoteNumber":67,"Velocity":28,"Duration":236220,"SoundDuration":236220,"Delta":101508204},{"NoteNumber":60,"Velocity":29,"Duration":236220,"SoundDuration":236220,"Delta":101508204},{"NoteNumber":68,"Velocity":41,"Duration":442803,"SoundDuration":442803,"Delta":101744424},{"NoteNumber":65,"Velocity":28,"Duration":442803,"SoundDuration":442803,"Delta":101744424},{"NoteNumber":59,"Velocity":36,"Duration":442803,"SoundDuration":442803,"Delta":101744424},{"NoteNumber":50,"Velocity":30,"Duration":2009590,"SoundDuration":2009590,"Delta":101744424},{"NoteNumber":66,"Velocity":29,"Duration":221402,"SoundDuration":221402,"Delta":102187228},{"NoteNumber":69,"Velocity":35,"Duration":221402,"SoundDuration":221402,"Delta":102187228},{"NoteNumber":60,"Velocity":29,"Duration":221402,"SoundDuration":221402,"Delta":102187228},{"NoteNumber":64,"Velocity":35,"Duration":1114615,"SoundDuration":1114615,"Delta":102408630},{"NoteNumber":83,"Velocity":41,"Duration":221401,"SoundDuration":221401,"Delta":102859040},{"NoteNumber":72,"Velocity":39,"Duration":894974,"SoundDuration":894974,"Delta":102859040},{"NoteNumber":79,"Velocity":47,"Duration":442803,"SoundDuration":442803,"Delta":103080442},{"NoteNumber":76,"Velocity":34,"Duration":230768,"SoundDuration":230768,"Delta":103523246},{"NoteNumber":59,"Velocity":29,"Duration":230768,"SoundDuration":230768,"Delta":103523246},{"NoteNumber":56,"Velocity":36,"Duration":448637,"SoundDuration":448637,"Delta":103754015},{"NoteNumber":50,"Velocity":30,"Duration":1345188,"SoundDuration":1345188,"Delta":103754015},{"NoteNumber":72,"Velocity":39,"Duration":896551,"SoundDuration":896551,"Delta":104202652},{"NoteNumber":83,"Velocity":41,"Duration":222222,"SoundDuration":222222,"Delta":104202652},{"NoteNumber":57,"Velocity":29,"Duration":222222,"SoundDuration":222222,"Delta":104202652},{"NoteNumber":79,"Velocity":47,"Duration":444444,"SoundDuration":444444,"Delta":104424874},{"NoteNumber":76,"Velocity":34,"Duration":229884,"SoundDuration":229884,"Delta":104869318},{"NoteNumber":71,"Velocity":36,"Duration":229884,"SoundDuration":229884,"Delta":104869318},{"NoteNumber":67,"Velocity":42,"Duration":449539,"SoundDuration":449539,"Delta":105099203},{"NoteNumber":72,"Velocity":39,"Duration":891649,"SoundDuration":891649,"Delta":105548742},{"NoteNumber":81,"Velocity":41,"Duration":220588,"SoundDuration":220588,"Delta":105548742},{"NoteNumber":64,"Velocity":30,"Duration":220588,"SoundDuration":220588,"Delta":105548742},{"NoteNumber":79,"Velocity":47,"Duration":441175,"SoundDuration":441175,"Delta":105769330},{"NoteNumber":38,"Velocity":29,"Duration":220587,"SoundDuration":220587,"Delta":105769330},{"NoteNumber":76,"Velocity":34,"Duration":229884,"SoundDuration":229884,"Delta":106210506},{"NoteNumber":69,"Velocity":36,"Duration":229884,"SoundDuration":229884,"Delta":106210506},{"NoteNumber":67,"Velocity":42,"Duration":441175,"SoundDuration":441175,"Delta":106440391},{"NoteNumber":79,"Velocity":41,"Duration":220588,"SoundDuration":220588,"Delta":106881567},{"NoteNumber":69,"Velocity":39,"Duration":896139,"SoundDuration":896139,"Delta":106881567},{"NoteNumber":64,"Velocity":30,"Duration":220588,"SoundDuration":220588,"Delta":106881567},{"NoteNumber":76,"Velocity":47,"Duration":441175,"SoundDuration":441175,"Delta":107102155},{"NoteNumber":38,"Velocity":29,"Duration":220587,"SoundDuration":220587,"Delta":107102155},{"NoteNumber":72,"Velocity":34,"Duration":234375,"SoundDuration":234375,"Delta":107543331},{"NoteNumber":67,"Velocity":36,"Duration":234375,"SoundDuration":234375,"Delta":107543331},{"NoteNumber":64,"Velocity":42,"Duration":474575,"SoundDuration":474575,"Delta":107777706},{"NoteNumber":78,"Velocity":47,"Duration":232557,"SoundDuration":232557,"Delta":108252281},{"NoteNumber":72,"Velocity":47,"Duration":232557,"SoundDuration":232557,"Delta":108252281},{"NoteNumber":69,"Velocity":39,"Duration":232557,"SoundDuration":232557,"Delta":108252281},{"NoteNumber":60,"Velocity":30,"Duration":232557,"SoundDuration":232557,"Delta":108252281},{"NoteNumber":69,"Velocity":45,"Duration":465116,"SoundDuration":465116,"Delta":108484839},{"NoteNumber":72,"Velocity":53,"Duration":465116,"SoundDuration":465116,"Delta":108484839},{"NoteNumber":76,"Velocity":53,"Duration":465116,"SoundDuration":465116,"Delta":108484839},{"NoteNumber":38,"Velocity":29,"Duration":232557,"SoundDuration":232557,"Delta":108484839},{"NoteNumber":74,"Velocity":46,"Duration":232557,"SoundDuration":232557,"Delta":108949955},{"NoteNumber":69,"Velocity":39,"Duration":232557,"SoundDuration":232557,"Delta":108949955},{"NoteNumber":66,"Velocity":34,"Duration":232557,"SoundDuration":232557,"Delta":108949955},{"NoteNumber":60,"Velocity":28,"Duration":232557,"SoundDuration":232557,"Delta":108949955},{"NoteNumber":57,"Velocity":28,"Duration":232557,"SoundDuration":232557,"Delta":108949955},{"NoteNumber":69,"Velocity":45,"Duration":465115,"SoundDuration":465115,"Delta":109182513},{"NoteNumber":72,"Velocity":54,"Duration":465115,"SoundDuration":465115,"Delta":109182513},{"NoteNumber":64,"Velocity":38,"Duration":465115,"SoundDuration":465115,"Delta":109182513},{"NoteNumber":60,"Velocity":32,"Duration":465115,"SoundDuration":465115,"Delta":109182513},{"NoteNumber":55,"Velocity":32,"Duration":465115,"SoundDuration":465115,"Delta":109182513},{"NoteNumber":67,"Velocity":38,"Duration":297029,"SoundDuration":297029,"Delta":109647629},{"NoteNumber":71,"Velocity":45,"Duration":297029,"SoundDuration":297029,"Delta":109647629},{"NoteNumber":62,"Velocity":34,"Duration":297029,"SoundDuration":297029,"Delta":109647629},{"NoteNumber":55,"Velocity":28,"Duration":297029,"SoundDuration":297029,"Delta":109647629},{"NoteNumber":67,"Velocity":34,"Duration":2830405,"SoundDuration":2830405,"Delta":109944658},{"NoteNumber":70,"Velocity":41,"Duration":2830405,"SoundDuration":2830405,"Delta":109944658},{"NoteNumber":61,"Velocity":32,"Duration":1038961,"SoundDuration":1038961,"Delta":109944658},{"NoteNumber":50,"Velocity":27,"Duration":2830405,"SoundDuration":2830405,"Delta":109944658},{"NoteNumber":73,"Velocity":38,"Duration":882352,"SoundDuration":882352,"Delta":110983620},{"NoteNumber":58,"Velocity":29,"Duration":882352,"SoundDuration":882352,"Delta":110983620},{"NoteNumber":76,"Velocity":37,"Duration":909091,"SoundDuration":909091,"Delta":111865973},{"NoteNumber":55,"Velocity":30,"Duration":909091,"SoundDuration":909091,"Delta":111865973},{"NoteNumber":62,"Velocity":31,"Duration":3057323,"SoundDuration":3057323,"Delta":112775064},{"NoteNumber":69,"Velocity":37,"Duration":3057323,"SoundDuration":3057323,"Delta":112775064},{"NoteNumber":50,"Velocity":22,"Duration":3057323,"SoundDuration":3057323,"Delta":112775064},{"NoteNumber":60,"Velocity":26,"Duration":3057323,"SoundDuration":3057323,"Delta":112775064},{"NoteNumber":54,"Velocity":22,"Duration":3057323,"SoundDuration":3057323,"Delta":112775064},{"NoteNumber":43,"Velocity":34,"Duration":214285,"SoundDuration":214285,"Delta":116214553},{"NoteNumber":50,"Velocity":29,"Duration":214285,"SoundDuration":214285,"Delta":116428839},{"NoteNumber":67,"Velocity":34,"Duration":187074,"SoundDuration":187074,"Delta":116643124},{"NoteNumber":62,"Velocity":34,"Duration":187074,"SoundDuration":187074,"Delta":116643124},{"NoteNumber":71,"Velocity":40,"Duration":187074,"SoundDuration":187074,"Delta":116643124},{"NoteNumber":55,"Velocity":30,"Duration":204081,"SoundDuration":204081,"Delta":116643124},{"NoteNumber":62,"Velocity":40,"Duration":1059480,"SoundDuration":1059480,"Delta":116847206},{"NoteNumber":71,"Velocity":48,"Duration":1059480,"SoundDuration":1059480,"Delta":116847206},{"NoteNumber":67,"Velocity":40,"Duration":1059480,"SoundDuration":1059480,"Delta":116847206},{"NoteNumber":59,"Velocity":34,"Duration":214285,"SoundDuration":214285,"Delta":116847206},{"NoteNumber":55,"Velocity":29,"Duration":213522,"SoundDuration":213522,"Delta":117061491},{"NoteNumber":50,"Velocity":29,"Duration":213523,"SoundDuration":213523,"Delta":117275014},{"NoteNumber":40,"Velocity":38,"Duration":213522,"SoundDuration":213522,"Delta":117488537},{"NoteNumber":55,"Velocity":28,"Duration":213522,"SoundDuration":213522,"Delta":117702060},{"NoteNumber":67,"Velocity":33,"Duration":204081,"SoundDuration":204081,"Delta":117915583},{"NoteNumber":74,"Velocity":39,"Duration":204081,"SoundDuration":204081,"Delta":117915583},{"NoteNumber":71,"Velocity":33,"Duration":204081,"SoundDuration":204081,"Delta":117915583},{"NoteNumber":64,"Velocity":33,"Duration":204081,"SoundDuration":204081,"Delta":117915583},{"NoteNumber":59,"Velocity":28,"Duration":204081,"SoundDuration":204081,"Delta":117915583},{"NoteNumber":71,"Velocity":40,"Duration":851063,"SoundDuration":851063,"Delta":118119665},{"NoteNumber":74,"Velocity":48,"Duration":851063,"SoundDuration":851063,"Delta":118119665},{"NoteNumber":67,"Velocity":40,"Duration":851063,"SoundDuration":851063,"Delta":118119665},{"NoteNumber":64,"Velocity":40,"Duration":851063,"SoundDuration":851063,"Delta":118119665},{"NoteNumber":62,"Velocity":32,"Duration":212766,"SoundDuration":212766,"Delta":118119665},{"NoteNumber":52,"Velocity":32,"Duration":638298,"SoundDuration":638298,"Delta":118119665},{"NoteNumber":59,"Velocity":34,"Duration":212766,"SoundDuration":212766,"Delta":118332431},{"NoteNumber":55,"Velocity":36,"Duration":212766,"SoundDuration":212766,"Delta":118545197},{"NoteNumber":33,"Velocity":41,"Duration":212765,"SoundDuration":212765,"Delta":118757963},{"NoteNumber":45,"Velocity":41,"Duration":212765,"SoundDuration":212765,"Delta":118757963},{"NoteNumber":60,"Velocity":31,"Duration":2161304,"SoundDuration":2161304,"Delta":118970729},{"NoteNumber":69,"Velocity":45,"Duration":215686,"SoundDuration":215686,"Delta":119217642},{"NoteNumber":79,"Velocity":54,"Duration":215686,"SoundDuration":215686,"Delta":119217642},{"NoteNumber":76,"Velocity":45,"Duration":215686,"SoundDuration":215686,"Delta":119217642},{"NoteNumber":72,"Velocity":45,"Duration":215686,"SoundDuration":215686,"Delta":119217642},{"NoteNumber":64,"Velocity":31,"Duration":1914391,"SoundDuration":1914391,"Delta":119217642},{"NoteNumber":69,"Velocity":49,"Duration":1679097,"SoundDuration":1679097,"Delta":119452936},{"NoteNumber":72,"Velocity":49,"Duration":1679097,"SoundDuration":1679097,"Delta":119452936},{"NoteNumber":76,"Velocity":49,"Duration":1679097,"SoundDuration":1679097,"Delta":119452936},{"NoteNumber":79,"Velocity":58,"Duration":1679097,"SoundDuration":1679097,"Delta":119452936},{"NoteNumber":67,"Velocity":31,"Duration":1679097,"SoundDuration":1679097,"Delta":119452936},{"NoteNumber":57,"Velocity":31,"Duration":1679097,"SoundDuration":1679097,"Delta":119452936},{"NoteNumber":69,"Velocity":42,"Duration":210526,"SoundDuration":210526,"Delta":121132034},{"NoteNumber":67,"Velocity":42,"Duration":210526,"SoundDuration":210526,"Delta":121132034},{"NoteNumber":76,"Velocity":50,"Duration":210526,"SoundDuration":210526,"Delta":121132034},{"NoteNumber":64,"Velocity":35,"Duration":210526,"SoundDuration":210526,"Delta":121132034},{"NoteNumber":57,"Velocity":29,"Duration":210526,"SoundDuration":210526,"Delta":121132034},{"NoteNumber":55,"Velocity":29,"Duration":210526,"SoundDuration":210526,"Delta":121132034},{"NoteNumber":64,"Velocity":45,"Duration":421053,"SoundDuration":421053,"Delta":121342560},{"NoteNumber":72,"Velocity":54,"Duration":421053,"SoundDuration":421053,"Delta":121342560},{"NoteNumber":67,"Velocity":45,"Duration":421053,"SoundDuration":421053,"Delta":121342560},{"NoteNumber":60,"Velocity":38,"Duration":421053,"SoundDuration":421053,"Delta":121342560},{"NoteNumber":52,"Velocity":32,"Duration":421053,"SoundDuration":421053,"Delta":121342560},{"NoteNumber":55,"Velocity":32,"Duration":421053,"SoundDuration":421053,"Delta":121342560},{"NoteNumber":67,"Velocity":39,"Duration":235293,"SoundDuration":235293,"Delta":121763613},{"NoteNumber":62,"Velocity":39,"Duration":235293,"SoundDuration":235293,"Delta":121763613},{"NoteNumber":71,"Velocity":46,"Duration":235293,"SoundDuration":235293,"Delta":121763613},{"NoteNumber":55,"Velocity":28,"Duration":235293,"SoundDuration":235293,"Delta":121763613},{"NoteNumber":59,"Velocity":33,"Duration":235293,"SoundDuration":235293,"Delta":121763613},{"NoteNumber":50,"Velocity":28,"Duration":235293,"SoundDuration":235293,"Delta":121763613},{"NoteNumber":59,"Velocity":42,"Duration":427046,"SoundDuration":427046,"Delta":121998907},{"NoteNumber":68,"Velocity":50,"Duration":427046,"SoundDuration":427046,"Delta":121998907},{"NoteNumber":66,"Velocity":42,"Duration":427046,"SoundDuration":427046,"Delta":121998907},{"NoteNumber":38,"Velocity":42,"Duration":213522,"SoundDuration":213522,"Delta":121998907},{"NoteNumber":60,"Velocity":39,"Duration":213522,"SoundDuration":213522,"Delta":122425953},{"NoteNumber":66,"Velocity":39,"Duration":213522,"SoundDuration":213522,"Delta":122425953},{"NoteNumber":69,"Velocity":47,"Duration":213522,"SoundDuration":213522,"Delta":122425953},{"NoteNumber":48,"Velocity":28,"Duration":213522,"SoundDuration":213522,"Delta":122425953},{"NoteNumber":57,"Velocity":33,"Duration":213522,"SoundDuration":213522,"Delta":122425953},{"NoteNumber":72,"Velocity":53,"Duration":670506,"SoundDuration":670506,"Delta":122639476},{"NoteNumber":64,"Velocity":45,"Duration":670506,"SoundDuration":670506,"Delta":122639476},{"NoteNumber":60,"Velocity":38,"Duration":670506,"SoundDuration":670506,"Delta":122639476},{"NoteNumber":52,"Velocity":32,"Duration":670506,"SoundDuration":670506,"Delta":122639476},{"NoteNumber":66,"Velocity":50,"Duration":428570,"SoundDuration":428570,"Delta":123309983},{"NoteNumber":62,"Velocity":42,"Duration":428570,"SoundDuration":428570,"Delta":123309983},{"NoteNumber":50,"Velocity":29,"Duration":428570,"SoundDuration":428570,"Delta":123309983},{"NoteNumber":57,"Velocity":35,"Duration":428570,"SoundDuration":428570,"Delta":123309983},{"NoteNumber":43,"Velocity":34,"Duration":214285,"SoundDuration":214285,"Delta":123952839},{"NoteNumber":50,"Velocity":29,"Duration":214285,"SoundDuration":214285,"Delta":124167125},{"NoteNumber":62,"Velocity":34,"Duration":187074,"SoundDuration":187074,"Delta":124381410},{"NoteNumber":67,"Velocity":34,"Duration":187074,"SoundDuration":187074,"Delta":124381410},{"NoteNumber":71,"Velocity":40,"Duration":187074,"SoundDuration":187074,"Delta":124381410},{"NoteNumber":55,"Velocity":30,"Duration":204081,"SoundDuration":204081,"Delta":124381410},{"NoteNumber":67,"Velocity":40,"Duration":1038938,"SoundDuration":1038938,"Delta":124585492},{"NoteNumber":62,"Velocity":40,"Duration":1038938,"SoundDuration":1038938,"Delta":124585492},{"NoteNumber":71,"Velocity":48,"Duration":1038938,"SoundDuration":1038938,"Delta":124585492},{"NoteNumber":59,"Velocity":34,"Duration":214285,"SoundDuration":214285,"Delta":124585492},{"NoteNumber":55,"Velocity":29,"Duration":208333,"SoundDuration":208333,"Delta":124799777},{"NoteNumber":50,"Velocity":29,"Duration":208333,"SoundDuration":208333,"Delta":125008111},{"NoteNumber":40,"Velocity":38,"Duration":208333,"SoundDuration":208333,"Delta":125216444},{"NoteNumber":55,"Velocity":28,"Duration":208333,"SoundDuration":208333,"Delta":125424778},{"NoteNumber":64,"Velocity":33,"Duration":204081,"SoundDuration":204081,"Delta":125633111},{"NoteNumber":74,"Velocity":39,"Duration":204081,"SoundDuration":204081,"Delta":125633111},{"NoteNumber":71,"Velocity":33,"Duration":204081,"SoundDuration":204081,"Delta":125633111},{"NoteNumber":67,"Velocity":33,"Duration":204081,"SoundDuration":204081,"Delta":125633111},{"NoteNumber":59,"Velocity":28,"Duration":204081,"SoundDuration":204081,"Delta":125633111},{"NoteNumber":64,"Velocity":40,"Duration":1033766,"SoundDuration":1033766,"Delta":125837193},{"NoteNumber":67,"Velocity":40,"Duration":1033766,"SoundDuration":1033766,"Delta":125837193},{"NoteNumber":71,"Velocity":40,"Duration":1033766,"SoundDuration":1033766,"Delta":125837193},{"NoteNumber":74,"Velocity":48,"Duration":1033766,"SoundDuration":1033766,"Delta":125837193},{"NoteNumber":62,"Velocity":32,"Duration":210526,"SoundDuration":210526,"Delta":125837193},{"NoteNumber":52,"Velocity":32,"Duration":621485,"SoundDuration":621485,"Delta":125837193},{"NoteNumber":59,"Velocity":34,"Duration":205479,"SoundDuration":205479,"Delta":126047719},{"NoteNumber":55,"Velocity":36,"Duration":205479,"SoundDuration":205479,"Delta":126253199},{"NoteNumber":47,"Velocity":34,"Duration":210526,"SoundDuration":210526,"Delta":126458678},{"NoteNumber":54,"Velocity":29,"Duration":210526,"SoundDuration":210526,"Delta":126669205},{"NoteNumber":71,"Velocity":39,"Duration":185184,"SoundDuration":185184,"Delta":126879731},{"NoteNumber":66,"Velocity":39,"Duration":185184,"SoundDuration":185184,"Delta":126879731},{"NoteNumber":74,"Velocity":46,"Duration":185184,"SoundDuration":185184,"Delta":126879731},{"NoteNumber":59,"Velocity":34,"Duration":202225,"SoundDuration":202225,"Delta":126885624},{"NoteNumber":66,"Velocity":46,"Duration":1008721,"SoundDuration":1008721,"Delta":127081751},{"NoteNumber":74,"Velocity":55,"Duration":1008721,"SoundDuration":1008721,"Delta":127081751},{"NoteNumber":71,"Velocity":46,"Duration":1008721,"SoundDuration":1008721,"Delta":127081751},{"NoteNumber":62,"Velocity":39,"Duration":209058,"SoundDuration":209058,"Delta":127081751},{"NoteNumber":59,"Velocity":33,"Duration":202020,"SoundDuration":202020,"Delta":127290810},{"NoteNumber":54,"Velocity":33,"Duration":202020,"SoundDuration":202020,"Delta":127492830},{"NoteNumber":43,"Velocity":43,"Duration":202020,"SoundDuration":202020,"Delta":127694850},{"NoteNumber":59,"Velocity":32,"Duration":202019,"SoundDuration":202019,"Delta":127896870},{"NoteNumber":71,"Velocity":42,"Duration":200669,"SoundDuration":200669,"Delta":128098890},{"NoteNumber":78,"Velocity":50,"Duration":200669,"SoundDuration":200669,"Delta":128098890},{"NoteNumber":74,"Velocity":42,"Duration":200669,"SoundDuration":200669,"Delta":128098890},{"NoteNumber":67,"Velocity":42,"Duration":200669,"SoundDuration":200669,"Delta":128098890},{"NoteNumber":62,"Velocity":36,"Duration":200669,"SoundDuration":200669,"Delta":128098890},{"NoteNumber":74,"Velocity":52,"Duration":994757,"SoundDuration":994757,"Delta":128299559},{"NoteNumber":78,"Velocity":63,"Duration":994757,"SoundDuration":994757,"Delta":128299559},{"NoteNumber":71,"Velocity":52,"Duration":994757,"SoundDuration":994757,"Delta":128299559},{"NoteNumber":67,"Velocity":52,"Duration":994757,"SoundDuration":994757,"Delta":128299559},{"NoteNumber":66,"Velocity":41,"Duration":208333,"SoundDuration":208333,"Delta":128299559},{"NoteNumber":55,"Velocity":41,"Duration":605684,"SoundDuration":605684,"Delta":128299559},{"NoteNumber":62,"Velocity":44,"Duration":198675,"SoundDuration":198675,"Delta":128507893},{"NoteNumber":59,"Velocity":47,"Duration":198675,"SoundDuration":198675,"Delta":128706568},{"NoteNumber":50,"Velocity":43,"Duration":198675,"SoundDuration":198675,"Delta":128905244},{"NoteNumber":57,"Velocity":32,"Duration":198675,"SoundDuration":198675,"Delta":129103919},{"NoteNumber":69,"Velocity":44,"Duration":204081,"SoundDuration":204081,"Delta":129302595},{"NoteNumber":78,"Velocity":52,"Duration":204081,"SoundDuration":204081,"Delta":129302595},{"NoteNumber":74,"Velocity":44,"Duration":204081,"SoundDuration":204081,"Delta":129302595},{"NoteNumber":62,"Velocity":37,"Duration":204081,"SoundDuration":204081,"Delta":129302595},{"NoteNumber":74,"Velocity":55,"Duration":1014115,"SoundDuration":1014115,"Delta":129506676},{"NoteNumber":69,"Velocity":55,"Duration":1014115,"SoundDuration":1014115,"Delta":129506676},{"NoteNumber":78,"Velocity":66,"Duration":1014115,"SoundDuration":1014115,"Delta":129506676},{"NoteNumber":66,"Velocity":43,"Duration":208333,"SoundDuration":208333,"Delta":129506676},{"NoteNumber":62,"Velocity":47,"Duration":201342,"SoundDuration":201342,"Delta":129715010},{"NoteNumber":57,"Velocity":51,"Duration":201342,"SoundDuration":201342,"Delta":129916352},{"NoteNumber":47,"Velocity":55,"Duration":201342,"SoundDuration":201342,"Delta":130117695},{"NoteNumber":62,"Velocity":40,"Duration":2961469,"SoundDuration":2961469,"Delta":130319037},{"NoteNumber":71,"Velocity":47,"Duration":233463,"SoundDuration":233463,"Delta":130529564},{"NoteNumber":81,"Velocity":57,"Duration":233463,"SoundDuration":233463,"Delta":130529564},{"NoteNumber":74,"Velocity":47,"Duration":233463,"SoundDuration":233463,"Delta":130529564},{"NoteNumber":78,"Velocity":47,"Duration":233463,"SoundDuration":233463,"Delta":130529564},{"NoteNumber":66,"Velocity":46,"Duration":1492202,"SoundDuration":1492202,"Delta":130529564},{"NoteNumber":71,"Velocity":60,"Duration":2918818,"SoundDuration":2918818,"Delta":130763027},{"NoteNumber":74,"Velocity":60,"Duration":2918818,"SoundDuration":2918818,"Delta":130763027},{"NoteNumber":81,"Velocity":73,"Duration":2918818,"SoundDuration":2918818,"Delta":130763027},{"NoteNumber":78,"Velocity":60,"Duration":1258739,"SoundDuration":1258739,"Delta":130763027},{"NoteNumber":69,"Velocity":51,"Duration":2517480,"SoundDuration":2517480,"Delta":130763027},{"NoteNumber":59,"Velocity":44,"Duration":2517480,"SoundDuration":2517480,"Delta":130763027},{"NoteNumber":77,"Velocity":65,"Duration":1660078,"SoundDuration":1660078,"Delta":132021767},{"NoteNumber":65,"Velocity":55,"Duration":1258740,"SoundDuration":1258740,"Delta":132021767},{"NoteNumber":40,"Velocity":62,"Duration":200669,"SoundDuration":200669,"Delta":133280507},{"NoteNumber":71,"Velocity":46,"Duration":206896,"SoundDuration":206896,"Delta":133681845},{"NoteNumber":74,"Velocity":46,"Duration":206896,"SoundDuration":206896,"Delta":133681845},{"NoteNumber":80,"Velocity":55,"Duration":206896,"SoundDuration":206896,"Delta":133681845},{"NoteNumber":59,"Velocity":39,"Duration":206896,"SoundDuration":206896,"Delta":133681845},{"NoteNumber":68,"Velocity":46,"Duration":206896,"SoundDuration":206896,"Delta":133681845},{"NoteNumber":62,"Velocity":39,"Duration":206896,"SoundDuration":206896,"Delta":133681845},{"NoteNumber":83,"Velocity":69,"Duration":656934,"SoundDuration":656934,"Delta":133888741},{"NoteNumber":71,"Velocity":55,"Duration":656934,"SoundDuration":656934,"Delta":133888741},{"NoteNumber":74,"Velocity":55,"Duration":408163,"SoundDuration":408163,"Delta":134545675},{"NoteNumber":68,"Velocity":46,"Duration":408163,"SoundDuration":408163,"Delta":134545675},{"NoteNumber":56,"Velocity":42,"Duration":408163,"SoundDuration":408163,"Delta":134545675},{"NoteNumber":62,"Velocity":50,"Duration":408163,"SoundDuration":408163,"Delta":134545675},{"NoteNumber":45,"Velocity":62,"Duration":200669,"SoundDuration":200669,"Delta":135157920},{"NoteNumber":69,"Velocity":46,"Duration":860731,"SoundDuration":860731,"Delta":135559258},{"NoteNumber":73,"Velocity":55,"Duration":860731,"SoundDuration":860731,"Delta":135559258},{"NoteNumber":61,"Velocity":46,"Duration":860731,"SoundDuration":860731,"Delta":135559258},{"NoteNumber":57,"Velocity":39,"Duration":860731,"SoundDuration":860731,"Delta":135559258},{"NoteNumber":76,"Velocity":69,"Duration":654546,"SoundDuration":654546,"Delta":135765443},{"NoteNumber":64,"Velocity":55,"Duration":654546,"SoundDuration":654546,"Delta":135765443},{"NoteNumber":67,"Velocity":55,"Duration":408163,"SoundDuration":408163,"Delta":136419989},{"NoteNumber":55,"Velocity":50,"Duration":408163,"SoundDuration":408163,"Delta":136419989},{"NoteNumber":38,"Velocity":62,"Duration":200669,"SoundDuration":200669,"Delta":137032234},{"NoteNumber":78,"Velocity":46,"Duration":206896,"SoundDuration":206896,"Delta":137433572},{"NoteNumber":76,"Velocity":46,"Duration":206896,"SoundDuration":206896,"Delta":137433572},{"NoteNumber":84,"Velocity":55,"Duration":206896,"SoundDuration":206896,"Delta":137433572},{"NoteNumber":66,"Velocity":39,"Duration":206896,"SoundDuration":206896,"Delta":137433572},{"NoteNumber":64,"Velocity":39,"Duration":206896,"SoundDuration":206896,"Delta":137433572},{"NoteNumber":72,"Velocity":46,"Duration":206896,"SoundDuration":206896,"Delta":137433572},{"NoteNumber":88,"Velocity":74,"Duration":654546,"SoundDuration":654546,"Delta":137640469},{"NoteNumber":76,"Velocity":60,"Duration":654546,"SoundDuration":654546,"Delta":137640469},{"NoteNumber":78,"Velocity":55,"Duration":408163,"SoundDuration":408163,"Delta":138295015},{"NoteNumber":72,"Velocity":46,"Duration":408163,"SoundDuration":408163,"Delta":138295015},{"NoteNumber":62,"Velocity":42,"Duration":408163,"SoundDuration":408163,"Delta":138295015},{"NoteNumber":66,"Velocity":50,"Duration":408163,"SoundDuration":408163,"Delta":138295015},{"NoteNumber":43,"Velocity":62,"Duration":209789,"SoundDuration":209789,"Delta":138907259},{"NoteNumber":72,"Velocity":39,"Duration":883947,"SoundDuration":883947,"Delta":139326839},{"NoteNumber":74,"Velocity":39,"Duration":883947,"SoundDuration":883947,"Delta":139326839},{"NoteNumber":77,"Velocity":46,"Duration":883947,"SoundDuration":883947,"Delta":139326839},{"NoteNumber":65,"Velocity":39,"Duration":1310992,"SoundDuration":1310992,"Delta":139326839},{"NoteNumber":62,"Velocity":33,"Duration":1310992,"SoundDuration":1310992,"Delta":139326839},{"NoteNumber":60,"Velocity":33,"Duration":883947,"SoundDuration":883947,"Delta":139326839},{"NoteNumber":81,"Velocity":58,"Duration":674157,"SoundDuration":674157,"Delta":139536629},{"NoteNumber":69,"Velocity":46,"Duration":674157,"SoundDuration":674157,"Delta":139536629},{"NoteNumber":71,"Velocity":43,"Duration":427045,"SoundDuration":427045,"Delta":140210786},{"NoteNumber":74,"Velocity":46,"Duration":427045,"SoundDuration":427045,"Delta":140210786},{"NoteNumber":59,"Velocity":34,"Duration":427045,"SoundDuration":427045,"Delta":140210786},{"NoteNumber":67,"Velocity":42,"Duration":427045,"SoundDuration":427045,"Delta":140210786},{"NoteNumber":36,"Velocity":34,"Duration":214285,"SoundDuration":214285,"Delta":140851355},{"NoteNumber":48,"Velocity":34,"Duration":214285,"SoundDuration":214285,"Delta":140851355},{"NoteNumber":55,"Velocity":29,"Duration":214285,"SoundDuration":214285,"Delta":141065641},{"NoteNumber":67,"Velocity":34,"Duration":187074,"SoundDuration":187074,"Delta":141279926},{"NoteNumber":72,"Velocity":34,"Duration":187074,"SoundDuration":187074,"Delta":141279926},{"NoteNumber":76,"Velocity":40,"Duration":187074,"SoundDuration":187074,"Delta":141279926},{"NoteNumber":60,"Velocity":30,"Duration":204081,"SoundDuration":204081,"Delta":141279926},{"NoteNumber":76,"Velocity":48,"Duration":1052808,"SoundDuration":1052808,"Delta":141484008},{"NoteNumber":67,"Velocity":40,"Duration":1052808,"SoundDuration":1052808,"Delta":141484008},{"NoteNumber":72,"Velocity":40,"Duration":1052808,"SoundDuration":1052808,"Delta":141484008},{"NoteNumber":64,"Velocity":34,"Duration":214285,"SoundDuration":214285,"Delta":141484008},{"NoteNumber":60,"Velocity":29,"Duration":213523,"SoundDuration":213523,"Delta":141698293},{"NoteNumber":55,"Velocity":29,"Duration":211267,"SoundDuration":211267,"Delta":141911816},{"NoteNumber":45,"Velocity":38,"Duration":211267,"SoundDuration":211267,"Delta":142123084},{"NoteNumber":60,"Velocity":28,"Duration":211267,"SoundDuration":211267,"Delta":142334351},{"NoteNumber":69,"Velocity":33,"Duration":204081,"SoundDuration":204081,"Delta":142545619},{"NoteNumber":72,"Velocity":33,"Duration":204081,"SoundDuration":204081,"Delta":142545619},{"NoteNumber":79,"Velocity":39,"Duration":204081,"SoundDuration":204081,"Delta":142545619},{"NoteNumber":76,"Velocity":33,"Duration":204081,"SoundDuration":204081,"Delta":142545619},{"NoteNumber":64,"Velocity":28,"Duration":204081,"SoundDuration":204081,"Delta":142545619},{"NoteNumber":72,"Velocity":40,"Duration":1093227,"SoundDuration":1093227,"Delta":142749700},{"NoteNumber":79,"Velocity":48,"Duration":1093227,"SoundDuration":1093227,"Delta":142749700},{"NoteNumber":76,"Velocity":40,"Duration":1093227,"SoundDuration":1093227,"Delta":142749700},{"NoteNumber":69,"Velocity":40,"Duration":1093227,"SoundDuration":1093227,"Delta":142749700},{"NoteNumber":57,"Velocity":32,"Duration":632345,"SoundDuration":632345,"Delta":142749700},{"NoteNumber":67,"Velocity":32,"Duration":212765,"SoundDuration":212765,"Delta":142749700},{"NoteNumber":64,"Velocity":34,"Duration":209789,"SoundDuration":209789,"Delta":142962466},{"NoteNumber":60,"Velocity":36,"Duration":209789,"SoundDuration":209789,"Delta":143172256},{"NoteNumber":38,"Velocity":41,"Duration":209789,"SoundDuration":209789,"Delta":143382046},{"NoteNumber":50,"Velocity":41,"Duration":209789,"SoundDuration":209789,"Delta":143382046},{"NoteNumber":65,"Velocity":31,"Duration":2176400,"SoundDuration":2176400,"Delta":143591836},{"NoteNumber":81,"Velocity":45,"Duration":215686,"SoundDuration":215686,"Delta":143853845},{"NoteNumber":84,"Velocity":54,"Duration":215686,"SoundDuration":215686,"Delta":143853845},{"NoteNumber":77,"Velocity":45,"Duration":215686,"SoundDuration":215686,"Delta":143853845},{"NoteNumber":74,"Velocity":45,"Duration":215686,"SoundDuration":215686,"Delta":143853845},{"NoteNumber":69,"Velocity":31,"Duration":1914391,"SoundDuration":1914391,"Delta":143853845},{"NoteNumber":74,"Velocity":49,"Duration":1679097,"SoundDuration":1679097,"Delta":144089139},{"NoteNumber":84,"Velocity":58,"Duration":1679097,"SoundDuration":1679097,"Delta":144089139},{"NoteNumber":81,"Velocity":49,"Duration":1679097,"SoundDuration":1679097,"Delta":144089139},{"NoteNumber":77,"Velocity":49,"Duration":1679097,"SoundDuration":1679097,"Delta":144089139},{"NoteNumber":62,"Velocity":31,"Duration":1679097,"SoundDuration":1679097,"Delta":144089139},{"NoteNumber":72,"Velocity":31,"Duration":1679097,"SoundDuration":1679097,"Delta":144089139},{"NoteNumber":72,"Velocity":42,"Duration":210526,"SoundDuration":210526,"Delta":145768236},{"NoteNumber":74,"Velocity":42,"Duration":210526,"SoundDuration":210526,"Delta":145768236},{"NoteNumber":81,"Velocity":50,"Duration":210526,"SoundDuration":210526,"Delta":145768236},{"NoteNumber":62,"Velocity":29,"Duration":210526,"SoundDuration":210526,"Delta":145768236},{"NoteNumber":60,"Velocity":29,"Duration":210526,"SoundDuration":210526,"Delta":145768236},{"NoteNumber":69,"Velocity":35,"Duration":210526,"SoundDuration":210526,"Delta":145768236},{"NoteNumber":77,"Velocity":54,"Duration":421053,"SoundDuration":421053,"Delta":145978763},{"NoteNumber":69,"Velocity":45,"Duration":421053,"SoundDuration":421053,"Delta":145978763},{"NoteNumber":72,"Velocity":45,"Duration":421053,"SoundDuration":421053,"Delta":145978763},{"NoteNumber":60,"Velocity":32,"Duration":421053,"SoundDuration":421053,"Delta":145978763},{"NoteNumber":65,"Velocity":38,"Duration":421053,"SoundDuration":421053,"Delta":145978763},{"NoteNumber":57,"Velocity":32,"Duration":421053,"SoundDuration":421053,"Delta":145978763},{"NoteNumber":67,"Velocity":39,"Duration":235294,"SoundDuration":235294,"Delta":146399816},{"NoteNumber":72,"Velocity":39,"Duration":235294,"SoundDuration":235294,"Delta":146399816},{"NoteNumber":76,"Velocity":46,"Duration":235294,"SoundDuration":235294,"Delta":146399816},{"NoteNumber":64,"Velocity":33,"Duration":235294,"SoundDuration":235294,"Delta":146399816},{"NoteNumber":60,"Velocity":28,"Duration":235294,"SoundDuration":235294,"Delta":146399816},{"NoteNumber":55,"Velocity":28,"Duration":235294,"SoundDuration":235294,"Delta":146399816},{"NoteNumber":73,"Velocity":50,"Duration":427045,"SoundDuration":427045,"Delta":146635110},{"NoteNumber":71,"Velocity":42,"Duration":427045,"SoundDuration":427045,"Delta":146635110},{"NoteNumber":64,"Velocity":42,"Duration":427045,"SoundDuration":427045,"Delta":146635110},{"NoteNumber":43,"Velocity":42,"Duration":213523,"SoundDuration":213523,"Delta":146635110},{"NoteNumber":65,"Velocity":39,"Duration":213523,"SoundDuration":213523,"Delta":147062156},{"NoteNumber":71,"Velocity":39,"Duration":213523,"SoundDuration":213523,"Delta":147062156},{"NoteNumber":74,"Velocity":47,"Duration":213523,"SoundDuration":213523,"Delta":147062156},{"NoteNumber":53,"Velocity":28,"Duration":213523,"SoundDuration":213523,"Delta":147062156},{"NoteNumber":62,"Velocity":33,"Duration":213523,"SoundDuration":213523,"Delta":147062156},{"NoteNumber":77,"Velocity":53,"Duration":670506,"SoundDuration":670506,"Delta":147275679},{"NoteNumber":69,"Velocity":45,"Duration":670506,"SoundDuration":670506,"Delta":147275679},{"NoteNumber":65,"Velocity":38,"Duration":670506,"SoundDuration":670506,"Delta":147275679},{"NoteNumber":57,"Velocity":32,"Duration":670506,"SoundDuration":670506,"Delta":147275679},{"NoteNumber":67,"Velocity":42,"Duration":428571,"SoundDuration":428571,"Delta":147946185},{"NoteNumber":71,"Velocity":50,"Duration":428571,"SoundDuration":428571,"Delta":147946185},{"NoteNumber":55,"Velocity":29,"Duration":428571,"SoundDuration":428571,"Delta":147946185},{"NoteNumber":62,"Velocity":35,"Duration":428571,"SoundDuration":428571,"Delta":147946185},{"NoteNumber":36,"Velocity":34,"Duration":214285,"SoundDuration":214285,"Delta":148589042},{"NoteNumber":48,"Velocity":34,"Duration":214285,"SoundDuration":214285,"Delta":148589042},{"NoteNumber":55,"Velocity":29,"Duration":214285,"SoundDuration":214285,"Delta":148803327},{"NoteNumber":76,"Velocity":40,"Duration":187074,"SoundDuration":187074,"Delta":149017613},{"NoteNumber":72,"Velocity":34,"Duration":187074,"SoundDuration":187074,"Delta":149017613},{"NoteNumber":67,"Velocity":34,"Duration":187074,"SoundDuration":187074,"Delta":149017613},{"NoteNumber":60,"Velocity":30,"Duration":204081,"SoundDuration":204081,"Delta":149017613},{"NoteNumber":67,"Velocity":40,"Duration":1050552,"SoundDuration":1050552,"Delta":149221694},{"NoteNumber":72,"Velocity":40,"Duration":1050552,"SoundDuration":1050552,"Delta":149221694},{"NoteNumber":76,"Velocity":48,"Duration":1050552,"SoundDuration":1050552,"Delta":149221694},{"NoteNumber":64,"Velocity":34,"Duration":214285,"SoundDuration":214285,"Delta":149221694},{"NoteNumber":60,"Velocity":29,"Duration":211267,"SoundDuration":211267,"Delta":149435980},{"NoteNumber":55,"Velocity":29,"Duration":211267,"SoundDuration":211267,"Delta":149647247},{"NoteNumber":45,"Velocity":38,"Duration":211267,"SoundDuration":211267,"Delta":149858515},{"NoteNumber":60,"Velocity":28,"Duration":211267,"SoundDuration":211267,"Delta":150069782},{"NoteNumber":76,"Velocity":33,"Duration":204081,"SoundDuration":204081,"Delta":150281050},{"NoteNumber":79,"Velocity":39,"Duration":204081,"SoundDuration":204081,"Delta":150281050},{"NoteNumber":72,"Velocity":33,"Duration":204081,"SoundDuration":204081,"Delta":150281050},{"NoteNumber":69,"Velocity":33,"Duration":204081,"SoundDuration":204081,"Delta":150281050},{"NoteNumber":64,"Velocity":28,"Duration":204081,"SoundDuration":204081,"Delta":150281050},{"NoteNumber":69,"Velocity":40,"Duration":835603,"SoundDuration":835603,"Delta":150485131},{"NoteNumber":79,"Velocity":48,"Duration":835603,"SoundDuration":835603,"Delta":150485131},{"NoteNumber":76,"Velocity":40,"Duration":835603,"SoundDuration":835603,"Delta":150485131},{"NoteNumber":72,"Velocity":40,"Duration":835603,"SoundDuration":835603,"Delta":150485131},{"NoteNumber":67,"Velocity":32,"Duration":212765,"SoundDuration":212765,"Delta":150485131},{"NoteNumber":57,"Velocity":32,"Duration":627990,"SoundDuration":627990,"Delta":150485131},{"NoteNumber":64,"Velocity":34,"Duration":207612,"SoundDuration":207612,"Delta":150697897},{"NoteNumber":60,"Velocity":36,"Duration":207612,"SoundDuration":207612,"Delta":150905510},{"NoteNumber":50,"Velocity":41,"Duration":207612,"SoundDuration":207612,"Delta":151113122},{"NoteNumber":38,"Velocity":41,"Duration":207612,"SoundDuration":207612,"Delta":151113122},{"NoteNumber":69,"Velocity":31,"Duration":2208868,"SoundDuration":2208868,"Delta":151320735},{"NoteNumber":78,"Velocity":49,"Duration":229166,"SoundDuration":229166,"Delta":151607816},{"NoteNumber":81,"Velocity":49,"Duration":229166,"SoundDuration":229166,"Delta":151607816},{"NoteNumber":84,"Velocity":49,"Duration":229166,"SoundDuration":229166,"Delta":151607816},{"NoteNumber":88,"Velocity":59,"Duration":229166,"SoundDuration":229166,"Delta":151607816},{"NoteNumber":72,"Velocity":34,"Duration":1921787,"SoundDuration":1921787,"Delta":151607816},{"NoteNumber":81,"Velocity":53,"Duration":1671787,"SoundDuration":1671787,"Delta":151857816},{"NoteNumber":88,"Velocity":63,"Duration":1671787,"SoundDuration":1671787,"Delta":151857816},{"NoteNumber":84,"Velocity":53,"Duration":1671787,"SoundDuration":1671787,"Delta":151857816},{"NoteNumber":78,"Velocity":53,"Duration":1671787,"SoundDuration":1671787,"Delta":151857816},{"NoteNumber":66,"Velocity":34,"Duration":1671787,"SoundDuration":1671787,"Delta":151857816},{"NoteNumber":76,"Velocity":34,"Duration":1671787,"SoundDuration":1671787,"Delta":151857816},{"NoteNumber":86,"Velocity":50,"Duration":210526,"SoundDuration":210526,"Delta":153529604},{"NoteNumber":81,"Velocity":42,"Duration":210526,"SoundDuration":210526,"Delta":153529604},{"NoteNumber":78,"Velocity":42,"Duration":210526,"SoundDuration":210526,"Delta":153529604},{"NoteNumber":69,"Velocity":29,"Duration":210526,"SoundDuration":210526,"Delta":153529604},{"NoteNumber":74,"Velocity":35,"Duration":210526,"SoundDuration":210526,"Delta":153529604},{"NoteNumber":66,"Velocity":29,"Duration":210526,"SoundDuration":210526,"Delta":153529604},{"NoteNumber":76,"Velocity":45,"Duration":421053,"SoundDuration":421053,"Delta":153740130},{"NoteNumber":78,"Velocity":45,"Duration":421053,"SoundDuration":421053,"Delta":153740130},{"NoteNumber":84,"Velocity":54,"Duration":421053,"SoundDuration":421053,"Delta":153740130},{"NoteNumber":66,"Velocity":32,"Duration":421053,"SoundDuration":421053,"Delta":153740130},{"NoteNumber":64,"Velocity":32,"Duration":421053,"SoundDuration":421053,"Delta":153740130},{"NoteNumber":72,"Velocity":38,"Duration":421053,"SoundDuration":421053,"Delta":153740130},{"NoteNumber":83,"Velocity":46,"Duration":235294,"SoundDuration":235294,"Delta":154161183},{"NoteNumber":74,"Velocity":39,"Duration":235294,"SoundDuration":235294,"Delta":154161183},{"NoteNumber":78,"Velocity":39,"Duration":235294,"SoundDuration":235294,"Delta":154161183},{"NoteNumber":62,"Velocity":28,"Duration":235294,"SoundDuration":235294,"Delta":154161183},{"NoteNumber":71,"Velocity":33,"Duration":235294,"SoundDuration":235294,"Delta":154161183},{"NoteNumber":66,"Velocity":28,"Duration":235294,"SoundDuration":235294,"Delta":154161183},{"NoteNumber":71,"Velocity":41,"Duration":213523,"SoundDuration":213523,"Delta":154396477},{"NoteNumber":78,"Velocity":41,"Duration":213523,"SoundDuration":213523,"Delta":154396477},{"NoteNumber":80,"Velocity":49,"Duration":213523,"SoundDuration":213523,"Delta":154396477},{"NoteNumber":38,"Velocity":35,"Duration":213523,"SoundDuration":213523,"Delta":154396477},{"NoteNumber":50,"Velocity":42,"Duration":213523,"SoundDuration":213523,"Delta":154396477},{"NoteNumber":81,"Velocity":44,"Duration":213522,"SoundDuration":213522,"Delta":154610000},{"NoteNumber":78,"Velocity":37,"Duration":213522,"SoundDuration":213522,"Delta":154610000},{"NoteNumber":72,"Velocity":37,"Duration":213522,"SoundDuration":213522,"Delta":154610000},{"NoteNumber":76,"Velocity":37,"Duration":213523,"SoundDuration":213523,"Delta":154823523},{"NoteNumber":78,"Velocity":44,"Duration":213523,"SoundDuration":213523,"Delta":154823523},{"NoteNumber":84,"Velocity":44,"Duration":213523,"SoundDuration":213523,"Delta":154823523},{"NoteNumber":66,"Velocity":26,"Duration":213523,"SoundDuration":213523,"Delta":154823523},{"NoteNumber":64,"Velocity":26,"Duration":213523,"SoundDuration":213523,"Delta":154823523},{"NoteNumber":72,"Velocity":31,"Duration":213523,"SoundDuration":213523,"Delta":154823523},{"NoteNumber":78,"Velocity":43,"Duration":1070665,"SoundDuration":1070665,"Delta":155037046},{"NoteNumber":74,"Velocity":43,"Duration":1070665,"SoundDuration":1070665,"Delta":155037046},{"NoteNumber":83,"Velocity":51,"Duration":1070665,"SoundDuration":1070665,"Delta":155037046},{"NoteNumber":62,"Velocity":31,"Duration":1070665,"SoundDuration":1070665,"Delta":155037046},{"NoteNumber":66,"Velocity":31,"Duration":1070665,"SoundDuration":1070665,"Delta":155037046},{"NoteNumber":71,"Velocity":37,"Duration":1070665,"SoundDuration":1070665,"Delta":155037046},{"NoteNumber":72,"Velocity":33,"Duration":232558,"SoundDuration":232558,"Delta":156107711},{"NoteNumber":81,"Velocity":39,"Duration":232558,"SoundDuration":232558,"Delta":156107711},{"NoteNumber":78,"Velocity":39,"Duration":232558,"SoundDuration":232558,"Delta":156107711},{"NoteNumber":60,"Velocity":25,"Duration":232558,"SoundDuration":232558,"Delta":156107711},{"NoteNumber":69,"Velocity":30,"Duration":232558,"SoundDuration":232558,"Delta":156107711},{"NoteNumber":66,"Velocity":30,"Duration":232558,"SoundDuration":232558,"Delta":156107711},{"NoteNumber":66,"Velocity":41,"Duration":213523,"SoundDuration":213523,"Delta":156340269},{"NoteNumber":59,"Velocity":41,"Duration":213523,"SoundDuration":213523,"Delta":156340269},{"NoteNumber":68,"Velocity":49,"Duration":213523,"SoundDuration":213523,"Delta":156340269},{"NoteNumber":54,"Velocity":27,"Duration":213523,"SoundDuration":213523,"Delta":156340269},{"NoteNumber":56,"Velocity":32,"Duration":213523,"SoundDuration":213523,"Delta":156340269},{"NoteNumber":47,"Velocity":27,"Duration":213523,"SoundDuration":213523,"Delta":156340269},{"NoteNumber":60,"Velocity":37,"Duration":213522,"SoundDuration":213522,"Delta":156553792},{"NoteNumber":69,"Velocity":44,"Duration":213522,"SoundDuration":213522,"Delta":156553792},{"NoteNumber":66,"Velocity":37,"Duration":213522,"SoundDuration":213522,"Delta":156553792},{"NoteNumber":48,"Velocity":26,"Duration":213522,"SoundDuration":213522,"Delta":156553792},{"NoteNumber":57,"Velocity":31,"Duration":213522,"SoundDuration":213522,"Delta":156553792},{"NoteNumber":54,"Velocity":26,"Duration":213522,"SoundDuration":213522,"Delta":156553792},{"NoteNumber":64,"Velocity":37,"Duration":213523,"SoundDuration":213523,"Delta":156767315},{"NoteNumber":66,"Velocity":44,"Duration":213523,"SoundDuration":213523,"Delta":156767315},{"NoteNumber":72,"Velocity":44,"Duration":213523,"SoundDuration":213523,"Delta":156767315},{"NoteNumber":52,"Velocity":26,"Duration":213523,"SoundDuration":213523,"Delta":156767315},{"NoteNumber":60,"Velocity":31,"Duration":213523,"SoundDuration":213523,"Delta":156767315},{"NoteNumber":54,"Velocity":26,"Duration":213523,"SoundDuration":213523,"Delta":156767315},{"NoteNumber":71,"Velocity":51,"Duration":1070665,"SoundDuration":1070665,"Delta":156980838},{"NoteNumber":66,"Velocity":43,"Duration":1070665,"SoundDuration":1070665,"Delta":156980838},{"NoteNumber":62,"Velocity":43,"Duration":1070665,"SoundDuration":1070665,"Delta":156980838},{"NoteNumber":54,"Velocity":31,"Duration":1070665,"SoundDuration":1070665,"Delta":156980838},{"NoteNumber":59,"Velocity":37,"Duration":1070665,"SoundDuration":1070665,"Delta":156980838},{"NoteNumber":50,"Velocity":31,"Duration":1070665,"SoundDuration":1070665,"Delta":156980838},{"NoteNumber":60,"Velocity":33,"Duration":257510,"SoundDuration":257510,"Delta":158051503},{"NoteNumber":66,"Velocity":39,"Duration":257510,"SoundDuration":257510,"Delta":158051503},{"NoteNumber":69,"Velocity":39,"Duration":257510,"SoundDuration":257510,"Delta":158051503},{"NoteNumber":54,"Velocity":30,"Duration":257510,"SoundDuration":257510,"Delta":158051503},{"NoteNumber":48,"Velocity":25,"Duration":257510,"SoundDuration":257510,"Delta":158051503},{"NoteNumber":57,"Velocity":30,"Duration":257510,"SoundDuration":257510,"Delta":158051503},{"NoteNumber":82,"Velocity":67,"Duration":218182,"SoundDuration":218182,"Delta":158309014},{"NoteNumber":73,"Velocity":56,"Duration":218182,"SoundDuration":218182,"Delta":158309014},{"NoteNumber":80,"Velocity":56,"Duration":218182,"SoundDuration":218182,"Delta":158309014},{"NoteNumber":38,"Velocity":48,"Duration":218182,"SoundDuration":218182,"Delta":158309014},{"NoteNumber":50,"Velocity":57,"Duration":218182,"SoundDuration":218182,"Delta":158309014},{"NoteNumber":74,"Velocity":50,"Duration":218181,"SoundDuration":218181,"Delta":158527196},{"NoteNumber":80,"Velocity":50,"Duration":218181,"SoundDuration":218181,"Delta":158527196},{"NoteNumber":83,"Velocity":60,"Duration":218181,"SoundDuration":218181,"Delta":158527196},{"NoteNumber":86,"Velocity":60,"Duration":227272,"SoundDuration":227272,"Delta":158745378},{"NoteNumber":80,"Velocity":60,"Duration":227272,"SoundDuration":227272,"Delta":158745378},{"NoteNumber":77,"Velocity":50,"Duration":227272,"SoundDuration":227272,"Delta":158745378},{"NoteNumber":65,"Velocity":34,"Duration":227272,"SoundDuration":227272,"Delta":158745378},{"NoteNumber":68,"Velocity":34,"Duration":227272,"SoundDuration":227272,"Delta":158745378},{"NoteNumber":74,"Velocity":42,"Duration":227272,"SoundDuration":227272,"Delta":158745378},{"NoteNumber":76,"Velocity":58,"Duration":1094094,"SoundDuration":1094094,"Delta":158972650},{"NoteNumber":80,"Velocity":58,"Duration":1094094,"SoundDuration":1094094,"Delta":158972650},{"NoteNumber":84,"Velocity":69,"Duration":1094094,"SoundDuration":1094094,"Delta":158972650},{"NoteNumber":64,"Velocity":42,"Duration":1094094,"SoundDuration":1094094,"Delta":158972650},{"NoteNumber":72,"Velocity":50,"Duration":1094094,"SoundDuration":1094094,"Delta":158972650},{"NoteNumber":68,"Velocity":42,"Duration":1094094,"SoundDuration":1094094,"Delta":158972650},{"NoteNumber":80,"Velocity":52,"Duration":232558,"SoundDuration":232558,"Delta":160066744},{"NoteNumber":74,"Velocity":44,"Duration":232558,"SoundDuration":232558,"Delta":160066744},{"NoteNumber":83,"Velocity":52,"Duration":232558,"SoundDuration":232558,"Delta":160066744},{"NoteNumber":62,"Velocity":33,"Duration":232558,"SoundDuration":232558,"Delta":160066744},{"NoteNumber":71,"Velocity":40,"Duration":232558,"SoundDuration":232558,"Delta":160066744},{"NoteNumber":68,"Velocity":40,"Duration":232558,"SoundDuration":232558,"Delta":160066744},{"NoteNumber":61,"Velocity":56,"Duration":220587,"SoundDuration":220587,"Delta":160299302},{"NoteNumber":70,"Velocity":67,"Duration":220587,"SoundDuration":220587,"Delta":160299302},{"NoteNumber":68,"Velocity":56,"Duration":220587,"SoundDuration":220587,"Delta":160299302},{"NoteNumber":58,"Velocity":43,"Duration":220587,"SoundDuration":220587,"Delta":160299302},{"NoteNumber":56,"Velocity":37,"Duration":220587,"SoundDuration":220587,"Delta":160299302},{"NoteNumber":49,"Velocity":37,"Duration":220587,"SoundDuration":220587,"Delta":160299302},{"NoteNumber":68,"Velocity":50,"Duration":220588,"SoundDuration":220588,"Delta":160519890},{"NoteNumber":62,"Velocity":50,"Duration":220588,"SoundDuration":220588,"Delta":160519890},{"NoteNumber":71,"Velocity":60,"Duration":220588,"SoundDuration":220588,"Delta":160519890},{"NoteNumber":56,"Velocity":34,"Duration":220588,"SoundDuration":220588,"Delta":160519890},{"NoteNumber":59,"Velocity":42,"Duration":220588,"SoundDuration":220588,"Delta":160519890},{"NoteNumber":50,"Velocity":34,"Duration":220588,"SoundDuration":220588,"Delta":160519890},{"NoteNumber":65,"Velocity":50,"Duration":229007,"SoundDuration":229007,"Delta":160740478},{"NoteNumber":74,"Velocity":60,"Duration":229007,"SoundDuration":229007,"Delta":160740478},{"NoteNumber":68,"Velocity":60,"Duration":229007,"SoundDuration":229007,"Delta":160740478},{"NoteNumber":56,"Velocity":34,"Duration":229007,"SoundDuration":229007,"Delta":160740478},{"NoteNumber":53,"Velocity":34,"Duration":229007,"SoundDuration":229007,"Delta":160740478},{"NoteNumber":62,"Velocity":42,"Duration":229007,"SoundDuration":229007,"Delta":160740478},{"NoteNumber":64,"Velocity":58,"Duration":1100522,"SoundDuration":1100522,"Delta":160969486},{"NoteNumber":68,"Velocity":58,"Duration":1100522,"SoundDuration":1100522,"Delta":160969486},{"NoteNumber":72,"Velocity":69,"Duration":1100522,"SoundDuration":1100522,"Delta":160969486},{"NoteNumber":56,"Velocity":42,"Duration":1100522,"SoundDuration":1100522,"Delta":160969486},{"NoteNumber":52,"Velocity":42,"Duration":1100522,"SoundDuration":1100522,"Delta":160969486},{"NoteNumber":60,"Velocity":50,"Duration":1100522,"SoundDuration":1100522,"Delta":160969486},{"NoteNumber":71,"Velocity":52,"Duration":232558,"SoundDuration":232558,"Delta":162070008},{"NoteNumber":68,"Velocity":52,"Duration":232558,"SoundDuration":232558,"Delta":162070008},{"NoteNumber":62,"Velocity":44,"Duration":232558,"SoundDuration":232558,"Delta":162070008},{"NoteNumber":56,"Velocity":40,"Duration":232558,"SoundDuration":232558,"Delta":162070008},{"NoteNumber":50,"Velocity":33,"Duration":232558,"SoundDuration":232558,"Delta":162070008},{"NoteNumber":59,"Velocity":40,"Duration":232558,"SoundDuration":232558,"Delta":162070008},{"NoteNumber":74,"Velocity":58,"Duration":221402,"SoundDuration":221402,"Delta":162302566},{"NoteNumber":80,"Velocity":58,"Duration":221402,"SoundDuration":221402,"Delta":162302566},{"NoteNumber":83,"Velocity":70,"Duration":221402,"SoundDuration":221402,"Delta":162302566},{"NoteNumber":50,"Velocity":60,"Duration":221402,"SoundDuration":221402,"Delta":162302566},{"NoteNumber":38,"Velocity":50,"Duration":221402,"SoundDuration":221402,"Delta":162302566},{"NoteNumber":84,"Velocity":62,"Duration":221401,"SoundDuration":221401,"Delta":162523968},{"NoteNumber":76,"Velocity":52,"Duration":221401,"SoundDuration":221401,"Delta":162523968},{"NoteNumber":81,"Velocity":52,"Duration":221401,"SoundDuration":221401,"Delta":162523968},{"NoteNumber":81,"Velocity":52,"Duration":212176,"SoundDuration":212176,"Delta":162745370},{"NoteNumber":84,"Velocity":62,"Duration":212176,"SoundDuration":212176,"Delta":162745370},{"NoteNumber":90,"Velocity":62,"Duration":212176,"SoundDuration":212176,"Delta":162745370},{"NoteNumber":78,"Velocity":43,"Duration":212176,"SoundDuration":212176,"Delta":162745370},{"NoteNumber":69,"Velocity":36,"Duration":212176,"SoundDuration":212176,"Delta":162745370},{"NoteNumber":72,"Velocity":36,"Duration":212176,"SoundDuration":212176,"Delta":162745370},{"NoteNumber":90,"Velocity":72,"Duration":1116923,"SoundDuration":1116923,"Delta":162966772},{"NoteNumber":84,"Velocity":61,"Duration":1116923,"SoundDuration":1116923,"Delta":162966772},{"NoteNumber":81,"Velocity":61,"Duration":1116923,"SoundDuration":1116923,"Delta":162966772},{"NoteNumber":72,"Velocity":43,"Duration":1116923,"SoundDuration":1116923,"Delta":162966772},{"NoteNumber":78,"Velocity":52,"Duration":1116923,"SoundDuration":1116923,"Delta":162966772},{"NoteNumber":69,"Velocity":43,"Duration":1116923,"SoundDuration":1116923,"Delta":162966772},{"NoteNumber":84,"Velocity":62,"Duration":239583,"SoundDuration":239583,"Delta":164083696},{"NoteNumber":88,"Velocity":62,"Duration":239583,"SoundDuration":239583,"Delta":164083696},{"NoteNumber":93,"Velocity":73,"Duration":239583,"SoundDuration":239583,"Delta":164083696},{"NoteNumber":72,"Velocity":43,"Duration":239583,"SoundDuration":239583,"Delta":164083696},{"NoteNumber":76,"Velocity":43,"Duration":239583,"SoundDuration":239583,"Delta":164083696},{"NoteNumber":81,"Velocity":51,"Duration":239583,"SoundDuration":239583,"Delta":164083696},{"NoteNumber":88,"Velocity":66,"Duration":1181102,"SoundDuration":1181102,"Delta":164333696},{"NoteNumber":84,"Velocity":66,"Duration":1181102,"SoundDuration":1181102,"Delta":164333696},{"NoteNumber":93,"Velocity":78,"Duration":1181102,"SoundDuration":1181102,"Delta":164333696},{"NoteNumber":72,"Velocity":48,"Duration":1181102,"SoundDuration":1181102,"Delta":164333696},{"NoteNumber":76,"Velocity":48,"Duration":1181102,"SoundDuration":1181102,"Delta":164333696},{"NoteNumber":81,"Velocity":57,"Duration":1181102,"SoundDuration":1181102,"Delta":164333696},{"NoteNumber":81,"Velocity":55,"Duration":241935,"SoundDuration":241935,"Delta":165514798},{"NoteNumber":90,"Velocity":65,"Duration":241935,"SoundDuration":241935,"Delta":165514798},{"NoteNumber":84,"Velocity":55,"Duration":241935,"SoundDuration":241935,"Delta":165514798},{"NoteNumber":69,"Velocity":39,"Duration":241935,"SoundDuration":241935,"Delta":165514798},{"NoteNumber":78,"Velocity":47,"Duration":241935,"SoundDuration":241935,"Delta":165514798},{"NoteNumber":72,"Velocity":39,"Duration":241935,"SoundDuration":241935,"Delta":165514798},{"NoteNumber":81,"Velocity":61,"Duration":517241,"SoundDuration":517241,"Delta":165756734},{"NoteNumber":78,"Velocity":61,"Duration":517241,"SoundDuration":517241,"Delta":165756734},{"NoteNumber":86,"Velocity":72,"Duration":517241,"SoundDuration":517241,"Delta":165756734},{"NoteNumber":66,"Velocity":45,"Duration":517241,"SoundDuration":517241,"Delta":165756734},{"NoteNumber":74,"Velocity":53,"Duration":517241,"SoundDuration":517241,"Delta":165756734},{"NoteNumber":69,"Velocity":45,"Duration":517241,"SoundDuration":517241,"Delta":165756734},{"NoteNumber":76,"Velocity":54,"Duration":303030,"SoundDuration":303030,"Delta":166273975},{"NoteNumber":84,"Velocity":64,"Duration":303030,"SoundDuration":303030,"Delta":166273975},{"NoteNumber":81,"Velocity":54,"Duration":303030,"SoundDuration":303030,"Delta":166273975},{"NoteNumber":72,"Velocity":49,"Duration":303030,"SoundDuration":303030,"Delta":166273975},{"NoteNumber":69,"Velocity":41,"Duration":303030,"SoundDuration":303030,"Delta":166273975},{"NoteNumber":64,"Velocity":41,"Duration":303030,"SoundDuration":303030,"Delta":166273975},{"NoteNumber":71,"Velocity":53,"Duration":240000,"SoundDuration":240000,"Delta":166577005},{"NoteNumber":78,"Velocity":53,"Duration":240000,"SoundDuration":240000,"Delta":166577005},{"NoteNumber":80,"Velocity":63,"Duration":240000,"SoundDuration":240000,"Delta":166577005},{"NoteNumber":66,"Velocity":35,"Duration":240000,"SoundDuration":240000,"Delta":166577005},{"NoteNumber":68,"Velocity":41,"Duration":240000,"SoundDuration":240000,"Delta":166577005},{"NoteNumber":59,"Velocity":35,"Duration":240000,"SoundDuration":240000,"Delta":166577005},{"NoteNumber":81,"Velocity":55,"Duration":239999,"SoundDuration":239999,"Delta":166817005},{"NoteNumber":78,"Velocity":46,"Duration":239999,"SoundDuration":239999,"Delta":166817005},{"NoteNumber":72,"Velocity":46,"Duration":239999,"SoundDuration":239999,"Delta":166817005},{"NoteNumber":66,"Velocity":33,"Duration":239999,"SoundDuration":239999,"Delta":166817005},{"NoteNumber":60,"Velocity":33,"Duration":239999,"SoundDuration":239999,"Delta":166817005},{"NoteNumber":69,"Velocity":39,"Duration":239999,"SoundDuration":239999,"Delta":166817005},{"NoteNumber":76,"Velocity":45,"Duration":240000,"SoundDuration":240000,"Delta":167057005},{"NoteNumber":78,"Velocity":54,"Duration":240000,"SoundDuration":240000,"Delta":167057005},{"NoteNumber":84,"Velocity":54,"Duration":240000,"SoundDuration":240000,"Delta":167057005},{"NoteNumber":66,"Velocity":32,"Duration":240000,"SoundDuration":240000,"Delta":167057005},{"NoteNumber":64,"Velocity":32,"Duration":240000,"SoundDuration":240000,"Delta":167057005},{"NoteNumber":72,"Velocity":38,"Duration":240000,"SoundDuration":240000,"Delta":167057005},{"NoteNumber":83,"Velocity":61,"Duration":1270042,"SoundDuration":1270042,"Delta":167297005},{"NoteNumber":74,"Velocity":51,"Duration":1270042,"SoundDuration":1270042,"Delta":167297005},{"NoteNumber":78,"Velocity":51,"Duration":1270042,"SoundDuration":1270042,"Delta":167297005},{"NoteNumber":66,"Velocity":37,"Duration":1270042,"SoundDuration":1270042,"Delta":167297005},{"NoteNumber":62,"Velocity":37,"Duration":1270042,"SoundDuration":1270042,"Delta":167297005},{"NoteNumber":71,"Velocity":44,"Duration":1270042,"SoundDuration":1270042,"Delta":167297005},{"NoteNumber":72,"Velocity":34,"Duration":317164,"SoundDuration":317164,"Delta":168567047},{"NoteNumber":78,"Velocity":40,"Duration":317164,"SoundDuration":317164,"Delta":168567047},{"NoteNumber":81,"Velocity":40,"Duration":317164,"SoundDuration":317164,"Delta":168567047},{"NoteNumber":60,"Velocity":26,"Duration":317164,"SoundDuration":317164,"Delta":168567047},{"NoteNumber":69,"Velocity":31,"Duration":317164,"SoundDuration":317164,"Delta":168567047},{"NoteNumber":66,"Velocity":31,"Duration":317164,"SoundDuration":317164,"Delta":168567047},{"NoteNumber":67,"Velocity":55,"Duration":149626,"SoundDuration":149626,"Delta":168902868},{"NoteNumber":71,"Velocity":54,"Duration":130922,"SoundDuration":130922,"Delta":168921571},{"NoteNumber":79,"Velocity":67,"Duration":112219,"SoundDuration":112219,"Delta":168940274},{"NoteNumber":43,"Velocity":42,"Duration":74813,"SoundDuration":74813,"Delta":168940274},{"NoteNumber":50,"Velocity":34,"Duration":74813,"SoundDuration":74813,"Delta":169089900},{"NoteNumber":59,"Velocity":37,"Duration":74813,"SoundDuration":74813,"Delta":169239526},{"NoteNumber":55,"Velocity":34,"Duration":74813,"SoundDuration":74813,"Delta":169239526},{"NoteNumber":59,"Velocity":41,"Duration":74812,"SoundDuration":74812,"Delta":169389152},{"NoteNumber":55,"Velocity":35,"Duration":74812,"SoundDuration":74812,"Delta":169389152},{"NoteNumber":43,"Velocity":39,"Duration":74812,"SoundDuration":74812,"Delta":169389152},{"NoteNumber":57,"Velocity":31,"Duration":74813,"SoundDuration":74813,"Delta":169538778},{"NoteNumber":60,"Velocity":37,"Duration":74813,"SoundDuration":74813,"Delta":169538778},{"NoteNumber":50,"Velocity":30,"Duration":74813,"SoundDuration":74813,"Delta":169538778},{"NoteNumber":62,"Velocity":37,"Duration":74813,"SoundDuration":74813,"Delta":169688404},{"NoteNumber":59,"Velocity":31,"Duration":74813,"SoundDuration":74813,"Delta":169688404},{"NoteNumber":55,"Velocity":30,"Duration":74813,"SoundDuration":74813,"Delta":169688404},{"NoteNumber":60,"Velocity":35,"Duration":74813,"SoundDuration":74813,"Delta":169838030},{"NoteNumber":64,"Velocity":41,"Duration":74813,"SoundDuration":74813,"Delta":169838030},{"NoteNumber":43,"Velocity":39,"Duration":74813,"SoundDuration":74813,"Delta":169838030},{"NoteNumber":62,"Velocity":37,"Duration":76922,"SoundDuration":76922,"Delta":169987656},{"NoteNumber":59,"Velocity":31,"Duration":76922,"SoundDuration":76922,"Delta":169987656},{"NoteNumber":50,"Velocity":32,"Duration":76922,"SoundDuration":76922,"Delta":169987656},{"NoteNumber":67,"Velocity":51,"Duration":150401,"SoundDuration":150401,"Delta":170103041},{"NoteNumber":71,"Velocity":55,"Duration":131170,"SoundDuration":131170,"Delta":170122272},{"NoteNumber":79,"Velocity":64,"Duration":111940,"SoundDuration":111940,"Delta":170141502},{"NoteNumber":55,"Velocity":32,"Duration":74626,"SoundDuration":74626,"Delta":170141502},{"NoteNumber":59,"Velocity":41,"Duration":74626,"SoundDuration":74626,"Delta":170290756},{"NoteNumber":55,"Velocity":35,"Duration":74626,"SoundDuration":74626,"Delta":170290756},{"NoteNumber":43,"Velocity":42,"Duration":74626,"SoundDuration":74626,"Delta":170290756},{"NoteNumber":57,"Velocity":31,"Duration":74626,"SoundDuration":74626,"Delta":170440009},{"NoteNumber":60,"Velocity":37,"Duration":74626,"SoundDuration":74626,"Delta":170440009},{"NoteNumber":50,"Velocity":34,"Duration":74626,"SoundDuration":74626,"Delta":170440009},{"NoteNumber":62,"Velocity":37,"Duration":74626,"SoundDuration":74626,"Delta":170589263},{"NoteNumber":59,"Velocity":31,"Duration":74626,"SoundDuration":74626,"Delta":170589263},{"NoteNumber":55,"Velocity":34,"Duration":74626,"SoundDuration":74626,"Delta":170589263},{"NoteNumber":60,"Velocity":35,"Duration":74626,"SoundDuration":74626,"Delta":170738516},{"NoteNumber":64,"Velocity":41,"Duration":74626,"SoundDuration":74626,"Delta":170738516},{"NoteNumber":43,"Velocity":39,"Duration":74626,"SoundDuration":74626,"Delta":170738516},{"NoteNumber":59,"Velocity":31,"Duration":76530,"SoundDuration":76530,"Delta":170887770},{"NoteNumber":62,"Velocity":37,"Duration":76530,"SoundDuration":76530,"Delta":170887770},{"NoteNumber":50,"Velocity":30,"Duration":76530,"SoundDuration":76530,"Delta":170887770},{"NoteNumber":67,"Velocity":49,"Duration":150484,"SoundDuration":150484,"Delta":171002566},{"NoteNumber":71,"Velocity":49,"Duration":131352,"SoundDuration":131352,"Delta":171021698},{"NoteNumber":79,"Velocity":64,"Duration":112219,"SoundDuration":112219,"Delta":171040831},{"NoteNumber":55,"Velocity":30,"Duration":74813,"SoundDuration":74813,"Delta":171040831},{"NoteNumber":43,"Velocity":39,"Duration":74812,"SoundDuration":74812,"Delta":171190457},{"NoteNumber":50,"Velocity":32,"Duration":74813,"SoundDuration":74813,"Delta":171340083},{"NoteNumber":67,"Velocity":49,"Duration":165977,"SoundDuration":165977,"Delta":171452302},{"NoteNumber":71,"Velocity":49,"Duration":147274,"SoundDuration":147274,"Delta":171471006},{"NoteNumber":79,"Velocity":65,"Duration":128571,"SoundDuration":128571,"Delta":171489709},{"NoteNumber":55,"Velocity":32,"Duration":85714,"SoundDuration":85714,"Delta":171489709},{"NoteNumber":81,"Velocity":64,"Duration":111662,"SoundDuration":111662,"Delta":171661137},{"NoteNumber":72,"Velocity":52,"Duration":111662,"SoundDuration":111662,"Delta":171661137},{"NoteNumber":69,"Velocity":52,"Duration":111662,"SoundDuration":111662,"Delta":171661137},{"NoteNumber":41,"Velocity":42,"Duration":74441,"SoundDuration":74441,"Delta":171661137},{"NoteNumber":45,"Velocity":34,"Duration":74441,"SoundDuration":74441,"Delta":171810021},{"NoteNumber":53,"Velocity":28,"Duration":74441,"SoundDuration":74441,"Delta":171958904},{"NoteNumber":57,"Velocity":38,"Duration":74441,"SoundDuration":74441,"Delta":171958904},{"NoteNumber":53,"Velocity":34,"Duration":74441,"SoundDuration":74441,"Delta":171958904},{"NoteNumber":57,"Velocity":42,"Duration":74441,"SoundDuration":74441,"Delta":172107788},{"NoteNumber":53,"Velocity":36,"Duration":74441,"SoundDuration":74441,"Delta":172107788},{"NoteNumber":41,"Velocity":40,"Duration":74441,"SoundDuration":74441,"Delta":172107788},{"NoteNumber":55,"Velocity":33,"Duration":74441,"SoundDuration":74441,"Delta":172256671},{"NoteNumber":58,"Velocity":40,"Duration":74441,"SoundDuration":74441,"Delta":172256671},{"NoteNumber":45,"Velocity":33,"Duration":74441,"SoundDuration":74441,"Delta":172256671},{"NoteNumber":57,"Velocity":34,"Duration":74441,"SoundDuration":74441,"Delta":172405555},{"NoteNumber":60,"Velocity":41,"Duration":74441,"SoundDuration":74441,"Delta":172405555},{"NoteNumber":53,"Velocity":33,"Duration":74441,"SoundDuration":74441,"Delta":172405555},{"NoteNumber":58,"Velocity":40,"Duration":74441,"SoundDuration":74441,"Delta":172554438},{"NoteNumber":62,"Velocity":47,"Duration":74441,"SoundDuration":74441,"Delta":172554438},{"NoteNumber":41,"Velocity":45,"Duration":74441,"SoundDuration":74441,"Delta":172554438},{"NoteNumber":57,"Velocity":37,"Duration":76922,"SoundDuration":76922,"Delta":172703322},{"NoteNumber":60,"Velocity":44,"Duration":76922,"SoundDuration":76922,"Delta":172703322},{"NoteNumber":45,"Velocity":37,"Duration":76922,"SoundDuration":76922,"Delta":172703322},{"NoteNumber":69,"Velocity":57,"Duration":111940,"SoundDuration":111940,"Delta":172857168},{"NoteNumber":72,"Velocity":57,"Duration":111940,"SoundDuration":111940,"Delta":172857168},{"NoteNumber":81,"Velocity":68,"Duration":111940,"SoundDuration":111940,"Delta":172857168},{"NoteNumber":53,"Velocity":39,"Duration":74626,"SoundDuration":74626,"Delta":172857168},{"NoteNumber":53,"Velocity":38,"Duration":74441,"SoundDuration":74441,"Delta":173006421},{"NoteNumber":57,"Velocity":45,"Duration":74441,"SoundDuration":74441,"Delta":173006421},{"NoteNumber":41,"Velocity":42,"Duration":74441,"SoundDuration":74441,"Delta":173006421},{"NoteNumber":58,"Velocity":42,"Duration":74441,"SoundDuration":74441,"Delta":173155305},{"NoteNumber":55,"Velocity":34,"Duration":74441,"SoundDuration":74441,"Delta":173155305},{"NoteNumber":45,"Velocity":34,"Duration":74441,"SoundDuration":74441,"Delta":173155305},{"NoteNumber":60,"Velocity":43,"Duration":74441,"SoundDuration":74441,"Delta":173304188},{"NoteNumber":57,"Velocity":36,"Duration":74441,"SoundDuration":74441,"Delta":173304188},{"NoteNumber":53,"Velocity":35,"Duration":74441,"SoundDuration":74441,"Delta":173304188},{"NoteNumber":41,"Velocity":47,"Duration":74441,"SoundDuration":74441,"Delta":173453072},{"NoteNumber":45,"Velocity":40,"Duration":76922,"SoundDuration":76922,"Delta":173601955},{"NoteNumber":72,"Velocity":60,"Duration":111940,"SoundDuration":111940,"Delta":173755801},{"NoteNumber":69,"Velocity":60,"Duration":111940,"SoundDuration":111940,"Delta":173755801},{"NoteNumber":81,"Velocity":71,"Duration":111940,"SoundDuration":111940,"Delta":173755801},{"NoteNumber":53,"Velocity":40,"Duration":74626,"SoundDuration":74626,"Delta":173755801},{"NoteNumber":41,"Velocity":48,"Duration":74441,"SoundDuration":74441,"Delta":173905055},{"NoteNumber":45,"Velocity":40,"Duration":76922,"SoundDuration":76922,"Delta":174053938},{"NoteNumber":69,"Velocity":61,"Duration":124999,"SoundDuration":124999,"Delta":174207784},{"NoteNumber":81,"Velocity":73,"Duration":124999,"SoundDuration":124999,"Delta":174207784},{"NoteNumber":72,"Velocity":61,"Duration":124999,"SoundDuration":124999,"Delta":174207784},{"NoteNumber":53,"Velocity":41,"Duration":83333,"SoundDuration":83333,"Delta":174207784},{"NoteNumber":71,"Velocity":60,"Duration":111662,"SoundDuration":111662,"Delta":174374451},{"NoteNumber":80,"Velocity":60,"Duration":111662,"SoundDuration":111662,"Delta":174374451},{"NoteNumber":83,"Velocity":73,"Duration":111662,"SoundDuration":111662,"Delta":174374451},{"NoteNumber":40,"Velocity":48,"Duration":74441,"SoundDuration":74441,"Delta":174374451},{"NoteNumber":47,"Velocity":39,"Duration":74441,"SoundDuration":74441,"Delta":174523334},{"NoteNumber":52,"Velocity":35,"Duration":74441,"SoundDuration":74441,"Delta":174672218},{"NoteNumber":56,"Velocity":43,"Duration":74441,"SoundDuration":74441,"Delta":174672218},{"NoteNumber":52,"Velocity":39,"Duration":74441,"SoundDuration":74441,"Delta":174672218},{"NoteNumber":56,"Velocity":48,"Duration":74441,"SoundDuration":74441,"Delta":174821101},{"NoteNumber":52,"Velocity":41,"Duration":74441,"SoundDuration":74441,"Delta":174821101},{"NoteNumber":40,"Velocity":46,"Duration":74441,"SoundDuration":74441,"Delta":174821101},{"NoteNumber":57,"Velocity":45,"Duration":74441,"SoundDuration":74441,"Delta":174969985},{"NoteNumber":54,"Velocity":37,"Duration":74441,"SoundDuration":74441,"Delta":174969985},{"NoteNumber":47,"Velocity":37,"Duration":74441,"SoundDuration":74441,"Delta":174969985},{"NoteNumber":56,"Velocity":39,"Duration":74441,"SoundDuration":74441,"Delta":175118868},{"NoteNumber":59,"Velocity":46,"Duration":74441,"SoundDuration":74441,"Delta":175118868},{"NoteNumber":52,"Velocity":38,"Duration":74441,"SoundDuration":74441,"Delta":175118868},{"NoteNumber":57,"Velocity":45,"Duration":74441,"SoundDuration":74441,"Delta":175267752},{"NoteNumber":60,"Velocity":53,"Duration":74441,"SoundDuration":74441,"Delta":175267752},{"NoteNumber":40,"Velocity":51,"Duration":74441,"SoundDuration":74441,"Delta":175267752},{"NoteNumber":59,"Velocity":50,"Duration":83102,"SoundDuration":83102,"Delta":175416635},{"NoteNumber":56,"Velocity":42,"Duration":83102,"SoundDuration":83102,"Delta":175416635},{"NoteNumber":47,"Velocity":43,"Duration":83102,"SoundDuration":83102,"Delta":175416635},{"NoteNumber":71,"Velocity":65,"Duration":153491,"SoundDuration":153491,"Delta":175541289},{"NoteNumber":80,"Velocity":65,"Duration":132715,"SoundDuration":132715,"Delta":175562065},{"NoteNumber":83,"Velocity":78,"Duration":111940,"SoundDuration":111940,"Delta":175582840},{"NoteNumber":52,"Velocity":44,"Duration":74626,"SoundDuration":74626,"Delta":175582840},{"NoteNumber":56,"Velocity":51,"Duration":74441,"SoundDuration":74441,"Delta":175732094},{"NoteNumber":52,"Velocity":43,"Duration":74441,"SoundDuration":74441,"Delta":175732094},{"NoteNumber":40,"Velocity":48,"Duration":74441,"SoundDuration":74441,"Delta":175732094},{"NoteNumber":57,"Velocity":47,"Duration":74441,"SoundDuration":74441,"Delta":175880977},{"NoteNumber":54,"Velocity":39,"Duration":74441,"SoundDuration":74441,"Delta":175880977},{"NoteNumber":47,"Velocity":39,"Duration":74441,"SoundDuration":74441,"Delta":175880977},{"NoteNumber":59,"Velocity":49,"Duration":74441,"SoundDuration":74441,"Delta":176029861},{"NoteNumber":56,"Velocity":41,"Duration":74441,"SoundDuration":74441,"Delta":176029861},{"NoteNumber":52,"Velocity":40,"Duration":74441,"SoundDuration":74441,"Delta":176029861},{"NoteNumber":40,"Velocity":53,"Duration":74441,"SoundDuration":74441,"Delta":176178744},{"NoteNumber":47,"Velocity":45,"Duration":76922,"SoundDuration":76922,"Delta":176327628},{"NoteNumber":71,"Velocity":67,"Duration":111940,"SoundDuration":111940,"Delta":176481474},{"NoteNumber":80,"Velocity":67,"Duration":111940,"SoundDuration":111940,"Delta":176481474},{"NoteNumber":83,"Velocity":80,"Duration":111940,"SoundDuration":111940,"Delta":176481474},{"NoteNumber":52,"Velocity":46,"Duration":74626,"SoundDuration":74626,"Delta":176481474},{"NoteNumber":40,"Velocity":54,"Duration":74441,"SoundDuration":74441,"Delta":176630727},{"NoteNumber":47,"Velocity":45,"Duration":76922,"SoundDuration":76922,"Delta":176779611},{"NoteNumber":80,"Velocity":69,"Duration":123287,"SoundDuration":123287,"Delta":176933457},{"NoteNumber":83,"Velocity":82,"Duration":123287,"SoundDuration":123287,"Delta":176933457},{"NoteNumber":71,"Velocity":69,"Duration":123287,"SoundDuration":123287,"Delta":176933457},{"NoteNumber":52,"Velocity":47,"Duration":82191,"SoundDuration":82191,"Delta":176933457},{"NoteNumber":74,"Velocity":63,"Duration":152758,"SoundDuration":152758,"Delta":177056744},{"NoteNumber":77,"Velocity":66,"Duration":139059,"SoundDuration":139059,"Delta":177070443},{"NoteNumber":81,"Velocity":68,"Duration":125361,"SoundDuration":125361,"Delta":177084142},{"NoteNumber":86,"Velocity":82,"Duration":111662,"SoundDuration":111662,"Delta":177097840},{"NoteNumber":38,"Velocity":54,"Duration":74441,"SoundDuration":74441,"Delta":177097840},{"NoteNumber":41,"Velocity":44,"Duration":74441,"SoundDuration":74441,"Delta":177246724},{"NoteNumber":62,"Velocity":46,"Duration":74441,"SoundDuration":74441,"Delta":177395607},{"NoteNumber":65,"Velocity":49,"Duration":74441,"SoundDuration":74441,"Delta":177395607},{"NoteNumber":50,"Velocity":44,"Duration":74441,"SoundDuration":74441,"Delta":177395607},{"NoteNumber":62,"Velocity":46,"Duration":74441,"SoundDuration":74441,"Delta":177544491},{"NoteNumber":65,"Velocity":54,"Duration":74441,"SoundDuration":74441,"Delta":177544491},{"NoteNumber":38,"Velocity":51,"Duration":74441,"SoundDuration":74441,"Delta":177544491},{"NoteNumber":64,"Velocity":42,"Duration":74441,"SoundDuration":74441,"Delta":177693374},{"NoteNumber":67,"Velocity":51,"Duration":74441,"SoundDuration":74441,"Delta":177693374},{"NoteNumber":41,"Velocity":42,"Duration":74441,"SoundDuration":74441,"Delta":177693374},{"NoteNumber":69,"Velocity":52,"Duration":74441,"SoundDuration":74441,"Delta":177842258},{"NoteNumber":65,"Velocity":44,"Duration":74441,"SoundDuration":74441,"Delta":177842258},{"NoteNumber":50,"Velocity":43,"Duration":74441,"SoundDuration":74441,"Delta":177842258},{"NoteNumber":67,"Velocity":51,"Duration":74441,"SoundDuration":74441,"Delta":177991141},{"NoteNumber":70,"Velocity":60,"Duration":74441,"SoundDuration":74441,"Delta":177991141},{"NoteNumber":38,"Velocity":57,"Duration":74441,"SoundDuration":74441,"Delta":177991141},{"NoteNumber":69,"Velocity":56,"Duration":76922,"SoundDuration":76922,"Delta":178140025},{"NoteNumber":65,"Velocity":47,"Duration":76922,"SoundDuration":76922,"Delta":178140025},{"NoteNumber":41,"Velocity":48,"Duration":76922,"SoundDuration":76922,"Delta":178140025},{"NoteNumber":74,"Velocity":73,"Duration":161077,"SoundDuration":161077,"Delta":178255409},{"NoteNumber":77,"Velocity":73,"Duration":148256,"SoundDuration":148256,"Delta":178268230},{"NoteNumber":81,"Velocity":73,"Duration":135436,"SoundDuration":135436,"Delta":178281050},{"NoteNumber":86,"Velocity":87,"Duration":122615,"SoundDuration":122615,"Delta":178293871},{"NoteNumber":50,"Velocity":49,"Duration":81743,"SoundDuration":81743,"Delta":178293871},{"NoteNumber":62,"Velocity":48,"Duration":74441,"SoundDuration":74441,"Delta":178457358},{"NoteNumber":65,"Velocity":57,"Duration":74441,"SoundDuration":74441,"Delta":178457358},{"NoteNumber":38,"Velocity":54,"Duration":74441,"SoundDuration":74441,"Delta":178457358},{"NoteNumber":64,"Velocity":43,"Duration":74441,"SoundDuration":74441,"Delta":178606242},{"NoteNumber":67,"Velocity":53,"Duration":74441,"SoundDuration":74441,"Delta":178606242},{"NoteNumber":41,"Velocity":43,"Duration":74441,"SoundDuration":74441,"Delta":178606242},{"NoteNumber":65,"Velocity":46,"Duration":74441,"SoundDuration":74441,"Delta":178755125},{"NoteNumber":69,"Velocity":54,"Duration":74441,"SoundDuration":74441,"Delta":178755125},{"NoteNumber":50,"Velocity":45,"Duration":74441,"SoundDuration":74441,"Delta":178755125},{"NoteNumber":38,"Velocity":59,"Duration":74441,"SoundDuration":74441,"Delta":178904009},{"NoteNumber":41,"Velocity":50,"Duration":76922,"SoundDuration":76922,"Delta":179052892},{"NoteNumber":74,"Velocity":75,"Duration":150401,"SoundDuration":150401,"Delta":179168277},{"NoteNumber":77,"Velocity":75,"Duration":137581,"SoundDuration":137581,"Delta":179181097},{"NoteNumber":81,"Velocity":75,"Duration":124760,"SoundDuration":124760,"Delta":179193918},{"NoteNumber":86,"Velocity":90,"Duration":111940,"SoundDuration":111940,"Delta":179206738},{"NoteNumber":50,"Velocity":51,"Duration":74626,"SoundDuration":74626,"Delta":179206738},{"NoteNumber":38,"Velocity":60,"Duration":74441,"SoundDuration":74441,"Delta":179355992},{"NoteNumber":41,"Velocity":50,"Duration":76922,"SoundDuration":76922,"Delta":179504875},{"NoteNumber":74,"Velocity":77,"Duration":159104,"SoundDuration":159104,"Delta":179620260},{"NoteNumber":77,"Velocity":77,"Duration":146284,"SoundDuration":146284,"Delta":179633080},{"NoteNumber":81,"Velocity":77,"Duration":133463,"SoundDuration":133463,"Delta":179645901},{"NoteNumber":86,"Velocity":92,"Duration":120643,"SoundDuration":120643,"Delta":179658721},{"NoteNumber":50,"Velocity":52,"Duration":80429,"SoundDuration":80429,"Delta":179658721},{"NoteNumber":77,"Velocity":67,"Duration":149830,"SoundDuration":149830,"Delta":179779365},{"NoteNumber":83,"Velocity":67,"Duration":130746,"SoundDuration":130746,"Delta":179798449},{"NoteNumber":91,"Velocity":80,"Duration":111662,"SoundDuration":111662,"Delta":179817533},{"NoteNumber":36,"Velocity":60,"Duration":74441,"SoundDuration":74441,"Delta":179817533},{"NoteNumber":43,"Velocity":49,"Duration":74441,"SoundDuration":74441,"Delta":179966416},{"NoteNumber":71,"Velocity":54,"Duration":74441,"SoundDuration":74441,"Delta":180115300},{"NoteNumber":67,"Velocity":45,"Duration":74441,"SoundDuration":74441,"Delta":180115300},{"NoteNumber":48,"Velocity":49,"Duration":74441,"SoundDuration":74441,"Delta":180115300},{"NoteNumber":71,"Velocity":60,"Duration":74441,"SoundDuration":74441,"Delta":180264183},{"NoteNumber":67,"Velocity":51,"Duration":74441,"SoundDuration":74441,"Delta":180264183},{"NoteNumber":36,"Velocity":57,"Duration":74441,"SoundDuration":74441,"Delta":180264183},{"NoteNumber":72,"Velocity":56,"Duration":74441,"SoundDuration":74441,"Delta":180413067},{"NoteNumber":69,"Velocity":46,"Duration":74441,"SoundDuration":74441,"Delta":180413067},{"NoteNumber":43,"Velocity":46,"Duration":74441,"SoundDuration":74441,"Delta":180413067},{"NoteNumber":74,"Velocity":57,"Duration":74441,"SoundDuration":74441,"Delta":180561950},{"NoteNumber":71,"Velocity":48,"Duration":74441,"SoundDuration":74441,"Delta":180561950},{"NoteNumber":48,"Velocity":47,"Duration":74441,"SoundDuration":74441,"Delta":180561950},{"NoteNumber":72,"Velocity":55,"Duration":74441,"SoundDuration":74441,"Delta":180710834},{"NoteNumber":76,"Velocity":65,"Duration":74441,"SoundDuration":74441,"Delta":180710834},{"NoteNumber":36,"Velocity":62,"Duration":74441,"SoundDuration":74441,"Delta":180710834},{"NoteNumber":74,"Velocity":61,"Duration":80862,"SoundDuration":80862,"Delta":180859717},{"NoteNumber":71,"Velocity":51,"Duration":80862,"SoundDuration":80862,"Delta":180859717},{"NoteNumber":43,"Velocity":52,"Duration":80862,"SoundDuration":80862,"Delta":180859717},{"NoteNumber":77,"Velocity":78,"Duration":152371,"SoundDuration":152371,"Delta":180981011},{"NoteNumber":83,"Velocity":78,"Duration":132155,"SoundDuration":132155,"Delta":181001227},{"NoteNumber":91,"Velocity":93,"Duration":111940,"SoundDuration":111940,"Delta":181021442},{"NoteNumber":48,"Velocity":53,"Duration":74626,"SoundDuration":74626,"Delta":181021442},{"NoteNumber":67,"Velocity":50,"Duration":74626,"SoundDuration":74626,"Delta":181170696},{"NoteNumber":71,"Velocity":59,"Duration":74626,"SoundDuration":74626,"Delta":181170696},{"NoteNumber":36,"Velocity":60,"Duration":74626,"SoundDuration":74626,"Delta":181170696},{"NoteNumber":72,"Velocity":53,"Duration":74626,"SoundDuration":74626,"Delta":181319949},{"NoteNumber":69,"Velocity":45,"Duration":74626,"SoundDuration":74626,"Delta":181319949},{"NoteNumber":43,"Velocity":49,"Duration":74626,"SoundDuration":74626,"Delta":181319949},{"NoteNumber":74,"Velocity":53,"Duration":74626,"SoundDuration":74626,"Delta":181469203},{"NoteNumber":71,"Velocity":45,"Duration":74626,"SoundDuration":74626,"Delta":181469203},{"NoteNumber":48,"Velocity":49,"Duration":74626,"SoundDuration":74626,"Delta":181469203},{"NoteNumber":76,"Velocity":59,"Duration":74626,"SoundDuration":74626,"Delta":181618456},{"NoteNumber":72,"Velocity":50,"Duration":74626,"SoundDuration":74626,"Delta":181618456},{"NoteNumber":36,"Velocity":56,"Duration":74626,"SoundDuration":74626,"Delta":181618456},{"NoteNumber":71,"Velocity":45,"Duration":74626,"SoundDuration":74626,"Delta":181767710},{"NoteNumber":74,"Velocity":54,"Duration":74626,"SoundDuration":74626,"Delta":181767710},{"NoteNumber":43,"Velocity":44,"Duration":74626,"SoundDuration":74626,"Delta":181767710},{"NoteNumber":76,"Velocity":53,"Duration":74626,"SoundDuration":74626,"Delta":181916963},{"NoteNumber":72,"Velocity":45,"Duration":74626,"SoundDuration":74626,"Delta":181916963},{"NoteNumber":48,"Velocity":44,"Duration":74626,"SoundDuration":74626,"Delta":181916963},{"NoteNumber":77,"Velocity":59,"Duration":74626,"SoundDuration":74626,"Delta":182066217},{"NoteNumber":74,"Velocity":50,"Duration":74626,"SoundDuration":74626,"Delta":182066217},{"NoteNumber":36,"Velocity":56,"Duration":74626,"SoundDuration":74626,"Delta":182066217},{"NoteNumber":76,"Velocity":45,"Duration":74626,"SoundDuration":74626,"Delta":182215470},{"NoteNumber":79,"Velocity":54,"Duration":74626,"SoundDuration":74626,"Delta":182215470},{"NoteNumber":43,"Velocity":46,"Duration":74626,"SoundDuration":74626,"Delta":182215470},{"NoteNumber":77,"Velocity":45,"Duration":82417,"SoundDuration":82417,"Delta":182364724},{"NoteNumber":81,"Velocity":53,"Duration":82417,"SoundDuration":82417,"Delta":182364724},{"NoteNumber":48,"Velocity":46,"Duration":82417,"SoundDuration":82417,"Delta":182364724},{"NoteNumber":79,"Velocity":78,"Duration":152871,"SoundDuration":152871,"Delta":182488350},{"NoteNumber":83,"Velocity":78,"Duration":132267,"SoundDuration":132267,"Delta":182508954},{"NoteNumber":91,"Velocity":93,"Duration":111662,"SoundDuration":111662,"Delta":182529559},{"NoteNumber":36,"Velocity":60,"Duration":74441,"SoundDuration":74441,"Delta":182531420},{"NoteNumber":43,"Velocity":49,"Duration":74441,"SoundDuration":74441,"Delta":182678442},{"NoteNumber":74,"Velocity":54,"Duration":74441,"SoundDuration":74441,"Delta":182827326},{"NoteNumber":71,"Velocity":45,"Duration":74441,"SoundDuration":74441,"Delta":182827326},{"NoteNumber":48,"Velocity":49,"Duration":74441,"SoundDuration":74441,"Delta":182827326},{"NoteNumber":74,"Velocity":60,"Duration":74441,"SoundDuration":74441,"Delta":182976209},{"NoteNumber":71,"Velocity":51,"Duration":74441,"SoundDuration":74441,"Delta":182976209},{"NoteNumber":36,"Velocity":57,"Duration":74441,"SoundDuration":74441,"Delta":182976209},{"NoteNumber":76,"Velocity":56,"Duration":74441,"SoundDuration":74441,"Delta":183125093},{"NoteNumber":72,"Velocity":46,"Duration":74441,"SoundDuration":74441,"Delta":183125093},{"NoteNumber":43,"Velocity":46,"Duration":74441,"SoundDuration":74441,"Delta":183125093},{"NoteNumber":77,"Velocity":57,"Duration":74441,"SoundDuration":74441,"Delta":183273976},{"NoteNumber":74,"Velocity":48,"Duration":74441,"SoundDuration":74441,"Delta":183273976},{"NoteNumber":48,"Velocity":47,"Duration":74441,"SoundDuration":74441,"Delta":183273976},{"NoteNumber":76,"Velocity":55,"Duration":74441,"SoundDuration":74441,"Delta":183422860},{"NoteNumber":79,"Velocity":65,"Duration":74441,"SoundDuration":74441,"Delta":183422860},{"NoteNumber":36,"Velocity":62,"Duration":74441,"SoundDuration":74441,"Delta":183422860},{"NoteNumber":77,"Velocity":61,"Duration":83798,"SoundDuration":83798,"Delta":183571743},{"NoteNumber":74,"Velocity":51,"Duration":83798,"SoundDuration":83798,"Delta":183571743},{"NoteNumber":43,"Velocity":52,"Duration":83798,"SoundDuration":83798,"Delta":183571743},{"NoteNumber":79,"Velocity":78,"Duration":153839,"SoundDuration":153839,"Delta":183697442},{"NoteNumber":83,"Velocity":78,"Duration":132889,"SoundDuration":132889,"Delta":183718391},{"NoteNumber":91,"Velocity":93,"Duration":111940,"SoundDuration":111940,"Delta":183739341},{"NoteNumber":48,"Velocity":53,"Duration":74626,"SoundDuration":74626,"Delta":183739341},{"NoteNumber":74,"Velocity":54,"Duration":74626,"SoundDuration":74626,"Delta":183888595},{"NoteNumber":83,"Velocity":54,"Duration":74626,"SoundDuration":74626,"Delta":183888595},{"NoteNumber":86,"Velocity":65,"Duration":74626,"SoundDuration":74626,"Delta":183888595},{"NoteNumber":36,"Velocity":66,"Duration":74626,"SoundDuration":74626,"Delta":183888595},{"NoteNumber":84,"Velocity":50,"Duration":74626,"SoundDuration":74626,"Delta":184037848},{"NoteNumber":76,"Velocity":50,"Duration":74626,"SoundDuration":74626,"Delta":184037848},{"NoteNumber":88,"Velocity":60,"Duration":74626,"SoundDuration":74626,"Delta":184037848},{"NoteNumber":43,"Velocity":55,"Duration":74626,"SoundDuration":74626,"Delta":184037848},{"NoteNumber":89,"Velocity":62,"Duration":74626,"SoundDuration":74626,"Delta":184187102},{"NoteNumber":77,"Velocity":51,"Duration":74626,"SoundDuration":74626,"Delta":184187102},{"NoteNumber":86,"Velocity":51,"Duration":74626,"SoundDuration":74626,"Delta":184187102},{"NoteNumber":48,"Velocity":56,"Duration":74626,"SoundDuration":74626,"Delta":184187102},{"NoteNumber":91,"Velocity":71,"Duration":74626,"SoundDuration":74626,"Delta":184336355},{"NoteNumber":88,"Velocity":59,"Duration":74626,"SoundDuration":74626,"Delta":184336355},{"NoteNumber":79,"Velocity":59,"Duration":74626,"SoundDuration":74626,"Delta":184336355},{"NoteNumber":36,"Velocity":67,"Duration":74626,"SoundDuration":74626,"Delta":184336355},{"NoteNumber":93,"Velocity":66,"Duration":74626,"SoundDuration":74626,"Delta":184485609},{"NoteNumber":81,"Velocity":56,"Duration":74626,"SoundDuration":74626,"Delta":184485609},{"NoteNumber":89,"Velocity":56,"Duration":74626,"SoundDuration":74626,"Delta":184485609},{"NoteNumber":43,"Velocity":54,"Duration":74626,"SoundDuration":74626,"Delta":184485609},{"NoteNumber":82,"Velocity":56,"Duration":74626,"SoundDuration":74626,"Delta":184634862},{"NoteNumber":91,"Velocity":56,"Duration":74626,"SoundDuration":74626,"Delta":184634862},{"NoteNumber":94,"Velocity":67,"Duration":74626,"SoundDuration":74626,"Delta":184634862},{"NoteNumber":48,"Velocity":55,"Duration":74626,"SoundDuration":74626,"Delta":184634862},{"NoteNumber":94,"Velocity":77,"Duration":74626,"SoundDuration":74626,"Delta":184784116},{"NoteNumber":82,"Velocity":64,"Duration":74626,"SoundDuration":74626,"Delta":184784116},{"NoteNumber":91,"Velocity":64,"Duration":74626,"SoundDuration":74626,"Delta":184784116},{"NoteNumber":36,"Velocity":72,"Duration":74626,"SoundDuration":74626,"Delta":184784116},{"NoteNumber":94,"Velocity":72,"Duration":76922,"SoundDuration":76922,"Delta":184933369},{"NoteNumber":82,"Velocity":60,"Duration":76922,"SoundDuration":76922,"Delta":184933369},{"NoteNumber":91,"Velocity":60,"Duration":76922,"SoundDuration":76922,"Delta":184933369},{"NoteNumber":43,"Velocity":61,"Duration":76922,"SoundDuration":76922,"Delta":184933369},{"NoteNumber":82,"Velocity":61,"Duration":82873,"SoundDuration":82873,"Delta":185087215},{"NoteNumber":94,"Velocity":72,"Duration":82873,"SoundDuration":82873,"Delta":185087215},{"NoteNumber":91,"Velocity":61,"Duration":82873,"SoundDuration":82873,"Delta":185087215},{"NoteNumber":48,"Velocity":62,"Duration":82873,"SoundDuration":82873,"Delta":185087215},{"NoteNumber":95,"Velocity":90,"Duration":616667,"SoundDuration":616667,"Delta":185252961},{"NoteNumber":91,"Velocity":76,"Duration":616667,"SoundDuration":616667,"Delta":185252961},{"NoteNumber":83,"Velocity":76,"Duration":616667,"SoundDuration":616667,"Delta":185252961},{"NoteNumber":35,"Velocity":80,"Duration":78328,"SoundDuration":78328,"Delta":185252961},{"NoteNumber":43,"Velocity":57,"Duration":76142,"SoundDuration":76142,"Delta":185409619},{"NoteNumber":47,"Velocity":58,"Duration":76142,"SoundDuration":76142,"Delta":185561904},{"NoteNumber":35,"Velocity":75,"Duration":77720,"SoundDuration":77720,"Delta":185714188},{"NoteNumber":81,"Velocity":68,"Duration":76142,"SoundDuration":76142,"Delta":185869629},{"NoteNumber":93,"Velocity":81,"Duration":76142,"SoundDuration":76142,"Delta":185869629},{"NoteNumber":90,"Velocity":68,"Duration":76142,"SoundDuration":76142,"Delta":185869629},{"NoteNumber":43,"Velocity":57,"Duration":76142,"SoundDuration":76142,"Delta":185869629},{"NoteNumber":88,"Velocity":68,"Duration":76142,"SoundDuration":76142,"Delta":186021913},{"NoteNumber":91,"Velocity":81,"Duration":76142,"SoundDuration":76142,"Delta":186021913},{"NoteNumber":79,"Velocity":68,"Duration":76142,"SoundDuration":76142,"Delta":186021913},{"NoteNumber":47,"Velocity":58,"Duration":76142,"SoundDuration":76142,"Delta":186021913},{"NoteNumber":90,"Velocity":76,"Duration":616662,"SoundDuration":616662,"Delta":186174198},{"NoteNumber":93,"Velocity":90,"Duration":616662,"SoundDuration":616662,"Delta":186174198},{"NoteNumber":81,"Velocity":76,"Duration":616662,"SoundDuration":616662,"Delta":186174198},{"NoteNumber":35,"Velocity":76,"Duration":77922,"SoundDuration":77922,"Delta":186174198},{"NoteNumber":42,"Velocity":61,"Duration":76142,"SoundDuration":76142,"Delta":186330042},{"NoteNumber":47,"Velocity":61,"Duration":76142,"SoundDuration":76142,"Delta":186482326},{"NoteNumber":35,"Velocity":80,"Duration":78125,"SoundDuration":78125,"Delta":186634611},{"NoteNumber":79,"Velocity":68,"Duration":75949,"SoundDuration":75949,"Delta":186790861},{"NoteNumber":88,"Velocity":68,"Duration":75949,"SoundDuration":75949,"Delta":186790861},{"NoteNumber":91,"Velocity":81,"Duration":75949,"SoundDuration":75949,"Delta":186790861},{"NoteNumber":42,"Velocity":57,"Duration":75949,"SoundDuration":75949,"Delta":186790861},{"NoteNumber":78,"Velocity":68,"Duration":75949,"SoundDuration":75949,"Delta":186942759},{"NoteNumber":87,"Velocity":68,"Duration":75949,"SoundDuration":75949,"Delta":186942759},{"NoteNumber":90,"Velocity":81,"Duration":75949,"SoundDuration":75949,"Delta":186942759},{"NoteNumber":47,"Velocity":58,"Duration":75949,"SoundDuration":75949,"Delta":186942759},{"NoteNumber":79,"Velocity":76,"Duration":77319,"SoundDuration":77319,"Delta":187094658},{"NoteNumber":91,"Velocity":90,"Duration":77319,"SoundDuration":77319,"Delta":187094658},{"NoteNumber":88,"Velocity":76,"Duration":77319,"SoundDuration":77319,"Delta":187094658},{"NoteNumber":35,"Velocity":75,"Duration":77319,"SoundDuration":77319,"Delta":187094658},{"NoteNumber":87,"Velocity":68,"Duration":75949,"SoundDuration":75949,"Delta":187249297},{"NoteNumber":90,"Velocity":81,"Duration":75949,"SoundDuration":75949,"Delta":187249297},{"NoteNumber":78,"Velocity":68,"Duration":75949,"SoundDuration":75949,"Delta":187249297},{"NoteNumber":40,"Velocity":57,"Duration":75949,"SoundDuration":75949,"Delta":187249297},{"NoteNumber":85,"Velocity":68,"Duration":75949,"SoundDuration":75949,"Delta":187401195},{"NoteNumber":76,"Velocity":68,"Duration":75949,"SoundDuration":75949,"Delta":187401195},{"NoteNumber":88,"Velocity":81,"Duration":75949,"SoundDuration":75949,"Delta":187401195},{"NoteNumber":47,"Velocity":58,"Duration":75949,"SoundDuration":75949,"Delta":187401195},{"NoteNumber":90,"Velocity":90,"Duration":75949,"SoundDuration":75949,"Delta":187553094},{"NoteNumber":87,"Velocity":76,"Duration":75949,"SoundDuration":75949,"Delta":187553094},{"NoteNumber":78,"Velocity":76,"Duration":75949,"SoundDuration":75949,"Delta":187553094},{"NoteNumber":35,"Velocity":76,"Duration":75949,"SoundDuration":75949,"Delta":187553094},{"NoteNumber":39,"Velocity":61,"Duration":78740,"SoundDuration":78740,"Delta":187704992},{"NoteNumber":83,"Velocity":81,"Duration":83798,"SoundDuration":83798,"Delta":187862473},{"NoteNumber":71,"Velocity":68,"Duration":83798,"SoundDuration":83798,"Delta":187862473},{"NoteNumber":47,"Velocity":61,"Duration":83798,"SoundDuration":83798,"Delta":187862473},{"NoteNumber":95,"Velocity":90,"Duration":616667,"SoundDuration":616667,"Delta":188030071},{"NoteNumber":83,"Velocity":76,"Duration":616667,"SoundDuration":616667,"Delta":188030071},{"NoteNumber":92,"Velocity":76,"Duration":616667,"SoundDuration":616667,"Delta":188030071},{"NoteNumber":28,"Velocity":80,"Duration":78328,"SoundDuration":78328,"Delta":188030071},{"NoteNumber":35,"Velocity":57,"Duration":76142,"SoundDuration":76142,"Delta":188186729},{"NoteNumber":40,"Velocity":58,"Duration":76142,"SoundDuration":76142,"Delta":188339013},{"NoteNumber":28,"Velocity":75,"Duration":77720,"SoundDuration":77720,"Delta":188491298},{"NoteNumber":90,"Velocity":68,"Duration":76142,"SoundDuration":76142,"Delta":188646738},{"NoteNumber":93,"Velocity":81,"Duration":76142,"SoundDuration":76142,"Delta":188646738},{"NoteNumber":81,"Velocity":68,"Duration":76142,"SoundDuration":76142,"Delta":188646738},{"NoteNumber":35,"Velocity":57,"Duration":76142,"SoundDuration":76142,"Delta":188646738},{"NoteNumber":88,"Velocity":68,"Duration":76142,"SoundDuration":76142,"Delta":188799023},{"NoteNumber":80,"Velocity":68,"Duration":76142,"SoundDuration":76142,"Delta":188799023},{"NoteNumber":92,"Velocity":81,"Duration":76142,"SoundDuration":76142,"Delta":188799023},{"NoteNumber":40,"Velocity":58,"Duration":76142,"SoundDuration":76142,"Delta":188799023},{"NoteNumber":90,"Velocity":76,"Duration":616662,"SoundDuration":616662,"Delta":188951307},{"NoteNumber":81,"Velocity":76,"Duration":616662,"SoundDuration":616662,"Delta":188951307},{"NoteNumber":93,"Velocity":90,"Duration":616662,"SoundDuration":616662,"Delta":188951307},{"NoteNumber":28,"Velocity":76,"Duration":77922,"SoundDuration":77922,"Delta":188951307},{"NoteNumber":35,"Velocity":61,"Duration":76142,"SoundDuration":76142,"Delta":189107151},{"NoteNumber":40,"Velocity":61,"Duration":76142,"SoundDuration":76142,"Delta":189259436},{"NoteNumber":28,"Velocity":80,"Duration":78125,"SoundDuration":78125,"Delta":189411720},{"NoteNumber":80,"Velocity":68,"Duration":75949,"SoundDuration":75949,"Delta":189567970},{"NoteNumber":88,"Velocity":68,"Duration":75949,"SoundDuration":75949,"Delta":189567970},{"NoteNumber":92,"Velocity":81,"Duration":75949,"SoundDuration":75949,"Delta":189567970},{"NoteNumber":35,"Velocity":57,"Duration":75949,"SoundDuration":75949,"Delta":189567970},{"NoteNumber":90,"Velocity":81,"Duration":75949,"SoundDuration":75949,"Delta":189719869},{"NoteNumber":87,"Velocity":68,"Duration":75949,"SoundDuration":75949,"Delta":189719869},{"NoteNumber":78,"Velocity":68,"Duration":75949,"SoundDuration":75949,"Delta":189719869},{"NoteNumber":40,"Velocity":58,"Duration":75949,"SoundDuration":75949,"Delta":189719869},{"NoteNumber":92,"Velocity":90,"Duration":77319,"SoundDuration":77319,"Delta":189871767},{"NoteNumber":80,"Velocity":76,"Duration":77319,"SoundDuration":77319,"Delta":189871767},{"NoteNumber":88,"Velocity":76,"Duration":77319,"SoundDuration":77319,"Delta":189871767},{"NoteNumber":28,"Velocity":75,"Duration":77319,"SoundDuration":77319,"Delta":189871767},{"NoteNumber":90,"Velocity":81,"Duration":75949,"SoundDuration":75949,"Delta":190026406},{"NoteNumber":87,"Velocity":68,"Duration":75949,"SoundDuration":75949,"Delta":190026406},{"NoteNumber":78,"Velocity":68,"Duration":75949,"SoundDuration":75949,"Delta":190026406},{"NoteNumber":35,"Velocity":57,"Duration":75949,"SoundDuration":75949,"Delta":190026406},{"NoteNumber":85,"Velocity":68,"Duration":75949,"SoundDuration":75949,"Delta":190178305},{"NoteNumber":76,"Velocity":68,"Duration":75949,"SoundDuration":75949,"Delta":190178305},{"NoteNumber":88,"Velocity":81,"Duration":75949,"SoundDuration":75949,"Delta":190178305},{"NoteNumber":40,"Velocity":58,"Duration":75949,"SoundDuration":75949,"Delta":190178305},{"NoteNumber":87,"Velocity":76,"Duration":75949,"SoundDuration":75949,"Delta":190330203},{"NoteNumber":90,"Velocity":90,"Duration":75949,"SoundDuration":75949,"Delta":190330203},{"NoteNumber":78,"Velocity":76,"Duration":75949,"SoundDuration":75949,"Delta":190330203},{"NoteNumber":28,"Velocity":76,"Duration":75949,"SoundDuration":75949,"Delta":190330203},{"NoteNumber":35,"Velocity":61,"Duration":78740,"SoundDuration":78740,"Delta":190482102},{"NoteNumber":83,"Velocity":81,"Duration":83798,"SoundDuration":83798,"Delta":190639582},{"NoteNumber":71,"Velocity":68,"Duration":83798,"SoundDuration":83798,"Delta":190639582},{"NoteNumber":40,"Velocity":61,"Duration":83798,"SoundDuration":83798,"Delta":190639582},{"NoteNumber":95,"Velocity":97,"Duration":83798,"SoundDuration":83798,"Delta":190807180},{"NoteNumber":92,"Velocity":97,"Duration":83798,"SoundDuration":83798,"Delta":190807180},{"NoteNumber":83,"Velocity":82,"Duration":83798,"SoundDuration":83798,"Delta":190807180},{"NoteNumber":28,"Velocity":71,"Duration":83798,"SoundDuration":83798,"Delta":190807180},{"NoteNumber":80,"Velocity":77,"Duration":347825,"SoundDuration":347825,"Delta":191142376},{"NoteNumber":92,"Velocity":91,"Duration":347825,"SoundDuration":347825,"Delta":191142376},{"NoteNumber":88,"Velocity":77,"Duration":347825,"SoundDuration":347825,"Delta":191142376},{"NoteNumber":56,"Velocity":53,"Duration":347825,"SoundDuration":347825,"Delta":191142376},{"NoteNumber":59,"Velocity":53,"Duration":347825,"SoundDuration":347825,"Delta":191142376},{"NoteNumber":52,"Velocity":53,"Duration":347825,"SoundDuration":347825,"Delta":191142376},{"NoteNumber":64,"Velocity":63,"Duration":347825,"SoundDuration":347825,"Delta":191142376},{"NoteNumber":81,"Velocity":77,"Duration":521738,"SoundDuration":521738,"Delta":191490202},{"NoteNumber":93,"Velocity":91,"Duration":521738,"SoundDuration":521738,"Delta":191490202},{"NoteNumber":88,"Velocity":77,"Duration":521738,"SoundDuration":521738,"Delta":191490202},{"NoteNumber":52,"Velocity":53,"Duration":521738,"SoundDuration":521738,"Delta":191490202},{"NoteNumber":64,"Velocity":63,"Duration":521738,"SoundDuration":521738,"Delta":191490202},{"NoteNumber":61,"Velocity":53,"Duration":521738,"SoundDuration":521738,"Delta":191490202},{"NoteNumber":57,"Velocity":53,"Duration":521738,"SoundDuration":521738,"Delta":191490202},{"NoteNumber":90,"Velocity":89,"Duration":261603,"SoundDuration":261603,"Delta":192011941},{"NoteNumber":88,"Velocity":75,"Duration":261603,"SoundDuration":261603,"Delta":192011941},{"NoteNumber":78,"Velocity":75,"Duration":261603,"SoundDuration":261603,"Delta":192011941},{"NoteNumber":52,"Velocity":52,"Duration":261603,"SoundDuration":261603,"Delta":192011941},{"NoteNumber":64,"Velocity":62,"Duration":261603,"SoundDuration":261603,"Delta":192011941},{"NoteNumber":54,"Velocity":52,"Duration":261603,"SoundDuration":261603,"Delta":192011941},{"NoteNumber":57,"Velocity":52,"Duration":261603,"SoundDuration":261603,"Delta":192011941},{"NoteNumber":92,"Velocity":79,"Duration":87025,"SoundDuration":87025,"Delta":192273544},{"NoteNumber":88,"Velocity":67,"Duration":87025,"SoundDuration":87025,"Delta":192273544},{"NoteNumber":80,"Velocity":67,"Duration":87025,"SoundDuration":87025,"Delta":192273544},{"NoteNumber":64,"Velocity":55,"Duration":87025,"SoundDuration":87025,"Delta":192273544},{"NoteNumber":52,"Velocity":46,"Duration":87025,"SoundDuration":87025,"Delta":192273544},{"NoteNumber":59,"Velocity":46,"Duration":87025,"SoundDuration":87025,"Delta":192273544},{"NoteNumber":56,"Velocity":46,"Duration":87025,"SoundDuration":87025,"Delta":192273544},{"NoteNumber":80,"Velocity":74,"Duration":82644,"SoundDuration":82644,"Delta":192368481},{"NoteNumber":92,"Velocity":88,"Duration":82644,"SoundDuration":82644,"Delta":192368481},{"NoteNumber":88,"Velocity":74,"Duration":82644,"SoundDuration":82644,"Delta":192368481},{"NoteNumber":56,"Velocity":51,"Duration":82644,"SoundDuration":82644,"Delta":192368481},{"NoteNumber":59,"Velocity":51,"Duration":82644,"SoundDuration":82644,"Delta":192368481},{"NoteNumber":64,"Velocity":61,"Duration":82644,"SoundDuration":82644,"Delta":192368481},{"NoteNumber":52,"Velocity":51,"Duration":82644,"SoundDuration":82644,"Delta":192368481},{"NoteNumber":68,"Velocity":69,"Duration":352940,"SoundDuration":352940,"Delta":192699060},{"NoteNumber":80,"Velocity":81,"Duration":352940,"SoundDuration":352940,"Delta":192699060},{"NoteNumber":76,"Velocity":69,"Duration":352940,"SoundDuration":352940,"Delta":192699060},{"NoteNumber":52,"Velocity":56,"Duration":352940,"SoundDuration":352940,"Delta":192699060},{"NoteNumber":40,"Velocity":47,"Duration":352940,"SoundDuration":352940,"Delta":192699060},{"NoteNumber":47,"Velocity":47,"Duration":352940,"SoundDuration":352940,"Delta":192699060},{"NoteNumber":76,"Velocity":69,"Duration":529411,"SoundDuration":529411,"Delta":193052001},{"NoteNumber":69,"Velocity":69,"Duration":529411,"SoundDuration":529411,"Delta":193052001},{"NoteNumber":81,"Velocity":81,"Duration":529411,"SoundDuration":529411,"Delta":193052001},{"NoteNumber":40,"Velocity":47,"Duration":529411,"SoundDuration":529411,"Delta":193052001},{"NoteNumber":52,"Velocity":56,"Duration":529411,"SoundDuration":529411,"Delta":193052001},{"NoteNumber":49,"Velocity":47,"Duration":529411,"SoundDuration":529411,"Delta":193052001},{"NoteNumber":78,"Velocity":80,"Duration":262622,"SoundDuration":262622,"Delta":193581413},{"NoteNumber":76,"Velocity":67,"Duration":262622,"SoundDuration":262622,"Delta":193581413},{"NoteNumber":66,"Velocity":67,"Duration":262622,"SoundDuration":262622,"Delta":193581413},{"NoteNumber":40,"Velocity":46,"Duration":262622,"SoundDuration":262622,"Delta":193581413},{"NoteNumber":52,"Velocity":55,"Duration":262622,"SoundDuration":262622,"Delta":193581413},{"NoteNumber":45,"Velocity":46,"Duration":262622,"SoundDuration":262622,"Delta":193581413},{"NoteNumber":68,"Velocity":60,"Duration":88709,"SoundDuration":88709,"Delta":193852100},{"NoteNumber":80,"Velocity":71,"Duration":88709,"SoundDuration":88709,"Delta":193852100},{"NoteNumber":76,"Velocity":60,"Duration":88709,"SoundDuration":88709,"Delta":193852100},{"NoteNumber":40,"Velocity":41,"Duration":96774,"SoundDuration":96774,"Delta":193852100},{"NoteNumber":52,"Velocity":49,"Duration":96774,"SoundDuration":96774,"Delta":193852100},{"NoteNumber":47,"Velocity":41,"Duration":96774,"SoundDuration":96774,"Delta":193852100},{"NoteNumber":76,"Velocity":66,"Duration":84033,"SoundDuration":84033,"Delta":193948874},{"NoteNumber":80,"Velocity":79,"Duration":84033,"SoundDuration":84033,"Delta":193948874},{"NoteNumber":68,"Velocity":66,"Duration":84033,"SoundDuration":84033,"Delta":193948874},{"NoteNumber":40,"Velocity":60,"Duration":84033,"SoundDuration":84033,"Delta":193948874},{"NoteNumber":47,"Velocity":49,"Duration":75949,"SoundDuration":75949,"Delta":194116941},{"NoteNumber":76,"Velocity":77,"Duration":186981,"SoundDuration":186981,"Delta":194230865},{"NoteNumber":80,"Velocity":77,"Duration":167993,"SoundDuration":167993,"Delta":194249852},{"NoteNumber":88,"Velocity":92,"Duration":149006,"SoundDuration":149006,"Delta":194268840},{"NoteNumber":52,"Velocity":49,"Duration":99337,"SoundDuration":99337,"Delta":194268840},{"NoteNumber":52,"Velocity":77,"Duration":75949,"SoundDuration":75949,"Delta":194467515},{"NoteNumber":64,"Velocity":90,"Duration":75949,"SoundDuration":75949,"Delta":194467515},{"NoteNumber":28,"Velocity":56,"Duration":75949,"SoundDuration":75949,"Delta":194467515},{"NoteNumber":35,"Velocity":44,"Duration":75949,"SoundDuration":75949,"Delta":194619414},{"NoteNumber":40,"Velocity":44,"Duration":75949,"SoundDuration":75949,"Delta":194771312},{"NoteNumber":28,"Velocity":56,"Duration":75949,"SoundDuration":75949,"Delta":194923211},{"NoteNumber":35,"Velocity":46,"Duration":75949,"SoundDuration":75949,"Delta":195075109},{"NoteNumber":76,"Velocity":77,"Duration":186489,"SoundDuration":186489,"Delta":195189033},{"NoteNumber":80,"Velocity":77,"Duration":167502,"SoundDuration":167502,"Delta":195208020},{"NoteNumber":88,"Velocity":92,"Duration":148515,"SoundDuration":148515,"Delta":195227008},{"NoteNumber":40,"Velocity":46,"Duration":99009,"SoundDuration":99009,"Delta":195227008},{"NoteNumber":52,"Velocity":77,"Duration":75949,"SoundDuration":75949,"Delta":195425028},{"NoteNumber":64,"Velocity":90,"Duration":75949,"SoundDuration":75949,"Delta":195425028},{"NoteNumber":28,"Velocity":56,"Duration":75949,"SoundDuration":75949,"Delta":195425028},{"NoteNumber":35,"Velocity":44,"Duration":75949,"SoundDuration":75949,"Delta":195576926},{"NoteNumber":40,"Velocity":44,"Duration":75949,"SoundDuration":75949,"Delta":195728825},{"NoteNumber":28,"Velocity":56,"Duration":75949,"SoundDuration":75949,"Delta":195880723},{"NoteNumber":35,"Velocity":46,"Duration":75949,"SoundDuration":75949,"Delta":196032622},{"NoteNumber":40,"Velocity":46,"Duration":75949,"SoundDuration":75949,"Delta":196184520},{"NoteNumber":28,"Velocity":56,"Duration":140186,"SoundDuration":140186,"Delta":196336419},{"NoteNumber":64,"Velocity":64,"Duration":186915,"SoundDuration":186915,"Delta":196897167},{"NoteNumber":64,"Velocity":70,"Duration":567091,"SoundDuration":567091,"Delta":197084083},{"NoteNumber":60,"Velocity":59,"Duration":567091,"SoundDuration":567091,"Delta":197084083},{"NoteNumber":45,"Velocity":42,"Duration":567091,"SoundDuration":567091,"Delta":197084083},{"NoteNumber":52,"Velocity":50,"Duration":567091,"SoundDuration":567091,"Delta":197084083},{"NoteNumber":64,"Velocity":55,"Duration":368098,"SoundDuration":368098,"Delta":197651174},{"NoteNumber":69,"Velocity":65,"Duration":368098,"SoundDuration":368098,"Delta":197651174},{"NoteNumber":48,"Velocity":39,"Duration":368098,"SoundDuration":368098,"Delta":197651174},{"NoteNumber":57,"Velocity":46,"Duration":368098,"SoundDuration":368098,"Delta":197651174},{"NoteNumber":64,"Velocity":58,"Duration":199999,"SoundDuration":199999,"Delta":198019272},{"NoteNumber":71,"Velocity":69,"Duration":199999,"SoundDuration":199999,"Delta":198019272},{"NoteNumber":52,"Velocity":41,"Duration":199999,"SoundDuration":199999,"Delta":198019272},{"NoteNumber":59,"Velocity":49,"Duration":199999,"SoundDuration":199999,"Delta":198019272},{"NoteNumber":72,"Velocity":63,"Duration":553846,"SoundDuration":553846,"Delta":198219272},{"NoteNumber":76,"Velocity":75,"Duration":553846,"SoundDuration":553846,"Delta":198219272},{"NoteNumber":60,"Velocity":45,"Duration":553846,"SoundDuration":553846,"Delta":198219272},{"NoteNumber":64,"Velocity":53,"Duration":553846,"SoundDuration":553846,"Delta":198219272},{"NoteNumber":69,"Velocity":58,"Duration":375933,"SoundDuration":375933,"Delta":198773119},{"NoteNumber":72,"Velocity":69,"Duration":375933,"SoundDuration":375933,"Delta":198773119},{"NoteNumber":57,"Velocity":41,"Duration":375933,"SoundDuration":375933,"Delta":198773119},{"NoteNumber":60,"Velocity":49,"Duration":375933,"SoundDuration":375933,"Delta":198773119},{"NoteNumber":64,"Velocity":64,"Duration":186335,"SoundDuration":186335,"Delta":199149052},{"NoteNumber":52,"Velocity":49,"Duration":178571,"SoundDuration":178571,"Delta":199149052},{"NoteNumber":64,"Velocity":70,"Duration":551587,"SoundDuration":551587,"Delta":199335387},{"NoteNumber":60,"Velocity":59,"Duration":551587,"SoundDuration":551587,"Delta":199335387},{"NoteNumber":45,"Velocity":42,"Duration":551587,"SoundDuration":551587,"Delta":199335387},{"NoteNumber":52,"Velocity":50,"Duration":551587,"SoundDuration":551587,"Delta":199335387},{"NoteNumber":64,"Velocity":55,"Duration":369231,"SoundDuration":369231,"Delta":199886975},{"NoteNumber":69,"Velocity":65,"Duration":369231,"SoundDuration":369231,"Delta":199886975},{"NoteNumber":48,"Velocity":39,"Duration":369231,"SoundDuration":369231,"Delta":199886975},{"NoteNumber":57,"Velocity":46,"Duration":369231,"SoundDuration":369231,"Delta":199886975},{"NoteNumber":64,"Velocity":58,"Duration":214285,"SoundDuration":214285,"Delta":200256206},{"NoteNumber":71,"Velocity":69,"Duration":214285,"SoundDuration":214285,"Delta":200256206},{"NoteNumber":52,"Velocity":41,"Duration":214285,"SoundDuration":214285,"Delta":200256206},{"NoteNumber":59,"Velocity":49,"Duration":214285,"SoundDuration":214285,"Delta":200256206},{"NoteNumber":72,"Velocity":63,"Duration":918208,"SoundDuration":918208,"Delta":200470491},{"NoteNumber":76,"Velocity":75,"Duration":918208,"SoundDuration":918208,"Delta":200470491},{"NoteNumber":60,"Velocity":45,"Duration":918208,"SoundDuration":918208,"Delta":200470491},{"NoteNumber":64,"Velocity":53,"Duration":918208,"SoundDuration":918208,"Delta":200470491},{"NoteNumber":72,"Velocity":58,"Duration":202020,"SoundDuration":202020,"Delta":201396416},{"NoteNumber":76,"Velocity":69,"Duration":202020,"SoundDuration":202020,"Delta":201396416},{"NoteNumber":57,"Velocity":41,"Duration":202020,"SoundDuration":202020,"Delta":201396416},{"NoteNumber":60,"Velocity":49,"Duration":202020,"SoundDuration":202020,"Delta":201396416},{"NoteNumber":67,"Velocity":63,"Duration":725241,"SoundDuration":725241,"Delta":201598436},{"NoteNumber":79,"Velocity":75,"Duration":725241,"SoundDuration":725241,"Delta":201598436},{"NoteNumber":76,"Velocity":63,"Duration":725241,"SoundDuration":725241,"Delta":201598436},{"NoteNumber":43,"Velocity":45,"Duration":541191,"SoundDuration":541191,"Delta":201598436},{"NoteNumber":55,"Velocity":53,"Duration":541191,"SoundDuration":541191,"Delta":201598436},{"NoteNumber":55,"Velocity":53,"Duration":1108994,"SoundDuration":1108994,"Delta":202139628},{"NoteNumber":74,"Velocity":59,"Duration":133531,"SoundDuration":133531,"Delta":202323677},{"NoteNumber":77,"Velocity":71,"Duration":133531,"SoundDuration":133531,"Delta":202323677},{"NoteNumber":65,"Velocity":50,"Duration":133531,"SoundDuration":133531,"Delta":202323677},{"NoteNumber":62,"Velocity":42,"Duration":133531,"SoundDuration":133531,"Delta":202323677},{"NoteNumber":72,"Velocity":54,"Duration":148026,"SoundDuration":148026,"Delta":202501719},{"NoteNumber":76,"Velocity":64,"Duration":148026,"SoundDuration":148026,"Delta":202501719},{"NoteNumber":64,"Velocity":45,"Duration":148026,"SoundDuration":148026,"Delta":202501719},{"NoteNumber":60,"Velocity":38,"Duration":148026,"SoundDuration":148026,"Delta":202501719},{"NoteNumber":71,"Velocity":63,"Duration":557275,"SoundDuration":557275,"Delta":202699087},{"NoteNumber":74,"Velocity":75,"Duration":557275,"SoundDuration":557275,"Delta":202699087},{"NoteNumber":62,"Velocity":53,"Duration":557275,"SoundDuration":557275,"Delta":202699087},{"NoteNumber":59,"Velocity":45,"Duration":557275,"SoundDuration":557275,"Delta":202699087},{"NoteNumber":67,"Velocity":68,"Duration":363777,"SoundDuration":363777,"Delta":203256363},{"NoteNumber":55,"Velocity":57,"Duration":363777,"SoundDuration":363777,"Delta":203256363},{"NoteNumber":67,"Velocity":69,"Duration":209789,"SoundDuration":209789,"Delta":203627880},{"NoteNumber":55,"Velocity":49,"Duration":209789,"SoundDuration":209789,"Delta":203627880},{"NoteNumber":64,"Velocity":63,"Duration":753623,"SoundDuration":753623,"Delta":203837670},{"NoteNumber":76,"Velocity":75,"Duration":753623,"SoundDuration":753623,"Delta":203837670},{"NoteNumber":72,"Velocity":63,"Duration":753623,"SoundDuration":753623,"Delta":203837670},{"NoteNumber":48,"Velocity":45,"Duration":563146,"SoundDuration":563146,"Delta":203837670},{"NoteNumber":60,"Velocity":53,"Duration":563146,"SoundDuration":563146,"Delta":203837670},{"NoteNumber":50,"Velocity":45,"Duration":576330,"SoundDuration":576330,"Delta":204400817},{"NoteNumber":62,"Velocity":53,"Duration":576330,"SoundDuration":576330,"Delta":204400817},{"NoteNumber":71,"Velocity":59,"Duration":138888,"SoundDuration":138888,"Delta":204591293},{"NoteNumber":74,"Velocity":71,"Duration":138888,"SoundDuration":138888,"Delta":204591293},{"NoteNumber":69,"Velocity":54,"Duration":150501,"SoundDuration":150501,"Delta":204776478},{"NoteNumber":72,"Velocity":64,"Duration":150501,"SoundDuration":150501,"Delta":204776478},{"NoteNumber":68,"Velocity":63,"Duration":918208,"SoundDuration":918208,"Delta":204977147},{"NoteNumber":71,"Velocity":75,"Duration":918208,"SoundDuration":918208,"Delta":204977147},{"NoteNumber":52,"Velocity":45,"Duration":918208,"SoundDuration":918208,"Delta":204977147},{"NoteNumber":64,"Velocity":53,"Duration":918208,"SoundDuration":918208,"Delta":204977147},{"NoteNumber":64,"Velocity":64,"Duration":197368,"SoundDuration":197368,"Delta":205903072},{"NoteNumber":52,"Velocity":54,"Duration":197368,"SoundDuration":197368,"Delta":205903072},{"NoteNumber":61,"Velocity":59,"Duration":568390,"SoundDuration":568390,"Delta":206100440},{"NoteNumber":64,"Velocity":70,"Duration":568390,"SoundDuration":568390,"Delta":206100440},{"NoteNumber":45,"Velocity":42,"Duration":568390,"SoundDuration":568390,"Delta":206100440},{"NoteNumber":52,"Velocity":50,"Duration":568390,"SoundDuration":568390,"Delta":206100440},{"NoteNumber":69,"Velocity":65,"Duration":365854,"SoundDuration":365854,"Delta":206668830},{"NoteNumber":64,"Velocity":55,"Duration":365854,"SoundDuration":365854,"Delta":206668830},{"NoteNumber":48,"Velocity":39,"Duration":365854,"SoundDuration":365854,"Delta":206668830},{"NoteNumber":57,"Velocity":46,"Duration":365854,"SoundDuration":365854,"Delta":206668830},{"NoteNumber":64,"Velocity":58,"Duration":198020,"SoundDuration":198020,"Delta":207034684},{"NoteNumber":71,"Velocity":69,"Duration":198020,"SoundDuration":198020,"Delta":207034684},{"NoteNumber":52,"Velocity":41,"Duration":198020,"SoundDuration":198020,"Delta":207034684},{"NoteNumber":59,"Velocity":49,"Duration":198020,"SoundDuration":198020,"Delta":207034684},{"NoteNumber":73,"Velocity":63,"Duration":557275,"SoundDuration":557275,"Delta":207232704},{"NoteNumber":76,"Velocity":75,"Duration":557275,"SoundDuration":557275,"Delta":207232704},{"NoteNumber":61,"Velocity":45,"Duration":557275,"SoundDuration":557275,"Delta":207232704},{"NoteNumber":64,"Velocity":53,"Duration":557275,"SoundDuration":557275,"Delta":207232704},{"NoteNumber":69,"Velocity":58,"Duration":369697,"SoundDuration":369697,"Delta":207789980},{"NoteNumber":73,"Velocity":69,"Duration":369697,"SoundDuration":369697,"Delta":207789980},{"NoteNumber":61,"Velocity":49,"Duration":369697,"SoundDuration":369697,"Delta":207789980},{"NoteNumber":57,"Velocity":41,"Duration":369697,"SoundDuration":369697,"Delta":207789980},{"NoteNumber":73,"Velocity":58,"Duration":196078,"SoundDuration":196078,"Delta":208167955},{"NoteNumber":76,"Velocity":69,"Duration":196078,"SoundDuration":196078,"Delta":208167955},{"NoteNumber":57,"Velocity":49,"Duration":196078,"SoundDuration":196078,"Delta":208167955},{"NoteNumber":45,"Velocity":41,"Duration":196078,"SoundDuration":196078,"Delta":208167955},{"NoteNumber":68,"Velocity":63,"Duration":1631885,"SoundDuration":1631885,"Delta":208364034},{"NoteNumber":80,"Velocity":75,"Duration":712221,"SoundDuration":712221,"Delta":208364034},{"NoteNumber":76,"Velocity":63,"Duration":712221,"SoundDuration":712221,"Delta":208364034},{"NoteNumber":44,"Velocity":45,"Duration":532581,"SoundDuration":532581,"Delta":208364034},{"NoteNumber":56,"Velocity":53,"Duration":525096,"SoundDuration":525096,"Delta":208364034},{"NoteNumber":56,"Velocity":53,"Duration":1099304,"SoundDuration":1099304,"Delta":208896615},{"NoteNumber":75,"Velocity":59,"Duration":131964,"SoundDuration":131964,"Delta":209076256},{"NoteNumber":78,"Velocity":71,"Duration":131964,"SoundDuration":131964,"Delta":209076256},{"NoteNumber":63,"Velocity":42,"Duration":131964,"SoundDuration":131964,"Delta":209076256},{"NoteNumber":66,"Velocity":50,"Duration":131964,"SoundDuration":131964,"Delta":209076256},{"NoteNumber":73,"Velocity":54,"Duration":145631,"SoundDuration":145631,"Delta":209252209},{"NoteNumber":76,"Velocity":64,"Duration":145631,"SoundDuration":145631,"Delta":209252209},{"NoteNumber":61,"Velocity":38,"Duration":145631,"SoundDuration":145631,"Delta":209252209},{"NoteNumber":64,"Velocity":45,"Duration":145631,"SoundDuration":145631,"Delta":209252209},{"NoteNumber":72,"Velocity":63,"Duration":921052,"SoundDuration":921052,"Delta":209446384},{"NoteNumber":75,"Velocity":75,"Duration":921052,"SoundDuration":921052,"Delta":209446384},{"NoteNumber":60,"Velocity":45,"Duration":557275,"SoundDuration":557275,"Delta":209446384},{"NoteNumber":63,"Velocity":53,"Duration":557275,"SoundDuration":557275,"Delta":209446384},{"NoteNumber":68,"Velocity":68,"Duration":363777,"SoundDuration":363777,"Delta":210003659},{"NoteNumber":56,"Velocity":57,"Duration":363777,"SoundDuration":363777,"Delta":210003659},{"NoteNumber":75,"Velocity":64,"Duration":184887,"SoundDuration":184887,"Delta":210375176},{"NoteNumber":63,"Velocity":56,"Duration":184887,"SoundDuration":184887,"Delta":210375176},{"NoteNumber":68,"Velocity":59,"Duration":553657,"SoundDuration":553657,"Delta":210568102},{"NoteNumber":75,"Velocity":70,"Duration":553657,"SoundDuration":553657,"Delta":210568102},{"NoteNumber":71,"Velocity":59,"Duration":553657,"SoundDuration":553657,"Delta":210568102},{"NoteNumber":56,"Velocity":42,"Duration":553657,"SoundDuration":553657,"Delta":210568102},{"NoteNumber":59,"Velocity":42,"Duration":553657,"SoundDuration":553657,"Delta":210568102},{"NoteNumber":63,"Velocity":50,"Duration":553657,"SoundDuration":553657,"Delta":210568102},{"NoteNumber":68,"Velocity":55,"Duration":567641,"SoundDuration":567641,"Delta":211134055},{"NoteNumber":71,"Velocity":55,"Duration":567641,"SoundDuration":567641,"Delta":211134055},{"NoteNumber":76,"Velocity":65,"Duration":359326,"SoundDuration":359326,"Delta":211134055},{"NoteNumber":56,"Velocity":39,"Duration":567641,"SoundDuration":567641,"Delta":211134055},{"NoteNumber":64,"Velocity":46,"Duration":359326,"SoundDuration":359326,"Delta":211134055},{"NoteNumber":59,"Velocity":39,"Duration":567641,"SoundDuration":567641,"Delta":211134055},{"NoteNumber":76,"Velocity":69,"Duration":192307,"SoundDuration":192307,"Delta":211501027},{"NoteNumber":64,"Velocity":49,"Duration":192307,"SoundDuration":192307,"Delta":211501027},{"NoteNumber":76,"Velocity":75,"Duration":564992,"SoundDuration":564992,"Delta":211701696},{"NoteNumber":72,"Velocity":63,"Duration":564992,"SoundDuration":564992,"Delta":211701696},{"NoteNumber":69,"Velocity":63,"Duration":564992,"SoundDuration":564992,"Delta":211701696},{"NoteNumber":60,"Velocity":45,"Duration":507236,"SoundDuration":507236,"Delta":211701696},{"NoteNumber":64,"Velocity":53,"Duration":507236,"SoundDuration":507236,"Delta":211701696},{"NoteNumber":57,"Velocity":45,"Duration":507236,"SoundDuration":507236,"Delta":211701696},{"NoteNumber":50,"Velocity":46,"Duration":623082,"SoundDuration":623082,"Delta":212217183},{"NoteNumber":57,"Velocity":47,"Duration":606580,"SoundDuration":606580,"Delta":212233685},{"NoteNumber":60,"Velocity":49,"Duration":590079,"SoundDuration":590079,"Delta":212250186},{"NoteNumber":69,"Velocity":67,"Duration":573577,"SoundDuration":573577,"Delta":212266688},{"NoteNumber":72,"Velocity":67,"Duration":573577,"SoundDuration":573577,"Delta":212266688},{"NoteNumber":79,"Velocity":79,"Duration":360429,"SoundDuration":360429,"Delta":212266688},{"NoteNumber":67,"Velocity":50,"Duration":360429,"SoundDuration":360429,"Delta":212266688},{"NoteNumber":77,"Velocity":75,"Duration":205479,"SoundDuration":205479,"Delta":212634786},{"NoteNumber":65,"Velocity":49,"Duration":205479,"SoundDuration":205479,"Delta":212634786},{"NoteNumber":67,"Velocity":59,"Duration":604884,"SoundDuration":604884,"Delta":212840265},{"NoteNumber":72,"Velocity":59,"Duration":604884,"SoundDuration":604884,"Delta":212840265},{"NoteNumber":76,"Velocity":70,"Duration":604884,"SoundDuration":604884,"Delta":212840265},{"NoteNumber":60,"Velocity":42,"Duration":604884,"SoundDuration":604884,"Delta":212840265},{"NoteNumber":64,"Velocity":50,"Duration":604884,"SoundDuration":604884,"Delta":212840265},{"NoteNumber":55,"Velocity":42,"Duration":604884,"SoundDuration":604884,"Delta":212840265},{"NoteNumber":74,"Velocity":55,"Duration":364907,"SoundDuration":364907,"Delta":213445150},{"NoteNumber":69,"Velocity":46,"Duration":576061,"SoundDuration":576061,"Delta":213445150},{"NoteNumber":53,"Velocity":33,"Duration":576061,"SoundDuration":576061,"Delta":213445150},{"NoteNumber":62,"Velocity":39,"Duration":364907,"SoundDuration":364907,"Delta":213445150},{"NoteNumber":57,"Velocity":33,"Duration":576061,"SoundDuration":576061,"Delta":213445150},{"NoteNumber":74,"Velocity":55,"Duration":203390,"SoundDuration":203390,"Delta":213817821},{"NoteNumber":62,"Velocity":39,"Duration":203390,"SoundDuration":203390,"Delta":213817821},{"NoteNumber":68,"Velocity":49,"Duration":943395,"SoundDuration":943395,"Delta":214021211},{"NoteNumber":76,"Velocity":59,"Duration":943395,"SoundDuration":943395,"Delta":214021211},{"NoteNumber":59,"Velocity":35,"Duration":943395,"SoundDuration":943395,"Delta":214021211},{"NoteNumber":64,"Velocity":41,"Duration":943395,"SoundDuration":943395,"Delta":214021211},{"NoteNumber":52,"Velocity":35,"Duration":943395,"SoundDuration":943395,"Delta":214021211},{"NoteNumber":76,"Velocity":46,"Duration":203390,"SoundDuration":203390,"Delta":214964606},{"NoteNumber":76,"Velocity":57,"Duration":585730,"SoundDuration":585730,"Delta":215167996},{"NoteNumber":67,"Velocity":48,"Duration":585730,"SoundDuration":585730,"Delta":215167996},{"NoteNumber":72,"Velocity":48,"Duration":585730,"SoundDuration":585730,"Delta":215167996},{"NoteNumber":36,"Velocity":35,"Duration":585730,"SoundDuration":585730,"Delta":215167996},{"NoteNumber":69,"Velocity":50,"Duration":595574,"SoundDuration":595574,"Delta":215753726},{"NoteNumber":72,"Velocity":50,"Duration":595574,"SoundDuration":595574,"Delta":215753726},{"NoteNumber":79,"Velocity":59,"Duration":371835,"SoundDuration":371835,"Delta":215753726},{"NoteNumber":41,"Velocity":28,"Duration":595574,"SoundDuration":595574,"Delta":215753726},{"NoteNumber":77,"Velocity":56,"Duration":215827,"SoundDuration":215827,"Delta":216133473},{"NoteNumber":72,"Velocity":42,"Duration":635660,"SoundDuration":635660,"Delta":216349301},{"NoteNumber":69,"Velocity":42,"Duration":635660,"SoundDuration":635660,"Delta":216349301},{"NoteNumber":76,"Velocity":50,"Duration":635660,"SoundDuration":635660,"Delta":216349301},{"NoteNumber":45,"Velocity":36,"Duration":635660,"SoundDuration":635660,"Delta":216349301},{"NoteNumber":65,"Velocity":41,"Duration":758886,"SoundDuration":758886,"Delta":216984962},{"NoteNumber":74,"Velocity":49,"Duration":453667,"SoundDuration":453667,"Delta":216984962},{"NoteNumber":71,"Velocity":41,"Duration":758886,"SoundDuration":758886,"Delta":216984962},{"NoteNumber":47,"Velocity":30,"Duration":758886,"SoundDuration":758886,"Delta":216984962},{"NoteNumber":74,"Velocity":44,"Duration":295566,"SoundDuration":295566,"Delta":217448282},{"NoteNumber":64,"Velocity":34,"Duration":368098,"SoundDuration":368098,"Delta":217743848},{"NoteNumber":68,"Velocity":34,"Duration":368098,"SoundDuration":368098,"Delta":217743848},{"NoteNumber":76,"Velocity":41,"Duration":2803619,"SoundDuration":2803619,"Delta":217743848},{"NoteNumber":40,"Velocity":36,"Duration":184048,"SoundDuration":184048,"Delta":217743848},{"NoteNumber":53,"Velocity":27,"Duration":184049,"SoundDuration":184049,"Delta":217927897},{"NoteNumber":52,"Velocity":27,"Duration":176380,"SoundDuration":176380,"Delta":218111946},{"NoteNumber":52,"Velocity":37,"Duration":138036,"SoundDuration":138036,"Delta":218295995},{"NoteNumber":52,"Velocity":27,"Duration":147541,"SoundDuration":147541,"Delta":218480044},{"NoteNumber":60,"Velocity":38,"Duration":184615,"SoundDuration":184615,"Delta":218676766},{"NoteNumber":69,"Velocity":38,"Duration":184615,"SoundDuration":184615,"Delta":218676766},{"NoteNumber":52,"Velocity":27,"Duration":138461,"SoundDuration":138461,"Delta":218676766},{"NoteNumber":62,"Velocity":35,"Duration":369230,"SoundDuration":369230,"Delta":218861381},{"NoteNumber":71,"Velocity":42,"Duration":369230,"SoundDuration":369230,"Delta":218861381},{"NoteNumber":52,"Velocity":37,"Duration":138461,"SoundDuration":138461,"Delta":218861381},{"NoteNumber":52,"Velocity":28,"Duration":138461,"SoundDuration":138461,"Delta":219045997},{"NoteNumber":64,"Velocity":31,"Duration":198675,"SoundDuration":198675,"Delta":219230612},{"NoteNumber":72,"Velocity":37,"Duration":198675,"SoundDuration":198675,"Delta":219230612},{"NoteNumber":52,"Velocity":28,"Duration":149006,"SoundDuration":149006,"Delta":219230612},{"NoteNumber":69,"Velocity":38,"Duration":552146,"SoundDuration":552146,"Delta":219429288},{"NoteNumber":64,"Velocity":38,"Duration":933564,"SoundDuration":933564,"Delta":219429288},{"NoteNumber":72,"Velocity":50,"Duration":552146,"SoundDuration":552146,"Delta":219429288},{"NoteNumber":40,"Velocity":36,"Duration":184048,"SoundDuration":184048,"Delta":219429288},{"NoteNumber":53,"Velocity":27,"Duration":184049,"SoundDuration":184049,"Delta":219613337},{"NoteNumber":52,"Velocity":27,"Duration":176380,"SoundDuration":176380,"Delta":219797386},{"NoteNumber":68,"Velocity":33,"Duration":381417,"SoundDuration":381417,"Delta":219981435},{"NoteNumber":71,"Velocity":39,"Duration":381417,"SoundDuration":381417,"Delta":219981435},{"NoteNumber":52,"Velocity":37,"Duration":138036,"SoundDuration":138036,"Delta":219981435},{"NoteNumber":52,"Velocity":27,"Duration":148026,"SoundDuration":148026,"Delta":220165484},{"NoteNumber":72,"Velocity":37,"Duration":184615,"SoundDuration":184615,"Delta":220362852},{"NoteNumber":69,"Velocity":28,"Duration":176923,"SoundDuration":176923,"Delta":220362852},{"NoteNumber":64,"Velocity":28,"Duration":184615,"SoundDuration":184615,"Delta":220362852},{"NoteNumber":52,"Velocity":27,"Duration":138461,"SoundDuration":138461,"Delta":220362852},{"NoteNumber":65,"Velocity":31,"Duration":369230,"SoundDuration":369230,"Delta":220547468},{"NoteNumber":69,"Velocity":31,"Duration":369230,"SoundDuration":369230,"Delta":220547468},{"NoteNumber":74,"Velocity":40,"Duration":369230,"SoundDuration":369230,"Delta":220547468},{"NoteNumber":52,"Velocity":37,"Duration":138461,"SoundDuration":138461,"Delta":220547468},{"NoteNumber":52,"Velocity":28,"Duration":138461,"SoundDuration":138461,"Delta":220732083},{"NoteNumber":69,"Velocity":37,"Duration":205356,"SoundDuration":205356,"Delta":220916699},{"NoteNumber":67,"Velocity":37,"Duration":205356,"SoundDuration":205356,"Delta":220916699},{"NoteNumber":76,"Velocity":48,"Duration":205356,"SoundDuration":205356,"Delta":220916699},{"NoteNumber":52,"Velocity":28,"Duration":160714,"SoundDuration":160714,"Delta":220916699},{"NoteNumber":69,"Velocity":43,"Duration":918208,"SoundDuration":918208,"Delta":221130984},{"NoteNumber":79,"Velocity":56,"Duration":555554,"SoundDuration":555554,"Delta":221130984},{"NoteNumber":71,"Velocity":43,"Duration":918208,"SoundDuration":918208,"Delta":221130984},{"NoteNumber":38,"Velocity":36,"Duration":185184,"SoundDuration":185184,"Delta":221130984},{"NoteNumber":52,"Velocity":27,"Duration":185185,"SoundDuration":185185,"Delta":221316169},{"NoteNumber":50,"Velocity":27,"Duration":177468,"SoundDuration":177468,"Delta":221501354},{"NoteNumber":77,"Velocity":49,"Duration":370370,"SoundDuration":370370,"Delta":221686539},{"NoteNumber":50,"Velocity":37,"Duration":138888,"SoundDuration":138888,"Delta":221686539},{"NoteNumber":50,"Velocity":27,"Duration":138888,"SoundDuration":138888,"Delta":221871724},{"NoteNumber":71,"Velocity":42,"Duration":758735,"SoundDuration":758735,"Delta":222056909},{"NoteNumber":50,"Velocity":27,"Duration":138888,"SoundDuration":138888,"Delta":222056909},{"NoteNumber":69,"Velocity":33,"Duration":759070,"SoundDuration":759070,"Delta":222059224},{"NoteNumber":74,"Velocity":45,"Duration":370370,"SoundDuration":370370,"Delta":222242094},{"NoteNumber":50,"Velocity":37,"Duration":138888,"SoundDuration":138888,"Delta":222242094},{"NoteNumber":50,"Velocity":28,"Duration":138888,"SoundDuration":138888,"Delta":222427279},{"NoteNumber":77,"Velocity":47,"Duration":212014,"SoundDuration":212014,"Delta":222612464},{"NoteNumber":50,"Velocity":28,"Duration":159010,"SoundDuration":159010,"Delta":222612464},{"NoteNumber":71,"Velocity":42,"Duration":557275,"SoundDuration":557275,"Delta":222824478},{"NoteNumber":69,"Velocity":42,"Duration":557275,"SoundDuration":557275,"Delta":222824478},{"NoteNumber":77,"Velocity":55,"Duration":557275,"SoundDuration":557275,"Delta":222824478},{"NoteNumber":40,"Velocity":36,"Duration":185758,"SoundDuration":185758,"Delta":222824478},{"NoteNumber":53,"Velocity":27,"Duration":185758,"SoundDuration":185758,"Delta":223010237},{"NoteNumber":52,"Velocity":27,"Duration":178018,"SoundDuration":178018,"Delta":223195995},{"NoteNumber":68,"Velocity":49,"Duration":566114,"SoundDuration":566114,"Delta":223381754},{"NoteNumber":52,"Velocity":37,"Duration":139318,"SoundDuration":139318,"Delta":223381754},{"NoteNumber":52,"Velocity":27,"Duration":150501,"SoundDuration":150501,"Delta":223567512},{"NoteNumber":71,"Velocity":38,"Duration":187500,"SoundDuration":187500,"Delta":223768181},{"NoteNumber":52,"Velocity":27,"Duration":140625,"SoundDuration":140625,"Delta":223768181},{"NoteNumber":68,"Velocity":38,"Duration":632077,"SoundDuration":632077,"Delta":223955681},{"NoteNumber":76,"Velocity":51,"Duration":386175,"SoundDuration":386175,"Delta":223955681},{"NoteNumber":64,"Velocity":38,"Duration":632077,"SoundDuration":632077,"Delta":223955681},{"NoteNumber":52,"Velocity":37,"Duration":140625,"SoundDuration":140625,"Delta":223955681},{"NoteNumber":52,"Velocity":28,"Duration":149006,"SoundDuration":149006,"Delta":224143181},{"NoteNumber":71,"Velocity":41,"Duration":245901,"SoundDuration":245901,"Delta":224341857},{"NoteNumber":52,"Velocity":28,"Duration":184426,"SoundDuration":184426,"Delta":224341857},{"NoteNumber":64,"Velocity":34,"Duration":564264,"SoundDuration":564264,"Delta":224587758},{"NoteNumber":73,"Velocity":41,"Duration":564264,"SoundDuration":564264,"Delta":224587758},{"NoteNumber":69,"Velocity":34,"Duration":564264,"SoundDuration":564264,"Delta":224587758},{"NoteNumber":45,"Velocity":36,"Duration":188087,"SoundDuration":188087,"Delta":224587758},{"NoteNumber":53,"Velocity":27,"Duration":188087,"SoundDuration":188087,"Delta":224775846},{"NoteNumber":52,"Velocity":27,"Duration":180251,"SoundDuration":180251,"Delta":224963934},{"NoteNumber":52,"Velocity":37,"Duration":141065,"SoundDuration":141065,"Delta":225152022},{"NoteNumber":52,"Velocity":27,"Duration":153061,"SoundDuration":153061,"Delta":225340110},{"NoteNumber":61,"Velocity":38,"Duration":188087,"SoundDuration":188087,"Delta":225544192},{"NoteNumber":69,"Velocity":38,"Duration":188087,"SoundDuration":188087,"Delta":225544192},{"NoteNumber":52,"Velocity":27,"Duration":141065,"SoundDuration":141065,"Delta":225544192},{"NoteNumber":62,"Velocity":35,"Duration":376176,"SoundDuration":376176,"Delta":225732280},{"NoteNumber":71,"Velocity":42,"Duration":376176,"SoundDuration":376176,"Delta":225732280},{"NoteNumber":52,"Velocity":37,"Duration":141065,"SoundDuration":141065,"Delta":225732280},{"NoteNumber":52,"Velocity":28,"Duration":141066,"SoundDuration":141066,"Delta":225920368},{"NoteNumber":69,"Velocity":31,"Duration":215827,"SoundDuration":215827,"Delta":226108456},{"NoteNumber":64,"Velocity":31,"Duration":215827,"SoundDuration":215827,"Delta":226108456},{"NoteNumber":73,"Velocity":37,"Duration":215827,"SoundDuration":215827,"Delta":226108456},{"NoteNumber":52,"Velocity":28,"Duration":161870,"SoundDuration":161870,"Delta":226108456},{"NoteNumber":38,"Velocity":36,"Duration":214478,"SoundDuration":214478,"Delta":226297305},{"NoteNumber":65,"Velocity":43,"Duration":1189533,"SoundDuration":1189533,"Delta":226324283},{"NoteNumber":69,"Velocity":43,"Duration":1189533,"SoundDuration":1189533,"Delta":226324283},{"NoteNumber":76,"Velocity":51,"Duration":562500,"SoundDuration":562500,"Delta":226324283},{"NoteNumber":50,"Velocity":43,"Duration":187500,"SoundDuration":187500,"Delta":226324283},{"NoteNumber":53,"Velocity":27,"Duration":187500,"SoundDuration":187500,"Delta":226511783},{"NoteNumber":57,"Velocity":27,"Duration":179687,"SoundDuration":179687,"Delta":226699283},{"NoteNumber":74,"Velocity":47,"Duration":416507,"SoundDuration":416507,"Delta":226886783},{"NoteNumber":62,"Velocity":37,"Duration":187500,"SoundDuration":187500,"Delta":226886783},{"NoteNumber":57,"Velocity":27,"Duration":229007,"SoundDuration":229007,"Delta":227074283},{"NoteNumber":77,"Velocity":46,"Duration":210526,"SoundDuration":210526,"Delta":227303291},{"NoteNumber":53,"Velocity":27,"Duration":210526,"SoundDuration":210526,"Delta":227303291},{"NoteNumber":76,"Velocity":52,"Duration":421053,"SoundDuration":421053,"Delta":227513817},{"NoteNumber":65,"Velocity":44,"Duration":690111,"SoundDuration":690111,"Delta":227513817},{"NoteNumber":70,"Velocity":44,"Duration":690111,"SoundDuration":690111,"Delta":227513817},{"NoteNumber":62,"Velocity":37,"Duration":210526,"SoundDuration":210526,"Delta":227513817},{"NoteNumber":58,"Velocity":28,"Duration":210526,"SoundDuration":210526,"Delta":227724344},{"NoteNumber":74,"Velocity":47,"Duration":201793,"SoundDuration":201793,"Delta":227934870},{"NoteNumber":53,"Velocity":28,"Duration":201793,"SoundDuration":201793,"Delta":227934870},{"NoteNumber":67,"Velocity":43,"Duration":267264,"SoundDuration":267264,"Delta":228136664},{"NoteNumber":70,"Velocity":43,"Duration":233632,"SoundDuration":233632,"Delta":228170297},{"NoteNumber":72,"Velocity":51,"Duration":2632520,"SoundDuration":2632520,"Delta":228203929},{"NoteNumber":52,"Velocity":43,"Duration":199999,"SoundDuration":199999,"Delta":228203929},{"NoteNumber":55,"Velocity":27,"Duration":200000,"SoundDuration":200000,"Delta":228403929},{"NoteNumber":58,"Velocity":27,"Duration":191666,"SoundDuration":191666,"Delta":228603929},{"NoteNumber":60,"Velocity":37,"Duration":200000,"SoundDuration":200000,"Delta":228803929},{"NoteNumber":58,"Velocity":27,"Duration":247933,"SoundDuration":247933,"Delta":229003929},{"NoteNumber":79,"Velocity":40,"Duration":225563,"SoundDuration":225563,"Delta":229251863},{"NoteNumber":55,"Velocity":27,"Duration":225563,"SoundDuration":225563,"Delta":229251863},{"NoteNumber":77,"Velocity":49,"Duration":451128,"SoundDuration":451128,"Delta":229477427},{"NoteNumber":70,"Velocity":49,"Duration":766917,"SoundDuration":766917,"Delta":229477427},{"NoteNumber":67,"Velocity":49,"Duration":766917,"SoundDuration":766917,"Delta":229477427},{"NoteNumber":50,"Velocity":37,"Duration":225564,"SoundDuration":225564,"Delta":229477427},{"NoteNumber":55,"Velocity":28,"Duration":225563,"SoundDuration":225563,"Delta":229702991},{"NoteNumber":76,"Velocity":42,"Duration":302631,"SoundDuration":302631,"Delta":229928555},{"NoteNumber":58,"Velocity":28,"Duration":315789,"SoundDuration":315789,"Delta":229928555},{"NoteNumber":67,"Velocity":46,"Duration":592105,"SoundDuration":592105,"Delta":230244344},{"NoteNumber":70,"Velocity":46,"Duration":592105,"SoundDuration":592105,"Delta":230244344},{"NoteNumber":76,"Velocity":46,"Duration":592105,"SoundDuration":592105,"Delta":230244344},{"NoteNumber":48,"Velocity":34,"Duration":1200365,"SoundDuration":1200365,"Delta":230244344},{"NoteNumber":55,"Velocity":24,"Duration":197368,"SoundDuration":197368,"Delta":230441713},{"NoteNumber":58,"Velocity":24,"Duration":189144,"SoundDuration":189144,"Delta":230639081},{"NoteNumber":60,"Velocity":32,"Duration":197368,"SoundDuration":197368,"Delta":230836450},{"NoteNumber":58,"Velocity":26,"Duration":213523,"SoundDuration":213523,"Delta":231033818},{"NoteNumber":64,"Velocity":29,"Duration":304130,"SoundDuration":304130,"Delta":231140580},{"NoteNumber":67,"Velocity":38,"Duration":304130,"SoundDuration":304130,"Delta":231140580},{"NoteNumber":55,"Velocity":26,"Duration":197368,"SoundDuration":197368,"Delta":231247341},{"NoteNumber":64,"Velocity":33,"Duration":296052,"SoundDuration":296052,"Delta":231444710},{"NoteNumber":67,"Velocity":33,"Duration":296052,"SoundDuration":296052,"Delta":231444710},{"NoteNumber":69,"Velocity":44,"Duration":296052,"SoundDuration":296052,"Delta":231444710},{"NoteNumber":60,"Velocity":35,"Duration":197368,"SoundDuration":197368,"Delta":231444710},{"NoteNumber":55,"Velocity":25,"Duration":197368,"SoundDuration":197368,"Delta":231642078},{"NoteNumber":70,"Velocity":45,"Duration":367742,"SoundDuration":367742,"Delta":231740763},{"NoteNumber":64,"Velocity":35,"Duration":367742,"SoundDuration":367742,"Delta":231740763},{"NoteNumber":67,"Velocity":35,"Duration":367742,"SoundDuration":367742,"Delta":231740763},{"NoteNumber":52,"Velocity":25,"Duration":269058,"SoundDuration":269058,"Delta":231839447},{"NoteNumber":64,"Velocity":39,"Duration":1200980,"SoundDuration":1200980,"Delta":232108505},{"NoteNumber":67,"Velocity":39,"Duration":1200980,"SoundDuration":1200980,"Delta":232108505},{"NoteNumber":71,"Velocity":46,"Duration":1200980,"SoundDuration":1200980,"Delta":232108505},{"NoteNumber":47,"Velocity":34,"Duration":1200980,"SoundDuration":1200980,"Delta":232108505},{"NoteNumber":52,"Velocity":24,"Duration":196078,"SoundDuration":196078,"Delta":232304584},{"NoteNumber":55,"Velocity":24,"Duration":187908,"SoundDuration":187908,"Delta":232500662},{"NoteNumber":59,"Velocity":32,"Duration":196078,"SoundDuration":196078,"Delta":232696741},{"NoteNumber":55,"Velocity":26,"Duration":196078,"SoundDuration":196078,"Delta":232892819},{"NoteNumber":52,"Velocity":26,"Duration":220587,"SoundDuration":220587,"Delta":233088898},{"NoteNumber":71,"Velocity":45,"Duration":632644,"SoundDuration":632644,"Delta":233309486},{"NoteNumber":67,"Velocity":38,"Duration":632644,"SoundDuration":632644,"Delta":233309486},{"NoteNumber":64,"Velocity":38,"Duration":632644,"SoundDuration":632644,"Delta":233309486},{"NoteNumber":59,"Velocity":35,"Duration":198675,"SoundDuration":198675,"Delta":233309486},{"NoteNumber":55,"Velocity":31,"Duration":198675,"SoundDuration":198675,"Delta":233508161},{"NoteNumber":52,"Velocity":33,"Duration":235294,"SoundDuration":235294,"Delta":233706837},{"NoteNumber":63,"Velocity":48,"Duration":1845023,"SoundDuration":1845023,"Delta":233942131},{"NoteNumber":69,"Velocity":48,"Duration":594060,"SoundDuration":594060,"Delta":233942131},{"NoteNumber":72,"Velocity":57,"Duration":594060,"SoundDuration":594060,"Delta":233942131},{"NoteNumber":47,"Velocity":41,"Duration":1202167,"SoundDuration":1202167,"Delta":233942131},{"NoteNumber":54,"Velocity":31,"Duration":198019,"SoundDuration":198019,"Delta":234140151},{"NoteNumber":57,"Velocity":31,"Duration":189769,"SoundDuration":189769,"Delta":234338171},{"NoteNumber":71,"Velocity":51,"Duration":608107,"SoundDuration":608107,"Delta":234536191},{"NoteNumber":67,"Velocity":43,"Duration":608107,"SoundDuration":608107,"Delta":234536191},{"NoteNumber":59,"Velocity":38,"Duration":202702,"SoundDuration":202702,"Delta":234536191},{"NoteNumber":57,"Velocity":26,"Duration":202702,"SoundDuration":202702,"Delta":234738893},{"NoteNumber":54,"Velocity":26,"Duration":202702,"SoundDuration":202702,"Delta":234941596},{"NoteNumber":66,"Velocity":38,"Duration":642856,"SoundDuration":642856,"Delta":235144298},{"NoteNumber":69,"Velocity":45,"Duration":642856,"SoundDuration":642856,"Delta":235144298},{"NoteNumber":59,"Velocity":42,"Duration":214285,"SoundDuration":214285,"Delta":235144298},{"NoteNumber":54,"Velocity":34,"Duration":214285,"SoundDuration":214285,"Delta":235358584},{"NoteNumber":51,"Velocity":34,"Duration":214285,"SoundDuration":214285,"Delta":235572869},{"NoteNumber":67,"Velocity":53,"Duration":596026,"SoundDuration":596026,"Delta":235787155},{"NoteNumber":64,"Velocity":45,"Duration":596026,"SoundDuration":596026,"Delta":235787155},{"NoteNumber":48,"Velocity":47,"Duration":1192052,"SoundDuration":1192052,"Delta":235787155},{"NoteNumber":55,"Velocity":30,"Duration":198675,"SoundDuration":198675,"Delta":235985830},{"NoteNumber":58,"Velocity":30,"Duration":190397,"SoundDuration":190397,"Delta":236184506},{"NoteNumber":60,"Velocity":45,"Duration":198675,"SoundDuration":198675,"Delta":236383181},{"NoteNumber":58,"Velocity":35,"Duration":198675,"SoundDuration":198675,"Delta":236581857},{"NoteNumber":76,"Velocity":42,"Duration":298013,"SoundDuration":298013,"Delta":236681195},{"NoteNumber":67,"Velocity":42,"Duration":298013,"SoundDuration":298013,"Delta":236681195},{"NoteNumber":79,"Velocity":50,"Duration":298013,"SoundDuration":298013,"Delta":236681195},{"NoteNumber":55,"Velocity":43,"Duration":198675,"SoundDuration":198675,"Delta":236780532},{"NoteNumber":69,"Velocity":45,"Duration":295082,"SoundDuration":295082,"Delta":236979208},{"NoteNumber":81,"Velocity":54,"Duration":295082,"SoundDuration":295082,"Delta":236979208},{"NoteNumber":76,"Velocity":45,"Duration":295082,"SoundDuration":295082,"Delta":236979208},{"NoteNumber":60,"Velocity":54,"Duration":196721,"SoundDuration":196721,"Delta":236979208},{"NoteNumber":55,"Velocity":43,"Duration":196721,"SoundDuration":196721,"Delta":237175929},{"NoteNumber":70,"Velocity":48,"Duration":311883,"SoundDuration":311883,"Delta":237274290},{"NoteNumber":79,"Velocity":48,"Duration":311883,"SoundDuration":311883,"Delta":237274290},{"NoteNumber":76,"Velocity":48,"Duration":311883,"SoundDuration":311883,"Delta":237274290},{"NoteNumber":82,"Velocity":57,"Duration":311883,"SoundDuration":311883,"Delta":237274290},{"NoteNumber":52,"Velocity":43,"Duration":213523,"SoundDuration":213523,"Delta":237372651},{"NoteNumber":79,"Velocity":51,"Duration":902605,"SoundDuration":902605,"Delta":237586174},{"NoteNumber":76,"Velocity":51,"Duration":902605,"SoundDuration":902605,"Delta":237586174},{"NoteNumber":71,"Velocity":51,"Duration":902605,"SoundDuration":902605,"Delta":237586174},{"NoteNumber":83,"Velocity":61,"Duration":902605,"SoundDuration":902605,"Delta":237586174},{"NoteNumber":47,"Velocity":53,"Duration":598006,"SoundDuration":598006,"Delta":237586174},{"NoteNumber":52,"Velocity":43,"Duration":199335,"SoundDuration":199335,"Delta":237785509},{"NoteNumber":55,"Velocity":43,"Duration":199335,"SoundDuration":199335,"Delta":237984845},{"NoteNumber":59,"Velocity":55,"Duration":199335,"SoundDuration":199335,"Delta":238184180},{"NoteNumber":76,"Velocity":52,"Duration":304598,"SoundDuration":304598,"Delta":238488779},{"NoteNumber":79,"Velocity":62,"Duration":304598,"SoundDuration":304598,"Delta":238488779},{"NoteNumber":59,"Velocity":48,"Duration":668284,"SoundDuration":668284,"Delta":238743544},{"NoteNumber":67,"Velocity":48,"Duration":643367,"SoundDuration":643367,"Delta":238768461},{"NoteNumber":79,"Velocity":55,"Duration":299003,"SoundDuration":299003,"Delta":238793378},{"NoteNumber":83,"Velocity":65,"Duration":299003,"SoundDuration":299003,"Delta":238793378},{"NoteNumber":76,"Velocity":48,"Duration":618450,"SoundDuration":618450,"Delta":238793378},{"NoteNumber":88,"Velocity":69,"Duration":319447,"SoundDuration":319447,"Delta":239092381},{"NoteNumber":79,"Velocity":58,"Duration":319447,"SoundDuration":319447,"Delta":239092381},{"NoteNumber":93,"Velocity":72,"Duration":616438,"SoundDuration":616438,"Delta":239411829},{"NoteNumber":81,"Velocity":61,"Duration":616438,"SoundDuration":616438,"Delta":239411829},{"NoteNumber":84,"Velocity":61,"Duration":616438,"SoundDuration":616438,"Delta":239411829},{"NoteNumber":75,"Velocity":48,"Duration":513698,"SoundDuration":513698,"Delta":239411829},{"NoteNumber":59,"Velocity":48,"Duration":1874605,"SoundDuration":1874605,"Delta":239411829},{"NoteNumber":66,"Velocity":48,"Duration":1874605,"SoundDuration":1874605,"Delta":239411829},{"NoteNumber":69,"Velocity":48,"Duration":1874605,"SoundDuration":1874605,"Delta":239411829},{"NoteNumber":76,"Velocity":48,"Duration":51369,"SoundDuration":51369,"Delta":239925528},{"NoteNumber":75,"Velocity":48,"Duration":51369,"SoundDuration":51369,"Delta":239976898},{"NoteNumber":91,"Velocity":67,"Duration":616438,"SoundDuration":616438,"Delta":240028267},{"NoteNumber":83,"Velocity":56,"Duration":616438,"SoundDuration":616438,"Delta":240028267},{"NoteNumber":79,"Velocity":56,"Duration":616438,"SoundDuration":616438,"Delta":240028267},{"NoteNumber":73,"Velocity":48,"Duration":616438,"SoundDuration":616438,"Delta":240028267},{"NoteNumber":78,"Velocity":56,"Duration":641728,"SoundDuration":641728,"Delta":240644706},{"NoteNumber":90,"Velocity":66,"Duration":641728,"SoundDuration":641728,"Delta":240644706},{"NoteNumber":81,"Velocity":56,"Duration":641728,"SoundDuration":641728,"Delta":240644706},{"NoteNumber":75,"Velocity":48,"Duration":641728,"SoundDuration":641728,"Delta":240644706},{"NoteNumber":88,"Velocity":74,"Duration":601215,"SoundDuration":601215,"Delta":241286434},{"NoteNumber":80,"Velocity":62,"Duration":601215,"SoundDuration":601215,"Delta":241286434},{"NoteNumber":76,"Velocity":62,"Duration":601215,"SoundDuration":601215,"Delta":241286434},{"NoteNumber":52,"Velocity":48,"Duration":209058,"SoundDuration":209058,"Delta":241286434},{"NoteNumber":65,"Velocity":55,"Duration":196078,"SoundDuration":196078,"Delta":241495493},{"NoteNumber":64,"Velocity":48,"Duration":196078,"SoundDuration":196078,"Delta":241691571},{"NoteNumber":53,"Velocity":54,"Duration":207612,"SoundDuration":207612,"Delta":241887650},{"NoteNumber":52,"Velocity":48,"Duration":194175,"SoundDuration":194175,"Delta":242095262},{"NoteNumber":41,"Velocity":61,"Duration":194175,"SoundDuration":194175,"Delta":242289437},{"NoteNumber":40,"Velocity":55,"Duration":198961,"SoundDuration":198961,"Delta":242483612},{"NoteNumber":40,"Velocity":48,"Duration":98360,"SoundDuration":98360,"Delta":242691225},{"NoteNumber":88,"Velocity":64,"Duration":186335,"SoundDuration":186335,"Delta":242887946},{"NoteNumber":76,"Velocity":64,"Duration":186335,"SoundDuration":186335,"Delta":242887946},{"NoteNumber":40,"Velocity":47,"Duration":93167,"SoundDuration":93167,"Delta":242887946},{"NoteNumber":76,"Velocity":59,"Duration":542661,"SoundDuration":542661,"Delta":243074282},{"NoteNumber":84,"Velocity":59,"Duration":542661,"SoundDuration":542661,"Delta":243074282},{"NoteNumber":88,"Velocity":70,"Duration":542661,"SoundDuration":542661,"Delta":243074282},{"NoteNumber":40,"Velocity":50,"Duration":542661,"SoundDuration":542661,"Delta":243074282},{"NoteNumber":33,"Velocity":42,"Duration":542661,"SoundDuration":542661,"Delta":243074282},{"NoteNumber":84,"Velocity":65,"Duration":351906,"SoundDuration":351906,"Delta":243616943},{"NoteNumber":72,"Velocity":55,"Duration":351906,"SoundDuration":351906,"Delta":243616943},{"NoteNumber":81,"Velocity":55,"Duration":351906,"SoundDuration":351906,"Delta":243616943},{"NoteNumber":45,"Velocity":46,"Duration":351906,"SoundDuration":351906,"Delta":243616943},{"NoteNumber":36,"Velocity":39,"Duration":351906,"SoundDuration":351906,"Delta":243616943},{"NoteNumber":71,"Velocity":58,"Duration":189873,"SoundDuration":189873,"Delta":243968849},{"NoteNumber":80,"Velocity":58,"Duration":189873,"SoundDuration":189873,"Delta":243968849},{"NoteNumber":83,"Velocity":69,"Duration":189873,"SoundDuration":189873,"Delta":243968849},{"NoteNumber":47,"Velocity":49,"Duration":189873,"SoundDuration":189873,"Delta":243968849},{"NoteNumber":40,"Velocity":41,"Duration":189873,"SoundDuration":189873,"Delta":243968849},{"NoteNumber":76,"Velocity":75,"Duration":530972,"SoundDuration":530972,"Delta":244158722},{"NoteNumber":72,"Velocity":63,"Duration":893861,"SoundDuration":893861,"Delta":244158722},{"NoteNumber":64,"Velocity":63,"Duration":530972,"SoundDuration":530972,"Delta":244158722},{"NoteNumber":52,"Velocity":53,"Duration":530972,"SoundDuration":530972,"Delta":244158722},{"NoteNumber":48,"Velocity":45,"Duration":523598,"SoundDuration":523598,"Delta":244158722},{"NoteNumber":69,"Velocity":58,"Duration":362888,"SoundDuration":362888,"Delta":244689695},{"NoteNumber":81,"Velocity":69,"Duration":362888,"SoundDuration":362888,"Delta":244689695},{"NoteNumber":48,"Velocity":49,"Duration":362888,"SoundDuration":362888,"Delta":244689695},{"NoteNumber":45,"Velocity":41,"Duration":362888,"SoundDuration":362888,"Delta":244689695},{"NoteNumber":88,"Velocity":64,"Duration":184048,"SoundDuration":184048,"Delta":245052584},{"NoteNumber":76,"Velocity":55,"Duration":184048,"SoundDuration":184048,"Delta":245052584},{"NoteNumber":84,"Velocity":55,"Duration":184048,"SoundDuration":184048,"Delta":245052584},{"NoteNumber":40,"Velocity":49,"Duration":176380,"SoundDuration":176380,"Delta":245052584},{"NoteNumber":33,"Velocity":42,"Duration":176380,"SoundDuration":176380,"Delta":245052584},{"NoteNumber":76,"Velocity":59,"Duration":530553,"SoundDuration":530553,"Delta":245236633},{"NoteNumber":84,"Velocity":59,"Duration":530553,"SoundDuration":530553,"Delta":245236633},{"NoteNumber":88,"Velocity":70,"Duration":530553,"SoundDuration":530553,"Delta":245236633},{"NoteNumber":33,"Velocity":42,"Duration":530553,"SoundDuration":530553,"Delta":245236633},{"NoteNumber":40,"Velocity":50,"Duration":530553,"SoundDuration":530553,"Delta":245236633},{"NoteNumber":84,"Velocity":65,"Duration":349853,"SoundDuration":349853,"Delta":245767187},{"NoteNumber":81,"Velocity":55,"Duration":349853,"SoundDuration":349853,"Delta":245767187},{"NoteNumber":72,"Velocity":55,"Duration":349853,"SoundDuration":349853,"Delta":245767187},{"NoteNumber":36,"Velocity":39,"Duration":349853,"SoundDuration":349853,"Delta":245767187},{"NoteNumber":45,"Velocity":46,"Duration":349853,"SoundDuration":349853,"Delta":245767187},{"NoteNumber":71,"Velocity":58,"Duration":198020,"SoundDuration":198020,"Delta":246117041},{"NoteNumber":80,"Velocity":58,"Duration":198020,"SoundDuration":198020,"Delta":246117041},{"NoteNumber":83,"Velocity":69,"Duration":198020,"SoundDuration":198020,"Delta":246117041},{"NoteNumber":40,"Velocity":41,"Duration":198020,"SoundDuration":198020,"Delta":246117041},{"NoteNumber":47,"Velocity":49,"Duration":198020,"SoundDuration":198020,"Delta":246117041},{"NoteNumber":72,"Velocity":63,"Duration":874999,"SoundDuration":874999,"Delta":246315061},{"NoteNumber":64,"Velocity":63,"Duration":874999,"SoundDuration":874999,"Delta":246315061},{"NoteNumber":76,"Velocity":75,"Duration":874999,"SoundDuration":874999,"Delta":246315061},{"NoteNumber":48,"Velocity":45,"Duration":522058,"SoundDuration":522058,"Delta":246315061},{"NoteNumber":52,"Velocity":53,"Duration":529411,"SoundDuration":529411,"Delta":246315061},{"NoteNumber":45,"Velocity":53,"Duration":345588,"SoundDuration":345588,"Delta":246844472},{"NoteNumber":48,"Velocity":53,"Duration":345588,"SoundDuration":345588,"Delta":246844472},{"NoteNumber":64,"Velocity":58,"Duration":194805,"SoundDuration":194805,"Delta":247197413},{"NoteNumber":76,"Velocity":69,"Duration":194805,"SoundDuration":194805,"Delta":247197413},{"NoteNumber":72,"Velocity":58,"Duration":194805,"SoundDuration":194805,"Delta":247197413},{"NoteNumber":48,"Velocity":41,"Duration":194805,"SoundDuration":194805,"Delta":247197413},{"NoteNumber":52,"Velocity":49,"Duration":194805,"SoundDuration":194805,"Delta":247197413},{"NoteNumber":72,"Velocity":59,"Duration":542814,"SoundDuration":542814,"Delta":247392218},{"NoteNumber":64,"Velocity":59,"Duration":542814,"SoundDuration":542814,"Delta":247392218},{"NoteNumber":76,"Velocity":70,"Duration":542814,"SoundDuration":542814,"Delta":247392218},{"NoteNumber":55,"Velocity":50,"Duration":719284,"SoundDuration":719284,"Delta":247392218},{"NoteNumber":52,"Velocity":42,"Duration":719284,"SoundDuration":719284,"Delta":247392218},{"NoteNumber":43,"Velocity":49,"Duration":1093775,"SoundDuration":1093775,"Delta":247392218},{"NoteNumber":65,"Velocity":55,"Duration":352940,"SoundDuration":352940,"Delta":247935033},{"NoteNumber":77,"Velocity":65,"Duration":352940,"SoundDuration":352940,"Delta":247935033},{"NoteNumber":74,"Velocity":55,"Duration":352940,"SoundDuration":352940,"Delta":247935033},{"NoteNumber":53,"Velocity":49,"Duration":132352,"SoundDuration":132352,"Delta":248111503},{"NoteNumber":50,"Velocity":49,"Duration":132352,"SoundDuration":132352,"Delta":248111503},{"NoteNumber":67,"Velocity":58,"Duration":198020,"SoundDuration":198020,"Delta":248287974},{"NoteNumber":76,"Velocity":58,"Duration":198020,"SoundDuration":198020,"Delta":248287974},{"NoteNumber":79,"Velocity":69,"Duration":198020,"SoundDuration":198020,"Delta":248287974},{"NoteNumber":52,"Velocity":49,"Duration":148515,"SoundDuration":148515,"Delta":248287974},{"NoteNumber":48,"Velocity":41,"Duration":148515,"SoundDuration":148515,"Delta":248287974},{"NoteNumber":79,"Velocity":75,"Duration":534124,"SoundDuration":534124,"Delta":248485994},{"NoteNumber":71,"Velocity":63,"Duration":898906,"SoundDuration":898906,"Delta":248485994},{"NoteNumber":67,"Velocity":63,"Duration":534124,"SoundDuration":534124,"Delta":248485994},{"NoteNumber":50,"Velocity":53,"Duration":890763,"SoundDuration":890763,"Delta":248485994},{"NoteNumber":43,"Velocity":45,"Duration":890763,"SoundDuration":890763,"Delta":248485994},{"NoteNumber":65,"Velocity":58,"Duration":364782,"SoundDuration":364782,"Delta":249020118},{"NoteNumber":77,"Velocity":69,"Duration":364782,"SoundDuration":364782,"Delta":249020118},{"NoteNumber":62,"Velocity":55,"Duration":183485,"SoundDuration":183485,"Delta":249384900},{"NoteNumber":74,"Velocity":64,"Duration":183485,"SoundDuration":183485,"Delta":249384900},{"NoteNumber":71,"Velocity":55,"Duration":183485,"SoundDuration":183485,"Delta":249384900},{"NoteNumber":50,"Velocity":49,"Duration":175840,"SoundDuration":175840,"Delta":249384900},{"NoteNumber":43,"Velocity":42,"Duration":175840,"SoundDuration":175840,"Delta":249384900},{"NoteNumber":60,"Velocity":59,"Duration":720179,"SoundDuration":720179,"Delta":249568386},{"NoteNumber":69,"Velocity":59,"Duration":720179,"SoundDuration":720179,"Delta":249568386},{"NoteNumber":72,"Velocity":70,"Duration":355029,"SoundDuration":355029,"Delta":249568386},{"NoteNumber":48,"Velocity":42,"Duration":720179,"SoundDuration":720179,"Delta":249568386},{"NoteNumber":40,"Velocity":49,"Duration":1095325,"SoundDuration":1095325,"Delta":249568386},{"NoteNumber":52,"Velocity":50,"Duration":720179,"SoundDuration":720179,"Delta":249568386},{"NoteNumber":74,"Velocity":66,"Duration":62893,"SoundDuration":62893,"Delta":249923416},{"NoteNumber":72,"Velocity":55,"Duration":62893,"SoundDuration":62893,"Delta":249986309},{"NoteNumber":71,"Velocity":55,"Duration":62893,"SoundDuration":62893,"Delta":250049202},{"NoteNumber":72,"Velocity":70,"Duration":176470,"SoundDuration":176470,"Delta":250112095},{"NoteNumber":62,"Velocity":58,"Duration":132352,"SoundDuration":132352,"Delta":250288566},{"NoteNumber":71,"Velocity":58,"Duration":132352,"SoundDuration":132352,"Delta":250288566},{"NoteNumber":74,"Velocity":69,"Duration":132352,"SoundDuration":132352,"Delta":250288566},{"NoteNumber":47,"Velocity":49,"Duration":132352,"SoundDuration":132352,"Delta":250288566},{"NoteNumber":50,"Velocity":49,"Duration":132352,"SoundDuration":132352,"Delta":250288566},{"NoteNumber":72,"Velocity":58,"Duration":149006,"SoundDuration":149006,"Delta":250465036},{"NoteNumber":64,"Velocity":58,"Duration":149006,"SoundDuration":149006,"Delta":250465036},{"NoteNumber":76,"Velocity":69,"Duration":149006,"SoundDuration":149006,"Delta":250465036},{"NoteNumber":45,"Velocity":41,"Duration":149006,"SoundDuration":149006,"Delta":250465036},{"NoteNumber":48,"Velocity":49,"Duration":149006,"SoundDuration":149006,"Delta":250465036},{"NoteNumber":64,"Velocity":63,"Duration":529411,"SoundDuration":529411,"Delta":250663712},{"NoteNumber":76,"Velocity":75,"Duration":529411,"SoundDuration":529411,"Delta":250663712},{"NoteNumber":68,"Velocity":63,"Duration":529411,"SoundDuration":529411,"Delta":250663712},{"NoteNumber":47,"Velocity":53,"Duration":874999,"SoundDuration":874999,"Delta":250663712},{"NoteNumber":40,"Velocity":45,"Duration":874999,"SoundDuration":874999,"Delta":250663712},{"NoteNumber":76,"Velocity":64,"Duration":184615,"SoundDuration":184615,"Delta":251546064},{"NoteNumber":88,"Velocity":64,"Duration":184615,"SoundDuration":184615,"Delta":251546064},{"NoteNumber":40,"Velocity":47,"Duration":184615,"SoundDuration":184615,"Delta":251546064},{"NoteNumber":76,"Velocity":59,"Duration":538533,"SoundDuration":538533,"Delta":251730680},{"NoteNumber":85,"Velocity":59,"Duration":538533,"SoundDuration":538533,"Delta":251730680},{"NoteNumber":88,"Velocity":70,"Duration":538533,"SoundDuration":538533,"Delta":251730680},{"NoteNumber":40,"Velocity":50,"Duration":538533,"SoundDuration":538533,"Delta":251730680},{"NoteNumber":33,"Velocity":42,"Duration":538533,"SoundDuration":538533,"Delta":251730680},{"NoteNumber":81,"Velocity":55,"Duration":352940,"SoundDuration":352940,"Delta":252269213},{"NoteNumber":73,"Velocity":55,"Duration":352940,"SoundDuration":352940,"Delta":252269213},{"NoteNumber":85,"Velocity":65,"Duration":352940,"SoundDuration":352940,"Delta":252269213},{"NoteNumber":37,"Velocity":39,"Duration":352940,"SoundDuration":352940,"Delta":252269213},{"NoteNumber":45,"Velocity":46,"Duration":352940,"SoundDuration":352940,"Delta":252269213},{"NoteNumber":71,"Velocity":58,"Duration":189873,"SoundDuration":189873,"Delta":252622154},{"NoteNumber":83,"Velocity":69,"Duration":189873,"SoundDuration":189873,"Delta":252622154},{"NoteNumber":80,"Velocity":58,"Duration":189873,"SoundDuration":189873,"Delta":252622154},{"NoteNumber":40,"Velocity":41,"Duration":189873,"SoundDuration":189873,"Delta":252622154},{"NoteNumber":47,"Velocity":49,"Duration":189873,"SoundDuration":189873,"Delta":252622154},{"NoteNumber":73,"Velocity":63,"Duration":874635,"SoundDuration":874635,"Delta":252812027},{"NoteNumber":64,"Velocity":63,"Duration":524780,"SoundDuration":524780,"Delta":252812027},{"NoteNumber":76,"Velocity":75,"Duration":524780,"SoundDuration":524780,"Delta":252812027},{"NoteNumber":49,"Velocity":45,"Duration":517492,"SoundDuration":517492,"Delta":252812027},{"NoteNumber":52,"Velocity":53,"Duration":524780,"SoundDuration":524780,"Delta":252812027},{"NoteNumber":69,"Velocity":58,"Duration":349854,"SoundDuration":349854,"Delta":253336808},{"NoteNumber":81,"Velocity":69,"Duration":349854,"SoundDuration":349854,"Delta":253336808},{"NoteNumber":45,"Velocity":41,"Duration":342565,"SoundDuration":342565,"Delta":253336808},{"NoteNumber":49,"Velocity":49,"Duration":349854,"SoundDuration":349854,"Delta":253336808},{"NoteNumber":85,"Velocity":55,"Duration":223880,"SoundDuration":223880,"Delta":253686662},{"NoteNumber":76,"Velocity":55,"Duration":223880,"SoundDuration":223880,"Delta":253686662},{"NoteNumber":88,"Velocity":64,"Duration":223880,"SoundDuration":223880,"Delta":253686662},{"NoteNumber":33,"Velocity":42,"Duration":214552,"SoundDuration":214552,"Delta":253686662},{"NoteNumber":45,"Velocity":49,"Duration":214552,"SoundDuration":214552,"Delta":253686662},{"NoteNumber":80,"Velocity":59,"Duration":702404,"SoundDuration":702404,"Delta":253910543},{"NoteNumber":92,"Velocity":80,"Duration":702404,"SoundDuration":702404,"Delta":253910543},{"NoteNumber":88,"Velocity":68,"Duration":702404,"SoundDuration":702404,"Delta":253910543},{"NoteNumber":32,"Velocity":42,"Duration":529493,"SoundDuration":529493,"Delta":253910543},{"NoteNumber":44,"Velocity":50,"Duration":529493,"SoundDuration":529493,"Delta":253910543},{"NoteNumber":56,"Velocity":46,"Duration":1063553,"SoundDuration":1063553,"Delta":254440036},{"NoteNumber":87,"Velocity":55,"Duration":129682,"SoundDuration":129682,"Delta":254612947},{"NoteNumber":78,"Velocity":55,"Duration":129682,"SoundDuration":129682,"Delta":254612947},{"NoteNumber":90,"Velocity":65,"Duration":129682,"SoundDuration":129682,"Delta":254612947},{"NoteNumber":63,"Velocity":41,"Duration":129682,"SoundDuration":129682,"Delta":254612947},{"NoteNumber":66,"Velocity":49,"Duration":129682,"SoundDuration":129682,"Delta":254612947},{"NoteNumber":76,"Velocity":58,"Duration":142405,"SoundDuration":142405,"Delta":254785857},{"NoteNumber":88,"Velocity":69,"Duration":142405,"SoundDuration":142405,"Delta":254785857},{"NoteNumber":85,"Velocity":58,"Duration":142405,"SoundDuration":142405,"Delta":254785857},{"NoteNumber":64,"Velocity":49,"Duration":142405,"SoundDuration":142405,"Delta":254785857},{"NoteNumber":61,"Velocity":41,"Duration":142405,"SoundDuration":142405,"Delta":254785857},{"NoteNumber":75,"Velocity":63,"Duration":872433,"SoundDuration":872433,"Delta":254975731},{"NoteNumber":84,"Velocity":63,"Duration":872433,"SoundDuration":872433,"Delta":254975731},{"NoteNumber":87,"Velocity":75,"Duration":872433,"SoundDuration":872433,"Delta":254975731},{"NoteNumber":63,"Velocity":53,"Duration":872433,"SoundDuration":872433,"Delta":254975731},{"NoteNumber":60,"Velocity":45,"Duration":872433,"SoundDuration":872433,"Delta":254975731},{"NoteNumber":56,"Velocity":53,"Duration":344574,"SoundDuration":344574,"Delta":255503590},{"NoteNumber":87,"Velocity":62,"Duration":186335,"SoundDuration":186335,"Delta":255855496},{"NoteNumber":75,"Velocity":52,"Duration":186335,"SoundDuration":186335,"Delta":255855496},{"NoteNumber":63,"Velocity":44,"Duration":186335,"SoundDuration":186335,"Delta":255855496},{"NoteNumber":75,"Velocity":55,"Duration":559006,"SoundDuration":559006,"Delta":256041831},{"NoteNumber":83,"Velocity":54,"Duration":1113022,"SoundDuration":1113022,"Delta":256041831},{"NoteNumber":87,"Velocity":65,"Duration":559006,"SoundDuration":559006,"Delta":256041831},{"NoteNumber":59,"Velocity":49,"Duration":1113022,"SoundDuration":1113022,"Delta":256041831},{"NoteNumber":63,"Velocity":49,"Duration":559006,"SoundDuration":559006,"Delta":256041831},{"NoteNumber":56,"Velocity":43,"Duration":1113022,"SoundDuration":1113022,"Delta":256041831},{"NoteNumber":88,"Velocity":68,"Duration":357143,"SoundDuration":357143,"Delta":256600838},{"NoteNumber":76,"Velocity":57,"Duration":357143,"SoundDuration":357143,"Delta":256600838},{"NoteNumber":64,"Velocity":48,"Duration":357143,"SoundDuration":357143,"Delta":256600838},{"NoteNumber":76,"Velocity":55,"Duration":181388,"SoundDuration":181388,"Delta":256965580},{"NoteNumber":88,"Velocity":65,"Duration":181388,"SoundDuration":181388,"Delta":256965580},{"NoteNumber":64,"Velocity":46,"Duration":181388,"SoundDuration":181388,"Delta":256965580},{"NoteNumber":84,"Velocity":57,"Duration":1098364,"SoundDuration":1098364,"Delta":257154854},{"NoteNumber":76,"Velocity":58,"Duration":552910,"SoundDuration":552910,"Delta":257154854},{"NoteNumber":88,"Velocity":69,"Duration":552910,"SoundDuration":552910,"Delta":257154854},{"NoteNumber":57,"Velocity":45,"Duration":1098364,"SoundDuration":1098364,"Delta":257154854},{"NoteNumber":64,"Velocity":52,"Duration":552910,"SoundDuration":552910,"Delta":257154854},{"NoteNumber":60,"Velocity":52,"Duration":1098364,"SoundDuration":1098364,"Delta":257154854},{"NoteNumber":89,"Velocity":71,"Duration":356060,"SoundDuration":356060,"Delta":257707765},{"NoteNumber":77,"Velocity":60,"Duration":356060,"SoundDuration":356060,"Delta":257707765},{"NoteNumber":65,"Velocity":51,"Duration":356060,"SoundDuration":356060,"Delta":257707765},{"NoteNumber":89,"Velocity":68,"Duration":174242,"SoundDuration":174242,"Delta":258071401},{"NoteNumber":77,"Velocity":57,"Duration":174242,"SoundDuration":174242,"Delta":258071401},{"NoteNumber":65,"Velocity":48,"Duration":174242,"SoundDuration":174242,"Delta":258071401},{"NoteNumber":77,"Velocity":61,"Duration":571248,"SoundDuration":571248,"Delta":258253219},{"NoteNumber":89,"Velocity":73,"Duration":571248,"SoundDuration":571248,"Delta":258253219},{"NoteNumber":86,"Velocity":61,"Duration":571248,"SoundDuration":571248,"Delta":258253219},{"NoteNumber":65,"Velocity":52,"Duration":484743,"SoundDuration":484743,"Delta":258253219},{"NoteNumber":62,"Velocity":44,"Duration":484743,"SoundDuration":484743,"Delta":258253219},{"NoteNumber":59,"Velocity":44,"Duration":484743,"SoundDuration":484743,"Delta":258253219},{"NoteNumber":47,"Velocity":42,"Duration":636861,"SoundDuration":636861,"Delta":258746613},{"NoteNumber":53,"Velocity":42,"Duration":610909,"SoundDuration":610909,"Delta":258772564},{"NoteNumber":55,"Velocity":42,"Duration":584958,"SoundDuration":584958,"Delta":258798516},{"NoteNumber":93,"Velocity":78,"Duration":372671,"SoundDuration":372671,"Delta":258824467},{"NoteNumber":89,"Velocity":66,"Duration":372671,"SoundDuration":372671,"Delta":258824467},{"NoteNumber":86,"Velocity":66,"Duration":372671,"SoundDuration":372671,"Delta":258824467},{"NoteNumber":81,"Velocity":66,"Duration":372671,"SoundDuration":372671,"Delta":258824467},{"NoteNumber":62,"Velocity":50,"Duration":559006,"SoundDuration":559006,"Delta":258824467},{"NoteNumber":91,"Velocity":73,"Duration":186335,"SoundDuration":186335,"Delta":259197138},{"NoteNumber":79,"Velocity":62,"Duration":186335,"SoundDuration":186335,"Delta":259197138},{"NoteNumber":81,"Velocity":62,"Duration":578856,"SoundDuration":578856,"Delta":259383474},{"NoteNumber":77,"Velocity":62,"Duration":578856,"SoundDuration":578856,"Delta":259383474},{"NoteNumber":84,"Velocity":62,"Duration":578856,"SoundDuration":578856,"Delta":259383474},{"NoteNumber":89,"Velocity":74,"Duration":578856,"SoundDuration":578856,"Delta":259383474},{"NoteNumber":48,"Velocity":45,"Duration":578856,"SoundDuration":578856,"Delta":259383474},{"NoteNumber":57,"Velocity":45,"Duration":578856,"SoundDuration":578856,"Delta":259383474},{"NoteNumber":60,"Velocity":53,"Duration":578856,"SoundDuration":578856,"Delta":259383474},{"NoteNumber":53,"Velocity":45,"Duration":578856,"SoundDuration":578856,"Delta":259383474},{"NoteNumber":84,"Velocity":66,"Duration":384614,"SoundDuration":384614,"Delta":259962330},{"NoteNumber":76,"Velocity":66,"Duration":384614,"SoundDuration":384614,"Delta":259962330},{"NoteNumber":82,"Velocity":66,"Duration":384614,"SoundDuration":384614,"Delta":259962330},{"NoteNumber":88,"Velocity":78,"Duration":384614,"SoundDuration":384614,"Delta":259962330},{"NoteNumber":55,"Velocity":42,"Duration":384614,"SoundDuration":384614,"Delta":259962330},{"NoteNumber":48,"Velocity":42,"Duration":376602,"SoundDuration":376602,"Delta":259962330},{"NoteNumber":60,"Velocity":50,"Duration":384614,"SoundDuration":384614,"Delta":259962330},{"NoteNumber":77,"Velocity":62,"Duration":217802,"SoundDuration":217802,"Delta":260346945},{"NoteNumber":89,"Velocity":73,"Duration":217802,"SoundDuration":217802,"Delta":260346945},{"NoteNumber":48,"Velocity":50,"Duration":217802,"SoundDuration":217802,"Delta":260346945},{"NoteNumber":77,"Velocity":62,"Duration":571428,"SoundDuration":571428,"Delta":260574218},{"NoteNumber":89,"Velocity":74,"Duration":571428,"SoundDuration":571428,"Delta":260574218},{"NoteNumber":84,"Velocity":62,"Duration":571428,"SoundDuration":571428,"Delta":260574218},{"NoteNumber":81,"Velocity":62,"Duration":571428,"SoundDuration":571428,"Delta":260574218},{"NoteNumber":48,"Velocity":53,"Duration":571428,"SoundDuration":571428,"Delta":260574218},{"NoteNumber":41,"Velocity":45,"Duration":571428,"SoundDuration":571428,"Delta":260574218},{"NoteNumber":53,"Velocity":55,"Duration":380951,"SoundDuration":380951,"Delta":261145646},{"NoteNumber":45,"Velocity":46,"Duration":380951,"SoundDuration":380951,"Delta":261145646},{"NoteNumber":72,"Velocity":74,"Duration":100334,"SoundDuration":100334,"Delta":261526598},{"NoteNumber":60,"Velocity":62,"Duration":100334,"SoundDuration":100334,"Delta":261526598},{"NoteNumber":55,"Velocity":56,"Duration":200669,"SoundDuration":200669,"Delta":261526598},{"NoteNumber":48,"Velocity":47,"Duration":200669,"SoundDuration":200669,"Delta":261526598},{"NoteNumber":61,"Velocity":69,"Duration":569620,"SoundDuration":569620,"Delta":261727267},{"NoteNumber":69,"Velocity":69,"Duration":569620,"SoundDuration":569620,"Delta":261727267},{"NoteNumber":73,"Velocity":82,"Duration":569620,"SoundDuration":569620,"Delta":261727267},{"NoteNumber":53,"Velocity":52,"Duration":569620,"SoundDuration":569620,"Delta":261727267},{"NoteNumber":57,"Velocity":62,"Duration":569620,"SoundDuration":569620,"Delta":261727267},{"NoteNumber":77,"Velocity":57,"Duration":94936,"SoundDuration":94936,"Delta":262296887},{"NoteNumber":65,"Velocity":48,"Duration":94936,"SoundDuration":94936,"Delta":262296887},{"NoteNumber":53,"Velocity":53,"Duration":379747,"SoundDuration":379747,"Delta":262296887},{"NoteNumber":49,"Velocity":45,"Duration":379747,"SoundDuration":379747,"Delta":262296887},{"NoteNumber":45,"Velocity":45,"Duration":379747,"SoundDuration":379747,"Delta":262296887},{"NoteNumber":81,"Velocity":60,"Duration":94936,"SoundDuration":94936,"Delta":262486761},{"NoteNumber":69,"Velocity":51,"Duration":94936,"SoundDuration":94936,"Delta":262486761},{"NoteNumber":73,"Velocity":54,"Duration":94936,"SoundDuration":94936,"Delta":262676634},{"NoteNumber":85,"Velocity":64,"Duration":94936,"SoundDuration":94936,"Delta":262676634},{"NoteNumber":89,"Velocity":71,"Duration":559006,"SoundDuration":559006,"Delta":262866508},{"NoteNumber":85,"Velocity":60,"Duration":559006,"SoundDuration":559006,"Delta":262866508},{"NoteNumber":77,"Velocity":60,"Duration":559006,"SoundDuration":559006,"Delta":262866508},{"NoteNumber":46,"Velocity":48,"Duration":559006,"SoundDuration":559006,"Delta":262866508},{"NoteNumber":49,"Velocity":57,"Duration":559006,"SoundDuration":559006,"Delta":262866508},{"NoteNumber":85,"Velocity":57,"Duration":357143,"SoundDuration":357143,"Delta":263425514},{"NoteNumber":90,"Velocity":68,"Duration":357143,"SoundDuration":357143,"Delta":263425514},{"NoteNumber":78,"Velocity":57,"Duration":357143,"SoundDuration":357143,"Delta":263425514},{"NoteNumber":46,"Velocity":45,"Duration":182370,"SoundDuration":182370,"Delta":263425514},{"NoteNumber":54,"Velocity":53,"Duration":182370,"SoundDuration":182370,"Delta":263425514},{"NoteNumber":49,"Velocity":40,"Duration":182370,"SoundDuration":182370,"Delta":263607885},{"NoteNumber":58,"Velocity":48,"Duration":182370,"SoundDuration":182370,"Delta":263607885},{"NoteNumber":90,"Velocity":65,"Duration":189274,"SoundDuration":189274,"Delta":263790256},{"NoteNumber":78,"Velocity":55,"Duration":189274,"SoundDuration":189274,"Delta":263790256},{"NoteNumber":54,"Velocity":42,"Duration":189274,"SoundDuration":189274,"Delta":263790256},{"NoteNumber":61,"Velocity":50,"Duration":189274,"SoundDuration":189274,"Delta":263790256},{"NoteNumber":78,"Velocity":66,"Duration":559006,"SoundDuration":559006,"Delta":263979531},{"NoteNumber":90,"Velocity":78,"Duration":559006,"SoundDuration":559006,"Delta":263979531},{"NoteNumber":86,"Velocity":66,"Duration":559006,"SoundDuration":559006,"Delta":263979531},{"NoteNumber":62,"Velocity":62,"Duration":559006,"SoundDuration":559006,"Delta":263979531},{"NoteNumber":59,"Velocity":52,"Duration":559006,"SoundDuration":559006,"Delta":263979531},{"NoteNumber":91,"Velocity":71,"Duration":357143,"SoundDuration":357143,"Delta":264538537},{"NoteNumber":79,"Velocity":59,"Duration":357143,"SoundDuration":357143,"Delta":264538537},{"NoteNumber":86,"Velocity":59,"Duration":357143,"SoundDuration":357143,"Delta":264538537},{"NoteNumber":47,"Velocity":47,"Duration":182370,"SoundDuration":182370,"Delta":264538537},{"NoteNumber":55,"Velocity":55,"Duration":182370,"SoundDuration":182370,"Delta":264538537},{"NoteNumber":50,"Velocity":41,"Duration":182370,"SoundDuration":182370,"Delta":264720908},{"NoteNumber":59,"Velocity":49,"Duration":182370,"SoundDuration":182370,"Delta":264720908},{"NoteNumber":79,"Velocity":56,"Duration":181388,"SoundDuration":181388,"Delta":264903279},{"NoteNumber":91,"Velocity":66,"Duration":181388,"SoundDuration":181388,"Delta":264903279},{"NoteNumber":62,"Velocity":51,"Duration":189274,"SoundDuration":189274,"Delta":264903279},{"NoteNumber":55,"Velocity":42,"Duration":189274,"SoundDuration":189274,"Delta":264903279},{"NoteNumber":88,"Velocity":61,"Duration":586161,"SoundDuration":586161,"Delta":265092554},{"NoteNumber":91,"Velocity":73,"Duration":586161,"SoundDuration":586161,"Delta":265092554},{"NoteNumber":79,"Velocity":61,"Duration":586161,"SoundDuration":586161,"Delta":265092554},{"NoteNumber":60,"Velocity":44,"Duration":499656,"SoundDuration":499656,"Delta":265092554},{"NoteNumber":64,"Velocity":52,"Duration":499656,"SoundDuration":499656,"Delta":265092554},{"NoteNumber":48,"Velocity":42,"Duration":636861,"SoundDuration":636861,"Delta":265600861},{"NoteNumber":55,"Velocity":42,"Duration":610909,"SoundDuration":610909,"Delta":265626812},{"NoteNumber":57,"Velocity":42,"Duration":584958,"SoundDuration":584958,"Delta":265652764},{"NoteNumber":91,"Velocity":66,"Duration":372671,"SoundDuration":372671,"Delta":265678715},{"NoteNumber":88,"Velocity":66,"Duration":372671,"SoundDuration":372671,"Delta":265678715},{"NoteNumber":95,"Velocity":78,"Duration":372671,"SoundDuration":372671,"Delta":265678715},{"NoteNumber":83,"Velocity":66,"Duration":372671,"SoundDuration":372671,"Delta":265678715},{"NoteNumber":64,"Velocity":50,"Duration":559006,"SoundDuration":559006,"Delta":265678715},{"NoteNumber":81,"Velocity":62,"Duration":186335,"SoundDuration":186335,"Delta":266051386},{"NoteNumber":93,"Velocity":73,"Duration":186335,"SoundDuration":186335,"Delta":266051386},{"NoteNumber":79,"Velocity":62,"Duration":578856,"SoundDuration":578856,"Delta":266237722},{"NoteNumber":86,"Velocity":62,"Duration":578856,"SoundDuration":578856,"Delta":266237722},{"NoteNumber":83,"Velocity":62,"Duration":578856,"SoundDuration":578856,"Delta":266237722},{"NoteNumber":91,"Velocity":74,"Duration":578856,"SoundDuration":578856,"Delta":266237722},{"NoteNumber":59,"Velocity":45,"Duration":578856,"SoundDuration":578856,"Delta":266237722},{"NoteNumber":50,"Velocity":45,"Duration":578856,"SoundDuration":578856,"Delta":266237722},{"NoteNumber":62,"Velocity":53,"Duration":578856,"SoundDuration":578856,"Delta":266237722},{"NoteNumber":55,"Velocity":45,"Duration":578856,"SoundDuration":578856,"Delta":266237722},{"NoteNumber":86,"Velocity":66,"Duration":384614,"SoundDuration":384614,"Delta":266816578},{"NoteNumber":90,"Velocity":78,"Duration":384614,"SoundDuration":384614,"Delta":266816578},{"NoteNumber":84,"Velocity":66,"Duration":384614,"SoundDuration":384614,"Delta":266816578},{"NoteNumber":81,"Velocity":66,"Duration":384614,"SoundDuration":384614,"Delta":266816578},{"NoteNumber":78,"Velocity":66,"Duration":384614,"SoundDuration":384614,"Delta":266816578},{"NoteNumber":50,"Velocity":42,"Duration":376602,"SoundDuration":376602,"Delta":266816578},{"NoteNumber":62,"Velocity":50,"Duration":384614,"SoundDuration":384614,"Delta":266816578},{"NoteNumber":57,"Velocity":42,"Duration":384614,"SoundDuration":384614,"Delta":266816578},{"NoteNumber":91,"Velocity":73,"Duration":217802,"SoundDuration":217802,"Delta":267201193},{"NoteNumber":79,"Velocity":62,"Duration":217802,"SoundDuration":217802,"Delta":267201193},{"NoteNumber":50,"Velocity":50,"Duration":217802,"SoundDuration":217802,"Delta":267201193},{"NoteNumber":83,"Velocity":62,"Duration":571428,"SoundDuration":571428,"Delta":267428466},{"NoteNumber":86,"Velocity":62,"Duration":571428,"SoundDuration":571428,"Delta":267428466},{"NoteNumber":79,"Velocity":62,"Duration":571428,"SoundDuration":571428,"Delta":267428466},{"NoteNumber":91,"Velocity":74,"Duration":571428,"SoundDuration":571428,"Delta":267428466},{"NoteNumber":50,"Velocity":53,"Duration":571428,"SoundDuration":571428,"Delta":267428466},{"NoteNumber":43,"Velocity":45,"Duration":571428,"SoundDuration":571428,"Delta":267428466},{"NoteNumber":47,"Velocity":46,"Duration":380951,"SoundDuration":380951,"Delta":267999894},{"NoteNumber":55,"Velocity":55,"Duration":380951,"SoundDuration":380951,"Delta":267999894},{"NoteNumber":74,"Velocity":74,"Duration":200669,"SoundDuration":200669,"Delta":268380846},{"NoteNumber":62,"Velocity":62,"Duration":200669,"SoundDuration":200669,"Delta":268380846},{"NoteNumber":50,"Velocity":47,"Duration":200669,"SoundDuration":200669,"Delta":268380846},{"NoteNumber":57,"Velocity":56,"Duration":200669,"SoundDuration":200669,"Delta":268380846},{"NoteNumber":63,"Velocity":69,"Duration":759494,"SoundDuration":759494,"Delta":268581515},{"NoteNumber":71,"Velocity":69,"Duration":759494,"SoundDuration":759494,"Delta":268581515},{"NoteNumber":75,"Velocity":82,"Duration":759494,"SoundDuration":759494,"Delta":268581515},{"NoteNumber":55,"Velocity":52,"Duration":569620,"SoundDuration":569620,"Delta":268581515},{"NoteNumber":59,"Velocity":62,"Duration":569620,"SoundDuration":569620,"Delta":268581515},{"NoteNumber":47,"Velocity":45,"Duration":189873,"SoundDuration":189873,"Delta":269151135},{"NoteNumber":51,"Velocity":45,"Duration":189873,"SoundDuration":189873,"Delta":269151135},{"NoteNumber":55,"Velocity":53,"Duration":189873,"SoundDuration":189873,"Delta":269151135},{"NoteNumber":79,"Velocity":69,"Duration":94936,"SoundDuration":94936,"Delta":269341009},{"NoteNumber":67,"Velocity":58,"Duration":94936,"SoundDuration":94936,"Delta":269341009},{"NoteNumber":69,"Velocity":62,"Duration":94936,"SoundDuration":94936,"Delta":269530882},{"NoteNumber":81,"Velocity":73,"Duration":94936,"SoundDuration":94936,"Delta":269530882},{"NoteNumber":43,"Velocity":48,"Duration":189873,"SoundDuration":189873,"Delta":269530882},{"NoteNumber":51,"Velocity":57,"Duration":181962,"SoundDuration":181962,"Delta":269530882},{"NoteNumber":74,"Velocity":65,"Duration":923913,"SoundDuration":923913,"Delta":269720756},{"NoteNumber":83,"Velocity":77,"Duration":923913,"SoundDuration":923913,"Delta":269720756},{"NoteNumber":71,"Velocity":65,"Duration":923913,"SoundDuration":923913,"Delta":269720756},{"NoteNumber":79,"Velocity":65,"Duration":923913,"SoundDuration":923913,"Delta":269720756},{"NoteNumber":41,"Velocity":48,"Duration":559006,"SoundDuration":559006,"Delta":269720756},{"NoteNumber":50,"Velocity":57,"Duration":559006,"SoundDuration":559006,"Delta":269720756},{"NoteNumber":55,"Velocity":55,"Duration":372670,"SoundDuration":372670,"Delta":270279762},{"NoteNumber":47,"Velocity":46,"Duration":372670,"SoundDuration":372670,"Delta":270279762},{"NoteNumber":62,"Velocity":62,"Duration":200669,"SoundDuration":200669,"Delta":270652433},{"NoteNumber":74,"Velocity":74,"Duration":200669,"SoundDuration":200669,"Delta":270652433},{"NoteNumber":57,"Velocity":56,"Duration":200669,"SoundDuration":200669,"Delta":270652433},{"NoteNumber":50,"Velocity":47,"Duration":200669,"SoundDuration":200669,"Delta":270652433},{"NoteNumber":75,"Velocity":82,"Duration":759494,"SoundDuration":759494,"Delta":270853102},{"NoteNumber":63,"Velocity":69,"Duration":759494,"SoundDuration":759494,"Delta":270853102},{"NoteNumber":71,"Velocity":69,"Duration":759494,"SoundDuration":759494,"Delta":270853102},{"NoteNumber":59,"Velocity":62,"Duration":569620,"SoundDuration":569620,"Delta":270853102},{"NoteNumber":55,"Velocity":52,"Duration":569620,"SoundDuration":569620,"Delta":270853102},{"NoteNumber":51,"Velocity":45,"Duration":189873,"SoundDuration":189873,"Delta":271422723},{"NoteNumber":47,"Velocity":45,"Duration":189873,"SoundDuration":189873,"Delta":271422723},{"NoteNumber":55,"Velocity":53,"Duration":189873,"SoundDuration":189873,"Delta":271422723},{"NoteNumber":67,"Velocity":58,"Duration":94936,"SoundDuration":94936,"Delta":271612596},{"NoteNumber":79,"Velocity":69,"Duration":94936,"SoundDuration":94936,"Delta":271612596},{"NoteNumber":81,"Velocity":73,"Duration":94936,"SoundDuration":94936,"Delta":271802470},{"NoteNumber":69,"Velocity":62,"Duration":94936,"SoundDuration":94936,"Delta":271802470},{"NoteNumber":41,"Velocity":48,"Duration":189873,"SoundDuration":189873,"Delta":271802470},{"NoteNumber":51,"Velocity":57,"Duration":189873,"SoundDuration":189873,"Delta":271802470},{"NoteNumber":80,"Velocity":65,"Duration":923913,"SoundDuration":923913,"Delta":271992343},{"NoteNumber":83,"Velocity":77,"Duration":923913,"SoundDuration":923913,"Delta":271992343},{"NoteNumber":74,"Velocity":65,"Duration":923913,"SoundDuration":923913,"Delta":271992343},{"NoteNumber":71,"Velocity":65,"Duration":923913,"SoundDuration":923913,"Delta":271992343},{"NoteNumber":40,"Velocity":48,"Duration":559006,"SoundDuration":559006,"Delta":271992343},{"NoteNumber":50,"Velocity":57,"Duration":559006,"SoundDuration":559006,"Delta":271992343},{"NoteNumber":47,"Velocity":46,"Duration":372671,"SoundDuration":372671,"Delta":272551350},{"NoteNumber":56,"Velocity":55,"Duration":372671,"SoundDuration":372671,"Delta":272551350},{"NoteNumber":74,"Velocity":66,"Duration":200669,"SoundDuration":200669,"Delta":272924021},{"NoteNumber":62,"Velocity":66,"Duration":200669,"SoundDuration":200669,"Delta":272924021},{"NoteNumber":50,"Velocity":47,"Duration":200669,"SoundDuration":200669,"Delta":272924021},{"NoteNumber":57,"Velocity":56,"Duration":200669,"SoundDuration":200669,"Delta":272924021},{"NoteNumber":63,"Velocity":53,"Duration":292207,"SoundDuration":292207,"Delta":273124690},{"NoteNumber":71,"Velocity":53,"Duration":292207,"SoundDuration":292207,"Delta":273124690},{"NoteNumber":75,"Velocity":63,"Duration":292207,"SoundDuration":292207,"Delta":273124690},{"NoteNumber":56,"Velocity":52,"Duration":1168830,"SoundDuration":1168830,"Delta":273124690},{"NoteNumber":59,"Velocity":62,"Duration":1168830,"SoundDuration":1168830,"Delta":273124690},{"NoteNumber":76,"Velocity":56,"Duration":292207,"SoundDuration":292207,"Delta":273416897},{"NoteNumber":71,"Velocity":47,"Duration":292207,"SoundDuration":292207,"Delta":273416897},{"NoteNumber":64,"Velocity":47,"Duration":292207,"SoundDuration":292207,"Delta":273416897},{"NoteNumber":65,"Velocity":51,"Duration":1145721,"SoundDuration":1145721,"Delta":273709105},{"NoteNumber":68,"Velocity":51,"Duration":1145721,"SoundDuration":1145721,"Delta":273709105},{"NoteNumber":71,"Velocity":51,"Duration":1145721,"SoundDuration":1145721,"Delta":273709105},{"NoteNumber":77,"Velocity":61,"Duration":1145721,"SoundDuration":1145721,"Delta":273709105},{"NoteNumber":74,"Velocity":51,"Duration":1145721,"SoundDuration":1145721,"Delta":273709105},{"NoteNumber":50,"Velocity":57,"Duration":573248,"SoundDuration":573248,"Delta":274293520},{"NoteNumber":40,"Velocity":48,"Duration":573248,"SoundDuration":573248,"Delta":274293520},{"NoteNumber":68,"Velocity":45,"Duration":1167494,"SoundDuration":1167494,"Delta":274866769},{"NoteNumber":65,"Velocity":45,"Duration":1167494,"SoundDuration":1167494,"Delta":274866769},{"NoteNumber":71,"Velocity":45,"Duration":1167494,"SoundDuration":1167494,"Delta":274866769},{"NoteNumber":74,"Velocity":54,"Duration":1167494,"SoundDuration":1167494,"Delta":274866769},{"NoteNumber":47,"Velocity":46,"Duration":372671,"SoundDuration":372671,"Delta":274866769},{"NoteNumber":56,"Velocity":55,"Duration":372671,"SoundDuration":372671,"Delta":274866769},{"NoteNumber":50,"Velocity":47,"Duration":215054,"SoundDuration":215054,"Delta":275239440},{"NoteNumber":57,"Velocity":56,"Duration":215054,"SoundDuration":215054,"Delta":275239440},{"NoteNumber":56,"Velocity":44,"Duration":1202275,"SoundDuration":1202275,"Delta":275454494},{"NoteNumber":59,"Velocity":62,"Duration":1202275,"SoundDuration":1202275,"Delta":275454494},{"NoteNumber":68,"Velocity":43,"Duration":1232961,"SoundDuration":1232961,"Delta":276046599},{"NoteNumber":65,"Velocity":43,"Duration":1232961,"SoundDuration":1232961,"Delta":276046599},{"NoteNumber":62,"Velocity":43,"Duration":1232961,"SoundDuration":1232961,"Delta":276046599},{"NoteNumber":71,"Velocity":51,"Duration":1232961,"SoundDuration":1232961,"Delta":276046599},{"NoteNumber":40,"Velocity":37,"Duration":1295381,"SoundDuration":1295381,"Delta":276656769},{"NoteNumber":50,"Velocity":44,"Duration":1295381,"SoundDuration":1295381,"Delta":276656769},{"NoteNumber":59,"Velocity":40,"Duration":1367171,"SoundDuration":1367171,"Delta":277292811},{"NoteNumber":68,"Velocity":48,"Duration":1367171,"SoundDuration":1367171,"Delta":277292811},{"NoteNumber":62,"Velocity":40,"Duration":1367171,"SoundDuration":1367171,"Delta":277292811},{"NoteNumber":65,"Velocity":40,"Duration":1367171,"SoundDuration":1367171,"Delta":277292811},{"NoteNumber":47,"Velocity":32,"Duration":1717366,"SoundDuration":1717366,"Delta":277952151},{"NoteNumber":56,"Velocity":38,"Duration":1717366,"SoundDuration":1717366,"Delta":277952151},{"NoteNumber":59,"Velocity":37,"Duration":984805,"SoundDuration":984805,"Delta":278675043},{"NoteNumber":62,"Velocity":45,"Duration":984805,"SoundDuration":984805,"Delta":278675043},{"NoteNumber":59,"Velocity":36,"Duration":3188404,"SoundDuration":3188404,"Delta":279669518},{"NoteNumber":56,"Velocity":29,"Duration":3188404,"SoundDuration":3188404,"Delta":279669518},{"NoteNumber":40,"Velocity":28,"Duration":3188404,"SoundDuration":3188404,"Delta":279669518},{"NoteNumber":50,"Velocity":33,"Duration":3188404,"SoundDuration":3188404,"Delta":279669518},{"NoteNumber":65,"Velocity":40,"Duration":149626,"SoundDuration":149626,"Delta":283075314},{"NoteNumber":69,"Velocity":40,"Duration":130922,"SoundDuration":130922,"Delta":283094017},{"NoteNumber":77,"Velocity":54,"Duration":112219,"SoundDuration":112219,"Delta":283112721},{"NoteNumber":41,"Velocity":32,"Duration":74813,"SoundDuration":74813,"Delta":283112721},{"NoteNumber":48,"Velocity":29,"Duration":74813,"SoundDuration":74813,"Delta":283262347},{"NoteNumber":53,"Velocity":27,"Duration":74813,"SoundDuration":74813,"Delta":283411973},{"NoteNumber":57,"Velocity":32,"Duration":74813,"SoundDuration":74813,"Delta":283411973},{"NoteNumber":48,"Velocity":29,"Duration":74813,"SoundDuration":74813,"Delta":283411973},{"NoteNumber":53,"Velocity":30,"Duration":74813,"SoundDuration":74813,"Delta":283561599},{"NoteNumber":57,"Velocity":35,"Duration":74813,"SoundDuration":74813,"Delta":283561599},{"NoteNumber":41,"Velocity":33,"Duration":74813,"SoundDuration":74813,"Delta":283561599},{"NoteNumber":58,"Velocity":31,"Duration":74812,"SoundDuration":74812,"Delta":283711225},{"NoteNumber":55,"Velocity":27,"Duration":74812,"SoundDuration":74812,"Delta":283711225},{"NoteNumber":48,"Velocity":26,"Duration":74812,"SoundDuration":74812,"Delta":283711225},{"NoteNumber":57,"Velocity":27,"Duration":74813,"SoundDuration":74813,"Delta":283860851},{"NoteNumber":60,"Velocity":31,"Duration":74813,"SoundDuration":74813,"Delta":283860851},{"NoteNumber":48,"Velocity":26,"Duration":74813,"SoundDuration":74813,"Delta":283860851},{"NoteNumber":58,"Velocity":30,"Duration":74813,"SoundDuration":74813,"Delta":284010477},{"NoteNumber":62,"Velocity":35,"Duration":74813,"SoundDuration":74813,"Delta":284010477},{"NoteNumber":41,"Velocity":33,"Duration":74813,"SoundDuration":74813,"Delta":284010477},{"NoteNumber":57,"Velocity":27,"Duration":76923,"SoundDuration":76923,"Delta":284160103},{"NoteNumber":60,"Velocity":32,"Duration":76923,"SoundDuration":76923,"Delta":284160103},{"NoteNumber":48,"Velocity":27,"Duration":76923,"SoundDuration":76923,"Delta":284160103},{"NoteNumber":65,"Velocity":40,"Duration":150401,"SoundDuration":150401,"Delta":284275487},{"NoteNumber":69,"Velocity":40,"Duration":131170,"SoundDuration":131170,"Delta":284294718},{"NoteNumber":77,"Velocity":52,"Duration":111940,"SoundDuration":111940,"Delta":284313949},{"NoteNumber":48,"Velocity":27,"Duration":74626,"SoundDuration":74626,"Delta":284313949},{"NoteNumber":53,"Velocity":30,"Duration":74626,"SoundDuration":74626,"Delta":284463202},{"NoteNumber":57,"Velocity":35,"Duration":74626,"SoundDuration":74626,"Delta":284463202},{"NoteNumber":41,"Velocity":36,"Duration":74626,"SoundDuration":74626,"Delta":284463202},{"NoteNumber":58,"Velocity":31,"Duration":74626,"SoundDuration":74626,"Delta":284612456},{"NoteNumber":55,"Velocity":27,"Duration":74626,"SoundDuration":74626,"Delta":284612456},{"NoteNumber":48,"Velocity":29,"Duration":74626,"SoundDuration":74626,"Delta":284612456},{"NoteNumber":60,"Velocity":31,"Duration":74626,"SoundDuration":74626,"Delta":284761709},{"NoteNumber":57,"Velocity":27,"Duration":74626,"SoundDuration":74626,"Delta":284761709},{"NoteNumber":48,"Velocity":29,"Duration":74626,"SoundDuration":74626,"Delta":284761709},{"NoteNumber":62,"Velocity":35,"Duration":74626,"SoundDuration":74626,"Delta":284910963},{"NoteNumber":58,"Velocity":30,"Duration":74626,"SoundDuration":74626,"Delta":284910963},{"NoteNumber":41,"Velocity":33,"Duration":74626,"SoundDuration":74626,"Delta":284910963},{"NoteNumber":60,"Velocity":32,"Duration":74626,"SoundDuration":74626,"Delta":285060216},{"NoteNumber":57,"Velocity":27,"Duration":74626,"SoundDuration":74626,"Delta":285060216},{"NoteNumber":48,"Velocity":26,"Duration":74626,"SoundDuration":74626,"Delta":285060216},{"NoteNumber":58,"Velocity":27,"Duration":74626,"SoundDuration":74626,"Delta":285209470},{"NoteNumber":62,"Velocity":31,"Duration":74626,"SoundDuration":74626,"Delta":285209470},{"NoteNumber":48,"Velocity":26,"Duration":74626,"SoundDuration":74626,"Delta":285209470},{"NoteNumber":64,"Velocity":35,"Duration":74626,"SoundDuration":74626,"Delta":285358723},{"NoteNumber":60,"Velocity":30,"Duration":74626,"SoundDuration":74626,"Delta":285358723},{"NoteNumber":41,"Velocity":33,"Duration":74626,"SoundDuration":74626,"Delta":285358723},{"NoteNumber":65,"Velocity":32,"Duration":74626,"SoundDuration":74626,"Delta":285507977},{"NoteNumber":62,"Velocity":27,"Duration":74626,"SoundDuration":74626,"Delta":285507977},{"NoteNumber":48,"Velocity":27,"Duration":74626,"SoundDuration":74626,"Delta":285507977},{"NoteNumber":67,"Velocity":31,"Duration":76336,"SoundDuration":76336,"Delta":285657230},{"NoteNumber":64,"Velocity":27,"Duration":76336,"SoundDuration":76336,"Delta":285657230},{"NoteNumber":48,"Velocity":27,"Duration":76336,"SoundDuration":76336,"Delta":285657230},{"NoteNumber":65,"Velocity":36,"Duration":517629,"SoundDuration":517629,"Delta":285809902},{"NoteNumber":69,"Velocity":43,"Duration":517629,"SoundDuration":517629,"Delta":285809902},{"NoteNumber":41,"Velocity":36,"Duration":85714,"SoundDuration":85714,"Delta":285809902},{"NoteNumber":48,"Velocity":29,"Duration":85714,"SoundDuration":85714,"Delta":285981331},{"NoteNumber":48,"Velocity":29,"Duration":91185,"SoundDuration":91185,"Delta":286152759},{"NoteNumber":72,"Velocity":37,"Duration":337644,"SoundDuration":337644,"Delta":286335130},{"NoteNumber":69,"Velocity":31,"Duration":344828,"SoundDuration":344828,"Delta":286335130},{"NoteNumber":41,"Velocity":33,"Duration":86207,"SoundDuration":86207,"Delta":286335130},{"NoteNumber":48,"Velocity":26,"Duration":86207,"SoundDuration":86207,"Delta":286507544},{"NoteNumber":72,"Velocity":38,"Duration":199335,"SoundDuration":199335,"Delta":286679958},{"NoteNumber":77,"Velocity":45,"Duration":199335,"SoundDuration":199335,"Delta":286679958},{"NoteNumber":48,"Velocity":26,"Duration":99667,"SoundDuration":99667,"Delta":286679958},{"NoteNumber":81,"Velocity":52,"Duration":517242,"SoundDuration":517242,"Delta":286879294},{"NoteNumber":77,"Velocity":44,"Duration":517242,"SoundDuration":517242,"Delta":286879294},{"NoteNumber":41,"Velocity":33,"Duration":86207,"SoundDuration":86207,"Delta":286879294},{"NoteNumber":48,"Velocity":27,"Duration":86207,"SoundDuration":86207,"Delta":287051708},{"NoteNumber":48,"Velocity":27,"Duration":86207,"SoundDuration":86207,"Delta":287224122},{"NoteNumber":69,"Velocity":38,"Duration":541639,"SoundDuration":541639,"Delta":287396536},{"NoteNumber":65,"Velocity":32,"Duration":541639,"SoundDuration":541639,"Delta":287396536},{"NoteNumber":41,"Velocity":33,"Duration":86207,"SoundDuration":86207,"Delta":287396536},{"NoteNumber":48,"Velocity":27,"Duration":86207,"SoundDuration":86207,"Delta":287568950},{"NoteNumber":48,"Velocity":27,"Duration":94339,"SoundDuration":94339,"Delta":287749496},{"NoteNumber":41,"Velocity":33,"Duration":86207,"SoundDuration":86207,"Delta":287938175},{"NoteNumber":48,"Velocity":27,"Duration":86207,"SoundDuration":86207,"Delta":288110589},{"NoteNumber":48,"Velocity":27,"Duration":86207,"SoundDuration":86207,"Delta":288283003},{"NoteNumber":77,"Velocity":48,"Duration":531876,"SoundDuration":531876,"Delta":288455417},{"NoteNumber":81,"Velocity":57,"Duration":531876,"SoundDuration":531876,"Delta":288455417},{"NoteNumber":41,"Velocity":36,"Duration":86207,"SoundDuration":86207,"Delta":288455417},{"NoteNumber":48,"Velocity":31,"Duration":86207,"SoundDuration":86207,"Delta":288627831},{"NoteNumber":48,"Velocity":32,"Duration":94339,"SoundDuration":94339,"Delta":288808378},{"NoteNumber":73,"Velocity":53,"Duration":149626,"SoundDuration":149626,"Delta":288949887},{"NoteNumber":81,"Velocity":57,"Duration":130922,"SoundDuration":130922,"Delta":288968590},{"NoteNumber":85,"Velocity":61,"Duration":112219,"SoundDuration":112219,"Delta":288987293},{"NoteNumber":40,"Velocity":32,"Duration":74813,"SoundDuration":74813,"Delta":288987293},{"NoteNumber":49,"Velocity":29,"Duration":74813,"SoundDuration":74813,"Delta":289136919},{"NoteNumber":57,"Velocity":27,"Duration":74813,"SoundDuration":74813,"Delta":289286545},{"NoteNumber":61,"Velocity":32,"Duration":74813,"SoundDuration":74813,"Delta":289286545},{"NoteNumber":49,"Velocity":29,"Duration":74813,"SoundDuration":74813,"Delta":289286545},{"NoteNumber":57,"Velocity":30,"Duration":74813,"SoundDuration":74813,"Delta":289436171},{"NoteNumber":61,"Velocity":35,"Duration":74813,"SoundDuration":74813,"Delta":289436171},{"NoteNumber":40,"Velocity":33,"Duration":74813,"SoundDuration":74813,"Delta":289436171},{"NoteNumber":59,"Velocity":27,"Duration":74812,"SoundDuration":74812,"Delta":289585797},{"NoteNumber":62,"Velocity":31,"Duration":74812,"SoundDuration":74812,"Delta":289585797},{"NoteNumber":49,"Velocity":26,"Duration":74812,"SoundDuration":74812,"Delta":289585797},{"NoteNumber":64,"Velocity":31,"Duration":74813,"SoundDuration":74813,"Delta":289735423},{"NoteNumber":61,"Velocity":27,"Duration":74813,"SoundDuration":74813,"Delta":289735423},{"NoteNumber":49,"Velocity":26,"Duration":74813,"SoundDuration":74813,"Delta":289735423},{"NoteNumber":62,"Velocity":30,"Duration":74813,"SoundDuration":74813,"Delta":289885049},{"NoteNumber":66,"Velocity":35,"Duration":74813,"SoundDuration":74813,"Delta":289885049},{"NoteNumber":40,"Velocity":33,"Duration":74813,"SoundDuration":74813,"Delta":289885049},{"NoteNumber":61,"Velocity":27,"Duration":76923,"SoundDuration":76923,"Delta":290034675},{"NoteNumber":64,"Velocity":32,"Duration":76923,"SoundDuration":76923,"Delta":290034675},{"NoteNumber":49,"Velocity":27,"Duration":76923,"SoundDuration":76923,"Delta":290034675},{"NoteNumber":69,"Velocity":40,"Duration":111940,"SoundDuration":111940,"Delta":290188521},{"NoteNumber":73,"Velocity":52,"Duration":111940,"SoundDuration":111940,"Delta":290188521},{"NoteNumber":49,"Velocity":27,"Duration":74626,"SoundDuration":74626,"Delta":290188521},{"NoteNumber":57,"Velocity":30,"Duration":74626,"SoundDuration":74626,"Delta":290337775},{"NoteNumber":61,"Velocity":35,"Duration":74626,"SoundDuration":74626,"Delta":290337775},{"NoteNumber":40,"Velocity":36,"Duration":74626,"SoundDuration":74626,"Delta":290337775},{"NoteNumber":59,"Velocity":27,"Duration":74626,"SoundDuration":74626,"Delta":290487028},{"NoteNumber":62,"Velocity":31,"Duration":74626,"SoundDuration":74626,"Delta":290487028},{"NoteNumber":49,"Velocity":29,"Duration":74626,"SoundDuration":74626,"Delta":290487028},{"NoteNumber":61,"Velocity":27,"Duration":74626,"SoundDuration":74626,"Delta":290636282},{"NoteNumber":64,"Velocity":31,"Duration":74626,"SoundDuration":74626,"Delta":290636282},{"NoteNumber":49,"Velocity":29,"Duration":74626,"SoundDuration":74626,"Delta":290636282},{"NoteNumber":62,"Velocity":30,"Duration":74626,"SoundDuration":74626,"Delta":290785535},{"NoteNumber":66,"Velocity":35,"Duration":74626,"SoundDuration":74626,"Delta":290785535},{"NoteNumber":40,"Velocity":33,"Duration":74626,"SoundDuration":74626,"Delta":290785535},{"NoteNumber":61,"Velocity":27,"Duration":74626,"SoundDuration":74626,"Delta":290934789},{"NoteNumber":64,"Velocity":32,"Duration":74626,"SoundDuration":74626,"Delta":290934789},{"NoteNumber":49,"Velocity":26,"Duration":74626,"SoundDuration":74626,"Delta":290934789},{"NoteNumber":66,"Velocity":31,"Duration":74626,"SoundDuration":74626,"Delta":291084042},{"NoteNumber":62,"Velocity":27,"Duration":74626,"SoundDuration":74626,"Delta":291084042},{"NoteNumber":49,"Velocity":26,"Duration":74626,"SoundDuration":74626,"Delta":291084042},{"NoteNumber":64,"Velocity":30,"Duration":74626,"SoundDuration":74626,"Delta":291233296},{"NoteNumber":68,"Velocity":35,"Duration":74626,"SoundDuration":74626,"Delta":291233296},{"NoteNumber":40,"Velocity":33,"Duration":74626,"SoundDuration":74626,"Delta":291233296},{"NoteNumber":69,"Velocity":32,"Duration":74626,"SoundDuration":74626,"Delta":291382549},{"NoteNumber":66,"Velocity":27,"Duration":74626,"SoundDuration":74626,"Delta":291382549},{"NoteNumber":49,"Velocity":27,"Duration":74626,"SoundDuration":74626,"Delta":291382549},{"NoteNumber":68,"Velocity":27,"Duration":76336,"SoundDuration":76336,"Delta":291531803},{"NoteNumber":71,"Velocity":31,"Duration":76336,"SoundDuration":76336,"Delta":291531803},{"NoteNumber":49,"Velocity":27,"Duration":76336,"SoundDuration":76336,"Delta":291531803},{"NoteNumber":61,"Velocity":36,"Duration":563395,"SoundDuration":563395,"Delta":291646307},{"NoteNumber":67,"Velocity":36,"Duration":550673,"SoundDuration":550673,"Delta":291659030},{"NoteNumber":69,"Velocity":36,"Duration":537950,"SoundDuration":537950,"Delta":291671752},{"NoteNumber":73,"Velocity":43,"Duration":525227,"SoundDuration":525227,"Delta":291684475},{"NoteNumber":39,"Velocity":36,"Duration":85714,"SoundDuration":85714,"Delta":291684475},{"NoteNumber":49,"Velocity":29,"Duration":85714,"SoundDuration":85714,"Delta":291855903},{"NoteNumber":49,"Velocity":29,"Duration":91185,"SoundDuration":91185,"Delta":292027332},{"NoteNumber":78,"Velocity":45,"Duration":344828,"SoundDuration":344828,"Delta":292209703},{"NoteNumber":73,"Velocity":31,"Duration":344828,"SoundDuration":344828,"Delta":292209703},{"NoteNumber":66,"Velocity":31,"Duration":344828,"SoundDuration":344828,"Delta":292209703},{"NoteNumber":39,"Velocity":33,"Duration":86207,"SoundDuration":86207,"Delta":292209703},{"NoteNumber":49,"Velocity":26,"Duration":86207,"SoundDuration":86207,"Delta":292382117},{"NoteNumber":67,"Velocity":38,"Duration":141195,"SoundDuration":141195,"Delta":292554531},{"NoteNumber":73,"Velocity":38,"Duration":141195,"SoundDuration":141195,"Delta":292554531},{"NoteNumber":79,"Velocity":51,"Duration":141195,"SoundDuration":141195,"Delta":292554531},{"NoteNumber":49,"Velocity":26,"Duration":99667,"SoundDuration":99667,"Delta":292554531},{"NoteNumber":73,"Velocity":44,"Duration":559891,"SoundDuration":559891,"Delta":292704033},{"NoteNumber":79,"Velocity":44,"Duration":550464,"SoundDuration":550464,"Delta":292720644},{"NoteNumber":81,"Velocity":44,"Duration":526669,"SoundDuration":526669,"Delta":292737255},{"NoteNumber":85,"Velocity":52,"Duration":510058,"SoundDuration":510058,"Delta":292753866},{"NoteNumber":39,"Velocity":33,"Duration":86207,"SoundDuration":86207,"Delta":292753866},{"NoteNumber":49,"Velocity":27,"Duration":86207,"SoundDuration":86207,"Delta":292926280},{"NoteNumber":49,"Velocity":27,"Duration":86207,"SoundDuration":86207,"Delta":293098694},{"NoteNumber":79,"Velocity":32,"Duration":541639,"SoundDuration":541639,"Delta":293271108},{"NoteNumber":81,"Velocity":38,"Duration":541639,"SoundDuration":541639,"Delta":293271108},{"NoteNumber":69,"Velocity":32,"Duration":541639,"SoundDuration":541639,"Delta":293271108},{"NoteNumber":73,"Velocity":32,"Duration":541639,"SoundDuration":541639,"Delta":293271108},{"NoteNumber":39,"Velocity":33,"Duration":86207,"SoundDuration":86207,"Delta":293271108},{"NoteNumber":49,"Velocity":27,"Duration":86207,"SoundDuration":86207,"Delta":293443522},{"NoteNumber":49,"Velocity":27,"Duration":94339,"SoundDuration":94339,"Delta":293624069},{"NoteNumber":39,"Velocity":33,"Duration":86207,"SoundDuration":86207,"Delta":293812748},{"NoteNumber":49,"Velocity":27,"Duration":86207,"SoundDuration":86207,"Delta":293985162},{"NoteNumber":49,"Velocity":27,"Duration":86207,"SoundDuration":86207,"Delta":294157576},{"NoteNumber":69,"Velocity":48,"Duration":531876,"SoundDuration":531876,"Delta":294329990},{"NoteNumber":73,"Velocity":48,"Duration":531876,"SoundDuration":531876,"Delta":294329990},{"NoteNumber":81,"Velocity":57,"Duration":531876,"SoundDuration":531876,"Delta":294329990},{"NoteNumber":79,"Velocity":48,"Duration":531876,"SoundDuration":531876,"Delta":294329990},{"NoteNumber":39,"Velocity":36,"Duration":86207,"SoundDuration":86207,"Delta":294329990},{"NoteNumber":49,"Velocity":31,"Duration":86207,"SoundDuration":86207,"Delta":294502404},{"NoteNumber":49,"Velocity":32,"Duration":94339,"SoundDuration":94339,"Delta":294682950},{"NoteNumber":74,"Velocity":46,"Duration":149626,"SoundDuration":149626,"Delta":294824460},{"NoteNumber":78,"Velocity":46,"Duration":137157,"SoundDuration":137157,"Delta":294836929},{"NoteNumber":81,"Velocity":46,"Duration":124688,"SoundDuration":124688,"Delta":294849397},{"NoteNumber":86,"Velocity":64,"Duration":112219,"SoundDuration":112219,"Delta":294861866},{"NoteNumber":38,"Velocity":32,"Duration":74813,"SoundDuration":74813,"Delta":294861866},{"NoteNumber":50,"Velocity":29,"Duration":74813,"SoundDuration":74813,"Delta":295011492},{"NoteNumber":62,"Velocity":27,"Duration":74813,"SoundDuration":74813,"Delta":295161118},{"NoteNumber":66,"Velocity":32,"Duration":74813,"SoundDuration":74813,"Delta":295161118},{"NoteNumber":50,"Velocity":29,"Duration":74813,"SoundDuration":74813,"Delta":295161118},{"NoteNumber":66,"Velocity":35,"Duration":74813,"SoundDuration":74813,"Delta":295310744},{"NoteNumber":62,"Velocity":30,"Duration":74813,"SoundDuration":74813,"Delta":295310744},{"NoteNumber":38,"Velocity":33,"Duration":74813,"SoundDuration":74813,"Delta":295310744},{"NoteNumber":67,"Velocity":31,"Duration":74812,"SoundDuration":74812,"Delta":295460370},{"NoteNumber":64,"Velocity":27,"Duration":74812,"SoundDuration":74812,"Delta":295460370},{"NoteNumber":50,"Velocity":26,"Duration":74812,"SoundDuration":74812,"Delta":295460370},{"NoteNumber":66,"Velocity":27,"Duration":74813,"SoundDuration":74813,"Delta":295609996},{"NoteNumber":69,"Velocity":31,"Duration":74813,"SoundDuration":74813,"Delta":295609996},{"NoteNumber":50,"Velocity":26,"Duration":74813,"SoundDuration":74813,"Delta":295609996},{"NoteNumber":71,"Velocity":35,"Duration":74813,"SoundDuration":74813,"Delta":295759622},{"NoteNumber":67,"Velocity":30,"Duration":74813,"SoundDuration":74813,"Delta":295759622},{"NoteNumber":38,"Velocity":33,"Duration":74813,"SoundDuration":74813,"Delta":295759622},{"NoteNumber":69,"Velocity":32,"Duration":76923,"SoundDuration":76923,"Delta":295909248},{"NoteNumber":66,"Velocity":27,"Duration":76923,"SoundDuration":76923,"Delta":295909248},{"NoteNumber":50,"Velocity":27,"Duration":76923,"SoundDuration":76923,"Delta":295909248},{"NoteNumber":74,"Velocity":50,"Duration":150401,"SoundDuration":150401,"Delta":296024633},{"NoteNumber":78,"Velocity":50,"Duration":131170,"SoundDuration":131170,"Delta":296043863},{"NoteNumber":86,"Velocity":64,"Duration":111940,"SoundDuration":111940,"Delta":296063094},{"NoteNumber":50,"Velocity":29,"Duration":74626,"SoundDuration":74626,"Delta":296063094},{"NoteNumber":62,"Velocity":30,"Duration":74626,"SoundDuration":74626,"Delta":296212348},{"NoteNumber":66,"Velocity":35,"Duration":74626,"SoundDuration":74626,"Delta":296212348},{"NoteNumber":38,"Velocity":36,"Duration":74626,"SoundDuration":74626,"Delta":296212348},{"NoteNumber":67,"Velocity":31,"Duration":74626,"SoundDuration":74626,"Delta":296361601},{"NoteNumber":64,"Velocity":27,"Duration":74626,"SoundDuration":74626,"Delta":296361601},{"NoteNumber":50,"Velocity":29,"Duration":74626,"SoundDuration":74626,"Delta":296361601},{"NoteNumber":66,"Velocity":28,"Duration":74626,"SoundDuration":74626,"Delta":296510855},{"NoteNumber":69,"Velocity":32,"Duration":74626,"SoundDuration":74626,"Delta":296510855},{"NoteNumber":50,"Velocity":30,"Duration":74626,"SoundDuration":74626,"Delta":296510855},{"NoteNumber":67,"Velocity":32,"Duration":74626,"SoundDuration":74626,"Delta":296660108},{"NoteNumber":71,"Velocity":37,"Duration":74626,"SoundDuration":74626,"Delta":296660108},{"NoteNumber":38,"Velocity":35,"Duration":74626,"SoundDuration":74626,"Delta":296660108},{"NoteNumber":69,"Velocity":35,"Duration":74626,"SoundDuration":74626,"Delta":296809362},{"NoteNumber":66,"Velocity":29,"Duration":74626,"SoundDuration":74626,"Delta":296809362},{"NoteNumber":50,"Velocity":28,"Duration":74626,"SoundDuration":74626,"Delta":296809362},{"NoteNumber":67,"Velocity":30,"Duration":74626,"SoundDuration":74626,"Delta":296958615},{"NoteNumber":71,"Velocity":35,"Duration":74626,"SoundDuration":74626,"Delta":296958615},{"NoteNumber":50,"Velocity":29,"Duration":74626,"SoundDuration":74626,"Delta":296958615},{"NoteNumber":69,"Velocity":34,"Duration":74626,"SoundDuration":74626,"Delta":297107869},{"NoteNumber":73,"Velocity":40,"Duration":74626,"SoundDuration":74626,"Delta":297107869},{"NoteNumber":38,"Velocity":38,"Duration":74626,"SoundDuration":74626,"Delta":297107869},{"NoteNumber":74,"Velocity":38,"Duration":74626,"SoundDuration":74626,"Delta":297257122},{"NoteNumber":71,"Velocity":32,"Duration":74626,"SoundDuration":74626,"Delta":297257122},{"NoteNumber":50,"Velocity":32,"Duration":74626,"SoundDuration":74626,"Delta":297257122},{"NoteNumber":76,"Velocity":37,"Duration":76336,"SoundDuration":76336,"Delta":297406376},{"NoteNumber":73,"Velocity":32,"Duration":76336,"SoundDuration":76336,"Delta":297406376},{"NoteNumber":50,"Velocity":32,"Duration":76336,"SoundDuration":76336,"Delta":297406376},{"NoteNumber":81,"Velocity":53,"Duration":525227,"SoundDuration":525227,"Delta":297559048},{"NoteNumber":77,"Velocity":38,"Duration":517629,"SoundDuration":517629,"Delta":297559048},{"NoteNumber":69,"Velocity":38,"Duration":525227,"SoundDuration":525227,"Delta":297559048},{"NoteNumber":38,"Velocity":45,"Duration":85714,"SoundDuration":85714,"Delta":297559048},{"NoteNumber":50,"Velocity":36,"Duration":85714,"SoundDuration":85714,"Delta":297730476},{"NoteNumber":50,"Velocity":36,"Duration":91185,"SoundDuration":91185,"Delta":297901905},{"NoteNumber":74,"Velocity":44,"Duration":344828,"SoundDuration":344828,"Delta":298084276},{"NoteNumber":77,"Velocity":44,"Duration":344828,"SoundDuration":344828,"Delta":298084276},{"NoteNumber":86,"Velocity":52,"Duration":344828,"SoundDuration":344828,"Delta":298084276},{"NoteNumber":38,"Velocity":41,"Duration":86207,"SoundDuration":86207,"Delta":298084276},{"NoteNumber":50,"Velocity":32,"Duration":86207,"SoundDuration":86207,"Delta":298256690},{"NoteNumber":81,"Velocity":53,"Duration":191029,"SoundDuration":191029,"Delta":298429104},{"NoteNumber":76,"Velocity":53,"Duration":199335,"SoundDuration":199335,"Delta":298429104},{"NoteNumber":88,"Velocity":63,"Duration":199335,"SoundDuration":199335,"Delta":298429104},{"NoteNumber":50,"Velocity":40,"Duration":99667,"SoundDuration":99667,"Delta":298429104},{"NoteNumber":81,"Velocity":58,"Duration":517242,"SoundDuration":517242,"Delta":298628439},{"NoteNumber":93,"Velocity":69,"Duration":517242,"SoundDuration":517242,"Delta":298628439},{"NoteNumber":89,"Velocity":58,"Duration":517242,"SoundDuration":517242,"Delta":298628439},{"NoteNumber":38,"Velocity":48,"Duration":86207,"SoundDuration":86207,"Delta":298628439},{"NoteNumber":50,"Velocity":33,"Duration":86207,"SoundDuration":86207,"Delta":298800853},{"NoteNumber":50,"Velocity":33,"Duration":86207,"SoundDuration":86207,"Delta":298973267},{"NoteNumber":86,"Velocity":51,"Duration":352960,"SoundDuration":352960,"Delta":299145681},{"NoteNumber":77,"Velocity":51,"Duration":352960,"SoundDuration":352960,"Delta":299145681},{"NoteNumber":89,"Velocity":60,"Duration":352960,"SoundDuration":352960,"Delta":299145681},{"NoteNumber":38,"Velocity":41,"Duration":86207,"SoundDuration":86207,"Delta":299145681},{"NoteNumber":50,"Velocity":33,"Duration":86207,"SoundDuration":86207,"Delta":299318095},{"NoteNumber":81,"Velocity":48,"Duration":141509,"SoundDuration":141509,"Delta":299498642},{"NoteNumber":93,"Velocity":57,"Duration":141509,"SoundDuration":141509,"Delta":299498642},{"NoteNumber":89,"Velocity":48,"Duration":141509,"SoundDuration":141509,"Delta":299498642},{"NoteNumber":50,"Velocity":33,"Duration":94339,"SoundDuration":94339,"Delta":299498642},{"NoteNumber":82,"Velocity":55,"Duration":149626,"SoundDuration":149626,"Delta":299640151},{"NoteNumber":88,"Velocity":55,"Duration":137157,"SoundDuration":137157,"Delta":299652620},{"NoteNumber":91,"Velocity":55,"Duration":124688,"SoundDuration":124688,"Delta":299665089},{"NoteNumber":96,"Velocity":77,"Duration":112219,"SoundDuration":112219,"Delta":299677557},{"NoteNumber":36,"Velocity":35,"Duration":74813,"SoundDuration":74813,"Delta":299677557},{"NoteNumber":43,"Velocity":31,"Duration":74813,"SoundDuration":74813,"Delta":299827183},{"NoteNumber":60,"Velocity":29,"Duration":74813,"SoundDuration":74813,"Delta":299976809},{"NoteNumber":64,"Velocity":35,"Duration":74813,"SoundDuration":74813,"Delta":299976809},{"NoteNumber":48,"Velocity":31,"Duration":74813,"SoundDuration":74813,"Delta":299976809},{"NoteNumber":64,"Velocity":38,"Duration":74813,"SoundDuration":74813,"Delta":300126435},{"NoteNumber":60,"Velocity":33,"Duration":74813,"SoundDuration":74813,"Delta":300126435},{"NoteNumber":36,"Velocity":36,"Duration":74813,"SoundDuration":74813,"Delta":300126435},{"NoteNumber":65,"Velocity":34,"Duration":74812,"SoundDuration":74812,"Delta":300276061},{"NoteNumber":62,"Velocity":29,"Duration":74812,"SoundDuration":74812,"Delta":300276061},{"NoteNumber":43,"Velocity":28,"Duration":74812,"SoundDuration":74812,"Delta":300276061},{"NoteNumber":64,"Velocity":29,"Duration":74813,"SoundDuration":74813,"Delta":300425687},{"NoteNumber":67,"Velocity":34,"Duration":74813,"SoundDuration":74813,"Delta":300425687},{"NoteNumber":48,"Velocity":28,"Duration":74813,"SoundDuration":74813,"Delta":300425687},{"NoteNumber":69,"Velocity":38,"Duration":74813,"SoundDuration":74813,"Delta":300575313},{"NoteNumber":65,"Velocity":33,"Duration":74813,"SoundDuration":74813,"Delta":300575313},{"NoteNumber":36,"Velocity":36,"Duration":74813,"SoundDuration":74813,"Delta":300575313},{"NoteNumber":67,"Velocity":35,"Duration":76923,"SoundDuration":76923,"Delta":300724939},{"NoteNumber":64,"Velocity":29,"Duration":76923,"SoundDuration":76923,"Delta":300724939},{"NoteNumber":43,"Velocity":29,"Duration":76923,"SoundDuration":76923,"Delta":300724939},{"NoteNumber":72,"Velocity":50,"Duration":150401,"SoundDuration":150401,"Delta":300840324},{"NoteNumber":76,"Velocity":50,"Duration":137581,"SoundDuration":137581,"Delta":300853144},{"NoteNumber":82,"Velocity":50,"Duration":124760,"SoundDuration":124760,"Delta":300865965},{"NoteNumber":84,"Velocity":65,"Duration":111940,"SoundDuration":111940,"Delta":300878785},{"NoteNumber":48,"Velocity":29,"Duration":74626,"SoundDuration":74626,"Delta":300878785},{"NoteNumber":64,"Velocity":38,"Duration":74626,"SoundDuration":74626,"Delta":301028039},{"NoteNumber":60,"Velocity":33,"Duration":74626,"SoundDuration":74626,"Delta":301028039},{"NoteNumber":36,"Velocity":39,"Duration":74626,"SoundDuration":74626,"Delta":301028039},{"NoteNumber":62,"Velocity":29,"Duration":74626,"SoundDuration":74626,"Delta":301177292},{"NoteNumber":65,"Velocity":34,"Duration":74626,"SoundDuration":74626,"Delta":301177292},{"NoteNumber":43,"Velocity":31,"Duration":74626,"SoundDuration":74626,"Delta":301177292},{"NoteNumber":64,"Velocity":30,"Duration":74626,"SoundDuration":74626,"Delta":301326546},{"NoteNumber":67,"Velocity":35,"Duration":74626,"SoundDuration":74626,"Delta":301326546},{"NoteNumber":48,"Velocity":33,"Duration":74626,"SoundDuration":74626,"Delta":301326546},{"NoteNumber":69,"Velocity":40,"Duration":74626,"SoundDuration":74626,"Delta":301475799},{"NoteNumber":65,"Velocity":35,"Duration":74626,"SoundDuration":74626,"Delta":301475799},{"NoteNumber":36,"Velocity":38,"Duration":74626,"SoundDuration":74626,"Delta":301475799},{"NoteNumber":64,"Velocity":31,"Duration":74626,"SoundDuration":74626,"Delta":301625053},{"NoteNumber":67,"Velocity":38,"Duration":74626,"SoundDuration":74626,"Delta":301625053},{"NoteNumber":43,"Velocity":30,"Duration":74626,"SoundDuration":74626,"Delta":301625053},{"NoteNumber":65,"Velocity":33,"Duration":74626,"SoundDuration":74626,"Delta":301774306},{"NoteNumber":69,"Velocity":38,"Duration":74626,"SoundDuration":74626,"Delta":301774306},{"NoteNumber":48,"Velocity":31,"Duration":74626,"SoundDuration":74626,"Delta":301774306},{"NoteNumber":67,"Velocity":37,"Duration":74626,"SoundDuration":74626,"Delta":301923560},{"NoteNumber":70,"Velocity":44,"Duration":74626,"SoundDuration":74626,"Delta":301923560},{"NoteNumber":36,"Velocity":41,"Duration":74626,"SoundDuration":74626,"Delta":301923560},{"NoteNumber":72,"Velocity":41,"Duration":74626,"SoundDuration":74626,"Delta":302072813},{"NoteNumber":69,"Velocity":35,"Duration":74626,"SoundDuration":74626,"Delta":302072813},{"NoteNumber":43,"Velocity":35,"Duration":74626,"SoundDuration":74626,"Delta":302072813},{"NoteNumber":70,"Velocity":35,"Duration":76336,"SoundDuration":76336,"Delta":302222067},{"NoteNumber":74,"Velocity":40,"Duration":76336,"SoundDuration":76336,"Delta":302222067},{"NoteNumber":48,"Velocity":35,"Duration":76336,"SoundDuration":76336,"Delta":302222067},{"NoteNumber":76,"Velocity":41,"Duration":563395,"SoundDuration":563395,"Delta":302336571},{"NoteNumber":82,"Velocity":41,"Duration":521515,"SoundDuration":521515,"Delta":302355655},{"NoteNumber":88,"Velocity":58,"Duration":525227,"SoundDuration":525227,"Delta":302374739},{"NoteNumber":36,"Velocity":49,"Duration":85714,"SoundDuration":85714,"Delta":302374739},{"NoteNumber":43,"Velocity":39,"Duration":85714,"SoundDuration":85714,"Delta":302546167},{"NoteNumber":48,"Velocity":39,"Duration":91185,"SoundDuration":91185,"Delta":302717596},{"NoteNumber":78,"Velocity":48,"Duration":344828,"SoundDuration":344828,"Delta":302899967},{"NoteNumber":90,"Velocity":57,"Duration":344828,"SoundDuration":344828,"Delta":302899967},{"NoteNumber":82,"Velocity":48,"Duration":344828,"SoundDuration":344828,"Delta":302899967},{"NoteNumber":36,"Velocity":45,"Duration":86207,"SoundDuration":86207,"Delta":302899967},{"NoteNumber":43,"Velocity":35,"Duration":86207,"SoundDuration":86207,"Delta":303072381},{"NoteNumber":79,"Velocity":58,"Duration":149501,"SoundDuration":149501,"Delta":303244795},{"NoteNumber":82,"Velocity":58,"Duration":149501,"SoundDuration":149501,"Delta":303244795},{"NoteNumber":91,"Velocity":69,"Duration":149501,"SoundDuration":149501,"Delta":303244795},{"NoteNumber":48,"Velocity":44,"Duration":99667,"SoundDuration":99667,"Delta":303244795},{"NoteNumber":88,"Velocity":63,"Duration":545524,"SoundDuration":545524,"Delta":303394297},{"NoteNumber":94,"Velocity":63,"Duration":520607,"SoundDuration":520607,"Delta":303419214},{"NoteNumber":100,"Velocity":75,"Duration":517242,"SoundDuration":517242,"Delta":303444130},{"NoteNumber":36,"Velocity":52,"Duration":86207,"SoundDuration":86207,"Delta":303444130},{"NoteNumber":43,"Velocity":36,"Duration":86207,"SoundDuration":86207,"Delta":303616544},{"NoteNumber":48,"Velocity":36,"Duration":86207,"SoundDuration":86207,"Delta":303788958},{"NoteNumber":82,"Velocity":56,"Duration":352960,"SoundDuration":352960,"Delta":303961372},{"NoteNumber":88,"Velocity":56,"Duration":352960,"SoundDuration":352960,"Delta":303961372},{"NoteNumber":94,"Velocity":66,"Duration":352960,"SoundDuration":352960,"Delta":303961372},{"NoteNumber":36,"Velocity":45,"Duration":86207,"SoundDuration":86207,"Delta":303961372},{"NoteNumber":43,"Velocity":36,"Duration":86207,"SoundDuration":86207,"Delta":304133786},{"NoteNumber":100,"Velocity":62,"Duration":141509,"SoundDuration":141509,"Delta":304314333},{"NoteNumber":88,"Velocity":52,"Duration":141509,"SoundDuration":141509,"Delta":304314333},{"NoteNumber":94,"Velocity":52,"Duration":141509,"SoundDuration":141509,"Delta":304314333},{"NoteNumber":48,"Velocity":36,"Duration":94339,"SoundDuration":94339,"Delta":304314333},{"NoteNumber":91,"Velocity":78,"Duration":149830,"SoundDuration":149830,"Delta":304455842},{"NoteNumber":94,"Velocity":78,"Duration":130746,"SoundDuration":130746,"Delta":304474926},{"NoteNumber":103,"Velocity":93,"Duration":111662,"SoundDuration":111662,"Delta":304494010},{"NoteNumber":36,"Velocity":60,"Duration":74441,"SoundDuration":74441,"Delta":304495871},{"NoteNumber":43,"Velocity":49,"Duration":74441,"SoundDuration":74441,"Delta":304642894},{"NoteNumber":70,"Velocity":54,"Duration":74441,"SoundDuration":74441,"Delta":304791777},{"NoteNumber":67,"Velocity":45,"Duration":74441,"SoundDuration":74441,"Delta":304791777},{"NoteNumber":48,"Velocity":49,"Duration":74441,"SoundDuration":74441,"Delta":304791777},{"NoteNumber":67,"Velocity":51,"Duration":74441,"SoundDuration":74441,"Delta":304940661},{"NoteNumber":70,"Velocity":60,"Duration":74441,"SoundDuration":74441,"Delta":304940661},{"NoteNumber":36,"Velocity":57,"Duration":74441,"SoundDuration":74441,"Delta":304940661},{"NoteNumber":69,"Velocity":46,"Duration":74441,"SoundDuration":74441,"Delta":305089544},{"NoteNumber":72,"Velocity":56,"Duration":74441,"SoundDuration":74441,"Delta":305089544},{"NoteNumber":43,"Velocity":46,"Duration":74441,"SoundDuration":74441,"Delta":305089544},{"NoteNumber":70,"Velocity":48,"Duration":74441,"SoundDuration":74441,"Delta":305238428},{"NoteNumber":74,"Velocity":57,"Duration":74441,"SoundDuration":74441,"Delta":305238428},{"NoteNumber":48,"Velocity":47,"Duration":74441,"SoundDuration":74441,"Delta":305238428},{"NoteNumber":72,"Velocity":55,"Duration":74441,"SoundDuration":74441,"Delta":305387311},{"NoteNumber":76,"Velocity":65,"Duration":74441,"SoundDuration":74441,"Delta":305387311},{"NoteNumber":36,"Velocity":62,"Duration":74441,"SoundDuration":74441,"Delta":305387311},{"NoteNumber":74,"Velocity":61,"Duration":76923,"SoundDuration":76923,"Delta":305536195},{"NoteNumber":70,"Velocity":51,"Duration":76923,"SoundDuration":76923,"Delta":305536195},{"NoteNumber":43,"Velocity":52,"Duration":76923,"SoundDuration":76923,"Delta":305536195},{"NoteNumber":79,"Velocity":78,"Duration":150401,"SoundDuration":150401,"Delta":305651579},{"NoteNumber":82,"Velocity":78,"Duration":131170,"SoundDuration":131170,"Delta":305670810},{"NoteNumber":91,"Velocity":93,"Duration":111940,"SoundDuration":111940,"Delta":305690041},{"NoteNumber":48,"Velocity":53,"Duration":74626,"SoundDuration":74626,"Delta":305690041},{"NoteNumber":86,"Velocity":65,"Duration":74626,"SoundDuration":74626,"Delta":305839294},{"NoteNumber":82,"Velocity":54,"Duration":74626,"SoundDuration":74626,"Delta":305839294},{"NoteNumber":74,"Velocity":54,"Duration":74626,"SoundDuration":74626,"Delta":305839294},{"NoteNumber":36,"Velocity":66,"Duration":74626,"SoundDuration":74626,"Delta":305839294},{"NoteNumber":84,"Velocity":50,"Duration":74626,"SoundDuration":74626,"Delta":305988548},{"NoteNumber":76,"Velocity":50,"Duration":74626,"SoundDuration":74626,"Delta":305988548},{"NoteNumber":88,"Velocity":60,"Duration":74626,"SoundDuration":74626,"Delta":305988548},{"NoteNumber":43,"Velocity":55,"Duration":74626,"SoundDuration":74626,"Delta":305988548},{"NoteNumber":86,"Velocity":51,"Duration":74626,"SoundDuration":74626,"Delta":306137801},{"NoteNumber":89,"Velocity":62,"Duration":74626,"SoundDuration":74626,"Delta":306137801},{"NoteNumber":77,"Velocity":51,"Duration":74626,"SoundDuration":74626,"Delta":306137801},{"NoteNumber":48,"Velocity":56,"Duration":74626,"SoundDuration":74626,"Delta":306137801},{"NoteNumber":88,"Velocity":59,"Duration":74626,"SoundDuration":74626,"Delta":306287055},{"NoteNumber":79,"Velocity":59,"Duration":74626,"SoundDuration":74626,"Delta":306287055},{"NoteNumber":91,"Velocity":71,"Duration":74626,"SoundDuration":74626,"Delta":306287055},{"NoteNumber":36,"Velocity":67,"Duration":74626,"SoundDuration":74626,"Delta":306287055},{"NoteNumber":89,"Velocity":56,"Duration":74626,"SoundDuration":74626,"Delta":306436308},{"NoteNumber":81,"Velocity":56,"Duration":74626,"SoundDuration":74626,"Delta":306436308},{"NoteNumber":93,"Velocity":66,"Duration":74626,"SoundDuration":74626,"Delta":306436308},{"NoteNumber":43,"Velocity":54,"Duration":74626,"SoundDuration":74626,"Delta":306436308},{"NoteNumber":82,"Velocity":56,"Duration":74626,"SoundDuration":74626,"Delta":306585562},{"NoteNumber":94,"Velocity":67,"Duration":74626,"SoundDuration":74626,"Delta":306585562},{"NoteNumber":91,"Velocity":56,"Duration":74626,"SoundDuration":74626,"Delta":306585562},{"NoteNumber":48,"Velocity":55,"Duration":74626,"SoundDuration":74626,"Delta":306585562},{"NoteNumber":82,"Velocity":64,"Duration":74626,"SoundDuration":74626,"Delta":306734815},{"NoteNumber":91,"Velocity":64,"Duration":74626,"SoundDuration":74626,"Delta":306734815},{"NoteNumber":94,"Velocity":77,"Duration":74626,"SoundDuration":74626,"Delta":306734815},{"NoteNumber":36,"Velocity":72,"Duration":74626,"SoundDuration":74626,"Delta":306734815},{"NoteNumber":91,"Velocity":60,"Duration":76923,"SoundDuration":76923,"Delta":306884069},{"NoteNumber":94,"Velocity":72,"Duration":76923,"SoundDuration":76923,"Delta":306884069},{"NoteNumber":82,"Velocity":60,"Duration":76923,"SoundDuration":76923,"Delta":306884069},{"NoteNumber":43,"Velocity":61,"Duration":76923,"SoundDuration":76923,"Delta":306884069},{"NoteNumber":94,"Velocity":72,"Duration":82873,"SoundDuration":82873,"Delta":307037915},{"NoteNumber":82,"Velocity":61,"Duration":82873,"SoundDuration":82873,"Delta":307037915},{"NoteNumber":91,"Velocity":61,"Duration":82873,"SoundDuration":82873,"Delta":307037915},{"NoteNumber":48,"Velocity":62,"Duration":82873,"SoundDuration":82873,"Delta":307037915},{"NoteNumber":83,"Velocity":76,"Duration":616667,"SoundDuration":616667,"Delta":307203661},{"NoteNumber":91,"Velocity":76,"Duration":616667,"SoundDuration":616667,"Delta":307203661},{"NoteNumber":95,"Velocity":90,"Duration":616667,"SoundDuration":616667,"Delta":307203661},{"NoteNumber":35,"Velocity":80,"Duration":78328,"SoundDuration":78328,"Delta":307203661},{"NoteNumber":43,"Velocity":57,"Duration":76142,"SoundDuration":76142,"Delta":307360319},{"NoteNumber":47,"Velocity":58,"Duration":76142,"SoundDuration":76142,"Delta":307512603},{"NoteNumber":35,"Velocity":75,"Duration":77720,"SoundDuration":77720,"Delta":307664888},{"NoteNumber":90,"Velocity":68,"Duration":76142,"SoundDuration":76142,"Delta":307820328},{"NoteNumber":93,"Velocity":81,"Duration":76142,"SoundDuration":76142,"Delta":307820328},{"NoteNumber":81,"Velocity":68,"Duration":76142,"SoundDuration":76142,"Delta":307820328},{"NoteNumber":43,"Velocity":57,"Duration":76142,"SoundDuration":76142,"Delta":307820328},{"NoteNumber":79,"Velocity":68,"Duration":76142,"SoundDuration":76142,"Delta":307972613},{"NoteNumber":91,"Velocity":81,"Duration":76142,"SoundDuration":76142,"Delta":307972613},{"NoteNumber":88,"Velocity":68,"Duration":76142,"SoundDuration":76142,"Delta":307972613},{"NoteNumber":47,"Velocity":58,"Duration":76142,"SoundDuration":76142,"Delta":307972613},{"NoteNumber":90,"Velocity":76,"Duration":616663,"SoundDuration":616663,"Delta":308124897},{"NoteNumber":93,"Velocity":90,"Duration":616663,"SoundDuration":616663,"Delta":308124897},{"NoteNumber":81,"Velocity":76,"Duration":616663,"SoundDuration":616663,"Delta":308124897},{"NoteNumber":35,"Velocity":76,"Duration":77922,"SoundDuration":77922,"Delta":308124897},{"NoteNumber":42,"Velocity":61,"Duration":76142,"SoundDuration":76142,"Delta":308280741},{"NoteNumber":47,"Velocity":61,"Duration":76142,"SoundDuration":76142,"Delta":308433026},{"NoteNumber":35,"Velocity":80,"Duration":78125,"SoundDuration":78125,"Delta":308585310},{"NoteNumber":91,"Velocity":81,"Duration":75949,"SoundDuration":75949,"Delta":308741560},{"NoteNumber":79,"Velocity":68,"Duration":75949,"SoundDuration":75949,"Delta":308741560},{"NoteNumber":88,"Velocity":68,"Duration":75949,"SoundDuration":75949,"Delta":308741560},{"NoteNumber":42,"Velocity":57,"Duration":75949,"SoundDuration":75949,"Delta":308741560},{"NoteNumber":87,"Velocity":68,"Duration":75949,"SoundDuration":75949,"Delta":308893459},{"NoteNumber":90,"Velocity":81,"Duration":75949,"SoundDuration":75949,"Delta":308893459},{"NoteNumber":78,"Velocity":68,"Duration":75949,"SoundDuration":75949,"Delta":308893459},{"NoteNumber":47,"Velocity":58,"Duration":75949,"SoundDuration":75949,"Delta":308893459},{"NoteNumber":88,"Velocity":76,"Duration":77319,"SoundDuration":77319,"Delta":309045357},{"NoteNumber":91,"Velocity":90,"Duration":77319,"SoundDuration":77319,"Delta":309045357},{"NoteNumber":79,"Velocity":76,"Duration":77319,"SoundDuration":77319,"Delta":309045357},{"NoteNumber":35,"Velocity":75,"Duration":77319,"SoundDuration":77319,"Delta":309045357},{"NoteNumber":87,"Velocity":68,"Duration":75949,"SoundDuration":75949,"Delta":309199996},{"NoteNumber":78,"Velocity":68,"Duration":75949,"SoundDuration":75949,"Delta":309199996},{"NoteNumber":90,"Velocity":81,"Duration":75949,"SoundDuration":75949,"Delta":309199996},{"NoteNumber":40,"Velocity":57,"Duration":75949,"SoundDuration":75949,"Delta":309199996},{"NoteNumber":76,"Velocity":68,"Duration":75949,"SoundDuration":75949,"Delta":309351895},{"NoteNumber":88,"Velocity":81,"Duration":75949,"SoundDuration":75949,"Delta":309351895},{"NoteNumber":85,"Velocity":68,"Duration":75949,"SoundDuration":75949,"Delta":309351895},{"NoteNumber":47,"Velocity":58,"Duration":75949,"SoundDuration":75949,"Delta":309351895},{"NoteNumber":87,"Velocity":76,"Duration":75949,"SoundDuration":75949,"Delta":309503793},{"NoteNumber":90,"Velocity":90,"Duration":75949,"SoundDuration":75949,"Delta":309503793},{"NoteNumber":78,"Velocity":76,"Duration":75949,"SoundDuration":75949,"Delta":309503793},{"NoteNumber":35,"Velocity":76,"Duration":75949,"SoundDuration":75949,"Delta":309503793},{"NoteNumber":39,"Velocity":61,"Duration":78740,"SoundDuration":78740,"Delta":309655692},{"NoteNumber":71,"Velocity":68,"Duration":83798,"SoundDuration":83798,"Delta":309813172},{"NoteNumber":83,"Velocity":81,"Duration":83798,"SoundDuration":83798,"Delta":309813172},{"NoteNumber":47,"Velocity":61,"Duration":83798,"SoundDuration":83798,"Delta":309813172},{"NoteNumber":85,"Velocity":76,"Duration":616667,"SoundDuration":616667,"Delta":309980770},{"NoteNumber":97,"Velocity":90,"Duration":616667,"SoundDuration":616667,"Delta":309980770},{"NoteNumber":93,"Velocity":76,"Duration":616667,"SoundDuration":616667,"Delta":309980770},{"NoteNumber":28,"Velocity":80,"Duration":78328,"SoundDuration":78328,"Delta":309980770},{"NoteNumber":35,"Velocity":57,"Duration":76142,"SoundDuration":76142,"Delta":310137428},{"NoteNumber":40,"Velocity":58,"Duration":76142,"SoundDuration":76142,"Delta":310289713},{"NoteNumber":28,"Velocity":75,"Duration":77720,"SoundDuration":77720,"Delta":310441997},{"NoteNumber":95,"Velocity":81,"Duration":76142,"SoundDuration":76142,"Delta":310597438},{"NoteNumber":83,"Velocity":68,"Duration":76142,"SoundDuration":76142,"Delta":310597438},{"NoteNumber":92,"Velocity":68,"Duration":76142,"SoundDuration":76142,"Delta":310597438},{"NoteNumber":35,"Velocity":57,"Duration":76142,"SoundDuration":76142,"Delta":310597438},{"NoteNumber":81,"Velocity":68,"Duration":76142,"SoundDuration":76142,"Delta":310749722},{"NoteNumber":90,"Velocity":68,"Duration":76142,"SoundDuration":76142,"Delta":310749722},{"NoteNumber":93,"Velocity":81,"Duration":76142,"SoundDuration":76142,"Delta":310749722},{"NoteNumber":40,"Velocity":58,"Duration":76142,"SoundDuration":76142,"Delta":310749722},{"NoteNumber":95,"Velocity":90,"Duration":616663,"SoundDuration":616663,"Delta":310902007},{"NoteNumber":92,"Velocity":76,"Duration":616663,"SoundDuration":616663,"Delta":310902007},{"NoteNumber":83,"Velocity":76,"Duration":616663,"SoundDuration":616663,"Delta":310902007},{"NoteNumber":28,"Velocity":76,"Duration":77922,"SoundDuration":77922,"Delta":310902007},{"NoteNumber":35,"Velocity":61,"Duration":76142,"SoundDuration":76142,"Delta":311057851},{"NoteNumber":40,"Velocity":61,"Duration":76142,"SoundDuration":76142,"Delta":311210135},{"NoteNumber":28,"Velocity":80,"Duration":78125,"SoundDuration":78125,"Delta":311362420},{"NoteNumber":81,"Velocity":68,"Duration":75949,"SoundDuration":75949,"Delta":311518670},{"NoteNumber":93,"Velocity":81,"Duration":75949,"SoundDuration":75949,"Delta":311518670},{"NoteNumber":90,"Velocity":68,"Duration":75949,"SoundDuration":75949,"Delta":311518670},{"NoteNumber":35,"Velocity":57,"Duration":75949,"SoundDuration":75949,"Delta":311518670},{"NoteNumber":88,"Velocity":68,"Duration":75949,"SoundDuration":75949,"Delta":311670568},{"NoteNumber":80,"Velocity":68,"Duration":75949,"SoundDuration":75949,"Delta":311670568},{"NoteNumber":92,"Velocity":81,"Duration":75949,"SoundDuration":75949,"Delta":311670568},{"NoteNumber":40,"Velocity":58,"Duration":75949,"SoundDuration":75949,"Delta":311670568},{"NoteNumber":93,"Velocity":90,"Duration":77319,"SoundDuration":77319,"Delta":311822467},{"NoteNumber":90,"Velocity":76,"Duration":77319,"SoundDuration":77319,"Delta":311822467},{"NoteNumber":81,"Velocity":76,"Duration":77319,"SoundDuration":77319,"Delta":311822467},{"NoteNumber":28,"Velocity":75,"Duration":77319,"SoundDuration":77319,"Delta":311822467},{"NoteNumber":88,"Velocity":68,"Duration":75949,"SoundDuration":75949,"Delta":311977106},{"NoteNumber":80,"Velocity":68,"Duration":75949,"SoundDuration":75949,"Delta":311977106},{"NoteNumber":92,"Velocity":81,"Duration":75949,"SoundDuration":75949,"Delta":311977106},{"NoteNumber":35,"Velocity":57,"Duration":75949,"SoundDuration":75949,"Delta":311977106},{"NoteNumber":90,"Velocity":81,"Duration":75949,"SoundDuration":75949,"Delta":312129004},{"NoteNumber":78,"Velocity":68,"Duration":75949,"SoundDuration":75949,"Delta":312129004},{"NoteNumber":87,"Velocity":68,"Duration":75949,"SoundDuration":75949,"Delta":312129004},{"NoteNumber":40,"Velocity":58,"Duration":75949,"SoundDuration":75949,"Delta":312129004},{"NoteNumber":80,"Velocity":76,"Duration":75949,"SoundDuration":75949,"Delta":312280903},{"NoteNumber":92,"Velocity":90,"Duration":75949,"SoundDuration":75949,"Delta":312280903},{"NoteNumber":88,"Velocity":76,"Duration":75949,"SoundDuration":75949,"Delta":312280903},{"NoteNumber":28,"Velocity":76,"Duration":75949,"SoundDuration":75949,"Delta":312280903},{"NoteNumber":35,"Velocity":61,"Duration":78740,"SoundDuration":78740,"Delta":312432801},{"NoteNumber":76,"Velocity":68,"Duration":83798,"SoundDuration":83798,"Delta":312590282},{"NoteNumber":88,"Velocity":81,"Duration":83798,"SoundDuration":83798,"Delta":312590282},{"NoteNumber":40,"Velocity":61,"Duration":83798,"SoundDuration":83798,"Delta":312590282},{"NoteNumber":95,"Velocity":97,"Duration":83798,"SoundDuration":83798,"Delta":312757880},{"NoteNumber":92,"Velocity":97,"Duration":83798,"SoundDuration":83798,"Delta":312757880},{"NoteNumber":88,"Velocity":82,"Duration":83798,"SoundDuration":83798,"Delta":312757880},{"NoteNumber":100,"Velocity":97,"Duration":83798,"SoundDuration":83798,"Delta":312757880},{"NoteNumber":28,"Velocity":71,"Duration":83798,"SoundDuration":83798,"Delta":312757880},{"NoteNumber":52,"Velocity":53,"Duration":354399,"SoundDuration":354399,"Delta":313051176},{"NoteNumber":59,"Velocity":53,"Duration":333449,"SoundDuration":333449,"Delta":313072126},{"NoteNumber":88,"Velocity":77,"Duration":357143,"SoundDuration":357143,"Delta":313093076},{"NoteNumber":95,"Velocity":91,"Duration":357143,"SoundDuration":357143,"Delta":313093076},{"NoteNumber":83,"Velocity":77,"Duration":357143,"SoundDuration":357143,"Delta":313093076},{"NoteNumber":68,"Velocity":63,"Duration":312500,"SoundDuration":312500,"Delta":313093076},{"NoteNumber":52,"Velocity":53,"Duration":535714,"SoundDuration":535714,"Delta":313405576},{"NoteNumber":61,"Velocity":53,"Duration":513393,"SoundDuration":513393,"Delta":313427897},{"NoteNumber":88,"Velocity":77,"Duration":535714,"SoundDuration":535714,"Delta":313450219},{"NoteNumber":97,"Velocity":91,"Duration":535714,"SoundDuration":535714,"Delta":313450219},{"NoteNumber":85,"Velocity":77,"Duration":535714,"SoundDuration":535714,"Delta":313450219},{"NoteNumber":69,"Velocity":63,"Duration":491071,"SoundDuration":491071,"Delta":313450219},{"NoteNumber":52,"Velocity":52,"Duration":311736,"SoundDuration":311736,"Delta":313941290},{"NoteNumber":57,"Velocity":52,"Duration":296855,"SoundDuration":296855,"Delta":313956171},{"NoteNumber":61,"Velocity":52,"Duration":281974,"SoundDuration":281974,"Delta":313971052},{"NoteNumber":88,"Velocity":75,"Duration":267093,"SoundDuration":267093,"Delta":313985933},{"NoteNumber":93,"Velocity":89,"Duration":267093,"SoundDuration":267093,"Delta":313985933},{"NoteNumber":81,"Velocity":75,"Duration":267093,"SoundDuration":267093,"Delta":313985933},{"NoteNumber":66,"Velocity":62,"Duration":267093,"SoundDuration":267093,"Delta":313985933},{"NoteNumber":88,"Velocity":67,"Duration":88140,"SoundDuration":88140,"Delta":314253027},{"NoteNumber":83,"Velocity":67,"Duration":88140,"SoundDuration":88140,"Delta":314253027},{"NoteNumber":95,"Velocity":79,"Duration":88140,"SoundDuration":88140,"Delta":314253027},{"NoteNumber":59,"Velocity":46,"Duration":40064,"SoundDuration":40064,"Delta":314253027},{"NoteNumber":68,"Velocity":55,"Duration":40064,"SoundDuration":40064,"Delta":314253027},{"NoteNumber":52,"Velocity":51,"Duration":130721,"SoundDuration":130721,"Delta":314301104},{"NoteNumber":59,"Velocity":51,"Duration":106683,"SoundDuration":106683,"Delta":314325142},{"NoteNumber":88,"Velocity":74,"Duration":82644,"SoundDuration":82644,"Delta":314349181},{"NoteNumber":83,"Velocity":74,"Duration":82644,"SoundDuration":82644,"Delta":314349181},{"NoteNumber":95,"Velocity":88,"Duration":82644,"SoundDuration":82644,"Delta":314349181},{"NoteNumber":68,"Velocity":61,"Duration":82644,"SoundDuration":82644,"Delta":314349181},{"NoteNumber":40,"Velocity":53,"Duration":357587,"SoundDuration":357587,"Delta":314638437},{"NoteNumber":47,"Velocity":53,"Duration":336926,"SoundDuration":336926,"Delta":314659099},{"NoteNumber":83,"Velocity":81,"Duration":361446,"SoundDuration":361446,"Delta":314679760},{"NoteNumber":76,"Velocity":69,"Duration":361446,"SoundDuration":361446,"Delta":314679760},{"NoteNumber":71,"Velocity":69,"Duration":361446,"SoundDuration":361446,"Delta":314679760},{"NoteNumber":56,"Velocity":63,"Duration":316265,"SoundDuration":316265,"Delta":314679760},{"NoteNumber":40,"Velocity":53,"Duration":542169,"SoundDuration":542169,"Delta":314996025},{"NoteNumber":49,"Velocity":53,"Duration":519578,"SoundDuration":519578,"Delta":315018615},{"NoteNumber":76,"Velocity":69,"Duration":542169,"SoundDuration":542169,"Delta":315041206},{"NoteNumber":85,"Velocity":81,"Duration":542169,"SoundDuration":542169,"Delta":315041206},{"NoteNumber":73,"Velocity":69,"Duration":542169,"SoundDuration":542169,"Delta":315041206},{"NoteNumber":57,"Velocity":63,"Duration":496988,"SoundDuration":496988,"Delta":315041206},{"NoteNumber":40,"Velocity":52,"Duration":320609,"SoundDuration":320609,"Delta":315538194},{"NoteNumber":45,"Velocity":52,"Duration":305548,"SoundDuration":305548,"Delta":315553254},{"NoteNumber":49,"Velocity":52,"Duration":290488,"SoundDuration":290488,"Delta":315568314},{"NoteNumber":69,"Velocity":67,"Duration":267011,"SoundDuration":267011,"Delta":315583375},{"NoteNumber":76,"Velocity":67,"Duration":267011,"SoundDuration":267011,"Delta":315583375},{"NoteNumber":81,"Velocity":80,"Duration":267011,"SoundDuration":267011,"Delta":315583375},{"NoteNumber":54,"Velocity":62,"Duration":275428,"SoundDuration":275428,"Delta":315583375},{"NoteNumber":76,"Velocity":60,"Duration":92592,"SoundDuration":92592,"Delta":315858803},{"NoteNumber":83,"Velocity":71,"Duration":92592,"SoundDuration":92592,"Delta":315858803},{"NoteNumber":71,"Velocity":60,"Duration":92592,"SoundDuration":92592,"Delta":315858803},{"NoteNumber":47,"Velocity":46,"Duration":92592,"SoundDuration":92592,"Delta":315858803},{"NoteNumber":56,"Velocity":55,"Duration":92592,"SoundDuration":92592,"Delta":315858803},{"NoteNumber":71,"Velocity":66,"Duration":84033,"SoundDuration":84033,"Delta":315959813},{"NoteNumber":76,"Velocity":66,"Duration":84033,"SoundDuration":84033,"Delta":315959813},{"NoteNumber":83,"Velocity":79,"Duration":84033,"SoundDuration":84033,"Delta":315959813},{"NoteNumber":28,"Velocity":60,"Duration":84033,"SoundDuration":84033,"Delta":315959813},{"NoteNumber":35,"Velocity":49,"Duration":75949,"SoundDuration":75949,"Delta":316127880},{"NoteNumber":76,"Velocity":67,"Duration":186981,"SoundDuration":186981,"Delta":316241804},{"NoteNumber":80,"Velocity":67,"Duration":167993,"SoundDuration":167993,"Delta":316260791},{"NoteNumber":88,"Velocity":80,"Duration":149006,"SoundDuration":149006,"Delta":316279779},{"NoteNumber":40,"Velocity":49,"Duration":99337,"SoundDuration":99337,"Delta":316279779},{"NoteNumber":52,"Velocity":67,"Duration":75949,"SoundDuration":75949,"Delta":316478454},{"NoteNumber":64,"Velocity":79,"Duration":75949,"SoundDuration":75949,"Delta":316478454},{"NoteNumber":28,"Velocity":56,"Duration":75949,"SoundDuration":75949,"Delta":316478454},{"NoteNumber":35,"Velocity":44,"Duration":75949,"SoundDuration":75949,"Delta":316630353},{"NoteNumber":40,"Velocity":44,"Duration":75949,"SoundDuration":75949,"Delta":316782251},{"NoteNumber":28,"Velocity":56,"Duration":75949,"SoundDuration":75949,"Delta":316934150},{"NoteNumber":35,"Velocity":46,"Duration":75949,"SoundDuration":75949,"Delta":317086048},{"NoteNumber":76,"Velocity":67,"Duration":186489,"SoundDuration":186489,"Delta":317199972},{"NoteNumber":80,"Velocity":67,"Duration":167502,"SoundDuration":167502,"Delta":317218959},{"NoteNumber":88,"Velocity":80,"Duration":148514,"SoundDuration":148514,"Delta":317237947},{"NoteNumber":40,"Velocity":46,"Duration":99010,"SoundDuration":99010,"Delta":317237947},{"NoteNumber":64,"Velocity":79,"Duration":75949,"SoundDuration":75949,"Delta":317435967},{"NoteNumber":52,"Velocity":67,"Duration":75949,"SoundDuration":75949,"Delta":317435967},{"NoteNumber":28,"Velocity":56,"Duration":75949,"SoundDuration":75949,"Delta":317435967},{"NoteNumber":35,"Velocity":44,"Duration":75949,"SoundDuration":75949,"Delta":317587865},{"NoteNumber":40,"Velocity":44,"Duration":75949,"SoundDuration":75949,"Delta":317739764},{"NoteNumber":28,"Velocity":56,"Duration":75949,"SoundDuration":75949,"Delta":317891662},{"NoteNumber":35,"Velocity":46,"Duration":75949,"SoundDuration":75949,"Delta":318043561},{"NoteNumber":40,"Velocity":46,"Duration":75949,"SoundDuration":75949,"Delta":318195459},{"NoteNumber":28,"Velocity":56,"Duration":140187,"SoundDuration":140187,"Delta":318347358},{"NoteNumber":76,"Velocity":74,"Duration":81967,"SoundDuration":81967,"Delta":318908106},{"NoteNumber":69,"Velocity":73,"Duration":81967,"SoundDuration":81967,"Delta":319072040},{"NoteNumber":73,"Velocity":87,"Duration":81967,"SoundDuration":81967,"Delta":319072040},{"NoteNumber":81,"Velocity":87,"Duration":81967,"SoundDuration":81967,"Delta":319072040},{"NoteNumber":33,"Velocity":67,"Duration":81967,"SoundDuration":81967,"Delta":319072040},{"NoteNumber":61,"Velocity":46,"Duration":78125,"SoundDuration":78125,"Delta":319235975},{"NoteNumber":64,"Velocity":55,"Duration":78125,"SoundDuration":78125,"Delta":319235975},{"NoteNumber":59,"Velocity":46,"Duration":80428,"SoundDuration":80428,"Delta":319392225},{"NoteNumber":62,"Velocity":55,"Duration":80428,"SoundDuration":80428,"Delta":319392225},{"NoteNumber":57,"Velocity":51,"Duration":149739,"SoundDuration":149739,"Delta":319553083},{"NoteNumber":61,"Velocity":60,"Duration":149739,"SoundDuration":149739,"Delta":319553083},{"NoteNumber":57,"Velocity":41,"Duration":78125,"SoundDuration":78125,"Delta":319709333},{"NoteNumber":61,"Velocity":49,"Duration":78125,"SoundDuration":78125,"Delta":319709333},{"NoteNumber":59,"Velocity":49,"Duration":79575,"SoundDuration":79575,"Delta":319865583},{"NoteNumber":52,"Velocity":41,"Duration":79575,"SoundDuration":79575,"Delta":319865583},{"NoteNumber":57,"Velocity":58,"Duration":79575,"SoundDuration":79575,"Delta":320024734},{"NoteNumber":49,"Velocity":49,"Duration":79575,"SoundDuration":79575,"Delta":320024734},{"NoteNumber":40,"Velocity":74,"Duration":81967,"SoundDuration":81967,"Delta":320343036},{"NoteNumber":45,"Velocity":87,"Duration":81967,"SoundDuration":81967,"Delta":320506970},{"NoteNumber":61,"Velocity":46,"Duration":78125,"SoundDuration":78125,"Delta":320670905},{"NoteNumber":64,"Velocity":55,"Duration":78125,"SoundDuration":78125,"Delta":320670905},{"NoteNumber":59,"Velocity":46,"Duration":80428,"SoundDuration":80428,"Delta":320827155},{"NoteNumber":62,"Velocity":55,"Duration":80428,"SoundDuration":80428,"Delta":320827155},{"NoteNumber":61,"Velocity":60,"Duration":78125,"SoundDuration":78125,"Delta":320988013},{"NoteNumber":57,"Velocity":51,"Duration":78125,"SoundDuration":78125,"Delta":320988013},{"NoteNumber":61,"Velocity":49,"Duration":78125,"SoundDuration":78125,"Delta":321144263},{"NoteNumber":57,"Velocity":41,"Duration":78125,"SoundDuration":78125,"Delta":321144263},{"NoteNumber":33,"Velocity":41,"Duration":79575,"SoundDuration":79575,"Delta":321300513},{"NoteNumber":59,"Velocity":49,"Duration":79575,"SoundDuration":79575,"Delta":321300513},{"NoteNumber":52,"Velocity":41,"Duration":79575,"SoundDuration":79575,"Delta":321300513},{"NoteNumber":49,"Velocity":49,"Duration":79575,"SoundDuration":79575,"Delta":321459664},{"NoteNumber":33,"Velocity":41,"Duration":79575,"SoundDuration":79575,"Delta":321459664},{"NoteNumber":57,"Velocity":58,"Duration":79575,"SoundDuration":79575,"Delta":321459664},{"NoteNumber":35,"Velocity":58,"Duration":79575,"SoundDuration":79575,"Delta":321618815},{"NoteNumber":69,"Velocity":74,"Duration":81967,"SoundDuration":81967,"Delta":321777966},{"NoteNumber":37,"Velocity":64,"Duration":81967,"SoundDuration":81967,"Delta":321777966},{"NoteNumber":77,"Velocity":87,"Duration":81967,"SoundDuration":81967,"Delta":321941900},{"NoteNumber":65,"Velocity":73,"Duration":81967,"SoundDuration":81967,"Delta":321941900},{"NoteNumber":38,"Velocity":67,"Duration":81967,"SoundDuration":81967,"Delta":321941900},{"NoteNumber":65,"Velocity":46,"Duration":78125,"SoundDuration":78125,"Delta":322105835},{"NoteNumber":69,"Velocity":55,"Duration":78125,"SoundDuration":78125,"Delta":322105835},{"NoteNumber":64,"Velocity":46,"Duration":80428,"SoundDuration":80428,"Delta":322262085},{"NoteNumber":67,"Velocity":55,"Duration":80428,"SoundDuration":80428,"Delta":322262085},{"NoteNumber":62,"Velocity":51,"Duration":78125,"SoundDuration":78125,"Delta":322422943},{"NoteNumber":65,"Velocity":60,"Duration":78125,"SoundDuration":78125,"Delta":322422943},{"NoteNumber":65,"Velocity":49,"Duration":78125,"SoundDuration":78125,"Delta":322579193},{"NoteNumber":62,"Velocity":41,"Duration":78125,"SoundDuration":78125,"Delta":322579193},{"NoteNumber":64,"Velocity":49,"Duration":79575,"SoundDuration":79575,"Delta":322735443},{"NoteNumber":57,"Velocity":41,"Duration":79575,"SoundDuration":79575,"Delta":322735443},{"NoteNumber":62,"Velocity":58,"Duration":79575,"SoundDuration":79575,"Delta":322894594},{"NoteNumber":53,"Velocity":49,"Duration":79575,"SoundDuration":79575,"Delta":322894594},{"NoteNumber":45,"Velocity":74,"Duration":81967,"SoundDuration":81967,"Delta":323212896},{"NoteNumber":50,"Velocity":87,"Duration":81967,"SoundDuration":81967,"Delta":323376830},{"NoteNumber":69,"Velocity":55,"Duration":78125,"SoundDuration":78125,"Delta":323540765},{"NoteNumber":65,"Velocity":46,"Duration":78125,"SoundDuration":78125,"Delta":323540765},{"NoteNumber":67,"Velocity":55,"Duration":80428,"SoundDuration":80428,"Delta":323697015},{"NoteNumber":64,"Velocity":46,"Duration":80428,"SoundDuration":80428,"Delta":323697015},{"NoteNumber":62,"Velocity":51,"Duration":78125,"SoundDuration":78125,"Delta":323857873},{"NoteNumber":65,"Velocity":60,"Duration":78125,"SoundDuration":78125,"Delta":323857873},{"NoteNumber":62,"Velocity":41,"Duration":78125,"SoundDuration":78125,"Delta":324014123},{"NoteNumber":65,"Velocity":49,"Duration":78125,"SoundDuration":78125,"Delta":324014123},{"NoteNumber":57,"Velocity":41,"Duration":79575,"SoundDuration":79575,"Delta":324170373},{"NoteNumber":64,"Velocity":49,"Duration":79575,"SoundDuration":79575,"Delta":324170373},{"NoteNumber":38,"Velocity":41,"Duration":79575,"SoundDuration":79575,"Delta":324170373},{"NoteNumber":53,"Velocity":49,"Duration":79575,"SoundDuration":79575,"Delta":324329524},{"NoteNumber":62,"Velocity":58,"Duration":79575,"SoundDuration":79575,"Delta":324329524},{"NoteNumber":38,"Velocity":41,"Duration":79575,"SoundDuration":79575,"Delta":324329524},{"NoteNumber":39,"Velocity":58,"Duration":79575,"SoundDuration":79575,"Delta":324488675},{"NoteNumber":72,"Velocity":74,"Duration":81967,"SoundDuration":81967,"Delta":324647826},{"NoteNumber":40,"Velocity":64,"Duration":81967,"SoundDuration":81967,"Delta":324647826},{"NoteNumber":81,"Velocity":87,"Duration":81967,"SoundDuration":81967,"Delta":324811760},{"NoteNumber":69,"Velocity":73,"Duration":81967,"SoundDuration":81967,"Delta":324811760},{"NoteNumber":41,"Velocity":67,"Duration":81967,"SoundDuration":81967,"Delta":324811760},{"NoteNumber":69,"Velocity":46,"Duration":78125,"SoundDuration":78125,"Delta":324975695},{"NoteNumber":72,"Velocity":55,"Duration":78125,"SoundDuration":78125,"Delta":324975695},{"NoteNumber":67,"Velocity":46,"Duration":80428,"SoundDuration":80428,"Delta":325131945},{"NoteNumber":70,"Velocity":55,"Duration":80428,"SoundDuration":80428,"Delta":325131945},{"NoteNumber":65,"Velocity":51,"Duration":78125,"SoundDuration":78125,"Delta":325292803},{"NoteNumber":69,"Velocity":60,"Duration":78125,"SoundDuration":78125,"Delta":325292803},{"NoteNumber":69,"Velocity":49,"Duration":78125,"SoundDuration":78125,"Delta":325449053},{"NoteNumber":65,"Velocity":41,"Duration":78125,"SoundDuration":78125,"Delta":325449053},{"NoteNumber":60,"Velocity":41,"Duration":79575,"SoundDuration":79575,"Delta":325605303},{"NoteNumber":67,"Velocity":49,"Duration":79575,"SoundDuration":79575,"Delta":325605303},{"NoteNumber":65,"Velocity":58,"Duration":79575,"SoundDuration":79575,"Delta":325764454},{"NoteNumber":57,"Velocity":49,"Duration":79575,"SoundDuration":79575,"Delta":325764454},{"NoteNumber":48,"Velocity":74,"Duration":81967,"SoundDuration":81967,"Delta":326082756},{"NoteNumber":53,"Velocity":87,"Duration":81967,"SoundDuration":81967,"Delta":326246690},{"NoteNumber":69,"Velocity":46,"Duration":78125,"SoundDuration":78125,"Delta":326410625},{"NoteNumber":72,"Velocity":55,"Duration":78125,"SoundDuration":78125,"Delta":326410625},{"NoteNumber":70,"Velocity":55,"Duration":80428,"SoundDuration":80428,"Delta":326566875},{"NoteNumber":67,"Velocity":46,"Duration":80428,"SoundDuration":80428,"Delta":326566875},{"NoteNumber":65,"Velocity":51,"Duration":78125,"SoundDuration":78125,"Delta":326727733},{"NoteNumber":69,"Velocity":60,"Duration":78125,"SoundDuration":78125,"Delta":326727733},{"NoteNumber":69,"Velocity":49,"Duration":78125,"SoundDuration":78125,"Delta":326883983},{"NoteNumber":65,"Velocity":41,"Duration":78125,"SoundDuration":78125,"Delta":326883983},{"NoteNumber":60,"Velocity":41,"Duration":79575,"SoundDuration":79575,"Delta":327040233},{"NoteNumber":67,"Velocity":49,"Duration":79575,"SoundDuration":79575,"Delta":327040233},{"NoteNumber":41,"Velocity":41,"Duration":79575,"SoundDuration":79575,"Delta":327040233},{"NoteNumber":65,"Velocity":58,"Duration":79575,"SoundDuration":79575,"Delta":327199384},{"NoteNumber":57,"Velocity":49,"Duration":79575,"SoundDuration":79575,"Delta":327199384},{"NoteNumber":41,"Velocity":41,"Duration":79575,"SoundDuration":79575,"Delta":327199384},{"NoteNumber":43,"Velocity":58,"Duration":79575,"SoundDuration":79575,"Delta":327358535},{"NoteNumber":77,"Velocity":74,"Duration":81967,"SoundDuration":81967,"Delta":327517686},{"NoteNumber":45,"Velocity":64,"Duration":81967,"SoundDuration":81967,"Delta":327517686},{"NoteNumber":86,"Velocity":87,"Duration":81967,"SoundDuration":81967,"Delta":327681620},{"NoteNumber":74,"Velocity":73,"Duration":81967,"SoundDuration":81967,"Delta":327681620},{"NoteNumber":46,"Velocity":67,"Duration":81967,"SoundDuration":81967,"Delta":327681620},{"NoteNumber":70,"Velocity":46,"Duration":78125,"SoundDuration":78125,"Delta":327845555},{"NoteNumber":74,"Velocity":55,"Duration":78125,"SoundDuration":78125,"Delta":327845555},{"NoteNumber":65,"Velocity":46,"Duration":80428,"SoundDuration":80428,"Delta":328001805},{"NoteNumber":72,"Velocity":55,"Duration":80428,"SoundDuration":80428,"Delta":328001805},{"NoteNumber":70,"Velocity":60,"Duration":78125,"SoundDuration":78125,"Delta":328162663},{"NoteNumber":62,"Velocity":51,"Duration":78125,"SoundDuration":78125,"Delta":328162663},{"NoteNumber":44,"Velocity":41,"Duration":78125,"SoundDuration":78125,"Delta":328318913},{"NoteNumber":45,"Velocity":41,"Duration":79575,"SoundDuration":79575,"Delta":328475163},{"NoteNumber":47,"Velocity":45,"Duration":79575,"SoundDuration":79575,"Delta":328634314},{"NoteNumber":47,"Velocity":43,"Duration":79575,"SoundDuration":79575,"Delta":328793465},{"NoteNumber":74,"Velocity":64,"Duration":81967,"SoundDuration":81967,"Delta":328952616},{"NoteNumber":48,"Velocity":45,"Duration":81967,"SoundDuration":81967,"Delta":328952616},{"NoteNumber":71,"Velocity":62,"Duration":81967,"SoundDuration":81967,"Delta":329116550},{"NoteNumber":83,"Velocity":73,"Duration":81967,"SoundDuration":81967,"Delta":329116550},{"NoteNumber":50,"Velocity":55,"Duration":81967,"SoundDuration":81967,"Delta":329116550},{"NoteNumber":68,"Velocity":46,"Duration":78125,"SoundDuration":78125,"Delta":329280485},{"NoteNumber":71,"Velocity":55,"Duration":78125,"SoundDuration":78125,"Delta":329280485},{"NoteNumber":69,"Velocity":55,"Duration":80428,"SoundDuration":80428,"Delta":329436735},{"NoteNumber":66,"Velocity":46,"Duration":80428,"SoundDuration":80428,"Delta":329436735},{"NoteNumber":65,"Velocity":51,"Duration":78125,"SoundDuration":78125,"Delta":329597593},{"NoteNumber":68,"Velocity":60,"Duration":78125,"SoundDuration":78125,"Delta":329597593},{"NoteNumber":47,"Velocity":41,"Duration":78125,"SoundDuration":78125,"Delta":329753843},{"NoteNumber":48,"Velocity":41,"Duration":79575,"SoundDuration":79575,"Delta":329910093},{"NoteNumber":50,"Velocity":45,"Duration":79575,"SoundDuration":79575,"Delta":330069244},{"NoteNumber":50,"Velocity":43,"Duration":79575,"SoundDuration":79575,"Delta":330228395},{"NoteNumber":71,"Velocity":48,"Duration":81967,"SoundDuration":81967,"Delta":330387546},{"NoteNumber":52,"Velocity":45,"Duration":81967,"SoundDuration":81967,"Delta":330387546},{"NoteNumber":68,"Velocity":49,"Duration":81967,"SoundDuration":81967,"Delta":330551480},{"NoteNumber":80,"Velocity":58,"Duration":81967,"SoundDuration":81967,"Delta":330551480},{"NoteNumber":53,"Velocity":55,"Duration":81967,"SoundDuration":81967,"Delta":330551480},{"NoteNumber":65,"Velocity":43,"Duration":78125,"SoundDuration":78125,"Delta":330715415},{"NoteNumber":68,"Velocity":51,"Duration":78125,"SoundDuration":78125,"Delta":330715415},{"NoteNumber":64,"Velocity":40,"Duration":80428,"SoundDuration":80428,"Delta":330871665},{"NoteNumber":67,"Velocity":48,"Duration":80428,"SoundDuration":80428,"Delta":330871665},{"NoteNumber":65,"Velocity":45,"Duration":78125,"SoundDuration":78125,"Delta":331032523},{"NoteNumber":62,"Velocity":38,"Duration":78125,"SoundDuration":78125,"Delta":331032523},{"NoteNumber":53,"Velocity":36,"Duration":78125,"SoundDuration":78125,"Delta":331188773},{"NoteNumber":55,"Velocity":36,"Duration":79575,"SoundDuration":79575,"Delta":331345023},{"NoteNumber":56,"Velocity":43,"Duration":79575,"SoundDuration":79575,"Delta":331504174},{"NoteNumber":56,"Velocity":39,"Duration":79575,"SoundDuration":79575,"Delta":331663325},{"NoteNumber":71,"Velocity":74,"Duration":163934,"SoundDuration":163934,"Delta":331822476},{"NoteNumber":57,"Velocity":49,"Duration":81967,"SoundDuration":81967,"Delta":331822476},{"NoteNumber":77,"Velocity":83,"Duration":81967,"SoundDuration":81967,"Delta":331986410},{"NoteNumber":65,"Velocity":71,"Duration":81967,"SoundDuration":81967,"Delta":331986410},{"NoteNumber":59,"Velocity":61,"Duration":81967,"SoundDuration":81967,"Delta":331986410},{"NoteNumber":65,"Velocity":49,"Duration":488827,"SoundDuration":488827,"Delta":332314279},{"NoteNumber":59,"Velocity":34,"Duration":488827,"SoundDuration":488827,"Delta":332314279},{"NoteNumber":62,"Velocity":41,"Duration":488827,"SoundDuration":488827,"Delta":332314279},{"NoteNumber":65,"Velocity":49,"Duration":502793,"SoundDuration":502793,"Delta":332817073},{"NoteNumber":62,"Velocity":41,"Duration":502793,"SoundDuration":502793,"Delta":332817073},{"NoteNumber":59,"Velocity":34,"Duration":502793,"SoundDuration":502793,"Delta":332817073},{"NoteNumber":71,"Velocity":74,"Duration":163934,"SoundDuration":163934,"Delta":333319867},{"NoteNumber":78,"Velocity":83,"Duration":81743,"SoundDuration":81743,"Delta":333483802},{"NoteNumber":66,"Velocity":71,"Duration":81743,"SoundDuration":81743,"Delta":333483802},{"NoteNumber":59,"Velocity":65,"Duration":81743,"SoundDuration":81743,"Delta":333483802},{"NoteNumber":63,"Velocity":65,"Duration":81743,"SoundDuration":81743,"Delta":333483802},{"NoteNumber":66,"Velocity":49,"Duration":487465,"SoundDuration":487465,"Delta":333810777},{"NoteNumber":63,"Velocity":41,"Duration":487465,"SoundDuration":487465,"Delta":333810777},{"NoteNumber":59,"Velocity":34,"Duration":487465,"SoundDuration":487465,"Delta":333810777},{"NoteNumber":66,"Velocity":49,"Duration":501393,"SoundDuration":501393,"Delta":334312170},{"NoteNumber":63,"Velocity":41,"Duration":501393,"SoundDuration":501393,"Delta":334312170},{"NoteNumber":59,"Velocity":34,"Duration":501393,"SoundDuration":501393,"Delta":334312170},{"NoteNumber":71,"Velocity":74,"Duration":163934,"SoundDuration":163934,"Delta":334813563},{"NoteNumber":77,"Velocity":71,"Duration":81743,"SoundDuration":81743,"Delta":334977497},{"NoteNumber":74,"Velocity":71,"Duration":81743,"SoundDuration":81743,"Delta":334977497},{"NoteNumber":79,"Velocity":83,"Duration":81743,"SoundDuration":81743,"Delta":334977497},{"NoteNumber":67,"Velocity":71,"Duration":81743,"SoundDuration":81743,"Delta":334977497},{"NoteNumber":62,"Velocity":55,"Duration":493641,"SoundDuration":493641,"Delta":334977497},{"NoteNumber":55,"Velocity":55,"Duration":493641,"SoundDuration":493641,"Delta":334977497},{"NoteNumber":65,"Velocity":65,"Duration":493641,"SoundDuration":493641,"Delta":334977497},{"NoteNumber":67,"Velocity":60,"Duration":486110,"SoundDuration":486110,"Delta":335304472},{"NoteNumber":79,"Velocity":71,"Duration":486110,"SoundDuration":486110,"Delta":335304472},{"NoteNumber":74,"Velocity":60,"Duration":486110,"SoundDuration":486110,"Delta":335304472},{"NoteNumber":71,"Velocity":60,"Duration":486110,"SoundDuration":486110,"Delta":335304472},{"NoteNumber":77,"Velocity":60,"Duration":486110,"SoundDuration":486110,"Delta":335304472},{"NoteNumber":71,"Velocity":62,"Duration":486110,"SoundDuration":486110,"Delta":335804472},{"NoteNumber":67,"Velocity":62,"Duration":486110,"SoundDuration":486110,"Delta":335804472},{"NoteNumber":74,"Velocity":62,"Duration":486110,"SoundDuration":486110,"Delta":335804472},{"NoteNumber":79,"Velocity":74,"Duration":499999,"SoundDuration":499999,"Delta":335804472},{"NoteNumber":77,"Velocity":62,"Duration":486110,"SoundDuration":486110,"Delta":335804472},{"NoteNumber":31,"Velocity":60,"Duration":83333,"SoundDuration":83333,"Delta":335804472},{"NoteNumber":43,"Velocity":60,"Duration":83333,"SoundDuration":83333,"Delta":335804472},{"NoteNumber":43,"Velocity":64,"Duration":83333,"SoundDuration":83333,"Delta":335971138},{"NoteNumber":31,"Velocity":64,"Duration":83333,"SoundDuration":83333,"Delta":335971138},{"NoteNumber":45,"Velocity":67,"Duration":83333,"SoundDuration":83333,"Delta":336137805},{"NoteNumber":33,"Velocity":67,"Duration":83333,"SoundDuration":83333,"Delta":336137805},{"NoteNumber":71,"Velocity":66,"Duration":152777,"SoundDuration":152777,"Delta":336304471},{"NoteNumber":74,"Velocity":66,"Duration":152777,"SoundDuration":152777,"Delta":336304471},{"NoteNumber":79,"Velocity":78,"Duration":152777,"SoundDuration":152777,"Delta":336304471},{"NoteNumber":67,"Velocity":66,"Duration":152777,"SoundDuration":152777,"Delta":336304471},{"NoteNumber":77,"Velocity":78,"Duration":152777,"SoundDuration":152777,"Delta":336304471},{"NoteNumber":35,"Velocity":70,"Duration":83333,"SoundDuration":83333,"Delta":336304471},{"NoteNumber":47,"Velocity":70,"Duration":83333,"SoundDuration":83333,"Delta":336304471},{"NoteNumber":79,"Velocity":76,"Duration":81521,"SoundDuration":81521,"Delta":336471138},{"NoteNumber":83,"Velocity":79,"Duration":81521,"SoundDuration":81521,"Delta":336471138},{"NoteNumber":89,"Velocity":83,"Duration":81521,"SoundDuration":81521,"Delta":336471138},{"NoteNumber":91,"Velocity":87,"Duration":81521,"SoundDuration":81521,"Delta":336471138},{"NoteNumber":36,"Velocity":73,"Duration":81521,"SoundDuration":81521,"Delta":336471138},{"NoteNumber":43,"Velocity":60,"Duration":81521,"SoundDuration":81521,"Delta":336634181},{"NoteNumber":77,"Velocity":60,"Duration":494505,"SoundDuration":494505,"Delta":336797225},{"NoteNumber":79,"Velocity":71,"Duration":494505,"SoundDuration":494505,"Delta":336797225},{"NoteNumber":67,"Velocity":60,"Duration":494505,"SoundDuration":494505,"Delta":336797225},{"NoteNumber":48,"Velocity":60,"Duration":82417,"SoundDuration":82417,"Delta":336797225},{"NoteNumber":36,"Velocity":70,"Duration":82417,"SoundDuration":82417,"Delta":336962060},{"NoteNumber":43,"Velocity":59,"Duration":82417,"SoundDuration":82417,"Delta":337126895},{"NoteNumber":67,"Velocity":60,"Duration":82267,"SoundDuration":82267,"Delta":337291730},{"NoteNumber":79,"Velocity":71,"Duration":82267,"SoundDuration":82267,"Delta":337291730},{"NoteNumber":77,"Velocity":60,"Duration":82267,"SoundDuration":82267,"Delta":337291730},{"NoteNumber":48,"Velocity":59,"Duration":82267,"SoundDuration":82267,"Delta":337291730},{"NoteNumber":79,"Velocity":69,"Duration":81967,"SoundDuration":81967,"Delta":337455964},{"NoteNumber":77,"Velocity":58,"Duration":81967,"SoundDuration":81967,"Delta":337455964},{"NoteNumber":67,"Velocity":58,"Duration":81967,"SoundDuration":81967,"Delta":337455964},{"NoteNumber":36,"Velocity":66,"Duration":81967,"SoundDuration":81967,"Delta":337455964},{"NoteNumber":77,"Velocity":62,"Duration":81967,"SoundDuration":81967,"Delta":337619899},{"NoteNumber":81,"Velocity":73,"Duration":81967,"SoundDuration":81967,"Delta":337619899},{"NoteNumber":69,"Velocity":62,"Duration":81967,"SoundDuration":81967,"Delta":337619899},{"NoteNumber":43,"Velocity":59,"Duration":81967,"SoundDuration":81967,"Delta":337619899},{"NoteNumber":77,"Velocity":65,"Duration":81967,"SoundDuration":81967,"Delta":337783833},{"NoteNumber":83,"Velocity":77,"Duration":81967,"SoundDuration":81967,"Delta":337783833},{"NoteNumber":71,"Velocity":65,"Duration":81967,"SoundDuration":81967,"Delta":337783833},{"NoteNumber":48,"Velocity":59,"Duration":81967,"SoundDuration":81967,"Delta":337783833},{"NoteNumber":72,"Velocity":69,"Duration":81967,"SoundDuration":81967,"Delta":337947768},{"NoteNumber":84,"Velocity":82,"Duration":81967,"SoundDuration":81967,"Delta":337947768},{"NoteNumber":76,"Velocity":69,"Duration":81967,"SoundDuration":81967,"Delta":337947768},{"NoteNumber":36,"Velocity":66,"Duration":81967,"SoundDuration":81967,"Delta":337947768},{"NoteNumber":43,"Velocity":49,"Duration":74813,"SoundDuration":74813,"Delta":338111702},{"NoteNumber":64,"Velocity":54,"Duration":74813,"SoundDuration":74813,"Delta":338261328},{"NoteNumber":60,"Velocity":45,"Duration":74813,"SoundDuration":74813,"Delta":338261328},{"NoteNumber":48,"Velocity":49,"Duration":74813,"SoundDuration":74813,"Delta":338261328},{"NoteNumber":64,"Velocity":59,"Duration":74812,"SoundDuration":74812,"Delta":338410954},{"NoteNumber":60,"Velocity":50,"Duration":74812,"SoundDuration":74812,"Delta":338410954},{"NoteNumber":36,"Velocity":56,"Duration":74812,"SoundDuration":74812,"Delta":338410954},{"NoteNumber":65,"Velocity":53,"Duration":74813,"SoundDuration":74813,"Delta":338560580},{"NoteNumber":62,"Velocity":45,"Duration":74813,"SoundDuration":74813,"Delta":338560580},{"NoteNumber":43,"Velocity":44,"Duration":74813,"SoundDuration":74813,"Delta":338560580},{"NoteNumber":64,"Velocity":45,"Duration":74813,"SoundDuration":74813,"Delta":338710206},{"NoteNumber":67,"Velocity":53,"Duration":74813,"SoundDuration":74813,"Delta":338710206},{"NoteNumber":48,"Velocity":44,"Duration":74813,"SoundDuration":74813,"Delta":338710206},{"NoteNumber":69,"Velocity":59,"Duration":74813,"SoundDuration":74813,"Delta":338859832},{"NoteNumber":65,"Velocity":50,"Duration":74813,"SoundDuration":74813,"Delta":338859832},{"NoteNumber":36,"Velocity":56,"Duration":74813,"SoundDuration":74813,"Delta":338859832},{"NoteNumber":67,"Velocity":54,"Duration":76923,"SoundDuration":76923,"Delta":339009458},{"NoteNumber":64,"Velocity":45,"Duration":76923,"SoundDuration":76923,"Delta":339009458},{"NoteNumber":43,"Velocity":46,"Duration":76923,"SoundDuration":76923,"Delta":339009458},{"NoteNumber":72,"Velocity":67,"Duration":150401,"SoundDuration":150401,"Delta":339124843},{"NoteNumber":76,"Velocity":67,"Duration":131170,"SoundDuration":131170,"Delta":339144074},{"NoteNumber":84,"Velocity":80,"Duration":111940,"SoundDuration":111940,"Delta":339163304},{"NoteNumber":48,"Velocity":46,"Duration":74626,"SoundDuration":74626,"Delta":339163304},{"NoteNumber":60,"Velocity":50,"Duration":74626,"SoundDuration":74626,"Delta":339312558},{"NoteNumber":64,"Velocity":59,"Duration":74626,"SoundDuration":74626,"Delta":339312558},{"NoteNumber":36,"Velocity":60,"Duration":74626,"SoundDuration":74626,"Delta":339312558},{"NoteNumber":62,"Velocity":45,"Duration":74626,"SoundDuration":74626,"Delta":339461811},{"NoteNumber":65,"Velocity":53,"Duration":74626,"SoundDuration":74626,"Delta":339461811},{"NoteNumber":43,"Velocity":49,"Duration":74626,"SoundDuration":74626,"Delta":339461811},{"NoteNumber":64,"Velocity":45,"Duration":74626,"SoundDuration":74626,"Delta":339611065},{"NoteNumber":67,"Velocity":53,"Duration":74626,"SoundDuration":74626,"Delta":339611065},{"NoteNumber":48,"Velocity":49,"Duration":74626,"SoundDuration":74626,"Delta":339611065},{"NoteNumber":65,"Velocity":50,"Duration":74626,"SoundDuration":74626,"Delta":339760318},{"NoteNumber":69,"Velocity":59,"Duration":74626,"SoundDuration":74626,"Delta":339760318},{"NoteNumber":36,"Velocity":56,"Duration":74626,"SoundDuration":74626,"Delta":339760318},{"NoteNumber":67,"Velocity":54,"Duration":74626,"SoundDuration":74626,"Delta":339909572},{"NoteNumber":64,"Velocity":45,"Duration":74626,"SoundDuration":74626,"Delta":339909572},{"NoteNumber":43,"Velocity":44,"Duration":74626,"SoundDuration":74626,"Delta":339909572},{"NoteNumber":69,"Velocity":53,"Duration":74626,"SoundDuration":74626,"Delta":340058825},{"NoteNumber":65,"Velocity":45,"Duration":74626,"SoundDuration":74626,"Delta":340058825},{"NoteNumber":48,"Velocity":44,"Duration":74626,"SoundDuration":74626,"Delta":340058825},{"NoteNumber":67,"Velocity":50,"Duration":74626,"SoundDuration":74626,"Delta":340208079},{"NoteNumber":71,"Velocity":59,"Duration":74626,"SoundDuration":74626,"Delta":340208079},{"NoteNumber":35,"Velocity":56,"Duration":74626,"SoundDuration":74626,"Delta":340208079},{"NoteNumber":69,"Velocity":45,"Duration":74626,"SoundDuration":74626,"Delta":340357332},{"NoteNumber":72,"Velocity":54,"Duration":74626,"SoundDuration":74626,"Delta":340357332},{"NoteNumber":43,"Velocity":46,"Duration":74626,"SoundDuration":74626,"Delta":340357332},{"NoteNumber":71,"Velocity":45,"Duration":76336,"SoundDuration":76336,"Delta":340506586},{"NoteNumber":74,"Velocity":53,"Duration":76336,"SoundDuration":76336,"Delta":340506586},{"NoteNumber":47,"Velocity":46,"Duration":76336,"SoundDuration":76336,"Delta":340506586},{"NoteNumber":76,"Velocity":73,"Duration":149830,"SoundDuration":149830,"Delta":340621090},{"NoteNumber":79,"Velocity":73,"Duration":137107,"SoundDuration":137107,"Delta":340633813},{"NoteNumber":85,"Velocity":73,"Duration":124385,"SoundDuration":124385,"Delta":340646535},{"NoteNumber":88,"Velocity":88,"Duration":111662,"SoundDuration":111662,"Delta":340659258},{"NoteNumber":33,"Velocity":66,"Duration":74441,"SoundDuration":74441,"Delta":340659258},{"NoteNumber":40,"Velocity":49,"Duration":74441,"SoundDuration":74441,"Delta":340808141},{"NoteNumber":61,"Velocity":45,"Duration":74441,"SoundDuration":74441,"Delta":340957025},{"NoteNumber":64,"Velocity":54,"Duration":74441,"SoundDuration":74441,"Delta":340957025},{"NoteNumber":45,"Velocity":49,"Duration":74441,"SoundDuration":74441,"Delta":340957025},{"NoteNumber":61,"Velocity":51,"Duration":74441,"SoundDuration":74441,"Delta":341105908},{"NoteNumber":64,"Velocity":60,"Duration":74441,"SoundDuration":74441,"Delta":341105908},{"NoteNumber":33,"Velocity":57,"Duration":74441,"SoundDuration":74441,"Delta":341105908},{"NoteNumber":65,"Velocity":56,"Duration":74441,"SoundDuration":74441,"Delta":341254792},{"NoteNumber":62,"Velocity":46,"Duration":74441,"SoundDuration":74441,"Delta":341254792},{"NoteNumber":40,"Velocity":46,"Duration":74441,"SoundDuration":74441,"Delta":341254792},{"NoteNumber":67,"Velocity":57,"Duration":74441,"SoundDuration":74441,"Delta":341403675},{"NoteNumber":64,"Velocity":48,"Duration":74441,"SoundDuration":74441,"Delta":341403675},{"NoteNumber":45,"Velocity":47,"Duration":74441,"SoundDuration":74441,"Delta":341403675},{"NoteNumber":69,"Velocity":65,"Duration":74441,"SoundDuration":74441,"Delta":341552559},{"NoteNumber":65,"Velocity":55,"Duration":74441,"SoundDuration":74441,"Delta":341552559},{"NoteNumber":33,"Velocity":62,"Duration":74441,"SoundDuration":74441,"Delta":341552559},{"NoteNumber":64,"Velocity":51,"Duration":76923,"SoundDuration":76923,"Delta":341701442},{"NoteNumber":67,"Velocity":61,"Duration":76923,"SoundDuration":76923,"Delta":341701442},{"NoteNumber":40,"Velocity":52,"Duration":76923,"SoundDuration":76923,"Delta":341701442},{"NoteNumber":76,"Velocity":78,"Duration":150401,"SoundDuration":150401,"Delta":341816827},{"NoteNumber":79,"Velocity":78,"Duration":137581,"SoundDuration":137581,"Delta":341829647},{"NoteNumber":85,"Velocity":78,"Duration":124760,"SoundDuration":124760,"Delta":341842468},{"NoteNumber":88,"Velocity":93,"Duration":111940,"SoundDuration":111940,"Delta":341855288},{"NoteNumber":45,"Velocity":53,"Duration":74626,"SoundDuration":74626,"Delta":341855288},{"NoteNumber":67,"Velocity":59,"Duration":74626,"SoundDuration":74626,"Delta":342004542},{"NoteNumber":64,"Velocity":50,"Duration":74626,"SoundDuration":74626,"Delta":342004542},{"NoteNumber":33,"Velocity":60,"Duration":74626,"SoundDuration":74626,"Delta":342004542},{"NoteNumber":65,"Velocity":45,"Duration":74626,"SoundDuration":74626,"Delta":342153795},{"NoteNumber":69,"Velocity":53,"Duration":74626,"SoundDuration":74626,"Delta":342153795},{"NoteNumber":40,"Velocity":49,"Duration":74626,"SoundDuration":74626,"Delta":342153795},{"NoteNumber":67,"Velocity":45,"Duration":74626,"SoundDuration":74626,"Delta":342303049},{"NoteNumber":71,"Velocity":53,"Duration":74626,"SoundDuration":74626,"Delta":342303049},{"NoteNumber":45,"Velocity":49,"Duration":74626,"SoundDuration":74626,"Delta":342303049},{"NoteNumber":69,"Velocity":50,"Duration":74626,"SoundDuration":74626,"Delta":342452302},{"NoteNumber":73,"Velocity":59,"Duration":74626,"SoundDuration":74626,"Delta":342452302},{"NoteNumber":33,"Velocity":56,"Duration":74626,"SoundDuration":74626,"Delta":342452302},{"NoteNumber":71,"Velocity":54,"Duration":74626,"SoundDuration":74626,"Delta":342601556},{"NoteNumber":67,"Velocity":45,"Duration":74626,"SoundDuration":74626,"Delta":342601556},{"NoteNumber":40,"Velocity":44,"Duration":74626,"SoundDuration":74626,"Delta":342601556},{"NoteNumber":69,"Velocity":45,"Duration":74626,"SoundDuration":74626,"Delta":342750809},{"NoteNumber":73,"Velocity":53,"Duration":74626,"SoundDuration":74626,"Delta":342750809},{"NoteNumber":45,"Velocity":44,"Duration":74626,"SoundDuration":74626,"Delta":342750809},{"NoteNumber":74,"Velocity":59,"Duration":74626,"SoundDuration":74626,"Delta":342900063},{"NoteNumber":71,"Velocity":50,"Duration":74626,"SoundDuration":74626,"Delta":342900063},{"NoteNumber":31,"Velocity":56,"Duration":74626,"SoundDuration":74626,"Delta":342900063},{"NoteNumber":76,"Velocity":54,"Duration":74626,"SoundDuration":74626,"Delta":343049316},{"NoteNumber":73,"Velocity":45,"Duration":74626,"SoundDuration":74626,"Delta":343049316},{"NoteNumber":40,"Velocity":46,"Duration":74626,"SoundDuration":74626,"Delta":343049316},{"NoteNumber":79,"Velocity":53,"Duration":76336,"SoundDuration":76336,"Delta":343198570},{"NoteNumber":76,"Velocity":45,"Duration":76336,"SoundDuration":76336,"Delta":343198570},{"NoteNumber":43,"Velocity":46,"Duration":76336,"SoundDuration":76336,"Delta":343198570},{"NoteNumber":81,"Velocity":73,"Duration":149830,"SoundDuration":149830,"Delta":343313074},{"NoteNumber":84,"Velocity":73,"Duration":137107,"SoundDuration":137107,"Delta":343325797},{"NoteNumber":89,"Velocity":73,"Duration":124385,"SoundDuration":124385,"Delta":343338519},{"NoteNumber":93,"Velocity":88,"Duration":111662,"SoundDuration":111662,"Delta":343351242},{"NoteNumber":29,"Velocity":66,"Duration":74441,"SoundDuration":74441,"Delta":343351242},{"NoteNumber":36,"Velocity":49,"Duration":74441,"SoundDuration":74441,"Delta":343500125},{"NoteNumber":69,"Velocity":54,"Duration":74441,"SoundDuration":74441,"Delta":343649009},{"NoteNumber":65,"Velocity":45,"Duration":74441,"SoundDuration":74441,"Delta":343649009},{"NoteNumber":41,"Velocity":49,"Duration":74441,"SoundDuration":74441,"Delta":343649009},{"NoteNumber":65,"Velocity":51,"Duration":74441,"SoundDuration":74441,"Delta":343797892},{"NoteNumber":69,"Velocity":60,"Duration":74441,"SoundDuration":74441,"Delta":343797892},{"NoteNumber":29,"Velocity":57,"Duration":74441,"SoundDuration":74441,"Delta":343797892},{"NoteNumber":67,"Velocity":46,"Duration":74441,"SoundDuration":74441,"Delta":343946776},{"NoteNumber":70,"Velocity":56,"Duration":74441,"SoundDuration":74441,"Delta":343946776},{"NoteNumber":36,"Velocity":46,"Duration":74441,"SoundDuration":74441,"Delta":343946776},{"NoteNumber":69,"Velocity":48,"Duration":74441,"SoundDuration":74441,"Delta":344095659},{"NoteNumber":72,"Velocity":57,"Duration":74441,"SoundDuration":74441,"Delta":344095659},{"NoteNumber":41,"Velocity":47,"Duration":74441,"SoundDuration":74441,"Delta":344095659},{"NoteNumber":70,"Velocity":55,"Duration":74441,"SoundDuration":74441,"Delta":344244543},{"NoteNumber":74,"Velocity":65,"Duration":74441,"SoundDuration":74441,"Delta":344244543},{"NoteNumber":29,"Velocity":62,"Duration":74441,"SoundDuration":74441,"Delta":344244543},{"NoteNumber":72,"Velocity":61,"Duration":76923,"SoundDuration":76923,"Delta":344393426},{"NoteNumber":69,"Velocity":51,"Duration":76923,"SoundDuration":76923,"Delta":344393426},{"NoteNumber":36,"Velocity":52,"Duration":76923,"SoundDuration":76923,"Delta":344393426},{"NoteNumber":81,"Velocity":78,"Duration":150401,"SoundDuration":150401,"Delta":344508811},{"NoteNumber":84,"Velocity":78,"Duration":137581,"SoundDuration":137581,"Delta":344521631},{"NoteNumber":89,"Velocity":78,"Duration":124760,"SoundDuration":124760,"Delta":344534452},{"NoteNumber":93,"Velocity":93,"Duration":111940,"SoundDuration":111940,"Delta":344547272},{"NoteNumber":41,"Velocity":53,"Duration":74626,"SoundDuration":74626,"Delta":344547272},{"NoteNumber":69,"Velocity":54,"Duration":74626,"SoundDuration":74626,"Delta":344696526},{"NoteNumber":81,"Velocity":65,"Duration":74626,"SoundDuration":74626,"Delta":344696526},{"NoteNumber":29,"Velocity":66,"Duration":74626,"SoundDuration":74626,"Delta":344696526},{"NoteNumber":70,"Velocity":51,"Duration":74626,"SoundDuration":74626,"Delta":344845779},{"NoteNumber":82,"Velocity":61,"Duration":74626,"SoundDuration":74626,"Delta":344845779},{"NoteNumber":36,"Velocity":56,"Duration":74626,"SoundDuration":74626,"Delta":344845779},{"NoteNumber":71,"Velocity":53,"Duration":74626,"SoundDuration":74626,"Delta":344995033},{"NoteNumber":83,"Velocity":65,"Duration":74626,"SoundDuration":74626,"Delta":344995033},{"NoteNumber":41,"Velocity":58,"Duration":74626,"SoundDuration":74626,"Delta":344995033},{"NoteNumber":72,"Velocity":63,"Duration":74626,"SoundDuration":74626,"Delta":345144286},{"NoteNumber":84,"Velocity":76,"Duration":74626,"SoundDuration":74626,"Delta":345144286},{"NoteNumber":29,"Velocity":72,"Duration":74626,"SoundDuration":74626,"Delta":345144286},{"NoteNumber":74,"Velocity":62,"Duration":74626,"SoundDuration":74626,"Delta":345293540},{"NoteNumber":86,"Velocity":73,"Duration":74626,"SoundDuration":74626,"Delta":345293540},{"NoteNumber":36,"Velocity":59,"Duration":74626,"SoundDuration":74626,"Delta":345293540},{"NoteNumber":76,"Velocity":63,"Duration":74626,"SoundDuration":74626,"Delta":345442793},{"NoteNumber":88,"Velocity":75,"Duration":74626,"SoundDuration":74626,"Delta":345442793},{"NoteNumber":41,"Velocity":62,"Duration":74626,"SoundDuration":74626,"Delta":345442793},{"NoteNumber":77,"Velocity":74,"Duration":74626,"SoundDuration":74626,"Delta":345592047},{"NoteNumber":89,"Velocity":89,"Duration":74626,"SoundDuration":74626,"Delta":345592047},{"NoteNumber":29,"Velocity":83,"Duration":74626,"SoundDuration":74626,"Delta":345592047},{"NoteNumber":91,"Velocity":85,"Duration":76923,"SoundDuration":76923,"Delta":345741300},{"NoteNumber":79,"Velocity":71,"Duration":76923,"SoundDuration":76923,"Delta":345741300},{"NoteNumber":36,"Velocity":72,"Duration":76923,"SoundDuration":76923,"Delta":345741300},{"NoteNumber":92,"Velocity":87,"Duration":82873,"SoundDuration":82873,"Delta":345895146},{"NoteNumber":80,"Velocity":74,"Duration":82873,"SoundDuration":82873,"Delta":345895146},{"NoteNumber":41,"Velocity":75,"Duration":82873,"SoundDuration":82873,"Delta":345895146},{"NoteNumber":84,"Velocity":80,"Duration":82873,"SoundDuration":82873,"Delta":346060892},{"NoteNumber":93,"Velocity":95,"Duration":82873,"SoundDuration":82873,"Delta":346060892},{"NoteNumber":81,"Velocity":80,"Duration":82873,"SoundDuration":82873,"Delta":346060892},{"NoteNumber":87,"Velocity":80,"Duration":82873,"SoundDuration":82873,"Delta":346060892},{"NoteNumber":30,"Velocity":77,"Duration":82873,"SoundDuration":82873,"Delta":346060892},{"NoteNumber":42,"Velocity":91,"Duration":82873,"SoundDuration":82873,"Delta":346060892},{"NoteNumber":54,"Velocity":48,"Duration":82872,"SoundDuration":82872,"Delta":346226638},{"NoteNumber":54,"Velocity":48,"Duration":81743,"SoundDuration":81743,"Delta":346392384},{"NoteNumber":54,"Velocity":48,"Duration":81743,"SoundDuration":81743,"Delta":346555872},{"NoteNumber":54,"Velocity":45,"Duration":81743,"SoundDuration":81743,"Delta":346719359},{"NoteNumber":72,"Velocity":60,"Duration":163487,"SoundDuration":163487,"Delta":346882847},{"NoteNumber":69,"Velocity":51,"Duration":163487,"SoundDuration":163487,"Delta":346882847},{"NoteNumber":54,"Velocity":45,"Duration":81743,"SoundDuration":81743,"Delta":346882847},{"NoteNumber":71,"Velocity":57,"Duration":326975,"SoundDuration":326975,"Delta":347046334},{"NoteNumber":74,"Velocity":68,"Duration":326975,"SoundDuration":326975,"Delta":347046334},{"NoteNumber":54,"Velocity":45,"Duration":81743,"SoundDuration":81743,"Delta":347046334},{"NoteNumber":54,"Velocity":45,"Duration":81743,"SoundDuration":81743,"Delta":347209822},{"NoteNumber":72,"Velocity":51,"Duration":173410,"SoundDuration":173410,"Delta":347373309},{"NoteNumber":75,"Velocity":60,"Duration":173410,"SoundDuration":173410,"Delta":347373309},{"NoteNumber":54,"Velocity":45,"Duration":86705,"SoundDuration":86705,"Delta":347373309},{"NoteNumber":42,"Velocity":48,"Duration":81967,"SoundDuration":81967,"Delta":347546720},{"NoteNumber":54,"Velocity":63,"Duration":81967,"SoundDuration":81967,"Delta":347546720},{"NoteNumber":54,"Velocity":48,"Duration":81967,"SoundDuration":81967,"Delta":347710654},{"NoteNumber":54,"Velocity":48,"Duration":81967,"SoundDuration":81967,"Delta":347874589},{"NoteNumber":54,"Velocity":48,"Duration":81967,"SoundDuration":81967,"Delta":348038523},{"NoteNumber":54,"Velocity":45,"Duration":84506,"SoundDuration":84506,"Delta":348202458},{"NoteNumber":69,"Velocity":51,"Duration":163934,"SoundDuration":163934,"Delta":348371472},{"NoteNumber":72,"Velocity":60,"Duration":163934,"SoundDuration":163934,"Delta":348371472},{"NoteNumber":54,"Velocity":45,"Duration":81967,"SoundDuration":81967,"Delta":348371472},{"NoteNumber":71,"Velocity":57,"Duration":327869,"SoundDuration":327869,"Delta":348535406},{"NoteNumber":74,"Velocity":68,"Duration":327869,"SoundDuration":327869,"Delta":348535406},{"NoteNumber":54,"Velocity":45,"Duration":81967,"SoundDuration":81967,"Delta":348535406},{"NoteNumber":54,"Velocity":45,"Duration":81967,"SoundDuration":81967,"Delta":348699341},{"NoteNumber":72,"Velocity":51,"Duration":172414,"SoundDuration":172414,"Delta":348863275},{"NoteNumber":75,"Velocity":60,"Duration":172414,"SoundDuration":172414,"Delta":348863275},{"NoteNumber":54,"Velocity":45,"Duration":86207,"SoundDuration":86207,"Delta":348863275},{"NoteNumber":54,"Velocity":63,"Duration":82191,"SoundDuration":82191,"Delta":349035689},{"NoteNumber":42,"Velocity":48,"Duration":82191,"SoundDuration":82191,"Delta":349035689},{"NoteNumber":54,"Velocity":48,"Duration":82191,"SoundDuration":82191,"Delta":349200073},{"NoteNumber":72,"Velocity":51,"Duration":164383,"SoundDuration":164383,"Delta":349364456},{"NoteNumber":69,"Velocity":51,"Duration":164383,"SoundDuration":164383,"Delta":349364456},{"NoteNumber":75,"Velocity":60,"Duration":164383,"SoundDuration":164383,"Delta":349364456},{"NoteNumber":54,"Velocity":48,"Duration":82191,"SoundDuration":82191,"Delta":349364456},{"NoteNumber":54,"Velocity":48,"Duration":82191,"SoundDuration":82191,"Delta":349528840},{"NoteNumber":54,"Velocity":45,"Duration":82191,"SoundDuration":82191,"Delta":349693223},{"NoteNumber":70,"Velocity":54,"Duration":234246,"SoundDuration":234246,"Delta":349775415},{"NoteNumber":76,"Velocity":64,"Duration":234246,"SoundDuration":234246,"Delta":349775415},{"NoteNumber":73,"Velocity":54,"Duration":234246,"SoundDuration":234246,"Delta":349775415},{"NoteNumber":54,"Velocity":49,"Duration":82191,"SoundDuration":82191,"Delta":349857607},{"NoteNumber":82,"Velocity":73,"Duration":236012,"SoundDuration":236012,"Delta":350021990},{"NoteNumber":73,"Velocity":62,"Duration":236012,"SoundDuration":236012,"Delta":350021990},{"NoteNumber":76,"Velocity":62,"Duration":236012,"SoundDuration":236012,"Delta":350021990},{"NoteNumber":54,"Velocity":54,"Duration":82191,"SoundDuration":82191,"Delta":350021990},{"NoteNumber":54,"Velocity":59,"Duration":84269,"SoundDuration":84269,"Delta":350186374},{"NoteNumber":82,"Velocity":69,"Duration":246077,"SoundDuration":246077,"Delta":350270644},{"NoteNumber":85,"Velocity":82,"Duration":246077,"SoundDuration":246077,"Delta":350270644},{"NoteNumber":54,"Velocity":64,"Duration":87463,"SoundDuration":87463,"Delta":350354913},{"NoteNumber":82,"Velocity":77,"Duration":234889,"SoundDuration":234889,"Delta":350529840},{"NoteNumber":88,"Velocity":91,"Duration":234889,"SoundDuration":234889,"Delta":350529840},{"NoteNumber":76,"Velocity":77,"Duration":234889,"SoundDuration":234889,"Delta":350529840},{"NoteNumber":30,"Velocity":69,"Duration":82417,"SoundDuration":82417,"Delta":350529840},{"NoteNumber":42,"Velocity":91,"Duration":82417,"SoundDuration":82417,"Delta":350529840},{"NoteNumber":54,"Velocity":67,"Duration":82417,"SoundDuration":82417,"Delta":350694675},{"NoteNumber":85,"Velocity":86,"Duration":237445,"SoundDuration":237445,"Delta":350777093},{"NoteNumber":76,"Velocity":73,"Duration":237445,"SoundDuration":237445,"Delta":350777093},{"NoteNumber":82,"Velocity":73,"Duration":237445,"SoundDuration":237445,"Delta":350777093},{"NoteNumber":54,"Velocity":63,"Duration":83798,"SoundDuration":83798,"Delta":350859510},{"NoteNumber":76,"Velocity":70,"Duration":499952,"SoundDuration":499952,"Delta":351027108},{"NoteNumber":73,"Velocity":70,"Duration":499952,"SoundDuration":499952,"Delta":351027108},{"NoteNumber":82,"Velocity":83,"Duration":499952,"SoundDuration":499952,"Delta":351027108},{"NoteNumber":54,"Velocity":58,"Duration":83798,"SoundDuration":83798,"Delta":351027108},{"NoteNumber":54,"Velocity":54,"Duration":83798,"SoundDuration":83798,"Delta":351194706},{"NoteNumber":54,"Velocity":50,"Duration":85960,"SoundDuration":85960,"Delta":351362304},{"NoteNumber":70,"Velocity":62,"Duration":515760,"SoundDuration":515760,"Delta":351534224},{"NoteNumber":76,"Velocity":73,"Duration":515760,"SoundDuration":515760,"Delta":351534224},{"NoteNumber":73,"Velocity":62,"Duration":515760,"SoundDuration":515760,"Delta":351534224},{"NoteNumber":54,"Velocity":45,"Duration":85960,"SoundDuration":85960,"Delta":351534224},{"NoteNumber":54,"Velocity":45,"Duration":85960,"SoundDuration":85960,"Delta":351706144},{"NoteNumber":54,"Velocity":45,"Duration":85960,"SoundDuration":85960,"Delta":351878064},{"NoteNumber":71,"Velocity":57,"Duration":515760,"SoundDuration":515760,"Delta":352049984},{"NoteNumber":75,"Velocity":66,"Duration":515760,"SoundDuration":515760,"Delta":352049984},{"NoteNumber":54,"Velocity":40,"Duration":85960,"SoundDuration":85960,"Delta":352049984},{"NoteNumber":42,"Velocity":40,"Duration":85960,"SoundDuration":85960,"Delta":352049984},{"NoteNumber":54,"Velocity":48,"Duration":85960,"SoundDuration":85960,"Delta":352221904},{"NoteNumber":54,"Velocity":48,"Duration":85960,"SoundDuration":85960,"Delta":352393824},{"NoteNumber":54,"Velocity":48,"Duration":85960,"SoundDuration":85960,"Delta":352565744},{"NoteNumber":54,"Velocity":45,"Duration":85960,"SoundDuration":85960,"Delta":352737664},{"NoteNumber":70,"Velocity":51,"Duration":163487,"SoundDuration":163487,"Delta":352909584},{"NoteNumber":73,"Velocity":60,"Duration":163487,"SoundDuration":163487,"Delta":352909584},{"NoteNumber":54,"Velocity":45,"Duration":81743,"SoundDuration":81743,"Delta":352909584},{"NoteNumber":71,"Velocity":57,"Duration":326975,"SoundDuration":326975,"Delta":353073072},{"NoteNumber":75,"Velocity":68,"Duration":326975,"SoundDuration":326975,"Delta":353073072},{"NoteNumber":54,"Velocity":45,"Duration":81743,"SoundDuration":81743,"Delta":353073072},{"NoteNumber":54,"Velocity":45,"Duration":81743,"SoundDuration":81743,"Delta":353236559},{"NoteNumber":73,"Velocity":51,"Duration":173410,"SoundDuration":173410,"Delta":353400047},{"NoteNumber":76,"Velocity":60,"Duration":173410,"SoundDuration":173410,"Delta":353400047},{"NoteNumber":54,"Velocity":45,"Duration":86705,"SoundDuration":86705,"Delta":353400047},{"NoteNumber":54,"Velocity":63,"Duration":81967,"SoundDuration":81967,"Delta":353573457},{"NoteNumber":42,"Velocity":48,"Duration":81967,"SoundDuration":81967,"Delta":353573457},{"NoteNumber":54,"Velocity":48,"Duration":81967,"SoundDuration":81967,"Delta":353737392},{"NoteNumber":54,"Velocity":48,"Duration":81967,"SoundDuration":81967,"Delta":353901326},{"NoteNumber":54,"Velocity":48,"Duration":81967,"SoundDuration":81967,"Delta":354065261},{"NoteNumber":54,"Velocity":45,"Duration":84506,"SoundDuration":84506,"Delta":354229195},{"NoteNumber":70,"Velocity":51,"Duration":163934,"SoundDuration":163934,"Delta":354398209},{"NoteNumber":73,"Velocity":60,"Duration":163934,"SoundDuration":163934,"Delta":354398209},{"NoteNumber":54,"Velocity":45,"Duration":81967,"SoundDuration":81967,"Delta":354398209},{"NoteNumber":75,"Velocity":68,"Duration":327869,"SoundDuration":327869,"Delta":354562144},{"NoteNumber":71,"Velocity":57,"Duration":327869,"SoundDuration":327869,"Delta":354562144},{"NoteNumber":54,"Velocity":45,"Duration":81967,"SoundDuration":81967,"Delta":354562144},{"NoteNumber":54,"Velocity":45,"Duration":81967,"SoundDuration":81967,"Delta":354726078},{"NoteNumber":73,"Velocity":51,"Duration":172414,"SoundDuration":172414,"Delta":354890013},{"NoteNumber":76,"Velocity":60,"Duration":172414,"SoundDuration":172414,"Delta":354890013},{"NoteNumber":54,"Velocity":45,"Duration":86207,"SoundDuration":86207,"Delta":354890013},{"NoteNumber":43,"Velocity":48,"Duration":82191,"SoundDuration":82191,"Delta":355062427},{"NoteNumber":55,"Velocity":63,"Duration":82191,"SoundDuration":82191,"Delta":355062427},{"NoteNumber":55,"Velocity":48,"Duration":82191,"SoundDuration":82191,"Delta":355226810},{"NoteNumber":76,"Velocity":60,"Duration":164383,"SoundDuration":164383,"Delta":355391194},{"NoteNumber":73,"Velocity":51,"Duration":164383,"SoundDuration":164383,"Delta":355391194},{"NoteNumber":70,"Velocity":51,"Duration":164383,"SoundDuration":164383,"Delta":355391194},{"NoteNumber":55,"Velocity":48,"Duration":82191,"SoundDuration":82191,"Delta":355391194},{"NoteNumber":55,"Velocity":48,"Duration":82191,"SoundDuration":82191,"Delta":355555577},{"NoteNumber":55,"Velocity":45,"Duration":82191,"SoundDuration":82191,"Delta":355719961},{"NoteNumber":71,"Velocity":54,"Duration":234246,"SoundDuration":234246,"Delta":355802153},{"NoteNumber":74,"Velocity":54,"Duration":234246,"SoundDuration":234246,"Delta":355802153},{"NoteNumber":77,"Velocity":64,"Duration":234246,"SoundDuration":234246,"Delta":355802153},{"NoteNumber":55,"Velocity":49,"Duration":82191,"SoundDuration":82191,"Delta":355884344},{"NoteNumber":77,"Velocity":62,"Duration":236012,"SoundDuration":236012,"Delta":356048728},{"NoteNumber":74,"Velocity":62,"Duration":236012,"SoundDuration":236012,"Delta":356048728},{"NoteNumber":83,"Velocity":73,"Duration":236012,"SoundDuration":236012,"Delta":356048728},{"NoteNumber":55,"Velocity":54,"Duration":82191,"SoundDuration":82191,"Delta":356048728},{"NoteNumber":55,"Velocity":59,"Duration":84269,"SoundDuration":84269,"Delta":356213111},{"NoteNumber":77,"Velocity":69,"Duration":246077,"SoundDuration":246077,"Delta":356297381},{"NoteNumber":83,"Velocity":69,"Duration":246077,"SoundDuration":246077,"Delta":356297381},{"NoteNumber":86,"Velocity":82,"Duration":246077,"SoundDuration":246077,"Delta":356297381},{"NoteNumber":55,"Velocity":64,"Duration":87463,"SoundDuration":87463,"Delta":356381651},{"NoteNumber":77,"Velocity":77,"Duration":234889,"SoundDuration":234889,"Delta":356556578},{"NoteNumber":83,"Velocity":77,"Duration":234889,"SoundDuration":234889,"Delta":356556578},{"NoteNumber":89,"Velocity":91,"Duration":234889,"SoundDuration":234889,"Delta":356556578},{"NoteNumber":31,"Velocity":69,"Duration":82417,"SoundDuration":82417,"Delta":356556578},{"NoteNumber":43,"Velocity":91,"Duration":82417,"SoundDuration":82417,"Delta":356556578},{"NoteNumber":55,"Velocity":67,"Duration":82417,"SoundDuration":82417,"Delta":356721413},{"NoteNumber":86,"Velocity":86,"Duration":237445,"SoundDuration":237445,"Delta":356803830},{"NoteNumber":83,"Velocity":73,"Duration":237445,"SoundDuration":237445,"Delta":356803830},{"NoteNumber":77,"Velocity":73,"Duration":237445,"SoundDuration":237445,"Delta":356803830},{"NoteNumber":55,"Velocity":63,"Duration":83798,"SoundDuration":83798,"Delta":356886248},{"NoteNumber":77,"Velocity":70,"Duration":499952,"SoundDuration":499952,"Delta":357053846},{"NoteNumber":74,"Velocity":70,"Duration":499952,"SoundDuration":499952,"Delta":357053846},{"NoteNumber":83,"Velocity":83,"Duration":499952,"SoundDuration":499952,"Delta":357053846},{"NoteNumber":55,"Velocity":58,"Duration":83798,"SoundDuration":83798,"Delta":357053846},{"NoteNumber":55,"Velocity":54,"Duration":83798,"SoundDuration":83798,"Delta":357221444},{"NoteNumber":55,"Velocity":50,"Duration":85960,"SoundDuration":85960,"Delta":357389042},{"NoteNumber":71,"Velocity":62,"Duration":515760,"SoundDuration":515760,"Delta":357560962},{"NoteNumber":77,"Velocity":73,"Duration":515760,"SoundDuration":515760,"Delta":357560962},{"NoteNumber":74,"Velocity":62,"Duration":515760,"SoundDuration":515760,"Delta":357560962},{"NoteNumber":55,"Velocity":45,"Duration":85960,"SoundDuration":85960,"Delta":357560962},{"NoteNumber":55,"Velocity":45,"Duration":85960,"SoundDuration":85960,"Delta":357732882},{"NoteNumber":55,"Velocity":45,"Duration":85960,"SoundDuration":85960,"Delta":357904802},{"NoteNumber":76,"Velocity":66,"Duration":171920,"SoundDuration":171920,"Delta":358076722},{"NoteNumber":72,"Velocity":57,"Duration":171920,"SoundDuration":171920,"Delta":358076722},{"NoteNumber":48,"Velocity":59,"Duration":171920,"SoundDuration":171920,"Delta":358076722},{"NoteNumber":68,"Velocity":70,"Duration":426479,"SoundDuration":426479,"Delta":358592482},{"NoteNumber":64,"Velocity":59,"Duration":567324,"SoundDuration":567324,"Delta":358592482},{"NoteNumber":76,"Velocity":70,"Duration":567324,"SoundDuration":567324,"Delta":358592482},{"NoteNumber":72,"Velocity":59,"Duration":567324,"SoundDuration":567324,"Delta":358592482},{"NoteNumber":36,"Velocity":66,"Duration":132158,"SoundDuration":132158,"Delta":358592482},{"NoteNumber":40,"Velocity":44,"Duration":132158,"SoundDuration":132158,"Delta":358724640},{"NoteNumber":44,"Velocity":44,"Duration":162162,"SoundDuration":162162,"Delta":358856799},{"NoteNumber":69,"Velocity":66,"Duration":140845,"SoundDuration":140845,"Delta":359018961},{"NoteNumber":45,"Velocity":66,"Duration":140845,"SoundDuration":140845,"Delta":359018961},{"NoteNumber":47,"Velocity":41,"Duration":140845,"SoundDuration":140845,"Delta":359159806},{"NoteNumber":45,"Velocity":41,"Duration":152671,"SoundDuration":152671,"Delta":359300651},{"NoteNumber":68,"Velocity":70,"Duration":425319,"SoundDuration":425319,"Delta":359453323},{"NoteNumber":64,"Velocity":59,"Duration":566165,"SoundDuration":566165,"Delta":359453323},{"NoteNumber":76,"Velocity":70,"Duration":566165,"SoundDuration":566165,"Delta":359453323},{"NoteNumber":72,"Velocity":59,"Duration":566165,"SoundDuration":566165,"Delta":359453323},{"NoteNumber":36,"Velocity":66,"Duration":131578,"SoundDuration":131578,"Delta":359453323},{"NoteNumber":40,"Velocity":46,"Duration":131578,"SoundDuration":131578,"Delta":359584902},{"NoteNumber":44,"Velocity":46,"Duration":162162,"SoundDuration":162162,"Delta":359716481},{"NoteNumber":69,"Velocity":66,"Duration":140845,"SoundDuration":140845,"Delta":359878643},{"NoteNumber":45,"Velocity":66,"Duration":140845,"SoundDuration":140845,"Delta":359878643},{"NoteNumber":47,"Velocity":43,"Duration":140845,"SoundDuration":140845,"Delta":360019488},{"NoteNumber":45,"Velocity":43,"Duration":153451,"SoundDuration":153451,"Delta":360160333},{"NoteNumber":64,"Velocity":59,"Duration":569746,"SoundDuration":569746,"Delta":360313784},{"NoteNumber":68,"Velocity":70,"Duration":428237,"SoundDuration":428237,"Delta":360313784},{"NoteNumber":72,"Velocity":59,"Duration":569746,"SoundDuration":569746,"Delta":360313784},{"NoteNumber":76,"Velocity":70,"Duration":569746,"SoundDuration":569746,"Delta":360313784},{"NoteNumber":36,"Velocity":66,"Duration":133037,"SoundDuration":133037,"Delta":360313784},{"NoteNumber":40,"Velocity":46,"Duration":133037,"SoundDuration":133037,"Delta":360446822},{"NoteNumber":44,"Velocity":46,"Duration":162162,"SoundDuration":162162,"Delta":360579859},{"NoteNumber":69,"Velocity":66,"Duration":141509,"SoundDuration":141509,"Delta":360742021},{"NoteNumber":45,"Velocity":66,"Duration":141509,"SoundDuration":141509,"Delta":360742021},{"NoteNumber":47,"Velocity":43,"Duration":141509,"SoundDuration":141509,"Delta":360883531},{"NoteNumber":45,"Velocity":43,"Duration":153451,"SoundDuration":153451,"Delta":361025040},{"NoteNumber":72,"Velocity":59,"Duration":436601,"SoundDuration":436601,"Delta":361178492},{"NoteNumber":64,"Velocity":59,"Duration":436601,"SoundDuration":436601,"Delta":361178492},{"NoteNumber":76,"Velocity":70,"Duration":436601,"SoundDuration":436601,"Delta":361178492},{"NoteNumber":68,"Velocity":70,"Duration":436601,"SoundDuration":436601,"Delta":361178492},{"NoteNumber":36,"Velocity":66,"Duration":149100,"SoundDuration":149100,"Delta":361178492},{"NoteNumber":40,"Velocity":44,"Duration":153853,"SoundDuration":153853,"Delta":361327592},{"NoteNumber":44,"Velocity":44,"Duration":197345,"SoundDuration":197345,"Delta":361481446},{"NoteNumber":65,"Velocity":49,"Duration":497061,"SoundDuration":497061,"Delta":361622955},{"NoteNumber":72,"Velocity":49,"Duration":443773,"SoundDuration":443773,"Delta":361651913},{"NoteNumber":77,"Velocity":59,"Duration":436967,"SoundDuration":436967,"Delta":361678791},{"NoteNumber":45,"Velocity":50,"Duration":147743,"SoundDuration":147743,"Delta":361678791},{"NoteNumber":48,"Velocity":41,"Duration":147114,"SoundDuration":147114,"Delta":361826535},{"NoteNumber":57,"Velocity":41,"Duration":146367,"SoundDuration":146367,"Delta":361973650},{"NoteNumber":76,"Velocity":53,"Duration":430501,"SoundDuration":430501,"Delta":362120017},{"NoteNumber":72,"Velocity":45,"Duration":430501,"SoundDuration":430501,"Delta":362120017},{"NoteNumber":64,"Velocity":45,"Duration":430501,"SoundDuration":430501,"Delta":362120017},{"NoteNumber":43,"Velocity":50,"Duration":145628,"SoundDuration":145628,"Delta":362120017},{"NoteNumber":48,"Velocity":44,"Duration":144897,"SoundDuration":144897,"Delta":362265646},{"NoteNumber":55,"Velocity":44,"Duration":144172,"SoundDuration":144172,"Delta":362410543},{"NoteNumber":69,"Velocity":49,"Duration":423110,"SoundDuration":423110,"Delta":362554715},{"NoteNumber":74,"Velocity":59,"Duration":423110,"SoundDuration":423110,"Delta":362554715},{"NoteNumber":62,"Velocity":49,"Duration":423110,"SoundDuration":423110,"Delta":362554715},{"NoteNumber":41,"Velocity":50,"Duration":143559,"SoundDuration":143559,"Delta":362554715},{"NoteNumber":48,"Velocity":40,"Duration":141843,"SoundDuration":141843,"Delta":362698274},{"NoteNumber":53,"Velocity":40,"Duration":141843,"SoundDuration":141843,"Delta":362840118},{"NoteNumber":69,"Velocity":39,"Duration":431907,"SoundDuration":431907,"Delta":362981962},{"NoteNumber":72,"Velocity":47,"Duration":431907,"SoundDuration":431907,"Delta":362981962},{"NoteNumber":62,"Velocity":39,"Duration":431907,"SoundDuration":431907,"Delta":362981962},{"NoteNumber":60,"Velocity":39,"Duration":431907,"SoundDuration":431907,"Delta":362981962},{"NoteNumber":42,"Velocity":50,"Duration":141843,"SoundDuration":141843,"Delta":362981962},{"NoteNumber":50,"Velocity":41,"Duration":141844,"SoundDuration":141844,"Delta":363123806},{"NoteNumber":54,"Velocity":41,"Duration":152671,"SoundDuration":152671,"Delta":363265650},{"NoteNumber":62,"Velocity":45,"Duration":420401,"SoundDuration":420401,"Delta":363418322},{"NoteNumber":59,"Velocity":45,"Duration":420401,"SoundDuration":420401,"Delta":363418322},{"NoteNumber":71,"Velocity":53,"Duration":420401,"SoundDuration":420401,"Delta":363418322},{"NoteNumber":67,"Velocity":45,"Duration":420401,"SoundDuration":420401,"Delta":363418322},{"NoteNumber":43,"Velocity":50,"Duration":141509,"SoundDuration":141509,"Delta":363418322},{"NoteNumber":50,"Velocity":42,"Duration":141509,"SoundDuration":141509,"Delta":363559832},{"NoteNumber":55,"Velocity":42,"Duration":141509,"SoundDuration":141509,"Delta":363701341},{"NoteNumber":62,"Velocity":38,"Duration":431598,"SoundDuration":431598,"Delta":363842851},{"NoteNumber":69,"Velocity":45,"Duration":431598,"SoundDuration":431598,"Delta":363842851},{"NoteNumber":59,"Velocity":38,"Duration":431598,"SoundDuration":431598,"Delta":363842851},{"NoteNumber":41,"Velocity":50,"Duration":145278,"SoundDuration":145278,"Delta":363842851},{"NoteNumber":43,"Velocity":42,"Duration":145278,"SoundDuration":145278,"Delta":363988129},{"NoteNumber":53,"Velocity":42,"Duration":145278,"SoundDuration":145278,"Delta":364133408},{"NoteNumber":67,"Velocity":53,"Duration":437960,"SoundDuration":437960,"Delta":364278686},{"NoteNumber":60,"Velocity":45,"Duration":437960,"SoundDuration":437960,"Delta":364278686},{"NoteNumber":64,"Velocity":45,"Duration":437960,"SoundDuration":437960,"Delta":364278686},{"NoteNumber":40,"Velocity":47,"Duration":147420,"SoundDuration":147420,"Delta":364278686},{"NoteNumber":43,"Velocity":36,"Duration":147420,"SoundDuration":147420,"Delta":364426106},{"NoteNumber":52,"Velocity":34,"Duration":147419,"SoundDuration":147419,"Delta":364573526},{"NoteNumber":55,"Velocity":37,"Duration":447727,"SoundDuration":447727,"Delta":364720946},{"NoteNumber":59,"Velocity":37,"Duration":447727,"SoundDuration":447727,"Delta":364720946},{"NoteNumber":65,"Velocity":45,"Duration":447727,"SoundDuration":447727,"Delta":364720946},{"NoteNumber":38,"Velocity":41,"Duration":147420,"SoundDuration":147420,"Delta":364720946},{"NoteNumber":43,"Velocity":30,"Duration":147420,"SoundDuration":147420,"Delta":364868366},{"NoteNumber":50,"Velocity":29,"Duration":157480,"SoundDuration":157480,"Delta":365015786},{"NoteNumber":64,"Velocity":43,"Duration":142517,"SoundDuration":142517,"Delta":365173267},{"NoteNumber":60,"Velocity":37,"Duration":142517,"SoundDuration":142517,"Delta":365173267},{"NoteNumber":48,"Velocity":37,"Duration":142517,"SoundDuration":142517,"Delta":365173267},{"NoteNumber":72,"Velocity":59,"Duration":565347,"SoundDuration":565347,"Delta":365600821},{"NoteNumber":64,"Velocity":59,"Duration":565347,"SoundDuration":565347,"Delta":365600821},{"NoteNumber":68,"Velocity":70,"Duration":424171,"SoundDuration":424171,"Delta":365600821},{"NoteNumber":76,"Velocity":70,"Duration":565347,"SoundDuration":565347,"Delta":365600821},{"NoteNumber":36,"Velocity":66,"Duration":131004,"SoundDuration":131004,"Delta":365600821},{"NoteNumber":40,"Velocity":44,"Duration":131004,"SoundDuration":131004,"Delta":365731825},{"NoteNumber":44,"Velocity":44,"Duration":162162,"SoundDuration":162162,"Delta":365862830},{"NoteNumber":69,"Velocity":66,"Duration":141176,"SoundDuration":141176,"Delta":366024992},{"NoteNumber":45,"Velocity":66,"Duration":141176,"SoundDuration":141176,"Delta":366024992},{"NoteNumber":47,"Velocity":41,"Duration":141176,"SoundDuration":141176,"Delta":366166168},{"NoteNumber":45,"Velocity":41,"Duration":152671,"SoundDuration":152671,"Delta":366307345},{"NoteNumber":68,"Velocity":70,"Duration":424744,"SoundDuration":424744,"Delta":366460017},{"NoteNumber":76,"Velocity":70,"Duration":566588,"SoundDuration":566588,"Delta":366460017},{"NoteNumber":72,"Velocity":59,"Duration":566588,"SoundDuration":566588,"Delta":366460017},{"NoteNumber":64,"Velocity":59,"Duration":566588,"SoundDuration":566588,"Delta":366460017},{"NoteNumber":36,"Velocity":66,"Duration":131290,"SoundDuration":131290,"Delta":366460017},{"NoteNumber":40,"Velocity":46,"Duration":131291,"SoundDuration":131291,"Delta":366591308},{"NoteNumber":44,"Velocity":46,"Duration":162162,"SoundDuration":162162,"Delta":366722599},{"NoteNumber":69,"Velocity":66,"Duration":141843,"SoundDuration":141843,"Delta":366884761},{"NoteNumber":45,"Velocity":66,"Duration":141843,"SoundDuration":141843,"Delta":366884761},{"NoteNumber":47,"Velocity":43,"Duration":141843,"SoundDuration":141843,"Delta":367026605},{"NoteNumber":45,"Velocity":43,"Duration":153451,"SoundDuration":153451,"Delta":367168449},{"NoteNumber":76,"Velocity":70,"Duration":566496,"SoundDuration":566496,"Delta":367321900},{"NoteNumber":68,"Velocity":70,"Duration":425319,"SoundDuration":425319,"Delta":367321900},{"NoteNumber":72,"Velocity":59,"Duration":566496,"SoundDuration":566496,"Delta":367321900},{"NoteNumber":64,"Velocity":59,"Duration":566496,"SoundDuration":566496,"Delta":367321900},{"NoteNumber":36,"Velocity":66,"Duration":131578,"SoundDuration":131578,"Delta":367321900},{"NoteNumber":40,"Velocity":46,"Duration":131578,"SoundDuration":131578,"Delta":367453479},{"NoteNumber":44,"Velocity":46,"Duration":162162,"SoundDuration":162162,"Delta":367585058},{"NoteNumber":69,"Velocity":66,"Duration":141176,"SoundDuration":141176,"Delta":367747220},{"NoteNumber":45,"Velocity":66,"Duration":141176,"SoundDuration":141176,"Delta":367747220},{"NoteNumber":47,"Velocity":43,"Duration":141176,"SoundDuration":141176,"Delta":367888397},{"NoteNumber":45,"Velocity":43,"Duration":153451,"SoundDuration":153451,"Delta":368029573},{"NoteNumber":68,"Velocity":70,"Duration":436601,"SoundDuration":436601,"Delta":368183024},{"NoteNumber":64,"Velocity":59,"Duration":436601,"SoundDuration":436601,"Delta":368183024},{"NoteNumber":72,"Velocity":59,"Duration":436601,"SoundDuration":436601,"Delta":368183024},{"NoteNumber":76,"Velocity":70,"Duration":436601,"SoundDuration":436601,"Delta":368183024},{"NoteNumber":36,"Velocity":66,"Duration":149100,"SoundDuration":149100,"Delta":368183024},{"NoteNumber":40,"Velocity":44,"Duration":153853,"SoundDuration":153853,"Delta":368332125},{"NoteNumber":44,"Velocity":44,"Duration":197345,"SoundDuration":197345,"Delta":368485979},{"NoteNumber":65,"Velocity":49,"Duration":497061,"SoundDuration":497061,"Delta":368627488},{"NoteNumber":72,"Velocity":49,"Duration":445598,"SoundDuration":445598,"Delta":368656445},{"NoteNumber":77,"Velocity":59,"Duration":436967,"SoundDuration":436967,"Delta":368683324},{"NoteNumber":45,"Velocity":50,"Duration":147743,"SoundDuration":147743,"Delta":368683324},{"NoteNumber":48,"Velocity":41,"Duration":147114,"SoundDuration":147114,"Delta":368831068},{"NoteNumber":57,"Velocity":41,"Duration":146367,"SoundDuration":146367,"Delta":368978183},{"NoteNumber":64,"Velocity":45,"Duration":430501,"SoundDuration":430501,"Delta":369124550},{"NoteNumber":72,"Velocity":45,"Duration":430501,"SoundDuration":430501,"Delta":369124550},{"NoteNumber":76,"Velocity":53,"Duration":430501,"SoundDuration":430501,"Delta":369124550},{"NoteNumber":43,"Velocity":50,"Duration":145628,"SoundDuration":145628,"Delta":369124550},{"NoteNumber":48,"Velocity":44,"Duration":144897,"SoundDuration":144897,"Delta":369270179},{"NoteNumber":55,"Velocity":44,"Duration":144172,"SoundDuration":144172,"Delta":369415076},{"NoteNumber":69,"Velocity":49,"Duration":421141,"SoundDuration":421141,"Delta":369559248},{"NoteNumber":74,"Velocity":59,"Duration":421141,"SoundDuration":421141,"Delta":369559248},{"NoteNumber":62,"Velocity":49,"Duration":421141,"SoundDuration":421141,"Delta":369559248},{"NoteNumber":41,"Velocity":50,"Duration":143559,"SoundDuration":143559,"Delta":369559248},{"NoteNumber":48,"Velocity":40,"Duration":140845,"SoundDuration":140845,"Delta":369702807},{"NoteNumber":53,"Velocity":40,"Duration":140845,"SoundDuration":140845,"Delta":369843652},{"NoteNumber":62,"Velocity":39,"Duration":429909,"SoundDuration":429909,"Delta":369984497},{"NoteNumber":72,"Velocity":47,"Duration":429909,"SoundDuration":429909,"Delta":369984497},{"NoteNumber":69,"Velocity":39,"Duration":429909,"SoundDuration":429909,"Delta":369984497},{"NoteNumber":42,"Velocity":50,"Duration":140844,"SoundDuration":140844,"Delta":369984497},{"NoteNumber":50,"Velocity":41,"Duration":140845,"SoundDuration":140845,"Delta":370125342},{"NoteNumber":54,"Velocity":41,"Duration":152671,"SoundDuration":152671,"Delta":370266187},{"NoteNumber":62,"Velocity":45,"Duration":420401,"SoundDuration":420401,"Delta":370418859},{"NoteNumber":67,"Velocity":45,"Duration":420401,"SoundDuration":420401,"Delta":370418859},{"NoteNumber":71,"Velocity":53,"Duration":420401,"SoundDuration":420401,"Delta":370418859},{"NoteNumber":43,"Velocity":50,"Duration":141509,"SoundDuration":141509,"Delta":370418859},{"NoteNumber":50,"Velocity":44,"Duration":141509,"SoundDuration":141509,"Delta":370560369},{"NoteNumber":55,"Velocity":49,"Duration":141509,"SoundDuration":141509,"Delta":370701878},{"NoteNumber":81,"Velocity":62,"Duration":431598,"SoundDuration":431598,"Delta":370843388},{"NoteNumber":71,"Velocity":52,"Duration":431598,"SoundDuration":431598,"Delta":370843388},{"NoteNumber":69,"Velocity":52,"Duration":431598,"SoundDuration":431598,"Delta":370843388},{"NoteNumber":41,"Velocity":54,"Duration":145278,"SoundDuration":145278,"Delta":370843388},{"NoteNumber":43,"Velocity":44,"Duration":145278,"SoundDuration":145278,"Delta":370988666},{"NoteNumber":53,"Velocity":44,"Duration":145278,"SoundDuration":145278,"Delta":371133945},{"NoteNumber":79,"Velocity":64,"Duration":437960,"SoundDuration":437960,"Delta":371279223},{"NoteNumber":72,"Velocity":54,"Duration":437960,"SoundDuration":437960,"Delta":371279223},{"NoteNumber":67,"Velocity":54,"Duration":437960,"SoundDuration":437960,"Delta":371279223},{"NoteNumber":40,"Velocity":49,"Duration":147420,"SoundDuration":147420,"Delta":371279223},{"NoteNumber":43,"Velocity":38,"Duration":147420,"SoundDuration":147420,"Delta":371426643},{"NoteNumber":52,"Velocity":38,"Duration":147419,"SoundDuration":147419,"Delta":371574063},{"NoteNumber":65,"Velocity":46,"Duration":447727,"SoundDuration":447727,"Delta":371721483},{"NoteNumber":77,"Velocity":55,"Duration":447727,"SoundDuration":447727,"Delta":371721483},{"NoteNumber":71,"Velocity":46,"Duration":447727,"SoundDuration":447727,"Delta":371721483},{"NoteNumber":38,"Velocity":44,"Duration":147420,"SoundDuration":147420,"Delta":371721483},{"NoteNumber":43,"Velocity":30,"Duration":147420,"SoundDuration":147420,"Delta":371868903},{"NoteNumber":50,"Velocity":29,"Duration":157480,"SoundDuration":157480,"Delta":372016323},{"NoteNumber":64,"Velocity":54,"Duration":434782,"SoundDuration":434782,"Delta":372173804},{"NoteNumber":72,"Velocity":54,"Duration":434782,"SoundDuration":434782,"Delta":372173804},{"NoteNumber":76,"Velocity":64,"Duration":434782,"SoundDuration":434782,"Delta":372173804},{"NoteNumber":36,"Velocity":49,"Duration":144927,"SoundDuration":144927,"Delta":372173804},{"NoteNumber":43,"Velocity":38,"Duration":144927,"SoundDuration":144927,"Delta":372318731},{"NoteNumber":48,"Velocity":38,"Duration":144927,"SoundDuration":144927,"Delta":372463659},{"NoteNumber":70,"Velocity":46,"Duration":401403,"SoundDuration":401403,"Delta":372608586},{"NoteNumber":79,"Velocity":55,"Duration":401403,"SoundDuration":401403,"Delta":372608586},{"NoteNumber":67,"Velocity":46,"Duration":401403,"SoundDuration":401403,"Delta":372608586},{"NoteNumber":40,"Velocity":44,"Duration":144927,"SoundDuration":144927,"Delta":372608586},{"NoteNumber":48,"Velocity":30,"Duration":144927,"SoundDuration":144927,"Delta":372753514},{"NoteNumber":52,"Velocity":30,"Duration":157480,"SoundDuration":157480,"Delta":372898441},{"NoteNumber":70,"Velocity":39,"Duration":39370,"SoundDuration":39370,"Delta":373016552},{"NoteNumber":79,"Velocity":47,"Duration":39370,"SoundDuration":39370,"Delta":373016552},{"NoteNumber":69,"Velocity":52,"Duration":173913,"SoundDuration":173913,"Delta":373055922},{"NoteNumber":77,"Velocity":62,"Duration":173913,"SoundDuration":173913,"Delta":373055922},{"NoteNumber":41,"Velocity":42,"Duration":144927,"SoundDuration":144927,"Delta":373055922},{"NoteNumber":48,"Velocity":30,"Duration":144927,"SoundDuration":144927,"Delta":373200849},{"NoteNumber":76,"Velocity":55,"Duration":173913,"SoundDuration":173913,"Delta":373273313},{"NoteNumber":67,"Velocity":46,"Duration":173913,"SoundDuration":173913,"Delta":373273313},{"NoteNumber":53,"Velocity":30,"Duration":144927,"SoundDuration":144927,"Delta":373345777},{"NoteNumber":69,"Velocity":54,"Duration":173913,"SoundDuration":173913,"Delta":373490704},{"NoteNumber":77,"Velocity":64,"Duration":173913,"SoundDuration":173913,"Delta":373490704},{"NoteNumber":41,"Velocity":42,"Duration":144927,"SoundDuration":144927,"Delta":373490704},{"NoteNumber":48,"Velocity":29,"Duration":144927,"SoundDuration":144927,"Delta":373635632},{"NoteNumber":74,"Velocity":55,"Duration":190110,"SoundDuration":190110,"Delta":373708096},{"NoteNumber":65,"Velocity":46,"Duration":190110,"SoundDuration":190110,"Delta":373708096},{"NoteNumber":53,"Velocity":29,"Duration":168067,"SoundDuration":168067,"Delta":373780559},{"NoteNumber":69,"Velocity":50,"Duration":186046,"SoundDuration":186046,"Delta":373948626},{"NoteNumber":64,"Velocity":50,"Duration":186046,"SoundDuration":186046,"Delta":373948626},{"NoteNumber":74,"Velocity":59,"Duration":186046,"SoundDuration":186046,"Delta":373948626},{"NoteNumber":54,"Velocity":49,"Duration":155038,"SoundDuration":155038,"Delta":373948626},{"NoteNumber":43,"Velocity":29,"Duration":155038,"SoundDuration":155038,"Delta":374103665},{"NoteNumber":72,"Velocity":51,"Duration":186046,"SoundDuration":186046,"Delta":374181185},{"NoteNumber":64,"Velocity":43,"Duration":186046,"SoundDuration":186046,"Delta":374181185},{"NoteNumber":69,"Velocity":43,"Duration":186046,"SoundDuration":186046,"Delta":374181185},{"NoteNumber":54,"Velocity":46,"Duration":155039,"SoundDuration":155039,"Delta":374258704},{"NoteNumber":69,"Velocity":50,"Duration":192513,"SoundDuration":192513,"Delta":374413743},{"NoteNumber":64,"Velocity":50,"Duration":192513,"SoundDuration":192513,"Delta":374413743},{"NoteNumber":71,"Velocity":59,"Duration":192513,"SoundDuration":192513,"Delta":374413743},{"NoteNumber":43,"Velocity":34,"Duration":160428,"SoundDuration":160428,"Delta":374413743},{"NoteNumber":54,"Velocity":47,"Duration":160427,"SoundDuration":160427,"Delta":374574171},{"NoteNumber":69,"Velocity":54,"Duration":204474,"SoundDuration":204474,"Delta":374654385},{"NoteNumber":72,"Velocity":64,"Duration":204474,"SoundDuration":204474,"Delta":374654385},{"NoteNumber":64,"Velocity":54,"Duration":204474,"SoundDuration":204474,"Delta":374654385},{"NoteNumber":43,"Velocity":38,"Duration":177515,"SoundDuration":177515,"Delta":374734599},{"NoteNumber":65,"Velocity":60,"Duration":1045577,"SoundDuration":1045577,"Delta":374912114},{"NoteNumber":71,"Velocity":60,"Duration":1045577,"SoundDuration":1045577,"Delta":374912114},{"NoteNumber":76,"Velocity":71,"Duration":824175,"SoundDuration":824175,"Delta":374912114},{"NoteNumber":55,"Velocity":57,"Duration":1217991,"SoundDuration":1217991,"Delta":374912114},{"NoteNumber":43,"Velocity":48,"Duration":1045577,"SoundDuration":1045577,"Delta":374912114},{"NoteNumber":74,"Velocity":62,"Duration":221402,"SoundDuration":221402,"Delta":375736289},{"NoteNumber":64,"Velocity":49,"Duration":172414,"SoundDuration":172414,"Delta":375957691},{"NoteNumber":72,"Velocity":58,"Duration":172414,"SoundDuration":172414,"Delta":375957691},{"NoteNumber":48,"Velocity":44,"Duration":172414,"SoundDuration":172414,"Delta":375957691},{"NoteNumber":81,"Velocity":70,"Duration":564279,"SoundDuration":564279,"Delta":376474933},{"NoteNumber":69,"Velocity":59,"Duration":564279,"SoundDuration":564279,"Delta":376474933},{"NoteNumber":73,"Velocity":70,"Duration":424744,"SoundDuration":424744,"Delta":376474933},{"NoteNumber":77,"Velocity":59,"Duration":564279,"SoundDuration":564279,"Delta":376474933},{"NoteNumber":41,"Velocity":66,"Duration":131290,"SoundDuration":131290,"Delta":376474933},{"NoteNumber":45,"Velocity":44,"Duration":131291,"SoundDuration":131291,"Delta":376606224},{"NoteNumber":49,"Velocity":44,"Duration":162162,"SoundDuration":162162,"Delta":376737515},{"NoteNumber":74,"Velocity":66,"Duration":139535,"SoundDuration":139535,"Delta":376899677},{"NoteNumber":50,"Velocity":66,"Duration":139535,"SoundDuration":139535,"Delta":376899677},{"NoteNumber":52,"Velocity":41,"Duration":139534,"SoundDuration":139534,"Delta":377039212},{"NoteNumber":50,"Velocity":41,"Duration":152671,"SoundDuration":152671,"Delta":377178747},{"NoteNumber":69,"Velocity":59,"Duration":564787,"SoundDuration":564787,"Delta":377331419},{"NoteNumber":73,"Velocity":70,"Duration":425898,"SoundDuration":425898,"Delta":377331419},{"NoteNumber":81,"Velocity":70,"Duration":564787,"SoundDuration":564787,"Delta":377331419},{"NoteNumber":77,"Velocity":59,"Duration":564787,"SoundDuration":564787,"Delta":377331419},{"NoteNumber":41,"Velocity":66,"Duration":131867,"SoundDuration":131867,"Delta":377331419},{"NoteNumber":45,"Velocity":46,"Duration":131867,"SoundDuration":131867,"Delta":377463287},{"NoteNumber":49,"Velocity":46,"Duration":162162,"SoundDuration":162162,"Delta":377595155},{"NoteNumber":74,"Velocity":66,"Duration":138889,"SoundDuration":138889,"Delta":377757317},{"NoteNumber":50,"Velocity":66,"Duration":138889,"SoundDuration":138889,"Delta":377757317},{"NoteNumber":52,"Velocity":43,"Duration":138889,"SoundDuration":138889,"Delta":377896206},{"NoteNumber":50,"Velocity":43,"Duration":153451,"SoundDuration":153451,"Delta":378035095},{"NoteNumber":69,"Velocity":59,"Duration":564146,"SoundDuration":564146,"Delta":378188547},{"NoteNumber":77,"Velocity":59,"Duration":564146,"SoundDuration":564146,"Delta":378188547},{"NoteNumber":73,"Velocity":70,"Duration":425898,"SoundDuration":425898,"Delta":378188547},{"NoteNumber":81,"Velocity":70,"Duration":564146,"SoundDuration":564146,"Delta":378188547},{"NoteNumber":41,"Velocity":66,"Duration":131867,"SoundDuration":131867,"Delta":378188547},{"NoteNumber":45,"Velocity":46,"Duration":131867,"SoundDuration":131867,"Delta":378320415},{"NoteNumber":49,"Velocity":46,"Duration":162162,"SoundDuration":162162,"Delta":378452283},{"NoteNumber":74,"Velocity":66,"Duration":138248,"SoundDuration":138248,"Delta":378614445},{"NoteNumber":50,"Velocity":66,"Duration":138248,"SoundDuration":138248,"Delta":378614445},{"NoteNumber":52,"Velocity":43,"Duration":138249,"SoundDuration":138249,"Delta":378752694},{"NoteNumber":50,"Velocity":43,"Duration":153451,"SoundDuration":153451,"Delta":378890943},{"NoteNumber":69,"Velocity":59,"Duration":436601,"SoundDuration":436601,"Delta":379044394},{"NoteNumber":73,"Velocity":70,"Duration":436601,"SoundDuration":436601,"Delta":379044394},{"NoteNumber":81,"Velocity":70,"Duration":436601,"SoundDuration":436601,"Delta":379044394},{"NoteNumber":77,"Velocity":59,"Duration":436601,"SoundDuration":436601,"Delta":379044394},{"NoteNumber":41,"Velocity":66,"Duration":149100,"SoundDuration":149100,"Delta":379044394},{"NoteNumber":45,"Velocity":44,"Duration":153853,"SoundDuration":153853,"Delta":379193494},{"NoteNumber":49,"Velocity":44,"Duration":206585,"SoundDuration":206585,"Delta":379347348},{"NoteNumber":70,"Velocity":49,"Duration":506302,"SoundDuration":506302,"Delta":379488857},{"NoteNumber":77,"Velocity":51,"Duration":459243,"SoundDuration":459243,"Delta":379511585},{"NoteNumber":84,"Velocity":51,"Duration":19621,"SoundDuration":19621,"Delta":379534312},{"NoteNumber":82,"Velocity":62,"Duration":441225,"SoundDuration":441225,"Delta":379553934},{"NoteNumber":50,"Velocity":50,"Duration":147743,"SoundDuration":147743,"Delta":379553934},{"NoteNumber":53,"Velocity":41,"Duration":147114,"SoundDuration":147114,"Delta":379701677},{"NoteNumber":62,"Velocity":38,"Duration":146367,"SoundDuration":146367,"Delta":379848792},{"NoteNumber":77,"Velocity":45,"Duration":434698,"SoundDuration":434698,"Delta":379995160},{"NoteNumber":81,"Velocity":53,"Duration":434698,"SoundDuration":434698,"Delta":379995160},{"NoteNumber":69,"Velocity":45,"Duration":434698,"SoundDuration":434698,"Delta":379995160},{"NoteNumber":48,"Velocity":50,"Duration":145628,"SoundDuration":145628,"Delta":379995160},{"NoteNumber":53,"Velocity":44,"Duration":144897,"SoundDuration":144897,"Delta":380140788},{"NoteNumber":60,"Velocity":36,"Duration":144172,"SoundDuration":144172,"Delta":380285686},{"NoteNumber":79,"Velocity":59,"Duration":419117,"SoundDuration":419117,"Delta":380429858},{"NoteNumber":67,"Velocity":49,"Duration":419117,"SoundDuration":419117,"Delta":380429858},{"NoteNumber":74,"Velocity":49,"Duration":419117,"SoundDuration":419117,"Delta":380429858},{"NoteNumber":46,"Velocity":50,"Duration":141509,"SoundDuration":141509,"Delta":380429858},{"NoteNumber":50,"Velocity":40,"Duration":141509,"SoundDuration":141509,"Delta":380571367},{"NoteNumber":58,"Velocity":36,"Duration":140187,"SoundDuration":140187,"Delta":380712877},{"NoteNumber":77,"Velocity":47,"Duration":428593,"SoundDuration":428593,"Delta":380853064},{"NoteNumber":74,"Velocity":39,"Duration":428593,"SoundDuration":428593,"Delta":380853064},{"NoteNumber":67,"Velocity":39,"Duration":428593,"SoundDuration":428593,"Delta":380853064},{"NoteNumber":47,"Velocity":50,"Duration":140186,"SoundDuration":140186,"Delta":380853064},{"NoteNumber":50,"Velocity":41,"Duration":140187,"SoundDuration":140187,"Delta":380993251},{"NoteNumber":59,"Velocity":32,"Duration":152671,"SoundDuration":152671,"Delta":381133438},{"NoteNumber":76,"Velocity":53,"Duration":418427,"SoundDuration":418427,"Delta":381286110},{"NoteNumber":67,"Velocity":45,"Duration":418427,"SoundDuration":418427,"Delta":381286110},{"NoteNumber":72,"Velocity":45,"Duration":418427,"SoundDuration":418427,"Delta":381286110},{"NoteNumber":48,"Velocity":50,"Duration":140845,"SoundDuration":140845,"Delta":381286110},{"NoteNumber":55,"Velocity":40,"Duration":140845,"SoundDuration":140845,"Delta":381426955},{"NoteNumber":60,"Velocity":38,"Duration":140844,"SoundDuration":140844,"Delta":381567800},{"NoteNumber":74,"Velocity":45,"Duration":426434,"SoundDuration":426434,"Delta":381708645},{"NoteNumber":67,"Velocity":38,"Duration":426434,"SoundDuration":426434,"Delta":381708645},{"NoteNumber":65,"Velocity":38,"Duration":426434,"SoundDuration":426434,"Delta":381708645},{"NoteNumber":48,"Velocity":46,"Duration":143540,"SoundDuration":143540,"Delta":381708645},{"NoteNumber":53,"Velocity":32,"Duration":143540,"SoundDuration":143540,"Delta":381852185},{"NoteNumber":59,"Velocity":30,"Duration":143540,"SoundDuration":143540,"Delta":381995726},{"NoteNumber":72,"Velocity":53,"Duration":437960,"SoundDuration":437960,"Delta":382139266},{"NoteNumber":67,"Velocity":45,"Duration":437960,"SoundDuration":437960,"Delta":382139266},{"NoteNumber":64,"Velocity":45,"Duration":437960,"SoundDuration":437960,"Delta":382139266},{"NoteNumber":48,"Velocity":47,"Duration":147420,"SoundDuration":147420,"Delta":382139266},{"NoteNumber":52,"Velocity":36,"Duration":147420,"SoundDuration":147420,"Delta":382286686},{"NoteNumber":60,"Velocity":30,"Duration":147419,"SoundDuration":147419,"Delta":382434106},{"NoteNumber":67,"Velocity":37,"Duration":447727,"SoundDuration":447727,"Delta":382581526},{"NoteNumber":64,"Velocity":37,"Duration":447727,"SoundDuration":447727,"Delta":382581526},{"NoteNumber":70,"Velocity":45,"Duration":447727,"SoundDuration":447727,"Delta":382581526},{"NoteNumber":48,"Velocity":41,"Duration":147420,"SoundDuration":147420,"Delta":382581526},{"NoteNumber":55,"Velocity":30,"Duration":147420,"SoundDuration":147420,"Delta":382728946},{"NoteNumber":60,"Velocity":29,"Duration":157480,"SoundDuration":157480,"Delta":382876366},{"NoteNumber":65,"Velocity":37,"Duration":142517,"SoundDuration":142517,"Delta":383033847},{"NoteNumber":69,"Velocity":43,"Duration":142517,"SoundDuration":142517,"Delta":383033847},{"NoteNumber":53,"Velocity":37,"Duration":142517,"SoundDuration":142517,"Delta":383033847},{"NoteNumber":81,"Velocity":70,"Duration":561677,"SoundDuration":561677,"Delta":383461401},{"NoteNumber":69,"Velocity":59,"Duration":561677,"SoundDuration":561677,"Delta":383461401},{"NoteNumber":73,"Velocity":70,"Duration":422466,"SoundDuration":422466,"Delta":383461401},{"NoteNumber":77,"Velocity":59,"Duration":561677,"SoundDuration":561677,"Delta":383461401},{"NoteNumber":41,"Velocity":66,"Duration":130152,"SoundDuration":130152,"Delta":383461401},{"NoteNumber":45,"Velocity":44,"Duration":130152,"SoundDuration":130152,"Delta":383591553},{"NoteNumber":49,"Velocity":44,"Duration":162162,"SoundDuration":162162,"Delta":383721705},{"NoteNumber":74,"Velocity":66,"Duration":139210,"SoundDuration":139210,"Delta":383883867},{"NoteNumber":50,"Velocity":66,"Duration":139210,"SoundDuration":139210,"Delta":383883867},{"NoteNumber":52,"Velocity":41,"Duration":139210,"SoundDuration":139210,"Delta":384023078},{"NoteNumber":50,"Velocity":41,"Duration":152671,"SoundDuration":152671,"Delta":384162289},{"NoteNumber":81,"Velocity":70,"Duration":563060,"SoundDuration":563060,"Delta":384314961},{"NoteNumber":76,"Velocity":59,"Duration":424171,"SoundDuration":424171,"Delta":384314961},{"NoteNumber":69,"Velocity":59,"Duration":563060,"SoundDuration":563060,"Delta":384314961},{"NoteNumber":37,"Velocity":66,"Duration":131004,"SoundDuration":131004,"Delta":384314961},{"NoteNumber":40,"Velocity":46,"Duration":131004,"SoundDuration":131004,"Delta":384445965},{"NoteNumber":45,"Velocity":46,"Duration":162162,"SoundDuration":162162,"Delta":384576970},{"NoteNumber":77,"Velocity":66,"Duration":138889,"SoundDuration":138889,"Delta":384739132},{"NoteNumber":38,"Velocity":66,"Duration":138889,"SoundDuration":138889,"Delta":384739132},{"NoteNumber":41,"Velocity":43,"Duration":138889,"SoundDuration":138889,"Delta":384878021},{"NoteNumber":45,"Velocity":43,"Duration":153451,"SoundDuration":153451,"Delta":385016910},{"NoteNumber":72,"Velocity":59,"Duration":559766,"SoundDuration":559766,"Delta":385170361},{"NoteNumber":81,"Velocity":59,"Duration":559766,"SoundDuration":559766,"Delta":385170361},{"NoteNumber":76,"Velocity":70,"Duration":422466,"SoundDuration":422466,"Delta":385170361},{"NoteNumber":84,"Velocity":70,"Duration":559766,"SoundDuration":559766,"Delta":385170361},{"NoteNumber":45,"Velocity":66,"Duration":130152,"SoundDuration":130152,"Delta":385170361},{"NoteNumber":48,"Velocity":46,"Duration":130152,"SoundDuration":130152,"Delta":385300513},{"NoteNumber":52,"Velocity":46,"Duration":162162,"SoundDuration":162162,"Delta":385430665},{"NoteNumber":77,"Velocity":66,"Duration":137299,"SoundDuration":137299,"Delta":385592827},{"NoteNumber":53,"Velocity":66,"Duration":137299,"SoundDuration":137299,"Delta":385592827},{"NoteNumber":55,"Velocity":43,"Duration":137300,"SoundDuration":137300,"Delta":385730127},{"NoteNumber":53,"Velocity":43,"Duration":153451,"SoundDuration":153451,"Delta":385867427},{"NoteNumber":80,"Velocity":59,"Duration":440098,"SoundDuration":440098,"Delta":386020878},{"NoteNumber":84,"Velocity":76,"Duration":586797,"SoundDuration":586797,"Delta":386020878},{"NoteNumber":72,"Velocity":59,"Duration":586797,"SoundDuration":586797,"Delta":386020878},{"NoteNumber":40,"Velocity":66,"Duration":146699,"SoundDuration":146699,"Delta":386020878},{"NoteNumber":44,"Velocity":46,"Duration":146699,"SoundDuration":146699,"Delta":386167578},{"NoteNumber":48,"Velocity":46,"Duration":146699,"SoundDuration":146699,"Delta":386314277},{"NoteNumber":81,"Velocity":73,"Duration":146699,"SoundDuration":146699,"Delta":386460977},{"NoteNumber":41,"Velocity":66,"Duration":146699,"SoundDuration":146699,"Delta":386460977},{"NoteNumber":45,"Velocity":43,"Duration":146699,"SoundDuration":146699,"Delta":386607676},{"NoteNumber":48,"Velocity":43,"Duration":146699,"SoundDuration":146699,"Delta":386754376},{"NoteNumber":76,"Velocity":70,"Duration":436601,"SoundDuration":436601,"Delta":386901075},{"NoteNumber":88,"Velocity":70,"Duration":436601,"SoundDuration":436601,"Delta":386901075},{"NoteNumber":84,"Velocity":59,"Duration":436601,"SoundDuration":436601,"Delta":386901075},{"NoteNumber":44,"Velocity":66,"Duration":149100,"SoundDuration":149100,"Delta":386901075},{"NoteNumber":48,"Velocity":44,"Duration":153853,"SoundDuration":153853,"Delta":387050176},{"NoteNumber":52,"Velocity":44,"Duration":214099,"SoundDuration":214099,"Delta":387204030},{"NoteNumber":77,"Velocity":56,"Duration":513816,"SoundDuration":513816,"Delta":387345539},{"NoteNumber":84,"Velocity":52,"Duration":463974,"SoundDuration":463974,"Delta":387371049},{"NoteNumber":91,"Velocity":51,"Duration":21570,"SoundDuration":21570,"Delta":387396559},{"NoteNumber":89,"Velocity":74,"Duration":441225,"SoundDuration":441225,"Delta":387418129},{"NoteNumber":45,"Velocity":50,"Duration":147743,"SoundDuration":147743,"Delta":387418129},{"NoteNumber":48,"Velocity":41,"Duration":147114,"SoundDuration":147114,"Delta":387565873},{"NoteNumber":57,"Velocity":41,"Duration":146367,"SoundDuration":146367,"Delta":387712988},{"NoteNumber":88,"Velocity":60,"Duration":430501,"SoundDuration":430501,"Delta":387859355},{"NoteNumber":76,"Velocity":51,"Duration":430501,"SoundDuration":430501,"Delta":387859355},{"NoteNumber":84,"Velocity":51,"Duration":430501,"SoundDuration":430501,"Delta":387859355},{"NoteNumber":43,"Velocity":50,"Duration":145628,"SoundDuration":145628,"Delta":387859355},{"NoteNumber":48,"Velocity":44,"Duration":144897,"SoundDuration":144897,"Delta":388004983},{"NoteNumber":55,"Velocity":44,"Duration":144172,"SoundDuration":144172,"Delta":388149881},{"NoteNumber":81,"Velocity":56,"Duration":421794,"SoundDuration":421794,"Delta":388294053},{"NoteNumber":86,"Velocity":67,"Duration":421794,"SoundDuration":421794,"Delta":388294053},{"NoteNumber":74,"Velocity":56,"Duration":421794,"SoundDuration":421794,"Delta":388294053},{"NoteNumber":41,"Velocity":50,"Duration":143559,"SoundDuration":143559,"Delta":388294053},{"NoteNumber":48,"Velocity":40,"Duration":141176,"SoundDuration":141176,"Delta":388437612},{"NoteNumber":53,"Velocity":40,"Duration":141176,"SoundDuration":141176,"Delta":388578789},{"NoteNumber":74,"Velocity":44,"Duration":430572,"SoundDuration":430572,"Delta":388719965},{"NoteNumber":81,"Velocity":44,"Duration":430572,"SoundDuration":430572,"Delta":388719965},{"NoteNumber":72,"Velocity":44,"Duration":430572,"SoundDuration":430572,"Delta":388719965},{"NoteNumber":84,"Velocity":54,"Duration":430572,"SoundDuration":430572,"Delta":388719965},{"NoteNumber":42,"Velocity":50,"Duration":141176,"SoundDuration":141176,"Delta":388719965},{"NoteNumber":50,"Velocity":41,"Duration":141176,"SoundDuration":141176,"Delta":388861142},{"NoteNumber":54,"Velocity":41,"Duration":152671,"SoundDuration":152671,"Delta":389002318},{"NoteNumber":74,"Velocity":51,"Duration":387058,"SoundDuration":387058,"Delta":389154990},{"NoteNumber":79,"Velocity":51,"Duration":387058,"SoundDuration":387058,"Delta":389154990},{"NoteNumber":83,"Velocity":60,"Duration":387058,"SoundDuration":387058,"Delta":389154990},{"NoteNumber":71,"Velocity":51,"Duration":387058,"SoundDuration":387058,"Delta":389154990},{"NoteNumber":43,"Velocity":50,"Duration":141176,"SoundDuration":141176,"Delta":389154990},{"NoteNumber":50,"Velocity":44,"Duration":141176,"SoundDuration":141176,"Delta":389296167},{"NoteNumber":55,"Velocity":49,"Duration":141176,"SoundDuration":141176,"Delta":389437343},{"NoteNumber":81,"Velocity":59,"Duration":466949,"SoundDuration":466949,"Delta":389543226},{"NoteNumber":83,"Velocity":59,"Duration":449302,"SoundDuration":449302,"Delta":389560873},{"NoteNumber":93,"Velocity":71,"Duration":431654,"SoundDuration":431654,"Delta":389578520},{"NoteNumber":41,"Velocity":54,"Duration":143885,"SoundDuration":143885,"Delta":389578520},{"NoteNumber":43,"Velocity":44,"Duration":143885,"SoundDuration":143885,"Delta":389722405},{"NoteNumber":53,"Velocity":44,"Duration":143884,"SoundDuration":143884,"Delta":389866290},{"NoteNumber":91,"Velocity":73,"Duration":433751,"SoundDuration":433751,"Delta":390010175},{"NoteNumber":84,"Velocity":62,"Duration":433751,"SoundDuration":433751,"Delta":390010175},{"NoteNumber":79,"Velocity":62,"Duration":433751,"SoundDuration":433751,"Delta":390010175},{"NoteNumber":40,"Velocity":49,"Duration":147420,"SoundDuration":147420,"Delta":390010175},{"NoteNumber":43,"Velocity":38,"Duration":145630,"SoundDuration":145630,"Delta":390157595},{"NoteNumber":52,"Velocity":38,"Duration":144927,"SoundDuration":144927,"Delta":390303226},{"NoteNumber":83,"Velocity":52,"Duration":442742,"SoundDuration":442742,"Delta":390448153},{"NoteNumber":77,"Velocity":52,"Duration":442742,"SoundDuration":442742,"Delta":390448153},{"NoteNumber":89,"Velocity":63,"Duration":442742,"SoundDuration":442742,"Delta":390448153},{"NoteNumber":38,"Velocity":44,"Duration":144927,"SoundDuration":144927,"Delta":390448153},{"NoteNumber":43,"Velocity":30,"Duration":144927,"SoundDuration":144927,"Delta":390593081},{"NoteNumber":50,"Velocity":29,"Duration":157480,"SoundDuration":157480,"Delta":390738008},{"NoteNumber":88,"Velocity":73,"Duration":437960,"SoundDuration":437960,"Delta":390895489},{"NoteNumber":84,"Velocity":62,"Duration":437960,"SoundDuration":437960,"Delta":390895489},{"NoteNumber":76,"Velocity":62,"Duration":437960,"SoundDuration":437960,"Delta":390895489},{"NoteNumber":36,"Velocity":49,"Duration":147420,"SoundDuration":147420,"Delta":390895489},{"NoteNumber":43,"Velocity":38,"Duration":147420,"SoundDuration":147420,"Delta":391042909},{"NoteNumber":48,"Velocity":38,"Duration":147419,"SoundDuration":147419,"Delta":391190329},{"NoteNumber":79,"Velocity":52,"Duration":406388,"SoundDuration":406388,"Delta":391337749},{"NoteNumber":82,"Velocity":52,"Duration":406388,"SoundDuration":406388,"Delta":391337749},{"NoteNumber":91,"Velocity":63,"Duration":406388,"SoundDuration":406388,"Delta":391337749},{"NoteNumber":40,"Velocity":44,"Duration":147420,"SoundDuration":147420,"Delta":391337749},{"NoteNumber":48,"Velocity":30,"Duration":147420,"SoundDuration":147420,"Delta":391485169},{"NoteNumber":52,"Velocity":30,"Duration":157480,"SoundDuration":157480,"Delta":391632589},{"NoteNumber":79,"Velocity":42,"Duration":39370,"SoundDuration":39370,"Delta":391750699},{"NoteNumber":82,"Velocity":42,"Duration":39370,"SoundDuration":39370,"Delta":391750699},{"NoteNumber":91,"Velocity":51,"Duration":39370,"SoundDuration":39370,"Delta":391750699},{"NoteNumber":77,"Velocity":57,"Duration":176903,"SoundDuration":176903,"Delta":391790069},{"NoteNumber":89,"Velocity":68,"Duration":176903,"SoundDuration":176903,"Delta":391790069},{"NoteNumber":81,"Velocity":57,"Duration":176903,"SoundDuration":176903,"Delta":391790069},{"NoteNumber":41,"Velocity":42,"Duration":147420,"SoundDuration":147420,"Delta":391790069},{"NoteNumber":48,"Velocity":30,"Duration":147420,"SoundDuration":147420,"Delta":391937489},{"NoteNumber":88,"Velocity":60,"Duration":176903,"SoundDuration":176903,"Delta":392011199},{"NoteNumber":76,"Velocity":50,"Duration":176903,"SoundDuration":176903,"Delta":392011199},{"NoteNumber":79,"Velocity":50,"Duration":176903,"SoundDuration":176903,"Delta":392011199},{"NoteNumber":53,"Velocity":30,"Duration":147419,"SoundDuration":147419,"Delta":392084909},{"NoteNumber":77,"Velocity":59,"Duration":176904,"SoundDuration":176904,"Delta":392232329},{"NoteNumber":81,"Velocity":59,"Duration":176904,"SoundDuration":176904,"Delta":392232329},{"NoteNumber":89,"Velocity":70,"Duration":176904,"SoundDuration":176904,"Delta":392232329},{"NoteNumber":41,"Velocity":42,"Duration":147420,"SoundDuration":147420,"Delta":392232329},{"NoteNumber":48,"Velocity":29,"Duration":147420,"SoundDuration":147420,"Delta":392379749},{"NoteNumber":74,"Velocity":50,"Duration":191356,"SoundDuration":191356,"Delta":392453459},{"NoteNumber":81,"Velocity":50,"Duration":191356,"SoundDuration":191356,"Delta":392453459},{"NoteNumber":86,"Velocity":60,"Duration":191356,"SoundDuration":191356,"Delta":392453459},{"NoteNumber":53,"Velocity":29,"Duration":168067,"SoundDuration":168067,"Delta":392527169},{"NoteNumber":76,"Velocity":55,"Duration":186046,"SoundDuration":186046,"Delta":392695236},{"NoteNumber":74,"Velocity":55,"Duration":186046,"SoundDuration":186046,"Delta":392695236},{"NoteNumber":86,"Velocity":64,"Duration":186046,"SoundDuration":186046,"Delta":392695236},{"NoteNumber":81,"Velocity":55,"Duration":186046,"SoundDuration":186046,"Delta":392695236},{"NoteNumber":54,"Velocity":49,"Duration":155038,"SoundDuration":155038,"Delta":392695236},{"NoteNumber":43,"Velocity":29,"Duration":155038,"SoundDuration":155038,"Delta":392850275},{"NoteNumber":72,"Velocity":47,"Duration":186046,"SoundDuration":186046,"Delta":392927795},{"NoteNumber":84,"Velocity":56,"Duration":186046,"SoundDuration":186046,"Delta":392927795},{"NoteNumber":76,"Velocity":47,"Duration":186046,"SoundDuration":186046,"Delta":392927795},{"NoteNumber":81,"Velocity":47,"Duration":186046,"SoundDuration":186046,"Delta":392927795},{"NoteNumber":54,"Velocity":46,"Duration":155039,"SoundDuration":155039,"Delta":393005314},{"NoteNumber":83,"Velocity":64,"Duration":192513,"SoundDuration":192513,"Delta":393160353},{"NoteNumber":76,"Velocity":55,"Duration":192513,"SoundDuration":192513,"Delta":393160353},{"NoteNumber":71,"Velocity":55,"Duration":192513,"SoundDuration":192513,"Delta":393160353},{"NoteNumber":81,"Velocity":55,"Duration":192513,"SoundDuration":192513,"Delta":393160353},{"NoteNumber":43,"Velocity":34,"Duration":160428,"SoundDuration":160428,"Delta":393160353},{"NoteNumber":54,"Velocity":47,"Duration":160427,"SoundDuration":160427,"Delta":393320781},{"NoteNumber":84,"Velocity":70,"Duration":210244,"SoundDuration":210244,"Delta":393400995},{"NoteNumber":76,"Velocity":59,"Duration":210244,"SoundDuration":210244,"Delta":393400995},{"NoteNumber":72,"Velocity":59,"Duration":210244,"SoundDuration":210244,"Delta":393400995},{"NoteNumber":81,"Velocity":59,"Duration":210244,"SoundDuration":210244,"Delta":393400995},{"NoteNumber":43,"Velocity":38,"Duration":185758,"SoundDuration":185758,"Delta":393481209},{"NoteNumber":55,"Velocity":42,"Duration":46439,"SoundDuration":46439,"Delta":393620528},{"NoteNumber":88,"Velocity":71,"Duration":854699,"SoundDuration":854699,"Delta":393666968},{"NoteNumber":83,"Velocity":60,"Duration":1110018,"SoundDuration":1110018,"Delta":393666968},{"NoteNumber":76,"Velocity":60,"Duration":854699,"SoundDuration":854699,"Delta":393666968},{"NoteNumber":77,"Velocity":60,"Duration":1110018,"SoundDuration":1110018,"Delta":393666968},{"NoteNumber":65,"Velocity":48,"Duration":1046189,"SoundDuration":1046189,"Delta":393666968},{"NoteNumber":71,"Velocity":57,"Duration":1046189,"SoundDuration":1046189,"Delta":393666968},{"NoteNumber":86,"Velocity":62,"Duration":255318,"SoundDuration":255318,"Delta":394521668},{"NoteNumber":74,"Velocity":52,"Duration":255318,"SoundDuration":255318,"Delta":394521668},{"NoteNumber":48,"Velocity":37,"Duration":128484,"SoundDuration":128484,"Delta":394713157},{"NoteNumber":55,"Velocity":37,"Duration":114392,"SoundDuration":114392,"Delta":394734434},{"NoteNumber":60,"Velocity":37,"Duration":100299,"SoundDuration":100299,"Delta":394755710},{"NoteNumber":72,"Velocity":49,"Duration":86207,"SoundDuration":86207,"Delta":394776987},{"NoteNumber":79,"Velocity":49,"Duration":86207,"SoundDuration":86207,"Delta":394776987},{"NoteNumber":84,"Velocity":58,"Duration":86207,"SoundDuration":86207,"Delta":394776987},{"NoteNumber":76,"Velocity":49,"Duration":86207,"SoundDuration":86207,"Delta":394776987},{"NoteNumber":64,"Velocity":44,"Duration":86207,"SoundDuration":86207,"Delta":394776987},{"NoteNumber":84,"Velocity":68,"Duration":65934,"SoundDuration":65934,"Delta":395294229},{"NoteNumber":88,"Velocity":81,"Duration":65934,"SoundDuration":65934,"Delta":395294229},{"NoteNumber":76,"Velocity":68,"Duration":65934,"SoundDuration":65934,"Delta":395294229},{"NoteNumber":54,"Velocity":58,"Duration":131867,"SoundDuration":131867,"Delta":395294229},{"NoteNumber":52,"Velocity":49,"Duration":131867,"SoundDuration":131867,"Delta":395426097},{"NoteNumber":54,"Velocity":49,"Duration":131867,"SoundDuration":131867,"Delta":395557965},{"NoteNumber":74,"Velocity":67,"Duration":66225,"SoundDuration":66225,"Delta":395689833},{"NoteNumber":83,"Velocity":67,"Duration":66225,"SoundDuration":66225,"Delta":395689833},{"NoteNumber":86,"Velocity":79,"Duration":66225,"SoundDuration":66225,"Delta":395689833},{"NoteNumber":55,"Velocity":58,"Duration":132450,"SoundDuration":132450,"Delta":395689833},{"NoteNumber":50,"Velocity":52,"Duration":132450,"SoundDuration":132450,"Delta":395822283},{"NoteNumber":43,"Velocity":52,"Duration":137930,"SoundDuration":137930,"Delta":395954734},{"NoteNumber":84,"Velocity":68,"Duration":66518,"SoundDuration":66518,"Delta":396092665},{"NoteNumber":76,"Velocity":68,"Duration":66518,"SoundDuration":66518,"Delta":396092665},{"NoteNumber":88,"Velocity":80,"Duration":66518,"SoundDuration":66518,"Delta":396092665},{"NoteNumber":54,"Velocity":58,"Duration":133037,"SoundDuration":133037,"Delta":396092665},{"NoteNumber":52,"Velocity":52,"Duration":133037,"SoundDuration":133037,"Delta":396225702},{"NoteNumber":54,"Velocity":52,"Duration":133037,"SoundDuration":133037,"Delta":396358740},{"NoteNumber":74,"Velocity":63,"Duration":66371,"SoundDuration":66371,"Delta":396491777},{"NoteNumber":86,"Velocity":75,"Duration":66371,"SoundDuration":66371,"Delta":396491777},{"NoteNumber":83,"Velocity":63,"Duration":66371,"SoundDuration":66371,"Delta":396491777},{"NoteNumber":55,"Velocity":58,"Duration":132743,"SoundDuration":132743,"Delta":396491777},{"NoteNumber":50,"Velocity":52,"Duration":132743,"SoundDuration":132743,"Delta":396624521},{"NoteNumber":43,"Velocity":52,"Duration":138568,"SoundDuration":138568,"Delta":396757264},{"NoteNumber":95,"Velocity":78,"Duration":131867,"SoundDuration":131867,"Delta":396895832},{"NoteNumber":83,"Velocity":66,"Duration":131867,"SoundDuration":131867,"Delta":396895832},{"NoteNumber":55,"Velocity":57,"Duration":65934,"SoundDuration":65934,"Delta":396895832},{"NoteNumber":62,"Velocity":57,"Duration":65934,"SoundDuration":65934,"Delta":396895832},{"NoteNumber":67,"Velocity":68,"Duration":65934,"SoundDuration":65934,"Delta":396895832},{"NoteNumber":65,"Velocity":57,"Duration":65934,"SoundDuration":65934,"Delta":396895832},{"NoteNumber":93,"Velocity":65,"Duration":131867,"SoundDuration":131867,"Delta":397027700},{"NoteNumber":95,"Velocity":65,"Duration":131867,"SoundDuration":131867,"Delta":397159568},{"NoteNumber":48,"Velocity":52,"Duration":98901,"SoundDuration":98901,"Delta":397258469},{"NoteNumber":55,"Velocity":52,"Duration":82417,"SoundDuration":82417,"Delta":397274953},{"NoteNumber":84,"Velocity":67,"Duration":131867,"SoundDuration":131867,"Delta":397291436},{"NoteNumber":96,"Velocity":79,"Duration":131867,"SoundDuration":131867,"Delta":397291436},{"NoteNumber":64,"Velocity":62,"Duration":65934,"SoundDuration":65934,"Delta":397291436},{"NoteNumber":91,"Velocity":67,"Duration":131867,"SoundDuration":131867,"Delta":397423304},{"NoteNumber":88,"Velocity":67,"Duration":133630,"SoundDuration":133630,"Delta":397555172},{"NoteNumber":83,"Velocity":66,"Duration":131867,"SoundDuration":131867,"Delta":397688803},{"NoteNumber":95,"Velocity":78,"Duration":131867,"SoundDuration":131867,"Delta":397688803},{"NoteNumber":62,"Velocity":58,"Duration":65934,"SoundDuration":65934,"Delta":397688803},{"NoteNumber":65,"Velocity":58,"Duration":65934,"SoundDuration":65934,"Delta":397688803},{"NoteNumber":67,"Velocity":69,"Duration":65934,"SoundDuration":65934,"Delta":397688803},{"NoteNumber":55,"Velocity":58,"Duration":65934,"SoundDuration":65934,"Delta":397688803},{"NoteNumber":93,"Velocity":63,"Duration":131867,"SoundDuration":131867,"Delta":397820671},{"NoteNumber":95,"Velocity":63,"Duration":131867,"SoundDuration":131867,"Delta":397952539},{"NoteNumber":48,"Velocity":53,"Duration":98901,"SoundDuration":98901,"Delta":398051440},{"NoteNumber":55,"Velocity":53,"Duration":82417,"SoundDuration":82417,"Delta":398067923},{"NoteNumber":96,"Velocity":76,"Duration":131867,"SoundDuration":131867,"Delta":398084407},{"NoteNumber":84,"Velocity":64,"Duration":131867,"SoundDuration":131867,"Delta":398084407},{"NoteNumber":64,"Velocity":63,"Duration":65934,"SoundDuration":65934,"Delta":398084407},{"NoteNumber":91,"Velocity":65,"Duration":131867,"SoundDuration":131867,"Delta":398216275},{"NoteNumber":88,"Velocity":65,"Duration":137299,"SoundDuration":137299,"Delta":398348143},{"NoteNumber":84,"Velocity":68,"Duration":65934,"SoundDuration":65934,"Delta":398485443},{"NoteNumber":76,"Velocity":68,"Duration":65934,"SoundDuration":65934,"Delta":398485443},{"NoteNumber":88,"Velocity":81,"Duration":65934,"SoundDuration":65934,"Delta":398485443},{"NoteNumber":54,"Velocity":58,"Duration":131867,"SoundDuration":131867,"Delta":398485443},{"NoteNumber":52,"Velocity":49,"Duration":131867,"SoundDuration":131867,"Delta":398617311},{"NoteNumber":54,"Velocity":49,"Duration":131867,"SoundDuration":131867,"Delta":398749179},{"NoteNumber":74,"Velocity":67,"Duration":66225,"SoundDuration":66225,"Delta":398881047},{"NoteNumber":83,"Velocity":67,"Duration":66225,"SoundDuration":66225,"Delta":398881047},{"NoteNumber":86,"Velocity":79,"Duration":66225,"SoundDuration":66225,"Delta":398881047},{"NoteNumber":55,"Velocity":58,"Duration":132450,"SoundDuration":132450,"Delta":398881047},{"NoteNumber":50,"Velocity":52,"Duration":132450,"SoundDuration":132450,"Delta":399013497},{"NoteNumber":43,"Velocity":52,"Duration":137930,"SoundDuration":137930,"Delta":399145948},{"NoteNumber":76,"Velocity":68,"Duration":66518,"SoundDuration":66518,"Delta":399283879},{"NoteNumber":84,"Velocity":68,"Duration":66518,"SoundDuration":66518,"Delta":399283879},{"NoteNumber":88,"Velocity":80,"Duration":66518,"SoundDuration":66518,"Delta":399283879},{"NoteNumber":54,"Velocity":58,"Duration":133037,"SoundDuration":133037,"Delta":399283879},{"NoteNumber":52,"Velocity":52,"Duration":133037,"SoundDuration":133037,"Delta":399416916},{"NoteNumber":54,"Velocity":52,"Duration":133037,"SoundDuration":133037,"Delta":399549954},{"NoteNumber":83,"Velocity":63,"Duration":66371,"SoundDuration":66371,"Delta":399682991},{"NoteNumber":74,"Velocity":63,"Duration":66371,"SoundDuration":66371,"Delta":399682991},{"NoteNumber":86,"Velocity":75,"Duration":66371,"SoundDuration":66371,"Delta":399682991},{"NoteNumber":55,"Velocity":58,"Duration":132743,"SoundDuration":132743,"Delta":399682991},{"NoteNumber":50,"Velocity":52,"Duration":132743,"SoundDuration":132743,"Delta":399815735},{"NoteNumber":43,"Velocity":52,"Duration":138568,"SoundDuration":138568,"Delta":399948478},{"NoteNumber":95,"Velocity":78,"Duration":131867,"SoundDuration":131867,"Delta":400087046},{"NoteNumber":83,"Velocity":66,"Duration":131867,"SoundDuration":131867,"Delta":400087046},{"NoteNumber":65,"Velocity":57,"Duration":65934,"SoundDuration":65934,"Delta":400087046},{"NoteNumber":67,"Velocity":68,"Duration":65934,"SoundDuration":65934,"Delta":400087046},{"NoteNumber":62,"Velocity":57,"Duration":65934,"SoundDuration":65934,"Delta":400087046},{"NoteNumber":55,"Velocity":57,"Duration":65934,"SoundDuration":65934,"Delta":400087046},{"NoteNumber":93,"Velocity":65,"Duration":131867,"SoundDuration":131867,"Delta":400218914},{"NoteNumber":95,"Velocity":65,"Duration":131867,"SoundDuration":131867,"Delta":400350782},{"NoteNumber":48,"Velocity":52,"Duration":98901,"SoundDuration":98901,"Delta":400449683},{"NoteNumber":55,"Velocity":52,"Duration":82417,"SoundDuration":82417,"Delta":400466167},{"NoteNumber":96,"Velocity":79,"Duration":131867,"SoundDuration":131867,"Delta":400482650},{"NoteNumber":84,"Velocity":67,"Duration":131867,"SoundDuration":131867,"Delta":400482650},{"NoteNumber":64,"Velocity":62,"Duration":65934,"SoundDuration":65934,"Delta":400482650},{"NoteNumber":91,"Velocity":67,"Duration":131867,"SoundDuration":131867,"Delta":400614518},{"NoteNumber":88,"Velocity":67,"Duration":133630,"SoundDuration":133630,"Delta":400746386},{"NoteNumber":95,"Velocity":78,"Duration":131867,"SoundDuration":131867,"Delta":400880017},{"NoteNumber":83,"Velocity":66,"Duration":131867,"SoundDuration":131867,"Delta":400880017},{"NoteNumber":62,"Velocity":58,"Duration":65934,"SoundDuration":65934,"Delta":400880017},{"NoteNumber":67,"Velocity":69,"Duration":65934,"SoundDuration":65934,"Delta":400880017},{"NoteNumber":65,"Velocity":58,"Duration":65934,"SoundDuration":65934,"Delta":400880017},{"NoteNumber":55,"Velocity":58,"Duration":65934,"SoundDuration":65934,"Delta":400880017},{"NoteNumber":93,"Velocity":63,"Duration":131867,"SoundDuration":131867,"Delta":401011885},{"NoteNumber":95,"Velocity":63,"Duration":131867,"SoundDuration":131867,"Delta":401143753},{"NoteNumber":48,"Velocity":53,"Duration":98901,"SoundDuration":98901,"Delta":401242654},{"NoteNumber":55,"Velocity":53,"Duration":82417,"SoundDuration":82417,"Delta":401259137},{"NoteNumber":96,"Velocity":76,"Duration":131867,"SoundDuration":131867,"Delta":401275621},{"NoteNumber":84,"Velocity":64,"Duration":131867,"SoundDuration":131867,"Delta":401275621},{"NoteNumber":64,"Velocity":63,"Duration":65934,"SoundDuration":65934,"Delta":401275621},{"NoteNumber":91,"Velocity":65,"Duration":131867,"SoundDuration":131867,"Delta":401407489},{"NoteNumber":88,"Velocity":65,"Duration":102975,"SoundDuration":102975,"Delta":401539357},{"NoteNumber":45,"Velocity":53,"Duration":137299,"SoundDuration":137299,"Delta":401608007},{"NoteNumber":48,"Velocity":53,"Duration":102974,"SoundDuration":102974,"Delta":401642332},{"NoteNumber":52,"Velocity":53,"Duration":85812,"SoundDuration":85812,"Delta":401659494},{"NoteNumber":88,"Velocity":64,"Duration":137300,"SoundDuration":137300,"Delta":401676657},{"NoteNumber":100,"Velocity":76,"Duration":137300,"SoundDuration":137300,"Delta":401676657},{"NoteNumber":64,"Velocity":63,"Duration":68649,"SoundDuration":68649,"Delta":401676657},{"NoteNumber":96,"Velocity":65,"Duration":137299,"SoundDuration":137299,"Delta":401813957},{"NoteNumber":93,"Velocity":65,"Duration":137299,"SoundDuration":137299,"Delta":401951257},{"NoteNumber":103,"Velocity":79,"Duration":130152,"SoundDuration":130152,"Delta":402088557},{"NoteNumber":91,"Velocity":67,"Duration":130152,"SoundDuration":130152,"Delta":402088557},{"NoteNumber":55,"Velocity":64,"Duration":130152,"SoundDuration":130152,"Delta":402088557},{"NoteNumber":43,"Velocity":54,"Duration":130152,"SoundDuration":130152,"Delta":402088557},{"NoteNumber":100,"Velocity":64,"Duration":130152,"SoundDuration":130152,"Delta":402218709},{"NoteNumber":48,"Velocity":54,"Duration":130152,"SoundDuration":130152,"Delta":402218709},{"NoteNumber":96,"Velocity":64,"Duration":130151,"SoundDuration":130151,"Delta":402348861},{"NoteNumber":52,"Velocity":54,"Duration":130151,"SoundDuration":130151,"Delta":402348861},{"NoteNumber":88,"Velocity":78,"Duration":130152,"SoundDuration":130152,"Delta":402479013},{"NoteNumber":100,"Velocity":78,"Duration":130152,"SoundDuration":130152,"Delta":402479013},{"NoteNumber":60,"Velocity":64,"Duration":130152,"SoundDuration":130152,"Delta":402479013},{"NoteNumber":48,"Velocity":54,"Duration":130152,"SoundDuration":130152,"Delta":402479013},{"NoteNumber":96,"Velocity":64,"Duration":130152,"SoundDuration":130152,"Delta":402609165},{"NoteNumber":52,"Velocity":56,"Duration":130152,"SoundDuration":130152,"Delta":402609165},{"NoteNumber":91,"Velocity":64,"Duration":130152,"SoundDuration":130152,"Delta":402739317},{"NoteNumber":55,"Velocity":56,"Duration":130152,"SoundDuration":130152,"Delta":402739317},{"NoteNumber":96,"Velocity":78,"Duration":131290,"SoundDuration":131290,"Delta":402869469},{"NoteNumber":84,"Velocity":66,"Duration":131290,"SoundDuration":131290,"Delta":402869469},{"NoteNumber":64,"Velocity":64,"Duration":131290,"SoundDuration":131290,"Delta":402869469},{"NoteNumber":52,"Velocity":54,"Duration":131290,"SoundDuration":131290,"Delta":402869469},{"NoteNumber":91,"Velocity":64,"Duration":131291,"SoundDuration":131291,"Delta":403000760},{"NoteNumber":55,"Velocity":59,"Duration":131291,"SoundDuration":131291,"Delta":403000760},{"NoteNumber":88,"Velocity":64,"Duration":131290,"SoundDuration":131290,"Delta":403132051},{"NoteNumber":60,"Velocity":59,"Duration":131290,"SoundDuration":131290,"Delta":403132051},{"NoteNumber":79,"Velocity":63,"Duration":134831,"SoundDuration":134831,"Delta":403263342},{"NoteNumber":91,"Velocity":75,"Duration":134831,"SoundDuration":134831,"Delta":403263342},{"NoteNumber":67,"Velocity":64,"Duration":134831,"SoundDuration":134831,"Delta":403263342},{"NoteNumber":55,"Velocity":54,"Duration":134831,"SoundDuration":134831,"Delta":403263342},{"NoteNumber":88,"Velocity":64,"Duration":137614,"SoundDuration":137614,"Delta":403398173},{"NoteNumber":60,"Velocity":56,"Duration":137614,"SoundDuration":137614,"Delta":403398173},{"NoteNumber":84,"Velocity":64,"Duration":149999,"SoundDuration":149999,"Delta":403535788},{"NoteNumber":64,"Velocity":56,"Duration":149999,"SoundDuration":149999,"Delta":403535788},{"NoteNumber":79,"Velocity":77,"Duration":71598,"SoundDuration":71598,"Delta":403685788},{"NoteNumber":67,"Velocity":72,"Duration":71598,"SoundDuration":71598,"Delta":403685788},{"NoteNumber":88,"Velocity":65,"Duration":72639,"SoundDuration":72639,"Delta":404115382},{"NoteNumber":91,"Velocity":77,"Duration":72639,"SoundDuration":72639,"Delta":404115382},{"NoteNumber":84,"Velocity":65,"Duration":72639,"SoundDuration":72639,"Delta":404115382},{"NoteNumber":79,"Velocity":65,"Duration":72639,"SoundDuration":72639,"Delta":404115382},{"NoteNumber":43,"Velocity":64,"Duration":121065,"SoundDuration":121065,"Delta":404502791},{"NoteNumber":47,"Velocity":64,"Duration":108958,"SoundDuration":108958,"Delta":404514898},{"NoteNumber":50,"Velocity":64,"Duration":96852,"SoundDuration":96852,"Delta":404527004},{"NoteNumber":53,"Velocity":64,"Duration":84745,"SoundDuration":84745,"Delta":404539111},{"NoteNumber":55,"Velocity":76,"Duration":72639,"SoundDuration":72639,"Delta":404551217},{"NoteNumber":86,"Velocity":73,"Duration":72639,"SoundDuration":72639,"Delta":404987053},{"NoteNumber":95,"Velocity":87,"Duration":72639,"SoundDuration":72639,"Delta":404987053},{"NoteNumber":89,"Velocity":73,"Duration":72639,"SoundDuration":72639,"Delta":404987053},{"NoteNumber":83,"Velocity":73,"Duration":72639,"SoundDuration":72639,"Delta":404987053},{"NoteNumber":84,"Velocity":76,"Duration":72639,"SoundDuration":72639,"Delta":405437610},{"NoteNumber":96,"Velocity":90,"Duration":72639,"SoundDuration":72639,"Delta":405437610},{"NoteNumber":88,"Velocity":76,"Duration":72639,"SoundDuration":72639,"Delta":405437610},{"NoteNumber":36,"Velocity":56,"Duration":145278,"SoundDuration":145278,"Delta":405437610},{"NoteNumber":43,"Velocity":44,"Duration":145278,"SoundDuration":145278,"Delta":405582888},{"NoteNumber":60,"Velocity":45,"Duration":70588,"SoundDuration":70588,"Delta":405728167},{"NoteNumber":64,"Velocity":54,"Duration":70588,"SoundDuration":70588,"Delta":405728167},{"NoteNumber":48,"Velocity":49,"Duration":141176,"SoundDuration":141176,"Delta":405728167},{"NoteNumber":64,"Velocity":60,"Duration":141176,"SoundDuration":141176,"Delta":405869343},{"NoteNumber":60,"Velocity":51,"Duration":141176,"SoundDuration":141176,"Delta":405869343},{"NoteNumber":36,"Velocity":57,"Duration":141176,"SoundDuration":141176,"Delta":405869343},{"NoteNumber":62,"Velocity":48,"Duration":141176,"SoundDuration":141176,"Delta":406010520},{"NoteNumber":65,"Velocity":56,"Duration":141176,"SoundDuration":141176,"Delta":406010520},{"NoteNumber":43,"Velocity":47,"Duration":141176,"SoundDuration":141176,"Delta":406010520},{"NoteNumber":67,"Velocity":58,"Duration":141176,"SoundDuration":141176,"Delta":406151696},{"NoteNumber":64,"Velocity":49,"Duration":141176,"SoundDuration":141176,"Delta":406151696},{"NoteNumber":48,"Velocity":48,"Duration":141176,"SoundDuration":141176,"Delta":406151696},{"NoteNumber":65,"Velocity":57,"Duration":141176,"SoundDuration":141176,"Delta":406292873},{"NoteNumber":69,"Velocity":67,"Duration":141176,"SoundDuration":141176,"Delta":406292873},{"NoteNumber":36,"Velocity":63,"Duration":141176,"SoundDuration":141176,"Delta":406292873},{"NoteNumber":64,"Velocity":52,"Duration":141176,"SoundDuration":141176,"Delta":406434049},{"NoteNumber":67,"Velocity":62,"Duration":141176,"SoundDuration":141176,"Delta":406434049},{"NoteNumber":43,"Velocity":51,"Duration":141176,"SoundDuration":141176,"Delta":406434049},{"NoteNumber":65,"Velocity":54,"Duration":141176,"SoundDuration":141176,"Delta":406575226},{"NoteNumber":69,"Velocity":64,"Duration":141176,"SoundDuration":141176,"Delta":406575226},{"NoteNumber":48,"Velocity":53,"Duration":141176,"SoundDuration":141176,"Delta":406575226},{"NoteNumber":67,"Velocity":62,"Duration":143197,"SoundDuration":143197,"Delta":406716402},{"NoteNumber":71,"Velocity":73,"Duration":143197,"SoundDuration":143197,"Delta":406716402},{"NoteNumber":36,"Velocity":69,"Duration":143197,"SoundDuration":143197,"Delta":406716402},{"NoteNumber":69,"Velocity":57,"Duration":143198,"SoundDuration":143198,"Delta":406859600},{"NoteNumber":72,"Velocity":67,"Duration":143198,"SoundDuration":143198,"Delta":406859600},{"NoteNumber":43,"Velocity":56,"Duration":143198,"SoundDuration":143198,"Delta":406859600},{"NoteNumber":71,"Velocity":65,"Duration":154241,"SoundDuration":154241,"Delta":407002798},{"NoteNumber":74,"Velocity":77,"Duration":154241,"SoundDuration":154241,"Delta":407002798},{"NoteNumber":48,"Velocity":57,"Duration":154241,"SoundDuration":154241,"Delta":407002798},{"NoteNumber":76,"Velocity":76,"Duration":72639,"SoundDuration":72639,"Delta":407157040},{"NoteNumber":88,"Velocity":90,"Duration":72639,"SoundDuration":72639,"Delta":407157040},{"NoteNumber":84,"Velocity":76,"Duration":72639,"SoundDuration":72639,"Delta":407157040},{"NoteNumber":36,"Velocity":56,"Duration":145278,"SoundDuration":145278,"Delta":407157040},{"NoteNumber":43,"Velocity":44,"Duration":145278,"SoundDuration":145278,"Delta":407302318},{"NoteNumber":64,"Velocity":45,"Duration":70257,"SoundDuration":70257,"Delta":407447597},{"NoteNumber":67,"Velocity":54,"Duration":70257,"SoundDuration":70257,"Delta":407447597},{"NoteNumber":48,"Velocity":49,"Duration":140514,"SoundDuration":140514,"Delta":407447597},{"NoteNumber":67,"Velocity":60,"Duration":140514,"SoundDuration":140514,"Delta":407588112},{"NoteNumber":64,"Velocity":51,"Duration":140514,"SoundDuration":140514,"Delta":407588112},{"NoteNumber":36,"Velocity":57,"Duration":140514,"SoundDuration":140514,"Delta":407588112},{"NoteNumber":65,"Velocity":48,"Duration":140514,"SoundDuration":140514,"Delta":407728627},{"NoteNumber":69,"Velocity":56,"Duration":140514,"SoundDuration":140514,"Delta":407728627},{"NoteNumber":43,"Velocity":47,"Duration":140514,"SoundDuration":140514,"Delta":407728627},{"NoteNumber":71,"Velocity":58,"Duration":140514,"SoundDuration":140514,"Delta":407869142},{"NoteNumber":67,"Velocity":49,"Duration":140514,"SoundDuration":140514,"Delta":407869142},{"NoteNumber":48,"Velocity":48,"Duration":140514,"SoundDuration":140514,"Delta":407869142},{"NoteNumber":69,"Velocity":57,"Duration":140515,"SoundDuration":140515,"Delta":408009657},{"NoteNumber":72,"Velocity":67,"Duration":140515,"SoundDuration":140515,"Delta":408009657},{"NoteNumber":36,"Velocity":63,"Duration":140515,"SoundDuration":140515,"Delta":408009657},{"NoteNumber":67,"Velocity":52,"Duration":140514,"SoundDuration":140514,"Delta":408150172},{"NoteNumber":71,"Velocity":62,"Duration":140514,"SoundDuration":140514,"Delta":408150172},{"NoteNumber":43,"Velocity":51,"Duration":140514,"SoundDuration":140514,"Delta":408150172},{"NoteNumber":69,"Velocity":54,"Duration":140514,"SoundDuration":140514,"Delta":408290687},{"NoteNumber":72,"Velocity":64,"Duration":140514,"SoundDuration":140514,"Delta":408290687},{"NoteNumber":48,"Velocity":53,"Duration":140514,"SoundDuration":140514,"Delta":408290687},{"NoteNumber":71,"Velocity":62,"Duration":142856,"SoundDuration":142856,"Delta":408431202},{"NoteNumber":74,"Velocity":73,"Duration":142856,"SoundDuration":142856,"Delta":408431202},{"NoteNumber":36,"Velocity":69,"Duration":142856,"SoundDuration":142856,"Delta":408431202},{"NoteNumber":72,"Velocity":57,"Duration":142856,"SoundDuration":142856,"Delta":408574059},{"NoteNumber":76,"Velocity":67,"Duration":142856,"SoundDuration":142856,"Delta":408574059},{"NoteNumber":43,"Velocity":56,"Duration":142856,"SoundDuration":142856,"Delta":408574059},{"NoteNumber":74,"Velocity":65,"Duration":155440,"SoundDuration":155440,"Delta":408716916},{"NoteNumber":77,"Velocity":77,"Duration":155440,"SoundDuration":155440,"Delta":408716916},{"NoteNumber":48,"Velocity":57,"Duration":155440,"SoundDuration":155440,"Delta":408716916},{"NoteNumber":79,"Velocity":76,"Duration":72463,"SoundDuration":72463,"Delta":408872356},{"NoteNumber":91,"Velocity":90,"Duration":72463,"SoundDuration":72463,"Delta":408872356},{"NoteNumber":88,"Velocity":76,"Duration":72463,"SoundDuration":72463,"Delta":408872356},{"NoteNumber":36,"Velocity":56,"Duration":144927,"SoundDuration":144927,"Delta":408872356},{"NoteNumber":43,"Velocity":44,"Duration":144927,"SoundDuration":144927,"Delta":409017284},{"NoteNumber":71,"Velocity":45,"Duration":69929,"SoundDuration":69929,"Delta":409162211},{"NoteNumber":79,"Velocity":45,"Duration":69929,"SoundDuration":69929,"Delta":409162211},{"NoteNumber":83,"Velocity":54,"Duration":69929,"SoundDuration":69929,"Delta":409162211},{"NoteNumber":48,"Velocity":49,"Duration":139859,"SoundDuration":139859,"Delta":409162211},{"NoteNumber":71,"Velocity":51,"Duration":69929,"SoundDuration":69929,"Delta":409302071},{"NoteNumber":83,"Velocity":60,"Duration":69929,"SoundDuration":69929,"Delta":409302071},{"NoteNumber":79,"Velocity":51,"Duration":69929,"SoundDuration":69929,"Delta":409302071},{"NoteNumber":36,"Velocity":57,"Duration":139859,"SoundDuration":139859,"Delta":409302071},{"NoteNumber":72,"Velocity":48,"Duration":69929,"SoundDuration":69929,"Delta":409441931},{"NoteNumber":81,"Velocity":48,"Duration":69929,"SoundDuration":69929,"Delta":409441931},{"NoteNumber":84,"Velocity":56,"Duration":69929,"SoundDuration":69929,"Delta":409441931},{"NoteNumber":43,"Velocity":47,"Duration":139859,"SoundDuration":139859,"Delta":409441931},{"NoteNumber":74,"Velocity":49,"Duration":69929,"SoundDuration":69929,"Delta":409581791},{"NoteNumber":86,"Velocity":58,"Duration":69929,"SoundDuration":69929,"Delta":409581791},{"NoteNumber":83,"Velocity":49,"Duration":69929,"SoundDuration":69929,"Delta":409581791},{"NoteNumber":48,"Velocity":48,"Duration":139859,"SoundDuration":139859,"Delta":409581791},{"NoteNumber":76,"Velocity":57,"Duration":69929,"SoundDuration":69929,"Delta":409721651},{"NoteNumber":84,"Velocity":57,"Duration":69929,"SoundDuration":69929,"Delta":409721651},{"NoteNumber":88,"Velocity":67,"Duration":69929,"SoundDuration":69929,"Delta":409721651},{"NoteNumber":36,"Velocity":63,"Duration":139859,"SoundDuration":139859,"Delta":409721651},{"NoteNumber":74,"Velocity":52,"Duration":69929,"SoundDuration":69929,"Delta":409861511},{"NoteNumber":83,"Velocity":52,"Duration":69929,"SoundDuration":69929,"Delta":409861511},{"NoteNumber":86,"Velocity":62,"Duration":69929,"SoundDuration":69929,"Delta":409861511},{"NoteNumber":43,"Velocity":51,"Duration":139859,"SoundDuration":139859,"Delta":409861511},{"NoteNumber":76,"Velocity":54,"Duration":69929,"SoundDuration":69929,"Delta":410001371},{"NoteNumber":84,"Velocity":54,"Duration":69929,"SoundDuration":69929,"Delta":410001371},{"NoteNumber":88,"Velocity":64,"Duration":69929,"SoundDuration":69929,"Delta":410001371},{"NoteNumber":48,"Velocity":53,"Duration":139859,"SoundDuration":139859,"Delta":410001371},{"NoteNumber":77,"Velocity":62,"Duration":71942,"SoundDuration":71942,"Delta":410141231},{"NoteNumber":86,"Velocity":62,"Duration":71942,"SoundDuration":71942,"Delta":410141231},{"NoteNumber":89,"Velocity":73,"Duration":71942,"SoundDuration":71942,"Delta":410141231},{"NoteNumber":36,"Velocity":69,"Duration":143885,"SoundDuration":143885,"Delta":410141231},{"NoteNumber":79,"Velocity":57,"Duration":71942,"SoundDuration":71942,"Delta":410285116},{"NoteNumber":88,"Velocity":57,"Duration":71942,"SoundDuration":71942,"Delta":410285116},{"NoteNumber":91,"Velocity":67,"Duration":71942,"SoundDuration":71942,"Delta":410285116},{"NoteNumber":43,"Velocity":56,"Duration":143885,"SoundDuration":143885,"Delta":410285116},{"NoteNumber":81,"Velocity":65,"Duration":75757,"SoundDuration":75757,"Delta":410429001},{"NoteNumber":89,"Velocity":65,"Duration":75757,"SoundDuration":75757,"Delta":410429001},{"NoteNumber":93,"Velocity":77,"Duration":75757,"SoundDuration":75757,"Delta":410429001},{"NoteNumber":48,"Velocity":57,"Duration":151515,"SoundDuration":151515,"Delta":410429001},{"NoteNumber":83,"Velocity":68,"Duration":70754,"SoundDuration":70754,"Delta":410580516},{"NoteNumber":91,"Velocity":72,"Duration":70754,"SoundDuration":70754,"Delta":410580516},{"NoteNumber":95,"Velocity":85,"Duration":70754,"SoundDuration":70754,"Delta":410580516},{"NoteNumber":28,"Velocity":63,"Duration":70754,"SoundDuration":70754,"Delta":410580516},{"NoteNumber":40,"Velocity":69,"Duration":70754,"SoundDuration":70754,"Delta":410580516},{"NoteNumber":81,"Velocity":72,"Duration":70754,"SoundDuration":70754,"Delta":411005045},{"NoteNumber":84,"Velocity":72,"Duration":70754,"SoundDuration":70754,"Delta":411005045},{"NoteNumber":89,"Velocity":72,"Duration":70754,"SoundDuration":70754,"Delta":411005045},{"NoteNumber":93,"Velocity":85,"Duration":70754,"SoundDuration":70754,"Delta":411005045},{"NoteNumber":29,"Velocity":62,"Duration":70754,"SoundDuration":70754,"Delta":411005045},{"NoteNumber":41,"Velocity":69,"Duration":70754,"SoundDuration":70754,"Delta":411005045},{"NoteNumber":91,"Velocity":85,"Duration":70754,"SoundDuration":70754,"Delta":411429573},{"NoteNumber":88,"Velocity":72,"Duration":70754,"SoundDuration":70754,"Delta":411429573},{"NoteNumber":84,"Velocity":72,"Duration":70754,"SoundDuration":70754,"Delta":411429573},{"NoteNumber":79,"Velocity":72,"Duration":70754,"SoundDuration":70754,"Delta":411429573},{"NoteNumber":36,"Velocity":62,"Duration":70754,"SoundDuration":70754,"Delta":411429573},{"NoteNumber":48,"Velocity":69,"Duration":70754,"SoundDuration":70754,"Delta":411429573},{"NoteNumber":76,"Velocity":72,"Duration":70754,"SoundDuration":70754,"Delta":411854102},{"NoteNumber":79,"Velocity":72,"Duration":70754,"SoundDuration":70754,"Delta":411854102},{"NoteNumber":83,"Velocity":72,"Duration":70754,"SoundDuration":70754,"Delta":411854102},{"NoteNumber":88,"Velocity":85,"Duration":70754,"SoundDuration":70754,"Delta":411854102},{"NoteNumber":40,"Velocity":62,"Duration":70754,"SoundDuration":70754,"Delta":411854102},{"NoteNumber":52,"Velocity":69,"Duration":70754,"SoundDuration":70754,"Delta":411854102},{"NoteNumber":45,"Velocity":62,"Duration":128295,"SoundDuration":128295,"Delta":412230173},{"NoteNumber":52,"Velocity":62,"Duration":109684,"SoundDuration":109684,"Delta":412248783},{"NoteNumber":57,"Velocity":62,"Duration":91074,"SoundDuration":91074,"Delta":412267394},{"NoteNumber":84,"Velocity":85,"Duration":72463,"SoundDuration":72463,"Delta":412286004},{"NoteNumber":81,"Velocity":72,"Duration":72463,"SoundDuration":72463,"Delta":412286004},{"NoteNumber":76,"Velocity":72,"Duration":72463,"SoundDuration":72463,"Delta":412286004},{"NoteNumber":72,"Velocity":72,"Duration":72463,"SoundDuration":72463,"Delta":412286004},{"NoteNumber":60,"Velocity":69,"Duration":72463,"SoundDuration":72463,"Delta":412286004},{"NoteNumber":43,"Velocity":62,"Duration":144927,"SoundDuration":144927,"Delta":413083105},{"NoteNumber":50,"Velocity":62,"Duration":126811,"SoundDuration":126811,"Delta":413101221},{"NoteNumber":55,"Velocity":62,"Duration":108695,"SoundDuration":108695,"Delta":413119337},{"NoteNumber":59,"Velocity":62,"Duration":90579,"SoundDuration":90579,"Delta":413137453},{"NoteNumber":74,"Velocity":72,"Duration":72463,"SoundDuration":72463,"Delta":413155569},{"NoteNumber":79,"Velocity":72,"Duration":72463,"SoundDuration":72463,"Delta":413155569},{"NoteNumber":83,"Velocity":72,"Duration":72463,"SoundDuration":72463,"Delta":413155569},{"NoteNumber":86,"Velocity":85,"Duration":72463,"SoundDuration":72463,"Delta":413155569},{"NoteNumber":62,"Velocity":69,"Duration":72463,"SoundDuration":72463,"Delta":413155569},{"NoteNumber":36,"Velocity":60,"Duration":36231,"SoundDuration":36231,"Delta":413843975},{"NoteNumber":43,"Velocity":63,"Duration":45454,"SoundDuration":45454,"Delta":413880207},{"NoteNumber":48,"Velocity":63,"Duration":45454,"SoundDuration":45454,"Delta":413925661},{"NoteNumber":76,"Velocity":76,"Duration":45454,"SoundDuration":45454,"Delta":413971116},{"NoteNumber":79,"Velocity":76,"Duration":45454,"SoundDuration":45454,"Delta":413971116},{"NoteNumber":84,"Velocity":76,"Duration":45454,"SoundDuration":45454,"Delta":413971116},{"NoteNumber":88,"Velocity":76,"Duration":45454,"SoundDuration":45454,"Delta":413971116},{"NoteNumber":76,"Velocity":72,"Duration":871670,"SoundDuration":871670,"Delta":414062025},{"NoteNumber":79,"Velocity":72,"Duration":871670,"SoundDuration":871670,"Delta":414062025},{"NoteNumber":84,"Velocity":72,"Duration":871670,"SoundDuration":871670,"Delta":414062025},{"NoteNumber":88,"Velocity":85,"Duration":871670,"SoundDuration":871670,"Delta":414062025},{"NoteNumber":55,"Velocity":62,"Duration":871670,"SoundDuration":871670,"Delta":414062025},{"NoteNumber":60,"Velocity":62,"Duration":871670,"SoundDuration":871670,"Delta":414062025},{"NoteNumber":64,"Velocity":62,"Duration":871670,"SoundDuration":871670,"Delta":414062025},{"NoteNumber":67,"Velocity":69,"Duration":871670,"SoundDuration":871670,"Delta":414062025}],"license":{"name":"Creative Commons Attribution-ShareAlike 3.0 Germany","url":"http://creativecommons.org/licenses/by-sa/3.0/de/deed.en","text":"The MIDI files in this folder were downloaded from http://www.piano-midi.de and are licensed under the Creative Commons Attribution-ShareAlike 3.0 Germany license by Bernd Krueger.\n\nThe MIDI, audio(MP3, OGG) and video files of Bernd Krueger are licensed under the cc-by-sa Germany License . This means, that you can use and adapt the files, as long as you attribute to the copyright holder Name: Bernd Krueger Source: http://www.piano-midi.de The distribution or public playback of the files is only allowed under identical license conditions . The scores are open source.","attribution":"Bernd Krueger","attributionUrl":"http://www.piano-midi.de"}}