{"title":"Sonate in C 2. Satz","artist":"Brahms","durationMs":275894,"midiSha256":"83113055563a0a77036ba7713b8da66f7639c82a5020b351dad0f2e54bf186c7","midiObject":[{"NoteNumber":55,"Velocity":44,"Duration":751691,"SoundDuration":751691,"Delta":0},{"NoteNumber":60,"Velocity":50,"Duration":751691,"SoundDuration":751691,"Delta":751692},{"NoteNumber":62,"Velocity":43,"Duration":751691,"SoundDuration":751691,"Delta":1503383},{"NoteNumber":63,"Velocity":43,"Duration":751691,"SoundDuration":751691,"Delta":2255075},{"NoteNumber":60,"Velocity":36,"Duration":823949,"SoundDuration":823949,"Delta":3006766},{"NoteNumber":59,"Velocity":38,"Duration":923867,"SoundDuration":923867,"Delta":3830716},{"NoteNumber":60,"Velocity":35,"Duration":984930,"SoundDuration":984930,"Delta":4715411},{"NoteNumber":62,"Velocity":35,"Duration":2104980,"SoundDuration":2104980,"Delta":5655555},{"NoteNumber":55,"Velocity":34,"Duration":1503561,"SoundDuration":1503561,"Delta":7805322},{"NoteNumber":60,"Velocity":40,"Duration":1503561,"SoundDuration":1503561,"Delta":7805322},{"NoteNumber":48,"Velocity":27,"Duration":1503561,"SoundDuration":1503561,"Delta":7805322},{"NoteNumber":51,"Velocity":32,"Duration":1503561,"SoundDuration":1503561,"Delta":7805322},{"NoteNumber":60,"Velocity":31,"Duration":1428213,"SoundDuration":1428213,"Delta":9388018},{"NoteNumber":67,"Velocity":37,"Duration":1428213,"SoundDuration":1428213,"Delta":9388018},{"NoteNumber":51,"Velocity":27,"Duration":1428213,"SoundDuration":1428213,"Delta":9388018},{"NoteNumber":55,"Velocity":32,"Duration":1428213,"SoundDuration":1428213,"Delta":9388018},{"NoteNumber":60,"Velocity":34,"Duration":751691,"SoundDuration":751691,"Delta":10891401},{"NoteNumber":63,"Velocity":40,"Duration":751691,"SoundDuration":751691,"Delta":10891401},{"NoteNumber":55,"Velocity":30,"Duration":751691,"SoundDuration":751691,"Delta":10891401},{"NoteNumber":59,"Velocity":31,"Duration":610881,"SoundDuration":610881,"Delta":11643092},{"NoteNumber":62,"Velocity":37,"Duration":610881,"SoundDuration":610881,"Delta":11643092},{"NoteNumber":43,"Velocity":21,"Duration":845917,"SoundDuration":845917,"Delta":11643092},{"NoteNumber":53,"Velocity":25,"Duration":845917,"SoundDuration":845917,"Delta":11643092},{"NoteNumber":63,"Velocity":34,"Duration":235036,"SoundDuration":235036,"Delta":12253974},{"NoteNumber":55,"Velocity":34,"Duration":1784555,"SoundDuration":1784555,"Delta":12489010},{"NoteNumber":60,"Velocity":40,"Duration":1784555,"SoundDuration":1784555,"Delta":12489010},{"NoteNumber":48,"Velocity":25,"Duration":1784555,"SoundDuration":1784555,"Delta":12489010},{"NoteNumber":51,"Velocity":30,"Duration":1784555,"SoundDuration":1784555,"Delta":12489010},{"NoteNumber":55,"Velocity":44,"Duration":771010,"SoundDuration":771010,"Delta":14435798},{"NoteNumber":60,"Velocity":50,"Duration":771010,"SoundDuration":771010,"Delta":15206808},{"NoteNumber":62,"Velocity":43,"Duration":771010,"SoundDuration":771010,"Delta":15977818},{"NoteNumber":63,"Velocity":43,"Duration":771009,"SoundDuration":771009,"Delta":16748828},{"NoteNumber":60,"Velocity":36,"Duration":823949,"SoundDuration":823949,"Delta":17519838},{"NoteNumber":59,"Velocity":38,"Duration":923867,"SoundDuration":923867,"Delta":18343787},{"NoteNumber":60,"Velocity":35,"Duration":986595,"SoundDuration":986595,"Delta":19228482},{"NoteNumber":62,"Velocity":35,"Duration":2183202,"SoundDuration":2183202,"Delta":20168626},{"NoteNumber":55,"Velocity":34,"Duration":1503561,"SoundDuration":1503561,"Delta":22398280},{"NoteNumber":60,"Velocity":40,"Duration":1503561,"SoundDuration":1503561,"Delta":22398280},{"NoteNumber":48,"Velocity":27,"Duration":1503561,"SoundDuration":1503561,"Delta":22398280},{"NoteNumber":51,"Velocity":32,"Duration":1503561,"SoundDuration":1503561,"Delta":22398280},{"NoteNumber":60,"Velocity":31,"Duration":1428213,"SoundDuration":1428213,"Delta":23980976},{"NoteNumber":67,"Velocity":37,"Duration":1428213,"SoundDuration":1428213,"Delta":23980976},{"NoteNumber":39,"Velocity":27,"Duration":1428213,"SoundDuration":1428213,"Delta":23980976},{"NoteNumber":48,"Velocity":32,"Duration":1428213,"SoundDuration":1428213,"Delta":23980976},{"NoteNumber":60,"Velocity":34,"Duration":751691,"SoundDuration":751691,"Delta":25484359},{"NoteNumber":63,"Velocity":40,"Duration":751691,"SoundDuration":751691,"Delta":25484359},{"NoteNumber":43,"Velocity":21,"Duration":714106,"SoundDuration":714106,"Delta":25484359},{"NoteNumber":55,"Velocity":30,"Duration":729767,"SoundDuration":729767,"Delta":25484359},{"NoteNumber":59,"Velocity":31,"Duration":610881,"SoundDuration":610881,"Delta":26236051},{"NoteNumber":62,"Velocity":37,"Duration":610881,"SoundDuration":610881,"Delta":26236051},{"NoteNumber":43,"Velocity":21,"Duration":845917,"SoundDuration":845917,"Delta":26236051},{"NoteNumber":53,"Velocity":25,"Duration":845917,"SoundDuration":845917,"Delta":26236051},{"NoteNumber":63,"Velocity":34,"Duration":235035,"SoundDuration":235035,"Delta":26846933},{"NoteNumber":55,"Velocity":34,"Duration":2423544,"SoundDuration":2423544,"Delta":27081968},{"NoteNumber":60,"Velocity":40,"Duration":2423544,"SoundDuration":2423544,"Delta":27081968},{"NoteNumber":36,"Velocity":25,"Duration":2423544,"SoundDuration":2423544,"Delta":27081968},{"NoteNumber":51,"Velocity":30,"Duration":2423544,"SoundDuration":2423544,"Delta":27081968},{"NoteNumber":55,"Velocity":34,"Duration":799186,"SoundDuration":799186,"Delta":29538057},{"NoteNumber":60,"Velocity":40,"Duration":799186,"SoundDuration":799186,"Delta":29538057},{"NoteNumber":48,"Velocity":28,"Duration":799186,"SoundDuration":799186,"Delta":29538057},{"NoteNumber":51,"Velocity":34,"Duration":799186,"SoundDuration":799186,"Delta":29538057},{"NoteNumber":55,"Velocity":31,"Duration":367548,"SoundDuration":367548,"Delta":30409896},{"NoteNumber":59,"Velocity":37,"Duration":367548,"SoundDuration":367548,"Delta":30409896},{"NoteNumber":50,"Velocity":26,"Duration":367548,"SoundDuration":367548,"Delta":30409896},{"NoteNumber":53,"Velocity":31,"Duration":367548,"SoundDuration":367548,"Delta":30409896},{"NoteNumber":55,"Velocity":34,"Duration":417806,"SoundDuration":417806,"Delta":30810859},{"NoteNumber":60,"Velocity":34,"Duration":417806,"SoundDuration":417806,"Delta":30810859},{"NoteNumber":48,"Velocity":24,"Duration":417806,"SoundDuration":417806,"Delta":30810859},{"NoteNumber":51,"Velocity":29,"Duration":417806,"SoundDuration":417806,"Delta":30810859},{"NoteNumber":55,"Velocity":34,"Duration":1682898,"SoundDuration":1682898,"Delta":31266647},{"NoteNumber":62,"Velocity":40,"Duration":1682898,"SoundDuration":1682898,"Delta":31266647},{"NoteNumber":47,"Velocity":28,"Duration":1718705,"SoundDuration":1718705,"Delta":31266647},{"NoteNumber":50,"Velocity":34,"Duration":1682898,"SoundDuration":1682898,"Delta":31266647},{"NoteNumber":55,"Velocity":34,"Duration":799186,"SoundDuration":799186,"Delta":32985352},{"NoteNumber":60,"Velocity":40,"Duration":799186,"SoundDuration":799186,"Delta":32985352},{"NoteNumber":48,"Velocity":28,"Duration":799186,"SoundDuration":799186,"Delta":32985352},{"NoteNumber":51,"Velocity":34,"Duration":799186,"SoundDuration":799186,"Delta":32985352},{"NoteNumber":55,"Velocity":31,"Duration":367548,"SoundDuration":367548,"Delta":33857192},{"NoteNumber":59,"Velocity":37,"Duration":367548,"SoundDuration":367548,"Delta":33857192},{"NoteNumber":50,"Velocity":26,"Duration":367548,"SoundDuration":367548,"Delta":33857192},{"NoteNumber":53,"Velocity":31,"Duration":367548,"SoundDuration":367548,"Delta":33857192},{"NoteNumber":55,"Velocity":34,"Duration":417806,"SoundDuration":417806,"Delta":34258154},{"NoteNumber":60,"Velocity":34,"Duration":417806,"SoundDuration":417806,"Delta":34258154},{"NoteNumber":48,"Velocity":24,"Duration":417806,"SoundDuration":417806,"Delta":34258154},{"NoteNumber":51,"Velocity":29,"Duration":417806,"SoundDuration":417806,"Delta":34258154},{"NoteNumber":59,"Velocity":34,"Duration":1682898,"SoundDuration":1682898,"Delta":34713942},{"NoteNumber":62,"Velocity":40,"Duration":1682898,"SoundDuration":1682898,"Delta":34713942},{"NoteNumber":43,"Velocity":28,"Duration":1718705,"SoundDuration":1718705,"Delta":34713942},{"NoteNumber":50,"Velocity":34,"Duration":1682898,"SoundDuration":1682898,"Delta":34713942},{"NoteNumber":55,"Velocity":34,"Duration":1664995,"SoundDuration":1664995,"Delta":36432647},{"NoteNumber":60,"Velocity":40,"Duration":1664995,"SoundDuration":1664995,"Delta":36432647},{"NoteNumber":48,"Velocity":28,"Duration":1664995,"SoundDuration":1664995,"Delta":36432647},{"NoteNumber":51,"Velocity":34,"Duration":1664995,"SoundDuration":1664995,"Delta":36432647},{"NoteNumber":58,"Velocity":35,"Duration":761828,"SoundDuration":761828,"Delta":38151352},{"NoteNumber":67,"Velocity":42,"Duration":761828,"SoundDuration":761828,"Delta":38151352},{"NoteNumber":39,"Velocity":30,"Duration":761828,"SoundDuration":761828,"Delta":38151352},{"NoteNumber":46,"Velocity":30,"Duration":761828,"SoundDuration":761828,"Delta":38151352},{"NoteNumber":51,"Velocity":36,"Duration":761828,"SoundDuration":761828,"Delta":38151352},{"NoteNumber":58,"Velocity":37,"Duration":853038,"SoundDuration":853038,"Delta":38953277},{"NoteNumber":67,"Velocity":44,"Duration":853038,"SoundDuration":853038,"Delta":38953277},{"NoteNumber":39,"Velocity":30,"Duration":853038,"SoundDuration":853038,"Delta":38953277},{"NoteNumber":46,"Velocity":30,"Duration":853038,"SoundDuration":853038,"Delta":38953277},{"NoteNumber":51,"Velocity":36,"Duration":853038,"SoundDuration":853038,"Delta":38953277},{"NoteNumber":60,"Velocity":37,"Duration":847218,"SoundDuration":847218,"Delta":39851212},{"NoteNumber":63,"Velocity":44,"Duration":847218,"SoundDuration":847218,"Delta":39851212},{"NoteNumber":43,"Velocity":23,"Duration":804857,"SoundDuration":804857,"Delta":39851212},{"NoteNumber":55,"Velocity":33,"Duration":822507,"SoundDuration":822507,"Delta":39851212},{"NoteNumber":59,"Velocity":31,"Duration":658645,"SoundDuration":658645,"Delta":40698430},{"NoteNumber":62,"Velocity":37,"Duration":658645,"SoundDuration":658645,"Delta":40698430},{"NoteNumber":43,"Velocity":21,"Duration":893681,"SoundDuration":893681,"Delta":40698430},{"NoteNumber":53,"Velocity":25,"Duration":893681,"SoundDuration":893681,"Delta":40698430},{"NoteNumber":63,"Velocity":34,"Duration":235036,"SoundDuration":235036,"Delta":41357076},{"NoteNumber":55,"Velocity":34,"Duration":1786913,"SoundDuration":1786913,"Delta":41592112},{"NoteNumber":60,"Velocity":40,"Duration":2306833,"SoundDuration":2306833,"Delta":41592112},{"NoteNumber":36,"Velocity":25,"Duration":2306833,"SoundDuration":2306833,"Delta":41592112},{"NoteNumber":51,"Velocity":30,"Duration":2306833,"SoundDuration":2306833,"Delta":41592112},{"NoteNumber":55,"Velocity":31,"Duration":451014,"SoundDuration":451014,"Delta":43178574},{"NoteNumber":43,"Velocity":35,"Duration":751691,"SoundDuration":751691,"Delta":43178574},{"NoteNumber":55,"Velocity":31,"Duration":451014,"SoundDuration":451014,"Delta":43429138},{"NoteNumber":55,"Velocity":26,"Duration":219243,"SoundDuration":219243,"Delta":43679701},{"NoteNumber":55,"Velocity":37,"Duration":7053629,"SoundDuration":7053629,"Delta":43930265},{"NoteNumber":48,"Velocity":40,"Duration":751691,"SoundDuration":751691,"Delta":43930265},{"NoteNumber":60,"Velocity":37,"Duration":375845,"SoundDuration":375845,"Delta":44306111},{"NoteNumber":50,"Velocity":34,"Duration":751691,"SoundDuration":751691,"Delta":44681957},{"NoteNumber":62,"Velocity":37,"Duration":375845,"SoundDuration":375845,"Delta":45057802},{"NoteNumber":51,"Velocity":34,"Duration":751691,"SoundDuration":751691,"Delta":45433648},{"NoteNumber":63,"Velocity":37,"Duration":375845,"SoundDuration":375845,"Delta":45809494},{"NoteNumber":48,"Velocity":28,"Duration":823949,"SoundDuration":823949,"Delta":46185340},{"NoteNumber":60,"Velocity":39,"Duration":411974,"SoundDuration":411974,"Delta":46597314},{"NoteNumber":47,"Velocity":30,"Duration":923867,"SoundDuration":923867,"Delta":47009289},{"NoteNumber":59,"Velocity":33,"Duration":442347,"SoundDuration":442347,"Delta":47451637},{"NoteNumber":48,"Velocity":28,"Duration":984930,"SoundDuration":984930,"Delta":47893984},{"NoteNumber":60,"Velocity":32,"Duration":470071,"SoundDuration":470071,"Delta":48364056},{"NoteNumber":50,"Velocity":28,"Duration":2104980,"SoundDuration":2104980,"Delta":48834128},{"NoteNumber":62,"Velocity":28,"Duration":1612325,"SoundDuration":1612325,"Delta":49371570},{"NoteNumber":55,"Velocity":34,"Duration":1503561,"SoundDuration":1503561,"Delta":50983895},{"NoteNumber":60,"Velocity":40,"Duration":1503561,"SoundDuration":1503561,"Delta":50983895},{"NoteNumber":48,"Velocity":27,"Duration":1503561,"SoundDuration":1503561,"Delta":50983895},{"NoteNumber":51,"Velocity":32,"Duration":1503561,"SoundDuration":1503561,"Delta":50983895},{"NoteNumber":60,"Velocity":31,"Duration":1428213,"SoundDuration":1428213,"Delta":52566591},{"NoteNumber":67,"Velocity":37,"Duration":1428213,"SoundDuration":1428213,"Delta":52566591},{"NoteNumber":51,"Velocity":27,"Duration":1428213,"SoundDuration":1428213,"Delta":52566591},{"NoteNumber":55,"Velocity":32,"Duration":1428213,"SoundDuration":1428213,"Delta":52566591},{"NoteNumber":60,"Velocity":34,"Duration":751691,"SoundDuration":751691,"Delta":54069974},{"NoteNumber":63,"Velocity":40,"Duration":751691,"SoundDuration":751691,"Delta":54069974},{"NoteNumber":55,"Velocity":30,"Duration":720371,"SoundDuration":720371,"Delta":54069974},{"NoteNumber":43,"Velocity":25,"Duration":720371,"SoundDuration":720371,"Delta":54069974},{"NoteNumber":59,"Velocity":31,"Duration":610881,"SoundDuration":610881,"Delta":54821666},{"NoteNumber":62,"Velocity":37,"Duration":610881,"SoundDuration":610881,"Delta":54821666},{"NoteNumber":55,"Velocity":27,"Duration":200451,"SoundDuration":200451,"Delta":54821666},{"NoteNumber":43,"Velocity":27,"Duration":845917,"SoundDuration":845917,"Delta":54821666},{"NoteNumber":53,"Velocity":27,"Duration":845917,"SoundDuration":845917,"Delta":54821666},{"NoteNumber":55,"Velocity":27,"Duration":219296,"SoundDuration":219296,"Delta":55072230},{"NoteNumber":55,"Velocity":23,"Duration":250705,"SoundDuration":250705,"Delta":55354202},{"NoteNumber":63,"Velocity":34,"Duration":235036,"SoundDuration":235036,"Delta":55432547},{"NoteNumber":60,"Velocity":40,"Duration":6299349,"SoundDuration":6299349,"Delta":55667583},{"NoteNumber":44,"Velocity":30,"Duration":2920181,"SoundDuration":2920181,"Delta":55667583},{"NoteNumber":54,"Velocity":30,"Duration":2920181,"SoundDuration":2920181,"Delta":55667583},{"NoteNumber":36,"Velocity":25,"Duration":6299349,"SoundDuration":6299349,"Delta":55667583},{"NoteNumber":51,"Velocity":30,"Duration":6299349,"SoundDuration":6299349,"Delta":55667583},{"NoteNumber":43,"Velocity":22,"Duration":3379167,"SoundDuration":3379167,"Delta":58587765},{"NoteNumber":55,"Velocity":28,"Duration":3379167,"SoundDuration":3379167,"Delta":58587765},{"NoteNumber":67,"Velocity":31,"Duration":200451,"SoundDuration":200451,"Delta":61966933},{"NoteNumber":43,"Velocity":35,"Duration":751691,"SoundDuration":751691,"Delta":61966933},{"NoteNumber":55,"Velocity":31,"Duration":200451,"SoundDuration":200451,"Delta":61966933},{"NoteNumber":67,"Velocity":31,"Duration":200451,"SoundDuration":200451,"Delta":62217497},{"NoteNumber":55,"Velocity":31,"Duration":200451,"SoundDuration":200451,"Delta":62217497},{"NoteNumber":67,"Velocity":26,"Duration":200451,"SoundDuration":200451,"Delta":62468061},{"NoteNumber":55,"Velocity":26,"Duration":200451,"SoundDuration":200451,"Delta":62468061},{"NoteNumber":67,"Velocity":37,"Duration":4651418,"SoundDuration":4651418,"Delta":62718624},{"NoteNumber":55,"Velocity":29,"Duration":4651418,"SoundDuration":4651418,"Delta":62718624},{"NoteNumber":48,"Velocity":40,"Duration":751691,"SoundDuration":751691,"Delta":62718624},{"NoteNumber":60,"Velocity":28,"Duration":200451,"SoundDuration":200451,"Delta":62969188},{"NoteNumber":72,"Velocity":33,"Duration":200451,"SoundDuration":200451,"Delta":62969188},{"NoteNumber":60,"Velocity":28,"Duration":200451,"SoundDuration":200451,"Delta":63219752},{"NoteNumber":72,"Velocity":33,"Duration":200451,"SoundDuration":200451,"Delta":63219752},{"NoteNumber":50,"Velocity":34,"Duration":751691,"SoundDuration":751691,"Delta":63470316},{"NoteNumber":62,"Velocity":27,"Duration":200451,"SoundDuration":200451,"Delta":63720880},{"NoteNumber":74,"Velocity":32,"Duration":200451,"SoundDuration":200451,"Delta":63720880},{"NoteNumber":62,"Velocity":27,"Duration":200451,"SoundDuration":200451,"Delta":63971444},{"NoteNumber":74,"Velocity":32,"Duration":200451,"SoundDuration":200451,"Delta":63971444},{"NoteNumber":51,"Velocity":34,"Duration":751691,"SoundDuration":751691,"Delta":64222007},{"NoteNumber":63,"Velocity":28,"Duration":200451,"SoundDuration":200451,"Delta":64472571},{"NoteNumber":75,"Velocity":34,"Duration":200451,"SoundDuration":200451,"Delta":64472571},{"NoteNumber":63,"Velocity":28,"Duration":200451,"SoundDuration":200451,"Delta":64723135},{"NoteNumber":75,"Velocity":34,"Duration":200451,"SoundDuration":200451,"Delta":64723135},{"NoteNumber":48,"Velocity":28,"Duration":781046,"SoundDuration":781046,"Delta":64973699},{"NoteNumber":60,"Velocity":28,"Duration":208279,"SoundDuration":208279,"Delta":65234048},{"NoteNumber":72,"Velocity":33,"Duration":208279,"SoundDuration":208279,"Delta":65234048},{"NoteNumber":60,"Velocity":28,"Duration":208279,"SoundDuration":208279,"Delta":65494397},{"NoteNumber":72,"Velocity":33,"Duration":208279,"SoundDuration":208279,"Delta":65494397},{"NoteNumber":47,"Velocity":30,"Duration":825679,"SoundDuration":825679,"Delta":65754746},{"NoteNumber":59,"Velocity":31,"Duration":211026,"SoundDuration":211026,"Delta":66018528},{"NoteNumber":71,"Velocity":37,"Duration":211026,"SoundDuration":211026,"Delta":66018528},{"NoteNumber":59,"Velocity":32,"Duration":211026,"SoundDuration":211026,"Delta":66282311},{"NoteNumber":71,"Velocity":38,"Duration":211026,"SoundDuration":211026,"Delta":66282311},{"NoteNumber":50,"Velocity":45,"Duration":876228,"SoundDuration":876228,"Delta":66546094},{"NoteNumber":62,"Velocity":42,"Duration":219719,"SoundDuration":219719,"Delta":66820743},{"NoteNumber":74,"Velocity":49,"Duration":219719,"SoundDuration":219719,"Delta":66820743},{"NoteNumber":62,"Velocity":42,"Duration":219719,"SoundDuration":219719,"Delta":67095393},{"NoteNumber":74,"Velocity":50,"Duration":219719,"SoundDuration":219719,"Delta":67095393},{"NoteNumber":56,"Velocity":64,"Duration":1917532,"SoundDuration":1917532,"Delta":67370043},{"NoteNumber":68,"Velocity":56,"Duration":1327042,"SoundDuration":1327042,"Delta":67997396},{"NoteNumber":80,"Velocity":65,"Duration":1327042,"SoundDuration":1327042,"Delta":67997396},{"NoteNumber":68,"Velocity":38,"Duration":1487074,"SoundDuration":1487074,"Delta":69324438},{"NoteNumber":73,"Velocity":45,"Duration":1487074,"SoundDuration":1487074,"Delta":69324438},{"NoteNumber":53,"Velocity":31,"Duration":1566209,"SoundDuration":1566209,"Delta":69324438},{"NoteNumber":56,"Velocity":31,"Duration":1566209,"SoundDuration":1566209,"Delta":69324438},{"NoteNumber":61,"Velocity":31,"Duration":1487074,"SoundDuration":1487074,"Delta":69324438},{"NoteNumber":65,"Velocity":37,"Duration":1487074,"SoundDuration":1487074,"Delta":69324438},{"NoteNumber":68,"Velocity":39,"Duration":1487722,"SoundDuration":1487722,"Delta":70907134},{"NoteNumber":72,"Velocity":39,"Duration":1487722,"SoundDuration":1487722,"Delta":70907134},{"NoteNumber":75,"Velocity":39,"Duration":1412553,"SoundDuration":1412553,"Delta":70907134},{"NoteNumber":80,"Velocity":47,"Duration":1412553,"SoundDuration":1412553,"Delta":70907134},{"NoteNumber":54,"Velocity":32,"Duration":1487722,"SoundDuration":1487722,"Delta":70907134},{"NoteNumber":56,"Velocity":32,"Duration":1487722,"SoundDuration":1487722,"Delta":70907134},{"NoteNumber":60,"Velocity":32,"Duration":1487722,"SoundDuration":1487722,"Delta":70907134},{"NoteNumber":63,"Velocity":32,"Duration":1412553,"SoundDuration":1412553,"Delta":70907134},{"NoteNumber":66,"Velocity":38,"Duration":1412553,"SoundDuration":1412553,"Delta":70907134},{"NoteNumber":68,"Velocity":28,"Duration":751691,"SoundDuration":751691,"Delta":72410517},{"NoteNumber":73,"Velocity":28,"Duration":751691,"SoundDuration":751691,"Delta":72410517},{"NoteNumber":80,"Velocity":40,"Duration":751691,"SoundDuration":751691,"Delta":72410517},{"NoteNumber":53,"Velocity":27,"Duration":751691,"SoundDuration":751691,"Delta":72410517},{"NoteNumber":56,"Velocity":27,"Duration":751691,"SoundDuration":751691,"Delta":72410517},{"NoteNumber":61,"Velocity":27,"Duration":751691,"SoundDuration":751691,"Delta":72410517},{"NoteNumber":65,"Velocity":32,"Duration":751691,"SoundDuration":751691,"Delta":72410517},{"NoteNumber":65,"Velocity":26,"Duration":610881,"SoundDuration":610881,"Delta":73162208},{"NoteNumber":71,"Velocity":26,"Duration":610881,"SoundDuration":610881,"Delta":73162208},{"NoteNumber":74,"Velocity":37,"Duration":610881,"SoundDuration":610881,"Delta":73162208},{"NoteNumber":67,"Velocity":27,"Duration":200451,"SoundDuration":200451,"Delta":73162208},{"NoteNumber":55,"Velocity":22,"Duration":845917,"SoundDuration":845917,"Delta":73162208},{"NoteNumber":67,"Velocity":27,"Duration":219296,"SoundDuration":219296,"Delta":73412772},{"NoteNumber":67,"Velocity":23,"Duration":250705,"SoundDuration":250705,"Delta":73694745},{"NoteNumber":75,"Velocity":34,"Duration":235035,"SoundDuration":235035,"Delta":73745669},{"NoteNumber":63,"Velocity":34,"Duration":1743679,"SoundDuration":1743679,"Delta":74008126},{"NoteNumber":72,"Velocity":40,"Duration":1743679,"SoundDuration":1743679,"Delta":74008126},{"NoteNumber":60,"Velocity":21,"Duration":1743679,"SoundDuration":1743679,"Delta":74008126},{"NoteNumber":67,"Velocity":30,"Duration":1743679,"SoundDuration":1743679,"Delta":74008126},{"NoteNumber":48,"Velocity":32,"Duration":390523,"SoundDuration":390523,"Delta":75751805},{"NoteNumber":51,"Velocity":32,"Duration":390523,"SoundDuration":390523,"Delta":75751805},{"NoteNumber":55,"Velocity":30,"Duration":187922,"SoundDuration":187922,"Delta":76142328},{"NoteNumber":60,"Velocity":30,"Duration":187922,"SoundDuration":187922,"Delta":76142328},{"NoteNumber":55,"Velocity":34,"Duration":187922,"SoundDuration":187922,"Delta":76518174},{"NoteNumber":59,"Velocity":34,"Duration":187922,"SoundDuration":187922,"Delta":76518174},{"NoteNumber":50,"Velocity":31,"Duration":187922,"SoundDuration":187922,"Delta":76518174},{"NoteNumber":53,"Velocity":31,"Duration":187922,"SoundDuration":187922,"Delta":76518174},{"NoteNumber":55,"Velocity":30,"Duration":208855,"SoundDuration":208855,"Delta":76894020},{"NoteNumber":60,"Velocity":30,"Duration":208855,"SoundDuration":208855,"Delta":76894020},{"NoteNumber":48,"Velocity":26,"Duration":208855,"SoundDuration":208855,"Delta":76894020},{"NoteNumber":51,"Velocity":26,"Duration":208855,"SoundDuration":208855,"Delta":76894020},{"NoteNumber":43,"Velocity":33,"Duration":395673,"SoundDuration":395673,"Delta":77311731},{"NoteNumber":50,"Velocity":33,"Duration":395673,"SoundDuration":395673,"Delta":77311731},{"NoteNumber":55,"Velocity":33,"Duration":197837,"SoundDuration":197837,"Delta":77707405},{"NoteNumber":59,"Velocity":33,"Duration":197837,"SoundDuration":197837,"Delta":77707405},{"NoteNumber":62,"Velocity":33,"Duration":197837,"SoundDuration":197837,"Delta":77707405},{"NoteNumber":67,"Velocity":60,"Duration":3186381,"SoundDuration":3186381,"Delta":78103079},{"NoteNumber":51,"Velocity":35,"Duration":392240,"SoundDuration":392240,"Delta":78894427},{"NoteNumber":48,"Velocity":35,"Duration":392240,"SoundDuration":392240,"Delta":78894427},{"NoteNumber":55,"Velocity":35,"Duration":392240,"SoundDuration":392240,"Delta":78894427},{"NoteNumber":60,"Velocity":31,"Duration":211026,"SoundDuration":211026,"Delta":79154776},{"NoteNumber":72,"Velocity":37,"Duration":211026,"SoundDuration":211026,"Delta":79154776},{"NoteNumber":60,"Velocity":32,"Duration":211026,"SoundDuration":211026,"Delta":79418558},{"NoteNumber":72,"Velocity":38,"Duration":211026,"SoundDuration":211026,"Delta":79418558},{"NoteNumber":53,"Velocity":37,"Duration":205987,"SoundDuration":205987,"Delta":79682341},{"NoteNumber":50,"Velocity":37,"Duration":205987,"SoundDuration":205987,"Delta":79682341},{"NoteNumber":55,"Velocity":37,"Duration":205987,"SoundDuration":205987,"Delta":79682341},{"NoteNumber":59,"Velocity":45,"Duration":219719,"SoundDuration":219719,"Delta":79956991},{"NoteNumber":71,"Velocity":53,"Duration":219719,"SoundDuration":219719,"Delta":79956991},{"NoteNumber":50,"Velocity":34,"Duration":205987,"SoundDuration":205987,"Delta":80094316},{"NoteNumber":48,"Velocity":34,"Duration":205987,"SoundDuration":205987,"Delta":80094316},{"NoteNumber":55,"Velocity":34,"Duration":205987,"SoundDuration":205987,"Delta":80094316},{"NoteNumber":60,"Velocity":47,"Duration":219719,"SoundDuration":219719,"Delta":80231641},{"NoteNumber":72,"Velocity":56,"Duration":219719,"SoundDuration":219719,"Delta":80231641},{"NoteNumber":47,"Velocity":44,"Duration":371195,"SoundDuration":371195,"Delta":80506291},{"NoteNumber":50,"Velocity":44,"Duration":371195,"SoundDuration":371195,"Delta":80506291},{"NoteNumber":55,"Velocity":44,"Duration":371195,"SoundDuration":371195,"Delta":80506291},{"NoteNumber":62,"Velocity":57,"Duration":205987,"SoundDuration":205987,"Delta":80877486},{"NoteNumber":74,"Velocity":65,"Duration":205987,"SoundDuration":205987,"Delta":80877486},{"NoteNumber":68,"Velocity":56,"Duration":2654084,"SoundDuration":2654084,"Delta":81289461},{"NoteNumber":80,"Velocity":65,"Duration":2654084,"SoundDuration":2654084,"Delta":81289461},{"NoteNumber":73,"Velocity":48,"Duration":1695665,"SoundDuration":1695665,"Delta":82174156},{"NoteNumber":53,"Velocity":31,"Duration":1695665,"SoundDuration":1695665,"Delta":82174156},{"NoteNumber":56,"Velocity":31,"Duration":1695665,"SoundDuration":1695665,"Delta":82174156},{"NoteNumber":61,"Velocity":31,"Duration":1695665,"SoundDuration":1695665,"Delta":82174156},{"NoteNumber":65,"Velocity":37,"Duration":1695665,"SoundDuration":1695665,"Delta":82174156},{"NoteNumber":69,"Velocity":51,"Duration":1253317,"SoundDuration":1253317,"Delta":83943546},{"NoteNumber":72,"Velocity":51,"Duration":1253317,"SoundDuration":1253317,"Delta":83943546},{"NoteNumber":75,"Velocity":51,"Duration":1253317,"SoundDuration":1253317,"Delta":83943546},{"NoteNumber":81,"Velocity":61,"Duration":1253317,"SoundDuration":1253317,"Delta":83943546},{"NoteNumber":66,"Velocity":43,"Duration":1253317,"SoundDuration":1253317,"Delta":83943546},{"NoteNumber":63,"Velocity":36,"Duration":1253317,"SoundDuration":1253317,"Delta":83943546},{"NoteNumber":60,"Velocity":36,"Duration":1253317,"SoundDuration":1253317,"Delta":83943546},{"NoteNumber":54,"Velocity":36,"Duration":1253317,"SoundDuration":1253317,"Delta":83943546},{"NoteNumber":69,"Velocity":35,"Duration":368622,"SoundDuration":368622,"Delta":85270588},{"NoteNumber":72,"Velocity":35,"Duration":368622,"SoundDuration":368622,"Delta":85270588},{"NoteNumber":75,"Velocity":35,"Duration":368622,"SoundDuration":368622,"Delta":85270588},{"NoteNumber":81,"Velocity":42,"Duration":368622,"SoundDuration":368622,"Delta":85270588},{"NoteNumber":54,"Velocity":31,"Duration":368622,"SoundDuration":368622,"Delta":85270588},{"NoteNumber":60,"Velocity":31,"Duration":368622,"SoundDuration":368622,"Delta":85270588},{"NoteNumber":63,"Velocity":31,"Duration":368622,"SoundDuration":368622,"Delta":85270588},{"NoteNumber":66,"Velocity":37,"Duration":368622,"SoundDuration":368622,"Delta":85270588},{"NoteNumber":72,"Velocity":30,"Duration":442347,"SoundDuration":442347,"Delta":85712936},{"NoteNumber":75,"Velocity":30,"Duration":442347,"SoundDuration":442347,"Delta":85712936},{"NoteNumber":79,"Velocity":36,"Duration":442347,"SoundDuration":442347,"Delta":85712936},{"NoteNumber":67,"Velocity":32,"Duration":442347,"SoundDuration":442347,"Delta":85712936},{"NoteNumber":63,"Velocity":27,"Duration":442347,"SoundDuration":442347,"Delta":85712936},{"NoteNumber":60,"Velocity":27,"Duration":442347,"SoundDuration":442347,"Delta":85712936},{"NoteNumber":55,"Velocity":27,"Duration":442347,"SoundDuration":442347,"Delta":85712936},{"NoteNumber":59,"Velocity":31,"Duration":610881,"SoundDuration":610881,"Delta":86597631},{"NoteNumber":62,"Velocity":37,"Duration":610881,"SoundDuration":610881,"Delta":86597631},{"NoteNumber":55,"Velocity":27,"Duration":200451,"SoundDuration":200451,"Delta":86597631},{"NoteNumber":43,"Velocity":27,"Duration":845917,"SoundDuration":845917,"Delta":86597631},{"NoteNumber":53,"Velocity":27,"Duration":845917,"SoundDuration":845917,"Delta":86597631},{"NoteNumber":55,"Velocity":27,"Duration":219296,"SoundDuration":219296,"Delta":86848194},{"NoteNumber":55,"Velocity":23,"Duration":250705,"SoundDuration":250705,"Delta":87130167},{"NoteNumber":63,"Velocity":34,"Duration":235036,"SoundDuration":235036,"Delta":87208512},{"NoteNumber":60,"Velocity":40,"Duration":6299349,"SoundDuration":6299349,"Delta":87443548},{"NoteNumber":44,"Velocity":30,"Duration":2920181,"SoundDuration":2920181,"Delta":87443548},{"NoteNumber":54,"Velocity":30,"Duration":2920181,"SoundDuration":2920181,"Delta":87443548},{"NoteNumber":36,"Velocity":25,"Duration":6299349,"SoundDuration":6299349,"Delta":87443548},{"NoteNumber":51,"Velocity":30,"Duration":6299349,"SoundDuration":6299349,"Delta":87443548},{"NoteNumber":43,"Velocity":24,"Duration":3379167,"SoundDuration":3379167,"Delta":90363730},{"NoteNumber":55,"Velocity":28,"Duration":3379167,"SoundDuration":3379167,"Delta":90363730},{"NoteNumber":79,"Velocity":40,"Duration":250563,"SoundDuration":250563,"Delta":93742898},{"NoteNumber":31,"Velocity":29,"Duration":751691,"SoundDuration":751691,"Delta":93742898},{"NoteNumber":43,"Velocity":35,"Duration":751691,"SoundDuration":751691,"Delta":93742898},{"NoteNumber":91,"Velocity":49,"Duration":250563,"SoundDuration":250563,"Delta":93993462},{"NoteNumber":89,"Velocity":43,"Duration":156602,"SoundDuration":156602,"Delta":94244026},{"NoteNumber":87,"Velocity":51,"Duration":46980,"SoundDuration":46980,"Delta":94400628},{"NoteNumber":89,"Velocity":51,"Duration":46980,"SoundDuration":46980,"Delta":94447609},{"NoteNumber":87,"Velocity":51,"Duration":250563,"SoundDuration":250563,"Delta":94494589},{"NoteNumber":36,"Velocity":34,"Duration":751691,"SoundDuration":751691,"Delta":94494589},{"NoteNumber":48,"Velocity":40,"Duration":751691,"SoundDuration":751691,"Delta":94494589},{"NoteNumber":86,"Velocity":43,"Duration":250563,"SoundDuration":250563,"Delta":94745153},{"NoteNumber":84,"Velocity":43,"Duration":250563,"SoundDuration":250563,"Delta":94995717},{"NoteNumber":83,"Velocity":50,"Duration":250563,"SoundDuration":250563,"Delta":95246281},{"NoteNumber":38,"Velocity":28,"Duration":751691,"SoundDuration":751691,"Delta":95246281},{"NoteNumber":50,"Velocity":34,"Duration":751691,"SoundDuration":751691,"Delta":95246281},{"NoteNumber":84,"Velocity":40,"Duration":250563,"SoundDuration":250563,"Delta":95496845},{"NoteNumber":86,"Velocity":40,"Duration":250563,"SoundDuration":250563,"Delta":95747409},{"NoteNumber":84,"Velocity":49,"Duration":62640,"SoundDuration":62640,"Delta":95997972},{"NoteNumber":39,"Velocity":28,"Duration":751691,"SoundDuration":751691,"Delta":95997972},{"NoteNumber":51,"Velocity":34,"Duration":751691,"SoundDuration":751691,"Delta":95997972},{"NoteNumber":86,"Velocity":45,"Duration":62640,"SoundDuration":62640,"Delta":96060613},{"NoteNumber":84,"Velocity":51,"Duration":125281,"SoundDuration":125281,"Delta":96123254},{"NoteNumber":79,"Velocity":42,"Duration":250563,"SoundDuration":250563,"Delta":96248536},{"NoteNumber":77,"Velocity":42,"Duration":250563,"SoundDuration":250563,"Delta":96499100},{"NoteNumber":75,"Velocity":47,"Duration":260348,"SoundDuration":260348,"Delta":96749664},{"NoteNumber":36,"Velocity":23,"Duration":781046,"SoundDuration":781046,"Delta":96749664},{"NoteNumber":48,"Velocity":28,"Duration":781046,"SoundDuration":781046,"Delta":96749664},{"NoteNumber":74,"Velocity":40,"Duration":260348,"SoundDuration":260348,"Delta":97010013},{"NoteNumber":72,"Velocity":40,"Duration":260348,"SoundDuration":260348,"Delta":97270362},{"NoteNumber":74,"Velocity":46,"Duration":263782,"SoundDuration":263782,"Delta":97530710},{"NoteNumber":35,"Velocity":25,"Duration":791347,"SoundDuration":791347,"Delta":97530710},{"NoteNumber":47,"Velocity":30,"Duration":825679,"SoundDuration":825679,"Delta":97530710},{"NoteNumber":79,"Velocity":38,"Duration":263782,"SoundDuration":263782,"Delta":97794493},{"NoteNumber":67,"Velocity":38,"Duration":263782,"SoundDuration":263782,"Delta":98058276},{"NoteNumber":66,"Velocity":42,"Duration":274649,"SoundDuration":274649,"Delta":98322058},{"NoteNumber":38,"Velocity":32,"Duration":823949,"SoundDuration":823949,"Delta":98322058},{"NoteNumber":50,"Velocity":38,"Duration":876228,"SoundDuration":876228,"Delta":98322058},{"NoteNumber":69,"Velocity":37,"Duration":274649,"SoundDuration":274649,"Delta":98596708},{"NoteNumber":72,"Velocity":37,"Duration":274649,"SoundDuration":274649,"Delta":98871358},{"NoteNumber":70,"Velocity":49,"Duration":104558,"SoundDuration":104558,"Delta":99146008},{"NoteNumber":43,"Velocity":36,"Duration":1954394,"SoundDuration":1954394,"Delta":99146008},{"NoteNumber":55,"Velocity":43,"Duration":1917532,"SoundDuration":1917532,"Delta":99146008},{"NoteNumber":72,"Velocity":45,"Duration":104558,"SoundDuration":104558,"Delta":99250567},{"NoteNumber":70,"Velocity":51,"Duration":209117,"SoundDuration":209117,"Delta":99355125},{"NoteNumber":69,"Velocity":36,"Duration":356566,"SoundDuration":356566,"Delta":99564243},{"NoteNumber":67,"Velocity":38,"Duration":1179593,"SoundDuration":1179593,"Delta":99920810},{"NoteNumber":69,"Velocity":46,"Duration":263782,"SoundDuration":263782,"Delta":101100403},{"NoteNumber":42,"Velocity":25,"Duration":791347,"SoundDuration":791347,"Delta":101100403},{"NoteNumber":54,"Velocity":30,"Duration":825679,"SoundDuration":825679,"Delta":101100403},{"NoteNumber":62,"Velocity":38,"Duration":263782,"SoundDuration":263782,"Delta":101364186},{"NoteNumber":74,"Velocity":38,"Duration":263782,"SoundDuration":263782,"Delta":101627968},{"NoteNumber":73,"Velocity":46,"Duration":274649,"SoundDuration":274649,"Delta":101891751},{"NoteNumber":45,"Velocity":32,"Duration":823949,"SoundDuration":823949,"Delta":101891751},{"NoteNumber":57,"Velocity":38,"Duration":876228,"SoundDuration":876228,"Delta":101891751},{"NoteNumber":76,"Velocity":37,"Duration":274649,"SoundDuration":274649,"Delta":102166401},{"NoteNumber":79,"Velocity":39,"Duration":274649,"SoundDuration":274649,"Delta":102441051},{"NoteNumber":77,"Velocity":49,"Duration":104558,"SoundDuration":104558,"Delta":102715700},{"NoteNumber":50,"Velocity":36,"Duration":1843808,"SoundDuration":1843808,"Delta":102715700},{"NoteNumber":62,"Velocity":43,"Duration":1843808,"SoundDuration":1843808,"Delta":102715700},{"NoteNumber":79,"Velocity":45,"Duration":104558,"SoundDuration":104558,"Delta":102820259},{"NoteNumber":77,"Velocity":51,"Duration":209117,"SoundDuration":209117,"Delta":102924818},{"NoteNumber":76,"Velocity":36,"Duration":356566,"SoundDuration":356566,"Delta":103133935},{"NoteNumber":74,"Velocity":38,"Duration":1069006,"SoundDuration":1069006,"Delta":103490502},{"NoteNumber":70,"Velocity":51,"Duration":46980,"SoundDuration":46980,"Delta":104559509},{"NoteNumber":72,"Velocity":51,"Duration":46980,"SoundDuration":46980,"Delta":104606489},{"NoteNumber":74,"Velocity":44,"Duration":1503382,"SoundDuration":1503382,"Delta":104653470},{"NoteNumber":70,"Velocity":51,"Duration":250563,"SoundDuration":250563,"Delta":104653470},{"NoteNumber":62,"Velocity":45,"Duration":1440742,"SoundDuration":1440742,"Delta":104653470},{"NoteNumber":58,"Velocity":38,"Duration":1440742,"SoundDuration":1440742,"Delta":104653470},{"NoteNumber":69,"Velocity":43,"Duration":250563,"SoundDuration":250563,"Delta":104904034},{"NoteNumber":67,"Velocity":43,"Duration":250563,"SoundDuration":250563,"Delta":105154598},{"NoteNumber":66,"Velocity":50,"Duration":250563,"SoundDuration":250563,"Delta":105405161},{"NoteNumber":67,"Velocity":40,"Duration":250563,"SoundDuration":250563,"Delta":105655725},{"NoteNumber":69,"Velocity":40,"Duration":250563,"SoundDuration":250563,"Delta":105906289},{"NoteNumber":79,"Velocity":42,"Duration":1529068,"SoundDuration":1529068,"Delta":106156853},{"NoteNumber":70,"Velocity":51,"Duration":250563,"SoundDuration":250563,"Delta":106156853},{"NoteNumber":51,"Velocity":34,"Duration":1466427,"SoundDuration":1466427,"Delta":106156853},{"NoteNumber":63,"Velocity":40,"Duration":1466427,"SoundDuration":1466427,"Delta":106156853},{"NoteNumber":58,"Velocity":34,"Duration":1466427,"SoundDuration":1466427,"Delta":106156853},{"NoteNumber":69,"Velocity":42,"Duration":250563,"SoundDuration":250563,"Delta":106407417},{"NoteNumber":70,"Velocity":42,"Duration":250563,"SoundDuration":250563,"Delta":106657981},{"NoteNumber":75,"Velocity":47,"Duration":260348,"SoundDuration":260348,"Delta":106908544},{"NoteNumber":70,"Velocity":40,"Duration":260348,"SoundDuration":260348,"Delta":107168893},{"NoteNumber":67,"Velocity":40,"Duration":162718,"SoundDuration":162718,"Delta":107429242},{"NoteNumber":74,"Velocity":51,"Duration":46980,"SoundDuration":46980,"Delta":107591960},{"NoteNumber":75,"Velocity":51,"Duration":46980,"SoundDuration":46980,"Delta":107638941},{"NoteNumber":77,"Velocity":44,"Duration":751691,"SoundDuration":751691,"Delta":107685922},{"NoteNumber":74,"Velocity":51,"Duration":250563,"SoundDuration":250563,"Delta":107685922},{"NoteNumber":53,"Velocity":41,"Duration":751691,"SoundDuration":751691,"Delta":107685922},{"NoteNumber":62,"Velocity":49,"Duration":751691,"SoundDuration":751691,"Delta":107685922},{"NoteNumber":58,"Velocity":41,"Duration":751691,"SoundDuration":751691,"Delta":107685922},{"NoteNumber":72,"Velocity":43,"Duration":250563,"SoundDuration":250563,"Delta":107936485},{"NoteNumber":70,"Velocity":43,"Duration":250563,"SoundDuration":250563,"Delta":108187049},{"NoteNumber":75,"Velocity":42,"Duration":783533,"SoundDuration":783533,"Delta":108437613},{"NoteNumber":69,"Velocity":50,"Duration":250563,"SoundDuration":250563,"Delta":108437613},{"NoteNumber":54,"Velocity":36,"Duration":783533,"SoundDuration":783533,"Delta":108437613},{"NoteNumber":60,"Velocity":43,"Duration":783533,"SoundDuration":783533,"Delta":108437613},{"NoteNumber":70,"Velocity":40,"Duration":250563,"SoundDuration":250563,"Delta":108688177},{"NoteNumber":69,"Velocity":40,"Duration":282406,"SoundDuration":282406,"Delta":108938741},{"NoteNumber":74,"Velocity":47,"Duration":1708644,"SoundDuration":1708644,"Delta":109221147},{"NoteNumber":70,"Velocity":49,"Duration":68662,"SoundDuration":68662,"Delta":109221147},{"NoteNumber":58,"Velocity":49,"Duration":1708644,"SoundDuration":1708644,"Delta":109221147},{"NoteNumber":55,"Velocity":41,"Duration":1708644,"SoundDuration":1708644,"Delta":109221147},{"NoteNumber":72,"Velocity":45,"Duration":68662,"SoundDuration":68662,"Delta":109289809},{"NoteNumber":70,"Velocity":51,"Duration":137324,"SoundDuration":137324,"Delta":109358472},{"NoteNumber":69,"Velocity":42,"Duration":274649,"SoundDuration":274649,"Delta":109495797},{"NoteNumber":67,"Velocity":42,"Duration":1159344,"SoundDuration":1159344,"Delta":109770447},{"NoteNumber":74,"Velocity":47,"Duration":1532738,"SoundDuration":1532738,"Delta":110929791},{"NoteNumber":70,"Velocity":49,"Duration":62640,"SoundDuration":62640,"Delta":110929791},{"NoteNumber":62,"Velocity":46,"Duration":1467650,"SoundDuration":1467650,"Delta":110929791},{"NoteNumber":58,"Velocity":39,"Duration":1467650,"SoundDuration":1467650,"Delta":110929791},{"NoteNumber":72,"Velocity":45,"Duration":62640,"SoundDuration":62640,"Delta":110992432},{"NoteNumber":70,"Velocity":51,"Duration":125281,"SoundDuration":125281,"Delta":111055073},{"NoteNumber":69,"Velocity":42,"Duration":250563,"SoundDuration":250563,"Delta":111180355},{"NoteNumber":67,"Velocity":42,"Duration":250563,"SoundDuration":250563,"Delta":111430919},{"NoteNumber":66,"Velocity":47,"Duration":260348,"SoundDuration":260348,"Delta":111681483},{"NoteNumber":67,"Velocity":42,"Duration":260348,"SoundDuration":260348,"Delta":111941832},{"NoteNumber":69,"Velocity":45,"Duration":260348,"SoundDuration":260348,"Delta":112202181},{"NoteNumber":79,"Velocity":51,"Duration":781046,"SoundDuration":781046,"Delta":112462529},{"NoteNumber":70,"Velocity":49,"Duration":260348,"SoundDuration":260348,"Delta":112462529},{"NoteNumber":51,"Velocity":36,"Duration":715959,"SoundDuration":715959,"Delta":112462529},{"NoteNumber":63,"Velocity":43,"Duration":715959,"SoundDuration":715959,"Delta":112462529},{"NoteNumber":58,"Velocity":36,"Duration":715959,"SoundDuration":715959,"Delta":112462529},{"NoteNumber":69,"Velocity":43,"Duration":260348,"SoundDuration":260348,"Delta":112722878},{"NoteNumber":70,"Velocity":43,"Duration":260348,"SoundDuration":260348,"Delta":112983227},{"NoteNumber":77,"Velocity":50,"Duration":781046,"SoundDuration":781046,"Delta":113243576},{"NoteNumber":74,"Velocity":47,"Duration":260348,"SoundDuration":260348,"Delta":113243576},{"NoteNumber":62,"Velocity":40,"Duration":781046,"SoundDuration":781046,"Delta":113243576},{"NoteNumber":58,"Velocity":34,"Duration":781046,"SoundDuration":781046,"Delta":113243576},{"NoteNumber":53,"Velocity":34,"Duration":781046,"SoundDuration":781046,"Delta":113243576},{"NoteNumber":75,"Velocity":41,"Duration":260348,"SoundDuration":260348,"Delta":113503925},{"NoteNumber":74,"Velocity":39,"Duration":260348,"SoundDuration":260348,"Delta":113764274},{"NoteNumber":75,"Velocity":51,"Duration":751691,"SoundDuration":751691,"Delta":114024622},{"NoteNumber":72,"Velocity":49,"Duration":62640,"SoundDuration":62640,"Delta":114024622},{"NoteNumber":55,"Velocity":39,"Duration":689050,"SoundDuration":689050,"Delta":114024622},{"NoteNumber":60,"Velocity":39,"Duration":689050,"SoundDuration":689050,"Delta":114024622},{"NoteNumber":63,"Velocity":47,"Duration":689050,"SoundDuration":689050,"Delta":114024622},{"NoteNumber":74,"Velocity":45,"Duration":62640,"SoundDuration":62640,"Delta":114087263},{"NoteNumber":72,"Velocity":51,"Duration":125281,"SoundDuration":125281,"Delta":114149904},{"NoteNumber":71,"Velocity":42,"Duration":250563,"SoundDuration":250563,"Delta":114275186},{"NoteNumber":70,"Velocity":42,"Duration":250563,"SoundDuration":250563,"Delta":114525750},{"NoteNumber":68,"Velocity":47,"Duration":260348,"SoundDuration":260348,"Delta":114776314},{"NoteNumber":74,"Velocity":50,"Duration":824556,"SoundDuration":824556,"Delta":114776314},{"NoteNumber":65,"Velocity":40,"Duration":748591,"SoundDuration":748591,"Delta":114776314},{"NoteNumber":59,"Velocity":34,"Duration":748591,"SoundDuration":748591,"Delta":114776314},{"NoteNumber":55,"Velocity":34,"Duration":748591,"SoundDuration":748591,"Delta":114776314},{"NoteNumber":67,"Velocity":42,"Duration":260348,"SoundDuration":260348,"Delta":115036663},{"NoteNumber":65,"Velocity":45,"Duration":303859,"SoundDuration":303859,"Delta":115297012},{"NoteNumber":72,"Velocity":47,"Duration":1649113,"SoundDuration":1649113,"Delta":115600871},{"NoteNumber":63,"Velocity":49,"Duration":75964,"SoundDuration":75964,"Delta":115600871},{"NoteNumber":48,"Velocity":38,"Duration":3904187,"SoundDuration":3904187,"Delta":115600871},{"NoteNumber":55,"Velocity":45,"Duration":3904187,"SoundDuration":3904187,"Delta":115600871},{"NoteNumber":65,"Velocity":45,"Duration":75964,"SoundDuration":75964,"Delta":115676835},{"NoteNumber":63,"Velocity":51,"Duration":151929,"SoundDuration":151929,"Delta":115752800},{"NoteNumber":62,"Velocity":42,"Duration":303858,"SoundDuration":303858,"Delta":115904730},{"NoteNumber":60,"Velocity":42,"Duration":3296469,"SoundDuration":3296469,"Delta":116208589},{"NoteNumber":71,"Velocity":39,"Duration":751691,"SoundDuration":751691,"Delta":119505058},{"NoteNumber":74,"Velocity":39,"Duration":751691,"SoundDuration":751691,"Delta":119505058},{"NoteNumber":79,"Velocity":47,"Duration":751691,"SoundDuration":751691,"Delta":119505058},{"NoteNumber":77,"Velocity":39,"Duration":751691,"SoundDuration":751691,"Delta":119505058},{"NoteNumber":55,"Velocity":36,"Duration":250563,"SoundDuration":250563,"Delta":119505058},{"NoteNumber":67,"Velocity":44,"Duration":250563,"SoundDuration":250563,"Delta":119755622},{"NoteNumber":65,"Velocity":38,"Duration":250563,"SoundDuration":250563,"Delta":120006186},{"NoteNumber":84,"Velocity":48,"Duration":714106,"SoundDuration":714106,"Delta":120256750},{"NoteNumber":79,"Velocity":40,"Duration":714106,"SoundDuration":714106,"Delta":120256750},{"NoteNumber":75,"Velocity":40,"Duration":714106,"SoundDuration":714106,"Delta":120256750},{"NoteNumber":72,"Velocity":40,"Duration":714106,"SoundDuration":714106,"Delta":120256750},{"NoteNumber":63,"Velocity":44,"Duration":62640,"SoundDuration":62640,"Delta":120256750},{"NoteNumber":65,"Velocity":40,"Duration":62640,"SoundDuration":62640,"Delta":120319391},{"NoteNumber":63,"Velocity":45,"Duration":125281,"SoundDuration":125281,"Delta":120382032},{"NoteNumber":62,"Velocity":38,"Duration":250563,"SoundDuration":250563,"Delta":120507314},{"NoteNumber":60,"Velocity":38,"Duration":250563,"SoundDuration":250563,"Delta":120757878},{"NoteNumber":86,"Velocity":52,"Duration":714106,"SoundDuration":714106,"Delta":121008441},{"NoteNumber":79,"Velocity":44,"Duration":714106,"SoundDuration":714106,"Delta":121008441},{"NoteNumber":77,"Velocity":44,"Duration":714106,"SoundDuration":714106,"Delta":121008441},{"NoteNumber":74,"Velocity":44,"Duration":714106,"SoundDuration":714106,"Delta":121008441},{"NoteNumber":59,"Velocity":45,"Duration":250563,"SoundDuration":250563,"Delta":121008441},{"NoteNumber":60,"Velocity":36,"Duration":250563,"SoundDuration":250563,"Delta":121259005},{"NoteNumber":62,"Velocity":36,"Duration":250563,"SoundDuration":250563,"Delta":121509569},{"NoteNumber":87,"Velocity":53,"Duration":714106,"SoundDuration":714106,"Delta":121760133},{"NoteNumber":79,"Velocity":45,"Duration":714106,"SoundDuration":714106,"Delta":121760133},{"NoteNumber":75,"Velocity":45,"Duration":714106,"SoundDuration":714106,"Delta":121760133},{"NoteNumber":60,"Velocity":44,"Duration":62640,"SoundDuration":62640,"Delta":121760133},{"NoteNumber":62,"Velocity":40,"Duration":62640,"SoundDuration":62640,"Delta":121822774},{"NoteNumber":60,"Velocity":45,"Duration":125281,"SoundDuration":125281,"Delta":121885415},{"NoteNumber":55,"Velocity":37,"Duration":250563,"SoundDuration":250563,"Delta":122010697},{"NoteNumber":53,"Velocity":37,"Duration":250563,"SoundDuration":250563,"Delta":122261261},{"NoteNumber":84,"Velocity":52,"Duration":741994,"SoundDuration":741994,"Delta":122511824},{"NoteNumber":79,"Velocity":44,"Duration":741994,"SoundDuration":741994,"Delta":122511824},{"NoteNumber":72,"Velocity":44,"Duration":741994,"SoundDuration":741994,"Delta":122511824},{"NoteNumber":51,"Velocity":42,"Duration":260348,"SoundDuration":260348,"Delta":122511824},{"NoteNumber":50,"Velocity":36,"Duration":260348,"SoundDuration":260348,"Delta":122772173},{"NoteNumber":48,"Velocity":36,"Duration":260348,"SoundDuration":260348,"Delta":123032522},{"NoteNumber":83,"Velocity":55,"Duration":751780,"SoundDuration":751780,"Delta":123292871},{"NoteNumber":79,"Velocity":46,"Duration":751780,"SoundDuration":751780,"Delta":123292871},{"NoteNumber":74,"Velocity":46,"Duration":751780,"SoundDuration":751780,"Delta":123292871},{"NoteNumber":71,"Velocity":46,"Duration":751780,"SoundDuration":751780,"Delta":123292871},{"NoteNumber":50,"Velocity":41,"Duration":263782,"SoundDuration":263782,"Delta":123292871},{"NoteNumber":43,"Velocity":34,"Duration":263782,"SoundDuration":263782,"Delta":123556654},{"NoteNumber":55,"Velocity":34,"Duration":263782,"SoundDuration":263782,"Delta":123820436},{"NoteNumber":86,"Velocity":50,"Duration":782752,"SoundDuration":782752,"Delta":124084219},{"NoteNumber":84,"Velocity":42,"Duration":782752,"SoundDuration":782752,"Delta":124084219},{"NoteNumber":81,"Velocity":42,"Duration":782752,"SoundDuration":782752,"Delta":124084219},{"NoteNumber":74,"Velocity":42,"Duration":782752,"SoundDuration":782752,"Delta":124084219},{"NoteNumber":54,"Velocity":37,"Duration":274649,"SoundDuration":274649,"Delta":124084219},{"NoteNumber":57,"Velocity":33,"Duration":274649,"SoundDuration":274649,"Delta":124358869},{"NoteNumber":60,"Velocity":33,"Duration":274649,"SoundDuration":274649,"Delta":124633519},{"NoteNumber":91,"Velocity":55,"Duration":1954394,"SoundDuration":1954394,"Delta":124908168},{"NoteNumber":86,"Velocity":46,"Duration":1954394,"SoundDuration":1954394,"Delta":124908168},{"NoteNumber":82,"Velocity":46,"Duration":1954394,"SoundDuration":1954394,"Delta":124908168},{"NoteNumber":79,"Velocity":46,"Duration":1954394,"SoundDuration":1954394,"Delta":124908168},{"NoteNumber":58,"Velocity":44,"Duration":104558,"SoundDuration":104558,"Delta":124908168},{"NoteNumber":60,"Velocity":40,"Duration":104558,"SoundDuration":104558,"Delta":125012727},{"NoteNumber":58,"Velocity":45,"Duration":209117,"SoundDuration":209117,"Delta":125117286},{"NoteNumber":57,"Velocity":32,"Duration":356566,"SoundDuration":356566,"Delta":125326403},{"NoteNumber":55,"Velocity":34,"Duration":1179593,"SoundDuration":1179593,"Delta":125682970},{"NoteNumber":90,"Velocity":61,"Duration":751780,"SoundDuration":751780,"Delta":126862563},{"NoteNumber":86,"Velocity":51,"Duration":751780,"SoundDuration":751780,"Delta":126862563},{"NoteNumber":81,"Velocity":51,"Duration":751780,"SoundDuration":751780,"Delta":126862563},{"NoteNumber":78,"Velocity":51,"Duration":751780,"SoundDuration":751780,"Delta":126862563},{"NoteNumber":57,"Velocity":41,"Duration":263782,"SoundDuration":263782,"Delta":126862563},{"NoteNumber":50,"Velocity":34,"Duration":263782,"SoundDuration":263782,"Delta":127126346},{"NoteNumber":62,"Velocity":34,"Duration":263782,"SoundDuration":263782,"Delta":127390129},{"NoteNumber":93,"Velocity":54,"Duration":782752,"SoundDuration":782752,"Delta":127653911},{"NoteNumber":91,"Velocity":45,"Duration":782752,"SoundDuration":782752,"Delta":127653911},{"NoteNumber":88,"Velocity":45,"Duration":782752,"SoundDuration":782752,"Delta":127653911},{"NoteNumber":81,"Velocity":45,"Duration":782752,"SoundDuration":782752,"Delta":127653911},{"NoteNumber":61,"Velocity":41,"Duration":274649,"SoundDuration":274649,"Delta":127653911},{"NoteNumber":64,"Velocity":33,"Duration":274649,"SoundDuration":274649,"Delta":127928561},{"NoteNumber":67,"Velocity":35,"Duration":274649,"SoundDuration":274649,"Delta":128203211},{"NoteNumber":98,"Velocity":63,"Duration":1937769,"SoundDuration":1937769,"Delta":128477861},{"NoteNumber":93,"Velocity":53,"Duration":1937769,"SoundDuration":1937769,"Delta":128477861},{"NoteNumber":89,"Velocity":53,"Duration":1937769,"SoundDuration":1937769,"Delta":128477861},{"NoteNumber":86,"Velocity":53,"Duration":1937769,"SoundDuration":1937769,"Delta":128477861},{"NoteNumber":65,"Velocity":44,"Duration":104558,"SoundDuration":104558,"Delta":128477861},{"NoteNumber":67,"Velocity":40,"Duration":104558,"SoundDuration":104558,"Delta":128582420},{"NoteNumber":65,"Velocity":45,"Duration":209117,"SoundDuration":209117,"Delta":128686978},{"NoteNumber":64,"Velocity":32,"Duration":356566,"SoundDuration":356566,"Delta":128896096},{"NoteNumber":62,"Velocity":34,"Duration":1069006,"SoundDuration":1069006,"Delta":129252663},{"NoteNumber":65,"Velocity":48,"Duration":1503382,"SoundDuration":1503382,"Delta":130415630},{"NoteNumber":74,"Velocity":57,"Duration":1503382,"SoundDuration":1503382,"Delta":130415630},{"NoteNumber":58,"Velocity":44,"Duration":62640,"SoundDuration":62640,"Delta":130415630},{"NoteNumber":60,"Velocity":40,"Duration":62640,"SoundDuration":62640,"Delta":130478271},{"NoteNumber":58,"Velocity":45,"Duration":125281,"SoundDuration":125281,"Delta":130540912},{"NoteNumber":57,"Velocity":38,"Duration":250563,"SoundDuration":250563,"Delta":130666194},{"NoteNumber":55,"Velocity":38,"Duration":250563,"SoundDuration":250563,"Delta":130916758},{"NoteNumber":53,"Velocity":45,"Duration":250563,"SoundDuration":250563,"Delta":131167322},{"NoteNumber":55,"Velocity":36,"Duration":250563,"SoundDuration":250563,"Delta":131417886},{"NoteNumber":57,"Velocity":36,"Duration":250563,"SoundDuration":250563,"Delta":131668450},{"NoteNumber":67,"Velocity":50,"Duration":1529068,"SoundDuration":1529068,"Delta":131919013},{"NoteNumber":70,"Velocity":50,"Duration":1529068,"SoundDuration":1529068,"Delta":131919013},{"NoteNumber":79,"Velocity":59,"Duration":1529068,"SoundDuration":1529068,"Delta":131919013},{"NoteNumber":51,"Velocity":37,"Duration":1529068,"SoundDuration":1529068,"Delta":131919013},{"NoteNumber":58,"Velocity":45,"Duration":250563,"SoundDuration":250563,"Delta":131919013},{"NoteNumber":57,"Velocity":37,"Duration":250563,"SoundDuration":250563,"Delta":132169577},{"NoteNumber":58,"Velocity":37,"Duration":250563,"SoundDuration":250563,"Delta":132420141},{"NoteNumber":63,"Velocity":42,"Duration":260348,"SoundDuration":260348,"Delta":132670705},{"NoteNumber":58,"Velocity":36,"Duration":260348,"SoundDuration":260348,"Delta":132931054},{"NoteNumber":55,"Velocity":36,"Duration":162718,"SoundDuration":162718,"Delta":133191403},{"NoteNumber":77,"Velocity":44,"Duration":751691,"SoundDuration":751691,"Delta":133448082},{"NoteNumber":74,"Velocity":49,"Duration":62640,"SoundDuration":62640,"Delta":133448082},{"NoteNumber":50,"Velocity":39,"Duration":751691,"SoundDuration":751691,"Delta":133448082},{"NoteNumber":58,"Velocity":45,"Duration":250563,"SoundDuration":250563,"Delta":133448082},{"NoteNumber":75,"Velocity":45,"Duration":62640,"SoundDuration":62640,"Delta":133510723},{"NoteNumber":74,"Velocity":51,"Duration":125281,"SoundDuration":125281,"Delta":133573364},{"NoteNumber":72,"Velocity":43,"Duration":250563,"SoundDuration":250563,"Delta":133698646},{"NoteNumber":57,"Velocity":38,"Duration":250563,"SoundDuration":250563,"Delta":133698646},{"NoteNumber":70,"Velocity":43,"Duration":250563,"SoundDuration":250563,"Delta":133949210},{"NoteNumber":55,"Velocity":38,"Duration":250563,"SoundDuration":250563,"Delta":133949210},{"NoteNumber":75,"Velocity":42,"Duration":783533,"SoundDuration":783533,"Delta":134199774},{"NoteNumber":69,"Velocity":50,"Duration":250563,"SoundDuration":250563,"Delta":134199774},{"NoteNumber":54,"Velocity":45,"Duration":783533,"SoundDuration":783533,"Delta":134199774},{"NoteNumber":70,"Velocity":40,"Duration":250563,"SoundDuration":250563,"Delta":134450337},{"NoteNumber":55,"Velocity":36,"Duration":250563,"SoundDuration":250563,"Delta":134450337},{"NoteNumber":72,"Velocity":40,"Duration":282406,"SoundDuration":282406,"Delta":134700901},{"NoteNumber":57,"Velocity":36,"Duration":282406,"SoundDuration":282406,"Delta":134700901},{"NoteNumber":74,"Velocity":47,"Duration":1708644,"SoundDuration":1708644,"Delta":134983307},{"NoteNumber":70,"Velocity":49,"Duration":68662,"SoundDuration":68662,"Delta":134983307},{"NoteNumber":55,"Velocity":40,"Duration":1708644,"SoundDuration":1708644,"Delta":134983307},{"NoteNumber":72,"Velocity":45,"Duration":68662,"SoundDuration":68662,"Delta":135051970},{"NoteNumber":70,"Velocity":51,"Duration":137324,"SoundDuration":137324,"Delta":135120632},{"NoteNumber":69,"Velocity":42,"Duration":274649,"SoundDuration":274649,"Delta":135257957},{"NoteNumber":57,"Velocity":37,"Duration":274649,"SoundDuration":274649,"Delta":135257957},{"NoteNumber":67,"Velocity":42,"Duration":1159344,"SoundDuration":1159344,"Delta":135532607},{"NoteNumber":58,"Velocity":37,"Duration":1159344,"SoundDuration":1159344,"Delta":135532607},{"NoteNumber":65,"Velocity":39,"Duration":1532737,"SoundDuration":1532737,"Delta":136691952},{"NoteNumber":74,"Velocity":47,"Duration":1532737,"SoundDuration":1532737,"Delta":136691952},{"NoteNumber":58,"Velocity":44,"Duration":62640,"SoundDuration":62640,"Delta":136691952},{"NoteNumber":60,"Velocity":40,"Duration":62640,"SoundDuration":62640,"Delta":136754593},{"NoteNumber":58,"Velocity":45,"Duration":125281,"SoundDuration":125281,"Delta":136817234},{"NoteNumber":57,"Velocity":37,"Duration":250563,"SoundDuration":250563,"Delta":136942516},{"NoteNumber":55,"Velocity":37,"Duration":250563,"SoundDuration":250563,"Delta":137193080},{"NoteNumber":53,"Velocity":42,"Duration":260348,"SoundDuration":260348,"Delta":137443643},{"NoteNumber":55,"Velocity":37,"Duration":260348,"SoundDuration":260348,"Delta":137703992},{"NoteNumber":57,"Velocity":40,"Duration":260348,"SoundDuration":260348,"Delta":137964341},{"NoteNumber":79,"Velocity":51,"Duration":781046,"SoundDuration":781046,"Delta":138224690},{"NoteNumber":67,"Velocity":41,"Duration":781046,"SoundDuration":781046,"Delta":138224690},{"NoteNumber":51,"Velocity":45,"Duration":781046,"SoundDuration":781046,"Delta":138224690},{"NoteNumber":58,"Velocity":44,"Duration":260348,"SoundDuration":260348,"Delta":138224690},{"NoteNumber":57,"Velocity":38,"Duration":260348,"SoundDuration":260348,"Delta":138485039},{"NoteNumber":58,"Velocity":38,"Duration":260348,"SoundDuration":260348,"Delta":138745388},{"NoteNumber":77,"Velocity":50,"Duration":781046,"SoundDuration":781046,"Delta":139005736},{"NoteNumber":70,"Velocity":49,"Duration":65087,"SoundDuration":65087,"Delta":139005736},{"NoteNumber":53,"Velocity":45,"Duration":781046,"SoundDuration":781046,"Delta":139005736},{"NoteNumber":62,"Velocity":42,"Duration":260348,"SoundDuration":260348,"Delta":139005736},{"NoteNumber":72,"Velocity":45,"Duration":65087,"SoundDuration":65087,"Delta":139070824},{"NoteNumber":70,"Velocity":51,"Duration":130174,"SoundDuration":130174,"Delta":139135911},{"NoteNumber":69,"Velocity":41,"Duration":260348,"SoundDuration":260348,"Delta":139266085},{"NoteNumber":60,"Velocity":36,"Duration":260348,"SoundDuration":260348,"Delta":139266085},{"NoteNumber":70,"Velocity":39,"Duration":260348,"SoundDuration":260348,"Delta":139526434},{"NoteNumber":62,"Velocity":35,"Duration":260348,"SoundDuration":260348,"Delta":139526434},{"NoteNumber":72,"Velocity":49,"Duration":62640,"SoundDuration":62640,"Delta":139786783},{"NoteNumber":75,"Velocity":51,"Duration":751691,"SoundDuration":751691,"Delta":139786783},{"NoteNumber":63,"Velocity":40,"Duration":250563,"SoundDuration":250563,"Delta":139786783},{"NoteNumber":55,"Velocity":45,"Duration":751691,"SoundDuration":751691,"Delta":139786783},{"NoteNumber":74,"Velocity":45,"Duration":62640,"SoundDuration":62640,"Delta":139849424},{"NoteNumber":72,"Velocity":51,"Duration":125281,"SoundDuration":125281,"Delta":139912065},{"NoteNumber":71,"Velocity":42,"Duration":250563,"SoundDuration":250563,"Delta":140037347},{"NoteNumber":62,"Velocity":37,"Duration":250563,"SoundDuration":250563,"Delta":140037347},{"NoteNumber":70,"Velocity":42,"Duration":250563,"SoundDuration":250563,"Delta":140287911},{"NoteNumber":63,"Velocity":37,"Duration":250563,"SoundDuration":250563,"Delta":140287911},{"NoteNumber":74,"Velocity":50,"Duration":824556,"SoundDuration":824556,"Delta":140538474},{"NoteNumber":68,"Velocity":49,"Duration":65087,"SoundDuration":65087,"Delta":140538474},{"NoteNumber":55,"Velocity":45,"Duration":824556,"SoundDuration":824556,"Delta":140538474},{"NoteNumber":65,"Velocity":42,"Duration":260348,"SoundDuration":260348,"Delta":140538474},{"NoteNumber":70,"Velocity":45,"Duration":65087,"SoundDuration":65087,"Delta":140603562},{"NoteNumber":68,"Velocity":51,"Duration":130174,"SoundDuration":130174,"Delta":140668649},{"NoteNumber":67,"Velocity":42,"Duration":260348,"SoundDuration":260348,"Delta":140798823},{"NoteNumber":62,"Velocity":37,"Duration":260348,"SoundDuration":260348,"Delta":140798823},{"NoteNumber":65,"Velocity":45,"Duration":303859,"SoundDuration":303859,"Delta":141059172},{"NoteNumber":59,"Velocity":40,"Duration":303859,"SoundDuration":303859,"Delta":141059172},{"NoteNumber":63,"Velocity":49,"Duration":75964,"SoundDuration":75964,"Delta":141363031},{"NoteNumber":72,"Velocity":47,"Duration":1967799,"SoundDuration":1967799,"Delta":141363031},{"NoteNumber":60,"Velocity":45,"Duration":303858,"SoundDuration":303858,"Delta":141363031},{"NoteNumber":48,"Velocity":42,"Duration":1967799,"SoundDuration":1967799,"Delta":141363031},{"NoteNumber":65,"Velocity":45,"Duration":75964,"SoundDuration":75964,"Delta":141438996},{"NoteNumber":63,"Velocity":51,"Duration":151929,"SoundDuration":151929,"Delta":141514961},{"NoteNumber":62,"Velocity":42,"Duration":303858,"SoundDuration":303858,"Delta":141666890},{"NoteNumber":55,"Velocity":37,"Duration":303858,"SoundDuration":303858,"Delta":141666890},{"NoteNumber":60,"Velocity":42,"Duration":1360081,"SoundDuration":1360081,"Delta":141970749},{"NoteNumber":51,"Velocity":37,"Duration":1360081,"SoundDuration":1360081,"Delta":141970749},{"NoteNumber":56,"Velocity":34,"Duration":799186,"SoundDuration":799186,"Delta":143330830},{"NoteNumber":60,"Velocity":40,"Duration":799186,"SoundDuration":799186,"Delta":143330830},{"NoteNumber":44,"Velocity":28,"Duration":799186,"SoundDuration":799186,"Delta":143330830},{"NoteNumber":51,"Velocity":34,"Duration":799186,"SoundDuration":799186,"Delta":143330830},{"NoteNumber":55,"Velocity":31,"Duration":367548,"SoundDuration":367548,"Delta":144202670},{"NoteNumber":58,"Velocity":37,"Duration":367548,"SoundDuration":367548,"Delta":144202670},{"NoteNumber":46,"Velocity":26,"Duration":367548,"SoundDuration":367548,"Delta":144202670},{"NoteNumber":51,"Velocity":31,"Duration":367548,"SoundDuration":367548,"Delta":144202670},{"NoteNumber":56,"Velocity":34,"Duration":417806,"SoundDuration":417806,"Delta":144603632},{"NoteNumber":60,"Velocity":34,"Duration":417806,"SoundDuration":417806,"Delta":144603632},{"NoteNumber":44,"Velocity":24,"Duration":417806,"SoundDuration":417806,"Delta":144603632},{"NoteNumber":51,"Velocity":29,"Duration":417806,"SoundDuration":417806,"Delta":144603632},{"NoteNumber":56,"Velocity":34,"Duration":1682898,"SoundDuration":1682898,"Delta":145059421},{"NoteNumber":61,"Velocity":40,"Duration":1682898,"SoundDuration":1682898,"Delta":145059421},{"NoteNumber":41,"Velocity":28,"Duration":1718705,"SoundDuration":1718705,"Delta":145059421},{"NoteNumber":53,"Velocity":34,"Duration":1682898,"SoundDuration":1682898,"Delta":145059421},{"NoteNumber":56,"Velocity":28,"Duration":799186,"SoundDuration":799186,"Delta":146778126},{"NoteNumber":60,"Velocity":40,"Duration":799186,"SoundDuration":799186,"Delta":146778126},{"NoteNumber":44,"Velocity":33,"Duration":799186,"SoundDuration":799186,"Delta":146778126},{"NoteNumber":51,"Velocity":39,"Duration":799186,"SoundDuration":799186,"Delta":146778126},{"NoteNumber":55,"Velocity":39,"Duration":367548,"SoundDuration":367548,"Delta":147649965},{"NoteNumber":58,"Velocity":47,"Duration":367548,"SoundDuration":367548,"Delta":147649965},{"NoteNumber":46,"Velocity":34,"Duration":367548,"SoundDuration":367548,"Delta":147649965},{"NoteNumber":51,"Velocity":41,"Duration":367548,"SoundDuration":367548,"Delta":147649965},{"NoteNumber":56,"Velocity":36,"Duration":520636,"SoundDuration":520636,"Delta":148050927},{"NoteNumber":60,"Velocity":43,"Duration":520636,"SoundDuration":520636,"Delta":148050927},{"NoteNumber":44,"Velocity":33,"Duration":520636,"SoundDuration":520636,"Delta":148050927},{"NoteNumber":51,"Velocity":39,"Duration":520636,"SoundDuration":520636,"Delta":148050927},{"NoteNumber":58,"Velocity":49,"Duration":1682898,"SoundDuration":1682898,"Delta":148618894},{"NoteNumber":63,"Velocity":58,"Duration":1682898,"SoundDuration":1682898,"Delta":148618894},{"NoteNumber":43,"Velocity":44,"Duration":1718705,"SoundDuration":1718705,"Delta":148618894},{"NoteNumber":55,"Velocity":52,"Duration":1682898,"SoundDuration":1682898,"Delta":148618894},{"NoteNumber":56,"Velocity":38,"Duration":1664995,"SoundDuration":1664995,"Delta":150337599},{"NoteNumber":60,"Velocity":45,"Duration":1664995,"SoundDuration":1664995,"Delta":150337599},{"NoteNumber":44,"Velocity":32,"Duration":1664995,"SoundDuration":1664995,"Delta":150337599},{"NoteNumber":51,"Velocity":38,"Duration":1664995,"SoundDuration":1664995,"Delta":150337599},{"NoteNumber":61,"Velocity":42,"Duration":761828,"SoundDuration":761828,"Delta":152056304},{"NoteNumber":68,"Velocity":50,"Duration":761828,"SoundDuration":761828,"Delta":152056304},{"NoteNumber":41,"Velocity":34,"Duration":761828,"SoundDuration":761828,"Delta":152056304},{"NoteNumber":53,"Velocity":40,"Duration":761828,"SoundDuration":761828,"Delta":152056304},{"NoteNumber":62,"Velocity":47,"Duration":922031,"SoundDuration":922031,"Delta":152858229},{"NoteNumber":68,"Velocity":56,"Duration":922031,"SoundDuration":922031,"Delta":152858229},{"NoteNumber":41,"Velocity":38,"Duration":922031,"SoundDuration":922031,"Delta":152858229},{"NoteNumber":53,"Velocity":45,"Duration":922031,"SoundDuration":922031,"Delta":152858229},{"NoteNumber":63,"Velocity":46,"Duration":847218,"SoundDuration":847218,"Delta":153828788},{"NoteNumber":67,"Velocity":55,"Duration":847218,"SoundDuration":847218,"Delta":153828788},{"NoteNumber":48,"Velocity":40,"Duration":847218,"SoundDuration":847218,"Delta":153828788},{"NoteNumber":43,"Velocity":40,"Duration":804857,"SoundDuration":804857,"Delta":153828788},{"NoteNumber":55,"Velocity":48,"Duration":822507,"SoundDuration":822507,"Delta":153828788},{"NoteNumber":59,"Velocity":31,"Duration":658645,"SoundDuration":658645,"Delta":154676007},{"NoteNumber":62,"Velocity":37,"Duration":658645,"SoundDuration":658645,"Delta":154676007},{"NoteNumber":43,"Velocity":21,"Duration":893681,"SoundDuration":893681,"Delta":154676007},{"NoteNumber":53,"Velocity":25,"Duration":893681,"SoundDuration":893681,"Delta":154676007},{"NoteNumber":63,"Velocity":34,"Duration":235035,"SoundDuration":235035,"Delta":155334652},{"NoteNumber":55,"Velocity":34,"Duration":3106821,"SoundDuration":3106821,"Delta":155569688},{"NoteNumber":60,"Velocity":40,"Duration":3106821,"SoundDuration":3106821,"Delta":155569688},{"NoteNumber":48,"Velocity":25,"Duration":3106821,"SoundDuration":3106821,"Delta":155569688},{"NoteNumber":51,"Velocity":30,"Duration":3106821,"SoundDuration":3106821,"Delta":155569688},{"NoteNumber":56,"Velocity":34,"Duration":799186,"SoundDuration":799186,"Delta":158742612},{"NoteNumber":60,"Velocity":40,"Duration":799186,"SoundDuration":799186,"Delta":158742612},{"NoteNumber":44,"Velocity":28,"Duration":799186,"SoundDuration":799186,"Delta":158742612},{"NoteNumber":51,"Velocity":34,"Duration":799186,"SoundDuration":799186,"Delta":158742612},{"NoteNumber":55,"Velocity":31,"Duration":367548,"SoundDuration":367548,"Delta":159614451},{"NoteNumber":58,"Velocity":37,"Duration":367548,"SoundDuration":367548,"Delta":159614451},{"NoteNumber":46,"Velocity":26,"Duration":367548,"SoundDuration":367548,"Delta":159614451},{"NoteNumber":51,"Velocity":31,"Duration":367548,"SoundDuration":367548,"Delta":159614451},{"NoteNumber":56,"Velocity":34,"Duration":417806,"SoundDuration":417806,"Delta":160015414},{"NoteNumber":60,"Velocity":34,"Duration":417806,"SoundDuration":417806,"Delta":160015414},{"NoteNumber":44,"Velocity":24,"Duration":417806,"SoundDuration":417806,"Delta":160015414},{"NoteNumber":51,"Velocity":29,"Duration":417806,"SoundDuration":417806,"Delta":160015414},{"NoteNumber":56,"Velocity":34,"Duration":1285800,"SoundDuration":1285800,"Delta":160500457},{"NoteNumber":61,"Velocity":40,"Duration":1285800,"SoundDuration":1285800,"Delta":160500457},{"NoteNumber":41,"Velocity":28,"Duration":1285800,"SoundDuration":1285800,"Delta":160500457},{"NoteNumber":53,"Velocity":34,"Duration":1285800,"SoundDuration":1285800,"Delta":160500457},{"NoteNumber":80,"Velocity":28,"Duration":148377,"SoundDuration":148377,"Delta":161170544},{"NoteNumber":85,"Velocity":28,"Duration":148377,"SoundDuration":148377,"Delta":161170544},{"NoteNumber":92,"Velocity":34,"Duration":148377,"SoundDuration":148377,"Delta":161170544},{"NoteNumber":65,"Velocity":30,"Duration":148377,"SoundDuration":148377,"Delta":161170544},{"NoteNumber":73,"Velocity":30,"Duration":148377,"SoundDuration":148377,"Delta":161170544},{"NoteNumber":77,"Velocity":36,"Duration":148377,"SoundDuration":148377,"Delta":161170544},{"NoteNumber":82,"Velocity":24,"Duration":148377,"SoundDuration":148377,"Delta":161368381},{"NoteNumber":85,"Velocity":24,"Duration":148377,"SoundDuration":148377,"Delta":161368381},{"NoteNumber":91,"Velocity":29,"Duration":148377,"SoundDuration":148377,"Delta":161368381},{"NoteNumber":67,"Velocity":25,"Duration":148377,"SoundDuration":148377,"Delta":161368381},{"NoteNumber":73,"Velocity":25,"Duration":148377,"SoundDuration":148377,"Delta":161368381},{"NoteNumber":75,"Velocity":30,"Duration":148377,"SoundDuration":148377,"Delta":161368381},{"NoteNumber":80,"Velocity":23,"Duration":148377,"SoundDuration":148377,"Delta":161566218},{"NoteNumber":85,"Velocity":23,"Duration":148377,"SoundDuration":148377,"Delta":161566218},{"NoteNumber":89,"Velocity":28,"Duration":148377,"SoundDuration":148377,"Delta":161566218},{"NoteNumber":68,"Velocity":23,"Duration":148377,"SoundDuration":148377,"Delta":161566218},{"NoteNumber":73,"Velocity":28,"Duration":148377,"SoundDuration":148377,"Delta":161566218},{"NoteNumber":80,"Velocity":28,"Duration":142730,"SoundDuration":142730,"Delta":161764055},{"NoteNumber":85,"Velocity":28,"Duration":142730,"SoundDuration":142730,"Delta":161764055},{"NoteNumber":89,"Velocity":34,"Duration":142730,"SoundDuration":142730,"Delta":161764055},{"NoteNumber":68,"Velocity":28,"Duration":142730,"SoundDuration":142730,"Delta":161764055},{"NoteNumber":73,"Velocity":34,"Duration":272773,"SoundDuration":272773,"Delta":161764055},{"NoteNumber":79,"Velocity":28,"Duration":142730,"SoundDuration":142730,"Delta":161954362},{"NoteNumber":87,"Velocity":30,"Duration":142730,"SoundDuration":142730,"Delta":161954362},{"NoteNumber":70,"Velocity":28,"Duration":142730,"SoundDuration":142730,"Delta":161954362},{"NoteNumber":79,"Velocity":25,"Duration":158853,"SoundDuration":158853,"Delta":162144669},{"NoteNumber":85,"Velocity":25,"Duration":158853,"SoundDuration":158853,"Delta":162144669},{"NoteNumber":87,"Velocity":30,"Duration":158853,"SoundDuration":158853,"Delta":162144669},{"NoteNumber":70,"Velocity":23,"Duration":158853,"SoundDuration":158853,"Delta":162144669},{"NoteNumber":73,"Velocity":28,"Duration":158853,"SoundDuration":158853,"Delta":162144669},{"NoteNumber":80,"Velocity":28,"Duration":139198,"SoundDuration":139198,"Delta":162356473},{"NoteNumber":85,"Velocity":28,"Duration":139198,"SoundDuration":139198,"Delta":162356473},{"NoteNumber":92,"Velocity":34,"Duration":139198,"SoundDuration":139198,"Delta":162356473},{"NoteNumber":65,"Velocity":28,"Duration":139198,"SoundDuration":139198,"Delta":162356473},{"NoteNumber":73,"Velocity":28,"Duration":139198,"SoundDuration":139198,"Delta":162356473},{"NoteNumber":77,"Velocity":34,"Duration":139198,"SoundDuration":139198,"Delta":162356473},{"NoteNumber":82,"Velocity":22,"Duration":142730,"SoundDuration":142730,"Delta":162542071},{"NoteNumber":85,"Velocity":22,"Duration":142730,"SoundDuration":142730,"Delta":162542071},{"NoteNumber":91,"Velocity":27,"Duration":142730,"SoundDuration":142730,"Delta":162542071},{"NoteNumber":67,"Velocity":24,"Duration":142730,"SoundDuration":142730,"Delta":162542071},{"NoteNumber":73,"Velocity":24,"Duration":142730,"SoundDuration":142730,"Delta":162542071},{"NoteNumber":75,"Velocity":29,"Duration":142730,"SoundDuration":142730,"Delta":162542071},{"NoteNumber":80,"Velocity":22,"Duration":154490,"SoundDuration":154490,"Delta":162732378},{"NoteNumber":85,"Velocity":22,"Duration":154490,"SoundDuration":154490,"Delta":162732378},{"NoteNumber":89,"Velocity":27,"Duration":154490,"SoundDuration":154490,"Delta":162732378},{"NoteNumber":68,"Velocity":28,"Duration":154490,"SoundDuration":154490,"Delta":162732378},{"NoteNumber":73,"Velocity":34,"Duration":154490,"SoundDuration":154490,"Delta":162732378},{"NoteNumber":80,"Velocity":28,"Duration":146446,"SoundDuration":146446,"Delta":162938365},{"NoteNumber":85,"Velocity":28,"Duration":146446,"SoundDuration":146446,"Delta":162938365},{"NoteNumber":89,"Velocity":34,"Duration":146446,"SoundDuration":146446,"Delta":162938365},{"NoteNumber":68,"Velocity":25,"Duration":146446,"SoundDuration":146446,"Delta":162938365},{"NoteNumber":73,"Velocity":30,"Duration":279874,"SoundDuration":279874,"Delta":162938365},{"NoteNumber":79,"Velocity":30,"Duration":146446,"SoundDuration":146446,"Delta":163133627},{"NoteNumber":87,"Velocity":34,"Duration":146446,"SoundDuration":146446,"Delta":163133627},{"NoteNumber":70,"Velocity":30,"Duration":146446,"SoundDuration":146446,"Delta":163133627},{"NoteNumber":79,"Velocity":25,"Duration":146446,"SoundDuration":146446,"Delta":163328889},{"NoteNumber":85,"Velocity":25,"Duration":146446,"SoundDuration":146446,"Delta":163328889},{"NoteNumber":87,"Velocity":30,"Duration":146446,"SoundDuration":146446,"Delta":163328889},{"NoteNumber":70,"Velocity":25,"Duration":146446,"SoundDuration":146446,"Delta":163328889},{"NoteNumber":73,"Velocity":30,"Duration":146446,"SoundDuration":146446,"Delta":163328889},{"NoteNumber":56,"Velocity":34,"Duration":799186,"SoundDuration":799186,"Delta":164109935},{"NoteNumber":60,"Velocity":40,"Duration":799186,"SoundDuration":799186,"Delta":164109935},{"NoteNumber":44,"Velocity":28,"Duration":799186,"SoundDuration":799186,"Delta":164109935},{"NoteNumber":51,"Velocity":34,"Duration":799186,"SoundDuration":799186,"Delta":164109935},{"NoteNumber":55,"Velocity":31,"Duration":367548,"SoundDuration":367548,"Delta":164981775},{"NoteNumber":58,"Velocity":37,"Duration":367548,"SoundDuration":367548,"Delta":164981775},{"NoteNumber":46,"Velocity":26,"Duration":367548,"SoundDuration":367548,"Delta":164981775},{"NoteNumber":51,"Velocity":31,"Duration":367548,"SoundDuration":367548,"Delta":164981775},{"NoteNumber":56,"Velocity":34,"Duration":417806,"SoundDuration":417806,"Delta":165382737},{"NoteNumber":60,"Velocity":34,"Duration":417806,"SoundDuration":417806,"Delta":165382737},{"NoteNumber":44,"Velocity":24,"Duration":417806,"SoundDuration":417806,"Delta":165382737},{"NoteNumber":51,"Velocity":29,"Duration":417806,"SoundDuration":417806,"Delta":165382737},{"NoteNumber":58,"Velocity":34,"Duration":1284606,"SoundDuration":1284606,"Delta":165838525},{"NoteNumber":63,"Velocity":40,"Duration":1284606,"SoundDuration":1284606,"Delta":165838525},{"NoteNumber":43,"Velocity":28,"Duration":1284606,"SoundDuration":1284606,"Delta":165838525},{"NoteNumber":55,"Velocity":34,"Duration":1284606,"SoundDuration":1284606,"Delta":165838525},{"NoteNumber":82,"Velocity":28,"Duration":148377,"SoundDuration":148377,"Delta":166529621},{"NoteNumber":87,"Velocity":28,"Duration":148377,"SoundDuration":148377,"Delta":166529621},{"NoteNumber":94,"Velocity":34,"Duration":148377,"SoundDuration":148377,"Delta":166529621},{"NoteNumber":67,"Velocity":30,"Duration":148377,"SoundDuration":148377,"Delta":166529621},{"NoteNumber":75,"Velocity":30,"Duration":148377,"SoundDuration":148377,"Delta":166529621},{"NoteNumber":79,"Velocity":36,"Duration":148377,"SoundDuration":148377,"Delta":166529621},{"NoteNumber":84,"Velocity":24,"Duration":148377,"SoundDuration":148377,"Delta":166727458},{"NoteNumber":87,"Velocity":24,"Duration":148377,"SoundDuration":148377,"Delta":166727458},{"NoteNumber":93,"Velocity":29,"Duration":148377,"SoundDuration":148377,"Delta":166727458},{"NoteNumber":69,"Velocity":25,"Duration":148377,"SoundDuration":148377,"Delta":166727458},{"NoteNumber":75,"Velocity":25,"Duration":148377,"SoundDuration":148377,"Delta":166727458},{"NoteNumber":77,"Velocity":30,"Duration":148377,"SoundDuration":148377,"Delta":166727458},{"NoteNumber":82,"Velocity":23,"Duration":148377,"SoundDuration":148377,"Delta":166925295},{"NoteNumber":87,"Velocity":23,"Duration":148377,"SoundDuration":148377,"Delta":166925295},{"NoteNumber":91,"Velocity":28,"Duration":148377,"SoundDuration":148377,"Delta":166925295},{"NoteNumber":70,"Velocity":23,"Duration":148377,"SoundDuration":148377,"Delta":166925295},{"NoteNumber":75,"Velocity":28,"Duration":148377,"SoundDuration":148377,"Delta":166925295},{"NoteNumber":82,"Velocity":28,"Duration":142730,"SoundDuration":142730,"Delta":167123132},{"NoteNumber":87,"Velocity":28,"Duration":142730,"SoundDuration":142730,"Delta":167123132},{"NoteNumber":91,"Velocity":34,"Duration":142730,"SoundDuration":142730,"Delta":167123132},{"NoteNumber":70,"Velocity":28,"Duration":142730,"SoundDuration":142730,"Delta":167123132},{"NoteNumber":75,"Velocity":34,"Duration":272773,"SoundDuration":272773,"Delta":167123132},{"NoteNumber":81,"Velocity":28,"Duration":142730,"SoundDuration":142730,"Delta":167313439},{"NoteNumber":89,"Velocity":30,"Duration":142730,"SoundDuration":142730,"Delta":167313439},{"NoteNumber":72,"Velocity":28,"Duration":142730,"SoundDuration":142730,"Delta":167313439},{"NoteNumber":81,"Velocity":25,"Duration":158853,"SoundDuration":158853,"Delta":167503746},{"NoteNumber":87,"Velocity":25,"Duration":158853,"SoundDuration":158853,"Delta":167503746},{"NoteNumber":89,"Velocity":30,"Duration":158853,"SoundDuration":158853,"Delta":167503746},{"NoteNumber":72,"Velocity":23,"Duration":158853,"SoundDuration":158853,"Delta":167503746},{"NoteNumber":75,"Velocity":28,"Duration":158853,"SoundDuration":158853,"Delta":167503746},{"NoteNumber":82,"Velocity":28,"Duration":139198,"SoundDuration":139198,"Delta":167715551},{"NoteNumber":87,"Velocity":28,"Duration":139198,"SoundDuration":139198,"Delta":167715551},{"NoteNumber":94,"Velocity":34,"Duration":139198,"SoundDuration":139198,"Delta":167715551},{"NoteNumber":67,"Velocity":28,"Duration":139198,"SoundDuration":139198,"Delta":167715551},{"NoteNumber":75,"Velocity":28,"Duration":139198,"SoundDuration":139198,"Delta":167715551},{"NoteNumber":79,"Velocity":34,"Duration":139198,"SoundDuration":139198,"Delta":167715551},{"NoteNumber":84,"Velocity":22,"Duration":142730,"SoundDuration":142730,"Delta":167901148},{"NoteNumber":87,"Velocity":22,"Duration":142730,"SoundDuration":142730,"Delta":167901148},{"NoteNumber":93,"Velocity":27,"Duration":142730,"SoundDuration":142730,"Delta":167901148},{"NoteNumber":69,"Velocity":24,"Duration":142730,"SoundDuration":142730,"Delta":167901148},{"NoteNumber":75,"Velocity":24,"Duration":142730,"SoundDuration":142730,"Delta":167901148},{"NoteNumber":77,"Velocity":29,"Duration":142730,"SoundDuration":142730,"Delta":167901148},{"NoteNumber":82,"Velocity":22,"Duration":154490,"SoundDuration":154490,"Delta":168091455},{"NoteNumber":87,"Velocity":22,"Duration":154490,"SoundDuration":154490,"Delta":168091455},{"NoteNumber":91,"Velocity":27,"Duration":154490,"SoundDuration":154490,"Delta":168091455},{"NoteNumber":70,"Velocity":28,"Duration":154490,"SoundDuration":154490,"Delta":168091455},{"NoteNumber":75,"Velocity":34,"Duration":154490,"SoundDuration":154490,"Delta":168091455},{"NoteNumber":82,"Velocity":28,"Duration":146446,"SoundDuration":146446,"Delta":168297443},{"NoteNumber":87,"Velocity":28,"Duration":146446,"SoundDuration":146446,"Delta":168297443},{"NoteNumber":91,"Velocity":34,"Duration":146446,"SoundDuration":146446,"Delta":168297443},{"NoteNumber":70,"Velocity":25,"Duration":146446,"SoundDuration":146446,"Delta":168297443},{"NoteNumber":75,"Velocity":30,"Duration":279874,"SoundDuration":279874,"Delta":168297443},{"NoteNumber":81,"Velocity":30,"Duration":146446,"SoundDuration":146446,"Delta":168492704},{"NoteNumber":89,"Velocity":34,"Duration":146446,"SoundDuration":146446,"Delta":168492704},{"NoteNumber":72,"Velocity":30,"Duration":146446,"SoundDuration":146446,"Delta":168492704},{"NoteNumber":81,"Velocity":25,"Duration":146446,"SoundDuration":146446,"Delta":168687966},{"NoteNumber":87,"Velocity":25,"Duration":146446,"SoundDuration":146446,"Delta":168687966},{"NoteNumber":89,"Velocity":30,"Duration":146446,"SoundDuration":146446,"Delta":168687966},{"NoteNumber":72,"Velocity":25,"Duration":146446,"SoundDuration":146446,"Delta":168687966},{"NoteNumber":75,"Velocity":30,"Duration":146446,"SoundDuration":146446,"Delta":168687966},{"NoteNumber":65,"Velocity":39,"Duration":1532737,"SoundDuration":1532737,"Delta":169469012},{"NoteNumber":74,"Velocity":47,"Duration":1532737,"SoundDuration":1532737,"Delta":169469012},{"NoteNumber":58,"Velocity":44,"Duration":62640,"SoundDuration":62640,"Delta":169469012},{"NoteNumber":60,"Velocity":40,"Duration":62640,"SoundDuration":62640,"Delta":169531653},{"NoteNumber":58,"Velocity":45,"Duration":125281,"SoundDuration":125281,"Delta":169594294},{"NoteNumber":57,"Velocity":37,"Duration":250563,"SoundDuration":250563,"Delta":169719576},{"NoteNumber":55,"Velocity":37,"Duration":250563,"SoundDuration":250563,"Delta":169970140},{"NoteNumber":53,"Velocity":42,"Duration":260348,"SoundDuration":260348,"Delta":170220704},{"NoteNumber":55,"Velocity":37,"Duration":260348,"SoundDuration":260348,"Delta":170481053},{"NoteNumber":57,"Velocity":40,"Duration":260348,"SoundDuration":260348,"Delta":170741402},{"NoteNumber":79,"Velocity":51,"Duration":781046,"SoundDuration":781046,"Delta":171001750},{"NoteNumber":67,"Velocity":41,"Duration":781046,"SoundDuration":781046,"Delta":171001750},{"NoteNumber":51,"Velocity":45,"Duration":781046,"SoundDuration":781046,"Delta":171001750},{"NoteNumber":58,"Velocity":44,"Duration":260348,"SoundDuration":260348,"Delta":171001750},{"NoteNumber":57,"Velocity":38,"Duration":260348,"SoundDuration":260348,"Delta":171262099},{"NoteNumber":58,"Velocity":38,"Duration":260348,"SoundDuration":260348,"Delta":171522448},{"NoteNumber":77,"Velocity":50,"Duration":781046,"SoundDuration":781046,"Delta":171782797},{"NoteNumber":70,"Velocity":49,"Duration":65087,"SoundDuration":65087,"Delta":171782797},{"NoteNumber":53,"Velocity":45,"Duration":781046,"SoundDuration":781046,"Delta":171782797},{"NoteNumber":62,"Velocity":42,"Duration":260348,"SoundDuration":260348,"Delta":171782797},{"NoteNumber":72,"Velocity":45,"Duration":65087,"SoundDuration":65087,"Delta":171847884},{"NoteNumber":70,"Velocity":51,"Duration":130174,"SoundDuration":130174,"Delta":171912971},{"NoteNumber":69,"Velocity":41,"Duration":260348,"SoundDuration":260348,"Delta":172043146},{"NoteNumber":60,"Velocity":36,"Duration":260348,"SoundDuration":260348,"Delta":172043146},{"NoteNumber":70,"Velocity":39,"Duration":260348,"SoundDuration":260348,"Delta":172303495},{"NoteNumber":62,"Velocity":35,"Duration":260348,"SoundDuration":260348,"Delta":172303495},{"NoteNumber":72,"Velocity":49,"Duration":62640,"SoundDuration":62640,"Delta":172563843},{"NoteNumber":75,"Velocity":51,"Duration":751691,"SoundDuration":751691,"Delta":172563843},{"NoteNumber":63,"Velocity":40,"Duration":250563,"SoundDuration":250563,"Delta":172563843},{"NoteNumber":55,"Velocity":45,"Duration":751691,"SoundDuration":751691,"Delta":172563843},{"NoteNumber":74,"Velocity":45,"Duration":62640,"SoundDuration":62640,"Delta":172626484},{"NoteNumber":72,"Velocity":51,"Duration":125281,"SoundDuration":125281,"Delta":172689125},{"NoteNumber":71,"Velocity":42,"Duration":250563,"SoundDuration":250563,"Delta":172814407},{"NoteNumber":62,"Velocity":37,"Duration":250563,"SoundDuration":250563,"Delta":172814407},{"NoteNumber":70,"Velocity":42,"Duration":250563,"SoundDuration":250563,"Delta":173064971},{"NoteNumber":63,"Velocity":37,"Duration":250563,"SoundDuration":250563,"Delta":173064971},{"NoteNumber":74,"Velocity":50,"Duration":824556,"SoundDuration":824556,"Delta":173315535},{"NoteNumber":68,"Velocity":49,"Duration":65087,"SoundDuration":65087,"Delta":173315535},{"NoteNumber":55,"Velocity":45,"Duration":824556,"SoundDuration":824556,"Delta":173315535},{"NoteNumber":65,"Velocity":42,"Duration":260348,"SoundDuration":260348,"Delta":173315535},{"NoteNumber":70,"Velocity":45,"Duration":65087,"SoundDuration":65087,"Delta":173380622},{"NoteNumber":68,"Velocity":51,"Duration":130174,"SoundDuration":130174,"Delta":173445709},{"NoteNumber":67,"Velocity":42,"Duration":260348,"SoundDuration":260348,"Delta":173575884},{"NoteNumber":62,"Velocity":37,"Duration":260348,"SoundDuration":260348,"Delta":173575884},{"NoteNumber":65,"Velocity":45,"Duration":303859,"SoundDuration":303859,"Delta":173836233},{"NoteNumber":59,"Velocity":40,"Duration":303859,"SoundDuration":303859,"Delta":173836233},{"NoteNumber":63,"Velocity":49,"Duration":75964,"SoundDuration":75964,"Delta":174140092},{"NoteNumber":72,"Velocity":47,"Duration":4280829,"SoundDuration":4280829,"Delta":174140092},{"NoteNumber":60,"Velocity":45,"Duration":303858,"SoundDuration":303858,"Delta":174140092},{"NoteNumber":48,"Velocity":42,"Duration":4280829,"SoundDuration":4280829,"Delta":174140092},{"NoteNumber":65,"Velocity":45,"Duration":75964,"SoundDuration":75964,"Delta":174216056},{"NoteNumber":63,"Velocity":51,"Duration":151929,"SoundDuration":151929,"Delta":174292021},{"NoteNumber":62,"Velocity":42,"Duration":303859,"SoundDuration":303859,"Delta":174443951},{"NoteNumber":55,"Velocity":37,"Duration":303859,"SoundDuration":303859,"Delta":174443951},{"NoteNumber":60,"Velocity":42,"Duration":3673111,"SoundDuration":3673111,"Delta":174747810},{"NoteNumber":51,"Velocity":37,"Duration":3673111,"SoundDuration":3673111,"Delta":174747810},{"NoteNumber":79,"Velocity":81,"Duration":501127,"SoundDuration":501127,"Delta":178420921},{"NoteNumber":31,"Velocity":56,"Duration":783533,"SoundDuration":783533,"Delta":178420921},{"NoteNumber":43,"Velocity":56,"Duration":783533,"SoundDuration":783533,"Delta":178420921},{"NoteNumber":65,"Velocity":60,"Duration":250563,"SoundDuration":250563,"Delta":178671485},{"NoteNumber":71,"Velocity":60,"Duration":250563,"SoundDuration":250563,"Delta":178671485},{"NoteNumber":77,"Velocity":63,"Duration":282406,"SoundDuration":282406,"Delta":178922049},{"NoteNumber":76,"Velocity":75,"Duration":751691,"SoundDuration":751691,"Delta":179204455},{"NoteNumber":36,"Velocity":62,"Duration":751691,"SoundDuration":751691,"Delta":179204455},{"NoteNumber":48,"Velocity":62,"Duration":751691,"SoundDuration":751691,"Delta":179204455},{"NoteNumber":67,"Velocity":50,"Duration":250563,"SoundDuration":250563,"Delta":179455019},{"NoteNumber":72,"Velocity":50,"Duration":250563,"SoundDuration":250563,"Delta":179455019},{"NoteNumber":64,"Velocity":50,"Duration":250563,"SoundDuration":250563,"Delta":179705582},{"NoteNumber":74,"Velocity":71,"Duration":751691,"SoundDuration":751691,"Delta":179956146},{"NoteNumber":38,"Velocity":53,"Duration":751691,"SoundDuration":751691,"Delta":179956146},{"NoteNumber":50,"Velocity":53,"Duration":751691,"SoundDuration":751691,"Delta":179956146},{"NoteNumber":67,"Velocity":50,"Duration":250563,"SoundDuration":250563,"Delta":180206710},{"NoteNumber":71,"Velocity":50,"Duration":250563,"SoundDuration":250563,"Delta":180206710},{"NoteNumber":65,"Velocity":50,"Duration":250563,"SoundDuration":250563,"Delta":180457274},{"NoteNumber":72,"Velocity":77,"Duration":751691,"SoundDuration":751691,"Delta":180707838},{"NoteNumber":40,"Velocity":60,"Duration":751691,"SoundDuration":751691,"Delta":180707838},{"NoteNumber":52,"Velocity":60,"Duration":751691,"SoundDuration":751691,"Delta":180707838},{"NoteNumber":67,"Velocity":50,"Duration":250563,"SoundDuration":250563,"Delta":180958402},{"NoteNumber":60,"Velocity":50,"Duration":250563,"SoundDuration":250563,"Delta":181208965},{"NoteNumber":69,"Velocity":72,"Duration":781046,"SoundDuration":781046,"Delta":181459529},{"NoteNumber":36,"Velocity":52,"Duration":781046,"SoundDuration":781046,"Delta":181459529},{"NoteNumber":48,"Velocity":52,"Duration":781046,"SoundDuration":781046,"Delta":181459529},{"NoteNumber":64,"Velocity":50,"Duration":260348,"SoundDuration":260348,"Delta":181719878},{"NoteNumber":60,"Velocity":50,"Duration":260348,"SoundDuration":260348,"Delta":181980227},{"NoteNumber":67,"Velocity":76,"Duration":514006,"SoundDuration":514006,"Delta":182240576},{"NoteNumber":35,"Velocity":62,"Duration":771009,"SoundDuration":771009,"Delta":182240576},{"NoteNumber":47,"Velocity":62,"Duration":804876,"SoundDuration":804876,"Delta":182240576},{"NoteNumber":55,"Velocity":50,"Duration":257003,"SoundDuration":257003,"Delta":182497579},{"NoteNumber":62,"Velocity":50,"Duration":257003,"SoundDuration":257003,"Delta":182497579},{"NoteNumber":65,"Velocity":64,"Duration":257003,"SoundDuration":257003,"Delta":182754582},{"NoteNumber":64,"Velocity":68,"Duration":812788,"SoundDuration":812788,"Delta":183011586},{"NoteNumber":36,"Velocity":43,"Duration":812788,"SoundDuration":812788,"Delta":183011586},{"NoteNumber":48,"Velocity":43,"Duration":847119,"SoundDuration":847119,"Delta":183011586},{"NoteNumber":60,"Velocity":50,"Duration":270929,"SoundDuration":270929,"Delta":183282515},{"NoteNumber":55,"Velocity":50,"Duration":270929,"SoundDuration":270929,"Delta":183553444},{"NoteNumber":62,"Velocity":59,"Duration":1376461,"SoundDuration":1376461,"Delta":183824374},{"NoteNumber":31,"Velocity":53,"Duration":1689744,"SoundDuration":1689744,"Delta":183824374},{"NoteNumber":43,"Velocity":53,"Duration":1654935,"SoundDuration":1654935,"Delta":183824374},{"NoteNumber":59,"Velocity":50,"Duration":284774,"SoundDuration":284774,"Delta":184099024},{"NoteNumber":55,"Velocity":50,"Duration":294898,"SoundDuration":294898,"Delta":184383798},{"NoteNumber":59,"Velocity":50,"Duration":278473,"SoundDuration":278473,"Delta":184678696},{"NoteNumber":55,"Velocity":50,"Duration":278474,"SoundDuration":278474,"Delta":184957170},{"NoteNumber":62,"Velocity":54,"Duration":278473,"SoundDuration":278473,"Delta":185235644},{"NoteNumber":64,"Velocity":65,"Duration":803103,"SoundDuration":803103,"Delta":185514118},{"NoteNumber":36,"Velocity":45,"Duration":1584150,"SoundDuration":1584150,"Delta":185514118},{"NoteNumber":48,"Velocity":53,"Duration":1584150,"SoundDuration":1584150,"Delta":185514118},{"NoteNumber":60,"Velocity":50,"Duration":260348,"SoundDuration":260348,"Delta":185774467},{"NoteNumber":55,"Velocity":50,"Duration":282406,"SoundDuration":282406,"Delta":186034816},{"NoteNumber":67,"Velocity":70,"Duration":781046,"SoundDuration":781046,"Delta":186317222},{"NoteNumber":64,"Velocity":50,"Duration":260348,"SoundDuration":260348,"Delta":186577571},{"NoteNumber":60,"Velocity":50,"Duration":260348,"SoundDuration":260348,"Delta":186837920},{"NoteNumber":65,"Velocity":75,"Duration":527565,"SoundDuration":527565,"Delta":187098268},{"NoteNumber":43,"Velocity":49,"Duration":1582695,"SoundDuration":1582695,"Delta":187098268},{"NoteNumber":55,"Velocity":58,"Duration":1582695,"SoundDuration":1582695,"Delta":187098268},{"NoteNumber":59,"Velocity":50,"Duration":263782,"SoundDuration":263782,"Delta":187362051},{"NoteNumber":60,"Velocity":50,"Duration":263782,"SoundDuration":263782,"Delta":187625834},{"NoteNumber":64,"Velocity":65,"Duration":263782,"SoundDuration":263782,"Delta":187625834},{"NoteNumber":62,"Velocity":71,"Duration":791347,"SoundDuration":791347,"Delta":187889616},{"NoteNumber":59,"Velocity":50,"Duration":263782,"SoundDuration":263782,"Delta":188153399},{"NoteNumber":55,"Velocity":50,"Duration":263782,"SoundDuration":263782,"Delta":188417182},{"NoteNumber":60,"Velocity":69,"Duration":859352,"SoundDuration":859352,"Delta":188680964},{"NoteNumber":40,"Velocity":45,"Duration":859352,"SoundDuration":859352,"Delta":188680964},{"NoteNumber":52,"Velocity":53,"Duration":859352,"SoundDuration":859352,"Delta":188680964},{"NoteNumber":55,"Velocity":50,"Duration":286450,"SoundDuration":286450,"Delta":188967415},{"NoteNumber":52,"Velocity":50,"Duration":286450,"SoundDuration":286450,"Delta":189253866},{"NoteNumber":62,"Velocity":74,"Duration":961739,"SoundDuration":961739,"Delta":189540317},{"NoteNumber":38,"Velocity":47,"Duration":961739,"SoundDuration":961739,"Delta":189540317},{"NoteNumber":50,"Velocity":56,"Duration":961739,"SoundDuration":961739,"Delta":189540317},{"NoteNumber":55,"Velocity":50,"Duration":294898,"SoundDuration":294898,"Delta":189848864},{"NoteNumber":59,"Velocity":50,"Duration":294898,"SoundDuration":294898,"Delta":189848864},{"NoteNumber":53,"Velocity":50,"Duration":358294,"SoundDuration":358294,"Delta":190143762},{"NoteNumber":64,"Velocity":76,"Duration":1545420,"SoundDuration":1545420,"Delta":190502056},{"NoteNumber":48,"Velocity":60,"Duration":1545420,"SoundDuration":1545420,"Delta":190502056},{"NoteNumber":36,"Velocity":51,"Duration":1545420,"SoundDuration":1545420,"Delta":190502056},{"NoteNumber":55,"Velocity":50,"Duration":436490,"SoundDuration":436490,"Delta":190836393},{"NoteNumber":60,"Velocity":50,"Duration":436490,"SoundDuration":436490,"Delta":190836393},{"NoteNumber":52,"Velocity":50,"Duration":774593,"SoundDuration":774593,"Delta":191272883},{"NoteNumber":79,"Velocity":81,"Duration":501127,"SoundDuration":501127,"Delta":192047477},{"NoteNumber":31,"Velocity":56,"Duration":783533,"SoundDuration":783533,"Delta":192047477},{"NoteNumber":43,"Velocity":56,"Duration":783533,"SoundDuration":783533,"Delta":192047477},{"NoteNumber":65,"Velocity":50,"Duration":250563,"SoundDuration":250563,"Delta":192298041},{"NoteNumber":71,"Velocity":60,"Duration":250563,"SoundDuration":250563,"Delta":192298041},{"NoteNumber":77,"Velocity":63,"Duration":282406,"SoundDuration":282406,"Delta":192548604},{"NoteNumber":76,"Velocity":75,"Duration":751691,"SoundDuration":751691,"Delta":192831011},{"NoteNumber":36,"Velocity":62,"Duration":751691,"SoundDuration":751691,"Delta":192831011},{"NoteNumber":48,"Velocity":62,"Duration":751691,"SoundDuration":751691,"Delta":192831011},{"NoteNumber":67,"Velocity":50,"Duration":250563,"SoundDuration":250563,"Delta":193081574},{"NoteNumber":72,"Velocity":50,"Duration":250563,"SoundDuration":250563,"Delta":193081574},{"NoteNumber":64,"Velocity":50,"Duration":250563,"SoundDuration":250563,"Delta":193332138},{"NoteNumber":74,"Velocity":71,"Duration":751691,"SoundDuration":751691,"Delta":193582702},{"NoteNumber":38,"Velocity":53,"Duration":751691,"SoundDuration":751691,"Delta":193582702},{"NoteNumber":50,"Velocity":53,"Duration":751691,"SoundDuration":751691,"Delta":193582702},{"NoteNumber":67,"Velocity":50,"Duration":250563,"SoundDuration":250563,"Delta":193833266},{"NoteNumber":71,"Velocity":50,"Duration":250563,"SoundDuration":250563,"Delta":193833266},{"NoteNumber":65,"Velocity":50,"Duration":250563,"SoundDuration":250563,"Delta":194083830},{"NoteNumber":72,"Velocity":77,"Duration":751691,"SoundDuration":751691,"Delta":194334394},{"NoteNumber":40,"Velocity":60,"Duration":751691,"SoundDuration":751691,"Delta":194334394},{"NoteNumber":52,"Velocity":60,"Duration":751691,"SoundDuration":751691,"Delta":194334394},{"NoteNumber":67,"Velocity":50,"Duration":250563,"SoundDuration":250563,"Delta":194584957},{"NoteNumber":60,"Velocity":50,"Duration":250563,"SoundDuration":250563,"Delta":194835521},{"NoteNumber":69,"Velocity":72,"Duration":781046,"SoundDuration":781046,"Delta":195086085},{"NoteNumber":36,"Velocity":52,"Duration":781046,"SoundDuration":781046,"Delta":195086085},{"NoteNumber":48,"Velocity":52,"Duration":781046,"SoundDuration":781046,"Delta":195086085},{"NoteNumber":64,"Velocity":50,"Duration":260348,"SoundDuration":260348,"Delta":195346434},{"NoteNumber":60,"Velocity":50,"Duration":260348,"SoundDuration":260348,"Delta":195606783},{"NoteNumber":67,"Velocity":76,"Duration":514006,"SoundDuration":514006,"Delta":195867132},{"NoteNumber":35,"Velocity":62,"Duration":771009,"SoundDuration":771009,"Delta":195867132},{"NoteNumber":47,"Velocity":62,"Duration":803982,"SoundDuration":803982,"Delta":195867132},{"NoteNumber":55,"Velocity":50,"Duration":257003,"SoundDuration":257003,"Delta":196124135},{"NoteNumber":62,"Velocity":50,"Duration":257003,"SoundDuration":257003,"Delta":196124135},{"NoteNumber":65,"Velocity":64,"Duration":257003,"SoundDuration":257003,"Delta":196381138},{"NoteNumber":64,"Velocity":68,"Duration":791347,"SoundDuration":791347,"Delta":196638142},{"NoteNumber":36,"Velocity":43,"Duration":791347,"SoundDuration":791347,"Delta":196638142},{"NoteNumber":48,"Velocity":43,"Duration":823065,"SoundDuration":823065,"Delta":196638142},{"NoteNumber":60,"Velocity":50,"Duration":263782,"SoundDuration":263782,"Delta":196901924},{"NoteNumber":55,"Velocity":50,"Duration":263782,"SoundDuration":263782,"Delta":197165707},{"NoteNumber":62,"Velocity":59,"Duration":1620525,"SoundDuration":1620525,"Delta":197429490},{"NoteNumber":31,"Velocity":53,"Duration":1620525,"SoundDuration":1620525,"Delta":197429490},{"NoteNumber":43,"Velocity":53,"Duration":1586658,"SoundDuration":1586658,"Delta":197429490},{"NoteNumber":59,"Velocity":42,"Duration":286686,"SoundDuration":286686,"Delta":197683232},{"NoteNumber":55,"Velocity":43,"Duration":267308,"SoundDuration":267308,"Delta":197969918},{"NoteNumber":59,"Velocity":50,"Duration":270929,"SoundDuration":270929,"Delta":198237227},{"NoteNumber":55,"Velocity":50,"Duration":270929,"SoundDuration":270929,"Delta":198508156},{"NoteNumber":59,"Velocity":39,"Duration":270929,"SoundDuration":270929,"Delta":198779085},{"NoteNumber":60,"Velocity":55,"Duration":1580218,"SoundDuration":1580218,"Delta":199050015},{"NoteNumber":32,"Velocity":35,"Duration":1580218,"SoundDuration":1580218,"Delta":199050015},{"NoteNumber":44,"Velocity":42,"Duration":1580218,"SoundDuration":1580218,"Delta":199050015},{"NoteNumber":56,"Velocity":34,"Duration":260348,"SoundDuration":260348,"Delta":199310363},{"NoteNumber":51,"Velocity":34,"Duration":260348,"SoundDuration":260348,"Delta":199570712},{"NoteNumber":56,"Velocity":39,"Duration":260348,"SoundDuration":260348,"Delta":199831061},{"NoteNumber":51,"Velocity":33,"Duration":260348,"SoundDuration":260348,"Delta":200091410},{"NoteNumber":56,"Velocity":33,"Duration":278474,"SoundDuration":278474,"Delta":200351759},{"NoteNumber":65,"Velocity":55,"Duration":1580218,"SoundDuration":1580218,"Delta":200630233},{"NoteNumber":37,"Velocity":35,"Duration":1580218,"SoundDuration":1580218,"Delta":200630233},{"NoteNumber":49,"Velocity":42,"Duration":1580218,"SoundDuration":1580218,"Delta":200630233},{"NoteNumber":58,"Velocity":34,"Duration":260348,"SoundDuration":260348,"Delta":200890582},{"NoteNumber":56,"Velocity":34,"Duration":260348,"SoundDuration":260348,"Delta":201150930},{"NoteNumber":58,"Velocity":39,"Duration":260348,"SoundDuration":260348,"Delta":201411279},{"NoteNumber":56,"Velocity":33,"Duration":260348,"SoundDuration":260348,"Delta":201671628},{"NoteNumber":58,"Velocity":33,"Duration":278474,"SoundDuration":278474,"Delta":201931977},{"NoteNumber":63,"Velocity":52,"Duration":771009,"SoundDuration":771009,"Delta":202210451},{"NoteNumber":36,"Velocity":44,"Duration":771009,"SoundDuration":771009,"Delta":202210451},{"NoteNumber":48,"Velocity":44,"Duration":803982,"SoundDuration":803982,"Delta":202210451},{"NoteNumber":56,"Velocity":42,"Duration":257003,"SoundDuration":257003,"Delta":202467454},{"NoteNumber":51,"Velocity":39,"Duration":257003,"SoundDuration":257003,"Delta":202724458},{"NoteNumber":61,"Velocity":49,"Duration":791347,"SoundDuration":791347,"Delta":202981461},{"NoteNumber":34,"Velocity":29,"Duration":791347,"SoundDuration":791347,"Delta":202981461},{"NoteNumber":46,"Velocity":29,"Duration":828761,"SoundDuration":828761,"Delta":202981461},{"NoteNumber":55,"Velocity":38,"Duration":263782,"SoundDuration":263782,"Delta":203245244},{"NoteNumber":51,"Velocity":38,"Duration":263782,"SoundDuration":263782,"Delta":203509026},{"NoteNumber":60,"Velocity":46,"Duration":2028204,"SoundDuration":2028204,"Delta":203772809},{"NoteNumber":32,"Velocity":42,"Duration":2028204,"SoundDuration":2028204,"Delta":203772809},{"NoteNumber":44,"Velocity":42,"Duration":1979960,"SoundDuration":1979960,"Delta":203772809},{"NoteNumber":55,"Velocity":38,"Duration":628150,"SoundDuration":628150,"Delta":204072121},{"NoteNumber":51,"Velocity":29,"Duration":328839,"SoundDuration":328839,"Delta":204371432},{"NoteNumber":54,"Velocity":40,"Duration":714790,"SoundDuration":714790,"Delta":204700271},{"NoteNumber":51,"Velocity":29,"Duration":385951,"SoundDuration":385951,"Delta":205029111},{"NoteNumber":54,"Velocity":45,"Duration":385951,"SoundDuration":385951,"Delta":205415062},{"NoteNumber":60,"Velocity":46,"Duration":742390,"SoundDuration":742390,"Delta":205801013},{"NoteNumber":31,"Velocity":42,"Duration":1511967,"SoundDuration":1511967,"Delta":205801013},{"NoteNumber":43,"Velocity":42,"Duration":1511967,"SoundDuration":1511967,"Delta":205801013},{"NoteNumber":55,"Velocity":38,"Duration":247463,"SoundDuration":247463,"Delta":206048477},{"NoteNumber":52,"Velocity":38,"Duration":247463,"SoundDuration":247463,"Delta":206295940},{"NoteNumber":59,"Velocity":46,"Duration":494926,"SoundDuration":494926,"Delta":206543404},{"NoteNumber":53,"Velocity":40,"Duration":247463,"SoundDuration":247463,"Delta":206790867},{"NoteNumber":60,"Velocity":46,"Duration":274649,"SoundDuration":274649,"Delta":207038331},{"NoteNumber":52,"Velocity":46,"Duration":274649,"SoundDuration":274649,"Delta":207038331},{"NoteNumber":62,"Velocity":51,"Duration":1533738,"SoundDuration":1533738,"Delta":207312981},{"NoteNumber":43,"Velocity":42,"Duration":1533738,"SoundDuration":1533738,"Delta":207312981},{"NoteNumber":59,"Velocity":40,"Duration":247463,"SoundDuration":247463,"Delta":207560444},{"NoteNumber":50,"Velocity":42,"Duration":371195,"SoundDuration":371195,"Delta":207684176},{"NoteNumber":57,"Velocity":40,"Duration":247463,"SoundDuration":247463,"Delta":207807908},{"NoteNumber":59,"Velocity":40,"Duration":791347,"SoundDuration":791347,"Delta":208055371},{"NoteNumber":55,"Velocity":51,"Duration":395674,"SoundDuration":395674,"Delta":208055371},{"NoteNumber":53,"Velocity":48,"Duration":395673,"SoundDuration":395673,"Delta":208451045},{"NoteNumber":72,"Velocity":56,"Duration":733316,"SoundDuration":733316,"Delta":208846719},{"NoteNumber":52,"Velocity":55,"Duration":733316,"SoundDuration":733316,"Delta":208846719},{"NoteNumber":43,"Velocity":55,"Duration":2945769,"SoundDuration":2945769,"Delta":208846719},{"NoteNumber":67,"Velocity":43,"Duration":244438,"SoundDuration":244438,"Delta":209091158},{"NoteNumber":60,"Velocity":44,"Duration":244438,"SoundDuration":244438,"Delta":209335597},{"NoteNumber":71,"Velocity":54,"Duration":488877,"SoundDuration":488877,"Delta":209580036},{"NoteNumber":53,"Velocity":55,"Duration":366658,"SoundDuration":366658,"Delta":209580036},{"NoteNumber":62,"Velocity":30,"Duration":244438,"SoundDuration":244438,"Delta":209824475},{"NoteNumber":67,"Velocity":41,"Duration":244438,"SoundDuration":244438,"Delta":209824475},{"NoteNumber":52,"Velocity":49,"Duration":396869,"SoundDuration":396869,"Delta":209946695},{"NoteNumber":72,"Velocity":50,"Duration":274649,"SoundDuration":274649,"Delta":210068914},{"NoteNumber":60,"Velocity":50,"Duration":274649,"SoundDuration":274649,"Delta":210068914},{"NoteNumber":74,"Velocity":58,"Duration":1448925,"SoundDuration":1448925,"Delta":210343564},{"NoteNumber":50,"Velocity":54,"Duration":724462,"SoundDuration":724462,"Delta":210343564},{"NoteNumber":71,"Velocity":44,"Duration":241487,"SoundDuration":241487,"Delta":210585051},{"NoteNumber":67,"Velocity":44,"Duration":241487,"SoundDuration":241487,"Delta":210826539},{"NoteNumber":71,"Velocity":56,"Duration":241487,"SoundDuration":241487,"Delta":211068026},{"NoteNumber":55,"Velocity":50,"Duration":724462,"SoundDuration":724462,"Delta":211068026},{"NoteNumber":67,"Velocity":49,"Duration":241487,"SoundDuration":241487,"Delta":211309514},{"NoteNumber":71,"Velocity":54,"Duration":241487,"SoundDuration":241487,"Delta":211551001},{"NoteNumber":76,"Velocity":66,"Duration":1460340,"SoundDuration":1460340,"Delta":211792489},{"NoteNumber":48,"Velocity":45,"Duration":1460340,"SoundDuration":1460340,"Delta":211792489},{"NoteNumber":60,"Velocity":54,"Duration":715819,"SoundDuration":715819,"Delta":211792489},{"NoteNumber":72,"Velocity":54,"Duration":238606,"SoundDuration":238606,"Delta":212031095},{"NoteNumber":67,"Velocity":50,"Duration":238606,"SoundDuration":238606,"Delta":212269702},{"NoteNumber":72,"Velocity":56,"Duration":238606,"SoundDuration":238606,"Delta":212508308},{"NoteNumber":58,"Velocity":57,"Duration":744521,"SoundDuration":744521,"Delta":212508308},{"NoteNumber":67,"Velocity":58,"Duration":238606,"SoundDuration":238606,"Delta":212746915},{"NoteNumber":72,"Velocity":62,"Duration":267308,"SoundDuration":267308,"Delta":212985521},{"NoteNumber":81,"Velocity":73,"Duration":724462,"SoundDuration":724462,"Delta":213252830},{"NoteNumber":53,"Velocity":52,"Duration":1461180,"SoundDuration":1461180,"Delta":213252830},{"NoteNumber":57,"Velocity":62,"Duration":724462,"SoundDuration":724462,"Delta":213252830},{"NoteNumber":76,"Velocity":52,"Duration":241487,"SoundDuration":241487,"Delta":213494317},{"NoteNumber":72,"Velocity":52,"Duration":241487,"SoundDuration":241487,"Delta":213735805},{"NoteNumber":81,"Velocity":72,"Duration":736717,"SoundDuration":736717,"Delta":213977292},{"NoteNumber":59,"Velocity":55,"Duration":736717,"SoundDuration":736717,"Delta":213977292},{"NoteNumber":74,"Velocity":53,"Duration":241487,"SoundDuration":241487,"Delta":214218780},{"NoteNumber":69,"Velocity":54,"Duration":253742,"SoundDuration":253742,"Delta":214460267},{"NoteNumber":79,"Velocity":72,"Duration":724462,"SoundDuration":724462,"Delta":214714010},{"NoteNumber":52,"Velocity":45,"Duration":724462,"SoundDuration":724462,"Delta":214714010},{"NoteNumber":60,"Velocity":54,"Duration":724462,"SoundDuration":724462,"Delta":214714010},{"NoteNumber":76,"Velocity":52,"Duration":241487,"SoundDuration":241487,"Delta":214955497},{"NoteNumber":72,"Velocity":52,"Duration":241487,"SoundDuration":241487,"Delta":214955497},{"NoteNumber":67,"Velocity":52,"Duration":241487,"SoundDuration":241487,"Delta":215196985},{"NoteNumber":77,"Velocity":70,"Duration":725679,"SoundDuration":725679,"Delta":215438472},{"NoteNumber":50,"Velocity":38,"Duration":725679,"SoundDuration":725679,"Delta":215438472},{"NoteNumber":59,"Velocity":45,"Duration":725679,"SoundDuration":725679,"Delta":215438472},{"NoteNumber":71,"Velocity":52,"Duration":241487,"SoundDuration":241487,"Delta":215679960},{"NoteNumber":67,"Velocity":52,"Duration":242704,"SoundDuration":242704,"Delta":215921447},{"NoteNumber":76,"Velocity":67,"Duration":1517319,"SoundDuration":1517319,"Delta":216164152},{"NoteNumber":48,"Velocity":36,"Duration":1517319,"SoundDuration":1517319,"Delta":216164152},{"NoteNumber":60,"Velocity":44,"Duration":1517319,"SoundDuration":1517319,"Delta":216164152},{"NoteNumber":72,"Velocity":54,"Duration":248238,"SoundDuration":248238,"Delta":216409234},{"NoteNumber":66,"Velocity":52,"Duration":251517,"SoundDuration":251517,"Delta":216657472},{"NoteNumber":67,"Velocity":49,"Duration":254068,"SoundDuration":254068,"Delta":216908990},{"NoteNumber":64,"Velocity":46,"Duration":257463,"SoundDuration":257463,"Delta":217163059},{"NoteNumber":60,"Velocity":44,"Duration":260949,"SoundDuration":260949,"Delta":217420522},{"NoteNumber":41,"Velocity":36,"Duration":1531514,"SoundDuration":1531514,"Delta":217681472},{"NoteNumber":48,"Velocity":36,"Duration":1531514,"SoundDuration":1531514,"Delta":217681472},{"NoteNumber":53,"Velocity":43,"Duration":1531514,"SoundDuration":1531514,"Delta":217681472},{"NoteNumber":57,"Velocity":37,"Duration":183329,"SoundDuration":183329,"Delta":217967923},{"NoteNumber":60,"Velocity":37,"Duration":183329,"SoundDuration":183329,"Delta":217967923},{"NoteNumber":62,"Velocity":44,"Duration":183329,"SoundDuration":183329,"Delta":217967923},{"NoteNumber":57,"Velocity":36,"Duration":183329,"SoundDuration":183329,"Delta":218212362},{"NoteNumber":60,"Velocity":36,"Duration":183329,"SoundDuration":183329,"Delta":218212362},{"NoteNumber":62,"Velocity":43,"Duration":183329,"SoundDuration":183329,"Delta":218212362},{"NoteNumber":57,"Velocity":43,"Duration":183329,"SoundDuration":183329,"Delta":218456801},{"NoteNumber":60,"Velocity":43,"Duration":183329,"SoundDuration":183329,"Delta":218456801},{"NoteNumber":65,"Velocity":51,"Duration":183329,"SoundDuration":183329,"Delta":218456801},{"NoteNumber":57,"Velocity":37,"Duration":183329,"SoundDuration":183329,"Delta":218701240},{"NoteNumber":60,"Velocity":44,"Duration":183329,"SoundDuration":183329,"Delta":218701240},{"NoteNumber":61,"Velocity":37,"Duration":183329,"SoundDuration":183329,"Delta":218701240},{"NoteNumber":57,"Velocity":36,"Duration":200481,"SoundDuration":200481,"Delta":218945679},{"NoteNumber":60,"Velocity":36,"Duration":200481,"SoundDuration":200481,"Delta":218945679},{"NoteNumber":62,"Velocity":44,"Duration":200481,"SoundDuration":200481,"Delta":218945679},{"NoteNumber":42,"Velocity":43,"Duration":1478366,"SoundDuration":1478366,"Delta":219212987},{"NoteNumber":50,"Velocity":43,"Duration":1478366,"SoundDuration":1478366,"Delta":219212987},{"NoteNumber":54,"Velocity":51,"Duration":1478366,"SoundDuration":1478366,"Delta":219212987},{"NoteNumber":60,"Velocity":43,"Duration":181115,"SoundDuration":181115,"Delta":219454474},{"NoteNumber":62,"Velocity":43,"Duration":181115,"SoundDuration":181115,"Delta":219454474},{"NoteNumber":69,"Velocity":52,"Duration":181115,"SoundDuration":181115,"Delta":219454474},{"NoteNumber":60,"Velocity":44,"Duration":181115,"SoundDuration":181115,"Delta":219695962},{"NoteNumber":62,"Velocity":44,"Duration":181115,"SoundDuration":181115,"Delta":219695962},{"NoteNumber":69,"Velocity":52,"Duration":181115,"SoundDuration":181115,"Delta":219695962},{"NoteNumber":60,"Velocity":51,"Duration":181115,"SoundDuration":181115,"Delta":219937449},{"NoteNumber":62,"Velocity":51,"Duration":181115,"SoundDuration":181115,"Delta":219937449},{"NoteNumber":69,"Velocity":61,"Duration":181115,"SoundDuration":181115,"Delta":219937449},{"NoteNumber":60,"Velocity":46,"Duration":181115,"SoundDuration":181115,"Delta":220178937},{"NoteNumber":62,"Velocity":46,"Duration":181115,"SoundDuration":181115,"Delta":220178937},{"NoteNumber":68,"Velocity":55,"Duration":181115,"SoundDuration":181115,"Delta":220178937},{"NoteNumber":60,"Velocity":47,"Duration":203196,"SoundDuration":203196,"Delta":220420424},{"NoteNumber":62,"Velocity":47,"Duration":203196,"SoundDuration":203196,"Delta":220420424},{"NoteNumber":69,"Velocity":56,"Duration":203196,"SoundDuration":203196,"Delta":220420424},{"NoteNumber":45,"Velocity":50,"Duration":1500669,"SoundDuration":1500669,"Delta":220691354},{"NoteNumber":50,"Velocity":50,"Duration":1500669,"SoundDuration":1500669,"Delta":220691354},{"NoteNumber":57,"Velocity":59,"Duration":1500669,"SoundDuration":1500669,"Delta":220691354},{"NoteNumber":62,"Velocity":51,"Duration":183329,"SoundDuration":183329,"Delta":220935793},{"NoteNumber":66,"Velocity":51,"Duration":183329,"SoundDuration":183329,"Delta":220935793},{"NoteNumber":72,"Velocity":60,"Duration":183329,"SoundDuration":183329,"Delta":220935793},{"NoteNumber":62,"Velocity":51,"Duration":183329,"SoundDuration":183329,"Delta":221180232},{"NoteNumber":66,"Velocity":51,"Duration":183329,"SoundDuration":183329,"Delta":221180232},{"NoteNumber":72,"Velocity":60,"Duration":183329,"SoundDuration":183329,"Delta":221180232},{"NoteNumber":62,"Velocity":59,"Duration":183329,"SoundDuration":183329,"Delta":221424671},{"NoteNumber":66,"Velocity":59,"Duration":183329,"SoundDuration":183329,"Delta":221424671},{"NoteNumber":72,"Velocity":70,"Duration":183329,"SoundDuration":183329,"Delta":221424671},{"NoteNumber":62,"Velocity":52,"Duration":183329,"SoundDuration":183329,"Delta":221669110},{"NoteNumber":66,"Velocity":52,"Duration":183329,"SoundDuration":183329,"Delta":221669110},{"NoteNumber":71,"Velocity":62,"Duration":183329,"SoundDuration":183329,"Delta":221669110},{"NoteNumber":62,"Velocity":53,"Duration":208855,"SoundDuration":208855,"Delta":221913549},{"NoteNumber":66,"Velocity":53,"Duration":208855,"SoundDuration":208855,"Delta":221913549},{"NoteNumber":72,"Velocity":62,"Duration":208855,"SoundDuration":208855,"Delta":221913549},{"NoteNumber":44,"Velocity":66,"Duration":185597,"SoundDuration":185597,"Delta":222192023},{"NoteNumber":51,"Velocity":66,"Duration":185597,"SoundDuration":185597,"Delta":222192023},{"NoteNumber":56,"Velocity":78,"Duration":185597,"SoundDuration":185597,"Delta":222192023},{"NoteNumber":72,"Velocity":62,"Duration":188286,"SoundDuration":188286,"Delta":222439486},{"NoteNumber":75,"Velocity":62,"Duration":188286,"SoundDuration":188286,"Delta":222439486},{"NoteNumber":78,"Velocity":74,"Duration":188286,"SoundDuration":188286,"Delta":222439486},{"NoteNumber":60,"Velocity":52,"Duration":188286,"SoundDuration":188286,"Delta":222439486},{"NoteNumber":63,"Velocity":52,"Duration":188286,"SoundDuration":188286,"Delta":222439486},{"NoteNumber":66,"Velocity":62,"Duration":188286,"SoundDuration":188286,"Delta":222439486},{"NoteNumber":72,"Velocity":63,"Duration":191855,"SoundDuration":191855,"Delta":222691208},{"NoteNumber":75,"Velocity":63,"Duration":191855,"SoundDuration":191855,"Delta":222691208},{"NoteNumber":78,"Velocity":75,"Duration":191855,"SoundDuration":191855,"Delta":222691208},{"NoteNumber":60,"Velocity":53,"Duration":191855,"SoundDuration":191855,"Delta":222691208},{"NoteNumber":63,"Velocity":53,"Duration":191855,"SoundDuration":191855,"Delta":222691208},{"NoteNumber":66,"Velocity":63,"Duration":191855,"SoundDuration":191855,"Delta":222691208},{"NoteNumber":72,"Velocity":71,"Duration":196205,"SoundDuration":196205,"Delta":222948109},{"NoteNumber":75,"Velocity":71,"Duration":196205,"SoundDuration":196205,"Delta":222948109},{"NoteNumber":78,"Velocity":85,"Duration":196205,"SoundDuration":196205,"Delta":222948109},{"NoteNumber":60,"Velocity":64,"Duration":196205,"SoundDuration":196205,"Delta":222948109},{"NoteNumber":63,"Velocity":64,"Duration":196205,"SoundDuration":196205,"Delta":222948109},{"NoteNumber":66,"Velocity":76,"Duration":196205,"SoundDuration":196205,"Delta":222948109},{"NoteNumber":72,"Velocity":65,"Duration":200481,"SoundDuration":200481,"Delta":223210393},{"NoteNumber":75,"Velocity":65,"Duration":200481,"SoundDuration":200481,"Delta":223210393},{"NoteNumber":77,"Velocity":78,"Duration":200481,"SoundDuration":200481,"Delta":223210393},{"NoteNumber":60,"Velocity":56,"Duration":200481,"SoundDuration":200481,"Delta":223210393},{"NoteNumber":63,"Velocity":56,"Duration":200481,"SoundDuration":200481,"Delta":223210393},{"NoteNumber":65,"Velocity":66,"Duration":200481,"SoundDuration":200481,"Delta":223210393},{"NoteNumber":72,"Velocity":66,"Duration":219992,"SoundDuration":219992,"Delta":223477701},{"NoteNumber":75,"Velocity":66,"Duration":219992,"SoundDuration":219992,"Delta":223477701},{"NoteNumber":78,"Velocity":79,"Duration":219992,"SoundDuration":219992,"Delta":223477701},{"NoteNumber":60,"Velocity":57,"Duration":219992,"SoundDuration":219992,"Delta":223477701},{"NoteNumber":63,"Velocity":57,"Duration":219992,"SoundDuration":219992,"Delta":223477701},{"NoteNumber":66,"Velocity":67,"Duration":219992,"SoundDuration":219992,"Delta":223477701},{"NoteNumber":43,"Velocity":61,"Duration":131995,"SoundDuration":131995,"Delta":223697694},{"NoteNumber":52,"Velocity":61,"Duration":131995,"SoundDuration":131995,"Delta":223697694},{"NoteNumber":55,"Velocity":68,"Duration":131995,"SoundDuration":131995,"Delta":223697694},{"NoteNumber":72,"Velocity":77,"Duration":214984,"SoundDuration":214984,"Delta":223829690},{"NoteNumber":76,"Velocity":77,"Duration":214984,"SoundDuration":214984,"Delta":223829690},{"NoteNumber":79,"Velocity":91,"Duration":214984,"SoundDuration":214984,"Delta":223829690},{"NoteNumber":64,"Velocity":62,"Duration":214984,"SoundDuration":214984,"Delta":223829690},{"NoteNumber":67,"Velocity":73,"Duration":214984,"SoundDuration":214984,"Delta":223829690},{"NoteNumber":72,"Velocity":68,"Duration":217959,"SoundDuration":217959,"Delta":224117328},{"NoteNumber":76,"Velocity":80,"Duration":217959,"SoundDuration":217959,"Delta":224117328},{"NoteNumber":60,"Velocity":55,"Duration":217959,"SoundDuration":217959,"Delta":224117328},{"NoteNumber":67,"Velocity":65,"Duration":217959,"SoundDuration":217959,"Delta":224117328},{"NoteNumber":67,"Velocity":68,"Duration":217959,"SoundDuration":217959,"Delta":224407941},{"NoteNumber":72,"Velocity":80,"Duration":217959,"SoundDuration":217959,"Delta":224407941},{"NoteNumber":55,"Velocity":56,"Duration":217959,"SoundDuration":217959,"Delta":224407941},{"NoteNumber":64,"Velocity":66,"Duration":217959,"SoundDuration":217959,"Delta":224407941},{"NoteNumber":64,"Velocity":76,"Duration":217959,"SoundDuration":217959,"Delta":224698554},{"NoteNumber":67,"Velocity":90,"Duration":217959,"SoundDuration":217959,"Delta":224698554},{"NoteNumber":52,"Velocity":63,"Duration":217959,"SoundDuration":217959,"Delta":224698554},{"NoteNumber":60,"Velocity":75,"Duration":217959,"SoundDuration":217959,"Delta":224698554},{"NoteNumber":60,"Velocity":63,"Duration":217959,"SoundDuration":217959,"Delta":224989168},{"NoteNumber":64,"Velocity":75,"Duration":217959,"SoundDuration":217959,"Delta":224989168},{"NoteNumber":48,"Velocity":53,"Duration":217959,"SoundDuration":217959,"Delta":224989168},{"NoteNumber":55,"Velocity":62,"Duration":217959,"SoundDuration":217959,"Delta":224989168},{"NoteNumber":57,"Velocity":63,"Duration":217959,"SoundDuration":217959,"Delta":225279781},{"NoteNumber":60,"Velocity":75,"Duration":217959,"SoundDuration":217959,"Delta":225279781},{"NoteNumber":45,"Velocity":53,"Duration":217959,"SoundDuration":217959,"Delta":225279781},{"NoteNumber":52,"Velocity":62,"Duration":217959,"SoundDuration":217959,"Delta":225279781},{"NoteNumber":55,"Velocity":89,"Duration":1940091,"SoundDuration":1940091,"Delta":225569368},{"NoteNumber":43,"Velocity":63,"Duration":1144883,"SoundDuration":1144883,"Delta":225569368},{"NoteNumber":53,"Velocity":75,"Duration":213996,"SoundDuration":213996,"Delta":225569368},{"NoteNumber":50,"Velocity":66,"Duration":223635,"SoundDuration":223635,"Delta":225856018},{"NoteNumber":47,"Velocity":66,"Duration":233530,"SoundDuration":233530,"Delta":226155618},{"NoteNumber":43,"Velocity":69,"Duration":1040780,"SoundDuration":1040780,"Delta":226468679},{"NoteNumber":41,"Velocity":59,"Duration":257309,"SoundDuration":257309,"Delta":226798048},{"NoteNumber":38,"Velocity":59,"Duration":271771,"SoundDuration":271771,"Delta":227143907},{"NoteNumber":36,"Velocity":40,"Duration":879357,"SoundDuration":879357,"Delta":227509460},{"NoteNumber":36,"Velocity":36,"Duration":804857,"SoundDuration":804857,"Delta":228435100},{"NoteNumber":36,"Velocity":32,"Duration":804857,"SoundDuration":804857,"Delta":229282318},{"NoteNumber":48,"Velocity":37,"Duration":751780,"SoundDuration":751780,"Delta":230129537},{"NoteNumber":55,"Velocity":37,"Duration":751780,"SoundDuration":751780,"Delta":230129537},{"NoteNumber":48,"Velocity":42,"Duration":741994,"SoundDuration":741994,"Delta":230920885},{"NoteNumber":59,"Velocity":42,"Duration":741994,"SoundDuration":741994,"Delta":230920885},{"NoteNumber":48,"Velocity":36,"Duration":741994,"SoundDuration":741994,"Delta":231701931},{"NoteNumber":60,"Velocity":36,"Duration":741994,"SoundDuration":741994,"Delta":231701931},{"NoteNumber":48,"Velocity":36,"Duration":741994,"SoundDuration":741994,"Delta":232482978},{"NoteNumber":64,"Velocity":36,"Duration":741994,"SoundDuration":741994,"Delta":232482978},{"NoteNumber":67,"Velocity":31,"Duration":782752,"SoundDuration":782752,"Delta":233264024},{"NoteNumber":72,"Velocity":31,"Duration":782752,"SoundDuration":782752,"Delta":233264024},{"NoteNumber":76,"Velocity":37,"Duration":782752,"SoundDuration":782752,"Delta":233264024},{"NoteNumber":48,"Velocity":30,"Duration":782752,"SoundDuration":782752,"Delta":233264024},{"NoteNumber":59,"Velocity":30,"Duration":782752,"SoundDuration":782752,"Delta":233264024},{"NoteNumber":65,"Velocity":37,"Duration":751780,"SoundDuration":751780,"Delta":234087974},{"NoteNumber":72,"Velocity":37,"Duration":751780,"SoundDuration":751780,"Delta":234087974},{"NoteNumber":76,"Velocity":44,"Duration":751780,"SoundDuration":751780,"Delta":234087974},{"NoteNumber":48,"Velocity":42,"Duration":751780,"SoundDuration":751780,"Delta":234087974},{"NoteNumber":57,"Velocity":42,"Duration":1582695,"SoundDuration":1582695,"Delta":234087974},{"NoteNumber":72,"Velocity":37,"Duration":751780,"SoundDuration":751780,"Delta":234879322},{"NoteNumber":76,"Velocity":37,"Duration":751780,"SoundDuration":751780,"Delta":234879322},{"NoteNumber":77,"Velocity":44,"Duration":751780,"SoundDuration":751780,"Delta":234879322},{"NoteNumber":48,"Velocity":36,"Duration":751780,"SoundDuration":751780,"Delta":234879322},{"NoteNumber":81,"Velocity":44,"Duration":751780,"SoundDuration":751780,"Delta":235670670},{"NoteNumber":72,"Velocity":37,"Duration":751780,"SoundDuration":751780,"Delta":235670670},{"NoteNumber":76,"Velocity":37,"Duration":751780,"SoundDuration":751780,"Delta":235670670},{"NoteNumber":48,"Velocity":36,"Duration":751780,"SoundDuration":751780,"Delta":235670670},{"NoteNumber":65,"Velocity":34,"Duration":751780,"SoundDuration":751780,"Delta":236462018},{"NoteNumber":72,"Velocity":34,"Duration":751780,"SoundDuration":751780,"Delta":236462018},{"NoteNumber":76,"Velocity":41,"Duration":751780,"SoundDuration":751780,"Delta":236462018},{"NoteNumber":48,"Velocity":37,"Duration":751780,"SoundDuration":751780,"Delta":236462018},{"NoteNumber":57,"Velocity":37,"Duration":751780,"SoundDuration":751780,"Delta":236462018},{"NoteNumber":65,"Velocity":37,"Duration":781046,"SoundDuration":781046,"Delta":237253366},{"NoteNumber":71,"Velocity":37,"Duration":781046,"SoundDuration":781046,"Delta":237253366},{"NoteNumber":74,"Velocity":44,"Duration":781046,"SoundDuration":781046,"Delta":237253366},{"NoteNumber":48,"Velocity":42,"Duration":741994,"SoundDuration":741994,"Delta":237253366},{"NoteNumber":57,"Velocity":42,"Duration":741994,"SoundDuration":741994,"Delta":237253366},{"NoteNumber":65,"Velocity":35,"Duration":781046,"SoundDuration":781046,"Delta":238034412},{"NoteNumber":71,"Velocity":35,"Duration":781046,"SoundDuration":781046,"Delta":238034412},{"NoteNumber":74,"Velocity":42,"Duration":781046,"SoundDuration":781046,"Delta":238034412},{"NoteNumber":48,"Velocity":36,"Duration":741994,"SoundDuration":741994,"Delta":238034412},{"NoteNumber":59,"Velocity":36,"Duration":741994,"SoundDuration":741994,"Delta":238034412},{"NoteNumber":48,"Velocity":36,"Duration":741994,"SoundDuration":741994,"Delta":238815459},{"NoteNumber":62,"Velocity":36,"Duration":741994,"SoundDuration":741994,"Delta":238815459},{"NoteNumber":65,"Velocity":31,"Duration":782752,"SoundDuration":782752,"Delta":239596505},{"NoteNumber":71,"Velocity":31,"Duration":782752,"SoundDuration":782752,"Delta":239596505},{"NoteNumber":74,"Velocity":37,"Duration":782752,"SoundDuration":782752,"Delta":239596505},{"NoteNumber":48,"Velocity":30,"Duration":782752,"SoundDuration":782752,"Delta":239596505},{"NoteNumber":57,"Velocity":30,"Duration":782752,"SoundDuration":782752,"Delta":239596505},{"NoteNumber":64,"Velocity":37,"Duration":751780,"SoundDuration":751780,"Delta":240420455},{"NoteNumber":71,"Velocity":37,"Duration":751780,"SoundDuration":751780,"Delta":240420455},{"NoteNumber":74,"Velocity":44,"Duration":751780,"SoundDuration":751780,"Delta":240420455},{"NoteNumber":48,"Velocity":42,"Duration":751780,"SoundDuration":751780,"Delta":240420455},{"NoteNumber":55,"Velocity":42,"Duration":1582695,"SoundDuration":1582695,"Delta":240420455},{"NoteNumber":71,"Velocity":37,"Duration":751780,"SoundDuration":751780,"Delta":241211803},{"NoteNumber":74,"Velocity":37,"Duration":751780,"SoundDuration":751780,"Delta":241211803},{"NoteNumber":76,"Velocity":44,"Duration":751780,"SoundDuration":751780,"Delta":241211803},{"NoteNumber":48,"Velocity":36,"Duration":751780,"SoundDuration":751780,"Delta":241211803},{"NoteNumber":79,"Velocity":44,"Duration":751780,"SoundDuration":751780,"Delta":242003151},{"NoteNumber":71,"Velocity":37,"Duration":751780,"SoundDuration":751780,"Delta":242003151},{"NoteNumber":74,"Velocity":37,"Duration":751780,"SoundDuration":751780,"Delta":242003151},{"NoteNumber":48,"Velocity":36,"Duration":751780,"SoundDuration":751780,"Delta":242003151},{"NoteNumber":64,"Velocity":34,"Duration":751780,"SoundDuration":751780,"Delta":242794499},{"NoteNumber":71,"Velocity":34,"Duration":751780,"SoundDuration":751780,"Delta":242794499},{"NoteNumber":74,"Velocity":41,"Duration":751780,"SoundDuration":751780,"Delta":242794499},{"NoteNumber":48,"Velocity":37,"Duration":751780,"SoundDuration":751780,"Delta":242794499},{"NoteNumber":55,"Velocity":37,"Duration":751780,"SoundDuration":751780,"Delta":242794499},{"NoteNumber":64,"Velocity":37,"Duration":781046,"SoundDuration":781046,"Delta":243585847},{"NoteNumber":69,"Velocity":37,"Duration":781046,"SoundDuration":781046,"Delta":243585847},{"NoteNumber":72,"Velocity":44,"Duration":781046,"SoundDuration":781046,"Delta":243585847},{"NoteNumber":48,"Velocity":42,"Duration":741994,"SoundDuration":741994,"Delta":243585847},{"NoteNumber":55,"Velocity":42,"Duration":741994,"SoundDuration":741994,"Delta":243585847},{"NoteNumber":64,"Velocity":35,"Duration":781046,"SoundDuration":781046,"Delta":244366893},{"NoteNumber":69,"Velocity":35,"Duration":781046,"SoundDuration":781046,"Delta":244366893},{"NoteNumber":72,"Velocity":42,"Duration":781046,"SoundDuration":781046,"Delta":244366893},{"NoteNumber":48,"Velocity":36,"Duration":741994,"SoundDuration":741994,"Delta":244366893},{"NoteNumber":57,"Velocity":36,"Duration":741994,"SoundDuration":741994,"Delta":244366893},{"NoteNumber":48,"Velocity":36,"Duration":741994,"SoundDuration":741994,"Delta":245147940},{"NoteNumber":60,"Velocity":36,"Duration":741994,"SoundDuration":741994,"Delta":245147940},{"NoteNumber":64,"Velocity":31,"Duration":782752,"SoundDuration":782752,"Delta":245928986},{"NoteNumber":69,"Velocity":31,"Duration":782752,"SoundDuration":782752,"Delta":245928986},{"NoteNumber":72,"Velocity":37,"Duration":782752,"SoundDuration":782752,"Delta":245928986},{"NoteNumber":48,"Velocity":30,"Duration":782752,"SoundDuration":782752,"Delta":245928986},{"NoteNumber":55,"Velocity":30,"Duration":782752,"SoundDuration":782752,"Delta":245928986},{"NoteNumber":62,"Velocity":31,"Duration":751780,"SoundDuration":751780,"Delta":246752936},{"NoteNumber":69,"Velocity":37,"Duration":751780,"SoundDuration":751780,"Delta":246752936},{"NoteNumber":72,"Velocity":44,"Duration":751780,"SoundDuration":751780,"Delta":246752936},{"NoteNumber":48,"Velocity":42,"Duration":751780,"SoundDuration":751780,"Delta":246752936},{"NoteNumber":53,"Velocity":42,"Duration":1582695,"SoundDuration":1582695,"Delta":246752936},{"NoteNumber":69,"Velocity":37,"Duration":751780,"SoundDuration":751780,"Delta":247544284},{"NoteNumber":72,"Velocity":37,"Duration":751780,"SoundDuration":751780,"Delta":247544284},{"NoteNumber":74,"Velocity":44,"Duration":751780,"SoundDuration":751780,"Delta":247544284},{"NoteNumber":48,"Velocity":36,"Duration":751780,"SoundDuration":751780,"Delta":247544284},{"NoteNumber":77,"Velocity":44,"Duration":751780,"SoundDuration":751780,"Delta":248335632},{"NoteNumber":69,"Velocity":37,"Duration":751780,"SoundDuration":751780,"Delta":248335632},{"NoteNumber":72,"Velocity":37,"Duration":751780,"SoundDuration":751780,"Delta":248335632},{"NoteNumber":48,"Velocity":36,"Duration":751780,"SoundDuration":751780,"Delta":248335632},{"NoteNumber":62,"Velocity":34,"Duration":751780,"SoundDuration":751780,"Delta":249126980},{"NoteNumber":69,"Velocity":34,"Duration":751780,"SoundDuration":751780,"Delta":249126980},{"NoteNumber":72,"Velocity":41,"Duration":751780,"SoundDuration":751780,"Delta":249126980},{"NoteNumber":48,"Velocity":37,"Duration":751780,"SoundDuration":751780,"Delta":249126980},{"NoteNumber":53,"Velocity":37,"Duration":751780,"SoundDuration":751780,"Delta":249126980},{"NoteNumber":62,"Velocity":37,"Duration":781046,"SoundDuration":781046,"Delta":249918328},{"NoteNumber":67,"Velocity":37,"Duration":781046,"SoundDuration":781046,"Delta":249918328},{"NoteNumber":71,"Velocity":44,"Duration":781046,"SoundDuration":781046,"Delta":249918328},{"NoteNumber":48,"Velocity":42,"Duration":741994,"SoundDuration":741994,"Delta":249918328},{"NoteNumber":53,"Velocity":42,"Duration":741994,"SoundDuration":741994,"Delta":249918328},{"NoteNumber":62,"Velocity":35,"Duration":781046,"SoundDuration":781046,"Delta":250699374},{"NoteNumber":67,"Velocity":35,"Duration":781046,"SoundDuration":781046,"Delta":250699374},{"NoteNumber":71,"Velocity":42,"Duration":781046,"SoundDuration":781046,"Delta":250699374},{"NoteNumber":48,"Velocity":36,"Duration":741994,"SoundDuration":741994,"Delta":250699374},{"NoteNumber":57,"Velocity":36,"Duration":741994,"SoundDuration":741994,"Delta":250699374},{"NoteNumber":48,"Velocity":36,"Duration":741994,"SoundDuration":741994,"Delta":251480421},{"NoteNumber":55,"Velocity":36,"Duration":741994,"SoundDuration":741994,"Delta":251480421},{"NoteNumber":55,"Velocity":37,"Duration":782752,"SoundDuration":782752,"Delta":252261467},{"NoteNumber":48,"Velocity":30,"Duration":782752,"SoundDuration":782752,"Delta":252261467},{"NoteNumber":53,"Velocity":30,"Duration":782752,"SoundDuration":782752,"Delta":252261467},{"NoteNumber":58,"Velocity":43,"Duration":3156712,"SoundDuration":3156712,"Delta":253085417},{"NoteNumber":52,"Velocity":31,"Duration":751780,"SoundDuration":751780,"Delta":253085417},{"NoteNumber":60,"Velocity":44,"Duration":751780,"SoundDuration":751780,"Delta":253085417},{"NoteNumber":36,"Velocity":42,"Duration":751780,"SoundDuration":751780,"Delta":253085417},{"NoteNumber":48,"Velocity":42,"Duration":751780,"SoundDuration":751780,"Delta":253085417},{"NoteNumber":53,"Velocity":37,"Duration":723166,"SoundDuration":723166,"Delta":253876765},{"NoteNumber":62,"Velocity":44,"Duration":723166,"SoundDuration":723166,"Delta":253876765},{"NoteNumber":43,"Velocity":36,"Duration":723166,"SoundDuration":723166,"Delta":253876765},{"NoteNumber":36,"Velocity":36,"Duration":723166,"SoundDuration":723166,"Delta":253876765},{"NoteNumber":64,"Velocity":44,"Duration":751780,"SoundDuration":751780,"Delta":254637993},{"NoteNumber":55,"Velocity":37,"Duration":751780,"SoundDuration":751780,"Delta":254637993},{"NoteNumber":48,"Velocity":42,"Duration":751780,"SoundDuration":751780,"Delta":254637993},{"NoteNumber":36,"Velocity":36,"Duration":751780,"SoundDuration":751780,"Delta":254637993},{"NoteNumber":52,"Velocity":34,"Duration":772148,"SoundDuration":772148,"Delta":255429341},{"NoteNumber":60,"Velocity":41,"Duration":772148,"SoundDuration":772148,"Delta":255429341},{"NoteNumber":36,"Velocity":37,"Duration":772148,"SoundDuration":772148,"Delta":255429341},{"NoteNumber":43,"Velocity":37,"Duration":772148,"SoundDuration":772148,"Delta":255429341},{"NoteNumber":57,"Velocity":51,"Duration":751780,"SoundDuration":751780,"Delta":256242129},{"NoteNumber":65,"Velocity":44,"Duration":751780,"SoundDuration":751780,"Delta":256242129},{"NoteNumber":36,"Velocity":42,"Duration":751780,"SoundDuration":751780,"Delta":256242129},{"NoteNumber":48,"Velocity":42,"Duration":751780,"SoundDuration":751780,"Delta":256242129},{"NoteNumber":57,"Velocity":37,"Duration":2365364,"SoundDuration":2365364,"Delta":257033477},{"NoteNumber":60,"Velocity":37,"Duration":723166,"SoundDuration":723166,"Delta":257033477},{"NoteNumber":67,"Velocity":44,"Duration":723166,"SoundDuration":723166,"Delta":257033477},{"NoteNumber":43,"Velocity":36,"Duration":723166,"SoundDuration":723166,"Delta":257033477},{"NoteNumber":36,"Velocity":36,"Duration":723166,"SoundDuration":723166,"Delta":257033477},{"NoteNumber":69,"Velocity":44,"Duration":751780,"SoundDuration":751780,"Delta":257794705},{"NoteNumber":65,"Velocity":37,"Duration":751780,"SoundDuration":751780,"Delta":257794705},{"NoteNumber":48,"Velocity":42,"Duration":751780,"SoundDuration":751780,"Delta":257794705},{"NoteNumber":36,"Velocity":36,"Duration":751780,"SoundDuration":751780,"Delta":257794705},{"NoteNumber":53,"Velocity":41,"Duration":772148,"SoundDuration":772148,"Delta":258586053},{"NoteNumber":36,"Velocity":37,"Duration":772148,"SoundDuration":772148,"Delta":258586053},{"NoteNumber":43,"Velocity":37,"Duration":772148,"SoundDuration":772148,"Delta":258586053},{"NoteNumber":56,"Velocity":43,"Duration":3226340,"SoundDuration":3226340,"Delta":259398841},{"NoteNumber":50,"Velocity":31,"Duration":751780,"SoundDuration":751780,"Delta":259398841},{"NoteNumber":59,"Velocity":44,"Duration":751780,"SoundDuration":751780,"Delta":259398841},{"NoteNumber":36,"Velocity":42,"Duration":751780,"SoundDuration":751780,"Delta":259398841},{"NoteNumber":48,"Velocity":42,"Duration":751780,"SoundDuration":751780,"Delta":259398841},{"NoteNumber":52,"Velocity":37,"Duration":723166,"SoundDuration":723166,"Delta":260190189},{"NoteNumber":60,"Velocity":44,"Duration":723166,"SoundDuration":723166,"Delta":260190189},{"NoteNumber":43,"Velocity":36,"Duration":723166,"SoundDuration":723166,"Delta":260190189},{"NoteNumber":36,"Velocity":36,"Duration":723166,"SoundDuration":723166,"Delta":260190189},{"NoteNumber":62,"Velocity":44,"Duration":761828,"SoundDuration":761828,"Delta":260951417},{"NoteNumber":53,"Velocity":37,"Duration":761828,"SoundDuration":761828,"Delta":260951417},{"NoteNumber":48,"Velocity":42,"Duration":761828,"SoundDuration":761828,"Delta":260951417},{"NoteNumber":36,"Velocity":36,"Duration":761828,"SoundDuration":761828,"Delta":260951417},{"NoteNumber":50,"Velocity":34,"Duration":828247,"SoundDuration":828247,"Delta":261753341},{"NoteNumber":59,"Velocity":41,"Duration":828247,"SoundDuration":828247,"Delta":261753341},{"NoteNumber":36,"Velocity":37,"Duration":828247,"SoundDuration":828247,"Delta":261753341},{"NoteNumber":43,"Velocity":37,"Duration":828247,"SoundDuration":828247,"Delta":261753341},{"NoteNumber":55,"Velocity":38,"Duration":1626140,"SoundDuration":1626140,"Delta":262625181},{"NoteNumber":52,"Velocity":38,"Duration":1626140,"SoundDuration":1626140,"Delta":262625181},{"NoteNumber":60,"Velocity":45,"Duration":1626140,"SoundDuration":1626140,"Delta":262625181},{"NoteNumber":36,"Velocity":39,"Duration":804857,"SoundDuration":804857,"Delta":262625181},{"NoteNumber":48,"Velocity":39,"Duration":804857,"SoundDuration":804857,"Delta":262625181},{"NoteNumber":43,"Velocity":33,"Duration":772148,"SoundDuration":772148,"Delta":263472399},{"NoteNumber":36,"Velocity":33,"Duration":772148,"SoundDuration":772148,"Delta":263472399},{"NoteNumber":60,"Velocity":39,"Duration":6720785,"SoundDuration":6720785,"Delta":264285187},{"NoteNumber":58,"Velocity":33,"Duration":1784992,"SoundDuration":1784992,"Delta":264285187},{"NoteNumber":55,"Velocity":33,"Duration":1784992,"SoundDuration":1784992,"Delta":264285187},{"NoteNumber":48,"Velocity":38,"Duration":816384,"SoundDuration":816384,"Delta":264285187},{"NoteNumber":36,"Velocity":32,"Duration":816384,"SoundDuration":816384,"Delta":264285187},{"NoteNumber":36,"Velocity":32,"Duration":879358,"SoundDuration":879358,"Delta":265144540},{"NoteNumber":43,"Velocity":32,"Duration":879358,"SoundDuration":879358,"Delta":265144540},{"NoteNumber":53,"Velocity":32,"Duration":1992813,"SoundDuration":1992813,"Delta":266070180},{"NoteNumber":57,"Velocity":38,"Duration":1992813,"SoundDuration":1992813,"Delta":266070180},{"NoteNumber":36,"Velocity":35,"Duration":907354,"SoundDuration":907354,"Delta":266070180},{"NoteNumber":48,"Velocity":35,"Duration":907354,"SoundDuration":907354,"Delta":266070180},{"NoteNumber":43,"Velocity":28,"Duration":985817,"SoundDuration":985817,"Delta":267025290},{"NoteNumber":36,"Velocity":28,"Duration":985817,"SoundDuration":985817,"Delta":267025290},{"NoteNumber":53,"Velocity":30,"Duration":2942980,"SoundDuration":2942980,"Delta":268062993},{"NoteNumber":50,"Velocity":25,"Duration":2942980,"SoundDuration":2942980,"Delta":268062993},{"NoteNumber":48,"Velocity":33,"Duration":1059085,"SoundDuration":1059085,"Delta":268062993},{"NoteNumber":36,"Velocity":28,"Duration":1059085,"SoundDuration":1059085,"Delta":268062993},{"NoteNumber":36,"Velocity":28,"Duration":1736745,"SoundDuration":1736745,"Delta":269177820},{"NoteNumber":43,"Velocity":28,"Duration":1736745,"SoundDuration":1736745,"Delta":269177820},{"NoteNumber":52,"Velocity":21,"Duration":4888646,"SoundDuration":4888646,"Delta":271005973},{"NoteNumber":55,"Velocity":21,"Duration":4888646,"SoundDuration":4888646,"Delta":271005973},{"NoteNumber":60,"Velocity":25,"Duration":4888646,"SoundDuration":4888646,"Delta":271005973},{"NoteNumber":36,"Velocity":25,"Duration":4888646,"SoundDuration":4888646,"Delta":271005973},{"NoteNumber":43,"Velocity":25,"Duration":4888646,"SoundDuration":4888646,"Delta":271005973},{"NoteNumber":48,"Velocity":30,"Duration":4888646,"SoundDuration":4888646,"Delta":271005973}],"license":{"name":"Creative Commons Attribution-ShareAlike 3.0 Germany","url":"http://creativecommons.org/licenses/by-sa/3.0/de/deed.en","text":"The MIDI, audio (MP3, OGG) and video files of Bernd Krueger are licensed under the cc-by-sa Germany License. This means that you can use and adapt the files, as long as you attribute the copyright holder.\n\nName: Bernd Krueger\nSource: http://www.piano-midi.de\n\nThe distribution or public playback of the files is only allowed under identical license conditions.\n\nThe scores are open source.","attribution":"MIDI files by Bernd Krueger (piano-midi.de)","attributionUrl":"http://www.piano-midi.de"}}