{"title":"Sonate in C Opus 1","artist":"Brahms","durationMs":687526,"midiSha256":"b7ca2bc14aceb9bd160d1e2e521c02b281970975ee71626d49c4ecb3839d4f81","midiObject":[{"NoteNumber":48,"Velocity":60,"Duration":752759,"SoundDuration":752759,"Delta":0},{"NoteNumber":55,"Velocity":63,"Duration":721394,"SoundDuration":721394,"Delta":31364},{"NoteNumber":60,"Velocity":67,"Duration":690029,"SoundDuration":690029,"Delta":62729},{"NoteNumber":76,"Velocity":67,"Duration":658664,"SoundDuration":658664,"Delta":94094},{"NoteNumber":79,"Velocity":67,"Duration":658664,"SoundDuration":658664,"Delta":94094},{"NoteNumber":72,"Velocity":67,"Duration":658664,"SoundDuration":658664,"Delta":94094},{"NoteNumber":84,"Velocity":80,"Duration":658664,"SoundDuration":658664,"Delta":94094},{"NoteNumber":64,"Velocity":70,"Duration":658664,"SoundDuration":658664,"Delta":94094},{"NoteNumber":64,"Velocity":70,"Duration":196204,"SoundDuration":196204,"Delta":752759},{"NoteNumber":60,"Velocity":59,"Duration":196204,"SoundDuration":196204,"Delta":752759},{"NoteNumber":52,"Velocity":59,"Duration":196204,"SoundDuration":196204,"Delta":752759},{"NoteNumber":36,"Velocity":55,"Duration":196204,"SoundDuration":196204,"Delta":752759},{"NoteNumber":43,"Velocity":55,"Duration":196204,"SoundDuration":196204,"Delta":752759},{"NoteNumber":48,"Velocity":65,"Duration":196204,"SoundDuration":196204,"Delta":752759},{"NoteNumber":64,"Velocity":74,"Duration":475360,"SoundDuration":475360,"Delta":966800},{"NoteNumber":52,"Velocity":62,"Duration":475360,"SoundDuration":475360,"Delta":966800},{"NoteNumber":60,"Velocity":62,"Duration":475360,"SoundDuration":475360,"Delta":966800},{"NoteNumber":36,"Velocity":55,"Duration":475360,"SoundDuration":475360,"Delta":966800},{"NoteNumber":43,"Velocity":55,"Duration":475360,"SoundDuration":475360,"Delta":966800},{"NoteNumber":48,"Velocity":65,"Duration":475360,"SoundDuration":475360,"Delta":966800},{"NoteNumber":60,"Velocity":60,"Duration":111723,"SoundDuration":111723,"Delta":1442161},{"NoteNumber":53,"Velocity":60,"Duration":111723,"SoundDuration":111723,"Delta":1442161},{"NoteNumber":65,"Velocity":71,"Duration":111723,"SoundDuration":111723,"Delta":1442161},{"NoteNumber":38,"Velocity":50,"Duration":111723,"SoundDuration":111723,"Delta":1442161},{"NoteNumber":50,"Velocity":59,"Duration":111723,"SoundDuration":111723,"Delta":1442161},{"NoteNumber":55,"Velocity":63,"Duration":121951,"SoundDuration":121951,"Delta":1665608},{"NoteNumber":60,"Velocity":63,"Duration":121951,"SoundDuration":121951,"Delta":1665608},{"NoteNumber":67,"Velocity":75,"Duration":121951,"SoundDuration":121951,"Delta":1665608},{"NoteNumber":40,"Velocity":55,"Duration":121951,"SoundDuration":121951,"Delta":1665608},{"NoteNumber":48,"Velocity":55,"Duration":121951,"SoundDuration":121951,"Delta":1665608},{"NoteNumber":52,"Velocity":65,"Duration":121951,"SoundDuration":121951,"Delta":1665608},{"NoteNumber":57,"Velocity":66,"Duration":113731,"SoundDuration":113731,"Delta":1909510},{"NoteNumber":60,"Velocity":66,"Duration":113731,"SoundDuration":113731,"Delta":1909510},{"NoteNumber":69,"Velocity":78,"Duration":113731,"SoundDuration":113731,"Delta":1909510},{"NoteNumber":41,"Velocity":56,"Duration":113731,"SoundDuration":113731,"Delta":1909510},{"NoteNumber":48,"Velocity":56,"Duration":113731,"SoundDuration":113731,"Delta":1909510},{"NoteNumber":53,"Velocity":67,"Duration":113731,"SoundDuration":113731,"Delta":1909510},{"NoteNumber":55,"Velocity":62,"Duration":113731,"SoundDuration":113731,"Delta":2364435},{"NoteNumber":67,"Velocity":74,"Duration":113731,"SoundDuration":113731,"Delta":2364435},{"NoteNumber":60,"Velocity":62,"Duration":113731,"SoundDuration":113731,"Delta":2364435},{"NoteNumber":40,"Velocity":52,"Duration":113731,"SoundDuration":113731,"Delta":2364435},{"NoteNumber":48,"Velocity":52,"Duration":113731,"SoundDuration":113731,"Delta":2364435},{"NoteNumber":52,"Velocity":62,"Duration":113731,"SoundDuration":113731,"Delta":2364435},{"NoteNumber":52,"Velocity":59,"Duration":204716,"SoundDuration":204716,"Delta":3501748},{"NoteNumber":60,"Velocity":59,"Duration":204716,"SoundDuration":204716,"Delta":3501748},{"NoteNumber":64,"Velocity":70,"Duration":204716,"SoundDuration":204716,"Delta":3501748},{"NoteNumber":36,"Velocity":55,"Duration":204716,"SoundDuration":204716,"Delta":3501748},{"NoteNumber":43,"Velocity":55,"Duration":204716,"SoundDuration":204716,"Delta":3501748},{"NoteNumber":48,"Velocity":65,"Duration":204716,"SoundDuration":204716,"Delta":3501748},{"NoteNumber":64,"Velocity":77,"Duration":454925,"SoundDuration":454925,"Delta":3729210},{"NoteNumber":60,"Velocity":65,"Duration":454925,"SoundDuration":454925,"Delta":3729210},{"NoteNumber":52,"Velocity":65,"Duration":454925,"SoundDuration":454925,"Delta":3729210},{"NoteNumber":36,"Velocity":55,"Duration":454925,"SoundDuration":454925,"Delta":3729210},{"NoteNumber":43,"Velocity":55,"Duration":454925,"SoundDuration":454925,"Delta":3729210},{"NoteNumber":48,"Velocity":65,"Duration":454925,"SoundDuration":454925,"Delta":3729210},{"NoteNumber":53,"Velocity":65,"Duration":107434,"SoundDuration":107434,"Delta":4184135},{"NoteNumber":60,"Velocity":65,"Duration":107434,"SoundDuration":107434,"Delta":4184135},{"NoteNumber":65,"Velocity":77,"Duration":107434,"SoundDuration":107434,"Delta":4184135},{"NoteNumber":38,"Velocity":50,"Duration":107434,"SoundDuration":107434,"Delta":4184135},{"NoteNumber":50,"Velocity":59,"Duration":107434,"SoundDuration":107434,"Delta":4184135},{"NoteNumber":55,"Velocity":68,"Duration":119865,"SoundDuration":119865,"Delta":4399004},{"NoteNumber":67,"Velocity":80,"Duration":119865,"SoundDuration":119865,"Delta":4399004},{"NoteNumber":60,"Velocity":68,"Duration":119865,"SoundDuration":119865,"Delta":4399004},{"NoteNumber":40,"Velocity":55,"Duration":119865,"SoundDuration":119865,"Delta":4399004},{"NoteNumber":48,"Velocity":55,"Duration":119865,"SoundDuration":119865,"Delta":4399004},{"NoteNumber":52,"Velocity":65,"Duration":119865,"SoundDuration":119865,"Delta":4399004},{"NoteNumber":60,"Velocity":70,"Duration":443361,"SoundDuration":443361,"Delta":4638736},{"NoteNumber":69,"Velocity":83,"Duration":443361,"SoundDuration":443361,"Delta":4638736},{"NoteNumber":57,"Velocity":70,"Duration":443361,"SoundDuration":443361,"Delta":4638736},{"NoteNumber":41,"Velocity":56,"Duration":221680,"SoundDuration":221680,"Delta":4638736},{"NoteNumber":48,"Velocity":56,"Duration":221680,"SoundDuration":221680,"Delta":4638736},{"NoteNumber":53,"Velocity":67,"Duration":221680,"SoundDuration":221680,"Delta":4638736},{"NoteNumber":67,"Velocity":81,"Duration":106209,"SoundDuration":106209,"Delta":5082097},{"NoteNumber":55,"Velocity":68,"Duration":106209,"SoundDuration":106209,"Delta":5082097},{"NoteNumber":60,"Velocity":68,"Duration":106209,"SoundDuration":106209,"Delta":5082097},{"NoteNumber":48,"Velocity":50,"Duration":106209,"SoundDuration":106209,"Delta":5082097},{"NoteNumber":40,"Velocity":50,"Duration":106209,"SoundDuration":106209,"Delta":5082097},{"NoteNumber":52,"Velocity":59,"Duration":106209,"SoundDuration":106209,"Delta":5082097},{"NoteNumber":57,"Velocity":70,"Duration":118839,"SoundDuration":118839,"Delta":5294516},{"NoteNumber":69,"Velocity":83,"Duration":118839,"SoundDuration":118839,"Delta":5294516},{"NoteNumber":60,"Velocity":70,"Duration":118839,"SoundDuration":118839,"Delta":5294516},{"NoteNumber":41,"Velocity":55,"Duration":118839,"SoundDuration":118839,"Delta":5294516},{"NoteNumber":48,"Velocity":55,"Duration":118839,"SoundDuration":118839,"Delta":5294516},{"NoteNumber":53,"Velocity":65,"Duration":118839,"SoundDuration":118839,"Delta":5294516},{"NoteNumber":58,"Velocity":72,"Duration":112620,"SoundDuration":112620,"Delta":5532196},{"NoteNumber":60,"Velocity":72,"Duration":112620,"SoundDuration":112620,"Delta":5532196},{"NoteNumber":70,"Velocity":85,"Duration":112620,"SoundDuration":112620,"Delta":5532196},{"NoteNumber":43,"Velocity":56,"Duration":112620,"SoundDuration":112620,"Delta":5532196},{"NoteNumber":48,"Velocity":56,"Duration":112620,"SoundDuration":112620,"Delta":5532196},{"NoteNumber":55,"Velocity":67,"Duration":112620,"SoundDuration":112620,"Delta":5532196},{"NoteNumber":69,"Velocity":81,"Duration":112620,"SoundDuration":112620,"Delta":5982680},{"NoteNumber":57,"Velocity":68,"Duration":112620,"SoundDuration":112620,"Delta":5982680},{"NoteNumber":60,"Velocity":68,"Duration":112620,"SoundDuration":112620,"Delta":5982680},{"NoteNumber":41,"Velocity":52,"Duration":112620,"SoundDuration":112620,"Delta":5982680},{"NoteNumber":48,"Velocity":52,"Duration":112620,"SoundDuration":112620,"Delta":5982680},{"NoteNumber":53,"Velocity":62,"Duration":112620,"SoundDuration":112620,"Delta":5982680},{"NoteNumber":55,"Velocity":60,"Duration":111723,"SoundDuration":111723,"Delta":6883648},{"NoteNumber":60,"Velocity":60,"Duration":111723,"SoundDuration":111723,"Delta":6883648},{"NoteNumber":67,"Velocity":71,"Duration":111723,"SoundDuration":111723,"Delta":6883648},{"NoteNumber":48,"Velocity":50,"Duration":111723,"SoundDuration":111723,"Delta":6883648},{"NoteNumber":40,"Velocity":50,"Duration":111723,"SoundDuration":111723,"Delta":6883648},{"NoteNumber":52,"Velocity":59,"Duration":111723,"SoundDuration":111723,"Delta":6883648},{"NoteNumber":60,"Velocity":63,"Duration":121951,"SoundDuration":121951,"Delta":7107095},{"NoteNumber":57,"Velocity":63,"Duration":121951,"SoundDuration":121951,"Delta":7107095},{"NoteNumber":69,"Velocity":75,"Duration":121951,"SoundDuration":121951,"Delta":7107095},{"NoteNumber":41,"Velocity":55,"Duration":121951,"SoundDuration":121951,"Delta":7107095},{"NoteNumber":48,"Velocity":55,"Duration":121951,"SoundDuration":121951,"Delta":7107095},{"NoteNumber":53,"Velocity":65,"Duration":121951,"SoundDuration":121951,"Delta":7107095},{"NoteNumber":65,"Velocity":66,"Duration":111284,"SoundDuration":111284,"Delta":7350998},{"NoteNumber":71,"Velocity":78,"Duration":111284,"SoundDuration":111284,"Delta":7350998},{"NoteNumber":59,"Velocity":66,"Duration":111284,"SoundDuration":111284,"Delta":7350998},{"NoteNumber":38,"Velocity":56,"Duration":111284,"SoundDuration":111284,"Delta":7350998},{"NoteNumber":50,"Velocity":67,"Duration":111284,"SoundDuration":111284,"Delta":7350998},{"NoteNumber":64,"Velocity":68,"Duration":113541,"SoundDuration":113541,"Delta":7796135},{"NoteNumber":72,"Velocity":80,"Duration":113541,"SoundDuration":113541,"Delta":7796135},{"NoteNumber":60,"Velocity":68,"Duration":113541,"SoundDuration":113541,"Delta":7796135},{"NoteNumber":40,"Velocity":57,"Duration":113541,"SoundDuration":113541,"Delta":7796135},{"NoteNumber":52,"Velocity":68,"Duration":113541,"SoundDuration":113541,"Delta":7796135},{"NoteNumber":67,"Velocity":69,"Duration":111723,"SoundDuration":111723,"Delta":8250302},{"NoteNumber":74,"Velocity":82,"Duration":111723,"SoundDuration":111723,"Delta":8250302},{"NoteNumber":62,"Velocity":69,"Duration":111723,"SoundDuration":111723,"Delta":8250302},{"NoteNumber":35,"Velocity":59,"Duration":111723,"SoundDuration":111723,"Delta":8250302},{"NoteNumber":47,"Velocity":70,"Duration":111723,"SoundDuration":111723,"Delta":8250302},{"NoteNumber":64,"Velocity":71,"Duration":113998,"SoundDuration":113998,"Delta":8697196},{"NoteNumber":67,"Velocity":71,"Duration":113998,"SoundDuration":113998,"Delta":8697196},{"NoteNumber":76,"Velocity":84,"Duration":113998,"SoundDuration":113998,"Delta":8697196},{"NoteNumber":36,"Velocity":62,"Duration":113998,"SoundDuration":113998,"Delta":8697196},{"NoteNumber":48,"Velocity":73,"Duration":113998,"SoundDuration":113998,"Delta":8697196},{"NoteNumber":72,"Velocity":72,"Duration":901589,"SoundDuration":901589,"Delta":9153750},{"NoteNumber":74,"Velocity":72,"Duration":901589,"SoundDuration":901589,"Delta":9153750},{"NoteNumber":78,"Velocity":78,"Duration":77874,"SoundDuration":77874,"Delta":9153750},{"NoteNumber":33,"Velocity":67,"Duration":901589,"SoundDuration":901589,"Delta":9153750},{"NoteNumber":38,"Velocity":67,"Duration":901589,"SoundDuration":901589,"Delta":9153750},{"NoteNumber":45,"Velocity":79,"Duration":901589,"SoundDuration":901589,"Delta":9153750},{"NoteNumber":79,"Velocity":73,"Duration":77053,"SoundDuration":77053,"Delta":9231625},{"NoteNumber":78,"Velocity":80,"Duration":76245,"SoundDuration":76245,"Delta":9308678},{"NoteNumber":79,"Velocity":75,"Duration":75478,"SoundDuration":75478,"Delta":9384924},{"NoteNumber":78,"Velocity":82,"Duration":74740,"SoundDuration":74740,"Delta":9460402},{"NoteNumber":79,"Velocity":78,"Duration":73772,"SoundDuration":73772,"Delta":9535143},{"NoteNumber":78,"Velocity":84,"Duration":73754,"SoundDuration":73754,"Delta":9608916},{"NoteNumber":79,"Velocity":81,"Duration":73989,"SoundDuration":73989,"Delta":9682670},{"NoteNumber":78,"Velocity":86,"Duration":74295,"SoundDuration":74295,"Delta":9756660},{"NoteNumber":79,"Velocity":84,"Duration":55861,"SoundDuration":55861,"Delta":9830956},{"NoteNumber":78,"Velocity":89,"Duration":56061,"SoundDuration":56061,"Delta":9886817},{"NoteNumber":76,"Velocity":84,"Duration":56150,"SoundDuration":56150,"Delta":9942878},{"NoteNumber":78,"Velocity":85,"Duration":56310,"SoundDuration":56310,"Delta":9999029},{"NoteNumber":71,"Velocity":79,"Duration":437286,"SoundDuration":437286,"Delta":10055339},{"NoteNumber":79,"Velocity":93,"Duration":437286,"SoundDuration":437286,"Delta":10055339},{"NoteNumber":31,"Velocity":63,"Duration":437286,"SoundDuration":437286,"Delta":10055339},{"NoteNumber":38,"Velocity":63,"Duration":437286,"SoundDuration":437286,"Delta":10055339},{"NoteNumber":43,"Velocity":75,"Duration":437286,"SoundDuration":437286,"Delta":10055339},{"NoteNumber":74,"Velocity":83,"Duration":105850,"SoundDuration":105850,"Delta":10492625},{"NoteNumber":62,"Velocity":70,"Duration":105850,"SoundDuration":105850,"Delta":10492625},{"NoteNumber":78,"Velocity":75,"Duration":111350,"SoundDuration":111350,"Delta":10704325},{"NoteNumber":66,"Velocity":63,"Duration":111350,"SoundDuration":111350,"Delta":10704325},{"NoteNumber":79,"Velocity":83,"Duration":108530,"SoundDuration":108530,"Delta":10927026},{"NoteNumber":67,"Velocity":69,"Duration":108530,"SoundDuration":108530,"Delta":10927026},{"NoteNumber":62,"Velocity":66,"Duration":104741,"SoundDuration":104741,"Delta":11361148},{"NoteNumber":50,"Velocity":56,"Duration":104741,"SoundDuration":104741,"Delta":11361148},{"NoteNumber":66,"Velocity":60,"Duration":111284,"SoundDuration":111284,"Delta":11570630},{"NoteNumber":54,"Velocity":50,"Duration":111284,"SoundDuration":111284,"Delta":11570630},{"NoteNumber":67,"Velocity":66,"Duration":109970,"SoundDuration":109970,"Delta":11793199},{"NoteNumber":55,"Velocity":55,"Duration":109970,"SoundDuration":109970,"Delta":11793199},{"NoteNumber":50,"Velocity":69,"Duration":107020,"SoundDuration":107020,"Delta":12233082},{"NoteNumber":38,"Velocity":56,"Duration":107020,"SoundDuration":107020,"Delta":12233082},{"NoteNumber":54,"Velocity":61,"Duration":115892,"SoundDuration":115892,"Delta":12447123},{"NoteNumber":42,"Velocity":50,"Duration":115892,"SoundDuration":115892,"Delta":12447123},{"NoteNumber":55,"Velocity":64,"Duration":149566,"SoundDuration":149566,"Delta":12678908},{"NoteNumber":43,"Velocity":55,"Duration":448698,"SoundDuration":448698,"Delta":12678908},{"NoteNumber":59,"Velocity":57,"Duration":149566,"SoundDuration":149566,"Delta":12828475},{"NoteNumber":60,"Velocity":57,"Duration":149566,"SoundDuration":149566,"Delta":12978041},{"NoteNumber":62,"Velocity":66,"Duration":149566,"SoundDuration":149566,"Delta":13127607},{"NoteNumber":64,"Velocity":59,"Duration":149566,"SoundDuration":149566,"Delta":13277174},{"NoteNumber":66,"Velocity":59,"Duration":149705,"SoundDuration":149705,"Delta":13426740},{"NoteNumber":67,"Velocity":67,"Duration":112449,"SoundDuration":112449,"Delta":13576446},{"NoteNumber":55,"Velocity":55,"Duration":886663,"SoundDuration":886663,"Delta":13576446},{"NoteNumber":58,"Velocity":55,"Duration":886663,"SoundDuration":886663,"Delta":13576446},{"NoteNumber":70,"Velocity":69,"Duration":112015,"SoundDuration":112015,"Delta":13688896},{"NoteNumber":72,"Velocity":71,"Duration":111516,"SoundDuration":111516,"Delta":13800912},{"NoteNumber":74,"Velocity":73,"Duration":111086,"SoundDuration":111086,"Delta":13912428},{"NoteNumber":76,"Velocity":75,"Duration":110594,"SoundDuration":110594,"Delta":14023514},{"NoteNumber":78,"Velocity":77,"Duration":110137,"SoundDuration":110137,"Delta":14134108},{"NoteNumber":79,"Velocity":79,"Duration":109671,"SoundDuration":109671,"Delta":14244246},{"NoteNumber":81,"Velocity":84,"Duration":109192,"SoundDuration":109192,"Delta":14353918},{"NoteNumber":46,"Velocity":60,"Duration":752760,"SoundDuration":752760,"Delta":14463110},{"NoteNumber":53,"Velocity":63,"Duration":721395,"SoundDuration":721395,"Delta":14494475},{"NoteNumber":58,"Velocity":67,"Duration":690030,"SoundDuration":690030,"Delta":14525840},{"NoteNumber":82,"Velocity":80,"Duration":658665,"SoundDuration":658665,"Delta":14557205},{"NoteNumber":70,"Velocity":67,"Duration":658665,"SoundDuration":658665,"Delta":14557205},{"NoteNumber":77,"Velocity":67,"Duration":658665,"SoundDuration":658665,"Delta":14557205},{"NoteNumber":74,"Velocity":67,"Duration":658665,"SoundDuration":658665,"Delta":14557205},{"NoteNumber":62,"Velocity":70,"Duration":658665,"SoundDuration":658665,"Delta":14557205},{"NoteNumber":70,"Velocity":67,"Duration":192636,"SoundDuration":192636,"Delta":15215870},{"NoteNumber":62,"Velocity":67,"Duration":192636,"SoundDuration":192636,"Delta":15215870},{"NoteNumber":74,"Velocity":80,"Duration":192636,"SoundDuration":192636,"Delta":15215870},{"NoteNumber":34,"Velocity":55,"Duration":192636,"SoundDuration":192636,"Delta":15215870},{"NoteNumber":46,"Velocity":65,"Duration":192636,"SoundDuration":192636,"Delta":15215870},{"NoteNumber":70,"Velocity":71,"Duration":475360,"SoundDuration":475360,"Delta":15429911},{"NoteNumber":62,"Velocity":71,"Duration":475360,"SoundDuration":475360,"Delta":15429911},{"NoteNumber":74,"Velocity":85,"Duration":475360,"SoundDuration":475360,"Delta":15429911},{"NoteNumber":34,"Velocity":55,"Duration":475360,"SoundDuration":475360,"Delta":15429911},{"NoteNumber":46,"Velocity":65,"Duration":475360,"SoundDuration":475360,"Delta":15429911},{"NoteNumber":63,"Velocity":69,"Duration":111723,"SoundDuration":111723,"Delta":15905271},{"NoteNumber":75,"Velocity":81,"Duration":111723,"SoundDuration":111723,"Delta":15905271},{"NoteNumber":70,"Velocity":69,"Duration":111723,"SoundDuration":111723,"Delta":15905271},{"NoteNumber":36,"Velocity":50,"Duration":111723,"SoundDuration":111723,"Delta":15905271},{"NoteNumber":48,"Velocity":59,"Duration":111723,"SoundDuration":111723,"Delta":15905271},{"NoteNumber":65,"Velocity":72,"Duration":121951,"SoundDuration":121951,"Delta":16128718},{"NoteNumber":70,"Velocity":72,"Duration":121951,"SoundDuration":121951,"Delta":16128718},{"NoteNumber":77,"Velocity":86,"Duration":121951,"SoundDuration":121951,"Delta":16128718},{"NoteNumber":38,"Velocity":55,"Duration":121951,"SoundDuration":121951,"Delta":16128718},{"NoteNumber":50,"Velocity":65,"Duration":121951,"SoundDuration":121951,"Delta":16128718},{"NoteNumber":70,"Velocity":75,"Duration":113731,"SoundDuration":113731,"Delta":16372620},{"NoteNumber":67,"Velocity":75,"Duration":113731,"SoundDuration":113731,"Delta":16372620},{"NoteNumber":79,"Velocity":89,"Duration":113731,"SoundDuration":113731,"Delta":16372620},{"NoteNumber":39,"Velocity":56,"Duration":113731,"SoundDuration":113731,"Delta":16372620},{"NoteNumber":46,"Velocity":56,"Duration":113731,"SoundDuration":113731,"Delta":16372620},{"NoteNumber":51,"Velocity":67,"Duration":113731,"SoundDuration":113731,"Delta":16372620},{"NoteNumber":65,"Velocity":71,"Duration":113731,"SoundDuration":113731,"Delta":16827545},{"NoteNumber":77,"Velocity":85,"Duration":113731,"SoundDuration":113731,"Delta":16827545},{"NoteNumber":70,"Velocity":71,"Duration":113731,"SoundDuration":113731,"Delta":16827545},{"NoteNumber":38,"Velocity":52,"Duration":113731,"SoundDuration":113731,"Delta":16827545},{"NoteNumber":46,"Velocity":52,"Duration":113731,"SoundDuration":113731,"Delta":16827545},{"NoteNumber":50,"Velocity":62,"Duration":113731,"SoundDuration":113731,"Delta":16827545},{"NoteNumber":70,"Velocity":67,"Duration":204716,"SoundDuration":204716,"Delta":17964858},{"NoteNumber":62,"Velocity":67,"Duration":204716,"SoundDuration":204716,"Delta":17964858},{"NoteNumber":74,"Velocity":80,"Duration":204716,"SoundDuration":204716,"Delta":17964858},{"NoteNumber":34,"Velocity":55,"Duration":204716,"SoundDuration":204716,"Delta":17964858},{"NoteNumber":46,"Velocity":65,"Duration":204716,"SoundDuration":204716,"Delta":17964858},{"NoteNumber":62,"Velocity":74,"Duration":454924,"SoundDuration":454924,"Delta":18192320},{"NoteNumber":74,"Velocity":88,"Duration":454924,"SoundDuration":454924,"Delta":18192320},{"NoteNumber":70,"Velocity":74,"Duration":454924,"SoundDuration":454924,"Delta":18192320},{"NoteNumber":34,"Velocity":55,"Duration":454924,"SoundDuration":454924,"Delta":18192320},{"NoteNumber":46,"Velocity":65,"Duration":454924,"SoundDuration":454924,"Delta":18192320},{"NoteNumber":70,"Velocity":74,"Duration":107434,"SoundDuration":107434,"Delta":18647245},{"NoteNumber":63,"Velocity":74,"Duration":107434,"SoundDuration":107434,"Delta":18647245},{"NoteNumber":75,"Velocity":88,"Duration":107434,"SoundDuration":107434,"Delta":18647245},{"NoteNumber":36,"Velocity":50,"Duration":107434,"SoundDuration":107434,"Delta":18647245},{"NoteNumber":48,"Velocity":59,"Duration":107434,"SoundDuration":107434,"Delta":18647245},{"NoteNumber":70,"Velocity":78,"Duration":119865,"SoundDuration":119865,"Delta":18862114},{"NoteNumber":77,"Velocity":92,"Duration":119865,"SoundDuration":119865,"Delta":18862114},{"NoteNumber":65,"Velocity":78,"Duration":119865,"SoundDuration":119865,"Delta":18862114},{"NoteNumber":38,"Velocity":55,"Duration":119865,"SoundDuration":119865,"Delta":18862114},{"NoteNumber":50,"Velocity":65,"Duration":119865,"SoundDuration":119865,"Delta":18862114},{"NoteNumber":67,"Velocity":80,"Duration":443360,"SoundDuration":443360,"Delta":19101846},{"NoteNumber":79,"Velocity":95,"Duration":443360,"SoundDuration":443360,"Delta":19101846},{"NoteNumber":70,"Velocity":80,"Duration":443360,"SoundDuration":443360,"Delta":19101846},{"NoteNumber":39,"Velocity":56,"Duration":221680,"SoundDuration":221680,"Delta":19101846},{"NoteNumber":46,"Velocity":56,"Duration":221680,"SoundDuration":221680,"Delta":19101846},{"NoteNumber":51,"Velocity":67,"Duration":221680,"SoundDuration":221680,"Delta":19101846},{"NoteNumber":70,"Velocity":78,"Duration":106209,"SoundDuration":106209,"Delta":19545207},{"NoteNumber":77,"Velocity":93,"Duration":106209,"SoundDuration":106209,"Delta":19545207},{"NoteNumber":65,"Velocity":78,"Duration":106209,"SoundDuration":106209,"Delta":19545207},{"NoteNumber":46,"Velocity":50,"Duration":106209,"SoundDuration":106209,"Delta":19545207},{"NoteNumber":38,"Velocity":50,"Duration":106209,"SoundDuration":106209,"Delta":19545207},{"NoteNumber":50,"Velocity":59,"Duration":106209,"SoundDuration":106209,"Delta":19545207},{"NoteNumber":67,"Velocity":80,"Duration":118839,"SoundDuration":118839,"Delta":19757626},{"NoteNumber":79,"Velocity":95,"Duration":118839,"SoundDuration":118839,"Delta":19757626},{"NoteNumber":70,"Velocity":80,"Duration":118839,"SoundDuration":118839,"Delta":19757626},{"NoteNumber":39,"Velocity":55,"Duration":118839,"SoundDuration":118839,"Delta":19757626},{"NoteNumber":46,"Velocity":55,"Duration":118839,"SoundDuration":118839,"Delta":19757626},{"NoteNumber":51,"Velocity":65,"Duration":118839,"SoundDuration":118839,"Delta":19757626},{"NoteNumber":70,"Velocity":82,"Duration":112621,"SoundDuration":112621,"Delta":19995306},{"NoteNumber":80,"Velocity":97,"Duration":112621,"SoundDuration":112621,"Delta":19995306},{"NoteNumber":68,"Velocity":82,"Duration":112621,"SoundDuration":112621,"Delta":19995306},{"NoteNumber":41,"Velocity":56,"Duration":112621,"SoundDuration":112621,"Delta":19995306},{"NoteNumber":46,"Velocity":56,"Duration":112621,"SoundDuration":112621,"Delta":19995306},{"NoteNumber":53,"Velocity":67,"Duration":112621,"SoundDuration":112621,"Delta":19995306},{"NoteNumber":79,"Velocity":93,"Duration":112621,"SoundDuration":112621,"Delta":20445790},{"NoteNumber":67,"Velocity":78,"Duration":112621,"SoundDuration":112621,"Delta":20445790},{"NoteNumber":70,"Velocity":78,"Duration":112621,"SoundDuration":112621,"Delta":20445790},{"NoteNumber":39,"Velocity":52,"Duration":112621,"SoundDuration":112621,"Delta":20445790},{"NoteNumber":46,"Velocity":52,"Duration":112621,"SoundDuration":112621,"Delta":20445790},{"NoteNumber":51,"Velocity":62,"Duration":112621,"SoundDuration":112621,"Delta":20445790},{"NoteNumber":77,"Velocity":81,"Duration":111723,"SoundDuration":111723,"Delta":21346758},{"NoteNumber":70,"Velocity":69,"Duration":111723,"SoundDuration":111723,"Delta":21346758},{"NoteNumber":65,"Velocity":69,"Duration":111723,"SoundDuration":111723,"Delta":21346758},{"NoteNumber":38,"Velocity":50,"Duration":111723,"SoundDuration":111723,"Delta":21346758},{"NoteNumber":50,"Velocity":59,"Duration":111723,"SoundDuration":111723,"Delta":21346758},{"NoteNumber":67,"Velocity":72,"Duration":121951,"SoundDuration":121951,"Delta":21570205},{"NoteNumber":79,"Velocity":86,"Duration":121951,"SoundDuration":121951,"Delta":21570205},{"NoteNumber":70,"Velocity":72,"Duration":121951,"SoundDuration":121951,"Delta":21570205},{"NoteNumber":39,"Velocity":55,"Duration":121951,"SoundDuration":121951,"Delta":21570205},{"NoteNumber":51,"Velocity":65,"Duration":121951,"SoundDuration":121951,"Delta":21570205},{"NoteNumber":79,"Velocity":75,"Duration":111284,"SoundDuration":111284,"Delta":21814108},{"NoteNumber":83,"Velocity":89,"Duration":111284,"SoundDuration":111284,"Delta":21814108},{"NoteNumber":71,"Velocity":75,"Duration":111284,"SoundDuration":111284,"Delta":21814108},{"NoteNumber":41,"Velocity":56,"Duration":111284,"SoundDuration":111284,"Delta":21814108},{"NoteNumber":53,"Velocity":67,"Duration":111284,"SoundDuration":111284,"Delta":21814108},{"NoteNumber":72,"Velocity":78,"Duration":113541,"SoundDuration":113541,"Delta":22259245},{"NoteNumber":84,"Velocity":92,"Duration":113541,"SoundDuration":113541,"Delta":22259245},{"NoteNumber":79,"Velocity":78,"Duration":113541,"SoundDuration":113541,"Delta":22259245},{"NoteNumber":39,"Velocity":57,"Duration":113541,"SoundDuration":113541,"Delta":22259245},{"NoteNumber":51,"Velocity":68,"Duration":113541,"SoundDuration":113541,"Delta":22259245},{"NoteNumber":86,"Velocity":94,"Duration":111723,"SoundDuration":111723,"Delta":22713412},{"NoteNumber":79,"Velocity":79,"Duration":111723,"SoundDuration":111723,"Delta":22713412},{"NoteNumber":74,"Velocity":79,"Duration":111723,"SoundDuration":111723,"Delta":22713412},{"NoteNumber":35,"Velocity":59,"Duration":111723,"SoundDuration":111723,"Delta":22713412},{"NoteNumber":47,"Velocity":70,"Duration":111723,"SoundDuration":111723,"Delta":22713412},{"NoteNumber":75,"Velocity":81,"Duration":113998,"SoundDuration":113998,"Delta":23160306},{"NoteNumber":79,"Velocity":81,"Duration":113998,"SoundDuration":113998,"Delta":23160306},{"NoteNumber":87,"Velocity":96,"Duration":113998,"SoundDuration":113998,"Delta":23160306},{"NoteNumber":36,"Velocity":62,"Duration":113998,"SoundDuration":113998,"Delta":23160306},{"NoteNumber":48,"Velocity":73,"Duration":113998,"SoundDuration":113998,"Delta":23160306},{"NoteNumber":77,"Velocity":81,"Duration":117352,"SoundDuration":117352,"Delta":23616861},{"NoteNumber":84,"Velocity":81,"Duration":117352,"SoundDuration":117352,"Delta":23616861},{"NoteNumber":89,"Velocity":96,"Duration":117352,"SoundDuration":117352,"Delta":23616861},{"NoteNumber":33,"Velocity":62,"Duration":117352,"SoundDuration":117352,"Delta":23616861},{"NoteNumber":45,"Velocity":73,"Duration":117352,"SoundDuration":117352,"Delta":23616861},{"NoteNumber":78,"Velocity":89,"Duration":938819,"SoundDuration":938819,"Delta":24086271},{"NoteNumber":90,"Velocity":105,"Duration":938819,"SoundDuration":938819,"Delta":24086271},{"NoteNumber":86,"Velocity":89,"Duration":938819,"SoundDuration":938819,"Delta":24086271},{"NoteNumber":84,"Velocity":89,"Duration":938819,"SoundDuration":938819,"Delta":24086271},{"NoteNumber":32,"Velocity":62,"Duration":938819,"SoundDuration":938819,"Delta":24086271},{"NoteNumber":38,"Velocity":62,"Duration":938819,"SoundDuration":938819,"Delta":24086271},{"NoteNumber":44,"Velocity":73,"Duration":938819,"SoundDuration":938819,"Delta":24086271},{"NoteNumber":84,"Velocity":89,"Duration":924955,"SoundDuration":924955,"Delta":25025091},{"NoteNumber":79,"Velocity":89,"Duration":924955,"SoundDuration":924955,"Delta":25025091},{"NoteNumber":91,"Velocity":105,"Duration":924955,"SoundDuration":924955,"Delta":25025091},{"NoteNumber":86,"Velocity":89,"Duration":924955,"SoundDuration":924955,"Delta":25025091},{"NoteNumber":31,"Velocity":62,"Duration":924955,"SoundDuration":924955,"Delta":25025091},{"NoteNumber":38,"Velocity":62,"Duration":924955,"SoundDuration":924955,"Delta":25025091},{"NoteNumber":43,"Velocity":73,"Duration":924955,"SoundDuration":924955,"Delta":25025091},{"NoteNumber":81,"Velocity":89,"Duration":892110,"SoundDuration":892110,"Delta":25950047},{"NoteNumber":86,"Velocity":89,"Duration":892110,"SoundDuration":892110,"Delta":25950047},{"NoteNumber":93,"Velocity":105,"Duration":892110,"SoundDuration":892110,"Delta":25950047},{"NoteNumber":84,"Velocity":89,"Duration":892110,"SoundDuration":892110,"Delta":25950047},{"NoteNumber":30,"Velocity":62,"Duration":892110,"SoundDuration":892110,"Delta":25950047},{"NoteNumber":38,"Velocity":62,"Duration":892110,"SoundDuration":892110,"Delta":25950047},{"NoteNumber":42,"Velocity":73,"Duration":892110,"SoundDuration":892110,"Delta":25950047},{"NoteNumber":81,"Velocity":89,"Duration":665631,"SoundDuration":665631,"Delta":26861139},{"NoteNumber":93,"Velocity":105,"Duration":665631,"SoundDuration":665631,"Delta":26861139},{"NoteNumber":84,"Velocity":89,"Duration":665631,"SoundDuration":665631,"Delta":26861139},{"NoteNumber":86,"Velocity":89,"Duration":665631,"SoundDuration":665631,"Delta":26861139},{"NoteNumber":30,"Velocity":62,"Duration":443753,"SoundDuration":443753,"Delta":26861139},{"NoteNumber":38,"Velocity":62,"Duration":443753,"SoundDuration":443753,"Delta":26861139},{"NoteNumber":42,"Velocity":73,"Duration":443753,"SoundDuration":443753,"Delta":26861139},{"NoteNumber":31,"Velocity":51,"Duration":110938,"SoundDuration":110938,"Delta":27304893},{"NoteNumber":38,"Velocity":51,"Duration":110938,"SoundDuration":110938,"Delta":27304893},{"NoteNumber":43,"Velocity":61,"Duration":110938,"SoundDuration":110938,"Delta":27304893},{"NoteNumber":91,"Velocity":83,"Duration":110938,"SoundDuration":110938,"Delta":27526770},{"NoteNumber":79,"Velocity":70,"Duration":110938,"SoundDuration":110938,"Delta":27526770},{"NoteNumber":83,"Velocity":70,"Duration":110938,"SoundDuration":110938,"Delta":27526770},{"NoteNumber":77,"Velocity":74,"Duration":108139,"SoundDuration":108139,"Delta":27748647},{"NoteNumber":89,"Velocity":88,"Duration":108139,"SoundDuration":108139,"Delta":27748647},{"NoteNumber":50,"Velocity":58,"Duration":884550,"SoundDuration":884550,"Delta":27748647},{"NoteNumber":53,"Velocity":58,"Duration":884550,"SoundDuration":884550,"Delta":27748647},{"NoteNumber":59,"Velocity":69,"Duration":884550,"SoundDuration":884550,"Delta":27748647},{"NoteNumber":55,"Velocity":58,"Duration":884550,"SoundDuration":884550,"Delta":27748647},{"NoteNumber":74,"Velocity":63,"Duration":112183,"SoundDuration":112183,"Delta":27964925},{"NoteNumber":86,"Velocity":75,"Duration":112183,"SoundDuration":112183,"Delta":27964925},{"NoteNumber":83,"Velocity":87,"Duration":108924,"SoundDuration":108924,"Delta":28189291},{"NoteNumber":71,"Velocity":73,"Duration":108924,"SoundDuration":108924,"Delta":28189291},{"NoteNumber":79,"Velocity":70,"Duration":113028,"SoundDuration":113028,"Delta":28407140},{"NoteNumber":67,"Velocity":59,"Duration":113028,"SoundDuration":113028,"Delta":28407140},{"NoteNumber":77,"Velocity":83,"Duration":110529,"SoundDuration":110529,"Delta":28633197},{"NoteNumber":65,"Velocity":70,"Duration":110529,"SoundDuration":110529,"Delta":28633197},{"NoteNumber":31,"Velocity":48,"Duration":110529,"SoundDuration":110529,"Delta":28633197},{"NoteNumber":43,"Velocity":57,"Duration":110529,"SoundDuration":110529,"Delta":28633197},{"NoteNumber":74,"Velocity":68,"Duration":118380,"SoundDuration":118380,"Delta":28854257},{"NoteNumber":62,"Velocity":57,"Duration":118380,"SoundDuration":118380,"Delta":28854257},{"NoteNumber":60,"Velocity":68,"Duration":659180,"SoundDuration":659180,"Delta":29091018},{"NoteNumber":72,"Velocity":80,"Duration":659180,"SoundDuration":659180,"Delta":29091018},{"NoteNumber":64,"Velocity":68,"Duration":659180,"SoundDuration":659180,"Delta":29091018},{"NoteNumber":36,"Velocity":54,"Duration":110529,"SoundDuration":110529,"Delta":29091018},{"NoteNumber":43,"Velocity":54,"Duration":110529,"SoundDuration":110529,"Delta":29091018},{"NoteNumber":48,"Velocity":64,"Duration":110529,"SoundDuration":110529,"Delta":29091018},{"NoteNumber":48,"Velocity":34,"Duration":195354,"SoundDuration":195354,"Delta":29750198},{"NoteNumber":52,"Velocity":40,"Duration":195354,"SoundDuration":195354,"Delta":29750198},{"NoteNumber":48,"Velocity":39,"Duration":434122,"SoundDuration":434122,"Delta":29967259},{"NoteNumber":52,"Velocity":46,"Duration":434122,"SoundDuration":434122,"Delta":29967259},{"NoteNumber":50,"Velocity":34,"Duration":106982,"SoundDuration":106982,"Delta":30401381},{"NoteNumber":53,"Velocity":41,"Duration":106982,"SoundDuration":106982,"Delta":30401381},{"NoteNumber":60,"Velocity":40,"Duration":201929,"SoundDuration":201929,"Delta":30615346},{"NoteNumber":52,"Velocity":36,"Duration":112183,"SoundDuration":112183,"Delta":30615346},{"NoteNumber":55,"Velocity":43,"Duration":112183,"SoundDuration":112183,"Delta":30615346},{"NoteNumber":60,"Velocity":48,"Duration":432369,"SoundDuration":432369,"Delta":30839712},{"NoteNumber":53,"Velocity":39,"Duration":108092,"SoundDuration":108092,"Delta":30839712},{"NoteNumber":57,"Velocity":46,"Duration":108092,"SoundDuration":108092,"Delta":30839712},{"NoteNumber":62,"Velocity":41,"Duration":106982,"SoundDuration":106982,"Delta":31272082},{"NoteNumber":52,"Velocity":34,"Duration":106982,"SoundDuration":106982,"Delta":31272082},{"NoteNumber":55,"Velocity":40,"Duration":106982,"SoundDuration":106982,"Delta":31272082},{"NoteNumber":64,"Velocity":46,"Duration":110938,"SoundDuration":110938,"Delta":31486047},{"NoteNumber":65,"Velocity":51,"Duration":411390,"SoundDuration":411390,"Delta":31707924},{"NoteNumber":55,"Velocity":37,"Duration":429277,"SoundDuration":429277,"Delta":31707924},{"NoteNumber":59,"Velocity":44,"Duration":429277,"SoundDuration":429277,"Delta":31707924},{"NoteNumber":65,"Velocity":45,"Duration":193174,"SoundDuration":193174,"Delta":32137201},{"NoteNumber":60,"Velocity":41,"Duration":107319,"SoundDuration":107319,"Delta":32137201},{"NoteNumber":57,"Velocity":34,"Duration":107319,"SoundDuration":107319,"Delta":32137201},{"NoteNumber":65,"Velocity":37,"Duration":201929,"SoundDuration":201929,"Delta":32351839},{"NoteNumber":67,"Velocity":46,"Duration":201929,"SoundDuration":201929,"Delta":32351839},{"NoteNumber":59,"Velocity":37,"Duration":112183,"SoundDuration":112183,"Delta":32351839},{"NoteNumber":62,"Velocity":44,"Duration":112183,"SoundDuration":112183,"Delta":32351839},{"NoteNumber":67,"Velocity":49,"Duration":429276,"SoundDuration":429276,"Delta":32576205},{"NoteNumber":65,"Velocity":47,"Duration":429276,"SoundDuration":429276,"Delta":32576205},{"NoteNumber":60,"Velocity":39,"Duration":429276,"SoundDuration":429276,"Delta":32576205},{"NoteNumber":69,"Velocity":45,"Duration":106224,"SoundDuration":106224,"Delta":33005482},{"NoteNumber":64,"Velocity":44,"Duration":106224,"SoundDuration":106224,"Delta":33005482},{"NoteNumber":60,"Velocity":37,"Duration":106224,"SoundDuration":106224,"Delta":33005482},{"NoteNumber":71,"Velocity":45,"Duration":110938,"SoundDuration":110938,"Delta":33217932},{"NoteNumber":79,"Velocity":51,"Duration":199689,"SoundDuration":199689,"Delta":33217932},{"NoteNumber":62,"Velocity":40,"Duration":110938,"SoundDuration":110938,"Delta":33217932},{"NoteNumber":55,"Velocity":34,"Duration":110938,"SoundDuration":110938,"Delta":33217932},{"NoteNumber":79,"Velocity":55,"Duration":641852,"SoundDuration":641852,"Delta":33439809},{"NoteNumber":72,"Velocity":49,"Duration":432369,"SoundDuration":432369,"Delta":33439809},{"NoteNumber":64,"Velocity":49,"Duration":432369,"SoundDuration":432369,"Delta":33439809},{"NoteNumber":60,"Velocity":41,"Duration":432369,"SoundDuration":432369,"Delta":33439809},{"NoteNumber":74,"Velocity":47,"Duration":104741,"SoundDuration":104741,"Delta":33872179},{"NoteNumber":62,"Velocity":42,"Duration":104741,"SoundDuration":104741,"Delta":33872179},{"NoteNumber":55,"Velocity":35,"Duration":104741,"SoundDuration":104741,"Delta":33872179},{"NoteNumber":76,"Velocity":55,"Duration":110075,"SoundDuration":110075,"Delta":34081661},{"NoteNumber":79,"Velocity":55,"Duration":198135,"SoundDuration":198135,"Delta":34081661},{"NoteNumber":52,"Velocity":35,"Duration":110075,"SoundDuration":110075,"Delta":34081661},{"NoteNumber":60,"Velocity":42,"Duration":110075,"SoundDuration":110075,"Delta":34081661},{"NoteNumber":79,"Velocity":62,"Duration":204959,"SoundDuration":204959,"Delta":34301812},{"NoteNumber":77,"Velocity":53,"Duration":623342,"SoundDuration":623342,"Delta":34301812},{"NoteNumber":59,"Velocity":49,"Duration":623342,"SoundDuration":623342,"Delta":34301812},{"NoteNumber":55,"Velocity":41,"Duration":623342,"SoundDuration":623342,"Delta":34301812},{"NoteNumber":78,"Velocity":53,"Duration":216185,"SoundDuration":216185,"Delta":34506772},{"NoteNumber":81,"Velocity":63,"Duration":101098,"SoundDuration":101098,"Delta":34722957},{"NoteNumber":76,"Velocity":45,"Duration":214402,"SoundDuration":214402,"Delta":34925154},{"NoteNumber":79,"Velocity":54,"Duration":108924,"SoundDuration":108924,"Delta":34925154},{"NoteNumber":64,"Velocity":44,"Duration":193306,"SoundDuration":193306,"Delta":34925154},{"NoteNumber":60,"Velocity":37,"Duration":193306,"SoundDuration":193306,"Delta":34925154},{"NoteNumber":79,"Velocity":59,"Duration":210955,"SoundDuration":210955,"Delta":35139557},{"NoteNumber":76,"Velocity":50,"Duration":640281,"SoundDuration":640281,"Delta":35139557},{"NoteNumber":64,"Velocity":53,"Duration":640281,"SoundDuration":640281,"Delta":35139557},{"NoteNumber":60,"Velocity":45,"Duration":640281,"SoundDuration":640281,"Delta":35139557},{"NoteNumber":78,"Velocity":50,"Duration":224366,"SoundDuration":224366,"Delta":35350512},{"NoteNumber":81,"Velocity":59,"Duration":102479,"SoundDuration":102479,"Delta":35574878},{"NoteNumber":72,"Velocity":42,"Duration":237698,"SoundDuration":237698,"Delta":35779838},{"NoteNumber":79,"Velocity":50,"Duration":118849,"SoundDuration":118849,"Delta":35779838},{"NoteNumber":67,"Velocity":47,"Duration":213929,"SoundDuration":213929,"Delta":35779838},{"NoteNumber":64,"Velocity":39,"Duration":213929,"SoundDuration":213929,"Delta":35779838},{"NoteNumber":73,"Velocity":55,"Duration":452114,"SoundDuration":452114,"Delta":36017537},{"NoteNumber":82,"Velocity":65,"Duration":452114,"SoundDuration":452114,"Delta":36017537},{"NoteNumber":67,"Velocity":54,"Duration":452114,"SoundDuration":452114,"Delta":36017537},{"NoteNumber":64,"Velocity":45,"Duration":452114,"SoundDuration":452114,"Delta":36017537},{"NoteNumber":81,"Velocity":59,"Duration":113028,"SoundDuration":113028,"Delta":36469651},{"NoteNumber":74,"Velocity":50,"Duration":113028,"SoundDuration":113028,"Delta":36469651},{"NoteNumber":65,"Velocity":50,"Duration":113028,"SoundDuration":113028,"Delta":36469651},{"NoteNumber":50,"Velocity":39,"Duration":434122,"SoundDuration":434122,"Delta":36921765},{"NoteNumber":53,"Velocity":46,"Duration":434122,"SoundDuration":434122,"Delta":36921765},{"NoteNumber":52,"Velocity":34,"Duration":106179,"SoundDuration":106179,"Delta":37355887},{"NoteNumber":55,"Velocity":41,"Duration":106179,"SoundDuration":106179,"Delta":37355887},{"NoteNumber":62,"Velocity":40,"Duration":201929,"SoundDuration":201929,"Delta":37568247},{"NoteNumber":53,"Velocity":36,"Duration":112183,"SoundDuration":112183,"Delta":37568247},{"NoteNumber":57,"Velocity":43,"Duration":112183,"SoundDuration":112183,"Delta":37568247},{"NoteNumber":62,"Velocity":48,"Duration":433934,"SoundDuration":433934,"Delta":37792613},{"NoteNumber":55,"Velocity":39,"Duration":108483,"SoundDuration":108483,"Delta":37792613},{"NoteNumber":58,"Velocity":46,"Duration":108483,"SoundDuration":108483,"Delta":37792613},{"NoteNumber":64,"Velocity":41,"Duration":106982,"SoundDuration":106982,"Delta":38226547},{"NoteNumber":53,"Velocity":34,"Duration":106982,"SoundDuration":106982,"Delta":38226547},{"NoteNumber":57,"Velocity":40,"Duration":106982,"SoundDuration":106982,"Delta":38226547},{"NoteNumber":65,"Velocity":46,"Duration":110938,"SoundDuration":110938,"Delta":38440512},{"NoteNumber":67,"Velocity":51,"Duration":429276,"SoundDuration":429276,"Delta":38662389},{"NoteNumber":57,"Velocity":37,"Duration":429276,"SoundDuration":429276,"Delta":38662389},{"NoteNumber":61,"Velocity":44,"Duration":429276,"SoundDuration":429276,"Delta":38662389},{"NoteNumber":67,"Velocity":45,"Duration":214638,"SoundDuration":214638,"Delta":39091666},{"NoteNumber":62,"Velocity":41,"Duration":107319,"SoundDuration":107319,"Delta":39091666},{"NoteNumber":59,"Velocity":34,"Duration":107319,"SoundDuration":107319,"Delta":39091666},{"NoteNumber":69,"Velocity":46,"Duration":201929,"SoundDuration":201929,"Delta":39306304},{"NoteNumber":67,"Velocity":37,"Duration":201929,"SoundDuration":201929,"Delta":39306304},{"NoteNumber":61,"Velocity":37,"Duration":112183,"SoundDuration":112183,"Delta":39306304},{"NoteNumber":64,"Velocity":44,"Duration":112183,"SoundDuration":112183,"Delta":39306304},{"NoteNumber":69,"Velocity":49,"Duration":432557,"SoundDuration":432557,"Delta":39530670},{"NoteNumber":67,"Velocity":47,"Duration":432557,"SoundDuration":432557,"Delta":39530670},{"NoteNumber":62,"Velocity":39,"Duration":432557,"SoundDuration":432557,"Delta":39530670},{"NoteNumber":71,"Velocity":45,"Duration":106224,"SoundDuration":106224,"Delta":39963227},{"NoteNumber":65,"Velocity":44,"Duration":106224,"SoundDuration":106224,"Delta":39963227},{"NoteNumber":62,"Velocity":37,"Duration":106224,"SoundDuration":106224,"Delta":39963227},{"NoteNumber":73,"Velocity":45,"Duration":110938,"SoundDuration":110938,"Delta":40175677},{"NoteNumber":81,"Velocity":51,"Duration":199689,"SoundDuration":199689,"Delta":40175677},{"NoteNumber":64,"Velocity":40,"Duration":110938,"SoundDuration":110938,"Delta":40175677},{"NoteNumber":57,"Velocity":34,"Duration":110938,"SoundDuration":110938,"Delta":40175677},{"NoteNumber":74,"Velocity":49,"Duration":429276,"SoundDuration":429276,"Delta":40397554},{"NoteNumber":81,"Velocity":55,"Duration":634939,"SoundDuration":634939,"Delta":40397554},{"NoteNumber":65,"Velocity":49,"Duration":429276,"SoundDuration":429276,"Delta":40397554},{"NoteNumber":62,"Velocity":41,"Duration":429276,"SoundDuration":429276,"Delta":40397554},{"NoteNumber":76,"Velocity":47,"Duration":102831,"SoundDuration":102831,"Delta":40826831},{"NoteNumber":64,"Velocity":42,"Duration":102831,"SoundDuration":102831,"Delta":40826831},{"NoteNumber":57,"Velocity":35,"Duration":102831,"SoundDuration":102831,"Delta":40826831},{"NoteNumber":81,"Velocity":55,"Duration":201929,"SoundDuration":201929,"Delta":41032493},{"NoteNumber":77,"Velocity":55,"Duration":112183,"SoundDuration":112183,"Delta":41032493},{"NoteNumber":53,"Velocity":35,"Duration":112183,"SoundDuration":112183,"Delta":41032493},{"NoteNumber":62,"Velocity":42,"Duration":112183,"SoundDuration":112183,"Delta":41032493},{"NoteNumber":79,"Velocity":53,"Duration":627391,"SoundDuration":627391,"Delta":41256859},{"NoteNumber":81,"Velocity":62,"Duration":202880,"SoundDuration":202880,"Delta":41256859},{"NoteNumber":61,"Velocity":49,"Duration":627391,"SoundDuration":627391,"Delta":41256859},{"NoteNumber":57,"Velocity":41,"Duration":627391,"SoundDuration":627391,"Delta":41256859},{"NoteNumber":80,"Velocity":53,"Duration":220247,"SoundDuration":220247,"Delta":41459740},{"NoteNumber":82,"Velocity":63,"Duration":102131,"SoundDuration":102131,"Delta":41679988},{"NoteNumber":77,"Velocity":45,"Duration":214402,"SoundDuration":214402,"Delta":41884251},{"NoteNumber":81,"Velocity":54,"Duration":108924,"SoundDuration":108924,"Delta":41884251},{"NoteNumber":65,"Velocity":44,"Duration":193306,"SoundDuration":193306,"Delta":41884251},{"NoteNumber":62,"Velocity":37,"Duration":193306,"SoundDuration":193306,"Delta":41884251},{"NoteNumber":81,"Velocity":59,"Duration":206369,"SoundDuration":206369,"Delta":42098653},{"NoteNumber":77,"Velocity":50,"Duration":641691,"SoundDuration":641691,"Delta":42098653},{"NoteNumber":65,"Velocity":53,"Duration":641691,"SoundDuration":641691,"Delta":42098653},{"NoteNumber":62,"Velocity":45,"Duration":641691,"SoundDuration":641691,"Delta":42098653},{"NoteNumber":80,"Velocity":50,"Duration":224366,"SoundDuration":224366,"Delta":42305023},{"NoteNumber":82,"Velocity":59,"Duration":105477,"SoundDuration":105477,"Delta":42529389},{"NoteNumber":81,"Velocity":50,"Duration":118849,"SoundDuration":118849,"Delta":42740344},{"NoteNumber":74,"Velocity":42,"Duration":237698,"SoundDuration":237698,"Delta":42740344},{"NoteNumber":69,"Velocity":47,"Duration":213929,"SoundDuration":213929,"Delta":42740344},{"NoteNumber":65,"Velocity":39,"Duration":213929,"SoundDuration":213929,"Delta":42740344},{"NoteNumber":75,"Velocity":55,"Duration":452114,"SoundDuration":452114,"Delta":42978043},{"NoteNumber":84,"Velocity":69,"Duration":452114,"SoundDuration":452114,"Delta":42978043},{"NoteNumber":69,"Velocity":54,"Duration":452114,"SoundDuration":452114,"Delta":42978043},{"NoteNumber":66,"Velocity":45,"Duration":452114,"SoundDuration":452114,"Delta":42978043},{"NoteNumber":76,"Velocity":50,"Duration":113028,"SoundDuration":113028,"Delta":43430157},{"NoteNumber":83,"Velocity":59,"Duration":113028,"SoundDuration":113028,"Delta":43430157},{"NoteNumber":67,"Velocity":50,"Duration":113028,"SoundDuration":113028,"Delta":43430157},{"NoteNumber":52,"Velocity":37,"Duration":432557,"SoundDuration":432557,"Delta":43882271},{"NoteNumber":55,"Velocity":44,"Duration":432557,"SoundDuration":432557,"Delta":43882271},{"NoteNumber":57,"Velocity":41,"Duration":105849,"SoundDuration":105849,"Delta":44314828},{"NoteNumber":54,"Velocity":34,"Duration":105849,"SoundDuration":105849,"Delta":44314828},{"NoteNumber":55,"Velocity":37,"Duration":109721,"SoundDuration":109721,"Delta":44526528},{"NoteNumber":59,"Velocity":44,"Duration":109721,"SoundDuration":109721,"Delta":44526528},{"NoteNumber":88,"Velocity":78,"Duration":443753,"SoundDuration":443753,"Delta":44745971},{"NoteNumber":78,"Velocity":66,"Duration":665630,"SoundDuration":665630,"Delta":44745971},{"NoteNumber":60,"Velocity":54,"Duration":665630,"SoundDuration":665630,"Delta":44745971},{"NoteNumber":57,"Velocity":45,"Duration":665630,"SoundDuration":665630,"Delta":44745971},{"NoteNumber":87,"Velocity":69,"Duration":110938,"SoundDuration":110938,"Delta":45189725},{"NoteNumber":55,"Velocity":44,"Duration":432557,"SoundDuration":432557,"Delta":45633479},{"NoteNumber":64,"Velocity":52,"Duration":432557,"SoundDuration":432557,"Delta":45633479},{"NoteNumber":66,"Velocity":46,"Duration":105849,"SoundDuration":105849,"Delta":46066036},{"NoteNumber":57,"Velocity":39,"Duration":105849,"SoundDuration":105849,"Delta":46066036},{"NoteNumber":59,"Velocity":41,"Duration":112183,"SoundDuration":112183,"Delta":46277736},{"NoteNumber":67,"Velocity":49,"Duration":112183,"SoundDuration":112183,"Delta":46277736},{"NoteNumber":81,"Velocity":68,"Duration":651338,"SoundDuration":651338,"Delta":46502102},{"NoteNumber":91,"Velocity":81,"Duration":429461,"SoundDuration":429461,"Delta":46502102},{"NoteNumber":60,"Velocity":51,"Duration":429461,"SoundDuration":429461,"Delta":46502102},{"NoteNumber":69,"Velocity":60,"Duration":429461,"SoundDuration":429461,"Delta":46502102},{"NoteNumber":63,"Velocity":51,"Duration":429461,"SoundDuration":429461,"Delta":46502102},{"NoteNumber":90,"Velocity":72,"Duration":110938,"SoundDuration":110938,"Delta":46931563},{"NoteNumber":60,"Velocity":47,"Duration":199689,"SoundDuration":199689,"Delta":47153440},{"NoteNumber":63,"Velocity":47,"Duration":199689,"SoundDuration":199689,"Delta":47153440},{"NoteNumber":69,"Velocity":56,"Duration":199689,"SoundDuration":199689,"Delta":47153440},{"NoteNumber":93,"Velocity":80,"Duration":434122,"SoundDuration":434122,"Delta":47375317},{"NoteNumber":82,"Velocity":68,"Duration":434122,"SoundDuration":434122,"Delta":47375317},{"NoteNumber":61,"Velocity":54,"Duration":434122,"SoundDuration":434122,"Delta":47375317},{"NoteNumber":70,"Velocity":64,"Duration":434122,"SoundDuration":434122,"Delta":47375317},{"NoteNumber":64,"Velocity":54,"Duration":434122,"SoundDuration":434122,"Delta":47375317},{"NoteNumber":91,"Velocity":74,"Duration":112183,"SoundDuration":112183,"Delta":47809439},{"NoteNumber":51,"Velocity":50,"Duration":192568,"SoundDuration":192568,"Delta":48921349},{"NoteNumber":47,"Velocity":50,"Duration":192568,"SoundDuration":192568,"Delta":48921349},{"NoteNumber":51,"Velocity":58,"Duration":427930,"SoundDuration":427930,"Delta":49135314},{"NoteNumber":47,"Velocity":58,"Duration":427930,"SoundDuration":427930,"Delta":49135314},{"NoteNumber":49,"Velocity":51,"Duration":106982,"SoundDuration":106982,"Delta":49563244},{"NoteNumber":52,"Velocity":51,"Duration":106982,"SoundDuration":106982,"Delta":49563244},{"NoteNumber":51,"Velocity":53,"Duration":109721,"SoundDuration":109721,"Delta":49777209},{"NoteNumber":54,"Velocity":53,"Duration":109721,"SoundDuration":109721,"Delta":49777209},{"NoteNumber":76,"Velocity":63,"Duration":426408,"SoundDuration":426408,"Delta":49996652},{"NoteNumber":64,"Velocity":53,"Duration":426408,"SoundDuration":426408,"Delta":49996652},{"NoteNumber":52,"Velocity":61,"Duration":426408,"SoundDuration":426408,"Delta":49996652},{"NoteNumber":56,"Velocity":61,"Duration":408641,"SoundDuration":408641,"Delta":49996652},{"NoteNumber":75,"Velocity":61,"Duration":106602,"SoundDuration":106602,"Delta":50423061},{"NoteNumber":59,"Velocity":54,"Duration":106602,"SoundDuration":106602,"Delta":50423061},{"NoteNumber":56,"Velocity":54,"Duration":106602,"SoundDuration":106602,"Delta":50423061},{"NoteNumber":73,"Velocity":61,"Duration":110123,"SoundDuration":110123,"Delta":50636265},{"NoteNumber":61,"Velocity":58,"Duration":110123,"SoundDuration":110123,"Delta":50636265},{"NoteNumber":57,"Velocity":58,"Duration":110123,"SoundDuration":110123,"Delta":50636265},{"NoteNumber":71,"Velocity":58,"Duration":423400,"SoundDuration":423400,"Delta":50856513},{"NoteNumber":81,"Velocity":69,"Duration":423400,"SoundDuration":423400,"Delta":50856513},{"NoteNumber":63,"Velocity":61,"Duration":423400,"SoundDuration":423400,"Delta":50856513},{"NoteNumber":59,"Velocity":61,"Duration":423400,"SoundDuration":423400,"Delta":50856513},{"NoteNumber":80,"Velocity":61,"Duration":105849,"SoundDuration":105849,"Delta":51279913},{"NoteNumber":61,"Velocity":59,"Duration":105849,"SoundDuration":105849,"Delta":51279913},{"NoteNumber":64,"Velocity":59,"Duration":105849,"SoundDuration":105849,"Delta":51279913},{"NoteNumber":78,"Velocity":61,"Duration":109321,"SoundDuration":109321,"Delta":51491613},{"NoteNumber":63,"Velocity":61,"Duration":109321,"SoundDuration":109321,"Delta":51491613},{"NoteNumber":66,"Velocity":61,"Duration":109321,"SoundDuration":109321,"Delta":51491613},{"NoteNumber":76,"Velocity":61,"Duration":849292,"SoundDuration":849292,"Delta":51710256},{"NoteNumber":83,"Velocity":72,"Duration":420433,"SoundDuration":420433,"Delta":51710256},{"NoteNumber":64,"Velocity":63,"Duration":420433,"SoundDuration":420433,"Delta":51710256},{"NoteNumber":68,"Velocity":63,"Duration":420433,"SoundDuration":420433,"Delta":51710256},{"NoteNumber":81,"Velocity":65,"Duration":105108,"SoundDuration":105108,"Delta":52130689},{"NoteNumber":66,"Velocity":61,"Duration":105108,"SoundDuration":105108,"Delta":52130689},{"NoteNumber":69,"Velocity":61,"Duration":105108,"SoundDuration":105108,"Delta":52130689},{"NoteNumber":80,"Velocity":61,"Duration":109321,"SoundDuration":109321,"Delta":52340906},{"NoteNumber":68,"Velocity":64,"Duration":109321,"SoundDuration":109321,"Delta":52340906},{"NoteNumber":71,"Velocity":64,"Duration":109321,"SoundDuration":109321,"Delta":52340906},{"NoteNumber":76,"Velocity":59,"Duration":418965,"SoundDuration":418965,"Delta":52559549},{"NoteNumber":78,"Velocity":70,"Duration":209482,"SoundDuration":209482,"Delta":52559549},{"NoteNumber":69,"Velocity":69,"Duration":209482,"SoundDuration":209482,"Delta":52559549},{"NoteNumber":72,"Velocity":69,"Duration":209482,"SoundDuration":209482,"Delta":52559549},{"NoteNumber":79,"Velocity":61,"Duration":188534,"SoundDuration":188534,"Delta":52769031},{"NoteNumber":70,"Velocity":63,"Duration":188534,"SoundDuration":188534,"Delta":52769031},{"NoteNumber":73,"Velocity":63,"Duration":188534,"SoundDuration":188534,"Delta":52769031},{"NoteNumber":79,"Velocity":63,"Duration":628447,"SoundDuration":628447,"Delta":52978514},{"NoteNumber":76,"Velocity":53,"Duration":837930,"SoundDuration":837930,"Delta":52978514},{"NoteNumber":70,"Velocity":63,"Duration":628447,"SoundDuration":628447,"Delta":52978514},{"NoteNumber":73,"Velocity":63,"Duration":628447,"SoundDuration":628447,"Delta":52978514},{"NoteNumber":78,"Velocity":67,"Duration":209482,"SoundDuration":209482,"Delta":53606961},{"NoteNumber":69,"Velocity":60,"Duration":209482,"SoundDuration":209482,"Delta":53606961},{"NoteNumber":72,"Velocity":60,"Duration":209482,"SoundDuration":209482,"Delta":53606961},{"NoteNumber":76,"Velocity":59,"Duration":417507,"SoundDuration":417507,"Delta":53816444},{"NoteNumber":78,"Velocity":70,"Duration":208753,"SoundDuration":208753,"Delta":53816444},{"NoteNumber":69,"Velocity":63,"Duration":208753,"SoundDuration":208753,"Delta":53816444},{"NoteNumber":72,"Velocity":63,"Duration":208753,"SoundDuration":208753,"Delta":53816444},{"NoteNumber":79,"Velocity":64,"Duration":187878,"SoundDuration":187878,"Delta":54025197},{"NoteNumber":70,"Velocity":57,"Duration":187878,"SoundDuration":187878,"Delta":54025197},{"NoteNumber":73,"Velocity":57,"Duration":187878,"SoundDuration":187878,"Delta":54025197},{"NoteNumber":79,"Velocity":64,"Duration":208753,"SoundDuration":208753,"Delta":54233951},{"NoteNumber":76,"Velocity":54,"Duration":429813,"SoundDuration":429813,"Delta":54233951},{"NoteNumber":70,"Velocity":57,"Duration":208753,"SoundDuration":208753,"Delta":54233951},{"NoteNumber":73,"Velocity":57,"Duration":208753,"SoundDuration":208753,"Delta":54233951},{"NoteNumber":80,"Velocity":61,"Duration":198953,"SoundDuration":198953,"Delta":54442704},{"NoteNumber":71,"Velocity":57,"Duration":198953,"SoundDuration":198953,"Delta":54442704},{"NoteNumber":74,"Velocity":57,"Duration":198953,"SoundDuration":198953,"Delta":54442704},{"NoteNumber":76,"Velocity":59,"Duration":837930,"SoundDuration":837930,"Delta":54663764},{"NoteNumber":80,"Velocity":70,"Duration":628447,"SoundDuration":628447,"Delta":54663764},{"NoteNumber":71,"Velocity":63,"Duration":628447,"SoundDuration":628447,"Delta":54663764},{"NoteNumber":74,"Velocity":63,"Duration":628447,"SoundDuration":628447,"Delta":54663764},{"NoteNumber":79,"Velocity":60,"Duration":209482,"SoundDuration":209482,"Delta":55292211},{"NoteNumber":70,"Velocity":63,"Duration":209482,"SoundDuration":209482,"Delta":55292211},{"NoteNumber":73,"Velocity":63,"Duration":209482,"SoundDuration":209482,"Delta":55292211},{"NoteNumber":79,"Velocity":62,"Duration":209482,"SoundDuration":209482,"Delta":55501694},{"NoteNumber":76,"Velocity":52,"Duration":418965,"SoundDuration":418965,"Delta":55501694},{"NoteNumber":70,"Velocity":68,"Duration":209482,"SoundDuration":209482,"Delta":55501694},{"NoteNumber":73,"Velocity":68,"Duration":209482,"SoundDuration":209482,"Delta":55501694},{"NoteNumber":80,"Velocity":64,"Duration":188534,"SoundDuration":188534,"Delta":55711176},{"NoteNumber":71,"Velocity":63,"Duration":188534,"SoundDuration":188534,"Delta":55711176},{"NoteNumber":74,"Velocity":63,"Duration":188534,"SoundDuration":188534,"Delta":55711176},{"NoteNumber":80,"Velocity":66,"Duration":209482,"SoundDuration":209482,"Delta":55920659},{"NoteNumber":76,"Velocity":56,"Duration":426543,"SoundDuration":426543,"Delta":55920659},{"NoteNumber":71,"Velocity":65,"Duration":209482,"SoundDuration":209482,"Delta":55920659},{"NoteNumber":74,"Velocity":65,"Duration":209482,"SoundDuration":209482,"Delta":55920659},{"NoteNumber":81,"Velocity":68,"Duration":195354,"SoundDuration":195354,"Delta":56130141},{"NoteNumber":72,"Velocity":63,"Duration":195354,"SoundDuration":195354,"Delta":56130141},{"NoteNumber":76,"Velocity":62,"Duration":606754,"SoundDuration":606754,"Delta":56347202},{"NoteNumber":81,"Velocity":74,"Duration":606754,"SoundDuration":606754,"Delta":56347202},{"NoteNumber":72,"Velocity":71,"Duration":606754,"SoundDuration":606754,"Delta":56347202},{"NoteNumber":82,"Velocity":69,"Duration":187227,"SoundDuration":187227,"Delta":56971292},{"NoteNumber":76,"Velocity":58,"Duration":187227,"SoundDuration":187227,"Delta":56971292},{"NoteNumber":73,"Velocity":63,"Duration":187227,"SoundDuration":187227,"Delta":56971292},{"NoteNumber":76,"Velocity":65,"Duration":203790,"SoundDuration":203790,"Delta":57179322},{"NoteNumber":82,"Velocity":77,"Duration":203790,"SoundDuration":203790,"Delta":57179322},{"NoteNumber":73,"Velocity":71,"Duration":203790,"SoundDuration":203790,"Delta":57179322},{"NoteNumber":79,"Velocity":57,"Duration":183411,"SoundDuration":183411,"Delta":57383113},{"NoteNumber":85,"Velocity":68,"Duration":183411,"SoundDuration":183411,"Delta":57383113},{"NoteNumber":70,"Velocity":63,"Duration":183411,"SoundDuration":183411,"Delta":57383113},{"NoteNumber":79,"Velocity":59,"Duration":203790,"SoundDuration":203790,"Delta":57586903},{"NoteNumber":85,"Velocity":70,"Duration":203790,"SoundDuration":203790,"Delta":57586903},{"NoteNumber":70,"Velocity":67,"Duration":203790,"SoundDuration":203790,"Delta":57586903},{"NoteNumber":82,"Velocity":70,"Duration":183411,"SoundDuration":183411,"Delta":57790694},{"NoteNumber":88,"Velocity":70,"Duration":183411,"SoundDuration":183411,"Delta":57790694},{"NoteNumber":67,"Velocity":63,"Duration":183411,"SoundDuration":183411,"Delta":57790694},{"NoteNumber":88,"Velocity":75,"Duration":203790,"SoundDuration":203790,"Delta":57994484},{"NoteNumber":82,"Velocity":75,"Duration":203790,"SoundDuration":203790,"Delta":57994484},{"NoteNumber":67,"Velocity":73,"Duration":203790,"SoundDuration":203790,"Delta":57994484},{"NoteNumber":91,"Velocity":73,"Duration":215502,"SoundDuration":215502,"Delta":58198275},{"NoteNumber":85,"Velocity":62,"Duration":215502,"SoundDuration":215502,"Delta":58198275},{"NoteNumber":58,"Velocity":67,"Duration":215502,"SoundDuration":215502,"Delta":58198275},{"NoteNumber":90,"Velocity":80,"Duration":107751,"SoundDuration":107751,"Delta":58413777},{"NoteNumber":87,"Velocity":68,"Duration":107751,"SoundDuration":107751,"Delta":58413777},{"NoteNumber":59,"Velocity":74,"Duration":107751,"SoundDuration":107751,"Delta":58413777},{"NoteNumber":47,"Velocity":70,"Duration":215502,"SoundDuration":215502,"Delta":58629279},{"NoteNumber":60,"Velocity":74,"Duration":607369,"SoundDuration":607369,"Delta":58844781},{"NoteNumber":48,"Velocity":62,"Duration":607369,"SoundDuration":607369,"Delta":58844781},{"NoteNumber":66,"Velocity":80,"Duration":1226705,"SoundDuration":1226705,"Delta":59049266},{"NoteNumber":78,"Velocity":85,"Duration":605980,"SoundDuration":605980,"Delta":59253751},{"NoteNumber":69,"Velocity":72,"Duration":1022220,"SoundDuration":1022220,"Delta":59253751},{"NoteNumber":35,"Velocity":69,"Duration":203790,"SoundDuration":203790,"Delta":59452150},{"NoteNumber":36,"Velocity":62,"Duration":416240,"SoundDuration":416240,"Delta":59655941},{"NoteNumber":48,"Velocity":74,"Duration":416240,"SoundDuration":416240,"Delta":59655941},{"NoteNumber":76,"Velocity":80,"Duration":212449,"SoundDuration":212449,"Delta":59859731},{"NoteNumber":75,"Velocity":84,"Duration":203790,"SoundDuration":203790,"Delta":60072181},{"NoteNumber":47,"Velocity":69,"Duration":203790,"SoundDuration":203790,"Delta":60275971},{"NoteNumber":48,"Velocity":58,"Duration":402848,"SoundDuration":402848,"Delta":60479762},{"NoteNumber":60,"Velocity":69,"Duration":402848,"SoundDuration":402848,"Delta":60479762},{"NoteNumber":78,"Velocity":83,"Duration":1255882,"SoundDuration":1255882,"Delta":60683552},{"NoteNumber":81,"Velocity":76,"Duration":1056824,"SoundDuration":1056824,"Delta":60882610},{"NoteNumber":90,"Velocity":90,"Duration":606639,"SoundDuration":606639,"Delta":60882610},{"NoteNumber":35,"Velocity":68,"Duration":203790,"SoundDuration":203790,"Delta":61086401},{"NoteNumber":36,"Velocity":62,"Duration":413023,"SoundDuration":413023,"Delta":61290191},{"NoteNumber":48,"Velocity":74,"Duration":413023,"SoundDuration":413023,"Delta":61290191},{"NoteNumber":88,"Velocity":85,"Duration":213965,"SoundDuration":213965,"Delta":61489249},{"NoteNumber":87,"Velocity":95,"Duration":236220,"SoundDuration":236220,"Delta":61703214},{"NoteNumber":35,"Velocity":64,"Duration":118110,"SoundDuration":118110,"Delta":61703214},{"NoteNumber":47,"Velocity":76,"Duration":118110,"SoundDuration":118110,"Delta":61703214},{"NoteNumber":93,"Velocity":99,"Duration":118110,"SoundDuration":118110,"Delta":62175655},{"NoteNumber":87,"Velocity":84,"Duration":118110,"SoundDuration":118110,"Delta":62175655},{"NoteNumber":90,"Velocity":84,"Duration":118110,"SoundDuration":118110,"Delta":62175655},{"NoteNumber":81,"Velocity":84,"Duration":118110,"SoundDuration":118110,"Delta":62175655},{"NoteNumber":47,"Velocity":65,"Duration":118110,"SoundDuration":118110,"Delta":62175655},{"NoteNumber":51,"Velocity":65,"Duration":118110,"SoundDuration":118110,"Delta":62175655},{"NoteNumber":54,"Velocity":65,"Duration":118110,"SoundDuration":118110,"Delta":62175655},{"NoteNumber":59,"Velocity":77,"Duration":118110,"SoundDuration":118110,"Delta":62175655},{"NoteNumber":66,"Velocity":77,"Duration":472440,"SoundDuration":472440,"Delta":63120537},{"NoteNumber":69,"Velocity":83,"Duration":1198046,"SoundDuration":1198046,"Delta":63592978},{"NoteNumber":60,"Velocity":64,"Duration":236220,"SoundDuration":236220,"Delta":63829199},{"NoteNumber":64,"Velocity":70,"Duration":236220,"SoundDuration":236220,"Delta":64065419},{"NoteNumber":76,"Velocity":63,"Duration":236220,"SoundDuration":236220,"Delta":64301640},{"NoteNumber":66,"Velocity":46,"Duration":540541,"SoundDuration":540541,"Delta":65044189},{"NoteNumber":69,"Velocity":49,"Duration":1626053,"SoundDuration":1626053,"Delta":65584730},{"NoteNumber":59,"Velocity":38,"Duration":315789,"SoundDuration":315789,"Delta":65900520},{"NoteNumber":63,"Velocity":42,"Duration":331491,"SoundDuration":331491,"Delta":66216309},{"NoteNumber":75,"Velocity":37,"Duration":331491,"SoundDuration":331491,"Delta":66547801},{"NoteNumber":66,"Velocity":46,"Duration":583827,"SoundDuration":583827,"Delta":67542275},{"NoteNumber":69,"Velocity":49,"Duration":1086730,"SoundDuration":1086730,"Delta":68126103},{"NoteNumber":60,"Velocity":26,"Duration":271213,"SoundDuration":271213,"Delta":68411792},{"NoteNumber":64,"Velocity":28,"Duration":265207,"SoundDuration":265207,"Delta":68683006},{"NoteNumber":60,"Velocity":22,"Duration":264620,"SoundDuration":264620,"Delta":68948213},{"NoteNumber":71,"Velocity":48,"Duration":800236,"SoundDuration":800236,"Delta":69212834},{"NoteNumber":64,"Velocity":28,"Duration":266635,"SoundDuration":266635,"Delta":69212834},{"NoteNumber":60,"Velocity":24,"Duration":267573,"SoundDuration":267573,"Delta":69479469},{"NoteNumber":64,"Velocity":24,"Duration":266027,"SoundDuration":266027,"Delta":69747043},{"NoteNumber":72,"Velocity":46,"Duration":260241,"SoundDuration":260241,"Delta":70013071},{"NoteNumber":69,"Velocity":20,"Duration":289433,"SoundDuration":289433,"Delta":70013071},{"NoteNumber":72,"Velocity":53,"Duration":1061703,"SoundDuration":1061703,"Delta":70302504},{"NoteNumber":62,"Velocity":23,"Duration":260033,"SoundDuration":260033,"Delta":70572118},{"NoteNumber":65,"Velocity":27,"Duration":266028,"SoundDuration":266028,"Delta":70832151},{"NoteNumber":62,"Velocity":22,"Duration":266027,"SoundDuration":266027,"Delta":71098179},{"NoteNumber":71,"Velocity":46,"Duration":532055,"SoundDuration":532055,"Delta":71364207},{"NoteNumber":65,"Velocity":27,"Duration":266028,"SoundDuration":266028,"Delta":71364207},{"NoteNumber":62,"Velocity":24,"Duration":266027,"SoundDuration":266027,"Delta":71630235},{"NoteNumber":65,"Velocity":24,"Duration":261735,"SoundDuration":261735,"Delta":71896263},{"NoteNumber":74,"Velocity":49,"Duration":273298,"SoundDuration":273298,"Delta":72157999},{"NoteNumber":69,"Velocity":20,"Duration":273298,"SoundDuration":273298,"Delta":72157999},{"NoteNumber":77,"Velocity":54,"Duration":1058660,"SoundDuration":1058660,"Delta":72431298},{"NoteNumber":52,"Velocity":24,"Duration":264759,"SoundDuration":264759,"Delta":72698511},{"NoteNumber":56,"Velocity":27,"Duration":262998,"SoundDuration":262998,"Delta":72963270},{"NoteNumber":52,"Velocity":24,"Duration":263689,"SoundDuration":263689,"Delta":73226269},{"NoteNumber":76,"Velocity":50,"Duration":777119,"SoundDuration":777119,"Delta":73489959},{"NoteNumber":56,"Velocity":27,"Duration":256695,"SoundDuration":256695,"Delta":73489959},{"NoteNumber":52,"Velocity":23,"Duration":256695,"SoundDuration":256695,"Delta":73746654},{"NoteNumber":56,"Velocity":23,"Duration":263728,"SoundDuration":263728,"Delta":74003350},{"NoteNumber":71,"Velocity":50,"Duration":283634,"SoundDuration":283634,"Delta":74267078},{"NoteNumber":62,"Velocity":19,"Duration":283634,"SoundDuration":283634,"Delta":74267078},{"NoteNumber":74,"Velocity":57,"Duration":1064786,"SoundDuration":1064786,"Delta":74550713},{"NoteNumber":57,"Velocity":23,"Duration":258354,"SoundDuration":258354,"Delta":74820327},{"NoteNumber":64,"Velocity":27,"Duration":268408,"SoundDuration":268408,"Delta":75078682},{"NoteNumber":57,"Velocity":24,"Duration":268408,"SoundDuration":268408,"Delta":75347090},{"NoteNumber":72,"Velocity":52,"Duration":529573,"SoundDuration":529573,"Delta":75615499},{"NoteNumber":64,"Velocity":27,"Duration":268408,"SoundDuration":268408,"Delta":75615499},{"NoteNumber":57,"Velocity":22,"Duration":261165,"SoundDuration":261165,"Delta":75883907},{"NoteNumber":64,"Velocity":22,"Duration":266975,"SoundDuration":266975,"Delta":76145072},{"NoteNumber":69,"Velocity":20,"Duration":266975,"SoundDuration":266975,"Delta":76412047},{"NoteNumber":72,"Velocity":49,"Duration":1054805,"SoundDuration":1054805,"Delta":76679022},{"NoteNumber":45,"Velocity":29,"Duration":261735,"SoundDuration":261735,"Delta":76962657},{"NoteNumber":52,"Velocity":32,"Duration":265792,"SoundDuration":265792,"Delta":77224393},{"NoteNumber":45,"Velocity":28,"Duration":265792,"SoundDuration":265792,"Delta":77490185},{"NoteNumber":72,"Velocity":50,"Duration":1626681,"SoundDuration":1626681,"Delta":77755978},{"NoteNumber":52,"Velocity":32,"Duration":265792,"SoundDuration":265792,"Delta":77755978},{"NoteNumber":45,"Velocity":27,"Duration":271390,"SoundDuration":271390,"Delta":78021770},{"NoteNumber":52,"Velocity":27,"Duration":273298,"SoundDuration":273298,"Delta":78293161},{"NoteNumber":74,"Velocity":56,"Duration":286341,"SoundDuration":286341,"Delta":78566459},{"NoteNumber":54,"Velocity":27,"Duration":286341,"SoundDuration":286341,"Delta":78566459},{"NoteNumber":76,"Velocity":65,"Duration":529858,"SoundDuration":529858,"Delta":78852801},{"NoteNumber":43,"Velocity":26,"Duration":257798,"SoundDuration":257798,"Delta":79124860},{"NoteNumber":52,"Velocity":31,"Duration":264853,"SoundDuration":264853,"Delta":79382659},{"NoteNumber":55,"Velocity":27,"Duration":264853,"SoundDuration":264853,"Delta":79647513},{"NoteNumber":76,"Velocity":63,"Duration":1603347,"SoundDuration":1603347,"Delta":79912367},{"NoteNumber":79,"Velocity":75,"Duration":1603347,"SoundDuration":1603347,"Delta":79912367},{"NoteNumber":60,"Velocity":39,"Duration":264853,"SoundDuration":264853,"Delta":79912367},{"NoteNumber":55,"Velocity":34,"Duration":258910,"SoundDuration":258910,"Delta":80177221},{"NoteNumber":52,"Velocity":37,"Duration":261184,"SoundDuration":261184,"Delta":80436132},{"NoteNumber":48,"Velocity":40,"Duration":286341,"SoundDuration":286341,"Delta":80697317},{"NoteNumber":42,"Velocity":44,"Duration":266028,"SoundDuration":266028,"Delta":80983658},{"NoteNumber":47,"Velocity":38,"Duration":266027,"SoundDuration":266027,"Delta":81249686},{"NoteNumber":52,"Velocity":38,"Duration":260033,"SoundDuration":260033,"Delta":81515714},{"NoteNumber":55,"Velocity":38,"Duration":277084,"SoundDuration":277084,"Delta":81775747},{"NoteNumber":79,"Velocity":62,"Duration":1610846,"SoundDuration":1610846,"Delta":82052832},{"NoteNumber":83,"Velocity":73,"Duration":1610846,"SoundDuration":1610846,"Delta":82052832},{"NoteNumber":40,"Velocity":51,"Duration":264853,"SoundDuration":264853,"Delta":82052832},{"NoteNumber":47,"Velocity":40,"Duration":264853,"SoundDuration":264853,"Delta":82317686},{"NoteNumber":52,"Velocity":42,"Duration":261165,"SoundDuration":261165,"Delta":82582540},{"NoteNumber":55,"Velocity":42,"Duration":280978,"SoundDuration":280978,"Delta":82843705},{"NoteNumber":35,"Velocity":57,"Duration":282300,"SoundDuration":282300,"Delta":83124683},{"NoteNumber":47,"Velocity":44,"Duration":256695,"SoundDuration":256695,"Delta":83406983},{"NoteNumber":50,"Velocity":44,"Duration":263458,"SoundDuration":263458,"Delta":83663679},{"NoteNumber":55,"Velocity":44,"Duration":263458,"SoundDuration":263458,"Delta":83927137},{"NoteNumber":74,"Velocity":69,"Duration":1930964,"SoundDuration":1930964,"Delta":84124731},{"NoteNumber":79,"Velocity":73,"Duration":1898031,"SoundDuration":1898031,"Delta":84157663},{"NoteNumber":86,"Velocity":76,"Duration":1865099,"SoundDuration":1865099,"Delta":84190596},{"NoteNumber":67,"Velocity":53,"Duration":263458,"SoundDuration":263458,"Delta":84190596},{"NoteNumber":62,"Velocity":44,"Duration":263458,"SoundDuration":263458,"Delta":84454054},{"NoteNumber":59,"Velocity":44,"Duration":257798,"SoundDuration":257798,"Delta":84717513},{"NoteNumber":55,"Velocity":44,"Duration":282300,"SoundDuration":282300,"Delta":84975311},{"NoteNumber":47,"Velocity":53,"Duration":266028,"SoundDuration":266028,"Delta":85257611},{"NoteNumber":50,"Velocity":42,"Duration":266027,"SoundDuration":266027,"Delta":85523639},{"NoteNumber":55,"Velocity":44,"Duration":266028,"SoundDuration":266028,"Delta":85789667},{"NoteNumber":83,"Velocity":66,"Duration":266027,"SoundDuration":266027,"Delta":86055695},{"NoteNumber":62,"Velocity":41,"Duration":266027,"SoundDuration":266027,"Delta":86055695},{"NoteNumber":78,"Velocity":62,"Duration":1050325,"SoundDuration":1050325,"Delta":86321723},{"NoteNumber":84,"Velocity":73,"Duration":784297,"SoundDuration":784297,"Delta":86321723},{"NoteNumber":51,"Velocity":39,"Duration":259134,"SoundDuration":259134,"Delta":86580858},{"NoteNumber":57,"Velocity":42,"Duration":266028,"SoundDuration":266028,"Delta":86839992},{"NoteNumber":81,"Velocity":61,"Duration":266027,"SoundDuration":266027,"Delta":87106020},{"NoteNumber":60,"Velocity":39,"Duration":266027,"SoundDuration":266027,"Delta":87106020},{"NoteNumber":79,"Velocity":69,"Duration":1087525,"SoundDuration":1087525,"Delta":87372048},{"NoteNumber":52,"Velocity":39,"Duration":268408,"SoundDuration":268408,"Delta":87654348},{"NoteNumber":55,"Velocity":42,"Duration":268408,"SoundDuration":268408,"Delta":87922757},{"NoteNumber":60,"Velocity":39,"Duration":268408,"SoundDuration":268408,"Delta":88191165},{"NoteNumber":81,"Velocity":63,"Duration":788925,"SoundDuration":788925,"Delta":88459574},{"NoteNumber":72,"Velocity":53,"Duration":2144859,"SoundDuration":2144859,"Delta":88459574},{"NoteNumber":53,"Velocity":32,"Duration":260258,"SoundDuration":260258,"Delta":88719832},{"NoteNumber":57,"Velocity":37,"Duration":268408,"SoundDuration":268408,"Delta":88980091},{"NoteNumber":77,"Velocity":52,"Duration":268408,"SoundDuration":268408,"Delta":89248499},{"NoteNumber":60,"Velocity":32,"Duration":268408,"SoundDuration":268408,"Delta":89248499},{"NoteNumber":76,"Velocity":63,"Duration":1087525,"SoundDuration":1087525,"Delta":89516908},{"NoteNumber":55,"Velocity":33,"Duration":268408,"SoundDuration":268408,"Delta":89799208},{"NoteNumber":60,"Velocity":37,"Duration":268408,"SoundDuration":268408,"Delta":90067616},{"NoteNumber":64,"Velocity":34,"Duration":268408,"SoundDuration":268408,"Delta":90336025},{"NoteNumber":71,"Velocity":54,"Duration":1078639,"SoundDuration":1078639,"Delta":90604433},{"NoteNumber":77,"Velocity":64,"Duration":1869709,"SoundDuration":1869709,"Delta":90604433},{"NoteNumber":56,"Velocity":44,"Duration":1078639,"SoundDuration":1078639,"Delta":90604433},{"NoteNumber":62,"Velocity":34,"Duration":264853,"SoundDuration":264853,"Delta":90871064},{"NoteNumber":65,"Velocity":34,"Duration":264853,"SoundDuration":264853,"Delta":91135918},{"NoteNumber":68,"Velocity":34,"Duration":282300,"SoundDuration":282300,"Delta":91400772},{"NoteNumber":72,"Velocity":64,"Duration":1085852,"SoundDuration":1085852,"Delta":91683072},{"NoteNumber":57,"Velocity":44,"Duration":1085852,"SoundDuration":1085852,"Delta":91683072},{"NoteNumber":60,"Velocity":30,"Duration":263689,"SoundDuration":263689,"Delta":91946762},{"NoteNumber":65,"Velocity":34,"Duration":263690,"SoundDuration":263690,"Delta":92210452},{"NoteNumber":76,"Velocity":52,"Duration":294782,"SoundDuration":294782,"Delta":92474142},{"NoteNumber":69,"Velocity":29,"Duration":294782,"SoundDuration":294782,"Delta":92474142},{"NoteNumber":78,"Velocity":50,"Duration":806485,"SoundDuration":806485,"Delta":92768925},{"NoteNumber":69,"Velocity":42,"Duration":1078544,"SoundDuration":1078544,"Delta":92768925},{"NoteNumber":59,"Velocity":32,"Duration":1078544,"SoundDuration":1078544,"Delta":92768925},{"NoteNumber":63,"Velocity":26,"Duration":267212,"SoundDuration":267212,"Delta":93036138},{"NoteNumber":66,"Velocity":29,"Duration":272059,"SoundDuration":272059,"Delta":93303351},{"NoteNumber":75,"Velocity":37,"Duration":272059,"SoundDuration":272059,"Delta":93575410},{"NoteNumber":71,"Velocity":26,"Duration":272059,"SoundDuration":272059,"Delta":93575410},{"NoteNumber":84,"Velocity":40,"Duration":1066608,"SoundDuration":1066608,"Delta":93847470},{"NoteNumber":88,"Velocity":40,"Duration":1066608,"SoundDuration":1066608,"Delta":93847470},{"NoteNumber":76,"Velocity":34,"Duration":2114133,"SoundDuration":2114133,"Delta":93847470},{"NoteNumber":64,"Velocity":28,"Duration":269614,"SoundDuration":269614,"Delta":93847470},{"NoteNumber":52,"Velocity":20,"Duration":269614,"SoundDuration":269614,"Delta":94117084},{"NoteNumber":64,"Velocity":20,"Duration":263689,"SoundDuration":263689,"Delta":94386699},{"NoteNumber":52,"Velocity":20,"Duration":263689,"SoundDuration":263689,"Delta":94650389},{"NoteNumber":86,"Velocity":35,"Duration":527380,"SoundDuration":527380,"Delta":94914079},{"NoteNumber":83,"Velocity":35,"Duration":527380,"SoundDuration":527380,"Delta":94914079},{"NoteNumber":62,"Velocity":28,"Duration":263690,"SoundDuration":263690,"Delta":94914079},{"NoteNumber":59,"Velocity":24,"Duration":263690,"SoundDuration":263690,"Delta":94914079},{"NoteNumber":52,"Velocity":21,"Duration":263689,"SoundDuration":263689,"Delta":95177769},{"NoteNumber":84,"Velocity":41,"Duration":543892,"SoundDuration":543892,"Delta":95441459},{"NoteNumber":88,"Velocity":41,"Duration":543892,"SoundDuration":543892,"Delta":95441459},{"NoteNumber":64,"Velocity":21,"Duration":258910,"SoundDuration":258910,"Delta":95441459},{"NoteNumber":60,"Velocity":18,"Duration":258910,"SoundDuration":258910,"Delta":95441459},{"NoteNumber":52,"Velocity":21,"Duration":284981,"SoundDuration":284981,"Delta":95700370},{"NoteNumber":89,"Velocity":46,"Duration":794561,"SoundDuration":794561,"Delta":95985351},{"NoteNumber":86,"Velocity":46,"Duration":794561,"SoundDuration":794561,"Delta":95985351},{"NoteNumber":76,"Velocity":25,"Duration":2093065,"SoundDuration":2093065,"Delta":95985351},{"NoteNumber":65,"Velocity":28,"Duration":264853,"SoundDuration":264853,"Delta":95985351},{"NoteNumber":62,"Velocity":24,"Duration":264853,"SoundDuration":264853,"Delta":95985351},{"NoteNumber":52,"Velocity":20,"Duration":264853,"SoundDuration":264853,"Delta":96250205},{"NoteNumber":62,"Velocity":20,"Duration":264853,"SoundDuration":264853,"Delta":96515059},{"NoteNumber":59,"Velocity":17,"Duration":264853,"SoundDuration":264853,"Delta":96515059},{"NoteNumber":86,"Velocity":39,"Duration":264853,"SoundDuration":264853,"Delta":96779913},{"NoteNumber":83,"Velocity":39,"Duration":264853,"SoundDuration":264853,"Delta":96779913},{"NoteNumber":52,"Velocity":20,"Duration":264853,"SoundDuration":264853,"Delta":96779913},{"NoteNumber":83,"Velocity":46,"Duration":525071,"SoundDuration":525071,"Delta":97044767},{"NoteNumber":80,"Velocity":46,"Duration":525071,"SoundDuration":525071,"Delta":97044767},{"NoteNumber":56,"Velocity":23,"Duration":262535,"SoundDuration":262535,"Delta":97044767},{"NoteNumber":59,"Velocity":27,"Duration":262535,"SoundDuration":262535,"Delta":97044767},{"NoteNumber":52,"Velocity":21,"Duration":262535,"SoundDuration":262535,"Delta":97307303},{"NoteNumber":81,"Velocity":40,"Duration":530944,"SoundDuration":530944,"Delta":97569839},{"NoteNumber":84,"Velocity":40,"Duration":530944,"SoundDuration":530944,"Delta":97569839},{"NoteNumber":60,"Velocity":21,"Duration":262536,"SoundDuration":262536,"Delta":97569839},{"NoteNumber":57,"Velocity":18,"Duration":262536,"SoundDuration":262536,"Delta":97569839},{"NoteNumber":52,"Velocity":21,"Duration":268408,"SoundDuration":268408,"Delta":97832375},{"NoteNumber":83,"Velocity":40,"Duration":551623,"SoundDuration":551623,"Delta":98100784},{"NoteNumber":76,"Velocity":34,"Duration":2114690,"SoundDuration":2114690,"Delta":98100784},{"NoteNumber":86,"Velocity":40,"Duration":551623,"SoundDuration":551623,"Delta":98100784},{"NoteNumber":59,"Velocity":24,"Duration":275811,"SoundDuration":275811,"Delta":98100784},{"NoteNumber":62,"Velocity":28,"Duration":275811,"SoundDuration":275811,"Delta":98100784},{"NoteNumber":52,"Velocity":20,"Duration":275811,"SoundDuration":275811,"Delta":98376595},{"NoteNumber":84,"Velocity":35,"Duration":525071,"SoundDuration":525071,"Delta":98652407},{"NoteNumber":81,"Velocity":35,"Duration":525071,"SoundDuration":525071,"Delta":98652407},{"NoteNumber":57,"Velocity":24,"Duration":262535,"SoundDuration":262535,"Delta":98652407},{"NoteNumber":60,"Velocity":20,"Duration":262535,"SoundDuration":262535,"Delta":98652407},{"NoteNumber":52,"Velocity":20,"Duration":262535,"SoundDuration":262535,"Delta":98914943},{"NoteNumber":79,"Velocity":35,"Duration":515596,"SoundDuration":515596,"Delta":99177479},{"NoteNumber":83,"Velocity":35,"Duration":515596,"SoundDuration":515596,"Delta":99177479},{"NoteNumber":59,"Velocity":28,"Duration":257798,"SoundDuration":257798,"Delta":99177479},{"NoteNumber":55,"Velocity":24,"Duration":257798,"SoundDuration":257798,"Delta":99177479},{"NoteNumber":52,"Velocity":21,"Duration":257798,"SoundDuration":257798,"Delta":99435277},{"NoteNumber":81,"Velocity":41,"Duration":546146,"SoundDuration":546146,"Delta":99693076},{"NoteNumber":77,"Velocity":41,"Duration":546146,"SoundDuration":546146,"Delta":99693076},{"NoteNumber":57,"Velocity":21,"Duration":261165,"SoundDuration":261165,"Delta":99693076},{"NoteNumber":53,"Velocity":18,"Duration":261165,"SoundDuration":261165,"Delta":99693076},{"NoteNumber":52,"Velocity":21,"Duration":284981,"SoundDuration":284981,"Delta":99954241},{"NoteNumber":80,"Velocity":46,"Duration":798084,"SoundDuration":798084,"Delta":100239222},{"NoteNumber":76,"Velocity":25,"Duration":1565114,"SoundDuration":1565114,"Delta":100239222},{"NoteNumber":56,"Velocity":28,"Duration":266028,"SoundDuration":266028,"Delta":100239222},{"NoteNumber":52,"Velocity":20,"Duration":266027,"SoundDuration":266027,"Delta":100505250},{"NoteNumber":57,"Velocity":20,"Duration":266028,"SoundDuration":266028,"Delta":100771278},{"NoteNumber":54,"Velocity":17,"Duration":266028,"SoundDuration":266028,"Delta":100771278},{"NoteNumber":81,"Velocity":39,"Duration":266027,"SoundDuration":266027,"Delta":101037306},{"NoteNumber":78,"Velocity":39,"Duration":266027,"SoundDuration":266027,"Delta":101037306},{"NoteNumber":52,"Velocity":20,"Duration":266027,"SoundDuration":266027,"Delta":101037306},{"NoteNumber":80,"Velocity":46,"Duration":522784,"SoundDuration":522784,"Delta":101303334},{"NoteNumber":83,"Velocity":46,"Duration":522784,"SoundDuration":522784,"Delta":101303334},{"NoteNumber":56,"Velocity":23,"Duration":261392,"SoundDuration":261392,"Delta":101303334},{"NoteNumber":59,"Velocity":27,"Duration":261392,"SoundDuration":261392,"Delta":101303334},{"NoteNumber":52,"Velocity":21,"Duration":261392,"SoundDuration":261392,"Delta":101564727},{"NoteNumber":76,"Velocity":40,"Duration":2657937,"SoundDuration":2657937,"Delta":101826119},{"NoteNumber":56,"Velocity":21,"Duration":261392,"SoundDuration":261392,"Delta":101826119},{"NoteNumber":52,"Velocity":21,"Duration":280978,"SoundDuration":280978,"Delta":102087512},{"NoteNumber":84,"Velocity":40,"Duration":1076478,"SoundDuration":1076478,"Delta":102368490},{"NoteNumber":88,"Velocity":40,"Duration":1076478,"SoundDuration":1076478,"Delta":102368490},{"NoteNumber":60,"Velocity":24,"Duration":274549,"SoundDuration":274549,"Delta":102368490},{"NoteNumber":64,"Velocity":28,"Duration":274549,"SoundDuration":274549,"Delta":102368490},{"NoteNumber":52,"Velocity":20,"Duration":274549,"SoundDuration":274549,"Delta":102643039},{"NoteNumber":60,"Velocity":24,"Duration":263689,"SoundDuration":263689,"Delta":102917589},{"NoteNumber":64,"Velocity":20,"Duration":263689,"SoundDuration":263689,"Delta":102917589},{"NoteNumber":52,"Velocity":20,"Duration":263689,"SoundDuration":263689,"Delta":103181279},{"NoteNumber":83,"Velocity":35,"Duration":517821,"SoundDuration":517821,"Delta":103444969},{"NoteNumber":86,"Velocity":35,"Duration":517821,"SoundDuration":517821,"Delta":103444969},{"NoteNumber":62,"Velocity":28,"Duration":258910,"SoundDuration":258910,"Delta":103444969},{"NoteNumber":59,"Velocity":24,"Duration":258910,"SoundDuration":258910,"Delta":103444969},{"NoteNumber":52,"Velocity":21,"Duration":258910,"SoundDuration":258910,"Delta":103703880},{"NoteNumber":88,"Velocity":43,"Duration":545014,"SoundDuration":545014,"Delta":103962791},{"NoteNumber":84,"Velocity":43,"Duration":545014,"SoundDuration":545014,"Delta":103962791},{"NoteNumber":64,"Velocity":22,"Duration":260033,"SoundDuration":260033,"Delta":103962791},{"NoteNumber":60,"Velocity":18,"Duration":260033,"SoundDuration":260033,"Delta":103962791},{"NoteNumber":52,"Velocity":22,"Duration":284981,"SoundDuration":284981,"Delta":104222824},{"NoteNumber":76,"Velocity":25,"Duration":2095263,"SoundDuration":2095263,"Delta":104507805},{"NoteNumber":91,"Velocity":55,"Duration":794561,"SoundDuration":794561,"Delta":104507805},{"NoteNumber":88,"Velocity":55,"Duration":794561,"SoundDuration":794561,"Delta":104507805},{"NoteNumber":67,"Velocity":31,"Duration":264853,"SoundDuration":264853,"Delta":104507805},{"NoteNumber":64,"Velocity":26,"Duration":264853,"SoundDuration":264853,"Delta":104507805},{"NoteNumber":52,"Velocity":22,"Duration":264853,"SoundDuration":264853,"Delta":104772659},{"NoteNumber":65,"Velocity":22,"Duration":264853,"SoundDuration":264853,"Delta":105037513},{"NoteNumber":62,"Velocity":18,"Duration":264853,"SoundDuration":264853,"Delta":105037513},{"NoteNumber":86,"Velocity":42,"Duration":264853,"SoundDuration":264853,"Delta":105302367},{"NoteNumber":89,"Velocity":42,"Duration":264853,"SoundDuration":264853,"Delta":105302367},{"NoteNumber":52,"Velocity":22,"Duration":264853,"SoundDuration":264853,"Delta":105302367},{"NoteNumber":83,"Velocity":50,"Duration":522784,"SoundDuration":522784,"Delta":105567221},{"NoteNumber":86,"Velocity":50,"Duration":522784,"SoundDuration":522784,"Delta":105567221},{"NoteNumber":59,"Velocity":25,"Duration":261392,"SoundDuration":261392,"Delta":105567221},{"NoteNumber":62,"Velocity":30,"Duration":261392,"SoundDuration":261392,"Delta":105567221},{"NoteNumber":52,"Velocity":23,"Duration":261392,"SoundDuration":261392,"Delta":105828614},{"NoteNumber":89,"Velocity":44,"Duration":535942,"SoundDuration":535942,"Delta":106090006},{"NoteNumber":86,"Velocity":44,"Duration":535942,"SoundDuration":535942,"Delta":106090006},{"NoteNumber":65,"Velocity":23,"Duration":261392,"SoundDuration":261392,"Delta":106090006},{"NoteNumber":62,"Velocity":19,"Duration":261392,"SoundDuration":261392,"Delta":106090006},{"NoteNumber":52,"Velocity":23,"Duration":274549,"SoundDuration":274549,"Delta":106351399},{"NoteNumber":84,"Velocity":44,"Duration":551623,"SoundDuration":551623,"Delta":106625948},{"NoteNumber":88,"Velocity":44,"Duration":551623,"SoundDuration":551623,"Delta":106625948},{"NoteNumber":76,"Velocity":37,"Duration":2114148,"SoundDuration":2114148,"Delta":106625948},{"NoteNumber":60,"Velocity":26,"Duration":275811,"SoundDuration":275811,"Delta":106625948},{"NoteNumber":64,"Velocity":31,"Duration":275811,"SoundDuration":275811,"Delta":106625948},{"NoteNumber":52,"Velocity":22,"Duration":275811,"SoundDuration":275811,"Delta":106901760},{"NoteNumber":81,"Velocity":37,"Duration":520516,"SoundDuration":520516,"Delta":107177571},{"NoteNumber":84,"Velocity":37,"Duration":520516,"SoundDuration":520516,"Delta":107177571},{"NoteNumber":57,"Velocity":26,"Duration":260258,"SoundDuration":260258,"Delta":107177571},{"NoteNumber":60,"Velocity":21,"Duration":260258,"SoundDuration":260258,"Delta":107177571},{"NoteNumber":52,"Velocity":21,"Duration":260258,"SoundDuration":260258,"Delta":107437830},{"NoteNumber":86,"Velocity":36,"Duration":520516,"SoundDuration":520516,"Delta":107698088},{"NoteNumber":83,"Velocity":36,"Duration":520516,"SoundDuration":520516,"Delta":107698088},{"NoteNumber":62,"Velocity":29,"Duration":260258,"SoundDuration":260258,"Delta":107698088},{"NoteNumber":59,"Velocity":25,"Duration":260258,"SoundDuration":260258,"Delta":107698088},{"NoteNumber":52,"Velocity":21,"Duration":260258,"SoundDuration":260258,"Delta":107958347},{"NoteNumber":80,"Velocity":42,"Duration":545240,"SoundDuration":545240,"Delta":108218605},{"NoteNumber":83,"Velocity":42,"Duration":545240,"SoundDuration":545240,"Delta":108218605},{"NoteNumber":59,"Velocity":21,"Duration":260258,"SoundDuration":260258,"Delta":108218605},{"NoteNumber":56,"Velocity":18,"Duration":260258,"SoundDuration":260258,"Delta":108218605},{"NoteNumber":52,"Velocity":21,"Duration":284981,"SoundDuration":284981,"Delta":108478864},{"NoteNumber":76,"Velocity":25,"Duration":2192598,"SoundDuration":2192598,"Delta":108763845},{"NoteNumber":84,"Velocity":46,"Duration":541662,"SoundDuration":541662,"Delta":108763845},{"NoteNumber":81,"Velocity":40,"Duration":541662,"SoundDuration":541662,"Delta":108763845},{"NoteNumber":57,"Velocity":24,"Duration":270831,"SoundDuration":270831,"Delta":108763845},{"NoteNumber":60,"Velocity":28,"Duration":270831,"SoundDuration":270831,"Delta":108763845},{"NoteNumber":52,"Velocity":20,"Duration":270831,"SoundDuration":270831,"Delta":109034677},{"NoteNumber":81,"Velocity":39,"Duration":541662,"SoundDuration":541662,"Delta":109305508},{"NoteNumber":78,"Velocity":39,"Duration":541662,"SoundDuration":541662,"Delta":109305508},{"NoteNumber":57,"Velocity":20,"Duration":270831,"SoundDuration":270831,"Delta":109305508},{"NoteNumber":54,"Velocity":17,"Duration":270831,"SoundDuration":270831,"Delta":109305508},{"NoteNumber":52,"Velocity":20,"Duration":270831,"SoundDuration":270831,"Delta":109576340},{"NoteNumber":83,"Velocity":46,"Duration":532055,"SoundDuration":532055,"Delta":109847171},{"NoteNumber":80,"Velocity":46,"Duration":532055,"SoundDuration":532055,"Delta":109847171},{"NoteNumber":56,"Velocity":23,"Duration":266028,"SoundDuration":266028,"Delta":109847171},{"NoteNumber":59,"Velocity":27,"Duration":266028,"SoundDuration":266028,"Delta":109847171},{"NoteNumber":52,"Velocity":21,"Duration":266027,"SoundDuration":266027,"Delta":110113199},{"NoteNumber":76,"Velocity":40,"Duration":577216,"SoundDuration":577216,"Delta":110379227},{"NoteNumber":56,"Velocity":21,"Duration":296238,"SoundDuration":296238,"Delta":110379227},{"NoteNumber":52,"Velocity":21,"Duration":280978,"SoundDuration":280978,"Delta":110675465},{"NoteNumber":60,"Velocity":29,"Duration":267212,"SoundDuration":267212,"Delta":110956443},{"NoteNumber":64,"Velocity":24,"Duration":252589,"SoundDuration":252589,"Delta":111223656},{"NoteNumber":57,"Velocity":21,"Duration":252589,"SoundDuration":252589,"Delta":111223656},{"NoteNumber":69,"Velocity":34,"Duration":248200,"SoundDuration":248200,"Delta":111476245},{"NoteNumber":52,"Velocity":24,"Duration":248200,"SoundDuration":248200,"Delta":111476245},{"NoteNumber":76,"Velocity":24,"Duration":275811,"SoundDuration":275811,"Delta":111724446},{"NoteNumber":48,"Velocity":21,"Duration":275811,"SoundDuration":275811,"Delta":111724446},{"NoteNumber":60,"Velocity":29,"Duration":264853,"SoundDuration":264853,"Delta":112000257},{"NoteNumber":64,"Velocity":27,"Duration":253657,"SoundDuration":253657,"Delta":112265111},{"NoteNumber":57,"Velocity":22,"Duration":253657,"SoundDuration":253657,"Delta":112265111},{"NoteNumber":71,"Velocity":33,"Duration":248200,"SoundDuration":248200,"Delta":112518768},{"NoteNumber":52,"Velocity":24,"Duration":248200,"SoundDuration":248200,"Delta":112518768},{"NoteNumber":76,"Velocity":24,"Duration":266028,"SoundDuration":266028,"Delta":112766969},{"NoteNumber":48,"Velocity":20,"Duration":266028,"SoundDuration":266028,"Delta":112766969},{"NoteNumber":62,"Velocity":29,"Duration":261392,"SoundDuration":261392,"Delta":113032997},{"NoteNumber":69,"Velocity":27,"Duration":254733,"SoundDuration":254733,"Delta":113294389},{"NoteNumber":57,"Velocity":20,"Duration":254733,"SoundDuration":254733,"Delta":113294389},{"NoteNumber":72,"Velocity":34,"Duration":247178,"SoundDuration":247178,"Delta":113549123},{"NoteNumber":53,"Velocity":24,"Duration":247178,"SoundDuration":247178,"Delta":113549123},{"NoteNumber":77,"Velocity":24,"Duration":266028,"SoundDuration":266028,"Delta":113796301},{"NoteNumber":50,"Velocity":21,"Duration":266028,"SoundDuration":266028,"Delta":113796301},{"NoteNumber":62,"Velocity":29,"Duration":260258,"SoundDuration":260258,"Delta":114062329},{"NoteNumber":65,"Velocity":29,"Duration":252589,"SoundDuration":252589,"Delta":114322588},{"NoteNumber":57,"Velocity":24,"Duration":252589,"SoundDuration":252589,"Delta":114322588},{"NoteNumber":71,"Velocity":33,"Duration":247178,"SoundDuration":247178,"Delta":114575177},{"NoteNumber":53,"Velocity":24,"Duration":247178,"SoundDuration":247178,"Delta":114575177},{"NoteNumber":77,"Velocity":24,"Duration":266044,"SoundDuration":266044,"Delta":114807936},{"NoteNumber":50,"Velocity":23,"Duration":266044,"SoundDuration":266044,"Delta":114807936},{"NoteNumber":62,"Velocity":29,"Duration":260258,"SoundDuration":260258,"Delta":115089568},{"NoteNumber":69,"Velocity":32,"Duration":254733,"SoundDuration":254733,"Delta":115349826},{"NoteNumber":59,"Velocity":21,"Duration":254733,"SoundDuration":254733,"Delta":115349826},{"NoteNumber":77,"Velocity":38,"Duration":248200,"SoundDuration":248200,"Delta":115604560},{"NoteNumber":57,"Velocity":24,"Duration":248200,"SoundDuration":248200,"Delta":115604560},{"NoteNumber":83,"Velocity":32,"Duration":275811,"SoundDuration":275811,"Delta":115852761},{"NoteNumber":52,"Velocity":22,"Duration":275811,"SoundDuration":275811,"Delta":115852761},{"NoteNumber":62,"Velocity":30,"Duration":260258,"SoundDuration":260258,"Delta":116128572},{"NoteNumber":68,"Velocity":32,"Duration":254733,"SoundDuration":254733,"Delta":116388831},{"NoteNumber":59,"Velocity":22,"Duration":254733,"SoundDuration":254733,"Delta":116388831},{"NoteNumber":76,"Velocity":41,"Duration":249231,"SoundDuration":249231,"Delta":116643565},{"NoteNumber":56,"Velocity":25,"Duration":249231,"SoundDuration":249231,"Delta":116643565},{"NoteNumber":83,"Velocity":34,"Duration":274549,"SoundDuration":274549,"Delta":116892796},{"NoteNumber":52,"Velocity":25,"Duration":274549,"SoundDuration":274549,"Delta":116892796},{"NoteNumber":69,"Velocity":30,"Duration":262535,"SoundDuration":262535,"Delta":117167346},{"NoteNumber":74,"Velocity":35,"Duration":254733,"SoundDuration":254733,"Delta":117429882},{"NoteNumber":65,"Velocity":23,"Duration":254733,"SoundDuration":254733,"Delta":117429882},{"NoteNumber":83,"Velocity":44,"Duration":248200,"SoundDuration":248200,"Delta":117684616},{"NoteNumber":64,"Velocity":25,"Duration":248200,"SoundDuration":248200,"Delta":117684616},{"NoteNumber":88,"Velocity":38,"Duration":275811,"SoundDuration":275811,"Delta":117932816},{"NoteNumber":57,"Velocity":22,"Duration":275811,"SoundDuration":275811,"Delta":117932816},{"NoteNumber":69,"Velocity":31,"Duration":264853,"SoundDuration":264853,"Delta":118208628},{"NoteNumber":72,"Velocity":38,"Duration":254733,"SoundDuration":254733,"Delta":118473482},{"NoteNumber":64,"Velocity":25,"Duration":254733,"SoundDuration":254733,"Delta":118473482},{"NoteNumber":81,"Velocity":48,"Duration":249231,"SoundDuration":249231,"Delta":118728216},{"NoteNumber":60,"Velocity":29,"Duration":249231,"SoundDuration":249231,"Delta":118728216},{"NoteNumber":88,"Velocity":36,"Duration":274549,"SoundDuration":274549,"Delta":118977447},{"NoteNumber":57,"Velocity":26,"Duration":274549,"SoundDuration":274549,"Delta":118977447},{"NoteNumber":38,"Velocity":43,"Duration":274549,"SoundDuration":274549,"Delta":119251997},{"NoteNumber":50,"Velocity":38,"Duration":274549,"SoundDuration":274549,"Delta":119526546},{"NoteNumber":69,"Velocity":39,"Duration":647836,"SoundDuration":647836,"Delta":119801096},{"NoteNumber":71,"Velocity":47,"Duration":647836,"SoundDuration":647836,"Delta":119801096},{"NoteNumber":65,"Velocity":39,"Duration":647836,"SoundDuration":647836,"Delta":119801096},{"NoteNumber":53,"Velocity":42,"Duration":2719110,"SoundDuration":2719110,"Delta":119801096},{"NoteNumber":57,"Velocity":47,"Duration":2459976,"SoundDuration":2459976,"Delta":120060230},{"NoteNumber":62,"Velocity":51,"Duration":2200841,"SoundDuration":2200841,"Delta":120319365},{"NoteNumber":72,"Velocity":45,"Duration":129567,"SoundDuration":129567,"Delta":120448932},{"NoteNumber":71,"Velocity":45,"Duration":129567,"SoundDuration":129567,"Delta":120578499},{"NoteNumber":69,"Velocity":45,"Duration":129567,"SoundDuration":129567,"Delta":120708067},{"NoteNumber":71,"Velocity":46,"Duration":136029,"SoundDuration":136029,"Delta":120837634},{"NoteNumber":72,"Velocity":49,"Duration":136029,"SoundDuration":136029,"Delta":120973664},{"NoteNumber":74,"Velocity":52,"Duration":136029,"SoundDuration":136029,"Delta":121109693},{"NoteNumber":76,"Velocity":55,"Duration":155811,"SoundDuration":155811,"Delta":121245723},{"NoteNumber":79,"Velocity":68,"Duration":559336,"SoundDuration":559336,"Delta":121401535},{"NoteNumber":77,"Velocity":64,"Duration":279668,"SoundDuration":279668,"Delta":121960871},{"NoteNumber":38,"Velocity":43,"Duration":274549,"SoundDuration":274549,"Delta":123603533},{"NoteNumber":50,"Velocity":38,"Duration":274549,"SoundDuration":274549,"Delta":123878082},{"NoteNumber":68,"Velocity":39,"Duration":647836,"SoundDuration":647836,"Delta":124152632},{"NoteNumber":65,"Velocity":39,"Duration":647836,"SoundDuration":647836,"Delta":124152632},{"NoteNumber":71,"Velocity":47,"Duration":647836,"SoundDuration":647836,"Delta":124152632},{"NoteNumber":53,"Velocity":42,"Duration":2159774,"SoundDuration":2159774,"Delta":124152632},{"NoteNumber":56,"Velocity":47,"Duration":1900640,"SoundDuration":1900640,"Delta":124411766},{"NoteNumber":59,"Velocity":51,"Duration":1641505,"SoundDuration":1641505,"Delta":124670901},{"NoteNumber":72,"Velocity":45,"Duration":129567,"SoundDuration":129567,"Delta":124800468},{"NoteNumber":71,"Velocity":45,"Duration":129567,"SoundDuration":129567,"Delta":124930035},{"NoteNumber":70,"Velocity":45,"Duration":129567,"SoundDuration":129567,"Delta":125059603},{"NoteNumber":71,"Velocity":46,"Duration":136029,"SoundDuration":136029,"Delta":125189170},{"NoteNumber":72,"Velocity":49,"Duration":136029,"SoundDuration":136029,"Delta":125325200},{"NoteNumber":74,"Velocity":52,"Duration":136029,"SoundDuration":136029,"Delta":125461229},{"NoteNumber":76,"Velocity":55,"Duration":155811,"SoundDuration":155811,"Delta":125597259},{"NoteNumber":79,"Velocity":68,"Duration":559336,"SoundDuration":559336,"Delta":125753071},{"NoteNumber":77,"Velocity":64,"Duration":272059,"SoundDuration":272059,"Delta":126312407},{"NoteNumber":84,"Velocity":74,"Duration":544119,"SoundDuration":544119,"Delta":126856526},{"NoteNumber":74,"Velocity":62,"Duration":816178,"SoundDuration":816178,"Delta":126856526},{"NoteNumber":56,"Velocity":43,"Duration":816178,"SoundDuration":816178,"Delta":126856526},{"NoteNumber":58,"Velocity":43,"Duration":816178,"SoundDuration":816178,"Delta":126856526},{"NoteNumber":62,"Velocity":43,"Duration":816178,"SoundDuration":816178,"Delta":126856526},{"NoteNumber":65,"Velocity":51,"Duration":816178,"SoundDuration":816178,"Delta":126856526},{"NoteNumber":70,"Velocity":60,"Duration":816178,"SoundDuration":816178,"Delta":126856526},{"NoteNumber":82,"Velocity":69,"Duration":272059,"SoundDuration":272059,"Delta":127400645},{"NoteNumber":43,"Velocity":45,"Duration":145029,"SoundDuration":145029,"Delta":129033002},{"NoteNumber":44,"Velocity":37,"Duration":145029,"SoundDuration":145029,"Delta":129164847},{"NoteNumber":43,"Velocity":37,"Duration":145029,"SoundDuration":145029,"Delta":129296692},{"NoteNumber":42,"Velocity":37,"Duration":145029,"SoundDuration":145029,"Delta":129428537},{"NoteNumber":43,"Velocity":45,"Duration":145029,"SoundDuration":145029,"Delta":129560382},{"NoteNumber":46,"Velocity":42,"Duration":145029,"SoundDuration":145029,"Delta":129692227},{"NoteNumber":51,"Velocity":45,"Duration":147109,"SoundDuration":147109,"Delta":129824072},{"NoteNumber":55,"Velocity":48,"Duration":165767,"SoundDuration":165767,"Delta":129955917},{"NoteNumber":62,"Velocity":41,"Duration":144394,"SoundDuration":144394,"Delta":130108558},{"NoteNumber":72,"Velocity":41,"Duration":525071,"SoundDuration":525071,"Delta":130108558},{"NoteNumber":56,"Velocity":52,"Duration":787608,"SoundDuration":787608,"Delta":130108558},{"NoteNumber":58,"Velocity":52,"Duration":787608,"SoundDuration":787608,"Delta":130108558},{"NoteNumber":63,"Velocity":41,"Duration":144394,"SoundDuration":144394,"Delta":130239826},{"NoteNumber":62,"Velocity":41,"Duration":144394,"SoundDuration":144394,"Delta":130371094},{"NoteNumber":61,"Velocity":41,"Duration":144394,"SoundDuration":144394,"Delta":130502362},{"NoteNumber":70,"Velocity":61,"Duration":262536,"SoundDuration":262536,"Delta":130633630},{"NoteNumber":62,"Velocity":45,"Duration":144394,"SoundDuration":144394,"Delta":130633630},{"NoteNumber":65,"Velocity":47,"Duration":144394,"SoundDuration":144394,"Delta":130764898},{"NoteNumber":68,"Velocity":49,"Duration":145793,"SoundDuration":145793,"Delta":130896166},{"NoteNumber":70,"Velocity":52,"Duration":158319,"SoundDuration":158319,"Delta":131027434},{"NoteNumber":75,"Velocity":67,"Duration":784177,"SoundDuration":784177,"Delta":131172684},{"NoteNumber":84,"Velocity":67,"Duration":522784,"SoundDuration":522784,"Delta":131172684},{"NoteNumber":55,"Velocity":45,"Duration":143765,"SoundDuration":143765,"Delta":131172684},{"NoteNumber":56,"Velocity":37,"Duration":143765,"SoundDuration":143765,"Delta":131303380},{"NoteNumber":55,"Velocity":37,"Duration":143765,"SoundDuration":143765,"Delta":131434076},{"NoteNumber":54,"Velocity":37,"Duration":143765,"SoundDuration":143765,"Delta":131564773},{"NoteNumber":82,"Velocity":61,"Duration":261392,"SoundDuration":261392,"Delta":131695469},{"NoteNumber":55,"Velocity":45,"Duration":143765,"SoundDuration":143765,"Delta":131695469},{"NoteNumber":58,"Velocity":42,"Duration":143765,"SoundDuration":143765,"Delta":131826165},{"NoteNumber":63,"Velocity":45,"Duration":145081,"SoundDuration":145081,"Delta":131956861},{"NoteNumber":67,"Velocity":48,"Duration":156926,"SoundDuration":156926,"Delta":132087558},{"NoteNumber":74,"Velocity":51,"Duration":143765,"SoundDuration":143765,"Delta":132231415},{"NoteNumber":84,"Velocity":75,"Duration":522784,"SoundDuration":522784,"Delta":132231415},{"NoteNumber":68,"Velocity":59,"Duration":784177,"SoundDuration":784177,"Delta":132231415},{"NoteNumber":70,"Velocity":59,"Duration":784177,"SoundDuration":784177,"Delta":132231415},{"NoteNumber":75,"Velocity":47,"Duration":143765,"SoundDuration":143765,"Delta":132362111},{"NoteNumber":74,"Velocity":47,"Duration":143765,"SoundDuration":143765,"Delta":132492807},{"NoteNumber":73,"Velocity":47,"Duration":143765,"SoundDuration":143765,"Delta":132623504},{"NoteNumber":74,"Velocity":51,"Duration":143765,"SoundDuration":143765,"Delta":132754200},{"NoteNumber":82,"Velocity":70,"Duration":261392,"SoundDuration":261392,"Delta":132754200},{"NoteNumber":77,"Velocity":53,"Duration":143765,"SoundDuration":143765,"Delta":132884896},{"NoteNumber":80,"Velocity":56,"Duration":145291,"SoundDuration":145291,"Delta":133015592},{"NoteNumber":82,"Velocity":60,"Duration":159083,"SoundDuration":159083,"Delta":133146289},{"NoteNumber":96,"Velocity":77,"Duration":525071,"SoundDuration":525071,"Delta":133292246},{"NoteNumber":86,"Velocity":77,"Duration":787608,"SoundDuration":787608,"Delta":133292246},{"NoteNumber":80,"Velocity":51,"Duration":144394,"SoundDuration":144394,"Delta":133292246},{"NoteNumber":77,"Velocity":42,"Duration":144394,"SoundDuration":144394,"Delta":133423514},{"NoteNumber":74,"Velocity":42,"Duration":144394,"SoundDuration":144394,"Delta":133554782},{"NoteNumber":70,"Velocity":42,"Duration":144394,"SoundDuration":144394,"Delta":133686050},{"NoteNumber":94,"Velocity":86,"Duration":808169,"SoundDuration":808169,"Delta":133817318},{"NoteNumber":68,"Velocity":51,"Duration":144394,"SoundDuration":144394,"Delta":133817318},{"NoteNumber":65,"Velocity":48,"Duration":144394,"SoundDuration":144394,"Delta":133948586},{"NoteNumber":62,"Velocity":51,"Duration":145863,"SoundDuration":145863,"Delta":134079854},{"NoteNumber":56,"Velocity":55,"Duration":159377,"SoundDuration":159377,"Delta":134211122},{"NoteNumber":57,"Velocity":55,"Duration":7401352,"SoundDuration":7401352,"Delta":134357079},{"NoteNumber":93,"Velocity":75,"Duration":259134,"SoundDuration":259134,"Delta":134625487},{"NoteNumber":92,"Velocity":77,"Duration":259134,"SoundDuration":259134,"Delta":134884622},{"NoteNumber":91,"Velocity":73,"Duration":259134,"SoundDuration":259134,"Delta":135143756},{"NoteNumber":90,"Velocity":69,"Duration":259134,"SoundDuration":259134,"Delta":135402891},{"NoteNumber":53,"Velocity":46,"Duration":1045398,"SoundDuration":1045398,"Delta":135402891},{"NoteNumber":62,"Velocity":60,"Duration":1045398,"SoundDuration":1045398,"Delta":135402891},{"NoteNumber":89,"Velocity":63,"Duration":259134,"SoundDuration":259134,"Delta":135662025},{"NoteNumber":88,"Velocity":70,"Duration":259134,"SoundDuration":259134,"Delta":135921160},{"NoteNumber":87,"Velocity":69,"Duration":267995,"SoundDuration":267995,"Delta":136180294},{"NoteNumber":86,"Velocity":70,"Duration":259841,"SoundDuration":259841,"Delta":136448289},{"NoteNumber":52,"Velocity":50,"Duration":1028993,"SoundDuration":1028993,"Delta":136448289},{"NoteNumber":64,"Velocity":59,"Duration":1028993,"SoundDuration":1028993,"Delta":136448289},{"NoteNumber":85,"Velocity":60,"Duration":258169,"SoundDuration":258169,"Delta":136708131},{"NoteNumber":84,"Velocity":64,"Duration":256372,"SoundDuration":256372,"Delta":136966301},{"NoteNumber":83,"Velocity":67,"Duration":254609,"SoundDuration":254609,"Delta":137222673},{"NoteNumber":82,"Velocity":71,"Duration":253657,"SoundDuration":253657,"Delta":137477282},{"NoteNumber":50,"Velocity":52,"Duration":2070186,"SoundDuration":2070186,"Delta":137477282},{"NoteNumber":65,"Velocity":62,"Duration":2070186,"SoundDuration":2070186,"Delta":137477282},{"NoteNumber":81,"Velocity":60,"Duration":253657,"SoundDuration":253657,"Delta":137730939},{"NoteNumber":80,"Velocity":67,"Duration":253656,"SoundDuration":253656,"Delta":137984596},{"NoteNumber":79,"Velocity":54,"Duration":267470,"SoundDuration":267470,"Delta":138238253},{"NoteNumber":78,"Velocity":60,"Duration":257510,"SoundDuration":257510,"Delta":138505724},{"NoteNumber":77,"Velocity":54,"Duration":258208,"SoundDuration":258208,"Delta":138763234},{"NoteNumber":76,"Velocity":59,"Duration":260557,"SoundDuration":260557,"Delta":139021443},{"NoteNumber":75,"Velocity":50,"Duration":265468,"SoundDuration":265468,"Delta":139282001},{"NoteNumber":74,"Velocity":59,"Duration":270059,"SoundDuration":270059,"Delta":139547469},{"NoteNumber":53,"Velocity":45,"Duration":1139534,"SoundDuration":1139534,"Delta":139547469},{"NoteNumber":62,"Velocity":54,"Duration":1139534,"SoundDuration":1139534,"Delta":139547469},{"NoteNumber":73,"Velocity":46,"Duration":278900,"SoundDuration":278900,"Delta":139817529},{"NoteNumber":72,"Velocity":53,"Duration":288380,"SoundDuration":288380,"Delta":140096429},{"NoteNumber":71,"Velocity":46,"Duration":302193,"SoundDuration":302193,"Delta":140384810},{"NoteNumber":52,"Velocity":40,"Duration":1071427,"SoundDuration":1071427,"Delta":140687003},{"NoteNumber":60,"Velocity":48,"Duration":1071427,"SoundDuration":1071427,"Delta":140687003},{"NoteNumber":72,"Velocity":54,"Duration":535713,"SoundDuration":535713,"Delta":141222717},{"NoteNumber":75,"Velocity":58,"Duration":535714,"SoundDuration":535714,"Delta":141758431},{"NoteNumber":81,"Velocity":54,"Duration":586681,"SoundDuration":586681,"Delta":142294145},{"NoteNumber":52,"Velocity":28,"Duration":1162801,"SoundDuration":1162801,"Delta":142880827},{"NoteNumber":56,"Velocity":28,"Duration":1137549,"SoundDuration":1137549,"Delta":142880827},{"NoteNumber":59,"Velocity":33,"Duration":1162801,"SoundDuration":1162801,"Delta":142880827},{"NoteNumber":77,"Velocity":54,"Duration":606061,"SoundDuration":606061,"Delta":143437568},{"NoteNumber":65,"Velocity":44,"Duration":606061,"SoundDuration":606061,"Delta":143437568},{"NoteNumber":76,"Velocity":43,"Duration":648649,"SoundDuration":648649,"Delta":144043629},{"NoteNumber":64,"Velocity":33,"Duration":648649,"SoundDuration":648649,"Delta":144043629},{"NoteNumber":68,"Velocity":34,"Duration":731707,"SoundDuration":731707,"Delta":144692278},{"NoteNumber":56,"Velocity":24,"Duration":731707,"SoundDuration":731707,"Delta":144692278},{"NoteNumber":77,"Velocity":32,"Duration":274549,"SoundDuration":274549,"Delta":145423985},{"NoteNumber":81,"Velocity":40,"Duration":1076479,"SoundDuration":1076479,"Delta":145423985},{"NoteNumber":45,"Velocity":27,"Duration":1076479,"SoundDuration":1076479,"Delta":145423985},{"NoteNumber":57,"Velocity":32,"Duration":1076479,"SoundDuration":1076479,"Delta":145423985},{"NoteNumber":69,"Velocity":23,"Duration":274549,"SoundDuration":274549,"Delta":145698535},{"NoteNumber":77,"Velocity":23,"Duration":263689,"SoundDuration":263689,"Delta":145973084},{"NoteNumber":69,"Velocity":23,"Duration":263689,"SoundDuration":263689,"Delta":146236774},{"NoteNumber":76,"Velocity":35,"Duration":522601,"SoundDuration":522601,"Delta":146500464},{"NoteNumber":79,"Velocity":35,"Duration":522601,"SoundDuration":522601,"Delta":146500464},{"NoteNumber":67,"Velocity":32,"Duration":522601,"SoundDuration":522601,"Delta":146500464},{"NoteNumber":64,"Velocity":24,"Duration":263689,"SoundDuration":263689,"Delta":146500464},{"NoteNumber":57,"Velocity":21,"Duration":258911,"SoundDuration":258911,"Delta":146764154},{"NoteNumber":81,"Velocity":41,"Duration":543892,"SoundDuration":543892,"Delta":147023065},{"NoteNumber":77,"Velocity":41,"Duration":543892,"SoundDuration":543892,"Delta":147023065},{"NoteNumber":69,"Velocity":24,"Duration":543892,"SoundDuration":543892,"Delta":147023065},{"NoteNumber":65,"Velocity":18,"Duration":258910,"SoundDuration":258910,"Delta":147023065},{"NoteNumber":57,"Velocity":21,"Duration":284981,"SoundDuration":284981,"Delta":147281976},{"NoteNumber":82,"Velocity":46,"Duration":798083,"SoundDuration":798083,"Delta":147566958},{"NoteNumber":79,"Velocity":46,"Duration":775914,"SoundDuration":775914,"Delta":147566958},{"NoteNumber":70,"Velocity":32,"Duration":266028,"SoundDuration":266028,"Delta":147566958},{"NoteNumber":67,"Velocity":24,"Duration":266028,"SoundDuration":266028,"Delta":147566958},{"NoteNumber":57,"Velocity":20,"Duration":266028,"SoundDuration":266028,"Delta":147832986},{"NoteNumber":67,"Velocity":23,"Duration":266027,"SoundDuration":266027,"Delta":148099014},{"NoteNumber":64,"Velocity":17,"Duration":266027,"SoundDuration":266027,"Delta":148099014},{"NoteNumber":76,"Velocity":39,"Duration":243859,"SoundDuration":243859,"Delta":148365042},{"NoteNumber":79,"Velocity":39,"Duration":266028,"SoundDuration":266028,"Delta":148365042},{"NoteNumber":57,"Velocity":20,"Duration":266028,"SoundDuration":266028,"Delta":148365042},{"NoteNumber":73,"Velocity":46,"Duration":522784,"SoundDuration":522784,"Delta":148631070},{"NoteNumber":76,"Velocity":46,"Duration":522784,"SoundDuration":522784,"Delta":148631070},{"NoteNumber":61,"Velocity":23,"Duration":261392,"SoundDuration":261392,"Delta":148631070},{"NoteNumber":64,"Velocity":31,"Duration":261392,"SoundDuration":261392,"Delta":148631070},{"NoteNumber":57,"Velocity":21,"Duration":261392,"SoundDuration":261392,"Delta":148892462},{"NoteNumber":74,"Velocity":40,"Duration":535942,"SoundDuration":535942,"Delta":149153855},{"NoteNumber":77,"Velocity":40,"Duration":535942,"SoundDuration":535942,"Delta":149153855},{"NoteNumber":65,"Velocity":24,"Duration":261392,"SoundDuration":261392,"Delta":149153855},{"NoteNumber":62,"Velocity":18,"Duration":261392,"SoundDuration":261392,"Delta":149153855},{"NoteNumber":57,"Velocity":21,"Duration":274549,"SoundDuration":274549,"Delta":149415247},{"NoteNumber":76,"Velocity":40,"Duration":539229,"SoundDuration":539229,"Delta":149689797},{"NoteNumber":79,"Velocity":40,"Duration":539229,"SoundDuration":539229,"Delta":149689797},{"NoteNumber":64,"Velocity":24,"Duration":269614,"SoundDuration":269614,"Delta":149689797},{"NoteNumber":67,"Velocity":32,"Duration":269614,"SoundDuration":269614,"Delta":149689797},{"NoteNumber":57,"Velocity":20,"Duration":269614,"SoundDuration":269614,"Delta":149959411},{"NoteNumber":77,"Velocity":35,"Duration":520517,"SoundDuration":520517,"Delta":150229026},{"NoteNumber":74,"Velocity":35,"Duration":520517,"SoundDuration":520517,"Delta":150229026},{"NoteNumber":62,"Velocity":24,"Duration":260258,"SoundDuration":260258,"Delta":150229026},{"NoteNumber":65,"Velocity":23,"Duration":260258,"SoundDuration":260258,"Delta":150229026},{"NoteNumber":57,"Velocity":20,"Duration":260258,"SoundDuration":260258,"Delta":150489284},{"NoteNumber":76,"Velocity":35,"Duration":520516,"SoundDuration":520516,"Delta":150749543},{"NoteNumber":72,"Velocity":35,"Duration":520516,"SoundDuration":520516,"Delta":150749543},{"NoteNumber":64,"Velocity":32,"Duration":260258,"SoundDuration":260258,"Delta":150749543},{"NoteNumber":60,"Velocity":24,"Duration":260258,"SoundDuration":260258,"Delta":150749543},{"NoteNumber":57,"Velocity":21,"Duration":260258,"SoundDuration":260258,"Delta":151009801},{"NoteNumber":74,"Velocity":41,"Duration":545239,"SoundDuration":545239,"Delta":151270060},{"NoteNumber":70,"Velocity":41,"Duration":545239,"SoundDuration":545239,"Delta":151270060},{"NoteNumber":62,"Velocity":24,"Duration":260258,"SoundDuration":260258,"Delta":151270060},{"NoteNumber":58,"Velocity":18,"Duration":260258,"SoundDuration":260258,"Delta":151270060},{"NoteNumber":57,"Velocity":21,"Duration":284981,"SoundDuration":284981,"Delta":151530318},{"NoteNumber":73,"Velocity":46,"Duration":791069,"SoundDuration":791069,"Delta":151815300},{"NoteNumber":69,"Velocity":25,"Duration":791069,"SoundDuration":791069,"Delta":151815300},{"NoteNumber":61,"Velocity":32,"Duration":263689,"SoundDuration":263689,"Delta":151815300},{"NoteNumber":57,"Velocity":23,"Duration":263689,"SoundDuration":263689,"Delta":152078990},{"NoteNumber":59,"Velocity":19,"Duration":263689,"SoundDuration":263689,"Delta":152342680},{"NoteNumber":62,"Velocity":23,"Duration":263689,"SoundDuration":263689,"Delta":152342680},{"NoteNumber":71,"Velocity":39,"Duration":263689,"SoundDuration":263689,"Delta":152606370},{"NoteNumber":74,"Velocity":39,"Duration":263689,"SoundDuration":263689,"Delta":152606370},{"NoteNumber":57,"Velocity":23,"Duration":263689,"SoundDuration":263689,"Delta":152606370},{"NoteNumber":73,"Velocity":46,"Duration":522784,"SoundDuration":522784,"Delta":152870060},{"NoteNumber":76,"Velocity":46,"Duration":522784,"SoundDuration":522784,"Delta":152870060},{"NoteNumber":61,"Velocity":26,"Duration":261392,"SoundDuration":261392,"Delta":152870060},{"NoteNumber":64,"Velocity":31,"Duration":261392,"SoundDuration":261392,"Delta":152870060},{"NoteNumber":57,"Velocity":24,"Duration":261392,"SoundDuration":261392,"Delta":153143433},{"NoteNumber":61,"Velocity":24,"Duration":261392,"SoundDuration":261392,"Delta":153392845},{"NoteNumber":64,"Velocity":24,"Duration":261392,"SoundDuration":261392,"Delta":153392845},{"NoteNumber":57,"Velocity":20,"Duration":280185,"SoundDuration":280185,"Delta":153667116},{"NoteNumber":85,"Velocity":46,"Duration":791069,"SoundDuration":791069,"Delta":153935215},{"NoteNumber":81,"Velocity":25,"Duration":791069,"SoundDuration":791069,"Delta":153935215},{"NoteNumber":69,"Velocity":32,"Duration":263689,"SoundDuration":263689,"Delta":153935215},{"NoteNumber":57,"Velocity":23,"Duration":263689,"SoundDuration":263689,"Delta":154198905},{"NoteNumber":69,"Velocity":23,"Duration":263689,"SoundDuration":263689,"Delta":154462595},{"NoteNumber":83,"Velocity":39,"Duration":263689,"SoundDuration":263689,"Delta":154726285},{"NoteNumber":86,"Velocity":39,"Duration":263689,"SoundDuration":263689,"Delta":154726285},{"NoteNumber":57,"Velocity":23,"Duration":263689,"SoundDuration":263689,"Delta":154726285},{"NoteNumber":85,"Velocity":46,"Duration":522784,"SoundDuration":522784,"Delta":154989975},{"NoteNumber":88,"Velocity":46,"Duration":522784,"SoundDuration":522784,"Delta":154989975},{"NoteNumber":69,"Velocity":31,"Duration":261392,"SoundDuration":261392,"Delta":154989975},{"NoteNumber":57,"Velocity":29,"Duration":261392,"SoundDuration":261392,"Delta":155263348},{"NoteNumber":69,"Velocity":34,"Duration":261392,"SoundDuration":261392,"Delta":155512760},{"NoteNumber":57,"Velocity":39,"Duration":280185,"SoundDuration":280185,"Delta":155787031},{"NoteNumber":69,"Velocity":23,"Duration":791069,"SoundDuration":791069,"Delta":156055131},{"NoteNumber":72,"Velocity":50,"Duration":791069,"SoundDuration":791069,"Delta":156055131},{"NoteNumber":64,"Velocity":44,"Duration":263689,"SoundDuration":263689,"Delta":156055131},{"NoteNumber":57,"Velocity":25,"Duration":263689,"SoundDuration":263689,"Delta":156318821},{"NoteNumber":64,"Velocity":25,"Duration":263689,"SoundDuration":263689,"Delta":156569326},{"NoteNumber":74,"Velocity":42,"Duration":263689,"SoundDuration":263689,"Delta":156846201},{"NoteNumber":71,"Velocity":36,"Duration":263689,"SoundDuration":263689,"Delta":156846201},{"NoteNumber":57,"Velocity":25,"Duration":263689,"SoundDuration":263689,"Delta":156846201},{"NoteNumber":76,"Velocity":50,"Duration":1845989,"SoundDuration":1845989,"Delta":157109891},{"NoteNumber":72,"Velocity":42,"Duration":1845989,"SoundDuration":1845989,"Delta":157109891},{"NoteNumber":64,"Velocity":34,"Duration":259134,"SoundDuration":259134,"Delta":157109891},{"NoteNumber":57,"Velocity":26,"Duration":259134,"SoundDuration":259134,"Delta":157380902},{"NoteNumber":64,"Velocity":26,"Duration":259134,"SoundDuration":259134,"Delta":157628160},{"NoteNumber":57,"Velocity":22,"Duration":280132,"SoundDuration":280132,"Delta":157900173},{"NoteNumber":67,"Velocity":46,"Duration":262536,"SoundDuration":262536,"Delta":158168272},{"NoteNumber":55,"Velocity":30,"Duration":262535,"SoundDuration":262535,"Delta":158430808},{"NoteNumber":67,"Velocity":32,"Duration":262536,"SoundDuration":262536,"Delta":158693344},{"NoteNumber":74,"Velocity":40,"Duration":262535,"SoundDuration":262535,"Delta":158955880},{"NoteNumber":77,"Velocity":48,"Duration":262535,"SoundDuration":262535,"Delta":158955880},{"NoteNumber":55,"Velocity":34,"Duration":262535,"SoundDuration":262535,"Delta":158955880},{"NoteNumber":79,"Velocity":57,"Duration":1815465,"SoundDuration":1815465,"Delta":159218416},{"NoteNumber":76,"Velocity":46,"Duration":1044719,"SoundDuration":1044719,"Delta":159218416},{"NoteNumber":67,"Velocity":42,"Duration":256915,"SoundDuration":256915,"Delta":159218416},{"NoteNumber":55,"Velocity":34,"Duration":256915,"SoundDuration":256915,"Delta":159475332},{"NoteNumber":67,"Velocity":34,"Duration":256915,"SoundDuration":256915,"Delta":159732247},{"NoteNumber":55,"Velocity":34,"Duration":273972,"SoundDuration":273972,"Delta":159989163},{"NoteNumber":75,"Velocity":51,"Duration":1027661,"SoundDuration":1027661,"Delta":160263135},{"NoteNumber":72,"Velocity":27,"Duration":1027661,"SoundDuration":1027661,"Delta":160263135},{"NoteNumber":66,"Velocity":48,"Duration":256915,"SoundDuration":256915,"Delta":160263135},{"NoteNumber":55,"Velocity":36,"Duration":256915,"SoundDuration":256915,"Delta":160520051},{"NoteNumber":66,"Velocity":37,"Duration":256915,"SoundDuration":256915,"Delta":160776966},{"NoteNumber":81,"Velocity":62,"Duration":256915,"SoundDuration":256915,"Delta":161033882},{"NoteNumber":55,"Velocity":37,"Duration":256915,"SoundDuration":256915,"Delta":161033882},{"NoteNumber":79,"Velocity":50,"Duration":998076,"SoundDuration":998076,"Delta":161290797},{"NoteNumber":74,"Velocity":50,"Duration":1020498,"SoundDuration":1020498,"Delta":161290797},{"NoteNumber":83,"Velocity":60,"Duration":1787958,"SoundDuration":1787958,"Delta":161290797},{"NoteNumber":65,"Velocity":47,"Duration":250480,"SoundDuration":250480,"Delta":161290797},{"NoteNumber":55,"Velocity":34,"Duration":250479,"SoundDuration":250479,"Delta":161541277},{"NoteNumber":65,"Velocity":34,"Duration":250480,"SoundDuration":250480,"Delta":161791757},{"NoteNumber":55,"Velocity":27,"Duration":269058,"SoundDuration":269058,"Delta":162042237},{"NoteNumber":72,"Velocity":26,"Duration":1023279,"SoundDuration":1023279,"Delta":162311296},{"NoteNumber":79,"Velocity":58,"Duration":1023279,"SoundDuration":1023279,"Delta":162311296},{"NoteNumber":64,"Velocity":50,"Duration":255819,"SoundDuration":255819,"Delta":162311296},{"NoteNumber":55,"Velocity":36,"Duration":255819,"SoundDuration":255819,"Delta":162567116},{"NoteNumber":64,"Velocity":36,"Duration":255819,"SoundDuration":255819,"Delta":162822936},{"NoteNumber":84,"Velocity":62,"Duration":255819,"SoundDuration":255819,"Delta":163078756},{"NoteNumber":55,"Velocity":36,"Duration":255819,"SoundDuration":255819,"Delta":163078756},{"NoteNumber":74,"Velocity":56,"Duration":1008375,"SoundDuration":1008375,"Delta":163334576},{"NoteNumber":83,"Velocity":56,"Duration":1008375,"SoundDuration":1008375,"Delta":163334576},{"NoteNumber":86,"Velocity":67,"Duration":1747474,"SoundDuration":1747474,"Delta":163334576},{"NoteNumber":77,"Velocity":56,"Duration":1008375,"SoundDuration":1008375,"Delta":163334576},{"NoteNumber":62,"Velocity":50,"Duration":248405,"SoundDuration":248405,"Delta":163334576},{"NoteNumber":55,"Velocity":40,"Duration":248406,"SoundDuration":248406,"Delta":163582982},{"NoteNumber":62,"Velocity":40,"Duration":248405,"SoundDuration":248405,"Delta":163831388},{"NoteNumber":55,"Velocity":40,"Duration":263158,"SoundDuration":263158,"Delta":164079794},{"NoteNumber":79,"Velocity":70,"Duration":985464,"SoundDuration":985464,"Delta":164342952},{"NoteNumber":76,"Velocity":31,"Duration":985464,"SoundDuration":985464,"Delta":164342952},{"NoteNumber":60,"Velocity":52,"Duration":246365,"SoundDuration":246365,"Delta":164342952},{"NoteNumber":55,"Velocity":39,"Duration":246365,"SoundDuration":246365,"Delta":164589318},{"NoteNumber":60,"Velocity":42,"Duration":246366,"SoundDuration":246366,"Delta":164835684},{"NoteNumber":88,"Velocity":74,"Duration":246365,"SoundDuration":246365,"Delta":165082050},{"NoteNumber":55,"Velocity":48,"Duration":246365,"SoundDuration":246365,"Delta":165082050},{"NoteNumber":89,"Velocity":73,"Duration":1222255,"SoundDuration":1222255,"Delta":165328416},{"NoteNumber":86,"Velocity":73,"Duration":1222255,"SoundDuration":1222255,"Delta":165328416},{"NoteNumber":77,"Velocity":61,"Duration":1222255,"SoundDuration":1222255,"Delta":165328416},{"NoteNumber":59,"Velocity":45,"Duration":242385,"SoundDuration":242385,"Delta":165328416},{"NoteNumber":55,"Velocity":45,"Duration":242384,"SoundDuration":242384,"Delta":165570801},{"NoteNumber":59,"Velocity":52,"Duration":242385,"SoundDuration":242385,"Delta":165813186},{"NoteNumber":55,"Velocity":45,"Duration":253164,"SoundDuration":253164,"Delta":166055571},{"NoteNumber":67,"Velocity":55,"Duration":241935,"SoundDuration":241935,"Delta":166308735},{"NoteNumber":85,"Velocity":67,"Duration":242681,"SoundDuration":242681,"Delta":166550671},{"NoteNumber":88,"Velocity":67,"Duration":242681,"SoundDuration":242681,"Delta":166550671},{"NoteNumber":76,"Velocity":56,"Duration":242681,"SoundDuration":242681,"Delta":166550671},{"NoteNumber":55,"Velocity":46,"Duration":242681,"SoundDuration":242681,"Delta":166550671},{"NoteNumber":77,"Velocity":61,"Duration":243486,"SoundDuration":243486,"Delta":166793352},{"NoteNumber":89,"Velocity":72,"Duration":243486,"SoundDuration":243486,"Delta":166793352},{"NoteNumber":86,"Velocity":72,"Duration":243486,"SoundDuration":243486,"Delta":166793352},{"NoteNumber":67,"Velocity":55,"Duration":243486,"SoundDuration":243486,"Delta":166793352},{"NoteNumber":85,"Velocity":67,"Duration":242384,"SoundDuration":242384,"Delta":167036839},{"NoteNumber":76,"Velocity":56,"Duration":242384,"SoundDuration":242384,"Delta":167036839},{"NoteNumber":88,"Velocity":67,"Duration":242384,"SoundDuration":242384,"Delta":167036839},{"NoteNumber":55,"Velocity":47,"Duration":242384,"SoundDuration":242384,"Delta":167036839},{"NoteNumber":86,"Velocity":76,"Duration":241372,"SoundDuration":241372,"Delta":167279224},{"NoteNumber":77,"Velocity":64,"Duration":241372,"SoundDuration":241372,"Delta":167279224},{"NoteNumber":89,"Velocity":76,"Duration":241372,"SoundDuration":241372,"Delta":167279224},{"NoteNumber":67,"Velocity":60,"Duration":241372,"SoundDuration":241372,"Delta":167279224},{"NoteNumber":85,"Velocity":73,"Duration":240289,"SoundDuration":240289,"Delta":167520597},{"NoteNumber":88,"Velocity":73,"Duration":240289,"SoundDuration":240289,"Delta":167520597},{"NoteNumber":76,"Velocity":62,"Duration":240289,"SoundDuration":240289,"Delta":167520597},{"NoteNumber":55,"Velocity":49,"Duration":240289,"SoundDuration":240289,"Delta":167520597},{"NoteNumber":86,"Velocity":76,"Duration":239290,"SoundDuration":239290,"Delta":167760886},{"NoteNumber":89,"Velocity":76,"Duration":239290,"SoundDuration":239290,"Delta":167760886},{"NoteNumber":77,"Velocity":64,"Duration":239290,"SoundDuration":239290,"Delta":167760886},{"NoteNumber":67,"Velocity":63,"Duration":239290,"SoundDuration":239290,"Delta":167760886},{"NoteNumber":85,"Velocity":81,"Duration":119177,"SoundDuration":119177,"Delta":168000177},{"NoteNumber":88,"Velocity":81,"Duration":119177,"SoundDuration":119177,"Delta":168000177},{"NoteNumber":76,"Velocity":68,"Duration":119177,"SoundDuration":119177,"Delta":168000177},{"NoteNumber":55,"Velocity":51,"Duration":482863,"SoundDuration":482863,"Delta":168000177},{"NoteNumber":62,"Velocity":58,"Duration":299030,"SoundDuration":299030,"Delta":168184010},{"NoteNumber":65,"Velocity":63,"Duration":266702,"SoundDuration":266702,"Delta":168216337},{"NoteNumber":89,"Velocity":73,"Duration":117187,"SoundDuration":117187,"Delta":168248665},{"NoteNumber":101,"Velocity":86,"Duration":117187,"SoundDuration":117187,"Delta":168248665},{"NoteNumber":91,"Velocity":73,"Duration":117187,"SoundDuration":117187,"Delta":168248665},{"NoteNumber":71,"Velocity":68,"Duration":234375,"SoundDuration":234375,"Delta":168248665},{"NoteNumber":98,"Velocity":75,"Duration":117187,"SoundDuration":117187,"Delta":168365852},{"NoteNumber":95,"Velocity":76,"Duration":117187,"SoundDuration":117187,"Delta":168483040},{"NoteNumber":64,"Velocity":50,"Duration":234375,"SoundDuration":234375,"Delta":168483040},{"NoteNumber":76,"Velocity":59,"Duration":234375,"SoundDuration":234375,"Delta":168483040},{"NoteNumber":91,"Velocity":73,"Duration":117187,"SoundDuration":117187,"Delta":168600227},{"NoteNumber":89,"Velocity":86,"Duration":117187,"SoundDuration":117187,"Delta":168717415},{"NoteNumber":65,"Velocity":56,"Duration":234375,"SoundDuration":234375,"Delta":168717415},{"NoteNumber":77,"Velocity":66,"Duration":234375,"SoundDuration":234375,"Delta":168717415},{"NoteNumber":86,"Velocity":72,"Duration":117187,"SoundDuration":117187,"Delta":168834602},{"NoteNumber":83,"Velocity":76,"Duration":117187,"SoundDuration":117187,"Delta":168951790},{"NoteNumber":61,"Velocity":50,"Duration":242710,"SoundDuration":242710,"Delta":168951790},{"NoteNumber":73,"Velocity":59,"Duration":242710,"SoundDuration":242710,"Delta":168951790},{"NoteNumber":79,"Velocity":69,"Duration":125522,"SoundDuration":125522,"Delta":169068977},{"NoteNumber":89,"Velocity":86,"Duration":116731,"SoundDuration":116731,"Delta":169194500},{"NoteNumber":62,"Velocity":56,"Duration":233463,"SoundDuration":233463,"Delta":169194500},{"NoteNumber":74,"Velocity":67,"Duration":233463,"SoundDuration":233463,"Delta":169194500},{"NoteNumber":86,"Velocity":75,"Duration":116731,"SoundDuration":116731,"Delta":169311232},{"NoteNumber":83,"Velocity":76,"Duration":116731,"SoundDuration":116731,"Delta":169427963},{"NoteNumber":58,"Velocity":50,"Duration":233463,"SoundDuration":233463,"Delta":169427963},{"NoteNumber":70,"Velocity":59,"Duration":233463,"SoundDuration":233463,"Delta":169427963},{"NoteNumber":79,"Velocity":73,"Duration":116731,"SoundDuration":116731,"Delta":169544695},{"NoteNumber":77,"Velocity":86,"Duration":116731,"SoundDuration":116731,"Delta":169661426},{"NoteNumber":59,"Velocity":56,"Duration":233463,"SoundDuration":233463,"Delta":169661426},{"NoteNumber":71,"Velocity":66,"Duration":233463,"SoundDuration":233463,"Delta":169661426},{"NoteNumber":74,"Velocity":72,"Duration":116731,"SoundDuration":116731,"Delta":169778158},{"NoteNumber":71,"Velocity":76,"Duration":116731,"SoundDuration":116731,"Delta":169894889},{"NoteNumber":55,"Velocity":50,"Duration":116731,"SoundDuration":116731,"Delta":169894889},{"NoteNumber":67,"Velocity":59,"Duration":116731,"SoundDuration":116731,"Delta":169894889},{"NoteNumber":67,"Velocity":69,"Duration":125522,"SoundDuration":125522,"Delta":170011621},{"NoteNumber":89,"Velocity":86,"Duration":116731,"SoundDuration":116731,"Delta":170137144},{"NoteNumber":86,"Velocity":75,"Duration":116731,"SoundDuration":116731,"Delta":170253875},{"NoteNumber":83,"Velocity":76,"Duration":116731,"SoundDuration":116731,"Delta":170370607},{"NoteNumber":40,"Velocity":50,"Duration":233463,"SoundDuration":233463,"Delta":170370607},{"NoteNumber":52,"Velocity":59,"Duration":233463,"SoundDuration":233463,"Delta":170370607},{"NoteNumber":79,"Velocity":73,"Duration":116731,"SoundDuration":116731,"Delta":170487338},{"NoteNumber":77,"Velocity":86,"Duration":116731,"SoundDuration":116731,"Delta":170604070},{"NoteNumber":41,"Velocity":56,"Duration":233463,"SoundDuration":233463,"Delta":170604070},{"NoteNumber":53,"Velocity":66,"Duration":233463,"SoundDuration":233463,"Delta":170604070},{"NoteNumber":74,"Velocity":72,"Duration":116731,"SoundDuration":116731,"Delta":170720801},{"NoteNumber":71,"Velocity":76,"Duration":116731,"SoundDuration":116731,"Delta":170837533},{"NoteNumber":37,"Velocity":50,"Duration":242254,"SoundDuration":242254,"Delta":170837533},{"NoteNumber":49,"Velocity":59,"Duration":242254,"SoundDuration":242254,"Delta":170837533},{"NoteNumber":67,"Velocity":69,"Duration":125522,"SoundDuration":125522,"Delta":170954264},{"NoteNumber":65,"Velocity":81,"Duration":77821,"SoundDuration":77821,"Delta":171079787},{"NoteNumber":38,"Velocity":56,"Duration":233463,"SoundDuration":233463,"Delta":171079787},{"NoteNumber":50,"Velocity":67,"Duration":233463,"SoundDuration":233463,"Delta":171079787},{"NoteNumber":62,"Velocity":70,"Duration":77821,"SoundDuration":77821,"Delta":171157608},{"NoteNumber":59,"Velocity":70,"Duration":77821,"SoundDuration":77821,"Delta":171235429},{"NoteNumber":55,"Velocity":75,"Duration":77821,"SoundDuration":77821,"Delta":171313250},{"NoteNumber":34,"Velocity":50,"Duration":233463,"SoundDuration":233463,"Delta":171313250},{"NoteNumber":46,"Velocity":59,"Duration":233463,"SoundDuration":233463,"Delta":171313250},{"NoteNumber":59,"Velocity":70,"Duration":77821,"SoundDuration":77821,"Delta":171391071},{"NoteNumber":62,"Velocity":70,"Duration":77821,"SoundDuration":77821,"Delta":171468892},{"NoteNumber":65,"Velocity":79,"Duration":77821,"SoundDuration":77821,"Delta":171546713},{"NoteNumber":35,"Velocity":56,"Duration":233463,"SoundDuration":233463,"Delta":171546713},{"NoteNumber":47,"Velocity":66,"Duration":233463,"SoundDuration":233463,"Delta":171546713},{"NoteNumber":67,"Velocity":70,"Duration":77821,"SoundDuration":77821,"Delta":171624534},{"NoteNumber":74,"Velocity":70,"Duration":77821,"SoundDuration":77821,"Delta":171702355},{"NoteNumber":77,"Velocity":70,"Duration":77821,"SoundDuration":77821,"Delta":171780176},{"NoteNumber":31,"Velocity":50,"Duration":116731,"SoundDuration":116731,"Delta":171780176},{"NoteNumber":43,"Velocity":59,"Duration":116731,"SoundDuration":116731,"Delta":171780176},{"NoteNumber":79,"Velocity":70,"Duration":80751,"SoundDuration":80751,"Delta":171857997},{"NoteNumber":83,"Velocity":70,"Duration":83681,"SoundDuration":83681,"Delta":171938749},{"NoteNumber":48,"Velocity":64,"Duration":752759,"SoundDuration":752759,"Delta":172022431},{"NoteNumber":55,"Velocity":67,"Duration":721395,"SoundDuration":721395,"Delta":172053796},{"NoteNumber":60,"Velocity":70,"Duration":690030,"SoundDuration":690030,"Delta":172085161},{"NoteNumber":84,"Velocity":88,"Duration":658664,"SoundDuration":658664,"Delta":172116526},{"NoteNumber":72,"Velocity":73,"Duration":658664,"SoundDuration":658664,"Delta":172116526},{"NoteNumber":79,"Velocity":73,"Duration":658664,"SoundDuration":658664,"Delta":172116526},{"NoteNumber":76,"Velocity":73,"Duration":658664,"SoundDuration":658664,"Delta":172116526},{"NoteNumber":64,"Velocity":73,"Duration":658664,"SoundDuration":658664,"Delta":172116526},{"NoteNumber":64,"Velocity":70,"Duration":192636,"SoundDuration":192636,"Delta":172775191},{"NoteNumber":60,"Velocity":59,"Duration":192636,"SoundDuration":192636,"Delta":172775191},{"NoteNumber":52,"Velocity":59,"Duration":192636,"SoundDuration":192636,"Delta":172775191},{"NoteNumber":36,"Velocity":55,"Duration":192636,"SoundDuration":192636,"Delta":172775191},{"NoteNumber":43,"Velocity":55,"Duration":192636,"SoundDuration":192636,"Delta":172775191},{"NoteNumber":48,"Velocity":65,"Duration":192636,"SoundDuration":192636,"Delta":172775191},{"NoteNumber":52,"Velocity":62,"Duration":475359,"SoundDuration":475359,"Delta":172989232},{"NoteNumber":60,"Velocity":62,"Duration":475359,"SoundDuration":475359,"Delta":172989232},{"NoteNumber":64,"Velocity":74,"Duration":475359,"SoundDuration":475359,"Delta":172989232},{"NoteNumber":36,"Velocity":55,"Duration":475359,"SoundDuration":475359,"Delta":172989232},{"NoteNumber":43,"Velocity":55,"Duration":475359,"SoundDuration":475359,"Delta":172989232},{"NoteNumber":48,"Velocity":65,"Duration":475359,"SoundDuration":475359,"Delta":172989232},{"NoteNumber":60,"Velocity":60,"Duration":111723,"SoundDuration":111723,"Delta":173464592},{"NoteNumber":65,"Velocity":71,"Duration":111723,"SoundDuration":111723,"Delta":173464592},{"NoteNumber":53,"Velocity":60,"Duration":111723,"SoundDuration":111723,"Delta":173464592},{"NoteNumber":38,"Velocity":50,"Duration":111723,"SoundDuration":111723,"Delta":173464592},{"NoteNumber":50,"Velocity":59,"Duration":111723,"SoundDuration":111723,"Delta":173464592},{"NoteNumber":67,"Velocity":75,"Duration":121951,"SoundDuration":121951,"Delta":173688039},{"NoteNumber":55,"Velocity":63,"Duration":121951,"SoundDuration":121951,"Delta":173688039},{"NoteNumber":60,"Velocity":63,"Duration":121951,"SoundDuration":121951,"Delta":173688039},{"NoteNumber":40,"Velocity":55,"Duration":121951,"SoundDuration":121951,"Delta":173688039},{"NoteNumber":48,"Velocity":55,"Duration":121951,"SoundDuration":121951,"Delta":173688039},{"NoteNumber":52,"Velocity":65,"Duration":121951,"SoundDuration":121951,"Delta":173688039},{"NoteNumber":60,"Velocity":66,"Duration":113731,"SoundDuration":113731,"Delta":173931941},{"NoteNumber":57,"Velocity":66,"Duration":113731,"SoundDuration":113731,"Delta":173931941},{"NoteNumber":69,"Velocity":78,"Duration":113731,"SoundDuration":113731,"Delta":173931941},{"NoteNumber":41,"Velocity":56,"Duration":113731,"SoundDuration":113731,"Delta":173931941},{"NoteNumber":48,"Velocity":56,"Duration":113731,"SoundDuration":113731,"Delta":173931941},{"NoteNumber":53,"Velocity":67,"Duration":113731,"SoundDuration":113731,"Delta":173931941},{"NoteNumber":67,"Velocity":74,"Duration":113731,"SoundDuration":113731,"Delta":174386866},{"NoteNumber":55,"Velocity":62,"Duration":113731,"SoundDuration":113731,"Delta":174386866},{"NoteNumber":60,"Velocity":62,"Duration":113731,"SoundDuration":113731,"Delta":174386866},{"NoteNumber":40,"Velocity":52,"Duration":113731,"SoundDuration":113731,"Delta":174386866},{"NoteNumber":48,"Velocity":52,"Duration":113731,"SoundDuration":113731,"Delta":174386866},{"NoteNumber":52,"Velocity":62,"Duration":113731,"SoundDuration":113731,"Delta":174386866},{"NoteNumber":60,"Velocity":59,"Duration":204716,"SoundDuration":204716,"Delta":175524179},{"NoteNumber":52,"Velocity":59,"Duration":204716,"SoundDuration":204716,"Delta":175524179},{"NoteNumber":64,"Velocity":70,"Duration":204716,"SoundDuration":204716,"Delta":175524179},{"NoteNumber":36,"Velocity":55,"Duration":204716,"SoundDuration":204716,"Delta":175524179},{"NoteNumber":43,"Velocity":55,"Duration":204716,"SoundDuration":204716,"Delta":175524179},{"NoteNumber":48,"Velocity":65,"Duration":204716,"SoundDuration":204716,"Delta":175524179},{"NoteNumber":64,"Velocity":77,"Duration":454924,"SoundDuration":454924,"Delta":175751641},{"NoteNumber":60,"Velocity":65,"Duration":454924,"SoundDuration":454924,"Delta":175751641},{"NoteNumber":52,"Velocity":65,"Duration":454924,"SoundDuration":454924,"Delta":175751641},{"NoteNumber":36,"Velocity":55,"Duration":454924,"SoundDuration":454924,"Delta":175751641},{"NoteNumber":43,"Velocity":55,"Duration":454924,"SoundDuration":454924,"Delta":175751641},{"NoteNumber":48,"Velocity":65,"Duration":454924,"SoundDuration":454924,"Delta":175751641},{"NoteNumber":65,"Velocity":77,"Duration":107434,"SoundDuration":107434,"Delta":176206566},{"NoteNumber":60,"Velocity":65,"Duration":107434,"SoundDuration":107434,"Delta":176206566},{"NoteNumber":53,"Velocity":65,"Duration":107434,"SoundDuration":107434,"Delta":176206566},{"NoteNumber":38,"Velocity":50,"Duration":107434,"SoundDuration":107434,"Delta":176206566},{"NoteNumber":50,"Velocity":59,"Duration":107434,"SoundDuration":107434,"Delta":176206566},{"NoteNumber":55,"Velocity":68,"Duration":119865,"SoundDuration":119865,"Delta":176421435},{"NoteNumber":60,"Velocity":68,"Duration":119865,"SoundDuration":119865,"Delta":176421435},{"NoteNumber":67,"Velocity":80,"Duration":119865,"SoundDuration":119865,"Delta":176421435},{"NoteNumber":40,"Velocity":55,"Duration":119865,"SoundDuration":119865,"Delta":176421435},{"NoteNumber":48,"Velocity":55,"Duration":119865,"SoundDuration":119865,"Delta":176421435},{"NoteNumber":52,"Velocity":65,"Duration":119865,"SoundDuration":119865,"Delta":176421435},{"NoteNumber":69,"Velocity":83,"Duration":443361,"SoundDuration":443361,"Delta":176661167},{"NoteNumber":57,"Velocity":70,"Duration":443361,"SoundDuration":443361,"Delta":176661167},{"NoteNumber":60,"Velocity":70,"Duration":443361,"SoundDuration":443361,"Delta":176661167},{"NoteNumber":41,"Velocity":56,"Duration":221680,"SoundDuration":221680,"Delta":176661167},{"NoteNumber":48,"Velocity":56,"Duration":221680,"SoundDuration":221680,"Delta":176661167},{"NoteNumber":53,"Velocity":67,"Duration":221680,"SoundDuration":221680,"Delta":176661167},{"NoteNumber":67,"Velocity":81,"Duration":106209,"SoundDuration":106209,"Delta":177104528},{"NoteNumber":60,"Velocity":68,"Duration":106209,"SoundDuration":106209,"Delta":177104528},{"NoteNumber":55,"Velocity":68,"Duration":106209,"SoundDuration":106209,"Delta":177104528},{"NoteNumber":48,"Velocity":50,"Duration":106209,"SoundDuration":106209,"Delta":177104528},{"NoteNumber":40,"Velocity":50,"Duration":106209,"SoundDuration":106209,"Delta":177104528},{"NoteNumber":52,"Velocity":59,"Duration":106209,"SoundDuration":106209,"Delta":177104528},{"NoteNumber":69,"Velocity":83,"Duration":118840,"SoundDuration":118840,"Delta":177316947},{"NoteNumber":60,"Velocity":70,"Duration":118840,"SoundDuration":118840,"Delta":177316947},{"NoteNumber":57,"Velocity":70,"Duration":118840,"SoundDuration":118840,"Delta":177316947},{"NoteNumber":41,"Velocity":55,"Duration":118840,"SoundDuration":118840,"Delta":177316947},{"NoteNumber":48,"Velocity":55,"Duration":118840,"SoundDuration":118840,"Delta":177316947},{"NoteNumber":53,"Velocity":65,"Duration":118840,"SoundDuration":118840,"Delta":177316947},{"NoteNumber":60,"Velocity":72,"Duration":112620,"SoundDuration":112620,"Delta":177554627},{"NoteNumber":70,"Velocity":85,"Duration":112620,"SoundDuration":112620,"Delta":177554627},{"NoteNumber":58,"Velocity":72,"Duration":112620,"SoundDuration":112620,"Delta":177554627},{"NoteNumber":43,"Velocity":56,"Duration":112620,"SoundDuration":112620,"Delta":177554627},{"NoteNumber":48,"Velocity":56,"Duration":112620,"SoundDuration":112620,"Delta":177554627},{"NoteNumber":55,"Velocity":67,"Duration":112620,"SoundDuration":112620,"Delta":177554627},{"NoteNumber":57,"Velocity":68,"Duration":112621,"SoundDuration":112621,"Delta":178005111},{"NoteNumber":69,"Velocity":81,"Duration":112621,"SoundDuration":112621,"Delta":178005111},{"NoteNumber":60,"Velocity":68,"Duration":112621,"SoundDuration":112621,"Delta":178005111},{"NoteNumber":41,"Velocity":52,"Duration":112621,"SoundDuration":112621,"Delta":178005111},{"NoteNumber":48,"Velocity":52,"Duration":112621,"SoundDuration":112621,"Delta":178005111},{"NoteNumber":53,"Velocity":62,"Duration":112621,"SoundDuration":112621,"Delta":178005111},{"NoteNumber":67,"Velocity":71,"Duration":111723,"SoundDuration":111723,"Delta":178906079},{"NoteNumber":55,"Velocity":60,"Duration":111723,"SoundDuration":111723,"Delta":178906079},{"NoteNumber":60,"Velocity":60,"Duration":111723,"SoundDuration":111723,"Delta":178906079},{"NoteNumber":48,"Velocity":50,"Duration":111723,"SoundDuration":111723,"Delta":178906079},{"NoteNumber":40,"Velocity":50,"Duration":111723,"SoundDuration":111723,"Delta":178906079},{"NoteNumber":52,"Velocity":59,"Duration":111723,"SoundDuration":111723,"Delta":178906079},{"NoteNumber":60,"Velocity":63,"Duration":121951,"SoundDuration":121951,"Delta":179129526},{"NoteNumber":69,"Velocity":75,"Duration":121951,"SoundDuration":121951,"Delta":179129526},{"NoteNumber":57,"Velocity":63,"Duration":121951,"SoundDuration":121951,"Delta":179129526},{"NoteNumber":41,"Velocity":55,"Duration":121951,"SoundDuration":121951,"Delta":179129526},{"NoteNumber":48,"Velocity":55,"Duration":121951,"SoundDuration":121951,"Delta":179129526},{"NoteNumber":53,"Velocity":65,"Duration":121951,"SoundDuration":121951,"Delta":179129526},{"NoteNumber":65,"Velocity":66,"Duration":111284,"SoundDuration":111284,"Delta":179373429},{"NoteNumber":71,"Velocity":78,"Duration":111284,"SoundDuration":111284,"Delta":179373429},{"NoteNumber":59,"Velocity":66,"Duration":111284,"SoundDuration":111284,"Delta":179373429},{"NoteNumber":38,"Velocity":56,"Duration":111284,"SoundDuration":111284,"Delta":179373429},{"NoteNumber":50,"Velocity":67,"Duration":111284,"SoundDuration":111284,"Delta":179373429},{"NoteNumber":64,"Velocity":68,"Duration":113541,"SoundDuration":113541,"Delta":179818566},{"NoteNumber":72,"Velocity":80,"Duration":113541,"SoundDuration":113541,"Delta":179818566},{"NoteNumber":60,"Velocity":68,"Duration":113541,"SoundDuration":113541,"Delta":179818566},{"NoteNumber":40,"Velocity":57,"Duration":113541,"SoundDuration":113541,"Delta":179818566},{"NoteNumber":52,"Velocity":68,"Duration":113541,"SoundDuration":113541,"Delta":179818566},{"NoteNumber":67,"Velocity":69,"Duration":111723,"SoundDuration":111723,"Delta":180272733},{"NoteNumber":74,"Velocity":82,"Duration":111723,"SoundDuration":111723,"Delta":180272733},{"NoteNumber":62,"Velocity":69,"Duration":111723,"SoundDuration":111723,"Delta":180272733},{"NoteNumber":35,"Velocity":59,"Duration":111723,"SoundDuration":111723,"Delta":180272733},{"NoteNumber":47,"Velocity":70,"Duration":111723,"SoundDuration":111723,"Delta":180272733},{"NoteNumber":64,"Velocity":71,"Duration":113999,"SoundDuration":113999,"Delta":180719627},{"NoteNumber":76,"Velocity":84,"Duration":113999,"SoundDuration":113999,"Delta":180719627},{"NoteNumber":67,"Velocity":71,"Duration":113999,"SoundDuration":113999,"Delta":180719627},{"NoteNumber":36,"Velocity":62,"Duration":113999,"SoundDuration":113999,"Delta":180719627},{"NoteNumber":48,"Velocity":73,"Duration":113999,"SoundDuration":113999,"Delta":180719627},{"NoteNumber":78,"Velocity":78,"Duration":77874,"SoundDuration":77874,"Delta":181176182},{"NoteNumber":72,"Velocity":72,"Duration":901589,"SoundDuration":901589,"Delta":181176182},{"NoteNumber":74,"Velocity":72,"Duration":901589,"SoundDuration":901589,"Delta":181176182},{"NoteNumber":33,"Velocity":67,"Duration":901589,"SoundDuration":901589,"Delta":181176182},{"NoteNumber":38,"Velocity":67,"Duration":882818,"SoundDuration":882818,"Delta":181176182},{"NoteNumber":45,"Velocity":79,"Duration":901589,"SoundDuration":901589,"Delta":181176182},{"NoteNumber":79,"Velocity":73,"Duration":77053,"SoundDuration":77053,"Delta":181254056},{"NoteNumber":78,"Velocity":80,"Duration":76245,"SoundDuration":76245,"Delta":181331110},{"NoteNumber":79,"Velocity":75,"Duration":75478,"SoundDuration":75478,"Delta":181407355},{"NoteNumber":78,"Velocity":82,"Duration":74740,"SoundDuration":74740,"Delta":181482834},{"NoteNumber":79,"Velocity":78,"Duration":73772,"SoundDuration":73772,"Delta":181557575},{"NoteNumber":78,"Velocity":84,"Duration":73754,"SoundDuration":73754,"Delta":181631348},{"NoteNumber":79,"Velocity":81,"Duration":73989,"SoundDuration":73989,"Delta":181705102},{"NoteNumber":78,"Velocity":86,"Duration":74295,"SoundDuration":74295,"Delta":181779091},{"NoteNumber":79,"Velocity":84,"Duration":55861,"SoundDuration":55861,"Delta":181853387},{"NoteNumber":78,"Velocity":89,"Duration":56061,"SoundDuration":56061,"Delta":181909249},{"NoteNumber":76,"Velocity":84,"Duration":56150,"SoundDuration":56150,"Delta":181965310},{"NoteNumber":78,"Velocity":85,"Duration":56310,"SoundDuration":56310,"Delta":182021460},{"NoteNumber":71,"Velocity":79,"Duration":437286,"SoundDuration":437286,"Delta":182077771},{"NoteNumber":79,"Velocity":93,"Duration":437286,"SoundDuration":437286,"Delta":182077771},{"NoteNumber":31,"Velocity":63,"Duration":437286,"SoundDuration":437286,"Delta":182077771},{"NoteNumber":38,"Velocity":63,"Duration":437286,"SoundDuration":437286,"Delta":182077771},{"NoteNumber":43,"Velocity":75,"Duration":437286,"SoundDuration":437286,"Delta":182077771},{"NoteNumber":74,"Velocity":83,"Duration":105850,"SoundDuration":105850,"Delta":182515057},{"NoteNumber":62,"Velocity":70,"Duration":105850,"SoundDuration":105850,"Delta":182515057},{"NoteNumber":78,"Velocity":75,"Duration":111350,"SoundDuration":111350,"Delta":182726757},{"NoteNumber":66,"Velocity":63,"Duration":111350,"SoundDuration":111350,"Delta":182726757},{"NoteNumber":79,"Velocity":83,"Duration":108530,"SoundDuration":108530,"Delta":182949457},{"NoteNumber":67,"Velocity":69,"Duration":108530,"SoundDuration":108530,"Delta":182949457},{"NoteNumber":62,"Velocity":66,"Duration":104741,"SoundDuration":104741,"Delta":183383579},{"NoteNumber":50,"Velocity":56,"Duration":104741,"SoundDuration":104741,"Delta":183383579},{"NoteNumber":66,"Velocity":60,"Duration":111284,"SoundDuration":111284,"Delta":183593062},{"NoteNumber":54,"Velocity":50,"Duration":111284,"SoundDuration":111284,"Delta":183593062},{"NoteNumber":67,"Velocity":66,"Duration":109970,"SoundDuration":109970,"Delta":183815630},{"NoteNumber":55,"Velocity":55,"Duration":109970,"SoundDuration":109970,"Delta":183815630},{"NoteNumber":50,"Velocity":69,"Duration":107020,"SoundDuration":107020,"Delta":184255513},{"NoteNumber":38,"Velocity":56,"Duration":107020,"SoundDuration":107020,"Delta":184255513},{"NoteNumber":54,"Velocity":61,"Duration":115892,"SoundDuration":115892,"Delta":184469554},{"NoteNumber":42,"Velocity":50,"Duration":115892,"SoundDuration":115892,"Delta":184469554},{"NoteNumber":55,"Velocity":64,"Duration":149566,"SoundDuration":149566,"Delta":184701340},{"NoteNumber":43,"Velocity":55,"Duration":448699,"SoundDuration":448699,"Delta":184701340},{"NoteNumber":59,"Velocity":57,"Duration":149566,"SoundDuration":149566,"Delta":184850906},{"NoteNumber":60,"Velocity":57,"Duration":149566,"SoundDuration":149566,"Delta":185000473},{"NoteNumber":62,"Velocity":66,"Duration":149566,"SoundDuration":149566,"Delta":185150039},{"NoteNumber":64,"Velocity":59,"Duration":149566,"SoundDuration":149566,"Delta":185299605},{"NoteNumber":66,"Velocity":59,"Duration":149705,"SoundDuration":149705,"Delta":185449172},{"NoteNumber":67,"Velocity":67,"Duration":112449,"SoundDuration":112449,"Delta":185598877},{"NoteNumber":55,"Velocity":55,"Duration":886663,"SoundDuration":886663,"Delta":185598877},{"NoteNumber":58,"Velocity":55,"Duration":886663,"SoundDuration":886663,"Delta":185598877},{"NoteNumber":70,"Velocity":69,"Duration":112015,"SoundDuration":112015,"Delta":185711327},{"NoteNumber":72,"Velocity":71,"Duration":111516,"SoundDuration":111516,"Delta":185823343},{"NoteNumber":74,"Velocity":73,"Duration":111086,"SoundDuration":111086,"Delta":185934859},{"NoteNumber":76,"Velocity":75,"Duration":110594,"SoundDuration":110594,"Delta":186045945},{"NoteNumber":78,"Velocity":77,"Duration":110137,"SoundDuration":110137,"Delta":186156540},{"NoteNumber":79,"Velocity":79,"Duration":109671,"SoundDuration":109671,"Delta":186266678},{"NoteNumber":81,"Velocity":84,"Duration":109192,"SoundDuration":109192,"Delta":186376349},{"NoteNumber":46,"Velocity":60,"Duration":752759,"SoundDuration":752759,"Delta":186485541},{"NoteNumber":53,"Velocity":63,"Duration":721395,"SoundDuration":721395,"Delta":186516906},{"NoteNumber":58,"Velocity":67,"Duration":690030,"SoundDuration":690030,"Delta":186548271},{"NoteNumber":74,"Velocity":67,"Duration":658664,"SoundDuration":658664,"Delta":186579636},{"NoteNumber":77,"Velocity":67,"Duration":658664,"SoundDuration":658664,"Delta":186579636},{"NoteNumber":82,"Velocity":80,"Duration":658664,"SoundDuration":658664,"Delta":186579636},{"NoteNumber":70,"Velocity":67,"Duration":658664,"SoundDuration":658664,"Delta":186579636},{"NoteNumber":62,"Velocity":70,"Duration":658664,"SoundDuration":658664,"Delta":186579636},{"NoteNumber":74,"Velocity":80,"Duration":192636,"SoundDuration":192636,"Delta":187238301},{"NoteNumber":70,"Velocity":67,"Duration":192636,"SoundDuration":192636,"Delta":187238301},{"NoteNumber":62,"Velocity":67,"Duration":192636,"SoundDuration":192636,"Delta":187238301},{"NoteNumber":34,"Velocity":55,"Duration":192636,"SoundDuration":192636,"Delta":187238301},{"NoteNumber":46,"Velocity":65,"Duration":192636,"SoundDuration":192636,"Delta":187238301},{"NoteNumber":62,"Velocity":71,"Duration":475359,"SoundDuration":475359,"Delta":187452342},{"NoteNumber":70,"Velocity":71,"Duration":475359,"SoundDuration":475359,"Delta":187452342},{"NoteNumber":74,"Velocity":85,"Duration":475359,"SoundDuration":475359,"Delta":187452342},{"NoteNumber":34,"Velocity":55,"Duration":475359,"SoundDuration":475359,"Delta":187452342},{"NoteNumber":46,"Velocity":65,"Duration":475359,"SoundDuration":475359,"Delta":187452342},{"NoteNumber":70,"Velocity":69,"Duration":111723,"SoundDuration":111723,"Delta":187927702},{"NoteNumber":75,"Velocity":81,"Duration":111723,"SoundDuration":111723,"Delta":187927702},{"NoteNumber":63,"Velocity":69,"Duration":111723,"SoundDuration":111723,"Delta":187927702},{"NoteNumber":36,"Velocity":50,"Duration":111723,"SoundDuration":111723,"Delta":187927702},{"NoteNumber":48,"Velocity":59,"Duration":111723,"SoundDuration":111723,"Delta":187927702},{"NoteNumber":65,"Velocity":72,"Duration":121951,"SoundDuration":121951,"Delta":188151149},{"NoteNumber":70,"Velocity":72,"Duration":121951,"SoundDuration":121951,"Delta":188151149},{"NoteNumber":77,"Velocity":86,"Duration":121951,"SoundDuration":121951,"Delta":188151149},{"NoteNumber":38,"Velocity":55,"Duration":121951,"SoundDuration":121951,"Delta":188151149},{"NoteNumber":50,"Velocity":65,"Duration":121951,"SoundDuration":121951,"Delta":188151149},{"NoteNumber":67,"Velocity":75,"Duration":113731,"SoundDuration":113731,"Delta":188395052},{"NoteNumber":70,"Velocity":75,"Duration":113731,"SoundDuration":113731,"Delta":188395052},{"NoteNumber":79,"Velocity":89,"Duration":113731,"SoundDuration":113731,"Delta":188395052},{"NoteNumber":39,"Velocity":56,"Duration":113731,"SoundDuration":113731,"Delta":188395052},{"NoteNumber":46,"Velocity":56,"Duration":113731,"SoundDuration":113731,"Delta":188395052},{"NoteNumber":51,"Velocity":67,"Duration":113731,"SoundDuration":113731,"Delta":188395052},{"NoteNumber":77,"Velocity":85,"Duration":113731,"SoundDuration":113731,"Delta":188849977},{"NoteNumber":65,"Velocity":71,"Duration":113731,"SoundDuration":113731,"Delta":188849977},{"NoteNumber":70,"Velocity":71,"Duration":113731,"SoundDuration":113731,"Delta":188849977},{"NoteNumber":38,"Velocity":52,"Duration":113731,"SoundDuration":113731,"Delta":188849977},{"NoteNumber":46,"Velocity":52,"Duration":113731,"SoundDuration":113731,"Delta":188849977},{"NoteNumber":50,"Velocity":62,"Duration":113731,"SoundDuration":113731,"Delta":188849977},{"NoteNumber":74,"Velocity":80,"Duration":204716,"SoundDuration":204716,"Delta":189987289},{"NoteNumber":70,"Velocity":67,"Duration":204716,"SoundDuration":204716,"Delta":189987289},{"NoteNumber":62,"Velocity":67,"Duration":204716,"SoundDuration":204716,"Delta":189987289},{"NoteNumber":34,"Velocity":55,"Duration":204716,"SoundDuration":204716,"Delta":189987289},{"NoteNumber":46,"Velocity":65,"Duration":204716,"SoundDuration":204716,"Delta":189987289},{"NoteNumber":70,"Velocity":74,"Duration":454924,"SoundDuration":454924,"Delta":190214752},{"NoteNumber":74,"Velocity":88,"Duration":454924,"SoundDuration":454924,"Delta":190214752},{"NoteNumber":62,"Velocity":74,"Duration":454924,"SoundDuration":454924,"Delta":190214752},{"NoteNumber":34,"Velocity":55,"Duration":454924,"SoundDuration":454924,"Delta":190214752},{"NoteNumber":46,"Velocity":65,"Duration":454924,"SoundDuration":454924,"Delta":190214752},{"NoteNumber":75,"Velocity":88,"Duration":107434,"SoundDuration":107434,"Delta":190669677},{"NoteNumber":70,"Velocity":74,"Duration":107434,"SoundDuration":107434,"Delta":190669677},{"NoteNumber":63,"Velocity":74,"Duration":107434,"SoundDuration":107434,"Delta":190669677},{"NoteNumber":36,"Velocity":50,"Duration":107434,"SoundDuration":107434,"Delta":190669677},{"NoteNumber":48,"Velocity":59,"Duration":107434,"SoundDuration":107434,"Delta":190669677},{"NoteNumber":70,"Velocity":78,"Duration":119865,"SoundDuration":119865,"Delta":190884546},{"NoteNumber":77,"Velocity":92,"Duration":119865,"SoundDuration":119865,"Delta":190884546},{"NoteNumber":65,"Velocity":78,"Duration":119865,"SoundDuration":119865,"Delta":190884546},{"NoteNumber":38,"Velocity":55,"Duration":119865,"SoundDuration":119865,"Delta":190884546},{"NoteNumber":50,"Velocity":65,"Duration":119865,"SoundDuration":119865,"Delta":190884546},{"NoteNumber":79,"Velocity":95,"Duration":443361,"SoundDuration":443361,"Delta":191124277},{"NoteNumber":67,"Velocity":80,"Duration":443361,"SoundDuration":443361,"Delta":191124277},{"NoteNumber":70,"Velocity":80,"Duration":443361,"SoundDuration":443361,"Delta":191124277},{"NoteNumber":39,"Velocity":56,"Duration":221680,"SoundDuration":221680,"Delta":191124277},{"NoteNumber":46,"Velocity":56,"Duration":221680,"SoundDuration":221680,"Delta":191124277},{"NoteNumber":51,"Velocity":67,"Duration":221680,"SoundDuration":221680,"Delta":191124277},{"NoteNumber":70,"Velocity":78,"Duration":106209,"SoundDuration":106209,"Delta":191567638},{"NoteNumber":65,"Velocity":78,"Duration":106209,"SoundDuration":106209,"Delta":191567638},{"NoteNumber":77,"Velocity":93,"Duration":106209,"SoundDuration":106209,"Delta":191567638},{"NoteNumber":46,"Velocity":50,"Duration":106209,"SoundDuration":106209,"Delta":191567638},{"NoteNumber":38,"Velocity":50,"Duration":106209,"SoundDuration":106209,"Delta":191567638},{"NoteNumber":50,"Velocity":59,"Duration":106209,"SoundDuration":106209,"Delta":191567638},{"NoteNumber":67,"Velocity":80,"Duration":118840,"SoundDuration":118840,"Delta":191780058},{"NoteNumber":70,"Velocity":80,"Duration":118840,"SoundDuration":118840,"Delta":191780058},{"NoteNumber":79,"Velocity":95,"Duration":118840,"SoundDuration":118840,"Delta":191780058},{"NoteNumber":39,"Velocity":55,"Duration":118840,"SoundDuration":118840,"Delta":191780058},{"NoteNumber":46,"Velocity":55,"Duration":118840,"SoundDuration":118840,"Delta":191780058},{"NoteNumber":51,"Velocity":65,"Duration":118840,"SoundDuration":118840,"Delta":191780058},{"NoteNumber":70,"Velocity":82,"Duration":112620,"SoundDuration":112620,"Delta":192017738},{"NoteNumber":68,"Velocity":82,"Duration":112620,"SoundDuration":112620,"Delta":192017738},{"NoteNumber":80,"Velocity":97,"Duration":112620,"SoundDuration":112620,"Delta":192017738},{"NoteNumber":41,"Velocity":56,"Duration":112620,"SoundDuration":112620,"Delta":192017738},{"NoteNumber":46,"Velocity":56,"Duration":112620,"SoundDuration":112620,"Delta":192017738},{"NoteNumber":53,"Velocity":67,"Duration":112620,"SoundDuration":112620,"Delta":192017738},{"NoteNumber":79,"Velocity":93,"Duration":112621,"SoundDuration":112621,"Delta":192468222},{"NoteNumber":70,"Velocity":78,"Duration":112621,"SoundDuration":112621,"Delta":192468222},{"NoteNumber":67,"Velocity":78,"Duration":112621,"SoundDuration":112621,"Delta":192468222},{"NoteNumber":39,"Velocity":52,"Duration":112621,"SoundDuration":112621,"Delta":192468222},{"NoteNumber":46,"Velocity":52,"Duration":112621,"SoundDuration":112621,"Delta":192468222},{"NoteNumber":51,"Velocity":62,"Duration":112621,"SoundDuration":112621,"Delta":192468222},{"NoteNumber":77,"Velocity":81,"Duration":111723,"SoundDuration":111723,"Delta":193369190},{"NoteNumber":70,"Velocity":69,"Duration":111723,"SoundDuration":111723,"Delta":193369190},{"NoteNumber":65,"Velocity":69,"Duration":111723,"SoundDuration":111723,"Delta":193369190},{"NoteNumber":38,"Velocity":50,"Duration":111723,"SoundDuration":111723,"Delta":193369190},{"NoteNumber":50,"Velocity":59,"Duration":111723,"SoundDuration":111723,"Delta":193369190},{"NoteNumber":67,"Velocity":72,"Duration":121951,"SoundDuration":121951,"Delta":193592637},{"NoteNumber":79,"Velocity":86,"Duration":121951,"SoundDuration":121951,"Delta":193592637},{"NoteNumber":70,"Velocity":72,"Duration":121951,"SoundDuration":121951,"Delta":193592637},{"NoteNumber":39,"Velocity":55,"Duration":121951,"SoundDuration":121951,"Delta":193592637},{"NoteNumber":51,"Velocity":65,"Duration":121951,"SoundDuration":121951,"Delta":193592637},{"NoteNumber":83,"Velocity":89,"Duration":111284,"SoundDuration":111284,"Delta":193836539},{"NoteNumber":79,"Velocity":75,"Duration":111284,"SoundDuration":111284,"Delta":193836539},{"NoteNumber":71,"Velocity":75,"Duration":111284,"SoundDuration":111284,"Delta":193836539},{"NoteNumber":41,"Velocity":56,"Duration":111284,"SoundDuration":111284,"Delta":193836539},{"NoteNumber":53,"Velocity":67,"Duration":111284,"SoundDuration":111284,"Delta":193836539},{"NoteNumber":79,"Velocity":78,"Duration":113541,"SoundDuration":113541,"Delta":194281676},{"NoteNumber":72,"Velocity":78,"Duration":113541,"SoundDuration":113541,"Delta":194281676},{"NoteNumber":84,"Velocity":92,"Duration":113541,"SoundDuration":113541,"Delta":194281676},{"NoteNumber":39,"Velocity":57,"Duration":113541,"SoundDuration":113541,"Delta":194281676},{"NoteNumber":51,"Velocity":68,"Duration":113541,"SoundDuration":113541,"Delta":194281676},{"NoteNumber":74,"Velocity":79,"Duration":111723,"SoundDuration":111723,"Delta":194735843},{"NoteNumber":79,"Velocity":79,"Duration":111723,"SoundDuration":111723,"Delta":194735843},{"NoteNumber":86,"Velocity":94,"Duration":111723,"SoundDuration":111723,"Delta":194735843},{"NoteNumber":35,"Velocity":59,"Duration":111723,"SoundDuration":111723,"Delta":194735843},{"NoteNumber":47,"Velocity":70,"Duration":111723,"SoundDuration":111723,"Delta":194735843},{"NoteNumber":87,"Velocity":96,"Duration":113999,"SoundDuration":113999,"Delta":195182737},{"NoteNumber":75,"Velocity":81,"Duration":113999,"SoundDuration":113999,"Delta":195182737},{"NoteNumber":79,"Velocity":81,"Duration":113999,"SoundDuration":113999,"Delta":195182737},{"NoteNumber":36,"Velocity":62,"Duration":113999,"SoundDuration":113999,"Delta":195182737},{"NoteNumber":48,"Velocity":73,"Duration":113999,"SoundDuration":113999,"Delta":195182737},{"NoteNumber":77,"Velocity":81,"Duration":117352,"SoundDuration":117352,"Delta":195639292},{"NoteNumber":84,"Velocity":81,"Duration":117352,"SoundDuration":117352,"Delta":195639292},{"NoteNumber":89,"Velocity":96,"Duration":117352,"SoundDuration":117352,"Delta":195639292},{"NoteNumber":33,"Velocity":62,"Duration":117352,"SoundDuration":117352,"Delta":195639292},{"NoteNumber":45,"Velocity":73,"Duration":117352,"SoundDuration":117352,"Delta":195639292},{"NoteNumber":78,"Velocity":89,"Duration":938819,"SoundDuration":938819,"Delta":196108702},{"NoteNumber":86,"Velocity":89,"Duration":919261,"SoundDuration":919261,"Delta":196108702},{"NoteNumber":84,"Velocity":89,"Duration":928062,"SoundDuration":928062,"Delta":196108702},{"NoteNumber":90,"Velocity":105,"Duration":938819,"SoundDuration":938819,"Delta":196108702},{"NoteNumber":32,"Velocity":62,"Duration":938819,"SoundDuration":938819,"Delta":196108702},{"NoteNumber":38,"Velocity":62,"Duration":919261,"SoundDuration":919261,"Delta":196108702},{"NoteNumber":44,"Velocity":73,"Duration":938819,"SoundDuration":938819,"Delta":196108702},{"NoteNumber":86,"Velocity":89,"Duration":905974,"SoundDuration":905974,"Delta":197047522},{"NoteNumber":79,"Velocity":89,"Duration":924956,"SoundDuration":924956,"Delta":197047522},{"NoteNumber":91,"Velocity":105,"Duration":924956,"SoundDuration":924956,"Delta":197047522},{"NoteNumber":84,"Velocity":89,"Duration":905974,"SoundDuration":905974,"Delta":197047522},{"NoteNumber":31,"Velocity":62,"Duration":924956,"SoundDuration":924956,"Delta":197047522},{"NoteNumber":38,"Velocity":62,"Duration":905974,"SoundDuration":905974,"Delta":197047522},{"NoteNumber":43,"Velocity":73,"Duration":924956,"SoundDuration":924956,"Delta":197047522},{"NoteNumber":93,"Velocity":105,"Duration":892110,"SoundDuration":892110,"Delta":197972478},{"NoteNumber":81,"Velocity":89,"Duration":892110,"SoundDuration":892110,"Delta":197972478},{"NoteNumber":86,"Velocity":89,"Duration":892110,"SoundDuration":892110,"Delta":197972478},{"NoteNumber":84,"Velocity":89,"Duration":892110,"SoundDuration":892110,"Delta":197972478},{"NoteNumber":30,"Velocity":62,"Duration":892110,"SoundDuration":892110,"Delta":197972478},{"NoteNumber":38,"Velocity":62,"Duration":892110,"SoundDuration":892110,"Delta":197972478},{"NoteNumber":42,"Velocity":73,"Duration":892110,"SoundDuration":892110,"Delta":197972478},{"NoteNumber":86,"Velocity":89,"Duration":665630,"SoundDuration":665630,"Delta":198883570},{"NoteNumber":84,"Velocity":89,"Duration":665630,"SoundDuration":665630,"Delta":198883570},{"NoteNumber":81,"Velocity":89,"Duration":665630,"SoundDuration":665630,"Delta":198883570},{"NoteNumber":93,"Velocity":105,"Duration":665630,"SoundDuration":665630,"Delta":198883570},{"NoteNumber":30,"Velocity":62,"Duration":443754,"SoundDuration":443754,"Delta":198883570},{"NoteNumber":38,"Velocity":62,"Duration":443754,"SoundDuration":443754,"Delta":198883570},{"NoteNumber":42,"Velocity":73,"Duration":443754,"SoundDuration":443754,"Delta":198883570},{"NoteNumber":31,"Velocity":51,"Duration":110938,"SoundDuration":110938,"Delta":199327324},{"NoteNumber":38,"Velocity":51,"Duration":110938,"SoundDuration":110938,"Delta":199327324},{"NoteNumber":43,"Velocity":61,"Duration":110938,"SoundDuration":110938,"Delta":199327324},{"NoteNumber":83,"Velocity":70,"Duration":110938,"SoundDuration":110938,"Delta":199549201},{"NoteNumber":79,"Velocity":70,"Duration":110938,"SoundDuration":110938,"Delta":199549201},{"NoteNumber":91,"Velocity":83,"Duration":110938,"SoundDuration":110938,"Delta":199549201},{"NoteNumber":89,"Velocity":88,"Duration":108139,"SoundDuration":108139,"Delta":199771078},{"NoteNumber":77,"Velocity":74,"Duration":108139,"SoundDuration":108139,"Delta":199771078},{"NoteNumber":50,"Velocity":58,"Duration":884550,"SoundDuration":884550,"Delta":199771078},{"NoteNumber":53,"Velocity":58,"Duration":884550,"SoundDuration":884550,"Delta":199771078},{"NoteNumber":59,"Velocity":69,"Duration":884550,"SoundDuration":884550,"Delta":199771078},{"NoteNumber":55,"Velocity":58,"Duration":884550,"SoundDuration":884550,"Delta":199771078},{"NoteNumber":74,"Velocity":63,"Duration":112182,"SoundDuration":112182,"Delta":199987357},{"NoteNumber":86,"Velocity":75,"Duration":112182,"SoundDuration":112182,"Delta":199987357},{"NoteNumber":83,"Velocity":87,"Duration":108924,"SoundDuration":108924,"Delta":200211723},{"NoteNumber":71,"Velocity":73,"Duration":108924,"SoundDuration":108924,"Delta":200211723},{"NoteNumber":67,"Velocity":59,"Duration":113028,"SoundDuration":113028,"Delta":200429572},{"NoteNumber":79,"Velocity":70,"Duration":113028,"SoundDuration":113028,"Delta":200429572},{"NoteNumber":65,"Velocity":70,"Duration":110529,"SoundDuration":110529,"Delta":200655629},{"NoteNumber":77,"Velocity":83,"Duration":110529,"SoundDuration":110529,"Delta":200655629},{"NoteNumber":31,"Velocity":48,"Duration":110529,"SoundDuration":110529,"Delta":200655629},{"NoteNumber":43,"Velocity":57,"Duration":110529,"SoundDuration":110529,"Delta":200655629},{"NoteNumber":74,"Velocity":68,"Duration":118380,"SoundDuration":118380,"Delta":200876688},{"NoteNumber":62,"Velocity":57,"Duration":118380,"SoundDuration":118380,"Delta":200876688},{"NoteNumber":64,"Velocity":68,"Duration":659179,"SoundDuration":659179,"Delta":201113449},{"NoteNumber":72,"Velocity":80,"Duration":659179,"SoundDuration":659179,"Delta":201113449},{"NoteNumber":60,"Velocity":68,"Duration":659179,"SoundDuration":659179,"Delta":201113449},{"NoteNumber":36,"Velocity":54,"Duration":110529,"SoundDuration":110529,"Delta":201113449},{"NoteNumber":43,"Velocity":54,"Duration":110529,"SoundDuration":110529,"Delta":201113449},{"NoteNumber":48,"Velocity":64,"Duration":110529,"SoundDuration":110529,"Delta":201113449},{"NoteNumber":48,"Velocity":34,"Duration":195354,"SoundDuration":195354,"Delta":201772629},{"NoteNumber":52,"Velocity":40,"Duration":195354,"SoundDuration":195354,"Delta":201772629},{"NoteNumber":48,"Velocity":39,"Duration":434122,"SoundDuration":434122,"Delta":201989690},{"NoteNumber":52,"Velocity":46,"Duration":434122,"SoundDuration":434122,"Delta":201989690},{"NoteNumber":50,"Velocity":34,"Duration":106982,"SoundDuration":106982,"Delta":202423812},{"NoteNumber":53,"Velocity":41,"Duration":106982,"SoundDuration":106982,"Delta":202423812},{"NoteNumber":60,"Velocity":40,"Duration":201929,"SoundDuration":201929,"Delta":202637777},{"NoteNumber":52,"Velocity":36,"Duration":112182,"SoundDuration":112182,"Delta":202637777},{"NoteNumber":55,"Velocity":43,"Duration":112182,"SoundDuration":112182,"Delta":202637777},{"NoteNumber":60,"Velocity":48,"Duration":432369,"SoundDuration":432369,"Delta":202862143},{"NoteNumber":53,"Velocity":39,"Duration":108092,"SoundDuration":108092,"Delta":202862143},{"NoteNumber":57,"Velocity":46,"Duration":108092,"SoundDuration":108092,"Delta":202862143},{"NoteNumber":62,"Velocity":41,"Duration":106982,"SoundDuration":106982,"Delta":203294513},{"NoteNumber":52,"Velocity":34,"Duration":106982,"SoundDuration":106982,"Delta":203294513},{"NoteNumber":55,"Velocity":40,"Duration":106982,"SoundDuration":106982,"Delta":203294513},{"NoteNumber":64,"Velocity":46,"Duration":110938,"SoundDuration":110938,"Delta":203508478},{"NoteNumber":65,"Velocity":51,"Duration":411390,"SoundDuration":411390,"Delta":203730355},{"NoteNumber":55,"Velocity":37,"Duration":429277,"SoundDuration":429277,"Delta":203730355},{"NoteNumber":59,"Velocity":44,"Duration":429277,"SoundDuration":429277,"Delta":203730355},{"NoteNumber":65,"Velocity":45,"Duration":193174,"SoundDuration":193174,"Delta":204159632},{"NoteNumber":60,"Velocity":41,"Duration":107319,"SoundDuration":107319,"Delta":204159632},{"NoteNumber":57,"Velocity":34,"Duration":107319,"SoundDuration":107319,"Delta":204159632},{"NoteNumber":67,"Velocity":46,"Duration":201929,"SoundDuration":201929,"Delta":204374271},{"NoteNumber":65,"Velocity":37,"Duration":224366,"SoundDuration":224366,"Delta":204374271},{"NoteNumber":59,"Velocity":37,"Duration":112182,"SoundDuration":112182,"Delta":204374271},{"NoteNumber":62,"Velocity":44,"Duration":112182,"SoundDuration":112182,"Delta":204374271},{"NoteNumber":67,"Velocity":49,"Duration":429277,"SoundDuration":429277,"Delta":204598637},{"NoteNumber":65,"Velocity":47,"Duration":429277,"SoundDuration":429277,"Delta":204598637},{"NoteNumber":60,"Velocity":39,"Duration":429277,"SoundDuration":429277,"Delta":204598637},{"NoteNumber":69,"Velocity":45,"Duration":106224,"SoundDuration":106224,"Delta":205027914},{"NoteNumber":64,"Velocity":44,"Duration":106224,"SoundDuration":106224,"Delta":205027914},{"NoteNumber":60,"Velocity":37,"Duration":106224,"SoundDuration":106224,"Delta":205027914},{"NoteNumber":79,"Velocity":51,"Duration":221877,"SoundDuration":221877,"Delta":205240363},{"NoteNumber":71,"Velocity":45,"Duration":110938,"SoundDuration":110938,"Delta":205240363},{"NoteNumber":62,"Velocity":40,"Duration":110938,"SoundDuration":110938,"Delta":205240363},{"NoteNumber":55,"Velocity":34,"Duration":110938,"SoundDuration":110938,"Delta":205240363},{"NoteNumber":79,"Velocity":55,"Duration":620893,"SoundDuration":620893,"Delta":205462240},{"NoteNumber":72,"Velocity":49,"Duration":432369,"SoundDuration":432369,"Delta":205462240},{"NoteNumber":64,"Velocity":49,"Duration":432369,"SoundDuration":432369,"Delta":205462240},{"NoteNumber":60,"Velocity":41,"Duration":432369,"SoundDuration":432369,"Delta":205462240},{"NoteNumber":74,"Velocity":47,"Duration":102831,"SoundDuration":102831,"Delta":205894610},{"NoteNumber":62,"Velocity":42,"Duration":102831,"SoundDuration":102831,"Delta":205894610},{"NoteNumber":55,"Velocity":35,"Duration":102831,"SoundDuration":102831,"Delta":205894610},{"NoteNumber":79,"Velocity":55,"Duration":201805,"SoundDuration":201805,"Delta":206100273},{"NoteNumber":76,"Velocity":55,"Duration":110075,"SoundDuration":110075,"Delta":206100273},{"NoteNumber":52,"Velocity":35,"Duration":110075,"SoundDuration":110075,"Delta":206100273},{"NoteNumber":60,"Velocity":42,"Duration":110075,"SoundDuration":110075,"Delta":206100273},{"NoteNumber":77,"Velocity":53,"Duration":622634,"SoundDuration":622634,"Delta":206320424},{"NoteNumber":79,"Velocity":62,"Duration":202880,"SoundDuration":202880,"Delta":206320424},{"NoteNumber":59,"Velocity":49,"Duration":622634,"SoundDuration":622634,"Delta":206320424},{"NoteNumber":55,"Velocity":41,"Duration":622634,"SoundDuration":622634,"Delta":206320424},{"NoteNumber":78,"Velocity":53,"Duration":216184,"SoundDuration":216184,"Delta":206523305},{"NoteNumber":81,"Velocity":63,"Duration":101784,"SoundDuration":101784,"Delta":206739490},{"NoteNumber":79,"Velocity":54,"Duration":108924,"SoundDuration":108924,"Delta":206943059},{"NoteNumber":76,"Velocity":45,"Duration":214402,"SoundDuration":214402,"Delta":206943059},{"NoteNumber":64,"Velocity":44,"Duration":193306,"SoundDuration":193306,"Delta":206943059},{"NoteNumber":60,"Velocity":37,"Duration":193306,"SoundDuration":193306,"Delta":206943059},{"NoteNumber":76,"Velocity":50,"Duration":639247,"SoundDuration":639247,"Delta":207157461},{"NoteNumber":79,"Velocity":59,"Duration":207082,"SoundDuration":207082,"Delta":207157461},{"NoteNumber":64,"Velocity":53,"Duration":621930,"SoundDuration":621930,"Delta":207157461},{"NoteNumber":60,"Velocity":45,"Duration":639247,"SoundDuration":639247,"Delta":207157461},{"NoteNumber":78,"Velocity":50,"Duration":224366,"SoundDuration":224366,"Delta":207364543},{"NoteNumber":81,"Velocity":59,"Duration":103899,"SoundDuration":103899,"Delta":207588909},{"NoteNumber":79,"Velocity":50,"Duration":118849,"SoundDuration":118849,"Delta":207796709},{"NoteNumber":72,"Velocity":42,"Duration":237698,"SoundDuration":237698,"Delta":207796709},{"NoteNumber":67,"Velocity":47,"Duration":213929,"SoundDuration":213929,"Delta":207796709},{"NoteNumber":64,"Velocity":39,"Duration":213929,"SoundDuration":213929,"Delta":207796709},{"NoteNumber":73,"Velocity":55,"Duration":452113,"SoundDuration":452113,"Delta":208034408},{"NoteNumber":82,"Velocity":65,"Duration":452113,"SoundDuration":452113,"Delta":208034408},{"NoteNumber":67,"Velocity":54,"Duration":452113,"SoundDuration":452113,"Delta":208034408},{"NoteNumber":64,"Velocity":45,"Duration":452113,"SoundDuration":452113,"Delta":208034408},{"NoteNumber":74,"Velocity":50,"Duration":113028,"SoundDuration":113028,"Delta":208486522},{"NoteNumber":81,"Velocity":59,"Duration":113028,"SoundDuration":113028,"Delta":208486522},{"NoteNumber":65,"Velocity":50,"Duration":113028,"SoundDuration":113028,"Delta":208486522},{"NoteNumber":50,"Velocity":39,"Duration":434122,"SoundDuration":434122,"Delta":208938636},{"NoteNumber":53,"Velocity":46,"Duration":434122,"SoundDuration":434122,"Delta":208938636},{"NoteNumber":52,"Velocity":34,"Duration":106179,"SoundDuration":106179,"Delta":209372758},{"NoteNumber":55,"Velocity":41,"Duration":106179,"SoundDuration":106179,"Delta":209372758},{"NoteNumber":62,"Velocity":40,"Duration":201929,"SoundDuration":201929,"Delta":209585117},{"NoteNumber":53,"Velocity":36,"Duration":112182,"SoundDuration":112182,"Delta":209585117},{"NoteNumber":57,"Velocity":43,"Duration":112182,"SoundDuration":112182,"Delta":209585117},{"NoteNumber":62,"Velocity":48,"Duration":433933,"SoundDuration":433933,"Delta":209809483},{"NoteNumber":55,"Velocity":39,"Duration":108483,"SoundDuration":108483,"Delta":209809483},{"NoteNumber":58,"Velocity":46,"Duration":108483,"SoundDuration":108483,"Delta":209809483},{"NoteNumber":64,"Velocity":41,"Duration":106982,"SoundDuration":106982,"Delta":210243417},{"NoteNumber":53,"Velocity":34,"Duration":106982,"SoundDuration":106982,"Delta":210243417},{"NoteNumber":57,"Velocity":40,"Duration":106982,"SoundDuration":106982,"Delta":210243417},{"NoteNumber":65,"Velocity":46,"Duration":110938,"SoundDuration":110938,"Delta":210457382},{"NoteNumber":67,"Velocity":51,"Duration":429277,"SoundDuration":429277,"Delta":210679259},{"NoteNumber":57,"Velocity":37,"Duration":429277,"SoundDuration":429277,"Delta":210679259},{"NoteNumber":61,"Velocity":44,"Duration":429277,"SoundDuration":429277,"Delta":210679259},{"NoteNumber":67,"Velocity":45,"Duration":196751,"SoundDuration":196751,"Delta":211108536},{"NoteNumber":62,"Velocity":41,"Duration":107319,"SoundDuration":107319,"Delta":211108536},{"NoteNumber":59,"Velocity":34,"Duration":107319,"SoundDuration":107319,"Delta":211108536},{"NoteNumber":67,"Velocity":37,"Duration":205668,"SoundDuration":205668,"Delta":211323175},{"NoteNumber":69,"Velocity":46,"Duration":205668,"SoundDuration":205668,"Delta":211323175},{"NoteNumber":61,"Velocity":37,"Duration":112182,"SoundDuration":112182,"Delta":211323175},{"NoteNumber":64,"Velocity":44,"Duration":112182,"SoundDuration":112182,"Delta":211323175},{"NoteNumber":69,"Velocity":49,"Duration":432557,"SoundDuration":432557,"Delta":211547541},{"NoteNumber":67,"Velocity":47,"Duration":432557,"SoundDuration":432557,"Delta":211547541},{"NoteNumber":62,"Velocity":39,"Duration":432557,"SoundDuration":432557,"Delta":211547541},{"NoteNumber":71,"Velocity":45,"Duration":106224,"SoundDuration":106224,"Delta":211980098},{"NoteNumber":65,"Velocity":44,"Duration":106224,"SoundDuration":106224,"Delta":211980098},{"NoteNumber":62,"Velocity":37,"Duration":106224,"SoundDuration":106224,"Delta":211980098},{"NoteNumber":73,"Velocity":45,"Duration":110938,"SoundDuration":110938,"Delta":212192547},{"NoteNumber":81,"Velocity":51,"Duration":221877,"SoundDuration":221877,"Delta":212192547},{"NoteNumber":64,"Velocity":40,"Duration":110938,"SoundDuration":110938,"Delta":212192547},{"NoteNumber":57,"Velocity":34,"Duration":110938,"SoundDuration":110938,"Delta":212192547},{"NoteNumber":81,"Velocity":55,"Duration":636359,"SoundDuration":636359,"Delta":212414424},{"NoteNumber":74,"Velocity":49,"Duration":429277,"SoundDuration":429277,"Delta":212414424},{"NoteNumber":65,"Velocity":49,"Duration":429277,"SoundDuration":429277,"Delta":212414424},{"NoteNumber":62,"Velocity":41,"Duration":429277,"SoundDuration":429277,"Delta":212414424},{"NoteNumber":76,"Velocity":47,"Duration":103541,"SoundDuration":103541,"Delta":212843701},{"NoteNumber":64,"Velocity":42,"Duration":103541,"SoundDuration":103541,"Delta":212843701},{"NoteNumber":57,"Velocity":35,"Duration":103541,"SoundDuration":103541,"Delta":212843701},{"NoteNumber":81,"Velocity":55,"Duration":201929,"SoundDuration":201929,"Delta":213050783},{"NoteNumber":77,"Velocity":55,"Duration":112182,"SoundDuration":112182,"Delta":213050783},{"NoteNumber":53,"Velocity":35,"Duration":112182,"SoundDuration":112182,"Delta":213050783},{"NoteNumber":62,"Velocity":42,"Duration":112182,"SoundDuration":112182,"Delta":213050783},{"NoteNumber":79,"Velocity":53,"Duration":630172,"SoundDuration":630172,"Delta":213275149},{"NoteNumber":81,"Velocity":62,"Duration":204262,"SoundDuration":204262,"Delta":213275149},{"NoteNumber":61,"Velocity":49,"Duration":630172,"SoundDuration":630172,"Delta":213275149},{"NoteNumber":57,"Velocity":41,"Duration":630172,"SoundDuration":630172,"Delta":213275149},{"NoteNumber":80,"Velocity":53,"Duration":220247,"SoundDuration":220247,"Delta":213479412},{"NoteNumber":82,"Velocity":63,"Duration":102831,"SoundDuration":102831,"Delta":213699660},{"NoteNumber":77,"Velocity":45,"Duration":196822,"SoundDuration":196822,"Delta":213905322},{"NoteNumber":81,"Velocity":54,"Duration":108924,"SoundDuration":108924,"Delta":213905322},{"NoteNumber":65,"Velocity":44,"Duration":193306,"SoundDuration":193306,"Delta":213905322},{"NoteNumber":62,"Velocity":37,"Duration":193306,"SoundDuration":193306,"Delta":213905322},{"NoteNumber":77,"Velocity":50,"Duration":637818,"SoundDuration":637818,"Delta":214119724},{"NoteNumber":81,"Velocity":59,"Duration":207082,"SoundDuration":207082,"Delta":214119724},{"NoteNumber":65,"Velocity":53,"Duration":620620,"SoundDuration":620620,"Delta":214119724},{"NoteNumber":62,"Velocity":45,"Duration":620620,"SoundDuration":620620,"Delta":214119724},{"NoteNumber":80,"Velocity":50,"Duration":224366,"SoundDuration":224366,"Delta":214326806},{"NoteNumber":82,"Velocity":59,"Duration":103184,"SoundDuration":103184,"Delta":214551172},{"NoteNumber":81,"Velocity":50,"Duration":118849,"SoundDuration":118849,"Delta":214757542},{"NoteNumber":74,"Velocity":42,"Duration":237698,"SoundDuration":237698,"Delta":214757542},{"NoteNumber":69,"Velocity":47,"Duration":213929,"SoundDuration":213929,"Delta":214757542},{"NoteNumber":65,"Velocity":39,"Duration":213929,"SoundDuration":213929,"Delta":214757542},{"NoteNumber":75,"Velocity":55,"Duration":452113,"SoundDuration":452113,"Delta":214995241},{"NoteNumber":84,"Velocity":68,"Duration":452113,"SoundDuration":452113,"Delta":214995241},{"NoteNumber":69,"Velocity":54,"Duration":452113,"SoundDuration":452113,"Delta":214995241},{"NoteNumber":66,"Velocity":45,"Duration":452113,"SoundDuration":452113,"Delta":214995241},{"NoteNumber":83,"Velocity":59,"Duration":113028,"SoundDuration":113028,"Delta":215447355},{"NoteNumber":76,"Velocity":50,"Duration":113028,"SoundDuration":113028,"Delta":215447355},{"NoteNumber":67,"Velocity":50,"Duration":113028,"SoundDuration":113028,"Delta":215447355},{"NoteNumber":52,"Velocity":37,"Duration":432557,"SoundDuration":432557,"Delta":215899469},{"NoteNumber":55,"Velocity":44,"Duration":432557,"SoundDuration":432557,"Delta":215899469},{"NoteNumber":57,"Velocity":41,"Duration":105850,"SoundDuration":105850,"Delta":216332026},{"NoteNumber":54,"Velocity":34,"Duration":105850,"SoundDuration":105850,"Delta":216332026},{"NoteNumber":55,"Velocity":37,"Duration":109721,"SoundDuration":109721,"Delta":216543726},{"NoteNumber":59,"Velocity":44,"Duration":109721,"SoundDuration":109721,"Delta":216543726},{"NoteNumber":78,"Velocity":66,"Duration":665630,"SoundDuration":665630,"Delta":216763169},{"NoteNumber":88,"Velocity":78,"Duration":443754,"SoundDuration":443754,"Delta":216763169},{"NoteNumber":60,"Velocity":54,"Duration":665630,"SoundDuration":665630,"Delta":216763169},{"NoteNumber":57,"Velocity":45,"Duration":665630,"SoundDuration":665630,"Delta":216763169},{"NoteNumber":87,"Velocity":69,"Duration":110938,"SoundDuration":110938,"Delta":217206923},{"NoteNumber":55,"Velocity":44,"Duration":432557,"SoundDuration":432557,"Delta":217650677},{"NoteNumber":64,"Velocity":52,"Duration":432557,"SoundDuration":432557,"Delta":217650677},{"NoteNumber":66,"Velocity":46,"Duration":105850,"SoundDuration":105850,"Delta":218083234},{"NoteNumber":57,"Velocity":39,"Duration":105850,"SoundDuration":105850,"Delta":218083234},{"NoteNumber":59,"Velocity":41,"Duration":112182,"SoundDuration":112182,"Delta":218294934},{"NoteNumber":67,"Velocity":49,"Duration":112182,"SoundDuration":112182,"Delta":218294934},{"NoteNumber":81,"Velocity":68,"Duration":651338,"SoundDuration":651338,"Delta":218519300},{"NoteNumber":91,"Velocity":81,"Duration":429461,"SoundDuration":429461,"Delta":218519300},{"NoteNumber":60,"Velocity":51,"Duration":429461,"SoundDuration":429461,"Delta":218519300},{"NoteNumber":69,"Velocity":60,"Duration":429461,"SoundDuration":429461,"Delta":218519300},{"NoteNumber":63,"Velocity":51,"Duration":429461,"SoundDuration":429461,"Delta":218519300},{"NoteNumber":90,"Velocity":72,"Duration":110938,"SoundDuration":110938,"Delta":218948761},{"NoteNumber":60,"Velocity":47,"Duration":221877,"SoundDuration":221877,"Delta":219170638},{"NoteNumber":63,"Velocity":47,"Duration":221877,"SoundDuration":221877,"Delta":219170638},{"NoteNumber":69,"Velocity":56,"Duration":221877,"SoundDuration":221877,"Delta":219170638},{"NoteNumber":93,"Velocity":80,"Duration":434122,"SoundDuration":434122,"Delta":219392515},{"NoteNumber":82,"Velocity":68,"Duration":434122,"SoundDuration":434122,"Delta":219392515},{"NoteNumber":61,"Velocity":54,"Duration":434122,"SoundDuration":434122,"Delta":219392515},{"NoteNumber":70,"Velocity":64,"Duration":434122,"SoundDuration":434122,"Delta":219392515},{"NoteNumber":64,"Velocity":54,"Duration":434122,"SoundDuration":434122,"Delta":219392515},{"NoteNumber":91,"Velocity":74,"Duration":112182,"SoundDuration":112182,"Delta":219826637},{"NoteNumber":51,"Velocity":50,"Duration":192568,"SoundDuration":192568,"Delta":220938547},{"NoteNumber":47,"Velocity":50,"Duration":192568,"SoundDuration":192568,"Delta":220938547},{"NoteNumber":51,"Velocity":58,"Duration":427930,"SoundDuration":427930,"Delta":221152512},{"NoteNumber":47,"Velocity":58,"Duration":427930,"SoundDuration":427930,"Delta":221152512},{"NoteNumber":49,"Velocity":51,"Duration":106982,"SoundDuration":106982,"Delta":221580442},{"NoteNumber":52,"Velocity":51,"Duration":106982,"SoundDuration":106982,"Delta":221580442},{"NoteNumber":51,"Velocity":53,"Duration":109721,"SoundDuration":109721,"Delta":221794407},{"NoteNumber":54,"Velocity":53,"Duration":109721,"SoundDuration":109721,"Delta":221794407},{"NoteNumber":76,"Velocity":63,"Duration":426409,"SoundDuration":426409,"Delta":222013850},{"NoteNumber":64,"Velocity":53,"Duration":426409,"SoundDuration":426409,"Delta":222013850},{"NoteNumber":52,"Velocity":61,"Duration":426409,"SoundDuration":426409,"Delta":222013850},{"NoteNumber":56,"Velocity":61,"Duration":426409,"SoundDuration":426409,"Delta":222013850},{"NoteNumber":75,"Velocity":61,"Duration":106602,"SoundDuration":106602,"Delta":222440259},{"NoteNumber":59,"Velocity":54,"Duration":106602,"SoundDuration":106602,"Delta":222440259},{"NoteNumber":56,"Velocity":54,"Duration":106602,"SoundDuration":106602,"Delta":222440259},{"NoteNumber":73,"Velocity":61,"Duration":110124,"SoundDuration":110124,"Delta":222653463},{"NoteNumber":61,"Velocity":58,"Duration":110124,"SoundDuration":110124,"Delta":222653463},{"NoteNumber":57,"Velocity":58,"Duration":110124,"SoundDuration":110124,"Delta":222653463},{"NoteNumber":71,"Velocity":58,"Duration":423399,"SoundDuration":423399,"Delta":222873711},{"NoteNumber":81,"Velocity":69,"Duration":423399,"SoundDuration":423399,"Delta":222873711},{"NoteNumber":63,"Velocity":61,"Duration":423399,"SoundDuration":423399,"Delta":222873711},{"NoteNumber":59,"Velocity":61,"Duration":423399,"SoundDuration":423399,"Delta":222873711},{"NoteNumber":80,"Velocity":61,"Duration":105850,"SoundDuration":105850,"Delta":223297111},{"NoteNumber":61,"Velocity":59,"Duration":105850,"SoundDuration":105850,"Delta":223297111},{"NoteNumber":64,"Velocity":59,"Duration":105850,"SoundDuration":105850,"Delta":223297111},{"NoteNumber":78,"Velocity":61,"Duration":109321,"SoundDuration":109321,"Delta":223508811},{"NoteNumber":63,"Velocity":61,"Duration":109321,"SoundDuration":109321,"Delta":223508811},{"NoteNumber":66,"Velocity":61,"Duration":109321,"SoundDuration":109321,"Delta":223508811},{"NoteNumber":83,"Velocity":72,"Duration":420433,"SoundDuration":420433,"Delta":223727454},{"NoteNumber":76,"Velocity":61,"Duration":849292,"SoundDuration":849292,"Delta":223727454},{"NoteNumber":64,"Velocity":63,"Duration":420433,"SoundDuration":420433,"Delta":223727454},{"NoteNumber":68,"Velocity":63,"Duration":420433,"SoundDuration":420433,"Delta":223727454},{"NoteNumber":81,"Velocity":65,"Duration":105108,"SoundDuration":105108,"Delta":224147887},{"NoteNumber":66,"Velocity":61,"Duration":105108,"SoundDuration":105108,"Delta":224147887},{"NoteNumber":69,"Velocity":61,"Duration":105108,"SoundDuration":105108,"Delta":224147887},{"NoteNumber":80,"Velocity":61,"Duration":109321,"SoundDuration":109321,"Delta":224358104},{"NoteNumber":68,"Velocity":64,"Duration":109321,"SoundDuration":109321,"Delta":224358104},{"NoteNumber":71,"Velocity":64,"Duration":109321,"SoundDuration":109321,"Delta":224358104},{"NoteNumber":78,"Velocity":70,"Duration":209482,"SoundDuration":209482,"Delta":224576747},{"NoteNumber":76,"Velocity":59,"Duration":418964,"SoundDuration":418964,"Delta":224576747},{"NoteNumber":69,"Velocity":69,"Duration":209482,"SoundDuration":209482,"Delta":224576747},{"NoteNumber":72,"Velocity":69,"Duration":209482,"SoundDuration":209482,"Delta":224576747},{"NoteNumber":79,"Velocity":61,"Duration":188534,"SoundDuration":188534,"Delta":224786229},{"NoteNumber":70,"Velocity":63,"Duration":188534,"SoundDuration":188534,"Delta":224786229},{"NoteNumber":73,"Velocity":63,"Duration":188534,"SoundDuration":188534,"Delta":224786229},{"NoteNumber":76,"Velocity":53,"Duration":820473,"SoundDuration":820473,"Delta":224995712},{"NoteNumber":79,"Velocity":63,"Duration":610990,"SoundDuration":610990,"Delta":224995712},{"NoteNumber":70,"Velocity":63,"Duration":628447,"SoundDuration":628447,"Delta":224995712},{"NoteNumber":73,"Velocity":63,"Duration":628447,"SoundDuration":628447,"Delta":224995712},{"NoteNumber":78,"Velocity":67,"Duration":209482,"SoundDuration":209482,"Delta":225624159},{"NoteNumber":69,"Velocity":60,"Duration":188534,"SoundDuration":188534,"Delta":225624159},{"NoteNumber":72,"Velocity":60,"Duration":188534,"SoundDuration":188534,"Delta":225624159},{"NoteNumber":78,"Velocity":70,"Duration":208753,"SoundDuration":208753,"Delta":225833642},{"NoteNumber":76,"Velocity":59,"Duration":400110,"SoundDuration":400110,"Delta":225833642},{"NoteNumber":69,"Velocity":63,"Duration":208753,"SoundDuration":208753,"Delta":225833642},{"NoteNumber":72,"Velocity":63,"Duration":208753,"SoundDuration":208753,"Delta":225833642},{"NoteNumber":79,"Velocity":64,"Duration":187878,"SoundDuration":187878,"Delta":226042395},{"NoteNumber":70,"Velocity":57,"Duration":187878,"SoundDuration":187878,"Delta":226042395},{"NoteNumber":73,"Velocity":57,"Duration":187878,"SoundDuration":187878,"Delta":226042395},{"NoteNumber":76,"Velocity":54,"Duration":411391,"SoundDuration":411391,"Delta":226251149},{"NoteNumber":79,"Velocity":64,"Duration":208753,"SoundDuration":208753,"Delta":226251149},{"NoteNumber":70,"Velocity":57,"Duration":208753,"SoundDuration":208753,"Delta":226251149},{"NoteNumber":73,"Velocity":57,"Duration":208753,"SoundDuration":208753,"Delta":226251149},{"NoteNumber":80,"Velocity":61,"Duration":198953,"SoundDuration":198953,"Delta":226459902},{"NoteNumber":71,"Velocity":57,"Duration":198953,"SoundDuration":198953,"Delta":226459902},{"NoteNumber":74,"Velocity":57,"Duration":198953,"SoundDuration":198953,"Delta":226459902},{"NoteNumber":80,"Velocity":70,"Duration":628447,"SoundDuration":628447,"Delta":226680962},{"NoteNumber":76,"Velocity":59,"Duration":820473,"SoundDuration":820473,"Delta":226680962},{"NoteNumber":71,"Velocity":63,"Duration":628447,"SoundDuration":628447,"Delta":226680962},{"NoteNumber":74,"Velocity":63,"Duration":628447,"SoundDuration":628447,"Delta":226680962},{"NoteNumber":79,"Velocity":60,"Duration":209482,"SoundDuration":209482,"Delta":227309409},{"NoteNumber":70,"Velocity":63,"Duration":209482,"SoundDuration":209482,"Delta":227309409},{"NoteNumber":73,"Velocity":63,"Duration":209482,"SoundDuration":209482,"Delta":227309409},{"NoteNumber":79,"Velocity":62,"Duration":209482,"SoundDuration":209482,"Delta":227518892},{"NoteNumber":76,"Velocity":52,"Duration":401508,"SoundDuration":401508,"Delta":227518892},{"NoteNumber":70,"Velocity":68,"Duration":209482,"SoundDuration":209482,"Delta":227518892},{"NoteNumber":73,"Velocity":68,"Duration":209482,"SoundDuration":209482,"Delta":227518892},{"NoteNumber":80,"Velocity":64,"Duration":188534,"SoundDuration":188534,"Delta":227728374},{"NoteNumber":71,"Velocity":63,"Duration":188534,"SoundDuration":188534,"Delta":227728374},{"NoteNumber":74,"Velocity":63,"Duration":188534,"SoundDuration":188534,"Delta":227728374},{"NoteNumber":76,"Velocity":56,"Duration":408455,"SoundDuration":408455,"Delta":227937857},{"NoteNumber":80,"Velocity":66,"Duration":209482,"SoundDuration":209482,"Delta":227937857},{"NoteNumber":71,"Velocity":65,"Duration":209482,"SoundDuration":209482,"Delta":227937857},{"NoteNumber":74,"Velocity":65,"Duration":209482,"SoundDuration":209482,"Delta":227937857},{"NoteNumber":81,"Velocity":68,"Duration":217061,"SoundDuration":217061,"Delta":228147339},{"NoteNumber":72,"Velocity":63,"Duration":217061,"SoundDuration":217061,"Delta":228147339},{"NoteNumber":76,"Velocity":62,"Duration":624089,"SoundDuration":624089,"Delta":228364400},{"NoteNumber":81,"Velocity":74,"Duration":624089,"SoundDuration":624089,"Delta":228364400},{"NoteNumber":72,"Velocity":71,"Duration":624089,"SoundDuration":624089,"Delta":228364400},{"NoteNumber":82,"Velocity":69,"Duration":187227,"SoundDuration":187227,"Delta":228988490},{"NoteNumber":76,"Velocity":58,"Duration":187227,"SoundDuration":187227,"Delta":228988490},{"NoteNumber":73,"Velocity":63,"Duration":187227,"SoundDuration":187227,"Delta":228988490},{"NoteNumber":76,"Velocity":65,"Duration":203790,"SoundDuration":203790,"Delta":229196520},{"NoteNumber":82,"Velocity":77,"Duration":203790,"SoundDuration":203790,"Delta":229196520},{"NoteNumber":73,"Velocity":71,"Duration":203790,"SoundDuration":203790,"Delta":229196520},{"NoteNumber":85,"Velocity":68,"Duration":183411,"SoundDuration":183411,"Delta":229400311},{"NoteNumber":79,"Velocity":57,"Duration":183411,"SoundDuration":183411,"Delta":229400311},{"NoteNumber":70,"Velocity":63,"Duration":183411,"SoundDuration":183411,"Delta":229400311},{"NoteNumber":85,"Velocity":70,"Duration":203790,"SoundDuration":203790,"Delta":229604101},{"NoteNumber":79,"Velocity":59,"Duration":203790,"SoundDuration":203790,"Delta":229604101},{"NoteNumber":70,"Velocity":67,"Duration":203790,"SoundDuration":203790,"Delta":229604101},{"NoteNumber":88,"Velocity":70,"Duration":183411,"SoundDuration":183411,"Delta":229807892},{"NoteNumber":82,"Velocity":70,"Duration":183411,"SoundDuration":183411,"Delta":229807892},{"NoteNumber":67,"Velocity":63,"Duration":183411,"SoundDuration":183411,"Delta":229807892},{"NoteNumber":82,"Velocity":75,"Duration":203790,"SoundDuration":203790,"Delta":230011682},{"NoteNumber":88,"Velocity":75,"Duration":203790,"SoundDuration":203790,"Delta":230011682},{"NoteNumber":67,"Velocity":73,"Duration":203790,"SoundDuration":203790,"Delta":230011682},{"NoteNumber":85,"Velocity":62,"Duration":215501,"SoundDuration":215501,"Delta":230215473},{"NoteNumber":91,"Velocity":73,"Duration":215501,"SoundDuration":215501,"Delta":230215473},{"NoteNumber":58,"Velocity":67,"Duration":215501,"SoundDuration":215501,"Delta":230215473},{"NoteNumber":87,"Velocity":68,"Duration":107751,"SoundDuration":107751,"Delta":230430975},{"NoteNumber":90,"Velocity":80,"Duration":107751,"SoundDuration":107751,"Delta":230430975},{"NoteNumber":59,"Velocity":74,"Duration":107751,"SoundDuration":107751,"Delta":230430975},{"NoteNumber":47,"Velocity":70,"Duration":215501,"SoundDuration":215501,"Delta":230646477},{"NoteNumber":60,"Velocity":74,"Duration":607369,"SoundDuration":607369,"Delta":230861979},{"NoteNumber":48,"Velocity":62,"Duration":607369,"SoundDuration":607369,"Delta":230861979},{"NoteNumber":66,"Velocity":80,"Duration":1226705,"SoundDuration":1226705,"Delta":231066464},{"NoteNumber":69,"Velocity":72,"Duration":1022220,"SoundDuration":1022220,"Delta":231270949},{"NoteNumber":78,"Velocity":85,"Duration":605980,"SoundDuration":605980,"Delta":231270949},{"NoteNumber":35,"Velocity":69,"Duration":203790,"SoundDuration":203790,"Delta":231469348},{"NoteNumber":36,"Velocity":62,"Duration":416239,"SoundDuration":416239,"Delta":231673139},{"NoteNumber":48,"Velocity":74,"Duration":416239,"SoundDuration":416239,"Delta":231673139},{"NoteNumber":76,"Velocity":80,"Duration":212449,"SoundDuration":212449,"Delta":231876929},{"NoteNumber":75,"Velocity":84,"Duration":203790,"SoundDuration":203790,"Delta":232089379},{"NoteNumber":47,"Velocity":69,"Duration":203790,"SoundDuration":203790,"Delta":232293169},{"NoteNumber":48,"Velocity":58,"Duration":402848,"SoundDuration":402848,"Delta":232496960},{"NoteNumber":60,"Velocity":69,"Duration":402848,"SoundDuration":402848,"Delta":232496960},{"NoteNumber":78,"Velocity":83,"Duration":1255882,"SoundDuration":1255882,"Delta":232700750},{"NoteNumber":90,"Velocity":90,"Duration":606639,"SoundDuration":606639,"Delta":232899808},{"NoteNumber":81,"Velocity":76,"Duration":1056824,"SoundDuration":1056824,"Delta":232899808},{"NoteNumber":35,"Velocity":68,"Duration":203790,"SoundDuration":203790,"Delta":233103599},{"NoteNumber":36,"Velocity":62,"Duration":413023,"SoundDuration":413023,"Delta":233307389},{"NoteNumber":48,"Velocity":74,"Duration":413023,"SoundDuration":413023,"Delta":233307389},{"NoteNumber":88,"Velocity":85,"Duration":213965,"SoundDuration":213965,"Delta":233506447},{"NoteNumber":87,"Velocity":95,"Duration":236220,"SoundDuration":236220,"Delta":233720412},{"NoteNumber":35,"Velocity":64,"Duration":118110,"SoundDuration":118110,"Delta":233720412},{"NoteNumber":47,"Velocity":76,"Duration":118110,"SoundDuration":118110,"Delta":233720412},{"NoteNumber":93,"Velocity":99,"Duration":118110,"SoundDuration":118110,"Delta":234192853},{"NoteNumber":81,"Velocity":84,"Duration":118110,"SoundDuration":118110,"Delta":234192853},{"NoteNumber":87,"Velocity":84,"Duration":118110,"SoundDuration":118110,"Delta":234192853},{"NoteNumber":90,"Velocity":84,"Duration":118110,"SoundDuration":118110,"Delta":234192853},{"NoteNumber":47,"Velocity":65,"Duration":118110,"SoundDuration":118110,"Delta":234192853},{"NoteNumber":51,"Velocity":65,"Duration":118110,"SoundDuration":118110,"Delta":234192853},{"NoteNumber":54,"Velocity":65,"Duration":118110,"SoundDuration":118110,"Delta":234192853},{"NoteNumber":59,"Velocity":77,"Duration":118110,"SoundDuration":118110,"Delta":234192853},{"NoteNumber":66,"Velocity":77,"Duration":472441,"SoundDuration":472441,"Delta":235137735},{"NoteNumber":69,"Velocity":83,"Duration":1198046,"SoundDuration":1198046,"Delta":235610176},{"NoteNumber":60,"Velocity":64,"Duration":236220,"SoundDuration":236220,"Delta":235846397},{"NoteNumber":64,"Velocity":70,"Duration":236220,"SoundDuration":236220,"Delta":236082617},{"NoteNumber":76,"Velocity":63,"Duration":236220,"SoundDuration":236220,"Delta":236318838},{"NoteNumber":66,"Velocity":46,"Duration":540540,"SoundDuration":540540,"Delta":237061387},{"NoteNumber":69,"Velocity":49,"Duration":1626053,"SoundDuration":1626053,"Delta":237601928},{"NoteNumber":59,"Velocity":38,"Duration":315789,"SoundDuration":315789,"Delta":237917718},{"NoteNumber":63,"Velocity":42,"Duration":331491,"SoundDuration":331491,"Delta":238233507},{"NoteNumber":75,"Velocity":37,"Duration":331491,"SoundDuration":331491,"Delta":238564999},{"NoteNumber":66,"Velocity":46,"Duration":583828,"SoundDuration":583828,"Delta":239559473},{"NoteNumber":69,"Velocity":49,"Duration":1079895,"SoundDuration":1079895,"Delta":240143301},{"NoteNumber":60,"Velocity":26,"Duration":266987,"SoundDuration":266987,"Delta":240427114},{"NoteNumber":64,"Velocity":28,"Duration":264475,"SoundDuration":264475,"Delta":240694101},{"NoteNumber":60,"Velocity":22,"Duration":264620,"SoundDuration":264620,"Delta":240958576},{"NoteNumber":71,"Velocity":48,"Duration":788007,"SoundDuration":788007,"Delta":241223197},{"NoteNumber":64,"Velocity":28,"Duration":256695,"SoundDuration":256695,"Delta":241223197},{"NoteNumber":60,"Velocity":21,"Duration":265283,"SoundDuration":265283,"Delta":241479892},{"NoteNumber":64,"Velocity":24,"Duration":266028,"SoundDuration":266028,"Delta":241745176},{"NoteNumber":72,"Velocity":46,"Duration":260241,"SoundDuration":260241,"Delta":242011204},{"NoteNumber":69,"Velocity":20,"Duration":289433,"SoundDuration":289433,"Delta":242011204},{"NoteNumber":72,"Velocity":53,"Duration":1061142,"SoundDuration":1061142,"Delta":242300638},{"NoteNumber":62,"Velocity":23,"Duration":259472,"SoundDuration":259472,"Delta":242570252},{"NoteNumber":65,"Velocity":27,"Duration":266028,"SoundDuration":266028,"Delta":242829724},{"NoteNumber":62,"Velocity":22,"Duration":266028,"SoundDuration":266028,"Delta":243095752},{"NoteNumber":71,"Velocity":46,"Duration":521629,"SoundDuration":521629,"Delta":243361780},{"NoteNumber":65,"Velocity":27,"Duration":266027,"SoundDuration":266027,"Delta":243361780},{"NoteNumber":62,"Velocity":24,"Duration":255602,"SoundDuration":255602,"Delta":243627808},{"NoteNumber":65,"Velocity":24,"Duration":265792,"SoundDuration":265792,"Delta":243883410},{"NoteNumber":74,"Velocity":49,"Duration":273298,"SoundDuration":273298,"Delta":244149203},{"NoteNumber":69,"Velocity":20,"Duration":273298,"SoundDuration":273298,"Delta":244149203},{"NoteNumber":77,"Velocity":54,"Duration":1055707,"SoundDuration":1055707,"Delta":244422501},{"NoteNumber":52,"Velocity":24,"Duration":259472,"SoundDuration":259472,"Delta":244689714},{"NoteNumber":56,"Velocity":27,"Duration":265332,"SoundDuration":265332,"Delta":244949186},{"NoteNumber":52,"Velocity":24,"Duration":263689,"SoundDuration":263689,"Delta":245214519},{"NoteNumber":76,"Velocity":50,"Duration":785189,"SoundDuration":785189,"Delta":245478209},{"NoteNumber":56,"Velocity":27,"Duration":263689,"SoundDuration":263689,"Delta":245478209},{"NoteNumber":52,"Velocity":23,"Duration":256695,"SoundDuration":256695,"Delta":245741899},{"NoteNumber":56,"Velocity":23,"Duration":264803,"SoundDuration":264803,"Delta":245998594},{"NoteNumber":71,"Velocity":50,"Duration":283634,"SoundDuration":283634,"Delta":246263398},{"NoteNumber":62,"Velocity":19,"Duration":283634,"SoundDuration":283634,"Delta":246263398},{"NoteNumber":74,"Velocity":57,"Duration":1068236,"SoundDuration":1068236,"Delta":246547032},{"NoteNumber":57,"Velocity":23,"Duration":269614,"SoundDuration":269614,"Delta":246816647},{"NoteNumber":64,"Velocity":27,"Duration":268408,"SoundDuration":268408,"Delta":247086261},{"NoteNumber":57,"Velocity":24,"Duration":260599,"SoundDuration":260599,"Delta":247354670},{"NoteNumber":72,"Velocity":52,"Duration":522330,"SoundDuration":522330,"Delta":247615269},{"NoteNumber":64,"Velocity":27,"Duration":261165,"SoundDuration":261165,"Delta":247615269},{"NoteNumber":57,"Velocity":22,"Duration":261165,"SoundDuration":261165,"Delta":247876434},{"NoteNumber":64,"Velocity":22,"Duration":261164,"SoundDuration":261164,"Delta":248137599},{"NoteNumber":69,"Velocity":20,"Duration":265792,"SoundDuration":265792,"Delta":248398764},{"NoteNumber":72,"Velocity":49,"Duration":1044134,"SoundDuration":1044134,"Delta":248664556},{"NoteNumber":45,"Velocity":29,"Duration":260032,"SoundDuration":260032,"Delta":248936956},{"NoteNumber":52,"Velocity":32,"Duration":266975,"SoundDuration":266975,"Delta":249196989},{"NoteNumber":45,"Velocity":28,"Duration":266975,"SoundDuration":266975,"Delta":249463964},{"NoteNumber":72,"Velocity":50,"Duration":1633718,"SoundDuration":1633718,"Delta":249730939},{"NoteNumber":52,"Velocity":32,"Duration":260032,"SoundDuration":260032,"Delta":249730939},{"NoteNumber":45,"Velocity":27,"Duration":269926,"SoundDuration":269926,"Delta":249990972},{"NoteNumber":52,"Velocity":27,"Duration":273298,"SoundDuration":273298,"Delta":250260899},{"NoteNumber":74,"Velocity":56,"Duration":286341,"SoundDuration":286341,"Delta":250534197},{"NoteNumber":54,"Velocity":27,"Duration":286341,"SoundDuration":286341,"Delta":250534197},{"NoteNumber":76,"Velocity":65,"Duration":544118,"SoundDuration":544118,"Delta":250820539},{"NoteNumber":43,"Velocity":26,"Duration":272059,"SoundDuration":272059,"Delta":251092598},{"NoteNumber":52,"Velocity":31,"Duration":264854,"SoundDuration":264854,"Delta":251364658},{"NoteNumber":55,"Velocity":27,"Duration":264853,"SoundDuration":264853,"Delta":251629512},{"NoteNumber":76,"Velocity":63,"Duration":1609270,"SoundDuration":1609270,"Delta":251894366},{"NoteNumber":79,"Velocity":75,"Duration":1609270,"SoundDuration":1609270,"Delta":251894366},{"NoteNumber":60,"Velocity":39,"Duration":264854,"SoundDuration":264854,"Delta":251894366},{"NoteNumber":55,"Velocity":34,"Duration":264853,"SoundDuration":264853,"Delta":252159220},{"NoteNumber":52,"Velocity":37,"Duration":261165,"SoundDuration":261165,"Delta":252424074},{"NoteNumber":48,"Velocity":40,"Duration":286341,"SoundDuration":286341,"Delta":252685239},{"NoteNumber":42,"Velocity":44,"Duration":266028,"SoundDuration":266028,"Delta":252971580},{"NoteNumber":47,"Velocity":38,"Duration":266028,"SoundDuration":266028,"Delta":253237608},{"NoteNumber":52,"Velocity":38,"Duration":266027,"SoundDuration":266027,"Delta":253503636},{"NoteNumber":55,"Velocity":38,"Duration":277084,"SoundDuration":277084,"Delta":253769664},{"NoteNumber":83,"Velocity":73,"Duration":1616708,"SoundDuration":1616708,"Delta":254046749},{"NoteNumber":79,"Velocity":62,"Duration":1616708,"SoundDuration":1616708,"Delta":254046749},{"NoteNumber":40,"Velocity":51,"Duration":264854,"SoundDuration":264854,"Delta":254046749},{"NoteNumber":47,"Velocity":40,"Duration":264853,"SoundDuration":264853,"Delta":254311603},{"NoteNumber":52,"Velocity":42,"Duration":260032,"SoundDuration":260032,"Delta":254576457},{"NoteNumber":55,"Velocity":42,"Duration":280978,"SoundDuration":280978,"Delta":254836490},{"NoteNumber":35,"Velocity":57,"Duration":282299,"SoundDuration":282299,"Delta":255117468},{"NoteNumber":47,"Velocity":44,"Duration":263689,"SoundDuration":263689,"Delta":255399768},{"NoteNumber":50,"Velocity":44,"Duration":263689,"SoundDuration":263689,"Delta":255663458},{"NoteNumber":55,"Velocity":44,"Duration":263689,"SoundDuration":263689,"Delta":255927148},{"NoteNumber":74,"Velocity":69,"Duration":1924171,"SoundDuration":1924171,"Delta":256124916},{"NoteNumber":79,"Velocity":73,"Duration":1891209,"SoundDuration":1891209,"Delta":256157877},{"NoteNumber":86,"Velocity":76,"Duration":1858248,"SoundDuration":1858248,"Delta":256190838},{"NoteNumber":67,"Velocity":53,"Duration":257798,"SoundDuration":257798,"Delta":256190838},{"NoteNumber":62,"Velocity":44,"Duration":260033,"SoundDuration":260033,"Delta":256448637},{"NoteNumber":59,"Velocity":44,"Duration":260032,"SoundDuration":260032,"Delta":256708670},{"NoteNumber":55,"Velocity":44,"Duration":282300,"SoundDuration":282300,"Delta":256968703},{"NoteNumber":47,"Velocity":53,"Duration":266028,"SoundDuration":266028,"Delta":257251003},{"NoteNumber":50,"Velocity":42,"Duration":266028,"SoundDuration":266028,"Delta":257517031},{"NoteNumber":55,"Velocity":44,"Duration":266028,"SoundDuration":266028,"Delta":257783059},{"NoteNumber":83,"Velocity":66,"Duration":266028,"SoundDuration":266028,"Delta":258049087},{"NoteNumber":62,"Velocity":41,"Duration":266028,"SoundDuration":266028,"Delta":258049087},{"NoteNumber":84,"Velocity":73,"Duration":784296,"SoundDuration":784296,"Delta":258315115},{"NoteNumber":78,"Velocity":62,"Duration":1050324,"SoundDuration":1050324,"Delta":258315115},{"NoteNumber":51,"Velocity":39,"Duration":259134,"SoundDuration":259134,"Delta":258574249},{"NoteNumber":57,"Velocity":42,"Duration":266028,"SoundDuration":266028,"Delta":258833384},{"NoteNumber":81,"Velocity":61,"Duration":266028,"SoundDuration":266028,"Delta":259099412},{"NoteNumber":60,"Velocity":39,"Duration":266028,"SoundDuration":266028,"Delta":259099412},{"NoteNumber":79,"Velocity":69,"Duration":1087525,"SoundDuration":1087525,"Delta":259365440},{"NoteNumber":52,"Velocity":39,"Duration":268408,"SoundDuration":268408,"Delta":259647740},{"NoteNumber":55,"Velocity":42,"Duration":268408,"SoundDuration":268408,"Delta":259916148},{"NoteNumber":60,"Velocity":39,"Duration":268408,"SoundDuration":268408,"Delta":260184557},{"NoteNumber":81,"Velocity":63,"Duration":788925,"SoundDuration":788925,"Delta":260452965},{"NoteNumber":72,"Velocity":53,"Duration":2144859,"SoundDuration":2144859,"Delta":260452965},{"NoteNumber":53,"Velocity":32,"Duration":260258,"SoundDuration":260258,"Delta":260713224},{"NoteNumber":57,"Velocity":37,"Duration":268408,"SoundDuration":268408,"Delta":260973482},{"NoteNumber":77,"Velocity":52,"Duration":268408,"SoundDuration":268408,"Delta":261241891},{"NoteNumber":60,"Velocity":32,"Duration":268408,"SoundDuration":268408,"Delta":261241891},{"NoteNumber":76,"Velocity":63,"Duration":1087525,"SoundDuration":1087525,"Delta":261510299},{"NoteNumber":55,"Velocity":33,"Duration":268408,"SoundDuration":268408,"Delta":261792599},{"NoteNumber":60,"Velocity":37,"Duration":268408,"SoundDuration":268408,"Delta":262061008},{"NoteNumber":64,"Velocity":34,"Duration":268408,"SoundDuration":268408,"Delta":262329416},{"NoteNumber":77,"Velocity":64,"Duration":1869709,"SoundDuration":1869709,"Delta":262597825},{"NoteNumber":71,"Velocity":54,"Duration":1078639,"SoundDuration":1078639,"Delta":262597825},{"NoteNumber":56,"Velocity":44,"Duration":1078639,"SoundDuration":1078639,"Delta":262597825},{"NoteNumber":62,"Velocity":34,"Duration":264854,"SoundDuration":264854,"Delta":262864456},{"NoteNumber":65,"Velocity":34,"Duration":264853,"SoundDuration":264853,"Delta":263129310},{"NoteNumber":68,"Velocity":34,"Duration":282300,"SoundDuration":282300,"Delta":263394164},{"NoteNumber":72,"Velocity":64,"Duration":1085852,"SoundDuration":1085852,"Delta":263676464},{"NoteNumber":57,"Velocity":44,"Duration":1085852,"SoundDuration":1085852,"Delta":263676464},{"NoteNumber":60,"Velocity":30,"Duration":263689,"SoundDuration":263689,"Delta":263940154},{"NoteNumber":65,"Velocity":34,"Duration":263689,"SoundDuration":263689,"Delta":264203844},{"NoteNumber":76,"Velocity":52,"Duration":294782,"SoundDuration":294782,"Delta":264467534},{"NoteNumber":69,"Velocity":29,"Duration":294782,"SoundDuration":294782,"Delta":264467534},{"NoteNumber":69,"Velocity":42,"Duration":1078545,"SoundDuration":1078545,"Delta":264762317},{"NoteNumber":78,"Velocity":50,"Duration":806485,"SoundDuration":806485,"Delta":264762317},{"NoteNumber":59,"Velocity":32,"Duration":1078545,"SoundDuration":1078545,"Delta":264762317},{"NoteNumber":63,"Velocity":26,"Duration":267212,"SoundDuration":267212,"Delta":265029530},{"NoteNumber":66,"Velocity":29,"Duration":272059,"SoundDuration":272059,"Delta":265296743},{"NoteNumber":75,"Velocity":37,"Duration":272059,"SoundDuration":272059,"Delta":265568802},{"NoteNumber":71,"Velocity":26,"Duration":272059,"SoundDuration":272059,"Delta":265568802},{"NoteNumber":76,"Velocity":34,"Duration":2106829,"SoundDuration":2106829,"Delta":265840862},{"NoteNumber":84,"Velocity":40,"Duration":1066608,"SoundDuration":1066608,"Delta":265840862},{"NoteNumber":88,"Velocity":40,"Duration":1066608,"SoundDuration":1066608,"Delta":265840862},{"NoteNumber":64,"Velocity":28,"Duration":269614,"SoundDuration":269614,"Delta":265840862},{"NoteNumber":52,"Velocity":20,"Duration":269614,"SoundDuration":269614,"Delta":266110476},{"NoteNumber":64,"Velocity":20,"Duration":263689,"SoundDuration":263689,"Delta":266380091},{"NoteNumber":52,"Velocity":20,"Duration":263689,"SoundDuration":263689,"Delta":266643781},{"NoteNumber":83,"Velocity":35,"Duration":517822,"SoundDuration":517822,"Delta":266907471},{"NoteNumber":86,"Velocity":35,"Duration":517822,"SoundDuration":517822,"Delta":266907471},{"NoteNumber":62,"Velocity":28,"Duration":258911,"SoundDuration":258911,"Delta":266907471},{"NoteNumber":59,"Velocity":24,"Duration":258911,"SoundDuration":258911,"Delta":266907471},{"NoteNumber":52,"Velocity":21,"Duration":258911,"SoundDuration":258911,"Delta":267166382},{"NoteNumber":84,"Velocity":41,"Duration":546146,"SoundDuration":546146,"Delta":267425293},{"NoteNumber":88,"Velocity":41,"Duration":546146,"SoundDuration":546146,"Delta":267425293},{"NoteNumber":64,"Velocity":21,"Duration":261165,"SoundDuration":261165,"Delta":267425293},{"NoteNumber":60,"Velocity":18,"Duration":261165,"SoundDuration":261165,"Delta":267425293},{"NoteNumber":52,"Velocity":21,"Duration":284981,"SoundDuration":284981,"Delta":267686458},{"NoteNumber":86,"Velocity":46,"Duration":794561,"SoundDuration":794561,"Delta":267971439},{"NoteNumber":76,"Velocity":25,"Duration":2088327,"SoundDuration":2088327,"Delta":267971439},{"NoteNumber":89,"Velocity":46,"Duration":794561,"SoundDuration":794561,"Delta":267971439},{"NoteNumber":65,"Velocity":28,"Duration":264854,"SoundDuration":264854,"Delta":267971439},{"NoteNumber":62,"Velocity":24,"Duration":264854,"SoundDuration":264854,"Delta":267971439},{"NoteNumber":52,"Velocity":20,"Duration":264854,"SoundDuration":264854,"Delta":268236293},{"NoteNumber":62,"Velocity":20,"Duration":264853,"SoundDuration":264853,"Delta":268501147},{"NoteNumber":59,"Velocity":17,"Duration":264853,"SoundDuration":264853,"Delta":268501147},{"NoteNumber":83,"Velocity":39,"Duration":242782,"SoundDuration":242782,"Delta":268766001},{"NoteNumber":86,"Velocity":39,"Duration":264854,"SoundDuration":264854,"Delta":268766001},{"NoteNumber":52,"Velocity":20,"Duration":264854,"SoundDuration":264854,"Delta":268766001},{"NoteNumber":80,"Velocity":46,"Duration":525072,"SoundDuration":525072,"Delta":269030855},{"NoteNumber":83,"Velocity":46,"Duration":525072,"SoundDuration":525072,"Delta":269030855},{"NoteNumber":56,"Velocity":23,"Duration":262536,"SoundDuration":262536,"Delta":269030855},{"NoteNumber":59,"Velocity":27,"Duration":262536,"SoundDuration":262536,"Delta":269030855},{"NoteNumber":52,"Velocity":21,"Duration":262536,"SoundDuration":262536,"Delta":269293391},{"NoteNumber":81,"Velocity":40,"Duration":526206,"SoundDuration":526206,"Delta":269555927},{"NoteNumber":84,"Velocity":40,"Duration":526206,"SoundDuration":526206,"Delta":269555927},{"NoteNumber":60,"Velocity":21,"Duration":257798,"SoundDuration":257798,"Delta":269555927},{"NoteNumber":57,"Velocity":18,"Duration":257798,"SoundDuration":257798,"Delta":269555927},{"NoteNumber":52,"Velocity":21,"Duration":268408,"SoundDuration":268408,"Delta":269813726},{"NoteNumber":76,"Velocity":34,"Duration":2120370,"SoundDuration":2120370,"Delta":270082134},{"NoteNumber":86,"Velocity":40,"Duration":551623,"SoundDuration":551623,"Delta":270082134},{"NoteNumber":83,"Velocity":40,"Duration":551623,"SoundDuration":551623,"Delta":270082134},{"NoteNumber":59,"Velocity":24,"Duration":275811,"SoundDuration":275811,"Delta":270082134},{"NoteNumber":62,"Velocity":28,"Duration":275811,"SoundDuration":275811,"Delta":270082134},{"NoteNumber":52,"Velocity":20,"Duration":275811,"SoundDuration":275811,"Delta":270357946},{"NoteNumber":84,"Velocity":35,"Duration":525072,"SoundDuration":525072,"Delta":270633757},{"NoteNumber":81,"Velocity":35,"Duration":525072,"SoundDuration":525072,"Delta":270633757},{"NoteNumber":57,"Velocity":24,"Duration":262536,"SoundDuration":262536,"Delta":270633757},{"NoteNumber":60,"Velocity":20,"Duration":262536,"SoundDuration":262536,"Delta":270633757},{"NoteNumber":52,"Velocity":20,"Duration":262536,"SoundDuration":262536,"Delta":270896293},{"NoteNumber":79,"Velocity":35,"Duration":517822,"SoundDuration":517822,"Delta":271158829},{"NoteNumber":83,"Velocity":35,"Duration":517822,"SoundDuration":517822,"Delta":271158829},{"NoteNumber":59,"Velocity":28,"Duration":258911,"SoundDuration":258911,"Delta":271158829},{"NoteNumber":55,"Velocity":24,"Duration":258911,"SoundDuration":258911,"Delta":271158829},{"NoteNumber":52,"Velocity":21,"Duration":258911,"SoundDuration":258911,"Delta":271417740},{"NoteNumber":77,"Velocity":41,"Duration":549601,"SoundDuration":549601,"Delta":271676651},{"NoteNumber":81,"Velocity":41,"Duration":549601,"SoundDuration":549601,"Delta":271676651},{"NoteNumber":57,"Velocity":21,"Duration":264620,"SoundDuration":264620,"Delta":271676651},{"NoteNumber":53,"Velocity":18,"Duration":264620,"SoundDuration":264620,"Delta":271676651},{"NoteNumber":52,"Velocity":21,"Duration":284981,"SoundDuration":284981,"Delta":271941272},{"NoteNumber":76,"Velocity":25,"Duration":1565114,"SoundDuration":1565114,"Delta":272226253},{"NoteNumber":80,"Velocity":46,"Duration":798084,"SoundDuration":798084,"Delta":272226253},{"NoteNumber":56,"Velocity":28,"Duration":266028,"SoundDuration":266028,"Delta":272226253},{"NoteNumber":52,"Velocity":20,"Duration":266028,"SoundDuration":266028,"Delta":272492281},{"NoteNumber":57,"Velocity":20,"Duration":266028,"SoundDuration":266028,"Delta":272758309},{"NoteNumber":54,"Velocity":17,"Duration":266028,"SoundDuration":266028,"Delta":272758309},{"NoteNumber":81,"Velocity":39,"Duration":266028,"SoundDuration":266028,"Delta":273024337},{"NoteNumber":78,"Velocity":39,"Duration":266028,"SoundDuration":266028,"Delta":273024337},{"NoteNumber":52,"Velocity":20,"Duration":266028,"SoundDuration":266028,"Delta":273024337},{"NoteNumber":83,"Velocity":46,"Duration":522784,"SoundDuration":522784,"Delta":273290365},{"NoteNumber":80,"Velocity":46,"Duration":522784,"SoundDuration":522784,"Delta":273290365},{"NoteNumber":56,"Velocity":23,"Duration":261392,"SoundDuration":261392,"Delta":273290365},{"NoteNumber":59,"Velocity":27,"Duration":261392,"SoundDuration":261392,"Delta":273290365},{"NoteNumber":52,"Velocity":21,"Duration":261392,"SoundDuration":261392,"Delta":273551758},{"NoteNumber":76,"Velocity":40,"Duration":2668210,"SoundDuration":2668210,"Delta":273813150},{"NoteNumber":56,"Velocity":21,"Duration":261392,"SoundDuration":261392,"Delta":273813150},{"NoteNumber":52,"Velocity":21,"Duration":280978,"SoundDuration":280978,"Delta":274074543},{"NoteNumber":88,"Velocity":40,"Duration":1076479,"SoundDuration":1076479,"Delta":274355521},{"NoteNumber":84,"Velocity":40,"Duration":1076479,"SoundDuration":1076479,"Delta":274355521},{"NoteNumber":60,"Velocity":24,"Duration":274549,"SoundDuration":274549,"Delta":274355521},{"NoteNumber":64,"Velocity":28,"Duration":274549,"SoundDuration":274549,"Delta":274355521},{"NoteNumber":52,"Velocity":20,"Duration":274549,"SoundDuration":274549,"Delta":274630070},{"NoteNumber":60,"Velocity":24,"Duration":263689,"SoundDuration":263689,"Delta":274904620},{"NoteNumber":64,"Velocity":20,"Duration":263689,"SoundDuration":263689,"Delta":274904620},{"NoteNumber":52,"Velocity":20,"Duration":263689,"SoundDuration":263689,"Delta":275168310},{"NoteNumber":86,"Velocity":35,"Duration":517822,"SoundDuration":517822,"Delta":275432000},{"NoteNumber":83,"Velocity":35,"Duration":517822,"SoundDuration":517822,"Delta":275432000},{"NoteNumber":62,"Velocity":28,"Duration":258911,"SoundDuration":258911,"Delta":275432000},{"NoteNumber":59,"Velocity":24,"Duration":258911,"SoundDuration":258911,"Delta":275432000},{"NoteNumber":52,"Velocity":21,"Duration":258911,"SoundDuration":258911,"Delta":275690911},{"NoteNumber":88,"Velocity":43,"Duration":556323,"SoundDuration":556323,"Delta":275949822},{"NoteNumber":84,"Velocity":43,"Duration":556323,"SoundDuration":556323,"Delta":275949822},{"NoteNumber":64,"Velocity":22,"Duration":258910,"SoundDuration":258910,"Delta":275949822},{"NoteNumber":60,"Velocity":18,"Duration":258910,"SoundDuration":258910,"Delta":275949822},{"NoteNumber":52,"Velocity":22,"Duration":297412,"SoundDuration":297412,"Delta":276208733},{"NoteNumber":88,"Velocity":55,"Duration":794561,"SoundDuration":794561,"Delta":276506145},{"NoteNumber":91,"Velocity":55,"Duration":794561,"SoundDuration":794561,"Delta":276506145},{"NoteNumber":76,"Velocity":25,"Duration":2095263,"SoundDuration":2095263,"Delta":276506145},{"NoteNumber":67,"Velocity":31,"Duration":264854,"SoundDuration":264854,"Delta":276506145},{"NoteNumber":64,"Velocity":26,"Duration":264854,"SoundDuration":264854,"Delta":276506145},{"NoteNumber":52,"Velocity":22,"Duration":264854,"SoundDuration":264854,"Delta":276770999},{"NoteNumber":65,"Velocity":22,"Duration":264853,"SoundDuration":264853,"Delta":277035853},{"NoteNumber":62,"Velocity":18,"Duration":264853,"SoundDuration":264853,"Delta":277035853},{"NoteNumber":89,"Velocity":42,"Duration":264854,"SoundDuration":264854,"Delta":277300707},{"NoteNumber":86,"Velocity":42,"Duration":242782,"SoundDuration":242782,"Delta":277300707},{"NoteNumber":52,"Velocity":22,"Duration":264854,"SoundDuration":264854,"Delta":277300707},{"NoteNumber":86,"Velocity":50,"Duration":522784,"SoundDuration":522784,"Delta":277565561},{"NoteNumber":83,"Velocity":50,"Duration":522784,"SoundDuration":522784,"Delta":277565561},{"NoteNumber":59,"Velocity":25,"Duration":261392,"SoundDuration":261392,"Delta":277565561},{"NoteNumber":62,"Velocity":30,"Duration":261392,"SoundDuration":261392,"Delta":277565561},{"NoteNumber":52,"Velocity":23,"Duration":261392,"SoundDuration":261392,"Delta":277826954},{"NoteNumber":89,"Velocity":44,"Duration":535941,"SoundDuration":535941,"Delta":278088346},{"NoteNumber":86,"Velocity":44,"Duration":535941,"SoundDuration":535941,"Delta":278088346},{"NoteNumber":65,"Velocity":23,"Duration":261392,"SoundDuration":261392,"Delta":278088346},{"NoteNumber":62,"Velocity":19,"Duration":261392,"SoundDuration":261392,"Delta":278088346},{"NoteNumber":52,"Velocity":23,"Duration":274549,"SoundDuration":274549,"Delta":278349739},{"NoteNumber":76,"Velocity":37,"Duration":2111276,"SoundDuration":2111276,"Delta":278624288},{"NoteNumber":84,"Velocity":44,"Duration":528638,"SoundDuration":528638,"Delta":278624288},{"NoteNumber":88,"Velocity":44,"Duration":551623,"SoundDuration":551623,"Delta":278624288},{"NoteNumber":60,"Velocity":26,"Duration":275811,"SoundDuration":275811,"Delta":278624288},{"NoteNumber":64,"Velocity":31,"Duration":275811,"SoundDuration":275811,"Delta":278624288},{"NoteNumber":52,"Velocity":22,"Duration":275811,"SoundDuration":275811,"Delta":278900100},{"NoteNumber":81,"Velocity":37,"Duration":520516,"SoundDuration":520516,"Delta":279175911},{"NoteNumber":84,"Velocity":37,"Duration":520516,"SoundDuration":520516,"Delta":279175911},{"NoteNumber":57,"Velocity":26,"Duration":260258,"SoundDuration":260258,"Delta":279175911},{"NoteNumber":60,"Velocity":21,"Duration":260258,"SoundDuration":260258,"Delta":279175911},{"NoteNumber":52,"Velocity":21,"Duration":260258,"SoundDuration":260258,"Delta":279436170},{"NoteNumber":83,"Velocity":36,"Duration":494113,"SoundDuration":494113,"Delta":279696428},{"NoteNumber":86,"Velocity":36,"Duration":515597,"SoundDuration":515597,"Delta":279696428},{"NoteNumber":62,"Velocity":29,"Duration":257798,"SoundDuration":257798,"Delta":279696428},{"NoteNumber":59,"Velocity":25,"Duration":257798,"SoundDuration":257798,"Delta":279696428},{"NoteNumber":52,"Velocity":21,"Duration":257798,"SoundDuration":257798,"Delta":279954227},{"NoteNumber":83,"Velocity":42,"Duration":547288,"SoundDuration":547288,"Delta":280212025},{"NoteNumber":80,"Velocity":42,"Duration":547288,"SoundDuration":547288,"Delta":280212025},{"NoteNumber":59,"Velocity":21,"Duration":262306,"SoundDuration":262306,"Delta":280212025},{"NoteNumber":56,"Velocity":18,"Duration":262306,"SoundDuration":262306,"Delta":280212025},{"NoteNumber":52,"Velocity":21,"Duration":284981,"SoundDuration":284981,"Delta":280474332},{"NoteNumber":84,"Velocity":46,"Duration":541663,"SoundDuration":541663,"Delta":280759313},{"NoteNumber":76,"Velocity":25,"Duration":2192598,"SoundDuration":2192598,"Delta":280759313},{"NoteNumber":81,"Velocity":40,"Duration":519093,"SoundDuration":519093,"Delta":280759313},{"NoteNumber":57,"Velocity":24,"Duration":270831,"SoundDuration":270831,"Delta":280759313},{"NoteNumber":60,"Velocity":28,"Duration":270831,"SoundDuration":270831,"Delta":280759313},{"NoteNumber":52,"Velocity":20,"Duration":270831,"SoundDuration":270831,"Delta":281030145},{"NoteNumber":81,"Velocity":39,"Duration":541662,"SoundDuration":541662,"Delta":281300976},{"NoteNumber":78,"Velocity":39,"Duration":541662,"SoundDuration":541662,"Delta":281300976},{"NoteNumber":57,"Velocity":20,"Duration":270831,"SoundDuration":270831,"Delta":281300976},{"NoteNumber":54,"Velocity":17,"Duration":270831,"SoundDuration":270831,"Delta":281300976},{"NoteNumber":52,"Velocity":20,"Duration":270831,"SoundDuration":270831,"Delta":281571808},{"NoteNumber":80,"Velocity":46,"Duration":532056,"SoundDuration":532056,"Delta":281842639},{"NoteNumber":83,"Velocity":46,"Duration":532056,"SoundDuration":532056,"Delta":281842639},{"NoteNumber":56,"Velocity":23,"Duration":266028,"SoundDuration":266028,"Delta":281842639},{"NoteNumber":59,"Velocity":27,"Duration":266028,"SoundDuration":266028,"Delta":281842639},{"NoteNumber":52,"Velocity":21,"Duration":266028,"SoundDuration":266028,"Delta":282108667},{"NoteNumber":76,"Velocity":40,"Duration":577216,"SoundDuration":577216,"Delta":282374695},{"NoteNumber":56,"Velocity":21,"Duration":296238,"SoundDuration":296238,"Delta":282374695},{"NoteNumber":52,"Velocity":21,"Duration":280978,"SoundDuration":280978,"Delta":282670933},{"NoteNumber":60,"Velocity":29,"Duration":267213,"SoundDuration":267213,"Delta":282951911},{"NoteNumber":64,"Velocity":24,"Duration":252589,"SoundDuration":252589,"Delta":283219124},{"NoteNumber":57,"Velocity":21,"Duration":252589,"SoundDuration":252589,"Delta":283219124},{"NoteNumber":69,"Velocity":34,"Duration":247178,"SoundDuration":247178,"Delta":283471713},{"NoteNumber":52,"Velocity":24,"Duration":247178,"SoundDuration":247178,"Delta":283471713},{"NoteNumber":76,"Velocity":24,"Duration":275811,"SoundDuration":275811,"Delta":283718891},{"NoteNumber":48,"Velocity":21,"Duration":275811,"SoundDuration":275811,"Delta":283718891},{"NoteNumber":60,"Velocity":29,"Duration":264854,"SoundDuration":264854,"Delta":283994703},{"NoteNumber":64,"Velocity":24,"Duration":251444,"SoundDuration":251444,"Delta":284259557},{"NoteNumber":57,"Velocity":22,"Duration":251444,"SoundDuration":251444,"Delta":284259557},{"NoteNumber":71,"Velocity":33,"Duration":249231,"SoundDuration":249231,"Delta":284511001},{"NoteNumber":52,"Velocity":24,"Duration":249231,"SoundDuration":249231,"Delta":284511001},{"NoteNumber":76,"Velocity":24,"Duration":266028,"SoundDuration":266028,"Delta":284760232},{"NoteNumber":48,"Velocity":20,"Duration":266028,"SoundDuration":266028,"Delta":284760232},{"NoteNumber":62,"Velocity":29,"Duration":261392,"SoundDuration":261392,"Delta":285026260},{"NoteNumber":69,"Velocity":24,"Duration":254733,"SoundDuration":254733,"Delta":285287653},{"NoteNumber":57,"Velocity":20,"Duration":254733,"SoundDuration":254733,"Delta":285287653},{"NoteNumber":72,"Velocity":34,"Duration":247178,"SoundDuration":247178,"Delta":285542387},{"NoteNumber":53,"Velocity":24,"Duration":247178,"SoundDuration":247178,"Delta":285542387},{"NoteNumber":77,"Velocity":24,"Duration":266028,"SoundDuration":266028,"Delta":285789565},{"NoteNumber":50,"Velocity":21,"Duration":266028,"SoundDuration":266028,"Delta":285789565},{"NoteNumber":62,"Velocity":29,"Duration":260258,"SoundDuration":260258,"Delta":286055593},{"NoteNumber":65,"Velocity":24,"Duration":252589,"SoundDuration":252589,"Delta":286315851},{"NoteNumber":57,"Velocity":24,"Duration":252589,"SoundDuration":252589,"Delta":286315851},{"NoteNumber":71,"Velocity":33,"Duration":248200,"SoundDuration":248200,"Delta":286568440},{"NoteNumber":53,"Velocity":24,"Duration":248200,"SoundDuration":248200,"Delta":286568440},{"NoteNumber":77,"Velocity":24,"Duration":266103,"SoundDuration":266103,"Delta":286802163},{"NoteNumber":50,"Velocity":23,"Duration":266103,"SoundDuration":266103,"Delta":286802163},{"NoteNumber":62,"Velocity":29,"Duration":260258,"SoundDuration":260258,"Delta":287083854},{"NoteNumber":69,"Velocity":32,"Duration":254733,"SoundDuration":254733,"Delta":287344112},{"NoteNumber":59,"Velocity":21,"Duration":254733,"SoundDuration":254733,"Delta":287344112},{"NoteNumber":77,"Velocity":38,"Duration":249231,"SoundDuration":249231,"Delta":287598846},{"NoteNumber":57,"Velocity":24,"Duration":249231,"SoundDuration":249231,"Delta":287598846},{"NoteNumber":83,"Velocity":32,"Duration":275811,"SoundDuration":275811,"Delta":287848078},{"NoteNumber":52,"Velocity":22,"Duration":275811,"SoundDuration":275811,"Delta":287848078},{"NoteNumber":62,"Velocity":30,"Duration":260258,"SoundDuration":260258,"Delta":288123889},{"NoteNumber":68,"Velocity":32,"Duration":254733,"SoundDuration":254733,"Delta":288384148},{"NoteNumber":59,"Velocity":22,"Duration":254733,"SoundDuration":254733,"Delta":288384148},{"NoteNumber":76,"Velocity":41,"Duration":250270,"SoundDuration":250270,"Delta":288638882},{"NoteNumber":56,"Velocity":25,"Duration":250270,"SoundDuration":250270,"Delta":288638882},{"NoteNumber":83,"Velocity":34,"Duration":274549,"SoundDuration":274549,"Delta":288889153},{"NoteNumber":52,"Velocity":25,"Duration":274549,"SoundDuration":274549,"Delta":288889153},{"NoteNumber":69,"Velocity":30,"Duration":262536,"SoundDuration":262536,"Delta":289163702},{"NoteNumber":74,"Velocity":35,"Duration":254733,"SoundDuration":254733,"Delta":289426238},{"NoteNumber":65,"Velocity":23,"Duration":254733,"SoundDuration":254733,"Delta":289426238},{"NoteNumber":83,"Velocity":44,"Duration":250270,"SoundDuration":250270,"Delta":289680972},{"NoteNumber":64,"Velocity":25,"Duration":250270,"SoundDuration":250270,"Delta":289680972},{"NoteNumber":88,"Velocity":38,"Duration":275811,"SoundDuration":275811,"Delta":289931243},{"NoteNumber":57,"Velocity":22,"Duration":275811,"SoundDuration":275811,"Delta":289931243},{"NoteNumber":69,"Velocity":31,"Duration":264854,"SoundDuration":264854,"Delta":290207055},{"NoteNumber":72,"Velocity":38,"Duration":254733,"SoundDuration":254733,"Delta":290471909},{"NoteNumber":64,"Velocity":25,"Duration":254733,"SoundDuration":254733,"Delta":290471909},{"NoteNumber":81,"Velocity":48,"Duration":248200,"SoundDuration":248200,"Delta":290726643},{"NoteNumber":60,"Velocity":29,"Duration":248200,"SoundDuration":248200,"Delta":290726643},{"NoteNumber":88,"Velocity":36,"Duration":274549,"SoundDuration":274549,"Delta":290974843},{"NoteNumber":57,"Velocity":26,"Duration":274549,"SoundDuration":274549,"Delta":290974843},{"NoteNumber":38,"Velocity":43,"Duration":274549,"SoundDuration":274549,"Delta":291249393},{"NoteNumber":50,"Velocity":38,"Duration":274549,"SoundDuration":274549,"Delta":291523942},{"NoteNumber":71,"Velocity":47,"Duration":647836,"SoundDuration":647836,"Delta":291798492},{"NoteNumber":65,"Velocity":39,"Duration":647836,"SoundDuration":647836,"Delta":291798492},{"NoteNumber":69,"Velocity":39,"Duration":647836,"SoundDuration":647836,"Delta":291798492},{"NoteNumber":53,"Velocity":42,"Duration":2719110,"SoundDuration":2719110,"Delta":291798492},{"NoteNumber":57,"Velocity":47,"Duration":2459976,"SoundDuration":2459976,"Delta":292057626},{"NoteNumber":62,"Velocity":51,"Duration":2200842,"SoundDuration":2200842,"Delta":292316761},{"NoteNumber":72,"Velocity":45,"Duration":129567,"SoundDuration":129567,"Delta":292446328},{"NoteNumber":71,"Velocity":45,"Duration":129567,"SoundDuration":129567,"Delta":292575895},{"NoteNumber":69,"Velocity":45,"Duration":129567,"SoundDuration":129567,"Delta":292705463},{"NoteNumber":71,"Velocity":46,"Duration":136029,"SoundDuration":136029,"Delta":292835030},{"NoteNumber":72,"Velocity":49,"Duration":136029,"SoundDuration":136029,"Delta":292971060},{"NoteNumber":74,"Velocity":52,"Duration":136029,"SoundDuration":136029,"Delta":293107089},{"NoteNumber":76,"Velocity":55,"Duration":155811,"SoundDuration":155811,"Delta":293243119},{"NoteNumber":79,"Velocity":68,"Duration":559335,"SoundDuration":559335,"Delta":293398931},{"NoteNumber":77,"Velocity":64,"Duration":279668,"SoundDuration":279668,"Delta":293958267},{"NoteNumber":38,"Velocity":43,"Duration":274549,"SoundDuration":274549,"Delta":295600929},{"NoteNumber":50,"Velocity":38,"Duration":274549,"SoundDuration":274549,"Delta":295875478},{"NoteNumber":65,"Velocity":39,"Duration":647836,"SoundDuration":647836,"Delta":296150028},{"NoteNumber":71,"Velocity":47,"Duration":647836,"SoundDuration":647836,"Delta":296150028},{"NoteNumber":68,"Velocity":39,"Duration":647836,"SoundDuration":647836,"Delta":296150028},{"NoteNumber":53,"Velocity":42,"Duration":2159774,"SoundDuration":2159774,"Delta":296150028},{"NoteNumber":56,"Velocity":47,"Duration":1900640,"SoundDuration":1900640,"Delta":296409162},{"NoteNumber":59,"Velocity":51,"Duration":1641505,"SoundDuration":1641505,"Delta":296668297},{"NoteNumber":72,"Velocity":45,"Duration":129567,"SoundDuration":129567,"Delta":296797864},{"NoteNumber":71,"Velocity":45,"Duration":129567,"SoundDuration":129567,"Delta":296927431},{"NoteNumber":70,"Velocity":45,"Duration":129567,"SoundDuration":129567,"Delta":297056999},{"NoteNumber":71,"Velocity":46,"Duration":136029,"SoundDuration":136029,"Delta":297186566},{"NoteNumber":72,"Velocity":49,"Duration":136029,"SoundDuration":136029,"Delta":297322596},{"NoteNumber":74,"Velocity":52,"Duration":136029,"SoundDuration":136029,"Delta":297458625},{"NoteNumber":76,"Velocity":55,"Duration":155811,"SoundDuration":155811,"Delta":297594655},{"NoteNumber":79,"Velocity":68,"Duration":559335,"SoundDuration":559335,"Delta":297750467},{"NoteNumber":77,"Velocity":64,"Duration":272059,"SoundDuration":272059,"Delta":298309803},{"NoteNumber":74,"Velocity":62,"Duration":816178,"SoundDuration":816178,"Delta":298853922},{"NoteNumber":84,"Velocity":74,"Duration":544118,"SoundDuration":544118,"Delta":298853922},{"NoteNumber":56,"Velocity":43,"Duration":816178,"SoundDuration":816178,"Delta":298853922},{"NoteNumber":58,"Velocity":43,"Duration":816178,"SoundDuration":816178,"Delta":298853922},{"NoteNumber":62,"Velocity":43,"Duration":816178,"SoundDuration":816178,"Delta":298853922},{"NoteNumber":65,"Velocity":51,"Duration":816178,"SoundDuration":816178,"Delta":298853922},{"NoteNumber":70,"Velocity":60,"Duration":816178,"SoundDuration":816178,"Delta":298853922},{"NoteNumber":82,"Velocity":69,"Duration":272059,"SoundDuration":272059,"Delta":299398041},{"NoteNumber":43,"Velocity":45,"Duration":145029,"SoundDuration":145029,"Delta":301030398},{"NoteNumber":44,"Velocity":37,"Duration":145029,"SoundDuration":145029,"Delta":301162243},{"NoteNumber":43,"Velocity":37,"Duration":145029,"SoundDuration":145029,"Delta":301294088},{"NoteNumber":42,"Velocity":37,"Duration":145029,"SoundDuration":145029,"Delta":301425933},{"NoteNumber":43,"Velocity":45,"Duration":145029,"SoundDuration":145029,"Delta":301557778},{"NoteNumber":46,"Velocity":42,"Duration":145029,"SoundDuration":145029,"Delta":301689623},{"NoteNumber":51,"Velocity":45,"Duration":147109,"SoundDuration":147109,"Delta":301821468},{"NoteNumber":55,"Velocity":48,"Duration":165767,"SoundDuration":165767,"Delta":301953313},{"NoteNumber":62,"Velocity":41,"Duration":144394,"SoundDuration":144394,"Delta":302105954},{"NoteNumber":72,"Velocity":41,"Duration":525072,"SoundDuration":525072,"Delta":302105954},{"NoteNumber":56,"Velocity":52,"Duration":787607,"SoundDuration":787607,"Delta":302105954},{"NoteNumber":58,"Velocity":52,"Duration":787607,"SoundDuration":787607,"Delta":302105954},{"NoteNumber":63,"Velocity":41,"Duration":144394,"SoundDuration":144394,"Delta":302237222},{"NoteNumber":62,"Velocity":41,"Duration":144394,"SoundDuration":144394,"Delta":302368490},{"NoteNumber":61,"Velocity":41,"Duration":144394,"SoundDuration":144394,"Delta":302499758},{"NoteNumber":62,"Velocity":45,"Duration":144394,"SoundDuration":144394,"Delta":302631026},{"NoteNumber":70,"Velocity":61,"Duration":262535,"SoundDuration":262535,"Delta":302631026},{"NoteNumber":65,"Velocity":47,"Duration":144394,"SoundDuration":144394,"Delta":302762294},{"NoteNumber":68,"Velocity":49,"Duration":145793,"SoundDuration":145793,"Delta":302893562},{"NoteNumber":70,"Velocity":52,"Duration":158319,"SoundDuration":158319,"Delta":303024830},{"NoteNumber":84,"Velocity":67,"Duration":522784,"SoundDuration":522784,"Delta":303170080},{"NoteNumber":75,"Velocity":67,"Duration":784177,"SoundDuration":784177,"Delta":303170080},{"NoteNumber":55,"Velocity":45,"Duration":143765,"SoundDuration":143765,"Delta":303170080},{"NoteNumber":56,"Velocity":37,"Duration":143765,"SoundDuration":143765,"Delta":303300776},{"NoteNumber":55,"Velocity":37,"Duration":143765,"SoundDuration":143765,"Delta":303431472},{"NoteNumber":54,"Velocity":37,"Duration":143765,"SoundDuration":143765,"Delta":303562169},{"NoteNumber":82,"Velocity":61,"Duration":261392,"SoundDuration":261392,"Delta":303692865},{"NoteNumber":55,"Velocity":45,"Duration":143765,"SoundDuration":143765,"Delta":303692865},{"NoteNumber":58,"Velocity":42,"Duration":143765,"SoundDuration":143765,"Delta":303823561},{"NoteNumber":63,"Velocity":45,"Duration":145081,"SoundDuration":145081,"Delta":303954257},{"NoteNumber":67,"Velocity":48,"Duration":156926,"SoundDuration":156926,"Delta":304084954},{"NoteNumber":74,"Velocity":51,"Duration":143765,"SoundDuration":143765,"Delta":304228811},{"NoteNumber":84,"Velocity":75,"Duration":522784,"SoundDuration":522784,"Delta":304228811},{"NoteNumber":68,"Velocity":59,"Duration":784177,"SoundDuration":784177,"Delta":304228811},{"NoteNumber":70,"Velocity":59,"Duration":784177,"SoundDuration":784177,"Delta":304228811},{"NoteNumber":75,"Velocity":47,"Duration":143765,"SoundDuration":143765,"Delta":304359507},{"NoteNumber":74,"Velocity":47,"Duration":143765,"SoundDuration":143765,"Delta":304490203},{"NoteNumber":73,"Velocity":47,"Duration":143765,"SoundDuration":143765,"Delta":304620900},{"NoteNumber":82,"Velocity":70,"Duration":261392,"SoundDuration":261392,"Delta":304751596},{"NoteNumber":74,"Velocity":51,"Duration":143765,"SoundDuration":143765,"Delta":304751596},{"NoteNumber":77,"Velocity":53,"Duration":143765,"SoundDuration":143765,"Delta":304882292},{"NoteNumber":80,"Velocity":56,"Duration":145291,"SoundDuration":145291,"Delta":305012988},{"NoteNumber":82,"Velocity":60,"Duration":159083,"SoundDuration":159083,"Delta":305143685},{"NoteNumber":96,"Velocity":77,"Duration":525072,"SoundDuration":525072,"Delta":305289642},{"NoteNumber":86,"Velocity":77,"Duration":787607,"SoundDuration":787607,"Delta":305289642},{"NoteNumber":80,"Velocity":51,"Duration":144394,"SoundDuration":144394,"Delta":305289642},{"NoteNumber":77,"Velocity":42,"Duration":144394,"SoundDuration":144394,"Delta":305420910},{"NoteNumber":74,"Velocity":42,"Duration":144394,"SoundDuration":144394,"Delta":305552178},{"NoteNumber":70,"Velocity":42,"Duration":144394,"SoundDuration":144394,"Delta":305683446},{"NoteNumber":94,"Velocity":86,"Duration":808169,"SoundDuration":808169,"Delta":305814714},{"NoteNumber":68,"Velocity":51,"Duration":144394,"SoundDuration":144394,"Delta":305814714},{"NoteNumber":65,"Velocity":48,"Duration":144394,"SoundDuration":144394,"Delta":305945982},{"NoteNumber":62,"Velocity":51,"Duration":145863,"SoundDuration":145863,"Delta":306077250},{"NoteNumber":56,"Velocity":55,"Duration":159377,"SoundDuration":159377,"Delta":306208518},{"NoteNumber":57,"Velocity":55,"Duration":7401352,"SoundDuration":7401352,"Delta":306354475},{"NoteNumber":93,"Velocity":75,"Duration":259134,"SoundDuration":259134,"Delta":306622883},{"NoteNumber":92,"Velocity":77,"Duration":259134,"SoundDuration":259134,"Delta":306882018},{"NoteNumber":91,"Velocity":73,"Duration":259134,"SoundDuration":259134,"Delta":307141152},{"NoteNumber":90,"Velocity":69,"Duration":259134,"SoundDuration":259134,"Delta":307400287},{"NoteNumber":53,"Velocity":46,"Duration":1045398,"SoundDuration":1045398,"Delta":307400287},{"NoteNumber":62,"Velocity":59,"Duration":1045398,"SoundDuration":1045398,"Delta":307400287},{"NoteNumber":89,"Velocity":63,"Duration":259134,"SoundDuration":259134,"Delta":307659421},{"NoteNumber":88,"Velocity":70,"Duration":259134,"SoundDuration":259134,"Delta":307918556},{"NoteNumber":87,"Velocity":69,"Duration":267995,"SoundDuration":267995,"Delta":308177690},{"NoteNumber":86,"Velocity":70,"Duration":259841,"SoundDuration":259841,"Delta":308445685},{"NoteNumber":52,"Velocity":50,"Duration":1028993,"SoundDuration":1028993,"Delta":308445685},{"NoteNumber":64,"Velocity":59,"Duration":1028993,"SoundDuration":1028993,"Delta":308445685},{"NoteNumber":85,"Velocity":60,"Duration":258169,"SoundDuration":258169,"Delta":308705527},{"NoteNumber":84,"Velocity":64,"Duration":256372,"SoundDuration":256372,"Delta":308963697},{"NoteNumber":83,"Velocity":67,"Duration":254609,"SoundDuration":254609,"Delta":309220069},{"NoteNumber":82,"Velocity":71,"Duration":253656,"SoundDuration":253656,"Delta":309474679},{"NoteNumber":50,"Velocity":52,"Duration":2070186,"SoundDuration":2070186,"Delta":309474679},{"NoteNumber":65,"Velocity":62,"Duration":2070186,"SoundDuration":2070186,"Delta":309474679},{"NoteNumber":81,"Velocity":60,"Duration":253657,"SoundDuration":253657,"Delta":309728336},{"NoteNumber":80,"Velocity":67,"Duration":253657,"SoundDuration":253657,"Delta":309981993},{"NoteNumber":79,"Velocity":54,"Duration":267470,"SoundDuration":267470,"Delta":310235650},{"NoteNumber":78,"Velocity":60,"Duration":257510,"SoundDuration":257510,"Delta":310503120},{"NoteNumber":77,"Velocity":54,"Duration":258208,"SoundDuration":258208,"Delta":310760631},{"NoteNumber":76,"Velocity":59,"Duration":260557,"SoundDuration":260557,"Delta":311018839},{"NoteNumber":75,"Velocity":50,"Duration":265468,"SoundDuration":265468,"Delta":311279397},{"NoteNumber":74,"Velocity":59,"Duration":270059,"SoundDuration":270059,"Delta":311544866},{"NoteNumber":53,"Velocity":45,"Duration":1139534,"SoundDuration":1139534,"Delta":311544866},{"NoteNumber":62,"Velocity":54,"Duration":1139534,"SoundDuration":1139534,"Delta":311544866},{"NoteNumber":73,"Velocity":46,"Duration":278900,"SoundDuration":278900,"Delta":311814925},{"NoteNumber":72,"Velocity":53,"Duration":288380,"SoundDuration":288380,"Delta":312093825},{"NoteNumber":71,"Velocity":46,"Duration":302193,"SoundDuration":302193,"Delta":312382206},{"NoteNumber":52,"Velocity":40,"Duration":1071428,"SoundDuration":1071428,"Delta":312684400},{"NoteNumber":60,"Velocity":48,"Duration":1071428,"SoundDuration":1071428,"Delta":312684400},{"NoteNumber":72,"Velocity":54,"Duration":535714,"SoundDuration":535714,"Delta":313220114},{"NoteNumber":75,"Velocity":58,"Duration":535713,"SoundDuration":535713,"Delta":313755828},{"NoteNumber":81,"Velocity":54,"Duration":586681,"SoundDuration":586681,"Delta":314291542},{"NoteNumber":52,"Velocity":28,"Duration":1162801,"SoundDuration":1162801,"Delta":314878224},{"NoteNumber":56,"Velocity":28,"Duration":1137549,"SoundDuration":1137549,"Delta":314878224},{"NoteNumber":59,"Velocity":33,"Duration":1162801,"SoundDuration":1162801,"Delta":314878224},{"NoteNumber":77,"Velocity":54,"Duration":606061,"SoundDuration":606061,"Delta":315434965},{"NoteNumber":65,"Velocity":44,"Duration":606061,"SoundDuration":606061,"Delta":315434965},{"NoteNumber":76,"Velocity":43,"Duration":648648,"SoundDuration":648648,"Delta":316041026},{"NoteNumber":64,"Velocity":33,"Duration":648648,"SoundDuration":648648,"Delta":316041026},{"NoteNumber":68,"Velocity":34,"Duration":731706,"SoundDuration":731706,"Delta":316689675},{"NoteNumber":56,"Velocity":24,"Duration":731706,"SoundDuration":731706,"Delta":316689675},{"NoteNumber":81,"Velocity":40,"Duration":1069164,"SoundDuration":1069164,"Delta":317421382},{"NoteNumber":77,"Velocity":32,"Duration":274549,"SoundDuration":274549,"Delta":317421382},{"NoteNumber":45,"Velocity":27,"Duration":1069164,"SoundDuration":1069164,"Delta":317421382},{"NoteNumber":57,"Velocity":32,"Duration":1069164,"SoundDuration":1069164,"Delta":317421382},{"NoteNumber":69,"Velocity":23,"Duration":274549,"SoundDuration":274549,"Delta":317695931},{"NoteNumber":77,"Velocity":23,"Duration":260033,"SoundDuration":260033,"Delta":317970481},{"NoteNumber":69,"Velocity":23,"Duration":260032,"SoundDuration":260032,"Delta":318230514},{"NoteNumber":79,"Velocity":35,"Duration":520066,"SoundDuration":520066,"Delta":318490547},{"NoteNumber":76,"Velocity":35,"Duration":520066,"SoundDuration":520066,"Delta":318490547},{"NoteNumber":67,"Velocity":32,"Duration":520066,"SoundDuration":520066,"Delta":318490547},{"NoteNumber":64,"Velocity":24,"Duration":260033,"SoundDuration":260033,"Delta":318490547},{"NoteNumber":57,"Velocity":21,"Duration":260033,"SoundDuration":260033,"Delta":318750580},{"NoteNumber":81,"Velocity":41,"Duration":547288,"SoundDuration":547288,"Delta":319010613},{"NoteNumber":77,"Velocity":41,"Duration":547288,"SoundDuration":547288,"Delta":319010613},{"NoteNumber":69,"Velocity":24,"Duration":547288,"SoundDuration":547288,"Delta":319010613},{"NoteNumber":65,"Velocity":18,"Duration":262306,"SoundDuration":262306,"Delta":319010613},{"NoteNumber":57,"Velocity":21,"Duration":284981,"SoundDuration":284981,"Delta":319272919},{"NoteNumber":79,"Velocity":46,"Duration":775914,"SoundDuration":775914,"Delta":319557901},{"NoteNumber":82,"Velocity":46,"Duration":798084,"SoundDuration":798084,"Delta":319557901},{"NoteNumber":70,"Velocity":32,"Duration":266028,"SoundDuration":266028,"Delta":319557901},{"NoteNumber":67,"Velocity":24,"Duration":266028,"SoundDuration":266028,"Delta":319557901},{"NoteNumber":57,"Velocity":20,"Duration":266028,"SoundDuration":266028,"Delta":319823929},{"NoteNumber":67,"Velocity":23,"Duration":266028,"SoundDuration":266028,"Delta":320089957},{"NoteNumber":64,"Velocity":17,"Duration":266028,"SoundDuration":266028,"Delta":320089957},{"NoteNumber":76,"Velocity":39,"Duration":266028,"SoundDuration":266028,"Delta":320355985},{"NoteNumber":79,"Velocity":39,"Duration":266028,"SoundDuration":266028,"Delta":320355985},{"NoteNumber":57,"Velocity":20,"Duration":266028,"SoundDuration":266028,"Delta":320355985},{"NoteNumber":73,"Velocity":46,"Duration":522784,"SoundDuration":522784,"Delta":320622013},{"NoteNumber":76,"Velocity":46,"Duration":522784,"SoundDuration":522784,"Delta":320622013},{"NoteNumber":61,"Velocity":23,"Duration":261392,"SoundDuration":261392,"Delta":320622013},{"NoteNumber":64,"Velocity":31,"Duration":261392,"SoundDuration":261392,"Delta":320622013},{"NoteNumber":57,"Velocity":21,"Duration":261392,"SoundDuration":261392,"Delta":320883405},{"NoteNumber":77,"Velocity":40,"Duration":535941,"SoundDuration":535941,"Delta":321144798},{"NoteNumber":74,"Velocity":40,"Duration":535941,"SoundDuration":535941,"Delta":321144798},{"NoteNumber":65,"Velocity":24,"Duration":261392,"SoundDuration":261392,"Delta":321144798},{"NoteNumber":62,"Velocity":18,"Duration":261392,"SoundDuration":261392,"Delta":321144798},{"NoteNumber":57,"Velocity":21,"Duration":274549,"SoundDuration":274549,"Delta":321406190},{"NoteNumber":79,"Velocity":40,"Duration":539228,"SoundDuration":539228,"Delta":321680740},{"NoteNumber":76,"Velocity":40,"Duration":539228,"SoundDuration":539228,"Delta":321680740},{"NoteNumber":64,"Velocity":24,"Duration":269614,"SoundDuration":269614,"Delta":321680740},{"NoteNumber":67,"Velocity":32,"Duration":269614,"SoundDuration":269614,"Delta":321680740},{"NoteNumber":57,"Velocity":20,"Duration":269614,"SoundDuration":269614,"Delta":321950354},{"NoteNumber":74,"Velocity":35,"Duration":520516,"SoundDuration":520516,"Delta":322219969},{"NoteNumber":77,"Velocity":35,"Duration":520516,"SoundDuration":520516,"Delta":322219969},{"NoteNumber":62,"Velocity":24,"Duration":260258,"SoundDuration":260258,"Delta":322219969},{"NoteNumber":65,"Velocity":23,"Duration":260258,"SoundDuration":260258,"Delta":322219969},{"NoteNumber":57,"Velocity":20,"Duration":260258,"SoundDuration":260258,"Delta":322480227},{"NoteNumber":76,"Velocity":35,"Duration":520517,"SoundDuration":520517,"Delta":322740486},{"NoteNumber":72,"Velocity":35,"Duration":520517,"SoundDuration":520517,"Delta":322740486},{"NoteNumber":64,"Velocity":32,"Duration":260258,"SoundDuration":260258,"Delta":322740486},{"NoteNumber":60,"Velocity":24,"Duration":260258,"SoundDuration":260258,"Delta":322740486},{"NoteNumber":57,"Velocity":21,"Duration":260258,"SoundDuration":260258,"Delta":323000744},{"NoteNumber":74,"Velocity":41,"Duration":545239,"SoundDuration":545239,"Delta":323261003},{"NoteNumber":70,"Velocity":41,"Duration":545239,"SoundDuration":545239,"Delta":323261003},{"NoteNumber":62,"Velocity":24,"Duration":260258,"SoundDuration":260258,"Delta":323261003},{"NoteNumber":58,"Velocity":18,"Duration":260258,"SoundDuration":260258,"Delta":323261003},{"NoteNumber":57,"Velocity":21,"Duration":284981,"SoundDuration":284981,"Delta":323521261},{"NoteNumber":73,"Velocity":46,"Duration":791069,"SoundDuration":791069,"Delta":323806243},{"NoteNumber":69,"Velocity":25,"Duration":791069,"SoundDuration":791069,"Delta":323806243},{"NoteNumber":61,"Velocity":32,"Duration":263689,"SoundDuration":263689,"Delta":323806243},{"NoteNumber":57,"Velocity":23,"Duration":263689,"SoundDuration":263689,"Delta":324069933},{"NoteNumber":59,"Velocity":19,"Duration":263689,"SoundDuration":263689,"Delta":324333623},{"NoteNumber":62,"Velocity":23,"Duration":263689,"SoundDuration":263689,"Delta":324333623},{"NoteNumber":71,"Velocity":39,"Duration":263689,"SoundDuration":263689,"Delta":324597313},{"NoteNumber":74,"Velocity":39,"Duration":263689,"SoundDuration":263689,"Delta":324597313},{"NoteNumber":57,"Velocity":23,"Duration":263689,"SoundDuration":263689,"Delta":324597313},{"NoteNumber":73,"Velocity":46,"Duration":522784,"SoundDuration":522784,"Delta":324861003},{"NoteNumber":76,"Velocity":46,"Duration":522784,"SoundDuration":522784,"Delta":324861003},{"NoteNumber":61,"Velocity":26,"Duration":261392,"SoundDuration":261392,"Delta":324861003},{"NoteNumber":64,"Velocity":31,"Duration":261392,"SoundDuration":261392,"Delta":324861003},{"NoteNumber":57,"Velocity":24,"Duration":261392,"SoundDuration":261392,"Delta":325134376},{"NoteNumber":61,"Velocity":24,"Duration":261392,"SoundDuration":261392,"Delta":325383788},{"NoteNumber":64,"Velocity":24,"Duration":261392,"SoundDuration":261392,"Delta":325383788},{"NoteNumber":57,"Velocity":20,"Duration":280185,"SoundDuration":280185,"Delta":325658058},{"NoteNumber":85,"Velocity":46,"Duration":791069,"SoundDuration":791069,"Delta":325926158},{"NoteNumber":81,"Velocity":25,"Duration":791069,"SoundDuration":791069,"Delta":325926158},{"NoteNumber":69,"Velocity":32,"Duration":263689,"SoundDuration":263689,"Delta":325926158},{"NoteNumber":57,"Velocity":23,"Duration":263689,"SoundDuration":263689,"Delta":326189848},{"NoteNumber":69,"Velocity":23,"Duration":263689,"SoundDuration":263689,"Delta":326453538},{"NoteNumber":86,"Velocity":39,"Duration":263689,"SoundDuration":263689,"Delta":326717228},{"NoteNumber":83,"Velocity":39,"Duration":263689,"SoundDuration":263689,"Delta":326717228},{"NoteNumber":57,"Velocity":23,"Duration":263689,"SoundDuration":263689,"Delta":326717228},{"NoteNumber":85,"Velocity":46,"Duration":522784,"SoundDuration":522784,"Delta":326980918},{"NoteNumber":88,"Velocity":46,"Duration":522784,"SoundDuration":522784,"Delta":326980918},{"NoteNumber":69,"Velocity":31,"Duration":261392,"SoundDuration":261392,"Delta":326980918},{"NoteNumber":57,"Velocity":29,"Duration":261392,"SoundDuration":261392,"Delta":327254291},{"NoteNumber":69,"Velocity":34,"Duration":261392,"SoundDuration":261392,"Delta":327503703},{"NoteNumber":57,"Velocity":39,"Duration":280185,"SoundDuration":280185,"Delta":327777974},{"NoteNumber":72,"Velocity":50,"Duration":791069,"SoundDuration":791069,"Delta":328046074},{"NoteNumber":69,"Velocity":23,"Duration":791069,"SoundDuration":791069,"Delta":328046074},{"NoteNumber":64,"Velocity":44,"Duration":263689,"SoundDuration":263689,"Delta":328046074},{"NoteNumber":57,"Velocity":25,"Duration":263689,"SoundDuration":263689,"Delta":328309764},{"NoteNumber":64,"Velocity":25,"Duration":263689,"SoundDuration":263689,"Delta":328560269},{"NoteNumber":74,"Velocity":42,"Duration":263689,"SoundDuration":263689,"Delta":328837144},{"NoteNumber":71,"Velocity":36,"Duration":263689,"SoundDuration":263689,"Delta":328837144},{"NoteNumber":57,"Velocity":25,"Duration":263689,"SoundDuration":263689,"Delta":328837144},{"NoteNumber":72,"Velocity":42,"Duration":1845989,"SoundDuration":1845989,"Delta":329100834},{"NoteNumber":76,"Velocity":50,"Duration":1845989,"SoundDuration":1845989,"Delta":329100834},{"NoteNumber":64,"Velocity":34,"Duration":259134,"SoundDuration":259134,"Delta":329100834},{"NoteNumber":57,"Velocity":26,"Duration":259134,"SoundDuration":259134,"Delta":329371845},{"NoteNumber":64,"Velocity":26,"Duration":259134,"SoundDuration":259134,"Delta":329619103},{"NoteNumber":57,"Velocity":22,"Duration":280132,"SoundDuration":280132,"Delta":329891115},{"NoteNumber":67,"Velocity":46,"Duration":262536,"SoundDuration":262536,"Delta":330159215},{"NoteNumber":55,"Velocity":30,"Duration":262536,"SoundDuration":262536,"Delta":330421751},{"NoteNumber":67,"Velocity":32,"Duration":262535,"SoundDuration":262535,"Delta":330684287},{"NoteNumber":74,"Velocity":40,"Duration":262536,"SoundDuration":262536,"Delta":330946823},{"NoteNumber":77,"Velocity":48,"Duration":262536,"SoundDuration":262536,"Delta":330946823},{"NoteNumber":55,"Velocity":34,"Duration":262536,"SoundDuration":262536,"Delta":330946823},{"NoteNumber":76,"Velocity":46,"Duration":1044718,"SoundDuration":1044718,"Delta":331209359},{"NoteNumber":79,"Velocity":57,"Duration":1815465,"SoundDuration":1815465,"Delta":331209359},{"NoteNumber":67,"Velocity":42,"Duration":256915,"SoundDuration":256915,"Delta":331209359},{"NoteNumber":55,"Velocity":34,"Duration":256915,"SoundDuration":256915,"Delta":331466275},{"NoteNumber":67,"Velocity":34,"Duration":256915,"SoundDuration":256915,"Delta":331723190},{"NoteNumber":55,"Velocity":34,"Duration":273972,"SoundDuration":273972,"Delta":331980106},{"NoteNumber":75,"Velocity":51,"Duration":1027662,"SoundDuration":1027662,"Delta":332254078},{"NoteNumber":72,"Velocity":27,"Duration":1027662,"SoundDuration":1027662,"Delta":332254078},{"NoteNumber":66,"Velocity":48,"Duration":256915,"SoundDuration":256915,"Delta":332254078},{"NoteNumber":55,"Velocity":36,"Duration":256915,"SoundDuration":256915,"Delta":332510994},{"NoteNumber":66,"Velocity":37,"Duration":256915,"SoundDuration":256915,"Delta":332767909},{"NoteNumber":81,"Velocity":62,"Duration":256915,"SoundDuration":256915,"Delta":333024825},{"NoteNumber":55,"Velocity":37,"Duration":256915,"SoundDuration":256915,"Delta":333024825},{"NoteNumber":83,"Velocity":60,"Duration":1787958,"SoundDuration":1787958,"Delta":333281740},{"NoteNumber":74,"Velocity":50,"Duration":1020498,"SoundDuration":1020498,"Delta":333281740},{"NoteNumber":79,"Velocity":50,"Duration":998076,"SoundDuration":998076,"Delta":333281740},{"NoteNumber":65,"Velocity":47,"Duration":250479,"SoundDuration":250479,"Delta":333281740},{"NoteNumber":55,"Velocity":34,"Duration":250480,"SoundDuration":250480,"Delta":333532220},{"NoteNumber":65,"Velocity":34,"Duration":250479,"SoundDuration":250479,"Delta":333782700},{"NoteNumber":55,"Velocity":27,"Duration":269058,"SoundDuration":269058,"Delta":334033180},{"NoteNumber":72,"Velocity":26,"Duration":1023279,"SoundDuration":1023279,"Delta":334302239},{"NoteNumber":79,"Velocity":58,"Duration":1023279,"SoundDuration":1023279,"Delta":334302239},{"NoteNumber":64,"Velocity":50,"Duration":255820,"SoundDuration":255820,"Delta":334302239},{"NoteNumber":55,"Velocity":36,"Duration":255819,"SoundDuration":255819,"Delta":334558059},{"NoteNumber":64,"Velocity":36,"Duration":255820,"SoundDuration":255820,"Delta":334813879},{"NoteNumber":84,"Velocity":62,"Duration":255819,"SoundDuration":255819,"Delta":335069699},{"NoteNumber":55,"Velocity":36,"Duration":255819,"SoundDuration":255819,"Delta":335069699},{"NoteNumber":74,"Velocity":56,"Duration":1008375,"SoundDuration":1008375,"Delta":335325519},{"NoteNumber":86,"Velocity":67,"Duration":1747474,"SoundDuration":1747474,"Delta":335325519},{"NoteNumber":77,"Velocity":56,"Duration":1008375,"SoundDuration":1008375,"Delta":335325519},{"NoteNumber":83,"Velocity":56,"Duration":1008375,"SoundDuration":1008375,"Delta":335325519},{"NoteNumber":62,"Velocity":50,"Duration":248405,"SoundDuration":248405,"Delta":335325519},{"NoteNumber":55,"Velocity":40,"Duration":248405,"SoundDuration":248405,"Delta":335573925},{"NoteNumber":62,"Velocity":40,"Duration":248406,"SoundDuration":248406,"Delta":335822331},{"NoteNumber":55,"Velocity":40,"Duration":263157,"SoundDuration":263157,"Delta":336070737},{"NoteNumber":76,"Velocity":31,"Duration":985463,"SoundDuration":985463,"Delta":336333895},{"NoteNumber":79,"Velocity":70,"Duration":985463,"SoundDuration":985463,"Delta":336333895},{"NoteNumber":60,"Velocity":52,"Duration":246366,"SoundDuration":246366,"Delta":336333895},{"NoteNumber":55,"Velocity":39,"Duration":246365,"SoundDuration":246365,"Delta":336580261},{"NoteNumber":60,"Velocity":42,"Duration":246366,"SoundDuration":246366,"Delta":336826627},{"NoteNumber":88,"Velocity":74,"Duration":246365,"SoundDuration":246365,"Delta":337072993},{"NoteNumber":55,"Velocity":48,"Duration":246365,"SoundDuration":246365,"Delta":337072993},{"NoteNumber":89,"Velocity":73,"Duration":1222255,"SoundDuration":1222255,"Delta":337319359},{"NoteNumber":86,"Velocity":73,"Duration":1222255,"SoundDuration":1222255,"Delta":337319359},{"NoteNumber":77,"Velocity":61,"Duration":1222255,"SoundDuration":1222255,"Delta":337319359},{"NoteNumber":59,"Velocity":45,"Duration":242385,"SoundDuration":242385,"Delta":337319359},{"NoteNumber":55,"Velocity":45,"Duration":242385,"SoundDuration":242385,"Delta":337561744},{"NoteNumber":59,"Velocity":52,"Duration":242384,"SoundDuration":242384,"Delta":337804129},{"NoteNumber":55,"Velocity":45,"Duration":253164,"SoundDuration":253164,"Delta":338046514},{"NoteNumber":67,"Velocity":55,"Duration":241935,"SoundDuration":241935,"Delta":338299678},{"NoteNumber":88,"Velocity":67,"Duration":242681,"SoundDuration":242681,"Delta":338541614},{"NoteNumber":76,"Velocity":56,"Duration":242681,"SoundDuration":242681,"Delta":338541614},{"NoteNumber":85,"Velocity":67,"Duration":242681,"SoundDuration":242681,"Delta":338541614},{"NoteNumber":55,"Velocity":46,"Duration":242681,"SoundDuration":242681,"Delta":338541614},{"NoteNumber":89,"Velocity":72,"Duration":243486,"SoundDuration":243486,"Delta":338784295},{"NoteNumber":77,"Velocity":61,"Duration":243486,"SoundDuration":243486,"Delta":338784295},{"NoteNumber":86,"Velocity":72,"Duration":243486,"SoundDuration":243486,"Delta":338784295},{"NoteNumber":67,"Velocity":55,"Duration":243486,"SoundDuration":243486,"Delta":338784295},{"NoteNumber":88,"Velocity":67,"Duration":242384,"SoundDuration":242384,"Delta":339027782},{"NoteNumber":85,"Velocity":67,"Duration":242384,"SoundDuration":242384,"Delta":339027782},{"NoteNumber":76,"Velocity":56,"Duration":242384,"SoundDuration":242384,"Delta":339027782},{"NoteNumber":55,"Velocity":47,"Duration":242384,"SoundDuration":242384,"Delta":339027782},{"NoteNumber":89,"Velocity":76,"Duration":241372,"SoundDuration":241372,"Delta":339270166},{"NoteNumber":77,"Velocity":64,"Duration":241372,"SoundDuration":241372,"Delta":339270166},{"NoteNumber":86,"Velocity":76,"Duration":241372,"SoundDuration":241372,"Delta":339270166},{"NoteNumber":67,"Velocity":60,"Duration":241372,"SoundDuration":241372,"Delta":339270166},{"NoteNumber":85,"Velocity":73,"Duration":240289,"SoundDuration":240289,"Delta":339511539},{"NoteNumber":76,"Velocity":62,"Duration":240289,"SoundDuration":240289,"Delta":339511539},{"NoteNumber":88,"Velocity":73,"Duration":240289,"SoundDuration":240289,"Delta":339511539},{"NoteNumber":55,"Velocity":49,"Duration":240289,"SoundDuration":240289,"Delta":339511539},{"NoteNumber":77,"Velocity":64,"Duration":239290,"SoundDuration":239290,"Delta":339751828},{"NoteNumber":89,"Velocity":76,"Duration":239290,"SoundDuration":239290,"Delta":339751828},{"NoteNumber":86,"Velocity":76,"Duration":239290,"SoundDuration":239290,"Delta":339751828},{"NoteNumber":67,"Velocity":63,"Duration":239290,"SoundDuration":239290,"Delta":339751828},{"NoteNumber":85,"Velocity":81,"Duration":119177,"SoundDuration":119177,"Delta":339991119},{"NoteNumber":88,"Velocity":81,"Duration":119177,"SoundDuration":119177,"Delta":339991119},{"NoteNumber":76,"Velocity":68,"Duration":119177,"SoundDuration":119177,"Delta":339991119},{"NoteNumber":55,"Velocity":51,"Duration":482863,"SoundDuration":482863,"Delta":339991119},{"NoteNumber":62,"Velocity":58,"Duration":299030,"SoundDuration":299030,"Delta":340174952},{"NoteNumber":65,"Velocity":63,"Duration":266702,"SoundDuration":266702,"Delta":340207280},{"NoteNumber":91,"Velocity":73,"Duration":117187,"SoundDuration":117187,"Delta":340239608},{"NoteNumber":89,"Velocity":73,"Duration":117187,"SoundDuration":117187,"Delta":340239608},{"NoteNumber":101,"Velocity":86,"Duration":117187,"SoundDuration":117187,"Delta":340239608},{"NoteNumber":71,"Velocity":68,"Duration":234375,"SoundDuration":234375,"Delta":340239608},{"NoteNumber":98,"Velocity":75,"Duration":117187,"SoundDuration":117187,"Delta":340356795},{"NoteNumber":95,"Velocity":76,"Duration":117187,"SoundDuration":117187,"Delta":340473983},{"NoteNumber":64,"Velocity":50,"Duration":234375,"SoundDuration":234375,"Delta":340473983},{"NoteNumber":76,"Velocity":59,"Duration":234375,"SoundDuration":234375,"Delta":340473983},{"NoteNumber":91,"Velocity":73,"Duration":117187,"SoundDuration":117187,"Delta":340591170},{"NoteNumber":89,"Velocity":86,"Duration":117187,"SoundDuration":117187,"Delta":340708358},{"NoteNumber":65,"Velocity":56,"Duration":234375,"SoundDuration":234375,"Delta":340708358},{"NoteNumber":77,"Velocity":66,"Duration":234375,"SoundDuration":234375,"Delta":340708358},{"NoteNumber":86,"Velocity":72,"Duration":117187,"SoundDuration":117187,"Delta":340825545},{"NoteNumber":83,"Velocity":76,"Duration":117187,"SoundDuration":117187,"Delta":340942733},{"NoteNumber":61,"Velocity":50,"Duration":117187,"SoundDuration":117187,"Delta":340942733},{"NoteNumber":73,"Velocity":59,"Duration":117187,"SoundDuration":117187,"Delta":340942733},{"NoteNumber":79,"Velocity":69,"Duration":125522,"SoundDuration":125522,"Delta":341059920},{"NoteNumber":89,"Velocity":86,"Duration":116731,"SoundDuration":116731,"Delta":341185443},{"NoteNumber":62,"Velocity":56,"Duration":116731,"SoundDuration":116731,"Delta":341185443},{"NoteNumber":74,"Velocity":67,"Duration":116731,"SoundDuration":116731,"Delta":341185443},{"NoteNumber":86,"Velocity":75,"Duration":116731,"SoundDuration":116731,"Delta":341302175},{"NoteNumber":83,"Velocity":76,"Duration":116731,"SoundDuration":116731,"Delta":341418906},{"NoteNumber":79,"Velocity":73,"Duration":116731,"SoundDuration":116731,"Delta":341535638},{"NoteNumber":77,"Velocity":86,"Duration":116731,"SoundDuration":116731,"Delta":341652369},{"NoteNumber":74,"Velocity":72,"Duration":116731,"SoundDuration":116731,"Delta":341769101},{"NoteNumber":71,"Velocity":76,"Duration":116731,"SoundDuration":116731,"Delta":341885832},{"NoteNumber":67,"Velocity":63,"Duration":125522,"SoundDuration":125522,"Delta":342002564},{"NoteNumber":77,"Velocity":79,"Duration":116731,"SoundDuration":116731,"Delta":342128087},{"NoteNumber":74,"Velocity":64,"Duration":116731,"SoundDuration":116731,"Delta":342244818},{"NoteNumber":71,"Velocity":73,"Duration":116731,"SoundDuration":116731,"Delta":342361550},{"NoteNumber":52,"Velocity":49,"Duration":233463,"SoundDuration":233463,"Delta":342361550},{"NoteNumber":67,"Velocity":59,"Duration":116731,"SoundDuration":116731,"Delta":342478281},{"NoteNumber":65,"Velocity":67,"Duration":116731,"SoundDuration":116731,"Delta":342595013},{"NoteNumber":53,"Velocity":58,"Duration":233462,"SoundDuration":233462,"Delta":342595013},{"NoteNumber":62,"Velocity":58,"Duration":116731,"SoundDuration":116731,"Delta":342711744},{"NoteNumber":59,"Velocity":67,"Duration":116731,"SoundDuration":116731,"Delta":342828476},{"NoteNumber":49,"Velocity":48,"Duration":116731,"SoundDuration":116731,"Delta":342828476},{"NoteNumber":55,"Velocity":56,"Duration":125522,"SoundDuration":125522,"Delta":342945207},{"NoteNumber":65,"Velocity":65,"Duration":116731,"SoundDuration":116731,"Delta":343070730},{"NoteNumber":50,"Velocity":57,"Duration":116731,"SoundDuration":116731,"Delta":343070730},{"NoteNumber":62,"Velocity":52,"Duration":116731,"SoundDuration":116731,"Delta":343187462},{"NoteNumber":59,"Velocity":63,"Duration":116731,"SoundDuration":116731,"Delta":343304193},{"NoteNumber":55,"Velocity":46,"Duration":116731,"SoundDuration":116731,"Delta":343420925},{"NoteNumber":53,"Velocity":58,"Duration":116731,"SoundDuration":116731,"Delta":343537656},{"NoteNumber":50,"Velocity":47,"Duration":116731,"SoundDuration":116731,"Delta":343654388},{"NoteNumber":47,"Velocity":57,"Duration":116731,"SoundDuration":116731,"Delta":343771119},{"NoteNumber":43,"Velocity":46,"Duration":144230,"SoundDuration":144230,"Delta":343887851},{"NoteNumber":67,"Velocity":46,"Duration":1003395,"SoundDuration":1003395,"Delta":344032081},{"NoteNumber":63,"Velocity":36,"Duration":1003395,"SoundDuration":1003395,"Delta":344032081},{"NoteNumber":31,"Velocity":36,"Duration":257510,"SoundDuration":257510,"Delta":344032081},{"NoteNumber":55,"Velocity":24,"Duration":257510,"SoundDuration":257510,"Delta":344289592},{"NoteNumber":56,"Velocity":31,"Duration":245901,"SoundDuration":245901,"Delta":344547102},{"NoteNumber":55,"Velocity":24,"Duration":242472,"SoundDuration":242472,"Delta":344793004},{"NoteNumber":65,"Velocity":36,"Duration":485861,"SoundDuration":485861,"Delta":345035477},{"NoteNumber":62,"Velocity":27,"Duration":485861,"SoundDuration":485861,"Delta":345035477},{"NoteNumber":55,"Velocity":24,"Duration":244897,"SoundDuration":244897,"Delta":345276441},{"NoteNumber":67,"Velocity":38,"Duration":503518,"SoundDuration":503518,"Delta":345521339},{"NoteNumber":63,"Velocity":38,"Duration":503518,"SoundDuration":503518,"Delta":345521339},{"NoteNumber":55,"Velocity":24,"Duration":258620,"SoundDuration":258620,"Delta":345766237},{"NoteNumber":79,"Velocity":52,"Duration":973737,"SoundDuration":973737,"Delta":346024857},{"NoteNumber":68,"Velocity":43,"Duration":728839,"SoundDuration":728839,"Delta":346024857},{"NoteNumber":65,"Velocity":43,"Duration":708431,"SoundDuration":708431,"Delta":346024857},{"NoteNumber":55,"Velocity":23,"Duration":244897,"SoundDuration":244897,"Delta":346263901},{"NoteNumber":56,"Velocity":19,"Duration":244898,"SoundDuration":244898,"Delta":346508799},{"NoteNumber":62,"Velocity":25,"Duration":224489,"SoundDuration":224489,"Delta":346753697},{"NoteNumber":65,"Velocity":36,"Duration":244897,"SoundDuration":244897,"Delta":346753697},{"NoteNumber":55,"Velocity":26,"Duration":244897,"SoundDuration":244897,"Delta":346753697},{"NoteNumber":77,"Velocity":52,"Duration":481009,"SoundDuration":481009,"Delta":346998595},{"NoteNumber":59,"Velocity":36,"Duration":481009,"SoundDuration":481009,"Delta":346998595},{"NoteNumber":62,"Velocity":43,"Duration":481009,"SoundDuration":481009,"Delta":346998595},{"NoteNumber":55,"Velocity":24,"Duration":242914,"SoundDuration":242914,"Delta":347236690},{"NoteNumber":79,"Velocity":55,"Duration":496079,"SoundDuration":496079,"Delta":347479605},{"NoteNumber":63,"Velocity":36,"Duration":496079,"SoundDuration":496079,"Delta":347479605},{"NoteNumber":60,"Velocity":30,"Duration":496079,"SoundDuration":496079,"Delta":347479605},{"NoteNumber":55,"Velocity":24,"Duration":253164,"SoundDuration":253164,"Delta":347722520},{"NoteNumber":80,"Velocity":58,"Duration":735762,"SoundDuration":735762,"Delta":347975685},{"NoteNumber":62,"Velocity":35,"Duration":493827,"SoundDuration":493827,"Delta":347975685},{"NoteNumber":65,"Velocity":42,"Duration":493827,"SoundDuration":493827,"Delta":347975685},{"NoteNumber":55,"Velocity":30,"Duration":246913,"SoundDuration":246913,"Delta":348222598},{"NoteNumber":60,"Velocity":33,"Duration":483871,"SoundDuration":483871,"Delta":348469512},{"NoteNumber":63,"Velocity":39,"Duration":483871,"SoundDuration":483871,"Delta":348469512},{"NoteNumber":77,"Velocity":50,"Duration":241935,"SoundDuration":241935,"Delta":348711447},{"NoteNumber":55,"Velocity":30,"Duration":241935,"SoundDuration":241935,"Delta":348711447},{"NoteNumber":74,"Velocity":57,"Duration":478117,"SoundDuration":478117,"Delta":348953383},{"NoteNumber":62,"Velocity":41,"Duration":478117,"SoundDuration":478117,"Delta":348953383},{"NoteNumber":58,"Velocity":34,"Duration":478117,"SoundDuration":478117,"Delta":348953383},{"NoteNumber":55,"Velocity":28,"Duration":240964,"SoundDuration":240964,"Delta":349190537},{"NoteNumber":75,"Velocity":47,"Duration":497374,"SoundDuration":497374,"Delta":349431501},{"NoteNumber":60,"Velocity":37,"Duration":497374,"SoundDuration":497374,"Delta":349431501},{"NoteNumber":56,"Velocity":31,"Duration":497374,"SoundDuration":497374,"Delta":349431501},{"NoteNumber":55,"Velocity":29,"Duration":256410,"SoundDuration":256410,"Delta":349672465},{"NoteNumber":74,"Velocity":46,"Duration":482992,"SoundDuration":482992,"Delta":349928875},{"NoteNumber":77,"Velocity":55,"Duration":482992,"SoundDuration":482992,"Delta":349928875},{"NoteNumber":59,"Velocity":43,"Duration":722992,"SoundDuration":722992,"Delta":349928875},{"NoteNumber":55,"Velocity":30,"Duration":244897,"SoundDuration":244897,"Delta":350166970},{"NoteNumber":72,"Velocity":40,"Duration":480000,"SoundDuration":480000,"Delta":350411868},{"NoteNumber":75,"Velocity":48,"Duration":480000,"SoundDuration":480000,"Delta":350411868},{"NoteNumber":56,"Velocity":30,"Duration":240000,"SoundDuration":240000,"Delta":350411868},{"NoteNumber":60,"Velocity":36,"Duration":240000,"SoundDuration":240000,"Delta":350651868},{"NoteNumber":55,"Velocity":28,"Duration":240000,"SoundDuration":240000,"Delta":350651868},{"NoteNumber":70,"Velocity":40,"Duration":479999,"SoundDuration":479999,"Delta":350891868},{"NoteNumber":74,"Velocity":48,"Duration":479999,"SoundDuration":479999,"Delta":350891868},{"NoteNumber":62,"Velocity":46,"Duration":479999,"SoundDuration":479999,"Delta":350891868},{"NoteNumber":55,"Velocity":28,"Duration":239999,"SoundDuration":239999,"Delta":351131868},{"NoteNumber":72,"Velocity":43,"Duration":493164,"SoundDuration":493164,"Delta":351371868},{"NoteNumber":68,"Velocity":36,"Duration":493164,"SoundDuration":493164,"Delta":351371868},{"NoteNumber":55,"Velocity":30,"Duration":253164,"SoundDuration":253164,"Delta":351611868},{"NoteNumber":71,"Velocity":49,"Duration":742918,"SoundDuration":742918,"Delta":351865033},{"NoteNumber":67,"Velocity":46,"Duration":984854,"SoundDuration":984854,"Delta":351865033},{"NoteNumber":62,"Velocity":36,"Duration":964693,"SoundDuration":964693,"Delta":351865033},{"NoteNumber":55,"Velocity":26,"Duration":250000,"SoundDuration":250000,"Delta":352115033},{"NoteNumber":56,"Velocity":31,"Duration":242918,"SoundDuration":242918,"Delta":352365033},{"NoteNumber":69,"Velocity":39,"Duration":241935,"SoundDuration":241935,"Delta":352607952},{"NoteNumber":72,"Velocity":47,"Duration":241935,"SoundDuration":241935,"Delta":352607952},{"NoteNumber":55,"Velocity":26,"Duration":241935,"SoundDuration":241935,"Delta":352607952},{"NoteNumber":74,"Velocity":54,"Duration":483871,"SoundDuration":483871,"Delta":352849887},{"NoteNumber":71,"Velocity":45,"Duration":483871,"SoundDuration":483871,"Delta":352849887},{"NoteNumber":65,"Velocity":36,"Duration":483871,"SoundDuration":483871,"Delta":352849887},{"NoteNumber":62,"Velocity":27,"Duration":483871,"SoundDuration":483871,"Delta":352849887},{"NoteNumber":55,"Velocity":24,"Duration":241935,"SoundDuration":241935,"Delta":353091823},{"NoteNumber":67,"Velocity":38,"Duration":500556,"SoundDuration":500556,"Delta":353333758},{"NoteNumber":63,"Velocity":32,"Duration":500556,"SoundDuration":500556,"Delta":353333758},{"NoteNumber":55,"Velocity":24,"Duration":258620,"SoundDuration":258620,"Delta":353575694},{"NoteNumber":75,"Velocity":46,"Duration":728839,"SoundDuration":728839,"Delta":353834314},{"NoteNumber":79,"Velocity":55,"Duration":728839,"SoundDuration":728839,"Delta":353834314},{"NoteNumber":70,"Velocity":44,"Duration":728839,"SoundDuration":728839,"Delta":353834314},{"NoteNumber":67,"Velocity":34,"Duration":244897,"SoundDuration":244897,"Delta":353834314},{"NoteNumber":55,"Velocity":23,"Duration":244898,"SoundDuration":244898,"Delta":354079212},{"NoteNumber":56,"Velocity":19,"Duration":239043,"SoundDuration":239043,"Delta":354324110},{"NoteNumber":74,"Velocity":44,"Duration":729732,"SoundDuration":729732,"Delta":354563154},{"NoteNumber":77,"Velocity":52,"Duration":729732,"SoundDuration":729732,"Delta":354563154},{"NoteNumber":68,"Velocity":28,"Duration":243902,"SoundDuration":243902,"Delta":354563154},{"NoteNumber":55,"Velocity":36,"Duration":243902,"SoundDuration":243902,"Delta":354563154},{"NoteNumber":62,"Velocity":28,"Duration":485830,"SoundDuration":485830,"Delta":354807057},{"NoteNumber":65,"Velocity":34,"Duration":485830,"SoundDuration":485830,"Delta":354807057},{"NoteNumber":55,"Velocity":24,"Duration":242915,"SoundDuration":242915,"Delta":355049972},{"NoteNumber":75,"Velocity":46,"Duration":496079,"SoundDuration":496079,"Delta":355292887},{"NoteNumber":79,"Velocity":55,"Duration":496079,"SoundDuration":496079,"Delta":355292887},{"NoteNumber":70,"Velocity":36,"Duration":242914,"SoundDuration":242914,"Delta":355292887},{"NoteNumber":67,"Velocity":30,"Duration":242914,"SoundDuration":242914,"Delta":355292887},{"NoteNumber":65,"Velocity":30,"Duration":253164,"SoundDuration":253164,"Delta":355535802},{"NoteNumber":68,"Velocity":36,"Duration":253164,"SoundDuration":253164,"Delta":355535802},{"NoteNumber":82,"Velocity":64,"Duration":731935,"SoundDuration":731935,"Delta":355788966},{"NoteNumber":75,"Velocity":54,"Duration":973871,"SoundDuration":973871,"Delta":355788966},{"NoteNumber":63,"Velocity":35,"Duration":240000,"SoundDuration":240000,"Delta":355788966},{"NoteNumber":67,"Velocity":42,"Duration":490000,"SoundDuration":490000,"Delta":355788966},{"NoteNumber":55,"Velocity":30,"Duration":250000,"SoundDuration":250000,"Delta":356028966},{"NoteNumber":60,"Velocity":33,"Duration":241935,"SoundDuration":241935,"Delta":356278966},{"NoteNumber":63,"Velocity":39,"Duration":483871,"SoundDuration":483871,"Delta":356278966},{"NoteNumber":80,"Velocity":56,"Duration":241935,"SoundDuration":241935,"Delta":356520902},{"NoteNumber":55,"Velocity":30,"Duration":241935,"SoundDuration":241935,"Delta":356520902},{"NoteNumber":74,"Velocity":52,"Duration":456628,"SoundDuration":456628,"Delta":356762837},{"NoteNumber":77,"Velocity":62,"Duration":456628,"SoundDuration":456628,"Delta":356762837},{"NoteNumber":65,"Velocity":41,"Duration":481118,"SoundDuration":481118,"Delta":356762837},{"NoteNumber":62,"Velocity":34,"Duration":236220,"SoundDuration":236220,"Delta":356762837},{"NoteNumber":55,"Velocity":28,"Duration":244897,"SoundDuration":244897,"Delta":356999058},{"NoteNumber":77,"Velocity":46,"Duration":498346,"SoundDuration":498346,"Delta":357243956},{"NoteNumber":80,"Velocity":55,"Duration":498346,"SoundDuration":498346,"Delta":357243956},{"NoteNumber":62,"Velocity":37,"Duration":498346,"SoundDuration":498346,"Delta":357243956},{"NoteNumber":59,"Velocity":31,"Duration":241935,"SoundDuration":241935,"Delta":357243956},{"NoteNumber":55,"Velocity":29,"Duration":256410,"SoundDuration":256410,"Delta":357485891},{"NoteNumber":79,"Velocity":62,"Duration":469135,"SoundDuration":469135,"Delta":357742302},{"NoteNumber":75,"Velocity":52,"Duration":469135,"SoundDuration":469135,"Delta":357742302},{"NoteNumber":60,"Velocity":30,"Duration":246913,"SoundDuration":246913,"Delta":357742302},{"NoteNumber":63,"Velocity":43,"Duration":493827,"SoundDuration":493827,"Delta":357742302},{"NoteNumber":55,"Velocity":30,"Duration":246913,"SoundDuration":246913,"Delta":357989215},{"NoteNumber":75,"Velocity":48,"Duration":456000,"SoundDuration":456000,"Delta":358236129},{"NoteNumber":72,"Velocity":40,"Duration":456000,"SoundDuration":456000,"Delta":358236129},{"NoteNumber":60,"Velocity":36,"Duration":480000,"SoundDuration":480000,"Delta":358236129},{"NoteNumber":57,"Velocity":30,"Duration":240000,"SoundDuration":240000,"Delta":358236129},{"NoteNumber":55,"Velocity":36,"Duration":240000,"SoundDuration":240000,"Delta":358476129},{"NoteNumber":77,"Velocity":57,"Duration":453871,"SoundDuration":453871,"Delta":358716129},{"NoteNumber":74,"Velocity":48,"Duration":453871,"SoundDuration":453871,"Delta":358716129},{"NoteNumber":59,"Velocity":30,"Duration":233462,"SoundDuration":233462,"Delta":358716129},{"NoteNumber":62,"Velocity":46,"Duration":478360,"SoundDuration":478360,"Delta":358716129},{"NoteNumber":55,"Velocity":28,"Duration":244897,"SoundDuration":244897,"Delta":358949592},{"NoteNumber":74,"Velocity":49,"Duration":493164,"SoundDuration":493164,"Delta":359194490},{"NoteNumber":71,"Velocity":41,"Duration":493164,"SoundDuration":493164,"Delta":359194490},{"NoteNumber":55,"Velocity":30,"Duration":1231360,"SoundDuration":1231360,"Delta":359434490},{"NoteNumber":75,"Velocity":49,"Duration":978196,"SoundDuration":978196,"Delta":359687654},{"NoteNumber":72,"Velocity":40,"Duration":237153,"SoundDuration":237153,"Delta":359687654},{"NoteNumber":51,"Velocity":25,"Duration":978196,"SoundDuration":978196,"Delta":359687654},{"NoteNumber":60,"Velocity":30,"Duration":978196,"SoundDuration":978196,"Delta":359687654},{"NoteNumber":67,"Velocity":35,"Duration":246913,"SoundDuration":246913,"Delta":359924808},{"NoteNumber":72,"Velocity":40,"Duration":240964,"SoundDuration":240964,"Delta":360171722},{"NoteNumber":67,"Velocity":36,"Duration":253164,"SoundDuration":253164,"Delta":360412686},{"NoteNumber":68,"Velocity":40,"Duration":240964,"SoundDuration":240964,"Delta":360665850},{"NoteNumber":73,"Velocity":49,"Duration":976056,"SoundDuration":976056,"Delta":360665850},{"NoteNumber":53,"Velocity":22,"Duration":976056,"SoundDuration":976056,"Delta":360665850},{"NoteNumber":56,"Velocity":22,"Duration":976056,"SoundDuration":976056,"Delta":360665850},{"NoteNumber":61,"Velocity":27,"Duration":976056,"SoundDuration":976056,"Delta":360665850},{"NoteNumber":65,"Velocity":34,"Duration":240963,"SoundDuration":240963,"Delta":360906814},{"NoteNumber":68,"Velocity":40,"Duration":240964,"SoundDuration":240964,"Delta":361147778},{"NoteNumber":65,"Velocity":33,"Duration":253164,"SoundDuration":253164,"Delta":361388742},{"NoteNumber":71,"Velocity":49,"Duration":973937,"SoundDuration":973937,"Delta":361641907},{"NoteNumber":67,"Velocity":40,"Duration":240964,"SoundDuration":240964,"Delta":361641907},{"NoteNumber":62,"Velocity":27,"Duration":973937,"SoundDuration":973937,"Delta":361641907},{"NoteNumber":55,"Velocity":22,"Duration":973937,"SoundDuration":973937,"Delta":361641907},{"NoteNumber":59,"Velocity":32,"Duration":240963,"SoundDuration":240963,"Delta":361882871},{"NoteNumber":67,"Velocity":40,"Duration":240964,"SoundDuration":240964,"Delta":362123835},{"NoteNumber":59,"Velocity":35,"Duration":251045,"SoundDuration":251045,"Delta":362364799},{"NoteNumber":67,"Velocity":40,"Duration":240964,"SoundDuration":240964,"Delta":362615845},{"NoteNumber":59,"Velocity":36,"Duration":252100,"SoundDuration":252100,"Delta":362856809},{"NoteNumber":55,"Velocity":40,"Duration":504202,"SoundDuration":504202,"Delta":363108910},{"NoteNumber":43,"Velocity":30,"Duration":1259881,"SoundDuration":1259881,"Delta":363361011},{"NoteNumber":72,"Velocity":40,"Duration":328189,"SoundDuration":328189,"Delta":363613112},{"NoteNumber":75,"Velocity":49,"Duration":1007780,"SoundDuration":1007780,"Delta":363613112},{"NoteNumber":39,"Velocity":25,"Duration":1007780,"SoundDuration":1007780,"Delta":363613112},{"NoteNumber":48,"Velocity":30,"Duration":1007780,"SoundDuration":1007780,"Delta":363613112},{"NoteNumber":67,"Velocity":35,"Duration":329217,"SoundDuration":329217,"Delta":363942330},{"NoteNumber":72,"Velocity":40,"Duration":349344,"SoundDuration":349344,"Delta":364271548},{"NoteNumber":73,"Velocity":49,"Duration":1042841,"SoundDuration":1042841,"Delta":364620892},{"NoteNumber":68,"Velocity":40,"Duration":339361,"SoundDuration":339361,"Delta":364620892},{"NoteNumber":41,"Velocity":22,"Duration":1042841,"SoundDuration":1042841,"Delta":364620892},{"NoteNumber":44,"Velocity":22,"Duration":1042841,"SoundDuration":1042841,"Delta":364620892},{"NoteNumber":49,"Velocity":27,"Duration":1042841,"SoundDuration":1042841,"Delta":364620892},{"NoteNumber":65,"Velocity":34,"Duration":340425,"SoundDuration":340425,"Delta":364961318},{"NoteNumber":68,"Velocity":40,"Duration":361990,"SoundDuration":361990,"Delta":365301743},{"NoteNumber":71,"Velocity":49,"Duration":1095726,"SoundDuration":1095726,"Delta":365663734},{"NoteNumber":67,"Velocity":40,"Duration":354444,"SoundDuration":354444,"Delta":365663734},{"NoteNumber":50,"Velocity":27,"Duration":1095726,"SoundDuration":1095726,"Delta":365663734},{"NoteNumber":43,"Velocity":22,"Duration":1095726,"SoundDuration":1095726,"Delta":365663734},{"NoteNumber":59,"Velocity":32,"Duration":355555,"SoundDuration":355555,"Delta":366019289},{"NoteNumber":67,"Velocity":40,"Duration":384615,"SoundDuration":384615,"Delta":366374844},{"NoteNumber":55,"Velocity":40,"Duration":269058,"SoundDuration":269058,"Delta":366759460},{"NoteNumber":31,"Velocity":74,"Duration":269058,"SoundDuration":269058,"Delta":367297577},{"NoteNumber":43,"Velocity":88,"Duration":269058,"SoundDuration":269058,"Delta":367297577},{"NoteNumber":75,"Velocity":62,"Duration":199999,"SoundDuration":199999,"Delta":367835694},{"NoteNumber":82,"Velocity":73,"Duration":199999,"SoundDuration":199999,"Delta":367835694},{"NoteNumber":70,"Velocity":62,"Duration":199999,"SoundDuration":199999,"Delta":367835694},{"NoteNumber":55,"Velocity":98,"Duration":888888,"SoundDuration":888888,"Delta":367835694},{"NoteNumber":43,"Velocity":80,"Duration":888888,"SoundDuration":888888,"Delta":367835694},{"NoteNumber":70,"Velocity":59,"Duration":422221,"SoundDuration":422221,"Delta":368057916},{"NoteNumber":82,"Velocity":70,"Duration":422221,"SoundDuration":422221,"Delta":368057916},{"NoteNumber":75,"Velocity":59,"Duration":422221,"SoundDuration":422221,"Delta":368057916},{"NoteNumber":75,"Velocity":58,"Duration":419302,"SoundDuration":419302,"Delta":368502360},{"NoteNumber":70,"Velocity":58,"Duration":419302,"SoundDuration":419302,"Delta":368502360},{"NoteNumber":82,"Velocity":68,"Duration":419302,"SoundDuration":419302,"Delta":368502360},{"NoteNumber":53,"Velocity":83,"Duration":437955,"SoundDuration":437955,"Delta":368724582},{"NoteNumber":41,"Velocity":70,"Duration":437955,"SoundDuration":437955,"Delta":368724582},{"NoteNumber":80,"Velocity":73,"Duration":416058,"SoundDuration":416058,"Delta":368943560},{"NoteNumber":82,"Velocity":73,"Duration":416058,"SoundDuration":416058,"Delta":368943560},{"NoteNumber":70,"Velocity":62,"Duration":416058,"SoundDuration":416058,"Delta":368943560},{"NoteNumber":74,"Velocity":62,"Duration":416058,"SoundDuration":416058,"Delta":368943560},{"NoteNumber":55,"Velocity":88,"Duration":457318,"SoundDuration":457318,"Delta":369162538},{"NoteNumber":43,"Velocity":74,"Duration":457318,"SoundDuration":457318,"Delta":369162538},{"NoteNumber":70,"Velocity":58,"Duration":439833,"SoundDuration":439833,"Delta":369381516},{"NoteNumber":82,"Velocity":69,"Duration":439833,"SoundDuration":439833,"Delta":369381516},{"NoteNumber":79,"Velocity":69,"Duration":439833,"SoundDuration":439833,"Delta":369381516},{"NoteNumber":75,"Velocity":58,"Duration":439833,"SoundDuration":439833,"Delta":369381516},{"NoteNumber":56,"Velocity":94,"Duration":666739,"SoundDuration":666739,"Delta":369619857},{"NoteNumber":44,"Velocity":79,"Duration":666739,"SoundDuration":666739,"Delta":369619857},{"NoteNumber":70,"Velocity":58,"Duration":420960,"SoundDuration":420960,"Delta":369843737},{"NoteNumber":77,"Velocity":58,"Duration":420960,"SoundDuration":420960,"Delta":369843737},{"NoteNumber":82,"Velocity":69,"Duration":420960,"SoundDuration":420960,"Delta":369843737},{"NoteNumber":74,"Velocity":58,"Duration":420960,"SoundDuration":420960,"Delta":369843737},{"NoteNumber":74,"Velocity":56,"Duration":416058,"SoundDuration":416058,"Delta":370286596},{"NoteNumber":70,"Velocity":56,"Duration":416058,"SoundDuration":416058,"Delta":370286596},{"NoteNumber":80,"Velocity":67,"Duration":416058,"SoundDuration":416058,"Delta":370286596},{"NoteNumber":82,"Velocity":67,"Duration":416058,"SoundDuration":416058,"Delta":370286596},{"NoteNumber":53,"Velocity":84,"Duration":218977,"SoundDuration":218977,"Delta":370286596},{"NoteNumber":41,"Velocity":71,"Duration":218977,"SoundDuration":218977,"Delta":370286596},{"NoteNumber":50,"Velocity":91,"Duration":437956,"SoundDuration":437956,"Delta":370505574},{"NoteNumber":38,"Velocity":77,"Duration":437956,"SoundDuration":437956,"Delta":370505574},{"NoteNumber":77,"Velocity":63,"Duration":416058,"SoundDuration":416058,"Delta":370724552},{"NoteNumber":70,"Velocity":63,"Duration":416058,"SoundDuration":416058,"Delta":370724552},{"NoteNumber":82,"Velocity":75,"Duration":416058,"SoundDuration":416058,"Delta":370724552},{"NoteNumber":80,"Velocity":75,"Duration":416058,"SoundDuration":416058,"Delta":370724552},{"NoteNumber":51,"Velocity":86,"Duration":454327,"SoundDuration":454327,"Delta":370943530},{"NoteNumber":39,"Velocity":73,"Duration":454327,"SoundDuration":454327,"Delta":370943530},{"NoteNumber":79,"Velocity":66,"Duration":436841,"SoundDuration":436841,"Delta":371162508},{"NoteNumber":75,"Velocity":56,"Duration":436841,"SoundDuration":436841,"Delta":371162508},{"NoteNumber":82,"Velocity":66,"Duration":436841,"SoundDuration":436841,"Delta":371162508},{"NoteNumber":70,"Velocity":56,"Duration":436841,"SoundDuration":436841,"Delta":371162508},{"NoteNumber":41,"Velocity":77,"Duration":447761,"SoundDuration":447761,"Delta":371397857},{"NoteNumber":53,"Velocity":91,"Duration":447761,"SoundDuration":447761,"Delta":371397857},{"NoteNumber":80,"Velocity":86,"Duration":420960,"SoundDuration":420960,"Delta":371621738},{"NoteNumber":74,"Velocity":73,"Duration":420960,"SoundDuration":420960,"Delta":371621738},{"NoteNumber":82,"Velocity":86,"Duration":420960,"SoundDuration":420960,"Delta":371621738},{"NoteNumber":86,"Velocity":86,"Duration":420960,"SoundDuration":420960,"Delta":371621738},{"NoteNumber":39,"Velocity":73,"Duration":437955,"SoundDuration":437955,"Delta":371845618},{"NoteNumber":51,"Velocity":87,"Duration":437955,"SoundDuration":437955,"Delta":371845618},{"NoteNumber":75,"Velocity":72,"Duration":416058,"SoundDuration":416058,"Delta":372064596},{"NoteNumber":82,"Velocity":72,"Duration":416058,"SoundDuration":416058,"Delta":372064596},{"NoteNumber":87,"Velocity":86,"Duration":416058,"SoundDuration":416058,"Delta":372064596},{"NoteNumber":79,"Velocity":72,"Duration":416058,"SoundDuration":416058,"Delta":372064596},{"NoteNumber":38,"Velocity":79,"Duration":437956,"SoundDuration":437956,"Delta":372283574},{"NoteNumber":50,"Velocity":93,"Duration":437956,"SoundDuration":437956,"Delta":372283574},{"NoteNumber":80,"Velocity":77,"Duration":416058,"SoundDuration":416058,"Delta":372502552},{"NoteNumber":77,"Velocity":77,"Duration":416058,"SoundDuration":416058,"Delta":372502552},{"NoteNumber":89,"Velocity":91,"Duration":416058,"SoundDuration":416058,"Delta":372502552},{"NoteNumber":82,"Velocity":77,"Duration":416058,"SoundDuration":416058,"Delta":372502552},{"NoteNumber":36,"Velocity":75,"Duration":453352,"SoundDuration":453352,"Delta":372721530},{"NoteNumber":48,"Velocity":89,"Duration":453352,"SoundDuration":453352,"Delta":372721530},{"NoteNumber":87,"Velocity":95,"Duration":234375,"SoundDuration":234375,"Delta":372940508},{"NoteNumber":79,"Velocity":80,"Duration":234375,"SoundDuration":234375,"Delta":372940508},{"NoteNumber":91,"Velocity":95,"Duration":234375,"SoundDuration":234375,"Delta":372940508},{"NoteNumber":89,"Velocity":100,"Duration":202247,"SoundDuration":202247,"Delta":373174883},{"NoteNumber":92,"Velocity":100,"Duration":202247,"SoundDuration":202247,"Delta":373174883},{"NoteNumber":80,"Velocity":85,"Duration":202247,"SoundDuration":202247,"Delta":373174883},{"NoteNumber":86,"Velocity":85,"Duration":202247,"SoundDuration":202247,"Delta":373174883},{"NoteNumber":35,"Velocity":80,"Duration":884220,"SoundDuration":884220,"Delta":373174883},{"NoteNumber":47,"Velocity":95,"Duration":884220,"SoundDuration":884220,"Delta":373174883},{"NoteNumber":80,"Velocity":81,"Duration":420371,"SoundDuration":420371,"Delta":373399602},{"NoteNumber":92,"Velocity":95,"Duration":420371,"SoundDuration":420371,"Delta":373399602},{"NoteNumber":89,"Velocity":95,"Duration":420371,"SoundDuration":420371,"Delta":373399602},{"NoteNumber":86,"Velocity":81,"Duration":420371,"SoundDuration":420371,"Delta":373399602},{"NoteNumber":80,"Velocity":80,"Duration":413043,"SoundDuration":413043,"Delta":373841713},{"NoteNumber":89,"Velocity":95,"Duration":413043,"SoundDuration":413043,"Delta":373841713},{"NoteNumber":92,"Velocity":95,"Duration":413043,"SoundDuration":413043,"Delta":373841713},{"NoteNumber":86,"Velocity":80,"Duration":413043,"SoundDuration":413043,"Delta":373841713},{"NoteNumber":34,"Velocity":80,"Duration":434783,"SoundDuration":434783,"Delta":374059104},{"NoteNumber":46,"Velocity":95,"Duration":434783,"SoundDuration":434783,"Delta":374059104},{"NoteNumber":86,"Velocity":83,"Duration":413043,"SoundDuration":413043,"Delta":374276496},{"NoteNumber":80,"Velocity":83,"Duration":413043,"SoundDuration":413043,"Delta":374276496},{"NoteNumber":92,"Velocity":98,"Duration":413043,"SoundDuration":413043,"Delta":374276496},{"NoteNumber":89,"Velocity":98,"Duration":413043,"SoundDuration":413043,"Delta":374276496},{"NoteNumber":33,"Velocity":86,"Duration":396147,"SoundDuration":396147,"Delta":374493887},{"NoteNumber":45,"Velocity":102,"Duration":396147,"SoundDuration":396147,"Delta":374493887},{"NoteNumber":86,"Velocity":85,"Duration":178755,"SoundDuration":178755,"Delta":374711279},{"NoteNumber":81,"Velocity":85,"Duration":178755,"SoundDuration":178755,"Delta":374711279},{"NoteNumber":93,"Velocity":100,"Duration":178755,"SoundDuration":178755,"Delta":374711279},{"NoteNumber":89,"Velocity":100,"Duration":178755,"SoundDuration":178755,"Delta":374711279},{"NoteNumber":32,"Velocity":72,"Duration":59585,"SoundDuration":59585,"Delta":374890034},{"NoteNumber":44,"Velocity":72,"Duration":29792,"SoundDuration":29792,"Delta":374919827},{"NoteNumber":94,"Velocity":112,"Duration":867157,"SoundDuration":867157,"Delta":374949620},{"NoteNumber":86,"Velocity":92,"Duration":867157,"SoundDuration":867157,"Delta":374949620},{"NoteNumber":82,"Velocity":92,"Duration":867157,"SoundDuration":867157,"Delta":374949620},{"NoteNumber":89,"Velocity":92,"Duration":867157,"SoundDuration":867157,"Delta":374949620},{"NoteNumber":65,"Velocity":84,"Duration":664205,"SoundDuration":664205,"Delta":374949620},{"NoteNumber":62,"Velocity":80,"Duration":664205,"SoundDuration":664205,"Delta":374949620},{"NoteNumber":58,"Velocity":75,"Duration":664205,"SoundDuration":664205,"Delta":374949620},{"NoteNumber":56,"Velocity":72,"Duration":664205,"SoundDuration":664205,"Delta":374949620},{"NoteNumber":46,"Velocity":66,"Duration":210331,"SoundDuration":210331,"Delta":375613826},{"NoteNumber":58,"Velocity":78,"Duration":210331,"SoundDuration":210331,"Delta":375613826},{"NoteNumber":89,"Velocity":80,"Duration":434782,"SoundDuration":434782,"Delta":375835228},{"NoteNumber":92,"Velocity":95,"Duration":434782,"SoundDuration":434782,"Delta":375835228},{"NoteNumber":86,"Velocity":80,"Duration":434782,"SoundDuration":434782,"Delta":375835228},{"NoteNumber":80,"Velocity":80,"Duration":434782,"SoundDuration":434782,"Delta":375835228},{"NoteNumber":46,"Velocity":66,"Duration":434782,"SoundDuration":434782,"Delta":375835228},{"NoteNumber":58,"Velocity":78,"Duration":434782,"SoundDuration":434782,"Delta":375835228},{"NoteNumber":89,"Velocity":85,"Duration":455732,"SoundDuration":455732,"Delta":376270011},{"NoteNumber":94,"Velocity":101,"Duration":455732,"SoundDuration":455732,"Delta":376270011},{"NoteNumber":82,"Velocity":85,"Duration":455732,"SoundDuration":455732,"Delta":376270011},{"NoteNumber":86,"Velocity":85,"Duration":455732,"SoundDuration":455732,"Delta":376270011},{"NoteNumber":48,"Velocity":60,"Duration":108695,"SoundDuration":108695,"Delta":376270011},{"NoteNumber":60,"Velocity":70,"Duration":108695,"SoundDuration":108695,"Delta":376270011},{"NoteNumber":50,"Velocity":66,"Duration":119170,"SoundDuration":119170,"Delta":376487402},{"NoteNumber":62,"Velocity":78,"Duration":119170,"SoundDuration":119170,"Delta":376487402},{"NoteNumber":87,"Velocity":90,"Duration":662625,"SoundDuration":662625,"Delta":376725743},{"NoteNumber":92,"Velocity":90,"Duration":644444,"SoundDuration":644444,"Delta":376725743},{"NoteNumber":83,"Velocity":90,"Duration":662625,"SoundDuration":662625,"Delta":376725743},{"NoteNumber":95,"Velocity":108,"Duration":662625,"SoundDuration":662625,"Delta":376725743},{"NoteNumber":56,"Velocity":67,"Duration":111110,"SoundDuration":111110,"Delta":376725743},{"NoteNumber":51,"Velocity":67,"Duration":111110,"SoundDuration":111110,"Delta":376725743},{"NoteNumber":59,"Velocity":67,"Duration":111110,"SoundDuration":111110,"Delta":376725743},{"NoteNumber":63,"Velocity":80,"Duration":111110,"SoundDuration":111110,"Delta":376725743},{"NoteNumber":32,"Velocity":80,"Duration":436364,"SoundDuration":436364,"Delta":377170187},{"NoteNumber":44,"Velocity":96,"Duration":436364,"SoundDuration":436364,"Delta":377170187},{"NoteNumber":80,"Velocity":81,"Duration":218182,"SoundDuration":218182,"Delta":377388369},{"NoteNumber":92,"Velocity":96,"Duration":218182,"SoundDuration":218182,"Delta":377388369},{"NoteNumber":75,"Velocity":88,"Duration":436363,"SoundDuration":436363,"Delta":377606551},{"NoteNumber":87,"Velocity":104,"Duration":436363,"SoundDuration":436363,"Delta":377606551},{"NoteNumber":87,"Velocity":83,"Duration":429996,"SoundDuration":429996,"Delta":378042915},{"NoteNumber":83,"Velocity":83,"Duration":429996,"SoundDuration":429996,"Delta":378042915},{"NoteNumber":95,"Velocity":98,"Duration":429996,"SoundDuration":429996,"Delta":378042915},{"NoteNumber":92,"Velocity":83,"Duration":429996,"SoundDuration":429996,"Delta":378042915},{"NoteNumber":51,"Velocity":67,"Duration":429996,"SoundDuration":429996,"Delta":378042915},{"NoteNumber":56,"Velocity":67,"Duration":429996,"SoundDuration":429996,"Delta":378042915},{"NoteNumber":59,"Velocity":67,"Duration":429996,"SoundDuration":429996,"Delta":378042915},{"NoteNumber":63,"Velocity":80,"Duration":429996,"SoundDuration":429996,"Delta":378042915},{"NoteNumber":84,"Velocity":92,"Duration":882352,"SoundDuration":882352,"Delta":378496447},{"NoteNumber":96,"Velocity":112,"Duration":882352,"SoundDuration":882352,"Delta":378496447},{"NoteNumber":92,"Velocity":92,"Duration":882352,"SoundDuration":882352,"Delta":378496447},{"NoteNumber":54,"Velocity":72,"Duration":661764,"SoundDuration":661764,"Delta":378496447},{"NoteNumber":68,"Velocity":84,"Duration":661764,"SoundDuration":661764,"Delta":378496447},{"NoteNumber":63,"Velocity":80,"Duration":661764,"SoundDuration":661764,"Delta":378496447},{"NoteNumber":60,"Velocity":75,"Duration":661764,"SoundDuration":661764,"Delta":378496447},{"NoteNumber":56,"Velocity":72,"Duration":643381,"SoundDuration":643381,"Delta":378496447},{"NoteNumber":87,"Velocity":92,"Duration":882305,"SoundDuration":882305,"Delta":378502880},{"NoteNumber":30,"Velocity":100,"Duration":220588,"SoundDuration":220588,"Delta":378937623},{"NoteNumber":42,"Velocity":100,"Duration":220588,"SoundDuration":220588,"Delta":378937623},{"NoteNumber":42,"Velocity":75,"Duration":198529,"SoundDuration":198529,"Delta":379158211},{"NoteNumber":44,"Velocity":75,"Duration":198529,"SoundDuration":198529,"Delta":379158211},{"NoteNumber":56,"Velocity":89,"Duration":198529,"SoundDuration":198529,"Delta":379158211},{"NoteNumber":94,"Velocity":95,"Duration":416058,"SoundDuration":416058,"Delta":379378799},{"NoteNumber":82,"Velocity":80,"Duration":416058,"SoundDuration":416058,"Delta":379378799},{"NoteNumber":87,"Velocity":80,"Duration":416058,"SoundDuration":416058,"Delta":379378799},{"NoteNumber":42,"Velocity":75,"Duration":416058,"SoundDuration":416058,"Delta":379378799},{"NoteNumber":44,"Velocity":75,"Duration":416058,"SoundDuration":416058,"Delta":379378799},{"NoteNumber":56,"Velocity":89,"Duration":416058,"SoundDuration":416058,"Delta":379378799},{"NoteNumber":87,"Velocity":85,"Duration":433484,"SoundDuration":433484,"Delta":379816755},{"NoteNumber":92,"Velocity":85,"Duration":433484,"SoundDuration":433484,"Delta":379816755},{"NoteNumber":84,"Velocity":85,"Duration":433484,"SoundDuration":433484,"Delta":379816755},{"NoteNumber":96,"Velocity":101,"Duration":433484,"SoundDuration":433484,"Delta":379816755},{"NoteNumber":49,"Velocity":66,"Duration":109488,"SoundDuration":109488,"Delta":379816755},{"NoteNumber":61,"Velocity":77,"Duration":109488,"SoundDuration":109488,"Delta":379816755},{"NoteNumber":51,"Velocity":72,"Duration":119170,"SoundDuration":119170,"Delta":380035733},{"NoteNumber":63,"Velocity":85,"Duration":119170,"SoundDuration":119170,"Delta":380035733},{"NoteNumber":85,"Velocity":90,"Duration":668008,"SoundDuration":668008,"Delta":380274074},{"NoteNumber":92,"Velocity":90,"Duration":649760,"SoundDuration":649760,"Delta":380274074},{"NoteNumber":97,"Velocity":108,"Duration":668008,"SoundDuration":668008,"Delta":380274074},{"NoteNumber":56,"Velocity":73,"Duration":111940,"SoundDuration":111940,"Delta":380274074},{"NoteNumber":53,"Velocity":73,"Duration":111940,"SoundDuration":111940,"Delta":380274074},{"NoteNumber":61,"Velocity":73,"Duration":111940,"SoundDuration":111940,"Delta":380274074},{"NoteNumber":65,"Velocity":88,"Duration":111940,"SoundDuration":111940,"Delta":380274074},{"NoteNumber":29,"Velocity":74,"Duration":439225,"SoundDuration":439225,"Delta":380721835},{"NoteNumber":41,"Velocity":88,"Duration":439225,"SoundDuration":439225,"Delta":380721835},{"NoteNumber":92,"Velocity":96,"Duration":218977,"SoundDuration":218977,"Delta":380942082},{"NoteNumber":80,"Velocity":81,"Duration":218977,"SoundDuration":218977,"Delta":380942082},{"NoteNumber":77,"Velocity":88,"Duration":437955,"SoundDuration":437955,"Delta":381161060},{"NoteNumber":89,"Velocity":104,"Duration":437955,"SoundDuration":437955,"Delta":381161060},{"NoteNumber":97,"Velocity":98,"Duration":423523,"SoundDuration":423523,"Delta":381599016},{"NoteNumber":92,"Velocity":83,"Duration":423523,"SoundDuration":423523,"Delta":381599016},{"NoteNumber":85,"Velocity":83,"Duration":423523,"SoundDuration":423523,"Delta":381599016},{"NoteNumber":53,"Velocity":67,"Duration":361023,"SoundDuration":361023,"Delta":381599016},{"NoteNumber":56,"Velocity":67,"Duration":361023,"SoundDuration":361023,"Delta":381599016},{"NoteNumber":61,"Velocity":67,"Duration":361023,"SoundDuration":361023,"Delta":381599016},{"NoteNumber":65,"Velocity":67,"Duration":361023,"SoundDuration":361023,"Delta":381599016},{"NoteNumber":65,"Velocity":62,"Duration":312499,"SoundDuration":312499,"Delta":381960039},{"NoteNumber":68,"Velocity":62,"Duration":284090,"SoundDuration":284090,"Delta":381988448},{"NoteNumber":71,"Velocity":73,"Duration":255681,"SoundDuration":255681,"Delta":382016857},{"NoteNumber":95,"Velocity":88,"Duration":876310,"SoundDuration":876310,"Delta":382045266},{"NoteNumber":86,"Velocity":88,"Duration":876310,"SoundDuration":876310,"Delta":382045266},{"NoteNumber":92,"Velocity":88,"Duration":876310,"SoundDuration":876310,"Delta":382045266},{"NoteNumber":98,"Velocity":104,"Duration":876310,"SoundDuration":876310,"Delta":382045266},{"NoteNumber":77,"Velocity":73,"Duration":227272,"SoundDuration":227272,"Delta":382045266},{"NoteNumber":59,"Velocity":56,"Duration":218930,"SoundDuration":218930,"Delta":382272539},{"NoteNumber":71,"Velocity":67,"Duration":218930,"SoundDuration":218930,"Delta":382272539},{"NoteNumber":56,"Velocity":56,"Duration":215054,"SoundDuration":215054,"Delta":382491469},{"NoteNumber":68,"Velocity":67,"Duration":215054,"SoundDuration":215054,"Delta":382491469},{"NoteNumber":53,"Velocity":56,"Duration":215054,"SoundDuration":215054,"Delta":382706523},{"NoteNumber":65,"Velocity":67,"Duration":215054,"SoundDuration":215054,"Delta":382706523},{"NoteNumber":92,"Velocity":89,"Duration":408602,"SoundDuration":408602,"Delta":382921577},{"NoteNumber":95,"Velocity":89,"Duration":408602,"SoundDuration":408602,"Delta":382921577},{"NoteNumber":96,"Velocity":105,"Duration":408602,"SoundDuration":408602,"Delta":382921577},{"NoteNumber":84,"Velocity":89,"Duration":408602,"SoundDuration":408602,"Delta":382921577},{"NoteNumber":62,"Velocity":69,"Duration":215054,"SoundDuration":215054,"Delta":382921577},{"NoteNumber":50,"Velocity":58,"Duration":215054,"SoundDuration":215054,"Delta":382921577},{"NoteNumber":47,"Velocity":60,"Duration":215053,"SoundDuration":215053,"Delta":383136631},{"NoteNumber":59,"Velocity":71,"Duration":215053,"SoundDuration":215053,"Delta":383136631},{"NoteNumber":95,"Velocity":92,"Duration":449775,"SoundDuration":449775,"Delta":383351685},{"NoteNumber":92,"Velocity":92,"Duration":449775,"SoundDuration":449775,"Delta":383351685},{"NoteNumber":86,"Velocity":92,"Duration":449775,"SoundDuration":449775,"Delta":383351685},{"NoteNumber":98,"Velocity":109,"Duration":449775,"SoundDuration":449775,"Delta":383351685},{"NoteNumber":44,"Velocity":72,"Duration":227773,"SoundDuration":227773,"Delta":383351685},{"NoteNumber":56,"Velocity":72,"Duration":227773,"SoundDuration":227773,"Delta":383351685},{"NoteNumber":41,"Velocity":62,"Duration":185002,"SoundDuration":185002,"Delta":383579458},{"NoteNumber":53,"Velocity":74,"Duration":185002,"SoundDuration":185002,"Delta":383579458},{"NoteNumber":42,"Velocity":78,"Duration":284054,"SoundDuration":284054,"Delta":383764460},{"NoteNumber":45,"Velocity":81,"Duration":268637,"SoundDuration":268637,"Delta":383779877},{"NoteNumber":48,"Velocity":84,"Duration":253220,"SoundDuration":253220,"Delta":383795294},{"NoteNumber":51,"Velocity":87,"Duration":237803,"SoundDuration":237803,"Delta":383810711},{"NoteNumber":93,"Velocity":97,"Duration":111193,"SoundDuration":111193,"Delta":383826128},{"NoteNumber":89,"Velocity":97,"Duration":111193,"SoundDuration":111193,"Delta":383826128},{"NoteNumber":101,"Velocity":115,"Duration":111193,"SoundDuration":111193,"Delta":383826128},{"NoteNumber":96,"Velocity":97,"Duration":111193,"SoundDuration":111193,"Delta":383826128},{"NoteNumber":57,"Velocity":90,"Duration":222387,"SoundDuration":222387,"Delta":383826128},{"NoteNumber":99,"Velocity":97,"Duration":106172,"SoundDuration":106172,"Delta":384048515},{"NoteNumber":87,"Velocity":82,"Duration":106172,"SoundDuration":106172,"Delta":384048515},{"NoteNumber":75,"Velocity":77,"Duration":106172,"SoundDuration":106172,"Delta":384048515},{"NoteNumber":96,"Velocity":97,"Duration":104602,"SoundDuration":104602,"Delta":384260859},{"NoteNumber":84,"Velocity":82,"Duration":104602,"SoundDuration":104602,"Delta":384260859},{"NoteNumber":72,"Velocity":77,"Duration":104602,"SoundDuration":104602,"Delta":384260859},{"NoteNumber":93,"Velocity":98,"Duration":104602,"SoundDuration":104602,"Delta":384470064},{"NoteNumber":81,"Velocity":83,"Duration":104602,"SoundDuration":104602,"Delta":384470064},{"NoteNumber":69,"Velocity":77,"Duration":104602,"SoundDuration":104602,"Delta":384470064},{"NoteNumber":90,"Velocity":106,"Duration":104602,"SoundDuration":104602,"Delta":384679269},{"NoteNumber":78,"Velocity":106,"Duration":104602,"SoundDuration":104602,"Delta":384679269},{"NoteNumber":66,"Velocity":85,"Duration":104602,"SoundDuration":104602,"Delta":384679269},{"NoteNumber":75,"Velocity":78,"Duration":104602,"SoundDuration":104602,"Delta":384888474},{"NoteNumber":87,"Velocity":92,"Duration":104602,"SoundDuration":104602,"Delta":384888474},{"NoteNumber":63,"Velocity":67,"Duration":104602,"SoundDuration":104602,"Delta":384888474},{"NoteNumber":84,"Velocity":93,"Duration":104602,"SoundDuration":104602,"Delta":385097679},{"NoteNumber":72,"Velocity":79,"Duration":104602,"SoundDuration":104602,"Delta":385097679},{"NoteNumber":60,"Velocity":67,"Duration":104602,"SoundDuration":104602,"Delta":385097679},{"NoteNumber":81,"Velocity":93,"Duration":108624,"SoundDuration":108624,"Delta":385306884},{"NoteNumber":69,"Velocity":79,"Duration":108624,"SoundDuration":108624,"Delta":385306884},{"NoteNumber":57,"Velocity":67,"Duration":108624,"SoundDuration":108624,"Delta":385306884},{"NoteNumber":66,"Velocity":77,"Duration":104602,"SoundDuration":104602,"Delta":385524134},{"NoteNumber":78,"Velocity":91,"Duration":104602,"SoundDuration":104602,"Delta":385524134},{"NoteNumber":54,"Velocity":67,"Duration":104602,"SoundDuration":104602,"Delta":385524134},{"NoteNumber":63,"Velocity":70,"Duration":104602,"SoundDuration":104602,"Delta":385733339},{"NoteNumber":75,"Velocity":83,"Duration":104602,"SoundDuration":104602,"Delta":385733339},{"NoteNumber":51,"Velocity":59,"Duration":104602,"SoundDuration":104602,"Delta":385733339},{"NoteNumber":72,"Velocity":83,"Duration":104602,"SoundDuration":104602,"Delta":385942544},{"NoteNumber":60,"Velocity":70,"Duration":104602,"SoundDuration":104602,"Delta":385942544},{"NoteNumber":48,"Velocity":58,"Duration":104602,"SoundDuration":104602,"Delta":385942544},{"NoteNumber":69,"Velocity":72,"Duration":104602,"SoundDuration":104602,"Delta":386151749},{"NoteNumber":57,"Velocity":61,"Duration":104602,"SoundDuration":104602,"Delta":386151749},{"NoteNumber":45,"Velocity":57,"Duration":104602,"SoundDuration":104602,"Delta":386151749},{"NoteNumber":54,"Velocity":68,"Duration":104602,"SoundDuration":104602,"Delta":386360954},{"NoteNumber":66,"Velocity":80,"Duration":104602,"SoundDuration":104602,"Delta":386360954},{"NoteNumber":42,"Velocity":64,"Duration":104602,"SoundDuration":104602,"Delta":386360954},{"NoteNumber":63,"Velocity":79,"Duration":104602,"SoundDuration":104602,"Delta":386570159},{"NoteNumber":51,"Velocity":67,"Duration":104602,"SoundDuration":104602,"Delta":386570159},{"NoteNumber":39,"Velocity":55,"Duration":104602,"SoundDuration":104602,"Delta":386570159},{"NoteNumber":60,"Velocity":77,"Duration":106579,"SoundDuration":106579,"Delta":386779364},{"NoteNumber":48,"Velocity":65,"Duration":106579,"SoundDuration":106579,"Delta":386779364},{"NoteNumber":36,"Velocity":55,"Duration":106579,"SoundDuration":106579,"Delta":386779364},{"NoteNumber":42,"Velocity":63,"Duration":110758,"SoundDuration":110758,"Delta":386992523},{"NoteNumber":54,"Velocity":75,"Duration":110758,"SoundDuration":110758,"Delta":386992523},{"NoteNumber":30,"Velocity":55,"Duration":110758,"SoundDuration":110758,"Delta":386992523},{"NoteNumber":48,"Velocity":68,"Duration":853082,"SoundDuration":853082,"Delta":387214039},{"NoteNumber":60,"Velocity":81,"Duration":434665,"SoundDuration":434665,"Delta":387214039},{"NoteNumber":55,"Velocity":68,"Duration":195672,"SoundDuration":195672,"Delta":387214039},{"NoteNumber":31,"Velocity":69,"Duration":853082,"SoundDuration":853082,"Delta":387214039},{"NoteNumber":43,"Velocity":81,"Duration":853082,"SoundDuration":853082,"Delta":387214039},{"NoteNumber":55,"Velocity":60,"Duration":631566,"SoundDuration":631566,"Delta":387435556},{"NoteNumber":60,"Velocity":65,"Duration":416667,"SoundDuration":416667,"Delta":387650455},{"NoteNumber":63,"Velocity":58,"Duration":208333,"SoundDuration":208333,"Delta":387858788},{"NoteNumber":66,"Velocity":62,"Duration":208333,"SoundDuration":208333,"Delta":388067122},{"NoteNumber":50,"Velocity":62,"Duration":625000,"SoundDuration":625000,"Delta":388067122},{"NoteNumber":62,"Velocity":73,"Duration":625000,"SoundDuration":625000,"Delta":388067122},{"NoteNumber":67,"Velocity":64,"Duration":208333,"SoundDuration":208333,"Delta":388275455},{"NoteNumber":72,"Velocity":67,"Duration":208333,"SoundDuration":208333,"Delta":388483789},{"NoteNumber":75,"Velocity":69,"Duration":218287,"SoundDuration":218287,"Delta":388692122},{"NoteNumber":63,"Velocity":63,"Duration":218287,"SoundDuration":218287,"Delta":388692122},{"NoteNumber":51,"Velocity":52,"Duration":218287,"SoundDuration":218287,"Delta":388692122},{"NoteNumber":78,"Velocity":72,"Duration":209059,"SoundDuration":209059,"Delta":388910410},{"NoteNumber":79,"Velocity":65,"Duration":209058,"SoundDuration":209058,"Delta":389119469},{"NoteNumber":31,"Velocity":62,"Duration":209058,"SoundDuration":209058,"Delta":389119469},{"NoteNumber":36,"Velocity":62,"Duration":217249,"SoundDuration":217249,"Delta":389328528},{"NoteNumber":75,"Velocity":81,"Duration":204749,"SoundDuration":204749,"Delta":389545777},{"NoteNumber":79,"Velocity":81,"Duration":204749,"SoundDuration":204749,"Delta":389545777},{"NoteNumber":87,"Velocity":96,"Duration":204749,"SoundDuration":204749,"Delta":389545777},{"NoteNumber":39,"Velocity":62,"Duration":228187,"SoundDuration":228187,"Delta":389545777},{"NoteNumber":79,"Velocity":85,"Duration":415225,"SoundDuration":415225,"Delta":389773964},{"NoteNumber":87,"Velocity":101,"Duration":415225,"SoundDuration":415225,"Delta":389773964},{"NoteNumber":75,"Velocity":85,"Duration":415225,"SoundDuration":415225,"Delta":389773964},{"NoteNumber":43,"Velocity":62,"Duration":207612,"SoundDuration":207612,"Delta":389773964},{"NoteNumber":48,"Velocity":62,"Duration":207612,"SoundDuration":207612,"Delta":389981577},{"NoteNumber":77,"Velocity":80,"Duration":103806,"SoundDuration":103806,"Delta":390189189},{"NoteNumber":74,"Velocity":80,"Duration":103806,"SoundDuration":103806,"Delta":390189189},{"NoteNumber":86,"Velocity":95,"Duration":103806,"SoundDuration":103806,"Delta":390189189},{"NoteNumber":51,"Velocity":62,"Duration":207612,"SoundDuration":207612,"Delta":390189189},{"NoteNumber":84,"Velocity":95,"Duration":103806,"SoundDuration":103806,"Delta":390396802},{"NoteNumber":72,"Velocity":80,"Duration":103806,"SoundDuration":103806,"Delta":390396802},{"NoteNumber":75,"Velocity":80,"Duration":103806,"SoundDuration":103806,"Delta":390396802},{"NoteNumber":55,"Velocity":62,"Duration":207612,"SoundDuration":207612,"Delta":390396802},{"NoteNumber":49,"Velocity":69,"Duration":855318,"SoundDuration":855318,"Delta":390604414},{"NoteNumber":61,"Velocity":81,"Duration":855318,"SoundDuration":855318,"Delta":390604414},{"NoteNumber":67,"Velocity":69,"Duration":215683,"SoundDuration":215683,"Delta":390825931},{"NoteNumber":73,"Velocity":74,"Duration":209059,"SoundDuration":209059,"Delta":391041615},{"NoteNumber":76,"Velocity":66,"Duration":209058,"SoundDuration":209058,"Delta":391250674},{"NoteNumber":78,"Velocity":71,"Duration":209059,"SoundDuration":209059,"Delta":391459733},{"NoteNumber":50,"Velocity":62,"Duration":627177,"SoundDuration":627177,"Delta":391459733},{"NoteNumber":62,"Velocity":73,"Duration":627177,"SoundDuration":627177,"Delta":391459733},{"NoteNumber":79,"Velocity":73,"Duration":209058,"SoundDuration":209058,"Delta":391668792},{"NoteNumber":84,"Velocity":77,"Duration":209059,"SoundDuration":209059,"Delta":391877851},{"NoteNumber":88,"Velocity":79,"Duration":218528,"SoundDuration":218528,"Delta":392086910},{"NoteNumber":64,"Velocity":63,"Duration":218528,"SoundDuration":218528,"Delta":392086910},{"NoteNumber":52,"Velocity":52,"Duration":218528,"SoundDuration":218528,"Delta":392086910},{"NoteNumber":90,"Velocity":82,"Duration":207612,"SoundDuration":207612,"Delta":392305439},{"NoteNumber":91,"Velocity":74,"Duration":207612,"SoundDuration":207612,"Delta":392513051},{"NoteNumber":31,"Velocity":62,"Duration":207612,"SoundDuration":207612,"Delta":392513051},{"NoteNumber":37,"Velocity":62,"Duration":221516,"SoundDuration":221516,"Delta":392720664},{"NoteNumber":79,"Velocity":81,"Duration":207924,"SoundDuration":207924,"Delta":392942180},{"NoteNumber":88,"Velocity":96,"Duration":207924,"SoundDuration":207924,"Delta":392942180},{"NoteNumber":76,"Velocity":81,"Duration":207924,"SoundDuration":207924,"Delta":392942180},{"NoteNumber":40,"Velocity":62,"Duration":232215,"SoundDuration":232215,"Delta":392942180},{"NoteNumber":79,"Velocity":85,"Duration":418117,"SoundDuration":418117,"Delta":393174396},{"NoteNumber":88,"Velocity":101,"Duration":418117,"SoundDuration":418117,"Delta":393174396},{"NoteNumber":76,"Velocity":85,"Duration":418117,"SoundDuration":418117,"Delta":393174396},{"NoteNumber":43,"Velocity":62,"Duration":209059,"SoundDuration":209059,"Delta":393174396},{"NoteNumber":49,"Velocity":62,"Duration":209058,"SoundDuration":209058,"Delta":393383455},{"NoteNumber":74,"Velocity":80,"Duration":104529,"SoundDuration":104529,"Delta":393592514},{"NoteNumber":86,"Velocity":95,"Duration":104529,"SoundDuration":104529,"Delta":393592514},{"NoteNumber":77,"Velocity":80,"Duration":104529,"SoundDuration":104529,"Delta":393592514},{"NoteNumber":52,"Velocity":62,"Duration":209059,"SoundDuration":209059,"Delta":393592514},{"NoteNumber":76,"Velocity":80,"Duration":104529,"SoundDuration":104529,"Delta":393801573},{"NoteNumber":85,"Velocity":95,"Duration":104529,"SoundDuration":104529,"Delta":393801573},{"NoteNumber":73,"Velocity":80,"Duration":104529,"SoundDuration":104529,"Delta":393801573},{"NoteNumber":55,"Velocity":62,"Duration":209058,"SoundDuration":209058,"Delta":393801573},{"NoteNumber":50,"Velocity":69,"Duration":850886,"SoundDuration":850886,"Delta":394010632},{"NoteNumber":62,"Velocity":81,"Duration":850886,"SoundDuration":850886,"Delta":394010632},{"NoteNumber":65,"Velocity":62,"Duration":209789,"SoundDuration":209789,"Delta":394232149},{"NoteNumber":68,"Velocity":62,"Duration":209789,"SoundDuration":209789,"Delta":394441939},{"NoteNumber":77,"Velocity":81,"Duration":188810,"SoundDuration":188810,"Delta":394651729},{"NoteNumber":80,"Velocity":81,"Duration":188810,"SoundDuration":188810,"Delta":394651729},{"NoteNumber":89,"Velocity":96,"Duration":188810,"SoundDuration":188810,"Delta":394651729},{"NoteNumber":89,"Velocity":101,"Duration":419579,"SoundDuration":419579,"Delta":394861519},{"NoteNumber":80,"Velocity":85,"Duration":419579,"SoundDuration":419579,"Delta":394861519},{"NoteNumber":77,"Velocity":85,"Duration":419579,"SoundDuration":419579,"Delta":394861519},{"NoteNumber":52,"Velocity":62,"Duration":629369,"SoundDuration":629369,"Delta":394861519},{"NoteNumber":64,"Velocity":73,"Duration":629369,"SoundDuration":629369,"Delta":394861519},{"NoteNumber":76,"Velocity":80,"Duration":104894,"SoundDuration":104894,"Delta":395281099},{"NoteNumber":88,"Velocity":95,"Duration":104894,"SoundDuration":104894,"Delta":395281099},{"NoteNumber":79,"Velocity":80,"Duration":104894,"SoundDuration":104894,"Delta":395281099},{"NoteNumber":86,"Velocity":95,"Duration":107140,"SoundDuration":107140,"Delta":395490889},{"NoteNumber":74,"Velocity":80,"Duration":107140,"SoundDuration":107140,"Delta":395490889},{"NoteNumber":77,"Velocity":80,"Duration":107140,"SoundDuration":107140,"Delta":395490889},{"NoteNumber":65,"Velocity":63,"Duration":218772,"SoundDuration":218772,"Delta":395490889},{"NoteNumber":53,"Velocity":52,"Duration":218772,"SoundDuration":218772,"Delta":395490889},{"NoteNumber":84,"Velocity":81,"Duration":436415,"SoundDuration":436415,"Delta":395709661},{"NoteNumber":89,"Velocity":81,"Duration":436415,"SoundDuration":436415,"Delta":395709661},{"NoteNumber":96,"Velocity":96,"Duration":436415,"SoundDuration":436415,"Delta":395709661},{"NoteNumber":92,"Velocity":96,"Duration":436415,"SoundDuration":436415,"Delta":395709661},{"NoteNumber":91,"Velocity":91,"Duration":104990,"SoundDuration":104990,"Delta":396146077},{"NoteNumber":87,"Velocity":77,"Duration":104990,"SoundDuration":104990,"Delta":396146077},{"NoteNumber":79,"Velocity":77,"Duration":104990,"SoundDuration":104990,"Delta":396146077},{"NoteNumber":47,"Velocity":69,"Duration":419961,"SoundDuration":419961,"Delta":396146077},{"NoteNumber":59,"Velocity":81,"Duration":419961,"SoundDuration":419961,"Delta":396146077},{"NoteNumber":86,"Velocity":77,"Duration":104990,"SoundDuration":104990,"Delta":396356058},{"NoteNumber":77,"Velocity":77,"Duration":104990,"SoundDuration":104990,"Delta":396356058},{"NoteNumber":89,"Velocity":91,"Duration":104990,"SoundDuration":104990,"Delta":396356058},{"NoteNumber":96,"Velocity":81,"Duration":398963,"SoundDuration":398963,"Delta":396566039},{"NoteNumber":92,"Velocity":81,"Duration":398963,"SoundDuration":398963,"Delta":396566039},{"NoteNumber":89,"Velocity":81,"Duration":398963,"SoundDuration":398963,"Delta":396566039},{"NoteNumber":101,"Velocity":96,"Duration":398963,"SoundDuration":398963,"Delta":396566039},{"NoteNumber":48,"Velocity":62,"Duration":629943,"SoundDuration":629943,"Delta":396566039},{"NoteNumber":60,"Velocity":73,"Duration":629943,"SoundDuration":629943,"Delta":396566039},{"NoteNumber":89,"Velocity":77,"Duration":104990,"SoundDuration":104990,"Delta":396986001},{"NoteNumber":92,"Velocity":77,"Duration":104990,"SoundDuration":104990,"Delta":396986001},{"NoteNumber":96,"Velocity":91,"Duration":104990,"SoundDuration":104990,"Delta":396986001},{"NoteNumber":84,"Velocity":77,"Duration":104990,"SoundDuration":104990,"Delta":396986001},{"NoteNumber":95,"Velocity":91,"Duration":107204,"SoundDuration":107204,"Delta":397195982},{"NoteNumber":89,"Velocity":77,"Duration":107204,"SoundDuration":107204,"Delta":397195982},{"NoteNumber":83,"Velocity":77,"Duration":107204,"SoundDuration":107204,"Delta":397195982},{"NoteNumber":92,"Velocity":77,"Duration":107204,"SoundDuration":107204,"Delta":397195982},{"NoteNumber":62,"Velocity":63,"Duration":218836,"SoundDuration":218836,"Delta":397195982},{"NoteNumber":50,"Velocity":52,"Duration":218836,"SoundDuration":218836,"Delta":397195982},{"NoteNumber":89,"Velocity":74,"Duration":417992,"SoundDuration":417992,"Delta":397414818},{"NoteNumber":96,"Velocity":74,"Duration":417992,"SoundDuration":417992,"Delta":397414818},{"NoteNumber":101,"Velocity":88,"Duration":417992,"SoundDuration":417992,"Delta":397414818},{"NoteNumber":92,"Velocity":74,"Duration":417992,"SoundDuration":417992,"Delta":397414818},{"NoteNumber":96,"Velocity":83,"Duration":209789,"SoundDuration":209789,"Delta":397854453},{"NoteNumber":87,"Velocity":83,"Duration":209789,"SoundDuration":209789,"Delta":397854453},{"NoteNumber":99,"Velocity":83,"Duration":209789,"SoundDuration":209789,"Delta":397854453},{"NoteNumber":43,"Velocity":69,"Duration":419579,"SoundDuration":419579,"Delta":397854453},{"NoteNumber":55,"Velocity":81,"Duration":419579,"SoundDuration":419579,"Delta":397854453},{"NoteNumber":98,"Velocity":83,"Duration":209789,"SoundDuration":209789,"Delta":398064243},{"NoteNumber":95,"Velocity":83,"Duration":209789,"SoundDuration":209789,"Delta":398064243},{"NoteNumber":86,"Velocity":70,"Duration":209789,"SoundDuration":209789,"Delta":398064243},{"NoteNumber":84,"Velocity":70,"Duration":209789,"SoundDuration":209789,"Delta":398274033},{"NoteNumber":93,"Velocity":83,"Duration":209789,"SoundDuration":209789,"Delta":398274033},{"NoteNumber":96,"Velocity":83,"Duration":209789,"SoundDuration":209789,"Delta":398274033},{"NoteNumber":45,"Velocity":62,"Duration":629369,"SoundDuration":629369,"Delta":398274033},{"NoteNumber":57,"Velocity":73,"Duration":629369,"SoundDuration":629369,"Delta":398274033},{"NoteNumber":91,"Velocity":83,"Duration":209789,"SoundDuration":209789,"Delta":398483823},{"NoteNumber":95,"Velocity":83,"Duration":209789,"SoundDuration":209789,"Delta":398483823},{"NoteNumber":83,"Velocity":70,"Duration":209789,"SoundDuration":209789,"Delta":398483823},{"NoteNumber":81,"Velocity":70,"Duration":209789,"SoundDuration":209789,"Delta":398693613},{"NoteNumber":93,"Velocity":83,"Duration":209789,"SoundDuration":209789,"Delta":398693613},{"NoteNumber":89,"Velocity":83,"Duration":209789,"SoundDuration":209789,"Delta":398693613},{"NoteNumber":89,"Velocity":83,"Duration":218772,"SoundDuration":218772,"Delta":398903403},{"NoteNumber":80,"Velocity":70,"Duration":218772,"SoundDuration":218772,"Delta":398903403},{"NoteNumber":92,"Velocity":83,"Duration":218772,"SoundDuration":218772,"Delta":398903403},{"NoteNumber":59,"Velocity":63,"Duration":218772,"SoundDuration":218772,"Delta":398903403},{"NoteNumber":47,"Velocity":52,"Duration":218772,"SoundDuration":218772,"Delta":398903403},{"NoteNumber":78,"Velocity":77,"Duration":210762,"SoundDuration":210762,"Delta":399122176},{"NoteNumber":90,"Velocity":91,"Duration":210762,"SoundDuration":210762,"Delta":399122176},{"NoteNumber":91,"Velocity":86,"Duration":220653,"SoundDuration":220653,"Delta":399332939},{"NoteNumber":79,"Velocity":73,"Duration":220653,"SoundDuration":220653,"Delta":399332939},{"NoteNumber":41,"Velocity":68,"Duration":220653,"SoundDuration":220653,"Delta":399332939},{"NoteNumber":53,"Velocity":73,"Duration":220652,"SoundDuration":220652,"Delta":399553592},{"NoteNumber":47,"Velocity":62,"Duration":220652,"SoundDuration":220652,"Delta":399553592},{"NoteNumber":83,"Velocity":80,"Duration":200972,"SoundDuration":200972,"Delta":399774245},{"NoteNumber":80,"Velocity":80,"Duration":200972,"SoundDuration":200972,"Delta":399774245},{"NoteNumber":92,"Velocity":95,"Duration":200972,"SoundDuration":200972,"Delta":399774245},{"NoteNumber":86,"Velocity":80,"Duration":200972,"SoundDuration":200972,"Delta":399774245},{"NoteNumber":41,"Velocity":69,"Duration":211550,"SoundDuration":211550,"Delta":399774245},{"NoteNumber":83,"Velocity":90,"Duration":419579,"SoundDuration":419579,"Delta":399985795},{"NoteNumber":80,"Velocity":90,"Duration":419579,"SoundDuration":419579,"Delta":399985795},{"NoteNumber":92,"Velocity":106,"Duration":419579,"SoundDuration":419579,"Delta":399985795},{"NoteNumber":86,"Velocity":90,"Duration":419579,"SoundDuration":419579,"Delta":399985795},{"NoteNumber":47,"Velocity":68,"Duration":209789,"SoundDuration":209789,"Delta":400195585},{"NoteNumber":79,"Velocity":73,"Duration":104894,"SoundDuration":104894,"Delta":400405375},{"NoteNumber":91,"Velocity":87,"Duration":104894,"SoundDuration":104894,"Delta":400405375},{"NoteNumber":59,"Velocity":73,"Duration":209789,"SoundDuration":209789,"Delta":400405375},{"NoteNumber":53,"Velocity":62,"Duration":209789,"SoundDuration":209789,"Delta":400405375},{"NoteNumber":77,"Velocity":70,"Duration":110326,"SoundDuration":110326,"Delta":400615165},{"NoteNumber":89,"Velocity":83,"Duration":110326,"SoundDuration":110326,"Delta":400615165},{"NoteNumber":47,"Velocity":68,"Duration":220653,"SoundDuration":220653,"Delta":400615165},{"NoteNumber":66,"Velocity":77,"Duration":210762,"SoundDuration":210762,"Delta":400835818},{"NoteNumber":78,"Velocity":91,"Duration":210762,"SoundDuration":210762,"Delta":400835818},{"NoteNumber":67,"Velocity":73,"Duration":220653,"SoundDuration":220653,"Delta":401046581},{"NoteNumber":79,"Velocity":86,"Duration":220653,"SoundDuration":220653,"Delta":401046581},{"NoteNumber":41,"Velocity":68,"Duration":220653,"SoundDuration":220653,"Delta":401046581},{"NoteNumber":53,"Velocity":73,"Duration":220652,"SoundDuration":220652,"Delta":401267234},{"NoteNumber":47,"Velocity":62,"Duration":220652,"SoundDuration":220652,"Delta":401267234},{"NoteNumber":86,"Velocity":80,"Duration":200972,"SoundDuration":200972,"Delta":401487887},{"NoteNumber":92,"Velocity":95,"Duration":200972,"SoundDuration":200972,"Delta":401487887},{"NoteNumber":80,"Velocity":80,"Duration":200972,"SoundDuration":200972,"Delta":401487887},{"NoteNumber":83,"Velocity":80,"Duration":200972,"SoundDuration":200972,"Delta":401487887},{"NoteNumber":41,"Velocity":69,"Duration":211550,"SoundDuration":211550,"Delta":401487887},{"NoteNumber":80,"Velocity":90,"Duration":418117,"SoundDuration":418117,"Delta":401699438},{"NoteNumber":92,"Velocity":106,"Duration":418117,"SoundDuration":418117,"Delta":401699438},{"NoteNumber":86,"Velocity":90,"Duration":418117,"SoundDuration":418117,"Delta":401699438},{"NoteNumber":83,"Velocity":90,"Duration":418117,"SoundDuration":418117,"Delta":401699438},{"NoteNumber":47,"Velocity":68,"Duration":209058,"SoundDuration":209058,"Delta":401908497},{"NoteNumber":79,"Velocity":73,"Duration":104529,"SoundDuration":104529,"Delta":402117556},{"NoteNumber":91,"Velocity":87,"Duration":104529,"SoundDuration":104529,"Delta":402117556},{"NoteNumber":59,"Velocity":73,"Duration":209059,"SoundDuration":209059,"Delta":402117556},{"NoteNumber":53,"Velocity":62,"Duration":209059,"SoundDuration":209059,"Delta":402117556},{"NoteNumber":89,"Velocity":83,"Duration":110326,"SoundDuration":110326,"Delta":402326615},{"NoteNumber":77,"Velocity":70,"Duration":110326,"SoundDuration":110326,"Delta":402326615},{"NoteNumber":47,"Velocity":68,"Duration":220653,"SoundDuration":220653,"Delta":402326615},{"NoteNumber":80,"Velocity":91,"Duration":210762,"SoundDuration":210762,"Delta":402547268},{"NoteNumber":68,"Velocity":77,"Duration":210762,"SoundDuration":210762,"Delta":402547268},{"NoteNumber":82,"Velocity":86,"Duration":220653,"SoundDuration":220653,"Delta":402758031},{"NoteNumber":70,"Velocity":73,"Duration":220653,"SoundDuration":220653,"Delta":402758031},{"NoteNumber":40,"Velocity":68,"Duration":220653,"SoundDuration":220653,"Delta":402758031},{"NoteNumber":52,"Velocity":73,"Duration":220652,"SoundDuration":220652,"Delta":402978684},{"NoteNumber":42,"Velocity":62,"Duration":220652,"SoundDuration":220652,"Delta":402978684},{"NoteNumber":90,"Velocity":80,"Duration":200972,"SoundDuration":200972,"Delta":403199337},{"NoteNumber":83,"Velocity":80,"Duration":200972,"SoundDuration":200972,"Delta":403199337},{"NoteNumber":95,"Velocity":95,"Duration":200972,"SoundDuration":200972,"Delta":403199337},{"NoteNumber":40,"Velocity":69,"Duration":211550,"SoundDuration":211550,"Delta":403199337},{"NoteNumber":90,"Velocity":90,"Duration":422534,"SoundDuration":422534,"Delta":403410887},{"NoteNumber":95,"Velocity":106,"Duration":422534,"SoundDuration":422534,"Delta":403410887},{"NoteNumber":83,"Velocity":90,"Duration":422534,"SoundDuration":422534,"Delta":403410887},{"NoteNumber":38,"Velocity":68,"Duration":211267,"SoundDuration":211267,"Delta":403622155},{"NoteNumber":90,"Velocity":87,"Duration":105633,"SoundDuration":105633,"Delta":403833422},{"NoteNumber":78,"Velocity":73,"Duration":105633,"SoundDuration":105633,"Delta":403833422},{"NoteNumber":50,"Velocity":73,"Duration":211267,"SoundDuration":211267,"Delta":403833422},{"NoteNumber":42,"Velocity":62,"Duration":211267,"SoundDuration":211267,"Delta":403833422},{"NoteNumber":74,"Velocity":70,"Duration":110326,"SoundDuration":110326,"Delta":404044690},{"NoteNumber":86,"Velocity":83,"Duration":110326,"SoundDuration":110326,"Delta":404044690},{"NoteNumber":38,"Velocity":68,"Duration":220653,"SoundDuration":220653,"Delta":404044690},{"NoteNumber":71,"Velocity":77,"Duration":210762,"SoundDuration":210762,"Delta":404265343},{"NoteNumber":83,"Velocity":91,"Duration":210762,"SoundDuration":210762,"Delta":404265343},{"NoteNumber":73,"Velocity":73,"Duration":220653,"SoundDuration":220653,"Delta":404476106},{"NoteNumber":85,"Velocity":86,"Duration":220653,"SoundDuration":220653,"Delta":404476106},{"NoteNumber":37,"Velocity":68,"Duration":220653,"SoundDuration":220653,"Delta":404476106},{"NoteNumber":49,"Velocity":73,"Duration":220652,"SoundDuration":220652,"Delta":404696759},{"NoteNumber":42,"Velocity":62,"Duration":220652,"SoundDuration":220652,"Delta":404696759},{"NoteNumber":90,"Velocity":92,"Duration":200972,"SoundDuration":200972,"Delta":404917412},{"NoteNumber":98,"Velocity":109,"Duration":200972,"SoundDuration":200972,"Delta":404917412},{"NoteNumber":86,"Velocity":92,"Duration":200972,"SoundDuration":200972,"Delta":404917412},{"NoteNumber":37,"Velocity":69,"Duration":211550,"SoundDuration":211550,"Delta":404917412},{"NoteNumber":86,"Velocity":103,"Duration":423101,"SoundDuration":423101,"Delta":405128962},{"NoteNumber":98,"Velocity":121,"Duration":423101,"SoundDuration":423101,"Delta":405128962},{"NoteNumber":90,"Velocity":103,"Duration":423101,"SoundDuration":423101,"Delta":405128962},{"NoteNumber":35,"Velocity":68,"Duration":211550,"SoundDuration":211550,"Delta":405340513},{"NoteNumber":95,"Velocity":100,"Duration":105775,"SoundDuration":105775,"Delta":405552063},{"NoteNumber":83,"Velocity":83,"Duration":105775,"SoundDuration":105775,"Delta":405552063},{"NoteNumber":50,"Velocity":73,"Duration":211550,"SoundDuration":211550,"Delta":405552063},{"NoteNumber":42,"Velocity":62,"Duration":211550,"SoundDuration":211550,"Delta":405552063},{"NoteNumber":90,"Velocity":95,"Duration":117646,"SoundDuration":117646,"Delta":405763614},{"NoteNumber":78,"Velocity":80,"Duration":117646,"SoundDuration":117646,"Delta":405763614},{"NoteNumber":35,"Velocity":68,"Duration":176470,"SoundDuration":176470,"Delta":405763614},{"NoteNumber":64,"Velocity":74,"Duration":482073,"SoundDuration":482073,"Delta":405954790},{"NoteNumber":67,"Velocity":77,"Duration":467367,"SoundDuration":467367,"Delta":405969496},{"NoteNumber":71,"Velocity":81,"Duration":452661,"SoundDuration":452661,"Delta":405984202},{"NoteNumber":95,"Velocity":109,"Duration":437955,"SoundDuration":437955,"Delta":405998908},{"NoteNumber":88,"Velocity":92,"Duration":437955,"SoundDuration":437955,"Delta":405998908},{"NoteNumber":91,"Velocity":92,"Duration":437955,"SoundDuration":437955,"Delta":405998908},{"NoteNumber":100,"Velocity":109,"Duration":437955,"SoundDuration":437955,"Delta":405998908},{"NoteNumber":76,"Velocity":84,"Duration":437955,"SoundDuration":437955,"Delta":405998908},{"NoteNumber":37,"Velocity":78,"Duration":218977,"SoundDuration":218977,"Delta":406436864},{"NoteNumber":49,"Velocity":92,"Duration":218977,"SoundDuration":218977,"Delta":406436864},{"NoteNumber":62,"Velocity":75,"Duration":480249,"SoundDuration":480249,"Delta":406839112},{"NoteNumber":67,"Velocity":78,"Duration":466151,"SoundDuration":466151,"Delta":406853210},{"NoteNumber":71,"Velocity":81,"Duration":452053,"SoundDuration":452053,"Delta":406867308},{"NoteNumber":91,"Velocity":92,"Duration":437955,"SoundDuration":437955,"Delta":406881406},{"NoteNumber":86,"Velocity":92,"Duration":437955,"SoundDuration":437955,"Delta":406881406},{"NoteNumber":98,"Velocity":109,"Duration":437955,"SoundDuration":437955,"Delta":406881406},{"NoteNumber":95,"Velocity":109,"Duration":437955,"SoundDuration":437955,"Delta":406881406},{"NoteNumber":74,"Velocity":84,"Duration":437955,"SoundDuration":437955,"Delta":406881406},{"NoteNumber":38,"Velocity":78,"Duration":218977,"SoundDuration":218977,"Delta":407319362},{"NoteNumber":50,"Velocity":92,"Duration":218977,"SoundDuration":218977,"Delta":407319362},{"NoteNumber":61,"Velocity":74,"Duration":489035,"SoundDuration":489035,"Delta":407724408},{"NoteNumber":67,"Velocity":77,"Duration":474722,"SoundDuration":474722,"Delta":407738721},{"NoteNumber":71,"Velocity":81,"Duration":460409,"SoundDuration":460409,"Delta":407753034},{"NoteNumber":95,"Velocity":109,"Duration":446097,"SoundDuration":446097,"Delta":407767347},{"NoteNumber":91,"Velocity":92,"Duration":446097,"SoundDuration":446097,"Delta":407767347},{"NoteNumber":85,"Velocity":92,"Duration":446097,"SoundDuration":446097,"Delta":407767347},{"NoteNumber":97,"Velocity":109,"Duration":446097,"SoundDuration":446097,"Delta":407767347},{"NoteNumber":73,"Velocity":84,"Duration":446097,"SoundDuration":446097,"Delta":407767347},{"NoteNumber":40,"Velocity":78,"Duration":223048,"SoundDuration":223048,"Delta":408213444},{"NoteNumber":52,"Velocity":92,"Duration":223048,"SoundDuration":223048,"Delta":408213444},{"NoteNumber":58,"Velocity":75,"Duration":499907,"SoundDuration":499907,"Delta":408633065},{"NoteNumber":61,"Velocity":78,"Duration":484786,"SoundDuration":484786,"Delta":408648186},{"NoteNumber":66,"Velocity":81,"Duration":469665,"SoundDuration":469665,"Delta":408663307},{"NoteNumber":94,"Velocity":109,"Duration":454544,"SoundDuration":454544,"Delta":408678428},{"NoteNumber":85,"Velocity":92,"Duration":454544,"SoundDuration":454544,"Delta":408678428},{"NoteNumber":82,"Velocity":92,"Duration":454544,"SoundDuration":454544,"Delta":408678428},{"NoteNumber":90,"Velocity":109,"Duration":454544,"SoundDuration":454544,"Delta":408678428},{"NoteNumber":70,"Velocity":84,"Duration":454544,"SoundDuration":454544,"Delta":408678428},{"NoteNumber":30,"Velocity":78,"Duration":227272,"SoundDuration":227272,"Delta":409132973},{"NoteNumber":42,"Velocity":92,"Duration":227272,"SoundDuration":227272,"Delta":409132973},{"NoteNumber":35,"Velocity":79,"Duration":853805,"SoundDuration":853805,"Delta":409605144},{"NoteNumber":47,"Velocity":93,"Duration":853805,"SoundDuration":853805,"Delta":409605144},{"NoteNumber":50,"Velocity":80,"Duration":140508,"SoundDuration":140508,"Delta":410037423},{"NoteNumber":59,"Velocity":71,"Duration":140508,"SoundDuration":140508,"Delta":410177932},{"NoteNumber":66,"Velocity":71,"Duration":140508,"SoundDuration":140508,"Delta":410318440},{"NoteNumber":66,"Velocity":81,"Duration":210762,"SoundDuration":210762,"Delta":410458949},{"NoteNumber":37,"Velocity":75,"Duration":632288,"SoundDuration":632288,"Delta":410458949},{"NoteNumber":49,"Velocity":90,"Duration":632288,"SoundDuration":632288,"Delta":410458949},{"NoteNumber":78,"Velocity":73,"Duration":210762,"SoundDuration":210762,"Delta":410669712},{"NoteNumber":70,"Velocity":79,"Duration":210762,"SoundDuration":210762,"Delta":410880475},{"NoteNumber":71,"Velocity":74,"Duration":219097,"SoundDuration":219097,"Delta":411091238},{"NoteNumber":50,"Velocity":72,"Duration":196770,"SoundDuration":196770,"Delta":411091238},{"NoteNumber":38,"Velocity":59,"Duration":196770,"SoundDuration":196770,"Delta":411091238},{"NoteNumber":38,"Velocity":79,"Duration":853805,"SoundDuration":853805,"Delta":411310335},{"NoteNumber":50,"Velocity":93,"Duration":853805,"SoundDuration":853805,"Delta":411310335},{"NoteNumber":54,"Velocity":80,"Duration":140508,"SoundDuration":140508,"Delta":411742615},{"NoteNumber":59,"Velocity":71,"Duration":140508,"SoundDuration":140508,"Delta":411883123},{"NoteNumber":66,"Velocity":71,"Duration":140508,"SoundDuration":140508,"Delta":412023632},{"NoteNumber":66,"Velocity":81,"Duration":210762,"SoundDuration":210762,"Delta":412164141},{"NoteNumber":40,"Velocity":75,"Duration":632288,"SoundDuration":632288,"Delta":412164141},{"NoteNumber":52,"Velocity":90,"Duration":632288,"SoundDuration":632288,"Delta":412164141},{"NoteNumber":78,"Velocity":73,"Duration":210762,"SoundDuration":210762,"Delta":412374904},{"NoteNumber":73,"Velocity":79,"Duration":210762,"SoundDuration":210762,"Delta":412585667},{"NoteNumber":74,"Velocity":74,"Duration":219097,"SoundDuration":219097,"Delta":412796430},{"NoteNumber":54,"Velocity":72,"Duration":219097,"SoundDuration":219097,"Delta":412796430},{"NoteNumber":42,"Velocity":59,"Duration":219097,"SoundDuration":219097,"Delta":412796430},{"NoteNumber":45,"Velocity":79,"Duration":440902,"SoundDuration":440902,"Delta":413015527},{"NoteNumber":57,"Velocity":93,"Duration":440902,"SoundDuration":440902,"Delta":413015527},{"NoteNumber":71,"Velocity":80,"Duration":141843,"SoundDuration":141843,"Delta":413456430},{"NoteNumber":83,"Velocity":75,"Duration":124113,"SoundDuration":124113,"Delta":413598274},{"NoteNumber":64,"Velocity":86,"Duration":191489,"SoundDuration":191489,"Delta":413669196},{"NoteNumber":59,"Velocity":73,"Duration":191489,"SoundDuration":191489,"Delta":413669196},{"NoteNumber":83,"Velocity":75,"Duration":141843,"SoundDuration":141843,"Delta":413740118},{"NoteNumber":95,"Velocity":80,"Duration":141844,"SoundDuration":141844,"Delta":413881962},{"NoteNumber":55,"Velocity":79,"Duration":1292829,"SoundDuration":1292829,"Delta":413881962},{"NoteNumber":64,"Velocity":93,"Duration":425532,"SoundDuration":425532,"Delta":413881962},{"NoteNumber":59,"Velocity":79,"Duration":425532,"SoundDuration":425532,"Delta":413881962},{"NoteNumber":94,"Velocity":76,"Duration":141843,"SoundDuration":141843,"Delta":414023806},{"NoteNumber":97,"Velocity":76,"Duration":141843,"SoundDuration":141843,"Delta":414165650},{"NoteNumber":95,"Velocity":80,"Duration":141843,"SoundDuration":141843,"Delta":414307494},{"NoteNumber":63,"Velocity":75,"Duration":106382,"SoundDuration":106382,"Delta":414307494},{"NoteNumber":66,"Velocity":89,"Duration":106382,"SoundDuration":106382,"Delta":414307494},{"NoteNumber":91,"Velocity":75,"Duration":141843,"SoundDuration":141843,"Delta":414449338},{"NoteNumber":67,"Velocity":85,"Duration":109681,"SoundDuration":109681,"Delta":414520260},{"NoteNumber":64,"Velocity":72,"Duration":109681,"SoundDuration":109681,"Delta":414520260},{"NoteNumber":88,"Velocity":74,"Duration":155038,"SoundDuration":155038,"Delta":414591182},{"NoteNumber":82,"Velocity":80,"Duration":142856,"SoundDuration":142856,"Delta":414746220},{"NoteNumber":67,"Velocity":93,"Duration":428570,"SoundDuration":428570,"Delta":414746220},{"NoteNumber":64,"Velocity":79,"Duration":428570,"SoundDuration":428570,"Delta":414746220},{"NoteNumber":85,"Velocity":75,"Duration":142856,"SoundDuration":142856,"Delta":414889077},{"NoteNumber":82,"Velocity":76,"Duration":142856,"SoundDuration":142856,"Delta":415031934},{"NoteNumber":69,"Velocity":80,"Duration":107142,"SoundDuration":107142,"Delta":415174791},{"NoteNumber":79,"Velocity":80,"Duration":142857,"SoundDuration":142857,"Delta":415174791},{"NoteNumber":40,"Velocity":62,"Duration":214285,"SoundDuration":214285,"Delta":415174791},{"NoteNumber":52,"Velocity":74,"Duration":214285,"SoundDuration":214285,"Delta":415174791},{"NoteNumber":82,"Velocity":76,"Duration":146334,"SoundDuration":146334,"Delta":415317648},{"NoteNumber":70,"Velocity":75,"Duration":112359,"SoundDuration":112359,"Delta":415389077},{"NoteNumber":79,"Velocity":80,"Duration":131086,"SoundDuration":131086,"Delta":415463983},{"NoteNumber":79,"Velocity":86,"Duration":141843,"SoundDuration":141843,"Delta":415613796},{"NoteNumber":70,"Velocity":86,"Duration":425531,"SoundDuration":425531,"Delta":415613796},{"NoteNumber":37,"Velocity":69,"Duration":212765,"SoundDuration":212765,"Delta":415613796},{"NoteNumber":49,"Velocity":82,"Duration":212765,"SoundDuration":212765,"Delta":415613796},{"NoteNumber":82,"Velocity":77,"Duration":141843,"SoundDuration":141843,"Delta":415755640},{"NoteNumber":79,"Velocity":77,"Duration":141843,"SoundDuration":141843,"Delta":415897484},{"NoteNumber":71,"Velocity":80,"Duration":106383,"SoundDuration":106383,"Delta":416039328},{"NoteNumber":76,"Velocity":80,"Duration":141844,"SoundDuration":141844,"Delta":416039328},{"NoteNumber":33,"Velocity":64,"Duration":212766,"SoundDuration":212766,"Delta":416039328},{"NoteNumber":45,"Velocity":76,"Duration":212766,"SoundDuration":212766,"Delta":416039328},{"NoteNumber":79,"Velocity":76,"Duration":144722,"SoundDuration":144722,"Delta":416181172},{"NoteNumber":73,"Velocity":76,"Duration":110701,"SoundDuration":110701,"Delta":416252094},{"NoteNumber":76,"Velocity":80,"Duration":147601,"SoundDuration":147601,"Delta":416325894},{"NoteNumber":74,"Velocity":93,"Duration":853805,"SoundDuration":853805,"Delta":416473496},{"NoteNumber":62,"Velocity":79,"Duration":853805,"SoundDuration":853805,"Delta":416473496},{"NoteNumber":66,"Velocity":79,"Duration":853805,"SoundDuration":853805,"Delta":416473496},{"NoteNumber":38,"Velocity":68,"Duration":140508,"SoundDuration":140508,"Delta":416905775},{"NoteNumber":45,"Velocity":60,"Duration":140508,"SoundDuration":140508,"Delta":417046284},{"NoteNumber":50,"Velocity":60,"Duration":122945,"SoundDuration":122945,"Delta":417186793},{"NoteNumber":64,"Velocity":75,"Duration":632288,"SoundDuration":632288,"Delta":417327301},{"NoteNumber":76,"Velocity":90,"Duration":632288,"SoundDuration":632288,"Delta":417327301},{"NoteNumber":69,"Velocity":75,"Duration":632288,"SoundDuration":632288,"Delta":417327301},{"NoteNumber":50,"Velocity":68,"Duration":210762,"SoundDuration":210762,"Delta":417327301},{"NoteNumber":62,"Velocity":62,"Duration":210762,"SoundDuration":210762,"Delta":417538064},{"NoteNumber":56,"Velocity":67,"Duration":210762,"SoundDuration":210762,"Delta":417748827},{"NoteNumber":69,"Velocity":59,"Duration":196770,"SoundDuration":196770,"Delta":417959590},{"NoteNumber":66,"Velocity":59,"Duration":196770,"SoundDuration":196770,"Delta":417959590},{"NoteNumber":78,"Velocity":72,"Duration":196770,"SoundDuration":196770,"Delta":417959590},{"NoteNumber":57,"Velocity":62,"Duration":219097,"SoundDuration":219097,"Delta":417959590},{"NoteNumber":66,"Velocity":79,"Duration":853805,"SoundDuration":853805,"Delta":418178687},{"NoteNumber":69,"Velocity":79,"Duration":853805,"SoundDuration":853805,"Delta":418178687},{"NoteNumber":78,"Velocity":93,"Duration":853805,"SoundDuration":853805,"Delta":418178687},{"NoteNumber":38,"Velocity":68,"Duration":140508,"SoundDuration":140508,"Delta":418610967},{"NoteNumber":45,"Velocity":60,"Duration":140508,"SoundDuration":140508,"Delta":418751475},{"NoteNumber":50,"Velocity":60,"Duration":122945,"SoundDuration":122945,"Delta":418891984},{"NoteNumber":67,"Velocity":75,"Duration":632288,"SoundDuration":632288,"Delta":419032493},{"NoteNumber":79,"Velocity":90,"Duration":632288,"SoundDuration":632288,"Delta":419032493},{"NoteNumber":74,"Velocity":75,"Duration":614725,"SoundDuration":614725,"Delta":419032493},{"NoteNumber":50,"Velocity":68,"Duration":210762,"SoundDuration":210762,"Delta":419032493},{"NoteNumber":62,"Velocity":62,"Duration":210762,"SoundDuration":210762,"Delta":419243256},{"NoteNumber":53,"Velocity":67,"Duration":210762,"SoundDuration":210762,"Delta":419454019},{"NoteNumber":74,"Velocity":59,"Duration":219097,"SoundDuration":219097,"Delta":419664782},{"NoteNumber":69,"Velocity":59,"Duration":219097,"SoundDuration":219097,"Delta":419664782},{"NoteNumber":81,"Velocity":72,"Duration":219097,"SoundDuration":219097,"Delta":419664782},{"NoteNumber":54,"Velocity":62,"Duration":219097,"SoundDuration":219097,"Delta":419664782},{"NoteNumber":85,"Velocity":93,"Duration":440902,"SoundDuration":440902,"Delta":419883879},{"NoteNumber":73,"Velocity":79,"Duration":440902,"SoundDuration":440902,"Delta":419883879},{"NoteNumber":44,"Velocity":68,"Duration":141843,"SoundDuration":141843,"Delta":420324782},{"NoteNumber":56,"Velocity":63,"Duration":124113,"SoundDuration":124113,"Delta":420466626},{"NoteNumber":74,"Velocity":73,"Duration":191489,"SoundDuration":191489,"Delta":420537548},{"NoteNumber":86,"Velocity":86,"Duration":191489,"SoundDuration":191489,"Delta":420537548},{"NoteNumber":56,"Velocity":63,"Duration":141843,"SoundDuration":141843,"Delta":420608470},{"NoteNumber":86,"Velocity":93,"Duration":420378,"SoundDuration":420378,"Delta":420750314},{"NoteNumber":83,"Velocity":79,"Duration":852233,"SoundDuration":852233,"Delta":420750314},{"NoteNumber":74,"Velocity":79,"Duration":420378,"SoundDuration":420378,"Delta":420750314},{"NoteNumber":68,"Velocity":68,"Duration":141844,"SoundDuration":141844,"Delta":420750314},{"NoteNumber":66,"Velocity":64,"Duration":140126,"SoundDuration":140126,"Delta":420892158},{"NoteNumber":68,"Velocity":64,"Duration":121107,"SoundDuration":121107,"Delta":421032284},{"NoteNumber":76,"Velocity":75,"Duration":103806,"SoundDuration":103806,"Delta":421170692},{"NoteNumber":88,"Velocity":89,"Duration":103806,"SoundDuration":103806,"Delta":421170692},{"NoteNumber":68,"Velocity":68,"Duration":138408,"SoundDuration":138408,"Delta":421170692},{"NoteNumber":65,"Velocity":63,"Duration":138408,"SoundDuration":138408,"Delta":421309101},{"NoteNumber":89,"Velocity":85,"Duration":107963,"SoundDuration":107963,"Delta":421378305},{"NoteNumber":77,"Velocity":72,"Duration":107963,"SoundDuration":107963,"Delta":421378305},{"NoteNumber":62,"Velocity":62,"Duration":155038,"SoundDuration":155038,"Delta":421447509},{"NoteNumber":86,"Velocity":79,"Duration":428539,"SoundDuration":428539,"Delta":421602548},{"NoteNumber":77,"Velocity":79,"Duration":428539,"SoundDuration":428539,"Delta":421602548},{"NoteNumber":89,"Velocity":93,"Duration":428539,"SoundDuration":428539,"Delta":421602548},{"NoteNumber":59,"Velocity":68,"Duration":142856,"SoundDuration":142856,"Delta":421602548},{"NoteNumber":56,"Velocity":63,"Duration":142856,"SoundDuration":142856,"Delta":421745405},{"NoteNumber":53,"Velocity":63,"Duration":142825,"SoundDuration":142825,"Delta":421888262},{"NoteNumber":87,"Velocity":75,"Duration":106382,"SoundDuration":106382,"Delta":422031087},{"NoteNumber":91,"Velocity":89,"Duration":106382,"SoundDuration":106382,"Delta":422031087},{"NoteNumber":79,"Velocity":75,"Duration":106382,"SoundDuration":106382,"Delta":422031087},{"NoteNumber":49,"Velocity":68,"Duration":141843,"SoundDuration":141843,"Delta":422031087},{"NoteNumber":53,"Velocity":63,"Duration":141843,"SoundDuration":141843,"Delta":422172931},{"NoteNumber":92,"Velocity":85,"Duration":109681,"SoundDuration":109681,"Delta":422243853},{"NoteNumber":80,"Velocity":72,"Duration":109681,"SoundDuration":109681,"Delta":422243853},{"NoteNumber":89,"Velocity":72,"Duration":109681,"SoundDuration":109681,"Delta":422243853},{"NoteNumber":49,"Velocity":62,"Duration":155038,"SoundDuration":155038,"Delta":422314775},{"NoteNumber":89,"Velocity":79,"Duration":374999,"SoundDuration":374999,"Delta":422469814},{"NoteNumber":80,"Velocity":79,"Duration":374999,"SoundDuration":374999,"Delta":422469814},{"NoteNumber":92,"Velocity":93,"Duration":374999,"SoundDuration":374999,"Delta":422469814},{"NoteNumber":47,"Velocity":68,"Duration":142856,"SoundDuration":142856,"Delta":422469814},{"NoteNumber":49,"Velocity":62,"Duration":142856,"SoundDuration":142856,"Delta":422612671},{"NoteNumber":47,"Velocity":62,"Duration":142825,"SoundDuration":142825,"Delta":422755528},{"NoteNumber":85,"Velocity":81,"Duration":465678,"SoundDuration":465678,"Delta":422858206},{"NoteNumber":89,"Velocity":85,"Duration":452286,"SoundDuration":452286,"Delta":422871599},{"NoteNumber":92,"Velocity":88,"Duration":438893,"SoundDuration":438893,"Delta":422884992},{"NoteNumber":97,"Velocity":92,"Duration":425531,"SoundDuration":425531,"Delta":422898353},{"NoteNumber":44,"Velocity":68,"Duration":141843,"SoundDuration":141843,"Delta":422898353},{"NoteNumber":47,"Velocity":61,"Duration":141843,"SoundDuration":141843,"Delta":423040197},{"NoteNumber":44,"Velocity":60,"Duration":141843,"SoundDuration":141843,"Delta":423182041},{"NoteNumber":42,"Velocity":79,"Duration":853805,"SoundDuration":853805,"Delta":423323885},{"NoteNumber":54,"Velocity":93,"Duration":853805,"SoundDuration":853805,"Delta":423323885},{"NoteNumber":57,"Velocity":80,"Duration":140508,"SoundDuration":140508,"Delta":423756164},{"NoteNumber":66,"Velocity":71,"Duration":140508,"SoundDuration":140508,"Delta":423896673},{"NoteNumber":73,"Velocity":71,"Duration":122945,"SoundDuration":122945,"Delta":424037182},{"NoteNumber":73,"Velocity":81,"Duration":210762,"SoundDuration":210762,"Delta":424177690},{"NoteNumber":44,"Velocity":75,"Duration":632288,"SoundDuration":632288,"Delta":424177690},{"NoteNumber":56,"Velocity":90,"Duration":632288,"SoundDuration":632288,"Delta":424177690},{"NoteNumber":85,"Velocity":73,"Duration":210762,"SoundDuration":210762,"Delta":424388453},{"NoteNumber":77,"Velocity":79,"Duration":210762,"SoundDuration":210762,"Delta":424599216},{"NoteNumber":78,"Velocity":74,"Duration":219097,"SoundDuration":219097,"Delta":424809979},{"NoteNumber":57,"Velocity":72,"Duration":196770,"SoundDuration":196770,"Delta":424809979},{"NoteNumber":45,"Velocity":59,"Duration":196770,"SoundDuration":196770,"Delta":424809979},{"NoteNumber":45,"Velocity":79,"Duration":853805,"SoundDuration":853805,"Delta":425029076},{"NoteNumber":57,"Velocity":93,"Duration":853805,"SoundDuration":853805,"Delta":425029076},{"NoteNumber":61,"Velocity":80,"Duration":140508,"SoundDuration":140508,"Delta":425461356},{"NoteNumber":66,"Velocity":71,"Duration":140508,"SoundDuration":140508,"Delta":425601865},{"NoteNumber":73,"Velocity":71,"Duration":122945,"SoundDuration":122945,"Delta":425742373},{"NoteNumber":73,"Velocity":81,"Duration":210762,"SoundDuration":210762,"Delta":425882882},{"NoteNumber":47,"Velocity":75,"Duration":632288,"SoundDuration":632288,"Delta":425882882},{"NoteNumber":59,"Velocity":90,"Duration":632288,"SoundDuration":632288,"Delta":425882882},{"NoteNumber":85,"Velocity":73,"Duration":210762,"SoundDuration":210762,"Delta":426093645},{"NoteNumber":80,"Velocity":79,"Duration":210762,"SoundDuration":210762,"Delta":426304408},{"NoteNumber":81,"Velocity":74,"Duration":219097,"SoundDuration":219097,"Delta":426515171},{"NoteNumber":61,"Velocity":72,"Duration":219097,"SoundDuration":219097,"Delta":426515171},{"NoteNumber":49,"Velocity":59,"Duration":219097,"SoundDuration":219097,"Delta":426515171},{"NoteNumber":52,"Velocity":79,"Duration":440902,"SoundDuration":440902,"Delta":426734268},{"NoteNumber":64,"Velocity":93,"Duration":440902,"SoundDuration":440902,"Delta":426734268},{"NoteNumber":66,"Velocity":80,"Duration":141843,"SoundDuration":141843,"Delta":427175171},{"NoteNumber":78,"Velocity":75,"Duration":124113,"SoundDuration":124113,"Delta":427317015},{"NoteNumber":69,"Velocity":77,"Duration":191489,"SoundDuration":191489,"Delta":427387937},{"NoteNumber":66,"Velocity":65,"Duration":191489,"SoundDuration":191489,"Delta":427387937},{"NoteNumber":78,"Velocity":75,"Duration":141843,"SoundDuration":141843,"Delta":427458859},{"NoteNumber":90,"Velocity":80,"Duration":141844,"SoundDuration":141844,"Delta":427600703},{"NoteNumber":62,"Velocity":71,"Duration":864258,"SoundDuration":864258,"Delta":427600703},{"NoteNumber":69,"Velocity":83,"Duration":425532,"SoundDuration":425532,"Delta":427600703},{"NoteNumber":66,"Velocity":71,"Duration":425532,"SoundDuration":425532,"Delta":427600703},{"NoteNumber":89,"Velocity":76,"Duration":141843,"SoundDuration":141843,"Delta":427742547},{"NoteNumber":91,"Velocity":76,"Duration":141843,"SoundDuration":141843,"Delta":427884391},{"NoteNumber":90,"Velocity":80,"Duration":141843,"SoundDuration":141843,"Delta":428026235},{"NoteNumber":67,"Velocity":67,"Duration":106382,"SoundDuration":106382,"Delta":428026235},{"NoteNumber":71,"Velocity":80,"Duration":106382,"SoundDuration":106382,"Delta":428026235},{"NoteNumber":84,"Velocity":75,"Duration":141843,"SoundDuration":141843,"Delta":428168079},{"NoteNumber":72,"Velocity":76,"Duration":109681,"SoundDuration":109681,"Delta":428239001},{"NoteNumber":69,"Velocity":64,"Duration":109681,"SoundDuration":109681,"Delta":428239001},{"NoteNumber":81,"Velocity":74,"Duration":155038,"SoundDuration":155038,"Delta":428309923},{"NoteNumber":78,"Velocity":80,"Duration":142856,"SoundDuration":142856,"Delta":428464962},{"NoteNumber":72,"Velocity":83,"Duration":428570,"SoundDuration":428570,"Delta":428464962},{"NoteNumber":69,"Velocity":71,"Duration":428570,"SoundDuration":428570,"Delta":428464962},{"NoteNumber":81,"Velocity":75,"Duration":142856,"SoundDuration":142856,"Delta":428607819},{"NoteNumber":78,"Velocity":76,"Duration":142856,"SoundDuration":142856,"Delta":428750676},{"NoteNumber":71,"Velocity":68,"Duration":142857,"SoundDuration":142857,"Delta":428893533},{"NoteNumber":79,"Velocity":80,"Duration":142857,"SoundDuration":142857,"Delta":428893533},{"NoteNumber":45,"Velocity":62,"Duration":214285,"SoundDuration":214285,"Delta":428893533},{"NoteNumber":57,"Velocity":74,"Duration":214285,"SoundDuration":214285,"Delta":428893533},{"NoteNumber":83,"Velocity":76,"Duration":146334,"SoundDuration":146334,"Delta":429036390},{"NoteNumber":72,"Velocity":68,"Duration":131086,"SoundDuration":131086,"Delta":429182724},{"NoteNumber":84,"Velocity":80,"Duration":149812,"SoundDuration":149812,"Delta":429182724},{"NoteNumber":81,"Velocity":68,"Duration":131086,"SoundDuration":131086,"Delta":429182724},{"NoteNumber":72,"Velocity":73,"Duration":141843,"SoundDuration":141843,"Delta":429332537},{"NoteNumber":81,"Velocity":86,"Duration":141843,"SoundDuration":141843,"Delta":429332537},{"NoteNumber":42,"Velocity":69,"Duration":212765,"SoundDuration":212765,"Delta":429332537},{"NoteNumber":54,"Velocity":82,"Duration":212765,"SoundDuration":212765,"Delta":429332537},{"NoteNumber":84,"Velocity":80,"Duration":141843,"SoundDuration":141843,"Delta":429474381},{"NoteNumber":72,"Velocity":70,"Duration":141843,"SoundDuration":141843,"Delta":429616225},{"NoteNumber":81,"Velocity":83,"Duration":141843,"SoundDuration":141843,"Delta":429616225},{"NoteNumber":83,"Velocity":89,"Duration":141844,"SoundDuration":141844,"Delta":429758069},{"NoteNumber":74,"Velocity":76,"Duration":141844,"SoundDuration":141844,"Delta":429758069},{"NoteNumber":38,"Velocity":70,"Duration":212766,"SoundDuration":212766,"Delta":429758069},{"NoteNumber":50,"Velocity":83,"Duration":212766,"SoundDuration":212766,"Delta":429758069},{"NoteNumber":86,"Velocity":88,"Duration":144722,"SoundDuration":144722,"Delta":429899913},{"NoteNumber":75,"Velocity":81,"Duration":147003,"SoundDuration":147003,"Delta":430044636},{"NoteNumber":84,"Velocity":81,"Duration":147003,"SoundDuration":147003,"Delta":430044636},{"NoteNumber":87,"Velocity":96,"Duration":147003,"SoundDuration":147003,"Delta":430044636},{"NoteNumber":36,"Velocity":83,"Duration":124246,"SoundDuration":124246,"Delta":430191640},{"NoteNumber":38,"Velocity":74,"Duration":123831,"SoundDuration":123831,"Delta":430315887},{"NoteNumber":36,"Velocity":83,"Duration":121552,"SoundDuration":121552,"Delta":430439718},{"NoteNumber":38,"Velocity":76,"Duration":119840,"SoundDuration":119840,"Delta":430562154},{"NoteNumber":36,"Velocity":83,"Duration":118972,"SoundDuration":118972,"Delta":430681994},{"NoteNumber":38,"Velocity":77,"Duration":119337,"SoundDuration":119337,"Delta":430801838},{"NoteNumber":36,"Velocity":83,"Duration":118689,"SoundDuration":118689,"Delta":430921175},{"NoteNumber":84,"Velocity":90,"Duration":424028,"SoundDuration":424028,"Delta":431039865},{"NoteNumber":72,"Velocity":76,"Duration":424028,"SoundDuration":424028,"Delta":431039865},{"NoteNumber":81,"Velocity":76,"Duration":424028,"SoundDuration":424028,"Delta":431039865},{"NoteNumber":60,"Velocity":66,"Duration":424028,"SoundDuration":424028,"Delta":431039865},{"NoteNumber":69,"Velocity":79,"Duration":424028,"SoundDuration":424028,"Delta":431039865},{"NoteNumber":86,"Velocity":87,"Duration":107527,"SoundDuration":107527,"Delta":431463893},{"NoteNumber":74,"Velocity":73,"Duration":107527,"SoundDuration":107527,"Delta":431463893},{"NoteNumber":83,"Velocity":73,"Duration":107527,"SoundDuration":107527,"Delta":431463893},{"NoteNumber":62,"Velocity":65,"Duration":107527,"SoundDuration":107527,"Delta":431463893},{"NoteNumber":71,"Velocity":78,"Duration":107527,"SoundDuration":107527,"Delta":431463893},{"NoteNumber":87,"Velocity":79,"Duration":111940,"SoundDuration":111940,"Delta":431678947},{"NoteNumber":75,"Velocity":67,"Duration":111940,"SoundDuration":111940,"Delta":431678947},{"NoteNumber":84,"Velocity":67,"Duration":111940,"SoundDuration":111940,"Delta":431678947},{"NoteNumber":63,"Velocity":61,"Duration":111940,"SoundDuration":111940,"Delta":431678947},{"NoteNumber":72,"Velocity":72,"Duration":111940,"SoundDuration":111940,"Delta":431678947},{"NoteNumber":36,"Velocity":83,"Duration":123680,"SoundDuration":123680,"Delta":431901664},{"NoteNumber":38,"Velocity":74,"Duration":123043,"SoundDuration":123043,"Delta":432025345},{"NoteNumber":36,"Velocity":83,"Duration":120662,"SoundDuration":120662,"Delta":432148388},{"NoteNumber":38,"Velocity":76,"Duration":118947,"SoundDuration":118947,"Delta":432269925},{"NoteNumber":36,"Velocity":83,"Duration":118512,"SoundDuration":118512,"Delta":432388872},{"NoteNumber":38,"Velocity":77,"Duration":118884,"SoundDuration":118884,"Delta":432508250},{"NoteNumber":36,"Velocity":83,"Duration":117335,"SoundDuration":117335,"Delta":432627134},{"NoteNumber":84,"Velocity":90,"Duration":424028,"SoundDuration":424028,"Delta":432744470},{"NoteNumber":72,"Velocity":76,"Duration":424028,"SoundDuration":424028,"Delta":432744470},{"NoteNumber":81,"Velocity":76,"Duration":424028,"SoundDuration":424028,"Delta":432744470},{"NoteNumber":60,"Velocity":66,"Duration":424028,"SoundDuration":424028,"Delta":432744470},{"NoteNumber":69,"Velocity":79,"Duration":424028,"SoundDuration":424028,"Delta":432744470},{"NoteNumber":83,"Velocity":73,"Duration":107527,"SoundDuration":107527,"Delta":433168498},{"NoteNumber":86,"Velocity":87,"Duration":107527,"SoundDuration":107527,"Delta":433168498},{"NoteNumber":74,"Velocity":73,"Duration":107527,"SoundDuration":107527,"Delta":433168498},{"NoteNumber":62,"Velocity":65,"Duration":107527,"SoundDuration":107527,"Delta":433168498},{"NoteNumber":71,"Velocity":78,"Duration":107527,"SoundDuration":107527,"Delta":433168498},{"NoteNumber":84,"Velocity":67,"Duration":111940,"SoundDuration":111940,"Delta":433383552},{"NoteNumber":87,"Velocity":79,"Duration":111940,"SoundDuration":111940,"Delta":433383552},{"NoteNumber":75,"Velocity":67,"Duration":111940,"SoundDuration":111940,"Delta":433383552},{"NoteNumber":63,"Velocity":61,"Duration":111940,"SoundDuration":111940,"Delta":433383552},{"NoteNumber":72,"Velocity":72,"Duration":111940,"SoundDuration":111940,"Delta":433383552},{"NoteNumber":36,"Velocity":74,"Duration":142292,"SoundDuration":142292,"Delta":433607433},{"NoteNumber":38,"Velocity":63,"Duration":140917,"SoundDuration":140917,"Delta":433749725},{"NoteNumber":36,"Velocity":68,"Duration":139626,"SoundDuration":139626,"Delta":433890643},{"NoteNumber":38,"Velocity":57,"Duration":138531,"SoundDuration":138531,"Delta":434030269},{"NoteNumber":36,"Velocity":61,"Duration":138408,"SoundDuration":138408,"Delta":434168801},{"NoteNumber":38,"Velocity":51,"Duration":138408,"SoundDuration":138408,"Delta":434307209},{"NoteNumber":36,"Velocity":54,"Duration":138408,"SoundDuration":138408,"Delta":434445617},{"NoteNumber":38,"Velocity":46,"Duration":138716,"SoundDuration":138716,"Delta":434584026},{"NoteNumber":36,"Velocity":48,"Duration":145178,"SoundDuration":145178,"Delta":434722742},{"NoteNumber":38,"Velocity":39,"Duration":148238,"SoundDuration":148238,"Delta":434867921},{"NoteNumber":36,"Velocity":41,"Duration":152217,"SoundDuration":152217,"Delta":435016159},{"NoteNumber":38,"Velocity":34,"Duration":156467,"SoundDuration":156467,"Delta":435168377},{"NoteNumber":88,"Velocity":50,"Duration":446097,"SoundDuration":446097,"Delta":435324844},{"NoteNumber":84,"Velocity":42,"Duration":446097,"SoundDuration":446097,"Delta":435324844},{"NoteNumber":76,"Velocity":42,"Duration":446097,"SoundDuration":446097,"Delta":435324844},{"NoteNumber":36,"Velocity":25,"Duration":446097,"SoundDuration":446097,"Delta":435324844},{"NoteNumber":86,"Velocity":45,"Duration":159010,"SoundDuration":159010,"Delta":435770941},{"NoteNumber":74,"Velocity":38,"Duration":159010,"SoundDuration":159010,"Delta":435770941},{"NoteNumber":83,"Velocity":38,"Duration":159010,"SoundDuration":159010,"Delta":435770941},{"NoteNumber":81,"Velocity":38,"Duration":167910,"SoundDuration":167910,"Delta":435982955},{"NoteNumber":84,"Velocity":45,"Duration":167910,"SoundDuration":167910,"Delta":435982955},{"NoteNumber":72,"Velocity":38,"Duration":167910,"SoundDuration":167910,"Delta":435982955},{"NoteNumber":84,"Velocity":50,"Duration":434782,"SoundDuration":434782,"Delta":436206836},{"NoteNumber":72,"Velocity":42,"Duration":434782,"SoundDuration":434782,"Delta":436206836},{"NoteNumber":81,"Velocity":42,"Duration":434782,"SoundDuration":434782,"Delta":436206836},{"NoteNumber":71,"Velocity":38,"Duration":158450,"SoundDuration":158450,"Delta":436641619},{"NoteNumber":83,"Velocity":45,"Duration":158450,"SoundDuration":158450,"Delta":436641619},{"NoteNumber":79,"Velocity":38,"Duration":158450,"SoundDuration":158450,"Delta":436641619},{"NoteNumber":81,"Velocity":45,"Duration":166666,"SoundDuration":166666,"Delta":436852886},{"NoteNumber":78,"Velocity":38,"Duration":166666,"SoundDuration":166666,"Delta":436852886},{"NoteNumber":69,"Velocity":38,"Duration":166666,"SoundDuration":166666,"Delta":436852886},{"NoteNumber":78,"Velocity":42,"Duration":446097,"SoundDuration":446097,"Delta":437075108},{"NoteNumber":69,"Velocity":42,"Duration":446097,"SoundDuration":446097,"Delta":437075108},{"NoteNumber":81,"Velocity":50,"Duration":446097,"SoundDuration":446097,"Delta":437075108},{"NoteNumber":76,"Velocity":37,"Duration":446097,"SoundDuration":446097,"Delta":437075108},{"NoteNumber":72,"Velocity":31,"Duration":446097,"SoundDuration":446097,"Delta":437075108},{"NoteNumber":64,"Velocity":31,"Duration":446097,"SoundDuration":446097,"Delta":437075108},{"NoteNumber":79,"Velocity":38,"Duration":159010,"SoundDuration":159010,"Delta":437521205},{"NoteNumber":83,"Velocity":45,"Duration":159010,"SoundDuration":159010,"Delta":437521205},{"NoteNumber":74,"Velocity":33,"Duration":159010,"SoundDuration":159010,"Delta":437521205},{"NoteNumber":71,"Velocity":28,"Duration":159010,"SoundDuration":159010,"Delta":437521205},{"NoteNumber":62,"Velocity":28,"Duration":159010,"SoundDuration":159010,"Delta":437521205},{"NoteNumber":81,"Velocity":38,"Duration":167910,"SoundDuration":167910,"Delta":437733219},{"NoteNumber":84,"Velocity":45,"Duration":167910,"SoundDuration":167910,"Delta":437733219},{"NoteNumber":72,"Velocity":33,"Duration":167910,"SoundDuration":167910,"Delta":437733219},{"NoteNumber":69,"Velocity":28,"Duration":167910,"SoundDuration":167910,"Delta":437733219},{"NoteNumber":60,"Velocity":28,"Duration":167910,"SoundDuration":167910,"Delta":437733219},{"NoteNumber":84,"Velocity":50,"Duration":434782,"SoundDuration":434782,"Delta":437957100},{"NoteNumber":81,"Velocity":42,"Duration":434782,"SoundDuration":434782,"Delta":437957100},{"NoteNumber":72,"Velocity":37,"Duration":434782,"SoundDuration":434782,"Delta":437957100},{"NoteNumber":64,"Velocity":31,"Duration":434782,"SoundDuration":434782,"Delta":437957100},{"NoteNumber":60,"Velocity":31,"Duration":434782,"SoundDuration":434782,"Delta":437957100},{"NoteNumber":86,"Velocity":45,"Duration":158450,"SoundDuration":158450,"Delta":438391883},{"NoteNumber":83,"Velocity":38,"Duration":158450,"SoundDuration":158450,"Delta":438391883},{"NoteNumber":71,"Velocity":33,"Duration":158450,"SoundDuration":158450,"Delta":438391883},{"NoteNumber":62,"Velocity":28,"Duration":158450,"SoundDuration":158450,"Delta":438391883},{"NoteNumber":59,"Velocity":28,"Duration":158450,"SoundDuration":158450,"Delta":438391883},{"NoteNumber":88,"Velocity":45,"Duration":166666,"SoundDuration":166666,"Delta":438603150},{"NoteNumber":84,"Velocity":38,"Duration":166666,"SoundDuration":166666,"Delta":438603150},{"NoteNumber":69,"Velocity":33,"Duration":166666,"SoundDuration":166666,"Delta":438603150},{"NoteNumber":60,"Velocity":28,"Duration":166666,"SoundDuration":166666,"Delta":438603150},{"NoteNumber":57,"Velocity":28,"Duration":166666,"SoundDuration":166666,"Delta":438603150},{"NoteNumber":88,"Velocity":49,"Duration":446097,"SoundDuration":446097,"Delta":438825372},{"NoteNumber":91,"Velocity":62,"Duration":446097,"SoundDuration":446097,"Delta":438825372},{"NoteNumber":69,"Velocity":37,"Duration":446097,"SoundDuration":446097,"Delta":438825372},{"NoteNumber":60,"Velocity":31,"Duration":446097,"SoundDuration":446097,"Delta":438825372},{"NoteNumber":57,"Velocity":31,"Duration":446097,"SoundDuration":446097,"Delta":438825372},{"NoteNumber":90,"Velocity":49,"Duration":159010,"SoundDuration":159010,"Delta":439271469},{"NoteNumber":86,"Velocity":41,"Duration":159010,"SoundDuration":159010,"Delta":439271469},{"NoteNumber":71,"Velocity":33,"Duration":159010,"SoundDuration":159010,"Delta":439271469},{"NoteNumber":62,"Velocity":28,"Duration":159010,"SoundDuration":159010,"Delta":439271469},{"NoteNumber":59,"Velocity":28,"Duration":159010,"SoundDuration":159010,"Delta":439271469},{"NoteNumber":84,"Velocity":41,"Duration":167910,"SoundDuration":167910,"Delta":439483483},{"NoteNumber":88,"Velocity":49,"Duration":167910,"SoundDuration":167910,"Delta":439483483},{"NoteNumber":72,"Velocity":33,"Duration":167910,"SoundDuration":167910,"Delta":439483483},{"NoteNumber":64,"Velocity":28,"Duration":167910,"SoundDuration":167910,"Delta":439483483},{"NoteNumber":60,"Velocity":28,"Duration":167910,"SoundDuration":167910,"Delta":439483483},{"NoteNumber":88,"Velocity":55,"Duration":434782,"SoundDuration":434782,"Delta":439707364},{"NoteNumber":84,"Velocity":46,"Duration":434782,"SoundDuration":434782,"Delta":439707364},{"NoteNumber":72,"Velocity":37,"Duration":434782,"SoundDuration":434782,"Delta":439707364},{"NoteNumber":64,"Velocity":31,"Duration":434782,"SoundDuration":434782,"Delta":439707364},{"NoteNumber":60,"Velocity":31,"Duration":434782,"SoundDuration":434782,"Delta":439707364},{"NoteNumber":86,"Velocity":49,"Duration":156794,"SoundDuration":156794,"Delta":440142147},{"NoteNumber":83,"Velocity":41,"Duration":156794,"SoundDuration":156794,"Delta":440142147},{"NoteNumber":74,"Velocity":33,"Duration":156794,"SoundDuration":156794,"Delta":440142147},{"NoteNumber":66,"Velocity":28,"Duration":156794,"SoundDuration":156794,"Delta":440142147},{"NoteNumber":62,"Velocity":28,"Duration":156794,"SoundDuration":156794,"Delta":440142147},{"NoteNumber":84,"Velocity":49,"Duration":166666,"SoundDuration":166666,"Delta":440351206},{"NoteNumber":81,"Velocity":41,"Duration":166666,"SoundDuration":166666,"Delta":440351206},{"NoteNumber":76,"Velocity":33,"Duration":166666,"SoundDuration":166666,"Delta":440351206},{"NoteNumber":67,"Velocity":28,"Duration":166666,"SoundDuration":166666,"Delta":440351206},{"NoteNumber":64,"Velocity":28,"Duration":166666,"SoundDuration":166666,"Delta":440351206},{"NoteNumber":84,"Velocity":50,"Duration":446097,"SoundDuration":446097,"Delta":440573428},{"NoteNumber":81,"Velocity":42,"Duration":446097,"SoundDuration":446097,"Delta":440573428},{"NoteNumber":79,"Velocity":37,"Duration":446097,"SoundDuration":446097,"Delta":440573428},{"NoteNumber":76,"Velocity":31,"Duration":446097,"SoundDuration":446097,"Delta":440573428},{"NoteNumber":67,"Velocity":31,"Duration":446097,"SoundDuration":446097,"Delta":440573428},{"NoteNumber":83,"Velocity":38,"Duration":160714,"SoundDuration":160714,"Delta":441019525},{"NoteNumber":86,"Velocity":45,"Duration":160714,"SoundDuration":160714,"Delta":441019525},{"NoteNumber":78,"Velocity":33,"Duration":160714,"SoundDuration":160714,"Delta":441019525},{"NoteNumber":74,"Velocity":28,"Duration":160714,"SoundDuration":160714,"Delta":441019525},{"NoteNumber":66,"Velocity":28,"Duration":160714,"SoundDuration":160714,"Delta":441019525},{"NoteNumber":84,"Velocity":38,"Duration":167910,"SoundDuration":167910,"Delta":441233810},{"NoteNumber":88,"Velocity":45,"Duration":167910,"SoundDuration":167910,"Delta":441233810},{"NoteNumber":76,"Velocity":33,"Duration":167910,"SoundDuration":167910,"Delta":441233810},{"NoteNumber":72,"Velocity":28,"Duration":167910,"SoundDuration":167910,"Delta":441233810},{"NoteNumber":64,"Velocity":28,"Duration":167910,"SoundDuration":167910,"Delta":441233810},{"NoteNumber":84,"Velocity":42,"Duration":434782,"SoundDuration":434782,"Delta":441457691},{"NoteNumber":88,"Velocity":50,"Duration":434782,"SoundDuration":434782,"Delta":441457691},{"NoteNumber":76,"Velocity":37,"Duration":434782,"SoundDuration":434782,"Delta":441457691},{"NoteNumber":72,"Velocity":31,"Duration":434782,"SoundDuration":434782,"Delta":441457691},{"NoteNumber":64,"Velocity":31,"Duration":434782,"SoundDuration":434782,"Delta":441457691},{"NoteNumber":86,"Velocity":41,"Duration":158450,"SoundDuration":158450,"Delta":441892474},{"NoteNumber":90,"Velocity":49,"Duration":158450,"SoundDuration":158450,"Delta":441892474},{"NoteNumber":74,"Velocity":33,"Duration":158450,"SoundDuration":158450,"Delta":441892474},{"NoteNumber":66,"Velocity":28,"Duration":158450,"SoundDuration":158450,"Delta":441892474},{"NoteNumber":62,"Velocity":28,"Duration":158450,"SoundDuration":158450,"Delta":441892474},{"NoteNumber":91,"Velocity":49,"Duration":166666,"SoundDuration":166666,"Delta":442103741},{"NoteNumber":88,"Velocity":41,"Duration":166666,"SoundDuration":166666,"Delta":442103741},{"NoteNumber":72,"Velocity":33,"Duration":166666,"SoundDuration":166666,"Delta":442103741},{"NoteNumber":64,"Velocity":28,"Duration":166666,"SoundDuration":166666,"Delta":442103741},{"NoteNumber":60,"Velocity":28,"Duration":166666,"SoundDuration":166666,"Delta":442103741},{"NoteNumber":91,"Velocity":53,"Duration":446097,"SoundDuration":446097,"Delta":442325963},{"NoteNumber":95,"Velocity":68,"Duration":446097,"SoundDuration":446097,"Delta":442325963},{"NoteNumber":72,"Velocity":37,"Duration":446097,"SoundDuration":446097,"Delta":442325963},{"NoteNumber":64,"Velocity":31,"Duration":446097,"SoundDuration":446097,"Delta":442325963},{"NoteNumber":60,"Velocity":31,"Duration":446097,"SoundDuration":446097,"Delta":442325963},{"NoteNumber":93,"Velocity":53,"Duration":158450,"SoundDuration":158450,"Delta":442772060},{"NoteNumber":90,"Velocity":45,"Duration":158450,"SoundDuration":158450,"Delta":442772060},{"NoteNumber":74,"Velocity":33,"Duration":158450,"SoundDuration":158450,"Delta":442772060},{"NoteNumber":66,"Velocity":28,"Duration":158450,"SoundDuration":158450,"Delta":442772060},{"NoteNumber":62,"Velocity":28,"Duration":158450,"SoundDuration":158450,"Delta":442772060},{"NoteNumber":91,"Velocity":53,"Duration":167910,"SoundDuration":167910,"Delta":442983328},{"NoteNumber":88,"Velocity":45,"Duration":167910,"SoundDuration":167910,"Delta":442983328},{"NoteNumber":76,"Velocity":33,"Duration":167910,"SoundDuration":167910,"Delta":442983328},{"NoteNumber":72,"Velocity":28,"Duration":167910,"SoundDuration":167910,"Delta":442983328},{"NoteNumber":64,"Velocity":28,"Duration":167910,"SoundDuration":167910,"Delta":442983328},{"NoteNumber":88,"Velocity":50,"Duration":434782,"SoundDuration":434782,"Delta":443207208},{"NoteNumber":91,"Velocity":60,"Duration":434782,"SoundDuration":434782,"Delta":443207208},{"NoteNumber":76,"Velocity":37,"Duration":434782,"SoundDuration":434782,"Delta":443207208},{"NoteNumber":72,"Velocity":31,"Duration":434782,"SoundDuration":434782,"Delta":443207208},{"NoteNumber":64,"Velocity":31,"Duration":434782,"SoundDuration":434782,"Delta":443207208},{"NoteNumber":90,"Velocity":53,"Duration":156794,"SoundDuration":156794,"Delta":443641991},{"NoteNumber":86,"Velocity":45,"Duration":156794,"SoundDuration":156794,"Delta":443641991},{"NoteNumber":78,"Velocity":33,"Duration":156794,"SoundDuration":156794,"Delta":443641991},{"NoteNumber":69,"Velocity":28,"Duration":156794,"SoundDuration":156794,"Delta":443641991},{"NoteNumber":66,"Velocity":28,"Duration":156794,"SoundDuration":156794,"Delta":443641991},{"NoteNumber":84,"Velocity":45,"Duration":166666,"SoundDuration":166666,"Delta":443851050},{"NoteNumber":88,"Velocity":53,"Duration":166666,"SoundDuration":166666,"Delta":443851050},{"NoteNumber":79,"Velocity":33,"Duration":166666,"SoundDuration":166666,"Delta":443851050},{"NoteNumber":71,"Velocity":28,"Duration":166666,"SoundDuration":166666,"Delta":443851050},{"NoteNumber":67,"Velocity":28,"Duration":166666,"SoundDuration":166666,"Delta":443851050},{"NoteNumber":84,"Velocity":42,"Duration":446097,"SoundDuration":446097,"Delta":444073272},{"NoteNumber":88,"Velocity":50,"Duration":446097,"SoundDuration":446097,"Delta":444073272},{"NoteNumber":83,"Velocity":37,"Duration":446097,"SoundDuration":446097,"Delta":444073272},{"NoteNumber":79,"Velocity":31,"Duration":446097,"SoundDuration":446097,"Delta":444073272},{"NoteNumber":71,"Velocity":31,"Duration":446097,"SoundDuration":446097,"Delta":444073272},{"NoteNumber":90,"Velocity":45,"Duration":159574,"SoundDuration":159574,"Delta":444519369},{"NoteNumber":86,"Velocity":38,"Duration":159574,"SoundDuration":159574,"Delta":444519369},{"NoteNumber":81,"Velocity":33,"Duration":159574,"SoundDuration":159574,"Delta":444519369},{"NoteNumber":78,"Velocity":28,"Duration":159574,"SoundDuration":159574,"Delta":444519369},{"NoteNumber":69,"Velocity":28,"Duration":159574,"SoundDuration":159574,"Delta":444519369},{"NoteNumber":91,"Velocity":45,"Duration":167910,"SoundDuration":167910,"Delta":444732135},{"NoteNumber":88,"Velocity":38,"Duration":167910,"SoundDuration":167910,"Delta":444732135},{"NoteNumber":79,"Velocity":33,"Duration":167910,"SoundDuration":167910,"Delta":444732135},{"NoteNumber":76,"Velocity":28,"Duration":167910,"SoundDuration":167910,"Delta":444732135},{"NoteNumber":67,"Velocity":28,"Duration":167910,"SoundDuration":167910,"Delta":444732135},{"NoteNumber":88,"Velocity":42,"Duration":434782,"SoundDuration":434782,"Delta":444956016},{"NoteNumber":91,"Velocity":50,"Duration":434782,"SoundDuration":434782,"Delta":444956016},{"NoteNumber":79,"Velocity":37,"Duration":434782,"SoundDuration":434782,"Delta":444956016},{"NoteNumber":71,"Velocity":31,"Duration":434782,"SoundDuration":434782,"Delta":444956016},{"NoteNumber":67,"Velocity":31,"Duration":434782,"SoundDuration":434782,"Delta":444956016},{"NoteNumber":93,"Velocity":49,"Duration":158450,"SoundDuration":158450,"Delta":445390799},{"NoteNumber":90,"Velocity":41,"Duration":158450,"SoundDuration":158450,"Delta":445390799},{"NoteNumber":78,"Velocity":33,"Duration":158450,"SoundDuration":158450,"Delta":445390799},{"NoteNumber":69,"Velocity":28,"Duration":158450,"SoundDuration":158450,"Delta":445390799},{"NoteNumber":66,"Velocity":28,"Duration":158450,"SoundDuration":158450,"Delta":445390799},{"NoteNumber":95,"Velocity":49,"Duration":166666,"SoundDuration":166666,"Delta":445602066},{"NoteNumber":91,"Velocity":41,"Duration":166666,"SoundDuration":166666,"Delta":445602066},{"NoteNumber":76,"Velocity":33,"Duration":166666,"SoundDuration":166666,"Delta":445602066},{"NoteNumber":67,"Velocity":28,"Duration":166666,"SoundDuration":166666,"Delta":445602066},{"NoteNumber":64,"Velocity":28,"Duration":166666,"SoundDuration":166666,"Delta":445602066},{"NoteNumber":83,"Velocity":53,"Duration":423792,"SoundDuration":423792,"Delta":445824288},{"NoteNumber":95,"Velocity":68,"Duration":423792,"SoundDuration":423792,"Delta":445824288},{"NoteNumber":91,"Velocity":53,"Duration":423792,"SoundDuration":423792,"Delta":445824288},{"NoteNumber":84,"Velocity":53,"Duration":423792,"SoundDuration":423792,"Delta":445824288},{"NoteNumber":67,"Velocity":31,"Duration":423792,"SoundDuration":423792,"Delta":445824288},{"NoteNumber":76,"Velocity":37,"Duration":423792,"SoundDuration":423792,"Delta":445824288},{"NoteNumber":72,"Velocity":31,"Duration":423792,"SoundDuration":423792,"Delta":445824288},{"NoteNumber":64,"Velocity":31,"Duration":423792,"SoundDuration":423792,"Delta":445824288},{"NoteNumber":84,"Velocity":45,"Duration":158450,"SoundDuration":158450,"Delta":446270385},{"NoteNumber":93,"Velocity":53,"Duration":158450,"SoundDuration":158450,"Delta":446270385},{"NoteNumber":81,"Velocity":45,"Duration":158450,"SoundDuration":158450,"Delta":446270385},{"NoteNumber":72,"Velocity":28,"Duration":158450,"SoundDuration":158450,"Delta":446270385},{"NoteNumber":76,"Velocity":33,"Duration":158450,"SoundDuration":158450,"Delta":446270385},{"NoteNumber":67,"Velocity":28,"Duration":158450,"SoundDuration":158450,"Delta":446270385},{"NoteNumber":64,"Velocity":28,"Duration":158450,"SoundDuration":158450,"Delta":446270385},{"NoteNumber":91,"Velocity":53,"Duration":167910,"SoundDuration":167910,"Delta":446481653},{"NoteNumber":84,"Velocity":45,"Duration":167910,"SoundDuration":167910,"Delta":446481653},{"NoteNumber":79,"Velocity":45,"Duration":167910,"SoundDuration":167910,"Delta":446481653},{"NoteNumber":67,"Velocity":28,"Duration":167910,"SoundDuration":167910,"Delta":446481653},{"NoteNumber":76,"Velocity":33,"Duration":167910,"SoundDuration":167910,"Delta":446481653},{"NoteNumber":72,"Velocity":28,"Duration":167910,"SoundDuration":167910,"Delta":446481653},{"NoteNumber":64,"Velocity":28,"Duration":167910,"SoundDuration":167910,"Delta":446481653},{"NoteNumber":57,"Velocity":47,"Duration":124246,"SoundDuration":124246,"Delta":446705533},{"NoteNumber":59,"Velocity":37,"Duration":122938,"SoundDuration":122938,"Delta":446829780},{"NoteNumber":57,"Velocity":41,"Duration":121552,"SoundDuration":121552,"Delta":446953611},{"NoteNumber":59,"Velocity":38,"Duration":119840,"SoundDuration":119840,"Delta":447076047},{"NoteNumber":57,"Velocity":41,"Duration":118972,"SoundDuration":118972,"Delta":447195888},{"NoteNumber":59,"Velocity":38,"Duration":119337,"SoundDuration":119337,"Delta":447315731},{"NoteNumber":57,"Velocity":41,"Duration":118689,"SoundDuration":118689,"Delta":447435069},{"NoteNumber":71,"Velocity":53,"Duration":423792,"SoundDuration":423792,"Delta":447553759},{"NoteNumber":79,"Velocity":68,"Duration":423792,"SoundDuration":423792,"Delta":447553759},{"NoteNumber":72,"Velocity":53,"Duration":423792,"SoundDuration":423792,"Delta":447553759},{"NoteNumber":76,"Velocity":53,"Duration":423792,"SoundDuration":423792,"Delta":447553759},{"NoteNumber":69,"Velocity":40,"Duration":158450,"SoundDuration":158450,"Delta":447999856},{"NoteNumber":78,"Velocity":47,"Duration":158450,"SoundDuration":158450,"Delta":447999856},{"NoteNumber":72,"Velocity":40,"Duration":158450,"SoundDuration":158450,"Delta":447999856},{"NoteNumber":69,"Velocity":40,"Duration":167910,"SoundDuration":167910,"Delta":448211123},{"NoteNumber":76,"Velocity":47,"Duration":167910,"SoundDuration":167910,"Delta":448211123},{"NoteNumber":67,"Velocity":40,"Duration":167910,"SoundDuration":167910,"Delta":448211123},{"NoteNumber":72,"Velocity":40,"Duration":167910,"SoundDuration":167910,"Delta":448211123},{"NoteNumber":45,"Velocity":42,"Duration":124246,"SoundDuration":124246,"Delta":448435004},{"NoteNumber":47,"Velocity":33,"Duration":122938,"SoundDuration":122938,"Delta":448559251},{"NoteNumber":45,"Velocity":36,"Duration":121552,"SoundDuration":121552,"Delta":448683082},{"NoteNumber":47,"Velocity":34,"Duration":119840,"SoundDuration":119840,"Delta":448805518},{"NoteNumber":45,"Velocity":36,"Duration":118972,"SoundDuration":118972,"Delta":448925359},{"NoteNumber":47,"Velocity":34,"Duration":119337,"SoundDuration":119337,"Delta":449045202},{"NoteNumber":45,"Velocity":36,"Duration":118689,"SoundDuration":118689,"Delta":449164540},{"NoteNumber":95,"Velocity":68,"Duration":423792,"SoundDuration":423792,"Delta":449283229},{"NoteNumber":83,"Velocity":53,"Duration":423792,"SoundDuration":423792,"Delta":449283229},{"NoteNumber":91,"Velocity":53,"Duration":423792,"SoundDuration":423792,"Delta":449283229},{"NoteNumber":84,"Velocity":53,"Duration":423792,"SoundDuration":423792,"Delta":449283229},{"NoteNumber":67,"Velocity":31,"Duration":423792,"SoundDuration":423792,"Delta":449283229},{"NoteNumber":76,"Velocity":37,"Duration":423792,"SoundDuration":423792,"Delta":449283229},{"NoteNumber":72,"Velocity":31,"Duration":423792,"SoundDuration":423792,"Delta":449283229},{"NoteNumber":64,"Velocity":31,"Duration":423792,"SoundDuration":423792,"Delta":449283229},{"NoteNumber":93,"Velocity":53,"Duration":159010,"SoundDuration":159010,"Delta":449729326},{"NoteNumber":81,"Velocity":45,"Duration":159010,"SoundDuration":159010,"Delta":449729326},{"NoteNumber":84,"Velocity":45,"Duration":159010,"SoundDuration":159010,"Delta":449729326},{"NoteNumber":72,"Velocity":28,"Duration":159010,"SoundDuration":159010,"Delta":449729326},{"NoteNumber":76,"Velocity":33,"Duration":159010,"SoundDuration":159010,"Delta":449729326},{"NoteNumber":67,"Velocity":28,"Duration":159010,"SoundDuration":159010,"Delta":449729326},{"NoteNumber":64,"Velocity":28,"Duration":159010,"SoundDuration":159010,"Delta":449729326},{"NoteNumber":84,"Velocity":45,"Duration":167910,"SoundDuration":167910,"Delta":449941340},{"NoteNumber":91,"Velocity":53,"Duration":167910,"SoundDuration":167910,"Delta":449941340},{"NoteNumber":79,"Velocity":45,"Duration":167910,"SoundDuration":167910,"Delta":449941340},{"NoteNumber":67,"Velocity":28,"Duration":167910,"SoundDuration":167910,"Delta":449941340},{"NoteNumber":76,"Velocity":33,"Duration":167910,"SoundDuration":167910,"Delta":449941340},{"NoteNumber":72,"Velocity":28,"Duration":167910,"SoundDuration":167910,"Delta":449941340},{"NoteNumber":64,"Velocity":28,"Duration":167910,"SoundDuration":167910,"Delta":449941340},{"NoteNumber":57,"Velocity":47,"Duration":124246,"SoundDuration":124246,"Delta":450165221},{"NoteNumber":59,"Velocity":37,"Duration":122938,"SoundDuration":122938,"Delta":450289468},{"NoteNumber":57,"Velocity":41,"Duration":121552,"SoundDuration":121552,"Delta":450413299},{"NoteNumber":59,"Velocity":38,"Duration":119840,"SoundDuration":119840,"Delta":450535735},{"NoteNumber":57,"Velocity":41,"Duration":118972,"SoundDuration":118972,"Delta":450655576},{"NoteNumber":59,"Velocity":38,"Duration":119337,"SoundDuration":119337,"Delta":450775419},{"NoteNumber":57,"Velocity":41,"Duration":118689,"SoundDuration":118689,"Delta":450894757},{"NoteNumber":79,"Velocity":68,"Duration":423792,"SoundDuration":423792,"Delta":451013447},{"NoteNumber":72,"Velocity":53,"Duration":423792,"SoundDuration":423792,"Delta":451013447},{"NoteNumber":71,"Velocity":53,"Duration":423792,"SoundDuration":423792,"Delta":451013447},{"NoteNumber":76,"Velocity":53,"Duration":423792,"SoundDuration":423792,"Delta":451013447},{"NoteNumber":69,"Velocity":40,"Duration":157894,"SoundDuration":157894,"Delta":451459544},{"NoteNumber":78,"Velocity":47,"Duration":157894,"SoundDuration":157894,"Delta":451459544},{"NoteNumber":72,"Velocity":40,"Duration":157894,"SoundDuration":157894,"Delta":451459544},{"NoteNumber":69,"Velocity":40,"Duration":167910,"SoundDuration":167910,"Delta":451670070},{"NoteNumber":67,"Velocity":40,"Duration":167910,"SoundDuration":167910,"Delta":451670070},{"NoteNumber":76,"Velocity":47,"Duration":167910,"SoundDuration":167910,"Delta":451670070},{"NoteNumber":72,"Velocity":40,"Duration":167910,"SoundDuration":167910,"Delta":451670070},{"NoteNumber":45,"Velocity":42,"Duration":124246,"SoundDuration":124246,"Delta":451893951},{"NoteNumber":47,"Velocity":33,"Duration":122938,"SoundDuration":122938,"Delta":452018197},{"NoteNumber":45,"Velocity":36,"Duration":121552,"SoundDuration":121552,"Delta":452142029},{"NoteNumber":47,"Velocity":34,"Duration":119840,"SoundDuration":119840,"Delta":452264465},{"NoteNumber":45,"Velocity":36,"Duration":118972,"SoundDuration":118972,"Delta":452384305},{"NoteNumber":47,"Velocity":34,"Duration":119337,"SoundDuration":119337,"Delta":452504148},{"NoteNumber":45,"Velocity":36,"Duration":5384170,"SoundDuration":5384170,"Delta":452623486},{"NoteNumber":96,"Velocity":53,"Duration":423792,"SoundDuration":423792,"Delta":452742176},{"NoteNumber":100,"Velocity":68,"Duration":423792,"SoundDuration":423792,"Delta":452742176},{"NoteNumber":91,"Velocity":53,"Duration":423792,"SoundDuration":423792,"Delta":452742176},{"NoteNumber":93,"Velocity":53,"Duration":423792,"SoundDuration":423792,"Delta":452742176},{"NoteNumber":38,"Velocity":39,"Duration":148699,"SoundDuration":148699,"Delta":452742176},{"NoteNumber":40,"Velocity":33,"Duration":148698,"SoundDuration":148698,"Delta":452890875},{"NoteNumber":38,"Velocity":39,"Duration":148699,"SoundDuration":148699,"Delta":453039574},{"NoteNumber":96,"Velocity":53,"Duration":160714,"SoundDuration":160714,"Delta":453188273},{"NoteNumber":93,"Velocity":45,"Duration":160714,"SoundDuration":160714,"Delta":453188273},{"NoteNumber":91,"Velocity":45,"Duration":160714,"SoundDuration":160714,"Delta":453188273},{"NoteNumber":40,"Velocity":32,"Duration":142856,"SoundDuration":142856,"Delta":453188273},{"NoteNumber":38,"Velocity":39,"Duration":146055,"SoundDuration":146055,"Delta":453331130},{"NoteNumber":88,"Velocity":45,"Duration":167910,"SoundDuration":167910,"Delta":453402559},{"NoteNumber":91,"Velocity":45,"Duration":167910,"SoundDuration":167910,"Delta":453402559},{"NoteNumber":93,"Velocity":53,"Duration":167910,"SoundDuration":167910,"Delta":453402559},{"NoteNumber":40,"Velocity":33,"Duration":149253,"SoundDuration":149253,"Delta":453477185},{"NoteNumber":91,"Velocity":68,"Duration":423792,"SoundDuration":423792,"Delta":453626439},{"NoteNumber":88,"Velocity":53,"Duration":423792,"SoundDuration":423792,"Delta":453626439},{"NoteNumber":84,"Velocity":53,"Duration":423792,"SoundDuration":423792,"Delta":453626439},{"NoteNumber":38,"Velocity":39,"Duration":148699,"SoundDuration":148699,"Delta":453626439},{"NoteNumber":40,"Velocity":33,"Duration":148698,"SoundDuration":148698,"Delta":453775138},{"NoteNumber":38,"Velocity":39,"Duration":148699,"SoundDuration":148699,"Delta":453923837},{"NoteNumber":88,"Velocity":53,"Duration":160714,"SoundDuration":160714,"Delta":454072536},{"NoteNumber":84,"Velocity":45,"Duration":160714,"SoundDuration":160714,"Delta":454072536},{"NoteNumber":81,"Velocity":45,"Duration":160714,"SoundDuration":160714,"Delta":454072536},{"NoteNumber":40,"Velocity":33,"Duration":142856,"SoundDuration":142856,"Delta":454072536},{"NoteNumber":38,"Velocity":39,"Duration":146055,"SoundDuration":146055,"Delta":454215393},{"NoteNumber":79,"Velocity":45,"Duration":167910,"SoundDuration":167910,"Delta":454286822},{"NoteNumber":81,"Velocity":45,"Duration":167910,"SoundDuration":167910,"Delta":454286822},{"NoteNumber":84,"Velocity":53,"Duration":167910,"SoundDuration":167910,"Delta":454286822},{"NoteNumber":40,"Velocity":34,"Duration":149253,"SoundDuration":149253,"Delta":454361448},{"NoteNumber":81,"Velocity":68,"Duration":423792,"SoundDuration":423792,"Delta":454510702},{"NoteNumber":79,"Velocity":53,"Duration":423792,"SoundDuration":423792,"Delta":454510702},{"NoteNumber":76,"Velocity":53,"Duration":423792,"SoundDuration":423792,"Delta":454510702},{"NoteNumber":38,"Velocity":39,"Duration":148699,"SoundDuration":148699,"Delta":454510702},{"NoteNumber":40,"Velocity":33,"Duration":148698,"SoundDuration":148698,"Delta":454659401},{"NoteNumber":38,"Velocity":39,"Duration":148699,"SoundDuration":148699,"Delta":454808100},{"NoteNumber":79,"Velocity":53,"Duration":160714,"SoundDuration":160714,"Delta":454956799},{"NoteNumber":72,"Velocity":45,"Duration":160714,"SoundDuration":160714,"Delta":454956799},{"NoteNumber":76,"Velocity":45,"Duration":160714,"SoundDuration":160714,"Delta":454956799},{"NoteNumber":40,"Velocity":32,"Duration":142856,"SoundDuration":142856,"Delta":454956799},{"NoteNumber":38,"Velocity":39,"Duration":146055,"SoundDuration":146055,"Delta":455099656},{"NoteNumber":72,"Velocity":45,"Duration":167910,"SoundDuration":167910,"Delta":455171085},{"NoteNumber":76,"Velocity":53,"Duration":167910,"SoundDuration":167910,"Delta":455171085},{"NoteNumber":69,"Velocity":45,"Duration":167910,"SoundDuration":167910,"Delta":455171085},{"NoteNumber":40,"Velocity":33,"Duration":149253,"SoundDuration":149253,"Delta":455245711},{"NoteNumber":72,"Velocity":68,"Duration":423792,"SoundDuration":423792,"Delta":455394965},{"NoteNumber":69,"Velocity":53,"Duration":423792,"SoundDuration":423792,"Delta":455394965},{"NoteNumber":67,"Velocity":53,"Duration":423792,"SoundDuration":423792,"Delta":455394965},{"NoteNumber":38,"Velocity":39,"Duration":148699,"SoundDuration":148699,"Delta":455394965},{"NoteNumber":40,"Velocity":33,"Duration":148698,"SoundDuration":148698,"Delta":455543664},{"NoteNumber":38,"Velocity":39,"Duration":148699,"SoundDuration":148699,"Delta":455692363},{"NoteNumber":69,"Velocity":53,"Duration":160714,"SoundDuration":160714,"Delta":455841062},{"NoteNumber":64,"Velocity":45,"Duration":160714,"SoundDuration":160714,"Delta":455841062},{"NoteNumber":67,"Velocity":45,"Duration":160714,"SoundDuration":160714,"Delta":455841062},{"NoteNumber":40,"Velocity":33,"Duration":142856,"SoundDuration":142856,"Delta":455841062},{"NoteNumber":38,"Velocity":39,"Duration":146055,"SoundDuration":146055,"Delta":455983919},{"NoteNumber":64,"Velocity":45,"Duration":167910,"SoundDuration":167910,"Delta":456055348},{"NoteNumber":67,"Velocity":53,"Duration":167910,"SoundDuration":167910,"Delta":456055348},{"NoteNumber":60,"Velocity":45,"Duration":167910,"SoundDuration":167910,"Delta":456055348},{"NoteNumber":40,"Velocity":34,"Duration":149253,"SoundDuration":149253,"Delta":456129974},{"NoteNumber":64,"Velocity":53,"Duration":2593325,"SoundDuration":2593325,"Delta":456279228},{"NoteNumber":57,"Velocity":53,"Duration":3499179,"SoundDuration":3499179,"Delta":456279228},{"NoteNumber":55,"Velocity":53,"Duration":1728428,"SoundDuration":1728428,"Delta":456279228},{"NoteNumber":60,"Velocity":53,"Duration":3499179,"SoundDuration":3499179,"Delta":456279228},{"NoteNumber":38,"Velocity":39,"Duration":145985,"SoundDuration":145985,"Delta":456279228},{"NoteNumber":40,"Velocity":33,"Duration":145590,"SoundDuration":145590,"Delta":456425213},{"NoteNumber":38,"Velocity":39,"Duration":145000,"SoundDuration":145000,"Delta":456570804},{"NoteNumber":40,"Velocity":32,"Duration":144342,"SoundDuration":144342,"Delta":456715804},{"NoteNumber":38,"Velocity":39,"Duration":143791,"SoundDuration":143791,"Delta":456860147},{"NoteNumber":40,"Velocity":33,"Duration":143148,"SoundDuration":143148,"Delta":457003939},{"NoteNumber":36,"Velocity":39,"Duration":142857,"SoundDuration":142857,"Delta":457147087},{"NoteNumber":38,"Velocity":33,"Duration":143045,"SoundDuration":143045,"Delta":457289944},{"NoteNumber":36,"Velocity":39,"Duration":143369,"SoundDuration":143369,"Delta":457432990},{"NoteNumber":38,"Velocity":33,"Duration":143527,"SoundDuration":143527,"Delta":457576359},{"NoteNumber":36,"Velocity":39,"Duration":143885,"SoundDuration":143885,"Delta":457719887},{"NoteNumber":38,"Velocity":34,"Duration":143885,"SoundDuration":143885,"Delta":457863772},{"NoteNumber":54,"Velocity":53,"Duration":1770750,"SoundDuration":1770750,"Delta":458007657},{"NoteNumber":36,"Velocity":39,"Duration":143885,"SoundDuration":143885,"Delta":458007657},{"NoteNumber":38,"Velocity":32,"Duration":143885,"SoundDuration":143885,"Delta":458151542},{"NoteNumber":36,"Velocity":38,"Duration":143914,"SoundDuration":143914,"Delta":458295427},{"NoteNumber":38,"Velocity":32,"Duration":144404,"SoundDuration":144404,"Delta":458439341},{"NoteNumber":36,"Velocity":37,"Duration":144404,"SoundDuration":144404,"Delta":458583745},{"NoteNumber":38,"Velocity":31,"Duration":144404,"SoundDuration":144404,"Delta":458728149},{"NoteNumber":62,"Velocity":49,"Duration":905853,"SoundDuration":905853,"Delta":458872554},{"NoteNumber":33,"Velocity":36,"Duration":144725,"SoundDuration":144725,"Delta":458872554},{"NoteNumber":38,"Velocity":30,"Duration":146046,"SoundDuration":146046,"Delta":459017279},{"NoteNumber":33,"Velocity":35,"Duration":147421,"SoundDuration":147421,"Delta":459163326},{"NoteNumber":38,"Velocity":29,"Duration":148693,"SoundDuration":148693,"Delta":459310747},{"NoteNumber":33,"Velocity":34,"Duration":150190,"SoundDuration":150190,"Delta":459459441},{"NoteNumber":38,"Velocity":29,"Duration":168776,"SoundDuration":168776,"Delta":459609631},{"NoteNumber":71,"Velocity":55,"Duration":859814,"SoundDuration":859814,"Delta":459778407},{"NoteNumber":31,"Velocity":45,"Duration":221516,"SoundDuration":221516,"Delta":459778407},{"NoteNumber":59,"Velocity":37,"Duration":212765,"SoundDuration":212765,"Delta":459999924},{"NoteNumber":64,"Velocity":40,"Duration":212765,"SoundDuration":212765,"Delta":460212690},{"NoteNumber":62,"Velocity":36,"Duration":212766,"SoundDuration":212766,"Delta":460425456},{"NoteNumber":72,"Velocity":54,"Duration":638297,"SoundDuration":638297,"Delta":460638222},{"NoteNumber":69,"Velocity":40,"Duration":212765,"SoundDuration":212765,"Delta":460638222},{"NoteNumber":67,"Velocity":37,"Duration":212765,"SoundDuration":212765,"Delta":460850988},{"NoteNumber":62,"Velocity":40,"Duration":212765,"SoundDuration":212765,"Delta":461063754},{"NoteNumber":74,"Velocity":43,"Duration":206106,"SoundDuration":206106,"Delta":461276520},{"NoteNumber":59,"Velocity":37,"Duration":229007,"SoundDuration":229007,"Delta":461276520},{"NoteNumber":74,"Velocity":47,"Duration":859814,"SoundDuration":859814,"Delta":461505527},{"NoteNumber":79,"Velocity":59,"Duration":859814,"SoundDuration":859814,"Delta":461505527},{"NoteNumber":52,"Velocity":36,"Duration":212765,"SoundDuration":212765,"Delta":461727044},{"NoteNumber":59,"Velocity":40,"Duration":212765,"SoundDuration":212765,"Delta":461939810},{"NoteNumber":57,"Velocity":38,"Duration":212766,"SoundDuration":212766,"Delta":462152576},{"NoteNumber":73,"Velocity":45,"Duration":425531,"SoundDuration":425531,"Delta":462365342},{"NoteNumber":81,"Velocity":58,"Duration":638297,"SoundDuration":638297,"Delta":462365342},{"NoteNumber":66,"Velocity":40,"Duration":212765,"SoundDuration":212765,"Delta":462365342},{"NoteNumber":64,"Velocity":37,"Duration":212765,"SoundDuration":212765,"Delta":462578108},{"NoteNumber":61,"Velocity":40,"Duration":212765,"SoundDuration":212765,"Delta":462790874},{"NoteNumber":76,"Velocity":35,"Duration":202247,"SoundDuration":202247,"Delta":463003640},{"NoteNumber":83,"Velocity":43,"Duration":202247,"SoundDuration":202247,"Delta":463003640},{"NoteNumber":55,"Velocity":37,"Duration":224718,"SoundDuration":224718,"Delta":463003640},{"NoteNumber":79,"Velocity":47,"Duration":860520,"SoundDuration":860520,"Delta":463228359},{"NoteNumber":83,"Velocity":62,"Duration":860520,"SoundDuration":860520,"Delta":463228359},{"NoteNumber":50,"Velocity":36,"Duration":212765,"SoundDuration":212765,"Delta":463450581},{"NoteNumber":64,"Velocity":40,"Duration":212765,"SoundDuration":212765,"Delta":463663347},{"NoteNumber":62,"Velocity":38,"Duration":212766,"SoundDuration":212766,"Delta":463876113},{"NoteNumber":81,"Velocity":51,"Duration":425531,"SoundDuration":425531,"Delta":464088879},{"NoteNumber":78,"Velocity":43,"Duration":425531,"SoundDuration":425531,"Delta":464088879},{"NoteNumber":72,"Velocity":40,"Duration":212765,"SoundDuration":212765,"Delta":464088879},{"NoteNumber":69,"Velocity":37,"Duration":212765,"SoundDuration":212765,"Delta":464301645},{"NoteNumber":66,"Velocity":40,"Duration":212765,"SoundDuration":212765,"Delta":464514411},{"NoteNumber":72,"Velocity":35,"Duration":251045,"SoundDuration":251045,"Delta":464727177},{"NoteNumber":84,"Velocity":51,"Duration":251045,"SoundDuration":251045,"Delta":464727177},{"NoteNumber":62,"Velocity":37,"Duration":251045,"SoundDuration":251045,"Delta":464727177},{"NoteNumber":70,"Velocity":47,"Duration":860520,"SoundDuration":860520,"Delta":464978223},{"NoteNumber":88,"Velocity":64,"Duration":860520,"SoundDuration":860520,"Delta":464978223},{"NoteNumber":55,"Velocity":36,"Duration":212765,"SoundDuration":212765,"Delta":465200445},{"NoteNumber":64,"Velocity":40,"Duration":212765,"SoundDuration":212765,"Delta":465413211},{"NoteNumber":62,"Velocity":38,"Duration":212766,"SoundDuration":212766,"Delta":465625977},{"NoteNumber":86,"Velocity":51,"Duration":425531,"SoundDuration":425531,"Delta":465838743},{"NoteNumber":71,"Velocity":43,"Duration":425531,"SoundDuration":425531,"Delta":465838743},{"NoteNumber":69,"Velocity":40,"Duration":212765,"SoundDuration":212765,"Delta":465838743},{"NoteNumber":67,"Velocity":37,"Duration":212765,"SoundDuration":212765,"Delta":466051509},{"NoteNumber":62,"Velocity":40,"Duration":212765,"SoundDuration":212765,"Delta":466264275},{"NoteNumber":59,"Velocity":37,"Duration":219764,"SoundDuration":219764,"Delta":466477041},{"NoteNumber":67,"Velocity":60,"Duration":859814,"SoundDuration":859814,"Delta":466696806},{"NoteNumber":40,"Velocity":40,"Duration":212765,"SoundDuration":212765,"Delta":466918322},{"NoteNumber":54,"Velocity":44,"Duration":212765,"SoundDuration":212765,"Delta":467131088},{"NoteNumber":52,"Velocity":39,"Duration":212766,"SoundDuration":212766,"Delta":467343854},{"NoteNumber":69,"Velocity":59,"Duration":638297,"SoundDuration":638297,"Delta":467556620},{"NoteNumber":60,"Velocity":44,"Duration":212765,"SoundDuration":212765,"Delta":467556620},{"NoteNumber":59,"Velocity":40,"Duration":212765,"SoundDuration":212765,"Delta":467769386},{"NoteNumber":55,"Velocity":44,"Duration":212765,"SoundDuration":212765,"Delta":467982152},{"NoteNumber":71,"Velocity":47,"Duration":206106,"SoundDuration":206106,"Delta":468194918},{"NoteNumber":52,"Velocity":40,"Duration":229007,"SoundDuration":229007,"Delta":468194918},{"NoteNumber":71,"Velocity":51,"Duration":859814,"SoundDuration":859814,"Delta":468423926},{"NoteNumber":76,"Velocity":64,"Duration":859814,"SoundDuration":859814,"Delta":468423926},{"NoteNumber":49,"Velocity":39,"Duration":212765,"SoundDuration":212765,"Delta":468645442},{"NoteNumber":55,"Velocity":44,"Duration":212765,"SoundDuration":212765,"Delta":468858208},{"NoteNumber":54,"Velocity":41,"Duration":212766,"SoundDuration":212766,"Delta":469070974},{"NoteNumber":70,"Velocity":49,"Duration":425531,"SoundDuration":425531,"Delta":469283740},{"NoteNumber":78,"Velocity":63,"Duration":638297,"SoundDuration":638297,"Delta":469283740},{"NoteNumber":64,"Velocity":44,"Duration":212765,"SoundDuration":212765,"Delta":469283740},{"NoteNumber":61,"Velocity":40,"Duration":212765,"SoundDuration":212765,"Delta":469496506},{"NoteNumber":58,"Velocity":44,"Duration":212765,"SoundDuration":212765,"Delta":469709272},{"NoteNumber":76,"Velocity":38,"Duration":213438,"SoundDuration":213438,"Delta":469922038},{"NoteNumber":79,"Velocity":47,"Duration":213438,"SoundDuration":213438,"Delta":469922038},{"NoteNumber":54,"Velocity":40,"Duration":237153,"SoundDuration":237153,"Delta":469922038},{"NoteNumber":79,"Velocity":51,"Duration":860520,"SoundDuration":860520,"Delta":470159192},{"NoteNumber":83,"Velocity":68,"Duration":860520,"SoundDuration":860520,"Delta":470159192},{"NoteNumber":42,"Velocity":39,"Duration":212765,"SoundDuration":212765,"Delta":470381414},{"NoteNumber":62,"Velocity":44,"Duration":212765,"SoundDuration":212765,"Delta":470594180},{"NoteNumber":61,"Velocity":41,"Duration":212766,"SoundDuration":212766,"Delta":470806946},{"NoteNumber":82,"Velocity":56,"Duration":425531,"SoundDuration":425531,"Delta":471019712},{"NoteNumber":78,"Velocity":47,"Duration":425531,"SoundDuration":425531,"Delta":471019712},{"NoteNumber":66,"Velocity":44,"Duration":212765,"SoundDuration":212765,"Delta":471019712},{"NoteNumber":64,"Velocity":40,"Duration":212765,"SoundDuration":212765,"Delta":471232478},{"NoteNumber":61,"Velocity":44,"Duration":212765,"SoundDuration":212765,"Delta":471445244},{"NoteNumber":73,"Velocity":38,"Duration":265486,"SoundDuration":265486,"Delta":471658010},{"NoteNumber":88,"Velocity":55,"Duration":265486,"SoundDuration":265486,"Delta":471658010},{"NoteNumber":54,"Velocity":40,"Duration":265486,"SoundDuration":265486,"Delta":471658010},{"NoteNumber":76,"Velocity":50,"Duration":860520,"SoundDuration":860520,"Delta":471923497},{"NoteNumber":85,"Velocity":69,"Duration":860520,"SoundDuration":860520,"Delta":471923497},{"NoteNumber":47,"Velocity":38,"Duration":212765,"SoundDuration":212765,"Delta":472145719},{"NoteNumber":61,"Velocity":42,"Duration":212765,"SoundDuration":212765,"Delta":472358485},{"NoteNumber":59,"Velocity":39,"Duration":212766,"SoundDuration":212766,"Delta":472571251},{"NoteNumber":86,"Velocity":53,"Duration":425531,"SoundDuration":425531,"Delta":472784017},{"NoteNumber":74,"Velocity":44,"Duration":425531,"SoundDuration":425531,"Delta":472784017},{"NoteNumber":55,"Velocity":41,"Duration":212765,"SoundDuration":212765,"Delta":472784017},{"NoteNumber":54,"Velocity":31,"Duration":212765,"SoundDuration":212765,"Delta":472996783},{"NoteNumber":50,"Velocity":34,"Duration":212765,"SoundDuration":212765,"Delta":473209549},{"NoteNumber":47,"Velocity":26,"Duration":219764,"SoundDuration":219764,"Delta":473422315},{"NoteNumber":45,"Velocity":30,"Duration":221516,"SoundDuration":221516,"Delta":473642079},{"NoteNumber":54,"Velocity":30,"Duration":845969,"SoundDuration":845969,"Delta":473655924},{"NoteNumber":62,"Velocity":30,"Duration":832124,"SoundDuration":832124,"Delta":473669769},{"NoteNumber":69,"Velocity":35,"Duration":141843,"SoundDuration":141843,"Delta":474076362},{"NoteNumber":81,"Velocity":30,"Duration":124113,"SoundDuration":124113,"Delta":474218206},{"NoteNumber":81,"Velocity":30,"Duration":141843,"SoundDuration":141843,"Delta":474360050},{"NoteNumber":93,"Velocity":39,"Duration":141843,"SoundDuration":141843,"Delta":474501894},{"NoteNumber":57,"Velocity":24,"Duration":638297,"SoundDuration":638297,"Delta":474501894},{"NoteNumber":64,"Velocity":29,"Duration":638297,"SoundDuration":638297,"Delta":474501894},{"NoteNumber":92,"Velocity":35,"Duration":141843,"SoundDuration":141843,"Delta":474643738},{"NoteNumber":95,"Velocity":35,"Duration":141843,"SoundDuration":141843,"Delta":474785582},{"NoteNumber":93,"Velocity":39,"Duration":141843,"SoundDuration":141843,"Delta":474927426},{"NoteNumber":90,"Velocity":31,"Duration":147257,"SoundDuration":147257,"Delta":475069270},{"NoteNumber":62,"Velocity":19,"Duration":206106,"SoundDuration":206106,"Delta":475140192},{"NoteNumber":66,"Velocity":23,"Duration":206106,"SoundDuration":206106,"Delta":475140192},{"NoteNumber":81,"Velocity":31,"Duration":152671,"SoundDuration":152671,"Delta":475216528},{"NoteNumber":62,"Velocity":30,"Duration":863903,"SoundDuration":863903,"Delta":475369199},{"NoteNumber":66,"Velocity":30,"Duration":863903,"SoundDuration":863903,"Delta":475369199},{"NoteNumber":69,"Velocity":35,"Duration":141843,"SoundDuration":141843,"Delta":475807571},{"NoteNumber":81,"Velocity":30,"Duration":124113,"SoundDuration":124113,"Delta":475949415},{"NoteNumber":81,"Velocity":30,"Duration":141843,"SoundDuration":141843,"Delta":476091259},{"NoteNumber":93,"Velocity":39,"Duration":141844,"SoundDuration":141844,"Delta":476233103},{"NoteNumber":57,"Velocity":24,"Duration":425532,"SoundDuration":425532,"Delta":476233103},{"NoteNumber":64,"Velocity":29,"Duration":425532,"SoundDuration":425532,"Delta":476233103},{"NoteNumber":92,"Velocity":35,"Duration":141843,"SoundDuration":141843,"Delta":476374947},{"NoteNumber":95,"Velocity":35,"Duration":141843,"SoundDuration":141843,"Delta":476516791},{"NoteNumber":93,"Velocity":39,"Duration":141843,"SoundDuration":141843,"Delta":476658635},{"NoteNumber":90,"Velocity":31,"Duration":147257,"SoundDuration":147257,"Delta":476800479},{"NoteNumber":64,"Velocity":29,"Duration":229007,"SoundDuration":229007,"Delta":476871401},{"NoteNumber":57,"Velocity":24,"Duration":229007,"SoundDuration":229007,"Delta":476871401},{"NoteNumber":81,"Velocity":31,"Duration":152671,"SoundDuration":152671,"Delta":476947737},{"NoteNumber":69,"Velocity":30,"Duration":859814,"SoundDuration":859814,"Delta":477100409},{"NoteNumber":66,"Velocity":30,"Duration":846516,"SoundDuration":846516,"Delta":477100409},{"NoteNumber":33,"Velocity":29,"Duration":141843,"SoundDuration":141843,"Delta":477534691},{"NoteNumber":45,"Velocity":25,"Duration":124113,"SoundDuration":124113,"Delta":477676535},{"NoteNumber":45,"Velocity":25,"Duration":141843,"SoundDuration":141843,"Delta":477818379},{"NoteNumber":62,"Velocity":24,"Duration":638297,"SoundDuration":638297,"Delta":477960223},{"NoteNumber":66,"Velocity":29,"Duration":638297,"SoundDuration":638297,"Delta":477960223},{"NoteNumber":57,"Velocity":33,"Duration":141843,"SoundDuration":141843,"Delta":477960223},{"NoteNumber":56,"Velocity":29,"Duration":141843,"SoundDuration":141843,"Delta":478102067},{"NoteNumber":59,"Velocity":29,"Duration":141843,"SoundDuration":141843,"Delta":478243911},{"NoteNumber":57,"Velocity":33,"Duration":141843,"SoundDuration":141843,"Delta":478385755},{"NoteNumber":54,"Velocity":26,"Duration":147257,"SoundDuration":147257,"Delta":478527599},{"NoteNumber":57,"Velocity":19,"Duration":229007,"SoundDuration":229007,"Delta":478598521},{"NoteNumber":64,"Velocity":23,"Duration":229007,"SoundDuration":229007,"Delta":478598521},{"NoteNumber":45,"Velocity":26,"Duration":152671,"SoundDuration":152671,"Delta":478674857},{"NoteNumber":66,"Velocity":30,"Duration":846173,"SoundDuration":846173,"Delta":478827529},{"NoteNumber":69,"Velocity":30,"Duration":863903,"SoundDuration":863903,"Delta":478827529},{"NoteNumber":33,"Velocity":29,"Duration":141843,"SoundDuration":141843,"Delta":479265901},{"NoteNumber":45,"Velocity":25,"Duration":124113,"SoundDuration":124113,"Delta":479407745},{"NoteNumber":45,"Velocity":25,"Duration":141843,"SoundDuration":141843,"Delta":479549589},{"NoteNumber":62,"Velocity":24,"Duration":638298,"SoundDuration":638298,"Delta":479691433},{"NoteNumber":66,"Velocity":29,"Duration":638298,"SoundDuration":638298,"Delta":479691433},{"NoteNumber":57,"Velocity":33,"Duration":141844,"SoundDuration":141844,"Delta":479691433},{"NoteNumber":56,"Velocity":29,"Duration":141843,"SoundDuration":141843,"Delta":479833277},{"NoteNumber":59,"Velocity":29,"Duration":141843,"SoundDuration":141843,"Delta":479975121},{"NoteNumber":57,"Velocity":33,"Duration":141843,"SoundDuration":141843,"Delta":480116965},{"NoteNumber":54,"Velocity":26,"Duration":147257,"SoundDuration":147257,"Delta":480258809},{"NoteNumber":57,"Velocity":19,"Duration":229007,"SoundDuration":229007,"Delta":480329731},{"NoteNumber":64,"Velocity":23,"Duration":229007,"SoundDuration":229007,"Delta":480329731},{"NoteNumber":45,"Velocity":26,"Duration":152671,"SoundDuration":152671,"Delta":480406067},{"NoteNumber":45,"Velocity":30,"Duration":221516,"SoundDuration":221516,"Delta":480558738},{"NoteNumber":54,"Velocity":30,"Duration":845969,"SoundDuration":845969,"Delta":480572583},{"NoteNumber":62,"Velocity":30,"Duration":832124,"SoundDuration":832124,"Delta":480586428},{"NoteNumber":69,"Velocity":35,"Duration":141843,"SoundDuration":141843,"Delta":480993021},{"NoteNumber":81,"Velocity":30,"Duration":124113,"SoundDuration":124113,"Delta":481134865},{"NoteNumber":81,"Velocity":30,"Duration":141843,"SoundDuration":141843,"Delta":481276709},{"NoteNumber":93,"Velocity":39,"Duration":141843,"SoundDuration":141843,"Delta":481418553},{"NoteNumber":57,"Velocity":24,"Duration":638297,"SoundDuration":638297,"Delta":481418553},{"NoteNumber":64,"Velocity":29,"Duration":638297,"SoundDuration":638297,"Delta":481418553},{"NoteNumber":92,"Velocity":35,"Duration":141843,"SoundDuration":141843,"Delta":481560397},{"NoteNumber":95,"Velocity":35,"Duration":141843,"SoundDuration":141843,"Delta":481702241},{"NoteNumber":93,"Velocity":39,"Duration":141843,"SoundDuration":141843,"Delta":481844085},{"NoteNumber":90,"Velocity":31,"Duration":147257,"SoundDuration":147257,"Delta":481985929},{"NoteNumber":62,"Velocity":19,"Duration":206106,"SoundDuration":206106,"Delta":482056851},{"NoteNumber":66,"Velocity":23,"Duration":206106,"SoundDuration":206106,"Delta":482056851},{"NoteNumber":81,"Velocity":31,"Duration":152671,"SoundDuration":152671,"Delta":482133187},{"NoteNumber":62,"Velocity":30,"Duration":863903,"SoundDuration":863903,"Delta":482285858},{"NoteNumber":66,"Velocity":30,"Duration":863903,"SoundDuration":863903,"Delta":482285858},{"NoteNumber":69,"Velocity":35,"Duration":141843,"SoundDuration":141843,"Delta":482724230},{"NoteNumber":81,"Velocity":30,"Duration":124113,"SoundDuration":124113,"Delta":482866074},{"NoteNumber":81,"Velocity":30,"Duration":141843,"SoundDuration":141843,"Delta":483007918},{"NoteNumber":93,"Velocity":39,"Duration":141844,"SoundDuration":141844,"Delta":483149762},{"NoteNumber":57,"Velocity":24,"Duration":425532,"SoundDuration":425532,"Delta":483149762},{"NoteNumber":64,"Velocity":29,"Duration":425532,"SoundDuration":425532,"Delta":483149762},{"NoteNumber":92,"Velocity":35,"Duration":141843,"SoundDuration":141843,"Delta":483291606},{"NoteNumber":95,"Velocity":35,"Duration":141843,"SoundDuration":141843,"Delta":483433450},{"NoteNumber":93,"Velocity":39,"Duration":141843,"SoundDuration":141843,"Delta":483575294},{"NoteNumber":88,"Velocity":31,"Duration":147257,"SoundDuration":147257,"Delta":483717138},{"NoteNumber":64,"Velocity":29,"Duration":229007,"SoundDuration":229007,"Delta":483788060},{"NoteNumber":57,"Velocity":24,"Duration":229007,"SoundDuration":229007,"Delta":483788060},{"NoteNumber":81,"Velocity":31,"Duration":152671,"SoundDuration":152671,"Delta":483864396},{"NoteNumber":71,"Velocity":33,"Duration":859814,"SoundDuration":859814,"Delta":484017068},{"NoteNumber":67,"Velocity":33,"Duration":846516,"SoundDuration":846516,"Delta":484017068},{"NoteNumber":73,"Velocity":38,"Duration":141843,"SoundDuration":141843,"Delta":484451350},{"NoteNumber":85,"Velocity":33,"Duration":124113,"SoundDuration":124113,"Delta":484593194},{"NoteNumber":85,"Velocity":33,"Duration":141843,"SoundDuration":141843,"Delta":484735038},{"NoteNumber":95,"Velocity":42,"Duration":141843,"SoundDuration":141843,"Delta":484876882},{"NoteNumber":64,"Velocity":26,"Duration":620567,"SoundDuration":620567,"Delta":484876882},{"NoteNumber":67,"Velocity":31,"Duration":638297,"SoundDuration":638297,"Delta":484876882},{"NoteNumber":94,"Velocity":38,"Duration":141843,"SoundDuration":141843,"Delta":485018726},{"NoteNumber":97,"Velocity":38,"Duration":141843,"SoundDuration":141843,"Delta":485160570},{"NoteNumber":95,"Velocity":42,"Duration":141843,"SoundDuration":141843,"Delta":485302414},{"NoteNumber":91,"Velocity":34,"Duration":147257,"SoundDuration":147257,"Delta":485444258},{"NoteNumber":61,"Velocity":20,"Duration":229007,"SoundDuration":229007,"Delta":485515180},{"NoteNumber":64,"Velocity":25,"Duration":229007,"SoundDuration":229007,"Delta":485515180},{"NoteNumber":88,"Velocity":34,"Duration":152671,"SoundDuration":152671,"Delta":485591516},{"NoteNumber":71,"Velocity":33,"Duration":856817,"SoundDuration":856817,"Delta":485744188},{"NoteNumber":67,"Velocity":33,"Duration":843613,"SoundDuration":843613,"Delta":485744188},{"NoteNumber":73,"Velocity":38,"Duration":140845,"SoundDuration":140845,"Delta":486178470},{"NoteNumber":85,"Velocity":33,"Duration":123239,"SoundDuration":123239,"Delta":486319315},{"NoteNumber":85,"Velocity":33,"Duration":140844,"SoundDuration":140844,"Delta":486460160},{"NoteNumber":95,"Velocity":42,"Duration":140845,"SoundDuration":140845,"Delta":486601005},{"NoteNumber":64,"Velocity":26,"Duration":616196,"SoundDuration":616196,"Delta":486601005},{"NoteNumber":67,"Velocity":31,"Duration":633802,"SoundDuration":633802,"Delta":486601005},{"NoteNumber":94,"Velocity":38,"Duration":140845,"SoundDuration":140845,"Delta":486741850},{"NoteNumber":97,"Velocity":38,"Duration":140845,"SoundDuration":140845,"Delta":486882695},{"NoteNumber":95,"Velocity":42,"Duration":140844,"SoundDuration":140844,"Delta":487023540},{"NoteNumber":91,"Velocity":34,"Duration":146758,"SoundDuration":146758,"Delta":487164385},{"NoteNumber":61,"Velocity":20,"Duration":229007,"SoundDuration":229007,"Delta":487234808},{"NoteNumber":64,"Velocity":25,"Duration":229007,"SoundDuration":229007,"Delta":487234808},{"NoteNumber":88,"Velocity":34,"Duration":152671,"SoundDuration":152671,"Delta":487311144},{"NoteNumber":70,"Velocity":33,"Duration":855335,"SoundDuration":855335,"Delta":487463815},{"NoteNumber":67,"Velocity":33,"Duration":842177,"SoundDuration":842177,"Delta":487463815},{"NoteNumber":73,"Velocity":38,"Duration":140351,"SoundDuration":140351,"Delta":487898098},{"NoteNumber":85,"Velocity":33,"Duration":122807,"SoundDuration":122807,"Delta":488038449},{"NoteNumber":85,"Velocity":33,"Duration":140350,"SoundDuration":140350,"Delta":488178800},{"NoteNumber":94,"Velocity":42,"Duration":140351,"SoundDuration":140351,"Delta":488319151},{"NoteNumber":64,"Velocity":26,"Duration":614035,"SoundDuration":614035,"Delta":488319151},{"NoteNumber":67,"Velocity":31,"Duration":631579,"SoundDuration":631579,"Delta":488319151},{"NoteNumber":93,"Velocity":38,"Duration":140351,"SoundDuration":140351,"Delta":488459502},{"NoteNumber":96,"Velocity":38,"Duration":140351,"SoundDuration":140351,"Delta":488599853},{"NoteNumber":94,"Velocity":42,"Duration":140351,"SoundDuration":140351,"Delta":488740204},{"NoteNumber":91,"Velocity":34,"Duration":146511,"SoundDuration":146511,"Delta":488880555},{"NoteNumber":61,"Velocity":20,"Duration":229007,"SoundDuration":229007,"Delta":488950730},{"NoteNumber":64,"Velocity":25,"Duration":229007,"SoundDuration":229007,"Delta":488950730},{"NoteNumber":88,"Velocity":34,"Duration":152671,"SoundDuration":152671,"Delta":489027066},{"NoteNumber":70,"Velocity":39,"Duration":424028,"SoundDuration":424028,"Delta":489179738},{"NoteNumber":67,"Velocity":39,"Duration":416960,"SoundDuration":416960,"Delta":489179738},{"NoteNumber":85,"Velocity":45,"Duration":141342,"SoundDuration":141342,"Delta":489321080},{"NoteNumber":96,"Velocity":45,"Duration":141342,"SoundDuration":141342,"Delta":489462423},{"NoteNumber":94,"Velocity":51,"Duration":141342,"SoundDuration":141342,"Delta":489603766},{"NoteNumber":64,"Velocity":31,"Duration":277384,"SoundDuration":277384,"Delta":489603766},{"NoteNumber":67,"Velocity":38,"Duration":282685,"SoundDuration":282685,"Delta":489603766},{"NoteNumber":91,"Velocity":42,"Duration":141342,"SoundDuration":141342,"Delta":489745108},{"NoteNumber":88,"Velocity":42,"Duration":150522,"SoundDuration":150522,"Delta":489886451},{"NoteNumber":61,"Velocity":25,"Duration":150522,"SoundDuration":150522,"Delta":489886451},{"NoteNumber":64,"Velocity":31,"Duration":150522,"SoundDuration":150522,"Delta":489886451},{"NoteNumber":70,"Velocity":41,"Duration":416667,"SoundDuration":416667,"Delta":490036974},{"NoteNumber":67,"Velocity":41,"Duration":407986,"SoundDuration":407986,"Delta":490036974},{"NoteNumber":85,"Velocity":48,"Duration":138889,"SoundDuration":138889,"Delta":490175863},{"NoteNumber":96,"Velocity":49,"Duration":138889,"SoundDuration":138889,"Delta":490314752},{"NoteNumber":94,"Velocity":55,"Duration":138889,"SoundDuration":138889,"Delta":490453641},{"NoteNumber":64,"Velocity":34,"Duration":277778,"SoundDuration":277778,"Delta":490453641},{"NoteNumber":67,"Velocity":41,"Duration":277778,"SoundDuration":277778,"Delta":490453641},{"NoteNumber":91,"Velocity":49,"Duration":138889,"SoundDuration":138889,"Delta":490592530},{"NoteNumber":88,"Velocity":49,"Duration":151091,"SoundDuration":151091,"Delta":490731419},{"NoteNumber":61,"Velocity":27,"Duration":151091,"SoundDuration":151091,"Delta":490731419},{"NoteNumber":64,"Velocity":33,"Duration":151091,"SoundDuration":151091,"Delta":490731419},{"NoteNumber":94,"Velocity":65,"Duration":138306,"SoundDuration":138306,"Delta":490882511},{"NoteNumber":67,"Velocity":57,"Duration":138306,"SoundDuration":138306,"Delta":490882511},{"NoteNumber":70,"Velocity":57,"Duration":138306,"SoundDuration":138306,"Delta":490882511},{"NoteNumber":91,"Velocity":53,"Duration":137580,"SoundDuration":137580,"Delta":491020817},{"NoteNumber":64,"Velocity":49,"Duration":137580,"SoundDuration":137580,"Delta":491020817},{"NoteNumber":88,"Velocity":56,"Duration":137288,"SoundDuration":137288,"Delta":491158397},{"NoteNumber":61,"Velocity":52,"Duration":137288,"SoundDuration":137288,"Delta":491158397},{"NoteNumber":94,"Velocity":70,"Duration":137108,"SoundDuration":137108,"Delta":491295685},{"NoteNumber":73,"Velocity":62,"Duration":137108,"SoundDuration":137108,"Delta":491295685},{"NoteNumber":91,"Velocity":60,"Duration":136760,"SoundDuration":136760,"Delta":491432793},{"NoteNumber":70,"Velocity":54,"Duration":136760,"SoundDuration":136760,"Delta":491432793},{"NoteNumber":88,"Velocity":61,"Duration":136639,"SoundDuration":136639,"Delta":491569553},{"NoteNumber":67,"Velocity":54,"Duration":136639,"SoundDuration":136639,"Delta":491569553},{"NoteNumber":94,"Velocity":79,"Duration":136236,"SoundDuration":136236,"Delta":491706193},{"NoteNumber":76,"Velocity":69,"Duration":136236,"SoundDuration":136236,"Delta":491706193},{"NoteNumber":91,"Velocity":65,"Duration":136091,"SoundDuration":136091,"Delta":491842429},{"NoteNumber":73,"Velocity":62,"Duration":136091,"SoundDuration":136091,"Delta":491842429},{"NoteNumber":88,"Velocity":68,"Duration":135712,"SoundDuration":135712,"Delta":491978521},{"NoteNumber":70,"Velocity":63,"Duration":135712,"SoundDuration":135712,"Delta":491978521},{"NoteNumber":94,"Velocity":86,"Duration":135712,"SoundDuration":135712,"Delta":492114233},{"NoteNumber":79,"Velocity":76,"Duration":135712,"SoundDuration":135712,"Delta":492114233},{"NoteNumber":91,"Velocity":72,"Duration":135712,"SoundDuration":135712,"Delta":492249946},{"NoteNumber":76,"Velocity":64,"Duration":135712,"SoundDuration":135712,"Delta":492249946},{"NoteNumber":88,"Velocity":74,"Duration":139757,"SoundDuration":139757,"Delta":492385659},{"NoteNumber":73,"Velocity":66,"Duration":139757,"SoundDuration":139757,"Delta":492385659},{"NoteNumber":82,"Velocity":77,"Duration":143910,"SoundDuration":143910,"Delta":492525416},{"NoteNumber":94,"Velocity":91,"Duration":143910,"SoundDuration":143910,"Delta":492525416},{"NoteNumber":91,"Velocity":79,"Duration":146745,"SoundDuration":146745,"Delta":492669326},{"NoteNumber":88,"Velocity":80,"Duration":149665,"SoundDuration":149665,"Delta":492816072},{"NoteNumber":82,"Velocity":80,"Duration":151728,"SoundDuration":151728,"Delta":492965738},{"NoteNumber":94,"Velocity":94,"Duration":151728,"SoundDuration":151728,"Delta":492965738},{"NoteNumber":64,"Velocity":70,"Duration":113562,"SoundDuration":113562,"Delta":492965738},{"NoteNumber":52,"Velocity":58,"Duration":113562,"SoundDuration":113562,"Delta":492965738},{"NoteNumber":91,"Velocity":82,"Duration":154690,"SoundDuration":154690,"Delta":493117466},{"NoteNumber":61,"Velocity":61,"Duration":116913,"SoundDuration":116913,"Delta":493194419},{"NoteNumber":49,"Velocity":52,"Duration":116913,"SoundDuration":116913,"Delta":493194419},{"NoteNumber":88,"Velocity":83,"Duration":157939,"SoundDuration":157939,"Delta":493272157},{"NoteNumber":82,"Velocity":82,"Duration":163402,"SoundDuration":163402,"Delta":493430096},{"NoteNumber":94,"Velocity":97,"Duration":163402,"SoundDuration":163402,"Delta":493430096},{"NoteNumber":46,"Velocity":68,"Duration":121863,"SoundDuration":121863,"Delta":493430096},{"NoteNumber":58,"Velocity":81,"Duration":121863,"SoundDuration":121863,"Delta":493430096},{"NoteNumber":91,"Velocity":86,"Duration":166669,"SoundDuration":166669,"Delta":493593499},{"NoteNumber":43,"Velocity":64,"Duration":125305,"SoundDuration":125305,"Delta":493676745},{"NoteNumber":55,"Velocity":76,"Duration":125305,"SoundDuration":125305,"Delta":493676745},{"NoteNumber":88,"Velocity":86,"Duration":168059,"SoundDuration":168059,"Delta":493760169},{"NoteNumber":82,"Velocity":85,"Duration":172357,"SoundDuration":172357,"Delta":493928228},{"NoteNumber":94,"Velocity":101,"Duration":172357,"SoundDuration":172357,"Delta":493928228},{"NoteNumber":40,"Velocity":78,"Duration":128739,"SoundDuration":128739,"Delta":493928228},{"NoteNumber":52,"Velocity":93,"Duration":128739,"SoundDuration":128739,"Delta":493928228},{"NoteNumber":91,"Velocity":88,"Duration":177767,"SoundDuration":177767,"Delta":494100585},{"NoteNumber":37,"Velocity":72,"Duration":134920,"SoundDuration":134920,"Delta":494188776},{"NoteNumber":49,"Velocity":85,"Duration":134920,"SoundDuration":134920,"Delta":494188776},{"NoteNumber":88,"Velocity":89,"Duration":183176,"SoundDuration":183176,"Delta":494278353},{"NoteNumber":82,"Velocity":91,"Duration":752760,"SoundDuration":752760,"Delta":494461530},{"NoteNumber":88,"Velocity":91,"Duration":752760,"SoundDuration":752760,"Delta":494461530},{"NoteNumber":91,"Velocity":91,"Duration":752760,"SoundDuration":752760,"Delta":494461530},{"NoteNumber":94,"Velocity":110,"Duration":752760,"SoundDuration":752760,"Delta":494461530},{"NoteNumber":48,"Velocity":88,"Duration":752760,"SoundDuration":752760,"Delta":494461530},{"NoteNumber":43,"Velocity":79,"Duration":752760,"SoundDuration":752760,"Delta":494461530},{"NoteNumber":36,"Velocity":75,"Duration":752760,"SoundDuration":752760,"Delta":494461530},{"NoteNumber":58,"Velocity":70,"Duration":192636,"SoundDuration":192636,"Delta":495214290},{"NoteNumber":64,"Velocity":84,"Duration":192636,"SoundDuration":192636,"Delta":495214290},{"NoteNumber":52,"Velocity":70,"Duration":192636,"SoundDuration":192636,"Delta":495214290},{"NoteNumber":60,"Velocity":70,"Duration":192636,"SoundDuration":192636,"Delta":495214290},{"NoteNumber":36,"Velocity":66,"Duration":192636,"SoundDuration":192636,"Delta":495214290},{"NoteNumber":43,"Velocity":66,"Duration":192636,"SoundDuration":192636,"Delta":495214290},{"NoteNumber":48,"Velocity":78,"Duration":192636,"SoundDuration":192636,"Delta":495214290},{"NoteNumber":58,"Velocity":74,"Duration":475360,"SoundDuration":475360,"Delta":495428331},{"NoteNumber":52,"Velocity":74,"Duration":475360,"SoundDuration":475360,"Delta":495428331},{"NoteNumber":64,"Velocity":89,"Duration":475360,"SoundDuration":475360,"Delta":495428331},{"NoteNumber":60,"Velocity":74,"Duration":475360,"SoundDuration":475360,"Delta":495428331},{"NoteNumber":36,"Velocity":66,"Duration":475360,"SoundDuration":475360,"Delta":495428331},{"NoteNumber":43,"Velocity":66,"Duration":475360,"SoundDuration":475360,"Delta":495428331},{"NoteNumber":48,"Velocity":78,"Duration":475360,"SoundDuration":475360,"Delta":495428331},{"NoteNumber":65,"Velocity":85,"Duration":111723,"SoundDuration":111723,"Delta":495903691},{"NoteNumber":53,"Velocity":72,"Duration":111723,"SoundDuration":111723,"Delta":495903691},{"NoteNumber":60,"Velocity":72,"Duration":111723,"SoundDuration":111723,"Delta":495903691},{"NoteNumber":38,"Velocity":60,"Duration":111723,"SoundDuration":111723,"Delta":495903691},{"NoteNumber":50,"Velocity":70,"Duration":111723,"SoundDuration":111723,"Delta":495903691},{"NoteNumber":55,"Velocity":75,"Duration":121951,"SoundDuration":121951,"Delta":496127138},{"NoteNumber":60,"Velocity":75,"Duration":121951,"SoundDuration":121951,"Delta":496127138},{"NoteNumber":67,"Velocity":90,"Duration":121951,"SoundDuration":121951,"Delta":496127138},{"NoteNumber":40,"Velocity":66,"Duration":121951,"SoundDuration":121951,"Delta":496127138},{"NoteNumber":48,"Velocity":66,"Duration":121951,"SoundDuration":121951,"Delta":496127138},{"NoteNumber":52,"Velocity":78,"Duration":121951,"SoundDuration":121951,"Delta":496127138},{"NoteNumber":69,"Velocity":93,"Duration":113731,"SoundDuration":113731,"Delta":496371040},{"NoteNumber":60,"Velocity":79,"Duration":113731,"SoundDuration":113731,"Delta":496371040},{"NoteNumber":57,"Velocity":73,"Duration":113731,"SoundDuration":113731,"Delta":496371040},{"NoteNumber":41,"Velocity":67,"Duration":113731,"SoundDuration":113731,"Delta":496371040},{"NoteNumber":48,"Velocity":67,"Duration":113731,"SoundDuration":113731,"Delta":496371040},{"NoteNumber":53,"Velocity":80,"Duration":113731,"SoundDuration":113731,"Delta":496371040},{"NoteNumber":60,"Velocity":74,"Duration":113731,"SoundDuration":113731,"Delta":496825965},{"NoteNumber":55,"Velocity":69,"Duration":113731,"SoundDuration":113731,"Delta":496825965},{"NoteNumber":67,"Velocity":89,"Duration":113731,"SoundDuration":113731,"Delta":496825965},{"NoteNumber":40,"Velocity":62,"Duration":113731,"SoundDuration":113731,"Delta":496825965},{"NoteNumber":48,"Velocity":62,"Duration":113731,"SoundDuration":113731,"Delta":496825965},{"NoteNumber":52,"Velocity":74,"Duration":113731,"SoundDuration":113731,"Delta":496825965},{"NoteNumber":58,"Velocity":70,"Duration":204716,"SoundDuration":204716,"Delta":497963278},{"NoteNumber":60,"Velocity":70,"Duration":204716,"SoundDuration":204716,"Delta":497963278},{"NoteNumber":52,"Velocity":70,"Duration":204716,"SoundDuration":204716,"Delta":497963278},{"NoteNumber":64,"Velocity":84,"Duration":204716,"SoundDuration":204716,"Delta":497963278},{"NoteNumber":36,"Velocity":66,"Duration":204716,"SoundDuration":204716,"Delta":497963278},{"NoteNumber":43,"Velocity":66,"Duration":204716,"SoundDuration":204716,"Delta":497963278},{"NoteNumber":48,"Velocity":78,"Duration":204716,"SoundDuration":204716,"Delta":497963278},{"NoteNumber":58,"Velocity":78,"Duration":454925,"SoundDuration":454925,"Delta":498190740},{"NoteNumber":64,"Velocity":92,"Duration":454925,"SoundDuration":454925,"Delta":498190740},{"NoteNumber":52,"Velocity":78,"Duration":454925,"SoundDuration":454925,"Delta":498190740},{"NoteNumber":60,"Velocity":78,"Duration":454925,"SoundDuration":454925,"Delta":498190740},{"NoteNumber":36,"Velocity":66,"Duration":454925,"SoundDuration":454925,"Delta":498190740},{"NoteNumber":43,"Velocity":66,"Duration":454925,"SoundDuration":454925,"Delta":498190740},{"NoteNumber":48,"Velocity":78,"Duration":454925,"SoundDuration":454925,"Delta":498190740},{"NoteNumber":65,"Velocity":92,"Duration":107434,"SoundDuration":107434,"Delta":498645665},{"NoteNumber":60,"Velocity":78,"Duration":107434,"SoundDuration":107434,"Delta":498645665},{"NoteNumber":53,"Velocity":78,"Duration":107434,"SoundDuration":107434,"Delta":498645665},{"NoteNumber":38,"Velocity":60,"Duration":107434,"SoundDuration":107434,"Delta":498645665},{"NoteNumber":50,"Velocity":70,"Duration":107434,"SoundDuration":107434,"Delta":498645665},{"NoteNumber":60,"Velocity":81,"Duration":119865,"SoundDuration":119865,"Delta":498860534},{"NoteNumber":55,"Velocity":81,"Duration":119865,"SoundDuration":119865,"Delta":498860534},{"NoteNumber":67,"Velocity":96,"Duration":119865,"SoundDuration":119865,"Delta":498860534},{"NoteNumber":40,"Velocity":66,"Duration":119865,"SoundDuration":119865,"Delta":498860534},{"NoteNumber":48,"Velocity":66,"Duration":119865,"SoundDuration":119865,"Delta":498860534},{"NoteNumber":52,"Velocity":78,"Duration":119865,"SoundDuration":119865,"Delta":498860534},{"NoteNumber":60,"Velocity":84,"Duration":443360,"SoundDuration":443360,"Delta":499100266},{"NoteNumber":57,"Velocity":84,"Duration":443360,"SoundDuration":443360,"Delta":499100266},{"NoteNumber":69,"Velocity":100,"Duration":443360,"SoundDuration":443360,"Delta":499100266},{"NoteNumber":41,"Velocity":67,"Duration":221680,"SoundDuration":221680,"Delta":499100266},{"NoteNumber":48,"Velocity":67,"Duration":221680,"SoundDuration":221680,"Delta":499100266},{"NoteNumber":53,"Velocity":80,"Duration":221680,"SoundDuration":221680,"Delta":499100266},{"NoteNumber":55,"Velocity":81,"Duration":106209,"SoundDuration":106209,"Delta":499543627},{"NoteNumber":67,"Velocity":97,"Duration":106209,"SoundDuration":106209,"Delta":499543627},{"NoteNumber":60,"Velocity":81,"Duration":106209,"SoundDuration":106209,"Delta":499543627},{"NoteNumber":48,"Velocity":60,"Duration":106209,"SoundDuration":106209,"Delta":499543627},{"NoteNumber":40,"Velocity":60,"Duration":106209,"SoundDuration":106209,"Delta":499543627},{"NoteNumber":52,"Velocity":70,"Duration":106209,"SoundDuration":106209,"Delta":499543627},{"NoteNumber":60,"Velocity":84,"Duration":118839,"SoundDuration":118839,"Delta":499756046},{"NoteNumber":57,"Velocity":84,"Duration":118839,"SoundDuration":118839,"Delta":499756046},{"NoteNumber":69,"Velocity":100,"Duration":118839,"SoundDuration":118839,"Delta":499756046},{"NoteNumber":41,"Velocity":66,"Duration":118839,"SoundDuration":118839,"Delta":499756046},{"NoteNumber":48,"Velocity":66,"Duration":118839,"SoundDuration":118839,"Delta":499756046},{"NoteNumber":53,"Velocity":78,"Duration":118839,"SoundDuration":118839,"Delta":499756046},{"NoteNumber":58,"Velocity":86,"Duration":112620,"SoundDuration":112620,"Delta":499993726},{"NoteNumber":70,"Velocity":102,"Duration":112620,"SoundDuration":112620,"Delta":499993726},{"NoteNumber":60,"Velocity":86,"Duration":112620,"SoundDuration":112620,"Delta":499993726},{"NoteNumber":43,"Velocity":67,"Duration":112620,"SoundDuration":112620,"Delta":499993726},{"NoteNumber":48,"Velocity":67,"Duration":112620,"SoundDuration":112620,"Delta":499993726},{"NoteNumber":55,"Velocity":80,"Duration":112620,"SoundDuration":112620,"Delta":499993726},{"NoteNumber":57,"Velocity":81,"Duration":112620,"SoundDuration":112620,"Delta":500444210},{"NoteNumber":69,"Velocity":97,"Duration":112620,"SoundDuration":112620,"Delta":500444210},{"NoteNumber":60,"Velocity":81,"Duration":112620,"SoundDuration":112620,"Delta":500444210},{"NoteNumber":41,"Velocity":62,"Duration":112620,"SoundDuration":112620,"Delta":500444210},{"NoteNumber":48,"Velocity":62,"Duration":112620,"SoundDuration":112620,"Delta":500444210},{"NoteNumber":53,"Velocity":74,"Duration":112620,"SoundDuration":112620,"Delta":500444210},{"NoteNumber":67,"Velocity":71,"Duration":111723,"SoundDuration":111723,"Delta":501345178},{"NoteNumber":60,"Velocity":60,"Duration":111723,"SoundDuration":111723,"Delta":501345178},{"NoteNumber":55,"Velocity":60,"Duration":111723,"SoundDuration":111723,"Delta":501345178},{"NoteNumber":48,"Velocity":50,"Duration":111723,"SoundDuration":111723,"Delta":501345178},{"NoteNumber":40,"Velocity":50,"Duration":111723,"SoundDuration":111723,"Delta":501345178},{"NoteNumber":52,"Velocity":59,"Duration":111723,"SoundDuration":111723,"Delta":501345178},{"NoteNumber":60,"Velocity":63,"Duration":121951,"SoundDuration":121951,"Delta":501568625},{"NoteNumber":57,"Velocity":63,"Duration":121951,"SoundDuration":121951,"Delta":501568625},{"NoteNumber":69,"Velocity":75,"Duration":121951,"SoundDuration":121951,"Delta":501568625},{"NoteNumber":41,"Velocity":55,"Duration":121951,"SoundDuration":121951,"Delta":501568625},{"NoteNumber":48,"Velocity":55,"Duration":121951,"SoundDuration":121951,"Delta":501568625},{"NoteNumber":53,"Velocity":65,"Duration":121951,"SoundDuration":121951,"Delta":501568625},{"NoteNumber":67,"Velocity":66,"Duration":111284,"SoundDuration":111284,"Delta":501812528},{"NoteNumber":59,"Velocity":66,"Duration":111284,"SoundDuration":111284,"Delta":501812528},{"NoteNumber":71,"Velocity":78,"Duration":111284,"SoundDuration":111284,"Delta":501812528},{"NoteNumber":65,"Velocity":66,"Duration":111284,"SoundDuration":111284,"Delta":501812528},{"NoteNumber":38,"Velocity":56,"Duration":111284,"SoundDuration":111284,"Delta":501812528},{"NoteNumber":50,"Velocity":67,"Duration":111284,"SoundDuration":111284,"Delta":501812528},{"NoteNumber":67,"Velocity":68,"Duration":113541,"SoundDuration":113541,"Delta":502257665},{"NoteNumber":60,"Velocity":68,"Duration":113541,"SoundDuration":113541,"Delta":502257665},{"NoteNumber":64,"Velocity":68,"Duration":113541,"SoundDuration":113541,"Delta":502257665},{"NoteNumber":72,"Velocity":80,"Duration":113541,"SoundDuration":113541,"Delta":502257665},{"NoteNumber":40,"Velocity":57,"Duration":113541,"SoundDuration":113541,"Delta":502257665},{"NoteNumber":52,"Velocity":68,"Duration":113541,"SoundDuration":113541,"Delta":502257665},{"NoteNumber":74,"Velocity":82,"Duration":111723,"SoundDuration":111723,"Delta":502711832},{"NoteNumber":67,"Velocity":69,"Duration":111723,"SoundDuration":111723,"Delta":502711832},{"NoteNumber":62,"Velocity":69,"Duration":111723,"SoundDuration":111723,"Delta":502711832},{"NoteNumber":35,"Velocity":59,"Duration":111723,"SoundDuration":111723,"Delta":502711832},{"NoteNumber":47,"Velocity":70,"Duration":111723,"SoundDuration":111723,"Delta":502711832},{"NoteNumber":64,"Velocity":71,"Duration":113998,"SoundDuration":113998,"Delta":503158726},{"NoteNumber":76,"Velocity":84,"Duration":113998,"SoundDuration":113998,"Delta":503158726},{"NoteNumber":67,"Velocity":71,"Duration":113998,"SoundDuration":113998,"Delta":503158726},{"NoteNumber":36,"Velocity":62,"Duration":113998,"SoundDuration":113998,"Delta":503158726},{"NoteNumber":48,"Velocity":73,"Duration":113998,"SoundDuration":113998,"Delta":503158726},{"NoteNumber":78,"Velocity":78,"Duration":77874,"SoundDuration":77874,"Delta":503615281},{"NoteNumber":74,"Velocity":72,"Duration":901589,"SoundDuration":901589,"Delta":503615281},{"NoteNumber":72,"Velocity":72,"Duration":901589,"SoundDuration":901589,"Delta":503615281},{"NoteNumber":33,"Velocity":67,"Duration":901589,"SoundDuration":901589,"Delta":503615281},{"NoteNumber":38,"Velocity":67,"Duration":901589,"SoundDuration":901589,"Delta":503615281},{"NoteNumber":45,"Velocity":79,"Duration":901589,"SoundDuration":901589,"Delta":503615281},{"NoteNumber":79,"Velocity":73,"Duration":77053,"SoundDuration":77053,"Delta":503693155},{"NoteNumber":78,"Velocity":80,"Duration":76245,"SoundDuration":76245,"Delta":503770209},{"NoteNumber":79,"Velocity":75,"Duration":75478,"SoundDuration":75478,"Delta":503846454},{"NoteNumber":78,"Velocity":82,"Duration":74740,"SoundDuration":74740,"Delta":503921933},{"NoteNumber":79,"Velocity":78,"Duration":73772,"SoundDuration":73772,"Delta":503996674},{"NoteNumber":78,"Velocity":84,"Duration":73754,"SoundDuration":73754,"Delta":504070447},{"NoteNumber":79,"Velocity":81,"Duration":73989,"SoundDuration":73989,"Delta":504144201},{"NoteNumber":78,"Velocity":86,"Duration":74295,"SoundDuration":74295,"Delta":504218190},{"NoteNumber":79,"Velocity":84,"Duration":55861,"SoundDuration":55861,"Delta":504292486},{"NoteNumber":78,"Velocity":89,"Duration":56061,"SoundDuration":56061,"Delta":504348348},{"NoteNumber":76,"Velocity":84,"Duration":56150,"SoundDuration":56150,"Delta":504404409},{"NoteNumber":78,"Velocity":85,"Duration":56310,"SoundDuration":56310,"Delta":504460559},{"NoteNumber":71,"Velocity":79,"Duration":437285,"SoundDuration":437285,"Delta":504516870},{"NoteNumber":79,"Velocity":93,"Duration":437285,"SoundDuration":437285,"Delta":504516870},{"NoteNumber":31,"Velocity":63,"Duration":437285,"SoundDuration":437285,"Delta":504516870},{"NoteNumber":38,"Velocity":63,"Duration":437285,"SoundDuration":437285,"Delta":504516870},{"NoteNumber":43,"Velocity":75,"Duration":437285,"SoundDuration":437285,"Delta":504516870},{"NoteNumber":74,"Velocity":83,"Duration":103092,"SoundDuration":103092,"Delta":504954156},{"NoteNumber":62,"Velocity":70,"Duration":103092,"SoundDuration":103092,"Delta":504954156},{"NoteNumber":78,"Velocity":75,"Duration":107527,"SoundDuration":107527,"Delta":505160341},{"NoteNumber":66,"Velocity":63,"Duration":107527,"SoundDuration":107527,"Delta":505160341},{"NoteNumber":79,"Velocity":83,"Duration":106382,"SoundDuration":106382,"Delta":505375395},{"NoteNumber":67,"Velocity":69,"Duration":106382,"SoundDuration":106382,"Delta":505375395},{"NoteNumber":62,"Velocity":66,"Duration":103092,"SoundDuration":103092,"Delta":505800927},{"NoteNumber":50,"Velocity":56,"Duration":103092,"SoundDuration":103092,"Delta":505800927},{"NoteNumber":66,"Velocity":60,"Duration":108303,"SoundDuration":108303,"Delta":506007113},{"NoteNumber":54,"Velocity":50,"Duration":108303,"SoundDuration":108303,"Delta":506007113},{"NoteNumber":67,"Velocity":66,"Duration":109970,"SoundDuration":109970,"Delta":506223719},{"NoteNumber":55,"Velocity":55,"Duration":109970,"SoundDuration":109970,"Delta":506223719},{"NoteNumber":50,"Velocity":69,"Duration":107020,"SoundDuration":107020,"Delta":506663602},{"NoteNumber":38,"Velocity":56,"Duration":107020,"SoundDuration":107020,"Delta":506663602},{"NoteNumber":54,"Velocity":61,"Duration":115892,"SoundDuration":115892,"Delta":506877643},{"NoteNumber":42,"Velocity":50,"Duration":115892,"SoundDuration":115892,"Delta":506877643},{"NoteNumber":55,"Velocity":65,"Duration":112174,"SoundDuration":112174,"Delta":507109429},{"NoteNumber":43,"Velocity":55,"Duration":448698,"SoundDuration":448698,"Delta":507109429},{"NoteNumber":59,"Velocity":65,"Duration":112174,"SoundDuration":112174,"Delta":507221604},{"NoteNumber":60,"Velocity":66,"Duration":112174,"SoundDuration":112174,"Delta":507333778},{"NoteNumber":62,"Velocity":67,"Duration":112174,"SoundDuration":112174,"Delta":507445953},{"NoteNumber":64,"Velocity":68,"Duration":112174,"SoundDuration":112174,"Delta":507558128},{"NoteNumber":66,"Velocity":69,"Duration":112174,"SoundDuration":112174,"Delta":507670303},{"NoteNumber":67,"Velocity":70,"Duration":112174,"SoundDuration":112174,"Delta":507782477},{"NoteNumber":69,"Velocity":71,"Duration":112314,"SoundDuration":112314,"Delta":507894652},{"NoteNumber":71,"Velocity":71,"Duration":112449,"SoundDuration":112449,"Delta":508006966},{"NoteNumber":59,"Velocity":48,"Duration":447067,"SoundDuration":447067,"Delta":508006966},{"NoteNumber":55,"Velocity":48,"Duration":447067,"SoundDuration":447067,"Delta":508006966},{"NoteNumber":62,"Velocity":55,"Duration":447067,"SoundDuration":447067,"Delta":508006966},{"NoteNumber":74,"Velocity":72,"Duration":112015,"SoundDuration":112015,"Delta":508119416},{"NoteNumber":76,"Velocity":75,"Duration":111516,"SoundDuration":111516,"Delta":508231432},{"NoteNumber":78,"Velocity":78,"Duration":111086,"SoundDuration":111086,"Delta":508342948},{"NoteNumber":79,"Velocity":81,"Duration":110594,"SoundDuration":110594,"Delta":508454034},{"NoteNumber":83,"Velocity":83,"Duration":110137,"SoundDuration":110137,"Delta":508564629},{"NoteNumber":84,"Velocity":86,"Duration":109671,"SoundDuration":109671,"Delta":508674767},{"NoteNumber":86,"Velocity":89,"Duration":109192,"SoundDuration":109192,"Delta":508784438},{"NoteNumber":48,"Velocity":69,"Duration":752760,"SoundDuration":752760,"Delta":508893630},{"NoteNumber":51,"Velocity":72,"Duration":721395,"SoundDuration":721395,"Delta":508924995},{"NoteNumber":55,"Velocity":77,"Duration":690030,"SoundDuration":690030,"Delta":508956360},{"NoteNumber":84,"Velocity":84,"Duration":658665,"SoundDuration":658665,"Delta":508987725},{"NoteNumber":79,"Velocity":84,"Duration":658665,"SoundDuration":658665,"Delta":508987725},{"NoteNumber":75,"Velocity":84,"Duration":658665,"SoundDuration":658665,"Delta":508987725},{"NoteNumber":87,"Velocity":101,"Duration":658665,"SoundDuration":658665,"Delta":508987725},{"NoteNumber":60,"Velocity":80,"Duration":658665,"SoundDuration":658665,"Delta":508987725},{"NoteNumber":63,"Velocity":88,"Duration":192636,"SoundDuration":192636,"Delta":509646390},{"NoteNumber":60,"Velocity":73,"Duration":192636,"SoundDuration":192636,"Delta":509646390},{"NoteNumber":51,"Velocity":73,"Duration":192636,"SoundDuration":192636,"Delta":509646390},{"NoteNumber":43,"Velocity":60,"Duration":192636,"SoundDuration":192636,"Delta":509646390},{"NoteNumber":36,"Velocity":60,"Duration":192636,"SoundDuration":192636,"Delta":509646390},{"NoteNumber":48,"Velocity":71,"Duration":192636,"SoundDuration":192636,"Delta":509646390},{"NoteNumber":51,"Velocity":78,"Duration":475360,"SoundDuration":475360,"Delta":509860431},{"NoteNumber":60,"Velocity":78,"Duration":475360,"SoundDuration":475360,"Delta":509860431},{"NoteNumber":63,"Velocity":93,"Duration":475360,"SoundDuration":475360,"Delta":509860431},{"NoteNumber":43,"Velocity":60,"Duration":475360,"SoundDuration":475360,"Delta":509860431},{"NoteNumber":36,"Velocity":60,"Duration":475360,"SoundDuration":475360,"Delta":509860431},{"NoteNumber":48,"Velocity":71,"Duration":475360,"SoundDuration":475360,"Delta":509860431},{"NoteNumber":53,"Velocity":75,"Duration":111723,"SoundDuration":111723,"Delta":510335791},{"NoteNumber":60,"Velocity":75,"Duration":111723,"SoundDuration":111723,"Delta":510335791},{"NoteNumber":65,"Velocity":89,"Duration":111723,"SoundDuration":111723,"Delta":510335791},{"NoteNumber":38,"Velocity":55,"Duration":111723,"SoundDuration":111723,"Delta":510335791},{"NoteNumber":50,"Velocity":64,"Duration":111723,"SoundDuration":111723,"Delta":510335791},{"NoteNumber":55,"Velocity":79,"Duration":121951,"SoundDuration":121951,"Delta":510559238},{"NoteNumber":67,"Velocity":94,"Duration":121951,"SoundDuration":121951,"Delta":510559238},{"NoteNumber":60,"Velocity":79,"Duration":121951,"SoundDuration":121951,"Delta":510559238},{"NoteNumber":39,"Velocity":60,"Duration":121951,"SoundDuration":121951,"Delta":510559238},{"NoteNumber":51,"Velocity":71,"Duration":121951,"SoundDuration":121951,"Delta":510559238},{"NoteNumber":68,"Velocity":97,"Duration":117187,"SoundDuration":117187,"Delta":510803141},{"NoteNumber":60,"Velocity":82,"Duration":117187,"SoundDuration":117187,"Delta":510803141},{"NoteNumber":56,"Velocity":82,"Duration":117187,"SoundDuration":117187,"Delta":510803141},{"NoteNumber":41,"Velocity":61,"Duration":117187,"SoundDuration":117187,"Delta":510803141},{"NoteNumber":48,"Velocity":61,"Duration":117187,"SoundDuration":117187,"Delta":510803141},{"NoteNumber":53,"Velocity":73,"Duration":117187,"SoundDuration":117187,"Delta":510803141},{"NoteNumber":56,"Velocity":78,"Duration":113636,"SoundDuration":113636,"Delta":511271891},{"NoteNumber":60,"Velocity":78,"Duration":113636,"SoundDuration":113636,"Delta":511271891},{"NoteNumber":68,"Velocity":93,"Duration":113636,"SoundDuration":113636,"Delta":511271891},{"NoteNumber":41,"Velocity":57,"Duration":113636,"SoundDuration":113636,"Delta":511271891},{"NoteNumber":48,"Velocity":57,"Duration":113636,"SoundDuration":113636,"Delta":511271891},{"NoteNumber":53,"Velocity":68,"Duration":113636,"SoundDuration":113636,"Delta":511271891},{"NoteNumber":68,"Velocity":82,"Duration":113636,"SoundDuration":113636,"Delta":512180981},{"NoteNumber":80,"Velocity":97,"Duration":113636,"SoundDuration":113636,"Delta":512180981},{"NoteNumber":44,"Velocity":61,"Duration":113636,"SoundDuration":113636,"Delta":512180981},{"NoteNumber":56,"Velocity":73,"Duration":113636,"SoundDuration":113636,"Delta":512180981},{"NoteNumber":49,"Velocity":69,"Duration":752759,"SoundDuration":752759,"Delta":512635526},{"NoteNumber":56,"Velocity":72,"Duration":721394,"SoundDuration":721394,"Delta":512666891},{"NoteNumber":61,"Velocity":77,"Duration":690029,"SoundDuration":690029,"Delta":512698256},{"NoteNumber":65,"Velocity":80,"Duration":658664,"SoundDuration":658664,"Delta":512729621},{"NoteNumber":77,"Velocity":84,"Duration":654055,"SoundDuration":654055,"Delta":512760986},{"NoteNumber":80,"Velocity":84,"Duration":654055,"SoundDuration":654055,"Delta":512760986},{"NoteNumber":89,"Velocity":101,"Duration":654055,"SoundDuration":654055,"Delta":512760986},{"NoteNumber":65,"Velocity":88,"Duration":192636,"SoundDuration":192636,"Delta":513388286},{"NoteNumber":61,"Velocity":73,"Duration":192636,"SoundDuration":192636,"Delta":513388286},{"NoteNumber":53,"Velocity":73,"Duration":192636,"SoundDuration":192636,"Delta":513388286},{"NoteNumber":37,"Velocity":60,"Duration":192636,"SoundDuration":192636,"Delta":513388286},{"NoteNumber":49,"Velocity":71,"Duration":192636,"SoundDuration":192636,"Delta":513388286},{"NoteNumber":53,"Velocity":78,"Duration":475360,"SoundDuration":475360,"Delta":513602327},{"NoteNumber":61,"Velocity":78,"Duration":475360,"SoundDuration":475360,"Delta":513602327},{"NoteNumber":65,"Velocity":93,"Duration":475360,"SoundDuration":475360,"Delta":513602327},{"NoteNumber":37,"Velocity":60,"Duration":475360,"SoundDuration":475360,"Delta":513602327},{"NoteNumber":49,"Velocity":71,"Duration":475360,"SoundDuration":475360,"Delta":513602327},{"NoteNumber":54,"Velocity":75,"Duration":111723,"SoundDuration":111723,"Delta":514077687},{"NoteNumber":61,"Velocity":75,"Duration":111723,"SoundDuration":111723,"Delta":514077687},{"NoteNumber":66,"Velocity":89,"Duration":111723,"SoundDuration":111723,"Delta":514077687},{"NoteNumber":39,"Velocity":55,"Duration":111723,"SoundDuration":111723,"Delta":514077687},{"NoteNumber":51,"Velocity":64,"Duration":111723,"SoundDuration":111723,"Delta":514077687},{"NoteNumber":56,"Velocity":79,"Duration":121951,"SoundDuration":121951,"Delta":514301134},{"NoteNumber":68,"Velocity":94,"Duration":121951,"SoundDuration":121951,"Delta":514301134},{"NoteNumber":61,"Velocity":79,"Duration":121951,"SoundDuration":121951,"Delta":514301134},{"NoteNumber":41,"Velocity":60,"Duration":121951,"SoundDuration":121951,"Delta":514301134},{"NoteNumber":53,"Velocity":71,"Duration":121951,"SoundDuration":121951,"Delta":514301134},{"NoteNumber":69,"Velocity":97,"Duration":118576,"SoundDuration":118576,"Delta":514545036},{"NoteNumber":66,"Velocity":82,"Duration":118576,"SoundDuration":118576,"Delta":514545036},{"NoteNumber":57,"Velocity":73,"Duration":118576,"SoundDuration":118576,"Delta":514545036},{"NoteNumber":42,"Velocity":54,"Duration":118576,"SoundDuration":118576,"Delta":514545036},{"NoteNumber":49,"Velocity":54,"Duration":118576,"SoundDuration":118576,"Delta":514545036},{"NoteNumber":54,"Velocity":65,"Duration":118576,"SoundDuration":118576,"Delta":514545036},{"NoteNumber":57,"Velocity":70,"Duration":114503,"SoundDuration":114503,"Delta":515019344},{"NoteNumber":66,"Velocity":78,"Duration":114503,"SoundDuration":114503,"Delta":515019344},{"NoteNumber":69,"Velocity":93,"Duration":114503,"SoundDuration":114503,"Delta":515019344},{"NoteNumber":42,"Velocity":51,"Duration":114503,"SoundDuration":114503,"Delta":515019344},{"NoteNumber":49,"Velocity":51,"Duration":114503,"SoundDuration":114503,"Delta":515019344},{"NoteNumber":54,"Velocity":61,"Duration":114503,"SoundDuration":114503,"Delta":515019344},{"NoteNumber":69,"Velocity":82,"Duration":113731,"SoundDuration":113731,"Delta":515935374},{"NoteNumber":81,"Velocity":97,"Duration":113731,"SoundDuration":113731,"Delta":515935374},{"NoteNumber":45,"Velocity":61,"Duration":113731,"SoundDuration":113731,"Delta":515935374},{"NoteNumber":57,"Velocity":73,"Duration":113731,"SoundDuration":113731,"Delta":515935374},{"NoteNumber":50,"Velocity":69,"Duration":752759,"SoundDuration":752759,"Delta":516390299},{"NoteNumber":57,"Velocity":72,"Duration":721394,"SoundDuration":721394,"Delta":516421664},{"NoteNumber":62,"Velocity":77,"Duration":690029,"SoundDuration":690029,"Delta":516453029},{"NoteNumber":66,"Velocity":80,"Duration":658664,"SoundDuration":658664,"Delta":516484394},{"NoteNumber":78,"Velocity":84,"Duration":654055,"SoundDuration":654055,"Delta":516515759},{"NoteNumber":81,"Velocity":84,"Duration":654055,"SoundDuration":654055,"Delta":516515759},{"NoteNumber":90,"Velocity":101,"Duration":654055,"SoundDuration":654055,"Delta":516515759},{"NoteNumber":66,"Velocity":88,"Duration":192636,"SoundDuration":192636,"Delta":517143059},{"NoteNumber":62,"Velocity":73,"Duration":192636,"SoundDuration":192636,"Delta":517143059},{"NoteNumber":54,"Velocity":73,"Duration":192636,"SoundDuration":192636,"Delta":517143059},{"NoteNumber":38,"Velocity":60,"Duration":192636,"SoundDuration":192636,"Delta":517143059},{"NoteNumber":50,"Velocity":71,"Duration":192636,"SoundDuration":192636,"Delta":517143059},{"NoteNumber":54,"Velocity":78,"Duration":475360,"SoundDuration":475360,"Delta":517357100},{"NoteNumber":62,"Velocity":78,"Duration":475360,"SoundDuration":475360,"Delta":517357100},{"NoteNumber":66,"Velocity":93,"Duration":475360,"SoundDuration":475360,"Delta":517357100},{"NoteNumber":38,"Velocity":60,"Duration":475360,"SoundDuration":475360,"Delta":517357100},{"NoteNumber":50,"Velocity":71,"Duration":475360,"SoundDuration":475360,"Delta":517357100},{"NoteNumber":55,"Velocity":75,"Duration":111723,"SoundDuration":111723,"Delta":517832460},{"NoteNumber":62,"Velocity":75,"Duration":111723,"SoundDuration":111723,"Delta":517832460},{"NoteNumber":67,"Velocity":89,"Duration":111723,"SoundDuration":111723,"Delta":517832460},{"NoteNumber":40,"Velocity":55,"Duration":111723,"SoundDuration":111723,"Delta":517832460},{"NoteNumber":52,"Velocity":64,"Duration":111723,"SoundDuration":111723,"Delta":517832460},{"NoteNumber":57,"Velocity":79,"Duration":121951,"SoundDuration":121951,"Delta":518055907},{"NoteNumber":69,"Velocity":94,"Duration":121951,"SoundDuration":121951,"Delta":518055907},{"NoteNumber":62,"Velocity":79,"Duration":121951,"SoundDuration":121951,"Delta":518055907},{"NoteNumber":42,"Velocity":60,"Duration":121951,"SoundDuration":121951,"Delta":518055907},{"NoteNumber":54,"Velocity":71,"Duration":121951,"SoundDuration":121951,"Delta":518055907},{"NoteNumber":70,"Velocity":97,"Duration":113731,"SoundDuration":113731,"Delta":518299810},{"NoteNumber":62,"Velocity":82,"Duration":113731,"SoundDuration":113731,"Delta":518299810},{"NoteNumber":58,"Velocity":82,"Duration":113731,"SoundDuration":113731,"Delta":518299810},{"NoteNumber":43,"Velocity":61,"Duration":113731,"SoundDuration":113731,"Delta":518299810},{"NoteNumber":50,"Velocity":61,"Duration":113731,"SoundDuration":113731,"Delta":518299810},{"NoteNumber":55,"Velocity":73,"Duration":113731,"SoundDuration":113731,"Delta":518299810},{"NoteNumber":57,"Velocity":78,"Duration":113731,"SoundDuration":113731,"Delta":518754735},{"NoteNumber":62,"Velocity":78,"Duration":113731,"SoundDuration":113731,"Delta":518754735},{"NoteNumber":69,"Velocity":93,"Duration":113731,"SoundDuration":113731,"Delta":518754735},{"NoteNumber":42,"Velocity":57,"Duration":113731,"SoundDuration":113731,"Delta":518754735},{"NoteNumber":50,"Velocity":57,"Duration":113731,"SoundDuration":113731,"Delta":518754735},{"NoteNumber":54,"Velocity":68,"Duration":113731,"SoundDuration":113731,"Delta":518754735},{"NoteNumber":73,"Velocity":87,"Duration":113731,"SoundDuration":113731,"Delta":519664585},{"NoteNumber":67,"Velocity":73,"Duration":113731,"SoundDuration":113731,"Delta":519664585},{"NoteNumber":61,"Velocity":73,"Duration":113731,"SoundDuration":113731,"Delta":519664585},{"NoteNumber":39,"Velocity":54,"Duration":113731,"SoundDuration":113731,"Delta":519664585},{"NoteNumber":51,"Velocity":65,"Duration":113731,"SoundDuration":113731,"Delta":519664585},{"NoteNumber":62,"Velocity":78,"Duration":115482,"SoundDuration":115482,"Delta":520119510},{"NoteNumber":66,"Velocity":78,"Duration":115482,"SoundDuration":115482,"Delta":520119510},{"NoteNumber":74,"Velocity":93,"Duration":115482,"SoundDuration":115482,"Delta":520119510},{"NoteNumber":38,"Velocity":57,"Duration":115482,"SoundDuration":115482,"Delta":520119510},{"NoteNumber":50,"Velocity":68,"Duration":115482,"SoundDuration":115482,"Delta":520119510},{"NoteNumber":50,"Velocity":68,"Duration":222403,"SoundDuration":222403,"Delta":520350474},{"NoteNumber":51,"Velocity":68,"Duration":422535,"SoundDuration":422535,"Delta":520572878},{"NoteNumber":63,"Velocity":75,"Duration":422535,"SoundDuration":422535,"Delta":520572878},{"NoteNumber":69,"Velocity":76,"Duration":870954,"SoundDuration":870954,"Delta":520784145},{"NoteNumber":72,"Velocity":76,"Duration":659687,"SoundDuration":659687,"Delta":520995413},{"NoteNumber":81,"Velocity":90,"Duration":659687,"SoundDuration":659687,"Delta":520995413},{"NoteNumber":38,"Velocity":68,"Duration":224904,"SoundDuration":224904,"Delta":521212804},{"NoteNumber":39,"Velocity":67,"Duration":440544,"SoundDuration":440544,"Delta":521437709},{"NoteNumber":51,"Velocity":75,"Duration":440544,"SoundDuration":440544,"Delta":521437709},{"NoteNumber":79,"Velocity":82,"Duration":223153,"SoundDuration":223153,"Delta":521655100},{"NoteNumber":78,"Velocity":90,"Duration":221402,"SoundDuration":221402,"Delta":521878254},{"NoteNumber":50,"Velocity":68,"Duration":220767,"SoundDuration":220767,"Delta":522099656},{"NoteNumber":51,"Velocity":68,"Duration":422535,"SoundDuration":422535,"Delta":522320423},{"NoteNumber":63,"Velocity":75,"Duration":422535,"SoundDuration":422535,"Delta":522320423},{"NoteNumber":81,"Velocity":76,"Duration":846611,"SoundDuration":846611,"Delta":522531690},{"NoteNumber":84,"Velocity":82,"Duration":635343,"SoundDuration":635343,"Delta":522742958},{"NoteNumber":93,"Velocity":97,"Duration":635343,"SoundDuration":635343,"Delta":522742958},{"NoteNumber":38,"Velocity":68,"Duration":222403,"SoundDuration":222403,"Delta":522962915},{"NoteNumber":39,"Velocity":67,"Duration":430483,"SoundDuration":430483,"Delta":523185319},{"NoteNumber":51,"Velocity":75,"Duration":430483,"SoundDuration":430483,"Delta":523185319},{"NoteNumber":81,"Velocity":89,"Duration":219957,"SoundDuration":219957,"Delta":523395845},{"NoteNumber":84,"Velocity":89,"Duration":219957,"SoundDuration":219957,"Delta":523395845},{"NoteNumber":93,"Velocity":89,"Duration":219957,"SoundDuration":219957,"Delta":523395845},{"NoteNumber":80,"Velocity":97,"Duration":220769,"SoundDuration":220769,"Delta":523615803},{"NoteNumber":83,"Velocity":97,"Duration":220769,"SoundDuration":220769,"Delta":523615803},{"NoteNumber":92,"Velocity":97,"Duration":220769,"SoundDuration":220769,"Delta":523615803},{"NoteNumber":40,"Velocity":68,"Duration":198611,"SoundDuration":198611,"Delta":523615803},{"NoteNumber":52,"Velocity":75,"Duration":198611,"SoundDuration":198611,"Delta":523615803},{"NoteNumber":52,"Velocity":68,"Duration":217667,"SoundDuration":217667,"Delta":523836572},{"NoteNumber":53,"Velocity":68,"Duration":430446,"SoundDuration":430446,"Delta":524054240},{"NoteNumber":65,"Velocity":75,"Duration":430446,"SoundDuration":430446,"Delta":524054240},{"NoteNumber":71,"Velocity":76,"Duration":869808,"SoundDuration":869808,"Delta":524269464},{"NoteNumber":74,"Velocity":76,"Duration":654584,"SoundDuration":654584,"Delta":524484687},{"NoteNumber":83,"Velocity":90,"Duration":654584,"SoundDuration":654584,"Delta":524484687},{"NoteNumber":40,"Velocity":68,"Duration":224904,"SoundDuration":224904,"Delta":524703841},{"NoteNumber":41,"Velocity":67,"Duration":429281,"SoundDuration":429281,"Delta":524928746},{"NoteNumber":53,"Velocity":75,"Duration":429281,"SoundDuration":429281,"Delta":524928746},{"NoteNumber":81,"Velocity":82,"Duration":218755,"SoundDuration":218755,"Delta":525139272},{"NoteNumber":71,"Velocity":72,"Duration":219154,"SoundDuration":219154,"Delta":525358027},{"NoteNumber":74,"Velocity":72,"Duration":219154,"SoundDuration":219154,"Delta":525358027},{"NoteNumber":80,"Velocity":90,"Duration":219154,"SoundDuration":219154,"Delta":525358027},{"NoteNumber":52,"Velocity":68,"Duration":211431,"SoundDuration":211431,"Delta":525577181},{"NoteNumber":53,"Velocity":68,"Duration":442793,"SoundDuration":442793,"Delta":525788613},{"NoteNumber":65,"Velocity":75,"Duration":442793,"SoundDuration":442793,"Delta":525788613},{"NoteNumber":83,"Velocity":86,"Duration":826856,"SoundDuration":826856,"Delta":526008570},{"NoteNumber":86,"Velocity":95,"Duration":610139,"SoundDuration":610139,"Delta":526231406},{"NoteNumber":95,"Velocity":105,"Duration":610139,"SoundDuration":610139,"Delta":526231406},{"NoteNumber":40,"Velocity":68,"Duration":209789,"SoundDuration":209789,"Delta":526441196},{"NoteNumber":41,"Velocity":67,"Duration":636742,"SoundDuration":636742,"Delta":526650986},{"NoteNumber":53,"Velocity":75,"Duration":636742,"SoundDuration":636742,"Delta":526650986},{"NoteNumber":84,"Velocity":86,"Duration":814409,"SoundDuration":814409,"Delta":526860776},{"NoteNumber":87,"Velocity":95,"Duration":599656,"SoundDuration":599656,"Delta":527081543},{"NoteNumber":96,"Velocity":105,"Duration":599656,"SoundDuration":599656,"Delta":527081543},{"NoteNumber":41,"Velocity":68,"Duration":206185,"SoundDuration":206185,"Delta":527287729},{"NoteNumber":42,"Velocity":67,"Duration":614061,"SoundDuration":614061,"Delta":527493914},{"NoteNumber":54,"Velocity":75,"Duration":631362,"SoundDuration":631362,"Delta":527493914},{"NoteNumber":84,"Velocity":86,"Duration":815315,"SoundDuration":815315,"Delta":527700100},{"NoteNumber":87,"Velocity":95,"Duration":603806,"SoundDuration":603806,"Delta":527917664},{"NoteNumber":96,"Velocity":105,"Duration":603806,"SoundDuration":603806,"Delta":527917664},{"NoteNumber":42,"Velocity":68,"Duration":207612,"SoundDuration":207612,"Delta":528125277},{"NoteNumber":43,"Velocity":67,"Duration":632865,"SoundDuration":632865,"Delta":528332889},{"NoteNumber":55,"Velocity":75,"Duration":632865,"SoundDuration":632865,"Delta":528332889},{"NoteNumber":84,"Velocity":86,"Duration":814046,"SoundDuration":814046,"Delta":528540502},{"NoteNumber":87,"Velocity":95,"Duration":601723,"SoundDuration":601723,"Delta":528758858},{"NoteNumber":96,"Velocity":105,"Duration":601723,"SoundDuration":601723,"Delta":528758858},{"NoteNumber":43,"Velocity":68,"Duration":206896,"SoundDuration":206896,"Delta":528965755},{"NoteNumber":45,"Velocity":67,"Duration":615433,"SoundDuration":615433,"Delta":529172651},{"NoteNumber":57,"Velocity":75,"Duration":632794,"SoundDuration":632794,"Delta":529172651},{"NoteNumber":82,"Velocity":86,"Duration":817391,"SoundDuration":817391,"Delta":529379548},{"NoteNumber":86,"Velocity":95,"Duration":605903,"SoundDuration":605903,"Delta":529597112},{"NoteNumber":94,"Velocity":105,"Duration":605903,"SoundDuration":605903,"Delta":529597112},{"NoteNumber":45,"Velocity":68,"Duration":208333,"SoundDuration":208333,"Delta":529805446},{"NoteNumber":46,"Velocity":67,"Duration":623464,"SoundDuration":623464,"Delta":530013779},{"NoteNumber":58,"Velocity":75,"Duration":641021,"SoundDuration":641021,"Delta":530013779},{"NoteNumber":81,"Velocity":86,"Duration":828607,"SoundDuration":828607,"Delta":530222113},{"NoteNumber":87,"Velocity":95,"Duration":612753,"SoundDuration":612753,"Delta":530444112},{"NoteNumber":93,"Velocity":105,"Duration":612753,"SoundDuration":612753,"Delta":530444112},{"NoteNumber":46,"Velocity":68,"Duration":210689,"SoundDuration":210689,"Delta":530654801},{"NoteNumber":48,"Velocity":67,"Duration":628417,"SoundDuration":628417,"Delta":530865490},{"NoteNumber":60,"Velocity":75,"Duration":646099,"SoundDuration":646099,"Delta":530865490},{"NoteNumber":79,"Velocity":86,"Duration":834129,"SoundDuration":834129,"Delta":531076179},{"NoteNumber":88,"Velocity":95,"Duration":617087,"SoundDuration":617087,"Delta":531299410},{"NoteNumber":82,"Velocity":95,"Duration":617087,"SoundDuration":617087,"Delta":531299410},{"NoteNumber":91,"Velocity":105,"Duration":617087,"SoundDuration":617087,"Delta":531299410},{"NoteNumber":48,"Velocity":68,"Duration":212178,"SoundDuration":212178,"Delta":531511589},{"NoteNumber":49,"Velocity":67,"Duration":437083,"SoundDuration":437083,"Delta":531723768},{"NoteNumber":61,"Velocity":75,"Duration":437083,"SoundDuration":437083,"Delta":531723768},{"NoteNumber":78,"Velocity":86,"Duration":224904,"SoundDuration":224904,"Delta":531935947},{"NoteNumber":81,"Velocity":83,"Duration":199335,"SoundDuration":199335,"Delta":532160851},{"NoteNumber":90,"Velocity":105,"Duration":199335,"SoundDuration":199335,"Delta":532160851},{"NoteNumber":86,"Velocity":95,"Duration":199335,"SoundDuration":199335,"Delta":532160851},{"NoteNumber":50,"Velocity":67,"Duration":199335,"SoundDuration":199335,"Delta":532160851},{"NoteNumber":62,"Velocity":75,"Duration":199335,"SoundDuration":199335,"Delta":532160851},{"NoteNumber":74,"Velocity":75,"Duration":212178,"SoundDuration":212178,"Delta":532360187},{"NoteNumber":86,"Velocity":81,"Duration":102739,"SoundDuration":102739,"Delta":532572366},{"NoteNumber":81,"Velocity":68,"Duration":102739,"SoundDuration":102739,"Delta":532572366},{"NoteNumber":78,"Velocity":68,"Duration":102739,"SoundDuration":102739,"Delta":532572366},{"NoteNumber":69,"Velocity":75,"Duration":215223,"SoundDuration":215223,"Delta":532777845},{"NoteNumber":81,"Velocity":81,"Duration":104529,"SoundDuration":104529,"Delta":532993069},{"NoteNumber":78,"Velocity":68,"Duration":104529,"SoundDuration":104529,"Delta":532993069},{"NoteNumber":74,"Velocity":68,"Duration":104529,"SoundDuration":104529,"Delta":532993069},{"NoteNumber":50,"Velocity":54,"Duration":104529,"SoundDuration":104529,"Delta":532993069},{"NoteNumber":54,"Velocity":54,"Duration":104529,"SoundDuration":104529,"Delta":532993069},{"NoteNumber":57,"Velocity":64,"Duration":104529,"SoundDuration":104529,"Delta":532993069},{"NoteNumber":66,"Velocity":75,"Duration":217391,"SoundDuration":217391,"Delta":533202128},{"NoteNumber":78,"Velocity":81,"Duration":111201,"SoundDuration":111201,"Delta":533419519},{"NoteNumber":74,"Velocity":68,"Duration":111201,"SoundDuration":111201,"Delta":533419519},{"NoteNumber":69,"Velocity":68,"Duration":111201,"SoundDuration":111201,"Delta":533419519},{"NoteNumber":62,"Velocity":72,"Duration":222403,"SoundDuration":222403,"Delta":533641923},{"NoteNumber":74,"Velocity":81,"Duration":111201,"SoundDuration":111201,"Delta":533864326},{"NoteNumber":69,"Velocity":68,"Duration":111201,"SoundDuration":111201,"Delta":533864326},{"NoteNumber":66,"Velocity":68,"Duration":111201,"SoundDuration":111201,"Delta":533864326},{"NoteNumber":38,"Velocity":54,"Duration":111201,"SoundDuration":111201,"Delta":533864326},{"NoteNumber":45,"Velocity":54,"Duration":111201,"SoundDuration":111201,"Delta":533864326},{"NoteNumber":54,"Velocity":64,"Duration":111201,"SoundDuration":111201,"Delta":533864326},{"NoteNumber":66,"Velocity":77,"Duration":472440,"SoundDuration":472440,"Delta":535199035},{"NoteNumber":69,"Velocity":83,"Duration":1198399,"SoundDuration":1198399,"Delta":535671476},{"NoteNumber":63,"Velocity":64,"Duration":236220,"SoundDuration":236220,"Delta":535907697},{"NoteNumber":67,"Velocity":70,"Duration":236220,"SoundDuration":236220,"Delta":536143917},{"NoteNumber":79,"Velocity":63,"Duration":236573,"SoundDuration":236573,"Delta":536380138},{"NoteNumber":66,"Velocity":46,"Duration":541489,"SoundDuration":541489,"Delta":537123396},{"NoteNumber":69,"Velocity":49,"Duration":1626380,"SoundDuration":1626380,"Delta":537664886},{"NoteNumber":62,"Velocity":38,"Duration":316116,"SoundDuration":316116,"Delta":537980675},{"NoteNumber":66,"Velocity":42,"Duration":331491,"SoundDuration":331491,"Delta":538296792},{"NoteNumber":78,"Velocity":37,"Duration":331491,"SoundDuration":331491,"Delta":538628283},{"NoteNumber":69,"Velocity":46,"Duration":583828,"SoundDuration":583828,"Delta":539622758},{"NoteNumber":72,"Velocity":49,"Duration":1075528,"SoundDuration":1075528,"Delta":540206586},{"NoteNumber":63,"Velocity":26,"Duration":267647,"SoundDuration":267647,"Delta":540490407},{"NoteNumber":67,"Velocity":28,"Duration":262051,"SoundDuration":262051,"Delta":540758054},{"NoteNumber":63,"Velocity":22,"Duration":262008,"SoundDuration":262008,"Delta":541020106},{"NoteNumber":74,"Velocity":48,"Duration":784356,"SoundDuration":784356,"Delta":541282115},{"NoteNumber":67,"Velocity":28,"Duration":259740,"SoundDuration":259740,"Delta":541282115},{"NoteNumber":63,"Velocity":24,"Duration":262607,"SoundDuration":262607,"Delta":541541855},{"NoteNumber":67,"Velocity":24,"Duration":262008,"SoundDuration":262008,"Delta":541804462},{"NoteNumber":75,"Velocity":46,"Duration":259856,"SoundDuration":259856,"Delta":542066471},{"NoteNumber":72,"Velocity":20,"Duration":289048,"SoundDuration":289048,"Delta":542066471},{"NoteNumber":75,"Velocity":53,"Duration":1061411,"SoundDuration":1061411,"Delta":542355519},{"NoteNumber":65,"Velocity":23,"Duration":259740,"SoundDuration":259740,"Delta":542625133},{"NoteNumber":68,"Velocity":27,"Duration":266028,"SoundDuration":266028,"Delta":542884874},{"NoteNumber":65,"Velocity":22,"Duration":266028,"SoundDuration":266028,"Delta":543150902},{"NoteNumber":74,"Velocity":46,"Duration":519481,"SoundDuration":519481,"Delta":543416930},{"NoteNumber":68,"Velocity":27,"Duration":259740,"SoundDuration":259740,"Delta":543416930},{"NoteNumber":65,"Velocity":24,"Duration":259740,"SoundDuration":259740,"Delta":543676670},{"NoteNumber":68,"Velocity":24,"Duration":259740,"SoundDuration":259740,"Delta":543936411},{"NoteNumber":77,"Velocity":49,"Duration":273298,"SoundDuration":273298,"Delta":544196151},{"NoteNumber":72,"Velocity":20,"Duration":273298,"SoundDuration":273298,"Delta":544196151},{"NoteNumber":80,"Velocity":54,"Duration":1054052,"SoundDuration":1054052,"Delta":544469450},{"NoteNumber":55,"Velocity":24,"Duration":260869,"SoundDuration":260869,"Delta":544736663},{"NoteNumber":59,"Velocity":27,"Duration":262279,"SoundDuration":262279,"Delta":544997532},{"NoteNumber":55,"Velocity":24,"Duration":263689,"SoundDuration":263689,"Delta":545259812},{"NoteNumber":79,"Velocity":50,"Duration":782608,"SoundDuration":782608,"Delta":545523502},{"NoteNumber":59,"Velocity":27,"Duration":260869,"SoundDuration":260869,"Delta":545523502},{"NoteNumber":55,"Velocity":23,"Duration":260869,"SoundDuration":260869,"Delta":545784372},{"NoteNumber":59,"Velocity":23,"Duration":260869,"SoundDuration":260869,"Delta":546045241},{"NoteNumber":74,"Velocity":50,"Duration":298507,"SoundDuration":298507,"Delta":546306111},{"NoteNumber":65,"Velocity":19,"Duration":298507,"SoundDuration":298507,"Delta":546306111},{"NoteNumber":77,"Velocity":57,"Duration":1063245,"SoundDuration":1063245,"Delta":546604618},{"NoteNumber":60,"Velocity":23,"Duration":269614,"SoundDuration":269614,"Delta":546874233},{"NoteNumber":67,"Velocity":27,"Duration":262008,"SoundDuration":262008,"Delta":547143847},{"NoteNumber":60,"Velocity":24,"Duration":262008,"SoundDuration":262008,"Delta":547405856},{"NoteNumber":75,"Velocity":52,"Duration":524017,"SoundDuration":524017,"Delta":547667864},{"NoteNumber":67,"Velocity":27,"Duration":262008,"SoundDuration":262008,"Delta":547667864},{"NoteNumber":60,"Velocity":22,"Duration":262008,"SoundDuration":262008,"Delta":547929873},{"NoteNumber":67,"Velocity":22,"Duration":262008,"SoundDuration":262008,"Delta":548191881},{"NoteNumber":72,"Velocity":20,"Duration":262008,"SoundDuration":262008,"Delta":548453890},{"NoteNumber":75,"Velocity":49,"Duration":1055233,"SoundDuration":1055233,"Delta":548715898},{"NoteNumber":48,"Velocity":29,"Duration":267212,"SoundDuration":267212,"Delta":548999533},{"NoteNumber":55,"Velocity":32,"Duration":263157,"SoundDuration":263157,"Delta":549266746},{"NoteNumber":48,"Velocity":28,"Duration":263157,"SoundDuration":263157,"Delta":549529904},{"NoteNumber":75,"Velocity":50,"Duration":1633928,"SoundDuration":1633928,"Delta":549793062},{"NoteNumber":55,"Velocity":32,"Duration":263158,"SoundDuration":263158,"Delta":549793062},{"NoteNumber":48,"Velocity":27,"Duration":270721,"SoundDuration":270721,"Delta":550056220},{"NoteNumber":55,"Velocity":27,"Duration":273298,"SoundDuration":273298,"Delta":550326941},{"NoteNumber":77,"Velocity":56,"Duration":292683,"SoundDuration":292683,"Delta":550600239},{"NoteNumber":57,"Velocity":27,"Duration":292683,"SoundDuration":292683,"Delta":550600239},{"NoteNumber":79,"Velocity":65,"Duration":534067,"SoundDuration":534067,"Delta":550892922},{"NoteNumber":46,"Velocity":26,"Duration":262008,"SoundDuration":262008,"Delta":551164982},{"NoteNumber":55,"Velocity":31,"Duration":264854,"SoundDuration":264854,"Delta":551426990},{"NoteNumber":58,"Velocity":27,"Duration":264854,"SoundDuration":264854,"Delta":551691844},{"NoteNumber":82,"Velocity":75,"Duration":1604423,"SoundDuration":1604423,"Delta":551956698},{"NoteNumber":79,"Velocity":63,"Duration":1604423,"SoundDuration":1604423,"Delta":551956698},{"NoteNumber":63,"Velocity":39,"Duration":262008,"SoundDuration":262008,"Delta":551956698},{"NoteNumber":58,"Velocity":34,"Duration":262008,"SoundDuration":262008,"Delta":552218707},{"NoteNumber":55,"Velocity":37,"Duration":262008,"SoundDuration":262008,"Delta":552480715},{"NoteNumber":51,"Velocity":40,"Duration":286341,"SoundDuration":286341,"Delta":552742724},{"NoteNumber":45,"Velocity":44,"Duration":266028,"SoundDuration":266028,"Delta":553029065},{"NoteNumber":50,"Velocity":38,"Duration":266028,"SoundDuration":266028,"Delta":553295093},{"NoteNumber":55,"Velocity":38,"Duration":262008,"SoundDuration":262008,"Delta":553561121},{"NoteNumber":58,"Velocity":38,"Duration":277085,"SoundDuration":277085,"Delta":553823130},{"NoteNumber":82,"Velocity":62,"Duration":1618413,"SoundDuration":1618413,"Delta":554100215},{"NoteNumber":86,"Velocity":73,"Duration":1618413,"SoundDuration":1618413,"Delta":554100215},{"NoteNumber":43,"Velocity":51,"Duration":264854,"SoundDuration":264854,"Delta":554100215},{"NoteNumber":50,"Velocity":40,"Duration":264854,"SoundDuration":264854,"Delta":554365069},{"NoteNumber":55,"Velocity":42,"Duration":261737,"SoundDuration":261737,"Delta":554629923},{"NoteNumber":58,"Velocity":42,"Duration":280978,"SoundDuration":280978,"Delta":554891660},{"NoteNumber":38,"Velocity":57,"Duration":282299,"SoundDuration":282299,"Delta":555172638},{"NoteNumber":50,"Velocity":44,"Duration":263689,"SoundDuration":263689,"Delta":555454938},{"NoteNumber":53,"Velocity":44,"Duration":263689,"SoundDuration":263689,"Delta":555718628},{"NoteNumber":58,"Velocity":44,"Duration":263689,"SoundDuration":263689,"Delta":555982318},{"NoteNumber":77,"Velocity":67,"Duration":1928376,"SoundDuration":1928376,"Delta":556180085},{"NoteNumber":82,"Velocity":69,"Duration":1895415,"SoundDuration":1895415,"Delta":556213047},{"NoteNumber":89,"Velocity":72,"Duration":1862453,"SoundDuration":1862453,"Delta":556246008},{"NoteNumber":70,"Velocity":53,"Duration":263689,"SoundDuration":263689,"Delta":556246008},{"NoteNumber":65,"Velocity":44,"Duration":257510,"SoundDuration":257510,"Delta":556509698},{"NoteNumber":62,"Velocity":44,"Duration":260869,"SoundDuration":260869,"Delta":556767208},{"NoteNumber":58,"Velocity":44,"Duration":282299,"SoundDuration":282299,"Delta":557028078},{"NoteNumber":50,"Velocity":53,"Duration":266028,"SoundDuration":266028,"Delta":557310378},{"NoteNumber":53,"Velocity":42,"Duration":266028,"SoundDuration":266028,"Delta":557576406},{"NoteNumber":58,"Velocity":44,"Duration":266028,"SoundDuration":266028,"Delta":557842434},{"NoteNumber":86,"Velocity":66,"Duration":266028,"SoundDuration":266028,"Delta":558108462},{"NoteNumber":65,"Velocity":41,"Duration":266028,"SoundDuration":266028,"Delta":558108462},{"NoteNumber":81,"Velocity":62,"Duration":1050325,"SoundDuration":1050325,"Delta":558374490},{"NoteNumber":87,"Velocity":73,"Duration":784297,"SoundDuration":784297,"Delta":558374490},{"NoteNumber":54,"Velocity":39,"Duration":259134,"SoundDuration":259134,"Delta":558633624},{"NoteNumber":60,"Velocity":42,"Duration":266028,"SoundDuration":266028,"Delta":558892759},{"NoteNumber":84,"Velocity":61,"Duration":266028,"SoundDuration":266028,"Delta":559158787},{"NoteNumber":63,"Velocity":39,"Duration":266028,"SoundDuration":266028,"Delta":559158787},{"NoteNumber":82,"Velocity":69,"Duration":1078883,"SoundDuration":1078883,"Delta":559424815},{"NoteNumber":55,"Velocity":39,"Duration":260869,"SoundDuration":260869,"Delta":559707115},{"NoteNumber":58,"Velocity":42,"Duration":267857,"SoundDuration":267857,"Delta":559967984},{"NoteNumber":63,"Velocity":39,"Duration":267856,"SoundDuration":267856,"Delta":560235841},{"NoteNumber":75,"Velocity":53,"Duration":2144859,"SoundDuration":2144859,"Delta":560503698},{"NoteNumber":84,"Velocity":63,"Duration":788925,"SoundDuration":788925,"Delta":560503698},{"NoteNumber":56,"Velocity":32,"Duration":260258,"SoundDuration":260258,"Delta":560763957},{"NoteNumber":60,"Velocity":37,"Duration":268408,"SoundDuration":268408,"Delta":561024215},{"NoteNumber":80,"Velocity":52,"Duration":268408,"SoundDuration":268408,"Delta":561292624},{"NoteNumber":63,"Velocity":32,"Duration":268408,"SoundDuration":268408,"Delta":561292624},{"NoteNumber":79,"Velocity":63,"Duration":1087525,"SoundDuration":1087525,"Delta":561561032},{"NoteNumber":58,"Velocity":33,"Duration":268408,"SoundDuration":268408,"Delta":561843332},{"NoteNumber":63,"Velocity":37,"Duration":268408,"SoundDuration":268408,"Delta":562111741},{"NoteNumber":67,"Velocity":34,"Duration":268408,"SoundDuration":268408,"Delta":562380149},{"NoteNumber":80,"Velocity":64,"Duration":1862559,"SoundDuration":1862559,"Delta":562648558},{"NoteNumber":74,"Velocity":54,"Duration":1075439,"SoundDuration":1075439,"Delta":562648558},{"NoteNumber":59,"Velocity":44,"Duration":1075439,"SoundDuration":1075439,"Delta":562648558},{"NoteNumber":65,"Velocity":34,"Duration":264854,"SoundDuration":264854,"Delta":562911989},{"NoteNumber":68,"Velocity":34,"Duration":264854,"SoundDuration":264854,"Delta":563176843},{"NoteNumber":71,"Velocity":34,"Duration":282299,"SoundDuration":282299,"Delta":563441697},{"NoteNumber":75,"Velocity":64,"Duration":1081903,"SoundDuration":1081903,"Delta":563723997},{"NoteNumber":60,"Velocity":44,"Duration":1081903,"SoundDuration":1081903,"Delta":563723997},{"NoteNumber":63,"Velocity":30,"Duration":263689,"SoundDuration":263689,"Delta":563987687},{"NoteNumber":68,"Velocity":34,"Duration":259740,"SoundDuration":259740,"Delta":564251377},{"NoteNumber":79,"Velocity":52,"Duration":294782,"SoundDuration":294782,"Delta":564511118},{"NoteNumber":72,"Velocity":29,"Duration":294782,"SoundDuration":294782,"Delta":564511118},{"NoteNumber":72,"Velocity":42,"Duration":1078545,"SoundDuration":1078545,"Delta":564805900},{"NoteNumber":81,"Velocity":50,"Duration":806485,"SoundDuration":806485,"Delta":564805900},{"NoteNumber":62,"Velocity":32,"Duration":1078545,"SoundDuration":1078545,"Delta":564805900},{"NoteNumber":66,"Velocity":26,"Duration":267213,"SoundDuration":267213,"Delta":565073113},{"NoteNumber":69,"Velocity":29,"Duration":272059,"SoundDuration":272059,"Delta":565340326},{"NoteNumber":78,"Velocity":37,"Duration":272059,"SoundDuration":272059,"Delta":565612386},{"NoteNumber":74,"Velocity":26,"Duration":272059,"SoundDuration":272059,"Delta":565612386},{"NoteNumber":91,"Velocity":40,"Duration":1060429,"SoundDuration":1060429,"Delta":565884445},{"NoteNumber":87,"Velocity":40,"Duration":1060429,"SoundDuration":1060429,"Delta":565884445},{"NoteNumber":79,"Velocity":34,"Duration":2117942,"SoundDuration":2117942,"Delta":565884445},{"NoteNumber":67,"Velocity":28,"Duration":269614,"SoundDuration":269614,"Delta":565884445},{"NoteNumber":55,"Velocity":20,"Duration":269614,"SoundDuration":269614,"Delta":566154060},{"NoteNumber":67,"Velocity":20,"Duration":263689,"SoundDuration":263689,"Delta":566423674},{"NoteNumber":55,"Velocity":20,"Duration":257510,"SoundDuration":257510,"Delta":566687364},{"NoteNumber":89,"Velocity":35,"Duration":515021,"SoundDuration":515021,"Delta":566944875},{"NoteNumber":86,"Velocity":35,"Duration":515021,"SoundDuration":515021,"Delta":566944875},{"NoteNumber":65,"Velocity":28,"Duration":257510,"SoundDuration":257510,"Delta":566944875},{"NoteNumber":62,"Velocity":24,"Duration":257510,"SoundDuration":257510,"Delta":566944875},{"NoteNumber":55,"Velocity":21,"Duration":257510,"SoundDuration":257510,"Delta":567202385},{"NoteNumber":87,"Velocity":41,"Duration":542491,"SoundDuration":542491,"Delta":567459896},{"NoteNumber":91,"Velocity":41,"Duration":542491,"SoundDuration":542491,"Delta":567459896},{"NoteNumber":67,"Velocity":21,"Duration":257510,"SoundDuration":257510,"Delta":567459896},{"NoteNumber":63,"Velocity":18,"Duration":257510,"SoundDuration":257510,"Delta":567459896},{"NoteNumber":55,"Velocity":21,"Duration":284981,"SoundDuration":284981,"Delta":567717406},{"NoteNumber":79,"Velocity":31,"Duration":2100356,"SoundDuration":2100356,"Delta":568002388},{"NoteNumber":89,"Velocity":46,"Duration":772490,"SoundDuration":772490,"Delta":568002388},{"NoteNumber":92,"Velocity":46,"Duration":794562,"SoundDuration":794562,"Delta":568002388},{"NoteNumber":68,"Velocity":28,"Duration":264854,"SoundDuration":264854,"Delta":568002388},{"NoteNumber":65,"Velocity":24,"Duration":264854,"SoundDuration":264854,"Delta":568002388},{"NoteNumber":55,"Velocity":20,"Duration":264854,"SoundDuration":264854,"Delta":568267242},{"NoteNumber":65,"Velocity":20,"Duration":264854,"SoundDuration":264854,"Delta":568532096},{"NoteNumber":62,"Velocity":17,"Duration":264854,"SoundDuration":264854,"Delta":568532096},{"NoteNumber":89,"Velocity":39,"Duration":264854,"SoundDuration":264854,"Delta":568796950},{"NoteNumber":86,"Velocity":39,"Duration":264854,"SoundDuration":264854,"Delta":568796950},{"NoteNumber":55,"Velocity":20,"Duration":264854,"SoundDuration":264854,"Delta":568796950},{"NoteNumber":86,"Velocity":46,"Duration":515021,"SoundDuration":515021,"Delta":569061804},{"NoteNumber":83,"Velocity":46,"Duration":515021,"SoundDuration":515021,"Delta":569061804},{"NoteNumber":59,"Velocity":23,"Duration":257510,"SoundDuration":257510,"Delta":569061804},{"NoteNumber":62,"Velocity":27,"Duration":257510,"SoundDuration":257510,"Delta":569061804},{"NoteNumber":55,"Velocity":21,"Duration":257510,"SoundDuration":257510,"Delta":569319314},{"NoteNumber":84,"Velocity":40,"Duration":525918,"SoundDuration":525918,"Delta":569576825},{"NoteNumber":87,"Velocity":40,"Duration":525918,"SoundDuration":525918,"Delta":569576825},{"NoteNumber":63,"Velocity":21,"Duration":257510,"SoundDuration":257510,"Delta":569576825},{"NoteNumber":60,"Velocity":18,"Duration":257510,"SoundDuration":257510,"Delta":569576825},{"NoteNumber":55,"Velocity":21,"Duration":268408,"SoundDuration":268408,"Delta":569834335},{"NoteNumber":89,"Velocity":40,"Duration":551622,"SoundDuration":551622,"Delta":570102744},{"NoteNumber":86,"Velocity":40,"Duration":551622,"SoundDuration":551622,"Delta":570102744},{"NoteNumber":79,"Velocity":34,"Duration":2129182,"SoundDuration":2129182,"Delta":570102744},{"NoteNumber":62,"Velocity":24,"Duration":275811,"SoundDuration":275811,"Delta":570102744},{"NoteNumber":65,"Velocity":28,"Duration":275811,"SoundDuration":275811,"Delta":570102744},{"NoteNumber":55,"Velocity":20,"Duration":275811,"SoundDuration":275811,"Delta":570378555},{"NoteNumber":84,"Velocity":35,"Duration":520046,"SoundDuration":520046,"Delta":570654367},{"NoteNumber":87,"Velocity":35,"Duration":520046,"SoundDuration":520046,"Delta":570654367},{"NoteNumber":60,"Velocity":24,"Duration":262535,"SoundDuration":262535,"Delta":570654367},{"NoteNumber":63,"Velocity":20,"Duration":262535,"SoundDuration":262535,"Delta":570654367},{"NoteNumber":55,"Velocity":20,"Duration":257510,"SoundDuration":257510,"Delta":570916903},{"NoteNumber":86,"Velocity":35,"Duration":515021,"SoundDuration":515021,"Delta":571174413},{"NoteNumber":82,"Velocity":35,"Duration":515021,"SoundDuration":515021,"Delta":571174413},{"NoteNumber":62,"Velocity":28,"Duration":257510,"SoundDuration":257510,"Delta":571174413},{"NoteNumber":58,"Velocity":24,"Duration":257510,"SoundDuration":257510,"Delta":571174413},{"NoteNumber":55,"Velocity":21,"Duration":257510,"SoundDuration":257510,"Delta":571431924},{"NoteNumber":80,"Velocity":41,"Duration":542491,"SoundDuration":542491,"Delta":571689434},{"NoteNumber":84,"Velocity":41,"Duration":542491,"SoundDuration":542491,"Delta":571689434},{"NoteNumber":60,"Velocity":21,"Duration":257510,"SoundDuration":257510,"Delta":571689434},{"NoteNumber":56,"Velocity":18,"Duration":257510,"SoundDuration":257510,"Delta":571689434},{"NoteNumber":55,"Velocity":21,"Duration":284981,"SoundDuration":284981,"Delta":571946945},{"NoteNumber":79,"Velocity":38,"Duration":1547526,"SoundDuration":1547526,"Delta":572231926},{"NoteNumber":83,"Velocity":46,"Duration":794064,"SoundDuration":794064,"Delta":572231926},{"NoteNumber":59,"Velocity":28,"Duration":266028,"SoundDuration":266028,"Delta":572231926},{"NoteNumber":55,"Velocity":20,"Duration":266028,"SoundDuration":266028,"Delta":572497954},{"NoteNumber":60,"Velocity":20,"Duration":262008,"SoundDuration":262008,"Delta":572763982},{"NoteNumber":57,"Velocity":17,"Duration":262008,"SoundDuration":262008,"Delta":572763982},{"NoteNumber":84,"Velocity":39,"Duration":262008,"SoundDuration":262008,"Delta":573025991},{"NoteNumber":81,"Velocity":39,"Duration":262008,"SoundDuration":262008,"Delta":573025991},{"NoteNumber":55,"Velocity":20,"Duration":262008,"SoundDuration":262008,"Delta":573025991},{"NoteNumber":86,"Velocity":46,"Duration":512821,"SoundDuration":512821,"Delta":573287999},{"NoteNumber":83,"Velocity":46,"Duration":512821,"SoundDuration":512821,"Delta":573287999},{"NoteNumber":59,"Velocity":23,"Duration":256410,"SoundDuration":256410,"Delta":573287999},{"NoteNumber":62,"Velocity":27,"Duration":256410,"SoundDuration":256410,"Delta":573287999},{"NoteNumber":55,"Velocity":21,"Duration":256410,"SoundDuration":256410,"Delta":573544410},{"NoteNumber":79,"Velocity":40,"Duration":2670171,"SoundDuration":2670171,"Delta":573800820},{"NoteNumber":59,"Velocity":21,"Duration":256410,"SoundDuration":256410,"Delta":573800820},{"NoteNumber":55,"Velocity":21,"Duration":280978,"SoundDuration":280978,"Delta":574057231},{"NoteNumber":91,"Velocity":40,"Duration":1068579,"SoundDuration":1068579,"Delta":574338209},{"NoteNumber":87,"Velocity":40,"Duration":1068579,"SoundDuration":1068579,"Delta":574338209},{"NoteNumber":63,"Velocity":24,"Duration":274549,"SoundDuration":274549,"Delta":574338209},{"NoteNumber":67,"Velocity":28,"Duration":274549,"SoundDuration":274549,"Delta":574338209},{"NoteNumber":55,"Velocity":20,"Duration":274549,"SoundDuration":274549,"Delta":574612758},{"NoteNumber":63,"Velocity":24,"Duration":259740,"SoundDuration":259740,"Delta":574887308},{"NoteNumber":67,"Velocity":20,"Duration":259740,"SoundDuration":259740,"Delta":574887308},{"NoteNumber":55,"Velocity":20,"Duration":259740,"SoundDuration":259740,"Delta":575147048},{"NoteNumber":89,"Velocity":35,"Duration":519480,"SoundDuration":519480,"Delta":575406789},{"NoteNumber":86,"Velocity":35,"Duration":519480,"SoundDuration":519480,"Delta":575406789},{"NoteNumber":65,"Velocity":28,"Duration":259740,"SoundDuration":259740,"Delta":575406789},{"NoteNumber":62,"Velocity":24,"Duration":259740,"SoundDuration":259740,"Delta":575406789},{"NoteNumber":55,"Velocity":21,"Duration":259740,"SoundDuration":259740,"Delta":575666529},{"NoteNumber":87,"Velocity":43,"Duration":544721,"SoundDuration":544721,"Delta":575926270},{"NoteNumber":91,"Velocity":43,"Duration":544721,"SoundDuration":544721,"Delta":575926270},{"NoteNumber":67,"Velocity":22,"Duration":259740,"SoundDuration":259740,"Delta":575926270},{"NoteNumber":63,"Velocity":18,"Duration":259740,"SoundDuration":259740,"Delta":575926270},{"NoteNumber":55,"Velocity":22,"Duration":284981,"SoundDuration":284981,"Delta":576186010},{"NoteNumber":79,"Velocity":34,"Duration":2064379,"SoundDuration":2064379,"Delta":576470992},{"NoteNumber":91,"Velocity":55,"Duration":782608,"SoundDuration":782608,"Delta":576470992},{"NoteNumber":94,"Velocity":55,"Duration":782608,"SoundDuration":782608,"Delta":576470992},{"NoteNumber":70,"Velocity":31,"Duration":260869,"SoundDuration":260869,"Delta":576470992},{"NoteNumber":67,"Velocity":26,"Duration":260869,"SoundDuration":260869,"Delta":576470992},{"NoteNumber":55,"Velocity":22,"Duration":260869,"SoundDuration":260869,"Delta":576731861},{"NoteNumber":68,"Velocity":22,"Duration":260869,"SoundDuration":260869,"Delta":576992731},{"NoteNumber":65,"Velocity":18,"Duration":260869,"SoundDuration":260869,"Delta":576992731},{"NoteNumber":92,"Velocity":42,"Duration":260869,"SoundDuration":260869,"Delta":577253600},{"NoteNumber":89,"Velocity":42,"Duration":239130,"SoundDuration":239130,"Delta":577253600},{"NoteNumber":55,"Velocity":22,"Duration":260869,"SoundDuration":260869,"Delta":577253600},{"NoteNumber":89,"Velocity":50,"Duration":512821,"SoundDuration":512821,"Delta":577514470},{"NoteNumber":86,"Velocity":50,"Duration":512821,"SoundDuration":512821,"Delta":577514470},{"NoteNumber":62,"Velocity":25,"Duration":256410,"SoundDuration":256410,"Delta":577514470},{"NoteNumber":65,"Velocity":30,"Duration":256410,"SoundDuration":256410,"Delta":577514470},{"NoteNumber":55,"Velocity":23,"Duration":256410,"SoundDuration":256410,"Delta":577770880},{"NoteNumber":89,"Velocity":44,"Duration":530960,"SoundDuration":530960,"Delta":578027291},{"NoteNumber":92,"Velocity":44,"Duration":530960,"SoundDuration":530960,"Delta":578027291},{"NoteNumber":68,"Velocity":23,"Duration":256410,"SoundDuration":256410,"Delta":578027291},{"NoteNumber":65,"Velocity":19,"Duration":256410,"SoundDuration":256410,"Delta":578027291},{"NoteNumber":55,"Velocity":23,"Duration":274549,"SoundDuration":274549,"Delta":578283701},{"NoteNumber":91,"Velocity":44,"Duration":504424,"SoundDuration":504424,"Delta":578558251},{"NoteNumber":87,"Velocity":44,"Duration":504424,"SoundDuration":504424,"Delta":578558251},{"NoteNumber":79,"Velocity":37,"Duration":2093498,"SoundDuration":2093498,"Delta":578558251},{"NoteNumber":63,"Velocity":26,"Duration":265486,"SoundDuration":265486,"Delta":578558251},{"NoteNumber":67,"Velocity":31,"Duration":265486,"SoundDuration":265486,"Delta":578558251},{"NoteNumber":55,"Velocity":22,"Duration":265486,"SoundDuration":265486,"Delta":578823737},{"NoteNumber":84,"Velocity":37,"Duration":520517,"SoundDuration":520517,"Delta":579089224},{"NoteNumber":87,"Velocity":37,"Duration":520517,"SoundDuration":520517,"Delta":579089224},{"NoteNumber":60,"Velocity":26,"Duration":260258,"SoundDuration":260258,"Delta":579089224},{"NoteNumber":63,"Velocity":21,"Duration":260258,"SoundDuration":260258,"Delta":579089224},{"NoteNumber":55,"Velocity":21,"Duration":260258,"SoundDuration":260258,"Delta":579349482},{"NoteNumber":89,"Velocity":36,"Duration":494491,"SoundDuration":494491,"Delta":579609741},{"NoteNumber":86,"Velocity":36,"Duration":494491,"SoundDuration":494491,"Delta":579609741},{"NoteNumber":65,"Velocity":29,"Duration":260258,"SoundDuration":260258,"Delta":579609741},{"NoteNumber":62,"Velocity":25,"Duration":260258,"SoundDuration":260258,"Delta":579609741},{"NoteNumber":55,"Velocity":21,"Duration":260258,"SoundDuration":260258,"Delta":579869999},{"NoteNumber":83,"Velocity":42,"Duration":545240,"SoundDuration":545240,"Delta":580130258},{"NoteNumber":86,"Velocity":42,"Duration":545240,"SoundDuration":545240,"Delta":580130258},{"NoteNumber":62,"Velocity":21,"Duration":260258,"SoundDuration":260258,"Delta":580130258},{"NoteNumber":59,"Velocity":18,"Duration":260258,"SoundDuration":260258,"Delta":580130258},{"NoteNumber":55,"Velocity":21,"Duration":284981,"SoundDuration":284981,"Delta":580390516},{"NoteNumber":84,"Velocity":40,"Duration":514579,"SoundDuration":514579,"Delta":580675498},{"NoteNumber":79,"Velocity":25,"Duration":2169183,"SoundDuration":2169183,"Delta":580675498},{"NoteNumber":87,"Velocity":46,"Duration":514579,"SoundDuration":514579,"Delta":580675498},{"NoteNumber":60,"Velocity":24,"Duration":270831,"SoundDuration":270831,"Delta":580675498},{"NoteNumber":63,"Velocity":28,"Duration":270831,"SoundDuration":270831,"Delta":580675498},{"NoteNumber":55,"Velocity":20,"Duration":270831,"SoundDuration":270831,"Delta":580946329},{"NoteNumber":84,"Velocity":39,"Duration":541663,"SoundDuration":541663,"Delta":581217161},{"NoteNumber":81,"Velocity":39,"Duration":541663,"SoundDuration":541663,"Delta":581217161},{"NoteNumber":60,"Velocity":20,"Duration":270831,"SoundDuration":270831,"Delta":581217161},{"NoteNumber":57,"Velocity":17,"Duration":270831,"SoundDuration":270831,"Delta":581217161},{"NoteNumber":55,"Velocity":20,"Duration":270831,"SoundDuration":270831,"Delta":581487992},{"NoteNumber":86,"Velocity":46,"Duration":505453,"SoundDuration":505453,"Delta":581758824},{"NoteNumber":83,"Velocity":46,"Duration":505453,"SoundDuration":505453,"Delta":581758824},{"NoteNumber":59,"Velocity":23,"Duration":266028,"SoundDuration":266028,"Delta":581758824},{"NoteNumber":62,"Velocity":27,"Duration":266028,"SoundDuration":266028,"Delta":581758824},{"NoteNumber":55,"Velocity":21,"Duration":266028,"SoundDuration":266028,"Delta":582024852},{"NoteNumber":79,"Velocity":40,"Duration":577216,"SoundDuration":577216,"Delta":582290880},{"NoteNumber":59,"Velocity":21,"Duration":296238,"SoundDuration":296238,"Delta":582290880},{"NoteNumber":55,"Velocity":21,"Duration":280978,"SoundDuration":280978,"Delta":582587118},{"NoteNumber":63,"Velocity":29,"Duration":267212,"SoundDuration":267212,"Delta":582868096},{"NoteNumber":67,"Velocity":24,"Duration":247933,"SoundDuration":247933,"Delta":583135309},{"NoteNumber":60,"Velocity":21,"Duration":247933,"SoundDuration":247933,"Delta":583135309},{"NoteNumber":72,"Velocity":39,"Duration":250000,"SoundDuration":250000,"Delta":583383243},{"NoteNumber":55,"Velocity":24,"Duration":250000,"SoundDuration":250000,"Delta":583383243},{"NoteNumber":79,"Velocity":24,"Duration":275811,"SoundDuration":275811,"Delta":583633243},{"NoteNumber":51,"Velocity":21,"Duration":275811,"SoundDuration":275811,"Delta":583633243},{"NoteNumber":63,"Velocity":29,"Duration":264854,"SoundDuration":264854,"Delta":583909054},{"NoteNumber":67,"Velocity":24,"Duration":253656,"SoundDuration":253656,"Delta":584173908},{"NoteNumber":60,"Velocity":22,"Duration":253656,"SoundDuration":253656,"Delta":584173908},{"NoteNumber":74,"Velocity":38,"Duration":246913,"SoundDuration":246913,"Delta":584427565},{"NoteNumber":55,"Velocity":24,"Duration":246913,"SoundDuration":246913,"Delta":584427565},{"NoteNumber":79,"Velocity":24,"Duration":266028,"SoundDuration":266028,"Delta":584674479},{"NoteNumber":51,"Velocity":20,"Duration":266028,"SoundDuration":266028,"Delta":584674479},{"NoteNumber":65,"Velocity":29,"Duration":261392,"SoundDuration":261392,"Delta":584940507},{"NoteNumber":72,"Velocity":24,"Duration":254733,"SoundDuration":254733,"Delta":585201899},{"NoteNumber":60,"Velocity":20,"Duration":254733,"SoundDuration":254733,"Delta":585201899},{"NoteNumber":75,"Velocity":41,"Duration":247933,"SoundDuration":247933,"Delta":585456633},{"NoteNumber":56,"Velocity":24,"Duration":247933,"SoundDuration":247933,"Delta":585456633},{"NoteNumber":80,"Velocity":24,"Duration":266028,"SoundDuration":266028,"Delta":585704567},{"NoteNumber":53,"Velocity":21,"Duration":266028,"SoundDuration":266028,"Delta":585704567},{"NoteNumber":65,"Velocity":29,"Duration":260258,"SoundDuration":260258,"Delta":585970595},{"NoteNumber":68,"Velocity":24,"Duration":252588,"SoundDuration":252588,"Delta":586230854},{"NoteNumber":60,"Velocity":24,"Duration":252588,"SoundDuration":252588,"Delta":586230854},{"NoteNumber":74,"Velocity":38,"Duration":247933,"SoundDuration":247933,"Delta":586483443},{"NoteNumber":56,"Velocity":24,"Duration":247933,"SoundDuration":247933,"Delta":586483443},{"NoteNumber":80,"Velocity":24,"Duration":266088,"SoundDuration":266088,"Delta":586716914},{"NoteNumber":53,"Velocity":23,"Duration":266088,"SoundDuration":266088,"Delta":586716914},{"NoteNumber":65,"Velocity":29,"Duration":260258,"SoundDuration":260258,"Delta":586998590},{"NoteNumber":72,"Velocity":32,"Duration":254733,"SoundDuration":254733,"Delta":587258848},{"NoteNumber":62,"Velocity":21,"Duration":254733,"SoundDuration":254733,"Delta":587258848},{"NoteNumber":80,"Velocity":40,"Duration":251045,"SoundDuration":251045,"Delta":587513582},{"NoteNumber":60,"Velocity":24,"Duration":251045,"SoundDuration":251045,"Delta":587513582},{"NoteNumber":86,"Velocity":32,"Duration":275811,"SoundDuration":275811,"Delta":587764628},{"NoteNumber":55,"Velocity":22,"Duration":275811,"SoundDuration":275811,"Delta":587764628},{"NoteNumber":65,"Velocity":30,"Duration":260258,"SoundDuration":260258,"Delta":588040440},{"NoteNumber":71,"Velocity":32,"Duration":254733,"SoundDuration":254733,"Delta":588300698},{"NoteNumber":62,"Velocity":22,"Duration":254733,"SoundDuration":254733,"Delta":588300698},{"NoteNumber":79,"Velocity":41,"Duration":251045,"SoundDuration":251045,"Delta":588555432},{"NoteNumber":59,"Velocity":25,"Duration":251045,"SoundDuration":251045,"Delta":588555432},{"NoteNumber":86,"Velocity":34,"Duration":274549,"SoundDuration":274549,"Delta":588806478},{"NoteNumber":55,"Velocity":25,"Duration":274549,"SoundDuration":274549,"Delta":588806478},{"NoteNumber":72,"Velocity":30,"Duration":262535,"SoundDuration":262535,"Delta":589081028},{"NoteNumber":77,"Velocity":35,"Duration":254733,"SoundDuration":254733,"Delta":589343564},{"NoteNumber":67,"Velocity":23,"Duration":254733,"SoundDuration":254733,"Delta":589343564},{"NoteNumber":86,"Velocity":47,"Duration":251045,"SoundDuration":251045,"Delta":589598298},{"NoteNumber":65,"Velocity":25,"Duration":251045,"SoundDuration":251045,"Delta":589598298},{"NoteNumber":91,"Velocity":38,"Duration":275811,"SoundDuration":275811,"Delta":589849344},{"NoteNumber":60,"Velocity":22,"Duration":275811,"SoundDuration":275811,"Delta":589849344},{"NoteNumber":72,"Velocity":31,"Duration":264854,"SoundDuration":264854,"Delta":590125155},{"NoteNumber":75,"Velocity":38,"Duration":254733,"SoundDuration":254733,"Delta":590390009},{"NoteNumber":67,"Velocity":25,"Duration":254733,"SoundDuration":254733,"Delta":590390009},{"NoteNumber":84,"Velocity":52,"Duration":254733,"SoundDuration":254733,"Delta":590644743},{"NoteNumber":63,"Velocity":29,"Duration":254733,"SoundDuration":254733,"Delta":590644743},{"NoteNumber":91,"Velocity":36,"Duration":274549,"SoundDuration":274549,"Delta":590899477},{"NoteNumber":60,"Velocity":26,"Duration":274549,"SoundDuration":274549,"Delta":590899477},{"NoteNumber":41,"Velocity":43,"Duration":274549,"SoundDuration":274549,"Delta":591174027},{"NoteNumber":53,"Velocity":38,"Duration":274549,"SoundDuration":274549,"Delta":591448576},{"NoteNumber":72,"Velocity":39,"Duration":647836,"SoundDuration":647836,"Delta":591723126},{"NoteNumber":74,"Velocity":47,"Duration":647836,"SoundDuration":647836,"Delta":591723126},{"NoteNumber":68,"Velocity":39,"Duration":647836,"SoundDuration":647836,"Delta":591723126},{"NoteNumber":56,"Velocity":42,"Duration":2719110,"SoundDuration":2719110,"Delta":591723126},{"NoteNumber":60,"Velocity":47,"Duration":2459976,"SoundDuration":2459976,"Delta":591982260},{"NoteNumber":65,"Velocity":51,"Duration":2200841,"SoundDuration":2200841,"Delta":592241395},{"NoteNumber":75,"Velocity":45,"Duration":129567,"SoundDuration":129567,"Delta":592370962},{"NoteNumber":74,"Velocity":45,"Duration":129567,"SoundDuration":129567,"Delta":592500529},{"NoteNumber":72,"Velocity":45,"Duration":129567,"SoundDuration":129567,"Delta":592630096},{"NoteNumber":74,"Velocity":46,"Duration":136029,"SoundDuration":136029,"Delta":592759664},{"NoteNumber":75,"Velocity":49,"Duration":136029,"SoundDuration":136029,"Delta":592895693},{"NoteNumber":77,"Velocity":52,"Duration":136029,"SoundDuration":136029,"Delta":593031723},{"NoteNumber":79,"Velocity":55,"Duration":155811,"SoundDuration":155811,"Delta":593167753},{"NoteNumber":82,"Velocity":68,"Duration":559336,"SoundDuration":559336,"Delta":593323565},{"NoteNumber":80,"Velocity":64,"Duration":279668,"SoundDuration":279668,"Delta":593882901},{"NoteNumber":41,"Velocity":43,"Duration":274549,"SoundDuration":274549,"Delta":595525563},{"NoteNumber":53,"Velocity":38,"Duration":274549,"SoundDuration":274549,"Delta":595800112},{"NoteNumber":71,"Velocity":39,"Duration":647836,"SoundDuration":647836,"Delta":596074662},{"NoteNumber":74,"Velocity":47,"Duration":647836,"SoundDuration":647836,"Delta":596074662},{"NoteNumber":68,"Velocity":39,"Duration":647836,"SoundDuration":647836,"Delta":596074662},{"NoteNumber":56,"Velocity":42,"Duration":2159774,"SoundDuration":2159774,"Delta":596074662},{"NoteNumber":59,"Velocity":47,"Duration":1900640,"SoundDuration":1900640,"Delta":596333796},{"NoteNumber":62,"Velocity":51,"Duration":1641505,"SoundDuration":1641505,"Delta":596592931},{"NoteNumber":75,"Velocity":45,"Duration":129567,"SoundDuration":129567,"Delta":596722498},{"NoteNumber":74,"Velocity":45,"Duration":129567,"SoundDuration":129567,"Delta":596852065},{"NoteNumber":73,"Velocity":45,"Duration":129567,"SoundDuration":129567,"Delta":596981632},{"NoteNumber":74,"Velocity":46,"Duration":136029,"SoundDuration":136029,"Delta":597111200},{"NoteNumber":75,"Velocity":49,"Duration":136029,"SoundDuration":136029,"Delta":597247229},{"NoteNumber":77,"Velocity":52,"Duration":136029,"SoundDuration":136029,"Delta":597383259},{"NoteNumber":79,"Velocity":55,"Duration":155811,"SoundDuration":155811,"Delta":597519289},{"NoteNumber":82,"Velocity":68,"Duration":559336,"SoundDuration":559336,"Delta":597675101},{"NoteNumber":80,"Velocity":64,"Duration":272059,"SoundDuration":272059,"Delta":598234437},{"NoteNumber":77,"Velocity":62,"Duration":816178,"SoundDuration":816178,"Delta":598778556},{"NoteNumber":87,"Velocity":74,"Duration":544119,"SoundDuration":544119,"Delta":598778556},{"NoteNumber":61,"Velocity":43,"Duration":816178,"SoundDuration":816178,"Delta":598778556},{"NoteNumber":68,"Velocity":51,"Duration":816178,"SoundDuration":816178,"Delta":598778556},{"NoteNumber":71,"Velocity":60,"Duration":816178,"SoundDuration":816178,"Delta":598778556},{"NoteNumber":85,"Velocity":69,"Duration":272059,"SoundDuration":272059,"Delta":599322675},{"NoteNumber":46,"Velocity":45,"Duration":145029,"SoundDuration":145029,"Delta":600955032},{"NoteNumber":47,"Velocity":37,"Duration":144450,"SoundDuration":144450,"Delta":601086877},{"NoteNumber":46,"Velocity":37,"Duration":138655,"SoundDuration":138655,"Delta":601218722},{"NoteNumber":45,"Velocity":37,"Duration":138655,"SoundDuration":138655,"Delta":601344772},{"NoteNumber":46,"Velocity":45,"Duration":138655,"SoundDuration":138655,"Delta":601470823},{"NoteNumber":49,"Velocity":42,"Duration":138655,"SoundDuration":138655,"Delta":601596873},{"NoteNumber":54,"Velocity":45,"Duration":141314,"SoundDuration":141314,"Delta":601722924},{"NoteNumber":58,"Velocity":48,"Duration":165767,"SoundDuration":165767,"Delta":601848974},{"NoteNumber":75,"Velocity":41,"Duration":520386,"SoundDuration":520386,"Delta":602001615},{"NoteNumber":65,"Velocity":41,"Duration":144394,"SoundDuration":144394,"Delta":602001615},{"NoteNumber":59,"Velocity":52,"Duration":773550,"SoundDuration":773550,"Delta":602001615},{"NoteNumber":61,"Velocity":52,"Duration":773550,"SoundDuration":773550,"Delta":602001615},{"NoteNumber":66,"Velocity":41,"Duration":144394,"SoundDuration":144394,"Delta":602132883},{"NoteNumber":65,"Velocity":41,"Duration":143926,"SoundDuration":143926,"Delta":602264151},{"NoteNumber":64,"Velocity":41,"Duration":139240,"SoundDuration":139240,"Delta":602395419},{"NoteNumber":73,"Velocity":61,"Duration":253164,"SoundDuration":253164,"Delta":602522001},{"NoteNumber":65,"Velocity":45,"Duration":139240,"SoundDuration":139240,"Delta":602522001},{"NoteNumber":68,"Velocity":47,"Duration":139240,"SoundDuration":139240,"Delta":602648583},{"NoteNumber":71,"Velocity":49,"Duration":141107,"SoundDuration":141107,"Delta":602775166},{"NoteNumber":73,"Velocity":52,"Duration":158319,"SoundDuration":158319,"Delta":602901748},{"NoteNumber":87,"Velocity":67,"Duration":518670,"SoundDuration":518670,"Delta":603046998},{"NoteNumber":78,"Velocity":67,"Duration":771835,"SoundDuration":771835,"Delta":603046998},{"NoteNumber":58,"Velocity":45,"Duration":143765,"SoundDuration":143765,"Delta":603046998},{"NoteNumber":59,"Velocity":37,"Duration":143765,"SoundDuration":143765,"Delta":603177694},{"NoteNumber":58,"Velocity":37,"Duration":143354,"SoundDuration":143354,"Delta":603308391},{"NoteNumber":57,"Velocity":37,"Duration":139240,"SoundDuration":139240,"Delta":603439087},{"NoteNumber":85,"Velocity":61,"Duration":253164,"SoundDuration":253164,"Delta":603565669},{"NoteNumber":58,"Velocity":45,"Duration":139240,"SoundDuration":139240,"Delta":603565669},{"NoteNumber":61,"Velocity":42,"Duration":139240,"SoundDuration":139240,"Delta":603692251},{"NoteNumber":66,"Velocity":45,"Duration":140967,"SoundDuration":140967,"Delta":603818834},{"NoteNumber":70,"Velocity":48,"Duration":156926,"SoundDuration":156926,"Delta":603945416},{"NoteNumber":77,"Velocity":51,"Duration":143765,"SoundDuration":143765,"Delta":604089273},{"NoteNumber":87,"Velocity":75,"Duration":513493,"SoundDuration":513493,"Delta":604089273},{"NoteNumber":71,"Velocity":59,"Duration":765594,"SoundDuration":765594,"Delta":604089273},{"NoteNumber":73,"Velocity":59,"Duration":765594,"SoundDuration":765594,"Delta":604089273},{"NoteNumber":78,"Velocity":47,"Duration":143301,"SoundDuration":143301,"Delta":604219969},{"NoteNumber":77,"Velocity":47,"Duration":138655,"SoundDuration":138655,"Delta":604350666},{"NoteNumber":76,"Velocity":47,"Duration":138655,"SoundDuration":138655,"Delta":604476716},{"NoteNumber":85,"Velocity":70,"Duration":252100,"SoundDuration":252100,"Delta":604602767},{"NoteNumber":77,"Velocity":51,"Duration":138655,"SoundDuration":138655,"Delta":604602767},{"NoteNumber":80,"Velocity":53,"Duration":138655,"SoundDuration":138655,"Delta":604728817},{"NoteNumber":83,"Velocity":56,"Duration":140646,"SoundDuration":140646,"Delta":604854868},{"NoteNumber":85,"Velocity":60,"Duration":159083,"SoundDuration":159083,"Delta":604980918},{"NoteNumber":89,"Velocity":77,"Duration":766737,"SoundDuration":766737,"Delta":605126875},{"NoteNumber":99,"Velocity":77,"Duration":514636,"SoundDuration":514636,"Delta":605126875},{"NoteNumber":83,"Velocity":51,"Duration":144394,"SoundDuration":144394,"Delta":605126875},{"NoteNumber":80,"Velocity":42,"Duration":143873,"SoundDuration":143873,"Delta":605258143},{"NoteNumber":77,"Velocity":42,"Duration":138655,"SoundDuration":138655,"Delta":605389411},{"NoteNumber":73,"Velocity":42,"Duration":138655,"SoundDuration":138655,"Delta":605515462},{"NoteNumber":97,"Velocity":86,"Duration":792516,"SoundDuration":792516,"Delta":605641512},{"NoteNumber":71,"Velocity":51,"Duration":138655,"SoundDuration":138655,"Delta":605641512},{"NoteNumber":68,"Velocity":48,"Duration":138655,"SoundDuration":138655,"Delta":605767563},{"NoteNumber":65,"Velocity":51,"Duration":140646,"SoundDuration":140646,"Delta":605893613},{"NoteNumber":59,"Velocity":55,"Duration":159377,"SoundDuration":159377,"Delta":606019664},{"NoteNumber":60,"Velocity":55,"Duration":7401352,"SoundDuration":7401352,"Delta":606165621},{"NoteNumber":96,"Velocity":75,"Duration":259134,"SoundDuration":259134,"Delta":606434029},{"NoteNumber":95,"Velocity":77,"Duration":259134,"SoundDuration":259134,"Delta":606693164},{"NoteNumber":94,"Velocity":73,"Duration":259134,"SoundDuration":259134,"Delta":606952298},{"NoteNumber":93,"Velocity":69,"Duration":259134,"SoundDuration":259134,"Delta":607211433},{"NoteNumber":56,"Velocity":46,"Duration":1045398,"SoundDuration":1045398,"Delta":607211433},{"NoteNumber":65,"Velocity":55,"Duration":1045398,"SoundDuration":1045398,"Delta":607211433},{"NoteNumber":92,"Velocity":63,"Duration":259134,"SoundDuration":259134,"Delta":607470567},{"NoteNumber":91,"Velocity":70,"Duration":259134,"SoundDuration":259134,"Delta":607729702},{"NoteNumber":90,"Velocity":69,"Duration":267995,"SoundDuration":267995,"Delta":607988836},{"NoteNumber":89,"Velocity":70,"Duration":259841,"SoundDuration":259841,"Delta":608256831},{"NoteNumber":55,"Velocity":50,"Duration":1028993,"SoundDuration":1028993,"Delta":608256831},{"NoteNumber":67,"Velocity":59,"Duration":1028993,"SoundDuration":1028993,"Delta":608256831},{"NoteNumber":88,"Velocity":60,"Duration":258169,"SoundDuration":258169,"Delta":608516673},{"NoteNumber":87,"Velocity":64,"Duration":256372,"SoundDuration":256372,"Delta":608774843},{"NoteNumber":86,"Velocity":67,"Duration":254609,"SoundDuration":254609,"Delta":609031215},{"NoteNumber":85,"Velocity":71,"Duration":253656,"SoundDuration":253656,"Delta":609285825},{"NoteNumber":53,"Velocity":52,"Duration":2070186,"SoundDuration":2070186,"Delta":609285825},{"NoteNumber":68,"Velocity":62,"Duration":2070186,"SoundDuration":2070186,"Delta":609285825},{"NoteNumber":84,"Velocity":60,"Duration":253656,"SoundDuration":253656,"Delta":609539482},{"NoteNumber":83,"Velocity":67,"Duration":253657,"SoundDuration":253657,"Delta":609793139},{"NoteNumber":82,"Velocity":54,"Duration":267470,"SoundDuration":267470,"Delta":610046796},{"NoteNumber":81,"Velocity":60,"Duration":257510,"SoundDuration":257510,"Delta":610314266},{"NoteNumber":80,"Velocity":54,"Duration":258208,"SoundDuration":258208,"Delta":610571777},{"NoteNumber":79,"Velocity":59,"Duration":260557,"SoundDuration":260557,"Delta":610829985},{"NoteNumber":78,"Velocity":50,"Duration":265468,"SoundDuration":265468,"Delta":611090543},{"NoteNumber":77,"Velocity":44,"Duration":270059,"SoundDuration":270059,"Delta":611356012},{"NoteNumber":56,"Velocity":45,"Duration":1139534,"SoundDuration":1139534,"Delta":611356012},{"NoteNumber":65,"Velocity":54,"Duration":1139534,"SoundDuration":1139534,"Delta":611356012},{"NoteNumber":76,"Velocity":46,"Duration":278900,"SoundDuration":278900,"Delta":611626071},{"NoteNumber":75,"Velocity":53,"Duration":288380,"SoundDuration":288380,"Delta":611904972},{"NoteNumber":74,"Velocity":46,"Duration":302193,"SoundDuration":302193,"Delta":612193352},{"NoteNumber":55,"Velocity":40,"Duration":1071427,"SoundDuration":1071427,"Delta":612495546},{"NoteNumber":63,"Velocity":48,"Duration":1071427,"SoundDuration":1071427,"Delta":612495546},{"NoteNumber":75,"Velocity":54,"Duration":535713,"SoundDuration":535713,"Delta":613031260},{"NoteNumber":78,"Velocity":58,"Duration":535713,"SoundDuration":535713,"Delta":613566974},{"NoteNumber":84,"Velocity":54,"Duration":586681,"SoundDuration":586681,"Delta":614102688},{"NoteNumber":55,"Velocity":28,"Duration":1162801,"SoundDuration":1162801,"Delta":614689370},{"NoteNumber":59,"Velocity":28,"Duration":1137549,"SoundDuration":1137549,"Delta":614689370},{"NoteNumber":62,"Velocity":33,"Duration":1162801,"SoundDuration":1162801,"Delta":614689370},{"NoteNumber":80,"Velocity":54,"Duration":606060,"SoundDuration":606060,"Delta":615246111},{"NoteNumber":68,"Velocity":44,"Duration":606060,"SoundDuration":606060,"Delta":615246111},{"NoteNumber":79,"Velocity":43,"Duration":648648,"SoundDuration":648648,"Delta":615852172},{"NoteNumber":67,"Velocity":33,"Duration":648648,"SoundDuration":648648,"Delta":615852172},{"NoteNumber":71,"Velocity":34,"Duration":731707,"SoundDuration":731707,"Delta":616500821},{"NoteNumber":59,"Velocity":24,"Duration":731707,"SoundDuration":731707,"Delta":616500821},{"NoteNumber":80,"Velocity":32,"Duration":267212,"SoundDuration":267212,"Delta":617232528},{"NoteNumber":84,"Velocity":40,"Duration":1016354,"SoundDuration":1016354,"Delta":617232528},{"NoteNumber":48,"Velocity":27,"Duration":1016354,"SoundDuration":1016354,"Delta":617232528},{"NoteNumber":60,"Velocity":32,"Duration":1016354,"SoundDuration":1016354,"Delta":617232528},{"NoteNumber":72,"Velocity":23,"Duration":267213,"SoundDuration":267213,"Delta":617499741},{"NoteNumber":80,"Velocity":23,"Duration":240963,"SoundDuration":240963,"Delta":617766954},{"NoteNumber":72,"Velocity":23,"Duration":240964,"SoundDuration":240964,"Delta":618007918},{"NoteNumber":82,"Velocity":35,"Duration":472441,"SoundDuration":472441,"Delta":618248882},{"NoteNumber":79,"Velocity":35,"Duration":472441,"SoundDuration":472441,"Delta":618248882},{"NoteNumber":70,"Velocity":32,"Duration":472441,"SoundDuration":472441,"Delta":618248882},{"NoteNumber":67,"Velocity":24,"Duration":236220,"SoundDuration":236220,"Delta":618248882},{"NoteNumber":60,"Velocity":21,"Duration":236220,"SoundDuration":236220,"Delta":618485102},{"NoteNumber":80,"Velocity":41,"Duration":487750,"SoundDuration":487750,"Delta":618721323},{"NoteNumber":84,"Velocity":41,"Duration":487750,"SoundDuration":487750,"Delta":618721323},{"NoteNumber":72,"Velocity":24,"Duration":487750,"SoundDuration":487750,"Delta":618721323},{"NoteNumber":68,"Velocity":18,"Duration":236220,"SoundDuration":236220,"Delta":618721323},{"NoteNumber":60,"Velocity":21,"Duration":251530,"SoundDuration":251530,"Delta":618957543},{"NoteNumber":82,"Velocity":46,"Duration":702370,"SoundDuration":702370,"Delta":619209073},{"NoteNumber":85,"Velocity":46,"Duration":702370,"SoundDuration":702370,"Delta":619209073},{"NoteNumber":73,"Velocity":32,"Duration":247175,"SoundDuration":247175,"Delta":619209073},{"NoteNumber":70,"Velocity":24,"Duration":247175,"SoundDuration":247175,"Delta":619209073},{"NoteNumber":60,"Velocity":20,"Duration":238530,"SoundDuration":238530,"Delta":619456248},{"NoteNumber":70,"Velocity":23,"Duration":238530,"SoundDuration":238530,"Delta":619694779},{"NoteNumber":67,"Velocity":17,"Duration":238530,"SoundDuration":238530,"Delta":619694779},{"NoteNumber":82,"Velocity":39,"Duration":238530,"SoundDuration":238530,"Delta":619933309},{"NoteNumber":79,"Velocity":39,"Duration":238530,"SoundDuration":238530,"Delta":619933309},{"NoteNumber":60,"Velocity":20,"Duration":238530,"SoundDuration":238530,"Delta":619933309},{"NoteNumber":76,"Velocity":46,"Duration":466925,"SoundDuration":466925,"Delta":620171840},{"NoteNumber":79,"Velocity":46,"Duration":466925,"SoundDuration":466925,"Delta":620171840},{"NoteNumber":64,"Velocity":23,"Duration":233463,"SoundDuration":233463,"Delta":620171840},{"NoteNumber":67,"Velocity":31,"Duration":233463,"SoundDuration":233463,"Delta":620171840},{"NoteNumber":60,"Velocity":21,"Duration":233462,"SoundDuration":233462,"Delta":620405303},{"NoteNumber":80,"Velocity":40,"Duration":489283,"SoundDuration":489283,"Delta":620638766},{"NoteNumber":77,"Velocity":40,"Duration":489283,"SoundDuration":489283,"Delta":620638766},{"NoteNumber":68,"Velocity":24,"Duration":233463,"SoundDuration":233463,"Delta":620638766},{"NoteNumber":65,"Velocity":18,"Duration":233463,"SoundDuration":233463,"Delta":620638766},{"NoteNumber":60,"Velocity":21,"Duration":255819,"SoundDuration":255819,"Delta":620872229},{"NoteNumber":79,"Velocity":40,"Duration":486256,"SoundDuration":486256,"Delta":621128049},{"NoteNumber":82,"Velocity":40,"Duration":486256,"SoundDuration":486256,"Delta":621128049},{"NoteNumber":67,"Velocity":24,"Duration":243871,"SoundDuration":243871,"Delta":621128049},{"NoteNumber":70,"Velocity":32,"Duration":243871,"SoundDuration":243871,"Delta":621128049},{"NoteNumber":60,"Velocity":20,"Duration":242385,"SoundDuration":242385,"Delta":621371921},{"NoteNumber":80,"Velocity":35,"Duration":472925,"SoundDuration":472925,"Delta":621614306},{"NoteNumber":77,"Velocity":35,"Duration":472925,"SoundDuration":472925,"Delta":621614306},{"NoteNumber":65,"Velocity":24,"Duration":236462,"SoundDuration":236462,"Delta":621614306},{"NoteNumber":68,"Velocity":23,"Duration":236462,"SoundDuration":236462,"Delta":621614306},{"NoteNumber":60,"Velocity":20,"Duration":236462,"SoundDuration":236462,"Delta":621850768},{"NoteNumber":79,"Velocity":35,"Duration":463785,"SoundDuration":463785,"Delta":622087231},{"NoteNumber":75,"Velocity":35,"Duration":463785,"SoundDuration":463785,"Delta":622087231},{"NoteNumber":67,"Velocity":32,"Duration":231892,"SoundDuration":231892,"Delta":622087231},{"NoteNumber":63,"Velocity":24,"Duration":231892,"SoundDuration":231892,"Delta":622087231},{"NoteNumber":60,"Velocity":21,"Duration":231893,"SoundDuration":231893,"Delta":622319124},{"NoteNumber":73,"Velocity":41,"Duration":484481,"SoundDuration":484481,"Delta":622551017},{"NoteNumber":77,"Velocity":41,"Duration":484481,"SoundDuration":484481,"Delta":622551017},{"NoteNumber":65,"Velocity":24,"Duration":231893,"SoundDuration":231893,"Delta":622551017},{"NoteNumber":61,"Velocity":18,"Duration":231893,"SoundDuration":231893,"Delta":622551017},{"NoteNumber":60,"Velocity":21,"Duration":252588,"SoundDuration":252588,"Delta":622782910},{"NoteNumber":72,"Velocity":25,"Duration":714359,"SoundDuration":714359,"Delta":623035499},{"NoteNumber":76,"Velocity":46,"Duration":714359,"SoundDuration":714359,"Delta":623035499},{"NoteNumber":64,"Velocity":32,"Duration":244765,"SoundDuration":244765,"Delta":623035499},{"NoteNumber":60,"Velocity":23,"Duration":234796,"SoundDuration":234796,"Delta":623280264},{"NoteNumber":62,"Velocity":19,"Duration":234796,"SoundDuration":234796,"Delta":623515061},{"NoteNumber":65,"Velocity":23,"Duration":234796,"SoundDuration":234796,"Delta":623515061},{"NoteNumber":77,"Velocity":39,"Duration":234797,"SoundDuration":234797,"Delta":623749858},{"NoteNumber":74,"Velocity":39,"Duration":234797,"SoundDuration":234797,"Delta":623749858},{"NoteNumber":60,"Velocity":23,"Duration":234797,"SoundDuration":234797,"Delta":623749858},{"NoteNumber":79,"Velocity":46,"Duration":458820,"SoundDuration":458820,"Delta":623984655},{"NoteNumber":76,"Velocity":46,"Duration":458820,"SoundDuration":458820,"Delta":623984655},{"NoteNumber":64,"Velocity":26,"Duration":229410,"SoundDuration":229410,"Delta":623984655},{"NoteNumber":67,"Velocity":31,"Duration":229410,"SoundDuration":229410,"Delta":623984655},{"NoteNumber":60,"Velocity":24,"Duration":229410,"SoundDuration":229410,"Delta":624224580},{"NoteNumber":72,"Velocity":51,"Duration":350603,"SoundDuration":350603,"Delta":624443476},{"NoteNumber":84,"Velocity":53,"Duration":350603,"SoundDuration":350603,"Delta":624443476},{"NoteNumber":49,"Velocity":36,"Duration":121192,"SoundDuration":121192,"Delta":624794079},{"NoteNumber":73,"Velocity":49,"Duration":1886589,"SoundDuration":1886589,"Delta":624915272},{"NoteNumber":85,"Velocity":58,"Duration":941119,"SoundDuration":941119,"Delta":624915272},{"NoteNumber":61,"Velocity":42,"Duration":118792,"SoundDuration":118792,"Delta":624915272},{"NoteNumber":59,"Velocity":24,"Duration":116486,"SoundDuration":116486,"Delta":625390444},{"NoteNumber":61,"Velocity":26,"Duration":116486,"SoundDuration":116486,"Delta":625623417},{"NoteNumber":83,"Velocity":42,"Duration":468813,"SoundDuration":468813,"Delta":625856391},{"NoteNumber":80,"Velocity":35,"Duration":468813,"SoundDuration":468813,"Delta":625856391},{"NoteNumber":62,"Velocity":31,"Duration":232072,"SoundDuration":232072,"Delta":625856391},{"NoteNumber":59,"Velocity":28,"Duration":236741,"SoundDuration":236741,"Delta":626088463},{"NoteNumber":81,"Velocity":41,"Duration":476656,"SoundDuration":476656,"Delta":626325204},{"NoteNumber":85,"Velocity":49,"Duration":476656,"SoundDuration":476656,"Delta":626325204},{"NoteNumber":56,"Velocity":23,"Duration":115145,"SoundDuration":115145,"Delta":626325204},{"NoteNumber":57,"Velocity":28,"Duration":123183,"SoundDuration":123183,"Delta":626555495},{"NoteNumber":73,"Velocity":44,"Duration":1367723,"SoundDuration":1367723,"Delta":626801861},{"NoteNumber":83,"Velocity":56,"Duration":664660,"SoundDuration":664660,"Delta":626801861},{"NoteNumber":86,"Velocity":56,"Duration":664660,"SoundDuration":664660,"Delta":626801861},{"NoteNumber":59,"Velocity":36,"Duration":228536,"SoundDuration":228536,"Delta":626801861},{"NoteNumber":56,"Velocity":27,"Duration":228536,"SoundDuration":228536,"Delta":627030398},{"NoteNumber":53,"Velocity":36,"Duration":114268,"SoundDuration":114268,"Delta":627258934},{"NoteNumber":83,"Velocity":44,"Duration":205682,"SoundDuration":205682,"Delta":627487471},{"NoteNumber":80,"Velocity":37,"Duration":205682,"SoundDuration":205682,"Delta":627487471},{"NoteNumber":54,"Velocity":29,"Duration":114268,"SoundDuration":114268,"Delta":627487471},{"NoteNumber":77,"Velocity":44,"Duration":473297,"SoundDuration":473297,"Delta":627716007},{"NoteNumber":80,"Velocity":52,"Duration":473297,"SoundDuration":473297,"Delta":627716007},{"NoteNumber":56,"Velocity":35,"Duration":118324,"SoundDuration":118324,"Delta":627716007},{"NoteNumber":53,"Velocity":24,"Duration":118324,"SoundDuration":118324,"Delta":627952656},{"NoteNumber":73,"Velocity":39,"Duration":495322,"SoundDuration":495322,"Delta":628189305},{"NoteNumber":85,"Velocity":47,"Duration":495322,"SoundDuration":495322,"Delta":628189305},{"NoteNumber":83,"Velocity":39,"Duration":495322,"SoundDuration":495322,"Delta":628189305},{"NoteNumber":49,"Velocity":27,"Duration":118324,"SoundDuration":118324,"Delta":628189305},{"NoteNumber":54,"Velocity":41,"Duration":131844,"SoundDuration":131844,"Delta":628552783},{"NoteNumber":78,"Velocity":72,"Duration":1900511,"SoundDuration":1900511,"Delta":628684628},{"NoteNumber":82,"Velocity":72,"Duration":943845,"SoundDuration":943845,"Delta":628684628},{"NoteNumber":90,"Velocity":72,"Duration":943845,"SoundDuration":943845,"Delta":628684628},{"NoteNumber":66,"Velocity":54,"Duration":120705,"SoundDuration":120705,"Delta":628684628},{"NoteNumber":64,"Velocity":41,"Duration":115588,"SoundDuration":115588,"Delta":629167448},{"NoteNumber":66,"Velocity":41,"Duration":115145,"SoundDuration":115145,"Delta":629398182},{"NoteNumber":88,"Velocity":62,"Duration":457256,"SoundDuration":457256,"Delta":629628473},{"NoteNumber":85,"Velocity":51,"Duration":457256,"SoundDuration":457256,"Delta":629628473},{"NoteNumber":67,"Velocity":49,"Duration":225954,"SoundDuration":225954,"Delta":629628473},{"NoteNumber":64,"Velocity":43,"Duration":231301,"SoundDuration":231301,"Delta":629854428},{"NoteNumber":86,"Velocity":57,"Duration":499409,"SoundDuration":499409,"Delta":630085730},{"NoteNumber":90,"Velocity":68,"Duration":499409,"SoundDuration":499409,"Delta":630085730},{"NoteNumber":61,"Velocity":37,"Duration":117859,"SoundDuration":117859,"Delta":630085730},{"NoteNumber":62,"Velocity":43,"Duration":131844,"SoundDuration":131844,"Delta":630321449},{"NoteNumber":73,"Velocity":52,"Duration":1376624,"SoundDuration":1376624,"Delta":630585139},{"NoteNumber":88,"Velocity":77,"Duration":662138,"SoundDuration":662138,"Delta":630585139},{"NoteNumber":91,"Velocity":85,"Duration":662138,"SoundDuration":662138,"Delta":630585139},{"NoteNumber":64,"Velocity":47,"Duration":227669,"SoundDuration":227669,"Delta":630585139},{"NoteNumber":61,"Velocity":37,"Duration":227669,"SoundDuration":227669,"Delta":630812809},{"NoteNumber":58,"Velocity":47,"Duration":113834,"SoundDuration":113834,"Delta":631040478},{"NoteNumber":88,"Velocity":68,"Duration":227669,"SoundDuration":227669,"Delta":631268148},{"NoteNumber":85,"Velocity":57,"Duration":227669,"SoundDuration":227669,"Delta":631268148},{"NoteNumber":59,"Velocity":37,"Duration":113834,"SoundDuration":113834,"Delta":631268148},{"NoteNumber":82,"Velocity":68,"Duration":465947,"SoundDuration":465947,"Delta":631495817},{"NoteNumber":85,"Velocity":81,"Duration":465947,"SoundDuration":465947,"Delta":631495817},{"NoteNumber":61,"Velocity":48,"Duration":116486,"SoundDuration":116486,"Delta":631495817},{"NoteNumber":58,"Velocity":40,"Duration":116486,"SoundDuration":116486,"Delta":631728791},{"NoteNumber":78,"Velocity":70,"Duration":485562,"SoundDuration":485562,"Delta":631961764},{"NoteNumber":90,"Velocity":87,"Duration":485562,"SoundDuration":485562,"Delta":631961764},{"NoteNumber":88,"Velocity":70,"Duration":485562,"SoundDuration":485562,"Delta":631961764},{"NoteNumber":54,"Velocity":48,"Duration":116486,"SoundDuration":116486,"Delta":631961764},{"NoteNumber":83,"Velocity":57,"Duration":225856,"SoundDuration":225856,"Delta":632447327},{"NoteNumber":87,"Velocity":57,"Duration":225856,"SoundDuration":225856,"Delta":632447327},{"NoteNumber":93,"Velocity":68,"Duration":225856,"SoundDuration":225856,"Delta":632447327},{"NoteNumber":95,"Velocity":68,"Duration":225856,"SoundDuration":225856,"Delta":632447327},{"NoteNumber":59,"Velocity":83,"Duration":900974,"SoundDuration":900974,"Delta":632447327},{"NoteNumber":47,"Velocity":68,"Duration":900974,"SoundDuration":900974,"Delta":632447327},{"NoteNumber":81,"Velocity":56,"Duration":112519,"SoundDuration":112519,"Delta":632898223},{"NoteNumber":93,"Velocity":66,"Duration":112519,"SoundDuration":112519,"Delta":632898223},{"NoteNumber":83,"Velocity":58,"Duration":112519,"SoundDuration":112519,"Delta":633123262},{"NoteNumber":95,"Velocity":68,"Duration":112519,"SoundDuration":112519,"Delta":633123262},{"NoteNumber":84,"Velocity":60,"Duration":224148,"SoundDuration":224148,"Delta":633348302},{"NoteNumber":96,"Velocity":71,"Duration":224148,"SoundDuration":224148,"Delta":633348302},{"NoteNumber":57,"Velocity":71,"Duration":448296,"SoundDuration":448296,"Delta":633348302},{"NoteNumber":45,"Velocity":60,"Duration":448296,"SoundDuration":448296,"Delta":633348302},{"NoteNumber":81,"Velocity":55,"Duration":224148,"SoundDuration":224148,"Delta":633572450},{"NoteNumber":93,"Velocity":66,"Duration":224148,"SoundDuration":224148,"Delta":633572450},{"NoteNumber":78,"Velocity":58,"Duration":112074,"SoundDuration":112074,"Delta":633796598},{"NoteNumber":90,"Velocity":68,"Duration":112074,"SoundDuration":112074,"Delta":633796598},{"NoteNumber":59,"Velocity":76,"Duration":462489,"SoundDuration":462489,"Delta":633796598},{"NoteNumber":47,"Velocity":64,"Duration":462489,"SoundDuration":462489,"Delta":633796598},{"NoteNumber":79,"Velocity":53,"Duration":119170,"SoundDuration":119170,"Delta":634020746},{"NoteNumber":91,"Velocity":63,"Duration":119170,"SoundDuration":119170,"Delta":634020746},{"NoteNumber":81,"Velocity":61,"Duration":228693,"SoundDuration":228693,"Delta":634259087},{"NoteNumber":93,"Velocity":73,"Duration":228693,"SoundDuration":228693,"Delta":634259087},{"NoteNumber":60,"Velocity":82,"Duration":681535,"SoundDuration":681535,"Delta":634259087},{"NoteNumber":48,"Velocity":69,"Duration":681535,"SoundDuration":681535,"Delta":634259087},{"NoteNumber":78,"Velocity":56,"Duration":228693,"SoundDuration":228693,"Delta":634487780},{"NoteNumber":90,"Velocity":68,"Duration":228693,"SoundDuration":228693,"Delta":634487780},{"NoteNumber":72,"Velocity":59,"Duration":112074,"SoundDuration":112074,"Delta":634716474},{"NoteNumber":84,"Velocity":70,"Duration":112074,"SoundDuration":112074,"Delta":634716474},{"NoteNumber":74,"Velocity":54,"Duration":112074,"SoundDuration":112074,"Delta":634940622},{"NoteNumber":86,"Velocity":64,"Duration":112074,"SoundDuration":112074,"Delta":634940622},{"NoteNumber":57,"Velocity":75,"Duration":224148,"SoundDuration":224148,"Delta":634940622},{"NoteNumber":45,"Velocity":63,"Duration":224148,"SoundDuration":224148,"Delta":634940622},{"NoteNumber":75,"Velocity":63,"Duration":224148,"SoundDuration":224148,"Delta":635164770},{"NoteNumber":87,"Velocity":74,"Duration":224148,"SoundDuration":224148,"Delta":635164770},{"NoteNumber":54,"Velocity":81,"Duration":448296,"SoundDuration":448296,"Delta":635164770},{"NoteNumber":42,"Velocity":69,"Duration":448296,"SoundDuration":448296,"Delta":635164770},{"NoteNumber":72,"Velocity":58,"Duration":224148,"SoundDuration":224148,"Delta":635388918},{"NoteNumber":84,"Velocity":70,"Duration":224148,"SoundDuration":224148,"Delta":635388918},{"NoteNumber":69,"Velocity":60,"Duration":112073,"SoundDuration":112073,"Delta":635613066},{"NoteNumber":81,"Velocity":71,"Duration":112073,"SoundDuration":112073,"Delta":635613066},{"NoteNumber":55,"Velocity":78,"Duration":459497,"SoundDuration":459497,"Delta":635613066},{"NoteNumber":43,"Velocity":66,"Duration":459497,"SoundDuration":459497,"Delta":635613066},{"NoteNumber":71,"Velocity":56,"Duration":117674,"SoundDuration":117674,"Delta":635837214},{"NoteNumber":83,"Velocity":66,"Duration":117674,"SoundDuration":117674,"Delta":635837214},{"NoteNumber":72,"Velocity":64,"Duration":229620,"SoundDuration":229620,"Delta":636072563},{"NoteNumber":84,"Velocity":76,"Duration":229620,"SoundDuration":229620,"Delta":636072563},{"NoteNumber":45,"Velocity":70,"Duration":682505,"SoundDuration":682505,"Delta":636072563},{"NoteNumber":57,"Velocity":83,"Duration":682505,"SoundDuration":682505,"Delta":636072563},{"NoteNumber":69,"Velocity":58,"Duration":229621,"SoundDuration":229621,"Delta":636302184},{"NoteNumber":81,"Velocity":70,"Duration":229621,"SoundDuration":229621,"Delta":636302184},{"NoteNumber":66,"Velocity":62,"Duration":111631,"SoundDuration":111631,"Delta":636531805},{"NoteNumber":78,"Velocity":73,"Duration":111631,"SoundDuration":111631,"Delta":636531805},{"NoteNumber":67,"Velocity":56,"Duration":111631,"SoundDuration":111631,"Delta":636755069},{"NoteNumber":79,"Velocity":66,"Duration":111631,"SoundDuration":111631,"Delta":636755069},{"NoteNumber":42,"Velocity":67,"Duration":223263,"SoundDuration":223263,"Delta":636755069},{"NoteNumber":54,"Velocity":80,"Duration":223263,"SoundDuration":223263,"Delta":636755069},{"NoteNumber":69,"Velocity":65,"Duration":223264,"SoundDuration":223264,"Delta":636978333},{"NoteNumber":81,"Velocity":78,"Duration":223264,"SoundDuration":223264,"Delta":636978333},{"NoteNumber":39,"Velocity":74,"Duration":446528,"SoundDuration":446528,"Delta":636978333},{"NoteNumber":51,"Velocity":87,"Duration":446528,"SoundDuration":446528,"Delta":636978333},{"NoteNumber":66,"Velocity":60,"Duration":223263,"SoundDuration":223263,"Delta":637201597},{"NoteNumber":78,"Velocity":72,"Duration":223263,"SoundDuration":223263,"Delta":637201597},{"NoteNumber":40,"Velocity":71,"Duration":457638,"SoundDuration":457638,"Delta":637424861},{"NoteNumber":52,"Velocity":84,"Duration":457638,"SoundDuration":457638,"Delta":637424861},{"NoteNumber":73,"Velocity":63,"Duration":117187,"SoundDuration":117187,"Delta":637648125},{"NoteNumber":69,"Velocity":63,"Duration":117187,"SoundDuration":117187,"Delta":637648125},{"NoteNumber":67,"Velocity":63,"Duration":117187,"SoundDuration":117187,"Delta":637648125},{"NoteNumber":79,"Velocity":75,"Duration":117187,"SoundDuration":117187,"Delta":637648125},{"NoteNumber":36,"Velocity":76,"Duration":471069,"SoundDuration":471069,"Delta":637882500},{"NoteNumber":48,"Velocity":91,"Duration":471069,"SoundDuration":471069,"Delta":637882500},{"NoteNumber":78,"Velocity":64,"Duration":117767,"SoundDuration":117767,"Delta":638118035},{"NoteNumber":75,"Velocity":64,"Duration":117767,"SoundDuration":117767,"Delta":638118035},{"NoteNumber":69,"Velocity":64,"Duration":117767,"SoundDuration":117767,"Delta":638118035},{"NoteNumber":81,"Velocity":75,"Duration":117767,"SoundDuration":117767,"Delta":638118035},{"NoteNumber":37,"Velocity":70,"Duration":484378,"SoundDuration":484378,"Delta":638353569},{"NoteNumber":49,"Velocity":84,"Duration":484378,"SoundDuration":484378,"Delta":638353569},{"NoteNumber":79,"Velocity":69,"Duration":121094,"SoundDuration":121094,"Delta":638595759},{"NoteNumber":76,"Velocity":69,"Duration":121094,"SoundDuration":121094,"Delta":638595759},{"NoteNumber":69,"Velocity":69,"Duration":121094,"SoundDuration":121094,"Delta":638595759},{"NoteNumber":81,"Velocity":82,"Duration":121094,"SoundDuration":121094,"Delta":638595759},{"NoteNumber":33,"Velocity":78,"Duration":484378,"SoundDuration":484378,"Delta":638837948},{"NoteNumber":45,"Velocity":93,"Duration":484378,"SoundDuration":484378,"Delta":638837948},{"NoteNumber":78,"Velocity":75,"Duration":121094,"SoundDuration":121094,"Delta":639080138},{"NoteNumber":75,"Velocity":75,"Duration":121094,"SoundDuration":121094,"Delta":639080138},{"NoteNumber":72,"Velocity":75,"Duration":121094,"SoundDuration":121094,"Delta":639080138},{"NoteNumber":84,"Velocity":89,"Duration":121094,"SoundDuration":121094,"Delta":639080138},{"NoteNumber":31,"Velocity":85,"Duration":400462,"SoundDuration":400462,"Delta":639322327},{"NoteNumber":43,"Velocity":100,"Duration":400462,"SoundDuration":400462,"Delta":639322327},{"NoteNumber":81,"Velocity":81,"Duration":133487,"SoundDuration":133487,"Delta":639589302},{"NoteNumber":76,"Velocity":81,"Duration":133487,"SoundDuration":133487,"Delta":639589302},{"NoteNumber":73,"Velocity":81,"Duration":133487,"SoundDuration":133487,"Delta":639589302},{"NoteNumber":85,"Velocity":95,"Duration":133487,"SoundDuration":133487,"Delta":639589302},{"NoteNumber":29,"Velocity":63,"Duration":66743,"SoundDuration":66743,"Delta":639722790},{"NoteNumber":41,"Velocity":63,"Duration":66743,"SoundDuration":66743,"Delta":639789533},{"NoteNumber":82,"Velocity":89,"Duration":909987,"SoundDuration":909987,"Delta":639856277},{"NoteNumber":85,"Velocity":89,"Duration":909987,"SoundDuration":909987,"Delta":639856277},{"NoteNumber":91,"Velocity":89,"Duration":909987,"SoundDuration":909987,"Delta":639856277},{"NoteNumber":94,"Velocity":105,"Duration":909987,"SoundDuration":909987,"Delta":639856277},{"NoteNumber":53,"Velocity":53,"Duration":909987,"SoundDuration":909987,"Delta":639856277},{"NoteNumber":58,"Velocity":53,"Duration":909987,"SoundDuration":909987,"Delta":639856277},{"NoteNumber":64,"Velocity":63,"Duration":909987,"SoundDuration":909987,"Delta":639856277},{"NoteNumber":61,"Velocity":68,"Duration":909987,"SoundDuration":909987,"Delta":639861965},{"NoteNumber":81,"Velocity":79,"Duration":454994,"SoundDuration":454994,"Delta":640766265},{"NoteNumber":86,"Velocity":79,"Duration":454994,"SoundDuration":454994,"Delta":640766265},{"NoteNumber":89,"Velocity":79,"Duration":454994,"SoundDuration":454994,"Delta":640766265},{"NoteNumber":93,"Velocity":93,"Duration":454994,"SoundDuration":454994,"Delta":640766265},{"NoteNumber":53,"Velocity":57,"Duration":454994,"SoundDuration":454994,"Delta":640766265},{"NoteNumber":57,"Velocity":57,"Duration":454994,"SoundDuration":454994,"Delta":640766265},{"NoteNumber":65,"Velocity":68,"Duration":454994,"SoundDuration":454994,"Delta":640766265},{"NoteNumber":62,"Velocity":57,"Duration":454994,"SoundDuration":454994,"Delta":640766265},{"NoteNumber":73,"Velocity":80,"Duration":276497,"SoundDuration":276497,"Delta":641448756},{"NoteNumber":85,"Velocity":90,"Duration":276497,"SoundDuration":276497,"Delta":641448756},{"NoteNumber":29,"Velocity":63,"Duration":138248,"SoundDuration":138248,"Delta":641448756},{"NoteNumber":41,"Velocity":63,"Duration":138248,"SoundDuration":138248,"Delta":641587005},{"NoteNumber":82,"Velocity":89,"Duration":909987,"SoundDuration":909987,"Delta":641725254},{"NoteNumber":85,"Velocity":89,"Duration":909987,"SoundDuration":909987,"Delta":641725254},{"NoteNumber":91,"Velocity":89,"Duration":909987,"SoundDuration":909987,"Delta":641725254},{"NoteNumber":94,"Velocity":105,"Duration":909987,"SoundDuration":909987,"Delta":641725254},{"NoteNumber":53,"Velocity":53,"Duration":909987,"SoundDuration":909987,"Delta":641725254},{"NoteNumber":58,"Velocity":53,"Duration":909987,"SoundDuration":909987,"Delta":641725254},{"NoteNumber":64,"Velocity":63,"Duration":909987,"SoundDuration":909987,"Delta":641725254},{"NoteNumber":61,"Velocity":68,"Duration":909987,"SoundDuration":909987,"Delta":641730941},{"NoteNumber":81,"Velocity":79,"Duration":454994,"SoundDuration":454994,"Delta":642635242},{"NoteNumber":86,"Velocity":79,"Duration":454994,"SoundDuration":454994,"Delta":642635242},{"NoteNumber":89,"Velocity":79,"Duration":454994,"SoundDuration":454994,"Delta":642635242},{"NoteNumber":93,"Velocity":93,"Duration":454994,"SoundDuration":454994,"Delta":642635242},{"NoteNumber":53,"Velocity":57,"Duration":454994,"SoundDuration":454994,"Delta":642635242},{"NoteNumber":57,"Velocity":57,"Duration":454994,"SoundDuration":454994,"Delta":642635242},{"NoteNumber":65,"Velocity":68,"Duration":454994,"SoundDuration":454994,"Delta":642635242},{"NoteNumber":62,"Velocity":57,"Duration":454994,"SoundDuration":454994,"Delta":642635242},{"NoteNumber":74,"Velocity":80,"Duration":276497,"SoundDuration":276497,"Delta":643317733},{"NoteNumber":86,"Velocity":90,"Duration":276497,"SoundDuration":276497,"Delta":643317733},{"NoteNumber":29,"Velocity":63,"Duration":138248,"SoundDuration":138248,"Delta":643317733},{"NoteNumber":41,"Velocity":63,"Duration":138248,"SoundDuration":138248,"Delta":643455981},{"NoteNumber":83,"Velocity":89,"Duration":909987,"SoundDuration":909987,"Delta":643594230},{"NoteNumber":86,"Velocity":89,"Duration":909987,"SoundDuration":909987,"Delta":643594230},{"NoteNumber":92,"Velocity":89,"Duration":909987,"SoundDuration":909987,"Delta":643594230},{"NoteNumber":95,"Velocity":105,"Duration":909987,"SoundDuration":909987,"Delta":643594230},{"NoteNumber":28,"Velocity":66,"Duration":909987,"SoundDuration":909987,"Delta":643594230},{"NoteNumber":40,"Velocity":78,"Duration":909987,"SoundDuration":909987,"Delta":643594230},{"NoteNumber":85,"Velocity":89,"Duration":909987,"SoundDuration":909987,"Delta":644504218},{"NoteNumber":88,"Velocity":89,"Duration":909987,"SoundDuration":909987,"Delta":644504218},{"NoteNumber":93,"Velocity":89,"Duration":909987,"SoundDuration":909987,"Delta":644504218},{"NoteNumber":97,"Velocity":105,"Duration":909987,"SoundDuration":909987,"Delta":644504218},{"NoteNumber":33,"Velocity":66,"Duration":909987,"SoundDuration":909987,"Delta":644504218},{"NoteNumber":40,"Velocity":66,"Duration":909987,"SoundDuration":909987,"Delta":644504218},{"NoteNumber":45,"Velocity":78,"Duration":909987,"SoundDuration":909987,"Delta":644504218},{"NoteNumber":86,"Velocity":89,"Duration":889745,"SoundDuration":889745,"Delta":645414206},{"NoteNumber":93,"Velocity":89,"Duration":889745,"SoundDuration":889745,"Delta":645414206},{"NoteNumber":98,"Velocity":105,"Duration":889745,"SoundDuration":889745,"Delta":645414206},{"NoteNumber":29,"Velocity":66,"Duration":889745,"SoundDuration":889745,"Delta":645414206},{"NoteNumber":38,"Velocity":66,"Duration":889745,"SoundDuration":889745,"Delta":645414206},{"NoteNumber":41,"Velocity":78,"Duration":889745,"SoundDuration":889745,"Delta":645414206},{"NoteNumber":89,"Velocity":89,"Duration":906550,"SoundDuration":906550,"Delta":646303952},{"NoteNumber":93,"Velocity":89,"Duration":906550,"SoundDuration":906550,"Delta":646303952},{"NoteNumber":101,"Velocity":105,"Duration":906550,"SoundDuration":906550,"Delta":646303952},{"NoteNumber":26,"Velocity":66,"Duration":906550,"SoundDuration":906550,"Delta":646303952},{"NoteNumber":33,"Velocity":66,"Duration":906550,"SoundDuration":906550,"Delta":646303952},{"NoteNumber":38,"Velocity":78,"Duration":906550,"SoundDuration":906550,"Delta":646303952},{"NoteNumber":84,"Velocity":83,"Duration":672293,"SoundDuration":672293,"Delta":647210502},{"NoteNumber":88,"Velocity":83,"Duration":672293,"SoundDuration":672293,"Delta":647210502},{"NoteNumber":91,"Velocity":83,"Duration":672293,"SoundDuration":672293,"Delta":647210502},{"NoteNumber":96,"Velocity":100,"Duration":672293,"SoundDuration":672293,"Delta":647210502},{"NoteNumber":31,"Velocity":66,"Duration":886334,"SoundDuration":886334,"Delta":647210502},{"NoteNumber":43,"Velocity":78,"Duration":886334,"SoundDuration":886334,"Delta":647210502},{"NoteNumber":88,"Velocity":87,"Duration":192636,"SoundDuration":192636,"Delta":647882796},{"NoteNumber":84,"Velocity":73,"Duration":192636,"SoundDuration":192636,"Delta":647882796},{"NoteNumber":76,"Velocity":73,"Duration":192636,"SoundDuration":192636,"Delta":647882796},{"NoteNumber":88,"Velocity":92,"Duration":467399,"SoundDuration":467399,"Delta":648096837},{"NoteNumber":76,"Velocity":77,"Duration":467399,"SoundDuration":467399,"Delta":648096837},{"NoteNumber":84,"Velocity":77,"Duration":467399,"SoundDuration":467399,"Delta":648096837},{"NoteNumber":43,"Velocity":66,"Duration":805619,"SoundDuration":805619,"Delta":648096837},{"NoteNumber":52,"Velocity":66,"Duration":805619,"SoundDuration":805619,"Delta":648096837},{"NoteNumber":60,"Velocity":78,"Duration":805619,"SoundDuration":805619,"Delta":648096837},{"NoteNumber":86,"Velocity":75,"Duration":109994,"SoundDuration":109994,"Delta":648564236},{"NoteNumber":77,"Velocity":75,"Duration":109994,"SoundDuration":109994,"Delta":648564236},{"NoteNumber":89,"Velocity":88,"Duration":109994,"SoundDuration":109994,"Delta":648564236},{"NoteNumber":79,"Velocity":78,"Duration":118231,"SoundDuration":118231,"Delta":648784226},{"NoteNumber":88,"Velocity":78,"Duration":118231,"SoundDuration":118231,"Delta":648784226},{"NoteNumber":91,"Velocity":93,"Duration":118231,"SoundDuration":118231,"Delta":648784226},{"NoteNumber":43,"Velocity":60,"Duration":905514,"SoundDuration":905514,"Delta":648902457},{"NoteNumber":50,"Velocity":60,"Duration":846398,"SoundDuration":846398,"Delta":648961572},{"NoteNumber":81,"Velocity":82,"Duration":427382,"SoundDuration":427382,"Delta":649020688},{"NoteNumber":89,"Velocity":82,"Duration":427382,"SoundDuration":427382,"Delta":649020688},{"NoteNumber":93,"Velocity":97,"Duration":427382,"SoundDuration":427382,"Delta":649020688},{"NoteNumber":59,"Velocity":82,"Duration":449876,"SoundDuration":449876,"Delta":649020688},{"NoteNumber":81,"Velocity":77,"Duration":449876,"SoundDuration":449876,"Delta":649470564},{"NoteNumber":93,"Velocity":92,"Duration":449876,"SoundDuration":449876,"Delta":649470564},{"NoteNumber":89,"Velocity":77,"Duration":449876,"SoundDuration":449876,"Delta":649470564},{"NoteNumber":60,"Velocity":77,"Duration":112469,"SoundDuration":112469,"Delta":649470564},{"NoteNumber":62,"Velocity":81,"Duration":112469,"SoundDuration":112469,"Delta":649695502},{"NoteNumber":43,"Velocity":60,"Duration":924473,"SoundDuration":924473,"Delta":649807971},{"NoteNumber":52,"Velocity":60,"Duration":868238,"SoundDuration":868238,"Delta":649864206},{"NoteNumber":91,"Velocity":92,"Duration":467399,"SoundDuration":467399,"Delta":649920440},{"NoteNumber":79,"Velocity":77,"Duration":467399,"SoundDuration":467399,"Delta":649920440},{"NoteNumber":88,"Velocity":77,"Duration":467399,"SoundDuration":467399,"Delta":649920440},{"NoteNumber":64,"Velocity":82,"Duration":467399,"SoundDuration":467399,"Delta":649920440},{"NoteNumber":88,"Velocity":75,"Duration":109994,"SoundDuration":109994,"Delta":650387839},{"NoteNumber":84,"Velocity":75,"Duration":109994,"SoundDuration":109994,"Delta":650387839},{"NoteNumber":96,"Velocity":88,"Duration":109994,"SoundDuration":109994,"Delta":650387839},{"NoteNumber":60,"Velocity":77,"Duration":109994,"SoundDuration":109994,"Delta":650387839},{"NoteNumber":86,"Velocity":78,"Duration":124615,"SoundDuration":124615,"Delta":650607829},{"NoteNumber":91,"Velocity":78,"Duration":124615,"SoundDuration":124615,"Delta":650607829},{"NoteNumber":98,"Velocity":93,"Duration":124615,"SoundDuration":124615,"Delta":650607829},{"NoteNumber":59,"Velocity":81,"Duration":124615,"SoundDuration":124615,"Delta":650607829},{"NoteNumber":43,"Velocity":60,"Duration":911898,"SoundDuration":911898,"Delta":650732444},{"NoteNumber":49,"Velocity":60,"Duration":849590,"SoundDuration":849590,"Delta":650794752},{"NoteNumber":88,"Velocity":82,"Duration":435817,"SoundDuration":435817,"Delta":650857060},{"NoteNumber":97,"Velocity":82,"Duration":435817,"SoundDuration":435817,"Delta":650857060},{"NoteNumber":100,"Velocity":97,"Duration":435817,"SoundDuration":435817,"Delta":650857060},{"NoteNumber":57,"Velocity":82,"Duration":449876,"SoundDuration":449876,"Delta":650857060},{"NoteNumber":88,"Velocity":77,"Duration":449876,"SoundDuration":449876,"Delta":651306936},{"NoteNumber":100,"Velocity":92,"Duration":449876,"SoundDuration":449876,"Delta":651306936},{"NoteNumber":97,"Velocity":77,"Duration":449876,"SoundDuration":449876,"Delta":651306936},{"NoteNumber":61,"Velocity":77,"Duration":112469,"SoundDuration":112469,"Delta":651306936},{"NoteNumber":64,"Velocity":81,"Duration":112469,"SoundDuration":112469,"Delta":651531874},{"NoteNumber":43,"Velocity":60,"Duration":923957,"SoundDuration":923957,"Delta":651644343},{"NoteNumber":50,"Velocity":60,"Duration":867723,"SoundDuration":867723,"Delta":651700578},{"NoteNumber":93,"Velocity":92,"Duration":467399,"SoundDuration":467399,"Delta":651756812},{"NoteNumber":81,"Velocity":77,"Duration":467399,"SoundDuration":467399,"Delta":651756812},{"NoteNumber":89,"Velocity":77,"Duration":467399,"SoundDuration":467399,"Delta":651756812},{"NoteNumber":65,"Velocity":82,"Duration":467399,"SoundDuration":467399,"Delta":651756812},{"NoteNumber":95,"Velocity":75,"Duration":109994,"SoundDuration":109994,"Delta":652224211},{"NoteNumber":86,"Velocity":75,"Duration":109994,"SoundDuration":109994,"Delta":652224211},{"NoteNumber":98,"Velocity":88,"Duration":109994,"SoundDuration":109994,"Delta":652224211},{"NoteNumber":62,"Velocity":77,"Duration":109994,"SoundDuration":109994,"Delta":652224211},{"NoteNumber":88,"Velocity":78,"Duration":124100,"SoundDuration":124100,"Delta":652444201},{"NoteNumber":96,"Velocity":78,"Duration":124100,"SoundDuration":124100,"Delta":652444201},{"NoteNumber":100,"Velocity":93,"Duration":124100,"SoundDuration":124100,"Delta":652444201},{"NoteNumber":60,"Velocity":81,"Duration":124100,"SoundDuration":124100,"Delta":652444201},{"NoteNumber":43,"Velocity":60,"Duration":917959,"SoundDuration":917959,"Delta":652568301},{"NoteNumber":50,"Velocity":60,"Duration":855909,"SoundDuration":855909,"Delta":652630351},{"NoteNumber":89,"Velocity":82,"Duration":447401,"SoundDuration":447401,"Delta":652692401},{"NoteNumber":98,"Velocity":82,"Duration":447401,"SoundDuration":447401,"Delta":652692401},{"NoteNumber":101,"Velocity":97,"Duration":447401,"SoundDuration":447401,"Delta":652692401},{"NoteNumber":59,"Velocity":82,"Duration":447401,"SoundDuration":447401,"Delta":652692401},{"NoteNumber":86,"Velocity":75,"Duration":109994,"SoundDuration":109994,"Delta":653139803},{"NoteNumber":95,"Velocity":75,"Duration":109994,"SoundDuration":109994,"Delta":653139803},{"NoteNumber":98,"Velocity":88,"Duration":109994,"SoundDuration":109994,"Delta":653139803},{"NoteNumber":62,"Velocity":77,"Duration":109994,"SoundDuration":109994,"Delta":653139803},{"NoteNumber":84,"Velocity":78,"Duration":118231,"SoundDuration":118231,"Delta":653368029},{"NoteNumber":93,"Velocity":78,"Duration":118231,"SoundDuration":118231,"Delta":653368029},{"NoteNumber":96,"Velocity":93,"Duration":118231,"SoundDuration":118231,"Delta":653368029},{"NoteNumber":63,"Velocity":81,"Duration":118231,"SoundDuration":118231,"Delta":653368029},{"NoteNumber":43,"Velocity":60,"Duration":923851,"SoundDuration":923851,"Delta":653486260},{"NoteNumber":52,"Velocity":60,"Duration":864735,"SoundDuration":864735,"Delta":653545376},{"NoteNumber":95,"Velocity":92,"Duration":467399,"SoundDuration":467399,"Delta":653604491},{"NoteNumber":83,"Velocity":77,"Duration":467399,"SoundDuration":467399,"Delta":653604491},{"NoteNumber":91,"Velocity":77,"Duration":467399,"SoundDuration":467399,"Delta":653604491},{"NoteNumber":64,"Velocity":82,"Duration":467399,"SoundDuration":467399,"Delta":653604491},{"NoteNumber":93,"Velocity":75,"Duration":109994,"SoundDuration":109994,"Delta":654071890},{"NoteNumber":84,"Velocity":75,"Duration":109994,"SoundDuration":109994,"Delta":654071890},{"NoteNumber":96,"Velocity":88,"Duration":109994,"SoundDuration":109994,"Delta":654071890},{"NoteNumber":60,"Velocity":77,"Duration":109994,"SoundDuration":109994,"Delta":654071890},{"NoteNumber":86,"Velocity":78,"Duration":118231,"SoundDuration":118231,"Delta":654291880},{"NoteNumber":95,"Velocity":78,"Duration":118231,"SoundDuration":118231,"Delta":654291880},{"NoteNumber":98,"Velocity":93,"Duration":118231,"SoundDuration":118231,"Delta":654291880},{"NoteNumber":59,"Velocity":81,"Duration":118231,"SoundDuration":118231,"Delta":654291880},{"NoteNumber":43,"Velocity":60,"Duration":912090,"SoundDuration":912090,"Delta":654410111},{"NoteNumber":48,"Velocity":60,"Duration":852974,"SoundDuration":852974,"Delta":654469227},{"NoteNumber":88,"Velocity":82,"Duration":447401,"SoundDuration":447401,"Delta":654528342},{"NoteNumber":96,"Velocity":82,"Duration":447401,"SoundDuration":447401,"Delta":654528342},{"NoteNumber":100,"Velocity":97,"Duration":447401,"SoundDuration":447401,"Delta":654528342},{"NoteNumber":57,"Velocity":82,"Duration":447401,"SoundDuration":447401,"Delta":654528342},{"NoteNumber":84,"Velocity":75,"Duration":109994,"SoundDuration":109994,"Delta":654975744},{"NoteNumber":93,"Velocity":75,"Duration":109994,"SoundDuration":109994,"Delta":654975744},{"NoteNumber":96,"Velocity":88,"Duration":109994,"SoundDuration":109994,"Delta":654975744},{"NoteNumber":60,"Velocity":77,"Duration":109994,"SoundDuration":109994,"Delta":654975744},{"NoteNumber":83,"Velocity":78,"Duration":118231,"SoundDuration":118231,"Delta":655203970},{"NoteNumber":91,"Velocity":78,"Duration":118231,"SoundDuration":118231,"Delta":655203970},{"NoteNumber":95,"Velocity":93,"Duration":118231,"SoundDuration":118231,"Delta":655203970},{"NoteNumber":61,"Velocity":81,"Duration":118231,"SoundDuration":118231,"Delta":655203970},{"NoteNumber":43,"Velocity":60,"Duration":929208,"SoundDuration":929208,"Delta":655322201},{"NoteNumber":50,"Velocity":60,"Duration":870093,"SoundDuration":870093,"Delta":655381317},{"NoteNumber":93,"Velocity":92,"Duration":467399,"SoundDuration":467399,"Delta":655440433},{"NoteNumber":81,"Velocity":77,"Duration":467399,"SoundDuration":467399,"Delta":655440433},{"NoteNumber":89,"Velocity":77,"Duration":467399,"SoundDuration":467399,"Delta":655440433},{"NoteNumber":62,"Velocity":82,"Duration":467399,"SoundDuration":467399,"Delta":655440433},{"NoteNumber":91,"Velocity":75,"Duration":109994,"SoundDuration":109994,"Delta":655907832},{"NoteNumber":83,"Velocity":75,"Duration":109994,"SoundDuration":109994,"Delta":655907832},{"NoteNumber":95,"Velocity":88,"Duration":109994,"SoundDuration":109994,"Delta":655907832},{"NoteNumber":59,"Velocity":77,"Duration":109994,"SoundDuration":109994,"Delta":655907832},{"NoteNumber":84,"Velocity":78,"Duration":123589,"SoundDuration":123589,"Delta":656127821},{"NoteNumber":93,"Velocity":78,"Duration":123589,"SoundDuration":123589,"Delta":656127821},{"NoteNumber":96,"Velocity":93,"Duration":123589,"SoundDuration":123589,"Delta":656127821},{"NoteNumber":57,"Velocity":81,"Duration":123589,"SoundDuration":123589,"Delta":656127821},{"NoteNumber":86,"Velocity":82,"Duration":447401,"SoundDuration":447401,"Delta":656374999},{"NoteNumber":95,"Velocity":82,"Duration":447401,"SoundDuration":447401,"Delta":656374999},{"NoteNumber":98,"Velocity":97,"Duration":447401,"SoundDuration":447401,"Delta":656374999},{"NoteNumber":43,"Velocity":60,"Duration":793858,"SoundDuration":793858,"Delta":656374999},{"NoteNumber":47,"Velocity":60,"Duration":793858,"SoundDuration":793858,"Delta":656374999},{"NoteNumber":55,"Velocity":82,"Duration":447401,"SoundDuration":447401,"Delta":656374999},{"NoteNumber":83,"Velocity":75,"Duration":109994,"SoundDuration":109994,"Delta":656822401},{"NoteNumber":91,"Velocity":75,"Duration":109994,"SoundDuration":109994,"Delta":656822401},{"NoteNumber":95,"Velocity":88,"Duration":109994,"SoundDuration":109994,"Delta":656822401},{"NoteNumber":57,"Velocity":77,"Duration":109994,"SoundDuration":109994,"Delta":656822401},{"NoteNumber":81,"Velocity":78,"Duration":118231,"SoundDuration":118231,"Delta":657050627},{"NoteNumber":89,"Velocity":78,"Duration":118231,"SoundDuration":118231,"Delta":657050627},{"NoteNumber":93,"Velocity":93,"Duration":118231,"SoundDuration":118231,"Delta":657050627},{"NoteNumber":59,"Velocity":81,"Duration":118231,"SoundDuration":118231,"Delta":657050627},{"NoteNumber":43,"Velocity":60,"Duration":917448,"SoundDuration":917448,"Delta":657168858},{"NoteNumber":48,"Velocity":60,"Duration":858332,"SoundDuration":858332,"Delta":657227974},{"NoteNumber":79,"Velocity":82,"Duration":447401,"SoundDuration":447401,"Delta":657287089},{"NoteNumber":88,"Velocity":82,"Duration":447401,"SoundDuration":447401,"Delta":657287089},{"NoteNumber":91,"Velocity":97,"Duration":447401,"SoundDuration":447401,"Delta":657287089},{"NoteNumber":60,"Velocity":82,"Duration":447401,"SoundDuration":447401,"Delta":657287089},{"NoteNumber":77,"Velocity":75,"Duration":109994,"SoundDuration":109994,"Delta":657734491},{"NoteNumber":86,"Velocity":75,"Duration":109994,"SoundDuration":109994,"Delta":657734491},{"NoteNumber":89,"Velocity":88,"Duration":109994,"SoundDuration":109994,"Delta":657734491},{"NoteNumber":62,"Velocity":77,"Duration":109994,"SoundDuration":109994,"Delta":657734491},{"NoteNumber":76,"Velocity":78,"Duration":123589,"SoundDuration":123589,"Delta":657962717},{"NoteNumber":84,"Velocity":78,"Duration":123589,"SoundDuration":123589,"Delta":657962717},{"NoteNumber":88,"Velocity":93,"Duration":123589,"SoundDuration":123589,"Delta":657962717},{"NoteNumber":64,"Velocity":81,"Duration":123589,"SoundDuration":123589,"Delta":657962717},{"NoteNumber":43,"Velocity":52,"Duration":478463,"SoundDuration":478463,"Delta":658117203},{"NoteNumber":48,"Velocity":52,"Duration":447566,"SoundDuration":447566,"Delta":658148101},{"NoteNumber":54,"Velocity":52,"Duration":386994,"SoundDuration":386994,"Delta":658178998},{"NoteNumber":75,"Velocity":73,"Duration":385771,"SoundDuration":385771,"Delta":658209895},{"NoteNumber":78,"Velocity":73,"Duration":385771,"SoundDuration":385771,"Delta":658209895},{"NoteNumber":81,"Velocity":73,"Duration":385771,"SoundDuration":385771,"Delta":658209895},{"NoteNumber":84,"Velocity":73,"Duration":385771,"SoundDuration":385771,"Delta":658209895},{"NoteNumber":87,"Velocity":87,"Duration":385771,"SoundDuration":385771,"Delta":658209895},{"NoteNumber":66,"Velocity":62,"Duration":385771,"SoundDuration":385771,"Delta":658209895},{"NoteNumber":43,"Velocity":51,"Duration":949592,"SoundDuration":949592,"Delta":658595667},{"NoteNumber":48,"Velocity":50,"Duration":919917,"SoundDuration":919917,"Delta":658625342},{"NoteNumber":54,"Velocity":50,"Duration":890242,"SoundDuration":890242,"Delta":658655016},{"NoteNumber":72,"Velocity":71,"Duration":860567,"SoundDuration":860567,"Delta":658684691},{"NoteNumber":75,"Velocity":71,"Duration":860567,"SoundDuration":860567,"Delta":658684691},{"NoteNumber":78,"Velocity":71,"Duration":860567,"SoundDuration":860567,"Delta":658684691},{"NoteNumber":81,"Velocity":71,"Duration":860567,"SoundDuration":860567,"Delta":658684691},{"NoteNumber":84,"Velocity":84,"Duration":860567,"SoundDuration":860567,"Delta":658684691},{"NoteNumber":63,"Velocity":60,"Duration":860567,"SoundDuration":860567,"Delta":658684691},{"NoteNumber":43,"Velocity":47,"Duration":474795,"SoundDuration":474795,"Delta":659545259},{"NoteNumber":48,"Velocity":47,"Duration":445121,"SoundDuration":445121,"Delta":659574934},{"NoteNumber":54,"Velocity":46,"Duration":415446,"SoundDuration":415446,"Delta":659604608},{"NoteNumber":69,"Velocity":66,"Duration":385771,"SoundDuration":385771,"Delta":659634283},{"NoteNumber":72,"Velocity":66,"Duration":385771,"SoundDuration":385771,"Delta":659634283},{"NoteNumber":75,"Velocity":66,"Duration":385771,"SoundDuration":385771,"Delta":659634283},{"NoteNumber":78,"Velocity":66,"Duration":385771,"SoundDuration":385771,"Delta":659634283},{"NoteNumber":81,"Velocity":78,"Duration":385771,"SoundDuration":385771,"Delta":659634283},{"NoteNumber":60,"Velocity":55,"Duration":385771,"SoundDuration":385771,"Delta":659634283},{"NoteNumber":43,"Velocity":45,"Duration":558251,"SoundDuration":558251,"Delta":660020055},{"NoteNumber":50,"Velocity":45,"Duration":528576,"SoundDuration":528576,"Delta":660049730},{"NoteNumber":55,"Velocity":45,"Duration":469575,"SoundDuration":469575,"Delta":660079404},{"NoteNumber":67,"Velocity":63,"Duration":469227,"SoundDuration":469227,"Delta":660109079},{"NoteNumber":71,"Velocity":63,"Duration":469227,"SoundDuration":469227,"Delta":660109079},{"NoteNumber":74,"Velocity":63,"Duration":469227,"SoundDuration":469227,"Delta":660109079},{"NoteNumber":77,"Velocity":63,"Duration":469227,"SoundDuration":469227,"Delta":660109079},{"NoteNumber":79,"Velocity":75,"Duration":469227,"SoundDuration":469227,"Delta":660109079},{"NoteNumber":59,"Velocity":53,"Duration":469227,"SoundDuration":469227,"Delta":660109079},{"NoteNumber":67,"Velocity":63,"Duration":149253,"SoundDuration":149253,"Delta":660578306},{"NoteNumber":43,"Velocity":61,"Duration":223880,"SoundDuration":223880,"Delta":660578306},{"NoteNumber":47,"Velocity":61,"Duration":223880,"SoundDuration":223880,"Delta":660578306},{"NoteNumber":79,"Velocity":55,"Duration":149253,"SoundDuration":149253,"Delta":660727560},{"NoteNumber":77,"Velocity":55,"Duration":149253,"SoundDuration":149253,"Delta":660876813},{"NoteNumber":47,"Velocity":55,"Duration":111940,"SoundDuration":111940,"Delta":660914127},{"NoteNumber":79,"Velocity":63,"Duration":147058,"SoundDuration":147058,"Delta":661026067},{"NoteNumber":82,"Velocity":63,"Duration":147058,"SoundDuration":147058,"Delta":661026067},{"NoteNumber":43,"Velocity":61,"Duration":1131375,"SoundDuration":1131375,"Delta":661026067},{"NoteNumber":49,"Velocity":61,"Duration":441176,"SoundDuration":441176,"Delta":661026067},{"NoteNumber":89,"Velocity":57,"Duration":147058,"SoundDuration":147058,"Delta":661173126},{"NoteNumber":88,"Velocity":57,"Duration":147058,"SoundDuration":147058,"Delta":661320184},{"NoteNumber":67,"Velocity":63,"Duration":147058,"SoundDuration":147058,"Delta":661467243},{"NoteNumber":70,"Velocity":63,"Duration":147058,"SoundDuration":147058,"Delta":661467243},{"NoteNumber":61,"Velocity":63,"Duration":460964,"SoundDuration":460964,"Delta":661467243},{"NoteNumber":77,"Velocity":56,"Duration":147058,"SoundDuration":147058,"Delta":661614302},{"NoteNumber":76,"Velocity":56,"Duration":166847,"SoundDuration":166847,"Delta":661761360},{"NoteNumber":65,"Velocity":63,"Duration":152823,"SoundDuration":152823,"Delta":661928208},{"NoteNumber":69,"Velocity":63,"Duration":152823,"SoundDuration":152823,"Delta":661928208},{"NoteNumber":62,"Velocity":62,"Duration":229235,"SoundDuration":229235,"Delta":661928208},{"NoteNumber":76,"Velocity":57,"Duration":152823,"SoundDuration":152823,"Delta":662081031},{"NoteNumber":74,"Velocity":57,"Duration":160810,"SoundDuration":160810,"Delta":662233854},{"NoteNumber":77,"Velocity":63,"Duration":151515,"SoundDuration":151515,"Delta":662394665},{"NoteNumber":81,"Velocity":63,"Duration":151515,"SoundDuration":151515,"Delta":662394665},{"NoteNumber":43,"Velocity":61,"Duration":227272,"SoundDuration":227272,"Delta":662394665},{"NoteNumber":50,"Velocity":61,"Duration":227272,"SoundDuration":227272,"Delta":662399400},{"NoteNumber":88,"Velocity":55,"Duration":151515,"SoundDuration":151515,"Delta":662546180},{"NoteNumber":86,"Velocity":56,"Duration":151515,"SoundDuration":151515,"Delta":662697695},{"NoteNumber":50,"Velocity":56,"Duration":113636,"SoundDuration":113636,"Delta":662735574},{"NoteNumber":81,"Velocity":64,"Duration":148147,"SoundDuration":148147,"Delta":662849210},{"NoteNumber":84,"Velocity":64,"Duration":148147,"SoundDuration":148147,"Delta":662849210},{"NoteNumber":43,"Velocity":62,"Duration":1129491,"SoundDuration":1129491,"Delta":662849210},{"NoteNumber":51,"Velocity":62,"Duration":444443,"SoundDuration":444443,"Delta":662849210},{"NoteNumber":91,"Velocity":58,"Duration":148147,"SoundDuration":148147,"Delta":662997358},{"NoteNumber":90,"Velocity":58,"Duration":148147,"SoundDuration":148147,"Delta":663145506},{"NoteNumber":69,"Velocity":64,"Duration":148147,"SoundDuration":148147,"Delta":663293654},{"NoteNumber":72,"Velocity":64,"Duration":148147,"SoundDuration":148147,"Delta":663293654},{"NoteNumber":63,"Velocity":64,"Duration":458410,"SoundDuration":458410,"Delta":663293654},{"NoteNumber":79,"Velocity":58,"Duration":148148,"SoundDuration":148148,"Delta":663441802},{"NoteNumber":78,"Velocity":58,"Duration":162113,"SoundDuration":162113,"Delta":663589950},{"NoteNumber":67,"Velocity":66,"Duration":151091,"SoundDuration":151091,"Delta":663752064},{"NoteNumber":72,"Velocity":66,"Duration":151091,"SoundDuration":151091,"Delta":663752064},{"NoteNumber":64,"Velocity":65,"Duration":226637,"SoundDuration":226637,"Delta":663752064},{"NoteNumber":81,"Velocity":59,"Duration":151091,"SoundDuration":151091,"Delta":663903155},{"NoteNumber":79,"Velocity":59,"Duration":151091,"SoundDuration":151091,"Delta":664054247},{"NoteNumber":79,"Velocity":66,"Duration":149253,"SoundDuration":149253,"Delta":664205339},{"NoteNumber":84,"Velocity":66,"Duration":149253,"SoundDuration":149253,"Delta":664205339},{"NoteNumber":52,"Velocity":64,"Duration":223880,"SoundDuration":223880,"Delta":664205339},{"NoteNumber":43,"Velocity":64,"Duration":223880,"SoundDuration":223880,"Delta":664205339},{"NoteNumber":93,"Velocity":58,"Duration":149253,"SoundDuration":149253,"Delta":664354592},{"NoteNumber":91,"Velocity":58,"Duration":149253,"SoundDuration":149253,"Delta":664503846},{"NoteNumber":52,"Velocity":58,"Duration":111940,"SoundDuration":111940,"Delta":664541160},{"NoteNumber":84,"Velocity":67,"Duration":146520,"SoundDuration":146520,"Delta":664653100},{"NoteNumber":86,"Velocity":67,"Duration":146520,"SoundDuration":146520,"Delta":664653100},{"NoteNumber":43,"Velocity":65,"Duration":894714,"SoundDuration":894714,"Delta":664653100},{"NoteNumber":53,"Velocity":65,"Duration":439560,"SoundDuration":439560,"Delta":664653100},{"NoteNumber":95,"Velocity":60,"Duration":146520,"SoundDuration":146520,"Delta":664799620},{"NoteNumber":93,"Velocity":61,"Duration":146520,"SoundDuration":146520,"Delta":664946140},{"NoteNumber":72,"Velocity":68,"Duration":146520,"SoundDuration":146520,"Delta":665092660},{"NoteNumber":74,"Velocity":68,"Duration":146520,"SoundDuration":146520,"Delta":665092660},{"NoteNumber":65,"Velocity":68,"Duration":219780,"SoundDuration":219780,"Delta":665092660},{"NoteNumber":83,"Velocity":61,"Duration":146520,"SoundDuration":146520,"Delta":665239180},{"NoteNumber":81,"Velocity":61,"Duration":162113,"SoundDuration":162113,"Delta":665385700},{"NoteNumber":53,"Velocity":59,"Duration":121585,"SoundDuration":121585,"Delta":665426228},{"NoteNumber":72,"Velocity":69,"Duration":148842,"SoundDuration":148842,"Delta":665547814},{"NoteNumber":74,"Velocity":69,"Duration":148842,"SoundDuration":148842,"Delta":665547814},{"NoteNumber":43,"Velocity":67,"Duration":908861,"SoundDuration":908861,"Delta":665547814},{"NoteNumber":54,"Velocity":68,"Duration":223263,"SoundDuration":223263,"Delta":665547814},{"NoteNumber":83,"Velocity":62,"Duration":148842,"SoundDuration":148842,"Delta":665696656},{"NoteNumber":81,"Velocity":62,"Duration":148842,"SoundDuration":148842,"Delta":665845499},{"NoteNumber":84,"Velocity":69,"Duration":147743,"SoundDuration":147743,"Delta":665994342},{"NoteNumber":86,"Velocity":69,"Duration":147743,"SoundDuration":147743,"Delta":665994342},{"NoteNumber":66,"Velocity":69,"Duration":221615,"SoundDuration":221615,"Delta":665994342},{"NoteNumber":95,"Velocity":62,"Duration":147743,"SoundDuration":147743,"Delta":666142085},{"NoteNumber":93,"Velocity":62,"Duration":166847,"SoundDuration":166847,"Delta":666289828},{"NoteNumber":54,"Velocity":51,"Duration":62567,"SoundDuration":62567,"Delta":666331540},{"NoteNumber":43,"Velocity":59,"Duration":513695,"SoundDuration":513695,"Delta":666394108},{"NoteNumber":50,"Velocity":59,"Duration":492839,"SoundDuration":492839,"Delta":666414964},{"NoteNumber":53,"Velocity":59,"Duration":471983,"SoundDuration":471983,"Delta":666435820},{"NoteNumber":89,"Velocity":70,"Duration":150376,"SoundDuration":150376,"Delta":666456676},{"NoteNumber":95,"Velocity":70,"Duration":150376,"SoundDuration":150376,"Delta":666456676},{"NoteNumber":55,"Velocity":70,"Duration":451128,"SoundDuration":451128,"Delta":666456676},{"NoteNumber":100,"Velocity":62,"Duration":150375,"SoundDuration":150375,"Delta":666607052},{"NoteNumber":98,"Velocity":63,"Duration":150376,"SoundDuration":150376,"Delta":666757428},{"NoteNumber":77,"Velocity":71,"Duration":150375,"SoundDuration":150375,"Delta":666907804},{"NoteNumber":83,"Velocity":71,"Duration":150375,"SoundDuration":150375,"Delta":666907804},{"NoteNumber":65,"Velocity":59,"Duration":464861,"SoundDuration":464861,"Delta":666907804},{"NoteNumber":67,"Velocity":71,"Duration":464861,"SoundDuration":464861,"Delta":666907804},{"NoteNumber":62,"Velocity":59,"Duration":464861,"SoundDuration":464861,"Delta":666907804},{"NoteNumber":55,"Velocity":59,"Duration":464861,"SoundDuration":464861,"Delta":666907804},{"NoteNumber":88,"Velocity":63,"Duration":150376,"SoundDuration":150376,"Delta":667058180},{"NoteNumber":86,"Velocity":63,"Duration":164109,"SoundDuration":164109,"Delta":667208556},{"NoteNumber":72,"Velocity":69,"Duration":442335,"SoundDuration":442335,"Delta":667372665},{"NoteNumber":76,"Velocity":69,"Duration":442335,"SoundDuration":442335,"Delta":667372665},{"NoteNumber":84,"Velocity":83,"Duration":442335,"SoundDuration":442335,"Delta":667372665},{"NoteNumber":31,"Velocity":71,"Duration":152823,"SoundDuration":152823,"Delta":667372665},{"NoteNumber":43,"Velocity":63,"Duration":133720,"SoundDuration":133720,"Delta":667525488},{"NoteNumber":43,"Velocity":63,"Duration":160810,"SoundDuration":160810,"Delta":667678312},{"NoteNumber":60,"Velocity":63,"Duration":227272,"SoundDuration":227272,"Delta":667839122},{"NoteNumber":72,"Velocity":74,"Duration":227272,"SoundDuration":227272,"Delta":667839122},{"NoteNumber":64,"Velocity":63,"Duration":227272,"SoundDuration":227272,"Delta":667839122},{"NoteNumber":55,"Velocity":71,"Duration":151515,"SoundDuration":151515,"Delta":667839122},{"NoteNumber":54,"Velocity":63,"Duration":151515,"SoundDuration":151515,"Delta":667990637},{"NoteNumber":57,"Velocity":63,"Duration":151515,"SoundDuration":151515,"Delta":668142152},{"NoteNumber":60,"Velocity":56,"Duration":102272,"SoundDuration":102272,"Delta":668180031},{"NoteNumber":64,"Velocity":56,"Duration":102272,"SoundDuration":102272,"Delta":668180031},{"NoteNumber":72,"Velocity":66,"Duration":102272,"SoundDuration":102272,"Delta":668180031},{"NoteNumber":61,"Velocity":63,"Duration":419117,"SoundDuration":419117,"Delta":668293667},{"NoteNumber":64,"Velocity":63,"Duration":419117,"SoundDuration":419117,"Delta":668293667},{"NoteNumber":70,"Velocity":63,"Duration":419117,"SoundDuration":419117,"Delta":668293667},{"NoteNumber":73,"Velocity":74,"Duration":419117,"SoundDuration":419117,"Delta":668293667},{"NoteNumber":55,"Velocity":71,"Duration":147058,"SoundDuration":147058,"Delta":668293667},{"NoteNumber":52,"Velocity":62,"Duration":147058,"SoundDuration":147058,"Delta":668440726},{"NoteNumber":46,"Velocity":62,"Duration":147058,"SoundDuration":147058,"Delta":668587784},{"NoteNumber":73,"Velocity":65,"Duration":456231,"SoundDuration":456231,"Delta":668734843},{"NoteNumber":76,"Velocity":65,"Duration":456231,"SoundDuration":456231,"Delta":668734843},{"NoteNumber":82,"Velocity":65,"Duration":456231,"SoundDuration":456231,"Delta":668734843},{"NoteNumber":85,"Velocity":78,"Duration":456231,"SoundDuration":456231,"Delta":668734843},{"NoteNumber":43,"Velocity":71,"Duration":147058,"SoundDuration":147058,"Delta":668734843},{"NoteNumber":40,"Velocity":63,"Duration":147058,"SoundDuration":147058,"Delta":668881902},{"NoteNumber":34,"Velocity":62,"Duration":162113,"SoundDuration":162113,"Delta":669028960},{"NoteNumber":82,"Velocity":69,"Duration":466456,"SoundDuration":466456,"Delta":669191074},{"NoteNumber":74,"Velocity":69,"Duration":466456,"SoundDuration":466456,"Delta":669191074},{"NoteNumber":77,"Velocity":69,"Duration":466456,"SoundDuration":466456,"Delta":669191074},{"NoteNumber":86,"Velocity":83,"Duration":466456,"SoundDuration":466456,"Delta":669191074},{"NoteNumber":29,"Velocity":71,"Duration":152823,"SoundDuration":152823,"Delta":669191074},{"NoteNumber":41,"Velocity":63,"Duration":133720,"SoundDuration":133720,"Delta":669343898},{"NoteNumber":41,"Velocity":63,"Duration":160810,"SoundDuration":160810,"Delta":669496721},{"NoteNumber":62,"Velocity":63,"Duration":227272,"SoundDuration":227272,"Delta":669657531},{"NoteNumber":74,"Velocity":74,"Duration":227272,"SoundDuration":227272,"Delta":669657531},{"NoteNumber":70,"Velocity":63,"Duration":227272,"SoundDuration":227272,"Delta":669657531},{"NoteNumber":52,"Velocity":71,"Duration":151515,"SoundDuration":151515,"Delta":669657531},{"NoteNumber":55,"Velocity":63,"Duration":151515,"SoundDuration":151515,"Delta":669809046},{"NoteNumber":53,"Velocity":63,"Duration":151515,"SoundDuration":151515,"Delta":669960561},{"NoteNumber":62,"Velocity":56,"Duration":102272,"SoundDuration":102272,"Delta":669998440},{"NoteNumber":70,"Velocity":56,"Duration":102272,"SoundDuration":102272,"Delta":669998440},{"NoteNumber":74,"Velocity":66,"Duration":102272,"SoundDuration":102272,"Delta":669998440},{"NoteNumber":64,"Velocity":63,"Duration":420663,"SoundDuration":420663,"Delta":670112076},{"NoteNumber":70,"Velocity":63,"Duration":420663,"SoundDuration":420663,"Delta":670112076},{"NoteNumber":73,"Velocity":63,"Duration":420663,"SoundDuration":420663,"Delta":670112076},{"NoteNumber":76,"Velocity":74,"Duration":420663,"SoundDuration":420663,"Delta":670112076},{"NoteNumber":52,"Velocity":71,"Duration":147601,"SoundDuration":147601,"Delta":670112076},{"NoteNumber":49,"Velocity":63,"Duration":147601,"SoundDuration":147601,"Delta":670259678},{"NoteNumber":46,"Velocity":63,"Duration":147601,"SoundDuration":147601,"Delta":670407279},{"NoteNumber":76,"Velocity":66,"Duration":457316,"SoundDuration":457316,"Delta":670554880},{"NoteNumber":82,"Velocity":66,"Duration":457316,"SoundDuration":457316,"Delta":670554880},{"NoteNumber":85,"Velocity":66,"Duration":457316,"SoundDuration":457316,"Delta":670554880},{"NoteNumber":88,"Velocity":80,"Duration":457316,"SoundDuration":457316,"Delta":670554880},{"NoteNumber":43,"Velocity":73,"Duration":147601,"SoundDuration":147601,"Delta":670554880},{"NoteNumber":40,"Velocity":64,"Duration":147601,"SoundDuration":147601,"Delta":670702482},{"NoteNumber":37,"Velocity":64,"Duration":162113,"SoundDuration":162113,"Delta":670850083},{"NoteNumber":86,"Velocity":71,"Duration":464993,"SoundDuration":464993,"Delta":671012197},{"NoteNumber":77,"Velocity":71,"Duration":464993,"SoundDuration":464993,"Delta":671012197},{"NoteNumber":81,"Velocity":71,"Duration":464993,"SoundDuration":464993,"Delta":671012197},{"NoteNumber":89,"Velocity":86,"Duration":464993,"SoundDuration":464993,"Delta":671012197},{"NoteNumber":26,"Velocity":73,"Duration":152091,"SoundDuration":152091,"Delta":671012197},{"NoteNumber":38,"Velocity":66,"Duration":133079,"SoundDuration":133079,"Delta":671164288},{"NoteNumber":38,"Velocity":66,"Duration":160810,"SoundDuration":160810,"Delta":671316380},{"NoteNumber":69,"Velocity":66,"Duration":228136,"SoundDuration":228136,"Delta":671477190},{"NoteNumber":65,"Velocity":66,"Duration":228136,"SoundDuration":228136,"Delta":671477190},{"NoteNumber":77,"Velocity":78,"Duration":228136,"SoundDuration":228136,"Delta":671477190},{"NoteNumber":74,"Velocity":66,"Duration":228136,"SoundDuration":228136,"Delta":671477190},{"NoteNumber":50,"Velocity":75,"Duration":152091,"SoundDuration":152091,"Delta":671477190},{"NoteNumber":49,"Velocity":66,"Duration":152091,"SoundDuration":152091,"Delta":671629281},{"NoteNumber":52,"Velocity":67,"Duration":152091,"SoundDuration":152091,"Delta":671781373},{"NoteNumber":69,"Velocity":59,"Duration":114068,"SoundDuration":114068,"Delta":671819396},{"NoteNumber":65,"Velocity":59,"Duration":114068,"SoundDuration":114068,"Delta":671819396},{"NoteNumber":74,"Velocity":59,"Duration":114068,"SoundDuration":114068,"Delta":671819396},{"NoteNumber":77,"Velocity":70,"Duration":114068,"SoundDuration":114068,"Delta":671819396},{"NoteNumber":69,"Velocity":67,"Duration":442804,"SoundDuration":442804,"Delta":671933464},{"NoteNumber":72,"Velocity":67,"Duration":442804,"SoundDuration":442804,"Delta":671933464},{"NoteNumber":77,"Velocity":67,"Duration":442804,"SoundDuration":442804,"Delta":671933464},{"NoteNumber":81,"Velocity":79,"Duration":442804,"SoundDuration":442804,"Delta":671933464},{"NoteNumber":50,"Velocity":75,"Duration":147601,"SoundDuration":147601,"Delta":671933464},{"NoteNumber":45,"Velocity":66,"Duration":147601,"SoundDuration":147601,"Delta":672081065},{"NoteNumber":41,"Velocity":66,"Duration":147601,"SoundDuration":147601,"Delta":672228667},{"NoteNumber":81,"Velocity":77,"Duration":894626,"SoundDuration":894626,"Delta":672376268},{"NoteNumber":84,"Velocity":77,"Duration":894626,"SoundDuration":894626,"Delta":672376268},{"NoteNumber":89,"Velocity":77,"Duration":894626,"SoundDuration":894626,"Delta":672376268},{"NoteNumber":93,"Velocity":93,"Duration":894626,"SoundDuration":894626,"Delta":672376268},{"NoteNumber":38,"Velocity":77,"Duration":147601,"SoundDuration":147601,"Delta":672376268},{"NoteNumber":33,"Velocity":68,"Duration":147601,"SoundDuration":147601,"Delta":672523869},{"NoteNumber":26,"Velocity":68,"Duration":162113,"SoundDuration":162113,"Delta":672671471},{"NoteNumber":31,"Velocity":78,"Duration":152823,"SoundDuration":152823,"Delta":672833585},{"NoteNumber":43,"Velocity":69,"Duration":133720,"SoundDuration":133720,"Delta":672986408},{"NoteNumber":43,"Velocity":69,"Duration":160810,"SoundDuration":160810,"Delta":673139231},{"NoteNumber":81,"Velocity":79,"Duration":906326,"SoundDuration":906326,"Delta":673300042},{"NoteNumber":84,"Velocity":79,"Duration":906326,"SoundDuration":906326,"Delta":673300042},{"NoteNumber":89,"Velocity":79,"Duration":906326,"SoundDuration":906326,"Delta":673300042},{"NoteNumber":93,"Velocity":95,"Duration":906326,"SoundDuration":906326,"Delta":673300042},{"NoteNumber":55,"Velocity":79,"Duration":153409,"SoundDuration":153409,"Delta":673300042},{"NoteNumber":54,"Velocity":70,"Duration":153409,"SoundDuration":153409,"Delta":673453451},{"NoteNumber":55,"Velocity":71,"Duration":153409,"SoundDuration":153409,"Delta":673606861},{"NoteNumber":43,"Velocity":80,"Duration":148698,"SoundDuration":148698,"Delta":673760271},{"NoteNumber":55,"Velocity":70,"Duration":130111,"SoundDuration":130111,"Delta":673908970},{"NoteNumber":55,"Velocity":70,"Duration":148698,"SoundDuration":148698,"Delta":674057669},{"NoteNumber":79,"Velocity":81,"Duration":927368,"SoundDuration":927368,"Delta":674206368},{"NoteNumber":83,"Velocity":81,"Duration":927368,"SoundDuration":927368,"Delta":674206368},{"NoteNumber":88,"Velocity":81,"Duration":927368,"SoundDuration":927368,"Delta":674206368},{"NoteNumber":91,"Velocity":97,"Duration":927368,"SoundDuration":927368,"Delta":674206368},{"NoteNumber":67,"Velocity":81,"Duration":149398,"SoundDuration":149398,"Delta":674206368},{"NoteNumber":66,"Velocity":72,"Duration":149398,"SoundDuration":149398,"Delta":674355766},{"NoteNumber":69,"Velocity":71,"Duration":162113,"SoundDuration":162113,"Delta":674505165},{"NoteNumber":67,"Velocity":82,"Duration":152823,"SoundDuration":152823,"Delta":674667279},{"NoteNumber":64,"Velocity":73,"Duration":152823,"SoundDuration":152823,"Delta":674820102},{"NoteNumber":59,"Velocity":73,"Duration":160810,"SoundDuration":160810,"Delta":674972926},{"NoteNumber":89,"Velocity":101,"Duration":908425,"SoundDuration":908425,"Delta":675133736},{"NoteNumber":77,"Velocity":83,"Duration":908425,"SoundDuration":908425,"Delta":675133736},{"NoteNumber":83,"Velocity":83,"Duration":908425,"SoundDuration":908425,"Delta":675133736},{"NoteNumber":86,"Velocity":83,"Duration":908425,"SoundDuration":908425,"Delta":675133736},{"NoteNumber":55,"Velocity":83,"Duration":153409,"SoundDuration":153409,"Delta":675133736},{"NoteNumber":50,"Velocity":74,"Duration":153409,"SoundDuration":153409,"Delta":675287146},{"NoteNumber":47,"Velocity":74,"Duration":153409,"SoundDuration":153409,"Delta":675440555},{"NoteNumber":43,"Velocity":84,"Duration":149398,"SoundDuration":149398,"Delta":675593965},{"NoteNumber":38,"Velocity":74,"Duration":149398,"SoundDuration":149398,"Delta":675743364},{"NoteNumber":35,"Velocity":74,"Duration":149398,"SoundDuration":149398,"Delta":675892762},{"NoteNumber":71,"Velocity":78,"Duration":436594,"SoundDuration":436594,"Delta":676042161},{"NoteNumber":77,"Velocity":78,"Duration":436594,"SoundDuration":436594,"Delta":676042161},{"NoteNumber":79,"Velocity":78,"Duration":436594,"SoundDuration":436594,"Delta":676042161},{"NoteNumber":83,"Velocity":94,"Duration":436594,"SoundDuration":436594,"Delta":676042161},{"NoteNumber":31,"Velocity":85,"Duration":149398,"SoundDuration":149398,"Delta":676042161},{"NoteNumber":38,"Velocity":76,"Duration":149398,"SoundDuration":149398,"Delta":676191560},{"NoteNumber":43,"Velocity":75,"Duration":162113,"SoundDuration":162113,"Delta":676340958},{"NoteNumber":72,"Velocity":79,"Duration":486342,"SoundDuration":486342,"Delta":676503072},{"NoteNumber":76,"Velocity":79,"Duration":486342,"SoundDuration":486342,"Delta":676503072},{"NoteNumber":79,"Velocity":79,"Duration":486342,"SoundDuration":486342,"Delta":676503072},{"NoteNumber":84,"Velocity":95,"Duration":486342,"SoundDuration":486342,"Delta":676503072},{"NoteNumber":36,"Velocity":86,"Duration":486342,"SoundDuration":486342,"Delta":676503072},{"NoteNumber":76,"Velocity":80,"Duration":199453,"SoundDuration":199453,"Delta":677232585},{"NoteNumber":72,"Velocity":67,"Duration":199453,"SoundDuration":199453,"Delta":677232585},{"NoteNumber":64,"Velocity":67,"Duration":199453,"SoundDuration":199453,"Delta":677232585},{"NoteNumber":48,"Velocity":63,"Duration":199453,"SoundDuration":199453,"Delta":677232585},{"NoteNumber":55,"Velocity":63,"Duration":199453,"SoundDuration":199453,"Delta":677232585},{"NoteNumber":60,"Velocity":74,"Duration":199453,"SoundDuration":199453,"Delta":677232585},{"NoteNumber":76,"Velocity":85,"Duration":494356,"SoundDuration":494356,"Delta":677454200},{"NoteNumber":64,"Velocity":71,"Duration":494356,"SoundDuration":494356,"Delta":677454200},{"NoteNumber":72,"Velocity":71,"Duration":494356,"SoundDuration":494356,"Delta":677454200},{"NoteNumber":48,"Velocity":63,"Duration":494356,"SoundDuration":494356,"Delta":677454200},{"NoteNumber":55,"Velocity":63,"Duration":494356,"SoundDuration":494356,"Delta":677454200},{"NoteNumber":60,"Velocity":74,"Duration":494356,"SoundDuration":494356,"Delta":677454200},{"NoteNumber":72,"Velocity":69,"Duration":115499,"SoundDuration":115499,"Delta":677948556},{"NoteNumber":65,"Velocity":69,"Duration":115499,"SoundDuration":115499,"Delta":677948556},{"NoteNumber":77,"Velocity":81,"Duration":115499,"SoundDuration":115499,"Delta":677948556},{"NoteNumber":50,"Velocity":57,"Duration":115499,"SoundDuration":115499,"Delta":677948556},{"NoteNumber":62,"Velocity":67,"Duration":115499,"SoundDuration":115499,"Delta":677948556},{"NoteNumber":67,"Velocity":72,"Duration":127258,"SoundDuration":127258,"Delta":678179556},{"NoteNumber":72,"Velocity":72,"Duration":127258,"SoundDuration":127258,"Delta":678179556},{"NoteNumber":79,"Velocity":86,"Duration":127258,"SoundDuration":127258,"Delta":678179556},{"NoteNumber":52,"Velocity":63,"Duration":127258,"SoundDuration":127258,"Delta":678179556},{"NoteNumber":60,"Velocity":63,"Duration":127258,"SoundDuration":127258,"Delta":678179556},{"NoteNumber":64,"Velocity":74,"Duration":127258,"SoundDuration":127258,"Delta":678179556},{"NoteNumber":69,"Velocity":75,"Duration":116849,"SoundDuration":116849,"Delta":678434074},{"NoteNumber":72,"Velocity":75,"Duration":116849,"SoundDuration":116849,"Delta":678434074},{"NoteNumber":81,"Velocity":89,"Duration":116849,"SoundDuration":116849,"Delta":678434074},{"NoteNumber":53,"Velocity":64,"Duration":116849,"SoundDuration":116849,"Delta":678434074},{"NoteNumber":60,"Velocity":64,"Duration":116849,"SoundDuration":116849,"Delta":678434074},{"NoteNumber":65,"Velocity":77,"Duration":116849,"SoundDuration":116849,"Delta":678434074},{"NoteNumber":67,"Velocity":71,"Duration":116849,"SoundDuration":116849,"Delta":678901473},{"NoteNumber":79,"Velocity":85,"Duration":116849,"SoundDuration":116849,"Delta":678901473},{"NoteNumber":72,"Velocity":71,"Duration":116849,"SoundDuration":116849,"Delta":678901473},{"NoteNumber":52,"Velocity":59,"Duration":116849,"SoundDuration":116849,"Delta":678901473},{"NoteNumber":60,"Velocity":59,"Duration":116849,"SoundDuration":116849,"Delta":678901473},{"NoteNumber":64,"Velocity":71,"Duration":116849,"SoundDuration":116849,"Delta":678901473},{"NoteNumber":60,"Velocity":82,"Duration":237885,"SoundDuration":237885,"Delta":680069970},{"NoteNumber":57,"Velocity":69,"Duration":237885,"SoundDuration":237885,"Delta":680069970},{"NoteNumber":52,"Velocity":69,"Duration":237885,"SoundDuration":237885,"Delta":680069970},{"NoteNumber":33,"Velocity":58,"Duration":237885,"SoundDuration":237885,"Delta":680069970},{"NoteNumber":45,"Velocity":69,"Duration":237885,"SoundDuration":237885,"Delta":680069970},{"NoteNumber":60,"Velocity":88,"Duration":991995,"SoundDuration":991995,"Delta":680334287},{"NoteNumber":52,"Velocity":74,"Duration":991995,"SoundDuration":991995,"Delta":680334287},{"NoteNumber":57,"Velocity":74,"Duration":991995,"SoundDuration":991995,"Delta":680334287},{"NoteNumber":33,"Velocity":62,"Duration":991995,"SoundDuration":991995,"Delta":680334287},{"NoteNumber":45,"Velocity":74,"Duration":991995,"SoundDuration":991995,"Delta":680334287},{"NoteNumber":57,"Velocity":72,"Duration":476987,"SoundDuration":476987,"Delta":681358505},{"NoteNumber":60,"Velocity":72,"Duration":476987,"SoundDuration":476987,"Delta":681358505},{"NoteNumber":62,"Velocity":85,"Duration":476987,"SoundDuration":476987,"Delta":681358505},{"NoteNumber":29,"Velocity":62,"Duration":476987,"SoundDuration":476987,"Delta":681358505},{"NoteNumber":41,"Velocity":74,"Duration":476987,"SoundDuration":476987,"Delta":681358505},{"NoteNumber":57,"Velocity":73,"Duration":520547,"SoundDuration":520547,"Delta":681860597},{"NoteNumber":60,"Velocity":73,"Duration":520547,"SoundDuration":520547,"Delta":681860597},{"NoteNumber":64,"Velocity":86,"Duration":520547,"SoundDuration":520547,"Delta":681860597},{"NoteNumber":28,"Velocity":62,"Duration":520547,"SoundDuration":520547,"Delta":681860597},{"NoteNumber":40,"Velocity":74,"Duration":520547,"SoundDuration":520547,"Delta":681860597},{"NoteNumber":57,"Velocity":75,"Duration":1026782,"SoundDuration":1026782,"Delta":682408542},{"NoteNumber":60,"Velocity":75,"Duration":1026782,"SoundDuration":1026782,"Delta":682408542},{"NoteNumber":65,"Velocity":89,"Duration":2390418,"SoundDuration":2390418,"Delta":682408542},{"NoteNumber":26,"Velocity":68,"Duration":1026782,"SoundDuration":1026782,"Delta":682408542},{"NoteNumber":38,"Velocity":80,"Duration":2390418,"SoundDuration":2390418,"Delta":682408542},{"NoteNumber":55,"Velocity":76,"Duration":1322442,"SoundDuration":1322442,"Delta":683435324},{"NoteNumber":59,"Velocity":90,"Duration":1322442,"SoundDuration":1322442,"Delta":683435324},{"NoteNumber":31,"Velocity":65,"Duration":1322442,"SoundDuration":1322442,"Delta":683435324},{"NoteNumber":55,"Velocity":73,"Duration":2727271,"SoundDuration":2727271,"Delta":684798960},{"NoteNumber":60,"Velocity":73,"Duration":2727271,"SoundDuration":2727271,"Delta":684798960},{"NoteNumber":64,"Velocity":87,"Duration":2727271,"SoundDuration":2727271,"Delta":684798960},{"NoteNumber":24,"Velocity":69,"Duration":2727271,"SoundDuration":2727271,"Delta":684798960},{"NoteNumber":36,"Velocity":82,"Duration":2727271,"SoundDuration":2727271,"Delta":684798960}],"license":{"name":"Creative Commons Attribution-ShareAlike 3.0 Germany","url":"http://creativecommons.org/licenses/by-sa/3.0/de/deed.en","text":"The MIDI, audio (MP3, OGG) and video files of Bernd Krueger are licensed under the cc-by-sa Germany License. This means that you can use and adapt the files, as long as you attribute the copyright holder.\n\nName: Bernd Krueger\nSource: http://www.piano-midi.de\n\nThe distribution or public playback of the files is only allowed under identical license conditions.\n\nThe scores are open source.","attribution":"MIDI files by Bernd Krueger (piano-midi.de)","attributionUrl":"http://www.piano-midi.de"}}